<svg width="256" height="256" viewBox="0 0 256 256" fill="none" xmlns="http://www.w3.org/2000/svg">
<path d="M196 0H60C26.8629 0 0 26.8629 0 60V196C0 229.137 26.8629 256 60 256H196C229.137 256 256 229.137 256 196V60C256 26.8629 229.137 0 196 0Z" fill="#F4F2ED"/>
<path d="M128.15 76C72.2811 76 26.9854 121.907 27 178.518H52.8407C52.8407 136.092 86.2909 101.695 128.15 101.695C170.009 101.695 203.459 136.092 203.459 178.518H229.299C229.31 121.907 184.014 76 128.15 76Z" fill="#9391FE"/>
<path d="M101.298 180.935C112.654 180.935 121.859 171.779 121.859 160.486C121.859 149.192 112.654 140.037 101.298 140.037C89.9429 140.037 80.7373 149.192 80.7373 160.486C80.7373 171.779 89.9429 180.935 101.298 180.935Z" fill="#9391FE"/>
<path d="M155.035 180.935C166.391 180.935 175.597 171.779 175.597 160.486C175.597 149.192 166.391 140.037 155.035 140.037C143.68 140.037 134.475 149.192 134.475 160.486C134.475 171.779 143.68 180.935 155.035 180.935Z" fill="#9391FE"/>
</svg>
