<svg width="256" height="256" viewBox="0 0 256 256" fill="none" xmlns="http://www.w3.org/2000/svg">
<path d="M196 0H60C26.8629 0 0 26.8629 0 60V196C0 229.137 26.8629 256 60 256H196C229.137 256 256 229.137 256 196V60C256 26.8629 229.137 0 196 0Z" fill="#A7F175"/>
<path d="M208 72.7429C208 46.3674 177.478 35 138.516 35C114.816 35 88.0174 39.3911 63.1298 47.2485V98.8252C99.8066 72.0864 140.556 60.6397 166.804 60.6397C183.309 60.6397 194.508 65.2501 194.508 73.5078C194.508 107.536 47 102.144 47 175.67C47 203.853 66.3605 220 93.5986 220C134.798 220 165.961 179.923 189.274 131.07L193.998 132.769C181.719 162.623 156.31 195.356 151.361 216.399H204.402V107.535H192.151C174.369 146.212 148.312 181.852 121.256 181.852C108.905 181.852 101.047 174.351 101.047 164.838C101.047 124.128 208 115.977 208 72.7429Z" fill="black"/>
</svg>
