<svg width="256" height="256" viewBox="0 0 256 256" fill="none" xmlns="http://www.w3.org/2000/svg">
<path d="M196 0H60C26.8629 0 0 26.8629 0 60V196C0 229.137 26.8629 256 60 256H196C229.137 256 256 229.137 256 196V60C256 26.8629 229.137 0 196 0Z" fill="#FF3F18"/>
<path d="M70.1322 87.2189H39.0999V98.1194H62.556L82.5452 151.299H95.458L70.1322 87.2189Z" fill="white"/>
<path d="M53.3214 140.399H21.5461V151.299H53.3214V140.399Z" fill="white"/>
<path fill-rule="evenodd" clip-rule="evenodd" d="M137.638 149.678L137.602 149.642C137.372 155.557 135.542 160.093 132.034 163.178C129.767 165.186 126.498 166.626 122.885 167.423C119.265 168.222 115.258 168.385 111.483 167.804C103.958 166.645 97.1555 162.471 96.4921 154.263L96.4444 153.672H106.921L106.992 154.135C107.553 157.78 110.828 159.624 114.699 160.009C116.617 160.2 118.627 160.02 120.404 159.538C122.189 159.054 123.694 158.277 124.643 157.312L124.658 157.297L124.674 157.283C125.285 156.751 125.766 155.957 126.134 154.951C126.501 153.948 126.745 152.766 126.902 151.497C127.217 148.954 127.179 146.137 127.146 143.829L127.146 143.824L127.142 143.543C124.519 147.661 121.095 149.958 117.479 150.853C113.475 151.844 109.287 151.104 105.762 149.307C101.721 147.362 99.018 143.819 97.3375 139.752C95.6573 135.686 94.983 131.061 95.0158 126.874C94.9726 118.712 98.799 109.089 106.514 105.465C109.976 103.811 114.242 103.156 118.201 104.09C121.685 104.912 124.918 106.962 127.13 110.607V104.833H137.638V149.678ZM124.422 137.958C122.562 140.81 119.825 142.651 116.204 142.596H116.193C112.626 142.612 109.942 140.775 108.127 137.945C106.302 135.098 105.371 131.263 105.371 127.395C105.371 123.527 106.302 119.692 108.127 116.847C109.942 114.019 112.625 112.184 116.193 112.202H116.202L116.211 112.202C119.892 112.096 122.639 113.899 124.487 116.718C126.347 119.556 127.284 123.415 127.27 127.315C127.256 131.215 126.291 135.09 124.422 137.958Z" fill="white"/>
<path d="M154.677 110.853V104.81H144.693V151.332H155.168V122.829C155.168 121.359 155.41 119.967 155.879 118.65C156.35 117.332 157.003 116.214 157.827 115.287L157.836 115.276C158.668 114.29 159.659 113.544 160.846 113.031L160.855 113.027L160.863 113.023C162.05 112.46 163.389 112.169 164.911 112.169C167.614 112.169 169.497 112.906 170.667 114.283L170.676 114.292C171.869 115.636 172.57 117.893 172.678 121.187V151.332H183.153V118.707C183.153 113.774 181.779 109.973 178.941 107.421C176.128 104.891 172.303 103.651 167.544 103.651C164.657 103.651 162.005 104.352 159.612 105.782C157.63 106.92 155.992 108.884 154.677 110.853Z" fill="white"/>
<path fill-rule="evenodd" clip-rule="evenodd" d="M227.916 111.04C224.222 106.428 218.675 103.435 211.319 103.662C203.965 103.435 198.418 106.428 194.724 111.04C191.038 115.639 189.214 121.822 189.215 127.977C189.216 134.132 191.042 140.314 194.726 144.912C198.421 149.523 203.967 152.514 211.319 152.284C218.672 152.514 224.217 149.523 227.913 144.912C231.598 140.314 233.423 134.132 233.424 127.977C233.424 121.822 231.6 115.639 227.916 111.04ZM220.014 138.915C218.062 141.853 215.171 143.771 211.321 143.755H211.317C207.468 143.771 204.578 141.853 202.626 138.915C200.664 135.961 199.662 131.983 199.659 127.974C199.657 123.965 200.653 119.988 202.614 117.036C204.563 114.1 207.456 112.183 211.317 112.202H211.323C215.183 112.183 218.076 114.1 220.026 117.036C221.987 119.988 222.983 123.965 222.98 127.974C222.977 131.983 221.976 135.961 220.014 138.915Z" fill="white"/>
</svg>
