<svg width="256" height="256" viewBox="0 0 256 256" fill="none" xmlns="http://www.w3.org/2000/svg">
<path d="M196 0H60C26.8629 0 0 26.8629 0 60V196C0 229.137 26.8629 256 60 256H196C229.137 256 256 229.137 256 196V60C256 26.8629 229.137 0 196 0Z" fill="#242938"/>
<path d="M128 223C180.467 223 223 180.467 223 128C223 75.5329 180.467 33 128 33C75.5329 33 33 75.5329 33 128C33 180.467 75.5329 223 128 223Z" fill="#009CFB"/>
<path d="M42.6797 131C43.7891 129.035 45.0907 126.609 46.5845 123.722L50.794 115.643C52.1043 113.147 53.1963 110.987 54.0699 109.164C55.4566 109.185 56.4394 109.196 57.0181 109.196C58.0315 109.196 59.023 109.185 59.9926 109.164L62.2857 115.715L67.2552 129.248L67.9431 131.007L65.5485 130.974C64.9938 130.974 64.0623 130.985 62.7542 131.007C62.4987 130.057 62.0957 128.777 61.5454 127.168C60.995 125.558 60.5277 124.248 60.1433 123.237H51.7014C50.4544 125.779 49.2434 128.367 48.0685 131L45.4478 130.968C44.9586 130.968 44.0359 130.979 42.6797 131ZM53.1231 119.915H59.2523L56.7364 112.512L55.4261 115.204L53.1231 119.915Z" fill="white"/>
<g opacity="0.7">
<path d="M69.0011 130.519L68.8242 128.76C69.2541 128.942 69.6977 129.09 70.1509 129.202C70.4783 129.281 70.8134 129.322 71.1501 129.326C71.4098 129.333 71.6688 129.296 71.9166 129.218C72.1025 129.161 72.2654 129.046 72.3818 128.891C72.4778 128.763 72.5306 128.608 72.5325 128.448C72.5332 128.384 72.5266 128.319 72.5128 128.255C72.4971 128.191 72.4729 128.129 72.4408 128.072C72.406 128.008 72.3654 127.948 72.3196 127.892C72.2623 127.823 72.1999 127.758 72.1328 127.698C72.052 127.626 71.9428 127.535 71.8053 127.423L71.3728 127.096C70.9579 126.77 70.6401 126.515 70.4196 126.329C70.2165 126.158 70.0321 125.966 69.8692 125.756C69.7288 125.569 69.6183 125.361 69.5416 125.14C69.435 124.847 69.401 124.533 69.4426 124.224C69.4843 123.916 69.6003 123.622 69.7808 123.368C70.0325 123.004 70.3959 122.733 70.8159 122.595C71.331 122.423 71.8717 122.341 72.4146 122.352C73.2251 122.364 74.033 122.447 74.8289 122.601L74.9337 124.272C74.3696 124.032 73.7644 123.904 73.1516 123.895C72.878 123.891 72.605 123.922 72.3392 123.987C72.1469 124.024 71.9715 124.122 71.838 124.265C71.7403 124.383 71.687 124.531 71.6873 124.685C71.6878 124.776 71.7044 124.867 71.7365 124.953C71.776 125.054 71.8325 125.147 71.9035 125.228C71.9865 125.327 72.0786 125.418 72.1787 125.5C72.2835 125.585 72.5019 125.754 72.8339 126.005C73.1658 126.256 73.4552 126.483 73.702 126.686C73.9283 126.867 74.1338 127.072 74.3146 127.299C74.4703 127.497 74.5941 127.718 74.6815 127.954C74.7654 128.181 74.8086 128.422 74.8092 128.665C74.8092 129.065 74.6806 129.454 74.4423 129.775C74.1586 130.145 73.7724 130.423 73.3318 130.575C72.7997 130.773 72.2354 130.871 71.6677 130.863C71.2779 130.859 70.8886 130.833 70.5015 130.787C69.996 130.731 69.4948 130.641 69.0011 130.519Z" fill="white"/>
<path d="M75.3986 134.342C75.3025 133.543 75.225 132.967 75.166 132.616C75.6163 132.841 76.1107 132.964 76.6139 132.976C76.7564 132.975 76.8982 132.958 77.0365 132.924C77.1753 132.891 77.3095 132.841 77.4362 132.776C77.5251 132.726 77.6067 132.665 77.6786 132.593C77.8008 132.457 77.9104 132.31 78.0062 132.154C78.1443 131.951 78.2701 131.74 78.3829 131.521C78.4836 131.303 78.5712 131.079 78.645 130.85L76.9808 125.989L75.7655 122.539C76.3246 122.539 76.7275 122.539 76.9743 122.539C77.256 122.539 77.6262 122.539 78.0848 122.539C78.1962 122.976 78.3054 123.36 78.4124 123.692L79.1724 126.205C79.4061 126.978 79.5742 127.559 79.6769 127.948C79.7402 128.203 79.8145 128.542 79.8996 128.963C80.0591 128.478 80.1977 128.084 80.3157 127.78C80.5341 127.226 80.8245 126.484 81.1871 125.556L81.9634 123.643C82.101 123.302 82.2419 122.934 82.386 122.539C82.8665 122.539 83.2323 122.539 83.4834 122.539H84.6365L81.5572 129.438L80.2207 132.485C80.0748 132.81 79.8947 133.118 79.6834 133.405C79.5524 133.583 79.3994 133.744 79.2281 133.883C79.0713 134.012 78.8997 134.122 78.717 134.211C78.4783 134.321 78.2292 134.406 77.9734 134.466C77.6707 134.53 77.3622 134.562 77.0529 134.561C76.876 134.561 76.6303 134.545 76.3158 134.512C76.0064 134.477 75.6999 134.42 75.3986 134.342Z" fill="white"/>
<path d="M85.1738 130.67C85.2961 129.46 85.3977 128.1 85.4785 126.591C85.5593 125.082 85.6062 123.73 85.6193 122.536C86.1107 122.536 86.5027 122.536 86.7954 122.536C87.1426 122.536 87.5106 122.536 87.8993 122.536L87.8109 123.895C87.945 123.7 88.0905 123.513 88.2466 123.335C88.3905 123.18 88.5522 123.043 88.7281 122.925C88.9208 122.79 89.13 122.68 89.3506 122.598C89.5924 122.512 89.8412 122.447 90.0942 122.405C90.3787 122.356 90.667 122.332 90.9557 122.333C91.416 122.331 91.8744 122.391 92.3185 122.513C92.7123 122.611 93.0743 122.808 93.37 123.086C93.619 123.319 93.8011 123.614 93.8974 123.941C93.984 124.261 94.027 124.592 94.0252 124.924C94.0252 125.068 94.0176 125.297 94.0023 125.612L93.8385 129.107C93.8166 129.592 93.8035 130.109 93.7992 130.66C93.3777 130.66 93.0173 130.66 92.7181 130.66C92.3119 130.66 91.9035 130.66 91.493 130.66C91.5366 130.197 91.5901 129.388 91.6535 128.232C91.7168 127.077 91.7485 126.313 91.7485 125.939C91.7634 125.59 91.6949 125.242 91.5487 124.924C91.4128 124.666 91.195 124.461 90.9295 124.341C90.646 124.206 90.3358 124.138 90.0221 124.141C89.7144 124.138 89.4097 124.201 89.1278 124.324C88.8503 124.447 88.604 124.631 88.4071 124.862C88.1835 125.121 88.0152 125.423 87.9124 125.749C87.7533 126.353 87.6621 126.973 87.6406 127.597C87.586 128.359 87.5434 129.38 87.5128 130.66C87.1022 130.66 86.731 130.66 86.399 130.66C86.067 130.66 85.6587 130.663 85.1738 130.67Z" fill="white"/>
<path d="M102.088 128.825C102.062 129.043 102.021 129.291 101.967 129.569C101.912 129.846 101.856 130.19 101.8 130.601C101.061 130.773 100.305 130.861 99.5458 130.863C99.1267 130.864 98.7087 130.823 98.2977 130.741C97.9034 130.664 97.5255 130.519 97.1806 130.312C96.83 130.101 96.5222 129.825 96.2732 129.5C95.9989 129.137 95.7996 128.722 95.6868 128.281C95.5557 127.801 95.4896 127.305 95.4902 126.807C95.4892 126.148 95.6 125.493 95.8178 124.871C96.0057 124.296 96.3306 123.776 96.7646 123.354C97.1542 122.977 97.6315 122.702 98.1535 122.555C98.708 122.408 99.28 122.336 99.8537 122.342C100.212 122.342 100.569 122.362 100.925 122.401C101.366 122.454 101.804 122.535 102.235 122.644L102.356 124.396C101.691 124.148 100.989 124.01 100.28 123.987C99.9294 123.985 99.5819 124.047 99.2542 124.17C98.9343 124.292 98.6495 124.491 98.4254 124.75C98.1937 125.015 98.0246 125.328 97.9308 125.667C97.8325 126.013 97.7828 126.372 97.7833 126.732C97.7737 127.18 97.8539 127.625 98.0192 128.042C98.1786 128.415 98.4654 128.719 98.8283 128.9C99.2332 129.109 99.6834 129.213 100.139 129.205C100.432 129.2 100.725 129.169 101.013 129.113C101.379 129.047 101.738 128.951 102.088 128.825Z" fill="white"/>
</g>
<path d="M103.592 131C103.847 127.331 104.055 123.57 104.214 119.715C104.374 115.86 104.453 112.912 104.453 110.87V109.16L107.126 109.193L109.577 109.16C109.14 114.768 108.864 122.046 108.748 130.994L106.396 130.961C105.988 130.965 105.053 130.978 103.592 131Z" fill="white"/>
<path d="M125.602 108.784C127.154 108.777 128.699 108.998 130.188 109.439C131.623 109.862 132.95 110.591 134.076 111.575C135.175 112.519 136.049 113.696 136.635 115.021C137.238 116.473 137.532 118.035 137.5 119.607C137.506 121.213 137.23 122.808 136.684 124.318C136.158 125.79 135.293 127.116 134.158 128.19C132.964 129.304 131.529 130.129 129.965 130.601C126.687 131.624 123.179 131.647 119.889 130.667C118.384 130.225 116.997 129.456 115.827 128.413C114.736 127.455 113.898 126.243 113.386 124.885C112.886 123.503 112.636 122.043 112.649 120.574C112.648 118.907 112.966 117.256 113.586 115.709C114.155 114.225 115.083 112.906 116.288 111.87C117.516 110.84 118.934 110.06 120.462 109.577C122.122 109.041 123.857 108.773 125.602 108.784ZM125.346 112.191C123.867 112.155 122.409 112.54 121.14 113.301C119.96 114.026 119.022 115.084 118.444 116.341C117.837 117.646 117.528 119.069 117.54 120.508C117.526 121.835 117.825 123.147 118.411 124.338C118.987 125.498 119.929 126.436 121.091 127.008C122.158 127.541 123.323 127.85 124.514 127.915C125.706 127.98 126.897 127.799 128.016 127.384C128.961 127.032 129.812 126.466 130.502 125.73C131.216 124.962 131.754 124.048 132.078 123.05C132.432 121.995 132.61 120.888 132.605 119.775C132.609 118.743 132.45 117.717 132.134 116.735C131.84 115.801 131.34 114.945 130.669 114.232C130.007 113.532 129.187 113 128.278 112.679C127.336 112.347 126.344 112.182 125.346 112.191Z" fill="white"/>
<g opacity="0.7">
<path d="M105.76 143.446L105.936 141.11L106.11 137.631L106.221 134.208H105.661H105.144H104.649L102.805 134.264C102.848 133.495 102.872 132.911 102.877 132.511C104.405 132.511 106.013 132.511 107.699 132.511H110.568H112.105C112.052 133.269 112.026 133.853 112.026 134.264C111.061 134.216 110.136 134.192 109.252 134.192H108.636L108.541 135.653L108.311 141.274V142.218C108.311 142.606 108.311 143.01 108.311 143.43H107.093L105.76 143.446Z" fill="white"/>
<path d="M119.988 141.631C119.918 141.945 119.819 142.511 119.693 143.328C119.116 143.45 118.631 143.533 118.238 143.577C117.842 143.62 117.444 143.642 117.046 143.642C116.414 143.65 115.784 143.581 115.169 143.436C114.63 143.304 114.132 143.042 113.718 142.673C113.302 142.303 112.985 141.834 112.797 141.31C112.599 140.767 112.5 140.194 112.502 139.616C112.496 138.966 112.607 138.32 112.83 137.71C113.03 137.139 113.36 136.622 113.793 136.2C114.192 135.816 114.676 135.531 115.205 135.367C115.741 135.204 116.299 135.123 116.859 135.125C117.383 135.122 117.906 135.191 118.412 135.328C118.87 135.444 119.294 135.669 119.647 135.983C119.981 136.294 120.243 136.674 120.413 137.097C120.597 137.557 120.688 138.049 120.682 138.545C120.681 138.805 120.655 139.064 120.603 139.318H114.74C114.74 139.515 114.74 139.672 114.74 139.79C114.736 140.126 114.798 140.46 114.923 140.773C115.041 141.064 115.225 141.324 115.46 141.533C115.703 141.745 115.989 141.901 116.299 141.991C116.61 142.088 116.933 142.138 117.259 142.139C117.66 142.135 118.06 142.094 118.454 142.018C118.973 141.921 119.485 141.792 119.988 141.631ZM114.822 138.401H118.566C118.569 138.212 118.562 138.023 118.543 137.834C118.522 137.691 118.485 137.551 118.435 137.415C118.382 137.265 118.305 137.126 118.205 137.002C118.114 136.885 118.003 136.784 117.878 136.704C117.741 136.621 117.592 136.559 117.436 136.521C117.259 136.478 117.077 136.457 116.895 136.458C116.673 136.458 116.451 136.493 116.24 136.563C116.031 136.631 115.835 136.732 115.66 136.865C115.493 136.987 115.348 137.138 115.231 137.31C115.131 137.458 115.049 137.617 114.989 137.785C114.92 137.987 114.864 138.192 114.822 138.401Z" fill="white"/>
<path d="M121.912 143.445C121.991 142.546 122.088 140.926 122.204 138.587C122.319 136.248 122.389 134.229 122.413 132.53H123.599C123.914 132.53 124.298 132.53 124.752 132.53L124.562 135.449L124.284 141.958L124.251 143.445C123.814 143.445 123.443 143.445 123.137 143.445H121.912Z" fill="white"/>
<path d="M133.509 141.631C133.439 141.945 133.341 142.511 133.214 143.328C132.638 143.45 132.153 143.533 131.76 143.577C131.364 143.62 130.966 143.642 130.567 143.642C129.936 143.65 129.305 143.581 128.69 143.436C128.151 143.304 127.653 143.042 127.239 142.673C126.823 142.303 126.506 141.834 126.319 141.31C126.121 140.767 126.021 140.194 126.024 139.616C126.017 138.966 126.128 138.32 126.351 137.71C126.559 137.133 126.899 136.612 127.344 136.19C127.743 135.806 128.227 135.521 128.756 135.358C129.292 135.195 129.85 135.113 130.41 135.115C130.934 135.112 131.457 135.181 131.963 135.318C132.421 135.435 132.845 135.659 133.198 135.974C133.532 136.284 133.794 136.664 133.964 137.087C134.148 137.548 134.239 138.04 134.233 138.535C134.232 138.795 134.206 139.054 134.154 139.308H128.291C128.291 139.505 128.291 139.662 128.291 139.78C128.287 140.117 128.349 140.451 128.474 140.763C128.592 141.054 128.776 141.315 129.011 141.523C129.254 141.735 129.54 141.892 129.85 141.982C130.161 142.078 130.484 142.128 130.81 142.129C131.211 142.125 131.611 142.085 132.005 142.008C132.514 141.913 133.016 141.787 133.509 141.631ZM128.343 138.401H132.087C132.091 138.212 132.083 138.023 132.064 137.834C132.043 137.691 132.007 137.551 131.956 137.415C131.904 137.265 131.826 137.126 131.727 137.002C131.635 136.885 131.525 136.784 131.399 136.704C131.259 136.618 131.107 136.555 130.947 136.517C130.77 136.474 130.589 136.453 130.407 136.455C130.184 136.455 129.963 136.49 129.752 136.56C129.543 136.627 129.347 136.729 129.172 136.861C129.004 136.984 128.859 137.135 128.743 137.307C128.641 137.454 128.559 137.614 128.497 137.782C128.432 137.985 128.381 138.192 128.343 138.401Z" fill="white"/>
</g>
<path d="M136.845 142.892C139.247 143.681 141.322 144.075 143.069 144.075C143.712 144.078 144.352 143.994 144.972 143.826C145.516 143.687 146.026 143.443 146.476 143.108C146.897 142.773 147.223 142.332 147.42 141.831C147.658 141.233 147.81 140.604 147.868 139.964C147.943 139.256 148.002 138.184 148.045 136.747C147.71 137.214 147.335 137.653 146.925 138.057C146.567 138.391 146.166 138.677 145.732 138.905C145.214 139.176 144.664 139.381 144.095 139.515C142.565 139.884 140.963 139.812 139.472 139.308C138.632 139.016 137.865 138.545 137.225 137.926C136.547 137.263 136.034 136.449 135.728 135.551C135.386 134.593 135.213 133.583 135.217 132.567C135.209 131.122 135.494 129.691 136.056 128.36C136.582 127.075 137.43 125.947 138.519 125.085C139.541 124.262 140.724 123.663 141.991 123.325C143.333 122.993 144.711 122.832 146.093 122.847C146.925 122.847 147.868 122.897 148.923 122.998C149.978 123.098 151.375 123.304 153.113 123.614L152.746 128.681L152.419 135.027L152.32 140.776C152.291 141.407 152.211 142.035 152.081 142.653C151.965 143.227 151.759 143.78 151.472 144.291C151.195 144.776 150.838 145.211 150.417 145.578C149.985 145.955 149.497 146.26 148.969 146.482C148.325 146.742 147.655 146.932 146.971 147.049C146.129 147.202 145.275 147.277 144.419 147.272C143.312 147.264 142.207 147.199 141.107 147.079C139.744 146.928 138.392 146.687 137.061 146.358L136.845 142.892ZM148.524 126.447C147.677 126.264 146.815 126.168 145.949 126.159C144.756 126.114 143.572 126.376 142.509 126.919C141.601 127.427 140.869 128.201 140.412 129.137C139.925 130.094 139.672 131.155 139.675 132.229C139.669 132.997 139.822 133.758 140.124 134.463C140.4 135.127 140.893 135.678 141.523 136.026C142.167 136.38 142.891 136.562 143.626 136.553C144.146 136.558 144.663 136.471 145.153 136.298C145.63 136.125 146.068 135.857 146.44 135.512C146.846 135.131 147.189 134.689 147.456 134.201C147.758 133.65 147.969 133.052 148.078 132.432C148.22 131.616 148.314 130.793 148.36 129.966C148.432 128.978 148.49 127.807 148.533 126.451L148.524 126.447Z" fill="white"/>
<path d="M156.336 139.518L156.801 131.931L156.929 127.515C156.951 126.609 156.962 125.697 156.962 124.78C156.962 124.62 156.951 124.114 156.929 123.26C157.92 123.282 158.651 123.292 159.12 123.292C159.664 123.292 160.384 123.282 161.279 123.26L161.201 125.514C161.509 125.055 161.857 124.625 162.239 124.226C162.836 123.638 163.582 123.225 164.398 123.034C165.271 122.82 166.182 122.82 167.055 123.034C167.055 124.025 167.103 125.283 167.199 126.807C166.641 126.647 166.065 126.562 165.485 126.552C164.927 126.541 164.371 126.636 163.847 126.83C163.366 127.021 162.93 127.31 162.567 127.679C162.17 128.083 161.853 128.557 161.63 129.078C161.398 129.634 161.247 130.221 161.181 130.82C161.098 131.375 161.028 132.324 160.971 133.667C160.914 135.01 160.886 136.333 160.886 137.634C160.886 138.137 160.902 138.765 160.935 139.521C160.123 139.499 159.38 139.488 158.708 139.488C158.035 139.488 157.244 139.498 156.336 139.518Z" fill="white"/>
<path d="M170.3 126.817C170.449 126.049 170.542 125.51 170.579 125.202C170.616 124.894 170.683 124.425 170.779 123.794C172.045 123.486 173.326 123.246 174.618 123.073C175.684 122.938 176.757 122.869 177.832 122.867C178.922 122.857 180.008 122.995 181.062 123.276C181.933 123.491 182.727 123.944 183.355 124.587C183.909 125.183 184.187 126.041 184.187 127.161C184.187 127.769 184.102 129.317 183.931 131.807C183.761 134.296 183.66 136.869 183.63 139.524C182.82 139.503 182.073 139.492 181.389 139.492C180.706 139.492 179.941 139.503 179.096 139.524C179.236 138.234 179.345 136.741 179.424 135.046L179.633 131.063C179.335 131.266 179.025 131.453 178.706 131.623C178.473 131.738 178.232 131.836 177.986 131.918C177.719 132.007 177.25 132.146 176.577 132.334C175.904 132.522 175.365 132.684 174.959 132.822C174.58 132.949 174.213 133.106 173.861 133.294C173.56 133.452 173.282 133.652 173.036 133.887C172.829 134.081 172.663 134.315 172.548 134.575C172.445 134.821 172.394 135.085 172.397 135.351C172.388 135.772 172.527 136.182 172.79 136.511C173.042 136.831 173.385 137.068 173.773 137.192C174.224 137.329 174.694 137.394 175.165 137.385C175.527 137.384 175.888 137.358 176.246 137.307C176.765 137.218 177.276 137.084 177.773 136.907C177.466 137.8 177.204 138.707 176.99 139.626C176.232 139.755 175.629 139.835 175.181 139.865C174.734 139.896 174.318 139.912 173.933 139.914C172.804 139.952 171.679 139.767 170.621 139.371C169.798 139.044 169.12 138.431 168.712 137.644C168.315 136.911 168.104 136.093 168.096 135.259C168.1 134.312 168.433 133.396 169.039 132.668C169.39 132.257 169.793 131.893 170.238 131.587C170.9 131.157 171.616 130.818 172.367 130.578C173.574 130.178 174.804 129.85 176.049 129.595C176.456 129.51 176.877 129.401 177.314 129.268C177.672 129.173 178.022 129.052 178.362 128.907C178.614 128.797 178.845 128.643 179.044 128.452C179.22 128.286 179.364 128.088 179.466 127.869C179.556 127.674 179.603 127.461 179.604 127.247C179.612 126.855 179.465 126.475 179.194 126.192C178.907 125.895 178.541 125.687 178.139 125.592C177.671 125.476 177.19 125.42 176.708 125.425C174.784 125.425 172.648 125.889 170.3 126.817Z" fill="white"/>
<path d="M187.672 139.518C187.82 137.705 187.978 134.997 188.144 131.394C188.31 127.79 188.393 125.077 188.393 123.253C189.299 123.275 190.035 123.286 190.6 123.286C191.256 123.286 191.96 123.275 192.713 123.253L192.589 125.828C192.873 125.4 193.185 124.991 193.523 124.603C193.841 124.259 194.21 123.965 194.617 123.732C195.109 123.447 195.64 123.234 196.192 123.099C196.801 122.944 197.428 122.866 198.056 122.867C198.524 122.866 198.99 122.912 199.449 123.004C199.869 123.087 200.279 123.215 200.67 123.388C201.008 123.535 201.326 123.725 201.614 123.954C201.864 124.16 202.085 124.399 202.269 124.665C202.505 125.031 202.703 125.42 202.862 125.825C203.064 125.501 203.283 125.189 203.517 124.888C204.03 124.267 204.679 123.771 205.414 123.44C205.852 123.249 206.31 123.107 206.78 123.018C207.299 122.915 207.827 122.865 208.356 122.867C209.249 122.861 210.137 123.015 210.976 123.322C211.753 123.593 212.429 124.095 212.912 124.76C213.401 125.478 213.647 126.333 213.617 127.201C213.617 127.712 213.58 128.463 213.505 129.455C213.431 130.446 213.342 132.064 213.237 134.309C213.132 136.554 213.074 138.29 213.063 139.515C212.283 139.493 211.594 139.482 210.996 139.482C210.291 139.482 209.463 139.493 208.513 139.515C208.609 138.139 208.7 136.7 208.785 135.197L208.978 131.535C209.033 130.607 209.06 129.823 209.06 129.183C209.097 128.584 208.972 127.987 208.7 127.453C208.488 127.088 208.171 126.797 207.789 126.618C207.398 126.447 206.974 126.362 206.547 126.369C206.096 126.361 205.648 126.454 205.237 126.641C204.813 126.851 204.442 127.153 204.149 127.525C203.805 127.947 203.542 128.429 203.373 128.947C203.156 129.687 203.023 130.45 202.977 131.22C202.892 132.197 202.823 133.478 202.77 135.066L202.659 139.512C201.772 139.49 201.035 139.479 200.448 139.479C199.86 139.479 199.075 139.49 198.092 139.512C198.167 138.69 198.276 137.011 198.42 134.473C198.564 131.936 198.633 130.224 198.626 129.34C198.633 128.94 198.596 128.54 198.515 128.148C198.434 127.809 198.278 127.492 198.06 127.22C197.849 126.939 197.572 126.714 197.254 126.565C196.915 126.421 196.55 126.351 196.183 126.359C195.458 126.351 194.758 126.614 194.217 127.096C193.629 127.623 193.2 128.304 192.979 129.062C192.717 129.883 192.528 131.479 192.412 133.851C192.296 136.223 192.238 138.107 192.238 139.505C191.26 139.483 190.521 139.472 190.021 139.472C189.453 139.481 188.67 139.496 187.672 139.518Z" fill="white"/>
</svg>
