<svg width="256" height="256" viewBox="0 0 256 256" fill="none" xmlns="http://www.w3.org/2000/svg">
<path d="M196 0H60C26.8629 0 0 26.8629 0 60V196C0 229.137 26.8629 256 60 256H196C229.137 256 256 229.137 256 196V60C256 26.8629 229.137 0 196 0Z" fill="#F4F2ED"/>
<path d="M96.8316 53.7801C118.511 30.2225 154.415 23.3117 183.931 36.9096C223.145 54.9783 237.453 101.006 216.102 136.51L168.07 216.295C165.386 220.752 160.97 224.005 155.79 225.338C150.611 226.67 145.093 225.975 140.446 223.406L198.596 126.794C214.086 101.026 203.725 67.6246 175.294 54.4736C153.96 44.6066 127.883 49.5358 112.123 66.5047C103.43 75.8204 98.5494 87.8475 98.3868 100.356C98.224 112.864 102.789 125.005 111.238 134.527C112.756 136.235 114.389 137.846 116.127 139.349L82.181 195.849C80.8535 198.059 79.0859 199.993 76.9792 201.547C74.8728 203.1 72.4683 204.238 69.9035 204.899C67.3384 205.559 64.6633 205.728 62.0305 205.395C59.3976 205.062 56.8589 204.234 54.5589 202.96L91.4126 141.62C86.119 134.29 82.3174 126.065 80.2085 117.377L57.625 155.04C54.9405 159.499 50.5236 162.751 45.3443 164.084C40.1648 165.419 34.646 164.723 30 162.151L88.4008 64.999C90.8316 61.0094 93.6548 57.2525 96.8316 53.7801ZM164.237 84.7039C178.302 92.5053 183.159 109.854 175.02 123.356L119.02 216.282C116.336 220.74 111.917 223.994 106.738 225.326C101.558 226.658 96.0405 225.963 91.3945 223.393L143.394 136.879C139.221 136.036 135.291 134.332 131.87 131.887C128.45 129.442 125.623 126.313 123.584 122.717C121.546 119.121 120.344 115.141 120.062 111.056C119.781 106.97 120.426 102.874 121.954 99.0507C123.48 95.2275 125.854 91.7683 128.909 88.9118C131.964 86.0552 135.627 83.8695 139.647 82.5054C143.668 81.1414 147.95 80.6316 152.194 81.011C156.439 81.3907 160.549 82.6506 164.237 84.7039ZM143.868 102.168C142.905 102.877 142.097 103.763 141.49 104.771C140.576 106.292 140.149 108.038 140.27 109.79C140.391 111.54 141.048 113.219 142.16 114.611C143.274 116.004 144.791 117.048 146.522 117.612C148.252 118.176 150.119 118.234 151.885 117.78C153.65 117.326 155.233 116.378 156.439 115.059C157.643 113.739 158.416 112.107 158.654 110.366C158.891 108.626 158.587 106.857 157.778 105.282C156.97 103.708 155.694 102.4 154.111 101.522C153.062 100.939 151.9 100.561 150.699 100.409C149.495 100.257 148.272 100.334 147.101 100.636C145.929 100.938 144.829 101.458 143.868 102.168Z" fill="#615EFF"/>
</svg>
