<svg width="256" height="256" viewBox="0 0 256 256" fill="none" xmlns="http://www.w3.org/2000/svg">
<rect width="256" height="256" rx="60" fill="#242938"/>
<path fill="#017CEE" d="M44.6,213.5l82.6-84.6c0.5-0.5,0.6-1.3,0.2-2c-5-7-14.3-8.2-17.7-12.9c-10.2-14-12.8-21.9-17.1-21.4
	c-0.3,0-0.6,0.2-0.8,0.4l-29.8,30.6c-17.2,17.6-19.6,56.3-20.1,88.8c0,0.9,0.7,1.6,1.6,1.6C43.8,214,44.2,213.9,44.6,213.5
	L44.6,213.5z"/>
<path fill="#00AD46" d="M213.5,211.5l-84.6-82.6c-0.5-0.5-1.3-0.6-2-0.2c-7,5-8.2,14.3-12.9,17.7c-14,10.2-21.9,12.8-21.4,17.1
	c0,0.3,0.2,0.6,0.4,0.8l30.6,29.8c17.6,17.2,56.3,19.6,88.8,20.1c0.9,0,1.6-0.7,1.6-1.6C214,212.2,213.8,211.8,213.5,211.5
	L213.5,211.5z"/>
<path fill="#04D659" d="M123.6,194.2c-9.6-9.4-14.1-27.9,4.4-66.2c-29.9,13.4-40.4,31-35.3,36L123.6,194.2z"/>
<path fill="#00C7D4" d="M211.4,42.5l-82.6,84.6c-0.5,0.5-0.6,1.3-0.2,2c5,7,14.3,8.2,17.7,12.9c10.2,14,12.8,21.9,17.1,21.4
	c0.3,0,0.6-0.2,0.8-0.4l29.8-30.6c17.2-17.6,19.6-56.3,20.1-88.8c0-0.9-0.7-1.6-1.6-1.6C212.2,42,211.7,42.2,211.4,42.5L211.4,42.5z
	"/>
<path fill="#11E1EE" d="M194.2,132.4c-9.4,9.6-27.9,14.1-66.2-4.4c13.4,29.9,31,40.4,36,35.3L194.2,132.4z"/>
<path fill="#E43921" d="M42.5,44.6l84.6,82.6c0.5,0.5,1.3,0.6,2,0.2c7-5,8.2-14.3,12.9-17.7c14-10.2,21.9-12.8,21.4-17.1
	c0-0.3-0.2-0.6-0.4-0.8l-30.6-29.8C114.8,44.7,76,42.2,43.6,41.8c-0.9,0-1.6,0.7-1.6,1.6C42,43.8,42.1,44.2,42.5,44.6L42.5,44.6z"/>
<path fill="#FF7557" d="M132.4,61.8c9.6,9.4,14.1,27.9-4.4,66.2c29.9-13.4,40.4-31,35.3-36L132.4,61.8z"/>
<path fill="#0CB6FF" d="M61.8,123.7c9.4-9.6,27.9-14.1,66.2,4.4c-13.4-29.9-31-40.4-36-35.3L61.8,123.7z"/>
<circle fill="#4A4848" cx="128" cy="128" r="3.7"/>
</svg>
