<svg width="256" height="256" viewBox="0 0 256 256" fill="none" xmlns="http://www.w3.org/2000/svg">
<path d="M196 0H60C26.8629 0 0 26.8629 0 60V196C0 229.137 26.8629 256 60 256H196C229.137 256 256 229.137 256 196V60C256 26.8629 229.137 0 196 0Z" fill="#F4F2ED"/>
<path d="M192.561 151.288L131.487 47.6955C131.192 47.184 130.763 46.7579 130.246 46.4602C129.728 46.1625 129.14 46.0038 128.539 46.0001C127.939 45.9963 127.348 46.1477 126.827 46.4388C126.306 46.73 125.872 47.1507 125.57 47.6585L107.279 78.6994C106.68 79.7153 106.365 80.8681 106.365 82.0413C106.365 83.2145 106.68 84.3673 107.279 85.3832L147.103 152.964C147.702 153.981 148.565 154.826 149.604 155.412C150.643 155.999 151.821 156.307 153.02 156.306H189.602C190.201 156.304 190.789 156.149 191.307 155.855C191.825 155.561 192.256 155.138 192.555 154.631C192.855 154.123 193.013 153.547 193.014 152.96C193.015 152.374 192.858 151.797 192.561 151.288Z" fill="#363FF9"/>
<path d="M32.4709 205.43L93.5443 101.837C93.8439 101.329 94.2749 100.908 94.7935 100.615C95.3117 100.322 95.8997 100.168 96.4983 100.168C97.0968 100.168 97.6851 100.322 98.2034 100.615C98.722 100.908 99.1526 101.329 99.4522 101.837L117.753 132.85C118.352 133.868 118.667 135.022 118.667 136.196C118.667 137.371 118.352 138.526 117.753 139.543L77.9286 207.124C77.3313 208.141 76.4704 208.986 75.4332 209.572C74.396 210.159 73.2188 210.467 72.0207 210.466H35.4296C34.8268 210.469 34.234 210.316 33.7115 210.021C33.1889 209.727 32.7553 209.302 32.4547 208.791C32.1541 208.279 31.9972 207.698 32 207.108C32.0029 206.518 32.1654 205.939 32.4709 205.43Z" fill="#363FF9"/>
<path d="M99.4436 210.444H221.591C222.19 210.443 222.778 210.288 223.297 209.994C223.815 209.7 224.246 209.278 224.545 208.769C224.844 208.261 225.001 207.684 225 207.097C224.999 206.51 224.84 205.934 224.54 205.426L206.268 174.395C205.668 173.378 204.806 172.533 203.767 171.946C202.728 171.36 201.549 171.051 200.35 171.052H120.703C119.503 171.051 118.325 171.36 117.286 171.946C116.247 172.533 115.385 173.378 114.785 174.395L96.4946 205.426C96.194 205.934 96.0353 206.51 96.0347 207.097C96.0337 207.684 96.1903 208.261 96.4893 208.769C96.7882 209.278 97.2189 209.7 97.7375 209.994C98.2561 210.288 98.8443 210.443 99.4436 210.444Z" fill="#363FF9"/>
</svg>
