<svg width="256" height="256" viewBox="0 0 256 256" fill="none" xmlns="http://www.w3.org/2000/svg">
<g clip-path="url(#clip0_186_378)">
<mask id="mask0_186_378" style="mask-type:luminance" maskUnits="userSpaceOnUse" x="0" y="0" width="256" height="256">
<path d="M196 0H60C26.8629 0 0 26.8629 0 60V196C0 229.137 26.8629 256 60 256H196C229.137 256 256 229.137 256 196V60C256 26.8629 229.137 0 196 0Z" fill="white"/>
</mask>
<g mask="url(#mask0_186_378)">
<path d="M256 0H0V256H256V0Z" fill="url(#paint0_linear_186_378)"/>
</g>
<path fill-rule="evenodd" clip-rule="evenodd" d="M190.354 190.773L126.022 65.4H144.425L208.761 190.773H190.354ZM216.844 192.51L149.228 60.7408C148.684 59.672 147.583 59 146.383 59H120.783C119.666 59 118.633 59.5792 118.05 60.5328C117.471 61.4832 117.426 62.6704 117.935 63.6624L185.551 195.435C186.098 196.501 187.199 197.173 188.399 197.173H213.999C215.113 197.173 216.15 196.594 216.729 195.64C217.311 194.69 217.356 193.506 216.844 192.51ZM151.916 190.773L102.687 98.4624L112.77 81.7872L170.29 190.773H151.916ZM115.791 73.7968C115.25 72.776 114.207 72.1232 113.055 72.0912C111.948 72.024 110.822 72.648 110.223 73.6336L96.2712 96.7088C95.6856 97.6752 95.6536 98.8752 96.1816 99.8704L147.174 195.48C147.73 196.52 148.818 197.173 149.999 197.173H175.599C176.719 197.173 177.759 196.584 178.338 195.624C178.918 194.664 178.953 193.47 178.428 192.478L115.791 73.7968ZM46.8728 190.773L92.0312 116.088L101.231 133.333L80.028 169.97C79.4552 170.962 79.4552 172.181 80.0248 173.173C80.5976 174.162 81.6536 174.773 82.7992 174.773H123.334L131.865 190.773H46.8728ZM128.076 170.066C127.519 169.026 126.431 168.373 125.25 168.373H88.348L107.66 135C108.217 134.043 108.236 132.869 107.718 131.893L95.0328 108.107C94.4888 107.093 93.4456 106.446 92.2936 106.414C91.0648 106.36 90.0632 106.974 89.4712 107.957L38.46 192.315C37.8648 193.307 37.8456 194.539 38.412 195.544C38.9784 196.552 40.0408 197.173 41.1992 197.173H137.199C138.322 197.173 139.362 196.584 139.942 195.621C140.521 194.654 140.553 193.458 140.022 192.466L128.076 170.066Z" fill="white"/>
</g>
<defs>
<linearGradient id="paint0_linear_186_378" x1="0" y1="25600" x2="25600" y2="0" gradientUnits="userSpaceOnUse">
<stop stop-color="#BD0816"/>
<stop offset="1" stop-color="#FF5252"/>
</linearGradient>
</defs>
</svg>
