<svg width="256" height="256" viewBox="0 0 256 256" fill="none" xmlns="http://www.w3.org/2000/svg" id="angular">
<style>
#angular {
    path.rect {fill: #242938}

    @media (prefers-color-scheme: light) {
        path.rect {fill: #F4F2ED}
    }
}
</style>
<path d="M196 0H60C26.8629 0 0 26.8629 0 60V196C0 229.137 26.8629 256 60 256H196C229.137 256 256 229.137 256 196V60C256 26.8629 229.137 0 196 0Z" fill="#242938" class="rect" />
<g clip-path="url(#clip0_372_6)">
<path d="M214.187 72.2799L207.987 164.347L148.653 43.6133L214.187 72.2666V72.2799ZM173.093 191.333L128.267 215.507L83.44 191.333L92.56 170.453H163.987L173.107 191.333H173.093ZM128.267 89.4399L151.76 143.4H104.76L128.253 89.4399H128.267ZM48.48 164.333L42.3334 72.2799L107.88 43.6133L48.4934 164.347L48.48 164.333Z" fill="url(#paint0_linear_372_6)"/>
<path d="M214.187 72.2799L207.987 164.347L148.653 43.6133L214.187 72.2666V72.2799ZM173.093 191.333L128.267 215.507L83.44 191.333L92.56 170.453H163.987L173.107 191.333H173.093ZM128.267 89.4399L151.76 143.4H104.76L128.253 89.4399H128.267ZM48.48 164.333L42.3334 72.2799L107.88 43.6133L48.4934 164.347L48.48 164.333Z" fill="url(#paint1_linear_372_6)"/>
</g>
<defs>
<linearGradient id="paint0_linear_372_6" x1="60.52" y1="153.211" x2="196.293" y2="88.857" gradientUnits="userSpaceOnUse">
<stop stop-color="#E40035"/>
<stop offset="0.24" stop-color="#F60A48"/>
<stop offset="0.35" stop-color="#F20755"/>
<stop offset="0.49" stop-color="#DC087D"/>
<stop offset="0.74" stop-color="#9717E7"/>
<stop offset="1" stop-color="#6C00F5"/>
</linearGradient>
<linearGradient id="paint1_linear_372_6" x1="78.684" y1="55.0202" x2="166.359" y2="155.725" gradientUnits="userSpaceOnUse">
<stop stop-color="#FF31D9"/>
<stop offset="1" stop-color="#FF5BE1" stop-opacity="0"/>
</linearGradient>
<clipPath id="clip0_372_6">
<rect width="200" height="200" fill="white" transform="translate(28 28)"/>
</clipPath>
</defs>
</svg>
