<svg width="256" height="256" viewBox="0 0 256 256" fill="none" xmlns="http://www.w3.org/2000/svg">
<path d="M196 0H60C26.8629 0 0 26.8629 0 60V196C0 229.137 26.8629 256 60 256H196C229.137 256 256 229.137 256 196V60C256 26.8629 229.137 0 196 0Z" fill="#242938"/>
<path d="M219.095 87.4411C218.574 87.6926 218.036 87.9841 217.498 87.9851C205.749 88.0081 194 87.9994 182.251 87.9923C181.886 87.992 181.522 87.9423 181 87.9042C181.128 86.7407 181.217 85.6601 181.37 84.5893C182.584 76.1309 183.822 67.6761 185.014 59.2146C185.143 58.2981 185.515 58.0234 186.386 58.0301C190.62 58.0631 194.854 58.0425 199.204 58.0013C200.065 57.9911 200.809 58.0452 201.554 58.0461C208.234 58.0533 214.914 58.0512 221.594 58.0519C222.003 58.0519 222.412 58.0519 223 58.0519C222.875 59.1432 222.786 60.1297 222.645 61.1084C221.449 69.4408 220.239 77.7715 219.048 86.1047C218.99 86.5084 219.064 86.9316 219.095 87.4411Z" fill="#FD4C4D"/>
<path d="M98.4533 182C93.8956 181.637 89.3259 181.382 84.7835 180.88C80.2306 180.376 75.7789 179.354 71.5318 177.538C63.5871 174.141 59.7472 167.942 59.1141 159.481C58.6694 153.537 59.6019 147.705 60.5777 141.895C61.1119 138.715 61.9393 135.559 62.9143 132.482C65.6107 123.971 71.5731 118.798 79.93 116.187C86.6793 114.078 93.6508 113.355 100.656 113C111.019 112.476 121.391 112.321 131.746 113.179C137.441 113.65 143.084 114.467 148.358 116.898C151.024 118.127 153.385 119.757 155.29 122.025C155.525 122.305 155.895 122.472 156.382 122.819C156.739 119.507 157.11 116.464 157.385 113.411C157.618 110.814 157.916 108.205 157.873 105.606C157.79 100.599 155.44 97.5251 150.585 96.5404C147.114 95.8362 143.515 95.4859 139.971 95.4748C132.715 95.4523 125.455 95.681 118.204 95.9904C116.097 96.0803 113.99 96.6942 111.931 97.2452C108.181 98.2483 106.119 100.878 105.301 104.594C105.203 105.041 105.081 105.482 104.969 105.935C92.7362 105.935 80.5767 105.935 68.3238 105.935C69.0342 99.2331 70.3117 92.7982 73.999 87.0908C77.9671 80.9488 84.0484 77.9909 90.7462 76.0218C96.8577 74.225 103.152 73.4153 109.478 73.0118C116.471 72.5657 123.482 72.3921 130.694 72.0862C131.169 72.0484 131.436 72.0242 131.703 72C135.674 72.0253 139.645 72.0506 143.81 72.0713C144.27 72.0493 144.538 72.032 144.806 72.0146C145.161 72.0466 145.516 72.0787 146.065 72.1072C146.447 72.0938 146.635 72.0837 146.823 72.0737C150.759 72.2787 154.719 72.2842 158.626 72.7373C163.99 73.3594 169.316 74.3162 174.656 75.1451C175.098 75.2137 175.522 75.4006 175.997 75.5455C175.087 81.7803 174.19 87.9292 173.275 94.2011C180.442 94.2011 187.52 94.2011 194.641 94.2011C195.751 98.7459 196.232 103.283 195.893 107.818C195.393 114.529 194.694 121.233 193.827 127.907C192.467 138.382 190.896 148.829 189.414 159.288C188.433 166.205 187.451 173.122 186.339 180.142C174.173 180.244 162.137 180.243 150.102 180.246C149.685 180.246 149.268 180.288 148.851 180.311C147.937 180.136 148.375 179.478 148.447 179.027C148.962 175.828 149.517 172.636 150.05 169.439C150.109 169.083 150.108 168.717 150.135 168.355C149.964 168.211 149.792 168.068 149.62 167.924C149.416 168.334 149.291 168.816 148.995 169.142C145.465 173.024 141.666 176.57 136.703 178.562C132.577 180.218 128.244 181.001 123.845 181.396C120.837 181.666 117.815 181.772 114.58 181.963C109.058 181.983 103.756 181.992 98.4533 182ZM100.794 138.639C100.004 139.961 98.9299 141.196 98.4923 142.627C97.8465 144.738 97.5716 146.979 97.2879 149.184C96.9038 152.17 98.1792 154.703 100.967 155.84C103.113 156.715 105.436 157.378 107.733 157.615C117.99 158.673 128.28 158.577 138.546 157.798C141.603 157.566 144.642 156.727 147.618 155.902C150.015 155.238 151.627 153.44 152.453 151.1C153.505 148.119 154.274 145.058 154.173 141.85C154.157 141.348 154.109 140.839 154 140.349C153.435 137.82 151.656 136.382 149.306 135.973C145.516 135.312 141.678 134.72 137.843 134.571C128.699 134.216 119.539 134.028 110.427 135.19C107.049 135.621 103.708 136.3 100.794 138.639Z" fill="#FEFEFE"/>
<path d="M114.101 28.9744C143.913 25.058 170.384 32.9676 193.394 52.3406C195.472 54.0903 197.368 56.057 199.271 58.0379C194.924 58.1546 190.654 58.1749 186.386 58.1424C185.508 58.1358 185.133 58.4068 185.003 59.3113C183.801 67.6652 182.554 76.0131 181.33 84.364C181.175 85.4211 181.086 86.488 180.956 87.6365C181.482 87.6742 181.85 87.7232 182.217 87.7234C194.062 87.7305 205.907 87.7392 217.752 87.7166C218.295 87.7155 218.838 87.4274 219.381 87.2732C225.41 100.927 228.365 115.221 227.964 130.137C227.295 155.019 218.655 176.816 201.948 195.272C188.103 210.568 171.022 220.577 150.939 225.357C137.819 228.48 124.581 228.894 111.283 226.614C89.8006 222.93 71.4056 213.27 56.2267 197.663C41.8447 182.875 32.6254 165.282 29.4386 144.877C24.0414 110.317 33.8367 80.4539 58.7209 55.8963C74.0459 40.7724 92.7197 31.7833 114.101 28.9744ZM131.922 71.8709C131.611 71.9189 131.3 71.9669 130.768 72.1004C123.781 72.3909 116.787 72.5641 109.81 73.0076C103.5 73.4087 97.2206 74.2129 91.1242 75.9988C84.4425 77.9562 78.3757 80.8973 74.4171 87.0027C70.7388 92.6761 69.4638 99.0724 68.755 105.734H105.312C105.424 105.284 105.546 104.846 105.644 104.402C106.46 100.708 108.517 98.0937 112.257 97.0965C114.312 96.5487 116.414 95.9387 118.516 95.8494C125.749 95.5419 132.992 95.3143 140.231 95.3367C143.766 95.3477 147.355 95.6964 150.819 96.3963C155.662 97.3751 158.007 100.431 158.089 105.408C158.132 107.991 157.834 110.586 157.602 113.167C157.328 116.201 156.958 119.227 156.602 122.518C156.117 122.174 155.747 122.008 155.512 121.729C153.612 119.475 151.256 117.854 148.597 116.633C143.336 114.216 137.706 113.404 132.025 112.935C121.695 112.083 111.347 112.236 101.01 112.758C94.0216 113.11 87.067 113.829 80.3341 115.926C71.9974 118.521 66.0484 123.664 63.3586 132.124C62.3859 135.183 61.5614 138.32 61.0285 141.481C60.055 147.256 59.1239 153.054 59.5675 158.963C60.1991 167.373 64.0306 173.536 71.9562 176.913C76.1929 178.718 80.6342 179.734 85.1759 180.234C89.7072 180.734 94.2656 180.986 98.8742 181.534C99.03 181.606 99.186 181.732 99.342 181.762C99.1855 181.73 99.026 181.595 98.8429 181.441C104.102 181.34 109.392 181.331 114.786 181.342C114.628 181.501 114.365 181.763 114.102 181.764H114.103C114.366 181.763 114.628 181.501 115.118 181.299C118.127 181.12 121.142 181.015 124.143 180.747C128.531 180.354 132.854 179.577 136.97 177.93C141.921 175.95 145.711 172.425 149.233 168.566C149.528 168.243 149.652 167.763 149.856 167.355C150.027 167.498 150.199 167.641 150.37 167.784C150.343 168.143 150.344 168.508 150.284 168.862C149.753 172.039 149.199 175.213 148.686 178.392C148.613 178.84 148.177 179.494 149.171 179.838C149.403 179.89 149.635 179.981 149.866 180.008C149.633 179.98 149.396 179.878 149.129 179.754C149.504 179.647 149.919 179.604 150.335 179.604C162.312 179.601 174.289 179.602 186.363 179.601C186.445 179.538 186.53 179.471 186.616 179.399C187.596 172.523 188.576 165.647 189.554 158.771C191.033 148.375 192.6 137.989 193.957 127.576C194.822 120.942 195.518 114.278 196.018 107.607C196.355 103.099 195.875 98.5879 194.768 94.0701H173.453C174.366 87.8358 175.262 81.7237 176.169 75.5261C175.696 75.3822 175.273 75.196 174.832 75.1277C169.505 74.3038 164.192 73.3525 158.841 72.7342C154.943 72.2837 150.992 72.2785 147.025 71.9363C146.791 71.973 146.557 72.0094 146.116 72.1111C145.762 72.0793 145.407 72.0473 144.996 71.8836C144.685 71.9222 144.373 71.9616 143.867 72.0769C139.905 72.0518 135.943 72.0263 131.922 71.8709ZM110.758 134.815C119.848 133.66 128.986 133.848 138.108 134.201C141.934 134.349 145.762 134.937 149.542 135.594C151.886 136 153.663 137.43 154.226 139.944C154.335 140.43 154.383 140.937 154.399 141.436C154.499 144.625 153.732 147.668 152.683 150.632C151.859 152.958 150.251 154.745 147.859 155.405C144.891 156.224 141.858 157.059 138.809 157.29C128.568 158.064 118.302 158.159 108.07 157.107C105.779 156.872 103.461 156.213 101.32 155.344C98.5392 154.213 97.2664 151.695 97.6496 148.726C97.9325 146.534 98.2074 144.307 98.8517 142.208C99.2883 140.786 100.36 139.558 101.214 138.182C104.055 135.919 107.388 135.243 110.758 134.815ZM147.045 72.0056C146.878 72.0848 146.69 72.0951 146.412 72.076C146.556 72.0102 146.791 71.9732 147.045 72.0056ZM131.951 71.9363C131.715 72.0254 131.45 72.0498 131.087 72.0447C131.301 71.9676 131.611 71.9193 131.951 71.9363ZM145.025 71.95C144.786 72.0331 144.519 72.0505 144.156 72.034C144.373 71.9615 144.685 71.9228 145.025 71.95Z" fill="#252422"/>
</svg>
