<svg width="256" height="256" viewBox="0 0 256 256" fill="none" xmlns="http://www.w3.org/2000/svg">
<path d="M196 0H60C26.8629 0 0 26.8629 0 60V196C0 229.137 26.8629 256 60 256H196C229.137 256 256 229.137 256 196V60C256 26.8629 229.137 0 196 0Z" fill="#F4F2ED"/>
<path d="M82.6022 50.989C86.4084 30.7802 106.293 27.8622 119.876 36.7807C128.205 42.2488 135.776 49.2219 142.57 56.5527C147.885 62.2891 152.614 62.3578 159.028 59.4835C171.11 54.0685 183.634 50.8379 197.175 51.6418C208.701 52.326 216.571 61.1556 216.805 72.9276C217.084 86.934 209.483 97.658 203.736 109.216C198.629 119.486 198.76 120.904 205.861 129.782C210.392 135.447 214.886 141.218 218.674 147.384C223.849 155.809 224.4 165.532 220.224 173.993C215.83 182.897 206.939 187.119 196.819 186.626C185.405 186.07 174.026 184.765 162.636 183.736C158.931 183.401 156.877 184.644 154.414 187.965C147.143 197.769 139.878 207.984 130.764 215.924C115.933 228.844 95.78 224.007 90.112 201.936C87.6582 192.38 87.3198 182.298 85.262 172.616C84.7254 170.091 81.7378 167.106 79.1957 166.165C70.6717 163.008 61.6671 161.136 53.1708 157.919C42.7454 153.971 33.871 148.099 33.0073 135.334C32.9924 133.743 32.9904 130.407 33.101 129.794C35.7773 113.866 48.9324 108.568 61.021 102.206C65.0251 100.099 68.956 97.7682 73.1505 96.1262C78.8439 93.8972 79.6785 90.0119 79.7757 84.3045C79.9651 73.1753 80.5474 61.8979 82.6022 50.989ZM111.665 53.0928C105.954 48.2026 99.9727 50.7501 99.0779 58.1981C98.6101 62.0922 98.9912 66.0878 98.9828 71.4901C98.9717 77.9079 98.9912 84.3258 98.942 90.7432C98.8773 99.1957 95.4026 105.34 87.537 109.262C77.2567 114.389 67.132 119.867 57.2095 125.654C51.1582 129.183 47.5788 134.393 57.0732 138.64C66.1411 142.697 76.0978 144.751 85.6108 147.847C92.0138 149.931 99.2826 151.558 101.478 158.956C103.38 165.365 104.09 172.616 105.024 178.828C106.397 187.965 106.397 200.025 113.546 204.531C120.245 204.531 129.643 189.125 136.028 180.166C143.082 170.268 150.388 161.863 164.472 164.103C174.789 165.745 185.264 166.679 195.704 167.159C203.297 167.509 207.417 164.981 202.231 156.837C196.157 147.301 189.675 138.011 183.082 128.821C179.584 123.946 177.778 119.119 180.644 113.413C185.782 103.178 191.285 93.1066 195.922 82.651C197.524 79.0394 198.904 71.5841 197.449 70.3665C194.195 69.0928 189.725 69.4246 186.227 70.3403C175.82 73.064 165.465 76.1249 155.345 79.7618C146.687 82.8734 140.331 79.9088 134.296 74.1056C126.875 66.9708 119.478 59.7836 111.665 53.0928Z" fill="#7BBBE5"/>
</svg>
