<svg width="256" height="256" viewBox="0 0 256 256" fill="none" xmlns="http://www.w3.org/2000/svg">
<path d="M196 0H60C26.8629 0 0 26.8629 0 60V196C0 229.137 26.8629 256 60 256H196C229.137 256 256 229.137 256 196V60C256 26.8629 229.137 0 196 0Z" fill="#242938"/>
<path d="M119.468 31.5603L31.5452 119.465C26.8183 124.191 26.8183 131.825 31.5452 136.55L119.468 224.456C124.195 229.181 131.83 229.181 136.557 224.456L173.421 187.598C177.655 183.366 177.655 176.504 173.421 172.271C169.188 168.039 162.325 168.039 158.091 172.271L130.144 200.213C128.968 201.389 127.182 201.389 126.006 200.213L55.7931 130.014C54.6166 128.838 54.6166 127.053 55.7931 125.876L126.006 55.6778C127.182 54.5015 128.968 54.5015 130.144 55.6778L158.091 83.619C162.325 87.8514 169.188 87.8514 173.421 83.619C177.655 79.3866 177.655 72.5245 173.421 68.2921L136.561 31.4388C131.814 26.8151 124.177 26.8525 119.468 31.5603Z" fill="url(#paint0_linear_922_246)"/>
<path d="M119.468 31.5603L31.5452 119.465C26.8183 124.191 26.8183 131.825 31.5452 136.55L119.468 224.456C124.195 229.181 131.83 229.181 136.557 224.456L173.421 187.598C177.655 183.366 177.655 176.504 173.421 172.271C169.188 168.039 162.325 168.039 158.091 172.271L130.144 200.213C128.968 201.389 127.182 201.389 126.006 200.213L55.7931 130.014C54.6166 128.838 54.6166 127.053 55.7931 125.876L126.006 55.6778C128.935 53.1507 133.715 48.0322 140.734 46.8351C145.951 45.9454 151.654 47.9036 157.843 52.7096C153.705 48.5723 146.611 41.482 136.561 31.4388C131.814 26.8151 124.177 26.8525 119.468 31.5603Z" fill="url(#paint1_linear_922_246)"/>
<path d="M181.932 164.096C186.165 168.328 193.028 168.328 197.262 164.096L224.455 136.908C229.182 132.182 229.182 124.549 224.455 119.824L197.025 92.4961C192.782 88.2688 185.916 88.2749 181.68 92.5098C177.447 96.7422 177.447 103.604 181.68 107.837L200.207 126.36C201.383 127.536 201.383 129.321 200.207 130.497L181.932 148.769C177.698 153.001 177.698 159.864 181.932 164.096Z" fill="url(#paint2_linear_922_246)"/>
<path d="M128.452 152.182C141.562 152.182 152.191 141.555 152.191 128.447C152.191 115.339 141.562 104.713 128.452 104.713C115.341 104.713 104.712 115.339 104.712 128.447C104.712 141.555 115.341 152.182 128.452 152.182Z" fill="url(#paint3_linear_922_246)"/>
<defs>
<linearGradient id="paint0_linear_922_246" x1="9256.18" y1="28.0005" x2="17614.2" y2="5128.97" gradientUnits="userSpaceOnUse">
<stop stop-color="#4285EB"/>
<stop offset="1" stop-color="#2EC7FF"/>
</linearGradient>
<linearGradient id="paint1_linear_922_246" x1="10376.9" y1="27.9999" x2="6245.21" y2="21368.3" gradientUnits="userSpaceOnUse">
<stop stop-color="#29CDFF"/>
<stop offset="0.378601" stop-color="#148EFF"/>
<stop offset="1" stop-color="#0A60FF"/>
</linearGradient>
<linearGradient id="paint2_linear_922_246" x1="3627.83" y1="-921.901" x2="-1746.39" y2="7477.73" gradientUnits="userSpaceOnUse">
<stop stop-color="#FA816E"/>
<stop offset="0.414726" stop-color="#F74A5C"/>
<stop offset="1" stop-color="#F51D2C"/>
</linearGradient>
<linearGradient id="paint3_linear_922_246" x1="3339.32" y1="-1589.47" x2="1550.64" y2="5561.07" gradientUnits="userSpaceOnUse">
<stop stop-color="#FA8E7D"/>
<stop offset="0.512635" stop-color="#F74A5C"/>
<stop offset="1" stop-color="#F51D2C"/>
</linearGradient>
</defs>
</svg>
