<svg width="256" height="256" viewBox="0 0 256 256" fill="none" xmlns="http://www.w3.org/2000/svg">
<g clip-path="url(#clip0_47_909)">
<path d="M196 0H60C26.8629 0 0 26.8629 0 60V196C0 229.137 26.8629 256 60 256H196C229.137 256 256 229.137 256 196V60C256 26.8629 229.137 0 196 0Z" fill="#242938"/>
<path d="M166.134 20.9679C162.74 22.959 157.091 28.5964 150.353 36.7725L156.528 48.3708C160.874 42.2108 165.283 36.648 169.679 31.944C170.029 31.5706 170.192 31.3964 170.192 31.3964C170.03 31.5706 169.842 31.7698 169.679 31.944C168.238 33.512 163.867 38.5894 157.279 48.6197C163.629 48.3086 173.311 47.0144 181.327 45.6704C183.707 32.4791 179.01 26.5057 179.01 26.5057C179.01 26.5057 173.048 16.9234 166.109 21.0176L166.134 20.9679Z" fill="url(#paint0_linear_47_909)"/>
<path d="M145.343 118.397C144.554 118.533 143.752 118.683 142.913 118.82C142.913 118.82 142.9 118.82 142.9 118.832C143.326 118.77 143.739 118.708 144.153 118.645C144.541 118.558 144.942 118.484 145.343 118.397Z" fill="#BD202E"/>
<path d="M145.343 118.397C144.554 118.533 143.752 118.683 142.913 118.82C142.913 118.82 142.9 118.82 142.9 118.832C143.326 118.77 143.739 118.708 144.153 118.645C144.541 118.558 144.942 118.484 145.343 118.397Z" fill="black"/>
<path d="M147.472 108.316C147.459 108.316 147.459 108.316 147.459 108.329C147.585 108.316 147.722 108.291 147.848 108.267C148.374 108.192 148.887 108.105 149.388 107.98C148.762 108.092 148.136 108.204 147.472 108.316Z" fill="#BD202E"/>
<path d="M147.472 108.316C147.459 108.316 147.459 108.316 147.459 108.329C147.585 108.316 147.722 108.291 147.848 108.267C148.374 108.192 148.887 108.105 149.388 107.98C148.762 108.092 148.136 108.204 147.472 108.316Z" fill="black"/>
<path d="M138.329 78.325C140.207 74.828 142.111 71.4182 144.028 68.1079C146.019 64.6484 148.048 61.3132 150.09 58.0776C150.202 57.8909 150.34 57.6918 150.453 57.5052C152.469 54.3318 154.511 51.2704 156.553 48.3584L150.378 36.76C149.914 37.3201 149.451 37.8925 148.975 38.4898C147.184 40.705 145.343 43.0695 143.439 45.5957C141.297 48.4331 139.105 51.4695 136.863 54.6554C134.809 57.5923 132.705 60.6661 130.601 63.8643C128.81 66.5773 127.031 69.3649 125.252 72.2271C125.19 72.3267 125.127 72.4387 125.065 72.5507L133.118 88.3553C134.822 84.933 136.575 81.5854 138.329 78.325Z" fill="url(#paint1_linear_47_909)"/>
<path d="M101.63 167.304C100.566 170.203 99.4885 173.178 98.4238 176.202C98.4113 176.239 98.3988 176.289 98.3737 176.326C98.2234 176.749 98.0606 177.185 97.9228 177.608C97.1964 179.649 96.5701 181.491 95.1298 185.659C97.497 186.73 99.4008 189.567 101.204 192.778C101.017 189.455 99.6388 186.331 96.996 183.917C108.682 184.44 118.79 181.503 123.925 173.016C124.388 172.257 124.814 171.473 125.202 170.614C122.835 173.601 119.892 174.858 114.368 174.559C122.509 170.938 126.58 167.465 130.15 161.741C131.001 160.372 131.841 158.891 132.692 157.236C125.578 164.491 117.412 166.557 108.644 164.989L102.131 165.698C101.918 166.246 101.73 166.781 101.518 167.329L101.63 167.304Z" fill="url(#paint2_linear_47_909)"/>
<path d="M104.761 152.868C106.164 149.259 107.617 145.6 109.095 141.917C110.523 138.382 111.976 134.823 113.479 131.264C114.982 127.705 116.51 124.109 118.063 120.525C119.641 116.878 121.27 113.244 122.935 109.623C124.576 106.039 126.229 102.48 127.92 98.9705C128.521 97.7012 129.148 96.4318 129.761 95.1749C130.826 92.9971 131.903 90.8317 132.993 88.6913C133.056 88.5793 133.106 88.4548 133.168 88.3428L125.115 72.5382C124.989 72.7498 124.852 72.9738 124.714 73.1729C122.835 76.2218 120.969 79.333 119.14 82.5063C117.287 85.717 115.47 88.9899 113.692 92.3127C112.201 95.1127 110.736 97.9252 109.296 100.787C109.007 101.36 108.732 101.945 108.444 102.517C106.69 106.114 105.112 109.561 103.672 112.908C102.044 116.679 100.616 120.288 99.3757 123.71C98.5491 125.963 97.8101 128.128 97.1212 130.219C96.5576 131.998 96.0315 133.79 95.5055 135.57C94.3031 139.751 93.2635 143.933 92.4118 148.139L100.503 164.068C101.568 161.231 102.67 158.344 103.797 155.432C104.135 154.598 104.436 153.776 104.761 152.98V152.868Z" fill="url(#paint3_linear_47_909)"/>
<path d="M92.2365 148.637C91.2219 153.714 90.4955 158.767 90.1323 163.819L90.0947 164.342C87.5646 160.322 80.8136 156.402 80.8261 156.44C85.6733 163.409 89.3432 170.378 89.8818 177.098C87.2891 177.62 83.7445 176.861 79.6488 175.368C83.9198 179.275 87.1262 180.346 88.3913 180.644C84.4584 180.893 80.3752 183.569 76.2545 186.655C82.2791 184.216 87.1513 183.245 90.6583 184.029C85.1222 199.585 79.5862 216.759 74 235.052C75.7034 234.554 76.7179 233.409 77.2816 231.879C78.271 228.581 84.8216 206.865 95.0671 178.491C95.3677 177.683 95.6558 176.861 95.9564 176.052C96.0315 175.816 96.1192 175.592 96.2069 175.38C97.2841 172.394 98.4238 169.345 99.5761 166.234C99.8392 165.524 100.102 164.815 100.378 164.105C100.378 164.093 100.39 164.081 100.39 164.068L92.2866 148.139C92.2615 148.301 92.2239 148.488 92.1864 148.674L92.2365 148.637Z" fill="url(#paint4_linear_47_909)"/>
<path d="M134.321 89.6495C134.083 90.1224 133.857 90.5953 133.619 91.0682C132.918 92.4993 132.216 93.9553 131.49 95.4487C130.713 97.0665 129.937 98.7091 129.148 100.402C128.747 101.248 128.346 102.107 127.945 102.978C126.743 105.579 125.528 108.267 124.288 111.042C122.773 114.439 121.207 117.986 119.641 121.669C118.151 125.179 116.61 128.8 115.082 132.558C113.617 136.118 112.139 139.801 110.636 143.584C109.296 146.957 107.943 150.441 106.59 154.013C106.528 154.175 106.465 154.361 106.402 154.523C105.05 158.07 103.684 161.716 102.319 165.449C102.294 165.537 102.256 165.611 102.231 165.711L108.744 165.001C108.619 164.977 108.481 164.964 108.356 164.939C116.134 163.981 126.518 158.194 133.156 151.001C136.237 147.716 139.03 143.833 141.61 139.291C143.527 135.918 145.343 132.16 147.071 128.016C148.574 124.395 150.014 120.462 151.405 116.219C149.614 117.152 147.572 117.849 145.318 118.322C144.917 118.409 144.516 118.484 144.103 118.558C143.689 118.633 143.276 118.695 142.85 118.745C142.85 118.745 142.863 118.745 142.863 118.732C150.127 115.957 154.699 110.606 158.018 104.048C156.114 105.342 153.008 107.035 149.288 107.843C148.787 107.955 148.274 108.043 147.747 108.13C147.622 108.142 147.484 108.167 147.359 108.192H147.384C149.914 107.147 152.031 105.964 153.872 104.583C154.273 104.284 154.661 103.986 155.012 103.662C155.576 103.177 156.102 102.667 156.628 102.144C156.953 101.795 157.266 101.447 157.58 101.086C158.306 100.227 158.982 99.3065 159.609 98.3109C159.797 97.9998 159.997 97.7011 160.172 97.3776C160.423 96.9171 160.648 96.4567 160.874 96.0211C161.888 94.0051 162.702 92.1882 163.341 90.6077C163.667 89.8113 163.942 89.0895 164.193 88.3926C164.293 88.1188 164.381 87.8575 164.468 87.5961C164.731 86.837 164.932 86.165 165.095 85.5677C165.345 84.6717 165.495 83.9623 165.571 83.4521C165.32 83.6388 165.045 83.8379 164.719 84.0245C162.527 85.3312 158.769 86.501 155.738 87.061C155.701 87.0735 155.651 87.0735 155.601 87.0859C155.288 87.1357 154.999 87.1855 154.686 87.2228L154.837 87.1481L134.421 89.3757C134.421 89.4255 134.383 89.5126 134.346 89.5873L134.321 89.6495Z" fill="url(#paint5_linear_47_909)"/>
<path d="M157.367 48.5824C155.551 51.3575 153.572 54.506 151.417 58.0776C151.305 58.2518 151.179 58.4634 151.079 58.6376C149.238 61.7239 147.284 65.1088 145.205 68.8297C143.426 72.0404 141.573 75.4751 139.644 79.1712C137.965 82.3943 136.237 85.8166 134.446 89.438L154.862 87.2104C160.824 84.485 163.479 82.0334 166.059 78.4618C166.735 77.4787 167.437 76.4583 168.113 75.388C170.217 72.1276 172.271 68.5435 174.113 64.9719C175.891 61.5248 177.457 58.115 178.659 55.0287C179.423 53.0749 180.037 51.258 180.463 49.6526C180.839 48.2464 181.127 46.9024 181.352 45.6206C173.424 46.9771 163.692 48.2713 157.304 48.5824H157.367Z" fill="url(#paint6_linear_47_909)"/>
<path d="M144.09 118.645C143.677 118.72 143.263 118.782 142.838 118.832C143.263 118.795 143.689 118.72 144.09 118.645Z" fill="#BD202E"/>
<path opacity="0.35" d="M144.09 118.645C143.677 118.72 143.263 118.782 142.838 118.832C143.263 118.795 143.689 118.72 144.09 118.645Z" fill="#BD202E"/>
<path d="M144.09 118.645C143.677 118.72 143.263 118.782 142.838 118.832C143.263 118.795 143.689 118.72 144.09 118.645Z" fill="url(#paint7_linear_47_909)"/>
<path d="M147.472 108.316C147.597 108.304 147.735 108.279 147.86 108.254C147.735 108.267 147.61 108.304 147.472 108.316Z" fill="#BD202E"/>
<path opacity="0.35" d="M147.472 108.316C147.597 108.304 147.735 108.279 147.86 108.254C147.735 108.267 147.61 108.304 147.472 108.316Z" fill="#BD202E"/>
<path d="M147.472 108.316C147.597 108.304 147.735 108.279 147.86 108.254C147.735 108.267 147.61 108.304 147.472 108.316Z" fill="url(#paint8_linear_47_909)"/>
<path d="M147.472 108.316C147.482 108.305 147.482 108.316 147.472 108.316C147.482 108.305 147.482 108.316 147.472 108.316Z" fill="#BD202E"/>
<path opacity="0.35" d="M147.472 108.316C147.482 108.305 147.482 108.316 147.472 108.316C147.482 108.305 147.482 108.316 147.472 108.316Z" fill="#BD202E"/>
</g>
<defs>
<linearGradient id="paint0_linear_47_909" x1="155.903" y1="38.5834" x2="201.133" y2="25.7881" gradientUnits="userSpaceOnUse">
<stop stop-color="#F59723"/>
<stop offset="0.312" stop-color="#F69822"/>
<stop offset="0.838" stop-color="#E87726"/>
</linearGradient>
<linearGradient id="paint1_linear_47_909" x1="56.7763" y1="240.692" x2="147.889" y2="43.7667" gradientUnits="userSpaceOnUse">
<stop offset="0.323" stop-color="#9C2063"/>
<stop offset="0.63" stop-color="#C82037"/>
<stop offset="0.751" stop-color="#CC2135"/>
<stop offset="1" stop-color="#E87726"/>
</linearGradient>
<linearGradient id="paint2_linear_47_909" x1="87.7645" y1="226.097" x2="142.034" y2="108.802" gradientUnits="userSpaceOnUse">
<stop stop-color="#282661"/>
<stop offset="0.0955" stop-color="#662E8C"/>
<stop offset="0.788" stop-color="#9E2064"/>
<stop offset="0.949" stop-color="#CC2032"/>
</linearGradient>
<linearGradient id="paint3_linear_47_909" x1="60.0727" y1="228.81" x2="151.185" y2="31.8841" gradientUnits="userSpaceOnUse">
<stop offset="0.323" stop-color="#9C2063"/>
<stop offset="0.63" stop-color="#C82037"/>
<stop offset="0.751" stop-color="#CC2135"/>
<stop offset="1" stop-color="#E87726"/>
</linearGradient>
<linearGradient id="paint4_linear_47_909" x1="69.498" y1="215.67" x2="117.367" y2="112.208" gradientUnits="userSpaceOnUse">
<stop stop-color="#282661"/>
<stop offset="0.0955" stop-color="#662E8C"/>
<stop offset="0.788" stop-color="#9E2064"/>
<stop offset="0.949" stop-color="#CC2032"/>
</linearGradient>
<linearGradient id="paint5_linear_47_909" x1="80.6177" y1="238.315" x2="171.73" y2="41.3897" gradientUnits="userSpaceOnUse">
<stop offset="0.323" stop-color="#9C2063"/>
<stop offset="0.63" stop-color="#C82037"/>
<stop offset="0.751" stop-color="#CC2135"/>
<stop offset="1" stop-color="#E87726"/>
</linearGradient>
<linearGradient id="paint6_linear_47_909" x1="73.8595" y1="250.007" x2="164.972" y2="53.0819" gradientUnits="userSpaceOnUse">
<stop offset="0.323" stop-color="#9C2063"/>
<stop offset="0.63" stop-color="#C82037"/>
<stop offset="0.751" stop-color="#CC2135"/>
<stop offset="1" stop-color="#E87726"/>
</linearGradient>
<linearGradient id="paint7_linear_47_909" x1="86.6879" y1="241.124" x2="177.8" y2="44.1983" gradientUnits="userSpaceOnUse">
<stop offset="0.323" stop-color="#9C2063"/>
<stop offset="0.63" stop-color="#C82037"/>
<stop offset="0.751" stop-color="#CC2135"/>
<stop offset="1" stop-color="#E87726"/>
</linearGradient>
<linearGradient id="paint8_linear_47_909" x1="85.9879" y1="240.8" x2="177.101" y2="43.8747" gradientUnits="userSpaceOnUse">
<stop offset="0.323" stop-color="#9C2063"/>
<stop offset="0.63" stop-color="#C82037"/>
<stop offset="0.751" stop-color="#CC2135"/>
<stop offset="1" stop-color="#E87726"/>
</linearGradient>
<clipPath id="clip0_47_909">
<rect width="256" height="256" fill="white"/>
</clipPath>
</defs>
</svg>
