<svg width="256" height="256" viewBox="0 0 256 256" fill="none" xmlns="http://www.w3.org/2000/svg" id="apeworx">
<style>
#apeworx {
    rect {fill: #242938}
    path[fill="#F1F1F1"] {fill: #F1F1F1}

    @media (prefers-color-scheme: light) {
        rect {fill: #F4F2ED}
        path[fill="#F1F1F1"] {fill: #131313}
    }
}
</style>
<rect width="256" height="256" rx="60" fill="#242938"/>
<path opacity="0.953" fill-rule="evenodd" clip-rule="evenodd" d="M169.323 25C172.403 25 175.482 25 178.562 25C178.562 27.9963 178.562 30.9925 178.562 33.9888C175.482 33.9888 172.403 33.9888 169.323 33.9888C169.323 30.9925 169.323 27.9963 169.323 25Z" fill="#F1F1F1"/>
<path opacity="0.989" fill-rule="evenodd" clip-rule="evenodd" d="M126.626 25.2497C129.596 25.0048 132.134 25.9203 134.241 27.9963C135.532 29.9106 136.821 31.8247 138.112 33.7391C136.037 33.9883 133.957 34.0714 131.869 33.9888C131.869 39.8981 131.869 45.8072 131.869 51.7166C125.128 51.7166 118.386 51.7166 111.645 51.7166C111.645 58.7079 111.645 65.6991 111.645 72.6904C117.138 72.6904 122.631 72.6904 128.124 72.6904C128.124 79.2654 128.124 85.8407 128.124 92.4157C126.543 92.4157 124.961 92.4157 123.38 92.4157C123.38 97.6592 123.38 102.903 123.38 108.146C137.113 108.146 150.846 108.146 164.579 108.146C164.579 109.394 164.579 110.643 164.579 111.891C169.739 111.891 174.899 111.891 180.059 111.891C180.059 114.804 180.059 117.717 180.059 120.63C186.304 120.547 192.546 120.63 198.786 120.88C202.906 126.789 207.025 132.699 211.145 138.608C212.859 141.479 212.943 144.392 211.395 147.347C204.134 157.624 196.935 167.944 189.797 178.308C184.222 178.599 178.646 178.641 173.068 178.433C171.386 174.362 169.347 170.492 166.951 166.823C166.368 166.24 165.785 165.657 165.203 165.075C165.049 164.838 165.09 164.63 165.328 164.451C174.6 158.764 178.72 150.483 177.687 139.607C175.759 130.021 170.224 123.488 161.083 120.006C153.345 117.561 145.938 118.31 138.861 122.253C134.398 126.324 129.237 127.572 123.38 125.999C122.61 125.714 121.861 125.381 121.133 125C111.418 117.54 101.098 116.624 90.1716 122.253C80.1309 128.98 76.4272 138.26 79.0605 150.094C81.236 156.446 85.1893 161.356 90.9206 164.825C89.4495 166.354 88.1593 168.019 87.0505 169.819C85.5731 172.649 84.1998 175.52 82.9306 178.433C77.4375 178.6 71.9443 178.6 66.4512 178.433C59.2827 168.133 52.0832 157.854 44.8532 147.597C42.8108 143.884 43.1439 140.388 45.852 137.11C71.1678 100.891 96.3863 64.6027 121.507 28.2459C122.949 26.7567 124.655 25.7579 126.626 25.2497Z" fill="#F1F1F1"/>
<path opacity="0.953" fill-rule="evenodd" clip-rule="evenodd" d="M154.342 33.2397C157.421 33.2397 160.501 33.2397 163.58 33.2397C163.58 36.236 163.58 39.2323 163.58 42.2285C160.501 42.2285 157.421 42.2285 154.342 42.2285C154.342 39.2323 154.342 36.236 154.342 33.2397Z" fill="#F1F1F1"/>
<path opacity="0.966" fill-rule="evenodd" clip-rule="evenodd" d="M135.116 37.2349C139.943 37.2349 144.771 37.2349 149.598 37.2349C149.598 41.9789 149.598 46.723 149.598 51.4671C144.771 51.4671 139.943 51.4671 135.116 51.4671C135.116 46.723 135.116 41.9789 135.116 37.2349Z" fill="#F1F1F1"/>
<path opacity="0.987" fill-rule="evenodd" clip-rule="evenodd" d="M166.576 43.4768C171.403 43.4768 176.231 43.4768 181.058 43.4768C181.058 48.1377 181.058 52.7984 181.058 57.4593C176.231 57.4593 171.403 57.4593 166.576 57.4593C166.576 52.7984 166.576 48.1377 166.576 43.4768Z" fill="#F1F1F1"/>
<path opacity="0.966" fill-rule="evenodd" clip-rule="evenodd" d="M114.892 55.2124C119.719 55.2124 124.546 55.2124 129.373 55.2124C129.373 59.9565 129.373 64.7005 129.373 69.4446C124.546 69.4446 119.719 69.4446 114.892 69.4446C114.892 64.7005 114.892 59.9565 114.892 55.2124Z" fill="#F1F1F1"/>
<path opacity="0.97" fill-rule="evenodd" clip-rule="evenodd" d="M142.357 55.9612C147.185 55.9612 152.012 55.9612 156.839 55.9612C156.839 60.7053 156.839 65.4493 156.839 70.1934C152.012 70.1934 147.185 70.1934 142.357 70.1934C142.357 65.4493 142.357 60.7053 142.357 55.9612Z" fill="#F1F1F1"/>
<path opacity="0.953" fill-rule="evenodd" clip-rule="evenodd" d="M163.331 61.7041C166.41 61.7041 169.49 61.7041 172.57 61.7041C172.57 64.7004 172.57 67.6966 172.57 70.6929C169.49 70.6929 166.41 70.6929 163.331 70.6929C163.331 67.6966 163.331 64.7004 163.331 61.7041Z" fill="#F1F1F1"/>
<path opacity="0.972" fill-rule="evenodd" clip-rule="evenodd" d="M150.597 73.939C153.593 73.939 156.589 73.939 159.585 73.939C159.585 76.9352 159.585 79.9315 159.585 82.9277C156.589 82.9277 153.593 82.9277 150.597 82.9277C150.597 79.9315 150.597 76.9352 150.597 73.939Z" fill="#F1F1F1"/>
<path opacity="0.979" fill-rule="evenodd" clip-rule="evenodd" d="M132.869 76.186C135.865 76.186 138.862 76.186 141.858 76.186C141.858 79.1823 141.858 82.1785 141.858 85.1748C138.862 85.1748 135.865 85.1748 132.869 85.1748C132.869 82.1785 132.869 79.1823 132.869 76.186Z" fill="#F1F1F1"/>
<path opacity="0.97" fill-rule="evenodd" clip-rule="evenodd" d="M171.071 76.9351C175.899 76.9351 180.726 76.9351 185.553 76.9351C185.553 81.6791 185.553 86.4232 185.553 91.1673C180.726 91.1673 175.899 91.1673 171.071 91.1673C171.071 86.4232 171.071 81.6791 171.071 76.9351Z" fill="#F1F1F1"/>
<path opacity="0.972" fill-rule="evenodd" clip-rule="evenodd" d="M190.047 87.6716C193.043 87.6716 196.039 87.6716 199.036 87.6716C199.036 90.6679 199.036 93.6641 199.036 96.6604C196.039 96.6604 193.043 96.6604 190.047 96.6604C190.047 93.6641 190.047 90.6679 190.047 87.6716Z" fill="#F1F1F1"/>
<path opacity="0.97" fill-rule="evenodd" clip-rule="evenodd" d="M147.102 88.4209C151.929 88.4209 156.756 88.4209 161.583 88.4209C161.583 93.165 161.583 97.909 161.583 102.653C156.756 102.653 151.929 102.653 147.102 102.653C147.102 97.909 147.102 93.165 147.102 88.4209Z" fill="#F1F1F1"/>
<path opacity="0.953" fill-rule="evenodd" clip-rule="evenodd" d="M126.627 95.6616C129.706 95.6616 132.786 95.6616 135.865 95.6616C135.865 98.6579 135.865 101.654 135.865 104.65C132.786 104.65 129.706 104.65 126.627 104.65C126.627 101.654 126.627 98.6579 126.627 95.6616Z" fill="#F1F1F1"/>
<path opacity="0.946" fill-rule="evenodd" clip-rule="evenodd" d="M167.825 99.6567C170.905 99.6567 173.984 99.6567 177.064 99.6567C177.064 102.653 177.064 105.649 177.064 108.645C173.984 108.645 170.905 108.645 167.825 108.645C167.825 105.649 167.825 102.653 167.825 99.6567Z" fill="#F1F1F1"/>
<path opacity="0.982" fill-rule="evenodd" clip-rule="evenodd" d="M183.556 102.903C188.3 102.903 193.044 102.903 197.788 102.903C197.788 107.647 197.788 112.391 197.788 117.135C193.044 117.135 188.3 117.135 183.556 117.135C183.556 112.391 183.556 107.647 183.556 102.903Z" fill="#F1F1F1"/>
<path opacity="0.971" fill-rule="evenodd" clip-rule="evenodd" d="M96.6642 126.373C99.03 126.246 101.361 126.454 103.655 126.998C99.5633 130.229 98.6894 134.182 101.034 138.858C103.967 142.581 107.67 143.622 112.145 141.979C115.811 139.932 117.475 136.811 117.139 132.616C119.686 134.368 122.432 135.741 125.378 136.735C127.957 137.363 130.454 137.113 132.869 135.986C134.907 134.926 136.904 133.802 138.861 132.616C138.811 138.601 141.766 142.013 147.725 142.853C153.622 142.117 156.452 138.788 156.215 132.865C155.718 130.374 154.428 128.418 152.345 126.998C162.144 124.566 166.68 128.353 165.953 138.358C163.801 146.824 158.35 151.235 149.598 151.592C146.592 151.59 143.763 150.882 141.109 149.47C137.724 147.485 134.146 145.987 130.372 144.975C127.536 144.603 124.789 144.936 122.132 145.974C118.53 147.775 114.868 149.44 111.146 150.968C103.181 152.78 96.8137 150.408 92.0449 143.852C89.7403 139.703 89.3241 135.375 90.7965 130.868C92.0786 128.459 94.0344 126.961 96.6642 126.373Z" fill="#F1F1F1"/>
<path opacity="0.97" fill-rule="evenodd" clip-rule="evenodd" d="M106.402 159.831C113.764 159.451 118.133 162.863 119.511 170.069C119.882 172.805 119.965 175.552 119.761 178.308C119.478 178.735 119.103 178.86 118.637 178.683C114.984 176.853 111.322 175.022 107.651 173.19C105.648 172.103 103.858 170.73 102.282 169.07C100.25 164.478 101.624 161.398 106.402 159.831Z" fill="#F1F1F1"/>
<path opacity="0.969" fill-rule="evenodd" clip-rule="evenodd" d="M145.852 159.832C149.182 159.256 151.887 160.254 153.967 162.828C155.192 164.969 155.109 167.05 153.717 169.07C152.658 170.297 151.451 171.337 150.097 172.191C145.696 174.642 141.202 176.806 136.614 178.683C135.684 174.115 136.142 169.662 137.987 165.325C139.825 162.361 142.447 160.53 145.852 159.832Z" fill="#F1F1F1"/>
<path opacity="0.949" fill-rule="evenodd" clip-rule="evenodd" d="M52.9688 189.295C53.4991 189.427 53.8737 189.76 54.0924 190.293C59.211 198.741 64.3296 207.189 69.4482 215.637C67.7835 215.803 66.1191 215.803 64.4544 215.637C63.206 213.722 61.9575 211.808 60.7091 209.894C55.7153 209.727 50.7216 209.727 45.7278 209.894C41.5144 216.615 37.2697 223.315 32.9938 229.994C31.3291 230.327 29.6647 230.327 28 229.994C36.3296 216.423 44.6527 202.857 52.9688 189.295ZM52.9688 198.283C53.2175 198.262 53.4255 198.345 53.593 198.533C55.1173 201.139 56.7403 203.677 58.4619 206.149C54.9663 206.315 51.4707 206.315 47.975 206.149C49.7943 203.623 51.4587 201.001 52.9688 198.283Z" fill="#F1F1F1"/>
<path opacity="0.946" fill-rule="evenodd" clip-rule="evenodd" d="M156.84 190.044C164.604 190.03 169.39 193.775 171.197 201.28C171.697 208.982 168.243 213.851 160.835 215.886C152.855 216.806 147.736 213.435 145.479 205.774C144.755 197.224 148.542 191.98 156.84 190.044ZM156.59 194.288C161.828 193.931 165.199 196.262 166.702 201.28C167.298 206.207 165.343 209.66 160.835 211.642C155.48 212.689 151.859 210.649 149.973 205.524C149.105 199.933 151.311 196.187 156.59 194.288Z" fill="#F1F1F1"/>
<path opacity="0.959" fill-rule="evenodd" clip-rule="evenodd" d="M72.1943 190.293C75.0253 190.252 77.8553 190.293 80.6837 190.418C87.1307 191.381 89.6692 195.084 88.2992 201.529C87.3576 204.434 85.4016 206.223 82.4315 206.898C80.4358 207.023 78.4383 207.064 76.439 207.023C76.439 209.936 76.439 212.849 76.439 215.762C75.024 215.762 73.6093 215.762 72.1943 215.762C72.1943 207.272 72.1943 198.783 72.1943 190.293ZM76.439 194.538C78.1057 194.497 79.7704 194.538 81.4328 194.663C83.9531 195.751 84.827 197.623 84.0545 200.281C83.4051 201.917 82.1983 202.791 80.434 202.903C79.1049 203.027 77.7734 203.069 76.439 203.028C76.439 200.198 76.439 197.368 76.439 194.538Z" fill="#F1F1F1"/>
<path opacity="0.963" fill-rule="evenodd" clip-rule="evenodd" d="M92.9189 190.293C98.5786 190.293 104.238 190.293 109.898 190.293C109.898 191.708 109.898 193.123 109.898 194.538C105.653 194.538 101.408 194.538 97.1636 194.538C97.1636 196.702 97.1636 198.866 97.1636 201.03C100.909 201.03 104.654 201.03 108.4 201.03C108.4 202.362 108.4 203.693 108.4 205.025C104.654 205.025 100.909 205.025 97.1636 205.025C97.1636 207.272 97.1636 209.519 97.1636 211.767C101.575 211.767 105.986 211.767 110.397 211.767C110.397 213.098 110.397 214.43 110.397 215.762C104.571 215.762 98.7449 215.762 92.9189 215.762C92.9189 207.272 92.9189 198.783 92.9189 190.293Z" fill="#F1F1F1"/>
<path opacity="0.94" fill-rule="evenodd" clip-rule="evenodd" d="M175.315 190.293C178.146 190.252 180.976 190.293 183.805 190.418C190.405 191.279 193.027 194.983 191.67 201.529C191.062 203.455 189.939 204.995 188.299 206.149C190.243 209.245 192.157 212.366 194.042 215.512C192.384 215.803 190.719 215.844 189.048 215.637C187.217 212.807 185.386 209.977 183.555 207.147C182.309 207.023 181.061 206.981 179.81 207.023C179.81 209.936 179.81 212.849 179.81 215.762C178.312 215.762 176.814 215.762 175.315 215.762C175.315 207.272 175.315 198.783 175.315 190.293ZM179.81 194.538C181.393 194.497 182.975 194.538 184.554 194.663C187.613 196.06 188.403 198.266 186.926 201.28C186.047 202.322 184.924 202.864 183.555 202.903C182.309 203.027 181.061 203.069 179.81 203.028C179.81 200.198 179.81 197.368 179.81 194.538Z" fill="#F1F1F1"/>
<path opacity="0.938" fill-rule="evenodd" clip-rule="evenodd" d="M196.539 190.293C198.372 190.252 200.203 190.293 202.032 190.418C203.897 193.324 205.811 196.195 207.775 199.032C209.554 196.182 211.302 193.31 213.018 190.418C214.681 190.293 216.345 190.252 218.012 190.293C218.049 190.556 218.008 190.806 217.887 191.042C215.286 194.995 212.748 198.99 210.272 203.027C216.181 212.016 222.09 221.005 227.999 229.994C226.168 230.327 224.337 230.327 222.506 229.994C217.255 222.204 212.054 214.381 206.901 206.523C205.143 209.582 203.353 212.619 201.533 215.637C199.779 215.844 198.031 215.802 196.289 215.512C199.019 211.3 201.682 207.055 204.279 202.778C201.697 198.612 199.117 194.45 196.539 190.293Z" fill="#F1F1F1"/>
<path opacity="0.94" fill-rule="evenodd" clip-rule="evenodd" d="M113.393 190.793C115.074 190.461 116.78 190.461 118.511 190.793C120.291 196.18 122.206 201.507 124.254 206.773C125.495 203.465 126.785 200.178 128.124 196.91C127.335 194.793 126.586 192.671 125.877 190.543C127.302 190.461 128.716 190.544 130.122 190.793C132.23 195.925 134.269 201.085 136.239 206.273C138.1 201.15 139.889 195.989 141.607 190.793C143.182 190.502 144.764 190.46 146.351 190.668C143.013 199.466 139.642 208.247 136.239 217.01C134.239 212.174 132.242 207.347 130.247 202.528C128.105 207.393 125.9 212.22 123.63 217.01C120.26 208.229 116.848 199.49 113.393 190.793Z" fill="#F1F1F1"/>
<path opacity="0.916" fill-rule="evenodd" clip-rule="evenodd" d="M42.9809 221.754C96.3309 221.754 149.681 221.754 203.031 221.754C203.031 223.003 203.031 224.251 203.031 225.499C149.015 225.583 94.9989 225.499 40.9834 225.25C41.6523 224.078 42.318 222.912 42.9809 221.754Z" fill="#F1F1F1"/>
<path opacity="0.817" fill-rule="evenodd" clip-rule="evenodd" d="M204.779 222.004C205.029 222.004 205.279 222.004 205.528 222.004C205.528 222.836 205.528 223.668 205.528 224.501C206.028 224.501 206.527 224.501 207.026 224.501C207.026 224.75 207.026 225 207.026 225.25C206.277 225.25 205.528 225.25 204.779 225.25C204.779 224.168 204.779 223.086 204.779 222.004Z" fill="#F1F1F1"/>
<path opacity="0.78" fill-rule="evenodd" clip-rule="evenodd" d="M207.026 222.004C207.775 222.004 208.524 222.004 209.274 222.004C209.274 222.253 209.274 222.503 209.274 222.753C209.024 222.753 208.774 222.753 208.524 222.753C208.524 223.585 208.524 224.417 208.524 225.25C208.275 225.25 208.025 225.25 207.775 225.25C207.775 224.417 207.775 223.585 207.775 222.753C207.526 222.753 207.276 222.753 207.026 222.753C207.026 222.503 207.026 222.253 207.026 222.004Z" fill="#F1F1F1"/>
<path opacity="0.762" fill-rule="evenodd" clip-rule="evenodd" d="M209.772 222.004C211.328 221.605 212.326 222.146 212.769 223.627C212.63 224.185 212.38 224.685 212.02 225.125C211.275 225.249 210.526 225.291 209.772 225.25C209.772 224.168 209.772 223.086 209.772 222.004ZM210.522 222.753C211.727 222.724 212.06 223.265 211.52 224.376C211.197 224.498 210.864 224.54 210.522 224.501C210.522 223.918 210.522 223.335 210.522 222.753Z" fill="#F1F1F1"/>
</svg>
