<svg width="256" height="256" viewBox="0 0 256 256" fill="none" xmlns="http://www.w3.org/2000/svg">
<g clip-path="url(#clip0_186_403)">
<mask id="mask0_186_403" style="mask-type:luminance" maskUnits="userSpaceOnUse" x="0" y="0" width="256" height="256">
<path d="M196 0H60C26.8629 0 0 26.8629 0 60V196C0 229.137 26.8629 256 60 256H196C229.137 256 256 229.137 256 196V60C256 26.8629 229.137 0 196 0Z" fill="white"/>
</mask>
<g mask="url(#mask0_186_403)">
<path d="M256 0H0V256H256V0Z" fill="url(#paint0_linear_186_403)"/>
</g>
<path fill-rule="evenodd" clip-rule="evenodd" d="M108.608 177.624H118V171.169H108.608V177.624ZM124.4 177.624H134V171.169H124.4V177.624ZM86 46.4143L44.4 67.0626V195.419L86 209.487V46.4143ZM92.4 87.259V171.169H102V177.624H92.4V213.973C92.4 215.012 91.904 215.987 91.0688 216.593C90.5184 216.993 89.8624 217.2 89.2 217.2C88.8608 217.2 88.5152 217.145 88.1824 217.032L40.1824 200.802C38.8768 200.36 38 199.127 38 197.743V65.052C38 63.8256 38.6944 62.6993 39.7888 62.1571L87.7888 38.3331C88.7776 37.8393 89.952 37.8974 90.8896 38.488C91.8272 39.0754 92.4 40.1113 92.4 41.228V80.8044H102V87.259H92.4ZM140.4 177.624H150V171.169H140.4V177.624ZM140.608 87.259H150V80.8044H140.608V87.259ZM124.608 87.259H134V80.8044H124.608V87.259ZM108.608 87.259H118V80.8044H108.608V87.259ZM210.8 67.0626L169.2 46.4143V209.487L210.8 195.419V67.0626ZM217.2 197.743C217.2 199.127 216.323 200.36 215.018 200.802L167.018 217.032C166.685 217.145 166.339 217.2 166 217.2C165.338 217.2 164.682 216.993 164.131 216.593C163.296 215.987 162.8 215.012 162.8 213.973V177.624H156.608V171.169H162.8V87.259H156.608V80.8044H162.8V41.228C162.8 40.1113 163.373 39.0754 164.31 38.488C165.248 37.8974 166.419 37.8393 167.411 38.3331L215.411 62.1571C216.506 62.6993 217.2 63.8256 217.2 65.052V197.743ZM136.989 107.781L131.011 105.464L115.011 147.419L120.989 149.736L136.989 107.781ZM158.662 128.268C159.914 127.007 159.914 124.964 158.662 123.705L145.862 110.796L141.338 115.359L151.875 125.987L141.338 136.614L145.862 141.178L158.662 128.268ZM109.338 141.178L96.5376 128.268C95.2864 127.007 95.2864 124.964 96.5376 123.705L109.338 110.796L113.862 115.359L103.325 125.987L113.862 136.614L109.338 141.178Z" fill="white"/>
</g>
<defs>
<linearGradient id="paint0_linear_186_403" x1="0" y1="25600" x2="25600" y2="0" gradientUnits="userSpaceOnUse">
<stop stop-color="#B0084D"/>
<stop offset="1" stop-color="#FF4F8B"/>
</linearGradient>
<clipPath id="clip0_186_403">
<rect width="256" height="256" fill="white"/>
</clipPath>
</defs>
</svg>
