<svg width="256" height="256" viewBox="0 0 256 256" fill="none" xmlns="http://www.w3.org/2000/svg">
<path d="M196 0H60C26.8629 0 0 26.8629 0 60V196C0 229.137 26.8629 256 60 256H196C229.137 256 256 229.137 256 196V60C256 26.8629 229.137 0 196 0Z" fill="#F4F2ED"/>
<path fill-rule="evenodd" clip-rule="evenodd" d="M145.58 192.514H148.631C149.474 192.514 150.106 192.69 150.522 193.041C150.944 193.392 151.149 193.919 151.149 194.633C151.149 195.371 150.949 195.915 150.551 196.266C150.141 196.617 149.527 196.793 148.678 196.793H145.574V192.514H145.58ZM145.58 200.398H149.386C151.435 200.398 153.016 199.889 154.106 198.877C155.195 197.858 155.745 196.401 155.745 194.504C155.745 192.69 155.189 191.309 154.082 190.349C152.97 189.389 151.359 188.909 149.24 188.909H140.872V206.778H145.58V200.398ZM141.499 212.268H146.739V226.503H151.424V212.268H156.659V208.639H141.499V212.268ZM154.352 150.818C154.353 153.774 153.76 156.699 152.606 159.42C151.452 162.141 149.761 164.602 147.635 166.656L145.826 168.43V160.932C145.826 152.065 148.83 143.654 154.352 136.789V150.818ZM194.485 102.309C195.635 102.021 196.657 101.36 197.39 100.429C198.124 99.4975 198.527 98.3492 198.537 97.1642C198.52 95.7355 197.936 94.372 196.914 93.3733C195.892 92.3746 194.515 91.8224 193.085 91.838C192.377 91.8295 191.674 91.9605 191.017 92.2236C190.359 92.4867 189.76 92.8767 189.253 93.3712C188.746 93.8658 188.342 94.4554 188.063 95.1062C187.784 95.757 187.636 96.4563 187.628 97.1642C187.628 99.4644 189.121 101.419 191.212 102.168C189.385 122.291 176.637 140.066 157.625 148.535V133.171L164.47 126.487C168.845 122.26 172.324 117.194 174.698 111.593C177.073 105.992 178.294 99.9697 178.289 93.8866V77.2818C183.342 75.7951 187.013 71.2181 187.013 65.8041C187.013 59.1845 181.521 53.8115 174.746 53.8115C167.971 53.8115 162.473 59.1845 162.473 65.8041C162.473 71.2181 166.156 75.7951 171.198 77.2818V93.8807C171.203 99.0506 170.166 104.169 168.149 108.929C166.132 113.69 163.176 117.995 159.457 121.589L157.625 123.374V98.9669C162.116 98.206 165.53 94.3899 165.53 89.7895C165.53 84.6389 161.255 80.4599 155.985 80.4599C150.715 80.4599 146.441 84.6389 146.441 89.7895C146.441 94.3899 149.86 98.206 154.352 98.9669V126.575L152.56 128.325C148.184 132.553 144.705 137.619 142.331 143.22C139.957 148.821 138.736 154.843 138.741 160.926V181.049H145.826V172.948L149.948 168.921C154.55 164.475 157.285 158.443 157.595 152.053L158.099 151.837C178.722 143.034 192.57 123.947 194.485 102.309ZM132.429 211.999C133.401 211.999 134.191 212.215 134.794 212.643C135.421 213.12 135.854 213.808 136.012 214.58H140.404C140.346 213.678 140.103 212.798 139.69 211.995C139.277 211.191 138.703 210.481 138.003 209.909C136.604 208.774 134.794 208.2 132.575 208.2C129.776 208.2 127.545 209.061 125.876 210.787C124.213 212.508 123.376 214.814 123.376 217.711C123.376 220.492 124.196 222.733 125.835 224.442C127.475 226.151 129.63 227 132.3 227C134.537 227 136.358 226.415 137.775 225.232C139.18 224.05 140.047 222.388 140.357 220.246H136.012C135.912 221.098 135.489 221.879 134.829 222.429C134.097 222.961 133.204 223.225 132.3 223.178C131.713 223.205 131.129 223.088 130.599 222.835C130.069 222.583 129.61 222.204 129.261 221.732C128.541 220.767 128.183 219.409 128.183 217.665C128.183 215.909 128.564 214.527 129.325 213.515C129.679 213.027 130.147 212.634 130.688 212.37C131.229 212.106 131.827 211.978 132.429 211.999ZM188.29 219.034H196.704V215.458H188.284V212.297H197.495V208.639H183.605V226.503H197.793V222.856H188.29V219.034ZM158.831 226.503H163.498V208.639H158.831V226.503ZM174.459 218.109C174.138 219.18 173.839 220.257 173.563 221.34C173.297 220.154 172.987 218.979 172.632 217.817L170.062 208.639H165.096L171.379 226.503H175.759L182.083 208.639H177.153L174.459 218.109ZM73.0544 226.503H84.1973L108.907 200.592V210.249H102.525L94.2511 218.935H108.919V226.503H117.808V188.909H108.919L73.0544 226.503ZM102.185 136.789C107.712 143.622 110.722 152.145 110.711 160.932V168.424L108.896 166.656C106.771 164.602 105.081 162.141 103.928 159.42C102.775 156.698 102.183 153.773 102.185 150.818V136.789ZM98.4378 151.837L98.9413 152.053C99.2518 158.443 101.986 164.475 106.589 168.921L110.711 172.948V181.049H117.796V160.932C117.802 154.848 116.581 148.825 114.207 143.223C111.833 137.62 108.353 132.554 103.977 128.325L102.185 126.569V114.553C106.676 113.792 110.09 109.976 110.09 105.376C110.09 100.225 105.816 96.0463 100.546 96.0463C95.2758 96.0463 91.0013 100.225 91.0013 105.376C91.0013 109.976 94.4209 113.792 98.9121 114.553V123.38L97.0793 121.589C93.361 117.995 90.4052 113.689 88.3881 108.929C86.371 104.168 85.334 99.0506 85.3391 93.8807V87.501C90.3807 86.0202 94.0637 81.4432 94.0637 76.0292C94.0637 69.4037 88.5655 64.0307 81.7907 64.0307C75.0101 64.0307 69.5177 69.4037 69.5177 76.0292C69.5177 81.4432 73.1949 86.0202 78.2423 87.501V93.8807C78.2423 106.201 83.155 117.778 92.067 126.482L98.9121 133.171V148.535C79.8994 140.066 67.1521 122.291 65.3252 102.168C66.3666 101.807 67.2704 101.131 67.9121 100.235C68.5538 99.3391 68.902 98.2662 68.9087 97.1642C68.8917 95.7355 68.308 94.372 67.2858 93.3733C66.2636 92.3746 64.8866 91.8224 63.4573 91.838C62.7491 91.8295 62.0461 91.9605 61.3886 92.2236C60.731 92.4867 60.1317 92.8767 59.625 93.3712C59.1182 93.8658 58.7139 94.4554 58.4351 95.1062C58.1562 95.757 58.0084 96.4563 58 97.1642C58 99.6341 59.7215 101.706 62.052 102.315C63.9667 123.947 77.8149 143.034 98.4378 151.837ZM123.359 59.243V181.049H133.172V59.2371C139.812 57.2003 144.626 51.1425 144.626 43.9844C144.631 35.1581 137.312 28 128.271 28C119.236 28 111.911 35.1581 111.911 43.9844C111.911 51.1425 116.724 57.2003 123.364 59.2371L123.359 59.243ZM128.055 192.514H131.111C131.954 192.514 132.587 192.69 133.003 193.041C133.424 193.392 133.629 193.919 133.629 194.633C133.629 195.371 133.43 195.915 133.026 196.266C132.628 196.617 132.001 196.793 131.158 196.793H128.055V192.514ZM128.055 200.398H131.867C133.916 200.398 135.497 199.889 136.586 198.877C137.675 197.858 138.226 196.401 138.226 194.504C138.226 192.69 137.669 191.309 136.557 190.349C135.45 189.389 133.834 188.909 131.72 188.909H123.347V206.778H128.055V200.398Z" fill="#3C78FF"/>
</svg>
