<svg width="256" height="256" viewBox="0 0 256 256" fill="none" xmlns="http://www.w3.org/2000/svg">
<path d="M196 0H60C26.8629 0 0 26.8629 0 60V196C0 229.137 26.8629 256 60 256H196C229.137 256 256 229.137 256 196V60C256 26.8629 229.137 0 196 0Z" fill="#242938"/>
<path fill-rule="evenodd" clip-rule="evenodd" d="M154.58 192.514H157.631C158.474 192.514 159.106 192.69 159.522 193.041C159.944 193.392 160.149 193.919 160.149 194.633C160.149 195.371 159.949 195.915 159.551 196.266C159.141 196.617 158.527 196.793 157.678 196.793H154.574V192.514H154.58ZM154.58 200.398H158.386C160.435 200.398 162.016 199.889 163.106 198.877C164.195 197.858 164.745 196.401 164.745 194.504C164.745 192.69 164.189 191.309 163.082 190.349C161.97 189.389 160.359 188.909 158.24 188.909H149.872V206.778H154.58V200.398ZM150.499 212.268H155.739V226.503H160.424V212.268H165.659V208.639H150.499V212.268ZM163.352 150.818C163.353 153.774 162.76 156.699 161.606 159.42C160.452 162.141 158.761 164.602 156.635 166.656L154.826 168.43V160.932C154.826 152.065 157.83 143.654 163.352 136.789V150.818ZM203.485 102.309C204.635 102.021 205.657 101.36 206.39 100.429C207.124 99.4975 207.527 98.3492 207.537 97.1642C207.52 95.7355 206.936 94.372 205.914 93.3733C204.892 92.3746 203.515 91.8224 202.085 91.838C201.377 91.8295 200.674 91.9605 200.017 92.2236C199.359 92.4867 198.76 92.8767 198.253 93.3712C197.746 93.8658 197.342 94.4554 197.063 95.1062C196.784 95.757 196.636 96.4563 196.628 97.1642C196.628 99.4644 198.121 101.419 200.212 102.168C198.385 122.291 185.637 140.066 166.625 148.535V133.171L173.47 126.487C177.845 122.26 181.324 117.194 183.698 111.593C186.073 105.992 187.294 99.9697 187.289 93.8866V77.2818C192.342 75.7951 196.013 71.2181 196.013 65.8041C196.013 59.1845 190.521 53.8115 183.746 53.8115C176.971 53.8115 171.473 59.1845 171.473 65.8041C171.473 71.2181 175.156 75.7951 180.198 77.2818V93.8807C180.203 99.0506 179.166 104.169 177.149 108.929C175.132 113.69 172.176 117.995 168.457 121.589L166.625 123.374V98.9669C171.116 98.206 174.53 94.3899 174.53 89.7895C174.53 84.6389 170.255 80.4599 164.985 80.4599C159.715 80.4599 155.441 84.6389 155.441 89.7895C155.441 94.3899 158.86 98.206 163.352 98.9669V126.575L161.56 128.325C157.184 132.553 153.705 137.619 151.331 143.22C148.957 148.821 147.736 154.843 147.741 160.926V181.049H154.826V172.948L158.948 168.921C163.55 164.475 166.285 158.443 166.595 152.053L167.099 151.837C187.722 143.034 201.57 123.947 203.485 102.309ZM141.429 211.999C142.401 211.999 143.191 212.215 143.794 212.643C144.421 213.12 144.854 213.808 145.012 214.58H149.404C149.346 213.678 149.103 212.798 148.69 211.995C148.277 211.191 147.703 210.481 147.003 209.909C145.604 208.774 143.794 208.2 141.575 208.2C138.776 208.2 136.545 209.061 134.876 210.787C133.213 212.508 132.376 214.814 132.376 217.711C132.376 220.492 133.196 222.733 134.835 224.442C136.475 226.151 138.63 227 141.3 227C143.537 227 145.358 226.415 146.775 225.232C148.18 224.05 149.047 222.388 149.357 220.246H145.012C144.912 221.098 144.489 221.879 143.829 222.429C143.097 222.961 142.204 223.225 141.3 223.178C140.713 223.205 140.129 223.088 139.599 222.835C139.069 222.583 138.61 222.204 138.261 221.732C137.541 220.767 137.183 219.409 137.183 217.665C137.183 215.909 137.564 214.527 138.325 213.515C138.679 213.027 139.147 212.634 139.688 212.37C140.229 212.106 140.827 211.978 141.429 211.999ZM197.29 219.034H205.704V215.458H197.284V212.297H206.495V208.639H192.605V226.503H206.793V222.856H197.29V219.034ZM167.831 226.503H172.498V208.639H167.831V226.503ZM183.459 218.109C183.138 219.18 182.839 220.257 182.563 221.34C182.297 220.154 181.987 218.979 181.632 217.817L179.062 208.639H174.096L180.379 226.503H184.759L191.083 208.639H186.153L183.459 218.109ZM82.0544 226.503H93.1973L117.907 200.592V210.249H111.525L103.251 218.935H117.919V226.503H126.808V188.909H117.919L82.0544 226.503ZM111.185 136.789C116.712 143.622 119.722 152.145 119.711 160.932V168.424L117.896 166.656C115.771 164.602 114.081 162.141 112.928 159.42C111.775 156.698 111.183 153.773 111.185 150.818V136.789ZM107.438 151.837L107.941 152.053C108.252 158.443 110.986 164.475 115.589 168.921L119.711 172.948V181.049H126.796V160.932C126.802 154.848 125.581 148.825 123.207 143.223C120.833 137.62 117.353 132.554 112.977 128.325L111.185 126.569V114.553C115.676 113.792 119.09 109.976 119.09 105.376C119.09 100.225 114.816 96.0463 109.546 96.0463C104.276 96.0463 100.001 100.225 100.001 105.376C100.001 109.976 103.421 113.792 107.912 114.553V123.38L106.079 121.589C102.361 117.995 99.4052 113.689 97.3881 108.929C95.371 104.168 94.334 99.0506 94.3391 93.8807V87.501C99.3807 86.0202 103.064 81.4432 103.064 76.0292C103.064 69.4037 97.5655 64.0307 90.7907 64.0307C84.0101 64.0307 78.5177 69.4037 78.5177 76.0292C78.5177 81.4432 82.1949 86.0202 87.2423 87.501V93.8807C87.2423 106.201 92.155 117.778 101.067 126.482L107.912 133.171V148.535C88.8994 140.066 76.1521 122.291 74.3252 102.168C75.3666 101.807 76.2704 101.131 76.9121 100.235C77.5538 99.3391 77.902 98.2662 77.9087 97.1642C77.8917 95.7355 77.308 94.372 76.2858 93.3733C75.2636 92.3746 73.8866 91.8224 72.4573 91.838C71.7491 91.8295 71.0461 91.9605 70.3886 92.2236C69.731 92.4867 69.1317 92.8767 68.625 93.3712C68.1182 93.8658 67.7139 94.4554 67.4351 95.1062C67.1562 95.757 67.0084 96.4563 67 97.1642C67 99.6341 68.7215 101.706 71.052 102.315C72.9667 123.947 86.8149 143.034 107.438 151.837ZM132.359 59.243V181.049H142.172V59.2371C148.812 57.2003 153.626 51.1425 153.626 43.9844C153.631 35.1581 146.312 28 137.271 28C128.236 28 120.911 35.1581 120.911 43.9844C120.911 51.1425 125.724 57.2003 132.364 59.2371L132.359 59.243ZM137.055 192.514H140.111C140.954 192.514 141.587 192.69 142.003 193.041C142.424 193.392 142.629 193.919 142.629 194.633C142.629 195.371 142.43 195.915 142.026 196.266C141.628 196.617 141.001 196.793 140.158 196.793H137.055V192.514ZM137.055 200.398H140.867C142.916 200.398 144.497 199.889 145.586 198.877C146.675 197.858 147.226 196.401 147.226 194.504C147.226 192.69 146.669 191.309 145.557 190.349C144.45 189.389 142.834 188.909 140.72 188.909H132.347V206.778H137.055V200.398Z" fill="#3C78FF"/>
</svg>
