<svg width="256" height="256" viewBox="0 0 256 256" fill="none" xmlns="http://www.w3.org/2000/svg" id="appcode">
<style>
#appcode {
    rect {fill: #242938}

    @media (prefers-color-scheme: light) {
        rect {fill: #F4F2ED}
    }
}
</style>
<rect width="256" height="256" rx="60" fill="#242938"/>
<path d="M192.228 181.184L221 105.041L134.103 85.2781L122.769 117.828L192.228 181.184Z" fill="#247CE6"/>
<path d="M221 184.091L177.116 221L89.6375 198.331L113.178 155.9L221 184.091Z" fill="url(#paint0_linear_61_2)"/>
<path d="M60.5751 127.419L38.4875 63.7719L137.009 35L129.163 117.537L60.5751 127.419Z" fill="url(#paint1_linear_61_2)"/>
<path d="M197.169 142.531L169.559 95.45L170.141 95.1594L137.009 35L35 145.147V221L220.419 184.091L197.169 142.531Z" fill="url(#paint2_linear_61_2)"/>
<path d="M186.125 69.875H69.875V186.125H186.125V69.875Z" fill="black"/>
<path d="M80.6282 164.328H124.222V171.594H80.6282V164.328ZM99.8094 84.9874H109.4L129.744 132.941H118.7L114.341 122.187H94.2875L89.9282 132.941H79.175L99.8094 84.9874ZM110.853 113.178L104.459 97.7749L98.0657 113.178H110.853ZM127.128 109.4C126.967 102.646 129.579 96.121 134.357 91.3439C139.134 86.5668 145.659 83.9547 152.413 84.1155C161.422 84.1155 166.944 87.0218 171.594 91.6718L164.909 99.5187C161.131 96.0312 157.353 93.9968 152.413 93.9968C144.275 93.9968 138.463 100.681 138.463 109.109C138.463 117.537 144.275 124.222 152.413 124.222C157.934 124.222 161.422 121.897 165.2 118.409L171.884 125.384C166.944 130.616 161.422 134.103 152.122 134.103C145.494 134.27 139.084 131.73 134.369 127.07C129.653 122.409 127.039 116.029 127.128 109.4Z" fill="white"/>
<defs>
    <linearGradient id="paint0_linear_61_2" x1="104.169" y1="3410.9" x2="13225.9" y2="3410.9" gradientUnits="userSpaceOnUse">
        <stop offset="0.19" stop-color="#00DAF0"/>
        <stop offset="0.9" stop-color="#247CE6"/>
    </linearGradient>
    <linearGradient id="paint1_linear_61_2" x1="22994.1" y1="-6.29054e+06" x2="691958" y2="-6.29054e+06" gradientUnits="userSpaceOnUse">
        <stop offset="0.19" stop-color="#00DAF0"/>
        <stop offset="0.9" stop-color="#247CE6"/>
    </linearGradient>
    <linearGradient id="paint2_linear_61_2" x1="12222.4" y1="19225" x2="2968.57" y2="6392.27" gradientUnits="userSpaceOnUse">
        <stop offset="0.09" stop-color="#1DDF93"/>
        <stop offset="0.48" stop-color="#00DAF0"/>
        <stop offset="0.9" stop-color="#247CE6"/>
    </linearGradient>
    <clipPath id="clip0_61_2">
        <rect width="256" height="256" fill="white"/>
    </clipPath>
</defs>
</svg>
