<svg width="256" height="256" viewBox="0 0 256 256" fill="none" xmlns="http://www.w3.org/2000/svg">
<path d="M196 0H60C26.8629 0 0 26.8629 0 60V196C0 229.137 26.8629 256 60 256H196C229.137 256 256 229.137 256 196V60C256 26.8629 229.137 0 196 0Z" fill="url(#paint0_linear_511_12)"/>
<path d="M127.166 60.6954L132.315 51.8199C135.493 46.2726 142.58 44.4024 148.142 47.5723C153.704 50.7421 155.579 57.8109 152.401 63.3581L102.79 149.007H138.671C150.303 149.007 156.818 162.638 151.765 172.084H46.5685C40.1486 172.084 35 166.949 35 160.546C35 154.143 40.1486 149.007 46.5685 149.007H76.0617L113.818 83.7402L102.027 63.3264C98.849 57.7792 100.724 50.7738 106.286 47.5406C111.848 44.3707 118.871 46.2409 122.113 51.7882L127.166 60.6954ZM82.5451 183.971L71.4216 203.212C68.2434 208.759 61.1562 210.629 55.5944 207.459C50.0326 204.29 48.1575 197.221 51.3357 191.674L59.5989 177.409C68.9426 174.525 76.5384 176.744 82.5451 183.971ZM178.334 149.071H208.432C214.851 149.071 220 154.206 220 160.609C220 167.012 214.851 172.147 208.432 172.147H191.714L202.997 191.674C206.175 197.221 204.3 204.226 198.738 207.459C193.176 210.629 186.153 208.759 182.911 203.212C163.906 170.341 149.636 145.742 140.165 129.354C130.472 112.681 137.4 95.9441 144.233 90.2701C151.829 103.267 163.175 122.888 178.334 149.071Z" fill="white"/>
<defs>
<linearGradient id="paint0_linear_511_12" x1="128" y1="0" x2="128" y2="256" gradientUnits="userSpaceOnUse">
<stop stop-color="#18BFFB"/>
<stop offset="1" stop-color="#2072F3"/>
</linearGradient>
</defs>
</svg>
