<svg width="256" height="256" viewBox="0 0 256 256" fill="none" xmlns="http://www.w3.org/2000/svg">
<path d="M196 0H60C26.8629 0 0 26.8629 0 60V196C0 229.137 26.8629 256 60 256H196C229.137 256 256 229.137 256 196V60C256 26.8629 229.137 0 196 0Z" fill="#242938"/>
<path d="M227 172V216H116.096C83.7852 216 55.5732 198.304 40.4792 172C38.285 168.175 36.3645 164.164 34.7535 159.999C31.5911 151.84 29.6031 143.084 29 133.948V122.052C29.1309 120.016 29.3373 117.996 29.6071 116C30.1586 111.904 30.9919 107.896 32.087 104C42.4473 67.0639 76.135 40 116.096 40C156.057 40 189.741 67.0639 200.101 104H152.68C144.896 91.9599 131.42 84 116.096 84C100.772 84 87.2968 91.9599 79.5117 104C77.1389 107.66 75.2978 111.696 74.0916 116C73.0202 119.816 72.4488 123.84 72.4488 128C72.4488 140.612 77.7103 151.98 86.1461 159.999C93.9629 167.444 104.502 172 116.096 172H227Z" fill="#FD366E"/>
<path d="M227 172V216H116.096C83.7852 216 55.5732 198.304 40.4792 172C38.285 168.175 36.3645 164.164 34.7535 159.999C31.5911 151.84 29.6031 143.084 29 133.948V122.052C29.1309 120.016 29.3373 117.996 29.6071 116C30.1586 111.904 30.9919 107.896 32.087 104C42.4473 67.0639 76.135 40 116.096 40C156.057 40 189.741 67.0639 200.101 104H152.68C144.896 91.9599 131.42 84 116.096 84C100.772 84 87.2968 91.9599 79.5117 104C77.1389 107.66 75.2978 111.696 74.0916 116C73.0202 119.816 72.4488 123.84 72.4488 128C72.4488 140.612 77.7103 151.98 86.1461 159.999C93.9629 167.444 104.502 172 116.096 172H227Z" fill="#FD366E"/>
<path d="M227 116V160H146C154.441 151.981 159.705 140.612 159.705 128C159.705 123.84 159.134 119.816 158.061 116H227Z" fill="#FD366E"/>
</svg>
