<svg width="256" height="256" viewBox="0 0 256 256" fill="none" xmlns="http://www.w3.org/2000/svg">
<rect width="256" height="256" rx="60" fill="#F4F2ED" />
<path d="M192.856 156.589L172.01 113.647C167.441 119.283 162.087 124.234 156.111 128.348C149.427 133.022 141.958 136.457 134.06 138.491L153.982 179.418C163.73 176.01 172.975 171.308 181.471 165.438C185.441 162.72 189.243 159.765 192.856 156.589Z" fill="#26069C"/>
<path d="M62.9022 167.943C58.6461 165.258 54.5701 162.298 50.7005 159.082L40.2837 181.471C38.7559 184.742 38.0393 188.333 38.1946 191.939C38.35 195.546 39.3728 199.062 41.1762 202.189C43.1078 205.6 45.9256 208.437 49.3235 210.381C53.5246 212.848 58.4142 213.888 63.2528 213.327C67.1559 212.829 70.8661 211.338 74.0291 208.998C77.1921 206.657 79.7021 203.545 81.3196 199.958L90.3275 180.597C80.6765 177.584 71.4577 173.33 62.9022 167.943Z" fill="#2404AA"/>
<path d="M226.886 75.4481C224.802 72.3878 221.995 69.8878 218.716 68.1689C215.436 66.4501 211.783 65.5652 208.08 65.5924C202.876 65.6541 197.853 67.5142 193.864 70.8571C189.875 74.2001 187.166 78.82 186.195 83.9333C183.987 94.8512 179.127 105.058 172.042 113.653L192.888 156.589C211.758 139.995 225.618 117.447 230.405 92.3228C230.967 89.4172 230.945 86.4289 230.341 83.5319C229.737 80.6349 228.563 77.8869 226.886 75.4481Z" fill="#FF9999"/>
<path d="M204.108 179.724L192.901 156.557L172.055 113.622L141.582 50.8661C139.724 47.0383 136.818 43.8159 133.201 41.5728C129.585 39.3298 125.407 38.1579 121.152 38.1933C116.897 38.2287 112.739 39.4698 109.161 41.7727C105.582 44.0755 102.73 47.3458 100.935 51.204L70.8645 115.751C79.5281 126.933 94.6178 136.049 109.618 139.128L119.404 118.103C119.613 117.653 119.946 117.272 120.364 117.004C120.782 116.735 121.267 116.59 121.763 116.586C122.26 116.582 122.747 116.719 123.169 116.981C123.591 117.243 123.93 117.618 124.147 118.065L134.104 138.491L154.026 179.418L163.889 199.741C165.756 203.565 168.665 206.784 172.281 209.028C175.896 211.272 180.071 212.451 184.327 212.428C189.428 212.377 194.361 210.598 198.321 207.381C202.281 204.165 205.034 199.701 206.129 194.718C207.162 189.635 206.45 184.352 204.108 179.724Z" fill="#FF5060"/>
<path d="M134.085 138.484C129.66 139.606 125.116 140.197 120.551 140.244C116.883 140.248 113.225 139.868 109.637 139.109C94.6368 135.992 79.579 126.92 70.9218 115.745C68.8565 113.131 67.13 110.268 65.7835 107.221C64.6276 104.278 62.8632 101.612 60.6057 99.3977C58.3483 97.1834 55.6487 95.4708 52.6837 94.3719C49.7186 93.2731 46.555 92.8127 43.3997 93.0209C40.2445 93.2292 37.1688 94.1014 34.3739 95.5804C24.0719 100.935 19.8389 114.463 24.4926 125.129C29.8731 137.592 38.9766 149.303 50.7576 159.095C54.6336 162.314 58.7073 165.278 62.9658 167.956C71.5211 173.343 80.74 177.597 90.391 180.61C100.285 183.715 110.593 185.283 120.959 185.251C132.205 185.116 143.353 183.143 153.963 179.412L134.085 138.484Z" fill="#0034FE"/>
</svg>
