<svg width="256" height="256" viewBox="0 0 256 256" fill="none" xmlns="http://www.w3.org/2000/svg">
<path d="M196 0H60C26.8629 0 0 26.8629 0 60V196C0 229.137 26.8629 256 60 256H196C229.137 256 256 229.137 256 196V60C256 26.8629 229.137 0 196 0Z" fill="#F4F2ED"/>
<path d="M190.14 143.001C183.842 143.001 179.319 138.31 179.319 131.842C179.319 125.418 183.842 120.768 189.971 120.768C196.1 120.768 200.665 125.418 200.665 131.842C200.665 132.18 200.623 132.688 200.58 133.111H184.18C184.645 136.576 187.097 138.986 190.309 138.986C192.592 138.986 194.705 137.76 195.762 135.942L199.566 138.394C197.664 141.141 193.987 143.001 190.14 143.001ZM184.392 129.518H195.593C194.832 126.686 192.676 124.784 189.971 124.784C187.266 124.784 185.152 126.686 184.392 129.518ZM169.964 142.93V121.322H174.865V144.089C174.865 147.074 174.286 149.258 173.083 150.55C171.701 152.109 169.785 152.867 167.335 152.867L165.998 148.456C167.468 148.456 168.493 148.055 169.072 147.252C169.652 146.406 169.964 144.98 169.964 142.93ZM175.484 113.254C175.484 114.954 174.106 116.333 172.405 116.333C170.704 116.333 169.325 114.954 169.325 113.254C169.325 111.553 170.704 110.174 172.405 110.174C174.105 110.174 175.484 111.553 175.484 113.254ZM206.55 113.252H211.453V121.318H215.722V125.333H211.453V142.452H206.55V125.333H203.097V121.318H206.55V113.252Z" fill="#1F1F1F"/>
<path fill-rule="evenodd" clip-rule="evenodd" d="M101.997 142.452L105.961 134.427H121.032L124.948 142.452H130.061L113.496 108.565L96.9312 142.452H101.997ZM108.015 130.23L113.496 119.061L118.977 130.23H108.015Z" fill="#1F1F1F"/>
<path d="M165.267 128.534C163.732 126.578 161.88 124.992 158.42 124.992C154.827 124.992 152.207 127.869 152.207 131.885C152.207 135.858 154.827 138.774 158.42 138.774C161.88 138.774 163.732 137.152 165.267 135.2V140.76C163.424 142.172 161.076 143.001 158.42 143.001C152.038 143.001 147.43 138.31 147.43 131.885C147.43 125.418 152.038 120.768 158.42 120.768C161.067 120.768 163.427 121.573 165.267 122.976V128.534ZM137.799 142.452H132.908V121.328H137.799V123.352C138.741 122.296 139.525 121.679 140.162 121.379C140.916 121.024 141.749 120.794 142.727 120.794C143.705 120.794 145.357 121.195 146.736 122.039L144.513 126.486C143.579 125.819 142.69 125.508 141.8 125.508C139.132 125.508 137.799 127.508 137.799 131.51V142.452ZM72.0647 127.414C75.4107 128.269 78.1763 128.954 83.9324 130.23C78.1763 131.507 75.4107 132.192 72.0647 133.047C71.5117 133.189 71.007 133.476 70.6035 133.88C70.1999 134.283 69.9124 134.788 69.771 135.341C68.916 138.686 68.2305 141.453 66.9542 147.209C65.678 141.453 64.9925 138.686 64.1375 135.341C63.9961 134.788 63.7085 134.283 63.305 133.88C62.9014 133.476 62.3967 133.189 61.8438 133.047C58.4978 132.192 55.7322 131.507 49.9761 130.23C55.7322 128.954 58.4978 128.269 61.8438 127.414C62.3967 127.272 62.9014 126.985 63.305 126.581C63.7085 126.178 63.9961 125.673 64.1375 125.12C64.9925 121.775 65.678 119.008 66.9542 113.252C68.2305 119.008 68.916 121.775 69.771 125.12C69.9124 125.673 70.1999 126.178 70.6035 126.581C71.007 126.985 71.5117 127.272 72.0647 127.414Z" fill="#1F1F1F"/>
<path fill-rule="evenodd" clip-rule="evenodd" d="M42.6804 129.302L43.6092 130.231L42.6804 131.159C34.1285 130.531 26.0715 130.442 13.0901 130.299C11.1732 130.278 9.14906 130.256 7 130.231C9.1167 130.206 11.1124 130.184 13.0034 130.163C26.0357 130.019 34.1094 129.93 42.6804 129.302ZM250 127.665C250 148.793 230.635 166.326 209.807 166.33H209.793C209.688 166.33 209.583 166.33 209.478 166.329C230.679 166.151 247.811 148.909 247.811 127.665C247.811 106.422 230.679 89.1796 209.478 89.0013C209.582 89.0004 209.685 89 209.789 89H209.811C230.637 89.0061 250 106.539 250 127.665Z" fill="#1F1F1F"/>
</svg>
