<svg width="256" height="256" viewBox="0 0 256 256" fill="none" xmlns="http://www.w3.org/2000/svg">
<path d="M196 0H60C26.8629 0 0 26.8629 0 60V196C0 229.137 26.8629 256 60 256H196C229.137 256 256 229.137 256 196V60C256 26.8629 229.137 0 196 0Z" fill="#242938"/>
<path d="M31 32L111 128.001L31 224V185.6L78.9996 128.001L31 70.4V32Z" fill="white"/>
<path d="M89 32L169 128.001L89 224V185.6L137 128.001L89 70.4V32Z" fill="white"/>
<path d="M144 32L226 128.001L144 224V185.6L193.2 128.001L144 70.4V32Z" fill="white"/>
</svg>
