<svg width="256" height="256" viewBox="0 0 256 256" fill="none" xmlns="http://www.w3.org/2000/svg">
<g clip-path="url(#clip0_33_686)">
<path d="M256 0H0V256H256V0Z" fill="url(#paint0_linear_33_686)"/>
<path d="M122.544 87.1254C136.919 87.1254 144.793 90.3461 146.229 91.9612C144.793 93.5764 136.919 96.797 122.544 96.797C108.169 96.797 100.295 93.5764 98.8595 91.9612C100.295 90.3461 108.169 87.1254 122.544 87.1254ZM120.908 112.903C120.381 112.633 120.01 112.094 120.01 111.456C120.01 110.56 120.734 109.828 121.62 109.828C121.877 109.828 122.112 109.902 122.331 110.015L120.908 112.903ZM139.416 139.491C139.178 139.684 138.631 140.058 137.507 140.509C136.506 140.909 135.322 141.27 133.978 141.586C130.408 142.424 126.019 142.885 121.617 142.885C111.99 142.885 105.282 140.806 103.837 139.517L99.571 99.6824C106.111 102.358 115.744 103.245 122.544 103.245C129.23 103.245 138.654 102.384 145.19 99.8114L142.64 117.33C137.834 115.518 131.838 112.887 126.155 110.121C125.577 108.116 123.776 106.64 121.62 106.64C119.003 106.64 116.875 108.803 116.875 111.456C116.875 114.116 119.003 116.276 121.62 116.276C122.239 116.276 122.83 116.147 123.37 115.927C131.31 119.848 137.227 122.362 141.68 123.913L139.416 139.491ZM92.3897 92.3094L97.5319 140.319C97.894 149.23 120.638 149.333 121.617 149.333C126.486 149.333 131.383 148.811 135.408 147.87C137.056 147.483 138.549 147.025 139.841 146.506C143.596 144.997 145.565 142.94 145.701 140.397L147.842 125.683C149.3 125.983 150.491 126.115 151.441 126.115C154.429 126.115 155.217 124.89 155.76 124.045C156.332 123.155 156.497 122.062 156.23 120.963C155.621 118.436 152.054 115.109 149.672 113.132L152.683 92.4319L152.654 92.4287C152.667 92.2707 152.718 92.1224 152.718 91.9612C152.718 83.0537 133.75 80.6777 122.544 80.6777C111.339 80.6777 92.3707 83.0537 92.3707 91.9612C92.3707 92.0805 92.412 92.1869 92.4183 92.3062L92.3897 92.3094ZM121.074 64.1908C148.757 64.1908 171.279 87.0513 171.279 115.151C171.279 143.25 148.757 166.11 121.074 166.11C93.387 166.11 70.865 143.25 70.865 115.151C70.865 87.0513 93.387 64.1908 121.074 64.1908ZM41.5523 133.872V140.319H70.1376V139.939C79.2754 159.198 98.6436 172.558 121.074 172.558C152.257 172.558 177.631 146.806 177.631 115.151C177.631 83.4954 152.257 57.7431 121.074 57.7431C96.8109 57.7431 76.131 73.3595 68.1144 95.1851H41.5523V101.633H66.1642C65.1733 105.782 64.5921 110.086 64.5444 114.528H35.2V120.976H64.8049C65.2527 125.454 66.2595 129.755 67.6634 133.872H41.5523ZM214.656 211.312C210.813 215.219 204.149 215.242 200.309 211.348L166.184 176.707C171.676 172.551 176.577 167.648 180.779 162.164L214.694 196.753C216.603 198.694 217.654 201.279 217.648 204.029C217.644 206.786 216.584 209.368 214.656 211.312ZM219.191 192.201L184.517 156.832C192.203 144.82 196.688 130.512 196.688 115.151C196.688 72.8276 162.767 38.3999 121.074 38.3999C91.1129 38.3999 63.9441 56.3826 51.8525 84.2143L57.6649 86.8127C68.7401 61.3216 93.6284 44.8476 121.074 44.8476C159.267 44.8476 190.336 76.3835 190.336 115.151C190.336 153.914 159.267 185.453 121.074 185.453C95.5595 185.453 72.1831 171.278 60.0597 148.46L54.4697 151.522C67.6983 176.43 93.2219 191.901 121.074 191.901C135.652 191.901 149.275 187.681 160.833 180.395L195.821 215.909C198.927 219.062 203.06 220.8 207.449 220.8C211.864 220.8 216.021 219.049 219.14 215.88C222.266 212.727 223.994 208.523 224 204.039C224.009 199.561 222.298 195.357 219.191 192.201Z" fill="white"/>
</g>
<defs>
<linearGradient id="paint0_linear_33_686" x1="0" y1="25600" x2="25600" y2="0" gradientUnits="userSpaceOnUse">
<stop stop-color="#4D27A8"/>
<stop offset="1" stop-color="#A166FF"/>
</linearGradient>
<clipPath id="clip0_33_686">
<rect width="256" height="256" rx="60" fill="white"/>
</clipPath>
</defs>
</svg>