<svg width="256" height="256" viewBox="0 0 256 256" fill="none" xmlns="http://www.w3.org/2000/svg">
<g clip-path="url(#clip0_186_331)">
<mask id="mask0_186_331" style="mask-type:luminance" maskUnits="userSpaceOnUse" x="0" y="0" width="256" height="256">
<path d="M196 0H60C26.8629 0 0 26.8629 0 60V196C0 229.137 26.8629 256 60 256H196C229.137 256 256 229.137 256 196V60C256 26.8629 229.137 0 196 0Z" fill="white"/>
</mask>
<g mask="url(#mask0_186_331)">
<path d="M256 0H0V256H256V0Z" fill="url(#paint0_linear_186_331)"/>
</g>
<path fill-rule="evenodd" clip-rule="evenodd" d="M144.092 58.1444H134.466V51.6866H144.092V42H150.509V51.6866H160.134V58.1444H150.509V67.831H144.092V58.1444ZM182.594 93.6621H172.969V87.2043H182.594V77.5177H189.012V87.2043H198.637V93.6621H189.012V103.349H182.594V93.6621ZM165.884 195.708C159.756 180.138 145.612 165.905 130.134 159.735C145.612 153.568 159.756 139.335 165.884 123.762C172.013 139.335 186.156 153.568 201.631 159.735C186.156 165.905 172.013 180.138 165.884 195.708ZM217.391 156.506C194.822 156.506 169.093 130.613 169.093 107.901C169.093 106.119 167.659 104.673 165.884 104.673C164.11 104.673 162.676 106.119 162.676 107.901C162.676 130.613 136.943 156.506 114.374 156.506C112.603 156.506 111.165 157.952 111.165 159.735C111.165 161.52 112.603 162.964 114.374 162.964C136.943 162.964 162.676 188.856 162.676 211.571C162.676 213.353 164.11 214.8 165.884 214.8C167.659 214.8 169.093 213.353 169.093 211.571C169.093 188.856 194.822 162.964 217.391 162.964C219.163 162.964 220.6 161.52 220.6 159.735C220.6 157.952 219.163 156.506 217.391 156.506ZM41.4171 92.8904C50.7605 99.7292 68.9146 103.349 86.3372 103.349C103.76 103.349 121.914 99.7292 131.257 92.8904V123.817C126.634 130.003 109.631 136.099 86.9789 136.099C60.9028 136.099 41.4171 127.898 41.4171 120.565V92.8904ZM86.3372 67.831C114.168 67.831 131.257 76.2939 131.257 82.361C131.257 88.4281 114.168 96.891 86.3372 96.891C58.506 96.891 41.4171 88.4281 41.4171 82.361C41.4171 76.2939 58.506 67.831 86.3372 67.831ZM131.257 189.014C131.257 196.457 112.041 204.784 86.3211 204.784C60.6205 204.784 41.4171 196.457 41.4171 189.014V168.382C50.876 175.601 69.3927 179.424 87.1618 179.424C99.518 179.424 111.467 177.668 120.794 174.478L118.734 168.362C110.052 171.33 98.8378 172.967 87.1618 172.967C60.9798 172.967 41.4171 164.765 41.4171 157.432V131.534C50.8504 138.74 69.2868 142.557 86.9789 142.557C105.935 142.557 122.193 138.627 131.257 132.405V142.095H137.674V82.361C137.674 68.7287 111.226 61.3733 86.3372 61.3733C62.4622 61.3733 37.2139 68.1604 35.1989 80.7466H35V189.014C35 203.45 61.4419 211.242 86.3211 211.242C111.216 211.242 137.674 203.45 137.674 189.014V177.613H131.257V189.014Z" fill="white"/>
</g>
<defs>
<linearGradient id="paint0_linear_186_331" x1="0" y1="25600" x2="25600" y2="0" gradientUnits="userSpaceOnUse">
<stop stop-color="#2E27AD"/>
<stop offset="1" stop-color="#527FFF"/>
</linearGradient>
</defs>
</svg>
