<svg width="256" height="256" viewBox="0 0 256 256" fill="none" xmlns="http://www.w3.org/2000/svg">
<path d="M196 0H60C26.8629 0 0 26.8629 0 60V196C0 229.137 26.8629 256 60 256H196C229.137 256 256 229.137 256 196V60C256 26.8629 229.137 0 196 0Z" fill="#F4F2ED"/>
<path d="M226 127.531C226 136.696 218.57 144.126 209.405 144.126H152.125L127.5 94.3356L154.079 48.3001C158.662 40.3632 168.811 37.6437 176.748 42.2257L176.751 42.2275C184.689 46.8098 187.409 56.9593 182.826 64.8968L156.247 110.936H209.405C218.57 110.936 226 118.366 226 127.531Z" fill="#1A73E8"/>
<path d="M176.751 212.835L176.748 212.836C168.811 217.418 158.662 214.699 154.08 206.762L127.5 160.727L100.921 206.762C96.3384 214.699 86.1897 217.418 78.2525 212.836L78.2493 212.835C70.3116 208.252 67.5916 198.103 72.1741 190.165L98.7532 144.126L127.5 143.055L156.247 144.126L182.826 190.165C187.409 198.103 184.689 208.252 176.751 212.835Z" fill="#EA4335"/>
<path d="M127.5 94.3356L120.006 114.683L98.7532 110.936L72.1741 64.8969C67.5916 56.9593 70.3116 46.8098 78.2493 42.2275L78.2525 42.2257C86.1897 37.6437 96.3385 40.3632 100.921 48.3001L127.5 94.3356Z" fill="#FBBC04"/>
<path d="M123.217 110.936L103.946 144.126H45.5951C36.4299 144.126 29 136.696 29 127.531C29 118.366 36.4299 110.936 45.5951 110.936H123.217Z" fill="#34A853"/>
<path d="M156.247 144.126H98.7529L127.5 94.3357L156.247 144.126Z" fill="#185DB7"/>
</svg>
