<svg width="256" height="256" viewBox="0 0 256 256" fill="none" xmlns="http://www.w3.org/2000/svg">
<g clip-path="url(#clip0_611_345)">
<path d="M196 0H60C26.8629 0 0 26.8629 0 60V196C0 229.137 26.8629 256 60 256H196C229.137 256 256 229.137 256 196V60C256 26.8629 229.137 0 196 0Z" fill="#F4F2ED"/>
<path d="M127.395 115.06V141.665L124.598 144V121.869H119.333L127.395 115.06ZM224.406 111C226.748 111 228.923 111.366 230.931 112.098C232.862 112.79 234.528 113.568 235.929 114.431L236.173 114.584L233.273 120.308C233.008 120.083 232.635 119.827 232.152 119.538L231.878 119.377L231.583 119.21L231.265 119.036C230.373 118.535 229.313 118.111 228.087 117.764C226.86 117.379 225.596 117.186 224.294 117.186C220.799 117.186 219.052 118.207 219.052 120.25C219.052 121.445 219.684 122.293 220.948 122.794L221.236 122.902L221.542 123.012L221.867 123.124L222.209 123.237L222.57 123.353L222.949 123.47C223.014 123.489 223.079 123.509 223.145 123.529L223.552 123.649L223.976 123.77L224.419 123.894L224.88 124.019L225.359 124.145L226.112 124.339L226.637 124.47C228.83 125.048 230.726 125.704 232.325 126.436C233.893 127.138 235.102 128.07 235.953 129.231L236.062 129.384C236.954 130.579 237.4 132.159 237.4 134.125C237.4 136.514 236.805 138.442 235.615 139.906C234.463 141.332 232.938 142.373 231.042 143.028C229.146 143.645 227.101 143.953 224.908 143.953C222.38 143.953 219.87 143.587 217.379 142.855C215.006 142.157 212.887 141.215 211.02 140.028L210.742 139.848L213.754 133.778C214.237 134.279 215.037 134.838 216.152 135.455C217.305 136.071 218.643 136.592 220.167 137.016C221.692 137.44 223.309 137.651 225.019 137.651C228.44 137.651 230.15 136.707 230.15 134.819C230.15 133.547 229.351 132.641 227.752 132.102L227.368 131.962L226.964 131.82L226.541 131.675L226.099 131.529L225.637 131.38L225.156 131.229C225.075 131.204 224.992 131.178 224.909 131.153L224.399 130.998L223.87 130.842L223.322 130.683L222.754 130.522L221.867 130.277L221.562 130.194C218.364 129.346 215.985 128.267 214.423 126.956C212.899 125.607 212.137 123.68 212.137 121.175C212.137 118.94 212.676 117.07 213.754 115.567C214.869 114.064 216.356 112.927 218.215 112.156C220.112 111.385 222.175 111 224.406 111ZM172.687 111.058C175.046 111.058 177.201 111.503 179.148 112.394L179.38 112.503C181.388 113.428 183.098 114.681 184.511 116.261C185.961 117.803 187.075 119.556 187.856 121.522C188.637 123.487 189.028 125.492 189.028 127.534C189.028 129.654 188.619 131.697 187.801 133.662C186.984 135.59 185.83 137.324 184.343 138.866C182.893 140.369 181.165 141.563 179.157 142.45C177.15 143.336 174.956 143.78 172.577 143.78C170.123 143.78 167.892 143.336 165.884 142.45C163.877 141.525 162.147 140.292 160.697 138.75C159.247 137.17 158.131 135.397 157.35 133.431C156.571 131.466 156.179 129.442 156.179 127.361C156.179 125.241 156.588 123.198 157.406 121.233C158.187 119.356 159.274 117.691 160.664 116.236L160.865 116.03C162.352 114.488 164.098 113.274 166.106 112.387C168.114 111.501 170.307 111.058 172.687 111.058ZM38.1288 111.231L51.6807 143.548H44.5423L41.4192 135.975H29.3173L26.1942 143.548H19L32.6077 111.231H38.1288ZM78.0468 111.231L86.6353 122.678L95.2237 111.231H102.529L90.2045 127.592L102.139 143.548H94.8333L86.6353 132.564L78.493 143.548H71.0757L83.0661 127.592L70.6853 111.231H78.0468ZM132.51 111.083V132.709H137.923L129.719 139.688V113.098L132.51 111.083ZM172.577 117.302C170.532 117.302 168.783 117.803 167.333 118.805C165.92 119.807 164.842 121.079 164.098 122.62C163.355 124.162 162.983 125.761 162.983 127.419C162.983 129.153 163.375 130.81 164.155 132.391C164.935 133.932 166.032 135.185 167.445 136.148C168.895 137.112 170.623 137.594 172.631 137.594C174.676 137.594 176.405 137.093 177.818 136.091C179.232 135.05 180.309 133.759 181.052 132.217C181.796 130.637 182.169 129.018 182.169 127.361C182.169 125.627 181.778 123.988 180.998 122.447C180.217 120.905 179.102 119.672 177.65 118.747C176.238 117.783 174.547 117.302 172.577 117.302ZM35.3961 119.73L30.8231 129.905H39.8019L35.3961 119.73Z" fill="#5A29E4"/>
</g>
<defs>
<clipPath id="clip0_611_345">
<rect width="256" height="256" fill="white"/>
</clipPath>
</defs>
</svg>
