<svg width="256" height="256" viewBox="0 0 256 256" fill="none" xmlns="http://www.w3.org/2000/svg" id="balancer">
<style>
#balancer {
    rect {fill: #242938}
    path[fill="#E5D3BE"] {fill: #E5D3BE}

    @media (prefers-color-scheme: light) {
        rect {fill: #F4F2ED}
        path[fill="#E5D3BE"] {fill: #7F6AE8}
    }
}
</style>
<rect width="256" height="256" rx="60" fill="#242938"/>
<path d="M175.117 146.401C206.592 152.186 228 163.574 228 176.679C228 195.645 183.225 211 128 211C72.775 211 28 195.637 28 176.679C28 163.574 49.4167 152.186 80.8833 146.401C94.5583 149.937 110.708 151.97 128 151.97C145.292 151.97 161.442 149.937 175.117 146.409V146.401ZM163.067 90.816C189.8 95.2482 208.217 104.569 208.217 115.367C208.217 130.432 172.3 142.65 128 142.65C83.7 142.65 47.7833 130.432 47.7833 115.367C47.7833 104.577 66.2 95.2482 92.9333 90.816C103.208 93.4139 115.192 94.8996 128 94.8996C140.808 94.8996 152.792 93.4056 163.067 90.816ZM128.367 45C161.542 45 188.442 54.2462 188.442 65.6587C188.442 77.0629 161.542 86.3091 128.367 86.3091C95.1917 86.3091 68.2917 77.0629 68.2917 65.6587C68.2917 54.2462 95.1917 45 128.367 45Z" fill="#E5D3BE"/>
</svg>
