<svg fill="none" height="256" viewBox="0 0 256 256" width="256" xmlns="http://www.w3.org/2000/svg" xmlns:xlink="http://www.w3.org/1999/xlink">
<linearGradient id="a" gradientUnits="userSpaceOnUse" x1="38.0203" x2="6324.56" y1="3216.85" y2="3216.85">
<stop offset="0" stop-color="#ffc400"/>
<stop offset=".13695" stop-color="#fecd00"/>
<stop offset=".36528" stop-color="#fed400"/>
<stop offset="1" stop-color="#fed600"/>
</linearGradient>
<g clip-path="url(#b)">
<path d="m196 0h-136c-33.1371 0-60 26.8629-60 60v136c0 33.137 26.8629 60 60 60h136c33.137 0 60-26.863 60-60v-136c0-33.1371-26.863-60-60-60z" fill="#242938"/>
<g clip-path="url(#c)">
<path d="m38.0186 96.292 62.8654 31.207 67.876-33.6941v-26.3094l-130.7414-32.4154z" fill="#fee900"/>
<path d="m38.0186 35.0801v61.2119.8235 61.5895l130.7414-64.9001v-26.3094z" fill="#ffc400"/>
<path d="m38.0186 97.0574v61.5916l62.8654-31.207-62.8654-31.2066z" fill="url(#a)" opacity=".75"/>
<path d="m38.0186 96.292v62.414 60.592l130.7414-31.795v-26.311z" fill="#ffc400"/>
<path d="m37.4386 168.687v11.263l131.3204 9.248v-29.759z" fill="#ffe082"/>
<path d="m37 75.3666v11.262l131.15 9.2485v-29.7589z" fill="#ffe082"/>
<path d="m153.823 174.318c0 3.134 1.573 6.139 4.375 8.354 2.801 2.216 6.6 3.461 10.561 3.461v-23.63c-8.249 0-14.936 5.29-14.936 11.815z" fill="#fff"/>
<path d="m153.823 80.998c0 3.1335 1.573 6.1387 4.375 8.3544 2.801 2.2158 6.6 3.4606 10.561 3.4605v-23.6298c-8.249 0-14.936 5.2897-14.936 11.8149z" fill="#fff"/>
<path d="m215.678 153.935c-1.676-4.744-4.339-9.234-7.879-13.286-3.619-4.094-8.135-7.643-13.334-10.479-5.775-3.113-12.191-5.407-18.961-6.779 12.005-4.017 21.125-9.679 27.36-16.985 6.222-7.2713 9.484-15.8738 9.35-24.6537.257-8.306-1.782-16.5562-5.974-24.1746-3.84-6.6633-9.771-12.4391-17.229-16.7785-8.277-4.6608-17.632-7.9883-27.533-9.7931-12.025-2.2511-24.353-3.332-36.71-3.2187h-86.408v7.6964l127.975 31.5371c1.446.3721 2.425 1.4382 2.425 2.6411v22.6004c0 1.0048-.687 1.9313-1.795 2.4226l-65.567 32.814 65.567 32.815c1.108.491 1.795 1.418 1.795 2.423v22.601c0 1.202-.979 2.268-2.425 2.641l-127.975 31.536v7.697h92.468c12.367.13 24.696-1.115 36.624-3.698 10.03-2.158 19.398-5.909 27.533-11.027 7.551-4.873 13.493-11.125 17.316-18.217 4.166-8.008 6.2-16.611 5.975-25.269.019-5.093-.856-10.163-2.598-15.066z" fill="#ff6d00" stroke="#ff6d00" stroke-width=".4"/>
</g>
</g>
</svg>
