<svg width="256" height="256" viewBox="0 0 256 256" fill="none" xmlns="http://www.w3.org/2000/svg" id="behat">
<style>
#behat {
    rect {fill: #242938}

    @media (prefers-color-scheme: light) {
        rect {fill: #F4F2ED}
        path {fill: #000000}
    }
}
</style>
<rect x="0.00282288" y="0.000518799" width="256" height="256" rx="50" fill="#242938"/>
<path d="M166.982 128.568C196.227 88.2209 172.697 46.7687 139.364 33.2297C103.005 18.4621 55.8443 43.5143 54 90.4546V226H133.187C171.385 214.406 169.229 182.345 158.004 165.215C128.474 128.604 74.287 161.655 91.4611 203.274L102.342 197.174L91.0611 223.363L63.1342 219.086L72.9697 213.606C59.7963 188.554 67.1734 153.349 95.8452 136.423C56.2834 119.814 53.8136 50.2913 113.017 42.2836C145.511 37.8885 186.6 80.684 155.51 121.998L161.634 126.632L139.891 126.67L134.203 105.704L141.471 111.023C165.842 75.0274 116.705 41.5365 91.9394 72.3903C83.2663 83.1954 80.2151 105.486 100.766 119.067C107.274 123.229 125.284 125.863 139.882 129.527C147.624 131.47 157.633 137.127 161.231 140.031C189.949 164.292 195.246 196.559 172.986 226H190.213C212.608 194.091 201.278 147.679 166.982 128.568Z" fill="#F4F2ED"/>
</svg>
