<svg width="128" height="128" viewBox="0 0 24 24" fill="none" xmlns="http://www.w3.org/2000/svg">
  <title>Bini.js Framework</title>
  <!-- No background rectangle - the system adds this -->
  <g transform="translate(3.6,0.5) scale(0.75)">
    <path fill="#0088FF" d="M8.04688 29.9219V24.8047C9.1276 25.4948 10.2734 25.8398 11.4844 25.8398C12.5651 25.8398 13.4245 25.5013 14.0625 24.8242C14.7135 24.1341 15.0391 23.1901 15.0391 21.9922C15.0391 20.4818 14.4596 19.2904 13.3008 18.418C12.1419 17.5326 10.5078 17.0573 8.39844 16.9922V12.6758C9.84375 12.5716 10.9635 12.1289 11.7578 11.3477C12.5651 10.5664 12.9688 9.53125 12.9688 8.24219C12.9688 7.14844 12.6758 6.28906 12.0898 5.66406C11.5169 5.03906 10.7422 4.72656 9.76562 4.72656C7.36979 4.72656 6.17188 6.32161 6.17188 9.51172V30.0781H0V9.58984C0 6.6862 0.891927 4.36198 2.67578 2.61719C4.45964 0.872396 6.9401 0 10.1172 0C12.9427 0 15.1758 0.716146 16.8164 2.14844C18.457 3.56771 19.2773 5.39714 19.2773 7.63672C19.2773 9.22526 18.8086 10.6185 17.8711 11.8164C16.9466 13.0143 15.7487 13.8346 14.2773 14.2773V14.3555C19.0039 15.2539 21.3672 17.8516 21.3672 22.1484C21.3672 24.4922 20.5404 26.4844 18.8867 28.125C17.2461 29.7526 15.0195 30.5664 12.207 30.5664C10.8398 30.5664 9.45312 30.3516 8.04688 29.9219Z"></path>
  </g>
</svg>