<svg width="256" height="256" viewBox="0 0 256 256" fill="none" xmlns="http://www.w3.org/2000/svg">
<path d="M196 0H60C26.8629 0 0 26.8629 0 60V196C0 229.137 26.8629 256 60 256H196C229.137 256 256 229.137 256 196V60C256 26.8629 229.137 0 196 0Z" fill="#F4F2ED"/>
<path d="M127.999 48L87.0152 118.83C102.566 114.046 119.296 113.337 135.512 117.154L149.363 120.416L136.332 175.554L122.461 172.292C111.806 169.783 100.699 172.269 92.1088 179.045C87.812 182.436 84.4269 186.694 82.1068 191.47L69.2859 185.281C72.5295 178.596 77.2716 172.633 83.2613 167.902C95.2433 158.438 110.866 154.962 125.739 158.464L132.235 130.983C108.966 125.51 84.4414 130.96 65.6953 145.766C46.9493 160.571 36 183.141 36 206.995L220 207L127.999 48Z" fill="#60A5FA"/>
</svg>
