<svg width="256" height="256" viewBox="0 0 256 256" fill="none" xmlns="http://www.w3.org/2000/svg">
<path d="M196 0H60C26.8629 0 0 26.8629 0 60V196C0 229.137 26.8629 256 60 256H196C229.137 256 256 229.137 256 196V60C256 26.8629 229.137 0 196 0Z" fill="#242938"/>
<path d="M154.613 149.265H179.584V143.79H163.026C165.296 134.709 179.183 132.706 179.183 122.558C179.183 117.083 175.444 113.077 167.699 113.077C162.759 113.077 158.619 114.546 155.682 116.015L157.417 121.089C160.088 119.887 163.026 118.686 166.631 118.686C169.569 118.686 172.24 119.887 172.24 123.226C172.373 130.703 156.082 131.238 154.613 149.265ZM229.525 141.653C221.914 141.653 215.638 135.377 215.638 127.766C215.638 120.154 221.914 113.878 229.525 113.878C237.137 113.878 243.413 120.154 243.413 127.766C243.413 135.377 237.137 141.653 229.525 141.653ZM229.525 116.415C223.249 116.415 218.175 121.49 218.175 127.766C218.175 134.042 223.249 139.116 229.525 139.116C235.801 139.116 240.875 134.042 240.875 127.766C240.875 121.49 235.801 116.415 229.525 116.415Z" fill="#00629A"/>
<path d="M237.402 127.766H230.458V120.823H228.589V129.636H237.402V127.766Z" fill="#00629A"/>
<path d="M12 108.137H24.018C32.8311 108.137 36.8371 113.211 36.8371 118.552C36.8371 122.157 35.1012 125.362 31.8964 127.098V127.232C36.7036 128.434 39.6413 132.306 39.6413 137.113C39.6413 143.523 34.8341 149.265 25.2197 149.265H12V108.137ZM23.0832 125.362C27.2227 125.362 29.4928 123.092 29.4928 119.887C29.4928 116.816 27.4898 114.413 23.0832 114.413H19.6114V125.362H23.0832ZM24.285 143.122C29.2257 143.122 32.0299 141.253 32.0299 137.113C32.0299 133.641 29.3593 131.505 25.2197 131.505H19.6114V143.122H24.285ZM45.2497 110.54C45.2497 108.003 47.2527 106 49.7898 106C52.3269 106 54.4634 107.869 54.4634 110.54C54.4634 112.944 52.4604 114.947 49.7898 114.947C47.1191 114.947 45.2497 113.077 45.2497 110.54ZM46.0509 119.754H53.5287V149.265H46.0509V119.754ZM63.5437 142.054V125.629H58.2024V119.754H63.5437V112.944L71.0215 110.807V119.754H79.9682L78.0987 125.629H71.0215V140.184C71.0215 142.989 71.9562 143.923 73.9592 143.923C75.6952 143.923 77.2975 143.256 78.4993 142.454L80.7694 147.529C78.6329 148.998 75.0275 149.799 72.0898 149.799C66.7485 149.932 63.5437 146.995 63.5437 142.054ZM84.7754 119.754H91.0514L91.8526 123.092C94.5233 120.422 96.9269 119.086 99.9981 119.086C101.333 119.086 102.936 119.487 104.138 120.288L101.467 126.564C100.132 125.763 98.9299 125.629 98.1287 125.629C96.1257 125.629 94.5233 126.431 92.1197 128.567V149.398H84.6419V119.754H84.7754ZM107.075 110.54C107.075 108.003 109.078 106 111.615 106C114.153 106 116.156 108.003 116.156 110.54C116.156 112.944 114.153 114.947 111.482 114.947C108.811 114.947 107.075 113.077 107.075 110.54ZM107.877 119.754H115.354V149.265H107.877V119.754ZM130.444 134.442L119.761 119.754H127.506L134.45 129.368L141.527 119.754H149.272L138.456 134.442L149.405 149.265H141.66L134.583 139.383L127.372 149.265H119.627L130.444 134.442Z" fill="#3FC0F0"/>
<path d="M202.816 135.244V113.077H198.143L180.383 136.178V140.585H196.407V149.398H202.816V140.585H208.158V135.244H202.816ZM196.407 130.036V135.11H192.134C190.798 135.11 188.395 135.244 187.594 135.244L196.674 122.959C196.674 124.027 196.407 127.232 196.407 130.036Z" fill="#00629A"/>
</svg>
