<svg width="256" height="256" viewBox="0 0 256 256" fill="none" xmlns="http://www.w3.org/2000/svg">
<path d="M196 0H60C26.8629 0 0 26.8629 0 60V196C0 229.137 26.8629 256 60 256H196C229.137 256 256 229.137 256 196V60C256 26.8629 229.137 0 196 0Z" fill="#F4F2ED"/>
<path d="M68.5203 48.4528C92.5963 66.5372 118.493 103.205 128.001 122.883C137.509 103.206 163.404 66.5369 187.481 48.4528C204.853 35.4037 233 25.3072 233 57.4351C233 63.8514 229.323 111.336 227.167 119.045C219.671 145.846 192.356 152.682 168.059 148.545C210.53 155.777 221.334 179.733 198.001 203.688C153.688 249.185 134.31 192.273 129.342 177.69C128.432 175.017 128.006 173.766 128 174.83C127.994 173.766 127.568 175.017 126.658 177.69C121.692 192.273 102.315 249.186 57.9988 203.688C34.6658 179.733 45.4695 155.776 87.9407 148.545C63.6431 152.682 36.328 145.846 28.8333 119.045C26.6767 111.335 23 63.8507 23 57.4351C23 25.3072 51.1478 35.4037 68.519 48.4528H68.5203Z" fill="#1185FE"/>
</svg>
