<svg width="256" height="256" viewBox="0 0 256 256" fill="none" xmlns="http://www.w3.org/2000/svg">
<rect width="256" height="256" rx="60" fill="#F3C14B" />
<path d="M128 211.077C173.882 211.077 211.077 173.882 211.077 128C211.077 82.1185 173.882 44.9231 128 44.9231C82.1185 44.9231 44.9231 82.1185 44.9231 128C44.9231 173.882 82.1185 211.077 128 211.077Z" stroke="white" stroke-width="5"/>
<path d="M180.846 74.9231L127.769 127.769V90.6154L143.231 75.1539H180.846V74.9231ZM127.769 127.769L180.846 180.846V143.462L165.154 127.769H127.769ZM112.308 180.846L127.769 165.385V127.769L74.9231 180.846H112.308ZM74.9231 112.308L90.3846 127.769H127.769L74.9231 74.9231V112.308Z" fill="white"/>
</svg>