<svg width="256" height="256" viewBox="0 0 256 256" fill="none" xmlns="http://www.w3.org/2000/svg">
<defs>
<radialGradient id="radialGradient-1" cx="50.1407407%" cy="50.0030864%" fx="50.1407407%" fy="50.0030864%" r="50.1188272%">
<stop offset="0%" stop-color="#797979"/>
<stop offset="100%" stop-color="#4C4C4C"/>
</radialGradient>
</defs>
<path d="M196 0H60C26.8629 0 0 26.8629 0 60V196C0 229.137 26.8629 256 60 256H196C229.137 256 256 229.137 256 196V60C256 26.8629 229.137 0 196 0Z" fill="#242938"/>
<g transform="translate(22 22) scale(0.828125)">
<circle cx="127.949264" cy="128.603432" r="127.396568" fill="#F5BB60"/>
<circle cx="114.960894" cy="115.615062" r="114.684546" fill="#E86F32"/>
<circle cx="130.160051" cy="100.415906" r="99.485389" fill="#E53D42"/>
<circle cx="138.174151" cy="108.430006" r="91.4712882" fill="#BFD141"/>
<circle cx="131.541792" cy="115.062366" r="84.8389289" fill="#6DB64C"/>
<circle cx="118.000725" cy="101.797647" r="71.2978621" fill="#AFDBE7"/>
<circle cx="129.607354" cy="89.91467" r="59.6912334" fill="#57BADF"/>
<circle cx="137.068758" cy="97.3760742" r="52.5061775" fill="#02B2D6"/>
<circle cx="129.331006" cy="104.837478" r="44.768425" fill="url(#radialGradient-1)"/>
<circle cx="129.331006" cy="104.837478" r="44.768425" fill="#231F20"/>
<path d="M141.088096,98.9711966 C145.526792,100.962869 151.64783,96.9551361 154.759818,90.0196748 C157.871806,83.0842136 156.796297,75.847342 152.357602,73.8556697 C147.918907,71.8639974 141.797868,75.8717302 138.68588,82.8071914 C135.573892,89.7426526 136.649401,96.9795243 141.088096,98.9711966 Z" fill="#FFFFFF"/>
</g>
</svg>
