<svg width="256" height="256" viewBox="0 0 256 256" fill="none" xmlns="http://www.w3.org/2000/svg">
  <rect width="256" height="256" rx="60" fill="#F4F2ED"/>
  <path d="m105.046 43.025.24-.003c2.126-.023 4.185.096 6.285.434l.308.05a31 31 0 0 1 1.82.36l.3.066a34 34 0 0 1 12.012 5.32l.25.174.492.346q.346.24.691.475l.223.152c.398.262.398.262.856.353q.435-.191.813-.48l.172-.12.742-.53c4.635-3.33 9.879-5.414 15.522-6.248l.297-.045a30.8 30.8 0 0 1 9.275.045l.296.044c6.13.913 12.204 2.945 17.213 6.665l.177.132q1.177.87 2.278 1.832l.223.196a43 43 0 0 1 1.633 1.563l.218.215c.49.489.931 1.004 1.362 1.544l.214.251c1.534 1.789 2.837 3.818 3.959 5.886l.12.219c2.111 3.877 3.396 7.99 4.252 12.308.325 1.65.325 1.65 1.35 2.944.549.342 1.143.6 1.732.866 3.756 1.708 7.259 3.779 10.382 6.49l.177.151c1.12.97 2.226 1.984 3.178 3.121l.199.23c4.738 5.477 7.241 12.359 8.249 23.71l.002.837c.001 1.67-.098 3.33-.365 4.98l-.026.162c-.872 5.428-2.977 10.453-6.177 14.918l-.135.189a30 30 0 0 1-1.704 2.19q-.304.356-.595.72-.366.45-.785.856a7 7 0 0 0-.402.443 16 16 0 0 1-1.697 1.679c-.185.159-.363.324-.543.489-.507.457-1.042.875-1.585 1.288l-.177.135c-1.978 1.499-4.073 2.756-6.286 3.875l-.202.102c-1.128.566-2.296 1.018-3.48 1.452l-.214.08c-4.039 1.497-8.366 1.847-12.632 2.047l-.277.014c-2.582.121-5.17.143-7.755.165l-.759.007-.51.005-.256.002q-.763.007-1.528.012l-.966.008-.455.003-.629.005h-.184a4.4 4.4 0 0 0-1.162.188c-.075.32-.093.616-.094.944l-.001.159v.526l-.002.377-.002 1.025-.001.641-.002 2.004q0 1.156-.004 2.313l-.003 1.788-.002 1.068-.001 1.004-.001.369.001.503-.001.284c.035.282.103.436.276.659.255.085.437.094.704.096l.29.004.318.003.335.003.91.009.569.005 1.782.015q1.028.008 2.054.019l1.589.014q.475.003.949.009.447.006.893.007.241.001.481.006c.727.002 1.416-.074 2.033-.492l.167-.108c.52-.469.831-1.085 1.152-1.697.355-.661.717-1.292 1.156-1.902l.121-.171a20 20 0 0 1 2.049-2.488q.154-.157.307-.318c.423-.439.889-.82 1.368-1.196l.141-.111c4.18-3.292 9.395-4.646 14.664-4.091 3.588.427 6.91 1.698 9.741 3.957l.237.185c2.721 2.162 4.929 5.143 6.145 8.406l.075.2c1.878 5.111 1.651 10.627-.607 15.581-1.685 3.598-4.377 6.681-7.814 8.682l-.165.096c-4.408 2.53-10.09 2.97-14.971 1.868l-.243-.054c-2.938-.662-5.533-2.04-7.775-4.037l-.129-.113c-1.855-1.639-3.224-3.699-4.405-5.858-.326-.592-.672-1.171-1.183-1.623l-.148-.134c-.601-.4-1.171-.406-1.871-.399l-.309.001-.666.003-1.071.004-1.532.005q-1.194.006-2.387.007l-.199.001-.994.002-.993.001a484 484 0 0 1-8.159-.043l-.363-.003c-2.357-.02-4.791-.414-6.546-2.098-2.505-2.608-2.045-6.931-2.067-10.257l-.01-1.166a648 648 0 0 1-.019-6.688l.001-.686.002-.844v-.168l.009-2.139.004-1.228.004-.572.003-.782.003-.23c-.002-.426-.053-.699-.275-1.075v-.163a2.6 2.6 0 0 0-.768-.093l-.271-.001h-.296l-.312-.001-.848-.001h-.53l-1.849-.001-1.723-.002q-.74-.003-1.48-.002l-.884-.001h-.985l-.296-.001-.271.001-.235-.001c-.218.02-.43.083-.625.184-.29.581-.176 1.471-.175 2.11v1.194l-.002 2.259v1.301l-.002 3.894v.2q0 1.614-.002 3.227l-.002 5.179q-.002 1.196-.001 2.391v.876l-.001.256c.004.782.069 1.457.643 2.036.433.397.888.65 1.413.906 2.717 1.372 5.343 3.437 7.129 5.917l.113.155c2.244 3.111 3.483 6.947 3.504 10.792l.001.223c.019 3.083.019 3.083-.263 4.457l-.056.279c-.735 3.569-2.027 6.694-4.526 9.376l-.333.383c-.303.34-.624.637-.976.926l-.129.107a22 22 0 0 1-2.326 1.693l-.154.097c-2.49 1.569-5.223 2.558-8.11 3.094l-.234.043c-4.719.848-9.948-.997-13.806-3.656-1.656-1.161-3.185-2.511-4.369-4.16l-.119-.166c-1.005-1.416-1.804-2.924-2.335-4.579l-.064-.197c-1.302-4.111-1.427-8.297-.427-12.485l.056-.236a16.7 16.7 0 0 1 2.808-5.982l.103-.143q.781-1.051 1.697-1.985l.194-.204c.45-.463.933-.872 1.442-1.268l.145-.114a25.3 25.3 0 0 1 3.72-2.404c.923-.489 1.583-.884 1.944-1.901.024-.203.024-.203.02-.416l.002-.249-.001-.273v-1.088l.001-.861q.003-1.529 0-3.057v-4.308a848 848 0 0 1 0-3.189v-5.661q.003-1.26 0-2.519l-.001-.923v-.737a1.7 1.7 0 0 0-.185-.61c-.247-.179-.47-.184-.77-.186l-.273-.002h-.299l-.314-.002-.855-.003-.534-.002-1.863-.003q-.87 0-1.737-.006-.744-.004-1.491-.004-.446 0-.89-.003a110 110 0 0 0-.994-.001l-.298-.004c-.527 0-.527 0-.986.235-.27.407-.334.714-.333 1.202v.17l.002.563v.405l.002.874.003 1.398.006 2.484c.021 7.851.021 7.851-.024 10.793l-.004.288c-.022 1.547-.048 3.125-.431 4.632l-.065.259c-.272 1.038-.711 1.886-1.433 2.686l-.15.173c-.923 1-2.158 1.436-3.45 1.724l-.276.065c-.958.218-1.89.262-2.87.273l-.392.005-1.08.013-.69.008q-3.147.037-6.294.021l-1.385-.006-.398-.002-.594-.002q-1.186-.005-2.374-.015-.756-.007-1.512-.009-.442 0-.883-.006a63 63 0 0 0-.97-.005l-.285-.006c-.75.005-1.383.22-1.954.721-.467.478-.765 1.069-1.075 1.656a21 21 0 0 1-1.269 2.101l-.133.195c-1.165 1.676-2.477 3.172-4.12 4.387l-.165.123a18.5 18.5 0 0 1-9.654 3.559l-.23.016c-5.258.342-10.718-.908-14.759-4.413q-.3-.27-.593-.553l-.27-.259c-1.59-1.507-2.853-3.325-3.865-5.264l-.091-.172c-.931-1.79-1.495-3.744-1.873-5.719l-.044-.229c-.867-4.76.365-10.172 3.11-14.142q.3-.426.615-.847l.108-.148a19 19 0 0 1 1.61-1.897l.142-.148a17 17 0 0 1 2.231-1.98l.161-.12c.86-.639 1.75-1.188 2.703-1.68l.152-.08c2.47-1.284 5.426-1.872 8.194-1.965l.28-.01c3.974-.071 8.177 1.016 11.42 3.364l.174.124c.816.579 1.596 1.172 2.31 1.874q.216.209.434.415a16 16 0 0 1 1.99 2.333l.112.157c.538.762.99 1.564 1.437 2.382.502.919.963 1.569 1.97 1.961.302.073.582.091.893.089l.295-.001.32-.003.34-.002.92-.007.965-.007q.81-.004 1.618-.012l1.87-.013 1.8-.013.766-.005.9-.007.49-.003.293-.003.255-.002c.195-.01.36-.037.547-.093.09-.29.093-.559.094-.861v-.162l.002-.538.002-.385.004-1.265v-.436l.004-2.045q0-1.18.006-2.362l.004-1.825q0-.545.004-1.09.002-.513 0-1.025l.002-.377v-.803c-.049-.295-.135-.389-.367-.571-.308-.131-.66-.096-.99-.098l-.204-.002-.669-.005-.47-.005-1.002-.009-2.341-.022-.516-.005c-15.29-.155-15.29-.155-28.09-5.827l-.157-.101a38 38 0 0 1-3.852-2.845l-.12-.099a30 30 0 0 1-2.085-1.92l-.46-.46a20 20 0 0 1-1.59-1.775l-.229-.266c-2.8-3.217-5.04-7.105-6.48-11.107l-.09-.249c-1.32-3.725-1.894-7.693-1.89-11.635v-.215c.011-5.522 1.06-11.364 3.453-16.374l.087-.182q.236-.49.486-.97.126-.243.248-.488c1.231-2.422 2.945-4.68 4.792-6.663q.166-.18.329-.364c1.325-1.48 2.858-2.75 4.45-3.933l.181-.136a41 41 0 0 1 2.832-1.922c1.35-.84 2.757-1.575 4.186-2.268l.16-.077c.65-.315 1.302-.611 1.97-.887.862-.39 1.427-1.065 1.775-1.93.188-.555.297-1.126.412-1.7q.117-.575.239-1.148l.049-.232c.734-3.485 1.904-6.719 3.495-9.909l.114-.228a34 34 0 0 1 2.885-4.707 34 34 0 0 1 2.46-3.041q.231-.255.453-.515a19 19 0 0 1 .956-1.005l.165-.165c.37-.37.752-.717 1.15-1.057l.24-.212c5.677-4.9 12.844-7.46 21.604-8.624l.193-.023c.489-.053.972-.075 1.463-.081" fill="#35C2F1"/>
  <path d="m111.981 56.137.243.073c3.138.942 6.05 2.53 8.593 4.592l.326.26c.55.441 1.088.89 1.608 1.367.284.254.582.492.879.732.187.154.364.314.542.48 1.439 1.285 2.767 2.151 4.74 2.081.992-.066 1.854-.6 2.608-1.208l.192-.152q1.05-.831 2.042-1.73c.34-.308.69-.6 1.046-.89q.276-.222.55-.45c3.855-3.189 8.295-5.3 13.285-5.89l.318-.038c.277-.025.55-.037.828-.044l.215-.007c1.443-.038 2.853.07 4.285.252l.213.027c5.706.734 11.867 4.107 15.413 8.67l.164.221.206.267a22.4 22.4 0 0 1 3.394 6.36l.083.245c1.038 3.11 1.396 6.24 1.543 9.497.118 2.826.118 2.826 1.586 5.162 1.301 1.031 3.062 1.485 4.626 1.955 4.263 1.287 8.072 3.21 11.34 6.261q.276.255.561.5a14 14 0 0 1 1.534 1.58l.113.135a25.6 25.6 0 0 1 2.996 4.447l.104.193c1.246 2.335 1.906 5.046 2.187 7.662l.024.218c.073.755.078 1.51.078 2.267l.001.212c-.007 5.164-1.459 10.258-4.603 14.403l-.108.144q-.693.916-1.479 1.755-.285.309-.561.627c-.758.844-1.621 1.607-2.515 2.301l-.144.112c-3.056 2.371-6.514 3.945-10.329 4.634l-.209.038c-2.679.463-5.46.384-8.17.416l-.449.005c-3.524.04-7.048.043-10.572.042H95.191q-5.484.01-10.966-.05c-4.923-.056-9.701-.186-14.216-2.415l-.213-.104c-1.765-.872-3.467-1.965-4.909-3.313a18 18 0 0 0-.493-.438 25 25 0 0 1-1.213-1.156l-.22-.218q-.735-.741-1.38-1.562l-.142-.176c-2.3-2.882-3.845-6.242-4.584-9.852l-.045-.224q-.075-.396-.138-.793l-.031-.193c-.194-1.215-.253-2.407-.246-3.637q0-.43-.003-.857c-.006-6.177 2.512-11.695 6.83-16.039l.127-.127a20 20 0 0 1 1.75-1.565l.296-.247a23 23 0 0 1 3.959-2.617l.153-.08q.57-.3 1.155-.575l.198-.093c1.656-.775 3.392-1.337 5.144-1.85 2.144-.614 2.144-.614 3.986-1.82l.163-.152c1.316-1.366 1.255-3.41 1.344-5.18.154-3.04.516-5.99 1.439-8.905l.063-.2c1.26-3.956 3.697-7.692 6.973-10.272l.2-.17c5.74-4.876 14.285-7.058 21.809-4.904" fill="#fff"/>
  <path d="M106.069 44.729h.282c2.277.008 4.551.175 6.775.69l.28.064c2.75.63 2.75.63 4.02 1.164.219.09.439.17.66.25 2.785 1.073 5.353 2.56 7.78 4.28.813.576 1.607 1.125 2.56 1.443v13.172c-2.286 0-3.98-1.795-5.579-3.247q-.63-.564-1.294-1.09l-.28-.23c-2.774-2.261-5.95-4.113-9.426-5.035l-.383-.106c-5.886-1.688-12.358-.342-17.624 2.555a25.4 25.4 0 0 0-3.459 2.326l-.25.196a27 27 0 0 0-1.713 1.522l-.187.177c-.441.427-.82.899-1.204 1.378l-.153.179c-3.727 4.45-4.993 10.264-5.284 15.916-.225 4.346-.225 4.346-1.687 5.76-1.342 1.135-3.315 1.575-4.966 2.067-3.91 1.166-7.424 2.988-10.492 5.696l-.184.163c-1.071.953-2.148 1.957-3.007 3.11l-.271.356c-.59.78-1.14 1.568-1.61 2.426l-.116.21c-1.9 3.472-2.802 7.142-2.78 11.097l-.002.859c0 1.199.087 2.36.28 3.543l.048.306q.061.357.135.711l.052.255c1.114 5.254 4.151 10.248 8.437 13.537l.265.215c.676.544 1.374 1.04 2.108 1.503l.156.1c5.07 3.18 10.6 3.48 16.409 3.546l.44.005c3.99.046 7.98.041 11.97.04l3.31-.001 8.684-.003 19.657-.005v48.927l-1.473.164a7 7 0 0 0-.772.225l-.185.065c-1.901.696-3.29 2.087-4.172 3.893-.81 1.761-.813 3.682-.175 5.498.096.242.2.475.313.71l.104.22c.876 1.731 2.406 3.126 4.233 3.789.703.227 1.388.335 2.127.409v10.718c-4.928 0-9.76-2.341-13.234-5.763-3.278-3.295-4.538-7.888-4.541-12.421v-.255c.001-1.234.028-2.437.266-3.652l.044-.229c.413-2.102 1.143-4.114 2.329-5.907l.094-.144a17.1 17.1 0 0 1 3.67-3.947l.237-.193c1.047-.832 2.171-1.51 3.362-2.113 1.295-.66 2.092-1.339 2.613-2.725.136-.447.144-.868.139-1.333l.001-.302v-1.707q.003-.868 0-1.735l-.001-1.411v-.612l-.003-3.609-.002-3.499q.003-1.908 0-3.816v-2.018q.001-.858-.002-1.716v-.876l-.003-.949.002-.278c-.008-.757-.205-1.351-.724-1.913-.71-.629-1.67-.638-2.567-.636l-.308-.001-.83-.001-.696-.001h-1.643l-1.69-.002-1.455-.002-.867-.001h-.968l-.286-.002c-.794.005-1.552.102-2.182.621-1.07 1.085-.988 2.501-.98 3.917v.522l.004 1.123.004 1.783.009 4.113q.009 2.618.011 5.237c.028 7.528.028 7.528-1.362 9.113q-.18.183-.368.358l-.143.144c-.751.714-1.83.917-2.803 1.165l-.154.043c-.288.065-.582.059-.877.065l-.215.005-.705.015-.248.005a202 202 0 0 1-5.108.032l-1.543-.004q-2.19-.004-4.377-.011l-2.44-.006q-.767-.001-1.532-.005l-.95-.001-.436-.002c-1.504-.011-2.64.252-3.793 1.277-.55.605-.935 1.309-1.323 2.024a22.5 22.5 0 0 1-3.462 4.745l-.157.168c-2.976 3.089-7.459 4.506-11.65 4.593a23.7 23.7 0 0 1-5.62-.588l-.215-.048c-2.178-.5-4.143-1.474-5.921-2.816l-.23-.168c-1.297-1.003-2.439-2.251-3.37-3.595l-.116-.165a19.7 19.7 0 0 1-2.258-4.335l-.12-.27c-1.253-2.905-1.377-6.909-.615-9.958l.055-.232c1.032-4.242 3.512-8.151 7.063-10.731l.21-.156c3.977-2.881 8.944-3.714 13.743-2.966.913.15 1.788.35 2.656.667l.183.066c4.388 1.603 7.954 4.754 10.05 8.929.58 1.146 1.457 2.098 2.694 2.541l.231.087c.484.135.99.101 1.487.101l.348.002.942.001.59.001q1.032.003 2.063.002.957 0 1.916.005l1.65.003.984.002h.926l.497.003c.9-.006 1.806-.128 2.472-.786.656-.794.645-1.749.644-2.728l.002-.383q.004-.841.004-1.683.002-1.132.001-2.265 0-1.053.005-2.106l.002-1.812.002-1.08q.003-.508 0-1.017l.002-.372c.007-.895-.06-1.781-.71-2.461-.778-.64-1.733-.72-2.703-.718l-.266-.001-.575-.001-.921-.003-1.317-.006q-1.708-.006-3.416-.02l-.17-.001a152 152 0 0 1-5.77-.145l-.168-.007q-1.136-.053-2.27-.121l-.326-.018c-1.24-.071-2.474-.148-3.703-.329l-.183-.026c-1.567-.225-3.124-.531-4.623-1.044a27 27 0 0 0-.557-.179c-4.231-1.347-8.156-3.572-11.553-6.422l-.252-.209a29 29 0 0 1-1.954-1.811l-.46-.46a20 20 0 0 1-1.59-1.774l-.23-.27c-1.892-2.168-3.39-4.695-4.678-7.258l-.103-.203c-.505-1.003-.91-2.035-1.29-3.091q-.105-.29-.216-.577c-1.845-4.861-1.944-10.501-1.337-15.601l.056-.516c.133-1.15.353-2.28.598-3.412l.05-.242c.644-3.04 1.764-6.057 3.306-8.758l.111-.197c1.65-2.88 3.783-5.538 6.27-7.74l.202-.186q.848-.766 1.761-1.45l.157-.12c1.26-.97 2.581-1.832 3.944-2.65q.192-.116.382-.235c.61-.38 1.254-.69 1.9-1.003l.27-.133.92-.445q.08-.037.158-.077a74 74 0 0 1 1.59-.75c1.275-.58 2.272-1.39 2.788-2.733.221-.63.36-1.266.481-1.922l.127-.653.034-.166a39.2 39.2 0 0 1 2.975-9.128q.66-1.442 1.457-2.812l.114-.197a32.4 32.4 0 0 1 4.113-5.646q.232-.258.46-.522c.303-.35.624-.677.953-1.003l.164-.166c.37-.37.753-.717 1.15-1.056l.25-.22c1.703-1.46 3.552-2.684 5.517-3.76q.26-.141.517-.29c1.42-.793 2.98-1.415 4.516-1.95l.192-.066c3.932-1.372 8.22-2.2 12.387-2.178" fill="#242E67"/>
  <path d="m105.046 43.025.24-.003c2.126-.023 4.185.096 6.285.434l.308.05a31 31 0 0 1 1.82.36l.3.066a34 34 0 0 1 12.012 5.32l.25.174.492.346q.346.24.691.475l.223.152c.398.262.398.262.856.353q.435-.191.813-.48l.172-.12.742-.53c4.635-3.33 9.879-5.414 15.522-6.248l.297-.045a30.8 30.8 0 0 1 9.275.045l.296.044c6.13.913 12.204 2.945 17.213 6.665l.177.132q1.177.87 2.278 1.832l.223.196a43 43 0 0 1 1.633 1.563l.218.215c.49.489.931 1.004 1.362 1.544l.214.251c1.534 1.789 2.837 3.818 3.959 5.886l.12.219c2.111 3.877 3.396 7.99 4.252 12.308.325 1.65.325 1.65 1.35 2.944.549.342 1.143.6 1.732.866 3.756 1.708 7.259 3.779 10.382 6.49l.177.151c1.12.97 2.226 1.984 3.178 3.121l.199.23c4.738 5.477 7.241 12.359 8.249 23.71l.002.837c.001 1.67-.098 3.33-.365 4.98l-.026.162c-.872 5.428-2.977 10.453-6.177 14.918l-.135.189a30 30 0 0 1-1.704 2.19q-.304.356-.595.72-.366.45-.785.856a7 7 0 0 0-.402.443 16 16 0 0 1-1.697 1.679c-.185.159-.363.324-.543.489-.507.457-1.042.875-1.585 1.288l-.177.135c-1.978 1.499-4.073 2.756-6.286 3.875l-.202.102c-1.128.566-2.296 1.018-3.48 1.452l-.214.08c-4.039 1.497-8.366 1.847-12.632 2.047l-.277.014c-2.582.121-5.17.143-7.755.165l-.759.007-.51.005-.256.002q-.763.007-1.528.012l-.966.008-.455.003-.629.005h-.184a4.4 4.4 0 0 0-1.162.188c-.075.32-.093.616-.094.944l-.001.159v.526l-.002.377-.002 1.025-.001.641-.002 2.004q0 1.156-.004 2.313l-.003 1.788-.002 1.068-.001 1.004-.001.369.001.503-.001.284c.035.282.103.436.276.659.255.085.437.094.704.096l.29.004.318.003.335.003.91.009.569.005 1.782.015q1.028.008 2.054.019l1.589.014q.475.003.949.009.447.006.893.007.241.001.481.006c.727.002 1.416-.074 2.033-.492l.167-.108c.52-.469.831-1.085 1.152-1.697.355-.661.717-1.292 1.156-1.902l.121-.171a20 20 0 0 1 2.049-2.488q.154-.157.307-.318c.423-.439.889-.82 1.368-1.196l.141-.111c4.18-3.292 9.395-4.646 14.664-4.091 3.588.427 6.91 1.698 9.741 3.957l.237.185c2.721 2.162 4.929 5.143 6.145 8.406l.075.2c1.878 5.111 1.651 10.627-.607 15.581-1.685 3.598-4.377 6.681-7.814 8.682l-.165.096c-4.408 2.53-10.09 2.97-14.971 1.868l-.243-.054c-2.938-.662-5.533-2.04-7.775-4.037l-.129-.113c-1.855-1.639-3.224-3.699-4.405-5.858-.326-.592-.672-1.171-1.183-1.623l-.148-.134c-.601-.4-1.171-.406-1.871-.399l-.309.001-.666.003-1.071.004-1.532.005q-1.194.006-2.387.007l-.199.001-.994.002-.993.001a484 484 0 0 1-8.159-.043l-.363-.003c-2.357-.02-4.791-.414-6.546-2.098-2.505-2.608-2.045-6.931-2.067-10.257l-.01-1.166a648 648 0 0 1-.019-6.688l.001-.686.002-.844v-.168l.009-2.139.004-1.228.004-.572.003-.782.003-.23c-.002-.426-.053-.699-.275-1.075v-.163a2.6 2.6 0 0 0-.768-.093l-.271-.001h-.296l-.312-.001-.848-.001h-.53l-1.849-.001-1.723-.002q-.74-.003-1.48-.002l-.884-.001h-.985l-.296-.001-.271.001-.235-.001c-.218.02-.43.083-.625.184-.29.581-.176 1.471-.175 2.11v1.194l-.002 2.259v1.301l-.002 3.894v.2q0 1.614-.002 3.227l-.002 5.179q-.002 1.196-.001 2.391v.876l-.001.256c.004.782.069 1.457.643 2.036.433.397.888.65 1.413.906 2.717 1.372 5.343 3.437 7.129 5.917l.113.155c2.244 3.111 3.483 6.947 3.504 10.792l.001.223c.019 3.083.019 3.083-.263 4.457l-.056.279c-.735 3.569-2.027 6.694-4.526 9.376l-.333.383c-.303.34-.624.637-.976.926l-.129.107a22 22 0 0 1-2.326 1.693l-.154.097c-2.49 1.569-5.223 2.558-8.11 3.094l-.234.043c-4.719.848-9.948-.997-13.806-3.656-1.656-1.161-3.185-2.511-4.369-4.16l-.119-.166c-1.005-1.416-1.804-2.924-2.335-4.579l-.064-.197c-1.302-4.111-1.427-8.297-.427-12.485l.056-.236a16.7 16.7 0 0 1 2.808-5.982l.103-.143q.781-1.051 1.697-1.985l.194-.204c.45-.463.933-.872 1.442-1.268l.145-.114a25.3 25.3 0 0 1 3.72-2.404c.923-.489 1.583-.884 1.944-1.901.024-.203.024-.203.02-.416l.002-.249-.001-.273v-1.088l.001-.861q.003-1.529 0-3.057v-4.308a848 848 0 0 1 0-3.189v-5.661q.003-1.26 0-2.519l-.001-.923v-.737a1.7 1.7 0 0 0-.185-.61c-.247-.179-.47-.184-.77-.186l-.273-.002h-.299l-.314-.002-.855-.003-.534-.002-1.863-.003q-.87 0-1.737-.006-.744-.004-1.491-.004-.446 0-.89-.003a110 110 0 0 0-.994-.001l-.298-.004c-.527 0-.527 0-.986.235-.27.407-.334.714-.333 1.202v.17l.002.563v.405l.002.874.003 1.398.006 2.484c.021 7.851.021 7.851-.024 10.793l-.004.288c-.022 1.547-.048 3.125-.431 4.632l-.065.259c-.272 1.038-.711 1.886-1.433 2.686l-.15.173c-.923 1-2.158 1.436-3.45 1.724l-.276.065c-.958.218-1.89.262-2.87.273l-.392.005-1.08.013-.69.008q-3.147.037-6.294.021l-1.385-.006-.398-.002-.594-.002q-1.186-.005-2.374-.015-.756-.007-1.512-.009-.442 0-.883-.006a63 63 0 0 0-.97-.005l-.285-.006c-.75.005-1.383.22-1.954.721-.467.478-.765 1.069-1.075 1.656a21 21 0 0 1-1.269 2.101l-.133.195c-1.165 1.676-2.477 3.172-4.12 4.387l-.165.123a18.5 18.5 0 0 1-9.654 3.559l-.23.016c-5.258.342-10.718-.908-14.759-4.413q-.3-.27-.593-.553l-.27-.259c-1.59-1.507-2.853-3.325-3.865-5.264l-.091-.172c-.931-1.79-1.495-3.744-1.873-5.719l-.044-.229c-.867-4.76.365-10.172 3.11-14.142q.3-.426.615-.847l.108-.148a19 19 0 0 1 1.61-1.897l.142-.148a17 17 0 0 1 2.231-1.98l.161-.12c.86-.639 1.75-1.188 2.703-1.68l.152-.08c2.47-1.284 5.426-1.872 8.194-1.965l.28-.01c3.974-.071 8.177 1.016 11.42 3.364l.174.124c.816.579 1.596 1.172 2.31 1.874q.216.209.434.415a16 16 0 0 1 1.99 2.333l.112.157c.538.762.99 1.564 1.437 2.382.502.919.963 1.569 1.97 1.961.302.073.582.091.893.089l.295-.001.32-.003.34-.002.92-.007.965-.007q.81-.004 1.618-.012l1.87-.013 1.8-.013.766-.005.9-.007.49-.003.293-.003.255-.002c.195-.01.36-.037.547-.093.09-.29.093-.559.094-.861v-.162l.002-.538.002-.385.004-1.265v-.436l.004-2.045q0-1.18.006-2.362l.004-1.825q0-.545.004-1.09.002-.513 0-1.025l.002-.377v-.803c-.049-.295-.135-.389-.367-.571-.308-.131-.66-.096-.99-.098l-.204-.002-.669-.005-.47-.005-1.002-.009-2.341-.022-.516-.005c-15.29-.155-15.29-.155-28.09-5.827l-.157-.101a38 38 0 0 1-3.852-2.845l-.12-.099a30 30 0 0 1-2.085-1.92l-.46-.46a20 20 0 0 1-1.59-1.775l-.229-.266c-2.8-3.217-5.04-7.105-6.48-11.107l-.09-.249c-1.32-3.725-1.894-7.693-1.89-11.635v-.215c.011-5.522 1.06-11.364 3.453-16.374l.087-.182q.236-.49.486-.97.126-.243.248-.488c1.231-2.422 2.945-4.68 4.792-6.663q.166-.18.329-.364c1.325-1.48 2.858-2.75 4.45-3.933l.181-.136a41 41 0 0 1 2.832-1.922c1.35-.84 2.757-1.575 4.186-2.268l.16-.077c.65-.315 1.302-.611 1.97-.887.862-.39 1.427-1.065 1.775-1.93.188-.555.297-1.126.412-1.7q.117-.575.239-1.148l.049-.232c.734-3.485 1.904-6.719 3.495-9.909l.114-.228a34 34 0 0 1 2.885-4.707 34 34 0 0 1 2.46-3.041q.231-.255.453-.515a19 19 0 0 1 .956-1.005l.165-.165c.37-.37.752-.717 1.15-1.057l.24-.212c5.677-4.9 12.844-7.46 21.604-8.624l.193-.023c.489-.053.972-.075 1.463-.081m-2.994 1.957q-.285.037-.568.07c-.984.112-1.951.33-2.92.531l-.25.051c-2.715.558-5.316 1.438-7.85 2.568l-.212.092c-1.151.51-2.228 1.14-3.306 1.79l-.194.115q-1.18.713-2.267 1.563l-.46.352q-.826.635-1.587 1.348a20 20 0 0 1-.553.494c-.347.303-.675.623-1 .95l-.165.164q-.624.628-1.192 1.308c-.737.87-1.422 1.77-2.074 2.705l-.122.177c-.73 1.05-1.378 2.145-2.004 3.26l-.12.213c-1.35 2.426-2.483 5.11-3.153 7.805l-.083.32q-.103.406-.201.814l-.138.552c-.16.65-.31 1.299-.432 1.956l-.03.162q-.076.396-.147.791c-.195 1.04-.54 1.976-1.26 2.769l-.138.154c-.64.68-1.425 1.04-2.27 1.405q-.32.14-.637.282l-.162.072c-3.197 1.428-6.232 3.262-8.903 5.532l-.139.117c-.743.624-.743.624-1.44 1.3a7 7 0 0 1-.445.402c-.335.29-.64.602-.942.927l-.16.172a31.6 31.6 0 0 0-4.401 6.082l-.105.186c-1.508 2.695-2.438 5.58-3.136 8.574q-.096.417-.202.832a7 7 0 0 0-.136.664l-.029.188-.029.197-.03.214-.098.681-.032.225q-.133.938-.24 1.88c-.445 3.902-.223 7.967.6 11.804l.055.255c.488 2.203 1.328 4.352 2.318 6.373l.221.463c1.74 3.594 4.2 6.837 7.019 9.655l.373.376c.517.52 1.057.993 1.633 1.451l.269.232c3.045 2.656 6.828 4.627 10.612 5.986l.175.065c1.91.703 3.932 1.146 5.949 1.387q.313.038.625.079c1.372.174 2.743.256 4.124.313l.671.03q1.177.055 2.354.1 2.011.084 4.028.088l.966.004a1254 1254 0 0 0 4.276.02l.801.003q.447 0 .893.005l.261-.001c.909.01 1.927.166 2.596.835.614.759.626 1.581.623 2.513l.002.383v1.032l.001.865q.003 1.021 0 2.042 0 1.05.004 2.1.002.905.001 1.809v1.078q.003.507 0 1.014l.001.37c.007.91-.051 1.826-.635 2.567-.672.681-1.527.79-2.445.796h-.326l-.349.002-.942.001-.59.001q-1.032.003-2.062.002-.96 0-1.917.005l-1.65.003q-.493-.001-.984.002h-.927l-.496.003c-1.24-.009-2.234-.436-3.139-1.28-.616-.65-1.01-1.459-1.422-2.245-.71-1.341-1.64-2.548-2.694-3.636l-.132-.139a15.6 15.6 0 0 0-2.16-1.907l-.163-.118c-4.157-2.967-9.064-3.847-14.072-3.072-2.35.402-4.685 1.309-6.627 2.7l-.25.177c-1.572 1.151-3.026 2.493-4.168 4.077l-.11.147a18.4 18.4 0 0 0-3.245 7.462l-.064.312c-.19.987-.224 1.952-.218 2.956v.243c.008 1.708.147 3.368.69 4.998l.113.404a17.9 17.9 0 0 0 2.505 5.078l.12.17q.743 1.058 1.637 1.992l.264.274a14.9 14.9 0 0 0 3.462 2.719l.282.162c1.683.948 3.477 1.446 5.364 1.801l.19.04c3.773.785 8.317.371 11.754-1.431l.334-.165c2.068-1.034 3.902-2.589 5.313-4.416l.103-.133c.773-1 1.42-2.075 2.026-3.183.823-1.498 1.65-2.557 3.352-3.066.346-.086.681-.093 1.036-.091h.19l.629.001h.45l.975.002 1.551.002q3.426.002 6.85.008l1.284.002q1.54.004 3.079-.005l.735-.003q.624-.002 1.246-.011l.466-.003c1.606-.006 3.414-.278 4.663-1.375l.165-.136c1.392-1.249 1.507-3.332 1.604-5.068.077-1.542.046-3.088.04-4.631l-.004-1.49q-.003-2.206-.012-4.412l-.015-5.211-.003-1.098-.002-.506c-.01-1.302-.016-2.586.897-3.617.346-.328.719-.468 1.175-.586l.148-.043c.209-.045.4-.049.614-.05l.266-.001.291-.001.308-.001.836-.002.522-.001 1.639-.002q.945 0 1.886-.004l1.461-.003.871-.002.974-.001.288-.002c.99.005 1.849.202 2.563.916.428.624.46 1.174.457 1.91l.001.3v.82q0 .444.003.887l.002 1.736.001 1.818v.205q.004 1.915.001 3.831 0 1.75.004 3.5.004 1.798.004 3.598l.002 2.018q.003.86 0 1.719l.001.875v.953l.002.275a4.06 4.06 0 0 1-1.113 2.742c-.59.538-1.291.861-1.999 1.218-3.937 2.004-7.273 5.484-8.712 9.698q-.168.543-.297 1.096-.061.252-.13.502a18 18 0 0 0-.277 1.252c-.226 1.223-.231 2.45-.233 3.689l-.001.245c-.002 1.01.042 1.993.19 2.992l.035.237q.048.293.103.587l.041.212c.248 1.227.576 2.501 1.13 3.628l.099.201c2.11 4.272 5.775 7.412 10.287 8.988q.255.087.51.17.195.067.388.138c2.194.798 4.733 1.059 7.036.677l.358-.057c1.814-.273 3.57-.879 5.213-1.69l.221-.108c1.682-.832 3.189-1.803 4.575-3.07q.265-.238.538-.468c3.052-2.667 4.491-7.123 4.795-11.051.267-4.511-.613-9.079-3.42-12.712l-.107-.139a17.2 17.2 0 0 0-3.656-3.461l-.181-.127a25 25 0 0 0-3.028-1.807c-1.053-.54-1.826-1.312-2.21-2.434a3.6 3.6 0 0 1-.156-1.044l-.001-.253v-.276l-.004-1.977-.005-3.101-.003-3.304v-1.072q0-1.724-.006-3.448l-.004-3.543-.003-1.989q-.002-.846-.002-1.693l-.001-.863v-.938l-.003-.273c.006-.689.153-1.283.513-1.875.782-.738 1.685-.865 2.725-.863l.314-.002.847-.002.711-.001q.838-.003 1.678-.001.862 0 1.723-.005l1.487-.003.885-.002h.988l.291-.003c.765.008 1.495.174 2.112.647l.169.225.124.158c.677.922.647 1.918.639 3.012v.462l-.003.992q-.003.79-.004 1.581-.001 1.256-.007 2.512-.007 2.233-.01 4.466l-.005 1.559c-.006 1.675 0 3.348.037 5.022l.005.22c.064 3.17.064 3.17 1.566 5.886.751.703 1.664 1.055 2.649 1.293l.173.043c.776.164 1.559.159 2.349.172l.48.01c1.586.029 3.172.028 4.758.022l1.527-.004q2.168-.004 4.334-.011 1.207-.004 2.416-.006.759-.001 1.515-.005l.94-.001.433-.002c1.369-.01 2.582.18 3.657 1.092l.145.121c.604.552.963 1.305 1.362 2.008.833 1.465 1.704 2.831 2.829 4.089l.124.139c.476.532.954 1.05 1.512 1.497l.222.182c2.545 2.025 5.521 3.203 8.747 3.56q.186.021.371.045c4.568.585 9.617-.604 13.283-3.384a17.5 17.5 0 0 0 4.623-5.394l.1-.181c2.392-4.331 3.024-9.325 1.675-14.093a18.9 18.9 0 0 0-4.188-7.381 17.33 17.33 0 0 0-11.822-5.738c-4.71-.25-9.156.891-12.847 3.911l-.139.114c-2.003 1.649-3.461 3.573-4.675 5.864-.695 1.285-1.556 2.15-2.959 2.613a5 5 0 0 1-.993.094l-.301.002-.326.001-.346.001-1.133.004-.392.001-1.84.003-2.118.006q-.819.004-1.641.004l-.978.003-.922.002-.495.003c-.866-.005-1.728-.136-2.369-.767-.584-.748-.605-1.604-.597-2.511l-.002-.401a129 129 0 0 1 .001-1.079v-1.134q0-.952.003-1.903.005-1.098.002-2.196v-3.018l.003-1.059v-.388c-.004-.874.056-1.624.699-2.277.221-.141.221-.141.465-.261l.242-.121c.639-.253 1.253-.297 1.936-.296l.272-.002.584-.002.942-.004 1.848-.009q1.395-.004 2.79-.013l.164-.001c7.608-.048 15.432-.163 22.325-3.78q.303-.157.607-.308a32 32 0 0 0 4.889-3.057l.153-.117c1.541-1.171 3.115-2.477 4.372-3.954q.339-.39.69-.767c.474-.52.903-1.068 1.33-1.626l.12-.155c4.952-6.43 7.331-13.928 6.86-25.998-.498-3.75-1.431-7.403-3.053-10.829l-.102-.217c-1.025-2.16-2.315-4.15-3.825-6.001l-.108-.133c-1.085-1.323-2.268-2.605-3.574-3.712l-.237-.21c-3.139-2.764-6.843-4.822-10.645-6.52-.674-.302-1.259-.608-1.8-1.125l-.156-.146c-.865-.894-1.182-2.143-1.415-3.328l-.099-.492-.051-.257c-1.299-6.439-3.972-12.862-8.484-17.747a15 15 0 0 1-.302-.339c-.398-.464-.822-.9-1.254-1.331l-.364-.367q-.769-.766-1.62-1.438l-.297-.253c-1.453-1.235-3.105-2.27-4.776-3.184l-.198-.11c-3.802-2.1-8.024-3.28-12.284-4.001l-.182-.031a29 29 0 0 0-4.922-.394h-.295c-2.569.002-5.15.22-7.646.854l-.256.064c-4.25 1.059-8.076 2.967-11.648 5.48-1.942 1.365-1.942 1.365-2.823 1.41a4 4 0 0 1-.604-.26l-.171-.089c-.55-.295-1.05-.652-1.553-1.018-2.494-1.812-5.305-3.462-8.238-4.443a9 9 0 0 1-.623-.244c-.615-.248-1.262-.405-1.902-.572l-.231-.061a71 71 0 0 0-1.733-.43l-.205-.049c-2.247-.513-4.555-.637-6.852-.642l-.27-.001q-1.881 0-3.747.254" fill="#000"/>
  <path d="m128.304 68.942.182-.002c.333.078.535.283.726.56l.12.21c2.128 3.449 6.547 4.968 10.273 5.88 2.92.69 5.918 1.012 8.913 1.125l.278.01q.702.026 1.403.049l.522.018.245.006c.475.018.836.04 1.209.362.255.3.235.573.235.953l.001.168v.56l.001.404.001 1.113.001 1.2.002 2.626.001 1.64.002 4.547v1.476l.004 4.744.003 4.874.002 2.735.001 2.33.001 1.189c.008 3.035.008 3.035-.276 4.464l-.052.276q-.058.299-.132.594l-.052.212c-.707 2.776-2.218 5.353-4.182 7.427l-.276.317c-.784.899-1.589 1.786-2.497 2.561-.202.175-.396.357-.592.538-.426.389-.871.745-1.327 1.097a44 44 0 0 0-.741.591c-1.344 1.09-2.775 2.05-4.222 2.996l-.228.15a65 65 0 0 1-3.699 2.223l-.235.133a83 83 0 0 1-3.38 1.764l-.21.105-.777.388c-.609.301-1.087.498-1.78.392-.384-.144-.737-.338-1.094-.537l-.311-.168a66 66 0 0 1-.645-.349q-.465-.25-.936-.488a58 58 0 0 1-3.495-1.923 48 48 0 0 0-.655-.38 49.3 49.3 0 0 1-7.501-5.268 37 37 0 0 0-.719-.588c-.379-.308-.72-.64-1.062-.99a9 9 0 0 0-.523-.482 14 14 0 0 1-1.48-1.498 17 17 0 0 0-.331-.367c-2.23-2.38-3.86-5.25-4.591-8.434l-.04-.17c-.205-.95-.192-1.922-.192-2.889v-.412l-.001-1.127-.002-1.217-.002-4.319-.003-4.597v-1.49q0-2.4-.004-4.803l-.003-4.934-.002-2.77v-2.355l-.002-1.202q-.003-.75 0-1.5v-.843c.035-.306.115-.502.276-.764.516-.335 1.09-.28 1.688-.286q.354-.007.71-.017l.19-.005c3.38-.094 6.816-.39 10.094-1.246l.263-.068c3.718-.974 7.844-2.51 9.968-5.93.252-.347.49-.595.937-.59m-1.1 7.337c-1.878 2.593-5.455 3.728-8.432 4.404l-.22.05c-2.512.57-5.1.715-7.668.787l-.229.008q-.21.007-.422.01c-.426.016-.74.08-1.115.29-.175.262-.184.48-.185.79l-.001.288v.65q-.003.463-.001.924l-.002.996q-.005 1.77-.003 3.539l-.002 4.506v.49q0 1.968-.004 3.936l-.003 4.044-.002 2.268q-.004.968-.001 1.934l-.001.985c-.007 1.648.03 3.245.66 4.796l.084.212c.706 1.733 1.695 3.235 2.897 4.66l.174.23.153.18h.164l.058.138c.133.238.299.402.492.595l.36.357.364.363c.434.433.876.852 1.344 1.247l.156.133c2.13 1.803 4.46 3.389 6.88 4.776l.225.13c1.48.852 2.997 1.634 4.521 2.406l.259.138c.37.172.649.184 1.05.108.472-.177.917-.4 1.366-.629l.384-.191q1.425-.715 2.803-1.523.345-.198.696-.388c1.478-.813 2.874-1.767 4.242-2.75l.205-.148a30 30 0 0 0 2.268-1.776q.168-.14.34-.277a19 19 0 0 0 1.612-1.467l.403-.402.256-.257.122-.12c.215-.195.215-.195.276-.463h.164c.225-.243.426-.506.631-.767q.154-.195.31-.386c.514-.644.949-1.318 1.35-2.038l.085-.15c.378-.677.664-1.377.917-2.11l.078-.223c.547-1.657.604-3.325.597-5.053l.001-.978v-1.907q-.003-1.113-.001-2.224 0-1.984-.003-3.967l-.002-3.846v-6.418l-.002-1.885v-.962l-.002-.88.001-.47c-.001-.657-.001-.657-.279-1.245-.289-.238-.694-.2-1.053-.213l-.218-.01-.692-.028-.451-.02-.902-.037-.225-.01-.441-.018a26 26 0 0 1-2.635-.221l-.317-.045c-3.602-.51-7.462-1.406-10.247-3.898l-.172-.151c-.4-.375-.71-.8-1.015-1.253-.315-.463-.315-.463-.808-.682-.58.11-.874.67-1.192 1.118" fill="#262C67"/>
  <path d="M128.426 78.638c.367.11.507.256.717.573 1.926 2.752 5.422 3.816 8.586 4.397 1.968.34 3.942.462 5.935.534l.219.008.408.014c.595.025.596.025.827.2.153.25.183.438.183.728l.001.245-.001.269.001.285v.786l.001.847v1.66l-.001 1.352.001.194v.39l-.001 3.666v3.14l.001 3.65-.001.39v.193l.001 1.347-.001 1.645v.838c.002 1.413-.013 2.744-.441 4.103l-.075.243c-.23.712-.531 1.361-.896 2.012l-.14.26c-.357.644-.788 1.217-1.251 1.786l-.108.133c-.984 1.213-2.095 2.344-3.329 3.303l-.45.383c-2.788 2.318-6.019 4.178-9.28 5.748l-.165.08a1.6 1.6 0 0 1-.823.17l-.003-13.007v-.194l-.001-4.18v-2.256l-.003-13.415v-1.15l-.002-6.101V79.44l-.002-.22c.002-.49.002-.49.093-.582" fill="#00AEEF"/>
  <path d="m195.027 162.501.3.1c1.118.398 2.04 1.041 2.891 1.864l.164.14c1.281 1.144 1.924 2.992 2.071 4.656.07 2.158-.865 4.121-2.317 5.677-1.453 1.368-3.285 2.264-5.303 2.245l-.282-.002c-1.604-.033-2.997-.663-4.233-1.67l-.208-.168c-1.396-1.186-2.429-2.995-2.656-4.823-.136-2.213.407-4.162 1.872-5.862 1.882-2.107 4.972-3.072 7.701-2.157M68.49 163.724q.189.163.373.332l.203.18c.97.909 1.575 2.01 2.006 3.257l.09.249c.538 1.842.14 3.833-.74 5.487-1.024 1.825-2.765 3.186-4.76 3.78-2 .503-3.897.043-5.63-.984a7 7 0 0 1-1.07-.842l-.21-.19c-1.417-1.343-2.306-3.192-2.363-5.146-.02-2.149.75-3.924 2.247-5.464 2.647-2.614 6.896-2.939 9.854-.659m64.14 22.367c1.561 1.246 2.647 2.899 2.997 4.883.15 2.29-.329 4.299-1.846 6.078-1.267 1.417-2.905 2.549-4.862 2.689-1.998.092-3.647-.61-5.156-1.909-1.486-1.38-2.534-3.285-2.65-5.334-.066-2.092.61-3.883 1.996-5.451l.144-.169c2.404-2.615 6.572-2.807 9.377-.787" fill="#fff"/>
</svg>