<svg width="256" height="256" viewBox="0 0 256 256" fill="none" xmlns="http://www.w3.org/2000/svg">
<path d="M196 0H60C26.8629 0 0 26.8629 0 60V196C0 229.137 26.8629 256 60 256H196C229.137 256 256 229.137 256 196V60C256 26.8629 229.137 0 196 0Z" fill="#F4F2ED"/>
<path d="M186.477 169.326C186.477 169.225 186.477 169.133 186.477 169.031C186.477 168.998 186.477 168.964 186.477 168.93C186.477 168.399 186.46 167.876 186.426 167.361C186.401 166.805 186.367 166.257 186.308 165.708C186.292 165.481 186.266 165.261 186.241 165.034C186.19 164.486 186.114 163.937 186.022 163.398C185.946 162.849 185.845 162.31 185.735 161.778C185.693 161.551 185.642 161.323 185.592 161.095C185.482 160.555 185.347 160.024 185.212 159.493C185.077 158.961 184.925 158.439 184.765 157.916C184.605 157.393 184.436 156.878 184.251 156.364C184.166 156.136 184.09 155.908 183.998 155.681C183.812 155.166 183.601 154.66 183.39 154.163C183.18 153.657 182.96 153.159 182.716 152.67C182.64 152.501 182.555 152.333 182.471 152.164L147.969 104.395C147.539 103.796 147.673 102.953 148.272 102.523C148.871 102.093 149.714 102.228 150.145 102.826L159.514 115.806C159.557 115.722 159.607 115.637 159.649 115.553C159.717 115.435 159.776 115.317 159.843 115.199C159.911 115.081 159.97 114.963 160.037 114.845C160.105 114.727 160.164 114.608 160.231 114.49C160.299 114.372 160.358 114.254 160.425 114.136C160.493 114.018 160.552 113.9 160.619 113.782C160.687 113.664 160.746 113.546 160.813 113.428C160.881 113.31 160.94 113.192 161.007 113.073C161.075 112.955 161.134 112.837 161.201 112.719C161.269 112.601 161.328 112.483 161.395 112.365C161.463 112.247 161.522 112.129 161.589 112.011C161.657 111.893 161.716 111.775 161.783 111.657C161.851 111.539 161.91 111.42 161.977 111.302C162.045 111.184 162.104 111.066 162.171 110.948C162.239 110.83 162.298 110.712 162.365 110.594C162.433 110.476 162.492 110.358 162.559 110.24C162.627 110.122 162.686 110.004 162.753 109.886C162.82 109.767 162.88 109.649 162.947 109.531C163.014 109.413 163.073 109.295 163.141 109.177C163.208 109.059 163.267 108.941 163.335 108.823C163.402 108.705 163.461 108.587 163.529 108.469C163.596 108.351 163.655 108.233 163.723 108.114C163.79 107.996 163.849 107.878 163.917 107.76C163.984 107.642 164.043 107.524 164.111 107.406C164.178 107.288 164.237 107.17 164.305 107.052C164.372 106.934 164.431 106.816 164.499 106.698C164.566 106.58 164.625 106.461 164.693 106.343C164.76 106.225 164.819 106.107 164.887 105.989C164.954 105.871 165.013 105.753 165.081 105.635C165.148 105.517 165.207 105.399 165.275 105.281C165.342 105.163 165.401 105.045 165.469 104.926C165.536 104.808 165.595 104.69 165.663 104.572C165.73 104.454 165.789 104.336 165.857 104.218C165.924 104.1 165.983 103.982 166.051 103.864C166.118 103.746 166.177 103.628 166.245 103.51C166.312 103.392 166.371 103.273 166.439 103.155C166.506 103.037 166.565 102.919 166.633 102.801C166.7 102.683 166.759 102.565 166.827 102.447C166.894 102.329 166.953 102.211 167.02 102.093C167.088 101.975 167.147 101.857 167.214 101.739C167.282 101.62 167.341 101.502 167.408 101.384C167.476 101.266 167.535 101.148 167.602 101.03C167.67 100.912 167.729 100.794 167.796 100.676C167.864 100.558 167.923 100.44 167.99 100.322C168.058 100.204 168.117 100.086 168.184 99.9675C168.252 99.8494 168.311 99.7313 168.378 99.6133C168.446 99.4952 168.505 99.3771 168.572 99.259C168.64 99.141 168.699 99.0229 168.766 98.9048C168.834 98.7867 168.893 98.6687 168.96 98.5506C169.028 98.4325 169.087 98.3145 169.154 98.1964C169.222 98.0783 169.281 97.9602 169.348 97.8422C169.416 97.7241 169.475 97.606 169.542 97.4879C169.61 97.3699 169.669 97.2518 169.736 97.1337C169.804 97.0157 169.863 96.8976 169.93 96.7795C169.998 96.6614 170.057 96.5434 170.124 96.4253C170.192 96.3072 170.251 96.1892 170.318 96.0711C170.386 95.953 170.445 95.8349 170.512 95.7169C170.58 95.5988 170.639 95.4807 170.706 95.3626C170.773 95.2446 170.833 95.1265 170.9 95.0084C170.967 94.8904 171.027 94.7723 171.094 94.6542C171.161 94.5361 171.22 94.4181 171.288 94.3C171.355 94.1819 171.414 94.0639 171.482 93.9458C171.549 93.8277 171.608 93.7096 171.676 93.5916C171.743 93.4735 171.802 93.3554 171.87 93.2374C171.937 93.1193 171.996 93.0012 172.064 92.8831C172.131 92.7651 172.19 92.647 172.258 92.5289C172.325 92.4108 172.384 92.2928 172.452 92.1747C172.519 92.0566 172.578 91.9386 172.646 91.8205C172.713 91.7024 172.772 91.5843 172.84 91.4663C172.907 91.3482 172.966 91.2301 173.034 91.112C173.101 90.994 173.16 90.8759 173.228 90.7578C173.295 90.6398 173.354 90.5217 173.422 90.4036C173.489 90.2855 173.548 90.1675 173.616 90.0494C173.683 89.9313 173.742 89.8132 173.81 89.6952C173.877 89.5771 173.936 89.459 174.004 89.341C174.071 89.2229 174.13 89.1048 174.198 88.9867C174.265 88.8687 174.324 88.7506 174.392 88.6325C174.459 88.5145 174.518 88.3964 174.586 88.2783C174.653 88.1602 174.712 88.0422 174.78 87.9241C174.847 87.806 174.906 87.688 174.973 87.5699C175.041 87.4518 175.1 87.3337 175.167 87.2157C175.235 87.0976 175.294 86.9795 175.361 86.8614C175.429 86.7434 175.488 86.6253 175.555 86.5072C175.623 86.3892 175.682 86.2711 175.749 86.153C175.817 86.0349 175.876 85.9169 175.943 85.7988C176.011 85.6807 176.07 85.5626 176.137 85.4446C176.205 85.3265 176.264 85.2084 176.331 85.0904C176.399 84.9723 176.458 84.8542 176.525 84.7361C176.593 84.6181 176.652 84.5 176.719 84.3819C176.787 84.2639 176.846 84.1458 176.913 84.0277C176.981 83.9096 177.04 83.7916 177.107 83.6735C177.175 83.5554 177.234 83.4374 177.301 83.3193C177.369 83.2012 177.428 83.0831 177.495 82.9651C177.563 82.8386 177.63 82.712 177.698 82.5855C177.951 82.1301 178.187 81.6747 178.414 81.2024C178.524 80.9747 178.634 80.747 178.743 80.5193C178.98 80.0301 179.199 79.5325 179.41 79.0265C179.629 78.5289 179.823 78.0229 180.008 77.5C180.202 76.9855 180.388 76.4711 180.548 75.9482C180.624 75.7205 180.7 75.4843 180.767 75.2566C180.928 74.7337 181.08 74.2108 181.214 73.6795C181.358 73.1482 181.484 72.6169 181.594 72.0771C181.645 71.8494 181.687 71.6217 181.737 71.3855C181.847 70.8542 181.94 70.306 182.016 69.7663C182.1 69.2265 182.176 68.6783 182.227 68.1217C182.252 67.894 182.269 67.6663 182.294 67.4386C182.353 66.8904 182.387 66.3422 182.404 65.7855C182.429 65.2795 182.446 64.7735 182.446 64.2675C182.446 64.2169 182.446 64.1663 182.446 64.1157C182.446 64.0313 182.446 63.9554 182.446 63.8711C182.446 63.3904 182.429 62.9181 182.412 62.4458C182.412 62.2265 182.395 62.0072 182.378 61.7795C182.353 61.2229 182.311 60.6747 182.252 60.1349C182.201 59.5867 182.134 59.047 182.058 58.5072C182.024 58.288 181.999 58.0771 181.957 57.8578C181.872 57.3181 181.78 56.7867 181.67 56.2639C181.569 55.7325 181.451 55.2096 181.316 54.6952C181.265 54.4843 181.214 54.2735 181.155 54.0711C181.02 53.5566 180.877 53.0422 180.717 52.5361C180.565 52.0301 180.396 51.5241 180.219 51.0265C180.152 50.8241 180.076 50.6217 180 50.4277C179.823 49.9301 179.629 49.441 179.418 48.9602C179.216 48.4711 179.005 47.9904 178.777 47.5181C178.684 47.3241 178.6 47.1301 178.499 46.9446C178.271 46.4723 178.035 46.0084 177.782 45.553C177.537 45.0892 177.284 44.6337 177.014 44.1952C176.905 44.0096 176.795 43.8325 176.686 43.647C176.416 43.2 176.137 42.7614 175.842 42.3313C175.724 42.1542 175.606 41.9771 175.48 41.8084C175.184 41.3783 174.881 40.9566 174.569 40.5434C174.257 40.1217 173.936 39.7169 173.607 39.3205C173.472 39.1518 173.337 38.9916 173.202 38.8313C172.873 38.4265 172.528 38.0386 172.173 37.659C171.828 37.2711 171.465 36.8916 171.094 36.5289C170.942 36.3771 170.79 36.2253 170.639 36.0819C170.267 35.7108 169.888 35.3566 169.5 35.0108C169.12 34.6566 168.724 34.3193 168.319 33.9904C168.159 33.8554 167.99 33.7205 167.822 33.5855C167.417 33.2566 167.004 32.9361 166.582 32.6241C166.169 32.312 165.739 32.0084 165.3 31.7133C164.87 31.4181 164.431 31.1229 163.984 30.853C163.799 30.7349 163.613 30.6253 163.428 30.5157C162.981 30.2373 162.525 29.9759 162.061 29.7313C161.598 29.4783 161.134 29.2253 160.653 28.9976C160.459 28.8964 160.257 28.8036 160.063 28.7108C159.59 28.4831 159.101 28.2639 158.612 28.0614C158.123 27.8506 157.634 27.6482 157.128 27.4711C156.917 27.3952 156.714 27.3193 156.504 27.2434C156.006 27.0578 155.492 26.8892 154.977 26.7373C154.463 26.5771 153.948 26.4253 153.425 26.2904C153.206 26.2313 152.987 26.1723 152.767 26.1217C152.245 25.9867 151.713 25.8687 151.173 25.7675C150.642 25.6578 150.102 25.5566 149.554 25.4807C149.014 25.3964 148.466 25.312 147.918 25.2614C147.69 25.2361 147.454 25.2108 147.227 25.1855C146.678 25.1265 146.122 25.0843 145.557 25.059C145.017 25.0253 144.477 25.0084 143.929 25.0084C143.912 25.0084 143.887 25.0084 143.87 25.0084C143.752 25.0084 143.634 25 143.516 25C143.398 25 143.28 25 143.153 25.0084C143.136 25.0084 143.111 25.0084 143.094 25.0084C142.546 25.0084 141.998 25.0337 141.458 25.059C140.893 25.0843 140.336 25.1265 139.78 25.1855C139.535 25.2108 139.29 25.2361 139.046 25.2614C138.489 25.3205 137.933 25.3964 137.384 25.4892C136.828 25.5735 136.28 25.6663 135.74 25.7843C135.537 25.8265 135.343 25.8602 135.141 25.9108C135.006 25.9361 134.88 25.9699 134.745 25.9952C134.61 26.0205 134.483 26.0542 134.357 26.0795C134.222 26.1048 134.095 26.1386 133.969 26.1639C133.834 26.1892 133.707 26.2229 133.581 26.2482C133.446 26.2735 133.319 26.3072 133.193 26.3325C133.058 26.3578 132.931 26.3916 132.805 26.4169C132.67 26.4422 132.543 26.4759 132.417 26.5012C132.282 26.5265 132.155 26.5602 132.029 26.5855C131.894 26.6108 131.767 26.6446 131.641 26.6699C131.506 26.6952 131.38 26.7289 131.253 26.7542C131.118 26.7795 130.992 26.8133 130.865 26.8386C130.73 26.8639 130.604 26.8976 130.477 26.9229C130.342 26.9482 130.216 26.9819 130.089 27.0072C129.954 27.0325 129.828 27.0663 129.701 27.0916C129.566 27.1169 129.44 27.1506 129.313 27.1759C129.178 27.2012 129.052 27.2349 128.925 27.2602C128.79 27.2855 128.664 27.3193 128.537 27.3446C128.402 27.3699 128.276 27.4036 128.149 27.4289C128.014 27.4542 127.888 27.488 127.761 27.5133C127.627 27.5386 127.5 27.5723 127.373 27.5976C127.239 27.6229 127.112 27.6566 126.986 27.6819C126.851 27.7072 126.724 27.741 126.598 27.7663C126.463 27.7916 126.336 27.8253 126.21 27.8506C126.075 27.8759 125.948 27.9096 125.822 27.9349C125.687 27.9602 125.56 27.994 125.434 28.0193C125.299 28.0446 125.172 28.0783 125.046 28.1036C124.911 28.1289 124.784 28.1627 124.658 28.188C124.523 28.2133 124.396 28.247 124.27 28.2723C124.135 28.2976 124.008 28.3313 123.882 28.3566C123.747 28.3819 123.62 28.4157 123.494 28.441C123.359 28.4663 123.233 28.5 123.106 28.5253C122.971 28.5506 122.845 28.5843 122.718 28.6096C122.583 28.6349 122.457 28.6687 122.33 28.694C122.195 28.7193 122.069 28.753 121.942 28.7783C121.807 28.8036 121.681 28.8373 121.554 28.8627C121.419 28.888 121.293 28.9217 121.166 28.947C121.031 28.9723 120.905 29.006 120.778 29.0313C120.643 29.0566 120.517 29.0904 120.39 29.1157C120.255 29.141 120.129 29.1747 120.002 29.2C119.867 29.2253 119.741 29.259 119.614 29.2843C119.48 29.3096 119.353 29.3434 119.227 29.3687C119.092 29.394 118.965 29.4277 118.839 29.453C118.704 29.4783 118.577 29.512 118.451 29.5373C118.316 29.5627 118.189 29.5964 118.063 29.6217C117.928 29.647 117.801 29.6807 117.675 29.706C117.54 29.7313 117.413 29.7651 117.287 29.7904C117.152 29.8157 117.025 29.8494 116.899 29.8747C116.764 29.9 116.637 29.9337 116.511 29.959C116.376 29.9843 116.249 30.0181 116.123 30.0434C115.988 30.0687 115.861 30.1024 115.735 30.1277C115.6 30.153 115.473 30.1867 115.347 30.212C115.212 30.2373 115.086 30.2711 114.959 30.2964C114.824 30.3217 114.698 30.3554 114.571 30.3807C114.436 30.406 114.31 30.4398 114.183 30.4651C114.048 30.4904 113.922 30.5241 113.795 30.5494C113.66 30.5747 113.534 30.6084 113.407 30.6337C113.272 30.659 113.146 30.6928 113.019 30.7181C112.884 30.7434 112.758 30.7771 112.631 30.8024C112.496 30.8277 112.37 30.8614 112.243 30.8867C112.108 30.912 111.982 30.9458 111.855 30.9711C111.72 30.9964 111.594 31.0301 111.467 31.0554C111.333 31.0807 111.206 31.1145 111.08 31.1398C110.945 31.1651 110.818 31.1988 110.692 31.2241C110.557 31.2494 110.43 31.2831 110.304 31.3084C110.169 31.3337 110.042 31.3675 109.916 31.3928C109.781 31.4181 109.654 31.4518 109.528 31.4771C109.393 31.5024 109.266 31.5361 109.14 31.5614C109.005 31.5867 108.878 31.6205 108.752 31.6458C108.617 31.6711 108.49 31.7048 108.364 31.7301C108.229 31.7554 108.102 31.7892 107.976 31.8145C107.841 31.8398 107.714 31.8735 107.588 31.8988C107.453 31.9241 107.327 31.9578 107.2 31.9831C107.065 32.0084 106.939 32.0422 106.812 32.0675C106.677 32.0928 106.551 32.1265 106.424 32.1518C106.281 32.1771 106.146 32.2108 106.002 32.2446C105.48 32.3542 104.965 32.4723 104.451 32.6072C103.919 32.7422 103.396 32.8855 102.882 33.0458C102.663 33.1133 102.435 33.1807 102.216 33.2566C101.701 33.4169 101.187 33.594 100.689 33.7795C100.183 33.9651 99.6855 34.159 99.188 34.3699C98.9771 34.4542 98.7663 34.547 98.5554 34.6398C98.0578 34.8506 97.5771 35.0783 97.0964 35.3145C96.6157 35.5422 96.1434 35.7867 95.6711 36.0398C95.1988 36.2928 94.7349 36.5458 94.2795 36.8241C94.0855 36.9422 93.8916 37.0518 93.6976 37.1783C93.2422 37.4482 92.7952 37.7434 92.3651 38.0386C91.9265 38.3337 91.488 38.6374 91.0663 38.9494C90.8807 39.0843 90.7036 39.2193 90.5265 39.3542C90.1048 39.6663 89.6916 39.9952 89.2867 40.341C88.8819 40.6699 88.4771 41.0157 88.0892 41.3699C87.9205 41.5217 87.7602 41.6651 87.5916 41.8253C87.2036 42.1795 86.8241 42.5506 86.453 42.9217C86.0819 43.2928 85.7193 43.6723 85.3651 44.0602C85.0108 44.4482 84.6566 44.8361 84.3193 45.2494C84.1759 45.4181 84.0325 45.5867 83.8892 45.7639C83.5518 46.1687 83.2313 46.5819 82.9193 47.0036C82.5988 47.4253 82.2952 47.847 82 48.2855C81.8735 48.4711 81.747 48.6482 81.6289 48.8337C81.3337 49.2723 81.0554 49.7193 80.7771 50.1663C80.4988 50.6133 80.2373 51.0687 79.9843 51.541C79.8747 51.7349 79.7735 51.9289 79.6639 52.1313C79.4108 52.5952 79.1747 53.0675 78.947 53.5482C78.7108 54.0205 78.4916 54.5096 78.2892 54.9988C78.1964 55.2012 78.112 55.412 78.0277 55.6145C77.8169 56.1036 77.6313 56.6012 77.4542 57.1072C77.2687 57.6048 77.0916 58.1108 76.9398 58.6253C76.7711 59.1398 76.6193 59.6542 76.4843 60.1771C76.4253 60.3964 76.3663 60.6072 76.3157 60.8265C76.1807 61.3494 76.0542 61.8723 75.953 62.412C75.8349 62.9434 75.7337 63.4747 75.6578 64.0229C75.6241 64.2506 75.5819 64.4699 75.5566 64.6976C75.4723 65.2373 75.4048 65.7855 75.3542 66.3337C75.2952 66.8819 75.2446 67.4386 75.2193 67.9952C75.2024 68.2229 75.194 68.459 75.1855 68.6867C75.1602 69.1759 75.1434 69.6735 75.1434 70.1711C75.1434 70.2301 75.1434 70.2807 75.1434 70.3313C75.1434 70.4157 75.1434 70.4916 75.1434 70.5759C75.1434 70.6434 75.1434 70.7108 75.1434 70.7783C75.1434 70.8458 75.1434 70.9133 75.1434 70.9807C75.1434 71.0482 75.1434 71.1157 75.1434 71.1831C75.1434 71.2506 75.1434 71.3181 75.1434 71.3855C75.1434 71.453 75.1434 71.5205 75.1434 71.588C75.1434 71.6554 75.1434 71.7229 75.1434 71.7904C75.1434 71.8578 75.1434 71.9253 75.1434 71.9928C75.1434 72.0602 75.1434 72.1277 75.1434 72.1952C75.1434 72.2626 75.1434 72.3301 75.1434 72.3976C75.1434 72.4651 75.1434 72.5325 75.1434 72.6C75.1434 72.6675 75.1434 72.7349 75.1434 72.8024C75.1434 72.8699 75.1434 72.9374 75.1434 73.0048C75.1434 73.0723 75.1434 73.1398 75.1434 73.2072C75.1434 73.2747 75.1434 73.3422 75.1434 73.4096C75.1434 73.4771 75.1434 73.5446 75.1434 73.612C75.1434 73.6795 75.1434 73.747 75.1434 73.8145C75.1434 73.8819 75.1434 73.9494 75.1434 74.0169C75.1434 74.0843 75.1434 74.1518 75.1434 74.2193C75.1434 74.2867 75.1434 74.3542 75.1434 74.4217C75.1434 74.4892 75.1434 74.5566 75.1434 74.6241C75.1434 74.6916 75.1434 74.759 75.1434 74.8265C75.1434 74.894 75.1434 74.9614 75.1434 75.0289C75.1434 75.0964 75.1434 75.1639 75.1434 75.2313C75.1434 75.2988 75.1434 75.3663 75.1434 75.4337C75.1434 75.5012 75.1434 75.5687 75.1434 75.6361C75.1434 75.7036 75.1434 75.7711 75.1434 75.8386C75.1434 75.906 75.1434 75.9735 75.1434 76.041C75.1434 76.1084 75.1434 76.1759 75.1434 76.2434C75.1434 76.3108 75.1434 76.3783 75.1434 76.4458C75.1434 76.5133 75.1434 76.5807 75.1434 76.6482C75.1434 76.7157 75.1434 76.7831 75.1434 76.8506C75.1434 76.9181 75.1434 76.9855 75.1434 77.053C75.1434 77.1205 75.1434 77.188 75.1434 77.2554C75.1434 77.3229 75.1434 77.3904 75.1434 77.4578C75.1434 77.5253 75.1434 77.5928 75.1434 77.6602C75.1434 77.7277 75.1434 77.7952 75.1434 77.8626C75.1434 77.9301 75.1434 77.9976 75.1434 78.0651C75.1434 78.1325 75.1434 78.2 75.1434 78.2675C75.1434 78.3349 75.1434 78.4024 75.1434 78.4699C75.1434 78.5373 75.1434 78.6048 75.1434 78.6723C75.1434 78.7398 75.1434 78.8072 75.1434 78.8747C75.1434 78.9422 75.1434 79.0096 75.1434 79.0771C75.1434 79.1446 75.1434 79.212 75.1434 79.2795C75.1434 79.347 75.1434 79.4145 75.1434 79.4819C75.1434 79.5494 75.1434 79.6169 75.1434 79.6843C75.1434 79.7518 75.1434 79.8193 75.1434 79.8867C75.1434 79.9542 75.1434 80.0217 75.1434 80.0892C75.1434 80.1566 75.1434 80.2241 75.1434 80.2916C75.1434 80.359 75.1434 80.4265 75.1434 80.494C75.1434 80.5614 75.1434 80.6289 75.1434 80.6964C75.1434 80.7639 75.1434 80.8313 75.1434 80.8988C75.1434 80.9663 75.1434 81.0337 75.1434 81.1012C75.1434 81.1687 75.1434 81.2361 75.1434 81.3036C75.1434 81.3711 75.1434 81.4386 75.1434 81.506C75.1434 81.5735 75.1434 81.641 75.1434 81.7084C75.1434 81.7759 75.1434 81.8434 75.1434 81.9108C75.1434 81.9783 75.1434 82.0458 75.1434 82.1133C75.1434 82.1807 75.1434 82.2482 75.1434 82.3157C75.1434 82.3831 75.1434 82.4506 75.1434 82.5181C75.1434 82.5855 75.1434 82.653 75.1434 82.7205C75.1434 82.788 75.1434 82.8554 75.1434 82.9229C75.1434 82.9904 75.1434 83.0578 75.1434 83.1253C75.1434 83.1928 75.1434 83.2602 75.1434 83.3277C75.1434 83.3952 75.1434 83.4627 75.1434 83.5301C75.1434 83.5976 75.1434 83.6651 75.1434 83.7325C75.1434 83.8 75.1434 83.8675 75.1434 83.9349C75.1434 84.0024 75.1434 84.0699 75.1434 84.1374C75.1434 84.2048 75.1434 84.2723 75.1434 84.3398C75.1434 84.4072 75.1434 84.4747 75.1434 84.5422C75.1434 84.6096 75.1434 84.6771 75.1434 84.7446C75.1434 84.812 75.1434 84.8795 75.1434 84.947C75.1434 85.0145 75.1434 85.0819 75.1434 85.1494C75.1434 85.2169 75.1434 85.2843 75.1434 85.3518C75.1434 85.4193 75.1434 85.4867 75.1434 85.5542C75.1434 85.6217 75.1434 85.6892 75.1434 85.7566C75.1434 85.8241 75.1434 85.8916 75.1434 85.959C75.1434 86.0265 75.1434 86.094 75.1434 86.1614C75.1434 86.2289 75.1434 86.2964 75.1434 86.3639C75.1434 86.4313 75.1434 86.4988 75.1434 86.5663C75.1434 86.6337 75.1434 86.7012 75.1434 86.7687C75.1434 86.8361 75.1434 86.9036 75.1434 86.9711C75.1434 87.0386 75.1434 87.106 75.1434 87.1735C75.1434 87.241 75.1434 87.3084 75.1434 87.3759C75.1434 87.4434 75.1434 87.5108 75.1434 87.5783C75.1434 87.6458 75.1434 87.7133 75.1434 87.7807C75.1434 87.8482 75.1434 87.9157 75.1434 87.9831C75.1434 88.0506 75.1434 88.1181 75.1434 88.1855C75.1434 88.253 75.1434 88.3205 75.1434 88.388C75.1434 88.4554 75.1434 88.5229 75.1434 88.5904C75.1434 88.6578 75.1434 88.7253 75.1434 88.7928C75.1434 88.8602 75.1434 88.9277 75.1434 88.9952C75.1434 89.0626 75.1434 89.1301 75.1434 89.1976C75.1434 89.2651 75.1434 89.3325 75.1434 89.4C75.1434 89.4675 75.1434 89.5349 75.1434 89.6024C75.1434 89.6699 75.1434 89.7374 75.1434 89.8048C75.1434 89.8723 75.1434 89.9398 75.1434 90.0072C75.1434 90.0747 75.1434 90.1422 75.1434 90.2096C75.1434 90.2771 75.1434 90.3446 75.1434 90.412C75.1434 90.4795 75.1434 90.547 75.1434 90.6145C75.1434 90.6819 75.1434 90.7494 75.1434 90.8169C75.1434 90.8843 75.1434 90.9518 75.1434 91.0193C75.1434 91.0867 75.1434 91.1542 75.1434 91.2217C75.1434 91.2892 75.1434 91.3566 75.1434 91.4241C75.1434 91.4916 75.1434 91.559 75.1434 91.6265C75.1434 91.694 75.1434 91.7614 75.1434 91.8289C75.1434 91.8964 75.1434 91.9639 75.1434 92.0313C75.1434 92.0988 75.1434 92.1663 75.1434 92.2337C75.1434 92.3012 75.1434 92.3687 75.1434 92.4361C75.1434 92.5036 75.1434 92.5711 75.1434 92.6385C75.1434 92.706 75.1434 92.7735 75.1434 92.841C75.1434 92.9084 75.1434 92.9759 75.1434 93.0434C75.1434 93.1108 75.1434 93.1783 75.1434 93.2458C75.1434 93.3132 75.1434 93.3807 75.1434 93.4482C75.1434 93.5157 75.1434 93.5831 75.1434 93.6506C75.1434 93.7181 75.1434 93.7855 75.1434 93.853C75.1434 93.9205 75.1434 93.9879 75.1434 94.0554C75.1434 94.1229 75.1434 94.1904 75.1434 94.2578C75.1434 94.3253 75.1434 94.3928 75.1434 94.4602C75.1434 94.5277 75.1434 94.5952 75.1434 94.6627C75.1434 94.7301 75.1434 94.7976 75.1434 94.8651C75.1434 94.9325 75.1434 95 75.1434 95.0675C75.1434 95.1349 75.1434 95.2024 75.1434 95.2699C75.1434 95.3373 75.1434 95.4048 75.1434 95.4723C75.1434 95.5398 75.1434 95.6072 75.1434 95.6747C75.1434 95.7422 75.1434 95.8096 75.1434 95.8771C75.1434 95.9446 75.1434 96.012 75.1434 96.0795C75.1434 96.147 75.1434 96.2145 75.1434 96.2819C75.1434 96.3494 75.1434 96.4169 75.1434 96.4843C75.1434 96.5518 75.1434 96.6193 75.1434 96.6867C75.1434 96.7542 75.1434 96.8217 75.1434 96.8892C75.1434 96.9566 75.1434 97.0241 75.1434 97.0916C75.1434 97.159 75.1434 97.2265 75.1434 97.294C75.1434 97.3614 75.1434 97.4289 75.1434 97.4964C75.1434 97.5639 75.1434 97.6313 75.1434 97.6988C75.1434 97.7663 75.1434 97.8337 75.1434 97.9012C75.1434 97.9687 75.1434 98.0361 75.1434 98.1036C75.1434 98.1711 75.1434 98.2385 75.1434 98.306C75.1434 98.3735 75.1434 98.441 75.1434 98.5084C75.1434 98.5759 75.1434 98.6434 75.1434 98.7108C75.1434 98.7783 75.1434 98.8458 75.1434 98.9133C75.1434 98.9807 75.1434 99.0482 75.1434 99.1157C75.1434 99.1831 75.1434 99.2506 75.1434 99.3181C75.1434 99.3855 75.1434 99.453 75.1434 99.5205C75.1434 99.588 75.1434 99.6554 75.1434 99.7229C75.1434 99.7904 75.1434 99.8578 75.1434 99.9253C75.1434 99.9928 75.1434 100.06 75.1434 100.128C75.1434 100.195 75.1434 100.263 75.1434 100.33C75.1434 100.398 75.1434 100.465 75.1434 100.533C75.1434 100.6 75.1434 100.667 75.1434 100.735C75.1434 100.802 75.1434 100.87 75.1434 100.937C75.1434 101.005 75.1434 101.072 75.1434 101.14C75.1434 101.207 75.1434 101.275 75.1434 101.342C75.1434 101.41 75.1434 101.477 75.1434 101.545C75.1434 101.612 75.1434 101.68 75.1434 101.747C75.1434 101.814 75.1434 101.882 75.1434 101.949C75.1434 102.017 75.1434 102.084 75.1434 102.152C75.1434 102.219 75.1434 102.287 75.1434 102.354C75.1434 102.422 75.1434 102.489 75.1434 102.557C75.1434 102.624 75.1434 102.692 75.1434 102.759C75.1434 102.826 75.1434 102.894 75.1434 102.961C75.1434 103.029 75.1434 103.096 75.1434 103.164C75.1434 103.231 75.1434 103.299 75.1434 103.366C75.1434 103.434 75.1434 103.501 75.1434 103.569C75.1434 103.636 75.1434 103.704 75.1434 103.771C75.1434 103.839 75.1434 103.906 75.1434 103.973C75.1434 104.041 75.1434 104.108 75.1434 104.176C75.1434 104.243 75.1434 104.311 75.1434 104.378C75.1434 104.446 75.1434 104.513 75.1434 104.581C75.1434 104.648 75.1434 104.716 75.1434 104.783C75.1434 104.851 75.1434 104.918 75.1434 104.986C75.1434 105.053 75.1434 105.12 75.1434 105.188C75.1434 105.255 75.1434 105.323 75.1434 105.39C75.1434 105.458 75.1434 105.525 75.1434 105.593C75.1434 105.66 75.1434 105.728 75.1434 105.795C75.1434 105.863 75.1434 105.93 75.1434 105.998C75.1434 106.065 75.1434 106.133 75.1434 106.2C75.1434 106.267 75.1434 106.335 75.1434 106.402C75.1434 106.47 75.1434 106.537 75.1434 106.605C75.1434 106.672 75.1434 106.74 75.1434 106.807C75.1434 106.875 75.1434 106.942 75.1434 107.01C75.1434 107.077 75.1434 107.145 75.1434 107.212C75.1434 107.28 75.1434 107.347 75.1434 107.414C75.1434 107.482 75.1434 107.549 75.1434 107.617C75.1434 107.684 75.1434 107.752 75.1434 107.819C75.1434 107.887 75.1434 107.954 75.1434 108.022C75.1434 108.089 75.1434 108.157 75.1434 108.224C75.1434 108.292 75.1434 108.359 75.1434 108.427C75.1434 108.494 75.1434 108.561 75.1434 108.629C75.1434 108.696 75.1434 108.764 75.1434 108.831C75.1434 108.899 75.1434 108.966 75.1434 109.034C75.1434 109.101 75.1434 109.169 75.1434 109.236C75.1434 109.304 75.1434 109.371 75.1434 109.439C75.1434 109.506 75.1434 109.573 75.1434 109.641C75.1434 109.708 75.1434 109.776 75.1434 109.843C75.1434 109.911 75.1434 109.978 75.1434 110.046C75.1434 110.113 75.1434 110.181 75.1434 110.248C75.1434 110.316 75.1434 110.383 75.1434 110.451C75.1434 110.518 75.1434 110.586 75.1434 110.653C75.1434 110.72 75.1434 110.788 75.1434 110.855C75.1434 110.923 75.1434 110.99 75.1434 111.058C75.1434 111.125 75.1434 111.193 75.1434 111.26C75.1434 111.328 75.1434 111.395 75.1434 111.463C75.1434 111.53 75.1434 111.598 75.1434 111.665C75.1434 111.733 75.1434 111.8 75.1434 111.867C75.1434 111.935 75.1434 112.002 75.1434 112.07C75.1434 112.137 75.1434 112.205 75.1434 112.272C75.1434 112.34 75.1434 112.407 75.1434 112.475C75.1434 112.542 75.1434 112.61 75.1434 112.677C75.1434 112.745 75.1434 112.812 75.1434 112.88C75.1434 112.947 75.1434 113.014 75.1434 113.082C75.1434 113.149 75.1434 113.217 75.1434 113.284C75.1434 113.352 75.1434 113.419 75.1434 113.487C75.1434 113.554 75.1434 113.622 75.1434 113.689C75.1434 113.757 75.1434 113.824 75.1434 113.892C75.1434 113.959 75.1434 114.027 75.1434 114.094C75.1434 114.161 75.1434 114.229 75.1434 114.296C75.1434 114.364 75.1434 114.431 75.1434 114.499C75.1434 114.566 75.1434 114.634 75.1434 114.701C75.1434 114.769 75.1434 114.836 75.1434 114.904C75.1434 114.971 75.1434 115.039 75.1434 115.106C75.1434 115.173 75.1434 115.241 75.1434 115.308C75.1434 115.376 75.1434 115.443 75.1434 115.511C75.1434 115.578 75.1434 115.646 75.1434 115.713C75.1434 115.781 75.1434 115.848 75.1434 115.916C75.1434 115.983 75.1434 116.051 75.1434 116.118C75.1434 116.186 75.1434 116.253 75.1434 116.32C75.1434 116.388 75.1434 116.455 75.1434 116.523C75.1434 116.59 75.1434 116.658 75.1434 116.725C75.1434 116.793 75.1434 116.86 75.1434 116.928C75.1434 116.995 75.1434 117.063 75.1434 117.13C75.1434 117.198 75.1434 117.265 75.1434 117.333C75.1434 117.4 75.1434 117.467 75.1434 117.535C75.1434 117.602 75.1434 117.67 75.1434 117.737C75.1434 117.805 75.1434 117.872 75.1434 117.94C75.1434 118.007 75.1434 118.075 75.1434 118.142C75.1434 118.21 75.1434 118.277 75.1434 118.345C75.1434 118.412 75.1434 118.48 75.1434 118.547C75.1434 118.614 75.1434 118.682 75.1434 118.749C75.1434 118.817 75.1434 118.884 75.1434 118.952C75.1434 119.019 75.1434 119.087 75.1434 119.154C75.1434 119.222 75.1434 119.289 75.1434 119.357C75.1434 119.424 75.1434 119.492 75.1434 119.559C75.1434 119.627 75.1434 119.694 75.1434 119.761C75.1434 119.829 75.1434 119.896 75.1434 119.964C75.1434 120.031 75.1434 120.099 75.1434 120.166C75.1434 120.234 75.1434 120.301 75.1434 120.369C75.1434 120.436 75.1434 120.504 75.1434 120.571C75.1434 120.639 75.1434 120.706 75.1434 120.773C75.1434 120.841 75.1434 120.908 75.1434 120.976C75.1434 121.043 75.1434 121.111 75.1434 121.178C75.1434 121.246 75.1434 121.313 75.1434 121.381C75.1434 121.448 75.1434 121.516 75.1434 121.583C75.1434 121.651 75.1434 121.718 75.1434 121.786C75.1434 121.853 75.1434 121.92 75.1434 121.988C75.1434 122.055 75.1434 122.123 75.1434 122.19C75.1434 122.258 75.1434 122.325 75.1434 122.393C75.1434 122.46 75.1434 122.528 75.1434 122.595C75.1434 122.663 75.1434 122.73 75.1434 122.798C75.1434 122.865 75.1434 122.933 75.1434 123C75.1434 123.067 75.1434 123.135 75.1434 123.202C75.1434 123.27 75.1434 123.337 75.1434 123.405C75.1434 123.472 75.1434 123.54 75.1434 123.607C75.1434 123.675 75.1434 123.742 75.1434 123.81C75.1434 123.877 75.1434 123.945 75.1434 124.012C75.1434 124.08 75.1434 124.147 75.1434 124.214C75.1434 124.282 75.1434 124.349 75.1434 124.417C75.1434 124.484 75.1434 124.552 75.1434 124.619C75.1434 124.687 75.1434 124.754 75.1434 124.822C75.1434 124.889 75.1434 124.957 75.1434 125.024C75.1434 125.092 75.1434 125.159 75.1434 125.227C75.1434 125.294 75.1434 125.361 75.1434 125.429C75.1434 125.496 75.1434 125.564 75.1434 125.631C75.1434 125.699 75.1434 125.766 75.1434 125.834C75.1434 125.901 75.1434 125.969 75.1434 126.036C75.1434 126.104 75.1434 126.171 75.1434 126.239C75.1434 126.306 75.1434 126.373 75.1434 126.441C75.1434 126.508 75.1434 126.576 75.1434 126.643C75.1434 126.711 75.1434 126.778 75.1434 126.846C75.1434 126.913 75.1434 126.981 75.1434 127.048C75.1434 127.116 75.1434 127.183 75.1434 127.251C75.1434 127.318 75.1434 127.386 75.1434 127.453C75.1434 127.52 75.1434 127.588 75.1434 127.655C75.1434 127.723 75.1434 127.79 75.1434 127.858C75.1434 127.925 75.1434 127.993 75.1434 128.06C75.1434 128.128 75.1434 128.195 75.1434 128.263C75.1434 128.33 75.1434 128.398 75.1434 128.465C75.1434 128.533 75.1434 128.6 75.1434 128.667C75.1434 128.735 75.1434 128.802 75.1434 128.87C75.1434 128.937 75.1434 129.005 75.1434 129.072C75.1434 129.14 75.1434 129.207 75.1434 129.275C75.1434 129.342 75.1434 129.41 75.1434 129.477C75.1434 129.545 75.1434 129.612 75.1434 129.68C75.1434 129.747 75.1434 129.814 75.1434 129.882C75.1434 129.949 75.1434 130.017 75.1434 130.084C75.1434 130.152 75.1434 130.219 75.1434 130.287C75.1434 130.354 75.1434 130.422 75.1434 130.489C75.1434 130.557 75.1434 130.624 75.1434 130.692C75.1434 130.759 75.1434 130.826 75.1434 130.894C75.1434 130.961 75.1434 131.029 75.1434 131.096C75.1434 131.164 75.1434 131.231 75.1434 131.299C75.1434 131.366 75.1434 131.434 75.1434 131.501C75.1434 131.569 75.1434 131.636 75.1434 131.704C75.1434 131.771 75.1434 131.839 75.1434 131.906C75.1434 131.973 75.1434 132.041 75.1434 132.108C75.1434 132.176 75.1434 132.243 75.1434 132.311C75.1434 132.378 75.1434 132.446 75.1434 132.513C75.1434 132.581 75.1434 132.648 75.1434 132.716C75.1434 132.783 75.1434 132.851 75.1434 132.918C75.1434 132.986 75.1434 133.053 75.1434 133.12C75.1434 133.188 75.1434 133.255 75.1434 133.323C75.1434 133.323 75.1434 133.331 75.1434 133.34C79.8578 129.418 85.9133 127.057 92.5169 127.057C95.688 127.057 98.7241 127.605 101.549 128.6C99.812 117.333 101.634 106.183 106.981 95.447L107.006 95.3879L131.177 52.0386C131.54 51.3892 132.358 51.1614 132.999 51.5241C133.648 51.8867 133.876 52.7048 133.513 53.3458L109.359 96.6699C104.248 106.951 102.519 117.611 104.214 128.372L154.96 154.07C155.618 154.407 155.888 155.208 155.551 155.875C155.314 156.339 154.842 156.608 154.353 156.608C154.151 156.608 153.94 156.558 153.746 156.465L103.675 132.454C103.253 132.235 102.831 132.033 102.401 131.847L102.266 131.78C99.2723 130.472 95.9663 129.739 92.4916 129.739C78.9807 129.739 68 140.728 68 154.23C68 164.216 74.0133 172.826 82.6072 176.63L141.424 208.13C141.542 208.147 141.66 208.172 141.77 208.189C142.014 208.231 142.251 208.265 142.495 208.299C143.043 208.383 143.6 208.451 144.157 208.501C144.713 208.56 145.27 208.611 145.835 208.636C146.071 208.653 146.307 208.661 146.543 208.67C147.016 208.695 147.488 208.704 147.969 208.704C148.061 208.704 148.146 208.704 148.239 208.704C148.289 208.704 148.331 208.704 148.382 208.704C148.905 208.704 149.419 208.687 149.925 208.653C150.482 208.628 151.039 208.594 151.595 208.535C151.823 208.518 152.051 208.493 152.278 208.467C152.827 208.417 153.375 208.341 153.914 208.257C154.454 208.181 154.994 208.088 155.525 207.978C155.745 207.936 155.964 207.894 156.183 207.843C156.714 207.734 157.246 207.607 157.76 207.472C158.283 207.337 158.806 207.194 159.312 207.034C159.523 206.975 159.734 206.907 159.945 206.831C160.459 206.671 160.957 206.494 161.454 206.308C161.952 206.131 162.449 205.929 162.939 205.727C163.428 205.524 163.917 205.313 164.389 205.086C164.583 204.993 164.777 204.9 164.971 204.807C165.443 204.58 165.916 204.335 166.371 204.082C166.835 203.837 167.29 203.576 167.737 203.306C167.923 203.196 168.108 203.087 168.286 202.977C168.733 202.707 169.171 202.42 169.601 202.125C170.04 201.839 170.461 201.543 170.883 201.223C171.052 201.096 171.229 200.97 171.398 200.843C171.819 200.531 172.224 200.211 172.62 199.873C173.025 199.545 173.422 199.207 173.801 198.861C173.961 198.718 174.113 198.583 174.273 198.44C174.661 198.094 175.033 197.731 175.395 197.369C175.766 197.006 176.129 196.635 176.475 196.255C176.618 196.104 176.761 195.943 176.896 195.792C177.242 195.412 177.588 195.016 177.908 194.619C178.043 194.459 178.178 194.299 178.305 194.13C178.634 193.734 178.946 193.32 179.258 192.907C179.57 192.494 179.873 192.072 180.16 191.642C180.278 191.473 180.396 191.296 180.506 191.119C180.793 190.689 181.071 190.251 181.341 189.804C181.611 189.365 181.872 188.91 182.125 188.454C182.227 188.269 182.328 188.083 182.429 187.898C182.682 187.442 182.91 186.978 183.137 186.506C183.365 186.034 183.584 185.561 183.787 185.081C183.871 184.887 183.955 184.693 184.031 184.499C184.234 184.018 184.428 183.529 184.605 183.031C184.79 182.542 184.967 182.045 185.119 181.539C185.187 181.336 185.246 181.134 185.313 180.931C185.473 180.425 185.617 179.919 185.743 179.396C185.878 178.882 186.005 178.367 186.114 177.836C186.157 177.625 186.207 177.423 186.241 177.212C186.351 176.689 186.443 176.158 186.528 175.618C186.612 175.087 186.688 174.547 186.747 174.007C186.772 173.796 186.798 173.577 186.814 173.366C186.873 172.827 186.916 172.278 186.941 171.722C186.975 171.182 186.992 170.634 186.992 170.086C186.992 170.086 186.992 170.069 186.992 170.06C186.992 169.934 187 169.816 187 169.689L186.477 169.326Z" fill="#EF3E05"/>
<path d="M74.5866 176.419C74.5866 176.487 74.5866 176.554 74.5866 176.622C74.5866 176.689 74.5866 176.757 74.5866 176.824C74.5866 176.892 74.5866 176.959 74.5866 177.027C74.5866 177.094 74.5866 177.162 74.5866 177.229C74.5866 177.297 74.5866 177.364 74.5866 177.431C74.5866 177.499 74.5866 177.566 74.5866 177.634C74.5866 177.701 74.5866 177.769 74.5866 177.836C74.5866 177.904 74.5866 177.971 74.5866 178.039C74.5866 178.106 74.5866 178.174 74.5866 178.241C74.5866 178.309 74.5866 178.376 74.5866 178.443C74.5866 178.511 74.5866 178.578 74.5866 178.646C74.5866 178.713 74.5866 178.781 74.5866 178.848C74.5866 178.916 74.5866 178.983 74.5866 179.051C74.5866 179.118 74.5866 179.186 74.5866 179.253C74.5866 179.321 74.5866 179.388 74.5866 179.456C74.5866 179.523 74.5866 179.59 74.5866 179.658C74.5866 179.725 74.5866 179.793 74.5866 179.86C74.5866 179.928 74.5866 179.995 74.5866 180.063C74.5866 180.13 74.5866 180.198 74.5866 180.265C74.5866 180.333 74.5866 180.4 74.5866 180.468C74.5866 180.535 74.5866 180.603 74.5866 180.67C74.5866 180.737 74.5866 180.805 74.5866 180.872C74.5866 180.94 74.5866 181.007 74.5866 181.075C74.5866 181.142 74.5866 181.21 74.5866 181.277C74.5866 181.345 74.5866 181.412 74.5866 181.48C74.5866 181.547 74.5866 181.615 74.5866 181.682C74.5866 181.75 74.5866 181.817 74.5866 181.884C74.5866 181.952 74.5866 182.019 74.5866 182.087C74.5866 182.154 74.5866 182.222 74.5866 182.289C74.5866 182.357 74.5866 182.424 74.5866 182.492C74.5866 182.559 74.5866 182.627 74.5866 182.694C74.5866 182.762 74.5866 182.829 74.5866 182.896C74.5866 182.964 74.5866 183.031 74.5866 183.099C74.5866 183.166 74.5866 183.234 74.5866 183.301C74.5866 183.369 74.5866 183.436 74.5866 183.504C74.5866 183.571 74.5866 183.639 74.5866 183.706C74.5866 183.774 74.5866 183.841 74.5866 183.909C74.5866 183.976 74.5866 184.043 74.5866 184.111C74.5866 184.178 74.5866 184.246 74.5866 184.313C74.5866 184.381 74.5866 184.448 74.5866 184.516C74.5866 184.583 74.5866 184.651 74.5866 184.718C74.5866 184.786 74.5866 184.853 74.5866 184.921C74.5866 184.988 74.5866 185.056 74.5866 185.123C74.5866 185.19 74.5866 185.258 74.5866 185.325C74.5866 185.393 74.5866 185.46 74.5866 185.528C74.5866 185.595 74.5866 185.663 74.5866 185.73C74.5866 185.798 74.5866 185.865 74.5866 185.933C74.5866 186 74.5866 186.068 74.5866 186.135C74.5866 186.203 74.5866 186.27 74.5866 186.337C74.5866 186.405 74.5866 186.472 74.5866 186.54C74.5866 186.607 74.5866 186.675 74.5866 186.742C74.5866 186.81 74.5866 186.877 74.5866 186.945C74.5866 187.012 74.5866 187.08 74.5866 187.147C74.5866 187.215 74.5866 187.282 74.5866 187.35C74.5866 187.417 74.5866 187.484 74.5866 187.552C74.5866 187.619 74.5866 187.687 74.5866 187.754C74.5866 187.822 74.5866 187.889 74.5866 187.957C74.5866 188.024 74.5866 188.092 74.5866 188.159C74.5866 188.227 74.5866 188.294 74.5866 188.362C74.5866 188.429 74.5866 188.496 74.5866 188.564C74.5866 188.631 74.5866 188.699 74.5866 188.766C74.5866 188.834 74.5866 188.901 74.5866 188.969C74.5866 189.036 74.5866 189.104 74.5866 189.171C74.5866 189.239 74.5866 189.306 74.5866 189.374C74.5866 189.441 74.5866 189.509 74.5866 189.576C74.5866 189.643 74.5866 189.711 74.5866 189.778C74.5866 189.846 74.5866 189.913 74.5866 189.981C74.5866 190.048 74.5866 190.116 74.5866 190.183C74.5866 190.251 74.5866 190.318 74.5866 190.386C74.5866 190.453 74.5866 190.521 74.5866 190.588C74.5866 190.656 74.5866 190.723 74.5866 190.79C74.5866 190.858 74.5866 190.925 74.5866 190.993C74.5866 191.06 74.5866 191.128 74.5866 191.195C74.5866 191.263 74.5866 191.33 74.5866 191.398C74.5866 191.465 74.5866 191.533 74.5866 191.6C74.5866 191.668 74.5866 191.735 74.5866 191.803C74.5866 191.87 74.5866 191.937 74.5866 192.005C74.5866 192.072 74.5866 192.14 74.5866 192.207C74.5866 192.275 74.5866 192.342 74.5866 192.41C74.5866 192.477 74.5866 192.545 74.5866 192.612C74.5866 192.68 74.5866 192.747 74.5866 192.815C74.5866 192.882 74.5866 192.95 74.5866 193.017C74.5866 193.084 74.5866 193.152 74.5866 193.219C74.5866 193.287 74.5866 193.354 74.5866 193.422C74.5866 193.489 74.5866 193.557 74.5866 193.624C74.5866 193.692 74.5866 193.759 74.5866 193.827C74.5866 193.894 74.5866 193.962 74.5866 194.029C74.5866 194.097 74.5866 194.164 74.5866 194.231C74.5866 194.299 74.5866 194.366 74.5866 194.434C74.5866 194.501 74.5866 194.569 74.5866 194.636C74.5866 194.704 74.5866 194.771 74.5866 194.839C74.5866 194.906 74.5866 194.974 74.5866 195.041C74.5866 195.109 74.5866 195.176 74.5866 195.243C74.5866 195.311 74.5866 195.378 74.5866 195.446C74.5866 195.513 74.5866 195.581 74.5866 195.648C74.5866 195.716 74.5866 195.783 74.5866 195.851C74.5866 195.918 74.5866 195.986 74.5866 196.053C74.5866 196.121 74.5866 196.188 74.5866 196.256C74.5866 196.323 74.5866 196.39 74.5866 196.458C74.5866 196.525 74.5866 196.593 74.5866 196.66C74.5866 196.728 74.5866 196.795 74.5866 196.863C74.5866 196.93 74.5866 196.998 74.5866 197.065C74.5866 197.133 74.5866 197.2 74.5866 197.268C74.5866 197.335 74.5866 197.403 74.5866 197.47C74.5866 197.537 74.5866 197.605 74.5866 197.672C74.5866 197.74 74.5866 197.807 74.5866 197.875C74.5866 197.942 74.5866 198.01 74.5866 198.077C74.5866 198.145 74.5866 198.212 74.5866 198.28C74.5866 198.347 74.5866 198.415 74.5866 198.482C74.5866 198.55 74.5866 198.617 74.5866 198.684C74.5866 198.752 74.5866 198.819 74.5866 198.887C74.5866 198.954 74.5866 199.022 74.5866 199.089C74.5866 199.157 74.5866 199.224 74.5866 199.292C74.5866 199.359 74.5866 199.427 74.5866 199.494C74.5866 199.562 74.5866 199.629 74.5866 199.697C74.5866 199.764 74.5866 199.831 74.5866 199.899C74.5866 199.966 74.5866 200.034 74.5866 200.101C74.5866 200.169 74.5866 200.236 74.5866 200.304C74.5866 200.371 74.5866 200.439 74.5866 200.506C74.5866 200.574 74.5866 200.641 74.5866 200.709C74.5866 200.776 74.5866 200.843 74.5866 200.911C74.5866 200.978 74.5866 201.046 74.5866 201.113C74.5866 201.181 74.5866 201.248 74.5866 201.316C74.5866 201.383 74.5866 201.451 74.5866 201.518C74.5866 201.586 74.5866 201.653 74.5866 201.721C74.5866 201.788 74.5866 201.856 74.5866 201.923C74.5866 201.99 74.5866 202.058 74.5866 202.125C74.5866 202.193 74.5866 202.26 74.5866 202.328C74.5866 202.395 74.5866 202.463 74.5866 202.53C74.5866 202.598 74.5866 202.665 74.5866 202.733C74.5866 202.8 74.5866 202.868 74.5866 202.935C74.5866 203.003 74.5866 203.07 74.5866 203.137C74.5866 203.205 74.5866 203.272 74.5866 203.34C74.5866 218.352 86.7564 230.513 101.76 230.513C116.764 230.513 128.107 219.136 128.883 204.816L74.5781 176.268C74.5781 176.318 74.5781 176.369 74.5781 176.419H74.5866Z" fill="#EF3E05"/>
</svg>
