<svg width="256" height="256" viewBox="0 0 256 256" fill="none" xmlns="http://www.w3.org/2000/svg" id="capacitor">
<style>
#capacitor {
    rect {fill: #242938}
    
    @media (prefers-color-scheme: light) {
        rect {fill: #F4F2ED}
    }
}
</style>
<rect width="256" height="256" rx="60" fill="#242938" />
<path d="M68.248 77.9948L41.2133 105.065L82.907 146.887L41 188.917L67.9541 216.005L109.947 173.959L151.711 215.701L178.75 188.63L68.248 77.9948Z" fill="#53B9FF"/>
<path d="M137.056 146.889L109.947 173.959L151.711 215.701L178.75 188.63L137.056 146.889Z" fill="#119EFF"/>
<path d="M137.056 146.889L109.947 173.959L120.383 184.336L137.056 146.889Z" fill="black" fill-opacity="0.2"/>
<path d="M174.007 110.032L216 67.9855L188.95 41L146.973 82.9604L105.199 41.2133L78.1656 68.285L188.662 178.921L215.701 151.85L174.007 110.032Z" fill="#53B9FF"/>
<path d="M119.859 110.032L146.968 82.9617L105.199 41.2119L78.1656 68.285L119.859 110.032Z" fill="#119EFF"/>
<path d="M119.859 110.032L146.968 82.9617L136.532 72.5793L119.859 110.032Z" fill="black" fill-opacity="0.2"/>
</svg>
