<svg width="256" height="256" viewBox="0 0 256 256" fill="none" xmlns="http://www.w3.org/2000/svg">
<g clip-path="url(#clip0_358_1052)">
<mask id="mask0_358_1052" style="mask-type:luminance" maskUnits="userSpaceOnUse" x="0" y="0" width="256" height="256">
<path d="M256 0H0V256H256V0Z" fill="white"/>
</mask>
<g mask="url(#mask0_358_1052)">
<mask id="mask1_358_1052" style="mask-type:luminance" maskUnits="userSpaceOnUse" x="0" y="0" width="256" height="256">
<path d="M196 0H60C26.8629 0 0 26.8629 0 60V196C0 229.137 26.8629 256 60 256H196C229.137 256 256 229.137 256 196V60C256 26.8629 229.137 0 196 0Z" fill="white"/>
</mask>
<g mask="url(#mask1_358_1052)">
<path d="M149.701 -39.8775L112.881 -76.6973L-259.998 296.182L-223.179 333.002L149.701 -39.8775Z" fill="#F38BA8"/>
<path d="M296.623 -39.8775L259.804 -76.6973L-113.076 296.182L-76.256 333.002L296.623 -39.8775Z" fill="#F9E2AF"/>
<path d="M443.544 -40.1793L406.725 -76.999L33.8457 295.88L70.6654 332.7L443.544 -40.1793Z" fill="#74C7EC"/>
<path d="M223.157 -39.881L186.338 -76.6997L-186.541 296.18L-149.723 332.998L223.157 -39.881Z" fill="#FAB387"/>
<path d="M370.078 -39.881L333.26 -76.6997L-39.6191 296.18L-2.8005 332.998L370.078 -39.881Z" fill="#A6E3A1"/>
<path d="M517.001 -40.1813L480.183 -77L107.303 295.879L144.122 332.698L517.001 -40.1813Z" fill="#CBA6F7"/>
</g>
<path d="M56.9204 257.237C59.1256 240.387 62.3865 225.643 66.7153 212.995C45.8787 202.31 30.4744 184.342 26.8847 158.395C23.7544 135.781 28.9312 109.419 42.4144 90.7331C39.1022 78.1943 34.5845 54.0537 37.8752 40.3476C38.7425 36.7341 42.0244 34.3136 45.7441 34.5428C63.3119 35.6319 77.5585 42.5174 89.052 55.8561C110.678 47.8124 138.113 47.9418 155.967 53.1547C165.31 40.1748 176.391 33.1684 191.093 29.5764C194.549 28.7291 198.026 30.3069 199.66 33.4579C206.25 46.1743 206.949 64.0384 203.588 78.8812C246.02 119.831 235.173 179.462 188.093 207.808C191.546 224.634 193.465 242.047 193.841 260.057C174.033 269.95 151.693 275.519 128.064 275.519C102.277 275.519 78.0256 268.887 56.9204 257.237Z" fill="#313244"/>
<path d="M177.146 92.2726C187.131 91.6715 195.732 98.3154 198.381 107.44C198.646 108.356 198.277 109.285 197.453 109.761C196.625 110.236 195.611 110.102 194.93 109.424C190.491 105.006 184.334 102.426 177.757 102.763C171.237 103.096 165.6 106.221 161.885 110.915C161.33 111.619 160.393 111.84 159.57 111.455C158.746 111.071 158.3 110.206 158.447 109.289C159.89 100.251 167.317 92.8646 177.146 92.2726ZM112.277 93.8371C117.948 93.487 123.259 95.3154 127.53 98.6222C131.839 101.959 135.1 106.787 136.617 112.354C136.921 113.478 136.487 114.619 135.538 115.194C134.588 115.764 133.426 115.587 132.65 114.762C127.565 109.363 120.511 106.195 112.975 106.58C105.549 106.96 99.1322 110.733 94.9269 116.396C94.2851 117.269 93.2316 117.524 92.2994 117.048C91.3675 116.573 90.8429 115.514 91.0032 114.424C91.8051 108.952 94.3239 103.995 98.0006 100.321C101.708 96.6167 106.65 94.1872 112.277 93.8371ZM155.113 127.919C158.16 127.725 161.117 127.535 163.974 127.357C164.92 127.301 165.839 128.079 166.311 129.324C166.784 130.569 166.689 131.926 166.082 132.846C162.28 138.613 159.851 141.474 157.038 141.824C154.137 142.183 150.721 139.848 144.556 134.982C143.446 134.113 142.826 132.6 142.964 131.117C143.094 129.631 143.975 128.628 145.184 128.55C148.61 128.329 151.922 128.122 155.113 127.919ZM157.09 148.8C157.809 147.832 158.932 147.629 159.89 148.282C162.93 150.382 165.561 151.126 167.812 150.62C170.014 150.119 172.372 149.634 174.228 146.734C177.12 142.222 177.922 145.074 176.461 148.701C175.559 150.927 173.851 153.533 171.466 155.262C169.021 157.03 165.774 157.942 161.777 156.546C160.385 156.062 158.984 156.382 157.788 157.462C155.004 159.973 151.631 161.378 148.128 161.435C144.465 161.495 140.563 160.099 137.016 156.892C133.084 153.334 133.106 149.427 139.496 153.377C143.238 155.703 146.494 155.024 149.338 154.475C152.108 153.931 154.683 152.038 157.09 148.8Z" fill="#CED9F5"/>
<path d="M155.208 228.327C152.255 234.425 145.076 239.353 138.867 239.858C138.191 239.911 137.584 239.595 137.246 239.007C132.303 230.423 131.766 220.974 133.409 213.03C133.508 212.55 133.773 212.174 134.194 211.919C134.618 211.664 135.073 211.599 135.546 211.733C143.927 214.08 150.27 217.084 154.575 220.745C157.558 216.829 161.672 214.119 166.923 212.624C167.82 212.369 168.756 212.879 169.03 213.765C170.95 220.049 171.47 226.796 169.828 232.878C169.589 233.76 168.431 234.469 167.313 234.175C162.96 233.038 158.455 230.86 155.208 228.327Z" fill="#F38BA8"/>
</g>
</g>
<defs>
<clipPath id="clip0_358_1052">
<rect width="256" height="256" fill="white"/>
</clipPath>
</defs>
</svg>
