<svg width="256" height="256" viewBox="0 0 256 256" fill="none" xmlns="http://www.w3.org/2000/svg" id="celery">
  <style>
  #celery {
      rect {fill: #242938}
      @media (prefers-color-scheme: light) {
          rect {fill: #F4F2ED}
      }
  }
  </style>
  <rect width="256" height="256" rx="60" fill="#242938"/>
  <clipPath id="clippath">
    <path d="M222.99,154.2c-14.54,0-26.33-11.79-26.33-26.33s11.79-26.33,26.33-26.33c1.57,0,3.11.15,4.61.41v-15.41H64.19c-22.54.43-40.68,18.83-40.68,41.48s18.14,41.04,40.68,41.46h0s158.8,0,158.8,0l4.61-15.69c-1.49.27-3.03.41-4.6.41Z"/>
  </clipPath>
  <path d="M222.99,154.2c-14.54,0-26.33-11.79-26.33-26.33s11.79-26.33,26.33-26.33c1.57,0,3.11.15,4.61.41l-4.61-15.41H64.19c-22.54.43-40.68,18.83-40.68,41.48s18.14,41.04,40.68,41.46h0s158.8,0,158.8,0l4.61-15.69c-1.49.27-3.03.41-4.6.41Z" style="fill: #b6de64;"/>
  <g style="clip-path: url(#clippath);">
    <rect x="12.1" y="106.99" width="184.34" height="20.86" style="fill: #a9cc54;"/>
    <rect x="12.1" y="148.62" width="216.72" height="29.53" style="fill: #a9cc54;"/>
  </g>
  <path d="M232.49,159.47c0-5.52-4.46-9.99-9.98-10.01,0,0-.02,0-.03,0-11.97,0-21.68-9.7-21.68-21.68s9.7-21.68,21.68-21.68h0c5.41,0,9.79-4.38,9.79-9.79s-4.38-9.79-9.79-9.79h0c-22.91,0-41.47,18.57-41.47,41.47s18.57,41.47,41.47,41.47h0c5.53,0,10.01-4.48,10.01-10.01Z" style="fill: #ddf4a4;"/>
</svg>