<svg width="256" height="256" viewBox="0 0 256 256" fill="none" id="celerdata" xmlns="http://www.w3.org/2000/svg" xmlns:xlink="http://www.w3.org/1999/xlink">
<style>
#celerdata {
    rect {fill: #242938}
    
    @media (prefers-color-scheme: light) {
        rect {fill: #F4F2ED}
    }
}  
</style>
<g clip-path="url(#a)">
<g mask="url(#b)">
<rect width="256" height="256" fill="#242938" rx="60"/>
<path d="m52.5502 219.997h81.4498l-4.686-32.593h-52.5561c-4.2871 0-7.7626-3.178-7.7626-7.097v-104.5609c0-3.9238 3.4708-7.1087 7.7626-7.1232h35.4201l-4.715-32.6194h-54.9128c-10.5368-.1912-19.2679 7.4272-19.5502 17.0589v149.8226c.2513 9.653 8.9915 17.302 19.5502 17.112z" fill="#3658b8"/>
<path d="m203.456 36.0035h-81.456l4.685 32.6194h52.57c4.29.0145 7.76 3.1993 7.76 7.1232v104.5609c0 3.919-3.474 7.097-7.76 7.097h-35.411l4.714 32.592h54.898c10.533.192 19.262-7.426 19.544-17.058v-149.8231c-.251-9.6524-8.989-17.3023-19.544-17.1114z" fill="#60b2e5"/>
</g>
</g>
</svg>
