<svg width="256" height="256" viewBox="0 0 256 256" fill="none" xmlns="http://www.w3.org/2000/svg">
    <g clip-path="url(#clip0_180676_729)">
        <rect width="256" height="256" rx="60" fill="#242938"/>
        <g clip-path="url(#clip1_180676_729)">
            <path d="M151.02 213.966C198.498 201.244 226.674 152.443 213.952 104.965C201.23 57.4868 152.428 29.3113 104.95 42.033C57.4717 54.7547 29.296 103.556 42.0177 151.034C54.7395 198.512 103.541 226.687 151.02 213.966Z"
                  fill="#A14F8C"/>
            <path d="M127.987 60.645L108.258 80.3735H80.3629V108.273L60.6343 128.002L80.3629 147.725V175.625H108.263L127.987 195.354L147.715 175.625H175.615V147.725L195.339 128.002L175.61 108.273L147.71 80.3735L127.987 60.645ZM133.974 80.3735V101.655L127.987 107.642L121.999 101.655V80.3735H133.974ZM98.5438 90.0876L113.594 105.142V113.604H105.127L90.077 98.5542L98.5438 90.0876ZM80.3629 122.01H101.644L107.632 128.002L101.644 133.989H80.3629V122.01ZM153.85 122.01H175.132V133.989H153.85L147.863 128.002L153.85 122.01ZM105.468 142.054H113.935V150.52L98.8848 165.57L90.4181 157.103L105.468 142.054ZM142.044 142.054H150.51L165.56 157.103L157.093 165.57L142.044 150.52V142.054ZM127.992 147.873L133.974 153.86V175.141H121.999V153.86L127.992 147.873Z"
                  fill="white"/>
            <path d="M133.974 114.24L127.986 119.535L121.999 114.24V122.009H114.23L119.52 128.002L114.225 133.989H121.999V141.758L127.986 136.463L133.974 141.758V133.989H141.748L136.453 128.002L141.748 122.009H133.974V114.24Z"
                  fill="#EFA724"/>
            <path d="M147.73 80.3939L157.429 90.0927L142.379 105.142V113.609H150.846L165.896 98.5594L175.625 108.289L175.61 80.3735L147.73 80.3939Z"
                  fill="#EFA724"/>
        </g>
    </g>
    <defs>
        <clipPath id="clip0_180676_729">
            <rect width="256" height="256" fill="white"/>
        </clipPath>
        <clipPath id="clip1_180676_729">
            <rect width="178" height="178" fill="white" transform="translate(39 39)"/>
        </clipPath>
    </defs>
</svg>
