<svg width="256" height="256" viewBox="0 0 256 256" fill="none" xmlns="http://www.w3.org/2000/svg">
<path d="M196 0H60C26.8629 0 0 26.8629 0 60V196C0 229.137 26.8629 256 60 256H196C229.137 256 256 229.137 256 196V60C256 26.8629 229.137 0 196 0Z" fill="#242938"/>
<path d="M223.237 127.507L180.779 119.652L175.92 128.065L163.962 148.768L132.915 202.524C131.555 204.878 127.97 203.91 127.97 201.189V156.011V151.107C127.97 148.56 126.174 146.37 123.686 145.882L75.3136 136.379L32.0127 128.462C32.0785 130.712 32.6097 132.95 33.6213 135.022L69.3589 197.037C74.3447 205.69 83.5502 211.013 93.5061 211L162.041 210.908C171.991 210.895 181.179 205.553 186.144 196.895L221.119 135.904C222.61 133.311 223.311 130.401 223.237 127.507Z" fill="url(#paint0_linear_474_13)"/>
<path d="M80.1794 127.924L92.1555 107.141L123.018 53.5827C124.376 51.2266 127.964 52.1937 127.964 54.9161V104.972C127.964 107.521 129.764 109.713 132.257 110.199L180.773 119.652L223.231 127.506C223.177 125.381 222.7 123.266 221.802 121.289C221.59 120.824 221.363 120.364 221.105 119.916L186.086 58.9892C181.11 50.3329 171.913 45 161.96 45H93.191C83.2214 45 74.0119 50.3497 69.0425 59.0279L34.1228 120.005C34.0424 120.145 33.9727 120.289 33.8969 120.431C32.5562 122.934 31.9262 125.704 32.0069 128.461L75.3078 136.378L80.1794 127.924Z" fill="url(#paint1_linear_474_13)"/>
<defs>
<linearGradient id="paint0_linear_474_13" x1="219.243" y1="164.834" x2="35.4513" y2="166.537" gradientUnits="userSpaceOnUse">
<stop stop-color="#3585A3"/>
<stop offset="1" stop-color="#00DEAE"/>
</linearGradient>
<linearGradient id="paint1_linear_474_13" x1="41.2619" y1="91.8144" x2="204.538" y2="87.5574" gradientUnits="userSpaceOnUse">
<stop stop-color="#3585A3"/>
<stop offset="1" stop-color="#00DEAE"/>
</linearGradient>
</defs>
</svg>
