<svg width="256" height="256" viewBox="0 0 256 256" fill="none" xmlns="http://www.w3.org/2000/svg">
<path d="M196 0H60C26.8629 0 0 26.8629 0 60V196C0 229.137 26.8629 256 60 256H196C229.137 256 256 229.137 256 196V60C256 26.8629 229.137 0 196 0Z" fill="#F4F2ED"/>
<path fill-rule="evenodd" clip-rule="evenodd" d="M158.57 175.176H67.7949L41.9238 127.993H158.57V175.176Z" fill="#FDB4D0"/>
<path fill-rule="evenodd" clip-rule="evenodd" d="M87.5479 70.0818C70.322 70.1722 57.0961 77.7951 48.238 92.5181C41.5154 103.685 35.1605 115.071 28.5799 126.314C27.8121 127.618 27.8057 128.535 28.567 129.845C35.1799 141.179 41.509 152.675 48.309 163.887C57.0961 178.39 70.1284 186.039 87.2059 186.116C114.883 186.246 142.561 186.149 170.232 186.149H173.31C158.593 166.54 158.948 147.227 173.161 127.851C160.516 113.941 157.342 88.8841 173.393 70.0431H170.322C153.761 70.0431 137.206 70.0044 120.651 70.0044C109.619 70.0044 98.5866 70.0173 87.5479 70.0818ZM87.8059 170.361C76.3607 170.316 67.6058 165.3 61.7736 155.451C56.7155 146.911 51.8251 138.262 46.8057 129.71C46.0961 128.483 46.0703 127.567 46.7864 126.34C51.7993 117.775 56.6574 109.126 61.709 100.586C67.5349 90.7431 76.3414 85.7343 87.7479 85.6568C106.961 85.5277 126.18 85.6181 145.4 85.6181H148C147.587 88.5356 147.129 91.1691 146.851 93.8348C145.6 105.004 148.052 116.276 153.832 125.914C154.742 127.47 154.729 128.548 153.819 130.11C146.916 141.935 144.864 154.611 147.561 168.044C147.651 168.521 147.748 169.012 147.819 169.489C147.845 169.651 147.793 169.812 147.742 170.264C146.929 170.303 146.077 170.38 145.226 170.38L111.548 170.399C103.632 170.399 95.7221 170.393 87.8059 170.361Z" fill="url(#paint0_linear_406_1339)"/>
<path fill-rule="evenodd" clip-rule="evenodd" d="M186.341 71.6824C176.399 83.1135 173.741 96.2099 177.309 110.726C178.915 117.213 182.16 122.867 186.709 128.025C186.128 128.761 185.741 129.283 185.334 129.78C178.942 137.542 175.538 147.338 175.739 157.393C175.94 167.448 179.733 177.1 186.431 184.599C187.18 185.439 188.605 186.019 189.747 186.084C191.199 186.155 192.663 186.181 194.122 186.187H194.792C196.728 186.187 198.657 186.149 200.586 186.149H206.999C197.322 177.738 193.773 172.452 191.896 163.712C190.076 155.283 191.276 147.524 197.418 141.069C198.393 140.145 199.664 139.596 201.005 139.52C206.089 139.353 211.193 139.443 216.283 139.456C217.076 139.462 217.87 139.572 218.876 139.649V149.912H227.999V106.318H218.851C218.851 109.255 218.786 111.959 218.883 114.657C218.941 116.277 218.367 116.807 216.76 116.774C212.734 116.684 208.631 116.251 204.702 116.858C198.747 117.775 195.934 114.457 193.702 109.971C192.831 108.228 192.005 106.363 191.683 104.465C189.805 93.2214 193.296 83.604 200.928 75.368C202.605 73.5542 204.58 71.9922 206.722 70.0429C200.941 70.0429 195.541 70.0945 190.141 70.0042H190.012C189.311 69.9737 188.613 70.11 187.975 70.4017C187.337 70.6934 186.777 71.1323 186.341 71.6824Z" fill="url(#paint1_linear_406_1339)"/>
<defs>
<linearGradient id="paint0_linear_406_1339" x1="173" y1="70" x2="173" y2="186" gradientUnits="userSpaceOnUse">
<stop stop-color="#4F0067"/>
<stop offset="1" stop-color="#F80664"/>
</linearGradient>
<linearGradient id="paint1_linear_406_1339" x1="227.858" y1="69.9956" x2="227.858" y2="186.004" gradientUnits="userSpaceOnUse">
<stop stop-color="#4F0067"/>
<stop offset="1" stop-color="#F80664"/>
</linearGradient>
</defs>
</svg>
