<svg width="256" height="256" viewBox="0 0 256 256" fill="none" xmlns="http://www.w3.org/2000/svg">
<rect width="256" height="256" rx="60" fill="#F4F2ED"/>
<path d="M210.922 128.725C182.676 129.279 188.56 147.159 168.653 151.682C148.431 156.276 145.239 102.293 125.022 102.293C104.802 102.293 100.323 154.73 75.0054 190.731L74.2844 191.751L128.565 223.085L210.924 175.541V128.725H210.922Z" fill="#36A2EB"/>
<path d="M210.922 127.097C201.467 114.962 195.053 101.01 181.255 101.01C156.835 101.01 163.261 140.845 136.274 140.845C109.284 140.845 106.447 97.9974 75.8717 138.275C66.1293 151.109 58.2874 165.417 52.1288 178.959L128.562 223.083L210.921 175.54L210.922 127.097Z" fill="#FFCE56"/>
<path opacity="0.8" d="M46.2039 143.598C55.4702 117.938 59.4682 97.1551 77.1585 97.1551C104.144 97.1551 110.57 172.97 133.703 165.257C156.835 157.548 154.265 116.428 190.249 116.428C197.097 116.428 204.092 120.624 210.922 127.413V175.54L128.564 223.083L46.2026 175.54L46.2039 143.598Z" fill="#FE6184"/>
<path d="M128.499 229.045L41 178.534V77.5112L128.499 27L216 77.5112V178.534L128.499 229.045ZM51.2803 172.6L128.499 217.176L205.72 172.6V83.4463L128.499 38.8701L51.2803 83.4463V172.6Z" fill="#E7E9ED"/>
</svg>
