<svg width="256" height="256" viewBox="0 0 256 256" fill="none" xmlns="http://www.w3.org/2000/svg">
<g clip-path="url(#clip0_1057_6084)">
<rect width="256" height="256" rx="60" fill="#242938"/>
<path fill-rule="evenodd" clip-rule="evenodd" d="M55.7017 184.012C48.4832 184.03 42.3557 181.994 37.3508 179.485C25.0862 173.336 19 162.525 19 147.251C19 131.982 25.1165 121.237 37.3508 115.022C42.3887 112.578 48.5039 111.066 55.7017 110.493H72.099C75.6965 110.493 78.5044 112.002 80.5184 115.022C82.5325 118.039 83.5395 121.56 83.5395 125.585C83.5395 129.61 82.5325 133.132 80.5184 136.15C78.5044 139.167 75.6965 140.677 72.099 140.677H55.7017C51.3819 140.677 49.2247 142.87 49.2247 147.251C49.2247 151.637 51.3819 153.842 55.7017 153.83L113.955 153.556C117.553 153.547 120.361 155.068 122.375 158.085C124.386 161.102 125.397 164.623 125.397 168.648C125.397 172.673 124.389 176.195 122.375 179.213C120.361 182.23 117.551 183.732 113.955 183.74L55.7017 184.012Z" fill="#01933F"/>
<path fill-rule="evenodd" clip-rule="evenodd" d="M206.148 172.366V120.765C206.148 117.172 207.66 114.406 210.681 112.395C213.705 110.379 217.231 109.375 221.26 109.375C225.289 109.375 228.815 110.379 231.84 112.395C234.861 114.406 236.373 117.172 236.373 120.765V172.366C236.373 175.959 234.861 178.727 231.84 180.739C228.815 182.75 225.289 183.757 221.26 183.757C217.231 183.757 213.705 182.75 210.681 180.739C207.66 178.727 206.148 175.959 206.148 172.366Z" fill="#01933F"/>
<path fill-rule="evenodd" clip-rule="evenodd" d="M221.26 101.182C217.087 101.182 213.525 99.7083 210.574 96.7626C207.624 93.8155 206.148 90.2584 206.148 86.0899C206.148 81.9214 207.624 78.3643 210.574 75.4172C213.525 72.4715 217.087 71 221.26 71C225.434 71 228.996 72.4715 231.946 75.4172C234.897 78.3643 236.373 81.9214 236.373 86.0899C236.373 90.2584 234.897 93.8155 231.946 96.7626C228.996 99.7083 225.434 101.182 221.26 101.182Z" fill="#83C21F"/>
<path fill-rule="evenodd" clip-rule="evenodd" d="M162.972 172.33V146.459C162.972 142.148 160.812 139.99 156.495 139.99H134.265C119.011 139.99 108.286 133.882 102.098 121.664C99.6523 116.635 98.1399 110.525 97.5635 103.339V86.0899C97.5635 82.4971 99.0768 79.6929 102.098 77.6814C105.121 75.67 108.647 74.6643 112.677 74.6643C116.705 74.6643 120.231 75.67 123.255 77.6814C126.277 79.6929 127.789 82.4971 127.789 86.0899V103.339C127.789 107.651 129.946 109.807 134.265 109.807H156.495C163.692 110.379 169.808 111.891 174.846 114.335C187.08 120.515 193.197 131.223 193.197 146.459V172.33C193.197 175.924 191.685 178.727 188.664 180.738C185.64 182.75 182.114 183.757 178.085 183.757C174.054 183.757 170.528 182.75 167.505 180.738C164.484 178.727 162.972 175.924 162.972 172.33Z" fill="#01933F"/>
</g>
<defs>
<clipPath id="clip0_1057_6084">
<rect width="256" height="256" fill="white"/>
</clipPath>
</defs>
</svg>
