<svg width="256" height="256" viewBox="0 0 256 256" fill="none" xmlns="http://www.w3.org/2000/svg">
<g clip-path="url(#clip0_146_16)">
<path d="M196 0H60C26.8629 0 0 26.8629 0 60V196C0 229.137 26.8629 256 60 256H196C229.137 256 256 229.137 256 196V60C256 26.8629 229.137 0 196 0Z" fill="#1A73E8"/>
<path d="M128.276 210.616C82.9011 210.616 46 173.701 46 128.308C46 82.9152 82.9011 46 128.276 46C173.652 46 210.554 82.9152 210.554 128.308C210.554 173.701 173.652 210.616 128.276 210.616ZM128.276 46.995C83.4581 46.995 46.9946 83.4724 46.9946 128.308C46.9946 173.144 83.4581 209.621 128.276 209.621C173.095 209.621 209.559 173.144 209.559 128.308C209.559 83.4724 173.095 46.995 128.276 46.995Z" fill="white" fill-opacity="0.5"/>
<path d="M256 184.779H185.783V128.242H256V127.247H185.783V69.9936H255.98V68.9986H186.499L237.645 17.8322L236.949 17.1357L185.802 68.3021L186.176 0H185.182L184.808 68.9986H127.934L128.308 0H127.314L126.94 68.9986H69.7679L69.7082 68.9391L70.0822 0H69.0876L68.7136 67.9441L17.9035 17.1357L17.2072 17.8322L68.3555 68.9986H0V69.9936H68.6937V127.247H0V128.242H68.6937V184.779H0V185.774H68.3555L16.511 237.64L17.2072 238.336L68.6937 186.829V256H69.6883V185.834L69.7679 185.754H126.92V256H127.914V185.754H184.788V256H185.783V186.471L237.719 238.426L238.415 237.729L186.459 185.754H255.98V184.759L256 184.779ZM69.6883 70.3519L126.562 127.247H69.6883V70.3519ZM69.6883 184.441V128.242H125.866L69.6883 184.441ZM126.92 184.779H70.7625L126.92 128.6V184.779ZM126.92 126.192L70.7427 69.9936H126.92V126.192ZM127.914 69.9936H184.092L127.914 126.192V69.9936ZM127.914 184.779V128.6L184.072 184.779H127.914ZM184.788 184.083L128.969 128.242H184.788V184.083ZM184.788 127.247H128.273L184.788 70.7103V127.247Z" fill="white" fill-opacity="0.5"/>
<path d="M127.838 172.711C152.565 172.711 172.677 152.592 172.677 127.855C172.677 103.119 152.565 83 127.838 83C103.112 83 83 103.119 83 127.855C83 152.592 103.112 172.711 127.838 172.711ZM127.838 86.9602C150.357 86.9602 168.698 105.308 168.698 127.836C168.698 150.363 150.357 168.711 127.838 168.711C105.32 168.711 86.9786 150.363 86.9786 127.836C86.9786 105.308 105.3 86.9602 127.838 86.9602Z" fill="white"/>
<path d="M128.378 13C64.7609 13 13 64.7809 13 128.422C13 192.064 64.7609 243.844 128.378 243.844C191.995 243.844 243.756 192.064 243.756 128.422C243.756 64.7809 191.995 13 128.378 13ZM128.378 16.9801C167.905 16.9801 202.657 37.6964 222.431 68.8206H128.378C95.535 68.8206 68.8191 95.5469 68.8191 128.402C68.8191 131.646 69.0976 134.85 69.5949 137.955L31.9578 72.7211C51.2537 39.4278 87.2398 16.9801 128.378 16.9801ZM183.939 128.402H183.958C183.958 159.049 159.013 184.004 128.378 184.004C97.7431 184.004 72.7976 159.049 72.7976 128.402C72.7976 97.7558 97.7232 72.8007 128.378 72.8007C159.033 72.8007 183.939 97.7558 183.939 128.402ZM128.259 239.864C66.8895 239.785 16.9984 189.835 16.9984 128.422C16.9984 109.796 21.6135 92.2434 29.7298 76.7808L76.7165 158.213L76.8159 158.153C87.1204 175.964 106.377 187.984 128.378 187.984C142.581 187.984 155.651 182.969 165.896 174.631L128.259 239.864ZM132.894 239.745L179.94 158.213H179.9C184.993 149.417 187.917 139.248 187.917 128.402C187.917 103.069 172.023 81.3778 149.683 72.7808H224.838C234.327 89.1588 239.777 108.164 239.777 128.422C239.777 188.362 192.234 237.357 132.894 239.745Z" fill="white"/>
</g>
<defs>
<clipPath id="clip0_146_16">
<rect width="256" height="256" fill="white"/>
</clipPath>
</defs>
</svg>
