<svg fill="none" height="256" viewBox="0 0 256 256" width="256" xmlns="http://www.w3.org/2000/svg" xmlns:xlink="http://www.w3.org/1999/xlink">
<path d="m196 0h-136c-33.1371 0-60 26.8629-60 60v136c0 33.137 26.8629 60 60 60h136c33.137 0 60-26.863 60-60v-136c0-33.1371-26.863-60-60-60z" fill="#f4f2ed"/>
<path d="m34.0095 195.375h20.9979v22.625h-20.9979z" fill="#f00"/>
<path d="m34.0098 37h20.9979v158.375h-20.9979zm41.9958 0h20.9979v181h-20.9979zm41.9954 0h20.998v181h-20.998zm41.996 0h20.998v181h-20.998zm41.996 73.531h20.998v33.938h-20.998z" fill="#fc0"/>
</svg>