<svg width="256" height="256" viewBox="0 0 256 256" fill="none" xmlns="http://www.w3.org/2000/svg">
<g clip-path="url(#clip0_186_396)">
<mask id="mask0_186_396" style="mask-type:luminance" maskUnits="userSpaceOnUse" x="0" y="0" width="256" height="256">
<path d="M196 0H60C26.8629 0 0 26.8629 0 60V196C0 229.137 26.8629 256 60 256H196C229.137 256 256 229.137 256 196V60C256 26.8629 229.137 0 196 0Z" fill="white"/>
</mask>
<g mask="url(#mask0_186_396)">
<path d="M256 0H0V256H256V0Z" fill="url(#paint0_linear_186_396)"/>
</g>
<path fill-rule="evenodd" clip-rule="evenodd" d="M175.79 149.688C175.79 137.178 165.544 127 152.951 127C140.357 127 130.115 137.178 130.115 149.688C130.115 162.197 140.357 172.375 152.951 172.375C165.544 172.375 175.79 162.197 175.79 149.688ZM182.223 149.688C182.223 165.722 169.092 178.766 152.951 178.766C136.812 178.766 123.681 165.722 123.681 149.688C123.681 133.653 136.812 120.61 152.951 120.61C169.092 120.61 182.223 133.653 182.223 149.688ZM209.231 193.515L186.804 173.448C184.993 175.982 182.899 178.296 180.573 180.363L202.968 200.427C204.879 202.14 207.851 201.98 209.578 200.082C211.296 198.184 211.142 195.234 209.231 193.515ZM152.951 184.517C172.287 184.517 188.016 168.892 188.016 149.688C188.016 130.48 172.287 114.858 152.951 114.858C133.618 114.858 117.888 130.48 117.888 149.688C117.888 168.892 133.618 184.517 152.951 184.517ZM214.358 204.36C212.165 206.773 209.131 208 206.091 208C203.441 208 200.784 207.067 198.664 205.175L175.378 184.316C168.902 188.47 161.218 190.908 152.951 190.908C130.07 190.908 111.455 172.416 111.455 149.688C111.455 126.959 130.07 108.467 152.951 108.467C175.835 108.467 194.45 126.959 194.45 149.688C194.45 156.209 192.877 162.357 190.149 167.844L213.538 188.77C218.08 192.851 218.447 199.839 214.358 204.36ZM67.697 94.0561C67.697 95.7177 67.8 97.3729 67.9962 98.9738C68.1088 99.8845 67.8257 100.795 67.2145 101.482C66.7288 102.029 66.0758 102.39 65.3617 102.511C57.4517 104.54 44.4335 110.682 44.4335 129.106C44.4335 143.019 52.1569 150.697 58.6387 154.692C60.8518 156.078 63.4702 156.816 66.2334 156.845L105.024 156.88L105.018 163.271L66.198 163.236C62.2125 163.194 58.4296 162.114 55.2289 160.111C48.8051 156.152 38 146.847 38 129.106C38 107.72 52.7199 99.8142 61.36 97.0214C61.2957 96.0372 61.2635 95.0467 61.2635 94.0561C61.2635 76.5838 73.1945 58.4628 89.0145 51.9091C107.517 44.2082 127.12 48.0267 141.444 62.1151C145.883 66.48 149.534 71.7811 152.336 77.9131C156.1 74.8167 160.738 73.1072 165.628 73.1072C175.236 73.1072 186.051 80.3511 187.978 96.1938C196.975 98.2548 215.986 105.457 215.986 129.352C215.986 138.894 212.975 146.773 207.034 152.774L202.447 148.291C207.163 143.53 209.553 137.159 209.553 129.352C209.553 108.451 191.938 103.252 184.359 101.99C183.497 101.846 182.735 101.361 182.242 100.645C181.763 99.9548 181.58 99.108 181.724 98.2868C180.673 85.3135 172.914 79.498 165.628 79.498C161.031 79.498 156.721 81.7219 153.8 85.6011C153.089 86.5406 151.934 87.0199 150.75 86.8473C149.583 86.6748 148.602 85.8759 148.199 84.7735C145.565 77.5232 141.769 71.4264 136.918 66.6589C124.505 54.4494 107.53 51.139 91.4946 57.8077C78.1483 63.3357 67.697 79.2551 67.697 94.0561Z" fill="white"/>
</g>
<defs>
<linearGradient id="paint0_linear_186_396" x1="0" y1="25600" x2="25600" y2="0" gradientUnits="userSpaceOnUse">
<stop stop-color="#B0084D"/>
<stop offset="1" stop-color="#FF4F8B"/>
</linearGradient>
<clipPath id="clip0_186_396">
<rect width="256" height="256" fill="white"/>
</clipPath>
</defs>
</svg>
