<svg width="256" height="256" viewBox="0 0 256 256" fill="none" xmlns="http://www.w3.org/2000/svg">
<g clip-path="url(#clip0_186_388)">
<mask id="mask0_186_388" style="mask-type:luminance" maskUnits="userSpaceOnUse" x="0" y="0" width="256" height="256">
<path d="M196 0H60C26.8629 0 0 26.8629 0 60V196C0 229.137 26.8629 256 60 256H196C229.137 256 256 229.137 256 196V60C256 26.8629 229.137 0 196 0Z" fill="white"/>
</mask>
<g mask="url(#mask0_186_388)">
<path d="M256 0H0V256H256V0Z" fill="url(#paint0_linear_186_388)"/>
</g>
<path fill-rule="evenodd" clip-rule="evenodd" d="M169.2 127.682H185.2V121.272H169.2V127.682ZM89.2 166.141H105.2V159.731H89.2V166.141ZM57.2 166.141H79.6V159.731H57.2V166.141ZM57.2 146.912H95.6V140.502H57.2V146.912ZM57.2 108.453H86V102.043H57.2V108.453ZM57.2 127.682H162.8V121.272H57.2V127.682ZM118 198.19H44.4V89.2234H118V114.863H124.4V86.0185C124.4 84.2494 122.966 82.8136 121.2 82.8136H41.2C39.4304 82.8136 38 84.2494 38 86.0185V201.395C38 203.164 39.4304 204.6 41.2 204.6H121.2C122.966 204.6 124.4 203.164 124.4 201.395V137.297H118V198.19ZM217.2 118.068C217.2 138.778 198.554 145.982 188.694 146.899L137.2 146.912V140.502H188.4C189.024 140.428 210.8 138.079 210.8 118.068C210.8 99.8444 194.362 96.146 191.069 95.5883C189.427 95.3095 188.272 93.8224 188.413 92.1623C188.416 92.1014 188.422 92.0437 188.429 91.986C188.253 81.6886 181.939 78.4709 179.203 77.5607C174.096 75.8621 168.403 77.487 165.392 81.5252C164.691 82.4738 163.533 82.9578 162.355 82.7783C161.19 82.602 160.214 81.8008 159.818 80.6855C157.83 75.1154 154.947 71.5067 150.938 67.4909C140.909 57.5237 127.296 54.7706 114.56 60.1292C107.878 62.9464 102.038 69.3305 98.5504 77.6473L92.6496 75.1602C96.784 65.318 103.869 57.6839 112.08 54.2226C127.296 47.816 143.507 51.0818 155.453 62.9496C158.877 66.382 161.712 69.7247 163.92 74.0514C168.698 70.5131 175.142 69.4555 181.222 71.4778C189.005 74.0674 193.926 80.8265 194.72 89.8131C205.619 92.5629 217.2 101.277 217.2 118.068Z" fill="white"/>
</g>
<defs>
<linearGradient id="paint0_linear_186_388" x1="0" y1="25600" x2="25600" y2="0" gradientUnits="userSpaceOnUse">
<stop stop-color="#B0084D"/>
<stop offset="1" stop-color="#FF4F8B"/>
</linearGradient>
<clipPath id="clip0_186_388">
<rect width="256" height="256" fill="white"/>
</clipPath>
</defs>
</svg>
