<svg width="256" height="256" viewBox="0 0 256 256" fill="none" xmlns="http://www.w3.org/2000/svg">
<rect width="256" height="256" rx="60" fill="#F4F2ED"/>
<path d="M41 178.932V86.7605C41 84.2064 43.7404 82.6176 45.9372 83.887L125.212 129.969C127.25 131.155 128.503 133.344 128.503 135.709V227.881C128.503 230.435 125.763 232.024 123.566 230.754L44.2915 184.679C42.2532 183.493 41 181.304 41 178.94V178.932Z" fill="#6359FF"/>
<path d="M51.2893 70.2569L129.326 24.8894C131.364 23.7035 133.87 23.7035 135.909 24.8894L213.945 70.2569C216.685 71.8533 216.685 75.8366 213.945 77.4331L135.909 122.801C133.87 123.986 131.364 123.986 129.326 122.801L51.2893 77.4331C48.5489 75.8366 48.5489 71.8533 51.2893 70.2569Z" fill="#FFC806"/>
<path d="M136.731 227.888V142.413C136.731 139.859 139.471 138.271 141.668 139.54L213.944 181.563C216.685 183.159 216.685 187.142 213.944 188.739L141.668 230.761C139.471 232.038 136.731 230.442 136.731 227.888Z" fill="#0BBFBF"/>
</svg>
