<svg width="256" height="256" viewBox="0 0 256 256" fill="none" xmlns="http://www.w3.org/2000/svg">
<rect width="256" height="256" rx="60" fill="#242938"/>
<path d="M101.711 219.829C100.951 219.126 101.41 217.303 102.759 215.652C103.563 214.691 105.472 211.978 106.979 209.624C110.351 204.386 111.614 203.137 112.82 203.884C113.523 204.329 113.667 205.089 113.566 207.859L113.423 211.361L114.858 209.61C117.57 206.079 120.125 203.568 120.986 203.568C122.895 203.568 123.196 204.831 122.421 209.409C121.862 212.768 121.862 213.93 122.321 214.676C123.627 216.786 122.522 218.652 119.953 218.652C118.345 218.652 117.743 216.887 118.145 213.428L118.503 210.356L117.341 211.792C114.686 215.365 112.174 217.532 110.753 217.532C109.332 217.532 109.203 217.274 108.744 214.318C108.643 213.657 107.94 214.318 106.232 216.729C104.094 219.972 102.659 220.833 101.711 219.829Z" fill="black"/>
<path d="M91.8515 217.863C90.8469 216.6 90.7464 215.997 90.9473 213.557C91.1492 210.311 92.5268 207.25 94.8224 204.946C96.2576 203.511 97.0326 203.037 98.3817 203.037C99.1885 203.082 99.9912 202.893 100.692 202.492C101.711 201.487 103.821 202.492 104.725 204.242C107.137 209.381 101.41 218.121 94.9659 218.982C93.215 219.269 92.8131 219.126 91.8515 217.863ZM98.5396 214.232C100.13 212.616 101.083 210.481 101.223 208.218C101.123 207.156 100.764 206.783 99.6591 206.697C97.4058 206.453 95.3534 208.763 94.5354 212.538C93.9613 215.495 96.028 216.399 98.5396 214.232Z" fill="black"/>
<path d="M137.104 217.92C135.669 216.485 135.74 211.935 137.305 208.62C138.654 205.606 140.62 203.941 146.347 200.626C148.758 199.191 150.523 198.014 150.322 197.755C150.121 197.497 149.318 197.196 148.557 196.851C147.251 196.291 146.949 196.492 142.429 200.669C138.912 203.884 137.549 205.549 137.104 206.955C136.501 209.065 133.989 211.117 130.416 212.524C128.406 213.284 128.105 213.629 127.545 215.552C126.986 217.762 125.78 218.666 124.173 218.006C123.068 217.604 123.326 215.753 125.479 209.266C126.237 207.21 126.875 205.11 127.387 202.98C127.287 202.879 121.46 201.673 114.471 200.21L101.654 197.597L88.9812 197.353C79.0209 197.196 76.2653 196.995 76.2653 196.492C76.2653 195.646 77.5139 195.387 85.3071 194.684C92.4264 194.145 99.5802 194.265 106.677 195.043C109.289 195.287 110.036 195.244 109.634 194.784C108.586 193.622 85.3071 187.494 82.9964 187.795C81.8482 187.953 81.9918 188.096 84.6038 190.163C86.3117 191.512 87.2159 192.517 86.8141 192.617C85.8668 192.976 74.7583 187.092 74.7583 186.245C74.7583 185.642 75.806 185.585 81.4464 185.843C84.9305 186.013 88.4036 186.363 91.8517 186.891C93.1634 187.23 94.5159 187.384 95.8703 187.35C96.0138 187.25 95.4684 186.546 94.7077 185.915C93.5596 184.91 93.3586 184.48 93.6026 183.044C93.904 181.38 93.904 181.38 83.3552 173.644C77.069 169.065 72.749 165.549 72.749 165.033C72.749 163.597 71.486 162.42 69.1753 161.559L66.9651 160.713L66.6637 152.718C66.4628 148.298 66.3049 140.304 66.2619 134.979C66.2619 125.88 66.1614 125.177 65.0993 123.813C64.0373 122.45 64.0516 122.062 64.554 119.508C65.1567 116.25 64.9558 115.848 62.3868 115.848C59.8178 115.848 59.6025 115.374 60.4349 106.591C60.8942 102.17 61.296 98.4387 61.4395 98.3383C63.6569 98.5119 65.8475 98.9356 67.9698 99.6013C68.8739 99.8596 69.1323 99.5008 69.8929 96.7308L70.7397 93.559L69.1753 90.0858C67.9267 87.3159 67.4674 86.7131 66.7211 86.9714C65.1567 87.4163 63.8507 83.6561 65.3577 82.8524C65.9605 82.4935 65.7165 81.2449 63.9225 75.3606C58.5404 58.138 57.7367 52.1388 60.7076 52.0384C61.7553 52.0384 63.9655 54.6935 66.2331 58.7265C70.0078 65.3571 69.5485 65.1562 71.974 61.2381C77.2986 52.6268 79.0065 51.1916 81.4751 52.7416C82.15 53.1881 82.9233 53.4639 83.7284 53.5453C85.1636 53.5453 93.7749 50.3305 97.9513 48.1633C102.128 45.9961 103.692 46.111 103.491 48.5221C103.491 50.0291 102.888 50.7754 99.5157 53.8898L95.6406 57.5209L96.5448 60.5779C96.8276 61.7578 97.3133 62.8795 97.98 63.8932C102.721 61.43 107.334 58.7283 111.801 55.7986C119.135 51.2347 125.522 47.5605 125.981 47.6179C126.216 47.6917 126.42 47.8389 126.565 48.0379C126.71 48.2369 126.787 48.477 126.785 48.723C126.785 49.4263 124.374 51.2347 118.173 55.2532C113.394 58.3246 109.777 60.9941 110.122 60.9941C110.745 61.3217 111.323 61.7268 111.844 62.1997C113.753 63.9506 113.279 65.515 109.62 69.3757C105.529 73.5809 103.864 76.1643 100.19 83.6274C97.3198 89.3682 96.5735 90.1576 92.4545 92.2386C90.9044 92.9993 90.2873 93.6738 90.2873 94.4058C90.2512 95.1294 89.9675 95.8185 89.4836 96.3577C88.4789 97.4628 86.6131 103.907 87.1729 104.409C88.824 104.981 90.5059 105.46 92.2105 105.844C93.8116 106.1 95.3678 106.583 96.8318 107.28C96.8318 107.983 93.8179 119.393 93.5165 119.91C93.3586 120.153 92.7128 120.211 92.0095 120.053C91.0049 119.795 90.804 119.91 90.847 120.914C90.9122 121.728 91.0466 122.534 91.2489 123.325C91.5503 124.373 91.8086 124.129 93.5165 120.957C96.7938 115.723 100.784 110.969 105.371 106.835C107.539 105.294 109.807 103.899 112.16 102.658C114.982 100.942 118.167 99.9096 121.46 99.6443C124.008 99.2375 126.605 99.2375 129.153 99.6443C133.458 100.448 138.998 103.318 141.309 105.873L143.232 108.026H148.055C152.217 108.026 153.221 108.227 155.446 109.461C156.887 110.235 158.265 111.123 159.565 112.116C162.711 115.094 165.357 118.559 167.401 122.378C168.262 124.186 168.664 124.689 168.836 124.043C168.758 122.901 168.398 121.797 167.789 120.828L166.483 118.46L167.487 116.551C168.033 115.446 168.535 114.384 168.635 114.183C168.736 113.982 168.334 113.982 167.731 114.341C167.128 114.7 166.425 114.743 166.296 114.484C165.248 113.437 158.201 100.132 158.402 99.5582C159.902 98.6643 161.528 98.0015 163.225 97.592C164.842 97.2522 166.39 96.6407 167.803 95.7836C167.631 94.8503 167.396 93.9296 167.1 93.028C166.462 91.141 165.314 89.4672 163.784 88.1913C162.855 87.1864 161.77 86.3382 160.57 85.6797C159.464 85.6797 152.977 82.3213 150.609 80.513C147.452 78.0444 146.304 77.4847 140.304 75.6332C135.382 74.0689 135.138 73.9253 135.138 72.6193C135.138 70.0072 136.444 69.1461 142.17 68.0984C145.041 67.5387 147.653 66.9789 147.911 66.9359C148.614 66.6775 143.347 61.195 139.3 57.9945C133.315 53.2152 133.171 53.1148 133.171 51.8518C133.171 50.0004 134.879 48.7948 137.29 48.8379C139.334 49.1503 141.255 50.0136 142.845 51.3351L146.418 53.6889L141.711 48.924C137.348 44.4461 137.104 43.9868 137.104 42.0062C137.104 40.0257 137.305 39.8391 138.353 39.4372C138.681 39.3495 138.977 39.1664 139.201 38.911C139.426 38.6555 139.57 38.3392 139.615 38.002C139.615 36.5668 141.266 35.8348 144.237 36.2367C147.208 36.6386 155.446 40.9585 161.23 45.3359C162.415 46.2995 163.694 47.141 165.047 47.8476C164.691 46.2427 164.131 44.6898 163.383 43.2262C161.617 39.1358 161.502 38.7627 162.22 37.514C162.491 37.1004 162.849 36.7518 163.271 36.4934C163.692 36.235 164.165 36.0732 164.657 36.0197C165.148 35.9661 165.645 36.0222 166.112 36.1838C166.579 36.3454 167.005 36.6086 167.358 36.9543C169.913 38.9636 176.802 51.5791 178.668 57.6644C180.234 63.5391 181.077 69.5829 181.179 75.6619C181.079 78.5324 181.38 79.7379 183.188 84.4598C183.896 86.4967 184.755 88.478 185.758 90.3872C186.002 90.6455 188.628 90.0858 191.886 89.0381C193.827 88.3096 195.852 87.8274 197.914 87.6029C198.316 88.0622 197.211 102.343 196.708 103.146C196.177 103.607 195.533 103.919 194.842 104.05C193.996 104.251 193.407 104.553 193.407 104.696C193.964 105.727 194.639 106.69 195.416 107.567C196.852 109.174 197.383 110.337 197.139 110.839C196.976 111.255 196.888 111.698 196.88 112.145C196.88 112.446 197.038 114.355 197.139 116.451C197.239 118.546 197.483 121.129 197.684 122.191C198.086 124.502 197.383 126.655 192.905 137.419C190.116 144.563 188.226 152.026 187.279 159.636C186.836 162.257 186.094 164.819 185.069 167.271C184.04 169.271 183.458 171.469 183.361 173.716C183.361 175.825 183.504 176.27 184.107 176.026C185.98 175.532 187.911 175.295 189.848 175.323C188.56 176.837 187.185 178.275 185.729 179.629L181.595 183.733L184.466 182.772C187.939 181.624 191.455 180.963 191.455 181.566C191.455 181.825 190.609 182.427 189.604 183.001C187.336 184.164 182.256 188.082 183.662 187.58C185.321 187.244 187.007 187.061 188.7 187.034C193.422 186.776 193.622 186.676 180.088 190.493C170.759 192.922 161.659 196.159 152.891 200.166C148.586 202.334 148.586 202.434 149.332 203.338C150.078 204.243 150.48 206.051 149.935 209.266C149.633 211.031 149.676 211.376 150.38 211.376C151.357 211.734 152.223 212.343 152.891 213.141C153.627 213.981 154.588 214.594 155.661 214.906C156.924 214.906 156.867 214.748 153.953 210.6C151.786 207.644 151.743 206.18 153.652 204.228C156.522 201.358 162.751 203.066 161.445 206.481C161.33 206.696 161.165 206.88 160.963 207.018C160.762 207.155 160.531 207.243 160.289 207.272C160.047 207.302 159.801 207.273 159.573 207.188C159.345 207.102 159.14 206.964 158.976 206.783C158.537 206.467 158.01 206.298 157.47 206.298C156.929 206.298 156.402 206.467 155.963 206.783C156.374 208.102 157.059 209.319 157.972 210.357C160.684 214.074 160.986 216.341 158.933 217.647C157.828 218.394 157.326 218.451 155.116 217.891C151.887 217.188 149.274 215.581 148.873 214.117C148.629 213.112 148.471 213.213 146.261 215.337C144.313 217.345 141.712 218.592 138.927 218.853C138.232 218.72 137.598 218.367 137.118 217.848L137.104 217.92ZM143.634 213.744C145.744 211.634 147.007 208.362 146.045 207.256C145.299 206.295 142.931 206.453 141.969 207.5C140.017 209.668 138.855 214.676 140.261 215.294C141.41 215.796 141.668 215.667 143.577 213.744H143.634ZM131.22 208.864C133.186 207.429 133.631 206.252 132.325 205.749C131.32 205.391 129.756 206.797 129.11 208.62C128.464 210.443 128.751 210.471 131.162 208.864H131.22ZM140.017 198.817C141.223 197.809 142.364 196.726 143.433 195.574C143.534 195.43 142.515 194.828 141.209 194.325C137.793 192.89 133.674 193.062 128.894 194.828C127.529 195.25 126.215 195.823 124.976 196.535C126.132 197.232 127.365 197.79 128.65 198.2C130.416 198.852 132.129 199.639 133.774 200.554C134.424 201.027 135.16 201.368 135.941 201.559C137.427 200.848 138.789 199.903 139.974 198.76L140.017 198.817ZM163.985 191.426C167.315 189.819 172.439 187.565 175.467 186.403C178.682 185.14 180.892 183.992 180.892 183.532C181.079 182.681 181.436 181.876 181.94 181.164C182.5 180.217 182.844 179.456 182.643 179.456C176.535 181.786 170.547 184.421 164.703 187.35C157.412 190.866 156.766 191.326 156.766 192.531C156.766 193.737 157.211 194.684 157.713 194.383C157.757 194.34 160.613 192.933 163.928 191.369L163.985 191.426ZM158.862 116.077C158.127 115.29 157.298 114.596 156.393 114.011C155.546 113.408 155.848 113.81 157.154 115.015C159.608 117.283 160.369 117.728 158.862 116.077ZM182.428 215.896C181.391 214.743 180.284 213.655 179.112 212.638C178.821 213.379 178.637 214.157 178.567 214.949C178.483 216.001 178.19 217.026 177.706 217.963C176.902 218.925 174.836 218.824 174.391 217.805C174.486 215.558 174.857 213.331 175.496 211.175C177.362 203.338 177.907 202.334 180.074 202.879C180.677 203.037 181.323 202.879 181.509 202.635C182.112 201.731 185.585 201.975 186.489 202.98C187.925 204.644 187.236 208.821 185.054 210.572C184.351 211.175 184.351 211.332 185.054 212.481C185.829 213.457 186.766 214.292 187.824 214.949C189.934 216.298 190.336 217.82 188.786 218.666C186.719 219.728 185.571 219.226 182.342 215.896H182.428ZM182.184 207.96C183.432 206.797 183.619 205.592 182.586 205.592C181.552 205.592 179.715 207.96 179.715 208.964C179.715 209.969 180.476 209.467 182.184 207.96Z" fill="black"/>
<path d="M161.775 218.107C160.971 217.805 160.67 217.36 160.871 216.801C161.735 213.428 162.79 210.108 164.028 206.855C164.677 206.176 165.367 205.539 166.095 204.946C167.659 203.683 168.162 203.511 172.022 203.511C175.883 203.511 176.328 203.611 176.328 204.472C176.328 205.907 175.065 206.625 171.19 206.984C168.32 207.228 167.53 207.486 167.372 208.189C167.214 208.893 167.573 209.05 169.74 209.05C171.908 209.05 172.295 209.151 172.295 210.256C172.295 211.806 171.649 212.208 168.578 212.567C165.507 212.925 164.918 213.873 168.033 213.672C171.649 213.37 172.898 213.873 172.697 215.423C172.553 216.729 172.353 216.858 168.736 217.389C166.626 217.69 164.516 218.092 163.957 218.236C163.232 218.407 162.474 218.362 161.775 218.107ZM77.7721 217.26C75.8633 213.643 79.2791 205.649 83.8144 203.338C86.5269 201.903 90.2872 202.635 90.2872 204.587C90.2872 205.85 88.6367 206.697 87.0723 206.295C85.2209 205.85 83.8144 206.898 82.4509 209.768C80.4416 214.074 80.8435 214.389 85.8667 212.538C89.3399 211.275 90.402 211.677 89.383 213.887C88.6367 215.495 84.0153 217.762 80.7 218.064C78.6763 218.264 78.2601 218.107 77.7721 217.26Z" fill="black"/>
<path d="M107.84 191.268C106.835 190.924 104.367 190.221 102.358 189.718C100.047 189.159 98.6404 188.556 98.4825 188.054C98.2266 187.242 97.91 186.45 97.5353 185.685C97.0343 184.678 96.8731 183.535 97.076 182.428L97.3774 180.662L90.9476 175.883C87.4314 173.228 82.6521 169.755 80.3988 168.205C76.2654 165.334 74.2131 163.167 74.2131 161.717C74.3523 160.833 74.603 159.97 74.9594 159.148C75.921 156.938 75.0598 156.637 73.2084 158.603C72.1033 159.751 72.0028 159.751 70.5389 159.048C69.075 158.345 68.9746 158.201 69.8357 150.81C69.8357 150.408 69.7352 146.504 69.5343 142.199C69.3334 137.893 69.032 132.052 68.8741 129.181C68.9372 126.943 68.5969 124.711 67.8694 122.594C66.7643 120.742 67.525 116.853 68.9315 116.853C71.0413 116.953 85.5656 119.221 86.5272 119.565C87.4888 119.91 87.6754 120.728 88.2351 124.201C88.5795 126.454 89.1393 129.325 89.3833 130.473C89.6539 131.101 89.7316 131.795 89.6063 132.467C89.4811 133.14 89.1586 133.759 88.68 134.248C85.6661 138.367 81.2456 150.681 81.303 154.757V157.527L82.0637 155.761C83.1114 153.25 87.3883 146.217 87.8906 146.217C88.0916 146.217 88.1346 146.964 87.9911 147.868C87.4888 150.336 88.9957 158.531 90.2013 160.239C91.6365 162.191 94.1769 164.301 95.1241 164.301C95.8274 164.301 95.8274 164.2 95.1241 163.397C94.6184 162.845 94.3193 162.135 94.2773 161.387C94.2773 160.34 94.2773 160.34 95.4829 161.545C96.6135 162.517 97.8625 163.341 99.2001 163.999C101.568 165.205 101.769 165.435 102.071 167.631C102.349 171.225 102.147 174.84 101.468 178.38C101.123 179.643 101.123 179.643 102.731 178.136C103.96 176.944 105.084 175.648 106.089 174.261L107.854 171.893L109.29 172.797C110.998 173.859 114.772 177.275 114.772 177.777C114.512 178.511 114.155 179.206 113.71 179.844C112.863 181.279 112.763 181.997 113.064 184.91C113.366 188.082 113.308 188.384 112.304 188.943C111.598 189.358 111.048 189.994 110.739 190.752C110.194 192.101 110.136 192.101 107.682 191.197L107.84 191.268Z" fill="#6A5439"/>
<path d="M127.057 187.207C124.511 186.175 122.387 184.314 121.03 181.925C118.077 177.612 114.425 173.824 110.222 170.716C107.352 168.75 104.697 166.037 104.195 164.43C104.055 164.073 103.83 163.756 103.54 163.506C103.25 163.256 102.903 163.08 102.53 162.995C101.727 162.83 100.936 162.614 100.162 162.349C98.913 161.847 95.4972 156.163 95.0953 153.895C94.7365 151.944 95.2388 151.14 98.2097 149.432C102.085 147.121 105.386 146.318 113.236 145.715C122.336 145.012 125.55 144.28 130.373 141.739C131.52 141.012 132.781 140.483 134.104 140.175C133.393 141.206 132.526 142.121 131.535 142.887C128.765 145.413 128.966 145.614 133.042 144.323C136.334 143.156 139.062 140.787 140.678 137.692L141.41 136.228L143.074 138.797C145.945 143.218 155.589 149.647 161.115 150.853C162.326 151.05 163.47 151.543 164.445 152.288C165.191 153.135 165.248 153.494 164.689 154.8C164.405 155.359 164.267 155.981 164.287 156.608C164.646 156.967 166.253 154.398 166.655 152.891C167.057 151.384 167.66 151.082 168.664 151.728C169.267 152.13 169.267 152.532 168.463 154.599C167.258 157.727 164.746 160.34 162.823 160.34C161.675 160.34 161.172 160.799 160.067 162.851C158.412 165.629 155.891 167.787 152.891 168.994C151.14 169.597 150.581 170.429 151.887 170.429C152.593 170.344 153.287 170.175 153.953 169.927C155.259 169.424 155.389 169.468 155.015 170.774C153.828 174.455 151.931 177.868 149.432 180.82C146.763 183.834 141.941 186.188 136.358 187.25C131.535 188.211 129.325 188.154 127.057 187.25V187.207ZM126.053 181.164C126.053 179.155 127.488 177.548 130.531 176.443C133.2 175.438 133.903 175.381 135.812 175.883C138.826 176.644 139.07 176.601 137.664 175.438C136.257 174.275 131.923 174.132 128.32 175.338C126.11 176.084 125.708 176.443 125.149 178.208C124.445 180.26 124.747 182.729 125.55 182.227C125.691 182.101 125.803 181.946 125.877 181.772C125.952 181.598 125.987 181.411 125.981 181.222L126.053 181.164ZM125.149 172.065C127.416 171.262 127.617 171.262 129.569 172.166C131.521 173.07 131.679 173.07 134.851 171.965C136.242 171.377 137.748 171.108 139.257 171.175C140.563 171.477 141.51 170.716 140.692 169.912C140.29 169.511 134.32 170.415 132.353 171.218C131.977 171.292 131.59 171.285 131.216 171.198C130.843 171.112 130.492 170.947 130.186 170.716C128.837 169.812 127.072 169.869 123.312 170.874C120.943 171.52 120.441 171.879 121.446 172.481C122.45 173.084 122.364 173.07 125.077 172.065H125.149ZM135.109 166.138C135.779 165.076 136.629 164.138 137.621 163.368C137.688 163.372 137.755 163.362 137.818 163.338C137.881 163.314 137.938 163.278 137.985 163.23C138.033 163.183 138.07 163.125 138.093 163.063C138.117 163 138.127 162.933 138.123 162.866C138.123 161.717 136.257 162.521 134.305 164.43C132.64 166.037 131.937 166.439 131.076 166.138C130.74 165.991 130.436 165.78 130.182 165.516C129.928 165.252 129.729 164.94 129.596 164.599C129.462 164.257 129.398 163.893 129.405 163.527C129.413 163.16 129.493 162.799 129.641 162.464C130.244 160.914 129.641 157.498 128.478 155.388C127.531 153.723 127.531 153.666 128.478 152.618C129.662 151.442 130.381 149.877 130.502 148.212C130.502 147.15 130.301 147.25 128.493 149.26C126.684 151.269 126.383 151.427 124.374 151.126C120.656 150.566 113.724 149.819 112.318 149.819C111.183 149.969 110.124 150.471 109.29 151.255L107.682 152.69L111.457 152.518C115.877 152.216 124.833 153.58 126.038 154.685C126.943 155.489 127.99 158.99 127.99 161.115C127.849 162.122 127.415 163.065 126.742 163.827C125.536 165.262 125.536 165.392 126.383 165.65C127.26 166.129 128.058 166.738 128.751 167.458C131.004 169.74 132.569 169.453 135.037 166.138H135.109ZM100.664 157.44C100.044 156.576 99.52 155.647 99.0996 154.67C98.1954 152.46 97.3486 152.259 97.3486 154.226C97.5331 155.466 98.198 156.585 99.2 157.34C101.051 159.105 102.214 159.148 100.65 157.44H100.664ZM153.336 157.039C154.374 156.298 155.335 155.457 156.207 154.527C155.375 154.752 154.578 155.09 153.839 155.532C152.125 156.34 150.294 156.868 148.413 157.096C145.902 157.34 145.141 157.24 143.792 156.393C142.873 155.79 142.127 155.13 142.127 154.871C142.127 154.613 143.562 154.427 145.299 154.427C148.055 154.427 153.279 153.264 154.298 152.36C154.542 152.159 152.576 152.116 149.992 152.216C145.012 152.417 138.324 151.657 137.176 150.709C136.586 149.993 136.103 149.195 135.74 148.341C134.894 146.289 134.305 146.992 134.793 149.504C135.02 150.53 135.524 151.474 136.25 152.233C136.977 152.992 137.897 153.537 138.912 153.809C139.86 154.068 140.348 154.57 140.52 155.245C140.721 156.407 142.931 157.857 144.538 157.857C145.053 157.853 145.556 158.014 145.974 158.316C147.14 158.969 148.454 159.315 149.791 159.321C151.137 158.815 152.367 158.044 153.408 157.053L153.336 157.039ZM119.465 157.842C120.564 157.291 121.757 156.95 122.981 156.838C124.646 156.838 125.048 156.091 123.584 155.733C122.413 155.601 121.23 155.634 120.068 155.833C118.345 155.991 116.61 155.991 114.887 155.833C112.016 155.489 110.065 155.689 109.605 156.393C109.462 156.637 110.108 156.838 111.041 156.838C112.165 156.903 113.255 157.248 114.212 157.842C116.078 159.105 117.011 159.105 119.451 157.842H119.465Z" fill="#6A5439"/>
<path d="M156.996 186.145C156.298 184.569 155.681 182.96 155.144 181.323L154.039 177.95L155.848 173.472C156.852 171.018 157.656 168.851 157.656 168.707C158.208 167.872 158.864 167.11 159.608 166.439L161.502 164.531L162.062 168.147C162.565 171.922 165.736 179.457 166.741 179.457C167.042 179.457 167.186 179.155 167.042 178.811C166.662 177.35 166.36 175.87 166.138 174.376C165.636 171.909 165.636 169.366 166.138 166.899L166.841 163.124L167.243 165.837C167.688 169.252 168.951 172.525 170.257 173.73C171.305 174.677 171.305 174.677 171.004 172.424C170.153 166.606 170.338 160.683 171.549 154.929C171.85 153.766 171.85 153.766 173.357 154.671C175.806 156.64 177.738 159.177 178.983 162.062C179.486 163.124 179.988 163.87 180.146 163.77C180.548 163.325 178.983 156.594 178.036 154.728C176.831 152.95 175.43 151.314 173.86 149.848L170.473 146.633L174.635 147.035C176.748 147.165 178.841 147.521 180.878 148.097C181.607 148.418 182.392 148.589 183.188 148.6C183.533 148.241 180.978 145.327 178.883 143.72C177.798 142.884 176.6 142.207 175.324 141.711C172.798 140.907 172.195 140.275 172.195 138.84C171.993 137.237 171.642 135.656 171.147 134.118L170.114 130.703L171.262 127.129L172.424 123.57L170.975 120.943L169.54 118.288L170.846 116.523C171.536 115.71 171.971 114.711 172.094 113.652C171.951 112.633 172.597 112.217 177.979 110.28C181.294 109.074 185.069 107.61 186.375 107.065C187.323 106.616 188.32 106.279 189.346 106.06C190.305 106.579 191.158 107.275 191.857 108.112C193.608 109.978 193.766 110.38 193.508 112.088C193.307 113.25 193.407 114.097 193.766 114.298C194.369 114.7 194.512 117.614 193.967 117.614C193.184 117.491 192.412 117.308 191.656 117.068C190.76 116.79 189.813 116.721 188.886 116.867C188.24 117.111 188.886 117.614 191.053 118.719C192.349 119.287 193.557 120.036 194.641 120.943C195.402 121.847 194.397 126.282 192.69 129.899C188.513 138.51 186.662 144.825 184.896 156.637C184.559 159.986 183.692 163.261 182.327 166.339C181.116 168.635 180.448 171.178 180.375 173.773C180.017 178.079 180.017 178.079 178.51 178.553C177.706 178.811 175.898 179.557 174.491 180.217C172.381 181.165 168.607 182.829 159.307 186.805C157.757 187.508 157.656 187.451 156.996 186.145ZM103.362 172.223C103.362 169.252 104.022 168.348 105.271 169.554C105.974 170.314 105.974 170.558 105.127 172.424C103.764 175.381 103.362 175.338 103.362 172.223Z" fill="#6A5439"/>
<path d="M163.483 168.305C162.522 163.583 162.88 161.818 164.789 161.818C165.851 161.818 165.851 161.718 164.99 165.751C164.186 169.41 163.828 170.013 163.483 168.305ZM92.268 150.15C92.268 147.696 94.3347 145.083 97.406 143.562C100.89 142.278 104.47 141.271 108.113 140.548C123.383 137.233 131.98 133.013 131.98 128.837V127.588L129.626 129.339C128.17 130.381 126.656 131.339 125.091 132.21C122.135 133.645 113.739 135.64 107.409 136.343C98.7121 137.19 92.8707 139.099 89.3114 142.084L87.6035 143.519L87.948 142.084C88.5508 139.572 94.5356 131.076 97.6069 128.263C107.553 119.121 115.289 115.906 126.455 116.25C131.98 116.408 132.382 116.508 135.497 118.216C143.347 122.522 144.108 128.421 137.764 134.85C134.051 138.321 129.698 141.037 124.948 142.845C122.235 143.691 120.427 143.95 105.501 145.514C97.8079 146.361 95.6981 147.165 94.1337 149.82C92.7703 152.216 92.268 152.317 92.268 150.15ZM159.909 148.844C158.555 148.529 157.277 147.948 156.149 147.136C156.149 147.136 158.46 146.992 161.273 146.935C164.947 146.935 166.899 147.093 168.162 147.638C169.769 148.298 169.87 148.442 168.966 148.801C165.971 149.322 162.909 149.336 159.909 148.844Z" fill="#6A5439"/>
<path d="M156.695 144.481C149.662 142.557 143.074 137.893 142.012 134.118C141.467 132.009 142.213 127.186 143.074 127.186C143.333 127.186 143.979 127.832 144.51 128.621C148.403 132.77 152.696 136.525 157.326 139.83C161.323 141.244 165.486 142.132 169.712 142.471C172.582 142.773 175.754 143.82 175.754 144.481C173.545 144.671 171.325 144.723 169.109 144.638C165.449 144.638 161.775 144.739 160.914 144.882C159.495 144.994 158.067 144.858 156.695 144.481ZM91.4069 143.419C91.5074 142.213 92.1102 141.754 95.0236 140.347C97.9371 138.941 99.645 138.539 106.333 137.692C110.639 137.19 115.274 136.53 116.58 136.257C117.887 135.984 118.848 135.998 118.59 136.257C117.643 137.061 114.729 137.864 106.534 139.472C99.358 140.907 97.2769 141.481 94.5644 142.988L91.249 144.811L91.4069 143.419Z" fill="#6A5439"/>
<path d="M164.947 140.548C158.862 138.998 153.738 135.984 147.897 130.645C144.438 127.488 143.835 126.024 144.381 122.306L144.84 119.436L148.098 119.278C152.777 119.077 155.044 119.78 159.579 122.995C167.272 128.478 168.88 131.248 162.45 127.932L158.934 126.124L161.201 128.076C162.45 129.138 163.957 130.545 164.617 131.248C166.382 133.099 170.358 139.242 170.444 140.189C170.53 141.136 168.306 141.409 164.947 140.548ZM93.8181 127.688C93.8181 126.583 96.8751 121.201 99.8891 116.982C106.678 107.423 115.877 101.941 125.235 101.84C127.649 101.672 130.059 102.216 132.167 103.405C137.19 105.816 139.343 107.624 141.108 111.399C142.281 113.425 142.882 115.732 142.845 118.073C142.845 123.196 142.343 123.354 138.424 119.68C136.616 117.718 134.302 116.293 131.736 115.561C123.742 113.107 111.787 115.059 103.735 120.182C101.652 121.638 99.672 123.235 97.808 124.962C94.263 128.234 93.8181 128.593 93.8181 127.688Z" fill="#6A5439"/>
<path d="M159.565 120.8C155.389 118.532 155.044 118.489 149.963 118.231L144.739 117.987L144.38 114.671C144.136 111.901 144.237 111.241 144.94 110.739C147.351 108.93 152.92 111.198 158.402 116.221C161.718 119.293 165.091 123.153 164.344 123.11C162.71 122.427 161.115 121.656 159.565 120.8ZM77.026 115.575C69.2902 114.513 62.8031 113.466 62.6739 113.265C62.509 111.282 62.591 109.286 62.9179 107.323C63.3198 103.161 63.6786 101.797 64.2239 101.697C65.1855 101.496 93.3874 108.873 93.9328 109.433C94.4782 109.992 92.2249 117.283 91.5791 117.427C91.249 117.484 84.7188 116.637 77.026 115.575ZM69.4338 110.897C69.9715 110.276 70.285 109.493 70.3241 108.673C70.3631 107.853 70.1254 107.044 69.649 106.376C69.426 106.12 69.1485 105.918 68.8371 105.785C68.5256 105.651 68.1881 105.588 67.8494 105.602C67.5106 105.616 67.1793 105.705 66.8797 105.864C66.5802 106.023 66.32 106.247 66.1184 106.519C65.7434 107.188 65.5721 107.952 65.6256 108.717C65.6792 109.482 65.9552 110.215 66.4198 110.825C67.4245 111.801 68.2138 111.801 69.4338 110.897ZM165.808 108.227C162.938 103.204 162.134 101.64 162.593 101.396C163.741 100.692 194.613 91.9949 195.158 92.1958C195.339 92.2582 195.49 92.385 195.582 92.5518C195.675 92.7187 195.703 92.9139 195.661 93.1C195.394 94.6485 195.211 96.2104 195.115 97.7788C195.082 99.2365 194.86 100.684 194.455 102.084C194.254 102.3 188.485 104.409 181.538 106.821C174.592 109.232 168.679 111.342 168.363 111.442C168.047 111.542 166.899 110.136 165.808 108.227ZM193.852 97.5779C194.613 96.1426 193.953 95.0088 192.417 95.0088C190.881 95.0088 190.207 96.0709 190.666 97.5779C190.982 98.8265 193.077 98.8265 193.838 97.5779H193.852ZM77.3274 102.902L71.0843 101.295L71.3856 99.5297C71.6758 98.1982 72.1138 96.9032 72.6917 95.669L73.6963 93.6023L71.7014 89.3684C69.9361 85.9526 69.7352 85.1489 70.2662 84.6035C71.8162 83.0392 90.3591 71.9306 91.9235 71.6867C93.014 71.4354 94.0099 70.8777 94.7939 70.0792C96.4197 68.778 98.21 67.6971 100.119 66.8643C102.104 66.0039 104.023 64.9964 105.859 63.8504C107.869 62.4152 109.577 62.6879 109.778 64.3958C109.878 65.4004 109.232 66.5629 106.907 69.175C104.137 72.3468 101.425 76.3511 97.1477 83.9577C95.9651 86.0413 94.2517 87.7745 92.1819 88.9809C89.455 90.7893 88.7517 91.4926 88.7517 92.4972C88.6735 93.3899 88.3832 94.251 87.9049 95.0088C86.9884 96.6632 86.2614 98.4156 85.7378 100.233C85.3759 101.692 84.7901 103.087 84.0012 104.366C81.7517 104 79.5238 103.511 77.3274 102.902ZM170.272 94.9084C168.105 88.8805 167.502 87.474 166.899 87.474C166.296 87.474 165.65 86.6128 164.99 85.5651C163.885 83.7998 163.426 83.5558 160.57 82.9531C156.652 82.1493 156.393 81.9915 151.269 78.5183C148.638 76.5112 145.543 75.1984 142.271 74.7006C140.514 74.4179 138.805 73.8963 137.19 73.1506C136.645 71.2417 139.702 70.3806 147.997 70.1223C153.982 69.9788 154.283 69.8783 156.795 68.2708C158.905 66.9074 159.206 66.563 158.23 66.4625C157.243 66.4681 156.266 66.6731 155.36 67.0653C152.389 68.3139 151.384 68.113 149.834 65.8023C147.686 63.3599 145.349 61.09 142.845 59.0137C136.616 53.646 135.669 52.4835 136.358 51.7372C137.047 50.9909 139.773 52.4405 144.05 55.2965C147.021 57.3058 155.532 62.3434 155.862 62.3434C157.297 62.3434 148.686 52.0386 142.486 46.1973C140.132 43.9871 139.372 42.1787 140.534 41.4755C141.338 40.9731 143.907 42.5806 152.188 48.8094C159.981 54.6938 162.751 56.3012 159.838 53.2442C155.441 49.1624 150.718 45.4471 145.715 42.1357C143.204 40.7004 142.242 39.5666 142.845 38.6624C142.966 38.514 143.119 38.3953 143.294 38.3157C143.468 38.236 143.658 38.1975 143.849 38.2032C145.112 38.2032 153.193 42.5088 158.029 45.695C162.866 48.8811 164.918 51.1344 164.1 52.34C163.282 53.5456 163.598 53.847 164.818 53.5456C165.286 53.4677 165.765 53.4998 166.219 53.6393C166.672 53.7788 167.087 54.0219 167.43 54.3493L168.865 55.4975L168.564 52.9428C167.975 50.1941 167.1 47.5147 165.952 44.9487C163.627 39.5666 163.584 38.4041 165.492 38.806C167.803 39.2222 175.539 53.7896 177.563 61.3388C179.17 67.3667 179.572 72.8922 178.668 75.9062C177.964 78.1164 178.007 78.2743 179.773 82.4507C182.184 88.0194 183.533 91.8944 183.232 92.2532C182.93 92.612 171.549 96.0135 171.018 96.0135C170.817 96.0135 170.516 95.5112 170.272 94.9084ZM68.0273 81.5896C67.6254 80.8864 64.2096 70.1079 62.6452 64.5537C61.0378 58.7123 60.7938 56.3586 61.7984 56.3586C62.5447 56.3586 64.1091 58.8702 68.1708 66.4051C69.893 69.5625 71.5005 72.3899 71.7444 72.6913C72.5051 73.4376 72.3042 72.1316 71.3426 70.2227L70.5389 68.4574L72.706 64.7976C76.6242 58.1526 78.7339 55.3396 79.7386 55.3396C80.2983 55.3396 81.6044 56.5021 82.9104 58.21C84.6639 60.3164 86.5225 62.333 88.479 64.2523C91.9092 67.4671 92.3541 68.5579 90.7036 69.5769C89.5411 70.2801 86.2688 68.7158 83.0109 65.8597L80.5997 63.7499L79.9395 64.9555C79.1358 66.3907 79.0353 68.1704 79.7386 68.6153C79.9969 68.7732 80.3414 68.3713 80.5423 67.6681L80.8437 66.4051L84.3169 68.7158C85.5146 69.4265 86.6395 70.2533 87.6753 71.1843C87.3739 71.4427 68.63 81.9484 68.4291 81.9484C68.3407 81.9202 68.2592 81.8737 68.1899 81.8119C68.1207 81.75 68.0652 81.6743 68.0273 81.5896ZM91.005 65.056L88.5795 62.1856L90.0865 60.98C93.4161 58.2674 93.7175 58.3679 95.325 63.1471L96.3296 66.1037L95.2245 66.9648C94.7955 67.3383 94.3114 67.6433 93.7893 67.869C92.755 67.0428 91.8205 66.0987 91.005 65.056ZM85.7808 58.7698C84.8766 57.6072 84.3456 56.5595 84.6326 56.3012C85.9817 55.5448 87.3934 54.9062 88.8522 54.3924C90.9045 53.5456 94.3777 51.9381 96.5449 50.7756L100.406 48.6659V49.9719C100.406 50.9335 99.401 52.0817 96.2866 54.7942C94.262 56.6045 92.0707 58.2191 89.742 59.6165L87.3739 60.8365L85.7808 58.7698Z" fill="#6A5439"/>
<path d="M114.629 198.961C114.091 198.012 113.814 196.937 113.825 195.847C113.707 194.643 113.505 193.449 113.222 192.273C112.964 191.728 113.366 190.838 114.37 189.718C114.881 189.303 115.268 188.755 115.491 188.136C115.713 187.516 115.763 186.848 115.633 186.202C115.332 184.437 116.379 180.26 117.183 180.117C117.442 180.117 118.489 181.265 119.551 182.829C120.808 184.708 122.496 186.258 124.474 187.35C125.592 187.875 126.612 188.589 127.488 189.46C127.488 189.661 126.885 189.819 126.139 189.862C124.815 189.98 123.503 190.215 122.221 190.565L119.695 191.268H124C126.369 191.268 128.981 191.268 129.741 191.369H131.248L129.985 191.928C124.058 194.397 120.384 196.234 118.575 197.669C116.48 199.363 115.576 199.664 114.629 198.961ZM149.605 195.043C147.894 194.198 146.113 193.506 144.28 192.976C140.448 191.828 138.797 190.766 139.974 190.264C140.635 190.02 148.586 191.828 151.14 192.775C151.743 193.034 151.987 192.876 151.987 192.33C151.987 191.225 149.031 190.02 145.615 189.661C144.587 189.63 143.576 189.39 142.644 188.958C142.543 188.714 143.505 188.01 144.854 187.307C146.643 186.259 148.268 184.954 149.676 183.432C150.982 181.997 152.188 181.021 152.446 181.265C153.042 182.353 153.564 183.48 154.011 184.638C154.958 187.049 155.058 187.752 154.556 188.814C154.229 189.868 154.145 190.982 154.312 192.072C154.479 192.574 154.515 193.11 154.417 193.63C154.319 194.15 154.09 194.636 153.752 195.043C152.776 196.292 151.872 196.292 149.605 195.043ZM134.434 191.168C133.631 191.024 132.999 190.622 132.999 190.221C132.999 189.819 133.702 189.517 135.755 189.517C137.807 189.517 138.525 189.661 138.525 190.264C138.529 190.36 138.513 190.456 138.48 190.546C138.447 190.636 138.396 190.719 138.331 190.79C138.266 190.86 138.187 190.918 138.1 190.958C138.012 190.998 137.918 191.021 137.822 191.024C137.42 191.024 136.817 191.125 136.386 191.168C135.739 191.265 135.081 191.265 134.434 191.168Z" fill="#55514C"/>
<path d="M127.057 187.207C124.308 186.053 122.039 183.991 120.628 181.365C117.947 177.182 114.458 173.576 110.366 170.759C107.409 168.85 104.74 166.095 104.194 164.43C104.063 164.068 103.84 163.747 103.549 163.495C103.257 163.244 102.907 163.072 102.53 162.995C101.783 162.851 100.822 162.593 100.42 162.492C98.6545 162.047 94.392 153.752 95.0378 152.044C95.4971 150.838 99.6161 148.427 103.132 147.265C106.524 146.394 109.997 145.875 113.495 145.715C122.106 145.054 125.306 144.279 130.129 141.94C131.324 141.236 132.608 140.696 133.946 140.333C133.237 141.345 132.364 142.233 131.363 142.959C128.493 145.428 128.808 145.729 132.798 144.523C135.845 143.566 138.435 141.523 140.075 138.783C140.45 138.045 140.934 137.368 141.51 136.773C142.167 137.449 142.727 138.212 143.175 139.041C145.586 143.06 155.69 149.748 161.115 150.896C164.287 151.556 165.593 152.862 164.789 154.67C163.985 156.479 164.028 157.239 164.99 156.335C165.601 155.487 166.085 154.554 166.425 153.565C167.128 151.455 167.573 151.154 168.635 151.8C169.238 152.202 169.181 152.604 168.478 154.469C167.042 158.043 165.363 159.851 163.153 160.21C161.718 160.469 161.086 160.87 160.641 161.976C158.711 164.931 156.065 167.35 152.949 169.008C150.437 169.912 150.58 170.616 153.149 170.214C155.159 169.869 155.216 169.912 154.857 171.017C153.619 174.547 151.8 177.846 149.475 180.777C147.021 183.647 141.639 186.245 136.415 187.307C131.578 188.269 129.239 188.269 126.957 187.307L127.057 187.207ZM126.311 180.519C127.115 176.701 133.645 174.433 137.793 176.543C139.056 177.203 138.855 176.141 137.549 175.237C136.243 174.333 131.004 174.232 128.091 175.337C127.424 175.514 126.812 175.855 126.311 176.329C125.809 176.802 125.434 177.394 125.22 178.05C124.517 179.916 124.775 182.772 125.622 182.226C125.947 181.707 126.157 181.125 126.239 180.519H126.311ZM125.249 172.123C127.459 171.362 127.761 171.362 129.555 172.223C131.349 173.084 131.607 173.07 134.736 171.965C136.126 171.355 137.641 171.085 139.156 171.175C140.505 171.534 141.51 170.673 140.706 169.869C140.304 169.467 134.334 170.372 132.368 171.175C131.992 171.263 131.601 171.263 131.226 171.176C130.85 171.088 130.499 170.917 130.2 170.673C129.456 170.184 128.596 169.899 127.708 169.847C126.819 169.794 125.931 169.975 125.134 170.372C124.407 170.704 123.622 170.894 122.823 170.931C122.488 170.922 122.154 170.979 121.841 171.1C121.528 171.22 121.243 171.402 121.001 171.635C120.398 172.338 120.656 172.481 122.522 172.883C123.424 172.692 124.311 172.438 125.177 172.123H125.249ZM134.851 166.64C135.437 165.549 136.221 164.576 137.161 163.77C138.424 163.009 138.367 162.334 137.161 162.334C136.03 162.711 135.032 163.409 134.291 164.344C132.181 166.611 131.621 166.769 130.516 165.506C129.971 164.846 129.712 163.54 129.77 160.985C129.897 159.081 129.452 157.182 128.493 155.531C127.387 153.723 127.387 153.666 128.335 152.661C129.581 151.496 130.353 149.911 130.502 148.212C130.502 147.15 130.301 147.25 128.493 149.217C126.684 151.183 126.383 151.369 124.632 151.125C121.661 150.666 113.825 149.819 112.318 149.819C111.183 149.969 110.124 150.471 109.289 151.255L107.682 152.69L111.457 152.518C115.877 152.216 124.833 153.58 126.038 154.685C126.943 155.488 127.99 158.99 127.99 161.114C127.849 162.122 127.415 163.065 126.742 163.827C125.536 165.262 125.536 165.391 126.383 165.635C127.256 166.125 128.054 166.739 128.751 167.458C129.126 167.904 129.594 168.263 130.122 168.511C130.65 168.759 131.225 168.889 131.808 168.893C133.229 168.908 133.631 168.606 134.779 166.64H134.851ZM100.693 157.44C100.072 156.607 99.5652 155.695 99.1856 154.728C98.2383 152.417 97.3341 152.259 97.3341 154.326C97.3244 154.785 97.4187 155.241 97.6101 155.658C97.8015 156.076 98.085 156.445 98.4393 156.737C98.9846 157.196 99.8745 157.943 100.291 158.345C101.353 159.349 101.712 158.545 100.693 157.44ZM152.36 157.9C153.452 157.166 154.466 156.325 155.388 155.388C156.393 154.283 156.35 154.283 153.953 155.546C150.48 157.297 146.461 157.699 144.208 156.55C141.338 155.115 141.682 154.484 145.256 154.527C148.126 154.527 153.25 153.379 154.312 152.417C154.556 152.216 152.59 152.173 150.006 152.274C144.624 152.518 138.238 151.671 137.089 150.566C136.522 149.919 136.127 149.139 135.941 148.298C135.482 145.987 134.434 146.49 134.779 148.901C134.889 150.03 135.337 151.099 136.064 151.97C136.791 152.84 137.764 153.471 138.855 153.781C139.902 154.082 140.462 154.527 140.563 155.216C140.764 156.651 141.711 157.369 144.036 157.971C145.084 158.23 146.648 158.632 147.452 158.876C149.805 159.507 150.365 159.407 152.418 157.9H152.36ZM118.991 158.043C120.227 157.493 121.53 157.107 122.867 156.895C124.876 156.594 125.077 156.493 124.173 155.991C122.865 155.597 121.48 155.528 120.14 155.79C118.23 155.964 116.308 155.964 114.399 155.79C113.06 155.58 111.692 155.648 110.38 155.991C109.074 156.55 109.074 156.55 111.083 156.895C112.242 157.056 113.355 157.452 114.356 158.057C115.934 159.048 117.011 159.048 119.049 158.043H118.991ZM76.9685 115.518C69.2327 114.413 62.7456 113.408 62.6164 113.207C62.0566 112.647 63.3627 101.898 63.9655 101.725C64.5683 101.553 93.3299 108.901 93.8322 109.461C94.3345 110.021 91.9664 117.714 91.4211 117.613C91.1771 117.527 84.7186 116.637 76.9685 115.518ZM69.7924 110.538C70.3026 109.928 70.5701 109.152 70.5436 108.357C70.5171 107.563 70.1986 106.806 69.6489 106.232C69.1818 105.842 68.5926 105.628 67.9841 105.628C67.3756 105.628 66.7863 105.842 66.3192 106.232C65.9095 106.942 65.7108 107.753 65.7464 108.572C65.782 109.391 66.0504 110.182 66.5202 110.853C67.5248 111.901 68.472 111.801 69.735 110.538H69.7924ZM165.808 108.227C162.938 103.204 162.134 101.639 162.593 101.395C163.052 101.151 194.311 91.9947 194.957 91.9947C195.603 91.9947 195.115 101.496 194.455 102.142C194.254 102.357 188.585 104.409 181.796 106.777C175.008 109.145 169.123 111.083 168.621 111.341C168.119 111.6 167.358 110.896 165.808 108.227ZM194.11 97.018C194.194 96.7498 194.219 96.4668 194.184 96.1881C194.148 95.9095 194.053 95.6418 193.904 95.4033C193.756 95.1649 193.558 94.9613 193.323 94.8065C193.089 94.6517 192.824 94.5493 192.546 94.5063C192.003 94.6405 191.508 94.924 191.117 95.3247C190.727 95.7255 190.456 96.2274 190.336 96.774C190.439 97.3275 190.722 97.8318 191.14 98.2092C192.087 99.1851 193.594 98.5823 194.096 97.018H194.11ZM77.3273 102.902L71.0841 101.295L71.3855 99.587C71.7149 98.262 72.1517 96.966 72.6916 95.7119L73.6962 93.6021L71.9453 90.0285C71.1387 88.6112 70.5302 87.0901 70.1369 85.5076C70.1369 84.7612 72.5911 82.9959 79.9824 78.4176C83.7341 75.9734 87.6307 73.7591 91.6507 71.7869C92.7995 71.4479 93.8617 70.8654 94.7651 70.079C96.5161 68.4142 108.184 62.6877 109.117 63.0465C110.552 63.5919 109.921 65.8021 107.309 68.6725C103.801 72.8466 100.741 77.3781 98.1809 82.1922C96.289 85.4297 93.6331 88.1546 90.4451 90.1289C89.9273 90.3524 89.4829 90.7174 89.163 91.1819C88.8432 91.6465 88.6608 92.1919 88.6368 92.7554C88.5094 93.6855 88.1813 94.5768 87.6752 95.3675C86.8638 96.9 86.2237 98.5171 85.7663 100.19C85.3876 101.662 84.7927 103.069 84.001 104.366C81.7516 104 79.5237 103.511 77.3273 102.902ZM170.214 94.7647C169.97 94.0614 169.712 93.3295 169.712 93.3295C169.712 92.1669 167.459 87.5886 166.841 87.5886C166.224 87.5886 165.593 86.7275 164.933 85.6798C163.871 83.9719 163.426 83.7135 159.909 82.8094C156.825 82.0846 153.938 80.6879 151.456 78.719C147.294 75.8486 146.289 75.4611 142.156 74.6574C140.459 74.442 138.812 73.9321 137.29 73.1504C136.587 71.2416 139.544 70.3804 147.94 70.1221C153.925 69.9786 154.226 69.8781 156.738 68.2707C158.847 66.9072 159.149 66.5628 158.173 66.4623C157.185 66.4679 156.209 66.6729 155.302 67.0651C152.432 68.3137 151.427 68.0697 149.676 65.6299C147.412 63.1016 144.976 60.7327 142.385 58.5399C136.903 53.8181 135.496 52.1676 136.458 51.5648C137.061 51.206 140.376 52.8709 144.151 55.4255C147.021 57.3918 155.46 62.372 155.862 62.372C157.297 62.372 151.887 55.7843 143.648 47.3309C140.175 43.8147 139.343 42.2072 140.477 41.504C141.243 41.4354 142.012 41.6113 142.672 42.0063C148.2 45.7014 153.527 49.6873 158.632 53.9473C158.842 54.199 159.103 54.4043 159.397 54.5501C159.691 54.6959 160.012 54.7789 160.34 54.794C161.301 54.794 161.244 54.6936 159.895 53.244C155.549 49.1577 150.858 45.4554 145.873 42.1785C143.232 40.729 142.271 39.5665 142.845 38.6623C143.419 37.7581 144.51 38.1599 148.729 40.2697C153.953 42.8818 160.641 47.3022 162.895 49.6273C164.33 51.0625 164.516 51.5792 164.158 52.3398C163.397 53.6889 163.555 53.9473 164.861 53.5885C165.322 53.5022 165.798 53.5304 166.245 53.6705C166.693 53.8106 167.1 54.0584 167.43 54.3922L168.865 55.4973L168.564 52.9426C168.005 50.2051 167.144 47.5383 165.995 44.9915C165.08 43.1326 164.405 41.165 163.985 39.1359C164.445 38.3752 165.995 38.6336 166.856 39.5952C169.685 43.6538 172.172 47.9407 174.29 52.4116C178.223 60.7502 180.232 71.4138 178.596 75.7768L177.849 77.944L180.562 84.5316C181.601 86.8706 182.506 89.2665 183.275 91.7077C183.275 92.21 179.801 93.473 171.606 95.8267C170.975 96.0133 170.573 95.6688 170.214 94.7647ZM68.0271 81.5894C67.5679 80.8288 63.0469 66.0604 62.0997 62.3863C60.9946 58.0807 60.8941 56.301 61.7983 56.301C62.7025 56.301 65.86 61.7405 68.8308 67.6105C71.6008 73.093 73.3518 74.7865 71.3999 70.1221L70.6392 68.2707L73.2513 63.8933C79.3366 53.9473 79.5806 53.8468 82.7093 57.9659C84.4541 60.116 86.3231 62.1622 88.3067 64.0942C89.6836 65.2944 90.8864 66.6808 91.8803 68.2133C91.8803 68.6151 91.3206 69.1174 90.6748 69.4188C89.2395 70.1221 86.1969 68.6725 83.0251 65.759C81.8195 64.6539 80.6139 63.8933 80.3699 64.0512C79.5519 64.5535 79.107 67.8688 79.7097 68.4716C80.3125 69.0744 80.3699 68.6151 80.5709 67.7109L80.8436 66.4049L84.3168 68.7156C85.5088 69.3924 86.6209 70.2012 87.6321 71.1267C87.3738 71.3851 68.6299 81.8908 68.429 81.8908C68.2606 81.8472 68.1161 81.7389 68.0271 81.5894ZM91.4067 65.4002C90.5562 64.5017 89.8099 63.5099 89.1821 62.4437C89.0817 62.1854 89.9428 61.2381 91.0049 60.377C93.3586 58.4682 93.66 58.6691 95.3105 63.0465L96.4156 66.0604L95.2674 66.9646C94.8384 67.3381 94.3543 67.6431 93.8322 67.8688C92.9357 67.1373 92.1223 66.3095 91.4067 65.4002ZM85.5798 58.5112C84.8334 57.5066 84.4316 56.5593 84.6325 56.301C85.9816 55.5447 87.3933 54.906 88.852 54.3922C90.9044 53.5454 94.3776 51.938 96.5448 50.7754L100.405 48.6657V49.9717C100.405 51.981 90.359 60.2335 87.79 60.334C87.3451 60.334 86.3404 59.5159 85.5798 58.5112Z" fill="#55514C"/>
<path d="M103.663 172.065C104.065 169.194 104.123 169.108 105.099 169.912C105.802 170.414 105.759 170.759 104.898 172.467C104.592 173.2 104.149 173.867 103.592 174.433C103.441 173.648 103.465 172.839 103.663 172.065ZM163.526 167.444C163.124 165.592 163.081 162.363 163.383 162.363C163.749 162.29 164.105 162.174 164.445 162.018C165.248 161.76 165.291 162.018 164.947 164.43C164.798 165.674 164.543 166.903 164.186 168.104C163.885 168.907 163.784 168.807 163.526 167.444ZM91.7942 149.647C91.7942 147.494 93.6026 145.183 96.2721 143.763C99.5104 142.64 102.818 141.729 106.175 141.036C116.222 138.782 118.59 138.079 123.398 135.912C128.579 133.544 130.387 132.094 131.09 129.683C131.376 128.954 131.47 128.163 131.363 127.387C131.205 127.186 130.057 127.889 128.851 128.894C127.289 130.063 125.621 131.087 123.871 131.951C120.355 133.558 111.801 135.481 104.912 136.256C98.7407 136.917 92.8563 138.668 89.7419 140.777C88.5363 141.581 87.4742 142.04 87.3738 141.782C87.9862 140.138 88.8164 138.584 89.8423 137.161C95.4827 128.119 104.711 120.641 113.609 117.828C116.945 116.805 120.428 116.349 123.914 116.479C129.799 116.379 130.459 116.479 133.013 117.685C137.592 119.838 141.065 123.426 141.065 126.023C140.835 128.674 139.775 131.185 138.037 133.199C134.687 136.775 130.701 139.695 126.282 141.811C123.57 143.016 117.183 144.179 109.146 144.839C96.8318 145.844 95.3105 146.274 92.9568 149.862L91.7942 151.513V149.647ZM161.416 148.8C160.21 148.677 159.027 148.387 157.9 147.939C157.053 147.394 157.455 147.293 160.412 147.193C165.349 147.035 167.057 147.193 168.262 147.839C168.808 148.14 169.21 148.441 169.109 148.499C168.678 148.901 163.627 149.102 161.416 148.8ZM155.087 143.719C148.054 141.251 142.916 137.333 142.271 133.974C141.969 132.252 142.371 127.688 142.873 127.688C143.895 128.5 144.854 129.388 145.744 130.343C150.049 134.649 155.69 139.342 157.9 140.304C159.766 141.15 164.746 142.155 171.276 143.016C172.374 143.092 173.445 143.395 174.419 143.906C175.08 144.408 173.472 144.509 166.54 144.566C159.106 144.681 157.398 144.523 155.087 143.719Z" fill="#895730"/>
<path d="M91.3064 143.619C91.3064 141.351 97.2338 139.041 105.874 138.036C109.591 137.591 113.567 137.089 114.672 136.931C119.049 136.429 114.27 137.735 106.333 139.242C100.248 140.404 97.3773 141.208 95.1241 142.414C93.4162 143.318 91.9092 144.064 91.7083 144.164C91.5073 144.265 91.3064 144.021 91.3064 143.619ZM166.698 140.706C161.416 139.701 157.355 137.735 151.815 133.53C145.141 128.463 143.979 126.755 144.438 122.522C144.682 119.766 144.739 119.651 146.447 119.508C149.763 119.106 155.245 120.01 156.852 121.215C157.699 121.818 159.723 123.182 161.158 124.244C163.871 125.995 166.397 128.549 165.937 129.009C164.922 128.816 163.95 128.441 163.067 127.904C161.793 127.251 160.485 126.666 159.149 126.153C157.943 125.693 157.986 125.794 159.551 126.999C164.531 130.817 170.099 137.864 170.099 140.376C170.214 141.351 170.013 141.351 166.698 140.706ZM93.818 127.43C93.818 126.483 96.9324 121.244 99.688 117.484C103.078 112.855 107.268 108.87 112.06 105.715C116.473 103.284 121.446 102.052 126.483 102.142C129.448 102.418 132.305 103.392 134.822 104.983C137.339 106.575 139.444 108.738 140.965 111.298C142.07 113.465 142.271 114.513 142.314 117.986C142.401 119.483 142.285 120.984 141.969 122.45C141.768 122.651 140.534 121.646 139.3 120.24C136.429 116.982 132.87 115.274 127.589 114.499C117.542 113.063 104.324 117.714 96.832 125.363C94.8227 127.473 93.818 128.119 93.818 127.416V127.43Z" fill="#895730"/>
<path d="M161.172 121.345C157.779 119.016 153.715 117.867 149.604 118.072C148.041 118.175 146.471 118.059 144.94 117.728C144.651 116.525 144.516 115.291 144.538 114.054L144.28 110.896L146.892 110.753C151.198 110.495 156.336 113.623 161.617 119.694C164.373 122.751 164.186 123.512 161.172 121.345Z" fill="#895730"/>
<path d="M114.528 198.444C114.066 197.619 113.856 196.675 113.925 195.732C113.944 194.573 113.775 193.42 113.423 192.316C113.021 191.211 113.165 190.752 114.428 189.345C114.948 188.905 115.333 188.326 115.536 187.675C115.739 187.024 115.753 186.329 115.576 185.671C115.454 184.246 115.696 182.814 116.279 181.509L117.241 179.299L119.494 182.456C120.73 184.463 122.486 186.099 124.574 187.192C127.746 188.9 128.191 189.503 126.282 189.503C124.374 189.503 119.953 190.608 120.254 191.053C122.115 191.353 124.006 191.406 125.88 191.211L131.263 190.952L127.244 192.703C122.522 194.655 118.633 196.823 117.542 198.186C117.38 198.427 117.167 198.629 116.917 198.777C116.666 198.925 116.386 199.014 116.097 199.039C115.808 199.064 115.516 199.023 115.245 198.92C114.973 198.817 114.728 198.655 114.528 198.444ZM150.265 195.244C148.507 194.311 146.655 193.57 144.739 193.034C141.869 192.129 140.261 191.326 140.161 190.823C140.06 190.321 140.161 190.02 140.405 190.02C140.649 190.02 148.758 192.129 151.011 192.775C151.815 193.077 152.116 192.933 152.116 192.33C152.116 191.225 149.805 190.163 146.088 189.56C144.38 189.259 142.873 188.958 142.773 188.914C143.574 188.229 144.474 187.667 145.442 187.25C147.249 186.332 148.817 185.005 150.021 183.375C150.623 182.47 151.353 181.658 152.188 180.963C152.932 182.027 153.508 183.198 153.896 184.437C155.058 187.307 155.159 188.053 154.656 188.958C154.27 189.949 154.18 191.031 154.398 192.072C154.944 195.387 152.891 197.009 150.265 195.244ZM134.578 191.024C134.29 190.978 134.015 190.874 133.768 190.718C133.522 190.563 133.309 190.36 133.143 190.12C133.042 189.718 133.788 189.517 135.755 189.517C137.721 189.517 138.625 189.718 138.625 190.221C138.539 191.024 136.343 191.469 134.578 191.024Z" fill="#7B7870"/>
<path d="M128.493 187.609C126.259 186.884 124.195 185.718 122.422 184.178C121.723 183.261 121.081 182.303 120.498 181.308C117.921 177.233 114.554 173.714 110.595 170.96C107.888 169.266 105.652 166.917 104.094 164.128C103.858 163.805 103.558 163.535 103.212 163.335C102.866 163.135 102.482 163.009 102.085 162.966C100.018 162.722 98.5684 161.158 96.5017 157.139C94.435 153.12 94.5498 151.814 97.7073 149.805C101.439 147.437 105.457 146.432 113.696 145.83C122.45 145.184 125.105 144.581 129.985 142.055C131.258 141.344 132.588 140.739 133.961 140.247C134.162 140.247 133.057 141.452 131.535 142.816L128.751 145.342L130.904 145.04C132.895 144.731 134.788 143.967 136.436 142.807C138.084 141.647 139.442 140.122 140.405 138.352L141.409 136.73L143.476 139.443C147.036 144.007 156.795 150.25 161.617 151.054C162.671 151.196 163.665 151.628 164.488 152.302C165.291 153.207 165.291 153.407 164.488 155.029C164.028 155.976 163.871 156.78 164.129 156.78C164.832 156.78 166.64 153.709 166.64 152.604C166.64 151.958 166.942 151.7 167.803 151.857C169.109 152.058 169.052 153.006 167.545 156.163C166.44 158.474 164.129 160.282 162.22 160.282C161.848 160.276 161.485 160.398 161.192 160.628C160.9 160.858 160.695 161.182 160.613 161.545C158.905 164.573 156.351 167.037 153.264 168.635C150.509 169.683 150.394 170.587 153.02 170.07C154.987 169.769 155.03 169.769 154.628 171.118C153.377 174.6 151.58 177.86 149.303 180.777C146.131 184.236 139.4 186.963 132.454 187.565C131.142 187.761 129.809 187.775 128.493 187.609ZM126.182 180.763C126.584 178.71 127.617 177.648 130.76 176.457C133.21 175.585 135.896 175.657 138.295 176.658C139.099 176.959 139.056 176.758 137.951 175.596C136.846 174.433 136.185 174.161 133.932 174.161C131.062 174.161 126.383 175.51 125.479 176.629C125.023 177.377 124.734 178.214 124.632 179.083C124.187 182.37 125.622 183.934 126.182 180.763ZM125.479 172.151C126.075 171.757 126.773 171.548 127.488 171.548C128.202 171.548 128.901 171.757 129.497 172.151C131.406 173.012 131.564 173.012 134.879 172.008C136.39 171.485 137.963 171.162 139.558 171.046C140.362 171.046 140.864 170.845 140.993 170.242C141.122 169.64 140.893 169.396 138.482 169.697C136.9 169.919 135.336 170.255 133.803 170.702C131.994 171.305 131.593 171.247 129.626 170.3C127.66 169.353 127.316 169.295 125.708 170.099C124.805 170.532 123.834 170.804 122.838 170.903C121.403 170.903 120.125 172.151 121.13 172.553C122.135 172.955 123.426 172.926 125.479 172.123V172.151ZM133.128 168.836C134.007 167.908 134.795 166.899 135.482 165.822C135.994 164.878 136.698 164.052 137.549 163.397C137.616 163.401 137.683 163.391 137.746 163.367C137.809 163.343 137.866 163.306 137.913 163.259C137.961 163.211 137.998 163.154 138.021 163.091C138.045 163.028 138.055 162.961 138.051 162.894C138.051 161.689 135.783 162.55 134.076 164.401C133.431 165.229 132.625 165.917 131.707 166.425C130.401 166.425 129.756 164.659 129.756 161.186C129.862 159.248 129.482 157.314 128.65 155.56L127.545 153.45L128.493 152.518C129.637 151.538 130.399 150.186 130.645 148.7C131.105 146.791 130 146.834 128.694 148.843C127.387 150.853 126.282 151.255 120.9 150.508C118.383 150.154 115.849 149.934 113.308 149.848C110.897 149.848 110.337 150.006 109.189 151.283L107.883 152.632L113.265 152.733C116.244 152.793 119.217 153.047 122.163 153.494C125.177 154.039 125.723 154.34 126.469 155.661C127.064 156.844 127.471 158.112 127.675 159.421C127.872 160.142 127.888 160.901 127.72 161.63C127.552 162.359 127.206 163.035 126.713 163.597C125.622 165.234 125.622 165.435 126.383 165.736C127.39 166.282 128.321 166.958 129.153 167.745C131.162 169.554 131.908 169.74 133.128 168.807V168.836ZM101.353 158.646C101.286 158.102 101.038 157.597 100.649 157.211C100.019 156.436 99.5111 155.57 99.1425 154.642C98.3819 152.776 97.5781 152.331 97.1763 153.479C96.7744 154.627 97.8365 156.507 99.487 157.957C101.41 159.55 101.353 159.55 101.353 158.646ZM152.418 157.9C153.489 157.163 154.484 156.322 155.388 155.388C156.35 154.283 156.35 154.283 153.781 155.589C150.308 157.297 144.883 157.455 143.175 155.89C141.467 154.326 141.74 154.226 144.28 154.584C146.82 154.943 152.418 153.781 153.982 152.575C154.743 152.015 154.24 151.972 150.609 152.216C145.787 152.518 138.898 151.714 137.247 150.609C136.532 150.069 136.045 149.28 135.884 148.399C135.439 146.289 134.535 146.447 134.535 148.556C134.659 149.766 135.132 150.913 135.897 151.858C136.661 152.804 137.684 153.506 138.84 153.881C139.946 154.226 140.606 154.785 140.706 155.546C140.85 156.651 141.854 157.297 145.629 158.56C148.901 159.694 150.207 159.507 152.418 157.9ZM118.948 158.101C120.156 157.55 121.437 157.177 122.752 156.995C124.962 156.694 125.866 155.89 124.187 155.79C119.709 155.532 111.414 155.632 110.308 156.034C108.543 156.594 109.447 157.469 111.457 157.039C112.448 156.949 113.437 157.236 114.227 157.842C114.874 158.403 115.689 158.732 116.543 158.779C117.398 158.826 118.244 158.587 118.948 158.101ZM75.4615 115.274C71.1494 114.791 66.8697 114.053 62.6451 113.064C62.6401 109.262 63.0103 105.469 63.7502 101.74C64.0516 101.438 93.2582 108.916 93.7605 109.39C94.0188 109.59 93.0142 113.968 92.3253 116.02C91.7081 117.484 91.0479 117.427 75.4615 115.274ZM70.1943 109.992C70.5075 109.599 70.678 109.11 70.678 108.607C70.678 108.104 70.5075 107.616 70.1943 107.222C68.673 104.567 65.659 105.314 65.659 108.385C65.659 111.456 68.673 112.647 70.1943 109.992ZM164.846 106.476C163.821 104.953 163.054 103.27 162.579 101.496C163.182 100.936 194.943 91.8943 195.244 92.1957C195.361 93.9059 195.294 95.6236 195.043 97.3194L194.598 102.199L181.782 106.591C174.735 109.059 168.664 111.069 168.205 111.069C167.746 111.069 166.353 109.189 164.846 106.476ZM193.436 98.1805C195.144 96.6161 193.996 94.0615 191.886 94.7647C191.539 94.8907 191.229 95.1023 190.985 95.3798C190.741 95.6574 190.572 95.9919 190.491 96.3525C190.411 96.7131 190.423 97.0881 190.527 97.4427C190.63 97.7974 190.821 98.1202 191.082 98.3814C192.288 99.1852 192.331 99.1852 193.436 98.1805ZM77.7292 102.802L71.4429 101.194L71.6008 99.7592C71.863 98.4467 72.2672 97.1666 72.8064 95.9416L73.811 93.5878L72.0027 89.9568C71.219 88.5488 70.6116 87.0497 70.1943 85.4932C70.1943 84.4312 88.6368 72.7773 91.6077 71.9736C92.7605 71.6064 93.8323 71.0218 94.7651 70.2513C96.674 68.5004 108.184 62.6734 109.117 63.0753C110.667 63.7355 109.921 65.9457 107.108 69.0027C103.658 72.8581 100.733 77.1532 98.4106 81.7761C96.6106 85.1474 93.9582 87.9879 90.7178 90.0142C90.1268 90.28 89.6136 90.6925 89.2268 91.2125C88.8399 91.7324 88.5924 92.3426 88.5076 92.9851C88.3399 93.9381 87.9784 94.8467 87.4455 95.6545C86.6516 97.0714 86.0622 98.5935 85.6946 100.175C85.3518 101.56 84.871 102.906 84.2594 104.194C82.0404 103.957 79.852 103.49 77.7292 102.802ZM169.769 93.3008C169.21 91.7938 168.607 89.9281 168.334 89.2248C168.226 88.8509 168.043 88.5028 167.796 88.2018C167.55 87.9008 167.244 87.6532 166.899 87.4738C166.009 86.9408 165.265 86.1964 164.732 85.3067C163.827 83.7566 163.296 83.4553 160.01 82.752C156.925 82.0001 154.031 80.6117 151.513 78.676C147.208 75.8056 146.131 75.3607 142.256 74.6C137.951 73.7532 136.831 73.05 137.951 71.7296C138.654 70.8828 148.815 69.6629 151.628 70.1221C153.537 70.4235 154.039 70.2657 156.551 68.5578C159.063 66.8499 159.264 66.6489 157.986 66.5054C156.995 66.4722 156.01 66.679 155.116 67.1082C152.705 68.3568 151.743 68.1128 149.734 65.6012C148.385 63.9938 137.52 54.0334 136.616 53.6316C136.616 53.6316 136.472 53.1292 136.372 52.6269C136.114 51.0195 137.118 51.1917 140.491 53.3302C148.629 58.3534 155.518 62.3864 156.077 62.3864C156.637 62.3864 156.379 61.884 155.719 60.9511C154.743 59.2289 144.538 47.7472 141.869 45.3504C138.898 42.5804 139.802 40.3272 143.074 42.2791C145.442 43.7143 156.651 52.182 158.503 53.9473C160.77 56.0571 161.718 55.1959 159.565 52.9427C155.294 48.8799 150.658 45.219 145.715 42.0064C142.945 40.5711 142.098 38.9924 143.663 38.4901C145.227 37.9878 159.134 45.824 162.708 49.3977C164.315 51.0051 164.617 52.2681 163.612 53.2728C163.052 53.8181 163.253 53.9186 164.574 53.6746C165.071 53.5205 165.601 53.5046 166.106 53.6285C166.612 53.7523 167.074 54.0114 167.444 54.3779C168.147 54.8802 168.879 55.1242 168.994 54.8802C169.453 54.1769 167.99 49.2972 165.837 44.317C164.983 42.6837 164.36 40.9401 163.985 39.1359C164.445 38.3753 165.995 38.6336 166.755 39.5952C169.761 44.0189 172.428 48.663 174.735 53.488C178.165 61.0803 179.773 70.6245 178.51 75.6046C177.864 78.0158 177.907 78.1593 179.945 83.1395C182.256 88.5646 183.461 91.8943 183.16 92.1957C183.16 92.1957 180.548 93.0999 177.419 93.9466L171.291 95.8124C170.989 95.9559 170.286 94.8508 169.683 93.2434L169.769 93.3008ZM65.9604 75.0162C61.6548 61.841 60.3918 56.258 61.6548 56.258C62.5016 56.258 62.7025 56.6168 67.4818 65.3142C71.2564 72.2032 72.6055 74.2125 71.9022 71.8444C70.754 68.0267 70.955 67.3235 74.7726 61.2956C77.2843 57.4205 78.8486 55.4543 79.5519 55.3538C80.2551 55.2534 81.1163 55.9136 82.5658 57.8654C84.3583 60.0501 86.2751 62.1299 88.3067 64.0943C89.6836 65.2945 90.8864 66.6809 91.8804 68.2133C91.8804 68.5721 91.4211 69.0744 90.8183 69.3758C89.5123 70.1221 86.3404 68.6152 83.1256 65.8022C81.8769 64.697 80.6139 63.8933 80.37 64.0943C79.5519 64.5535 79.107 67.8689 79.7528 68.5147C80.0686 68.8161 80.3125 68.8735 80.3125 68.6152C80.3665 68.1822 80.524 67.7687 80.7718 67.4096C81.1163 66.9073 81.8769 67.2087 84.3311 68.8448C86.039 69.993 87.2016 71.1555 87.0006 71.3564C86.7997 71.5574 68.7447 81.9196 68.4434 81.9196C68.4434 81.9196 67.2952 78.7908 66.0322 75.0306L65.9604 75.0162ZM91.4067 65.3572C90.5288 64.4458 89.8107 63.3929 89.2826 62.2428C89.2826 61.4391 92.5549 59.1715 93.3586 59.3724C94.1623 59.5733 96.229 65.5582 95.8702 66.2184C95.4959 66.644 95.0362 66.9863 94.5211 67.223C93.617 67.711 93.2582 67.467 91.4067 65.3572ZM85.6228 58.4682C84.8622 57.4062 84.4603 56.4589 84.6612 56.258C85.7583 55.718 86.8842 55.2389 88.034 54.8228C89.7419 54.1482 93.0142 52.5839 95.4827 51.3352C99.7884 49.0102 100.75 48.8667 100.205 50.675C99.8458 51.7371 93.2151 57.5066 90.3447 59.2863C87.8761 60.7359 87.1298 60.6641 85.6228 58.4682Z" fill="#7B7870"/>
<path d="M114.528 198.444C114.066 197.618 113.856 196.675 113.925 195.732C113.935 194.591 113.78 193.455 113.466 192.359C113.121 191.412 113.265 190.924 114.327 189.488C114.831 188.899 115.21 188.214 115.442 187.474C115.674 186.734 115.753 185.954 115.676 185.183C115.736 183.717 116.007 182.267 116.48 180.877L117.283 179.126L119.149 181.997C120.857 184.709 125.378 188.383 126.985 188.383C127.116 188.39 127.24 188.445 127.333 188.538C127.426 188.631 127.481 188.755 127.488 188.886C127.488 189.187 126.942 189.388 126.239 189.388C124.172 189.388 119.953 190.436 120.197 190.823C122.09 191.176 124.025 191.244 125.938 191.024L131.32 190.823L128.708 191.77C124.813 193.249 121.128 195.227 117.743 197.655C116.307 199.09 115.489 199.09 114.585 198.258L114.528 198.444ZM150.408 195.287C148.608 194.361 146.724 193.606 144.782 193.033C141.61 191.971 140.06 191.168 140.06 190.665C140.06 189.819 140.964 189.962 147.552 191.871C149 192.354 150.497 192.676 152.015 192.832C152.518 192.273 151.571 190.967 150.365 190.522C148.868 190.052 147.338 189.697 145.787 189.46L142.414 188.857L145.284 187.422C147.109 186.415 148.719 185.06 150.02 183.432C150.639 182.51 151.383 181.679 152.231 180.963C152.932 182.045 153.492 183.212 153.896 184.436C155.058 187.307 155.159 188.053 154.656 188.957C154.272 189.934 154.182 191.002 154.398 192.029C154.656 193.579 154.556 194.139 153.695 194.985C152.475 196.191 151.714 196.291 150.408 195.287Z" fill="#96918A"/>
<path d="M127.847 187.307C124.967 186.409 122.526 184.47 121.001 181.868C119.393 178.61 114.37 173.256 110.351 170.659C108.232 169.382 106.427 167.646 105.07 165.578C103.764 163.569 103.017 162.865 102.199 162.865C100.291 162.865 98.5252 161.057 96.5733 157.038C94.8654 153.666 94.765 153.163 95.3678 152.058C96.2145 150.451 103.104 146.935 106.017 146.59C107.223 146.432 111.299 146.088 115.116 145.786C122.866 145.126 125.823 144.351 130.301 142.055C134.779 139.758 134.606 139.902 131.549 142.715C129.052 144.983 128.894 145.227 129.928 145.341C133.544 145.341 138.625 142.069 140.476 138.452L141.409 136.587L142.471 138.295C145.643 143.418 157.756 151.312 162.421 151.312C162.839 151.342 163.245 151.471 163.604 151.688C163.964 151.905 164.266 152.204 164.488 152.561C165.191 153.666 165.191 153.867 164.488 154.929C164.057 155.478 163.78 156.132 163.684 156.823C163.684 158.129 166.698 154.412 166.698 153.049C166.698 152.144 166.956 151.8 167.702 151.8C169.138 151.8 168.965 153.551 167.2 156.723C165.851 159.033 165.392 159.435 163.382 159.938C162.675 160.024 162.004 160.299 161.438 160.733C160.873 161.167 160.434 161.745 160.168 162.406C158.372 165.26 155.784 167.53 152.719 168.936C151.011 169.697 150.566 170.041 151.111 170.372C151.712 170.6 152.376 170.6 152.977 170.372C154.642 169.769 154.642 169.769 154.642 170.974C154.642 172.682 151.011 179.069 148.801 181.337C146.189 183.891 143.777 185.197 138.955 186.46C133.674 187.852 130.1 188.154 127.847 187.307ZM126.411 180.518C127.115 178.208 127.574 177.806 130.717 176.6C131.849 176.107 133.07 175.853 134.305 175.853C135.54 175.853 136.761 176.107 137.893 176.6C139.759 177.203 138.754 175.596 136.687 174.634C134.836 173.73 132.382 173.888 128.392 174.993C127.406 175.167 126.504 175.661 125.825 176.397C125.145 177.133 124.726 178.072 124.632 179.069C124.072 182.657 125.435 183.676 126.383 180.518H126.411ZM125.622 172.166C127.33 171.462 127.631 171.462 129.038 172.166C131.105 173.17 132.152 173.127 135.324 171.922C136.646 171.328 138.103 171.1 139.544 171.261C140.979 171.52 141.051 171.462 140.979 170.357C140.878 169.611 140.52 169.209 140.075 169.309C139.63 169.41 137.965 169.711 136.3 169.955C135.075 170.134 133.878 170.472 132.741 170.96C132.281 171.319 131.478 171.161 130.071 170.458C127.66 169.209 127.057 169.152 125.191 170.156C124.407 170.559 123.556 170.817 122.68 170.917C121.316 170.917 120.111 172.223 121.072 172.567C122.584 173.026 124.214 172.882 125.622 172.166ZM132.97 168.908C133.877 168.157 134.628 167.235 135.181 166.195C135.686 165.133 136.489 164.241 137.491 163.626C138.037 163.425 138.395 163.066 138.238 162.822C137.592 161.818 135.826 162.464 133.932 164.372C133.228 165.158 132.416 165.839 131.521 166.396C130.358 166.396 129.712 164.53 129.712 160.913C129.803 158.949 129.46 156.989 128.708 155.173C127.804 153.264 127.804 153.264 128.851 152.159C129.946 150.884 130.675 149.337 130.961 147.681C130.961 146.734 129.655 147.279 128.708 148.743C127.273 150.853 126.038 151.097 120.757 150.393C118.202 150.092 114.887 149.791 113.322 149.791C110.854 149.791 110.452 149.891 109.017 151.226L107.581 152.79L110.595 152.431C113.667 152.13 123.771 153.293 125.479 154.24C126.383 154.699 127.129 156.665 127.689 159.78C127.852 160.367 127.848 160.988 127.678 161.574C127.508 162.159 127.179 162.686 126.727 163.095C125.22 164.846 125.077 165.765 126.225 165.765C127.271 166.127 128.219 166.726 128.995 167.515C131.162 169.553 131.564 169.654 133.028 168.908H132.97ZM100.491 156.694C99.872 155.94 99.3512 155.111 98.9414 154.225C98.2812 152.661 97.578 152.417 97.1331 153.565C96.6882 154.713 97.334 155.933 99.2859 157.699C100.721 158.904 101.152 159.134 101.252 158.502C101.251 158.166 101.183 157.833 101.052 157.522C100.922 157.212 100.731 156.93 100.491 156.694ZM153.738 156.837L156.393 154.326L153.623 155.589C149.963 157.239 144.84 157.34 143.175 155.833C142.739 155.459 142.366 155.018 142.07 154.527C142.892 154.412 143.728 154.446 144.538 154.627C146.663 154.842 148.808 154.567 150.81 153.824C152.248 153.457 153.636 152.917 154.943 152.216C155.087 151.958 153.322 151.915 150.767 152.116C146.431 152.37 142.08 151.998 137.85 151.011C136.951 150.343 136.255 149.439 135.841 148.398L134.793 146.03L134.592 147.997C134.391 150.451 135.539 152.216 138.41 153.565C139.558 154.125 140.462 155 140.52 155.388C140.52 156.536 141.366 157.139 144.538 158.258C149.36 159.909 150.666 159.694 153.738 156.823V156.837ZM119.996 157.842C121.141 157.306 122.369 156.966 123.627 156.837C124.933 156.837 125.579 155.89 124.373 155.79C119.591 155.524 114.797 155.571 110.021 155.933C108.471 156.493 109.175 157.498 110.825 157.139C111.831 156.971 112.863 157.208 113.695 157.799C115.576 159.048 117.341 159.105 119.996 157.842ZM76.0642 115.202L63.1473 113.394V111.958C63.2866 108.531 63.6897 105.12 64.3529 101.754C66.9577 102.149 69.5291 102.739 72.0456 103.519C76.1216 104.625 82.8097 106.39 86.9287 107.38C92.6696 108.887 94.3201 109.49 94.3201 110.15C94.0966 111.488 93.7408 112.801 93.258 114.068C91.952 117.785 93.6599 117.628 76.0642 115.202ZM69.9358 110.595C70.6965 109.734 70.797 109.232 70.3951 107.725C69.9932 106.218 69.7349 105.859 68.3715 105.715C66.52 105.514 65.501 106.562 65.501 108.586C65.5154 111.442 68.1275 112.604 69.9358 110.595ZM164.846 106.419C163.081 103.304 162.421 101.697 162.823 101.496C164.028 100.85 194.943 91.9516 195.201 92.2386C195.301 93.949 195.234 95.6651 195 97.3623L194.598 102.185L181.782 106.591C174.735 109.031 168.678 111.04 168.205 111.04C167.731 111.04 166.353 109.088 164.846 106.419ZM193.436 98.1804C195.345 96.4725 193.895 93.8748 191.584 94.9081C191.269 95.0575 190.993 95.2794 190.78 95.5557C190.567 95.832 190.422 96.1549 190.358 96.498C190.293 96.841 190.311 97.1944 190.41 97.5292C190.508 97.864 190.684 98.1708 190.924 98.4244C191.728 99.2281 192.331 99.1851 193.436 98.1804ZM76.7244 102.601C71.4428 101.237 71.4428 101.166 71.6007 99.7304C71.8615 98.4037 72.2657 97.1091 72.8063 95.8697L73.854 93.4012L71.9451 89.5261C71.1629 88.1287 70.5876 86.6252 70.2372 85.0626C70.596 84.1584 89.3829 72.648 91.7654 71.9878C92.9011 71.6894 93.9397 71.1008 94.7793 70.2799C96.425 68.9967 98.2291 67.9306 100.147 67.1081C102.673 65.9025 105.486 64.3955 106.534 63.7928C107.299 63.2574 108.212 62.9763 109.146 62.989C110.71 63.5918 110.05 65.7016 107.237 68.7299C103.578 73.0352 100.392 77.7218 97.7359 82.7088C96.2109 85.6227 93.8725 88.0309 91.0047 89.6409C90.4077 89.9264 89.8817 90.3411 89.4647 90.8549C89.0477 91.3687 88.7501 91.9688 88.5936 92.6118C88.3219 93.7226 87.8968 94.7901 87.3306 95.7836C86.5254 97.3473 85.8903 98.9929 85.4361 100.692C84.3597 104.711 84.618 104.668 76.7244 102.601ZM170.774 95.31C170.146 94.0093 169.608 92.6665 169.166 91.2914C168.406 89.0238 167.731 87.7177 167.057 87.5742C166.382 87.4307 165.621 86.4691 165.191 85.407C164.287 83.6991 163.928 83.4551 161.316 82.9528C157.439 82.1701 153.804 80.478 150.71 78.0157C148.318 76.1609 145.473 74.9813 142.471 74.5999C137.85 73.6527 136.644 72.7915 138.252 71.6434C139.357 70.8396 149.461 69.7202 151.815 70.122C153.422 70.4234 154.039 70.2225 156.551 68.572C159.062 66.9215 159.263 66.6058 158.259 66.4623C157.003 66.4845 155.76 66.7224 154.585 67.1655L152.073 68.0697L149.36 65.0557C146.908 62.4405 144.321 59.9542 141.61 57.607C138.395 54.8514 136.544 52.8852 136.544 52.2393C136.544 51.3351 136.644 51.3351 138.252 51.981C139.954 52.8287 141.599 53.7876 143.175 54.8514C147.753 57.9658 155.245 62.3432 155.991 62.3432C156.143 62.3533 156.294 62.308 156.415 62.2156C156.537 62.1233 156.62 61.9902 156.651 61.8409C156.651 61.2381 149.963 53.6458 143.978 47.4888C142.434 46.0529 141.113 44.3935 140.06 42.566C140.06 41.5039 141.711 41.5039 143.476 42.566C145.988 44.1734 158.402 53.6315 159.105 54.4352C159.809 55.2389 161.172 55.5833 161.172 54.8801C161.172 53.6315 150.466 44.6327 146.146 42.2215C143.476 40.7146 142.572 39.509 143.433 38.6479C144.294 37.7867 157.455 44.8336 162.091 48.9957C164 50.718 164.861 52.7703 163.655 52.7703C163.525 52.7802 163.403 52.8364 163.311 52.9285C163.219 53.0206 163.163 53.1427 163.153 53.2727C163.153 53.5741 164 53.775 165.119 53.775C166.037 53.6881 166.953 53.9608 167.674 54.5356C168.836 55.8847 169.281 54.5356 168.635 51.9666C167.939 49.6081 167.091 47.2973 166.095 45.0489C164.086 40.3271 163.784 38.7053 164.846 38.7053C165.908 38.7053 167.1 39.9252 169.97 44.7475C173.395 50.2335 175.987 56.1971 177.663 62.4437C178.868 67.309 179.098 73.9253 178.309 76.5661C178.056 77.17 177.962 77.8283 178.034 78.4787C178.107 79.1292 178.345 79.7503 178.725 80.2833C180.16 83.1538 183.547 91.9516 183.289 92.1525C183.03 92.3535 180.418 93.1572 177.16 94.1044C172.984 95.31 171.075 95.7119 170.774 95.31ZM65.6589 74.0545C59.3296 54.1912 60.0903 50.9333 67.5677 65.6011C70.2946 70.8827 71.8734 73.4948 72.3039 73.0929C72.5049 72.9494 72.3039 71.7869 71.8016 70.5239C70.9405 68.2706 70.9405 68.2706 72.4044 65.7016C75.7197 59.7168 78.8341 55.2963 79.7383 55.2963C80.6106 55.5744 81.3476 56.1681 81.805 56.9612C83.5728 59.1321 85.4506 61.2111 87.4311 63.19C89.8853 65.759 91.7367 68.1127 91.7367 68.4141C91.6057 68.6588 91.4261 68.874 91.2089 69.0468C90.9917 69.2196 90.7415 69.3461 90.4737 69.4188C89.1677 69.8781 86.4982 68.572 83.1828 65.8021C82.3636 65.0664 81.4743 64.4126 80.5277 63.8502C79.968 63.8502 78.7624 67.309 79.0925 68.0697C79.5374 69.1748 80.3555 69.0743 80.6569 67.8688C80.8004 67.309 81.0013 66.8641 81.1592 66.8641C81.9055 66.8641 87.3306 71.0406 86.9861 71.342C86.6417 71.6434 73.6674 79.0203 68.6298 81.7903C67.3892 79.3149 66.3941 76.724 65.6589 74.0545ZM91.4496 65.3571C90.5856 64.516 89.8549 63.5481 89.2825 62.4867C89.2825 61.7835 92.1529 59.358 93.0571 59.358C93.9613 59.358 95.9275 64.5965 95.7266 65.8021C95.4972 66.3669 95.0888 66.8408 94.5641 67.1512C93.6599 67.7109 93.3585 67.5674 91.4496 65.3571ZM85.7662 58.6116C85.2717 57.9964 84.8836 57.3027 84.618 56.5593C85.7011 55.8401 86.8866 55.2885 88.1343 54.9232C89.9857 54.1625 93.4159 52.5551 95.6692 51.3495C102.156 47.9337 102.056 49.6416 95.4682 55.325C91.3492 58.8413 88.938 60.4057 87.675 60.4057C87.3306 60.3339 86.4695 59.5732 85.7662 58.6116Z" fill="#96918A"/>
<path d="M114.83 198.516C114.169 198.157 113.925 197.354 113.868 195.646C113.881 194.509 113.746 193.375 113.466 192.273C113.165 191.57 113.466 190.838 114.37 189.661C115.373 188.457 115.886 186.92 115.805 185.355C115.82 183.889 116.072 182.435 116.552 181.05L117.312 179.342L119.164 182.212C120.629 184.776 122.892 186.792 125.608 187.953C127.919 189.015 128.12 189.618 126.11 189.618C123.843 189.618 119.523 190.723 119.824 191.225C121.682 191.546 123.578 191.594 125.45 191.369C129.756 191.168 130.574 191.225 129.569 191.67C122.235 195.043 119.063 196.693 117.858 197.856C116.236 199.219 116.078 199.263 114.83 198.516ZM150.609 195.287C148.698 194.422 146.738 193.67 144.739 193.034C141.768 192.029 140.061 191.168 140.061 190.723C140.061 190.278 140.061 190.02 140.204 190.02C140.348 190.02 142.874 190.723 146.045 191.527C147.986 192.153 149.987 192.571 152.016 192.775C152.518 192.273 151.571 190.967 150.265 190.465C148.753 189.987 147.208 189.618 145.643 189.36L142.414 188.857L145.285 187.422C147.155 186.502 148.779 185.149 150.021 183.475C150.647 182.55 151.406 181.723 152.274 181.021C152.997 182.07 153.558 183.221 153.939 184.437C155.044 187.307 155.145 188.154 154.7 189.058C154.3 190.01 154.194 191.06 154.398 192.072C154.642 193.636 154.499 194.239 153.681 195.043C152.418 196.249 152.274 196.249 150.609 195.287ZM133.372 190.666C132.511 189.862 133.229 189.517 135.784 189.517C137.893 189.517 138.554 189.661 138.554 190.264C138.554 190.867 137.951 191.024 136.142 191.024C135.204 191.101 134.26 190.978 133.372 190.666Z" fill="#BFBEBE"/>
<path d="M125.177 185.987C123.407 185.078 121.967 183.638 121.058 181.868C118.31 177.414 114.664 173.581 110.352 170.616C108.207 169.279 106.36 167.516 104.926 165.435C103.764 163.583 103.061 162.923 102.156 162.923C100.291 162.923 98.5397 161.172 96.6309 157.297C95.8988 155.984 95.2933 154.605 94.8225 153.178C94.8225 152.116 97.4777 149.963 100.348 148.657C103.864 147.049 106.476 146.547 114.93 145.786C122.924 145.184 125.436 144.581 130.502 142.055L134.233 140.203L131.507 142.715C129.052 144.925 128.894 145.227 129.928 145.342C133.545 145.342 138.625 142.069 140.477 138.395L141.409 136.529L142.213 137.965C144.639 142.643 157.599 151.24 162.177 151.24C162.94 151.343 163.646 151.697 164.186 152.245C165.148 153.192 165.148 153.35 164.445 154.757C163.583 156.421 163.483 157.268 164.129 157.268C164.775 157.268 166.698 154.053 166.698 152.79C166.698 152.087 166.999 151.743 167.703 151.743C168.908 151.743 168.966 152.647 167.903 155.158C166.841 157.67 164.789 159.78 163.081 159.78C161.976 159.78 161.416 160.239 160.369 161.947C158.774 164.772 156.349 167.037 153.422 168.434C151.37 169.482 150.667 170.042 151.112 170.343C151.407 170.467 151.724 170.531 152.044 170.531C152.365 170.531 152.682 170.467 152.977 170.343C154.585 169.74 154.642 169.74 154.642 170.845C154.642 172.51 151.112 178.839 148.901 181.107C145.127 184.925 138.137 187.494 131.205 187.494C129.084 187.683 126.96 187.153 125.177 185.987ZM126.483 180.361C127.488 177.49 130.502 175.84 134.535 176.055C135.771 176.153 136.995 176.359 138.195 176.672C139.63 177.318 139.156 175.955 137.448 174.907C135.439 173.701 133.272 173.644 129.397 174.706C125.881 175.711 124.474 177.218 124.474 179.93C124.474 183.174 125.479 183.375 126.483 180.361ZM125.622 172.166C127.33 171.462 127.631 171.462 129.038 172.166C129.917 172.649 130.905 172.903 131.908 172.903C132.912 172.903 133.899 172.649 134.779 172.166C136.097 171.669 137.49 171.397 138.898 171.362C140.85 171.362 141.051 171.362 140.907 170.3C140.807 169.654 140.448 169.252 140.003 169.396C139.558 169.539 138.338 169.654 137.233 169.798C135.927 169.944 134.636 170.199 133.372 170.558C132.81 170.767 132.207 170.845 131.61 170.785C131.013 170.726 130.438 170.53 129.928 170.214C127.761 169.209 126.914 169.209 125.048 170.214C124.416 170.6 123.677 170.776 122.938 170.716C122.092 170.415 120.326 171.778 120.771 172.424C121.216 173.07 123.642 173.084 125.751 172.223L125.622 172.166ZM134.98 166.697C135.794 165.503 136.759 164.417 137.85 163.468C138.496 163.066 138.553 162.966 137.85 162.421C136.889 161.617 135.64 162.263 133.875 164.372C132.439 165.937 130.861 166.339 130.157 165.277C129.831 163.827 129.696 162.341 129.756 160.856C129.822 158.954 129.495 157.058 128.794 155.288C127.89 153.465 127.89 153.465 129.153 152.116C130.416 150.767 131.363 148.212 130.703 147.236C130.502 146.892 129.698 147.437 128.55 148.843L126.684 150.953L120.656 150.408C117.384 150.049 113.868 149.748 112.863 149.705C111.894 149.71 110.941 149.955 110.089 150.418C109.238 150.882 108.514 151.549 107.983 152.36C107.539 153.063 107.782 153.12 110.05 152.719C111.667 152.487 113.305 152.453 114.93 152.618C118.355 152.961 121.761 153.478 125.134 154.168C127.387 154.771 128.392 161.918 126.483 163.626C125.335 164.674 125.177 165.894 126.182 165.894C127.187 166.279 128.098 166.876 128.851 167.645C131.564 170.113 132.569 169.955 135.037 166.697H134.98ZM101.511 158.445C101.163 157.721 100.775 157.016 100.348 156.335C99.8632 155.609 99.4269 154.851 99.0421 154.068C98.2814 152.719 97.1332 152.819 96.9323 154.168C96.8318 154.972 97.4346 155.991 98.9416 157.498C101.109 159.694 102.056 160.052 101.511 158.445ZM153.48 156.68C156.953 153.651 157.096 152.704 153.738 154.814C152.097 155.693 150.26 156.142 148.399 156.12C145.141 156.321 144.639 156.22 143.376 155.158L141.941 153.953H145.371C147.514 153.928 149.643 153.609 151.7 153.006C156.006 151.57 155.919 150.996 151.442 151.398C147.523 151.743 138.927 150.939 137.319 150.092C136.73 149.62 136.329 148.953 136.185 148.212C136.056 147.452 135.729 146.739 135.238 146.145C134.635 145.7 134.535 145.944 134.535 147.81C134.535 150.465 135.884 152.231 138.754 153.436C139.903 153.938 140.563 154.541 140.563 155.144C140.563 156.106 141.309 156.579 145.084 157.914C148.858 159.249 150.767 158.99 153.48 156.68ZM119.35 158.115C120.48 157.637 121.659 157.286 122.867 157.067C124.029 156.866 124.976 156.507 124.976 156.264C124.976 155.661 125.235 155.704 117.685 155.603C111.155 155.503 108.543 155.862 109.146 156.809C109.809 157.212 110.584 157.388 111.356 157.311C112.362 157.316 113.35 157.578 114.227 158.072C115 158.531 115.88 158.779 116.779 158.792C117.678 158.805 118.565 158.581 119.35 158.144V158.115ZM85.4363 116.422C83.226 116.078 77.2843 115.274 72.261 114.614L63.0613 113.408V112.145C63.3042 108.624 63.7257 105.118 64.3243 101.639C64.3243 101.639 67.7832 102.4 71.9166 103.505L86.8715 107.38C91.1771 108.485 94.2628 109.533 94.2628 109.892C94.0153 111.219 93.6797 112.528 93.2582 113.81C92.0526 117.585 92.4544 117.484 85.4363 116.422ZM69.7638 110.681C71.6152 108.973 70.5675 105.514 68.142 105.514C65.7165 105.514 64.4248 108.629 66.2331 110.94C66.7415 111.363 67.3917 111.578 68.0524 111.541C68.7131 111.503 69.335 111.217 69.7925 110.739L69.7638 110.681ZM166.999 109.992C166.655 109.332 165.392 107.28 164.287 105.314C162.478 102.257 162.378 101.74 163.081 101.395C164.689 100.692 195 91.9948 195.201 92.1957C195.303 93.8571 195.25 95.5243 195.043 97.1759C194.799 100.936 194.541 102.041 193.895 102.3C191.728 103.204 168.506 111.097 168.162 111.097C167.817 111.097 167.401 110.595 166.999 109.992ZM193.594 98.2236C193.826 97.9908 194.004 97.709 194.114 97.3987C194.224 97.0884 194.263 96.7575 194.229 96.4301C194.194 96.1028 194.087 95.7872 193.915 95.5066C193.743 95.2259 193.511 94.9871 193.235 94.8078C191.384 93.6596 189.417 96.5731 190.824 98.324C191.642 99.2282 192.589 99.2282 193.594 98.2236ZM78.7338 103.003C76.6671 102.457 74.1555 101.797 73.1078 101.568L71.2994 101.108L71.9453 98.6972C72.3041 97.3912 72.9069 95.6402 73.2083 94.8365C73.7536 93.473 73.6532 92.9707 72.0027 89.6984C71.2587 88.3267 70.653 86.8844 70.1943 85.3928C70.1943 84.5317 88.4359 73.2222 91.9521 71.9162C93.1073 71.5936 94.1633 70.9867 95.0235 70.1509C95.167 69.7059 97.6356 68.2994 100.449 66.936C102.676 65.912 104.851 64.7768 106.964 63.5345C108.27 62.6878 108.4 62.6878 109.232 63.5345C110.337 64.5966 110.179 64.8406 105.357 70.8254C103.229 73.5775 101.311 76.4847 99.6161 79.5228C96.6596 85.0053 94.148 87.9618 91.134 89.5693C89.3113 90.5308 88.809 91.0045 88.565 92.5401C88.3359 93.5989 87.9437 94.6157 87.4025 95.5541C86.648 97.0905 86.0285 98.6896 85.5511 100.333C84.2594 104.409 84.2163 104.409 78.7338 103.003ZM170.013 93.4013C169.568 92.1957 168.908 90.3299 168.578 89.2248C168.248 88.1197 167.516 87.1725 166.87 87.072C166.46 86.8967 166.089 86.6414 165.778 86.3211C165.468 86.0007 165.224 85.6217 165.062 85.2062C164.301 83.6562 163.942 83.4553 160.426 82.6946C157.275 81.9565 154.312 80.5682 151.729 78.6186C147.71 76.0065 146.16 75.3033 143.117 74.6574C141.051 74.1981 138.941 73.7532 138.496 73.5954C137.19 73.1935 137.391 71.9449 138.84 71.3851C143.149 70.4563 147.553 70.0515 151.958 70.1796C153.264 70.4235 154.183 70.1796 156.393 68.8161C157.46 68.2758 158.429 67.5629 159.264 66.7063C159.264 66.1036 155.891 66.5628 153.881 67.4096L152.274 68.0698L149.059 64.5535C146.57 61.9392 143.95 59.453 141.209 57.1048C139.481 55.7826 137.945 54.2274 136.645 52.4834C136.645 51.2778 138.295 51.7371 141.166 53.6459C142.601 54.6506 146.49 57.0043 149.662 58.9131C157.8 63.7498 158.603 63.5489 153.681 57.808C152.016 55.8561 148.255 51.7802 145.385 48.7662C140.06 43.1832 139.199 41.7337 141.309 41.7337C142.371 41.7337 158.661 53.3876 159.464 54.751C159.909 55.4543 161.273 55.4543 161.273 54.751C161.273 53.5024 150.81 44.7046 146.045 41.992C143.476 40.5568 142.716 39.423 143.577 38.5619C144.438 37.7007 159.407 46.0537 162.938 49.7278C164.201 51.0769 164.373 51.4357 163.799 52.2825C162.938 53.7177 162.995 53.7894 164.861 53.7894C165.835 53.8065 166.786 54.084 167.616 54.5932C168.277 55.0524 168.922 55.2964 169.052 55.1529C169.554 54.5932 168.147 49.4121 166.181 44.8911C164.014 39.9253 163.77 38.7054 164.832 38.7054C165.894 38.7054 166.985 39.9253 169.999 44.9916C173.385 50.3104 175.932 56.1195 177.548 62.2141C178.797 67.1369 178.854 68.7443 178.194 78.0015C178.742 80.5864 179.585 83.1 180.706 85.4933C181.718 87.5868 182.461 89.8003 182.916 92.0809C179.223 93.5228 175.423 94.6698 171.549 95.511C171.118 95.511 170.473 94.6068 170.013 93.4013ZM68.0272 81.0872C67.5248 80.2834 62.6451 63.9507 61.8988 60.6354C60.9372 56.6025 61.4395 55.3969 63.1044 57.765C63.6498 58.5687 65.7595 62.3002 67.7258 65.96C69.692 69.6198 71.5004 72.9065 71.7443 73.1361C72.6055 74.0977 72.749 72.9926 72.0027 71.1842C71.6019 70.3198 71.3311 69.4009 71.199 68.4573C73.4508 63.9761 76.0167 59.6597 78.8773 55.5404C79.5375 54.9376 81.2454 56.0858 82.5515 58.052C84.1767 60.1926 85.9769 62.1944 87.9335 64.0369C90.0863 66.1466 91.8086 68.199 91.7081 68.5578C91.0479 70.5097 86.728 69.0601 82.652 65.4434C80.2408 63.3767 80.2408 63.3767 79.7815 64.5392C78.8773 66.9934 78.7769 67.6966 79.1787 68.3999C79.5806 69.1031 80.7431 68.7013 80.7431 67.6536C80.7431 67.2517 80.8436 66.9503 81.0015 66.9503C83.0556 68.1383 84.9797 69.5381 86.7423 71.1268C86.8428 71.5717 69.5198 81.5321 68.6873 81.5321C68.5478 81.5231 68.4131 81.4771 68.2971 81.3989C68.181 81.3208 68.0879 81.2132 68.0272 81.0872ZM91.3493 65.0559C90.547 64.2228 89.8527 63.2922 89.2826 62.2859C90.314 60.9958 91.644 59.9761 93.1577 59.315C94.0188 59.315 96.0281 65.4003 95.4684 66.3045C94.5642 67.8402 93.4591 67.4096 91.3493 65.0559ZM85.8668 58.6118C85.221 57.6645 84.8191 56.6599 84.9626 56.4015C85.7764 55.8149 86.6772 55.3597 87.6321 55.0524C88.9382 54.5501 92.2105 53.0431 94.8082 51.7371C96.4693 50.8205 98.1798 49.9963 99.9319 49.2685C102.501 49.2685 91.6938 59.2145 88.1775 60.0757C87.2733 60.2766 86.8715 60.0183 85.8668 58.6118Z" fill="#BFBEBE"/>
<path d="M115.131 198.66C114.584 197.897 114.284 196.986 114.27 196.048C114.139 194.831 113.938 193.624 113.667 192.431C113.365 191.326 113.667 190.723 114.672 189.417C115.11 189.036 115.44 188.546 115.626 187.996C115.813 187.447 115.85 186.857 115.734 186.288C115.607 184.928 115.778 183.557 116.236 182.269L117.083 179.758L118.145 181.193C121.101 185.054 122.766 186.618 125.034 187.781L127.545 188.986L125.881 189.331C117.743 190.895 117.542 191.799 125.378 191.397C130.301 191.096 130.602 191.139 128.995 191.799C124.029 193.751 119.494 196.105 117.987 197.54C116.236 199.248 115.978 199.348 115.116 198.746L115.131 198.66ZM150.107 194.942C148.208 194.089 146.262 193.341 144.28 192.703C141.955 191.957 140.103 191.053 140.103 190.752C140.103 190.048 144.28 190.852 149.303 192.56C152.059 193.464 152.174 193.464 152.174 192.56C152.174 191.125 150.868 190.407 146.748 189.503L142.873 188.642L145.299 187.494C147.075 186.494 148.672 185.204 150.021 183.676L152.331 181.021L153.437 183.776C154.391 185.903 154.71 188.261 154.355 190.565C154.353 192.069 154.199 193.57 153.896 195.043C153.379 195.89 151.772 195.847 150.107 194.942ZM133.875 190.723C133.028 189.819 133.674 189.46 135.941 189.618C137.247 189.718 138.295 190.02 138.295 190.264C138.295 190.866 134.434 191.268 133.875 190.723ZM126.239 186.446C123.927 185.397 122.043 183.589 120.9 181.322C118.086 177.204 114.603 173.585 110.596 170.616C108.017 169.017 105.877 166.803 104.367 164.171C104.065 163.325 103.419 162.923 101.912 162.664C99.6879 162.32 98.8842 161.459 96.6309 156.995C94.8225 153.422 94.923 152.159 97.0758 150.508C100.991 148.108 105.416 146.662 109.993 146.289C118.231 146.289 126.124 144.681 130.947 141.983L133.214 140.72L130.746 142.988C129.311 144.193 128.335 145.298 128.493 145.456C129.405 145.506 130.319 145.419 131.205 145.198C134.69 144.522 137.774 142.514 139.802 139.601L141.409 137.333L143.275 139.744C146.648 144.122 156.694 150.551 161.172 151.226C164.043 151.628 164.947 152.833 164.186 155.158C163.024 158.718 164.99 157.813 166.554 154.096C167.401 151.987 168.707 151.082 168.707 152.661C168.707 155.331 165.248 159.995 163.282 159.995C161.316 159.995 161.115 160.354 159.508 163.109C157.816 165.82 155.301 167.917 152.331 169.094C151.427 169.396 150.667 169.855 150.667 170.099C150.667 170.903 151.93 171.104 153.336 170.601C155.144 169.898 155.101 170.501 152.934 174.907C149.662 181.695 145.141 185.154 137.247 186.819C132.267 187.881 128.636 187.781 126.297 186.518L126.239 186.446ZM126.483 180.418C126.986 178.653 127.387 178.208 129.655 177.146C130.76 176.52 131.987 176.139 133.252 176.027C134.517 175.916 135.791 176.077 136.989 176.5C139.056 177.246 139.558 176.701 138.152 175.28C137.19 174.376 136.444 174.175 133.631 174.175C129.799 174.175 125.737 175.481 124.933 177.045C124.292 178.787 124.222 180.687 124.732 182.47C125.278 183.332 125.938 182.571 126.483 180.418ZM134.233 172.424C135.789 171.876 137.411 171.538 139.056 171.419C141.223 171.419 141.926 170.659 140.922 169.611C140.419 169.051 139.816 169.008 138.51 169.41C137.412 169.72 136.279 169.889 135.138 169.912C134.463 169.858 133.79 170.036 133.229 170.415C132.784 171.161 131.062 171.017 129.713 170.113C128.363 169.209 128.277 169.31 123.527 170.314C120.915 170.86 119.953 171.663 120.757 172.467C121.317 173.027 123.082 172.926 126.742 172.166C127.768 171.936 128.844 172.1 129.756 172.625C130.248 172.867 130.727 173.136 131.191 173.429L134.162 172.424H134.233ZM134.09 167.846C134.736 166.999 135.999 165.478 136.846 164.53C137.692 163.583 138.352 162.564 138.281 162.32C137.721 161.416 136.515 161.918 134.363 163.87C131.937 166.095 131.492 166.238 130.387 165.133C129.827 164.573 129.684 163.698 129.885 161.459C130.169 159.644 129.889 157.785 129.081 156.134L128.019 153.723L129.282 152.288C130.531 150.853 131.435 147.566 130.717 146.92C130.559 146.719 129.512 147.566 128.507 148.772L126.598 150.982L121.116 150.379C118.102 150.078 114.628 149.676 113.38 149.532C112.637 149.351 111.859 149.377 111.13 149.607C110.402 149.837 109.75 150.263 109.246 150.838C108.513 151.369 107.868 152.014 107.338 152.747C108.605 153.058 109.92 153.126 111.213 152.948C115.289 152.69 123.527 153.651 125.091 154.383C126.34 155.044 127.445 157.799 127.445 160.368C127.51 161.713 127.041 163.028 126.139 164.028C124.89 165.463 124.833 165.592 125.737 165.793C126.792 166.25 127.762 166.881 128.607 167.659C131.004 169.855 132.569 169.912 134.133 167.846H134.09ZM101.855 159.148C101.679 158.427 101.335 157.758 100.85 157.196C100.17 156.328 99.6273 155.36 99.243 154.326C98.6402 152.518 97.1763 152.518 96.918 154.225C96.8175 155.029 97.4203 156.034 98.9273 157.541C101.224 159.909 101.855 160.253 101.855 159.148ZM120.958 157.541C121.36 157.541 122.565 157.239 123.627 157.096C125.062 156.838 125.436 156.637 125.062 156.134C124.374 155.388 111.27 155.187 109.835 155.933C108.4 156.68 108.83 157.369 110.84 157.369C112.171 157.446 113.474 157.787 114.672 158.373C116.48 159.277 116.724 159.277 118.432 158.574C119.254 158.182 120.097 157.837 120.958 157.541ZM153.968 156.995C157.025 154.369 156.838 153.666 153.508 155.388C150.537 156.823 145.471 157.239 143.763 156.134C142.055 155.029 142.199 154.57 145.012 154.699C147.48 154.9 155.058 153.034 155.058 152.288C152.453 151.831 149.809 151.629 147.165 151.685C144.111 151.766 141.058 151.496 138.065 150.881C137.214 150.224 136.527 149.38 136.056 148.413C134.994 146.16 134.147 146.26 134.291 148.614C134.325 149.742 134.698 150.834 135.36 151.748C136.023 152.662 136.946 153.355 138.008 153.737C138.538 153.911 139.027 154.194 139.442 154.567C139.857 154.94 140.19 155.396 140.419 155.905C140.778 156.909 141.524 157.412 143.849 158.215C145.509 158.77 147.229 159.127 148.973 159.277C151.011 159.349 151.571 159.048 154.039 156.995H153.968ZM76.3657 115.202C69.0749 114.14 63.047 113.193 62.8461 113.035C62.7748 111.054 62.8756 109.071 63.1474 107.107C63.7072 102.386 63.9081 101.568 64.5827 101.768C65.0276 101.926 71.6152 103.634 79.2075 105.644C86.7997 107.653 93.2295 109.418 93.4304 109.619C93.6313 109.82 93.4304 111.571 92.7845 113.595C91.823 116.609 91.5216 117.154 90.6174 117.111C90.0433 117.025 83.6136 116.178 76.3657 115.202ZM70.1943 110.667C71.5004 108.112 69.7925 104.696 67.5248 105.342C67.0017 105.483 66.5231 105.755 66.1343 106.132C65.7454 106.509 65.4592 106.979 65.3026 107.498C65.146 108.017 65.1243 108.567 65.2394 109.096C65.3545 109.625 65.6027 110.117 65.9605 110.523C66.9651 111.901 69.4337 112.002 70.1943 110.638V110.667ZM165.191 106.591C164.195 105.109 163.399 103.502 162.823 101.812C163.124 101.467 195.043 92.0665 195.201 92.2674C195.235 95.4801 194.879 98.685 194.139 101.812C193.694 102.371 169.21 111.169 168.104 111.169C166.995 109.736 166.02 108.203 165.191 106.591ZM193.795 98.3957C194.194 97.7536 194.351 96.9906 194.24 96.2429C194.039 94.3772 191.828 93.9753 190.68 95.6401C189.073 97.8217 192.087 100.434 193.795 98.324V98.3957ZM77.5713 102.558C75.6288 102.108 73.7123 101.552 71.8305 100.893C71.5291 100.534 72.2323 97.6781 73.2657 95.1522C73.8685 93.717 73.768 93.2433 72.017 89.5118C71.2648 88.0796 70.7372 86.5403 70.4527 84.9478C71.0555 83.9862 90.2012 72.5332 92.1674 71.9305C93.2149 71.6925 94.1746 71.1654 94.9374 70.4091C96.8509 68.9265 98.926 67.6651 101.123 66.6489C104.166 65.0989 106.964 63.5345 107.481 63.2474C107.582 63.1341 107.706 63.0434 107.844 62.9813C107.983 62.9192 108.133 62.887 108.285 62.887C108.437 62.887 108.587 62.9192 108.725 62.9813C108.864 63.0434 108.988 63.1341 109.089 63.2474C110.352 64.3095 110.05 65.1132 107.438 68.0267C103.899 72.1322 100.851 76.6356 98.3532 81.4459C97.1293 84.134 95.1999 86.4403 92.7702 88.1196C91.0192 89.4257 89.2539 90.7317 88.9525 90.9901C88.5002 91.5424 88.27 92.2434 88.3067 92.9563C88.3205 93.7092 88.0545 94.4405 87.5604 95.0086C86.6467 96.5032 85.9689 98.1298 85.5511 99.831C84.8478 102.199 83.9867 104.137 83.6423 104.007C83.2978 103.878 80.5709 103.362 77.6 102.572L77.5713 102.558ZM169.41 91.435C168.363 88.4784 167.66 87.2155 166.856 86.9141C166.05 86.4994 165.386 85.855 164.947 85.0626C164.186 83.5557 163.512 83.2112 158.259 82.0487C155.887 81.201 153.649 80.0168 151.614 78.5324C148.963 76.4088 145.818 74.9917 142.472 74.4134C140.844 74.0985 139.234 73.696 137.649 73.2078C137.491 73.1073 137.549 72.7055 137.649 72.3036C138.051 71.299 139.859 70.9402 147.552 70.5814C154.14 70.28 154.398 70.2369 156.953 68.5721C158.388 67.6248 159.522 66.6202 159.321 66.3618C158.962 65.759 156.451 66.2183 154.441 67.266C152.432 68.3137 151.571 67.8258 149.82 65.3572C147.522 62.7996 145.053 60.402 142.428 58.1811C137.104 53.488 135.669 51.7801 137.104 51.7801C137.951 51.7801 140.218 53.0861 145.543 56.5019C152.834 61.2381 156.049 62.946 156.451 62.3432C156.651 62.0419 156.451 61.1807 155.905 60.4344C154.642 58.6117 146.045 49.1824 142.845 45.9531C139.974 43.2836 139.63 42.3795 140.835 41.9345C142.041 41.4896 143.089 42.279 152.087 49.1106C156.623 52.4833 160.541 55.2964 160.785 55.2964C163.354 55.2964 154.355 47.0008 146.662 42.3795C143.117 40.2697 142.113 38.7053 144.179 38.7053C145.615 38.7053 153.939 43.1832 158.862 46.599C163.081 49.5699 164.689 51.4787 163.727 52.4403C162.765 53.4019 163.124 53.7894 164.89 53.7894C165.725 53.7673 166.542 54.0362 167.2 54.5501C167.567 54.9712 168.08 55.2379 168.635 55.2964C169.898 55.2964 168.994 51.2347 166.483 45.3503C165.573 43.4337 164.805 41.4525 164.186 39.4229C164.186 38.3609 165.392 38.5618 166.554 39.8678C169.623 44.191 172.294 48.7833 174.534 53.5885C178.007 61.1807 179.672 71.5429 178.208 76.3653C177.706 78.0157 177.806 78.6185 179.27 81.9913C182.428 89.3826 183.289 92.0378 182.629 92.253C180.921 92.8989 171.879 95.511 171.42 95.511C170.96 95.511 170.114 93.6739 169.41 91.435ZM65.7165 73.5809C59.4302 53.6172 59.9756 51.5074 67.5679 65.8882C69.2901 69.0457 70.998 72.117 71.3999 72.6768C72.6055 74.2842 72.8351 73.2221 71.9022 70.5527L71.0842 68.0123L74.6578 62.2715C79.4801 54.5213 79.4801 54.5213 81.7478 57.3344C82.7524 58.5973 85.4076 61.5108 87.7183 63.8215C89.2282 65.2385 90.6113 66.7849 91.8517 68.4429C91.8517 68.7012 91.2489 69.0457 90.5456 69.2036C88.8234 69.6485 86.5701 68.5434 83.3696 65.6299C81.9344 64.3812 80.4991 63.4771 80.2982 63.6206C79.3771 64.9427 78.918 66.5318 78.9922 68.1415C79.394 69.2466 80.7001 69.0457 80.901 67.8975C81.0589 66.9933 81.3603 67.0938 84.2163 69.0026C85.2824 69.6355 86.2909 70.3607 87.2303 71.1698C86.8284 71.5142 69.7925 80.9579 69.0892 81.2163C68.386 81.4746 67.8262 80.1255 65.7165 73.5809ZM91.2489 64.7975L89.0817 62.2428L90.847 60.8076C91.5118 60.1772 92.298 59.6889 93.1577 59.3724C93.4591 59.3724 94.2198 60.8937 94.8656 62.7451C95.9277 65.96 95.9277 66.1179 95.0235 66.7637C93.7174 67.6679 93.617 67.6105 91.2489 64.7975ZM85.9673 58.5686C85.221 57.5066 84.8191 56.6024 85.0631 56.3584C86.3518 55.6911 87.6794 55.1016 89.0386 54.5931C91.4691 53.6213 93.837 52.4996 96.1286 51.2347C102.013 48.0055 101.611 49.8713 95.167 55.1959C91.6077 58.2098 88.4789 60.334 87.5747 60.334C86.9647 59.8176 86.4244 59.2242 85.9673 58.5686Z" fill="#F4E4CC"/>
<path d="M115.332 198.66C114.629 198.516 114.428 197.956 114.428 196.048C114.428 194.612 114.227 193.435 113.925 193.278C113.021 192.732 113.423 190.723 114.672 189.517C115.676 188.556 115.877 187.91 115.834 185.786C115.825 184.321 116.063 182.866 116.537 181.48L117.241 179.715L118.245 181.15C119.915 183.849 122.209 186.109 124.933 187.738L127.244 188.9L124.23 189.503C119.924 190.35 119.393 190.508 119.752 191.11C119.953 191.412 121.905 191.512 125.177 191.311C129.153 191.053 130 191.11 128.995 191.555C122.006 194.727 119.393 196.134 117.886 197.397C117.194 198.081 116.297 198.52 115.332 198.645V198.66ZM150.509 195.143C148.61 194.174 146.626 193.381 144.581 192.775C139.96 191.34 138.496 190.163 141.969 190.723C144.021 191.098 146.052 191.577 148.055 192.158C150.308 192.818 152.274 193.22 152.36 192.962C153.264 191.527 149.849 189.646 145.428 189.144L142.902 188.843L145.17 187.695C146.858 186.709 148.403 185.497 149.762 184.092C150.514 183.156 151.355 182.295 152.274 181.523C152.829 182.35 153.268 183.248 153.58 184.193C154.484 186.446 154.585 187.364 154.24 190.78C153.939 193.938 153.681 194.842 152.805 195.402C151.93 195.961 151.671 195.89 150.509 195.143ZM133.832 190.565C133.674 190.321 134.478 190.02 135.683 189.919C137.994 189.661 138.697 189.819 138.295 190.565C137.893 191.311 134.234 191.168 133.832 190.565ZM76.3658 115.202C69.1898 114.14 63.047 113.193 62.8461 113.035C62.7749 111.054 62.8757 109.071 63.1475 107.107C63.7072 102.386 63.9082 101.568 64.5827 101.768C65.0276 101.926 71.6153 103.692 79.2075 105.644C86.7998 107.595 93.2295 109.418 93.4305 109.619C93.6314 109.82 93.4305 111.571 92.7846 113.595C91.823 116.609 91.5216 117.154 90.6175 117.111C90.0434 117.025 83.6136 116.178 76.3658 115.202ZM70.1944 110.667C70.6563 109.923 70.8537 109.045 70.7548 108.175C70.6558 107.305 70.2662 106.494 69.649 105.873C68.1277 104.811 67.4244 104.869 66.2189 106.074C65.632 106.649 65.2848 107.424 65.2476 108.245C65.2103 109.065 65.4856 109.869 66.0179 110.495C66.9652 111.901 69.4337 112.002 70.1944 110.638V110.667ZM165.191 106.591C164.255 105.075 163.462 103.475 162.823 101.812C162.923 101.668 169.267 99.7592 176.802 97.5059L192.991 92.7841L195.345 92.0808L195.043 96.3864C194.959 98.0973 194.723 99.7975 194.34 101.467C194.039 102.012 169.411 111.069 168.162 111.069C167.028 109.676 166.033 108.177 165.191 106.591ZM193.795 98.3957C194.194 97.7536 194.351 96.9906 194.24 96.2429C194.039 94.3341 191.785 93.9753 190.623 95.6832C189.618 97.1184 189.618 97.348 190.623 98.2953C190.82 98.5207 191.063 98.7019 191.335 98.8269C191.607 98.952 191.903 99.018 192.202 99.0207C192.502 99.0234 192.799 98.9628 193.073 98.8427C193.348 98.7226 193.593 98.5458 193.795 98.324V98.3957Z" fill="white"/>
</svg>