<svg fill="none" height="256" viewBox="0 0 256 256" width="256" xmlns="http://www.w3.org/2000/svg" xmlns:xlink="http://www.w3.org/1999/xlink">
<g clip-rule="evenodd" fill="#fff" fill-rule="evenodd" mask="url(#e)">
<path d="m196 0h-136c-33.1371 0-60 26.8629-60 60v136c0 33.137 26.8629 60 60 60h136c33.137 0 60-26.863 60-60v-136c0-33.1371-26.863-60-60-60z" fill="#242938"/>
<path d="m172.553 133.749c5.27-.48 10.539-.48 15.81-.958v-3.833c-5.271-.48-10.54-.48-15.81-.958l-15.809-.479c-9.103-.48-18.684-.48-27.786-.48 0-9.101 0-18.683-.48-27.7857l-.478-15.8089c-.48-5.2697-.48-10.5395-.959-15.8092h-4.312c-.479 5.2697-.479 10.5395-.957 15.8092l-.48 15.8089v12.9357c-1.915-3.833-3.354-8.145-5.269-11.977l-6.708-14.3722c-2.395-4.7906-4.311-9.5814-6.706-14.372l-3.8325 1.4371c1.9155 5.2699 3.3525 10.0605 5.2695 14.8512l5.749 14.8509c1.437 4.312 3.354 8.145 4.791 12.456-3.354-2.874-6.228-6.228-9.582-9.102l-11.498-11.0186c-3.8322-3.3537-7.6648-7.1863-11.9763-10.5398l-3.3535 3.3535c3.3535 3.8326 7.186 7.6649 10.5395 11.9771l11.018 11.4968c2.8753 3.354 6.2293 6.228 9.1033 9.582-3.833-1.437-8.145-3.354-12.4558-4.791l-14.8515-5.748c-4.7908-1.917-10.0605-3.834-14.8512-5.271l-1.9163 4.313c4.7907 2.395 9.5814 4.311 14.3721 6.706l14.3717 6.708c3.8323 1.915 8.144 3.353 11.977 5.269-4.311 0-8.6233 0-12.9347 0l-15.8094.478c-5.2697.48-10.5395.48-15.8092.959v4.312c5.2697.479 10.5395.479 15.8092.957l15.8094.48c9.5807.479 18.6837.479 27.7857.479 0 9.103 0 18.684.48 27.786l.478 15.809c.48 5.271.48 10.54.958 15.809h3.833c.48-5.269.48-10.538.958-15.809l.479-15.809c0-4.311 0-9.102.48-13.414 1.916 4.312 3.353 8.144 5.269 12.455l6.708 14.373c2.395 4.79 4.31 9.581 6.706 14.372l3.833-1.437c-1.438-5.269-3.353-10.06-5.27-14.851l-4.791-15.809c-1.437-4.312-3.352-8.145-4.791-12.457 3.354 3.354 6.229 6.228 9.582 9.103l11.498 11.018c3.833 3.354 7.665 7.187 11.977 10.54l2.874-2.875c-3.354-3.832-7.186-7.665-10.54-11.977l-11.018-11.497c-2.874-3.354-6.228-6.707-9.102-9.581 4.311 1.437 8.143 3.353 12.455 4.79l14.851 5.75c4.791 1.915 10.062 3.832 14.851 5.269l1.438-3.832c-4.79-2.396-9.581-4.791-14.372-6.708l-14.372-6.706c-4.312-1.917-8.145-3.833-12.456-5.271 4.311 0 9.102 0 13.414-.478z"/>
<path d="m128 231c-57.0092 0-103-45.991-103-103 0-57.0092 45.9908-103 103-103 57.009 0 103 45.9908 103 103 0 57.009-45.991 103-103 103zm0-196.4186c-51.2605 0-93.4186 42.1581-93.4186 93.4186 0 51.26 42.1581 93.418 93.4186 93.418 51.26 0 93.418-42.158 93.418-93.418 0-51.2605-42.158-93.4186-93.418-93.4186z"/>
</g>
</svg>