<svg width="256" height="256" viewBox="0 0 256 256" fill="none" xmlns="http://www.w3.org/2000/svg" id="confluence">
<style>
#confluence {
    rect {fill: #242938}

    @media (prefers-color-scheme: light) {
        rect {fill: #F4F2ED}
    }
}
</style>
<rect width="256" height="256" fill="#242938" rx="60"/>
<path d="M46.3757 172.24C44.4862 175.221 42.6314 178.224 40.8118 181.248C39.2286 183.896 40.0211 187.339 42.667 188.93L78.9378 211.186C81.5856 212.774 85.0222 211.976 86.6127 209.331C88.3154 206.291 90.0804 203.287 91.9064 200.321C106.208 176.747 120.765 179.394 146.708 191.848L182.718 208.796C185.627 210.123 188.808 208.795 190.128 206.148L207.34 167.211C208.659 164.558 207.34 161.119 204.685 159.792C197.01 156.346 181.925 149.191 168.686 142.572C119.712 118.99 78.138 120.581 46.3757 172.24Z" fill="url(#paint0_linear_316_1671)"/>
<path d="M208.924 83.7602C210.814 80.7792 212.669 77.7764 214.488 74.7523C216.077 72.1045 215.279 68.6606 212.633 67.0701L176.362 44.8142C173.715 43.2255 170.278 44.0235 168.688 46.6695C166.987 49.7102 165.223 52.7141 163.394 55.6792C149.092 79.2535 134.535 76.6057 108.592 64.152L72.5826 47.2045C69.6737 45.8769 66.5 47.2045 65.1724 49.8523L47.9674 88.7891C46.6417 91.4423 47.9674 94.8881 50.6152 96.2083C58.2901 99.6541 73.3824 106.809 86.6139 113.428C135.598 136.747 177.162 135.417 208.924 83.7602Z" fill="url(#paint1_linear_316_1671)"/>
<defs>
<linearGradient id="paint0_linear_316_1671" x1="206.469" y1="222.714" x2="96.9134" y2="159.81" gradientUnits="userSpaceOnUse">
<stop stop-color="#0052CC"/>
<stop offset="0.918" stop-color="#2380FB"/>
<stop offset="1" stop-color="#2684FF"/>
</linearGradient>
<linearGradient id="paint1_linear_316_1671" x1="48.8311" y1="33.2133" x2="158.387" y2="96.1243" gradientUnits="userSpaceOnUse">
<stop stop-color="#0052CC"/>
<stop offset="0.918" stop-color="#2380FB"/>
<stop offset="1" stop-color="#2684FF"/>
</linearGradient>
</defs>
</svg>
