<svg width="256" height="256" viewBox="0 0 256 256" fill="none" xmlns="http://www.w3.org/2000/svg">
<path d="M196 0H60C26.8629 0 0 26.8629 0 60V196C0 229.137 26.8629 256 60 256H196C229.137 256 256 229.137 256 196V60C256 26.8629 229.137 0 196 0Z" fill="#F4F2ED"/>
<path d="M128.878 216.72C114.422 216.728 100.182 213.207 87.3954 206.462C74.6084 199.717 63.6603 189.952 55.5012 178.014C47.3422 166.077 42.2187 152.328 40.5757 137.96C38.9326 123.593 40.8195 109.042 46.0726 95.5691C51.3258 82.0967 59.7864 70.1103 70.7201 60.6504C81.6538 51.1906 94.7302 44.543 108.814 41.2848C122.898 38.0266 137.565 38.2562 151.54 41.9537C165.515 45.6511 178.377 52.7046 189.01 62.5021L168.006 84.5493C159.622 76.9879 149.227 72.0204 138.079 70.2483C126.931 68.4762 115.509 69.9756 105.195 74.5649C94.882 79.1543 86.12 86.6366 79.9706 96.1057C73.8213 105.575 70.5484 116.624 70.5484 127.916C70.5484 139.208 73.8213 150.258 79.9706 159.727C86.12 169.196 94.882 176.678 105.195 181.267C115.509 185.857 126.931 187.356 138.079 185.584C149.227 183.812 159.622 178.844 168.006 171.283L189.01 193.246C172.632 208.361 151.16 216.743 128.878 216.72Z" fill="#E03875"/>
<path d="M200.366 172.262C198.927 172.262 197.521 171.836 196.326 171.036C195.13 170.237 194.198 169.101 193.647 167.772C193.097 166.442 192.953 164.98 193.233 163.569C193.514 162.158 194.207 160.861 195.224 159.844C196.241 158.827 197.536 158.134 198.947 157.853C200.358 157.572 201.82 157.717 203.148 158.267C204.477 158.818 205.613 159.75 206.412 160.946C207.211 162.143 207.637 163.549 207.637 164.988C207.637 166.917 206.871 168.767 205.508 170.132C204.144 171.496 202.294 172.262 200.366 172.262Z" fill="#E03875"/>
<path d="M128.319 147.11C124.513 147.11 120.792 145.981 117.628 143.866C114.464 141.75 111.997 138.744 110.541 135.227C109.085 131.709 108.703 127.839 109.446 124.105C110.188 120.371 112.021 116.941 114.712 114.249C117.403 111.557 120.832 109.724 124.565 108.981C128.297 108.238 132.166 108.619 135.682 110.076C139.198 111.533 142.204 114 144.318 117.166C146.432 120.332 147.561 124.053 147.561 127.86C147.561 132.966 145.534 137.862 141.925 141.472C138.316 145.082 133.422 147.11 128.319 147.11Z" fill="#E03875"/>
<path d="M208.729 147.389C207.291 147.389 205.885 146.963 204.689 146.163C203.493 145.364 202.561 144.228 202.011 142.899C201.46 141.569 201.316 140.107 201.597 138.696C201.877 137.284 202.57 135.988 203.587 134.971C204.604 133.954 205.9 133.261 207.31 132.98C208.721 132.699 210.183 132.843 211.512 133.394C212.84 133.945 213.976 134.877 214.775 136.073C215.574 137.27 216.001 138.676 216.001 140.115C215.993 142.042 215.225 143.888 213.863 145.25C212.501 146.613 210.655 147.382 208.729 147.389Z" fill="#E03875"/>
<path d="M187.08 146.55C185.642 146.55 184.236 146.123 183.04 145.324C181.845 144.525 180.913 143.389 180.362 142.059C179.812 140.73 179.668 139.267 179.948 137.856C180.229 136.445 180.922 135.149 181.938 134.132C182.955 133.114 184.251 132.421 185.662 132.141C187.072 131.86 188.535 132.004 189.863 132.555C191.192 133.105 192.328 134.038 193.127 135.234C193.926 136.43 194.352 137.837 194.352 139.275C194.352 141.205 193.586 143.055 192.222 144.419C190.859 145.783 189.009 146.55 187.08 146.55Z" fill="#E03875"/>
<path d="M208.729 122.908C207.291 122.908 205.885 122.481 204.689 121.682C203.493 120.883 202.561 119.746 202.011 118.417C201.46 117.088 201.316 115.625 201.597 114.214C201.877 112.803 202.57 111.507 203.587 110.49C204.604 109.472 205.9 108.779 207.31 108.499C208.721 108.218 210.183 108.362 211.512 108.913C212.84 109.463 213.976 110.396 214.775 111.592C215.574 112.788 216.001 114.195 216.001 115.634C215.993 117.561 215.225 119.407 213.863 120.769C212.501 122.132 210.655 122.901 208.729 122.908Z" fill="#E03875"/>
<path d="M187.08 123.747C185.642 123.747 184.236 123.321 183.04 122.521C181.845 121.722 180.913 120.586 180.362 119.257C179.812 117.927 179.668 116.465 179.948 115.054C180.229 113.642 180.921 112.346 181.938 111.329C182.955 110.312 184.251 109.619 185.662 109.338C187.072 109.057 188.534 109.201 189.863 109.752C191.192 110.303 192.328 111.235 193.127 112.431C193.926 113.627 194.352 115.034 194.352 116.473C194.352 117.428 194.164 118.374 193.799 119.256C193.433 120.139 192.898 120.941 192.222 121.617C191.547 122.292 190.746 122.828 189.863 123.193C188.981 123.559 188.035 123.747 187.08 123.747Z" fill="#E03875"/>
<path d="M200.786 98.4266C199.347 98.4266 197.941 98 196.746 97.2006C195.55 96.4013 194.618 95.2652 194.067 93.936C193.517 92.6068 193.373 91.1441 193.653 89.733C193.934 88.3219 194.627 87.0257 195.644 86.0084C196.661 84.991 197.956 84.2982 199.367 84.0175C200.777 83.7368 202.24 83.8808 203.568 84.4314C204.897 84.982 206.033 85.9144 206.832 87.1107C207.631 88.3069 208.057 89.7134 208.057 91.1521C208.057 92.1074 207.869 93.0533 207.504 93.9359C207.138 94.8185 206.603 95.6204 205.927 96.2959C205.252 96.9714 204.451 97.5073 203.568 97.8728C202.686 98.2384 201.74 98.4266 200.786 98.4266Z" fill="#E03875"/>
</svg>
