<svg width="256" height="256" viewBox="0 0 256 256" fill="none" xmlns="http://www.w3.org/2000/svg">
<rect width="256" height="256" rx="60" fill="#F4F2ED"/>
<path d="M237.526 107.593V107.605C236.486 111.784 233.493 114.811 231.34 116.721L231.287 116.768C230.952 117.059 230.6 117.332 230.235 117.584C230.393 117.909 230.527 118.245 230.634 118.591L230.651 118.655C231.062 120.031 231.166 121.481 230.958 122.903C230.567 125.279 229.923 127.608 229.042 129.849C228.653 130.937 228.284 131.967 228 132.98C227.218 135.689 226.327 138.896 225.609 142.172C225.099 144.561 224.919 147.009 225.077 149.447C225.171 150.524 224.978 151.607 224.517 152.585C224.057 153.564 223.345 154.402 222.455 155.015C220.726 156.35 218.788 157.388 216.718 158.089C213.31 159.125 210.931 158.222 209.536 157.279C209.307 157.124 209.089 156.956 208.882 156.775C207.159 157.854 205.232 158.563 203.221 158.859C202.417 158.979 201.608 159.04 200.795 159.044C199.218 159.089 197.65 158.8 196.193 158.195C194.734 157.59 193.422 156.684 192.339 155.536C192.054 155.237 191.786 154.922 191.535 154.593C190.779 155.138 189.984 155.625 189.155 156.051C186.821 157.288 184.154 157.75 181.539 157.371C179.331 157.128 177.242 156.249 175.525 154.842C173.553 153.093 172.263 150.705 171.878 148.099C171.756 147.45 171.672 146.795 171.63 146.137C170.467 147.798 169.21 149.355 168 150.819C165.756 153.658 162.909 155.963 159.665 157.568C156.298 159.212 152.439 159.542 148.842 158.494C146.858 158.004 144.964 157.201 143.233 156.115C142.314 155.517 141.485 154.79 140.773 153.956C140.067 154.686 139.361 155.357 138.683 156.005C138.272 156.399 137.856 156.792 137.45 157.192C136.818 157.817 136.066 158.31 135.24 158.64C134.414 158.97 133.53 159.131 132.641 159.113C132.167 159.113 131.695 159.074 131.228 158.998C129.17 158.693 127.162 158.117 125.255 157.284L125.197 157.255C123.268 156.397 121.619 155.013 120.439 153.262C118.652 154.723 116.683 155.946 114.582 156.902C112.494 157.912 110.248 158.552 107.943 158.795C105.916 159.021 103.875 159.101 101.836 159.032C98.4204 158.907 95.1037 157.851 92.2454 155.976C89.2574 153.942 87.1244 150.878 86.2547 147.369C86.2373 147.294 86.214 147.219 86.1966 147.144C85.214 147.6 84.1803 147.936 83.1175 148.145C80.3502 148.754 77.466 148.551 74.8115 147.56C73.4158 147.031 72.1774 146.156 71.2125 145.017C70.2478 143.878 69.588 142.513 69.2954 141.049C67.1312 144.143 65.1594 147.367 63.3915 150.703C63.2064 151.045 63.021 151.462 62.8185 151.896C62.4214 152.806 61.9651 153.69 61.4525 154.541C60.5779 155.996 59.3339 157.194 57.8466 158.014C56.3595 158.833 54.6821 159.244 52.9845 159.206H52.9556C51.1482 159.258 49.3556 158.867 47.7346 158.066C47.5495 157.967 47.37 157.863 47.1964 157.753C46.9475 157.881 46.6986 158.002 46.4381 158.124C44.1118 159.297 41.5988 160.054 39.0119 160.364L38.5952 160.41C37.5245 160.514 36.3494 160.63 35.1108 160.63C34.7577 160.63 34.3988 160.618 34.04 160.601C30.4764 160.45 27.0538 159.166 24.2696 156.937C21.4572 154.635 19.5335 151.427 18.8288 147.861C18.3259 145.451 18.2495 142.971 18.6031 140.534C19.1222 136.983 20.2729 133.555 22.0007 130.41C23.3165 127.897 24.8855 125.525 26.6833 123.331C28.6423 120.944 30.9625 118.878 33.5596 117.207C35.6631 115.836 38.0148 114.89 40.4822 114.423C43.8451 113.798 47.0748 114.603 50.3799 116.889C52.0911 118.06 53.5625 119.547 54.7151 121.271C56.9724 118.116 59.7972 116.293 63.1137 115.865C64.7879 115.591 66.5056 115.833 68.0395 116.558C69.5734 117.282 70.8509 118.455 71.7033 119.922C72.6567 119.267 73.6635 118.694 74.713 118.209C76.9169 117.122 79.3533 116.592 81.8092 116.663C85.6005 116.831 88.4831 118.087 90.613 120.507C91.4601 121.472 92.1039 122.598 92.5058 123.818C93.3579 122.784 94.2908 121.821 95.2956 120.935C97.9717 118.455 101.302 116.792 104.892 116.142C106.209 115.954 107.543 115.911 108.869 116.015C109.147 116.027 109.43 116.038 109.708 116.044C111.715 116.121 113.687 116.597 115.508 117.445C117.819 118.438 119.784 120.096 121.151 122.208C121.441 121.728 121.753 121.253 122.083 120.796C124.051 118.07 126.517 116.461 129.411 116.009C130.693 115.768 132.012 115.794 133.284 116.085C134.556 116.377 135.753 116.929 136.802 117.705C138.04 118.665 138.973 119.963 139.488 121.443C140.002 122.922 140.077 124.519 139.702 126.04C139.592 126.561 139.476 127.088 139.361 127.609C139.829 126.607 140.31 125.594 140.813 124.593C142.33 121.537 144.333 119.448 146.931 118.215C148.518 117.424 150.291 117.081 152.058 117.221C153.825 117.362 155.52 117.982 156.962 119.013C158.27 119.905 159.874 121.647 160.094 124.888C160.166 126.845 159.865 128.797 159.208 130.642C159.081 131.058 158.953 131.481 158.82 131.904L159.063 131.348C159.555 130.225 160.053 129.102 160.557 127.991C162.096 124.576 163.676 121.085 167.896 118.475C168.83 117.871 169.826 117.374 170.871 116.993C174.141 115.882 180.89 116.154 183.276 120.483C184.546 119.323 185.981 118.357 187.534 117.618C189.652 116.568 191.985 116.023 194.348 116.027L194.567 116.033C196.372 115.983 198.174 116.211 199.911 116.71C201.026 117.053 202.068 117.6 202.983 118.325C205.577 117.404 208.882 117.462 211.318 119.378C211.799 119.763 212.227 120.208 212.593 120.703C213.332 119.538 214.172 118.44 215.103 117.422C216.148 116.26 217.408 115.313 218.814 114.632C218.29 113.384 217.899 112.084 217.651 110.754C217.382 109.485 217.227 108.195 217.188 106.899V106.795C217.123 104.362 217.848 101.974 219.254 99.9878C220.121 98.7471 221.267 97.7272 222.6 97.0104C223.933 96.2936 225.416 95.8999 226.929 95.8609C229.074 95.7552 231.21 96.2206 233.117 97.2095C234.912 98.1921 236.325 99.7515 237.124 101.636C237.925 103.52 238.067 105.619 237.526 107.593Z" fill="#262626"/>
<path d="M233.305 106.553C232.611 109.337 230.538 111.623 228.448 113.475C227.706 114.113 226.872 114.635 225.971 115.021C224.884 115.501 224.154 115.194 223.5 114.216C222.69 112.891 222.145 111.42 221.896 109.887C221.677 108.864 221.55 107.824 221.521 106.778C221.462 105.265 221.899 103.773 222.765 102.53C223.247 101.825 223.89 101.246 224.641 100.841C225.392 100.437 226.23 100.218 227.083 100.203C228.47 100.125 229.853 100.419 231.088 101.054C233.074 102.085 233.827 104.452 233.305 106.553Z" fill="#FF5A50"/>
<path d="M226.489 119.895C226.031 118.442 224.694 118.181 223.403 118.06C221.286 117.869 219.624 118.934 218.286 120.375C217.186 121.607 216.224 122.959 215.422 124.404C213.743 127.306 212.722 130.512 211.745 133.695C211.109 135.764 210.551 137.585 209.758 140.271C209.289 141.86 208.76 144.311 207.288 145.548C206.922 145.887 206.441 146.079 205.941 146.086C205.327 146 205.106 145.351 205.079 144.749C205.043 144.084 205.043 143.418 205.073 142.752C205.241 140.712 205.668 138.701 206.34 136.767C207.323 133.584 208.383 130.424 209.337 127.229C209.745 126.126 209.764 124.917 209.39 123.802C209.228 123.409 208.969 123.062 208.637 122.795C207.312 121.753 204.91 121.927 203.458 122.893C202.977 123.223 202.502 123.565 201.999 123.912C201.888 123.733 201.802 123.605 201.721 123.466C201.398 122.844 200.956 122.291 200.419 121.841C199.881 121.39 199.259 121.052 198.589 120.844C197.188 120.473 195.738 120.313 194.289 120.37C192.585 120.379 190.907 120.781 189.386 121.545C186.995 122.755 184.958 124.566 183.477 126.8C181.836 129.04 180.376 131.407 179.113 133.879C177.799 136.366 176.842 139.026 176.27 141.78C176.077 142.788 175.96 143.81 175.924 144.836C175.914 145.668 175.99 146.498 176.149 147.314C176.356 148.936 177.131 150.433 178.337 151.539C179.436 152.412 180.766 152.947 182.163 153.078C183.872 153.329 185.617 153.025 187.141 152.21C188.794 151.34 190.28 150.186 191.533 148.801C192.061 148.234 192.616 147.69 193.218 147.065C193.287 147.429 193.339 147.661 193.375 147.892C193.591 149.623 194.327 151.248 195.486 152.552C197.443 154.612 199.95 154.954 202.59 154.566C204.041 154.35 205.431 153.83 206.667 153.039C207.313 152.628 209.207 150.407 209.947 150.983C210.855 151.691 210.947 152.998 211.962 153.682C212.489 153.982 213.076 154.16 213.68 154.205C214.285 154.25 214.891 154.159 215.457 153.94C217.072 153.365 218.585 152.534 219.937 151.48C220.23 151.288 220.463 151.014 220.606 150.693C220.749 150.372 220.796 150.016 220.74 149.669C220.569 146.844 220.778 144.009 221.366 141.241C222.066 138.063 222.924 134.921 223.82 131.795C224.723 128.612 226.211 125.596 226.663 122.279C226.778 121.481 226.72 120.667 226.489 119.895ZM197.287 129.897C196.368 133.777 194.572 137.394 192.037 140.472C191.156 141.644 190.093 142.668 188.889 143.505C188.176 143.98 187.482 144.153 187.088 143.273C186.98 143.031 186.912 142.773 186.885 142.509C186.729 140.999 187.476 139.424 187.992 138.047C188.559 136.495 189.193 134.977 189.896 133.491C190.909 131.344 192.096 129.284 193.947 127.738C194.553 127.281 195.228 126.922 195.944 126.673C196.436 126.476 197.015 126.916 197.24 127.46C197.511 128.248 197.527 129.1 197.287 129.897Z" fill="#FF5A50"/>
<path d="M88.7106 137.938C87.6802 141.139 85.6254 143.217 82.2567 143.894C80.2971 144.34 78.2502 144.207 76.3645 143.512C75.5205 143.189 74.7915 142.623 74.27 141.885C73.7485 141.147 73.4581 140.271 73.4357 139.367C73.2967 136.954 74.2634 134.87 75.3863 132.833C75.8552 131.988 76.3413 131.148 76.7292 130.263C76.8958 129.82 76.9592 129.345 76.9143 128.874C76.8912 128.717 76.8326 128.567 76.743 128.437C76.6535 128.306 76.5352 128.197 76.3974 128.119C76.2596 128.041 76.1057 127.995 75.9475 127.986C75.7894 127.976 75.6311 128.003 75.4847 128.063C74.6498 128.451 73.8711 128.949 73.1694 129.545C70.3506 132.132 68.0875 135.188 65.9053 138.32C63.5719 141.633 61.4494 145.089 59.5499 148.669C58.9307 149.85 58.4675 151.123 57.7673 152.246C57.2794 153.078 56.5747 153.761 55.7285 154.223C54.8822 154.684 53.9264 154.908 52.9631 154.868C51.8536 154.917 50.7489 154.695 49.7449 154.22C48.9693 153.801 48.3756 153.11 48.0779 152.281C46.9261 152.923 45.7858 153.635 44.5819 154.202C42.7041 155.158 40.6755 155.783 38.5853 156.049C37.1637 156.234 35.7296 156.308 34.2965 156.269C31.6395 156.173 29.0833 155.227 27.0034 153.571C24.956 151.891 23.5631 149.546 23.0675 146.944C22.6721 145.022 22.6172 143.045 22.9054 141.104C23.3553 138.064 24.3473 135.129 25.8342 132.439C27.015 130.185 28.4231 128.057 30.0364 126.089C31.7095 124.051 33.6896 122.286 35.9055 120.857C37.5422 119.793 39.3706 119.057 41.2885 118.692C43.7716 118.229 45.9132 119.086 47.9043 120.463C49.2898 121.403 50.4598 122.626 51.3367 124.052C52.1407 125.506 52.3542 127.214 51.9328 128.821C51.5029 130.576 50.8716 132.276 50.0517 133.886C49.2992 135.553 48.5526 137.22 47.7827 138.881C47.6555 139.242 47.3904 139.538 47.0453 139.704C46.7004 139.87 46.3036 139.893 45.9421 139.767C44.8691 139.427 43.9039 138.812 43.1423 137.984C42.3807 137.155 41.8492 136.141 41.6011 135.044C41.4206 133.471 41.6769 131.879 42.3419 130.442C43.0306 128.665 43.8236 126.929 44.5877 125.187C44.6583 125.07 44.7044 124.94 44.7231 124.804C44.7416 124.669 44.7326 124.531 44.6963 124.4C44.6601 124.268 44.5972 124.145 44.5119 124.039C44.4265 123.932 44.3204 123.844 44.1998 123.78C43.3229 123.984 42.5281 124.448 41.9194 125.111C40.8428 126.176 39.824 127.299 38.8516 128.463C36.8938 130.908 35.2237 133.571 33.8739 136.398C33.0289 138.024 32.5023 139.796 32.3227 141.619C32.1438 143.02 32.1888 144.44 32.4558 145.827C32.6024 146.708 33.0477 147.513 33.7168 148.105C34.3861 148.697 35.2384 149.041 36.1313 149.08C39.5554 149.271 42.954 148.391 45.8553 146.562C46.9616 145.804 48.0243 144.985 49.0387 144.108C49.2245 143.933 49.3638 143.714 49.444 143.471C50.4684 140.733 51.4292 137.972 52.5175 135.264C53.3162 133.255 54.2655 131.305 55.1569 129.337C55.9959 127.404 57.0234 125.558 58.2245 123.826C59.5789 121.922 61.2864 120.481 63.6653 120.174C65.5811 119.925 67.3465 120.568 68.2612 122.732C69.0656 124.637 68.6026 126.466 67.9833 128.295C67.8212 128.764 67.665 129.232 67.4623 129.834C68.5795 128.619 69.5287 127.461 70.5995 126.442C72.3236 124.694 74.3267 123.245 76.5266 122.154C78.1024 121.364 79.8463 120.969 81.6085 121.002C83.7906 121.1 85.828 121.65 87.3562 123.381C88.0212 124.162 88.4596 125.111 88.6237 126.124C88.9826 128.005 88.3575 129.695 87.6629 131.386C87.1477 132.636 86.621 133.886 86.2332 135.177C85.9206 136.224 86.4763 136.965 87.5877 137.249C87.8341 137.313 88.086 137.354 88.3401 137.371C88.751 137.388 88.8089 137.619 88.7106 137.938Z" fill="white"/>
<path d="M179.55 122.732C178.638 120.687 174.134 120.471 172.274 121.104C171.539 121.38 170.838 121.737 170.183 122.17C167.074 124.093 165.969 126.562 164.511 129.787C163.064 132.971 161.732 136.212 160.182 139.343C159.151 141.357 157.979 143.295 156.674 145.143C155.932 146.345 154.743 147.203 153.369 147.528C152.553 147.69 152.217 147.325 151.927 146.613C151.661 145.96 151.499 145.268 151.447 144.564C151.331 142.543 151.592 140.517 152.217 138.591C153.137 135.506 154.127 132.444 155.059 129.365C155.55 128.027 155.79 126.61 155.765 125.186C155.771 124.688 155.662 124.197 155.446 123.749C155.23 123.301 154.913 122.909 154.521 122.604C153.702 122.006 152.735 121.646 151.724 121.563C150.714 121.48 149.701 121.678 148.796 122.135C146.874 123.05 145.618 124.682 144.698 126.534C143.396 129.139 142.221 131.807 140.947 134.423C140.073 136.235 139.13 138.018 138.215 139.806C137.057 142.266 135.663 144.607 134.054 146.798C133.799 147.123 133.348 147.574 133.058 147.522C132.711 147.47 132.433 146.943 132.138 146.613C132.087 146.553 132.052 146.481 132.034 146.405C131.592 144.81 131.515 143.137 131.808 141.508C132.103 139.667 132.474 137.833 132.896 136.015C133.73 132.386 134.679 128.78 135.46 125.133C135.663 124.417 135.647 123.656 135.416 122.948C135.186 122.24 134.75 121.617 134.164 121.157C133.58 120.74 132.916 120.448 132.213 120.3C131.511 120.153 130.785 120.153 130.083 120.3C128.156 120.601 126.738 121.771 125.609 123.333C124.227 125.256 123.246 127.437 122.726 129.747C122.281 131.657 121.986 133.602 121.667 135.546C121.523 136.443 121.517 137.358 121.407 138.267C121.375 138.518 121.268 138.754 121.1 138.944C120.33 139.748 119.549 140.536 118.744 141.306C117.221 142.774 115.475 143.993 113.571 144.917C112.33 145.582 110.962 145.971 109.557 146.059C108.153 146.147 106.746 145.931 105.433 145.427C104.583 145.106 103.828 144.575 103.239 143.884C102.65 143.193 102.246 142.363 102.064 141.473C103.193 141.473 104.281 141.485 105.369 141.473C107.944 141.445 110.473 140.783 112.731 139.546C114.86 138.462 116.591 136.732 117.675 134.603C118.901 132.228 119.196 129.48 118.502 126.899C118.193 125.678 117.602 124.546 116.777 123.594C115.952 122.642 114.915 121.897 113.75 121.418C112.447 120.801 111.034 120.451 109.594 120.387C108.269 120.273 106.935 120.287 105.612 120.428C102.826 120.946 100.245 122.249 98.1744 124.184C95.9733 126.165 94.1548 128.533 92.8088 131.171C91.2564 134.097 90.2964 137.301 89.9841 140.599C89.7995 142.485 89.9544 144.389 90.4414 146.22C91.0408 148.725 92.5485 150.92 94.6726 152.378C96.8805 153.812 99.4385 154.614 102.07 154.699C103.904 154.754 105.739 154.679 107.563 154.473C109.381 154.266 111.151 153.749 112.795 152.945C115.504 151.707 117.945 149.953 119.984 147.782C120.621 147.117 121.228 146.416 121.773 145.809C122.293 147.076 122.762 148.39 123.358 149.64C124.078 151.265 125.37 152.569 126.988 153.304C128.554 153.988 130.205 154.461 131.896 154.711C132.332 154.824 132.79 154.828 133.228 154.722C133.667 154.616 134.072 154.404 134.408 154.103C135.525 153.003 136.688 151.944 137.777 150.815C138.386 150.141 138.96 149.436 139.496 148.703C140.289 147.69 141.07 146.659 141.898 145.583C141.99 146.11 142.054 146.555 142.152 146.995C142.668 149.235 143.623 151.18 145.62 152.494C146.975 153.327 148.454 153.94 150.001 154.311C152.589 155.076 155.368 154.842 157.792 153.657C160.464 152.321 162.805 150.409 164.651 148.06C166.132 146.316 167.513 144.49 168.79 142.59C170.728 139.615 172.558 136.554 174.329 133.468C175.23 131.899 176.107 130.315 176.976 128.728C177.688 127.433 179.591 125.149 179.706 123.693C179.737 123.365 179.683 123.034 179.55 122.732ZM102.84 134.07C103.436 132.44 104.335 130.938 105.491 129.642C106.186 128.772 107.148 128.154 108.228 127.883C108.587 127.824 108.954 127.857 109.297 127.978C109.639 128.1 109.945 128.306 110.187 128.577C110.428 128.849 110.597 129.177 110.678 129.531C110.758 129.885 110.748 130.254 110.648 130.603C109.82 134.122 107.487 136.114 104.096 136.982C103.355 137.106 102.606 137.178 101.856 137.196C102.214 136.038 102.492 135.043 102.84 134.07Z" fill="white"/>
</svg>
