<svg width="256" height="256" viewBox="0 0 256 256" fill="none" xmlns="http://www.w3.org/2000/svg">
<rect width="256" height="256" rx="60" fill="#242938"/>
<path d="M237.142 101.747V101.759C236.101 105.938 233.108 108.965 230.955 110.875L230.902 110.921C230.568 111.213 230.215 111.485 229.85 111.737C230.008 112.063 230.142 112.399 230.249 112.745L230.267 112.808C230.677 114.185 230.781 115.635 230.573 117.057C230.182 119.433 229.539 121.761 228.657 124.003C228.269 125.091 227.899 126.121 227.615 127.134C226.833 129.843 225.942 133.049 225.224 136.326C224.714 138.715 224.534 141.163 224.692 143.601C224.786 144.678 224.593 145.761 224.132 146.739C223.672 147.717 222.96 148.556 222.07 149.169C220.341 150.503 218.403 151.542 216.334 152.243C212.925 153.279 210.546 152.376 209.152 151.432C208.922 151.278 208.704 151.11 208.497 150.929C206.774 152.007 204.847 152.717 202.836 153.013C202.033 153.132 201.223 153.194 200.41 153.198C198.833 153.243 197.265 152.953 195.808 152.349C194.349 151.744 193.037 150.838 191.954 149.69C191.669 149.391 191.401 149.076 191.15 148.747C190.394 149.291 189.599 149.779 188.771 150.205C186.436 151.442 183.769 151.904 181.154 151.525C178.946 151.282 176.858 150.403 175.14 148.996C173.169 147.247 171.878 144.859 171.494 142.252C171.371 141.604 171.288 140.949 171.245 140.29C170.082 141.952 168.825 143.509 167.615 144.973C165.371 147.812 162.524 150.117 159.28 151.722C155.913 153.366 152.054 153.696 148.457 152.648C146.473 152.158 144.579 151.355 142.848 150.269C141.929 149.671 141.1 148.944 140.388 148.11C139.682 148.839 138.976 149.511 138.299 150.159C137.888 150.553 137.471 150.946 137.066 151.346C136.433 151.971 135.681 152.463 134.855 152.794C134.029 153.124 133.145 153.285 132.256 153.267C131.783 153.267 131.31 153.228 130.843 153.151C128.785 152.847 126.777 152.27 124.87 151.438L124.812 151.409C122.883 150.551 121.234 149.167 120.054 147.416C118.267 148.876 116.298 150.1 114.197 151.056C112.11 152.065 109.864 152.706 107.558 152.949C105.531 153.175 103.49 153.255 101.452 153.186C98.0356 153.061 94.7189 152.004 91.8606 150.13C88.8726 148.096 86.7397 145.032 85.8699 141.523C85.8525 141.448 85.8293 141.373 85.8119 141.298C84.8293 141.753 83.7955 142.09 82.7327 142.299C79.9654 142.908 77.0812 142.705 74.4268 141.714C73.031 141.185 71.7927 140.31 70.8277 139.171C69.863 138.032 69.2032 136.666 68.9106 135.203C66.7464 138.297 64.7746 141.521 63.0068 144.857C62.8216 145.199 62.6363 145.615 62.4337 146.05C62.0366 146.96 61.5803 147.844 61.0677 148.695C60.1932 150.15 58.9491 151.348 57.4618 152.167C55.9747 152.987 54.2973 153.398 52.5997 153.36H52.5708C50.7635 153.412 48.9709 153.021 47.3499 152.22C47.1647 152.121 46.9852 152.017 46.8116 151.907C46.5627 152.034 46.3138 152.156 46.0534 152.277C43.727 153.45 41.2141 154.208 38.6271 154.518L38.2104 154.564C37.1397 154.668 35.9646 154.784 34.726 154.784C34.3729 154.784 34.0141 154.772 33.6553 154.755C30.0916 154.604 26.669 153.32 23.8849 151.091C21.0724 148.789 19.1488 145.58 18.444 142.015C17.9411 139.605 17.8647 137.124 18.2183 134.687C18.7374 131.137 19.8881 127.709 21.6159 124.564C22.9317 122.051 24.5007 119.679 26.2985 117.485C28.2575 115.098 30.5777 113.032 33.1749 111.361C35.2783 109.99 37.6301 109.044 40.0974 108.577C43.4603 107.952 46.69 108.757 49.9951 111.043C51.7063 112.214 53.1778 113.701 54.3303 115.424C56.5877 112.27 59.4124 110.447 62.7289 110.018C64.4031 109.745 66.1209 109.987 67.6547 110.711C69.1886 111.436 70.4662 112.609 71.3185 114.076C72.2719 113.421 73.2787 112.848 74.3283 112.363C76.5321 111.276 78.9685 110.745 81.4245 110.817C85.2157 110.985 88.0983 112.241 90.2282 114.661C91.0753 115.626 91.7191 116.752 92.121 117.971C92.9731 116.938 93.906 115.974 94.9108 115.089C97.5869 112.608 100.917 110.945 104.508 110.296C105.824 110.107 107.158 110.065 108.484 110.169C108.762 110.18 109.046 110.192 109.323 110.198C111.33 110.275 113.302 110.751 115.123 111.599C117.435 112.592 119.399 114.25 120.766 116.362C121.056 115.882 121.368 115.407 121.698 114.95C123.666 112.224 126.132 110.615 129.026 110.163C130.308 109.921 131.627 109.947 132.899 110.239C134.171 110.531 135.369 111.083 136.417 111.859C137.655 112.819 138.588 114.117 139.103 115.597C139.618 117.076 139.692 118.673 139.317 120.194C139.207 120.715 139.092 121.242 138.976 121.763C139.445 120.761 139.925 119.748 140.429 118.747C141.945 115.691 143.948 113.601 146.547 112.368C148.133 111.578 149.906 111.235 151.673 111.375C153.44 111.516 155.136 112.136 156.578 113.167C157.886 114.059 159.489 115.801 159.709 119.042C159.781 120.999 159.48 122.951 158.823 124.796C158.696 125.212 158.569 125.635 158.435 126.057L158.679 125.502C159.171 124.379 159.668 123.256 160.173 122.144C161.712 118.73 163.292 115.239 167.511 112.629C168.445 112.025 169.442 111.528 170.487 111.147C173.756 110.036 180.506 110.308 182.891 114.637C184.161 113.477 185.596 112.511 187.15 111.772C189.267 110.722 191.6 110.177 193.963 110.18L194.183 110.186C195.988 110.137 197.79 110.365 199.526 110.863C200.641 111.206 201.683 111.754 202.598 112.478C205.192 111.558 208.497 111.616 210.933 113.532C211.414 113.916 211.842 114.362 212.208 114.857C212.947 113.692 213.788 112.594 214.719 111.576C215.764 110.414 217.024 109.466 218.43 108.786C217.905 107.538 217.515 106.238 217.266 104.908C216.997 103.639 216.842 102.349 216.803 101.053V100.949C216.739 98.5159 217.463 96.128 218.869 94.1416C219.736 92.9009 220.882 91.881 222.215 91.1642C223.548 90.4474 225.031 90.0537 226.544 90.0147C228.69 89.909 230.825 90.3744 232.732 91.3633C234.527 92.346 235.94 93.9053 236.74 95.7895C237.541 97.6736 237.682 99.7726 237.142 101.747Z" fill="#262626"/>
<path d="M232.92 100.706C232.226 103.491 230.154 105.777 228.064 107.629C227.321 108.267 226.487 108.788 225.586 109.174C224.499 109.655 223.77 109.348 223.115 108.37C222.305 107.044 221.76 105.574 221.512 104.04C221.292 103.018 221.165 101.978 221.136 100.932C221.078 99.4184 221.515 97.9268 222.38 96.6837C222.862 95.9791 223.505 95.4001 224.256 94.9953C225.008 94.5904 225.845 94.3715 226.699 94.3569C228.086 94.279 229.468 94.5727 230.703 95.2078C232.689 96.2386 233.442 98.6054 232.92 100.706Z" fill="#FF5A50"/>
<path d="M226.104 114.048C225.646 112.596 224.309 112.335 223.019 112.214C220.901 112.023 219.239 113.088 217.902 114.529C216.801 115.761 215.839 117.112 215.037 118.557C213.358 121.46 212.338 124.666 211.36 127.848C210.724 129.918 210.166 131.739 209.374 134.425C208.904 136.014 208.375 138.464 206.904 139.702C206.537 140.041 206.056 140.233 205.556 140.24C204.942 140.153 204.722 139.505 204.694 138.903C204.659 138.237 204.659 137.572 204.688 136.906C204.856 134.866 205.283 132.855 205.955 130.921C206.939 127.738 207.998 124.578 208.953 121.383C209.36 120.28 209.379 119.071 209.005 117.956C208.843 117.563 208.584 117.216 208.253 116.949C206.927 115.907 204.526 116.081 203.073 117.047C202.592 117.377 202.117 117.719 201.614 118.066C201.503 117.887 201.417 117.759 201.337 117.62C201.014 116.997 200.571 116.445 200.034 115.994C199.497 115.544 198.874 115.206 198.205 114.998C196.803 114.627 195.353 114.467 193.905 114.524C192.201 114.533 190.523 114.935 189.001 115.699C186.61 116.909 184.573 118.72 183.092 120.954C181.451 123.194 179.991 125.561 178.728 128.033C177.414 130.52 176.457 133.18 175.885 135.934C175.692 136.942 175.576 137.964 175.539 138.99C175.529 139.821 175.605 140.651 175.764 141.467C175.972 143.09 176.746 144.587 177.952 145.693C179.051 146.565 180.381 147.1 181.778 147.232C183.487 147.483 185.232 147.178 186.756 146.364C188.409 145.494 189.896 144.34 191.148 142.955C191.676 142.388 192.231 141.844 192.833 141.218C192.902 141.583 192.955 141.815 192.99 142.046C193.206 143.777 193.943 145.402 195.102 146.705C197.059 148.766 199.565 149.108 202.205 148.72C203.656 148.504 205.046 147.983 206.282 147.192C206.928 146.781 208.823 144.561 209.562 145.137C210.47 145.844 210.562 147.152 211.578 147.836C212.104 148.136 212.691 148.314 213.295 148.359C213.9 148.403 214.507 148.313 215.072 148.094C216.687 147.519 218.2 146.688 219.552 145.634C219.846 145.442 220.078 145.168 220.221 144.847C220.364 144.526 220.411 144.17 220.356 143.822C220.185 140.998 220.394 138.163 220.981 135.395C221.681 132.217 222.539 129.074 223.435 125.949C224.338 122.765 225.826 119.75 226.278 116.433C226.393 115.635 226.335 114.821 226.104 114.048ZM196.902 124.051C195.983 127.931 194.187 131.548 191.652 134.626C190.771 135.798 189.709 136.822 188.504 137.659C187.791 138.133 187.097 138.307 186.704 137.427C186.596 137.185 186.527 136.927 186.501 136.663C186.344 135.152 187.091 133.578 187.607 132.201C188.174 130.649 188.808 129.131 189.511 127.645C190.524 125.498 191.711 123.437 193.563 121.892C194.168 121.435 194.843 121.075 195.559 120.827C196.052 120.63 196.63 121.07 196.856 121.614C197.126 122.402 197.142 123.254 196.902 124.051Z" fill="#FF5A50"/>
<path d="M88.3258 132.092C87.2954 135.292 85.2406 137.37 81.8719 138.047C79.9123 138.493 77.8654 138.361 75.9797 137.665C75.1357 137.343 74.4067 136.777 73.8852 136.039C73.3637 135.301 73.0733 134.424 73.051 133.521C72.912 131.108 73.8786 129.024 75.0015 126.986C75.4704 126.141 75.9565 125.302 76.3444 124.416C76.511 123.974 76.5744 123.498 76.5296 123.027C76.5065 122.871 76.4479 122.721 76.3583 122.59C76.2687 122.46 76.1504 122.351 76.0126 122.273C75.8748 122.195 75.7209 122.149 75.5628 122.14C75.4046 122.13 75.2463 122.156 75.0999 122.217C74.2651 122.605 73.4864 123.103 72.7847 123.699C69.9658 126.286 67.7028 129.342 65.5205 132.474C63.1872 135.787 61.0646 139.243 59.1652 142.823C58.5459 144.004 58.0828 145.277 57.3825 146.4C56.8947 147.231 56.1899 147.915 55.3437 148.376C54.4975 148.838 53.5416 149.061 52.5783 149.022C51.4689 149.071 50.3641 148.848 49.3602 148.374C48.5845 147.955 47.9908 147.264 47.6931 146.435C46.5413 147.077 45.401 147.789 44.1971 148.356C42.3193 149.312 40.2907 149.936 38.2006 150.203C36.7789 150.388 35.3449 150.462 33.9117 150.422C31.2548 150.327 28.6985 149.381 26.6186 147.725C24.5712 146.045 23.1783 143.7 22.6827 141.098C22.2873 139.176 22.2324 137.199 22.5206 135.258C22.9705 132.217 23.9625 129.283 25.4494 126.593C26.6303 124.339 28.0383 122.211 29.6516 120.243C31.3248 118.205 33.3049 116.44 35.5207 115.011C37.1575 113.947 38.9859 113.211 40.9037 112.846C43.3868 112.383 45.5284 113.24 47.5195 114.617C48.905 115.557 50.075 116.78 50.9519 118.206C51.7559 119.66 51.9694 121.368 51.5481 122.975C51.1181 124.73 50.4869 126.43 49.6669 128.04C48.9144 129.707 48.1678 131.374 47.3979 133.035C47.2707 133.396 47.0056 133.692 46.6605 133.858C46.3156 134.024 45.9188 134.047 45.5574 133.921C44.4843 133.581 43.5191 132.966 42.7575 132.137C41.9959 131.309 41.4645 130.295 41.2163 129.197C41.0358 127.625 41.2922 126.033 41.9572 124.596C42.6458 122.819 43.4389 121.083 44.203 119.34C44.2736 119.223 44.3196 119.093 44.3383 118.958C44.3569 118.823 44.3478 118.685 44.3116 118.554C44.2753 118.422 44.2125 118.299 44.1271 118.193C44.0418 118.086 43.9357 117.998 43.8151 117.934C42.9382 118.138 42.1434 118.602 41.5346 119.265C40.4581 120.33 39.4392 121.453 38.4669 122.616C36.509 125.062 34.8389 127.725 33.4892 130.552C32.6441 132.178 32.1175 133.949 31.9379 135.773C31.759 137.174 31.804 138.594 32.071 139.981C32.2176 140.862 32.663 141.667 33.332 142.259C34.0013 142.851 34.8537 143.195 35.7465 143.234C39.1706 143.425 42.5693 142.545 45.4706 140.716C46.5768 139.958 47.6395 139.139 48.6539 138.262C48.8397 138.086 48.979 137.868 49.0592 137.625C50.0836 134.887 51.0444 132.126 52.1327 129.417C52.9314 127.409 53.8807 125.458 54.7721 123.49C55.6112 121.557 56.6386 119.712 57.8397 117.98C59.1941 116.076 60.9016 114.635 63.2806 114.328C65.1964 114.079 66.9618 114.721 67.8764 116.886C68.6808 118.79 68.2178 120.62 67.5985 122.448C67.4365 122.917 67.2802 123.386 67.0775 123.988C68.1947 122.773 69.144 121.615 70.2147 120.596C71.9389 118.848 73.9419 117.398 76.1418 116.307C77.7177 115.518 79.4616 115.123 81.2237 115.156C83.4058 115.254 85.4432 115.804 86.9714 117.534C87.6364 118.316 88.0748 119.265 88.239 120.278C88.5978 122.159 87.9727 123.849 87.2782 125.539C86.763 126.79 86.2362 128.04 85.8485 129.331C85.5359 130.378 86.0915 131.119 87.2029 131.403C87.4493 131.467 87.7013 131.507 87.9553 131.524C88.3663 131.542 88.4242 131.773 88.3258 132.092Z" fill="white"/>
<path d="M179.165 116.886C178.253 114.841 173.749 114.624 171.89 115.258C171.155 115.533 170.453 115.891 169.798 116.324C166.69 118.247 165.585 120.716 164.126 123.941C162.679 127.124 161.348 130.366 159.797 133.497C158.766 135.511 157.594 137.449 156.289 139.297C155.547 140.499 154.358 141.356 152.984 141.682C152.168 141.844 151.832 141.479 151.543 140.767C151.276 140.113 151.114 139.422 151.062 138.718C150.946 136.696 151.207 134.671 151.832 132.745C152.752 129.66 153.742 126.598 154.674 123.519C155.165 122.181 155.405 120.764 155.38 119.339C155.386 118.842 155.277 118.35 155.061 117.903C154.845 117.455 154.528 117.063 154.136 116.758C153.317 116.16 152.35 115.799 151.34 115.717C150.329 115.634 149.316 115.832 148.411 116.289C146.49 117.204 145.234 118.836 144.313 120.688C143.011 123.293 141.836 125.961 140.563 128.577C139.689 130.389 138.745 132.172 137.831 133.96C136.672 136.42 135.278 138.761 133.669 140.952C133.414 141.277 132.963 141.728 132.673 141.676C132.326 141.624 132.048 141.097 131.753 140.767C131.703 140.707 131.667 140.635 131.649 140.559C131.207 138.964 131.13 137.29 131.423 135.662C131.718 133.821 132.089 131.987 132.511 130.169C133.345 126.54 134.294 122.934 135.076 119.287C135.278 118.571 135.262 117.81 135.032 117.102C134.801 116.394 134.365 115.771 133.779 115.311C133.195 114.894 132.531 114.602 131.829 114.454C131.126 114.307 130.401 114.307 129.698 114.454C127.771 114.755 126.353 115.925 125.224 117.487C123.842 119.409 122.861 121.591 122.342 123.901C121.896 125.811 121.601 127.755 121.282 129.7C121.138 130.597 121.132 131.512 121.022 132.421C120.991 132.672 120.884 132.908 120.715 133.098C119.945 133.902 119.164 134.69 118.359 135.459C116.836 136.928 115.09 138.147 113.186 139.071C111.946 139.736 110.577 140.125 109.172 140.213C107.768 140.301 106.361 140.085 105.048 139.581C104.198 139.26 103.443 138.729 102.854 138.038C102.265 137.346 101.861 136.517 101.679 135.627C102.808 135.627 103.896 135.639 104.984 135.627C107.559 135.599 110.088 134.937 112.347 133.7C114.475 132.616 116.206 130.885 117.29 128.757C118.516 126.382 118.811 123.634 118.117 121.053C117.808 119.831 117.217 118.7 116.392 117.748C115.567 116.796 114.53 116.051 113.365 115.571C112.062 114.955 110.65 114.604 109.21 114.541C107.884 114.427 106.55 114.441 105.227 114.582C102.441 115.1 99.8607 116.403 97.7897 118.338C95.5886 120.319 93.77 122.687 92.4241 125.324C90.8716 128.251 89.9117 131.455 89.5993 134.753C89.4148 136.639 89.5697 138.542 90.0567 140.373C90.656 142.879 92.1638 145.074 94.2878 146.532C96.4958 147.966 99.0537 148.768 101.685 148.853C103.519 148.908 105.355 148.833 107.178 148.627C108.996 148.42 110.766 147.903 112.41 147.099C115.119 145.861 117.561 144.107 119.599 141.936C120.236 141.271 120.844 140.57 121.388 139.963C121.909 141.23 122.378 142.544 122.974 143.794C123.693 145.419 124.985 146.723 126.603 147.458C128.17 148.142 129.82 148.615 131.511 148.865C131.948 148.978 132.405 148.982 132.843 148.876C133.282 148.77 133.687 148.557 134.023 148.257C135.14 147.157 136.304 146.098 137.392 144.969C138.001 144.295 138.575 143.59 139.111 142.857C139.904 141.844 140.685 140.813 141.513 139.737C141.606 140.264 141.669 140.709 141.768 141.149C142.283 143.389 143.238 145.334 145.235 146.648C146.591 147.481 148.069 148.094 149.616 148.465C152.204 149.23 154.984 148.996 157.407 147.811C160.079 146.474 162.42 144.563 164.266 142.214C165.747 140.47 167.128 138.644 168.405 136.744C170.343 133.769 172.173 130.707 173.945 127.622C174.845 126.053 175.722 124.469 176.591 122.882C177.303 121.587 179.206 119.303 179.322 117.847C179.352 117.518 179.298 117.188 179.165 116.886ZM102.455 128.224C103.051 126.594 103.951 125.092 105.106 123.796C105.801 122.926 106.763 122.308 107.844 122.037C108.202 121.978 108.57 122.011 108.912 122.132C109.254 122.253 109.561 122.459 109.802 122.731C110.043 123.002 110.212 123.331 110.293 123.685C110.374 124.039 110.363 124.408 110.263 124.757C109.435 128.276 107.103 130.267 103.711 131.136C102.97 131.26 102.222 131.332 101.471 131.35C101.83 130.192 102.107 129.197 102.455 128.224Z" fill="white"/>
</svg>
