<?xml version="1.0" encoding="UTF-8"?>
<svg width="256" height="256" fill="none" version="1.1" viewBox="0 0 256 256" xml:space="preserve" xmlns="http://www.w3.org/2000/svg"><path d="m196 0h-136c-33.137 0-60 26.863-60 60v136c0 33.137 26.863 60 60 60h136c33.137 0 60-26.863 60-60v-136c0-33.137-26.863-60-60-60z" fill="#242938"/><g transform="translate(-32.489 273)"><path d="m81.368-183.96s17.222-25.41 51.608-28.038v-9.2185c-38.087 3.0588-71.069 35.317-71.069 35.317s18.68 54.002 71.069 58.946v-9.7986c-38.445-4.8366-51.608-47.208-51.608-47.208zm51.608 27.721v8.9737c-29.056-5.1802-37.121-35.384-37.121-35.384s13.951-15.455 37.121-17.961v9.8468c-0.0176 0-0.0299-6e-3 -0.0443-6e-3 -12.161-1.4594-21.661 9.9012-21.661 9.9012s5.3248 19.125 21.706 24.629m0-81.98v17.003c1.1181-0.0857 2.2362-0.15842 3.3604-0.1967 43.301-1.4594 71.514 35.514 71.514 35.514s-32.404 39.403-66.164 39.403c-3.094 0-5.9906-0.287-8.7112-0.76914v10.514c2.3264 0.2954 4.7386 0.46911 7.2556 0.46911 31.415 0 54.134-16.044 76.133-35.033 3.6473 2.9211 18.579 10.027 21.649 13.138-20.917 17.512-69.664 31.628-97.301 31.628-2.6639 0-5.2222-0.16148-7.737-0.40407v14.774h119.41v-126.04zm0 37.609v-11.387c1.1066-0.0773 2.2216-0.13702 3.3604-0.17295 31.138-0.97802 51.566 26.758 51.566 26.758s-22.064 30.644-45.722 30.644c-3.4047 0-6.4574-0.54715-9.2048-1.4709v-34.525c12.122 1.4647 14.562 6.8194 21.849 18.968l16.209-13.667s-11.832-15.518-31.777-15.518c-2.168-7.6e-4 -4.2427 0.15144-6.2799 0.36963" fill="#77b900" stroke-width=".76528"/><path transform="translate(41.164 -278.45)" d="m68.891 219.01q-1.7188 0.75-3.125 1.4062-1.375 0.65625-3.625 1.375-1.9062 0.59375-4.1562 1-2.2188 0.4375-4.9062 0.4375-5.0625 0-9.2188-1.4062-4.125-1.4375-7.1875-4.4688-3-2.9688-4.6875-7.5312-1.6875-4.5938-1.6875-10.656 0-5.75 1.625-10.281t4.6875-7.6562q2.9688-3.0312 7.1562-4.625 4.2188-1.5938 9.3438-1.5938 3.75 0 7.4688 0.90625 3.75 0.90625 8.3125 3.1875v7.3438h-0.46875q-3.8438-3.2188-7.625-4.6875t-8.0938-1.4688q-3.5312 0-6.375 1.1562-2.8125 1.125-5.0312 3.5312-2.1562 2.3438-3.375 5.9375-1.1875 3.5625-1.1875 8.25 0 4.9062 1.3125 8.4375 1.3438 3.5312 3.4375 5.75 2.1875 2.3125 5.0938 3.4375 2.9375 1.0938 6.1875 1.0938 4.4688 0 8.375-1.5312t7.3125-4.5938h0.4375zm43.781-15.312q0 5.0625-1.125 8.8438-1.0938 3.75-3.625 6.25-2.4062 2.375-5.625 3.4688-3.2188 1.0938-7.5 1.0938-4.375 0-7.625-1.1562t-5.4688-3.4062q-2.5312-2.5625-3.6562-6.1875-1.0938-3.625-1.0938-8.9062v-27.844h6.1875v28.156q0 3.7812 0.5 5.9688 0.53125 2.1875 1.75 3.9688 1.375 2.0312 3.7188 3.0625 2.375 1.0312 5.6875 1.0312 3.3438 0 5.6875-1 2.3438-1.0312 3.75-3.0938 1.2188-1.7812 1.7188-4.0625 0.53125-2.3125 0.53125-5.7188v-28.312h6.1875zm51.125-4.5312q0 6.3438-2.7812 11.5-2.75 5.1562-7.3438 8-3.1875 1.9688-7.125 2.8438-3.9062 0.875-10.312 0.875h-11.75v-46.531h11.625q6.8125 0 10.812 1 4.0312 0.96875 6.8125 2.6875 4.75 2.9688 7.4062 7.9062t2.6562 11.719zm-6.4688-0.0937q0-5.4688-1.9062-9.2188t-5.6875-5.9062q-2.75-1.5625-5.8438-2.1562-3.0938-0.625-7.4062-0.625h-5.8125v35.906h5.8125q4.4688 0 7.7812-0.65625 3.3438-0.65625 6.125-2.4375 3.4688-2.2188 5.1875-5.8438 1.75-3.625 1.75-9.0625zm53.156 23.312h-6.5938l-4.5625-12.969h-20.125l-4.5625 12.969h-6.2812l16.938-46.531h8.25zm-13.062-18.281-8.1562-22.844-8.1875 22.844z" fill="#f4f2ed" style="white-space:pre" aria-label="CUDA"/></g></svg>
