<?xml version="1.0" encoding="UTF-8" standalone="no"?>
<svg
   width="256"
   height="256"
   viewBox="0 0 256 256"
   fill="none"
   version="1.1"
   id="svg1"
   sodipodi:docname="Cuda-Dark.svg"
   xml:space="preserve"
   inkscape:version="1.3.2 (091e20e, 2023-11-25, custom)"
   xmlns:inkscape="http://www.inkscape.org/namespaces/inkscape"
   xmlns:sodipodi="http://sodipodi.sourceforge.net/DTD/sodipodi-0.dtd"
   xmlns="http://www.w3.org/2000/svg"
   xmlns:svg="http://www.w3.org/2000/svg"><defs
     id="defs1"><rect
       x="7.9999998"
       y="164"
       width="221.99999"
       height="89.499998"
       id="rect5" /><rect
       x="0.70710678"
       y="0.70710678"
       width="241.12341"
       height="241.12341"
       id="rect4" /><rect
       x="76.086442"
       y="92.524871"
       width="5.6360328"
       height="21.135123"
       id="rect2" /><rect
       x="17.847437"
       y="67.162724"
       width="221.68396"
       height="97.691235"
       id="rect1" /><rect
       x="0.70710678"
       y="0.70710678"
       width="241.12341"
       height="241.12341"
       id="rect4-88" /><rect
       x="76.086442"
       y="92.524871"
       width="5.6360328"
       height="21.135123"
       id="rect2-9" /><rect
       x="17.847437"
       y="67.162724"
       width="221.68396"
       height="97.691235"
       id="rect1-22" /><rect
       x="0.70710678"
       y="0.70710678"
       width="241.12341"
       height="241.12341"
       id="rect4-8" /><rect
       x="76.086442"
       y="92.524871"
       width="5.6360328"
       height="21.135123"
       id="rect2-7" /><rect
       x="17.847437"
       y="67.162724"
       width="221.68396"
       height="97.691235"
       id="rect1-2" /></defs><sodipodi:namedview
     id="namedview1"
     pagecolor="#505050"
     bordercolor="#eeeeee"
     borderopacity="1"
     inkscape:showpageshadow="0"
     inkscape:pageopacity="0"
     inkscape:pagecheckerboard="0"
     inkscape:deskcolor="#505050"
     inkscape:zoom="0.71191406"
     inkscape:cx="138.3594"
     inkscape:cy="224.74623"
     inkscape:window-width="958"
     inkscape:window-height="1048"
     inkscape:window-x="953"
     inkscape:window-y="0"
     inkscape:window-maximized="0"
     inkscape:current-layer="svg1" /><path
     d="M196 0H60C26.8629 0 0 26.8629 0 60V196C0 229.137 26.8629 256 60 256H196C229.137 256 256 229.137 256 196V60C256 26.8629 229.137 0 196 0Z"
     fill="#242938"
     id="path1" /><g
     id="g4"
     transform="translate(-32.488619,273.00131)"><path
       id="path21"
       fill="#77b900"
       d="m 81.368063,-183.95766 c 0,0 17.221817,-25.40953 51.608067,-28.03827 v -9.21853 c -38.087134,3.05881 -71.06909,35.31681 -71.06909,35.31681 0,0 18.680437,54.00185 71.06909,58.9463 v -9.79861 c -38.445283,-4.83656 -51.608067,-47.2077 -51.608067,-47.2077 z m 51.608067,27.72065 v 8.97367 c -29.05609,-5.18018 -37.121353,-35.38417 -37.121353,-35.38417 0,0 13.951023,-15.45479 37.121353,-17.96108 v 9.84684 c -0.0176,0 -0.0299,-0.006 -0.0443,-0.006 -12.16104,-1.45939 -21.6612,9.90116 -21.6612,9.90116 0,0 5.32481,19.12506 21.70558,24.62894 m 0,-81.98041 v 17.00296 c 1.11808,-0.0857 2.23615,-0.15842 3.36035,-0.1967 43.30097,-1.45936 71.51445,35.5135 71.51445,35.5135 0,0 -32.40415,39.40266 -66.16363,39.40266 -3.09402,0 -5.9906,-0.287 -8.71117,-0.76914 v 10.51418 c 2.32645,0.2954 4.7386,0.46911 7.25561,0.46911 31.41541,0 54.13424,-16.04406 76.13291,-35.0329 3.64731,2.92107 18.57943,10.02745 21.64896,13.1383 -20.91658,17.51186 -69.66403,31.62819 -97.30052,31.62819 -2.66393,0 -5.22225,-0.16148 -7.73696,-0.40407 v 14.77445 h 119.40786 v -126.04054 z m 0,37.60883 v -11.38658 c 1.1066,-0.0773 2.22161,-0.13702 3.36035,-0.17295 31.13763,-0.97802 51.56593,26.75794 51.56593,26.75794 0,0 -22.06447,30.64403 -45.72228,30.64403 -3.40472,0 -6.45742,-0.54715 -9.20476,-1.47086 v -34.52475 c 12.122,1.46473 14.56171,6.81938 21.84946,18.96818 l 16.20858,-13.6671 c 0,0 -11.83195,-15.51754 -31.7774,-15.51754 -2.16803,-7.6e-4 -4.2427,0.15144 -6.27988,0.36963"
       style="stroke-width:0.765278" /><path
       d="m 68.890625,219.01414 q -1.71875,0.75 -3.125,1.40625 -1.375,0.65625 -3.625,1.375 -1.90625,0.59375 -4.15625,1 -2.21875,0.4375 -4.90625,0.4375 -5.0625,0 -9.21875,-1.40625 -4.125,-1.4375 -7.1875,-4.46875 -3,-2.96875 -4.6875,-7.53125 -1.6875,-4.59375 -1.6875,-10.65625 0,-5.75 1.625,-10.28125 1.625,-4.53125 4.6875,-7.65625 2.96875,-3.03125 7.15625,-4.625 4.21875,-1.59375 9.34375,-1.59375 3.75,0 7.46875,0.90625 3.75,0.90625 8.3125,3.1875 v 7.34375 h -0.46875 q -3.84375,-3.21875 -7.625,-4.6875 -3.78125,-1.46875 -8.09375,-1.46875 -3.53125,0 -6.375,1.15625 -2.8125,1.125 -5.03125,3.53125 -2.15625,2.34375 -3.375,5.9375 -1.1875,3.5625 -1.1875,8.25 0,4.90625 1.3125,8.4375 1.34375,3.53125 3.4375,5.75 2.1875,2.3125 5.09375,3.4375 2.9375,1.09375 6.1875,1.09375 4.46875,0 8.375,-1.53125 3.90625,-1.53125 7.3125,-4.59375 h 0.4375 z m 43.781255,-15.3125 q 0,5.0625 -1.125,8.84375 -1.09375,3.75 -3.625,6.25 -2.40625,2.375 -5.625,3.46875 -3.218755,1.09375 -7.500005,1.09375 -4.375,0 -7.625,-1.15625 -3.25,-1.15625 -5.46875,-3.40625 -2.53125,-2.5625 -3.65625,-6.1875 -1.09375,-3.625 -1.09375,-8.90625 v -27.84375 h 6.1875 v 28.15625 q 0,3.78125 0.5,5.96875 0.53125,2.1875 1.75,3.96875 1.375,2.03125 3.71875,3.0625 2.375,1.03125 5.6875,1.03125 3.34375,0 5.687505,-1 2.34375,-1.03125 3.75,-3.09375 1.21875,-1.78125 1.71875,-4.0625 0.53125,-2.3125 0.53125,-5.71875 v -28.3125 h 6.1875 z m 51.12499,-4.53125 q 0,6.34375 -2.78125,11.5 -2.75,5.15625 -7.34375,8 -3.1875,1.96875 -7.125,2.84375 -3.90625,0.875 -10.3125,0.875 h -11.74999 v -46.53125 h 11.62499 q 6.8125,0 10.8125,1 4.03125,0.96875 6.8125,2.6875 4.75,2.96875 7.40625,7.90625 2.65625,4.9375 2.65625,11.71875 z m -6.46875,-0.0937 q 0,-5.46875 -1.90625,-9.21875 -1.90625,-3.75 -5.6875,-5.90625 -2.75,-1.5625 -5.84375,-2.15625 -3.09375,-0.625 -7.40625,-0.625 h -5.8125 v 35.90625 h 5.8125 q 4.46875,0 7.78125,-0.65625 3.34375,-0.65625 6.125,-2.4375 3.46875,-2.21875 5.1875,-5.84375 1.75,-3.625 1.75,-9.0625 z m 53.15625,23.3125 h -6.59375 l -4.5625,-12.96875 h -20.125 l -4.5625,12.96875 h -6.28125 l 16.9375,-46.53125 h 8.25 z m -13.0625,-18.28125 -8.15625,-22.84375 -8.1875,22.84375 z"
       id="text1"
       style="font-size:64px;text-align:center;text-anchor:middle;white-space:pre;fill:#f4f2ed"
       transform="translate(41.163905,-278.44758)"
       aria-label="CUDA" /></g></svg>
