<?xml version="1.0" encoding="UTF-8" standalone="no"?>
<!-- Created with Inkscape (http://www.inkscape.org/) -->

<svg
   width="256"
   height="256"
   viewBox="0 0 67.733334 67.733334"
   version="1.1"
   id="svg1"
   xml:space="preserve"
   xmlns="http://www.w3.org/2000/svg"
   xmlns:svg="http://www.w3.org/2000/svg"><defs
     id="defs1"><rect
       x="8"
       y="164"
       width="221.99998"
       height="89.5"
       id="rect5" /><rect
       x="0.70710677"
       y="0.70710677"
       width="241.12341"
       height="241.12341"
       id="rect4" /><rect
       x="76.086441"
       y="92.524872"
       width="5.6360326"
       height="21.135122"
       id="rect2" /><rect
       x="17.847437"
       y="67.162727"
       width="221.68396"
       height="97.691238"
       id="rect1" /><rect
       x="0.70710677"
       y="0.70710677"
       width="241.12341"
       height="241.12341"
       id="rect4-88" /><rect
       x="76.086441"
       y="92.524872"
       width="5.6360326"
       height="21.135122"
       id="rect2-9" /><rect
       x="17.847437"
       y="67.162727"
       width="221.68396"
       height="97.691238"
       id="rect1-22" /><rect
       x="0.70710677"
       y="0.70710677"
       width="241.12341"
       height="241.12341"
       id="rect4-8" /><rect
       x="76.086441"
       y="92.524872"
       width="5.6360326"
       height="21.135122"
       id="rect2-7" /><rect
       x="17.847437"
       y="67.162727"
       width="221.68396"
       height="97.691238"
       id="rect1-2" /></defs><path
     d="M 51.859752,0.0029217 H 15.876419 c -8.7675241,0 -15.87500009,7.1074759 -15.87500009,15.8749993 v 35.983333 c 0,8.767498 7.10747599,15.875 15.87500009,15.875 h 35.983333 c 8.767497,0 15.874999,-7.107502 15.874999,-15.875 V 15.877921 c 0,-8.7675234 -7.107502,-15.8749993 -15.874999,-15.8749993 z"
     fill="#f4f2ed"
     id="path1"
     style="stroke-width:0.264583" /><g
     id="g4"
     transform="matrix(0.28532046,0,0,0.28532046,-10.865436,75.310601)"><path
       d="m 19.536932,56.544325 q -0.454753,0.198438 -0.826823,0.372071 -0.363802,0.173633 -0.959115,0.363802 -0.504362,0.157096 -1.099674,0.264583 -0.587045,0.115755 -1.298112,0.115755 -1.339453,0 -2.439128,-0.37207 -1.091406,-0.380338 -1.901692,-1.182357 -0.79375,-0.785481 -1.2402349,-1.992643 -0.4464843,-1.21543 -0.4464843,-2.819466 0,-1.521354 0.4299479,-2.720247 0.4299483,-1.198894 1.2402343,-2.025716 0.785482,-0.802019 1.893425,-1.223698 1.11621,-0.42168 2.4722,-0.42168 0.992187,0 1.976107,0.239779 0.992187,0.239778 2.199349,0.843359 v 1.943034 H 19.412908 Q 18.395916,47.077203 17.39546,46.688596 16.395005,46.29999 15.253989,46.29999 q -0.93431,0 -1.686719,0.305924 -0.74414,0.297656 -1.331185,0.93431 -0.570507,0.620117 -0.892968,1.570964 -0.314193,0.942578 -0.314193,2.182812 0,1.298112 0.347266,2.232422 0.355533,0.93431 0.909505,1.521354 0.578776,0.611849 1.347721,0.909505 0.777214,0.289388 1.637109,0.289388 1.182357,0 2.215886,-0.405143 1.033528,-0.405143 1.934765,-1.21543 h 0.115756 z m 11.58379,-4.051432 q 0,1.339453 -0.297656,2.339909 -0.289388,0.992188 -0.959115,1.653646 -0.636654,0.628385 -1.488281,0.917773 -0.851629,0.289388 -1.984376,0.289388 -1.157553,0 -2.017448,-0.305924 -0.859896,-0.305925 -1.44694,-0.901237 -0.669727,-0.677995 -0.967383,-1.637109 -0.289388,-0.959115 -0.289388,-2.356446 v -7.366992 h 1.637109 v 7.449675 q 0,1.000455 0.132292,1.579231 0.14056,0.578776 0.463021,1.050065 0.363802,0.537435 0.983919,0.810287 0.628385,0.272851 1.504818,0.272851 0.8847,0 1.504819,-0.264583 0.620117,-0.272852 0.992187,-0.818555 0.322461,-0.471289 0.454753,-1.074869 0.14056,-0.611849 0.14056,-1.513086 v -7.491016 h 1.637109 z M 44.647542,51.294 q 0,1.678451 -0.735872,3.042708 -0.727605,1.364258 -1.943034,2.116667 -0.84336,0.520898 -1.885156,0.752409 -1.033529,0.23151 -2.728516,0.23151 H 34.246112 V 45.125901 h 3.075779 q 1.802474,0 2.860807,0.264583 1.066602,0.256316 1.802474,0.711068 1.256771,0.785482 1.959571,2.091862 0.702799,1.30638 0.702799,3.100586 z m -1.711523,-0.02479 q 0,-1.446941 -0.504362,-2.439128 -0.504362,-0.992187 -1.504818,-1.562695 -0.727604,-0.413412 -1.546159,-0.570508 -0.818555,-0.165365 -1.95957,-0.165365 h -1.537891 v 9.500196 h 1.537891 q 1.182357,0 2.058789,-0.173633 0.8847,-0.173633 1.620573,-0.644922 0.917773,-0.587044 1.372526,-1.546159 0.463021,-0.959115 0.463021,-2.397786 z m 14.064257,6.168098 H 55.25568 l -1.207162,-3.431315 h -5.324739 l -1.207162,3.431315 h -1.661914 l 4.481381,-12.311393 h 2.182812 z m -3.45612,-4.836914 -2.158007,-6.044075 -2.166276,6.044075 z"
       id="text1"
       style="font-size:64px;text-align:center;text-anchor:middle;white-space:pre;fill:#000000;fill-opacity:1;stroke-width:0.264583"
       aria-label="CUDA"
       transform="matrix(3.7795276,0,0,3.7795276,36.214155,-273.14427)" /><path
       id="path21"
       fill="#77b900"
       d="m 81.368063,-183.95766 c 0,0 17.221817,-25.40953 51.608067,-28.03827 v -9.21853 c -38.087134,3.05881 -71.06909,35.31681 -71.06909,35.31681 0,0 18.680437,54.00185 71.06909,58.9463 v -9.79861 c -38.445283,-4.83656 -51.608067,-47.2077 -51.608067,-47.2077 z m 51.608067,27.72065 v 8.97367 c -29.05609,-5.18018 -37.121353,-35.38417 -37.121353,-35.38417 0,0 13.951023,-15.45479 37.121353,-17.96108 v 9.84684 c -0.0176,0 -0.0299,-0.006 -0.0443,-0.006 -12.16104,-1.45939 -21.6612,9.90116 -21.6612,9.90116 0,0 5.32481,19.12506 21.70558,24.62894 m 0,-81.98041 v 17.00296 c 1.11808,-0.0857 2.23615,-0.15842 3.36035,-0.1967 43.30097,-1.45936 71.51445,35.5135 71.51445,35.5135 0,0 -32.40415,39.40266 -66.16363,39.40266 -3.09402,0 -5.9906,-0.287 -8.71117,-0.76914 v 10.51418 c 2.32645,0.2954 4.7386,0.46911 7.25561,0.46911 31.41541,0 54.13424,-16.04406 76.13291,-35.0329 3.64731,2.92107 18.57943,10.02745 21.64896,13.1383 -20.91658,17.51186 -69.66403,31.62819 -97.30052,31.62819 -2.66393,0 -5.22225,-0.16148 -7.73696,-0.40407 v 14.77445 h 119.40786 v -126.04054 z m 0,37.60883 v -11.38658 c 1.1066,-0.0773 2.22161,-0.13702 3.36035,-0.17295 31.13763,-0.97802 51.56593,26.75794 51.56593,26.75794 0,0 -22.06447,30.64403 -45.72228,30.64403 -3.40472,0 -6.45742,-0.54715 -9.20476,-1.47086 v -34.52475 c 12.122,1.46473 14.56171,6.81938 21.84946,18.96818 l 16.20858,-13.6671 c 0,0 -11.83195,-15.51754 -31.7774,-15.51754 -2.16803,-7.6e-4 -4.2427,0.15144 -6.27988,0.36963"
       style="stroke-width:0.765278" /></g></svg>
