<svg fill="none" height="256" viewBox="0 0 256 256" width="256" xmlns="http://www.w3.org/2000/svg" xmlns:xlink="http://www.w3.org/1999/xlink">
<g clip-path="url(#a)">
<g mask="url(#b)">
<path d="m196 0h-136c-33.1371 0-60 26.8629-60 60v136c0 33.137 26.8629 60 60 60h136c33.137 0 60-26.863 60-60v-136c0-33.1371-26.863-60-60-60z" fill="#f4f2ed"/>
<path d="m73 231v-156.9193l50-50.0807v160.259z" fill="#ac9fff"/>
<g fill="#7762ff">
<path d="m73 159h74c5.731-2.048 12.837-2.314 20.182-6.613 8.462-4.949 16.818-14.172 16.818-19.835 0-4.845-.895-9.985-3.363-13.223-2.925-3.835-7.661-5.418-10.092-6.612l-47.09-1.717z"/>
<path d="m73 73h74c5.731-2.0912 12.837-2.3619 20.182-6.7497 8.462-5.0544 16.818-14.4681 16.818-20.2492 0-4.9448-.895-10.1936-3.363-13.4994-2.925-3.9142-7.661-5.5299-10.092-6.7497l-47.09-1.752z"/>
</g>
</g>
</g>
</svg>
