<svg width="256" height="256" viewBox="0 0 256 256" fill="none" id="daisyui" xmlns="http://www.w3.org/2000/svg">
<style>
#daisyui {
    rect {fill: #242938}

    @media (prefers-color-scheme: light) {
        rect {fill: #F4F2ED}
    }
}
</style>
<g clip-path="url(#clip0_307_621)">
<rect width="256" height="256" fill="#242938" rx="60"/>
<g opacity="0.7">
<path d="M91.9145 41.3971C89.2441 45.3255 87.1218 49.8831 85.7234 55.0699C81.7031 69.9846 70.0392 81.6348 55.1067 85.6508C49.9137 87.0471 45.3506 89.1669 41.4174 91.8346C35.8429 62.7102 62.7559 35.829 91.9145 41.3971Z" fill="#FFD819"/>
<path d="M41.4202 91.834C42.3129 96.4981 44.0388 101.22 46.722 105.875C54.4378 119.261 54.4378 135.737 46.722 149.123C44.0387 153.778 42.3128 158.499 41.4201 163.164C16.8599 146.507 16.86 108.491 41.4202 91.834Z" fill="#FFE029"/>
<path d="M91.9145 213.602C89.2441 209.674 87.1218 205.116 85.7234 199.929C81.7031 185.014 70.0392 173.364 55.1067 169.348C49.9137 167.952 45.3506 165.832 41.4174 163.164C35.8429 192.289 62.7559 219.17 91.9145 213.602Z" fill="#FFC141"/>
<path d="M163.332 213.603C158.662 212.711 153.935 210.987 149.274 208.307C135.872 200.601 119.377 200.601 105.976 208.307C101.315 210.987 96.5875 212.712 91.918 213.603C108.594 238.134 146.655 238.134 163.332 213.603Z" fill="#FFB655"/>
<path d="M213.829 163.164C209.896 165.832 205.333 167.951 200.14 169.348C185.208 173.363 173.544 185.014 169.523 199.929C168.125 205.115 166.003 209.673 163.332 213.601C192.49 219.169 219.403 192.288 213.829 163.164Z" fill="#FFB35B"/>
<path d="M213.827 91.8359C212.934 96.5 211.208 101.221 208.525 105.877C200.809 119.262 200.809 135.738 208.525 149.124C211.208 153.78 212.934 158.501 213.827 163.165C238.387 146.508 238.387 108.493 213.827 91.8359Z" fill="#FFB656"/>
<path d="M163.332 41.397C166.003 45.3255 168.125 49.8831 169.523 55.0699C173.544 69.9846 185.208 81.6348 200.14 85.6508C205.333 87.0471 209.896 89.1669 213.829 91.8342C219.403 62.7102 192.49 35.8293 163.332 41.397Z" fill="#FFC042"/>
<path d="M91.918 41.3981C96.5875 42.2897 101.315 44.0135 105.975 46.6937C119.377 54.4004 135.872 54.4005 149.274 46.6937C153.935 44.0136 158.662 42.2898 163.331 41.3982C146.654 16.8673 108.594 16.8673 91.918 41.3981Z" fill="#FFCE2A"/>
</g>
<path d="M85.7242 55.0714C87.1221 49.8846 89.2444 45.3271 91.9153 41.3985C96.5844 42.2902 101.312 44.0141 105.972 46.6941C119.374 54.4008 135.869 54.4008 149.271 46.6941C153.931 44.014 158.659 42.2901 163.328 41.3984C165.999 45.327 168.122 49.8846 169.52 55.0714C173.54 69.9863 185.204 81.6364 200.137 85.652C205.329 87.0488 209.892 89.1681 213.825 91.8358C212.933 96.4999 211.207 101.222 208.523 105.877C200.807 119.263 200.807 135.739 208.523 149.125C211.207 153.779 212.933 158.501 213.825 163.165C209.892 165.833 205.329 167.952 200.137 169.349C185.204 173.365 173.54 185.015 169.52 199.93C168.122 205.117 165.999 209.674 163.328 213.603C158.659 212.711 153.931 210.987 149.271 208.307C135.869 200.601 119.374 200.601 105.972 208.307C101.312 210.987 96.5844 212.711 91.9153 213.603C89.2444 209.674 87.1221 205.117 85.7242 199.93C81.7034 185.015 70.0395 173.365 55.1072 169.349C49.9143 167.952 45.3512 165.833 41.418 163.165C42.3107 158.501 44.0365 153.779 46.7198 149.125C54.4356 135.739 54.4356 119.263 46.7198 105.877C44.0365 101.222 42.3107 96.5004 41.418 91.8363C45.3511 89.1686 49.9142 87.0488 55.1072 85.652C70.0395 81.6364 81.7034 69.9863 85.7242 55.0714Z" fill="url(#paint0_radial_307_621)"/>
<path d="M174.33 149.964L170.68 143.649C169.673 141.906 167.44 141.308 165.694 142.315L165.694 142.315C163.949 143.322 163.351 145.551 164.358 147.295L168.008 153.61C169.016 155.353 171.249 155.951 172.994 154.944L172.994 154.944C174.74 153.937 175.338 151.708 174.33 149.964Z" fill="#FFA17A"/>
<path d="M165.205 149.964L161.555 143.649C160.548 141.906 158.315 141.308 156.569 142.315L156.569 142.315C154.824 143.322 154.226 145.551 155.233 147.295L158.883 153.61C159.891 155.353 162.124 155.951 163.869 154.944L163.869 154.944C165.615 153.937 166.213 151.708 165.205 149.964Z" fill="#FFA17A"/>
<path d="M100.416 149.964L96.7664 143.649C95.7585 141.906 93.5262 141.308 91.7804 142.315L91.7804 142.315C90.0346 143.322 89.4365 145.551 90.4444 147.295L94.0944 153.61C95.1023 155.353 97.3346 155.951 99.0804 154.944L99.0804 154.944C100.826 153.937 101.424 151.708 100.416 149.964Z" fill="#FFAB89"/>
<path d="M91.2953 149.964L87.6453 143.649C86.6374 141.906 84.4051 141.308 82.6593 142.315L82.6593 142.315C80.9135 143.322 80.3154 145.551 81.3233 147.295L84.9733 153.61C85.9812 155.353 88.2135 155.951 89.9593 154.944L89.9593 154.944C91.7051 153.937 92.3032 151.708 91.2953 149.964Z" fill="#FFAB89"/>
<path d="M171.354 102.309L164.303 100.422C162.356 99.901 160.354 101.055 159.833 103L159.833 103C159.311 104.945 160.466 106.944 162.414 107.465L169.465 109.352C171.412 109.873 173.413 108.719 173.935 106.774C174.457 104.829 173.301 102.83 171.354 102.309Z" fill="#FFA17A"/>
<path d="M90.9871 100.423L83.9358 102.31C81.9886 102.831 80.8331 104.831 81.3548 106.775L81.3548 106.775C81.8766 108.72 83.878 109.874 85.8252 109.353L92.8764 107.466C94.8236 106.945 95.9791 104.946 95.4574 103.001C94.9356 101.056 92.9342 99.902 90.9871 100.423Z" fill="#FFAB89"/>
<path d="M118.035 136.002C121.759 135.881 124.076 140.372 128.022 140.267C131.886 140.165 134.319 136.706 137.832 136.341C138.51 136.271 139.196 136.423 139.725 136.868C140.334 137.378 140.844 138.435 140.874 139.229C140.924 140.592 139.657 141.63 138.778 142.518C135.473 145.072 131.748 146.582 127.508 146.328C123.982 146.117 119.449 144.544 117.09 141.794C116.395 140.983 115.897 139.914 116.018 138.823C116.166 137.492 117 136 118.035 136.002Z" fill="#D15A34"/>
<path d="M88.7506 119.972L83.5887 114.816C82.1633 113.392 79.8523 113.392 78.4269 114.816L78.4269 114.816C77.0015 116.24 77.0014 118.548 78.4269 119.972L83.5888 125.128C85.0142 126.552 87.3252 126.552 88.7506 125.128C90.176 123.704 90.1761 121.396 88.7506 119.972Z" fill="black"/>
<path d="M105.043 127.734C105.043 120.183 98.9149 114.062 91.3555 114.062C83.7961 114.062 77.668 120.183 77.668 127.734C77.668 135.284 83.7961 141.405 91.3555 141.405C98.9149 141.405 105.043 135.284 105.043 127.734Z" fill="black"/>
<path d="M105.043 128.644C105.043 121.094 98.9149 114.973 91.3555 114.973C83.7961 114.973 77.668 121.094 77.668 128.644C77.668 136.195 83.7961 142.315 91.3555 142.315C98.9149 142.315 105.043 136.195 105.043 128.644Z" fill="black" fill-opacity="0.05"/>
<path d="M81.0273 131.377C82.5307 127.129 86.5864 124.086 91.354 124.086C96.122 124.086 100.178 127.13 101.681 131.378C100.178 135.625 96.1215 138.668 91.3544 138.668C86.5864 138.668 82.5302 135.625 81.0273 131.377Z" fill="#784012"/>
<path d="M100.504 133.752C101.646 132.026 102.31 129.956 102.31 127.732C102.31 121.692 97.4074 116.795 91.36 116.795C85.3125 116.795 80.4102 121.692 80.4102 127.732C80.4102 129.726 80.9442 131.596 81.8776 133.206C83.8371 130.243 87.2007 128.288 91.0213 128.288C95.0724 128.288 98.6099 130.486 100.504 133.752Z" fill="black" fill-opacity="0.35"/>
<path d="M97.7476 127.733C97.7476 124.21 94.8879 121.354 91.3602 121.354C87.8324 121.354 84.9727 124.21 84.9727 127.733C84.9727 131.257 87.8324 134.113 91.3602 134.113C94.8879 134.113 97.7476 131.257 97.7476 127.733Z" fill="black"/>
<path d="M88.3656 126.74C91.3894 126.74 93.8406 124.291 93.8406 121.271C93.8406 118.251 91.3894 115.803 88.3656 115.803C85.3419 115.803 82.8906 118.251 82.8906 121.271C82.8906 124.291 85.3419 126.74 88.3656 126.74Z" fill="white"/>
<path d="M98.6437 131.474C100.156 131.474 101.381 130.25 101.381 128.74C101.381 127.23 100.156 126.006 98.6437 126.006C97.1319 126.006 95.9062 127.23 95.9062 128.74C95.9062 130.25 97.1319 131.474 98.6437 131.474Z" fill="white"/>
<path d="M95.2273 136.251C96.2353 136.251 97.0523 135.435 97.0523 134.428C97.0523 133.422 96.2353 132.605 95.2273 132.605C94.2194 132.605 93.4023 133.422 93.4023 134.428C93.4023 135.435 94.2194 136.251 95.2273 136.251Z" fill="white"/>
<path d="M172.214 125.128L177.376 119.972C178.802 118.549 178.802 116.24 177.376 114.817L177.376 114.817C175.951 113.393 173.64 113.393 172.214 114.817L167.052 119.972C165.627 121.396 165.627 123.704 167.052 125.128C168.478 126.552 170.789 126.552 172.214 125.128Z" fill="black"/>
<path d="M178.043 128.644C178.043 121.094 171.915 114.973 164.355 114.973C156.796 114.973 150.668 121.094 150.668 128.644C150.668 136.195 156.796 142.315 164.355 142.315C171.915 142.315 178.043 136.195 178.043 128.644Z" fill="black" fill-opacity="0.05"/>
<path d="M178.043 127.732C178.043 120.181 171.915 114.061 164.355 114.061C156.796 114.061 150.668 120.181 150.668 127.732C150.668 135.282 156.796 141.403 164.355 141.403C171.915 141.403 178.043 135.282 178.043 127.732Z" fill="black"/>
<path d="M154.047 131.427C155.463 127.024 159.596 123.838 164.474 123.838C169.224 123.838 173.266 126.858 174.784 131.08C173.368 135.482 169.234 138.669 164.356 138.669C159.607 138.669 155.564 135.649 154.047 131.427Z" fill="#784012"/>
<path d="M173.747 133.359C174.737 131.715 175.306 129.79 175.306 127.732C175.306 121.692 170.404 116.795 164.356 116.795C158.309 116.795 153.406 121.692 153.406 127.732C153.406 129.87 154.021 131.865 155.082 133.55C156.997 130.368 160.486 128.24 164.474 128.24C168.381 128.24 171.81 130.284 173.747 133.359Z" fill="black" fill-opacity="0.35"/>
<path d="M170.744 127.733C170.744 124.21 167.884 121.354 164.356 121.354C160.829 121.354 157.969 124.21 157.969 127.733C157.969 131.257 160.829 134.113 164.356 134.113C167.884 134.113 170.744 131.257 170.744 127.733Z" fill="black"/>
<path d="M161.366 126.74C164.389 126.74 166.841 124.291 166.841 121.271C166.841 118.251 164.389 115.803 161.366 115.803C158.342 115.803 155.891 118.251 155.891 121.271C155.891 124.291 158.342 126.74 161.366 126.74Z" fill="white"/>
<path d="M171.644 131.474C173.156 131.474 174.381 130.25 174.381 128.74C174.381 127.23 173.156 126.006 171.644 126.006C170.132 126.006 168.906 127.23 168.906 128.74C168.906 130.25 170.132 131.474 171.644 131.474Z" fill="white"/>
<path d="M168.227 136.253C169.235 136.253 170.052 135.437 170.052 134.43C170.052 133.424 169.235 132.607 168.227 132.607C167.219 132.607 166.402 133.424 166.402 134.43C166.402 135.437 167.219 136.253 168.227 136.253Z" fill="white"/>
</g>
<defs>
<radialGradient id="paint0_radial_307_621" cx="0" cy="0" r="1" gradientUnits="userSpaceOnUse" gradientTransform="translate(41.3413 41.3224) rotate(44.9662) scale(243.755 243.755)">
<stop stop-color="#FFE600"/>
<stop offset="1" stop-color="#FFA573"/>
</radialGradient>
</defs>
</svg>
