<svg width="256" height="256" viewBox="0 0 256 256" fill="none" id="dapper" xmlns="http://www.w3.org/2000/svg">
<style>
#dapper {
    rect {fill: #242938}
    
    @media (prefers-color-scheme: light) {
        rect {fill: #F4F2ED}
    }
}   
</style>
<rect width="256" height="256" fill="#242938" rx="60"/>
<path d="M88.4036 119.488C85.905 117.854 83.7632 116.404 83.6358 116.273C83.5083 116.141 100.132 105.124 122.773 90.3388C144.445 76.2123 162.166 64.5632 162.166 64.4578C162.166 64.1416 157.576 61.2952 153.879 59.3449C146.613 55.497 140.187 53.3358 130.932 51.6754C128.612 51.2801 125.297 51.2274 95.0583 51.1483L61.7086 51.0429L61.6576 76.5023L61.5811 101.962L56.3543 98.5354L51.1275 95.1355L51.051 67.5414L51 39.9736L88.6586 40.0791C130.142 40.1581 128.535 40.1054 136.924 41.8449C149.188 44.375 160.61 49.6461 170.732 57.4473C173.384 59.503 178.076 63.5881 179.325 64.9586L180.039 65.7492L136.567 94.1077C112.676 109.736 93.0695 122.492 93.0185 122.492C92.993 122.466 90.9023 121.122 88.4036 119.488Z" fill="#F58220"/>
<path d="M51 160.075C51 129.819 51.0255 105.098 51.0765 105.098C51.102 105.098 70.1735 117.537 93.452 132.718L135.776 160.365L135.853 166.717C135.878 170.222 135.853 173.095 135.802 173.095C135.751 173.095 119.178 162.315 99.0103 149.164C78.8424 135.986 62.193 125.128 62.0146 125.022C61.7851 124.864 61.7086 132.824 61.7086 164.371V203.93H93.5285C126.878 203.93 128.637 203.878 133.941 202.718C134.91 202.507 135.725 202.349 135.802 202.349C135.853 202.349 135.904 204.827 135.904 207.857V213.366L134.196 213.682C127.822 214.842 128.433 214.815 88.8116 214.921L51 215.026V160.075Z" fill="#ED0F69"/>
<path d="M144.062 155.252V99.1676L149.238 95.8205L154.389 92.4734L154.465 143.84C154.491 172.119 154.618 195.233 154.72 195.233C154.848 195.233 156.377 194.337 158.137 193.283C174.71 183.083 187.05 166.242 191.869 147.214C193.603 140.282 194.291 134.774 194.291 127.5C194.291 120.226 193.603 114.717 191.869 107.786C189.319 97.7181 183.914 86.8333 177.591 79.0057L176.698 77.8988L181.084 75.0261C183.506 73.4447 185.546 72.1533 185.622 72.1533C185.699 72.1797 186.209 72.7859 186.769 73.5502C197.733 88.1774 203.827 104.992 204.719 123.019C205.917 147.899 197.121 171.513 180.013 189.171C171.038 198.475 160.431 205.433 148.652 209.781C146.893 210.44 145.159 211.046 144.776 211.152L144.062 211.31V155.252Z" fill="#00ABC5"/>
</svg>
