<svg width="256" height="256" viewBox="0 0 256 256" fill="none" xmlns="http://www.w3.org/2000/svg">
<path d="M196 0H60C26.8629 0 0 26.8629 0 60V196C0 229.137 26.8629 256 60 256H196C229.137 256 256 229.137 256 196V60C256 26.8629 229.137 0 196 0Z" fill="#F4F2ED"/>
<path d="M84.247 89.5245L133.076 61.3502C133.313 61.2132 133.509 61.0166 133.646 60.7801C133.782 60.5435 133.854 60.2752 133.855 60.002V43.1048C133.881 41.8629 133.621 40.6316 133.095 39.5065C132.568 38.3813 131.79 37.3926 130.82 36.617C129.606 35.6764 128.139 35.1193 126.607 35.0171C125.075 34.9149 123.548 35.2723 122.22 36.0435L53.9126 75.4578C52.7355 76.1378 51.7576 77.1149 51.0766 78.2913C50.3956 79.4677 50.0353 80.8023 50.0318 82.1616L50.002 171.191C49.9742 172.431 50.2318 173.661 50.7549 174.786C51.2779 175.911 52.0525 176.901 53.0187 177.679C54.2349 178.626 55.7069 179.187 57.2449 179.29C58.7829 179.393 60.3164 179.033 61.6479 178.256L76.1132 169.91C76.3491 169.773 76.545 169.576 76.6815 169.339C76.818 169.103 76.8904 168.835 76.8915 168.562L76.9102 102.224C76.9103 99.6507 77.5881 97.1224 78.8754 94.8937C80.1627 92.665 82.014 90.8145 84.2433 89.5283" fill="#FFC11E"/>
<path d="M201.298 76.7541C200.12 76.0652 198.78 75.7021 197.415 75.7021C196.051 75.7021 194.711 76.0652 193.533 76.7541L125.229 116.165C124.052 116.845 123.074 117.823 122.393 118.999C121.711 120.175 121.35 121.509 121.344 122.869L121.318 212.237C121.319 213.599 121.677 214.938 122.359 216.118C123.04 217.297 124.019 218.277 125.199 218.959C126.379 219.64 127.717 219.999 129.079 220C130.442 220.001 131.78 219.643 132.961 218.963L201.264 179.549C202.442 178.869 203.42 177.892 204.101 176.715C204.783 175.539 205.144 174.205 205.149 172.845L205.19 83.4765C205.198 82.1124 204.843 80.7707 204.161 79.5892C203.479 78.4078 202.494 77.4293 201.309 76.7541" fill="#EF1161"/>
<path d="M121.781 110.187L166.846 84.1802C167.082 84.0433 167.278 83.8467 167.415 83.6101C167.552 83.3735 167.624 83.1052 167.624 82.832V63.1528C167.651 61.9118 167.393 60.6812 166.869 59.5562C166.344 58.4312 165.568 57.4419 164.6 56.665C163.384 55.721 161.914 55.1623 160.378 55.0608C158.842 54.9592 157.311 55.3195 155.982 56.0952L137.282 66.8957L87.6966 95.517C86.5189 96.1965 85.5403 97.1734 84.8586 98.3498C84.1769 99.5263 83.816 100.861 83.8122 102.221L83.7935 169.459V191.235C83.7657 192.476 84.0233 193.706 84.5464 194.831C85.0694 195.956 85.844 196.945 86.8102 197.723C88.026 198.67 89.4976 199.23 91.035 199.333C92.5725 199.435 94.1053 199.074 95.4357 198.297L113.659 187.783C113.896 187.647 114.092 187.45 114.229 187.214C114.366 186.977 114.438 186.708 114.437 186.435L114.456 122.883C114.456 120.31 115.134 117.781 116.421 115.552C117.708 113.324 119.56 111.473 121.789 110.187" fill="#FC6E6B"/>
</svg>
