<svg width="256" height="256" viewBox="0 0 256 256" fill="none" xmlns="http://www.w3.org/2000/svg" id="databricks">
<style>
#databricks {
    rect {fill: #242938}
    @media (prefers-color-scheme: light) {
        rect {fill: #F4F2ED}
    }
}
</style>
<rect width="256" height="256" fill="#242938" rx="60"/>
<path fill-rule="evenodd" clip-rule="evenodd" d="M225.351 178.76V141.936L221.453 139.447L127.919 191.697L39.2561 141.936V120.538L127.919 169.803L225.838 115.562V79.2357L221.941 76.7476L127.919 129.496L42.6662 81.7238L127.919 33.9524L196.609 72.269L201.968 69.2833V65.3024L127.919 24L30 78.2404V83.7143L127.919 138.453L216.582 88.6904V110.586L127.919 160.347L33.8973 107.6L30 110.088V146.912L127.919 201.153L216.582 151.888V173.286L127.919 223.047L33.8973 170.797L30 173.286V178.76L127.919 233L225.351 178.76Z" fill="#FF3621"/>
</svg>
