<svg xmlns="http://www.w3.org/2000/svg" width="256" height="256" fill="none" viewBox="0 0 256 256" id="snowflake">
<style>
#snowflake {
    rect {fill: #242938}
    @media (prefers-color-scheme: light) {
        rect {fill: #F4F2ED}
    }
}
</style>
<rect width="200" height="200" fill="#242938" rx="60"/>
<path fill="#FF3621" d="M172 136.514V109.029L169.207 107.171L102.175 146.171L38.6334 109.029V93.0571L102.175 129.829L172.349 89.3429V62.2286L169.556 60.3714L102.175 99.7429L41.0773 64.0857L102.175 28.4286L151.402 57.0286L155.242 54.8V51.8286L102.175 21L32 61.4857V65.5714L102.175 106.429L165.716 69.2857V85.6286L102.175 122.771L34.793 83.4L32 85.2571V112.743L102.175 153.229L165.716 116.457V132.429L102.175 169.571L34.793 130.571L32 132.429V136.514L102.175 177L172 136.514Z"/>
</svg>