<svg xmlns="http://www.w3.org/2000/svg" width="256" height="256" fill="none" viewBox="0 0 256 256" id="databricks">
<style>
#databricks {
    rect {fill: #242938}
    @media (prefers-color-scheme: light) {
        rect {fill: #F4F2ED}
    }
}
</style>
<rect width="256" height="256" fill="#242938" rx="60"/>
<path  d="M196 0H60C26.8629 0 0 26.8629 0 60V196C0 229.137 26.8629 256 60 256H196C229.137 256 256 229.137 256 196V60C256 26.8629 229.137 0 196 0Z"/>
<path fill="#FF3621" d="M246 192.417V149.25L241.431 146.333L131.786 207.583L27.8504 149.25V124.167L131.786 181.917L246.571 118.333V75.75L242.003 72.8333L131.786 134.667L31.8479 78.6667L131.786 22.6667L212.307 67.5833L218.589 64.0833V59.4167L131.786 11L17 74.5833V81L131.786 145.167L235.721 86.8333V112.5L131.786 170.833L21.5686 109L17 111.917V155.083L131.786 218.667L235.721 160.917V186L131.786 244.333L21.5686 183.083L17 186V192.417L131.786 256L246 192.417Z" />
</svg>
