<svg width="204" height="198" viewBox="0 0 204 198" fill="none" xmlns="http://www.w3.org/2000/svg" id="databricks">
<g clip-path="url(#clip0_22_7)">
<path d="M156.188 0H47.8125C21.4064 0 0 20.7768 0 46.4062V151.594C0 177.223 21.4064 198 47.8125 198H156.188C182.594 198 204 177.223 204 151.594V46.4062C204 20.7768 182.594 0 156.188 0Z" fill="#F4F2ED"/>
<g clip-path="url(#clip1_22_7)">
<path fill-rule="evenodd" clip-rule="evenodd" d="M172 136.514V109.029L169.207 107.171L102.175 146.171L38.6334 109.029V93.0571L102.175 129.829L172.349 89.3429V62.2286L169.556 60.3714L102.175 99.7429L41.0773 64.0857L102.175 28.4286L151.402 57.0286L155.242 54.8V51.8286L102.175 21L32 61.4857V65.5714L102.175 106.429L165.716 69.2857V85.6286L102.175 122.771L34.793 83.4L32 85.2571V112.743L102.175 153.229L165.716 116.457V132.429L102.175 169.571L34.793 130.571L32 132.429V136.514L102.175 177L172 136.514Z" fill="#FF3621"/>
</g>
</g>
<defs>
<clipPath id="clip0_22_7">
<rect width="204" height="198" fill="white"/>
</clipPath>
<clipPath id="clip1_22_7">
<rect width="140" height="156" fill="white" transform="translate(32 21)"/>
</clipPath>
</defs>
</svg>