<svg width="204" height="198" viewBox="0 0 204 198" fill="none" xmlns="http://www.w3.org/2000/svg"  id="databricks">
<path d="M160.781 0H49.2188C22.036 0 0 20.7768 0 46.4062V151.594C0 177.223 22.036 198 49.2188 198H160.781C187.964 198 210 177.223 210 151.594V46.4062C210 20.7768 187.964 0 160.781 0Z" fill="#242938"/>
<g clip-path="url(#clip0_22_13)">
<path fill-rule="evenodd" clip-rule="evenodd" d="M175 136.514V109.029L172.207 107.171L105.175 146.171L41.6334 109.029V93.0571L105.175 129.829L175.349 89.3429V62.2286L172.556 60.3714L105.175 99.7429L44.0773 64.0857L105.175 28.4286L154.402 57.0286L158.242 54.8V51.8286L105.175 21L35 61.4857V65.5714L105.175 106.429L168.716 69.2857V85.6286L105.175 122.771L37.793 83.4L35 85.2571V112.743L105.175 153.229L168.716 116.457V132.429L105.175 169.571L37.793 130.571L35 132.429V136.514L105.175 177L175 136.514Z" fill="#FF3621"/>
</g>
<defs>
<clipPath id="clip0_22_13">
<rect width="200" height="156" fill="white" transform="translate(35 21)"/>
</clipPath>
</defs>
</svg>
