<svg width="256" height="256" viewBox="0 0 256 256" fill="none" xmlns="http://www.w3.org/2000/svg">
<path d="M196 0H60C26.8629 0 0 26.8629 0 60V196C0 229.137 26.8629 256 60 256H196C229.137 256 256 229.137 256 196V60C256 26.8629 229.137 0 196 0Z" fill="#242938"/>
<path d="M193.264 167.531H130.081C114.804 167.531 106.243 179.032 106.243 191.266C106.243 202.557 113.502 215 130.081 215H193.264V167.531Z" fill="#669DF3"/>
<path d="M193.264 214.961C205.268 214.961 215 204.335 215 191.227C215 178.118 205.268 167.492 193.264 167.492C181.259 167.492 171.528 178.118 171.528 191.227C171.528 204.335 181.259 214.961 193.264 214.961Z" fill="#1A73E8"/>
<path d="M128.021 104.241H64.838C49.5608 104.241 41 115.742 41 127.984C41 139.275 48.2593 151.718 64.838 151.718H128.021V104.241Z" fill="#669DF3"/>
<path d="M128.021 151.72C140.025 151.72 149.757 141.094 149.757 127.985C149.757 114.877 140.025 104.25 128.021 104.25C116.016 104.25 106.285 114.877 106.285 127.985C106.285 141.094 116.016 151.72 128.021 151.72Z" fill="#1A73E8"/>
<path d="M193.264 41H130.081C114.804 41 106.243 52.5007 106.243 64.7347C106.243 76.026 113.502 88.4695 130.081 88.4695H193.264V41Z" fill="#669DF3"/>
<path d="M193.264 88.4695C205.268 88.4695 215 77.8431 215 64.7347C215 51.6264 205.268 41 193.264 41C181.259 41 171.528 51.6264 171.528 64.7347C171.528 77.8431 181.259 88.4695 193.264 88.4695Z" fill="#1A73E8"/>
</svg>
