<svg width="256" height="256" viewBox="0 0 256 256" fill="none" xmlns="http://www.w3.org/2000/svg" id="dataspell">
<style>
#dataspell {
    rect {fill: #242938}

    @media (prefers-color-scheme: light) {
        rect {fill: #F4F2ED}
    }
}
</style>
<rect width="256" height="256" rx="60" fill="#242938"/>
<path d="M153.188 41L156.613 111.281L69.0312 145.881L42 75.9601L153.188 41Z" fill="url(#paint0_linear_58_70)"/>
<path d="M215 82.0875L139.312 114.885L153.188 41L215 82.0875Z" fill="#21D789"/>
<path d="M134.807 98.3062L215 82.0874V157.955L159.856 178.68L137.329 158.135L134.807 98.3062Z" fill="url(#paint1_linear_58_70)"/>
<path d="M101.469 76.1406L156.797 84.7009L215 157.281L159.133 178.859L137.576 157.459L101.469 76.1406Z" fill="url(#paint2_linear_58_70)"/>
<path d="M77.6813 41L156.613 84.6101L129.401 214H83.4476L43.6219 172.912L77.6813 41Z" fill="url(#paint3_linear_58_70)"/>
<path d="M181.211 74.7891H75.7891V180.211H181.211V74.7891Z" fill="black"/>
<path d="M126.743 162.055H87.5022V168.498H126.743V162.055ZM87.9531 88.3048H103.366C115.871 88.3048 124.306 96.7386 124.306 107.789C124.306 118.84 115.872 127.565 103.366 127.565L87.9531 127.857V88.3048ZM96.6777 96.4477V120.004H103.366C110.346 120.004 115.29 115.351 115.29 108.372C115.29 101.391 110.637 96.4477 103.366 96.4477H96.6788H96.6777ZM128.5 121.878L133.596 115.729C137.11 118.715 140.975 120.472 145.368 120.472C148.882 120.472 151.165 119.066 151.165 116.783V116.607C151.165 114.323 149.76 113.269 143.259 111.512C135.177 109.578 130.081 107.295 130.081 99.3876V99.2125C130.081 92.0081 135.88 87.2646 143.962 87.2646C149.76 87.2646 154.679 89.0217 158.721 92.3595L154.153 98.8611C150.639 96.4012 147.125 94.9956 143.787 94.9956C140.448 94.9956 138.691 96.5764 138.691 98.5096V98.6848C138.691 101.321 140.448 102.199 147.301 103.956C155.383 106.064 159.95 108.876 159.95 115.904V116.08C159.95 123.986 153.977 128.379 145.368 128.379C139.394 128.203 133.245 126.094 128.5 121.878Z" fill="white"/>
<defs>
    <linearGradient id="paint0_linear_58_70" x1="12872.3" y1="5289.06" x2="1405.13" y2="5289.06" gradientUnits="userSpaceOnUse">
        <stop stop-color="#21D789"/>
        <stop offset="0.917" stop-color="#FCF84A"/>
    </linearGradient>
    <linearGradient id="paint1_linear_58_70" x1="4141.81" y1="967.631" x2="4141.81" y2="15279.2" gradientUnits="userSpaceOnUse">
        <stop stop-color="#21D789"/>
        <stop offset="1" stop-color="#087CFA"/>
    </linearGradient>
    <linearGradient id="paint2_linear_58_70" x1="16908.7" y1="12894.2" x2="1216.61" y2="106.352" gradientUnits="userSpaceOnUse">
        <stop offset="0.105" stop-color="#21D789"/>
        <stop offset="0.967" stop-color="#087CFA"/>
    </linearGradient>
    <linearGradient id="paint3_linear_58_70" x1="9594.43" y1="-1290.67" x2="663.66" y2="8830.9" gradientUnits="userSpaceOnUse">
        <stop offset="0.235" stop-color="#21D789"/>
        <stop offset="0.74" stop-color="#087CFA"/>
    </linearGradient>
    <clipPath id="clip0_58_70">
        <rect width="256" height="256" fill="white"/>
    </clipPath>
    <clipPath id="clip1_58_70">
        <rect width="173" height="173" fill="white" transform="translate(42 41)"/>
    </clipPath>
</defs>
</svg>
