<svg width="256" height="256" viewBox="0 0 256 256" fill="none" xmlns="http://www.w3.org/2000/svg" id="datagrip">
<style>
#datagrip {
    path.rect {fill: #242938}

    @media (prefers-color-scheme: light) {
        path.rect {fill: #F4F2ED}
    }
}
</style>
<g id="DataGrip">
<path id="Vector" d="M196 0H60C26.8629 0 0 26.8629 0 60V196C0 229.137 26.8629 256 60 256H196C229.137 256 256 229.137 256 196V60C256 26.8629 229.137 0 196 0Z" fill="#242938" class="rect"/>
<g id="Group 18">
<path id="Vector_2" d="M213.507 60.1636L225.999 137.859L203.148 153.398L213.507 60.1636Z" fill="url(#paint0_linear_8_85)"/>
<path id="Vector_3" d="M225.999 137.859L203.148 153.398L207.109 116.835L225.999 137.859Z" fill="url(#paint1_linear_8_85)"/>
<path id="Vector_4" d="M213.508 60.164L143.734 30L124.234 46.1484L213.508 60.164Z" fill="url(#paint2_linear_8_85)"/>
<path id="Vector_5" d="M158.664 51.9374L143.734 30L124.234 46.1484L158.664 51.9374Z" fill="url(#paint3_linear_8_85)"/>
<path id="Vector_6" d="M162.625 225L54.4614 138.774L32.8286 203.977L162.625 225Z" fill="url(#paint4_linear_8_85)"/>
<path id="Vector_7" d="M162.625 224.999L75.7894 186.914L32.8286 203.976L162.625 224.999Z" fill="url(#paint5_linear_8_85)"/>
<path id="Vector_8" d="M177.859 170.46L31 119.882L162.625 224.999L177.859 170.46Z" fill="url(#paint6_linear_8_85)"/>
<path id="Vector_9" d="M177.859 170.46L168.108 167.109L153.788 185.695L162.624 224.999L177.859 170.46Z" fill="url(#paint7_linear_8_85)"/>
<path id="Vector_10" d="M153.789 185.695L31 119.882L143.429 209.765L162.625 224.999L153.789 185.695Z" fill="url(#paint8_linear_8_85)"/>
<path id="Vector_11" d="M31 31.5234V119.883L200.101 178.078L213.507 60.164L31 31.5234Z" fill="url(#paint9_linear_8_85)"/>
<path id="Vector_12" d="M31 31.5234V119.883L200.101 178.078L180.296 89.1092L31 31.5234Z" fill="url(#paint10_linear_8_85)"/>
<path id="Vector_13" d="M31 31.5234V119.883L71.5233 95.5076L31 31.5234Z" fill="url(#paint11_linear_8_85)"/>
<path id="Vector_14" d="M75.7894 186.914L180.906 89.7188L70.0004 96.4219L32.8286 203.976L75.7894 186.914Z" fill="url(#paint12_linear_8_85)"/>
<path id="Vector_15" d="M75.7894 186.914L79.4457 158.274L54.4614 138.774L32.8286 203.977L75.7894 186.914Z" fill="url(#paint13_linear_8_85)"/>
<path id="Vector_16" d="M75.7894 186.914L79.4457 158.274L54.4614 138.774L32.8286 203.977L75.7894 186.914Z" fill="url(#paint14_linear_8_85)"/>
<path id="Vector_17" d="M213.507 60.1636L200.101 178.077L180.296 89.1088L213.507 60.1636Z" fill="url(#paint15_linear_8_85)"/>
<path id="Vector_18" d="M200.102 178.078L203.148 153.398L195.836 158.578L200.102 178.078Z" fill="url(#paint16_linear_8_85)"/>
<path id="Vector_19" d="M200.101 178.078L177.859 170.461L195.836 158.578L200.101 178.078Z" fill="url(#paint17_linear_8_85)"/>
<path id="Vector_20" d="M213.507 60.1635L165.367 102.82L69.0859 96.1166L124.234 46.1479L213.507 60.1635Z" fill="url(#paint18_linear_8_85)"/>
<path id="Vector_21" d="M180.296 89.1092L213.507 60.164L31 31.5234L180.296 89.1092Z" fill="url(#paint19_linear_8_85)"/>
<path id="Vector_22" d="M180.296 89.1092L213.507 60.164L31 31.5234L180.296 89.1092Z" fill="url(#paint20_linear_8_85)"/>
<path id="Vector_23" d="M107.782 61.0776L180.297 89.1088L182.734 86.976L158.359 51.6323L124.235 46.1479L107.782 61.0776Z" fill="url(#paint21_linear_8_85)"/>
<path id="Vector_24" d="M189.437 66.5625H67.5625V188.437H189.437V66.5625Z" fill="url(#paint22_linear_8_85)"/>
<g id="Group" opacity="0.5">
<path id="Vector_25" opacity="0.3" d="M67.5625 149.438V188.437H116.617L67.5625 149.438Z" fill="url(#paint23_linear_8_85)"/>
<path id="Vector_26" opacity="0.3" d="M67.5625 149.438V188.437H72.7422L75.789 187.219L93.9179 170.461L67.5625 149.438Z" fill="url(#paint24_linear_8_85)"/>
<path id="Vector_27" opacity="0.3" d="M67.5625 149.437L116.617 188.437H172.984L177.859 170.765L67.5625 132.832V149.437Z" fill="url(#paint25_linear_8_85)"/>
<path id="Vector_28" opacity="0.3" d="M153.789 186L154.398 188.437H172.984L177.859 170.766L148.609 160.863L153.789 186Z" fill="url(#paint26_linear_8_85)"/>
<path id="Vector_29" opacity="0.3" d="M189.437 81.4917L180.296 89.4136L189.437 130.089V81.4917Z" fill="url(#paint27_linear_8_85)"/>
<path id="Vector_30" opacity="0.3" d="M189.437 66.5625H121.339L180.296 89.414L189.437 81.4921V66.5625Z" fill="url(#paint28_linear_8_85)"/>
<path id="Vector_31" opacity="0.3" d="M189.437 174.726V130.09L180.297 89.414L121.34 66.5625H67.5625V132.832L189.437 174.726Z" fill="url(#paint29_linear_8_85)"/>
</g>
<path id="Vector_32" d="M128.5 165.434H82.7969V173.051H128.5V165.434Z" fill="white"/>
<path id="Vector_33" d="M81.4248 81.8755H99.1862C113.506 81.8755 123.419 91.6511 123.419 104.594V104.731C123.419 117.536 113.506 127.587 99.1862 127.587H81.4248V81.8755ZM91.4758 90.9628V118.5H99.1862C107.447 118.5 112.955 112.993 112.955 104.869V104.731C112.955 96.608 107.447 90.9628 99.1862 90.9628H91.4758Z" fill="white"/>
<path id="Vector_34" d="M127.496 104.869C127.496 91.7884 137.547 81.1865 151.453 81.1865C159.714 81.1865 164.671 83.3894 169.352 87.3823L163.019 94.9553C159.439 92.0638 156.41 90.2738 151.04 90.2738C143.742 90.2738 137.96 96.745 137.96 104.455V104.731C137.96 113.13 143.742 119.188 151.728 119.188C155.446 119.188 158.613 118.224 161.229 116.434V109.963H151.178V101.289H171.004V121.116C166.323 125.109 159.852 128.413 151.453 128.413C137.271 128.275 127.496 118.362 127.496 104.869Z" fill="white"/>
</g>
</g>
<defs>
<linearGradient id="paint0_linear_8_85" x1="209.641" y1="103.348" x2="215.343" y2="152.992" gradientUnits="userSpaceOnUse">
<stop offset="0.1599" stop-color="#21D789"/>
<stop offset="0.5402" stop-color="#419FBC"/>
<stop offset="1" stop-color="#6B57FF"/>
</linearGradient>
<linearGradient id="paint1_linear_8_85" x1="184.627" y1="127.988" x2="258.731" y2="154.081" gradientUnits="userSpaceOnUse">
<stop offset="0.0212475" stop-color="#B74AF7" stop-opacity="0"/>
<stop offset="0.744" stop-color="#8053FD" stop-opacity="0.7385"/>
<stop offset="1" stop-color="#6B57FF"/>
</linearGradient>
<linearGradient id="paint2_linear_8_85" x1="157.656" y1="82.0496" x2="172.08" y2="45.1521" gradientUnits="userSpaceOnUse">
<stop stop-color="#6B57FF"/>
<stop offset="0.9516" stop-color="#21D789"/>
</linearGradient>
<linearGradient id="paint3_linear_8_85" x1="157.907" y1="36.2388" x2="134.519" y2="52.6272" gradientUnits="userSpaceOnUse">
<stop stop-color="#00FF6A"/>
<stop offset="0.9516" stop-color="#21D789" stop-opacity="0"/>
</linearGradient>
<linearGradient id="paint4_linear_8_85" x1="162.319" y1="252.731" x2="25.3553" y2="158.932" gradientUnits="userSpaceOnUse">
<stop offset="0.09839" stop-color="#6B57FF"/>
<stop offset="0.1176" stop-color="#685CFB"/>
<stop offset="0.3447" stop-color="#4A91CA"/>
<stop offset="0.5417" stop-color="#34B7A7"/>
<stop offset="0.6991" stop-color="#26CE91"/>
<stop offset="0.7971" stop-color="#21D789"/>
</linearGradient>
<linearGradient id="paint5_linear_8_85" x1="92.1106" y1="149.453" x2="100.142" y2="242.501" gradientUnits="userSpaceOnUse">
<stop offset="0.09839" stop-color="#6B57FF"/>
<stop offset="0.1176" stop-color="#685CFB"/>
<stop offset="0.3447" stop-color="#4A91CA"/>
<stop offset="0.5417" stop-color="#34B7A7"/>
<stop offset="0.6991" stop-color="#26CE91"/>
<stop offset="0.7971" stop-color="#21D789"/>
</linearGradient>
<linearGradient id="paint6_linear_8_85" x1="43.1469" y1="127.521" x2="214.02" y2="221.866" gradientUnits="userSpaceOnUse">
<stop offset="0.0752688" stop-color="#21D789"/>
<stop offset="0.8874" stop-color="#6B57FF"/>
</linearGradient>
<linearGradient id="paint7_linear_8_85" x1="153.782" y1="196.079" x2="177.855" y2="196.079" gradientUnits="userSpaceOnUse">
<stop offset="0.0266187" stop-color="#4F46C6"/>
<stop offset="1" stop-color="#6B57FF"/>
</linearGradient>
<linearGradient id="paint8_linear_8_85" x1="37.1068" y1="138.461" x2="207.98" y2="232.806" gradientUnits="userSpaceOnUse">
<stop offset="0.0266187" stop-color="#21D789"/>
<stop offset="0.6999" stop-color="#685CFA"/>
<stop offset="1" stop-color="#6B57FF"/>
</linearGradient>
<linearGradient id="paint9_linear_8_85" x1="21.5294" y1="78.9083" x2="189.078" y2="115.359" gradientUnits="userSpaceOnUse">
<stop offset="0.2422" stop-color="#21D789"/>
<stop offset="0.4465" stop-color="#59A3B2"/>
<stop offset="0.7668" stop-color="#B74AF7"/>
<stop offset="1" stop-color="#FF45ED"/>
</linearGradient>
<linearGradient id="paint10_linear_8_85" x1="43.2265" y1="104.77" x2="202.414" y2="104.77" gradientUnits="userSpaceOnUse">
<stop offset="0.1308" stop-color="#21D789"/>
<stop offset="0.3487" stop-color="#59A3B2"/>
<stop offset="0.6901" stop-color="#B74AF7"/>
<stop offset="1" stop-color="#FF45ED"/>
</linearGradient>
<linearGradient id="paint11_linear_8_85" x1="33.9171" y1="75.6945" x2="71.8956" y2="75.6945" gradientUnits="userSpaceOnUse">
<stop offset="0.3086" stop-color="#56D789"/>
<stop offset="0.9587" stop-color="#8DFC77"/>
<stop offset="1" stop-color="#91FF76"/>
</linearGradient>
<linearGradient id="paint12_linear_8_85" x1="97.903" y1="262.306" x2="110.983" y2="91.3299" gradientUnits="userSpaceOnUse">
<stop stop-color="#21D789"/>
<stop offset="0.9961" stop-color="#6B57FF" stop-opacity="0"/>
</linearGradient>
<linearGradient id="paint13_linear_8_85" x1="46.1584" y1="137.953" x2="57.9016" y2="189.12" gradientUnits="userSpaceOnUse">
<stop offset="0.2061" stop-color="#6B57FF"/>
<stop offset="0.3273" stop-color="#6266F1"/>
<stop offset="0.5619" stop-color="#4B8FCC"/>
<stop offset="0.8839" stop-color="#26CF90"/>
<stop offset="0.9206" stop-color="#21D789"/>
</linearGradient>
<linearGradient id="paint14_linear_8_85" x1="31.4005" y1="161.919" x2="80.3756" y2="200.102" gradientUnits="userSpaceOnUse">
<stop offset="0.3086" stop-color="#56D789" stop-opacity="0"/>
<stop offset="0.9587" stop-color="#8DFC77" stop-opacity="0.9403"/>
<stop offset="1" stop-color="#91FF76"/>
</linearGradient>
<linearGradient id="paint15_linear_8_85" x1="180.33" y1="119.236" x2="213.564" y2="119.236" gradientUnits="userSpaceOnUse">
<stop offset="0.2609" stop-color="#B74AF7"/>
<stop offset="1" stop-color="#FF45ED"/>
</linearGradient>
<linearGradient id="paint16_linear_8_85" x1="207.008" y1="173.792" x2="196.631" y2="158.435" gradientUnits="userSpaceOnUse">
<stop stop-color="#FF72F1"/>
<stop offset="0.963" stop-color="#B74AF7"/>
</linearGradient>
<linearGradient id="paint17_linear_8_85" x1="208.257" y1="188.084" x2="188.335" y2="166.087" gradientUnits="userSpaceOnUse">
<stop offset="0.668" stop-color="#FF72F1"/>
<stop offset="1" stop-color="#B74AF7"/>
</linearGradient>
<linearGradient id="paint18_linear_8_85" x1="101.428" y1="11.5456" x2="152.884" y2="97.4751" gradientUnits="userSpaceOnUse">
<stop offset="0.1625" stop-color="#B74AF7" stop-opacity="0.5"/>
<stop offset="0.9989" stop-color="#00FF6A" stop-opacity="0"/>
</linearGradient>
<linearGradient id="paint19_linear_8_85" x1="179.35" y1="115.058" x2="140.336" y2="67.7434" gradientUnits="userSpaceOnUse">
<stop offset="0.2973" stop-color="#FF4FFF" stop-opacity="0.96"/>
<stop offset="0.9989" stop-color="#FF45ED" stop-opacity="0"/>
</linearGradient>
<linearGradient id="paint20_linear_8_85" x1="118.152" y1="68.9779" x2="122.302" y2="45.7355" gradientUnits="userSpaceOnUse">
<stop stop-color="#FF4FFF" stop-opacity="0.96"/>
<stop offset="0.9928" stop-color="#FF45ED" stop-opacity="0"/>
</linearGradient>
<linearGradient id="paint21_linear_8_85" x1="168.533" y1="47.1814" x2="149.105" y2="69.6326" gradientUnits="userSpaceOnUse">
<stop offset="0.1209" stop-color="#A326F7"/>
<stop offset="0.9516" stop-color="#B74AF7" stop-opacity="0"/>
</linearGradient>
<linearGradient id="paint22_linear_8_85" x1="65.9254" y1="64.9254" x2="181.317" y2="180.317" gradientUnits="userSpaceOnUse">
<stop offset="0.0284813" stop-color="#007E67"/>
<stop offset="0.1121" stop-color="#005344"/>
<stop offset="0.1976" stop-color="#002F27"/>
<stop offset="0.2776" stop-color="#001511"/>
<stop offset="0.3494" stop-color="#000605"/>
<stop offset="0.4058"/>
<stop offset="0.9138"/>
</linearGradient>
<linearGradient id="paint23_linear_8_85" x1="115.733" y1="201.903" x2="53.7759" y2="159.472" gradientUnits="userSpaceOnUse">
<stop offset="0.09839" stop-color="#6B57FF"/>
<stop offset="0.1176" stop-color="#685CFB"/>
<stop offset="0.3447" stop-color="#4A91CA"/>
<stop offset="0.5417" stop-color="#34B7A7"/>
<stop offset="0.6991" stop-color="#26CE91"/>
<stop offset="0.7971" stop-color="#21D789"/>
</linearGradient>
<linearGradient id="paint24_linear_8_85" x1="77.2445" y1="205.717" x2="81.3112" y2="152.561" gradientUnits="userSpaceOnUse">
<stop offset="0.0752688" stop-color="#21D789"/>
<stop offset="0.8874" stop-color="#6B57FF"/>
</linearGradient>
<linearGradient id="paint25_linear_8_85" x1="75.3442" y1="139.898" x2="197.91" y2="207.57" gradientUnits="userSpaceOnUse">
<stop stop-color="#34B7A7"/>
<stop offset="0.8874" stop-color="#000069"/>
</linearGradient>
<linearGradient id="paint26_linear_8_85" x1="148.569" y1="174.616" x2="177.856" y2="174.616" gradientUnits="userSpaceOnUse">
<stop offset="0.0266187" stop-color="#4F46C6"/>
<stop offset="1" stop-color="#1F2C61"/>
</linearGradient>
<linearGradient id="paint27_linear_8_85" x1="180.33" y1="105.799" x2="189.437" y2="105.799" gradientUnits="userSpaceOnUse">
<stop offset="0.2609" stop-color="#B74AF7"/>
<stop offset="1" stop-color="#FF45ED"/>
</linearGradient>
<linearGradient id="paint28_linear_8_85" x1="154.598" y1="78.4197" x2="157.517" y2="62.0708" gradientUnits="userSpaceOnUse">
<stop stop-color="#FF4FFF"/>
<stop offset="0.9928" stop-color="#FF75FF"/>
</linearGradient>
<linearGradient id="paint29_linear_8_85" x1="89.3348" y1="69.2599" x2="171.861" y2="169.022" gradientUnits="userSpaceOnUse">
<stop stop-color="#20D185"/>
<stop offset="0.4429" stop-color="#198767"/>
<stop offset="0.844" stop-color="#12414A"/>
</linearGradient>
</defs>
</svg>
