<svg width="256" height="256" viewBox="0 0 256 256" fill="none" xmlns="http://www.w3.org/2000/svg" id="databricks">
<path d="M196 0H60C26.8629 0 0 26.8629 0 60V196C0 229.137 26.8629 256 60 256H196C229.137 256 256 229.137 256 196V60C256 26.8629 229.137 0 196 0Z" fill="#F4F2ED"/>
<g clip-path="url(#clip0_1_12)">
<path fill-rule="evenodd" clip-rule="evenodd" d="M242 187.417V144.25L237.431 141.333L127.786 202.583L23.8504 144.25V119.167L127.786 176.917L242.571 113.333V70.75L238.003 67.8333L127.786 129.667L27.8479 73.6667L127.786 17.6667L208.307 62.5833L214.589 59.0833V54.4167L127.786 6L13 69.5833V76L127.786 140.167L231.721 81.8333V107.5L127.786 165.833L17.5686 104L13 106.917V150.083L127.786 213.667L231.721 155.917V181L127.786 239.333L17.5686 178.083L13 181V187.417L127.786 251L242 187.417Z" fill="#FF3621"/>
</g>
<defs>
<clipPath id="clip0_1_12">
<rect width="256" height="256" fill="white" transform="translate(13 6)"/>
</clipPath>
</defs>
</svg>
