<svg width="256" height="256" viewBox="0 0 256 256" fill="none" xmlns="http://www.w3.org/2000/svg">
<g clip-path="url(#clip0_667_87)">
<mask id="mask0_667_87" style="mask-type:luminance" maskUnits="userSpaceOnUse" x="0" y="0" width="256" height="256">
<path d="M196 0H60C26.8629 0 0 26.8629 0 60V196C0 229.137 26.8629 256 60 256H196C229.137 256 256 229.137 256 196V60C256 26.8629 229.137 0 196 0Z" fill="white"/>
</mask>
<g mask="url(#mask0_667_87)">
<path d="M114.52 152.544L180.7 86.364L169.263 74.9277L103.084 141.108L114.52 152.544Z" fill="black"/>
<path d="M180.7 86.3634L246.879 20.1838L235.443 8.74756L169.264 74.9271L180.7 86.3634Z" fill="#0019FF"/>
<path d="M181.418 87.2907L248.743 22.2762L237.508 10.6421L170.183 75.6566L181.418 87.2907Z" fill="#0015FF"/>
<path d="M182.121 88.2303L250.57 24.4007L239.54 12.5723L171.091 76.4019L182.121 88.2303Z" fill="#0011FF"/>
<path d="M182.806 89.181L252.359 26.5557L241.537 14.5366L171.984 77.1619L182.806 89.181Z" fill="#000CFF"/>
<path d="M183.476 90.1442L254.11 28.7423L243.5 16.5361L172.865 77.938L183.476 90.1442Z" fill="#0008FF"/>
<path d="M184.128 91.1186L255.823 30.9588L245.427 18.5693L173.732 78.7291L184.128 91.1186Z" fill="#0004FF"/>
<path d="M184.763 92.1051L257.498 33.2058L247.319 20.6367L174.585 79.5361L184.763 92.1051Z" fill="#0000FF"/>
<path d="M185.381 93.1016L259.132 35.4806L249.175 22.7358L175.424 80.3568L185.381 93.1016Z" fill="#0500FF"/>
<path d="M185.982 94.1089L260.728 37.7838L250.994 24.8672L176.248 81.1923L185.982 94.1089Z" fill="#0900FF"/>
<path d="M186.564 95.1277L262.282 40.1157L252.775 27.0312L177.058 82.0432L186.564 95.1277Z" fill="#0D00FF"/>
<path d="M187.129 96.1551L263.795 42.4729L254.518 29.2246L177.852 82.9067L187.129 96.1551Z" fill="#1100FF"/>
<path d="M187.675 97.1925L265.266 44.8564L256.222 31.4482L178.631 83.7842L187.675 97.1925Z" fill="#1600FF"/>
<path d="M188.203 98.2397L266.696 47.2658L257.888 33.7017L179.395 84.6756L188.203 98.2397Z" fill="#1A00FF"/>
<path d="M188.714 99.2953L268.084 49.6991L259.514 35.9834L180.143 85.5796L188.714 99.2953Z" fill="#1E00FF"/>
<path d="M189.206 100.361L269.43 52.1576L261.1 38.2944L180.876 86.4979L189.206 100.361Z" fill="#2200FF"/>
<path d="M189.678 101.433L270.731 54.6364L262.645 40.6299L181.592 87.426L189.678 101.433Z" fill="#2700FF"/>
<path d="M190.132 102.515L271.99 57.1406L264.149 42.9951L182.291 88.3695L190.132 102.515Z" fill="#2B00FF"/>
<path d="M190.569 103.603L273.206 59.6645L265.613 45.3843L182.976 89.3231L190.569 103.603Z" fill="#2F00FF"/>
<path d="M190.985 104.7L274.376 62.2098L267.033 47.7993L183.642 90.2892L190.985 104.7Z" fill="#3300FF"/>
<path d="M191.382 105.803L275.502 64.7753L268.412 50.2388L184.292 91.2669L191.382 105.803Z" fill="#3800FF"/>
<path d="M191.759 106.914L276.583 67.3597L269.747 52.7017L184.924 92.2554L191.759 106.914Z" fill="#3C00FF"/>
<path d="M192.118 108.03L277.619 69.962L271.04 55.187L185.54 93.2543L192.118 108.03Z" fill="#4000FF"/>
<path d="M192.456 109.153L278.608 72.5839L272.289 57.6963L186.137 94.2656L192.456 109.153Z" fill="#4400FF"/>
<path d="M192.776 110.281L279.553 75.2212L273.495 60.2256L186.718 95.2858L192.776 110.281Z" fill="#4800FF"/>
<path d="M193.075 111.415L280.451 77.8745L274.655 62.7754L187.279 96.3158L193.075 111.415Z" fill="#4D00FF"/>
<path d="M193.354 112.553L281.302 80.5427L275.77 65.3447L187.822 97.3551L193.354 112.553Z" fill="#5100FF"/>
<path d="M193.614 113.698L282.107 83.2268L276.842 67.9346L188.349 98.4052L193.614 113.698Z" fill="#5500FF"/>
<path d="M193.854 114.845L282.865 85.9237L277.867 70.542L188.856 99.4636L193.854 114.845Z" fill="#5900FF"/>
<path d="M194.074 115.998L283.576 88.6341L278.848 73.1675L189.345 100.531L194.074 115.998Z" fill="#5E00FF"/>
<path d="M194.271 117.153L284.238 91.3554L279.78 75.8086L189.813 101.606L194.271 117.153Z" fill="#6200FF"/>
<path d="M194.452 118.312L284.855 94.0885L280.669 78.4663L190.266 102.69L194.452 118.312Z" fill="#6600FF"/>
<path d="M194.61 119.474L285.422 96.8325L281.51 81.1396L190.698 103.782L194.61 119.474Z" fill="#6A00FF"/>
<path d="M194.749 120.639L285.942 99.5854L282.304 83.8267L191.111 104.88L194.749 120.639Z" fill="#6F00FF"/>
<path d="M194.867 121.806L286.414 102.347L283.051 86.5273L191.505 105.986L194.867 121.806Z" fill="#7300FF"/>
<path d="M194.965 122.975L286.837 105.117L283.751 89.2402L191.879 107.099L194.965 122.975Z" fill="#7700FF"/>
<path d="M195.043 124.144L287.213 107.892L284.404 91.9644L192.234 108.217L195.043 124.144Z" fill="#7B00FF"/>
<path d="M195.1 125.315L287.54 110.674L285.01 94.6997L192.57 109.341L195.1 125.315Z" fill="#8000FF"/>
<path d="M195.136 126.488L287.817 113.462L285.566 97.4463L192.885 110.472L195.136 126.488Z" fill="#8400FF"/>
<path d="M195.153 127.661L288.047 116.255L286.076 100.202L193.182 111.608L195.153 127.661Z" fill="#8800FF"/>
<path d="M195.149 128.834L288.228 119.051L286.537 102.966L193.458 112.749L195.149 128.834Z" fill="#8C00FF"/>
<path d="M195.124 130.005L288.36 121.848L286.95 105.736L193.714 113.893L195.124 130.005Z" fill="#9100FF"/>
<path d="M195.079 131.178L288.443 124.649L287.315 108.516L193.951 115.044L195.079 131.178Z" fill="#9500FF"/>
<path d="M195.013 132.348L288.477 127.45L287.631 111.299L194.167 116.197L195.013 132.348Z" fill="#9900FF"/>
<path d="M194.927 133.519L288.462 130.252L287.898 114.089L194.363 117.355L194.927 133.519Z" fill="#9D00FF"/>
<path d="M194.82 134.686L288.398 133.052L288.116 116.881L194.538 118.515L194.82 134.686Z" fill="#A100FF"/>
<path d="M194.694 135.852H288.286V119.679H194.694V135.852Z" fill="#A600FF"/>
<path d="M194.547 137.015L288.125 138.648L288.407 122.478L194.829 120.844L194.547 137.015Z" fill="#AA00FF"/>
<path d="M194.379 138.176L287.914 141.442L288.479 125.279L194.943 122.013L194.379 138.176Z" fill="#AE00FF"/>
<path d="M194.191 139.334L287.655 144.232L288.501 128.081L195.037 123.183L194.191 139.334Z" fill="#B200FF"/>
<path d="M193.984 140.487L287.348 147.016L288.476 130.882L195.112 124.354L193.984 140.487Z" fill="#B700FF"/>
<path d="M193.756 141.639L286.992 149.796L288.402 133.684L195.166 125.527L193.756 141.639Z" fill="#BB00FF"/>
<path d="M193.507 142.785L286.586 152.568L288.277 136.483L195.197 126.7L193.507 142.785Z" fill="#BF00FF"/>
<path d="M193.239 143.926L286.134 155.332L288.105 139.279L195.21 127.873L193.239 143.926Z" fill="#C300FF"/>
<path d="M192.951 145.063L285.632 158.089L287.883 142.073L195.202 129.047L192.951 145.063Z" fill="#C800FF"/>
<path d="M192.644 146.195L285.083 160.836L287.614 144.862L195.174 130.221L192.644 146.195Z" fill="#CC00FF"/>
<path d="M192.317 147.321L284.487 163.573L287.295 147.645L195.125 131.393L192.317 147.321Z" fill="#D000FF"/>
<path d="M191.969 148.442L283.842 166.3L286.928 150.424L195.055 132.565L191.969 148.442Z" fill="#D400FF"/>
<path d="M191.603 149.555L283.15 169.014L286.513 153.194L194.966 133.735L191.603 149.555Z" fill="#D900FF"/>
<path d="M191.218 150.662L282.411 171.716L286.049 155.957L194.856 134.903L191.218 150.662Z" fill="#DD00FF"/>
<path d="M190.813 151.763L281.625 174.405L285.537 158.712L194.725 136.07L190.813 151.763Z" fill="#E100FF"/>
<path d="M190.387 152.856L280.79 177.08L284.976 161.457L194.573 137.234L190.387 152.856Z" fill="#E500FF"/>
<path d="M189.943 153.942L279.91 179.74L284.368 164.193L194.401 138.396L189.943 153.942Z" fill="#EA00FF"/>
<path d="M189.482 155.019L278.984 182.382L283.713 166.916L194.21 139.552L189.482 155.019Z" fill="#EE00FF"/>
<path d="M189.001 156.089L278.013 185.011L283.011 169.629L193.999 140.707L189.001 156.089Z" fill="#F200FF"/>
<path d="M188.502 157.15L276.995 187.621L282.26 172.329L193.767 141.858L188.502 157.15Z" fill="#F600FF"/>
<path d="M187.984 158.203L275.932 190.213L281.464 175.015L193.516 143.005L187.984 158.203Z" fill="#FA00FF"/>
<path d="M187.448 159.245L274.823 192.786L280.619 177.687L193.244 144.146L187.448 159.245Z" fill="#FF00FF"/>
<path d="M186.893 160.279L273.67 195.339L279.729 180.344L192.952 145.284L186.893 160.279Z" fill="#FF00FB"/>
<path d="M186.32 161.303L272.472 197.873L278.791 182.985L192.639 146.416L186.32 161.303Z" fill="#FF00F7"/>
<path d="M185.731 162.316L271.231 200.383L277.81 185.608L192.309 147.541L185.731 162.316Z" fill="#FF00F3"/>
<path d="M185.123 163.319L269.946 202.873L276.781 188.215L191.958 148.661L185.123 163.319Z" fill="#FF00EE"/>
<path d="M184.498 164.311L268.618 205.339L275.708 190.803L191.588 149.775L184.498 164.311Z" fill="#FF00EA"/>
<path d="M183.855 165.292L267.246 207.782L274.589 193.372L191.197 150.882L183.855 165.292Z" fill="#FF00E6"/>
<path d="M183.197 166.261L265.833 210.2L273.426 195.92L190.79 151.981L183.197 166.261Z" fill="#FF00E2"/>
<path d="M182.52 167.22L264.377 212.594L272.218 198.449L190.36 153.074L182.52 167.22Z" fill="#FF00DD"/>
<path d="M181.827 168.167L262.88 214.963L270.967 200.956L189.914 154.16L181.827 168.167Z" fill="#FF00D9"/>
<path d="M181.118 169.101L261.342 217.305L269.672 203.441L189.448 155.238L181.118 169.101Z" fill="#FF00D5"/>
<path d="M180.393 170.021L259.763 219.618L268.334 205.902L188.963 156.306L180.393 170.021Z" fill="#FF00D1"/>
<path d="M179.651 170.931L258.144 221.905L266.953 208.341L188.46 157.367L179.651 170.931Z" fill="#FF00CC"/>
<path d="M178.894 171.826L256.485 224.162L265.529 210.754L187.938 158.418L178.894 171.826Z" fill="#FF00C8"/>
<path d="M178.122 172.708L254.788 226.39L264.065 213.142L187.399 159.46L178.122 172.708Z" fill="#FF00C4"/>
<path d="M177.334 173.577L253.051 228.589L262.558 215.504L186.84 160.492L177.334 173.577Z" fill="#FF00C0"/>
<path d="M176.532 174.432L251.278 230.757L261.011 217.84L186.265 161.515L176.532 174.432Z" fill="#FF00BB"/>
<path d="M175.713 175.273L249.465 232.894L259.422 220.149L185.671 162.528L175.713 175.273Z" fill="#FF00B7"/>
<path d="M174.882 176.099L247.616 234.999L257.794 222.43L185.06 163.53L174.882 176.099Z" fill="#FF00B3"/>
<path d="M174.034 176.911L245.73 237.07L256.126 224.681L184.43 164.521L174.034 176.911Z" fill="#FF00AF"/>
<path d="M173.173 177.706L243.808 239.108L254.419 226.902L183.784 165.5L173.173 177.706Z" fill="#FF00AB"/>
<path d="M172.3 178.488L241.852 241.114L252.674 229.095L183.122 166.469L172.3 178.488Z" fill="#FF00A6"/>
<path d="M171.411 179.254L239.86 243.084L250.891 231.256L182.442 167.426L171.411 179.254Z" fill="#FF00A2"/>
<path d="M170.51 180.005L237.835 245.02L249.07 233.385L181.745 168.371L170.51 180.005Z" fill="#FF009E"/>
<path d="M169.596 180.739L235.776 246.919L247.212 235.483L181.033 169.303L169.596 180.739Z" fill="#FF009A"/>
<path d="M168.669 181.459L233.684 248.783L245.318 237.548L180.303 170.224L168.669 181.459Z" fill="#FF0095"/>
<path d="M167.731 182.161L231.561 250.61L243.389 239.58L179.559 171.131L167.731 182.161Z" fill="#FF0091"/>
<path d="M166.779 182.846L229.404 252.398L241.423 241.576L178.798 172.024L166.779 182.846Z" fill="#FF008D"/>
<path d="M165.815 183.516L227.217 254.15L239.423 243.54L178.022 172.905L165.815 183.516Z" fill="#FF0089"/>
<path d="M164.841 184.169L225 255.864L237.39 245.468L177.23 173.773L164.841 184.169Z" fill="#FF0084"/>
<path d="M163.855 184.803L222.754 257.538L235.323 247.359L176.424 174.625L163.855 184.803Z" fill="#FF0080"/>
<path d="M162.858 185.421L220.479 259.173L233.224 249.216L175.603 175.464L162.858 185.421Z" fill="#FF007C"/>
<path d="M161.851 186.022L218.176 260.768L231.093 251.034L174.768 176.288L161.851 186.022Z" fill="#FF0078"/>
<path d="M160.833 186.604L215.845 262.321L228.93 252.815L173.918 177.097L160.833 186.604Z" fill="#FF0073"/>
<path d="M159.806 187.168L213.488 263.834L226.736 254.558L173.054 177.892L159.806 187.168Z" fill="#FF006F"/>
<path d="M158.768 187.715L211.104 265.306L224.513 256.262L172.177 178.671L158.768 187.715Z" fill="#FF006B"/>
<path d="M157.72 188.243L208.694 266.736L222.258 257.928L171.285 179.435L157.72 188.243Z" fill="#FF0067"/>
<path d="M156.665 188.754L206.261 268.125L219.976 259.554L170.38 180.183L156.665 188.754Z" fill="#FF0062"/>
<path d="M155.6 189.246L203.803 269.47L217.666 261.14L169.463 180.916L155.6 189.246Z" fill="#FF005E"/>
<path d="M154.527 189.719L201.323 270.772L215.329 262.685L168.533 181.632L154.527 189.719Z" fill="#FF005A"/>
<path d="M153.446 190.173L198.82 272.031L212.966 264.19L167.591 182.332L153.446 190.173Z" fill="#FF0056"/>
<path d="M152.357 190.608L196.296 273.245L210.576 265.652L166.637 183.015L152.357 190.608Z" fill="#FF0052"/>
<path d="M151.261 191.024L193.751 274.415L208.161 267.073L165.672 183.681L151.261 191.024Z" fill="#FF004D"/>
<path d="M150.157 191.422L191.185 275.542L205.722 268.452L164.693 184.332L150.157 191.422Z" fill="#FF0049"/>
<path d="M149.046 191.799L188.6 276.623L203.258 269.787L163.704 184.964L149.046 191.799Z" fill="#FF0045"/>
<path d="M147.931 192.158L185.998 277.658L200.773 271.08L162.706 185.579L147.931 192.158Z" fill="#FF0041"/>
<path d="M146.807 192.496L183.376 278.648L198.264 272.329L161.695 186.177L146.807 192.496Z" fill="#FF003C"/>
<path d="M145.679 192.816L180.739 279.593L195.735 273.535L160.675 186.758L145.679 192.816Z" fill="#FF0038"/>
<path d="M144.546 193.115L178.086 280.491L193.185 274.695L159.645 187.319L144.546 193.115Z" fill="#FF0034"/>
<path d="M143.406 193.395L175.417 281.343L190.614 275.811L158.604 187.863L143.406 193.395Z" fill="#FF0030"/>
<path d="M142.263 193.654L172.733 282.147L188.026 276.881L157.555 188.388L142.263 193.654Z" fill="#FF002B"/>
<path d="M141.115 193.894L170.036 282.905L185.418 277.907L156.496 188.896L141.115 193.894Z" fill="#FF0027"/>
<path d="M139.963 194.113L167.326 283.616L182.793 278.887L155.429 189.385L139.963 194.113Z" fill="#FF0023"/>
<path d="M138.807 194.312L164.604 284.279L180.151 279.821L154.353 189.854L138.807 194.312Z" fill="#FF001F"/>
<path d="M137.648 194.492L161.872 284.895L177.494 280.709L153.27 190.306L137.648 194.492Z" fill="#FF001A"/>
<path d="M136.486 194.651L159.128 285.463L174.821 281.55L152.179 190.738L136.486 194.651Z" fill="#FF0016"/>
<path d="M135.322 194.789L156.375 285.982L172.134 282.344L151.081 191.15L135.322 194.789Z" fill="#FF0012"/>
<path d="M134.155 194.907L153.614 286.454L169.434 283.091L149.975 191.545L134.155 194.907Z" fill="#FF000E"/>
<path d="M132.987 195.005L150.845 286.878L166.721 283.792L148.863 191.919L132.987 195.005Z" fill="#FF0009"/>
<path d="M131.816 195.083L148.068 287.253L163.996 284.445L147.744 192.275L131.816 195.083Z" fill="#FF0005"/>
<path d="M130.644 195.14L145.285 287.58L161.259 285.05L146.618 192.61L130.644 195.14Z" fill="#FF0001"/>
<path d="M129.473 195.177L142.498 287.858L158.514 285.608L145.488 192.926L129.473 195.177Z" fill="#FF0300"/>
<path d="M128.3 195.193L139.706 288.087L155.759 286.116L144.353 193.222L128.3 195.193Z" fill="#FF0700"/>
<path d="M127.127 195.188L136.91 288.268L152.995 286.577L143.212 193.498L127.127 195.188Z" fill="#FF0C00"/>
<path d="M125.955 195.164L134.112 288.4L150.224 286.99L142.066 193.754L125.955 195.164Z" fill="#FF1000"/>
<path d="M124.783 195.119L131.312 288.483L147.445 287.355L140.917 193.991L124.783 195.119Z" fill="#FF1400"/>
<path d="M123.612 195.053L128.51 288.517L144.661 287.671L139.763 194.207L123.612 195.053Z" fill="#FF1800"/>
<path d="M122.442 194.967L125.708 288.502L141.872 287.938L138.606 194.403L122.442 194.967Z" fill="#FF1D00"/>
<path d="M121.275 194.86L122.908 288.438L139.079 288.155L137.446 194.577L121.275 194.86Z" fill="#FF2100"/>
<path d="M120.108 194.734V288.326H136.282V194.734H120.108Z" fill="#FF2500"/>
<path d="M118.945 194.586L117.312 288.164L133.483 288.446L135.116 194.869L118.945 194.586Z" fill="#FF2900"/>
<path d="M117.785 194.419L114.519 287.954L130.682 288.518L133.948 194.983L117.785 194.419Z" fill="#FF2E00"/>
<path d="M116.627 194.231L111.729 287.695L127.88 288.541L132.778 195.078L116.627 194.231Z" fill="#FF3200"/>
<path d="M115.472 194.023L108.943 287.387L125.077 288.515L131.606 195.151L115.472 194.023Z" fill="#FF3600"/>
<path d="M114.322 193.796L106.165 287.032L122.276 288.441L130.433 195.205L114.322 193.796Z" fill="#FF3A00"/>
<path d="M113.176 193.548L103.393 286.627L119.477 288.318L129.26 195.239L113.176 193.548Z" fill="#FF3F00"/>
<path d="M112.034 193.278L100.628 286.173L116.681 288.144L128.087 195.249L112.034 193.278Z" fill="#FF4300"/>
<path d="M110.898 192.991L97.873 285.672L113.888 287.923L126.914 195.242L110.898 192.991Z" fill="#FF4700"/>
<path d="M109.766 192.683L95.1245 285.123L111.099 287.653L125.74 195.213L109.766 192.683Z" fill="#FF4B00"/>
<path d="M108.64 192.356L92.3877 284.526L108.315 287.335L124.567 195.165L108.64 192.356Z" fill="#FF5000"/>
<path d="M107.519 192.009L89.6611 283.882L105.537 286.968L123.395 195.095L107.519 192.009Z" fill="#FF5400"/>
<path d="M106.406 191.643L86.9473 283.19L102.767 286.553L122.226 195.006L106.406 191.643Z" fill="#FF5800"/>
<path d="M105.298 191.257L84.2446 282.45L100.003 286.088L121.057 194.895L105.298 191.257Z" fill="#FF5C00"/>
<path d="M104.197 190.852L81.5557 281.664L97.2486 285.576L119.89 194.764L104.197 190.852Z" fill="#FF6000"/>
<path d="M103.104 190.428L78.8813 280.831L94.5035 285.017L118.726 194.614L103.104 190.428Z" fill="#FF6500"/>
<path d="M102.019 189.984L76.2217 279.951L91.7685 284.409L117.565 194.442L102.019 189.984Z" fill="#FF6900"/>
<path d="M100.94 189.522L73.5771 279.024L89.0437 283.753L116.407 194.251L100.94 189.522Z" fill="#FF6D00"/>
<path d="M99.8708 189.04L70.9492 278.052L86.3309 283.05L115.252 194.038L99.8708 189.04Z" fill="#FF7100"/>
<path d="M98.81 188.542L68.3394 277.035L83.6315 282.3L114.102 193.807L98.81 188.542Z" fill="#FF7600"/>
<path d="M97.7584 188.024L65.748 275.972L80.946 281.504L112.956 193.556L97.7584 188.024Z" fill="#FF7A00"/>
<path d="M96.7152 187.487L63.1748 274.863L78.2739 280.659L111.814 193.283L96.7152 187.487Z" fill="#FF7E00"/>
<path d="M95.6823 186.933L60.6221 273.71L75.6177 279.769L110.677 192.992L95.6823 186.933Z" fill="#FF8200"/>
<path d="M94.6587 186.36L58.0894 272.512L72.977 278.832L109.546 192.68L94.6587 186.36Z" fill="#FF8700"/>
<path d="M93.6449 185.77L55.5776 271.271L70.3527 277.849L108.42 192.349L93.6449 185.77Z" fill="#FF8B00"/>
<path d="M92.6426 185.163L53.0889 269.986L67.7469 276.821L107.3 191.998L92.6426 185.163Z" fill="#FF8F00"/>
<path d="M91.6501 184.538L50.6221 268.658L65.1585 275.748L106.186 191.628L91.6501 184.538Z" fill="#FF9300"/>
<path d="M90.6686 183.895L48.1787 267.287L62.5892 274.629L105.079 191.238L90.6686 183.895Z" fill="#FF9800"/>
<path d="M89.6991 183.236L45.7603 265.873L60.0404 273.465L103.979 190.829L89.6991 183.236Z" fill="#FF9C00"/>
<path d="M88.7405 182.56L43.3662 264.417L57.5117 272.258L102.886 190.401L88.7405 182.56Z" fill="#FFA000"/>
<path d="M87.7941 181.867L40.998 262.92L55.0045 271.007L101.801 189.954L87.7941 181.867Z" fill="#FFA400"/>
<path d="M86.8602 181.157L38.6567 261.381L52.52 269.711L100.723 189.487L86.8602 181.157Z" fill="#FFA900"/>
<path d="M85.9399 180.433L36.3438 259.804L50.0594 268.374L99.6556 189.004L85.9399 180.433Z" fill="#FFAD00"/>
<path d="M85.03 179.692L34.0562 258.185L47.6202 266.993L98.5941 188.5L85.03 179.692Z" fill="#FFB100"/>
<path d="M84.1343 178.934L31.7983 256.525L45.2065 265.569L97.5425 187.978L84.1343 178.934Z" fill="#FFB500"/>
<path d="M83.251 178.161L29.5688 254.827L42.8171 264.104L96.4994 187.438L83.251 178.161Z" fill="#FFB900"/>
<path d="M82.3841 177.373L27.3721 253.091L40.4566 262.597L95.4686 186.88L82.3841 177.373Z" fill="#FFBE00"/>
<path d="M81.5287 176.571L25.2036 251.317L38.1202 261.05L94.4453 186.304L81.5287 176.571Z" fill="#FFC200"/>
<path d="M80.6879 175.753L23.0669 249.504L35.8116 259.462L93.4326 185.71L80.6879 175.753Z" fill="#FFC600"/>
<path d="M79.8613 174.92L20.9619 247.655L33.5309 257.833L92.4303 185.098L79.8613 174.92Z" fill="#FFCA00"/>
<path d="M79.0504 174.074L18.8906 245.77L31.2801 256.166L91.4399 184.47L79.0504 174.074Z" fill="#FFCF00"/>
<path d="M78.254 173.213L16.8521 243.848L29.0581 254.459L90.4601 183.824L78.254 173.213Z" fill="#FFD300"/>
<path d="M77.473 172.339L14.8477 241.891L26.8668 252.713L89.4921 183.161L77.473 172.339Z" fill="#FFD700"/>
<path d="M76.7061 171.451L12.8765 239.9L24.7049 250.931L88.5345 182.482L76.7061 171.451Z" fill="#FFDB00"/>
<path d="M75.9554 170.55L10.9409 237.875L22.575 249.109L87.5895 181.785L75.9554 170.55Z" fill="#FFE000"/>
<path d="M75.2206 169.636L9.04102 235.815L20.4773 247.252L86.6568 181.072L75.2206 169.636Z" fill="#FFE400"/>
<path d="M74.5022 168.709L7.17773 233.724L18.4126 245.358L85.7371 180.343L74.5022 168.709Z" fill="#FFE800"/>
<path d="M73.8 167.77L5.35107 231.6L16.3812 243.428L84.8301 179.598L73.8 167.77Z" fill="#FFEC00"/>
<path d="M73.1145 166.82L3.56201 229.445L14.3841 241.464L83.9365 178.839L73.1145 166.82Z" fill="#FFF100"/>
<path d="M72.4449 165.856L1.81006 227.258L12.4207 239.464L83.0555 178.062L72.4449 165.856Z" fill="#FFF500"/>
<path d="M71.7928 164.88L0.097168 225.04L10.4932 237.429L82.1888 177.27L71.7928 164.88Z" fill="#FFF900"/>
<path d="M71.1575 163.895L-1.57715 222.794L8.60103 235.363L81.3357 176.464L71.1575 163.895Z" fill="#FFFD00"/>
<path d="M70.5396 162.899L-3.21191 220.52L6.74536 233.265L80.4969 175.644L70.5396 162.899Z" fill="#FCFF00"/>
<path d="M69.9388 161.891L-4.80713 218.216L4.9262 231.133L79.6721 174.808L69.9388 161.891Z" fill="#F8FF00"/>
<path d="M69.3562 160.873L-6.36133 215.885L3.14509 228.969L78.8627 173.957L69.3562 160.873Z" fill="#F4FF00"/>
<path d="M68.7931 159.845L-7.87305 213.527L1.40357 226.776L78.0697 173.094L68.7931 159.845Z" fill="#F0FF00"/>
<path d="M68.2461 158.809L-9.34521 211.145L-0.301229 224.553L77.2901 172.217L68.2461 158.809Z" fill="#ECFF00"/>
<path d="M67.7165 157.761L-10.7764 208.735L-1.96773 222.299L76.5251 171.326L67.7165 157.761Z" fill="#E7FF00"/>
<path d="M67.207 156.705L-12.1636 206.301L-3.59301 220.017L75.7775 170.42L67.207 156.705Z" fill="#E3FF00"/>
<path d="M66.7153 155.64L-13.5088 203.843L-5.17892 217.706L75.0451 169.503L66.7153 155.64Z" fill="#DFFF00"/>
<path d="M66.2421 154.567L-14.811 201.363L-6.72442 215.37L74.3287 168.574L66.2421 154.567Z" fill="#DBFF00"/>
<path d="M65.7876 153.486L-16.0698 198.86L-8.22888 213.006L73.6286 167.632L65.7876 153.486Z" fill="#D6FF00"/>
<path d="M65.3522 152.397L-17.2847 196.336L-9.69174 210.616L72.9451 166.677L65.3522 152.397Z" fill="#D2FF00"/>
<path d="M64.936 151.3L-18.4551 193.79L-11.1126 208.201L72.2786 165.711L64.936 151.3Z" fill="#CEFF00"/>
<path d="M64.5394 150.197L-19.5806 191.225L-12.4907 205.761L71.6293 164.733L64.5394 150.197Z" fill="#CAFF00"/>
<path d="M64.1601 149.087L-20.6631 188.641L-13.828 203.299L70.9952 163.745L64.1601 149.087Z" fill="#C5FF00"/>
<path d="M63.8033 147.97L-21.6973 186.038L-15.119 200.813L70.3816 162.745L63.8033 147.97Z" fill="#C1FF00"/>
<path d="M63.4639 146.848L-22.688 183.417L-16.3686 198.305L69.7834 161.736L63.4639 146.848Z" fill="#BDFF00"/>
<path d="M63.1457 145.719L-23.6313 180.779L-17.5727 195.775L69.2042 160.715L63.1457 145.719Z" fill="#B9FF00"/>
<path d="M62.8459 144.585L-24.5298 178.125L-18.7338 193.225L68.6419 159.684L62.8459 144.585Z" fill="#B4FF00"/>
<path d="M62.5668 143.447L-25.3809 175.457L-19.8494 190.655L68.0984 158.645L62.5668 143.447Z" fill="#B0FF00"/>
<path d="M62.307 142.303L-26.186 172.773L-20.9205 188.066L67.5725 157.595L62.307 142.303Z" fill="#ACFF00"/>
<path d="M62.067 141.156L-26.9443 170.077L-21.9465 185.459L67.0648 156.537L62.067 141.156Z" fill="#A8FF00"/>
<path d="M61.8468 140.003L-27.6558 167.366L-22.9271 182.833L66.5754 155.469L61.8468 140.003Z" fill="#A3FF00"/>
<path d="M61.6476 138.848L-28.3188 164.645L-23.8609 180.192L66.1056 154.394L61.6476 138.848Z" fill="#9FFF00"/>
<path d="M61.4689 137.688L-28.9341 161.912L-24.7481 177.534L65.6548 153.31L61.4689 137.688Z" fill="#9BFF00"/>
<path d="M61.3101 136.526L-29.502 159.168L-25.5893 174.861L65.2227 152.219L61.3101 136.526Z" fill="#97FF00"/>
<path d="M61.1718 135.361L-30.0215 156.415L-26.3833 172.173L64.81 151.12L61.1718 135.361Z" fill="#93FF00"/>
<path d="M61.0531 134.195L-30.4937 153.654L-27.1311 169.474L64.4157 150.015L61.0531 134.195Z" fill="#8EFF00"/>
<path d="M60.955 133.026L-30.9175 150.884L-27.8315 166.76L64.041 148.902L60.955 133.026Z" fill="#8AFF00"/>
<path d="M60.8782 131.856L-31.292 148.108L-28.4835 164.035L63.6866 147.783L60.8782 131.856Z" fill="#86FF00"/>
<path d="M60.8206 130.685L-31.6191 145.326L-29.0891 161.3L63.3507 146.659L60.8206 130.685Z" fill="#82FF00"/>
<path d="M60.7838 129.513L-31.8975 142.538L-29.6466 158.554L63.0346 145.528L60.7838 129.513Z" fill="#7DFF00"/>
<path d="M60.7675 128.339L-32.127 139.745L-30.1559 155.798L62.7385 144.392L60.7675 128.339Z" fill="#79FF00"/>
<path d="M60.7727 127.167L-32.3066 136.95L-30.6161 153.035L62.4633 143.252L60.7727 127.167Z" fill="#75FF00"/>
<path d="M60.797 125.994L-32.439 134.151L-31.0294 150.263L62.2066 142.106L60.797 125.994Z" fill="#71FF00"/>
<path d="M60.8421 124.823L-32.522 131.352L-31.3938 147.485L61.9703 140.957L60.8421 124.823Z" fill="#6CFF00"/>
<path d="M60.9076 123.652L-32.5562 128.55L-31.7097 144.701L61.7542 139.803L60.9076 123.652Z" fill="#68FF00"/>
<path d="M60.9935 122.482L-32.5415 125.748L-31.9771 141.911L61.558 138.645L60.9935 122.482Z" fill="#64FF00"/>
<path d="M61.1008 121.314L-32.4771 122.948L-32.1949 139.119L61.3829 137.485L61.1008 121.314Z" fill="#60FF00"/>
<path d="M61.2278 120.148H-32.3643V136.322H61.2278V120.148Z" fill="#5BFF00"/>
<path d="M61.3738 118.985L-32.204 117.352L-32.4863 133.523L61.0915 135.156L61.3738 118.985Z" fill="#57FF00"/>
<path d="M61.5414 117.825L-31.9937 114.559L-32.5581 130.722L60.977 133.988L61.5414 117.825Z" fill="#53FF00"/>
<path d="M61.7296 116.667L-31.7342 111.769L-32.5806 127.92L60.8831 132.818L61.7296 116.667Z" fill="#4FFF00"/>
<path d="M61.9375 115.513L-31.4266 108.984L-32.5547 125.118L60.8093 131.647L61.9375 115.513Z" fill="#4AFF00"/>
<path d="M62.165 114.361L-31.0709 106.204L-32.4805 122.316L60.7554 130.473L62.165 114.361Z" fill="#46FF00"/>
<path d="M62.413 113.215L-30.6663 103.432L-32.3569 119.517L60.7225 129.3L62.413 113.215Z" fill="#42FF00"/>
<path d="M62.6818 112.074L-30.2126 100.668L-32.1836 116.721L60.7108 128.127L62.6818 112.074Z" fill="#3EFF00"/>
<path d="M62.9692 110.937L-29.712 97.9116L-31.9629 113.928L60.7183 126.953L62.9692 110.937Z" fill="#3AFF00"/>
<path d="M63.2769 109.805L-29.1629 95.1641L-31.6929 111.138L60.7468 125.779L63.2769 109.805Z" fill="#35FF00"/>
<path d="M63.6041 108.679L-28.566 92.4268L-31.3745 108.355L60.7957 124.607L63.6041 108.679Z" fill="#31FF00"/>
<path d="M63.9512 107.559L-27.9213 89.7012L-31.0073 105.577L60.8652 123.436L63.9512 107.559Z" fill="#2DFF00"/>
<path d="M64.3176 106.445L-27.2292 86.9863L-30.5918 102.806L60.955 122.265L64.3176 106.445Z" fill="#29FF00"/>
<path d="M64.7026 105.338L-26.4907 84.2847L-30.1289 100.043L61.0644 121.097L64.7026 105.338Z" fill="#24FF00"/>
<path d="M65.108 104.238L-25.704 81.5957L-29.6167 97.2886L61.1953 119.931L65.108 104.238Z" fill="#20FF00"/>
<path d="M65.5329 103.144L-24.8702 78.9209L-29.0562 94.5431L61.3468 118.767L65.5329 103.144Z" fill="#1CFF00"/>
<path d="M65.9766 102.059L-23.9898 76.2617L-28.4478 91.8085L61.5186 117.606L65.9766 102.059Z" fill="#18FF00"/>
<path d="M66.4377 100.981L-23.0648 73.6172L-27.7935 89.0838L61.7091 116.447L66.4377 100.981Z" fill="#13FF00"/>
<path d="M66.9197 99.9109L-22.0916 70.9893L-27.0894 86.3711L61.9219 115.293L66.9197 99.9109Z" fill="#0FFF00"/>
<path d="M67.4196 98.851L-21.0734 68.3804L-26.3389 83.6725L62.1541 114.143L67.4196 98.851Z" fill="#0BFF00"/>
<path d="M67.9373 97.7975L-20.0104 65.7871L-25.542 80.985L62.4057 112.995L67.9373 97.7975Z" fill="#07FF00"/>
<path d="M68.473 96.7557L-18.9027 63.2153L-24.6987 78.3144L62.677 111.855L68.473 96.7557Z" fill="#02FF00"/>
<path d="M69.027 95.7213L-17.75 60.6611L-23.8086 75.6567L62.9684 110.717L69.027 95.7213Z" fill="#00FF02"/>
<path d="M69.6003 94.6982L-16.5517 58.1289L-22.8711 73.0165L63.2809 109.586L69.6003 94.6982Z" fill="#00FF06"/>
<path d="M70.1897 93.6845L-15.3109 55.6172L-21.8892 70.3922L63.6114 108.46L70.1897 93.6845Z" fill="#00FF0A"/>
<path d="M70.7979 92.6816L-14.0253 53.1279L-20.8604 67.7859L63.9628 107.34L70.7979 92.6816Z" fill="#00FF0F"/>
<path d="M71.4223 91.6892L-12.6977 50.6611L-19.7876 65.1976L64.3324 106.226L71.4223 91.6892Z" fill="#00FF13"/>
<path d="M72.0652 90.7082L-11.326 48.2183L-18.6685 62.6288L64.7226 105.119L72.0652 90.7082Z" fill="#00FF17"/>
<path d="M72.7239 89.7391L-9.91295 45.8003L-17.5059 60.0805L65.131 104.019L72.7239 89.7391Z" fill="#00FF1B"/>
<path d="M73.4005 88.7802L-8.45688 43.4058L-16.2979 57.5513L65.5596 102.926L73.4005 88.7802Z" fill="#00FF1F"/>
<path d="M74.0938 87.8336L-6.95927 41.0376L-15.0459 55.0441L66.0072 101.84L74.0938 87.8336Z" fill="#00FF24"/>
<path d="M74.8024 86.8998L-5.42164 38.6963L-13.7515 52.5595L66.4725 100.763L74.8024 86.8998Z" fill="#00FF28"/>
<path d="M75.528 85.979L-3.84256 36.3828L-12.4131 50.0985L66.9574 99.6948L75.528 85.979Z" fill="#00FF2C"/>
<path d="M76.2693 85.0701L-2.22365 34.0962L-11.0322 47.6603L67.4607 98.6341L76.2693 85.0701Z" fill="#00FF30"/>
<path d="M77.0259 84.1734L-0.565385 31.8374L-9.60938 45.2457L67.9819 97.5817L77.0259 84.1734Z" fill="#00FF35"/>
<path d="M77.7986 83.292L1.13257 29.6099L-8.14404 42.8582L68.522 96.5404L77.7986 83.292Z" fill="#00FF39"/>
<path d="M78.5873 82.4241L2.8697 27.4121L-6.63672 40.4966L69.0809 95.5086L78.5873 82.4241Z" fill="#00FF3D"/>
<path d="M79.3899 81.5687L4.64396 25.2437L-5.08936 38.1602L69.6566 94.4853L79.3899 81.5687Z" fill="#00FF41"/>
<path d="M80.2083 80.7271L6.45678 23.106L-3.50049 35.8508L70.251 93.4718L80.2083 80.7271Z" fill="#00FF46"/>
<path d="M81.0404 79.9013L8.30563 21.002L-1.87256 33.571L70.8622 92.4703L81.0404 79.9013Z" fill="#00FF4A"/>
<path d="M81.8866 79.0905L10.1909 18.9307L-0.205078 31.3201L71.4906 91.4799L81.8866 79.0905Z" fill="#00FF4E"/>
<path d="M82.7474 78.2945L12.1126 16.8926L1.50195 29.0987L72.1368 90.5006L82.7474 78.2945Z" fill="#00FF52"/>
<path d="M83.6221 77.5115L14.0696 14.8862L3.24756 26.9053L72.8 89.5306L83.6221 77.5115Z" fill="#00FF57"/>
<path d="M84.5103 76.7461L16.0614 12.9165L5.03125 24.7449L73.4802 88.5745L84.5103 76.7461Z" fill="#00FF5B"/>
<path d="M85.4109 75.9955L18.0865 10.981L6.85156 22.615L74.1761 87.6296L85.4109 75.9955Z" fill="#00FF5F"/>
<path d="M86.3248 75.2606L20.1452 9.08105L8.70898 20.5173L74.8885 86.6969L86.3248 75.2606Z" fill="#00FF63"/>
<path d="M87.2521 74.5427L22.2376 7.21826L10.6035 18.4532L75.618 85.7777L87.2521 74.5427Z" fill="#00FF68"/>
<path d="M88.1913 73.8395L24.3616 5.39062L12.5332 16.4208L76.3629 84.8697L88.1913 73.8395Z" fill="#00FF6C"/>
<path d="M89.1415 73.1545L26.5162 3.60205L14.4971 14.4241L77.1224 83.9765L89.1415 73.1545Z" fill="#00FF70"/>
<path d="M90.1056 72.4854L28.7037 1.85059L16.4976 12.4612L77.8995 83.096L90.1056 72.4854Z" fill="#00FF74"/>
<path d="M91.0795 71.8324L30.9197 0.136719L18.5303 10.5327L78.6901 82.2284L91.0795 71.8324Z" fill="#00FF78"/>
<path d="M92.0661 71.1976L33.1667 -1.53711L20.5977 8.64107L79.4971 81.3758L92.0661 71.1976Z" fill="#00FF7D"/>
<path d="M93.0625 70.5797L35.4415 -3.17188L22.6968 6.78541L80.3178 80.5369L93.0625 70.5797Z" fill="#00FF81"/>
<path d="M94.0702 69.9793L37.7451 -4.7666L24.8286 4.96673L81.1536 79.7127L94.0702 69.9793Z" fill="#00FF85"/>
<path d="M95.0882 69.3972L40.0762 -6.32031L26.9917 3.18611L82.0037 78.9037L95.0882 69.3972Z" fill="#00FF89"/>
<path d="M96.1152 68.8321L42.433 -7.83398L29.1846 1.44263L82.8668 78.1087L96.1152 68.8321Z" fill="#00FF8E"/>
<path d="M97.1525 68.2857L44.8165 -9.30566L31.4082 -0.261678L83.7442 77.3296L97.1525 68.2857Z" fill="#00FF92"/>
<path d="M98.2001 67.7566L47.2262 -10.7363L33.6621 -1.92775L84.636 76.5652L98.2001 67.7566Z" fill="#00FF96"/>
<path d="M99.2568 67.247L49.6606 -12.1235L35.9448 -3.55304L85.5411 75.8176L99.2568 67.247Z" fill="#00FF9A"/>
<path d="M100.32 66.7543L52.1166 -13.4697L38.2534 -5.1399L86.4569 75.0842L100.32 66.7543Z" fill="#00FF9F"/>
<path d="M101.394 66.2811L54.5978 -14.772L40.5913 -6.6853L87.3873 74.3678L101.394 66.2811Z" fill="#00FFA3"/>
<path d="M102.474 65.8276L57.0996 -16.0298L42.9541 -8.1888L88.3284 73.6686L102.474 65.8276Z" fill="#00FFA7"/>
<path d="M103.563 65.3927L59.6249 -17.2441L45.3447 -9.65128L89.2835 72.9856L103.563 65.3927Z" fill="#00FFAB"/>
<path d="M104.66 64.9756L62.1703 -18.4155L47.7598 -11.073L90.2497 72.3181L104.66 64.9756Z" fill="#00FFB0"/>
<path d="M105.763 64.579L64.7357 -19.541L50.1992 -12.4511L91.2272 71.6689L105.763 64.579Z" fill="#00FFB4"/>
<path d="M106.873 64.2001L67.319 -20.623L52.6611 -13.7878L92.2148 71.0354L106.873 64.2001Z" fill="#00FFB8"/>
<path d="M107.991 63.8429L69.9234 -21.6577L55.1484 -15.0794L93.2157 70.4211L107.991 63.8429Z" fill="#00FFBC"/>
<path d="M109.113 63.504L72.5439 -22.6479L57.6562 -16.3286L94.2255 69.8233L109.113 63.504Z" fill="#00FFC1"/>
<path d="M110.241 63.1842L75.1812 -23.5928L60.1855 -17.5342L95.2457 69.2429L110.241 63.1842Z" fill="#00FFC5"/>
<path d="M111.376 62.885L77.8358 -24.4907L62.7368 -18.6947L96.2772 68.681L111.376 62.885Z" fill="#00FFC9"/>
<path d="M112.514 62.606L80.5036 -25.3418L65.3057 -19.8102L97.3161 68.1376L112.514 62.606Z" fill="#00FFCD"/>
<path d="M113.658 62.3465L83.1876 -26.1465L67.8955 -20.881L98.366 67.612L113.658 62.3465Z" fill="#00FFD1"/>
<path d="M114.805 62.1061L85.8837 -26.9053L70.502 -21.9075L99.4235 67.1039L114.805 62.1061Z" fill="#00FFD6"/>
<path d="M115.959 61.8873L88.5955 -27.6152L73.1289 -22.8866L100.492 66.6159L115.959 61.8873Z" fill="#00FFDA"/>
<path d="M117.113 61.6881L91.3163 -28.2783L75.7695 -23.8204L101.567 66.1461L117.113 61.6881Z" fill="#00FFDE"/>
<path d="M118.273 61.5084L94.0494 -28.8945L78.4272 -24.7086L102.651 65.6944L118.273 61.5084Z" fill="#00FFE2"/>
<path d="M119.434 61.3496L96.7925 -29.4624L81.0996 -25.5497L103.742 65.2622L119.434 61.3496Z" fill="#00FFE7"/>
<path d="M120.598 61.2119L99.5448 -29.9814L83.7861 -26.3432L104.839 64.8501L120.598 61.2119Z" fill="#00FFEB"/>
<path d="M121.765 61.0927L102.306 -30.4541L86.4863 -27.0915L105.945 64.4553L121.765 61.0927Z" fill="#00FFEF"/>
<path d="M122.934 60.9952L105.076 -30.8774L89.2002 -27.7913L107.058 64.0812L122.934 60.9952Z" fill="#00FFF3"/>
<path d="M124.104 60.9177L107.852 -31.2524L91.9243 -28.444L108.176 63.7262L124.104 60.9177Z" fill="#00FFF8"/>
<path d="M125.276 60.8597L110.635 -31.5801L94.6611 -29.05L109.302 63.3897L125.276 60.8597Z" fill="#00FFFC"/>
<path d="M126.447 60.8233L113.422 -31.8579L97.4062 -29.607L110.431 63.0742L126.447 60.8233Z" fill="#00FEFF"/>
<path d="M127.621 60.808L116.215 -32.0864L100.162 -30.1154L111.568 62.779L127.621 60.808Z" fill="#00FAFF"/>
<path d="M128.793 60.8118L119.01 -32.2676L102.926 -30.577L112.709 62.5024L128.793 60.8118Z" fill="#00F5FF"/>
<path d="M129.966 60.837L121.809 -32.3989L105.697 -30.9893L113.854 62.2466L129.966 60.837Z" fill="#00F1FF"/>
<path d="M131.137 60.8811L124.608 -32.4829L108.475 -31.3547L115.003 62.0093L131.137 60.8811Z" fill="#00EDFF"/>
<path d="M132.309 60.9477L127.411 -32.5161L111.26 -31.6697L116.158 61.7941L132.309 60.9477Z" fill="#00E9FF"/>
<path d="M133.478 61.0326L130.212 -32.5024L114.048 -31.938L117.315 61.597L133.478 61.0326Z" fill="#00E4FF"/>
<path d="M134.646 61.1408L133.013 -32.437L116.842 -32.1547L118.475 61.423L134.646 61.1408Z" fill="#00E0FF"/>
<path d="M135.812 61.2668V-32.3252H119.639V61.2668H135.812Z" fill="#00DCFF"/>
<path d="M136.975 61.4142L138.609 -32.1636L122.438 -32.4458L120.805 61.132L136.975 61.4142Z" fill="#00D8FF"/>
<path d="M138.136 61.5814L141.402 -31.9536L125.239 -32.5181L121.973 61.017L138.136 61.5814Z" fill="#00D4FF"/>
<path d="M139.294 61.7687L144.192 -31.695L128.041 -32.5415L123.143 60.9223L139.294 61.7687Z" fill="#00CFFF"/>
<path d="M140.448 61.9771L146.977 -31.3869L130.843 -32.5151L124.314 60.8489L140.448 61.9771Z" fill="#00CBFF"/>
<path d="M141.598 62.2051L149.755 -31.0308L133.643 -32.4404L125.486 60.7955L141.598 62.2051Z" fill="#00C7FF"/>
<path d="M142.744 62.4525L152.527 -30.6269L136.442 -32.3174L126.659 60.7619L142.744 62.4525Z" fill="#00C3FF"/>
<path d="M143.885 62.7215L155.291 -30.173L139.238 -32.144L127.832 60.7504L143.885 62.7215Z" fill="#00BEFF"/>
<path d="M145.023 63.0092L158.048 -29.672L142.032 -31.9229L129.007 60.7583L145.023 63.0092Z" fill="#00BAFF"/>
<path d="M146.155 63.3165L160.796 -29.1232L144.822 -31.6533L130.181 60.7864L146.155 63.3165Z" fill="#00B6FF"/>
<path d="M147.281 63.6441L163.533 -28.5261L147.606 -31.3345L131.354 60.8356L147.281 63.6441Z" fill="#00B2FF"/>
<path d="M148.401 63.9907L166.259 -27.8818L150.383 -30.9678L132.524 60.9046L148.401 63.9907Z" fill="#00ADFF"/>
<path d="M149.515 64.3576L168.974 -27.1892L153.154 -30.5518L133.695 60.995L149.515 64.3576Z" fill="#00A9FF"/>
<path d="M150.623 64.7431L171.676 -26.4502L155.917 -30.0884L134.864 61.1049L150.623 64.7431Z" fill="#00A5FF"/>
<path d="M151.723 65.1485L174.365 -25.6635L158.672 -29.5762L136.03 61.2358L151.723 65.1485Z" fill="#00A1FF"/>
<path d="M152.815 65.5728L177.039 -24.8302L161.416 -29.0161L137.193 61.3868L152.815 65.5728Z" fill="#009CFF"/>
<path d="M153.901 66.0157L179.698 -23.9508L164.151 -28.4087L138.354 61.5577L153.901 66.0157Z" fill="#0098FF"/>
<path d="M154.98 66.4792L182.343 -23.0233L166.877 -27.752L139.513 61.7506L154.98 66.4792Z" fill="#0094FF"/>
<path d="M156.05 66.9599L184.971 -22.0515L169.589 -27.0493L140.668 61.962L156.05 66.9599Z" fill="#0090FF"/>
<path d="M157.11 67.4583L187.581 -21.0348L172.289 -26.3003L141.818 62.1928L157.11 67.4583Z" fill="#008BFF"/>
<path d="M158.163 67.976L190.173 -19.9718L174.975 -25.5034L142.965 62.4444L158.163 67.976Z" fill="#0087FF"/>
<path d="M159.205 68.513L192.746 -18.8627L177.647 -24.6587L144.106 62.717L159.205 68.513Z" fill="#0083FF"/>
<path d="M160.239 69.0676L195.299 -17.7095L180.303 -23.7681L145.243 63.0089L160.239 69.0676Z" fill="#007FFF"/>
<path d="M161.262 69.6388L197.831 -16.5131L182.943 -22.8325L146.374 63.3194L161.262 69.6388Z" fill="#007BFF"/>
<path d="M162.276 70.2298L200.343 -15.2708L185.568 -21.8491L147.501 63.6515L162.276 70.2298Z" fill="#0076FF"/>
<path d="M163.278 70.8366L202.832 -13.9866L188.174 -20.8218L148.62 64.0014L163.278 70.8366Z" fill="#0072FF"/>
<path d="M164.27 71.4619L205.298 -12.6581L190.762 -19.748L149.734 64.3719L164.27 71.4619Z" fill="#006EFF"/>
<path d="M165.253 72.1053L207.743 -11.2858L193.332 -18.6284L150.842 64.7628L165.253 72.1053Z" fill="#006AFF"/>
<path d="M166.222 72.764L210.161 -9.87288L195.881 -17.4658L151.942 65.1711L166.222 72.764Z" fill="#0065FF"/>
<path d="M167.181 73.4401L212.555 -8.41729L198.41 -16.2583L153.035 65.5992L167.181 73.4401Z" fill="#0061FF"/>
<path d="M168.127 74.1335L214.923 -6.91968L200.917 -15.0063L154.121 66.0468L168.127 74.1335Z" fill="#005DFF"/>
<path d="M169.061 74.843L217.264 -5.3811L203.401 -13.7109L155.197 66.5131L169.061 74.843Z" fill="#0059FF"/>
<path d="M169.982 75.5676L219.578 -3.80297L205.862 -12.3735L156.266 66.9971L169.982 75.5676Z" fill="#0054FF"/>
<path d="M170.89 76.3083L221.864 -2.18453L208.3 -10.9932L157.326 67.4997L170.89 76.3083Z" fill="#0050FF"/>
<path d="M171.786 77.067L224.122 -0.524365L210.714 -9.56836L158.378 68.023L171.786 77.067Z" fill="#004CFF"/>
<path d="M172.668 77.8392L226.35 1.1731L213.102 -8.10352L159.42 68.5626L172.668 77.8392Z" fill="#0048FF"/>
<path d="M173.537 78.6263L228.549 2.90876L215.464 -6.59766L160.452 69.1199L173.537 78.6263Z" fill="#0043FF"/>
<path d="M174.392 79.4294L230.717 4.68352L217.8 -5.0498L161.475 69.6961L174.392 79.4294Z" fill="#003FFF"/>
<path d="M175.233 80.2474L232.854 6.49584L220.109 -3.46143L162.488 70.2901L175.233 80.2474Z" fill="#003BFF"/>
<path d="M176.059 81.0799L234.958 8.34517L222.389 -1.83301L163.49 70.9017L176.059 81.0799Z" fill="#0037FF"/>
<path d="M176.87 81.9261L237.03 10.2305L224.641 -0.165527L164.481 71.5301L176.87 81.9261Z" fill="#0032FF"/>
<path d="M177.667 82.787L239.069 12.1521L226.863 1.5415L165.461 72.1763L177.667 82.787Z" fill="#002EFF"/>
<path d="M178.449 83.6606L241.074 14.1082L229.055 3.28613L166.43 72.8386L178.449 83.6606Z" fill="#002AFF"/>
<path d="M179.215 84.5489L243.044 16.1L231.216 5.06982L167.386 73.5187L179.215 84.5489Z" fill="#0026FF"/>
<path d="M179.965 85.4501L244.98 18.1256L233.346 6.89062L168.331 74.2151L179.965 85.4501Z" fill="#0022FF"/>
<path d="M193 3H63C29.8629 3 3 29.8629 3 63V193C3 226.137 29.8629 253 63 253H193C226.137 253 253 226.137 253 193V63C253 29.8629 226.137 3 193 3Z" fill="#383838"/>
<path style="mix-blend-mode:lighten" d="M94.8339 84.4485C94.7398 86.919 95.1787 89.6198 95.9066 92.3212C97.2933 97.4609 99.5915 102.17 102.302 106.619C108.475 116.735 116.257 125.396 124.7 133.437C125.392 134.098 126.215 134.657 127.096 135.082C127.979 135.541 128.86 135.541 129.772 135.148C130.654 134.754 131.443 134.194 132.105 133.467C135.035 130.437 137.931 127.403 140.704 124.273C144.61 119.824 148.329 115.248 151.7 110.338C154.758 105.89 157.497 101.211 159.511 96.1372C161.526 91.0945 162.505 85.893 161.843 80.424C160.741 71.3996 157.056 63.7532 150.471 57.7576C142.684 50.6798 133.614 47.8459 123.407 49.4245C106.805 51.9974 94.77 67.2853 94.8339 84.4485Z" fill="url(#paint0_radial_667_87)"/>
<path d="M180.752 207.454C178.662 207.518 176.316 207.259 173.97 206.761C167.031 205.242 161.136 202.087 156.607 196.493C153.852 193.081 151.536 189.385 149.54 185.497C147.193 180.915 145.232 176.142 143.522 171.31C141.432 165.466 139.658 159.494 138.292 153.458C137.534 150.076 138.386 147.957 142.126 146.792C146.878 145.308 151.664 143.981 156.543 142.904C164.621 141.134 172.763 139.999 181.068 140.279C183.414 140.373 185.755 140.625 188.071 141.035C194.789 142.206 200.491 145.303 205.148 150.199C213.103 158.54 216.267 168.494 214.305 179.839C211.486 196.051 197.1 207.582 180.752 207.454Z" fill="url(#paint1_radial_667_87)"/>
<path d="M76.1187 207.454C78.2082 207.518 80.5545 207.259 82.9001 206.761C89.8397 205.242 95.734 202.087 100.264 196.493C103.019 193.081 105.334 189.385 107.331 185.497C109.678 180.915 111.639 176.142 113.349 171.31C115.438 165.466 117.212 159.494 118.578 153.458C119.337 150.076 118.484 147.957 114.744 146.792C109.993 145.308 105.206 143.981 100.327 142.904C92.2496 141.134 84.1075 139.999 75.8028 140.279C73.4565 140.373 71.1154 140.625 68.7994 141.035C62.0817 142.206 56.3798 145.303 51.7226 150.199C43.7678 158.54 40.6038 168.494 42.5654 179.839C45.3845 196.051 59.7708 207.582 76.1187 207.454Z" fill="url(#paint2_radial_667_87)"/>
</g>
</g>
<defs>
<radialGradient id="paint0_radial_667_87" cx="0" cy="0" r="1" gradientUnits="userSpaceOnUse" gradientTransform="translate(129.086 130.955) rotate(4.82254) scale(35.7055 66.0016)">
<stop stop-color="white"/>
<stop offset="1" stop-color="#009BD8"/>
</radialGradient>
<radialGradient id="paint1_radial_667_87" cx="0" cy="0" r="1" gradientUnits="userSpaceOnUse" gradientTransform="translate(138.412 151.392) rotate(21.7759) scale(78.7378 42.0757)">
<stop stop-color="white"/>
<stop offset="1" stop-color="#FF3044"/>
</radialGradient>
<radialGradient id="paint2_radial_667_87" cx="0" cy="0" r="1" gradientUnits="userSpaceOnUse" gradientTransform="translate(118.04 148.539) rotate(146.321) scale(79.5702 36.1688)">
<stop stop-color="white"/>
<stop offset="1" stop-color="#FCFF7C"/>
</radialGradient>
<clipPath id="clip0_667_87">
<rect width="256" height="256" fill="white"/>
</clipPath>
</defs>
</svg>
