<svg width="256" height="256" viewBox="0 0 256 256" fill="none" xmlns="http://www.w3.org/2000/svg">
<rect width="256" height="256" rx="60" fill="#F4F2ED"/>
<path d="M227.849 65.5908C225.678 64.5326 224.743 66.5492 223.473 67.5729C223.039 67.9031 222.671 68.3321 222.304 68.7282C219.131 72.0987 215.422 74.3128 210.578 74.0484C203.496 73.6523 197.448 75.8658 192.103 81.2513C190.967 74.6101 187.193 70.6433 181.447 68.1006C178.44 66.7791 175.4 65.4564 173.295 62.5819C171.826 60.534 171.424 58.2535 170.69 56.0065C170.222 54.6526 169.753 53.2642 168.183 53.0321C166.48 52.7677 165.811 54.188 165.144 55.3789C162.471 60.2367 161.435 65.5892 161.536 71.0076C161.77 83.2015 166.948 92.9147 177.238 99.8219C178.407 100.615 178.707 101.408 178.341 102.564C177.639 104.944 176.804 107.256 176.069 109.636C175.601 111.156 174.898 111.486 173.262 110.826C167.617 108.481 162.738 105.01 158.428 100.814C151.112 93.7754 144.498 86.0102 136.246 79.9297C134.336 78.5255 132.374 77.1919 130.366 75.9316C121.947 67.8033 131.468 61.1276 133.673 60.3354C135.978 59.5087 134.475 56.6676 127.024 56.7005C119.574 56.7334 112.759 59.2114 104.073 62.516C102.803 63.0125 101.468 63.3756 100.097 63.6719C92.2131 62.1847 84.0283 61.8545 75.4755 62.8123C59.3722 64.5957 46.5113 72.1634 37.057 85.0837C25.6988 100.617 23.0254 118.261 26.2996 136.666C29.7405 156.062 39.6957 172.122 54.9968 184.679C70.8655 197.696 89.1402 204.075 109.986 202.852C122.647 202.126 136.746 200.441 152.648 187.057C156.657 189.039 160.866 189.833 167.848 190.428C173.227 190.924 178.406 190.163 182.415 189.338C188.696 188.017 188.261 182.233 185.989 181.177C167.583 172.652 171.623 176.122 167.949 173.313C177.303 162.31 191.402 150.877 196.914 113.834C197.348 110.894 196.979 109.044 196.914 106.664C196.88 105.212 197.214 104.649 198.885 104.484C203.495 103.954 207.971 102.7 212.081 100.452C224.007 93.9756 228.818 83.3358 229.954 70.5813C230.121 68.6321 229.921 66.6161 227.849 65.5924V65.5908ZM123.918 180.381C106.078 166.439 97.4255 161.844 93.8511 162.043C90.5106 162.241 91.1114 166.041 91.8462 168.519C92.6142 170.965 93.6177 172.65 95.0201 174.797C95.9889 176.219 96.6575 178.332 94.0519 179.92C88.306 183.455 78.3166 178.73 77.8483 178.498C66.2225 171.691 56.5007 162.704 49.6515 150.412C43.0373 138.582 39.1948 125.894 38.5609 112.346C38.3937 109.075 39.363 107.917 42.6362 107.324C46.9455 106.53 51.3887 106.364 55.6985 106.992C73.9054 109.636 89.4061 117.732 102.402 130.552C109.819 137.854 115.431 146.578 121.212 155.103C127.359 164.157 133.974 172.781 142.392 179.853C145.366 182.331 147.737 184.214 150.01 185.603C143.16 186.362 131.734 186.528 123.918 180.381ZM132.547 125.06C132.83 123.92 133.861 123.086 135.11 123.086C135.418 123.086 135.723 123.142 136.011 123.25C136.379 123.383 136.713 123.582 136.98 123.878C137.448 124.341 137.715 125.002 137.715 125.695C137.715 127.15 136.546 128.305 135.076 128.305C134.456 128.311 133.855 128.094 133.382 127.694C132.91 127.294 132.598 126.738 132.505 126.129C132.447 125.773 132.461 125.41 132.547 125.06ZM158.168 139.584C156.754 140.121 155.346 140.543 153.985 140.598C151.446 140.73 148.673 139.706 147.171 138.45C144.833 136.501 143.162 135.411 142.46 132.006C142.16 130.552 142.326 128.305 142.594 127.017C143.195 124.241 142.527 122.456 140.556 120.838C138.953 119.516 136.914 119.153 134.677 119.153C133.841 119.153 133.073 118.79 132.505 118.492C131.569 118.03 130.801 116.874 131.536 115.452C131.771 114.99 132.907 113.866 133.174 113.669C136.214 111.95 139.722 112.512 142.962 113.8C145.968 115.023 148.241 117.27 151.515 120.442C154.855 124.274 155.456 125.332 157.361 128.207C158.865 130.453 160.235 132.767 161.17 135.41C161.646 136.792 161.209 137.967 159.9 138.797C159.367 139.134 158.755 139.36 158.168 139.584Z" fill="#4D6BFE"/>
</svg>
