<svg fill="none" height="256" viewBox="0 0 256 256" width="256" xmlns="http://www.w3.org/2000/svg" xmlns:xlink="http://www.w3.org/1999/xlink">
<path d="m196 0h-136c-33.1371 0-60 26.8629-60 60v136c0 33.137 26.8629 60 60 60h136c33.137 0 60-26.863 60-60v-136c0-33.1371-26.863-60-60-60z" fill="#f4f2ed"/>
<path d="m36.9402 174.638c.9019-.509 1.9258-1.018 3.0471-1.557v.06s1.8527-.898 5.046-2.126c3.5103-1.318 7.3375-2.575 10.8233-3.623 6.0455-1.707 13.2367-3.234 20.5741-3.563 2.462-3.714 7.4349-10.601 13.3098-15.602-3.4859-1.617-7.24-3.024-11.3596-4.072-.7801-.21-1.1701-1.288-.7801-2.156l27.1072-56.9244c.902-1.8565 3.096-1.8565 3.974 0l5.971 12.5468c6.704-6.8274 14.626-11.8581 23.305-14.583l-27.253-57.1938c-1.804-3.8029-6.29-3.8029-8.094 0l-68.8154 144.5714c-1.2189 2.545.9751 5.48 3.1446 4.222z" fill="#00add4"/>
<path d="m154.193 136.399c-17.454 0-33.128 2.965-43.659 7.606v27.998c10.531 4.642 26.181 7.606 43.659 7.606 15.259 0 29.057-2.246 39.441-5.929 4.266-1.677 7.996-3.653 10.8-5.839-1 3.024-2.706 7.096-4.121 10.151-2.997 5.719-4.095 10.75-3.948 10.99.097.149 1.121-1.498 2.633-4.162 3.534-5.211 10.213-15.183 11.53-17.728 1.511-2.874.658-4.252.658-4.252l-1.073-2.335c.317-.958.488-1.947.488-2.935 0-6.318-6.606-12.008-16.991-16.11v.838c-10.385-3.682-24.182-5.928-39.441-5.928" fill="#a52b00"/>
<path d="m94.8598 162.391s-.7311 1.378.5846 4.342c1.1707 2.605 6.9966 12.876 10.0676 18.266 1.317 2.755 2.219 4.432 2.292 4.282.122-.239-.829-5.39-3.462-11.259-1.584-4.103-3.607-9.971-4.193-12.846 1.999 2.126 4.778 4.132 8.191 5.899v-27.459c-7.337 3.803-11.7249 8.564-11.7249 13.714v.51l-1.7797 4.551" fill="#a52b00"/>
<path d="m84.4751 162.361s-1.7551 1.138 0 5.18c1.5601 3.564 10.0436 18.237 14.5532 25.903 1.8277 3.803 3.0957 6.198 3.2907 6.048.292-.209-.22-6.468-3.7296-14.493-2.584-7.067-5.729-17.727-4.5095-18.595 0 0 3.5098-3.834 9.3111-2.546 50.802 30.513 105.577-.539 105.577-.539-.098.091.098-.089 0 0 2.584 1.437 3.9 3.473 3.9 3.473 1.146 1.199-3.706 11.559-7.46 18.327-4.85 7.516-6.313 13.924-6.02 14.223.17.18 1.852-2.006 4.314-5.51 5.826-6.947 16.869-20.182 19.014-23.506 2.438-3.773.756-5.39.756-5.39l-10.921-14.253s-.049-.24-.098-.36l3.852-6.886c.39-.69.463-1.618.22-2.397-.269-.808-.829-1.377-1.488-1.497l-6.532-1.347c-.245-.629-.512-1.258-.78-1.886l2.754-7.726c.269-.779.22-1.707-.147-2.426-.365-.718-1.023-1.137-1.681-1.108l-6.631.299c-.341-.538-.682-1.077-1.048-1.616l1.511-8.265c.147-.838-.049-1.706-.512-2.335-.462-.599-1.17-.869-1.828-.659l-6.46 1.946c-.414-.449-.853-.899-1.267-1.347l.219-8.505c.025-.868-.292-1.676-.853-2.156-.561-.479-1.268-.539-1.877-.209l-6.021 3.503c-.488-.329-.975-.688-1.463-1.018l-1.072-8.3543c-.098-.8384-.561-1.5571-1.17-1.8865-.61-.3294-1.341-.2395-1.878.2695l-5.362 4.9408c-.537-.2096-1.073-.4192-1.609-.6288l-2.316-7.9352c-.244-.8085-.78-1.4074-1.438-1.5572-.659-.1796-1.341.1198-1.804.7487l-4.51 6.1984c-.536-.0898-1.097-.1497-1.633-.2096l-3.486-7.2166c-.341-.7187-.975-1.1678-1.658-1.1678-.682 0-1.292.4491-1.657 1.1678l-3.486 7.2166c-.536.0599-1.097.1198-1.634.2096l-4.509-6.1984c-.463-.6289-1.146-.8984-1.804-.7487-.658.1797-1.195.7487-1.438 1.5572l-2.316 7.9352c-.536.2096-1.073.4192-1.609.6288l-5.363-4.9408c-.536-.509-1.243-.5989-1.876-.2695-.635.3294-1.073 1.0481-1.171 1.8865l-1.072 8.3543c-.488.33-.976.659-1.463 1.018l-6.021-3.503c-.61-.36-1.316-.27-1.877.209-.561.48-.878 1.288-.854 2.156l.245 8.505c-.439.448-.854.898-1.268 1.347l-6.46-1.946c-.658-.21-1.341.06-1.804.659-.487.598-.683 1.497-.512 2.335l1.511 8.265c-.365.539-.706 1.078-1.047 1.616l-6.631-.299c-.6829-.029-1.3163.39-1.6819 1.108-.3663.719-.4388 1.617-.1465 2.426l2.7544 7.726c-.268.628-.536 1.257-.78 1.886l-6.5328 1.347c-.6586.15-1.2188.719-1.4874 1.497-.2679.809-.1702 1.707.2198 2.397l3.8517 6.886c-.1221.48-.2198.929-.3419 1.408z" fill="#f74c00"/>
<path d="m125.355 182.004v-4.881c1.243-2.126 12.969-21.23 27.595 2.486l-17.941 2.036s.121.12.316.359h-9.994z" fill="#000"/>
<path d="m207.237 164.188c20.135-12.966 20.891-23.716 20.891-23.716 22.402-20.033 3.266-31.322 3.266-31.322.268 12.786-5.875 20.062-5.875 20.062l-.56-22.967c-20.769 18.026-3.413 34.975-3.413 34.975-2.51 7.606-17.283 14.703-17.283 14.703l2.998 8.294z" fill="#f74c00"/>
<path d="m133.351 143.885s5.485-7.366 10.945 0c0 0 4.29 9.822 0 14.733 0 0-7.045 6.857-10.945 0 0 0-4.681-5.39 0-14.733z" fill="#000"/>
<path d="m139.664 146.61c0 2.875-1.365 5.181-3.071 5.181s-3.072-2.336-3.072-5.181c0-2.874 1.366-5.18 3.072-5.18s3.071 2.336 3.071 5.18z" fill="#fff"/>
<path d="m161.384 141.37s9.385-5.12 11.945 6.289c0 0 2.682 13.295-7.704 14.044-1.657.359-13.431-2.936-4.241-20.333z" fill="#000"/>
<path d="m166.113 146.311c0 2.964-1.413 5.36-3.169 5.36-1.755 0-3.169-2.396-3.169-5.36 0-2.965 1.414-5.36 3.169-5.36 1.756 0 3.169 2.395 3.169 5.36z" fill="#fff"/>
<path d="m102.807 158.678c1.511 19.044 20.208 27.908 20.208 27.908 17.697 24.734 29.325 7.606 29.325 7.606-12.14.359-18.16-10.99-18.16-10.99 13.09-4.252 17.965-.748 17.965-.748-15.674-27.909-26.741-3.144-26.741-3.144l-3.413-.989c-12.188-10.09-14.163-19.673-14.163-19.673h-5.046z" fill="#f74c00"/>
<path d="m185.687 183.322 6.022 12.637c3.023 6.348 1.95 14.463-2.56 19.314l-.365.389c-.293.299-2.024 2.126-4.949 4.492-.049.06-27.79 21.62-56.067 8.744-17.088-7.666-33.5423-20.991-47.9244-24.285-24.2063-5.54-51.0696 9.882-61.0397 16.439-1.1213.719-2.2914-.838-1.6089-2.156 4.3391-8.384 12.5785-21.709 24.9376-31.472 29.0084-20.302 54.8481-7.755 68.2554 2.067 13.407 9.821 23.426 11.768 23.426 11.768 3.486.988 6.947 1.497 10.409 1.497 5.412 0 10.262-1.258 14.333-2.905 2.048-.838 2.95-3.772 1.877-6.048l-3.047-6.379c8.118.15 20.403-1.018 28.301-4.072z" fill="#00add4"/>
<path d="m146.904 165.355 11.97-1.167s-.415 2.365-1.976 4.132c0 0-4.119 5.539-8.824-.449 0 0-.78-1.019-1.17-2.516z" fill="#000"/>
</svg>
