<svg fill="none" height="256" viewBox="0 0 256 256" width="256" xmlns="http://www.w3.org/2000/svg" xmlns:xlink="http://www.w3.org/1999/xlink">
<path d="m196 0h-136c-33.1371 0-60 26.8629-60 60v136c0 33.137 26.8629 60 60 60h136c33.137 0 60-26.863 60-60v-136c0-33.1371-26.863-60-60-60z" fill="#242938"/>
<path d="m226.063 192.735-91.822-162.018c-2.053-3.6227-7.124-3.6227-9.18 0l-78.0286 137.687c-1.3737 2.421 1.1031 5.218 3.5637 4.027 1.0101-.491 2.1737-.984 3.4545-1.476l-.0242.054s2.1292-.853 5.7333-2.031c3.9717-1.259 8.3192-2.45 12.2586-3.457 11.0223-2.626 25.4627-4.764 38.4847-2.532 11.984 2.052 20.332 5.367 26.408 8.626 2.788 1.496 5.423-2.259 3.168-4.519-8.715-8.741-22.125-19.293-42.5253-23.715-.8929-.193-1.3414-1.233-.8767-2.046l30.719-54.2067c1.01-1.7809 3.503-1.7809 4.513 0l58.671 103.5247c1.237 2.18.198 4.965-2.121 5.768-4.598 1.585-10.089 2.771-16.239 2.771-3.911 0-7.846-.476-11.789-1.422 0 0-11.37-1.851-26.566-11.209-15.196-9.355-44.4971-21.291-77.374-1.968-14.0121 9.29-23.3454 21.997-28.2626 29.974-.7717 1.249.5575 2.738 1.8222 2.041 11.297-6.228 41.7576-20.937 69.2041-15.649 16.3113 3.142 34.9533 15.851 54.3313 23.139 32.061 12.26 63.491-8.281 63.556-8.325 3.325-2.265 5.277-3.988 5.608-4.287l.4-.361c5.123-4.613 6.343-12.333 2.913-18.39z" fill="#00add4" fill-rule="evenodd"/>
</svg>