<svg width="256" height="256" viewBox="0 0 256 256" fill="none" id="deltars" xmlns="http://www.w3.org/2000/svg">
<style>
#deltars {
    rect {fill: #242938}
    
    @media (prefers-color-scheme: light) {
        rect {fill: #F4F2ED}
    }
}  
</style>
<rect width="256" height="256" fill="#242938" rx="60"/>
<path d="M41.8683 163.342C42.7214 162.952 43.6898 162.561 44.7505 162.148V162.194C44.7505 162.194 46.5029 161.504 49.5234 160.563C52.8437 159.552 56.4637 158.587 59.761 157.783C65.4792 156.473 72.2812 155.302 79.2215 155.049C81.5504 152.2 86.2541 146.916 91.811 143.08C88.5137 141.839 84.9629 140.76 81.0662 139.956C80.3283 139.795 79.9594 138.968 80.3283 138.301L105.968 94.6293C106.821 93.205 108.897 93.205 109.727 94.6293L115.376 104.255C121.717 99.0172 129.21 95.1577 137.419 93.0671L111.64 49.1882C109.934 46.2706 105.692 46.2706 103.985 49.1882L38.8939 160.103C37.741 162.056 39.8162 164.307 41.8683 163.342Z" fill="#00ADD4"/>
<path d="M152.775 134.006C136.266 134.006 121.44 136.28 111.479 139.841V161.321C121.44 164.882 136.243 167.156 152.775 167.156C167.209 167.156 180.26 165.433 190.082 162.607C194.117 161.321 197.645 159.805 200.297 158.128C199.351 160.448 197.737 163.572 196.4 165.915C193.564 170.303 192.526 174.163 192.665 174.347C192.757 174.462 193.725 173.198 195.155 171.153C198.498 167.156 204.816 159.506 206.061 157.553C207.491 155.348 206.684 154.291 206.684 154.291L205.669 152.499C205.969 151.764 206.13 151.006 206.13 150.248C206.13 145.4 199.882 141.035 190.059 137.888V138.531C180.237 135.706 167.186 133.983 152.752 133.983" fill="#A52B00"/>
<path d="M96.653 153.946C96.653 153.946 95.9613 155.003 97.2064 157.277C98.3132 159.276 103.824 167.156 106.729 171.291C107.974 173.405 108.827 174.691 108.897 174.576C109.012 174.392 108.113 170.441 105.622 165.938C104.124 162.791 102.21 158.288 101.657 156.083C103.547 157.714 106.176 159.253 109.404 160.608V139.542C102.464 142.46 98.3132 146.112 98.3132 150.064C98.3132 150.202 98.3132 150.339 98.3132 150.454L96.63 153.946" fill="#A52B00"/>
<path d="M86.8306 153.923C86.8306 153.923 85.1705 154.796 86.8306 157.898C88.3063 160.632 96.3303 171.888 100.596 177.77C102.325 180.687 103.524 182.525 103.709 182.41C103.985 182.249 103.501 177.448 100.181 171.291C97.7368 165.869 94.7624 157.691 95.9153 157.025C95.9153 157.025 99.2356 154.084 104.723 155.072C152.775 178.482 204.586 154.658 204.586 154.658C204.678 154.59 204.493 154.727 204.586 154.658C207.03 155.761 208.275 157.323 208.275 157.323C209.358 158.242 204.77 166.191 201.219 171.383C196.631 177.149 195.247 182.066 195.524 182.295C195.685 182.433 197.276 180.756 199.605 178.068C205.116 172.738 215.561 162.584 217.59 160.034C219.896 157.14 218.305 155.899 218.305 155.899L207.975 144.964C207.975 144.964 207.929 144.78 207.883 144.688L211.526 139.404C211.895 138.876 211.964 138.164 211.733 137.566C211.48 136.946 210.949 136.51 210.327 136.418L204.147 135.384C203.917 134.901 203.663 134.419 203.41 133.937L206.015 128.009C206.269 127.412 206.223 126.7 205.877 126.149C205.531 125.597 204.908 125.276 204.286 125.299L198.014 125.528C197.691 125.115 197.369 124.701 197.023 124.288L198.452 117.947C198.591 117.304 198.406 116.638 197.968 116.155C197.53 115.696 196.861 115.489 196.239 115.65L190.128 117.143C189.737 116.799 189.321 116.454 188.929 116.109L189.137 109.585C189.16 108.919 188.86 108.298 188.33 107.931C187.8 107.563 187.131 107.517 186.555 107.77L180.859 110.458C180.398 110.205 179.937 109.93 179.476 109.677L178.461 103.267C178.369 102.624 177.931 102.073 177.355 101.82C176.778 101.567 176.086 101.636 175.579 102.027L170.507 105.817C169.999 105.656 169.492 105.496 168.985 105.335L166.794 99.247C166.564 98.6267 166.056 98.1672 165.434 98.0523C164.811 97.9145 164.166 98.1442 163.728 98.6267L159.462 103.382C158.955 103.313 158.424 103.267 157.917 103.221L154.62 97.6848C154.297 97.1334 153.698 96.7888 153.052 96.7888C152.406 96.7888 151.83 97.1334 151.484 97.6848L148.187 103.221C147.68 103.267 147.149 103.313 146.642 103.382L142.376 98.6267C141.938 98.1442 141.293 97.9375 140.67 98.0523C140.047 98.1902 139.54 98.6267 139.31 99.247L137.119 105.335C136.612 105.496 136.105 105.656 135.597 105.817L130.525 102.027C130.017 101.636 129.349 101.567 128.749 101.82C128.15 102.073 127.735 102.624 127.642 103.267L126.628 109.677C126.167 109.93 125.706 110.182 125.245 110.458L119.549 107.77C118.973 107.494 118.304 107.563 117.774 107.931C117.244 108.298 116.944 108.919 116.967 109.585L117.197 116.109C116.782 116.454 116.39 116.799 115.998 117.143L109.888 115.65C109.266 115.489 108.62 115.696 108.182 116.155C107.721 116.615 107.536 117.304 107.698 117.947L109.127 124.288C108.781 124.701 108.459 125.115 108.136 125.528L101.864 125.299C101.219 125.276 100.619 125.597 100.273 126.149C99.9273 126.7 99.8581 127.389 100.135 128.009L102.74 133.937C102.487 134.419 102.233 134.901 102.002 135.384L95.8231 136.418C95.2005 136.533 94.6702 136.969 94.4166 137.566C94.1629 138.187 94.2551 138.876 94.6241 139.404L98.2672 144.688C98.1519 145.056 98.0596 145.4 97.9444 145.768L86.8306 153.923Z" fill="#F74C00"/>
<path d="M125.498 168.994V165.249C126.674 163.618 137.765 148.961 151.599 167.156L134.629 168.718C134.629 168.718 134.744 168.81 134.929 168.994H125.475H125.498Z" fill="black"/>
<path d="M202.949 155.325C221.994 145.377 222.709 137.13 222.709 137.13C243.899 121.761 225.799 113.1 225.799 113.1C226.052 122.91 220.242 128.492 220.242 128.492L219.712 110.872C200.067 124.701 216.484 137.704 216.484 137.704C214.109 143.54 200.136 148.984 200.136 148.984L202.972 155.348L202.949 155.325Z" fill="#F74C00"/>
<path d="M133.061 139.749C133.061 139.749 138.249 134.097 143.414 139.749C143.414 139.749 147.472 147.284 143.414 151.052C143.414 151.052 136.75 156.313 133.061 151.052C133.061 151.052 128.634 146.916 133.061 139.749Z" fill="black"/>
<path d="M139.033 141.839C139.033 144.045 137.741 145.814 136.127 145.814C134.513 145.814 133.222 144.022 133.222 141.839C133.222 139.634 134.513 137.865 136.127 137.865C137.741 137.865 139.033 139.657 139.033 141.839Z" fill="white"/>
<path d="M159.577 137.819C159.577 137.819 168.454 133.891 170.875 142.643C170.875 142.643 173.412 152.843 163.589 153.418C162.021 153.693 150.884 151.166 159.577 137.819Z" fill="black"/>
<path d="M164.05 141.61C164.05 143.884 162.713 145.722 161.053 145.722C159.393 145.722 158.055 143.884 158.055 141.61C158.055 139.335 159.393 137.498 161.053 137.498C162.713 137.498 164.05 139.335 164.05 141.61Z" fill="white"/>
<path d="M104.17 151.098C105.6 165.709 123.285 172.509 123.285 172.509C140.025 191.485 151.023 178.344 151.023 178.344C139.54 178.62 133.845 169.913 133.845 169.913C146.227 166.651 150.839 169.338 150.839 169.338C136.013 147.927 125.544 166.926 125.544 166.926L122.316 166.168C110.788 158.426 108.92 151.075 108.92 151.075H104.147L104.17 151.098Z" fill="#F74C00"/>
<path d="M182.565 170.005L188.261 179.699C191.12 184.57 190.105 190.796 185.84 194.517L185.494 194.816C185.217 195.046 183.58 196.447 180.813 198.262C180.767 198.308 154.527 214.849 127.781 204.97C111.617 199.089 96.0535 188.866 82.4496 186.339C59.5534 182.089 34.144 193.92 24.7134 198.951C23.6528 199.502 22.546 198.308 23.1916 197.297C27.2959 190.864 35.0893 180.641 46.7795 173.152C74.218 157.576 98.659 167.202 111.341 174.737C124.022 182.272 133.499 183.766 133.499 183.766C136.796 184.524 140.07 184.914 143.345 184.914C148.463 184.914 153.052 183.949 156.902 182.686C158.839 182.043 159.692 179.791 158.678 178.045L155.796 173.152C163.474 173.267 175.095 172.371 182.565 170.028V170.005Z" fill="#00ADD4"/>
<path d="M145.881 156.221L157.202 155.325C157.202 155.325 156.81 157.14 155.334 158.495C155.334 158.495 151.438 162.745 146.988 158.15C146.988 158.15 146.25 157.369 145.881 156.221Z" fill="black"/>
</svg>