<svg xmlns="http://www.w3.org/2000/svg" xml:space="preserve" id="svg1" width="256" height="256" version="1.1" viewBox="0 0 67.733 67.733"><g id="layer1" transform="translate(-103.524 -495.263)"><rect id="rect1-5-5-8" width="67.733" height="67.733" x="103.524" y="495.263" fill="#f4f2ed" rx="15.875" style="clip-rule:evenodd;fill:#242938;fill-opacity:1;fill-rule:evenodd;stroke:none;stroke-width:.264583;stroke-linejoin:round;stroke-miterlimit:2"/><g id="g3-1-2-4" style="clip-rule:evenodd;fill:#fff;fill-rule:evenodd;stroke:none;stroke-linejoin:round;stroke-miterlimit:2" transform="matrix(.18224 0 0 .18224 107.996 501.014)"><path id="background-1-8-1" d="M28.829 227.937c-8.871-19.143-13.822-40.465-13.822-62.935 0-5.815.332-11.554.977-17.197a150.529 150.529 0 0 1 2.893-16.773c7.12-30.704 23.68-57.808 46.452-78.082 19.127-17.006 42.558-29.14 68.244-34.64a150.349 150.349 0 0 1 42.841-2.863c18.154 1.386 35.309 5.956 50.959 13.121a150.224 150.224 0 0 1 34.762 22.169c26.253 22.364 44.562 53.517 50.651 88.476a150.647 150.647 0 0 1 2.213 25.789 151.539 151.539 0 0 1-.442 11.429c-1.106 14.489-4.241 28.342-9.104 41.302-6.788 18.051-16.959 34.452-29.738 48.428-16.621 16.971-37.743 24.523-55.384 24.209-12.828-.229-25.379-5.333-34.052-12.801-12.39-10.669-17.394-22.865-19.11-36.474-.426-3.383-.176-12.601 1.585-18.984 1.312-4.758 4.64-13.946 9.507-17.965-5.693-2.452-13.021-7.792-15.331-10.355-.568-.63-.494-1.617.014-2.296a1.932 1.932 0 0 1 2.199-.659c4.895 1.68 10.856 3.337 17.142 4.389 8.267 1.382 18.548 3.122 28.963 3.634 25.395 1.247 51.921-10.151 60.154-32.83 8.232-22.679 5.038-45.111-24.496-58.566-29.535-13.456-43.178-29.455-67.041-39.104-15.587-6.303-32.935-2.561-50.746 7.282-47.974 26.512-90.955 110.279-71.142 187.887a2.389 2.389 0 0 1-3.919 2.378 150.258 150.258 0 0 1-25.229-37.969Z" style="fill:#fff;stroke:none"/><path id="eye-8-9-6" d="M159.634 78.772c8.092-.634 15.152 6.272 16.369 15.457 1.624 12.235-2.867 24.874-17.633 25.165-12.614.252-16.436-12.469-15.6-20.175.83-7.706 7.182-19.687 16.864-20.447z" style="fill:#fff;stroke:none"/></g></g></svg>