<svg width="256" height="256" viewBox="0 0 256 256" fill="none" xmlns="http://www.w3.org/2000/svg" id="deno">
<style>
#deno {
    rect {fill: #242938}
    path {fill: #F1F1F1}
    
    @media (prefers-color-scheme: light) {
        rect {fill: #F4F2ED}
        path {fill: #1F1F1F}
    }
}
</style>
<rect width="256" height="256" rx="60" fill="#242938"/>
<path fill-rule="evenodd" clip-rule="evenodd" d="M34.5204 179.663C28.4102 166.478 25 151.791 25 136.314C25 132.309 25.2287 128.356 25.6729 124.469C26.1187 120.584 26.784 116.727 27.6656 112.916C32.5697 91.768 43.976 73.0992 59.661 59.1348C72.8354 47.4213 88.9743 39.0636 106.666 35.2753C116.357 33.2096 126.295 32.5455 136.175 33.3033C148.679 34.2579 160.495 37.4057 171.274 42.3408C179.919 46.3061 187.976 51.4443 195.218 57.6105C213.301 73.0145 225.912 94.4722 230.106 118.551C231.122 124.418 231.632 130.361 231.63 136.314C231.627 138.941 231.526 141.567 231.325 144.187C230.564 154.166 228.404 163.708 225.055 172.635C220.379 185.068 213.374 196.365 204.572 205.991C193.123 217.681 178.575 222.882 166.424 222.666C157.588 222.508 148.943 218.993 142.97 213.849C134.435 206.5 130.989 198.1 129.807 188.726C129.513 186.396 129.686 180.047 130.899 175.65C131.802 172.373 134.095 166.044 137.447 163.276C133.526 161.587 128.478 157.909 126.887 156.144C126.496 155.71 126.547 155.03 126.897 154.562C127.067 154.335 127.307 154.168 127.579 154.086C127.852 154.004 128.144 154.012 128.411 154.109C131.783 155.266 135.889 156.407 140.218 157.132C145.913 158.083 152.994 159.282 160.168 159.635C177.659 160.494 195.93 152.643 201.601 137.022C207.271 121.401 205.071 105.95 184.728 96.6825C164.385 87.4142 154.988 76.3943 138.552 69.7482C127.816 65.4068 115.867 67.9843 103.599 74.764C70.5548 93.025 40.9502 150.722 54.5971 204.178C54.6883 204.521 54.6658 204.885 54.533 205.215C54.4002 205.544 54.1641 205.822 53.8603 206.007C53.5564 206.191 53.201 206.272 52.8472 206.238C52.4934 206.203 52.1603 206.055 51.8977 205.816C44.8089 198.033 38.949 189.214 34.5204 179.663Z" fill="white"/>
<path fill-rule="evenodd" clip-rule="evenodd" d="M124.617 76.9206C130.191 76.4839 135.053 81.2407 135.892 87.5672C137.01 95.9945 133.917 104.7 123.746 104.9C115.058 105.074 112.426 96.312 113.001 91.0042C113.573 85.6964 117.948 77.4441 124.617 76.9206Z" fill="white"/>
</svg>
