<svg width="256" height="256" viewBox="0 0 256 256" fill="none" xmlns="http://www.w3.org/2000/svg">
<g clip-path="url(#clip0_521_28)">
<path d="M196 0H60C26.8629 0 0 26.8629 0 60V196C0 229.137 26.8629 256 60 256H196C229.137 256 256 229.137 256 196V60C256 26.8629 229.137 0 196 0Z" fill="#128341"/>
<path d="M19 16.1779C28.5839 48.3876 52.5889 126.435 66.1201 147C71.0001 142.186 75.2295 138.315 80 133.61C64.1893 106.008 44.0989 36.467 35.449 5C29.2989 7.71976 23.7353 11.5264 19 16.1779Z" fill="#FCFCFC"/>
<path d="M173.176 169.698C151.409 169.698 137.766 128 106.828 128C76.487 128 58.9307 169.779 40.1819 169.92H40.0729C26.7152 169.92 14.7225 151.654 0 139.828V165.695C12.7683 177.791 24.8434 189 40.1819 189C68.8082 189 86.7751 146.317 106.828 146.317C125.242 146.317 143.916 189 173.474 189C201.728 189 222.639 146.16 239.972 146.124H240.008C247.347 146.124 253.374 150.986 256 153.499V132.025C252.459 130.169 246.771 128 239.525 128C209.892 128 194.124 169.698 173.176 169.698Z" fill="#FCFCFC"/>
<path d="M81 171.836C88.8984 182.263 103.362 202 126.371 202H126.512C146.318 201.931 156 188.72 156 188.72C150.826 186.096 141.088 177.604 141.088 177.604C136.025 181.507 131.121 183.067 126.5 183.067C110.045 183.067 97.2004 163.28 93.7676 159L81 171.836Z" fill="#FCFCFC"/>
<path d="M160 154.629C160 154.629 165.641 161.57 176.055 164C203.631 121.547 224.793 51.1106 234 13.5C229.5 9.5 223.298 5.91796 217.5 4C213.919 17.4182 188.478 111.592 160 154.629Z" fill="#FCFCFC"/>
</g>
<defs>
<clipPath id="clip0_521_28">
<rect width="256" height="256" fill="white"/>
</clipPath>
</defs>
</svg>
