<?xml version="1.0" encoding="utf-8"?>
<!-- Generator: Adobe Illustrator 28.0.0, SVG Export Plug-In . SVG Version: 6.00 Build 0)  -->
<svg version="1.1" id="Layer_1" xmlns="http://www.w3.org/2000/svg" xmlns:xlink="http://www.w3.org/1999/xlink" x="0px" y="0px"
	 viewBox="0 0 256 256" style="enable-background:new 0 0 256 256;" xml:space="preserve">
<style type="text/css">
	.st0{fill:#242938;}
	.st1{fill:#FFFFFF;}
	.st2{fill-rule:evenodd;clip-rule:evenodd;fill:#FFFFFF;}
</style>
<path class="st0" d="M60,0h136c33.1,0,60,26.9,60,60v136c0,33.1-26.9,60-60,60H60c-33.1,0-60-26.9-60-60V60C0,26.9,26.9,0,60,0z"/>
<g id="XMLID_2350_">
	<g id="XMLID_2351_">
		<g>
			<g id="XMLID_00000098205060339068723540000011787178851596923533_">
				<g id="XMLID_00000154400043430829745430000010972438814989168571_">
					<path id="XMLID_00000159443714637796305260000002354440464696278934_" class="st1" d="M128,223l0-36.8
						c39,0,69.2-38.6,54.3-79.7c-5.5-15.2-17.6-27.3-32.9-32.8C108.4,58.8,69.8,89,69.8,128c0,0,0,0,0,0L33,128
						c0-62.2,60.1-110.6,125.3-90.3c28.5,8.9,51.1,31.5,60,60C238.6,162.9,190.2,223,128,223z"/>
				</g>
				<polygon id="XMLID_00000013154516814756353390000016289958516760565899_" class="st2" points="128.1,186.3 91.4,186.3 
					91.4,149.6 91.4,149.6 128.1,149.6 128.1,149.6 				"/>
				<polygon id="XMLID_00000077326267870625949330000002633924319934244252_" class="st2" points="91.4,214.5 63.2,214.5 
					63.2,214.5 63.2,186.3 91.4,186.3 91.4,214.5 				"/>
				<path id="XMLID_00000121966700672035523890000015871640082087999129_" class="st2" d="M63.2,186.3H39.6c0,0,0,0,0,0v-23.6
					c0,0,0,0,0,0h23.6c0,0,0,0,0,0V186.3z"/>
			</g>
		</g>
	</g>
</g>
</svg>
