<svg width="256" height="256" viewBox="0 0 256 256" fill="none" xmlns="http://www.w3.org/2000/svg">
<path d="M196 0H60C26.8629 0 0 26.8629 0 60V196C0 229.137 26.8629 256 60 256H196C229.137 256 256 229.137 256 196V60C256 26.8629 229.137 0 196 0Z" fill="#5865F2"/>
<path fill-rule="evenodd" clip-rule="evenodd" d="M149.541 226.539C178.626 226.516 207.754 226.692 236.881 226.539L245.105 181.333H10L19.303 226.539C62.7124 226.255 106.151 226.572 149.541 226.539Z" fill="#98A0F7"/>
<path fill-rule="evenodd" clip-rule="evenodd" d="M215.715 183.071H39.3867V123.93C39.3867 72.0546 78.8598 30 127.551 30C176.242 30 215.715 72.0546 215.715 123.93V183.071Z" fill="#98A0F7"/>
<path fill-rule="evenodd" clip-rule="evenodd" d="M36.4909 65.2566C36.5168 65.4175 36.5003 65.582 36.5008 65.745C36.5557 83.2045 36.6607 100.418 36.5013 117.876C36.4991 118.113 36.4627 118.352 36.3631 118.568C36.1972 118.927 36.0663 118.953 35.5513 119.189C35.3304 119.29 35.0856 119.215 34.862 119.119C34.7429 119.069 34.6689 119.099 34.5777 119.104C34.4313 119.112 34.2574 119.119 34.1184 119.165C33.9199 119.232 33.5038 119.136 33.2956 119.158C33.1428 119.175 32.9804 119.23 32.8349 119.151C32.7337 119.097 32.7043 118.972 32.7043 118.857C32.7043 118.738 32.7043 118.62 32.7043 118.501C32.6507 100.909 32.7012 83.3174 32.8554 65.7259C32.8634 64.8133 33.3199 64.0712 34.2016 63.836C35.0039 63.6219 36.0141 63.8488 36.3075 64.6256C36.3945 64.8559 36.4623 65.0785 36.4909 65.2566Z" fill="#202225"/>
<path fill-rule="evenodd" clip-rule="evenodd" d="M222.939 64.8316C222.975 64.9789 222.958 65.1331 222.958 65.2847C223.012 82.7523 222.957 100.22 222.796 117.687C222.794 117.924 222.757 118.163 222.658 118.379C222.492 118.738 222.361 118.764 221.846 119C221.625 119.101 221.38 119.025 221.156 118.93C221.037 118.88 220.963 118.91 220.872 118.915C220.726 118.923 220.552 118.929 220.413 118.976C220.214 119.043 219.798 118.946 219.59 118.969C219.437 118.986 219.275 119.041 219.129 118.962C219.028 118.908 218.999 118.782 218.999 118.667C218.999 118.549 218.999 118.431 218.999 118.312C218.945 100.72 218.996 83.1282 219.15 65.5367C219.158 64.6241 219.614 63.882 220.496 63.6468C221.298 63.4327 222.356 63.621 222.744 64.3554C222.834 64.5263 222.905 64.691 222.939 64.8316Z" fill="#202225"/>
<path fill-rule="evenodd" clip-rule="evenodd" d="M225.781 118.172H29.8594C26.2539 118.172 23.3281 128.297 23.3281 140.785C23.3281 153.277 26.2539 163.398 29.8594 163.398H225.781C229.387 163.398 232.312 153.277 232.312 140.785C232.312 128.297 229.387 118.172 225.781 118.172Z" fill="white"/>
<path fill-rule="evenodd" clip-rule="evenodd" d="M145.727 111.754C136.949 124.848 118.691 124.848 109.914 111.754C105.781 105.594 99.1133 101.938 92.0039 101.938H72.2539C64.168 101.938 57.6172 108.922 57.6172 117.535V173.254H198.027V117.535C198.027 108.922 191.473 101.938 183.387 101.938H163.637C156.527 101.938 149.859 105.594 145.727 111.754Z" fill="white"/>
<path fill-rule="evenodd" clip-rule="evenodd" d="M137.617 97.4453C137.617 91.6836 133.23 87.0078 127.82 87.0078C122.41 87.0078 118.023 91.6836 118.023 97.4453C118.023 103.207 122.41 107.883 127.82 107.883C133.23 107.883 137.617 103.207 137.617 97.4453Z" fill="white"/>
<path fill-rule="evenodd" clip-rule="evenodd" d="M96.8008 140.207C96.8008 133.48 91.6836 128.027 85.3711 128.027C79.0586 128.027 73.9414 133.48 73.9414 140.207C73.9414 146.93 79.0586 152.383 85.3711 152.383C91.6836 152.383 96.8008 146.93 96.8008 140.207ZM181.699 140.207C181.699 133.48 176.582 128.027 170.27 128.027C163.957 128.027 158.84 133.48 158.84 140.207C158.84 146.93 163.957 152.383 170.27 152.383C176.582 152.383 181.699 146.93 181.699 140.207Z" fill="black"/>
<path fill-rule="evenodd" clip-rule="evenodd" d="M202.922 209.551C202.922 206.672 200.73 204.332 198.027 204.332C195.32 204.332 193.129 206.672 193.129 209.551C193.129 212.434 195.32 214.77 198.027 214.77C200.73 214.77 202.922 212.434 202.922 209.551ZM186.598 209.551C186.598 206.672 184.406 204.332 181.699 204.332C178.992 204.332 176.801 206.672 176.801 209.551C176.801 212.434 178.992 214.77 181.699 214.77C184.406 214.77 186.598 212.434 186.598 209.551ZM170.27 209.551C170.27 206.672 168.078 204.332 165.371 204.332C162.668 204.332 160.473 206.672 160.473 209.551C160.473 212.434 162.668 214.77 165.371 214.77C168.078 214.77 170.27 212.434 170.27 209.551Z" fill="white"/>
</svg>
