<svg width="256" height="256" viewBox="0 0 256 256" fill="none" xmlns="http://www.w3.org/2000/svg" id="dn42">
<style>
#dn42 {
    rect {fill: #242938}

    @media (prefers-color-scheme: light) {
        rect {fill: #F4F2ED}
    }
}
</style>
<rect width="256" height="256" rx="60" fill="#242938"/>
<path d="M72.7172 115.698H42.9058L28 141.528L42.9058 167.359H72.7172L87.623 141.528L72.7172 115.698Z" fill="black"/>
<path d="M119.287 142.084H89.4751L74.5693 167.914L89.4751 193.745H119.287L134.192 167.914L119.287 142.084Z" fill="#3C3C3B"/>
<path d="M119.287 88.6636H89.4751L74.5693 114.494L89.4751 140.324H119.287L134.192 114.494L119.287 88.6636Z" fill="#575756"/>
<path d="M165.67 115.698H135.859L120.953 141.528L135.859 167.359H165.67L180.576 141.528L165.67 115.698Z" fill="#706F6F"/>
<path d="M212.795 142.084H182.984L168.078 167.914L182.984 193.745H212.795L227.701 167.914L212.795 142.084Z" fill="#9D9D9C"/>
<path d="M165.67 62H135.859L120.953 87.8305L135.859 113.568H165.67L180.576 87.8305L165.67 62Z" fill="#878787"/>
</svg>
