<svg width="256" height="256" viewBox="0 0 256 256" xmlns="http://www.w3.org/2000/svg">
    <path d="M256,50L256,206C256,233.596 233.596,256 206,256L50,256C22.404,256 0,233.596 0,206L0,50C0,22.404 22.404,0 50,0L206,0C233.596,0 256,22.404 256,50Z" style="fill:rgb(244,242,237);"/>
    <g id="docksal" transform="matrix(1.03987,0,0,1.03987,134,116.679)">
        <g transform="matrix(1,0,0,1,-61.2028,-75.0093)">
            <clipPath id="_clip1">
                <rect x="0" y="0" width="122.406" height="150.019"/>
            </clipPath>
            <g clip-path="url(#_clip1)">
                <g id="g10" transform="matrix(1.33333,0,0,-1.33333,0,150.019)">
                    <g id="g12">
                        <g id="g14">
                            <clipPath id="_clip2">
                                <path d="M0,112.514L0,109.751C0,104.756 0.871,99.998 2.415,95.63C7.348,81.664 19.354,71.79 33.409,71.79C39.019,71.79 44.303,73.363 48.942,76.142C52.256,78.127 55.239,80.726 57.778,83.807C58.286,84.423 58.775,85.058 59.247,85.712C60.66,87.673 61.904,89.797 62.954,92.055C62.969,92.098 55.579,93.936 55.042,94.032C50.469,94.851 46.512,95.323 42.223,95.59C36.237,95.963 30.247,96.232 24.38,98.013C15.263,100.78 6.966,105.795 0.118,112.401C0.071,112.446 0,112.514 0,112.514Z"/>
                            </clipPath>
                            <g clip-path="url(#_clip2)">
                                <g id="g20">
                                    <g id="g22">
                                        <path id="path30" d="M0,112.514L0,109.751C0,104.756 0.871,99.998 2.415,95.63C7.348,81.664 19.354,71.79 33.409,71.79C39.019,71.79 44.303,73.363 48.942,76.142C52.256,78.127 55.239,80.726 57.778,83.807C58.286,84.423 58.775,85.058 59.247,85.712C60.66,87.673 61.904,89.797 62.954,92.055C62.969,92.098 55.579,93.936 55.042,94.032C50.469,94.851 46.512,95.323 42.223,95.59C36.237,95.963 30.247,96.232 24.38,98.013C15.263,100.78 6.966,105.795 0.118,112.401C0.071,112.446 0,112.514 0,112.514Z" style="fill:url(#_Linear3);fill-rule:nonzero;"/>
                                    </g>
                                </g>
                            </g>
                        </g>
                    </g>
                    <g id="g32">
                        <g id="g34">
                            <clipPath id="_clip4">
                                <path d="M0,0L0.071,0L0,0.062L0,0Z"/>
                            </clipPath>
                            <g clip-path="url(#_clip4)">
                                <g id="g40">
                                    <g id="g42">
                                        <path id="path50" d="M0,0L0.071,0L0,0.062L0,0Z" style="fill:url(#_Linear5);fill-rule:nonzero;"/>
                                    </g>
                                </g>
                            </g>
                        </g>
                    </g>
                    <g id="g52">
                        <g id="g54">
                            <clipPath id="_clip6">
                                <path d="M43.915,23.938L42.693,22.365C42.681,22.348 42.543,22.171 42.265,21.812C28.256,3.772 2.131,0.319 0.188,0.085C0.113,0.076 0,0.062 0,0.062L0,0L42.214,0C50.206,0 57.437,1.394 63.788,3.929C70.578,15.481 70.413,29.606 64.46,42.789C62.884,32.284 56.128,24.798 43.915,23.938"/>
                            </clipPath>
                            <g clip-path="url(#_clip6)">
                                <g id="g60">
                                    <g id="g62">
                                        <path id="path72" d="M43.915,23.938L42.693,22.365C42.681,22.348 42.543,22.171 42.265,21.812C28.256,3.772 2.131,0.319 0.188,0.085C0.113,0.076 0,0.062 0,0.062L0,0L42.214,0C50.206,0 57.437,1.394 63.788,3.929C70.578,15.481 70.413,29.606 64.46,42.789C62.884,32.284 56.128,24.798 43.915,23.938" style="fill:url(#_Linear7);fill-rule:nonzero;"/>
                                    </g>
                                </g>
                            </g>
                        </g>
                    </g>
                    <g id="g74">
                        <g id="g76">
                            <clipPath id="_clip8">
                                <path d="M59.247,85.712C58.775,85.058 58.286,84.423 57.778,83.807C55.239,80.726 52.256,78.127 48.942,76.142C44.303,73.363 39.019,71.79 33.409,71.79L41.531,71.79C50.187,71.79 56.362,68.751 60.174,63.689C61.891,61.41 63.092,58.695 63.85,55.68C63.801,55.911 63.762,56.11 63.707,56.355C72.148,47.851 81.872,43.345 91.425,41.277C91.66,43.398 91.805,45.569 91.805,47.814C91.805,57.723 89.452,66.447 85.183,73.656C80.204,82.066 72.607,88.407 62.954,92.055C61.904,89.797 60.66,87.673 59.247,85.712"/>
                            </clipPath>
                            <g clip-path="url(#_clip8)">
                                <g id="g82">
                                    <g id="g84">
                                        <path id="path94" d="M59.247,85.712C58.775,85.058 58.286,84.423 57.778,83.807C55.239,80.726 52.256,78.127 48.942,76.142C44.303,73.363 39.019,71.79 33.409,71.79L41.531,71.79C50.187,71.79 56.362,68.751 60.174,63.689C61.891,61.41 63.092,58.695 63.85,55.68C63.801,55.911 63.762,56.11 63.707,56.355C72.148,47.851 81.872,43.345 91.425,41.277C91.66,43.398 91.805,45.569 91.805,47.814C91.805,57.723 89.452,66.447 85.183,73.656C80.204,82.066 72.607,88.407 62.954,92.055C61.904,89.797 60.66,87.673 59.247,85.712" style="fill:url(#_Linear9);fill-rule:nonzero;"/>
                                    </g>
                                </g>
                            </g>
                        </g>
                    </g>
                    <g id="g96">
                        <g id="g98">
                            <clipPath id="_clip10">
                                <path d="M63.85,55.68C64.043,54.914 64.191,54.12 64.323,53.314C64.415,52.799 64.492,52.331 64.553,51.909C64.87,49.726 64.822,48.674 64.822,47.814C64.822,46.077 64.701,44.398 64.46,42.789C70.413,29.606 70.578,15.481 63.788,3.929C79.357,10.147 89.45,23.444 91.425,41.277C81.872,43.345 72.095,47.927 63.655,56.431C63.71,56.185 63.801,55.911 63.85,55.68"/>
                            </clipPath>
                            <g clip-path="url(#_clip10)">
                                <g id="g104">
                                    <g id="g106">
                                        <path id="path114" d="M63.85,55.68C64.043,54.914 64.191,54.12 64.323,53.314C64.415,52.799 64.492,52.331 64.553,51.909C64.87,49.726 64.822,48.674 64.822,47.814C64.822,46.077 64.701,44.398 64.46,42.789C70.413,29.606 70.578,15.481 63.788,3.929C79.357,10.147 89.45,23.444 91.425,41.277C81.872,43.345 72.095,47.927 63.655,56.431C63.71,56.185 63.801,55.911 63.85,55.68" style="fill:url(#_Linear11);fill-rule:nonzero;"/>
                                    </g>
                                </g>
                            </g>
                        </g>
                    </g>
                    <g id="g116">
                        <g id="g118">
                            <clipPath id="_clip12">
                                <path d="M0,60.868C0,60.071 0.059,59.291 0.103,58.507L0.07,58.507L0.07,23.839L0,23.839L0,0.062C0,0.062 0.113,0.076 0.188,0.085C2.131,0.32 28.256,3.772 42.265,21.812C42.543,22.171 42.681,22.348 42.693,22.365L43.915,23.938C43.63,23.934 35.332,23.914 26.027,23.894L26.027,48.683C25.477,48.823 24.928,48.965 24.38,49.13C17.743,51.145 11.548,54.364 6.022,58.507C3.958,60.055 1.98,61.722 0.118,63.518C0.07,63.563 0,63.632 0,63.632L0,60.868Z"/>
                            </clipPath>
                            <g clip-path="url(#_clip12)">
                                <g id="g124">
                                    <g id="g126">
                                        <path id="path136" d="M0,60.868C0,60.071 0.059,59.291 0.103,58.507L0.07,58.507L0.07,23.839L0,23.839L0,0.062C0,0.062 0.113,0.076 0.188,0.085C2.131,0.32 28.256,3.772 42.265,21.812C42.543,22.171 42.681,22.348 42.693,22.365L43.915,23.938C43.63,23.934 35.332,23.914 26.027,23.894L26.027,48.683C25.477,48.823 24.928,48.965 24.38,49.13C17.743,51.145 11.548,54.364 6.022,58.507C3.958,60.055 1.98,61.722 0.118,63.518C0.07,63.563 0,63.632 0,63.632L0,60.868Z" style="fill:url(#_Linear13);fill-rule:nonzero;"/>
                                    </g>
                                </g>
                            </g>
                        </g>
                    </g>
                </g>
            </g>
        </g>
    </g>
    <defs>
        <linearGradient id="_Linear3" x1="0" y1="0" x2="1" y2="0" gradientUnits="userSpaceOnUse" gradientTransform="matrix(69.4818,0,0,69.4818,-2.51069,92.1524)"><stop offset="0" style="stop-color:rgb(255,13,87);stop-opacity:1"/><stop offset="1" style="stop-color:rgb(17,33,70);stop-opacity:1"/></linearGradient>
        <linearGradient id="_Linear5" x1="0" y1="0" x2="1" y2="0" gradientUnits="userSpaceOnUse" gradientTransform="matrix(5.85564e-15,-95.6299,95.6299,5.85564e-15,0.0353888,95.6299)"><stop offset="0" style="stop-color:rgb(255,13,87);stop-opacity:1"/><stop offset="1" style="stop-color:rgb(17,33,70);stop-opacity:1"/></linearGradient>
        <linearGradient id="_Linear7" x1="0" y1="0" x2="1" y2="0" gradientUnits="userSpaceOnUse" gradientTransform="matrix(43.5475,0,0,43.5475,27.3194,21.3943)"><stop offset="0" style="stop-color:rgb(255,13,87);stop-opacity:1"/><stop offset="0.88" style="stop-color:rgb(17,33,70);stop-opacity:1"/><stop offset="1" style="stop-color:rgb(17,33,70);stop-opacity:1"/></linearGradient>
        <linearGradient id="_Linear9" x1="0" y1="0" x2="1" y2="0" gradientUnits="userSpaceOnUse" gradientTransform="matrix(84.0238,14.0626,-14.0626,84.0238,26.7258,58.2203)"><stop offset="0" style="stop-color:rgb(255,13,87);stop-opacity:1"/><stop offset="0.75" style="stop-color:rgb(17,33,70);stop-opacity:1"/><stop offset="1" style="stop-color:rgb(17,33,70);stop-opacity:1"/></linearGradient>
        <linearGradient id="_Linear11" x1="0" y1="0" x2="1" y2="0" gradientUnits="userSpaceOnUse" gradientTransform="matrix(4.03231e-15,-65.8526,65.8526,4.03231e-15,77.5397,77.1303)"><stop offset="0" style="stop-color:rgb(255,13,87);stop-opacity:1"/><stop offset="1" style="stop-color:rgb(17,33,70);stop-opacity:1"/></linearGradient>
        <linearGradient id="_Linear13" x1="0" y1="0" x2="1" y2="0" gradientUnits="userSpaceOnUse" gradientTransform="matrix(32.0675,-52.1808,52.1808,32.0675,-8.5103,61.5774)"><stop offset="0" style="stop-color:rgb(255,13,87);stop-opacity:1"/><stop offset="0.75" style="stop-color:rgb(17,33,70);stop-opacity:1"/><stop offset="1" style="stop-color:rgb(17,33,70);stop-opacity:1"/></linearGradient>
    </defs>
</svg>
