<svg width="256" height="256" viewBox="0 0 256 256" fill="none" xmlns="http://www.w3.org/2000/svg">
<path d="M196 0H60C26.8629 0 0 26.8629 0 60V196C0 229.137 26.8629 256 60 256H196C229.137 256 256 229.137 256 196V60C256 26.8629 229.137 0 196 0Z" fill="#242938"/>
<path d="M114.086 35.0024L114.098 34.9903L180.005 97.8716L179.993 97.8672C191.013 108.67 198.782 122.962 201.409 139.315L202.354 151.16C202.354 191.246 170.705 224.181 130.651 225.777C90.5975 227.373 56.4279 197.059 53.2402 157.1C50.3474 120.86 73.8726 88.4126 107.967 79.1227L88.9152 61.1586L88.9387 61.1343C85.7812 58.0712 83.8493 53.9616 83.505 49.5759C82.7298 39.8733 89.7538 31.2901 99.4192 30.1307C104.992 29.4621 110.298 31.3985 114.086 35.0024Z" fill="#FC6A31"/>
<path d="M126.989 103.446L165.724 142.392C167.628 144.055 168.889 146.333 169.287 148.829L169.424 150.549C169.426 152.09 169.098 153.614 168.463 155.019C167.827 156.423 166.899 157.676 165.741 158.692L126.748 198.039C124.58 200.216 121.668 201.493 118.598 201.612C112.079 201.87 106.518 196.949 105.998 190.461C105.856 188.697 106.103 186.924 106.721 185.267C107.339 183.609 108.314 182.107 109.576 180.867L109.57 180.862L129.33 161.103H88.3103V161.088C82.6295 161.153 77.835 156.805 77.3806 151.107C76.9175 145.305 81.118 140.172 86.8968 139.478C87.2914 139.431 87.6833 139.406 88.0718 139.401L88.2088 139.402C101.736 139.448 115.263 139.422 128.789 139.422L110.185 120.818C107.827 118.75 106.37 115.844 106.123 112.717C105.606 106.253 110.297 100.534 116.752 99.7602C118.628 99.5338 120.53 99.7491 122.308 100.389C124.085 101.029 125.688 102.076 126.989 103.446Z" fill="white"/>
</svg>
