<svg fill="none" height="256" viewBox="0 0 256 256" width="256" xmlns="http://www.w3.org/2000/svg" xmlns:xlink="http://www.w3.org/1999/xlink">
<g clip-path="url(#a)">
<path d="m196 0h-136c-33.1371 0-60 26.8629-60 60v136c0 33.137 26.8629 60 60 60h136c33.137 0 60-26.863 60-60v-136c0-33.1371-26.863-60-60-60z" fill="#f4f2ed"/>
<g clip-path="url(#b)">
<path d="m90.9733 237.086c-10.9877-2.65-20.9137-14.484-22.9094-27.312-1.1531-7.413.118-13.512 4.2099-20.204 1.2262-2.005 20.6347-22.533 45.3662-47.983 25.258-25.991 44.122-45.9521 45.386-48.0251 2.565-4.2067 5.229-10.7009 5.908-14.4077.268-1.4616.842-2.7966 1.274-2.9665.935-.3669 25.428 24.6523 30.007 30.6513 8.459 10.966 9.582 15.752 9.632 21.211-.035 8.321-3.51 11.967-7.546 18.179-2.744 4.224-82.197 84.421-86.713 87.524-1.614 1.11-4.468 2.483-6.341 3.052-3.73 1.134-14.0784 1.293-18.2737.281z" fill="#52c9a3"/>
<path d="m97.1091 89.9856c-21.0412-21.5897-23.7548-24.6288-25.5977-28.6672-5.6835-12.4548-3.3479-26.5607 5.891-35.5781 2.1828-2.1305 5.4906-4.6627 7.3505-5.6272 9.3738-4.8605 22.3221-3.9511 31.0301 2.1795 1.658 1.1674 9.647 8.9347 17.754 17.2605 12.761 13.105 15.056 15.793 17.091 20.0153 4.267 8.8557 3.799 17.1556-1.564 27.7249-2.005 3.9502-4.647 7.1651-13.067 15.8997-9.674 10.036-10.754 10.948-12.952 10.946-2.247-.003-3.888-1.531-25.9359-24.1534z" fill="#14a8c9"/>
<path d="m48.4767 184.109-1.4767-1.609v-55.605-55.6048c0-2.2396 3.5239-2.9936 5.4802-3.0221 2.1716 0 4.2891 1.9986 30.0094 28.3231 24.1444 24.7118 27.6744 26.7648 27.6734 30.4078-.002 3.644-3.527 5.693-27.6796 30.402-26.1171 26.719-27.816 28.316-30.1045 28.316-1.6572 0-2.8932-.509-3.9022-1.608z" fill="#5369a9"/>
</g>
</g>
</svg>
