<svg width="256" height="256" viewBox="0 0 256 256" fill="none" xmlns="http://www.w3.org/2000/svg">
<path d="M196 0H60C26.8629 0 0 26.8629 0 60V196C0 229.137 26.8629 256 60 256H196C229.137 256 256 229.137 256 196V60C256 26.8629 229.137 0 196 0Z" fill="#31D3DB"/>
<path d="M75.2306 156.244C69.3026 159.222 57.7312 165.857 58.8219 173.067C60.3395 177.508 65.0345 173.067 66.7892 170.977C70.5737 166.933 73.4618 161.981 75.2306 156.505V156.244ZM110.704 140.623C106.768 151.96 95.291 157.341 92.1136 155.408C90.5012 154.468 92.1136 150.863 92.1136 148.407C89.7898 149.4 85.9485 151.281 83.6247 152.325C88.8746 157.289 91.9003 164.531 91.9003 172.153C91.9003 179.775 88.8746 187.017 83.6247 191.98C93.1096 207.654 88.3671 221.133 75.1358 231.634L74.6142 232L74.3296 230.955C72.684 223.713 69.573 216.98 65.2242 211.258C62.9004 208.281 60.2447 205.564 57.6364 202.847C54.2218 199.294 50.9021 195.637 47.8196 191.771C34.778 176.724 29.6088 150.236 31.316 129.756C32.236 119.239 35.0388 109.025 39.5678 99.7145C43.1483 92.2852 47.6157 85.4149 52.8465 79.2866C64.5745 65.4258 79.4087 55.2118 95.8601 49.6633C110.31 44.1671 126.126 44.9769 140.059 51.9099C142.625 53.4093 145.072 55.1595 147.362 57.1344L150.73 60.6349L151.109 61.0529L214.515 25.2647C219.732 22.3912 223.668 22.3912 225.423 24.4811C227.178 26.5709 224.711 31.9521 221.012 34.9301L166.475 78.3461C167.124 82.4892 166.005 86.7263 163.439 89.8401C170.695 92.6091 164.293 104.312 161.115 108.492C152.01 120.352 135.365 129.651 120.52 136.443C116.537 138.324 114.26 139.108 110.704 140.571V140.623Z" fill="#383C42"/>
<path d="M160.45 99.6113C164.528 93.9688 161.683 90.7295 158.837 93.8643C153.065 99.9248 145.008 102.568 137.165 100.97C126.02 98.9321 125.498 97.0513 127.395 95.2227C140.333 100.019 154.588 94.6897 162.205 82.2136C164.955 77.8772 155.754 74.429 150.348 66.5399C124.36 27.6693 42.9802 61.3676 35.2027 128.921C32.6418 150.007 38.271 171.313 50.7104 187.593C60.1952 199.447 70.5336 204.415 76.3667 223.067C87.7485 212.304 85.8516 200.132 77.6472 189.474C83.6131 186.14 87.5399 179.589 87.9904 172.233C88.4362 164.882 85.3394 157.818 79.8288 153.633C75.0863 172.494 58.4405 186.443 54.5517 173.069C52.0382 159.432 72.4306 150.394 105.058 136.496C132.375 125.212 150.016 115.912 160.45 99.2978" fill="#31D3DB"/>
<path d="M160.45 99.611C164.529 93.9685 161.684 90.7292 158.838 93.864C153.83 99.1878 147.005 101.925 140.058 101.387C128.818 100.499 119.855 98.0437 111.604 99.0363C96.2808 101.565 82.1058 109.48 71.1983 121.606C56.971 137.698 41.2262 171.129 56.971 177.613C55.7713 176.443 54.9698 174.855 54.6947 173.121C52.1812 159.484 72.5736 150.441 105.201 136.548C132.517 125.264 150.159 115.964 160.593 99.3497" fill="white"/>
<path d="M90.5001 125.994C98.8942 130.54 97.2343 146.422 96.0013 150.393C111.936 145.168 107.193 119.411 114.592 111.47C105.107 111.156 87.9392 121.449 90.5001 125.994Z" fill="#31D3DB"/>
<path d="M117.437 78.8677C118.911 77.4624 121.012 77.1907 122.739 78.1886C124.465 79.1812 125.466 81.2397 125.257 83.3714C125.049 85.5081 123.678 87.2845 121.8 87.854C119.666 88.5018 117.404 87.436 116.36 85.2836C115.317 83.1258 115.763 80.4665 117.437 78.8677Z" fill="#383C42"/>
<path d="M156.137 81.0111L220.111 31.9527C221.913 30.542 224.285 27.5118 223.289 26.0489C222.293 24.586 219.542 25.3697 217.171 26.5713L148.027 67.7407C145.798 72.9653 150.303 83.6756 156.184 81.0111" fill="#31D3DB"/>
<path d="M150.54 71.345L217.36 28.2426C219.086 26.9469 221.106 26.2207 223.193 26.1527C222.197 24.8988 219.446 25.6303 217.17 26.8319L148.026 67.7401C146.631 72.6564 148.353 78.0011 152.247 80.8537C150.819 77.928 150.221 74.6 150.54 71.2928" fill="white"/>
<path d="M52.0877 90.5727C53.0741 90.3377 54.0985 90.6302 54.8525 91.3617C55.6161 92.0931 56.0097 93.1746 55.9291 94.2821C55.9575 96.8683 54.2645 99.0887 51.9454 99.5067C50.978 99.7157 49.9726 99.4231 49.2281 98.7074C48.4882 97.9916 48.0851 96.9363 48.1515 95.8495C48.2274 93.3208 49.8445 91.1736 52.0877 90.625" fill="#21AAAD"/>
<path d="M65.0354 74.845C65.9032 74.6412 66.8091 74.9077 67.473 75.5556C68.1369 76.2034 68.4831 77.1595 68.4025 78.1365C68.246 80.3516 66.8375 82.2168 64.8931 82.7863C64.0252 82.9901 63.1195 82.7236 62.4555 82.0758C61.7916 81.4279 61.4454 80.4718 61.526 79.4948C61.6778 77.2797 63.0863 75.4145 65.0354 74.845Z" fill="#21AAAD"/>
<path d="M104.301 54.001C105.179 54.0376 105.985 54.5235 106.488 55.3071C106.99 56.1013 107.133 57.1044 106.862 58.0239C106.326 60.1608 104.558 61.634 102.547 61.6288C101.66 61.6027 100.839 61.1273 100.318 60.3384C99.7962 59.5494 99.6397 58.5412 99.8911 57.606C100.432 55.4482 102.224 53.9696 104.254 54.001" fill="#21AAAD"/>
<path d="M116.348 51.8577C117.083 51.9883 117.723 52.5003 118.069 53.2265C118.416 53.958 118.425 54.8252 118.103 55.5671C117.387 57.2546 115.74 58.2107 114.072 57.9181C113.374 57.7718 112.772 57.2912 112.431 56.6016C112.089 55.9119 112.046 55.0916 112.317 54.3654C112.99 52.6204 114.645 51.5912 116.348 51.8577Z" fill="#21AAAD"/>
<path d="M65.1769 84.7204C65.8266 84.5689 66.5 84.7621 66.998 85.2481C67.4911 85.7339 67.7472 86.4497 67.6903 87.1759C67.6524 88.8426 66.5664 90.2532 65.082 90.5719C64.4418 90.7182 63.7779 90.5301 63.2847 90.0599C62.7915 89.5844 62.5259 88.8843 62.5685 88.1686C62.6349 86.502 63.7019 85.0913 65.1769 84.7204Z" fill="#21AAAD"/>
<path d="M44.9753 103.215C45.644 103.043 46.3458 103.236 46.858 103.733C47.3749 104.229 47.6452 104.971 47.5836 105.723C47.5314 107.452 46.417 108.915 44.8804 109.276C44.1833 109.427 43.4625 109.208 42.9408 108.68C42.4144 108.158 42.1488 107.39 42.2247 106.611C42.2816 104.867 43.4198 103.398 44.9753 103.059" fill="#21AAAD"/>
<path d="M164.577 57.9191L161.59 59.591C161.941 64.3243 164.293 68.6033 167.945 71.1372C165.635 67.2083 164.464 62.6003 164.577 57.9191ZM180.275 48.4104L177.667 49.9778C178.065 53.8962 180.028 57.4228 183.025 59.591C181.332 56.1636 180.469 52.3131 180.512 48.4104H180.275ZM196.02 39.0063L194.028 40.2079C194.028 43.0291 195.877 47.261 197.964 47.8357C196.603 45.1451 196.01 42.0678 196.256 39.0063H196.02ZM211.195 30.02L209.44 31.0649C209.868 33.369 210.987 35.4483 212.618 36.9687C211.712 34.7848 211.229 32.4181 211.195 30.02Z" fill="#21AAAD"/>
</svg>