<svg width="256" height="256" viewBox="0 0 256 256" fill="none" xmlns="http://www.w3.org/2000/svg" id="drizzle">
<style>
#drizzle {
    rect {fill: #242938}
    
    @media (prefers-color-scheme: light) {
        rect {fill: #F4F2ED}
    }
}
</style>
<rect width="256" height="256" rx="60" fill="#242938"/>
<path d="M74.3433 126.186C76.6712 122.123 75.2448 116.979 71.1573 114.696C67.0699 112.413 61.8692 113.855 59.5413 117.917L32.215 165.601C29.8871 169.663 31.3135 174.807 35.4009 177.091C39.4884 179.374 44.6891 177.932 47.017 173.87L74.3433 126.186Z" fill="#C5F74F"/>
<path d="M133.244 89.6236C135.572 85.5614 134.145 80.4174 130.058 78.1342C125.97 75.8509 120.77 77.2931 118.442 81.3552L91.1154 129.039C88.7875 133.101 90.2139 138.245 94.3013 140.529C98.3888 142.812 103.589 141.37 105.917 137.308L133.244 89.6236Z" fill="#C5F74F"/>
<path d="M223.874 89.625C226.202 85.5629 224.776 80.4189 220.688 78.1356C216.601 75.8524 211.4 77.2945 209.072 81.3567L181.746 129.041C179.418 133.103 180.844 138.247 184.932 140.53C189.019 142.813 194.22 141.371 196.548 137.309L223.874 89.625Z" fill="#C5F74F"/>
<path d="M164.955 126.186C167.283 122.123 165.857 116.979 161.769 114.696C157.682 112.413 152.481 113.855 150.153 117.917L122.827 165.601C120.499 169.663 121.925 174.807 126.013 177.091C130.1 179.374 135.301 177.932 137.629 173.87L164.955 126.186Z" fill="#C5F74F"/>
</svg>
