<svg width="256" height="256" viewBox="0 0 256 256" xmlns="http://www.w3.org/2000/svg" id="drupal">
<style>
#drupal {
    path.rect {fill: #242938}

    @media (prefers-color-scheme: light) {
        path.rect {fill: #F4F2ED}
    }
}
</style>
<path d="M256,50L256,206C256,233.596 233.596,256 206,256L50,256C22.404,256 0,233.596 0,206L0,50C0,22.404 22.404,0 50,0L206,0C233.596,0 256,22.404 256,50Z" class="rect"/>
<g transform="matrix(0.667303,0,0,0.667303,175.396,92.2663)">
<path d="M0,107.005C-0.8,108.754 -2.614,111.674 -5.063,111.764C-9.428,111.923 -9.895,109.686 -13.121,104.911C-20.204,94.43 -82.017,29.827 -93.579,17.334C-103.748,6.344 -95.011,-1.403 -90.958,-5.463C-85.873,-10.557 -71.03,-25.391 -71.03,-25.391C-71.03,-25.391 -26.772,16.601 -8.336,45.293C10.1,73.984 3.746,98.812 0,107.005M-71.026,167.182C-91.521,167.182 -108.134,150.568 -108.135,130.074L-108.135,130.073C-108.135,120.678 -104.399,112.305 -98.885,105.563C-92.194,97.38 -71.031,74.367 -71.031,74.367C-71.031,74.367 -50.192,97.718 -43.227,105.484C-37.159,112.229 -33.838,121.001 -33.917,130.073C-33.917,150.568 -50.532,167.182 -71.026,167.182M-133.063,111.716C-139.679,111.49 -164.096,69.406 -118.799,24.596L-88.825,57.338C-87.819,58.333 -87.809,59.955 -88.803,60.962C-88.874,61.032 -88.948,61.099 -89.025,61.161C-96.178,68.497 -126.664,99.068 -130.453,109.64C-131.235,111.821 -132.378,111.739 -133.063,111.716M-26.627,-27.411C-46.466,-47.242 -65.396,-66.145 -71.029,-87.466C-76.663,-66.145 -95.595,-47.242 -115.432,-27.411C-145.187,2.325 -178.923,36.027 -178.923,86.573C-178.923,146.163 -130.616,194.471 -71.026,194.471C-11.437,194.471 36.871,146.163 36.871,86.573C36.871,36.03 3.138,2.325 -26.627,-27.411" style="fill:rgb(0,156,222);fill-rule:nonzero;"/>
</g>
</svg>
