<svg width="256" height="256" viewBox="0 0 256 256" fill="none" xmlns="http://www.w3.org/2000/svg">
<path d="M196 0H60C26.8629 0 0 26.8629 0 60V196C0 229.137 26.8629 256 60 256H196C229.137 256 256 229.137 256 196V60C256 26.8629 229.137 0 196 0Z" fill="black"/>
<path d="M46 128.321C46 157.188 69.4547 180.642 98.3216 180.642C127.189 180.642 150.643 157.188 150.643 128.321C150.643 99.4547 127.189 76 98.3216 76C69.4547 76 46 99.4547 46 128.321Z" fill="#FFF000"/>
<path d="M192.14 109.506H167.397V146.878H192.14C202.45 146.878 210.955 138.372 210.955 128.063C210.955 117.753 202.45 109.506 192.14 109.506Z" fill="#FFF000"/>
</svg>
