<svg width="256" height="256" viewBox="0 0 256 256" fill="none" xmlns="http://www.w3.org/2000/svg">
<rect width="256" height="256" rx="60" fill="#BB358B" />
<path d="M115.24 141.343C89.9967 115.943 83.9865 78.1451 97.8101 47C88.7947 51.2333 80.0798 56.9785 72.567 64.538C39.811 97.4974 39.811 151.321 72.567 184.28C105.323 217.24 158.814 217.24 191.57 184.28C199.083 176.721 204.793 168.254 209 158.881C178.348 172.79 140.783 167.045 115.24 141.343ZM132.369 196.98C113.136 196.98 95.1055 189.421 81.2818 175.814C53.9351 148.297 53.3341 104.15 78.8777 75.7261C77.3752 102.94 86.9916 130.154 106.825 150.112C124.856 168.254 149.198 178.535 174.741 178.535C176.845 178.535 178.648 178.535 180.752 178.233C167.529 190.328 150.4 196.98 132.369 196.98Z" fill="white"/>
</svg>