<svg width="256" height="256" viewBox="0 0 256 256" fill="none" xmlns="http://www.w3.org/2000/svg">
<rect width="256" height="256" rx="60" fill="#BB358B" />
<mask id="mask0_1_28" style="mask-type:luminance" maskUnits="userSpaceOnUse" x="47" y="42" width="170" height="170">
<path d="M216.462 159.474C212.049 169.349 205.862 178.331 198.209 185.972C163.619 220.587 107.541 220.587 72.9536 185.974C38.366 151.361 38.3743 95.2455 72.9592 60.6352C80.8412 52.7475 89.8345 46.6597 99.4376 42.3691C84.8958 74.927 90.9847 114.48 117.69 141.205C144.399 167.933 183.917 174.021 216.465 159.471L216.462 159.474Z" fill="white"/>
</mask>
<path fill-rule="evenodd" clip-rule="evenodd" d="M216.462 159.474C212.049 169.349 205.862 178.331 198.209 185.972C163.619 220.587 107.541 220.587 72.9536 185.974C38.366 151.361 38.3743 95.2455 72.9592 60.6352C80.8412 52.7475 89.8345 46.6597 99.4376 42.3691C84.8958 74.927 90.9847 114.48 117.69 141.205C144.399 167.933 183.914 174.023 216.462 159.474Z" stroke="white" stroke-width="6"/>
</svg>