<svg width="256" height="256" viewBox="0 0 256 256" fill="none" xmlns="http://www.w3.org/2000/svg">
<g clip-path="url(#clip0_186_252)">
<mask id="mask0_186_252" style="mask-type:luminance" maskUnits="userSpaceOnUse" x="0" y="0" width="256" height="256">
<path d="M196 0H60C26.8629 0 0 26.8629 0 60V196C0 229.137 26.8629 256 60 256H196C229.137 256 256 229.137 256 196V60C256 26.8629 229.137 0 196 0Z" fill="white"/>
</mask>
<g mask="url(#mask0_186_252)">
<path d="M256 0H0V256H256V0Z" fill="url(#paint0_linear_186_252)"/>
</g>
<path fill-rule="evenodd" clip-rule="evenodd" d="M86 169.2H166V89.2H86V169.2ZM172.4 89.2H185.2V95.6H172.4V108.4H185.2V114.8H172.4V124.4H185.2V130.8H172.4V143.6H185.2V150H172.4V162.8H185.2V169.2H172.4V169.635C172.4 172.925 169.725 175.6 166.435 175.6H166V188.4H159.6V175.6H146.8V188.4H140.4V175.6H130.8V188.4H124.4V175.6H111.6V188.4H105.2V175.6H92.4V188.4H86V175.6H85.5648C82.2752 175.6 79.6 172.925 79.6 169.635V169.2H70V162.8H79.6V150H70V143.6H79.6V130.8H70V124.4H79.6V114.8H70V108.4H79.6V95.6H70V89.2H79.6V88.7648C79.6 85.4752 82.2752 82.8 85.5648 82.8H86V70H92.4V82.8H105.2V70H111.6V82.8H124.4V70H130.8V82.8H140.4V70H146.8V82.8H159.6V70H166V82.8H166.435C169.725 82.8 172.4 85.4752 172.4 88.7648V89.2ZM130.8 210.403C130.8 210.621 130.621 210.8 130.403 210.8H44.7968C44.5792 210.8 44.4 210.621 44.4 210.403V124.797C44.4 124.579 44.5792 124.4 44.7968 124.4H63.6V118H44.7968C41.0496 118 38 121.05 38 124.797V210.403C38 214.15 41.0496 217.2 44.7968 217.2H130.403C134.15 217.2 137.2 214.15 137.2 210.403V194.8H130.8V210.403ZM217.2 44.7968V130.403C217.2 134.15 214.15 137.2 210.403 137.2H191.6V130.8H210.403C210.621 130.8 210.8 130.621 210.8 130.403V44.7968C210.8 44.5792 210.621 44.4 210.403 44.4H124.797C124.579 44.4 124.4 44.5792 124.4 44.7968V63.6H118V44.7968C118 41.0496 121.05 38 124.797 38H210.403C214.15 38 217.2 41.0496 217.2 44.7968Z" fill="white"/>
</g>
<defs>
<linearGradient id="paint0_linear_186_252" x1="0" y1="25600" x2="25600" y2="0" gradientUnits="userSpaceOnUse">
<stop stop-color="#C8511B"/>
<stop offset="1" stop-color="#FF9900"/>
</linearGradient>
<clipPath id="clip0_186_252">
<rect width="256" height="256" fill="white"/>
</clipPath>
</defs>
</svg>
