<svg width="256" height="256" viewBox="0 0 256 256" fill="none" xmlns="http://www.w3.org/2000/svg">
<rect width="256" height="256" rx="60" fill="#4AB2B0" />
<path d="M191.49 191.49C226.641 156.344 226.641 99.3627 191.49 64.2161C156.344 29.0656 99.3626 29.0656 64.2161 64.2161C29.0656 99.3627 29.0656 156.344 64.2161 191.49C99.3626 226.641 156.344 226.641 191.49 191.49ZM189.436 189.436C155.424 223.448 100.282 223.448 66.2704 189.436C32.2586 155.424 32.2586 100.282 66.2704 66.2704C100.282 32.2586 155.424 32.2586 189.436 66.2704C223.448 100.282 223.448 155.424 189.436 189.436Z" stroke="white" stroke-width="2"/>
<path d="M148.725 186.67C170.728 164.667 170.728 128.988 148.725 106.981C126.718 84.9785 91.0397 84.9785 69.0369 106.981C47.0302 128.988 47.0302 164.667 69.0369 186.67C91.0397 208.676 126.718 208.676 148.725 186.67ZM156.316 194.261C130.115 220.454 87.6432 220.454 61.4457 194.261C35.252 168.063 35.252 125.588 61.4457 99.3939C87.6432 73.1964 130.119 73.1964 156.312 99.3939C182.51 125.591 182.514 168.063 156.316 194.261Z" fill="white"/>
<path d="M110.777 186.67C113.577 183.942 115.807 180.686 117.338 177.09C118.869 173.494 119.671 169.629 119.697 165.721C119.723 161.813 118.972 157.938 117.488 154.322C116.004 150.706 113.817 147.421 111.054 144.657C108.29 141.893 105.005 139.705 101.389 138.221C97.7733 136.737 93.8987 135.986 89.9902 136.011C86.0817 136.037 82.2172 136.838 78.6209 138.369C75.0247 139.9 71.7683 142.13 69.0408 144.93C63.6542 150.494 60.6707 157.953 60.7337 165.698C60.7967 173.443 63.9013 180.852 69.3777 186.329C74.8542 191.805 82.2637 194.91 90.0083 194.973C97.7529 195.036 105.212 192.056 110.777 186.67ZM118.368 194.261C102.65 209.975 77.1642 209.975 61.4457 194.261C45.7311 178.542 45.7311 153.057 61.4457 137.338C77.1642 121.624 102.65 121.624 118.368 137.338C134.083 153.057 134.083 178.542 118.368 194.261Z" fill="white"/>
</svg>