<svg width="256" height="256" viewBox="0 0 256 256" fill="none" xmlns="http://www.w3.org/2000/svg">
<g clip-path="url(#clip0_186_310)">
<mask id="mask0_186_310" style="mask-type:luminance" maskUnits="userSpaceOnUse" x="0" y="0" width="256" height="256">
<path d="M196 0H60C26.8629 0 0 26.8629 0 60V196C0 229.137 26.8629 256 60 256H196C229.137 256 256 229.137 256 196V60C256 26.8629 229.137 0 196 0Z" fill="white"/>
</mask>
<g mask="url(#mask0_186_310)">
<path d="M256 0H0V256H256V0Z" fill="url(#paint0_linear_186_310)"/>
</g>
<path fill-rule="evenodd" clip-rule="evenodd" d="M122.122 118.849C120.539 119.77 119.554 121.48 119.554 123.316V212.102L52.396 174.549V87.2645L127.782 43.5883L194.751 76.7706L122.122 118.849ZM202.545 76.6872C202.545 74.8484 201.563 73.1347 199.792 72.1206L130.309 37.6868C128.723 36.7722 126.753 36.7689 125.17 37.69L48.568 82.0689C46.985 82.9899 46 84.7004 46 86.536V175.291C46 177.126 46.985 178.837 48.616 179.783L118.236 218.713C119.029 219.172 119.922 219.4 120.811 219.4C121.697 219.4 122.589 219.172 123.379 218.713C124.965 217.795 125.95 216.085 125.95 214.246V124.044L199.977 81.1543C201.563 80.2365 202.545 78.526 202.545 76.6872ZM202.702 174.751L141.94 211.916V178.638L173.622 158.192L173.84 156.758C173.897 156.382 173.92 156.382 173.92 154.653L174.019 114.953L202.801 98.2749L202.702 174.751ZM206.629 91.6289C205.039 90.7014 203.069 90.7046 201.483 91.6289L170.843 109.378C169.884 109.902 167.626 111.131 167.626 113.666L167.524 154.496L138.323 173.339C136.58 174.379 135.544 176.026 135.544 177.765V213.986C135.544 215.799 136.519 217.452 138.153 218.399C139.007 218.89 139.957 219.14 140.904 219.14C141.834 219.14 142.765 218.903 143.606 218.415L206.536 179.925C208.119 179.004 209.098 177.293 209.098 175.467L209.2 96.0927C209.2 94.2571 208.215 92.5467 206.629 91.6289Z" fill="white"/>
</g>
<defs>
<linearGradient id="paint0_linear_186_310" x1="0" y1="25600" x2="25600" y2="0" gradientUnits="userSpaceOnUse">
<stop stop-color="#C8511B"/>
<stop offset="1" stop-color="#FF9900"/>
</linearGradient>
<clipPath id="clip0_186_310">
<rect width="256" height="256" fill="white"/>
</clipPath>
</defs>
</svg>
