<svg width="256" height="256" viewBox="0 0 256 256" fill="none" xmlns="http://www.w3.org/2000/svg">
<g clip-path="url(#clip0_611_345)">
<path d="M196 0H60C26.8629 0 0 26.8629 0 60V196C0 229.137 26.8629 256 60 256H196C229.137 256 256 229.137 256 196V60C256 26.8629 229.137 0 196 0Z" fill="#F4F2ED"/>
<g clip-path="url(#clip1_611_345)">
<path d="M107.684 99.4461V81.3477L38.9517 117.249V137.534L107.977 173.431V155.336L56.9023 127.317L107.684 99.4461Z" fill="#C0CA33"/>
<path d="M119.943 169.715H140.664L200.789 85.5859H180.212L119.943 169.715Z" fill="#C0CA33"/>
<path d="M136.725 87.1875C127.134 87.1875 119.358 94.9631 119.358 104.554C119.358 114.144 127.134 121.92 136.725 121.92C146.315 121.92 154.091 114.144 154.091 104.554C154.091 94.9597 146.315 87.1875 136.725 87.1875ZM136.872 110.243C134.05 110.243 131.764 107.596 131.764 104.334C131.764 101.072 134.05 98.4247 136.872 98.4247C139.695 98.4247 141.98 101.072 141.98 104.334C141.98 107.596 139.691 110.243 136.872 110.243Z" fill="#C0CA33"/>
<path d="M181.412 138.75C171.821 138.75 164.046 146.526 164.046 156.116C164.046 165.707 171.821 173.482 181.412 173.482C191.003 173.482 198.778 165.707 198.778 156.116C198.778 146.522 191.003 138.75 181.412 138.75ZM181.56 161.805C178.738 161.805 176.452 159.158 176.452 155.896C176.452 152.634 178.738 149.987 181.56 149.987C184.382 149.987 186.668 152.634 186.668 155.896C186.668 159.158 184.379 161.805 181.56 161.805Z" fill="#C0CA33"/>
</g>
</g>
<defs>
<clipPath id="clip0_611_345">
<rect width="256" height="256" fill="white"/>
</clipPath>
<clipPath id="clip1_611_345">
<rect width="165" height="165" fill="white" transform="translate(39 45)"/>
</clipPath>
</defs>
</svg>
