<svg width="256" height="256" viewBox="0 0 256 256" fill="none" xmlns="http://www.w3.org/2000/svg" id="ejs">
<style>
#ejs {
    rect {fill: #242938}

    @media (prefers-color-scheme: light) {
        rect {fill: #F4F2ED}
    }
}
</style>
<rect width="256" height="256" rx="60" fill="#242938"/>
<path d="M39 138.612V117.375L114.394 78V97.5097L58.7068 127.606L114.407 158.312V178L39 138.612ZM215.814 82.2169L150.025 173.904H127.439L193.355 82.2106L215.814 82.2169ZM197.589 162.923C198.335 162.938 199.074 162.787 199.755 162.481C200.435 162.176 201.039 161.724 201.524 161.158C202.616 159.861 203.179 158.201 203.1 156.509C203.164 154.778 202.605 153.081 201.524 151.727C201.068 151.135 200.482 150.656 199.811 150.326C199.14 149.996 198.403 149.825 197.656 149.825C196.908 149.825 196.171 149.996 195.5 150.326C194.829 150.656 194.243 151.135 193.787 151.727C192.707 153.081 192.147 154.778 192.211 156.509C192.131 158.19 192.666 159.843 193.717 161.158C194.186 161.727 194.778 162.181 195.449 162.487C196.12 162.793 196.852 162.942 197.589 162.923ZM211.485 169.541C207.691 172.967 202.755 174.859 197.64 174.847C192.525 174.835 187.598 172.921 183.819 169.477C182.081 167.783 180.699 165.758 179.756 163.522C178.813 161.286 178.327 158.884 178.327 156.458C178.327 154.032 178.813 151.63 179.756 149.394C180.699 147.158 182.081 145.133 183.819 143.439C187.597 139.985 192.532 138.07 197.652 138.07C202.773 138.07 207.708 139.985 211.485 143.439C213.257 145.114 214.662 147.138 215.611 149.383C216.56 151.629 217.032 154.046 216.997 156.483C217.044 158.92 216.578 161.338 215.629 163.583C214.681 165.828 213.271 167.849 211.492 169.515L211.485 169.541ZM145.932 109.329C146.677 109.343 147.417 109.192 148.097 108.887C148.778 108.582 149.382 108.13 149.867 107.563C150.958 106.267 151.521 104.607 151.443 102.914C151.507 101.183 150.947 99.4867 149.867 98.1321C149.41 97.5415 148.824 97.0634 148.153 96.7345C147.482 96.4055 146.745 96.2345 145.998 96.2345C145.251 96.2345 144.514 96.4055 143.844 96.7345C143.173 97.0634 142.587 97.5415 142.13 98.1321C141.049 99.4867 140.49 101.183 140.554 102.914C140.473 104.595 141.009 106.248 142.06 107.563C142.529 108.132 143.121 108.587 143.792 108.893C144.463 109.199 145.194 109.348 145.932 109.329ZM159.828 115.927C156.033 119.353 151.098 121.245 145.983 121.233C140.868 121.222 135.941 119.307 132.162 115.864C130.424 114.169 129.042 112.144 128.099 109.909C127.156 107.673 126.67 105.271 126.67 102.844C126.67 100.418 127.156 98.0162 128.099 95.7803C129.042 93.5444 130.424 91.5196 132.162 89.8252C135.94 86.3715 140.875 84.4559 145.995 84.4559C151.116 84.4559 156.051 86.3715 159.828 89.8252C161.606 91.5073 163.014 93.541 163.962 95.7968C164.91 98.0526 165.377 100.481 165.333 102.927C165.376 105.358 164.908 107.771 163.959 110.01C163.011 112.249 161.604 114.265 159.828 115.927Z" fill="#90A93A"/>
</svg>
