<svg width="256" height="256" viewBox="0 0 256 256" fill="none" xmlns="http://www.w3.org/2000/svg">
<g clip-path="url(#clip0_186_324)">
<mask id="mask0_186_324" style="mask-type:luminance" maskUnits="userSpaceOnUse" x="0" y="0" width="256" height="256">
<path d="M196 0H60C26.8629 0 0 26.8629 0 60V196C0 229.137 26.8629 256 60 256H196C229.137 256 256 229.137 256 196V60C256 26.8629 229.137 0 196 0Z" fill="white"/>
</mask>
<g mask="url(#mask0_186_324)">
<path d="M256 0H0V256H256V0Z" fill="url(#paint0_linear_186_324)"/>
</g>
<path fill-rule="evenodd" clip-rule="evenodd" d="M147.894 101.637L126.042 126.984L149.811 154.709H140.941L119.6 129.8V155.4H113.2V101H119.6V123.4L139.379 101.637H147.894ZM202.8 152.949L177.2 137.586V101C177.2 99.8608 176.598 98.808 175.613 98.2353L138.8 76.7633V45.8065L202.8 83.6273V152.949ZM207.629 79.0449L137.229 37.4449C136.237 36.8593 135.018 36.8529 134.013 37.4193C133.018 37.9889 132.4 39.0513 132.4 40.2001V78.6001C132.4 79.7361 133.005 80.7889 133.987 81.3649L170.8 102.837V139.4C170.8 140.523 171.392 141.566 172.355 142.142L204.355 161.342C204.861 161.646 205.43 161.8 206 161.8C206.544 161.8 207.088 161.662 207.578 161.384C208.582 160.818 209.2 159.752 209.2 158.6V81.8001C209.2 80.6673 208.605 79.6209 207.629 79.0449ZM127.424 212.562L52.4 172.677V83.6273L116.4 45.8065V76.8433L82.6816 98.2993C81.76 98.8881 81.2 99.9056 81.2 101V155.4C81.2 156.594 81.8656 157.688 82.9216 158.238L125.971 180.638C126.896 181.118 127.997 181.122 128.918 180.642L170.685 159.061L196.387 174.485L127.424 212.562ZM204.448 171.854L172.448 152.654C171.494 152.085 170.317 152.046 169.331 152.558L127.456 174.194L87.6 153.458V102.757L121.318 81.3009C122.24 80.7121 122.8 79.6945 122.8 78.6001V40.2001C122.8 39.0513 122.186 37.9889 121.187 37.4193C120.189 36.8529 118.966 36.8593 117.971 37.4449L47.5712 79.0449C46.5984 79.6209 46 80.6673 46 81.8001V174.6C46 175.781 46.6528 176.869 47.696 177.426L125.949 219.026C126.419 219.275 126.934 219.4 127.45 219.4C127.984 219.4 128.515 219.266 128.998 219L204.349 177.4C205.35 176.846 205.978 175.8 206 174.658C206.019 173.512 205.427 172.443 204.448 171.854Z" fill="white"/>
</g>
<defs>
<linearGradient id="paint0_linear_186_324" x1="0" y1="25600" x2="25600" y2="0" gradientUnits="userSpaceOnUse">
<stop stop-color="#C8511B"/>
<stop offset="1" stop-color="#FF9900"/>
</linearGradient>
<clipPath id="clip0_186_324">
<rect width="256" height="256" fill="white"/>
</clipPath>
</defs>
</svg>
