<svg width="256" height="256" viewBox="0 0 256 256" fill="none" xmlns="http://www.w3.org/2000/svg" id="elasticsearch">
<style>
#elasticsearch {
    rect {fill: #242938}

    @media (prefers-color-scheme: light) {
        rect {fill: #F4F2ED}
    }
}
</style>
<rect width="256" height="256" rx="60" fill="#242938"/>
<path fill="#FFFFFF" d="M229.6,130.9c0-17-10.6-32-26.5-37.7c0.7-3.6,1-7.3,1-10.9c0-31.8-25.8-57.5-57.4-57.5
	c-18.6,0-35.7,8.8-46.6,23.8c-5.3-4.1-11.9-6.4-18.6-6.4c-16.8,0-30.5,13.7-30.5,30.5c0,3.7,0.7,7.3,1.9,10.7
	c-15.9,5.8-26.6,20.9-26.6,37.8c0,16.9,10.6,32.1,26.5,37.8c-0.7,3.6-1,7.3-1,10.9c0,31.6,25.7,57.3,57.3,57.3
	c18.6,0,35.7-8.9,46.5-23.9c5.3,4.2,11.9,6.5,18.6,6.5c16.8,0,30.5-13.7,30.5-30.5c0-3.7-0.7-7.3-1.9-10.7
	C218.9,163,229.5,147.9,229.6,130.9"/>
<path fill="#FED10A" d="M106.3,112l44.5,20.3l44.9-39.3c0.7-3.3,1-6.6,0.9-9.9c0-27.7-22.5-50.1-50.2-50.2c-16.5,0-32,8.2-41.3,21.8
	l-7.5,38.8L106.3,112z"/>
<path fill="#24BBB1" d="M60.2,159.1c-0.7,3.3-1,6.7-1,10.1c0,27.8,22.6,50.3,50.4,50.3c16.6,0,32.2-8.2,41.6-22l7.4-38.6l-9.9-18.9
	L104,119.6L60.2,159.1z"/>
<path fill="#EF5098" d="M59.9,82.1l30.5,7.2l6.7-34.6c-4.1-3.2-9.3-4.9-14.6-4.9c-13.3,0-24,10.8-24,24C58.5,76.7,59,79.5,59.9,82.1
	"/>
<path fill="#17A8E0" d="M57.3,89.4c-13.6,4.5-23.1,17.5-23.1,31.9c0,14,8.7,26.5,21.7,31.4L98.6,114l-7.8-16.8L57.3,89.4z"/>
<path fill="#93C83E" d="M158.9,197.4c4.2,3.2,9.3,4.9,14.5,5c13.3,0,24-10.8,24.1-24.1c0-2.8-0.5-5.7-1.5-8.3l-30.4-7.1L158.9,197.4
	z"/>
<path fill="#0779A1" d="M165.1,154.9l33.5,7.8c13.8-4.6,23-17.5,23.1-32c0-13.9-8.6-26.4-21.7-31.4l-43.8,38.4L165.1,154.9z"/>
</svg>
