<svg width="256" height="256" viewBox="0 0 256 256" fill="none" xmlns="http://www.w3.org/2000/svg">
<g clip-path="url(#clip0_186_303)">
<mask id="mask0_186_303" style="mask-type:luminance" maskUnits="userSpaceOnUse" x="0" y="0" width="256" height="256">
<path d="M196 0H60C26.8629 0 0 26.8629 0 60V196C0 229.137 26.8629 256 60 256H196C229.137 256 256 229.137 256 196V60C256 26.8629 229.137 0 196 0Z" fill="white"/>
</mask>
<g mask="url(#mask0_186_303)">
<path d="M256 0H0V256H256V0Z" fill="url(#paint0_linear_186_303)"/>
</g>
<path fill-rule="evenodd" clip-rule="evenodd" d="M159.758 145.674C159.758 140.369 155.456 136.053 150.17 136.053C144.885 136.053 140.583 140.369 140.583 145.674C140.583 150.978 144.885 155.295 150.17 155.295C155.456 155.295 159.758 150.978 159.758 145.674ZM124.604 113.603C129.89 113.603 134.192 109.287 134.192 103.982C134.192 98.678 129.89 94.3614 124.604 94.3614C119.318 94.3614 115.017 98.678 115.017 103.982C115.017 109.287 119.318 113.603 124.604 113.603ZM95.8422 148.881C101.128 148.881 105.43 144.564 105.43 139.26C105.43 133.955 101.128 129.639 95.8422 129.639C90.5564 129.639 86.2549 133.955 86.2549 139.26C86.2549 144.564 90.5564 148.881 95.8422 148.881ZM166.149 145.674C166.149 153.419 160.649 159.894 153.366 161.385V180.951C153.366 182.721 151.938 184.158 150.17 184.158H127.8V203.4H121.408V168.123H95.8422C94.0749 168.123 92.6464 166.686 92.6464 164.916V154.971C85.3632 153.48 79.8633 147.005 79.8633 139.26C79.8633 130.418 87.0314 123.225 95.8422 123.225C104.653 123.225 111.821 130.418 111.821 139.26C111.821 147.005 106.321 153.48 99.038 154.971V161.709H121.408V119.694C114.125 118.202 108.625 111.727 108.625 103.982C108.625 95.1407 115.793 87.9473 124.604 87.9473C133.415 87.9473 140.583 95.1407 140.583 103.982C140.583 111.727 135.083 118.202 127.8 119.694V177.744H146.975V161.385C139.691 159.894 134.192 153.419 134.192 145.674C134.192 136.832 141.36 129.639 150.17 129.639C158.981 129.639 166.149 136.832 166.149 145.674ZM212.6 129.837C212.6 153.335 195.141 161.709 178.805 161.709V155.295C187.043 155.295 206.208 152.812 206.208 129.837C206.208 112.648 193.182 106.417 182.256 104.217C180.831 103.931 179.779 102.716 179.693 101.263C178.901 87.7998 171.084 83.0214 164.625 83.0214C160.26 83.0214 156.166 85.1091 153.395 88.7523C152.689 89.6855 151.525 90.1602 150.375 89.9806C149.225 89.8074 148.256 89.0153 147.854 87.9153C145.351 81.0939 141.759 75.379 137.173 70.9277C125.39 59.4626 109.274 56.3518 94.0558 62.6151C81.4197 67.7784 71.5255 82.7071 71.5255 96.6031C71.5255 98.1392 71.6182 99.6818 71.8068 101.189C72.0049 102.802 70.9727 104.31 69.4035 104.698C61.9286 106.554 49.3916 112.257 49.3916 129.597C49.3916 130.254 49.4203 130.883 49.4523 131.476C50.2001 144.827 61.9861 155.295 76.2872 155.295H79.8633V161.709H76.2872C58.5986 161.709 44.0067 148.582 43.0703 131.826C43.0352 131.114 43 130.373 43 129.597C43 109.447 56.924 101.92 65.2107 99.2328C65.1563 98.3573 65.134 97.4786 65.134 96.6031C65.134 80.0132 76.5301 62.8492 91.643 56.6789C109.271 49.4279 127.957 53.0261 141.619 66.3192C145.821 70.3953 149.285 75.3566 151.954 81.11C155.555 78.2076 159.975 76.6073 164.625 76.6073C174.094 76.6073 184.046 83.387 185.858 98.4503C203.128 102.677 212.6 113.751 212.6 129.837Z" fill="white"/>
</g>
<defs>
<linearGradient id="paint0_linear_186_303" x1="0" y1="25600" x2="25600" y2="0" gradientUnits="userSpaceOnUse">
<stop stop-color="#C8511B"/>
<stop offset="1" stop-color="#FF9900"/>
</linearGradient>
</defs>
</svg>
