<svg width="256" height="256" viewBox="0 0 256 256" fill="none" xmlns="http://www.w3.org/2000/svg">
<g clip-path="url(#clip0_186_185)">
<mask id="mask0_186_185" style="mask-type:luminance" maskUnits="userSpaceOnUse" x="0" y="0" width="256" height="256">
<path d="M196 0H60C26.8629 0 0 26.8629 0 60V196C0 229.137 26.8629 256 60 256H196C229.137 256 256 229.137 256 196V60C256 26.8629 229.137 0 196 0Z" fill="white"/>
</mask>
<g mask="url(#mask0_186_185)">
<path d="M256 0H0V256H256V0Z" fill="url(#paint0_linear_186_185)"/>
</g>
<path fill-rule="evenodd" clip-rule="evenodd" d="M96 169.6C73.0624 169.6 54.4 150.938 54.4 128C54.4 105.062 73.0624 86.4 96 86.4C118.938 86.4 137.6 105.062 137.6 128C137.6 150.938 118.938 169.6 96 169.6ZM192 188.8C192 195.859 186.259 201.6 179.2 201.6C172.141 201.6 166.4 195.859 166.4 188.8C166.4 181.741 172.141 176 179.2 176C186.259 176 192 181.741 192 188.8ZM179.2 54.4C186.259 54.4 192 60.1408 192 67.2C192 74.2592 186.259 80 179.2 80C172.141 80 166.4 74.2592 166.4 67.2C166.4 60.1408 172.141 54.4 179.2 54.4ZM188.8 115.2C195.859 115.2 201.6 120.941 201.6 128C201.6 135.059 195.859 140.8 188.8 140.8C181.741 140.8 176 135.059 176 128C176 120.941 181.741 115.2 188.8 115.2ZM143.837 131.2H169.888C171.418 140.266 179.306 147.2 188.8 147.2C199.389 147.2 208 138.589 208 128C208 117.411 199.389 108.8 188.8 108.8C179.306 108.8 171.418 115.734 169.888 124.8H143.837C143.434 118.717 141.901 112.95 139.43 107.693L167.827 82.6336C171.014 84.9888 174.941 86.4 179.2 86.4C189.789 86.4 198.4 77.7888 198.4 67.2C198.4 56.6112 189.789 48 179.2 48C168.611 48 160 56.6112 160 67.2C160 71.2192 161.245 74.9472 163.363 78.0352L136.259 101.949C127.693 88.7616 112.867 80 96 80C69.5328 80 48 101.533 48 128C48 154.467 69.5328 176 96 176C112.867 176 127.693 167.238 136.259 154.051L163.363 177.965C161.245 181.053 160 184.781 160 188.8C160 199.389 168.611 208 179.2 208C189.789 208 198.4 199.389 198.4 188.8C198.4 178.211 189.789 169.6 179.2 169.6C174.941 169.6 171.014 171.011 167.827 173.366L139.43 148.307C141.901 143.05 143.434 137.283 143.837 131.2Z" fill="white"/>
</g>
<defs>
<linearGradient id="paint0_linear_186_185" x1="0" y1="25600" x2="25600" y2="0" gradientUnits="userSpaceOnUse">
<stop stop-color="#4D27A8"/>
<stop offset="1" stop-color="#A166FF"/>
</linearGradient>
<clipPath id="clip0_186_185">
<rect width="256" height="256" fill="white"/>
</clipPath>
</defs>
</svg>
