<svg width="256" height="256" viewBox="0 0 256 256" fill="none" xmlns="http://www.w3.org/2000/svg">
<g clip-path="url(#clip0_4_5)">
<path d="M196 0H60C26.8629 0 0 26.8629 0 60V196C0 229.137 26.8629 256 60 256H196C229.137 256 256 229.137 256 196V60C256 26.8629 229.137 0 196 0Z" fill="#242938"/>
<circle cx="128" cy="128" r="100" fill="#0DBD8B"/>
<path d="M134.61 161.6L134.104 161.106L133.597 160.613L133.085 159.619L132.572 158.626L132.559 157.626L132.54 156.126L132.534 155.626L132.528 155.126L133.015 154.12L133.502 153.113L134.489 152.101L134.983 151.594L135.976 151.082L136.97 150.569L137.97 150.556L143.463 149.987L148.944 148.417L154.411 145.847L157.879 143.303L162.322 138.746L163.796 136.727L165.752 133.202L167.688 128.177L168.618 122.664L169.061 118.159L169.541 116.652L170.029 115.646L170.522 115.14L171.016 114.633L171.51 114.127L172.503 113.614L173.497 113.102L173.997 113.095L176.496 113.064L178.003 113.544L179.009 114.032L179.515 114.525L180.022 115.019L180.528 115.512L181.034 116.006L181.547 117L181.553 117.5L181.572 119L181.598 120.999L181.623 122.999L181.642 124.499L181.187 128.005L180.712 130.011L178.782 135.536L176.833 139.561L175.372 142.58L173.41 145.605L171.442 148.131L169.467 150.156L167.493 152.181L165.019 154.213L163.038 155.738L159.564 157.782L156.083 159.327L152.602 160.871L149.115 161.916L146.122 162.454L143.128 162.992L141.629 163.011L139.129 163.043L138.629 163.049L137.129 163.068L136.123 162.581L135.116 162.094L134.61 161.6Z" fill="white"/>
<path d="M134.104 161.106L134.61 161.6M134.61 161.6L133.597 160.613L133.085 159.619L132.572 158.626L132.559 157.626L132.54 156.126L132.534 155.626L132.528 155.126L133.015 154.12L133.502 153.113L134.489 152.101L134.983 151.594L135.976 151.082L136.97 150.569L137.97 150.556L143.463 149.987L148.944 148.417L154.411 145.847L157.879 143.303L162.322 138.746L163.796 136.727L165.752 133.202L167.688 128.177L168.618 122.664L169.061 118.159L169.541 116.652L170.029 115.646L170.522 115.14L171.016 114.633L171.51 114.127L172.503 113.614L173.497 113.102L173.997 113.095L176.496 113.064L178.003 113.544L179.009 114.032L179.515 114.525L180.022 115.019L180.528 115.512L181.034 116.006L181.547 117L181.553 117.5L181.572 119L181.598 120.999L181.623 122.999L181.642 124.499L181.187 128.005L180.712 130.011L178.782 135.536L176.833 139.561L175.372 142.58L173.41 145.605L171.442 148.131L169.467 150.156L167.493 152.181L165.019 154.213L163.038 155.738L159.564 157.782L156.083 159.327L152.602 160.871L149.115 161.916L146.122 162.454L143.128 162.992L141.629 163.011L139.129 163.043L138.629 163.049L137.129 163.068L136.123 162.581L135.116 162.094L134.61 161.6Z" stroke="white"/>
<path d="M161.395 121.511L160.899 122.015L160.403 122.519L159.407 123.028L158.411 123.536L157.411 123.544L155.911 123.557L155.412 123.561L154.912 123.565L153.907 123.073L152.903 122.582L151.895 121.59L151.391 121.094L150.882 120.099L150.374 119.103L150.366 118.103L149.82 112.607L148.274 107.12L145.728 101.641L143.199 98.1619L138.662 93.6996L136.649 92.2163L133.133 90.2456L128.116 88.2874L122.608 87.3333L118.104 86.8709L116.6 86.3834L115.596 85.8918L115.092 85.3959L114.588 84.9001L114.083 84.4043L113.575 83.4085L113.067 82.4127L113.063 81.9128L113.042 79.4128L113.529 77.9087L114.021 76.9046L114.517 76.4004L115.012 75.8963L115.508 75.3921L116.004 74.888L117 74.3796L117.5 74.3755L119 74.363L121 74.3463L123 74.3296L124.5 74.3171L128.004 74.7878L130.008 75.2711L135.524 77.2252L139.541 79.1917L142.553 80.6667L145.57 82.6416L148.086 84.6206L150.103 86.6039L152.12 88.5871L154.14 91.0703L155.657 93.0578L157.686 96.5409L159.215 100.028L160.744 103.516L161.774 107.007L162.299 110.003L162.824 112.999L162.836 114.499L162.857 116.999L162.861 117.498L162.874 118.998L162.382 120.003L161.89 121.007L161.395 121.511Z" fill="white"/>
<path d="M160.899 122.015L161.395 121.511M161.395 121.511L160.403 122.519L159.407 123.028L158.411 123.536L157.411 123.544L155.911 123.557L155.412 123.561L154.912 123.565L153.907 123.073L152.903 122.582L151.895 121.59L151.391 121.094L150.882 120.099L150.374 119.103L150.366 118.103L149.82 112.607L148.274 107.12L145.728 101.641L143.199 98.1619L138.662 93.6996L136.649 92.2163L133.133 90.2456L128.116 88.2874L122.608 87.3333L118.104 86.8709L116.6 86.3834L115.596 85.8918L115.092 85.3959L114.588 84.9001L114.083 84.4043L113.575 83.4085L113.067 82.4127L113.063 81.9128L113.042 79.4128L113.529 77.9087L114.021 76.9046L114.517 76.4004L115.012 75.8963L115.508 75.3921L116.004 74.888L117 74.3796L117.5 74.3755L119 74.363L121 74.3463L123 74.3296L124.5 74.3171L128.004 74.7878L130.008 75.2711L135.524 77.2252L139.541 79.1917L142.553 80.6667L145.57 82.6416L148.086 84.6206L150.103 86.6039L152.12 88.5871L154.14 91.0703L155.657 93.0578L157.686 96.5409L159.215 100.028L160.744 103.516L161.774 107.007L162.299 110.003L162.824 112.999L162.836 114.499L162.857 116.999L162.861 117.498L162.874 118.998L162.382 120.003L161.89 121.007L161.395 121.511Z" stroke="white"/>
<path d="M122.209 95.2071L122.702 95.7144L123.194 96.2218L123.679 97.2292L124.165 98.2365L124.15 99.2364L124.127 100.736L124.12 101.236L124.112 101.736L123.598 102.729L123.083 103.721L122.068 104.706L121.561 105.199L120.553 105.684L119.546 106.169L118.546 106.154L113.039 106.572L107.517 107.99L101.981 110.408L98.444 112.855L93.8775 117.288L92.3479 119.265L90.296 122.735L88.2218 127.705L87.14 133.189L86.5731 137.681L86.0508 139.174L85.536 140.166L85.0286 140.659L84.5212 141.151L84.0138 141.644L83.0065 142.129L81.9991 142.614L81.4992 142.606L78.9995 142.569L77.5071 142.047L76.5146 141.532L76.0221 141.024L75.5296 140.517L75.0371 140.01L74.5446 139.502L74.0596 138.495L74.067 137.995L74.0893 136.495L74.1191 134.495L74.1489 132.496L74.1712 130.996L74.7233 127.504L75.253 125.511L77.3347 120.042L79.394 116.072L80.9385 113.095L82.9829 110.125L85.0199 107.655L87.0495 105.685L89.0791 103.715L91.6086 101.752L93.6307 100.282L97.1601 98.3345L100.682 96.8867L104.204 95.439L107.718 94.4912L110.726 94.036L113.733 93.5807L115.233 93.603L117.732 93.6402L118.232 93.6477L119.732 93.67L120.724 94.1848L121.717 94.6997L122.209 95.2071Z" fill="white"/>
<path d="M122.702 95.7144L122.209 95.2071M122.209 95.2071L123.194 96.2218L123.679 97.2292L124.165 98.2365L124.15 99.2364L124.127 100.736L124.12 101.236L124.112 101.736L123.598 102.729L123.083 103.721L122.068 104.706L121.561 105.199L120.553 105.684L119.546 106.169L118.546 106.154L113.039 106.572L107.517 107.99L101.981 110.408L98.444 112.855L93.8775 117.288L92.3479 119.265L90.296 122.735L88.2218 127.705L87.14 133.189L86.5731 137.681L86.0508 139.174L85.536 140.166L85.0286 140.659L84.5212 141.151L84.0138 141.644L83.0065 142.129L81.9991 142.614L81.4992 142.606L78.9995 142.569L77.5071 142.047L76.5146 141.532L76.0221 141.024L75.5296 140.517L75.0371 140.01L74.5446 139.502L74.0596 138.495L74.067 137.995L74.0893 136.495L74.1191 134.495L74.1489 132.496L74.1712 130.996L74.7233 127.504L75.253 125.511L77.3347 120.042L79.394 116.072L80.9385 113.095L82.9829 110.125L85.0199 107.655L87.0495 105.685L89.0791 103.715L91.6086 101.752L93.6307 100.282L97.1601 98.3345L100.682 96.8867L104.204 95.439L107.718 94.4912L110.726 94.036L113.733 93.5807L115.233 93.603L117.732 93.6402L118.232 93.6477L119.732 93.67L120.724 94.1848L121.717 94.6997L122.209 95.2071Z" stroke="white"/>
<path d="M94.5 135L95 134.5L95.5 134L96.5 133.5L97.5 133H98.5H100H100.5H101L102 133.5L103 134L104 135L104.5 135.5L105 136.5L105.5 137.5V138.5L106 144L107.5 149.5L110 155L112.5 158.5L117 163L119 164.5L122.5 166.5L127.5 168.5L133 169.5L137.5 170L139 170.5L140 171L140.5 171.5L141 172L141.5 172.5L142 173.5L142.5 174.5V175V177.5L142 179L141.5 180L141 180.5L140.5 181L140 181.5L139.5 182L138.5 182.5H138H136.5H134.5H132.5H131L127.5 182L125.5 181.5L120 179.5L116 177.5L113 176L110 174L107.5 172L105.5 170L103.5 168L101.5 165.5L100 163.5L98 160L96.5 156.5L95 153L94 149.5L93.5 146.5L93 143.5V142V139.5V139V137.5L93.5 136.5L94 135.5L94.5 135Z" fill="white"/>
<path d="M95 134.5L94.5 135M94.5 135L95.5 134L96.5 133.5L97.5 133H98.5H100H100.5H101L102 133.5L103 134L104 135L104.5 135.5L105 136.5L105.5 137.5V138.5L106 144L107.5 149.5L110 155L112.5 158.5L117 163L119 164.5L122.5 166.5L127.5 168.5L133 169.5L137.5 170L139 170.5L140 171L140.5 171.5L141 172L141.5 172.5L142 173.5L142.5 174.5V175V177.5L142 179L141.5 180L141 180.5L140.5 181L140 181.5L139.5 182L138.5 182.5H138H136.5H134.5H132.5H131L127.5 182L125.5 181.5L120 179.5L116 177.5L113 176L110 174L107.5 172L105.5 170L103.5 168L101.5 165.5L100 163.5L98 160L96.5 156.5L95 153L94 149.5L93.5 146.5L93 143.5V142V139.5V139V137.5L93.5 136.5L94 135.5L94.5 135Z" stroke="white"/>
</g>
<defs>
<clipPath id="clip0_4_5">
<rect width="256" height="256" fill="white"/>
</clipPath>
</defs>
</svg>
