<svg width="256" height="256" viewBox="0 0 256 256" fill="none" xmlns="http://www.w3.org/2000/svg">
<path d="M196 0H60C26.8629 0 0 26.8629 0 60V196C0 229.137 26.8629 256 60 256H196C229.137 256 256 229.137 256 196V60C256 26.8629 229.137 0 196 0Z" fill="#F4F2ED"/>
<path d="M127.5 40C79.1702 40 40 79.1702 40 127.5C40 175.814 79.1702 215 127.5 215C175.83 215 215 175.83 215 127.5C214.984 79.1702 175.814 40 127.5 40ZM105.629 163.947H91.0528V91.037H105.629V163.947ZM163.945 163.947H120.204V149.372H163.945V163.947ZM163.945 134.78H120.204V120.204H163.945V134.78ZM163.945 105.613H120.204V91.037H163.945V105.613Z" fill="#92003B"/>
</svg>
