<svg width="256" height="256" viewBox="0 0 256 256" fill="none" xmlns="http://www.w3.org/2000/svg">
<g clip-path="url(#clip0_159_22)">
<path d="M196 0H60C26.8629 0 0 26.8629 0 60V196C0 229.137 26.8629 256 60 256H196C229.137 256 256 229.137 256 196V60C256 26.8629 229.137 0 196 0Z" fill="url(#paint0_linear_159_22)"/>
<path fill-rule="evenodd" clip-rule="evenodd" d="M205.796 152.602C203.264 150.068 199.942 148.802 196.616 148.802C193.291 148.802 189.969 150.068 187.437 152.602C184.985 155.057 183.632 158.322 183.632 161.792C183.632 165.262 184.985 168.527 187.437 170.981C192.5 176.047 200.732 176.047 205.796 170.981C210.856 165.912 210.856 157.668 205.796 152.602ZM178.504 154.913C179.432 152.455 180.857 150.196 182.739 148.261L175.848 135.131L167.267 151.359L178.504 154.913ZM158.017 155.153L120.263 143.215C118.241 148.386 115.162 153.234 110.994 157.405C110.47 157.928 109.906 158.389 109.362 158.879L126.012 182.006C129.158 179.917 132.838 178.796 136.695 178.796C139.473 178.796 142.152 179.395 144.617 180.5L158.017 155.153ZM149.677 198.196C149.677 194.726 148.326 191.461 145.874 189.007C143.423 186.556 140.161 185.204 136.695 185.204C133.229 185.204 129.971 186.556 127.519 189.007C125.067 191.461 123.714 194.726 123.714 198.196C123.714 201.666 125.067 204.931 127.519 207.385C129.971 209.84 133.229 211.192 136.695 211.192C140.161 211.192 143.423 209.84 145.874 207.385C148.326 204.931 149.677 201.666 149.677 198.196ZM106.469 152.872C120.196 139.129 120.196 116.771 106.469 103.029C99.6036 96.1597 90.5875 92.7249 81.5715 92.7249C72.5555 92.7249 63.5426 96.1564 56.6774 103.029C42.9501 116.771 42.9501 139.129 56.6774 152.872C70.4047 166.614 92.7415 166.614 106.469 152.872ZM109.311 96.9767C109.871 97.4797 110.454 97.9571 110.994 98.4986C114.992 102.5 117.991 107.124 120.02 112.058L157.63 100.431L144.562 75.5287C142.117 76.6213 139.451 77.2076 136.695 77.2076C132.816 77.2076 129.113 76.0766 125.964 73.9651L109.311 96.9767ZM123.714 57.807C123.714 61.277 125.067 64.5388 127.519 66.9931C129.971 69.4474 133.229 70.7995 136.695 70.7995C140.161 70.7995 143.423 69.4474 145.874 66.9931C148.326 64.5388 149.677 61.277 149.677 57.807C149.677 54.3338 148.326 51.0721 145.874 48.6146C143.423 46.1603 140.161 44.8081 136.695 44.8081C133.229 44.8081 129.971 46.1603 127.519 48.6146C125.067 51.0721 123.714 54.3338 123.714 57.807ZM122.113 137.079L161.061 149.395L172.241 128.258L160.661 106.201L121.956 118.165C123.448 124.378 123.506 130.847 122.113 137.079ZM166.886 104.276L175.867 121.392L184.291 105.458C183.836 105.077 183.34 104.759 182.912 104.33C181.689 103.106 180.665 101.738 179.826 100.277L166.886 104.276ZM183.632 90.607C183.632 94.0802 184.985 97.342 187.437 99.7995C192.5 104.865 200.732 104.865 205.796 99.7995C210.856 94.7306 210.856 86.4866 205.796 81.421C203.264 78.8866 199.942 77.621 196.616 77.621C193.291 77.621 189.969 78.8866 187.437 81.421C184.985 83.8753 183.632 87.137 183.632 90.607ZM210.321 148.072C217.875 155.637 217.875 167.947 210.321 175.511C206.541 179.295 201.581 181.186 196.616 181.186C191.652 181.186 186.688 179.295 182.912 175.511C179.25 171.846 177.23 166.973 177.23 161.792C177.23 161.606 177.253 161.423 177.259 161.237L164.223 157.117L149.968 184.082C150.109 184.217 150.259 184.339 150.4 184.476C154.061 188.142 156.078 193.015 156.078 198.196C156.078 203.38 154.061 208.254 150.4 211.916C146.742 215.581 141.87 217.6 136.695 217.6C131.52 217.6 126.652 215.581 122.993 211.916C119.329 208.254 117.312 203.38 117.312 198.196C117.312 193.884 118.73 189.798 121.31 186.431L104.315 162.827C97.4336 167.325 89.5057 169.584 81.5715 169.584C70.9168 169.584 60.262 165.524 52.1517 157.405C35.9312 141.164 35.9312 114.74 52.1517 98.4986C66.2823 84.3495 88.1359 82.5392 104.257 93.0421L121.275 69.5243C118.717 66.1664 117.312 62.0973 117.312 57.807C117.312 52.6229 119.332 47.7495 122.993 44.084C126.652 40.4186 131.52 38.4 136.695 38.4C141.87 38.4 146.742 40.4186 150.4 44.084C154.061 47.7495 156.078 52.6229 156.078 57.807C156.078 62.988 154.061 67.8614 150.4 71.5236C150.25 71.6774 150.08 71.812 149.923 71.9626L163.855 98.505L177.583 94.2628C177.352 93.0709 177.23 91.8502 177.23 90.607C177.23 85.426 179.25 80.5527 182.912 76.8904C190.468 69.3224 202.765 69.3224 210.321 76.8904C217.875 84.452 217.875 96.762 210.321 104.33C206.541 108.111 201.581 110.004 196.616 110.004C194.302 110.004 191.998 109.549 189.806 108.729L179.474 128.268L188 144.509C195.256 140.895 204.282 142.029 210.321 148.072ZM84.7721 124.746H100.775V131.154H84.7721V147.175H78.3709V131.154H62.368V124.746H78.3709V108.726H84.7721V124.746Z" fill="white"/>
</g>
<defs>
<linearGradient id="paint0_linear_159_22" x1="0" y1="25600" x2="25600" y2="0" gradientUnits="userSpaceOnUse">
<stop stop-color="#4D27A8"/>
<stop offset="1" stop-color="#A166FF"/>
</linearGradient>
</defs>
</svg>
