<svg width="256" height="256" viewBox="0 0 256 256" fill="none" xmlns="http://www.w3.org/2000/svg">
<path d="M196 0H60C26.8629 0 0 26.8629 0 60V196C0 229.137 26.8629 256 60 256H196C229.137 256 256 229.137 256 196V60C256 26.8629 229.137 0 196 0Z" fill="#F4F2ED"/>
<path d="M164.065 106.233L129.471 86.2597C128.605 85.7598 127.538 85.7598 126.672 86.2597L92.0772 106.233C91.2121 106.732 90.6777 107.656 90.6777 108.656V148.602C90.6777 149.601 91.2121 150.525 92.0772 151.026L126.672 170.999C127.538 171.499 128.605 171.499 129.471 170.999L164.065 151.026C164.931 150.526 165.464 149.602 165.464 148.602V108.656C165.463 107.656 164.93 106.732 164.065 106.233Z" fill="#8080F2"/>
<path d="M38.1265 124.426L79.4601 52.5178C80.9616 49.9179 83.7351 48 86.7373 48H169.406C172.409 48 175.183 49.9179 176.684 52.5178L218.018 124.268C219.519 126.869 219.519 130.151 218.018 132.751L176.684 204.071C175.183 206.671 172.409 208 169.406 208H86.7379C83.7357 208 80.9616 206.711 79.4609 204.11L38.1272 132.674C36.6244 130.075 36.6244 127.026 38.1265 124.426ZM72.3531 159.005C72.3531 160.062 72.9895 161.04 73.9059 161.569L126.556 191.946C127.471 192.474 128.619 192.474 129.534 191.946L182.225 161.569C183.141 161.04 183.781 160.063 183.781 159.005V98.2513C183.781 97.1937 183.15 96.2166 182.234 95.6872L129.586 65.3107C128.67 64.7814 127.524 64.7814 126.609 65.3107L73.9144 95.6872C72.998 96.2166 72.3531 97.1937 72.3531 98.2513V159.005Z" fill="#4B32C3"/>
</svg>
