<svg width="256" height="256" viewBox="0 0 256 256" xmlns="http://www.w3.org/2000/svg">
<rect width="256" height="256" rx="60" fill="#F4F2ED"/>
<path fill="#8080F2" d="M165.09 104.33L129.437 82.61C128.999 82.3424 128.501 82.2016 127.994 82.2016C127.488 82.2016 126.99 82.3424 126.551 82.61L90.8982 104.33C90.4597 104.597 90.0954 104.981 89.8418 105.443C89.5883 105.905 89.4545 106.43 89.4539 106.964V150.404C89.4539 151.49 90.0055 152.495 90.8982 153.041L126.551 174.761C127.444 175.304 128.542 175.304 129.437 174.761L165.09 153.041C165.983 152.498 166.532 151.493 166.532 150.404V106.964C166.532 105.875 165.983 104.873 165.09 104.327V104.33Z"/>
<path fill="#4B32C3" d="M35.2919 124.115L77.8937 45.914C79.4403 43.085 82.3005 41 85.3939 41H170.595C173.691 41 176.548 43.085 178.098 45.914L220.697 123.944C221.457 125.348 221.856 126.938 221.856 128.555C221.856 130.172 221.457 131.762 220.697 133.166L178.098 210.728C176.548 213.554 173.691 215 170.595 215H85.3939C82.3005 215 79.4403 213.599 77.8937 210.77L35.2947 133.082C34.5344 131.724 34.1333 130.175 34.1333 128.597C34.1333 127.019 34.5344 125.47 35.2947 124.112L35.2919 124.115ZM70.5669 161.717C70.5669 162.869 71.2236 163.931 72.1676 164.507L126.432 197.54C127.376 198.116 128.559 198.116 129.503 197.54L183.807 164.507C184.751 163.931 185.41 162.869 185.41 161.717V95.648C185.41 94.499 184.759 93.434 183.818 92.858L129.551 59.831C129.084 59.5484 128.555 59.3996 128.017 59.3996C127.479 59.3996 126.95 59.5484 126.483 59.831L72.1732 92.861C71.2293 93.437 70.564 94.502 70.564 95.651V161.72L70.5669 161.717Z"/>
</svg>