<svg width="256" height="256" viewBox="0 0 256 256" fill="none" xmlns="http://www.w3.org/2000/svg">
<path d="M196 0H60C26.8629 0 0 26.8629 0 60V196C0 229.137 26.8629 256 60 256H196C229.137 256 256 229.137 256 196V60C256 26.8629 229.137 0 196 0Z" fill="#242938"/>
<path d="M119.66 116.774C119.66 124.311 113.553 130.408 106.026 130.408C98.4939 130.408 92.4038 124.312 92.4038 116.774C92.4038 109.269 98.4948 103.149 106.026 103.149C113.553 103.149 119.66 109.269 119.66 116.774Z" fill="#419EDA"/>
<path d="M137.277 116.774C137.277 124.311 143.385 130.408 150.912 130.408C158.437 130.408 164.538 124.312 164.538 116.774C164.538 109.266 158.437 103.146 150.912 103.146C143.385 103.146 137.277 109.266 137.277 116.774Z" fill="#419EDA"/>
<path d="M230.05 131.552C229.068 131.634 228.082 131.672 227.034 131.672C220.955 131.672 215.058 130.247 209.737 127.636C211.509 117.474 212.262 107.236 212.065 97.0362C206.296 88.6924 199.703 80.8197 192.262 73.5668C195.49 67.5132 200.263 62.3046 206.221 58.6113L208.78 57.0297L206.786 54.7815C196.515 43.2156 184.256 34.2735 170.358 28.2059L167.586 27L166.882 29.9296C165.225 36.7572 161.761 42.9164 157.005 47.8595C147.863 43.0006 138.314 39.0736 128.466 36.0991C118.641 39.067 109.109 42.9828 99.9711 47.8343C95.2346 42.8977 91.7787 36.7535 90.1279 29.9455L89.4194 27.0168L86.658 28.2171C72.9346 34.1968 60.3385 43.381 50.2354 54.775L48.2359 57.0278L50.7916 58.6094C56.7312 62.2887 61.4911 67.4664 64.7142 73.4873C57.2949 80.7122 50.7094 88.5597 44.9455 96.8651C44.7212 107.061 45.4363 117.373 47.2161 127.675C41.9215 130.262 36.0567 131.672 30.0181 131.672C28.9581 131.672 27.9663 131.633 27.0025 131.553L24 131.324L24.2814 134.322C25.7527 149.488 30.4621 163.914 38.2862 177.202L39.8136 179.795L42.1066 177.849C47.4208 173.341 53.8418 170.356 60.6694 169.153C65.1703 178.356 70.5051 187.003 76.5568 195.031C86.2131 198.408 96.2741 200.929 106.664 202.429C107.661 209.301 106.867 216.408 104.156 222.979L103.013 225.764L105.953 226.411C113.48 228.067 121.075 228.91 128.511 228.91L151.062 226.411L154.005 225.764L152.859 222.974C150.155 216.402 149.362 209.287 150.358 202.414C160.707 200.913 170.731 198.398 180.352 195.031C186.409 186.996 191.748 178.344 196.257 169.129C203.106 170.325 209.563 173.311 214.91 177.832L217.203 179.775L218.723 177.189C226.561 163.884 231.27 149.459 232.719 134.317L233 131.325L230.05 131.552ZM160.74 168.205C150.071 171.107 139.236 172.572 128.466 172.572C117.666 172.572 106.845 171.108 96.1666 168.205C90.3083 159.103 85.6765 149.351 82.3431 139.084C79.0237 128.865 77.0813 118.159 76.5176 107.136C83.4134 98.6094 91.2553 91.1406 99.9197 84.8533C108.724 78.4491 118.303 73.2462 128.466 69.3323C138.612 73.2471 148.173 78.4426 156.957 84.8196C165.655 91.1406 173.531 98.6674 180.461 107.247C179.87 118.208 177.904 128.852 174.579 139.054C171.254 149.319 166.608 159.102 160.74 168.205Z" fill="#419EDA"/>
</svg>
