<svg width="256" height="256" viewBox="0 0 256 256" fill="none" xmlns="http://www.w3.org/2000/svg">
<path d="M196 0H60C26.8629 0 0 26.8629 0 60V196C0 229.137 26.8629 256 60 256H196C229.137 256 256 229.137 256 196V60C256 26.8629 229.137 0 196 0Z" fill="#F4F2ED"/>
<path opacity="0.6" d="M127.506 102.107L66 130.069L127.506 166.439L189.034 130.069L127.506 102.107Z" fill="black"/>
<path opacity="0.45" d="M66.0234 130.046L127.529 166.416V28L66.0234 130.046Z" fill="black"/>
<path opacity="0.8" d="M127.528 28V166.416L189.034 130.046L127.528 28Z" fill="black"/>
<path opacity="0.45" d="M66 141.713L127.506 228.4V178.061L66 141.713Z" fill="black"/>
<path opacity="0.8" d="M127.506 178.061V228.4L189.057 141.713L127.506 178.061Z" fill="black"/>
</svg>
