<svg width="256" height="256" viewBox="0 0 256 256" fill="none" xmlns="http://www.w3.org/2000/svg">
<g clip-path="url(#clip0_186_219)">
<mask id="mask0_186_219" style="mask-type:luminance" maskUnits="userSpaceOnUse" x="0" y="0" width="256" height="256">
<path d="M196 0H60C26.8629 0 0 26.8629 0 60V196C0 229.137 26.8629 256 60 256H196C229.137 256 256 229.137 256 196V60C256 26.8629 229.137 0 196 0Z" fill="white"/>
</mask>
<g mask="url(#mask0_186_219)">
<path d="M256 0H0V256H256V0Z" fill="url(#paint0_linear_186_219)"/>
</g>
<path fill-rule="evenodd" clip-rule="evenodd" d="M172.102 210.8C165.244 210.8 159.663 205.19 159.663 198.291C159.663 191.392 165.244 185.782 172.102 185.782C178.959 185.782 184.54 191.392 184.54 198.291C184.54 205.19 178.959 210.8 172.102 210.8ZM144.824 156.4H111.753L95.2153 127.6L111.753 98.8H144.824L161.359 127.6L144.824 156.4ZM88.7874 69.4176C81.93 69.4176 76.3485 63.808 76.3485 56.9088C76.3485 50.0096 81.93 44.4 88.7874 44.4C95.6481 44.4 101.23 50.0096 101.23 56.9088C101.23 63.808 95.6481 69.4176 88.7874 69.4176ZM172.102 179.382C169.74 179.382 167.488 179.84 165.403 180.643L151.889 157.712L151.176 158.138L167.79 129.2C168.356 128.208 168.356 126.992 167.79 126L149.416 94C148.847 93.008 147.797 92.4 146.661 92.4H113.226L113.357 92.3232L100.965 71.2928C105.013 67.824 107.594 62.6656 107.594 56.9088C107.594 46.4832 99.158 38 88.7874 38C78.4201 38 69.9843 46.4832 69.9843 56.9088C69.9843 67.3344 78.4201 75.8176 88.7874 75.8176C91.1518 75.8176 93.4047 75.36 95.489 74.5568L107.056 94.1824L88.7843 126C88.2178 126.992 88.2178 128.208 88.7843 129.2L107.161 161.2C107.731 162.192 108.781 162.8 109.917 162.8H146.661C146.925 162.8 147.182 162.758 147.431 162.698L159.927 183.907C155.876 187.376 153.298 192.534 153.298 198.291C153.298 208.717 161.731 217.2 172.102 217.2C182.472 217.2 190.905 208.717 190.905 198.291C190.905 187.866 182.472 179.382 172.102 179.382ZM191.07 102.333C184.213 102.333 178.634 96.7232 178.634 89.824C178.634 82.9248 184.213 77.3152 191.07 77.3152C197.928 77.3152 203.509 82.9248 203.509 89.824C203.509 96.7232 197.928 102.333 191.07 102.333ZM214.373 126L202.293 104.96C206.885 101.507 209.873 96.016 209.873 89.824C209.873 79.3984 201.441 70.9152 191.07 70.9152C188.432 70.9152 185.918 71.4688 183.637 72.464L173.788 55.3088C173.222 54.32 172.168 53.7088 171.032 53.7088H131.584V60.1088H169.196L178.307 75.9808C174.603 79.4368 172.27 84.3552 172.27 89.824C172.27 100.25 180.703 108.733 191.07 108.733C193.002 108.733 194.87 108.435 196.626 107.888L207.945 127.6L192.053 155.274L197.565 158.474L214.373 129.2C214.942 128.208 214.942 126.992 214.373 126ZM68.3328 176.39C61.4722 176.39 55.8907 170.778 55.8907 163.882C55.8907 156.982 61.4722 151.373 68.3328 151.373C75.1903 151.373 80.7717 156.982 80.7717 163.882C80.7717 170.778 75.1903 176.39 68.3328 176.39ZM78.7256 179.626C83.7883 176.234 87.1359 170.445 87.1359 163.882C87.1359 153.456 78.7001 144.973 68.3328 144.973C65.3289 144.973 62.5 145.702 59.9797 146.966L48.8583 127.6L67.2859 95.5072L61.7713 92.3072L42.4272 126C41.8576 126.992 41.8576 128.208 42.4272 129.2L54.8152 150.768C51.5471 154.173 49.5265 158.79 49.5265 163.882C49.5265 174.307 57.9623 182.79 68.3328 182.79C69.8952 182.79 71.4067 182.576 72.861 182.211L83.0119 199.891C83.5815 200.88 84.6316 201.491 85.7676 201.491H125.219V195.091H87.6037L78.7256 179.626Z" fill="white"/>
<path fill-rule="evenodd" clip-rule="evenodd" d="M172.102 210.8C165.244 210.8 159.663 205.19 159.663 198.291C159.663 191.392 165.244 185.782 172.102 185.782C178.959 185.782 184.54 191.392 184.54 198.291C184.54 205.19 178.959 210.8 172.102 210.8ZM144.824 156.4H111.753L95.2153 127.6L111.753 98.8H144.824L161.359 127.6L144.824 156.4ZM88.7874 69.4176C81.93 69.4176 76.3485 63.808 76.3485 56.9088C76.3485 50.0096 81.93 44.4 88.7874 44.4C95.6481 44.4 101.23 50.0096 101.23 56.9088C101.23 63.808 95.6481 69.4176 88.7874 69.4176ZM172.102 179.382C169.74 179.382 167.488 179.84 165.403 180.643L151.889 157.712L151.176 158.138L167.79 129.2C168.356 128.208 168.356 126.992 167.79 126L149.416 94C148.847 93.008 147.797 92.4 146.661 92.4H113.226L113.357 92.3232L100.965 71.2928C105.013 67.824 107.594 62.6656 107.594 56.9088C107.594 46.4832 99.158 38 88.7874 38C78.4201 38 69.9843 46.4832 69.9843 56.9088C69.9843 67.3344 78.4201 75.8176 88.7874 75.8176C91.1518 75.8176 93.4047 75.36 95.489 74.5568L107.056 94.1824L88.7843 126C88.2178 126.992 88.2178 128.208 88.7843 129.2L107.161 161.2C107.731 162.192 108.781 162.8 109.917 162.8H146.661C146.925 162.8 147.182 162.758 147.431 162.698L159.927 183.907C155.876 187.376 153.298 192.534 153.298 198.291C153.298 208.717 161.731 217.2 172.102 217.2C182.472 217.2 190.905 208.717 190.905 198.291C190.905 187.866 182.472 179.382 172.102 179.382ZM191.07 102.333C184.213 102.333 178.634 96.7232 178.634 89.824C178.634 82.9248 184.213 77.3152 191.07 77.3152C197.928 77.3152 203.509 82.9248 203.509 89.824C203.509 96.7232 197.928 102.333 191.07 102.333ZM214.373 126L202.293 104.96C206.885 101.507 209.873 96.016 209.873 89.824C209.873 79.3984 201.441 70.9152 191.07 70.9152C188.432 70.9152 185.918 71.4688 183.637 72.464L173.788 55.3088C173.222 54.32 172.168 53.7088 171.032 53.7088H131.584V60.1088H169.196L178.307 75.9808C174.603 79.4368 172.27 84.3552 172.27 89.824C172.27 100.25 180.703 108.733 191.07 108.733C193.002 108.733 194.87 108.435 196.626 107.888L207.945 127.6L192.053 155.274L197.565 158.474L214.373 129.2C214.942 128.208 214.942 126.992 214.373 126ZM68.3328 176.39C61.4722 176.39 55.8907 170.778 55.8907 163.882C55.8907 156.982 61.4722 151.373 68.3328 151.373C75.1903 151.373 80.7717 156.982 80.7717 163.882C80.7717 170.778 75.1903 176.39 68.3328 176.39ZM78.7256 179.626C83.7883 176.234 87.1359 170.445 87.1359 163.882C87.1359 153.456 78.7001 144.973 68.3328 144.973C65.3289 144.973 62.5 145.702 59.9797 146.966L48.8583 127.6L67.2859 95.5072L61.7713 92.3072L42.4272 126C41.8576 126.992 41.8576 128.208 42.4272 129.2L54.8152 150.768C51.5471 154.173 49.5265 158.79 49.5265 163.882C49.5265 174.307 57.9623 182.79 68.3328 182.79C69.8952 182.79 71.4067 182.576 72.861 182.211L83.0119 199.891C83.5815 200.88 84.6316 201.491 85.7676 201.491H125.219V195.091H87.6037L78.7256 179.626Z" fill="white"/>
</g>
<defs>
<linearGradient id="paint0_linear_186_219" x1="0" y1="25600" x2="25600" y2="0" gradientUnits="userSpaceOnUse">
<stop stop-color="#B0084D"/>
<stop offset="1" stop-color="#FF4F8B"/>
</linearGradient>
<clipPath id="clip0_186_219">
<rect width="256" height="256" fill="white"/>
</clipPath>
</defs>
</svg>
