<svg width="256" height="256" viewBox="0 0 256 256" fill="none" xmlns="http://www.w3.org/2000/svg" id="expo">
<style>
#expo {
    rect {fill: #242938}
    path {fill: #F2F2F2}

    @media (prefers-color-scheme: light) {
        rect {fill: #F4F2ED}
        path {fill: #131313}
    }
}
</style>
<rect width="256" height="256" rx="60" fill="#242938"/>
<path d="M122.961 103.86C124.607 101.455 126.401 101.152 127.857 101.152C129.313 101.152 131.731 101.455 133.378 103.86C146.291 121.484 167.611 156.602 183.341 182.518C193.603 199.404 201.481 212.383 203.101 214.033C209.168 220.231 217.488 216.368 222.324 209.336C227.082 202.416 228.399 197.554 228.399 192.371C228.399 188.838 159.43 61.3888 152.488 50.7796C145.815 40.5785 143.631 38 132.208 38H123.645C112.249 38 110.602 40.5785 103.92 50.7796C96.978 61.3888 28 188.838 28 192.363C28 197.554 29.326 202.416 34.0927 209.336C38.9287 216.368 47.2487 220.231 53.3153 214.024C54.9273 212.374 62.8053 199.404 73.0667 182.509C88.7967 156.602 110.047 121.484 122.969 103.852L122.961 103.86Z" fill="#F2F2F2"/>
</svg>
