<svg width="256" height="256" viewBox="0 0 256 256" fill="none" xmlns="http://www.w3.org/2000/svg">
<path d="M196 0H60C26.8629 0 0 26.8629 0 60V196C0 229.137 26.8629 256 60 256H196C229.137 256 256 229.137 256 196V60C256 26.8629 229.137 0 196 0Z" fill="#242938"/>
<path d="M135.246 28.05L149.679 28C149.505 32.7303 149.592 37.5943 149.753 42.3271C154.497 42.4158 159.254 42.332 164 42.3215C163.828 47.0527 163.913 51.9147 164.074 56.6482C168.819 56.734 173.576 56.6532 178.321 56.6426C178.149 61.3735 178.234 66.2361 178.396 70.9693C183.141 71.0507 187.896 70.9743 192.642 70.9632C192.471 75.6947 192.555 80.5564 192.716 85.2904C197.462 85.3695 202.217 85.2956 206.963 85.2835C206.797 90.0542 206.956 94.8855 206.956 99.6625C211.718 99.5187 216.519 99.6161 221.284 99.6058C221.195 103.293 221.272 107.002 221.274 110.691L221.305 128.457C219.594 128.262 217.818 128.342 216.098 128.341C213.069 128.333 210.041 128.356 207.013 128.408C206.868 133.186 206.938 137.998 206.984 142.778C203.701 142.391 199.602 142.665 196.232 142.665C190.294 142.665 184.313 142.523 178.381 142.747C178.216 147.516 178.295 152.327 178.342 157.099C176.335 156.904 174.271 156.981 172.254 156.983C169.523 156.962 166.791 156.991 164.061 157.068C163.897 161.838 163.975 166.647 164.021 171.42C162.014 171.225 159.95 171.302 157.933 171.305C155.202 171.284 152.47 171.312 149.739 171.389C149.573 176.158 149.653 180.969 149.7 185.741C147.669 185.549 145.588 185.623 143.548 185.626C140.838 185.605 138.128 185.633 135.418 185.71C135.135 195.236 135.284 204.851 135.379 214.384C130.649 213.858 125.761 214.564 121.009 214.267C121.069 218.609 121.028 222.956 121.029 227.297L121.058 228.705C117.675 228.307 113.354 228.591 109.895 228.592C104.053 228.592 98.1623 228.433 92.3262 228.65L92.321 214.397C87.6953 214.05 82.6492 214.152 78.0045 214.33L78 200.075C73.372 199.732 68.3298 199.831 63.6839 200.009L63.6788 185.754C59.0511 185.411 54.0084 185.509 49.363 185.687L49.3577 171.433C44.7316 171.087 39.6862 171.189 35.0418 171.366C34.9885 161.791 35.3015 152.16 35 142.595C39.7301 142.741 44.6243 142.737 49.3514 142.504C49.3058 137.765 49.4763 133.011 49.3212 128.275C54.0696 128.406 58.9167 128.36 63.6652 128.199C63.6533 123.456 63.7912 118.693 63.6429 113.953C68.3905 114.086 73.2385 114.039 77.9862 113.878C77.9753 109.135 78.1128 104.372 77.9639 99.6321C82.7122 99.7656 87.559 99.7163 92.3073 99.5571C92.2838 94.8133 92.435 90.0519 92.2844 85.311C97.0229 85.4433 101.897 85.4353 106.632 85.2239C106.605 80.4837 106.754 75.7274 106.606 70.9902C111.354 71.1228 116.201 71.0753 120.949 70.9147C120.743 61.4028 121.226 51.8573 120.927 42.3476C125.675 42.4808 130.521 42.4285 135.271 42.2736C135.246 37.5399 135.42 32.7789 135.246 28.05Z" fill="#38352C"/>
<path d="M135.299 42.3682L149.644 42.3795C149.639 47.1182 149.571 51.8662 149.668 56.6038L149.718 56.6771C154.466 56.7219 159.218 56.629 163.965 56.7004L163.96 71.0142C168.733 71.012 173.515 70.9527 178.286 71.0217L178.281 85.3353C183.054 85.333 187.836 85.2729 192.607 85.3428L192.601 99.7635L192.596 113.982L178.275 113.988L178.27 142.639L163.961 142.629L163.949 156.96L149.641 156.954L149.628 171.281L135.318 171.271L135.308 185.602L120.998 185.597L120.989 199.912L106.718 199.909C106.536 201.514 106.661 203.256 106.664 204.872L106.667 214.232L92.3382 214.241L92.3462 199.921C87.5744 199.852 82.79 199.918 78.0171 199.92L78.0251 185.6C73.2533 185.53 68.469 185.597 63.6961 185.599L63.704 171.279C58.9319 171.21 54.1479 171.276 49.375 171.278L49.381 157.03L49.3774 142.614L63.6946 142.625L63.6929 128.295L78.0165 128.292L78.0142 113.973L92.3376 113.971L92.3353 99.6518L106.66 99.6444V85.3307L120.985 85.3393L120.977 71.0098L135.312 71.024C135.08 66.3289 135.3 61.4972 135.303 56.7888L135.299 42.3682Z" fill="#DAD0B4"/>
<path d="M163.97 114.017C168.711 113.857 173.529 113.91 178.275 113.988L178.27 142.639L163.961 142.629L163.949 156.96L149.641 156.954L149.628 171.281L135.318 171.271L135.308 185.602L120.998 185.596L120.989 199.912L106.718 199.909C106.538 198.243 106.677 196.409 106.68 194.728C106.685 191.683 106.642 188.628 106.75 185.586L120.991 185.589L120.979 156.872C116.275 157.28 111.399 156.844 106.667 156.959C106.646 152.189 106.654 147.418 106.689 142.648L135.309 142.606L135.304 156.93C140.06 157.08 144.871 156.945 149.633 156.946C149.574 147.375 149.717 137.8 149.602 128.23C144.902 128.49 140.052 128.282 135.338 128.285C135.316 123.538 135.324 118.792 135.363 114.045C138.517 113.876 141.758 114.014 144.922 114.017H163.97Z" fill="#BDB49F"/>
<path d="M135.299 42.3682L149.643 42.3795C149.638 47.1182 149.57 51.8662 149.667 56.6038L149.717 56.6771C154.465 56.7219 159.217 56.629 163.965 56.7004L163.959 71.0142C168.732 71.012 173.514 70.9527 178.286 71.0217L178.28 85.3353C183.053 85.333 187.835 85.2729 192.606 85.3428L192.6 99.7635L192.595 113.982L178.274 113.988C173.528 113.91 168.71 113.857 163.97 114.018L163.953 99.6661C159.198 99.5424 154.405 99.6524 149.647 99.6558L149.632 85.345C149.566 82.1245 149.63 78.8948 149.64 75.6732C149.644 74.1626 149.778 72.5134 149.553 71.0245L135.311 71.024C135.079 66.3289 135.3 61.4972 135.302 56.7888L135.299 42.3682Z" fill="#BDB49F"/>
<path d="M149.717 56.6766C154.465 56.7214 159.217 56.6285 163.964 56.6999L163.959 71.0137C168.732 71.0115 173.514 70.9522 178.285 71.0212L178.28 85.3348C183.053 85.3325 187.835 85.2724 192.606 85.3423L192.6 99.763C190.748 99.59 188.858 99.6622 187 99.6616L178.273 99.6731L178.256 85.3205C173.5 85.45 168.711 85.3457 163.952 85.3531L163.935 70.9995C159.183 71.1111 154.404 71.0332 149.651 71.0028C149.505 68.3093 149.627 65.5419 149.621 62.8409C149.617 61.0661 149.325 58.3505 149.717 56.6766Z" fill="#DAD0B4"/>
<path d="M135.299 42.3682L149.643 42.3795C149.638 47.1182 149.571 51.8662 149.667 56.6038C145.461 57.249 139.536 56.1995 135.302 56.7888L135.299 42.3682Z" fill="#DAD0B4"/>
<path d="M163.953 99.6664C168.721 99.667 173.502 99.6 178.269 99.6779C178.266 104.424 178.085 109.25 178.274 113.988C173.528 113.911 168.71 113.857 163.97 114.018L163.953 99.6664Z" fill="#38352C"/>
<path d="M149.632 85.3449C154.4 85.3455 159.181 85.2767 163.948 85.3563C163.944 90.0938 163.734 94.94 163.953 99.666C159.198 99.5422 154.405 99.6522 149.646 99.6557L149.632 85.3449Z" fill="#38352C"/>
<path d="M49.381 157.029C51.218 156.855 53.1259 156.937 54.9719 156.938L63.7155 156.956L63.7103 171.283C68.4856 171.257 73.2608 171.256 78.036 171.278L78.0314 185.604C82.8038 185.562 87.5853 185.547 92.3571 185.599L106.75 185.586C106.642 188.628 106.686 191.684 106.68 194.728C106.678 196.409 106.538 198.243 106.718 199.909C106.536 201.514 106.661 203.256 106.664 204.872L106.667 214.232L92.3382 214.241L92.3462 199.921C87.5744 199.852 82.79 199.918 78.0171 199.92L78.0251 185.6C73.2533 185.53 68.469 185.597 63.6961 185.599L63.704 171.279C58.9319 171.21 54.1479 171.276 49.375 171.278L49.381 157.029Z" fill="#958E7C"/>
<path d="M92.3571 185.599L106.75 185.586C106.642 188.628 106.686 191.684 106.68 194.728C106.678 196.409 106.538 198.243 106.718 199.909C101.964 199.719 97.1152 199.888 92.3525 199.926L92.3571 185.599Z" fill="#BDB49F"/>
<path d="M120.985 85.3392C121.08 90.1012 120.85 94.881 121.002 99.6402C116.239 99.6654 111.419 99.8138 106.66 99.6442V85.3306L120.985 85.3392Z" fill="#BDB49F"/>
<path d="M63.6942 142.625C63.7031 147.388 63.5638 152.197 63.7151 156.956L54.9715 156.938C53.1255 156.937 51.2176 156.855 49.3806 157.029L49.377 142.614L63.6942 142.625Z" fill="#BDB49F"/>
<path d="M63.7151 156.956C68.4823 156.951 73.2604 157.01 78.0265 156.935C78.023 161.705 77.9102 166.511 78.0356 171.277C73.2604 171.255 68.4852 171.257 63.71 171.283L63.7151 156.956Z" fill="#BDB49F"/>
<path d="M78.0358 171.277C82.8048 171.272 87.5794 171.315 92.3477 171.257C92.3443 176.027 92.2315 180.832 92.3569 185.599C87.5851 185.546 82.8036 185.562 78.0312 185.604L78.0358 171.277Z" fill="#BDB49F"/>
<path d="M135.312 71.0239L149.554 71.0245C149.778 72.5133 149.645 74.1625 149.64 75.6731C149.63 78.8948 149.566 82.1245 149.633 85.345C144.877 85.2224 140.085 85.3313 135.326 85.3341L135.312 71.0239Z" fill="#38352C"/>
<path d="M92.3311 128.292C97.0759 128.493 101.912 128.305 106.666 128.284L106.679 142.598C101.915 142.743 97.1126 142.633 92.3448 142.639L92.3311 128.292Z" fill="#BDB49F"/>
<path d="M121.018 99.6826C125.774 99.5852 130.55 99.6631 135.309 99.6419L135.323 113.958C130.553 114.071 125.76 113.991 120.988 113.996C120.959 109.225 120.969 104.454 121.018 99.6826Z" fill="#BDB49F"/>
<path d="M192.595 113.982L206.918 113.989L206.911 128.332C202.139 128.297 197.367 128.289 192.595 128.309L192.595 113.982Z" fill="#958E7C"/>
</svg>
