<svg width="256" height="256" viewBox="0 0 256 256" fill="none" xmlns="http://www.w3.org/2000/svg">
<g clip-path="url(#clip0_35_25)">
<path d="M196 0H60C26.8629 0 0 26.8629 0 60V196C0 229.137 26.8629 256 60 256H196C229.137 256 256 229.137 256 196V60C256 26.8629 229.137 0 196 0Z" fill="#242938"/>
<g clip-path="url(#clip1_35_25)">
<mask id="mask0_35_25" style="mask-type:luminance" maskUnits="userSpaceOnUse" x="30" y="23" width="196" height="210">
<path d="M226 23H30V233H226V23Z" fill="white"/>
</mask>
<g mask="url(#mask0_35_25)">
<path fill-rule="evenodd" clip-rule="evenodd" d="M38.0512 167.881L35.232 179.1C34.1581 182.696 32.6814 188.017 31.8759 192.764C30.3992 196.935 29.8622 201.538 30.2649 205.997C30.6677 210.456 32.0101 214.771 34.1581 218.655C36.306 222.538 39.3937 225.702 42.8841 228.148C46.3745 230.593 50.4019 232.031 54.5635 232.606C58.4567 233.182 62.8868 233.182 67.7197 232.463L90.2733 229.155C95.9114 228.292 100.61 223.977 102.087 217.935L117.794 156.661L38.0512 167.881Z" fill="url(#paint0_linear_35_25)"/>
<path d="M60.069 170.743C36.3074 174.77 31.3403 193.9 31.3403 193.9L54.1622 104.003L173.373 86.7426L157.129 150.03C156.324 153.483 153.639 156.072 150.283 156.503L149.612 156.647L59.2636 170.743H60.069Z" fill="url(#paint1_linear_35_25)"/>
<path d="M60.069 170.743C36.3074 174.77 31.3403 193.9 31.3403 193.9L54.1622 104.003L173.373 86.7426L157.129 150.03C156.324 153.483 153.639 156.072 150.283 156.503L149.612 156.647L59.2636 170.743H60.069Z" fill="url(#paint2_linear_35_25)" fill-opacity="0.8"/>
<path d="M73.6244 113.493L205.589 92.6368C207.066 92.3492 208.542 91.6299 209.75 90.623C210.959 89.4726 211.764 88.0341 212.167 86.452L225.86 33.6641C226.263 32.3697 226.263 30.9313 225.994 29.6368C225.726 28.3422 225.189 27.0477 224.249 26.0409C223.444 25.034 222.37 24.171 221.162 23.7395C219.953 23.308 218.611 23.0203 217.403 23.308L91.2107 43.0135C84.4984 44.1641 78.323 47.3286 73.3559 52.219C68.3888 57.1094 64.7642 63.2943 62.8847 70.3422L44.7614 140.822C48.3861 126.582 50.6683 117.952 73.6244 113.493Z" fill="url(#paint3_linear_35_25)"/>
<path d="M73.6244 113.493L205.589 92.6368C207.066 92.3492 208.542 91.6299 209.75 90.623C210.959 89.4726 211.764 88.0341 212.167 86.452L225.86 33.6641C226.263 32.3697 226.263 30.9313 225.994 29.6368C225.726 28.3422 225.189 27.0477 224.249 26.0409C223.444 25.034 222.37 24.171 221.162 23.7395C219.953 23.308 218.611 23.0203 217.403 23.308L91.2107 43.0135C84.4984 44.1641 78.323 47.3286 73.3559 52.219C68.3888 57.1094 64.7642 63.2943 62.8847 70.3422L44.7614 140.822C48.3861 126.582 50.6683 117.952 73.6244 113.493Z" fill="url(#paint4_linear_35_25)"/>
<path d="M73.6244 113.493L205.589 92.6368C207.066 92.3492 208.542 91.6299 209.75 90.623C210.959 89.4726 211.764 88.0341 212.167 86.452L225.86 33.6641C226.263 32.3697 226.263 30.9313 225.994 29.6368C225.726 28.3422 225.189 27.0477 224.249 26.0409C223.444 25.034 222.37 24.171 221.162 23.7395C219.953 23.308 218.611 23.0203 217.403 23.308L91.2107 43.0135C84.4984 44.1641 78.323 47.3286 73.3559 52.219C68.3888 57.1094 64.7642 63.2943 62.8847 70.3422L44.7614 140.822C48.3861 126.582 50.6683 117.952 73.6244 113.493Z" fill="url(#paint5_linear_35_25)" fill-opacity="0.4"/>
<path d="M73.628 113.473C54.565 117.212 49.7321 123.829 46.6444 134.041L31.3403 194.021C31.3403 194.021 36.1732 175.034 59.8006 170.863L149.746 156.767L150.417 156.623C152.028 156.336 153.505 155.617 154.713 154.466C155.921 153.315 156.727 151.733 157.264 150.151L170.688 98.0826L73.628 113.473Z" fill="url(#paint6_linear_35_25)"/>
<path d="M73.628 113.473C54.565 117.212 49.7321 123.829 46.6444 134.041L31.3403 194.021C31.3403 194.021 36.1732 175.034 59.8006 170.863L149.746 156.767L150.417 156.623C152.028 156.336 153.505 155.617 154.713 154.466C155.921 153.315 156.727 151.733 157.264 150.151L170.688 98.0826L73.628 113.473Z" fill="url(#paint7_linear_35_25)" fill-opacity="0.2"/>
<path fill-rule="evenodd" clip-rule="evenodd" d="M59.7992 170.888C39.9307 174.341 33.3526 188.436 31.8759 192.752C30.3992 196.923 29.8622 201.525 30.2649 205.984C30.6677 210.443 32.0101 214.758 34.1581 218.642C36.306 222.525 39.3937 225.69 42.8841 228.135C46.3745 230.58 50.4019 232.018 54.5635 232.594C58.4567 233.169 62.8868 233.169 67.7197 232.45L90.2733 229.142C95.9114 228.279 100.61 223.963 102.087 217.923L116.317 162.114L59.7992 170.888Z" fill="url(#paint8_linear_35_25)"/>
</g>
</g>
</g>
<defs>
<linearGradient id="paint0_linear_35_25" x1="73.8921" y1="233.007" x2="73.8921" y2="156.67" gradientUnits="userSpaceOnUse">
<stop offset="0.056" stop-color="#2AAC94"/>
<stop offset="0.155" stop-color="#239C87"/>
<stop offset="0.372" stop-color="#177E71"/>
<stop offset="0.588" stop-color="#0E6961"/>
<stop offset="0.799" stop-color="#095D57"/>
<stop offset="1" stop-color="#085954"/>
</linearGradient>
<linearGradient id="paint1_linear_35_25" x1="147.878" y1="193.432" x2="73.9027" y2="118.322" gradientUnits="userSpaceOnUse">
<stop offset="0.042" stop-color="#ABE88E"/>
<stop offset="0.549" stop-color="#2AAA92"/>
<stop offset="0.906" stop-color="#117865"/>
</linearGradient>
<linearGradient id="paint2_linear_35_25" x1="-6.2788" y1="170.199" x2="60.096" y2="149.065" gradientUnits="userSpaceOnUse">
<stop stop-color="#6AD6F9"/>
<stop offset="1" stop-color="#6AD6F9" stop-opacity="0"/>
</linearGradient>
<linearGradient id="paint3_linear_35_25" x1="44.7724" y1="81.8888" x2="219.099" y2="81.8888" gradientUnits="userSpaceOnUse">
<stop offset="0.043" stop-color="#25FFD4"/>
<stop offset="0.874" stop-color="#55DDB9"/>
</linearGradient>
<linearGradient id="paint4_linear_35_25" x1="51.0209" y1="41.4195" x2="211.734" y2="111.077" gradientUnits="userSpaceOnUse">
<stop stop-color="#6AD6F9"/>
<stop offset="0.23" stop-color="#60E9D0"/>
<stop offset="0.651" stop-color="#6DE9BB"/>
<stop offset="0.994" stop-color="#ABE88E"/>
</linearGradient>
<linearGradient id="paint5_linear_35_25" x1="60.4356" y1="64.9403" x2="146.336" y2="82.6814" gradientUnits="userSpaceOnUse">
<stop stop-color="white" stop-opacity="0"/>
<stop offset="0.459" stop-color="white"/>
<stop offset="1" stop-color="white" stop-opacity="0"/>
</linearGradient>
<linearGradient id="paint6_linear_35_25" x1="100.882" y1="149.234" x2="103.196" y2="85.0926" gradientUnits="userSpaceOnUse">
<stop offset="0.205" stop-color="#063D3B" stop-opacity="0"/>
<stop offset="0.586" stop-color="#063D3B" stop-opacity="0.237"/>
<stop offset="0.872" stop-color="#063D3B" stop-opacity="0.75"/>
</linearGradient>
<linearGradient id="paint7_linear_35_25" x1="26.1895" y1="130.983" x2="99.4886" y2="143.851" gradientUnits="userSpaceOnUse">
<stop stop-color="white" stop-opacity="0"/>
<stop offset="0.459" stop-color="white"/>
<stop offset="1" stop-color="white" stop-opacity="0"/>
</linearGradient>
<linearGradient id="paint8_linear_35_25" x1="78.4243" y1="211.503" x2="62.1908" y2="137.364" gradientUnits="userSpaceOnUse">
<stop offset="0.064" stop-color="#063D3B" stop-opacity="0"/>
<stop offset="0.17" stop-color="#063D3B" stop-opacity="0.135"/>
<stop offset="0.562" stop-color="#063D3B" stop-opacity="0.599"/>
<stop offset="0.85" stop-color="#063D3B" stop-opacity="0.9"/>
<stop offset="1" stop-color="#063D3B"/>
</linearGradient>
<clipPath id="clip0_35_25">
<rect width="256" height="256" fill="white"/>
</clipPath>
<clipPath id="clip1_35_25">
<rect width="196" height="210" fill="white" transform="translate(30 23)"/>
</clipPath>
</defs>
</svg>
