<svg width="256" height="256" viewBox="0 0 256 256" fill="none" xmlns="http://www.w3.org/2000/svg">
<g clip-path="url(#clip0_186_287)">
<mask id="mask0_186_287" style="mask-type:luminance" maskUnits="userSpaceOnUse" x="0" y="0" width="256" height="256">
<path d="M196 0H60C26.8629 0 0 26.8629 0 60V196C0 229.137 26.8629 256 60 256H196C229.137 256 256 229.137 256 196V60C256 26.8629 229.137 0 196 0Z" fill="white"/>
</mask>
<g mask="url(#mask0_186_287)">
<path d="M256 0H0V256H256V0Z" fill="url(#paint0_linear_186_287)"/>
</g>
<path fill-rule="evenodd" clip-rule="evenodd" d="M166.4 178.874V163.366L176 159.526V175.034L166.4 178.874ZM150.4 159.526L160 163.366V178.874L150.4 175.034V159.526ZM131.2 201.274V185.766L140.8 181.926V197.434L131.2 201.274ZM115.2 181.926L124.8 185.766V201.274L115.2 197.434V181.926ZM96 178.874V163.366L105.6 159.526V175.034L96 178.874ZM80 159.526L89.6 163.366V178.874L80 175.034V159.526ZM92.8 151.846L100.186 154.8L92.8 157.754L85.4144 154.8L92.8 151.846ZM128 174.246L135.386 177.2L128 180.154L120.614 177.2L128 174.246ZM163.2 151.846L170.586 154.8L163.2 157.754L155.814 154.8L163.2 151.846ZM180.387 151.827L164.387 145.427C163.626 145.126 162.774 145.126 162.013 145.427L146.013 151.827C144.797 152.317 144 153.491 144 154.8V173.754L129.187 167.827C128.426 167.526 127.574 167.526 126.813 167.827L112 173.754V154.8C112 153.491 111.203 152.317 109.987 151.827L93.9872 145.427C93.2256 145.126 92.3744 145.126 91.6128 145.427L75.6128 151.827C74.3968 152.317 73.6 153.491 73.6 154.8V177.2C73.6 178.509 74.3968 179.683 75.6128 180.173L91.6128 186.573C91.9936 186.723 92.3968 186.8 92.8 186.8C93.2032 186.8 93.6064 186.723 93.9872 186.573L108.8 180.646V199.6C108.8 200.909 109.597 202.083 110.813 202.573L126.813 208.973C127.194 209.123 127.597 209.2 128 209.2C128.403 209.2 128.806 209.123 129.187 208.973L145.187 202.573C146.403 202.083 147.2 200.909 147.2 199.6V180.646L162.013 186.573C162.394 186.723 162.797 186.8 163.2 186.8C163.603 186.8 164.006 186.723 164.387 186.573L180.387 180.173C181.603 179.683 182.4 178.509 182.4 177.2V154.8C182.4 153.491 181.603 152.317 180.387 151.827ZM208 113.002C208 131.706 166.781 141.802 128 141.802C89.2192 141.802 48 131.706 48 113.002C48 104.07 57.904 96.208 75.888 90.8608L77.712 96.9952C63.3312 101.27 54.4 107.405 54.4 113.002C54.4 123.597 84.624 135.402 128 135.402C171.376 135.402 201.6 123.597 201.6 113.002C201.6 107.405 192.669 101.27 178.288 96.9952L180.112 90.8608C198.096 96.208 208 104.07 208 113.002ZM128 52.6272L160.685 65.2L128 77.7728L95.3152 65.2L128 52.6272ZM161.856 115.894C155.821 118.595 145.69 121.741 131.2 122.163V83.3984L166.4 69.8624V108.874C166.4 111.917 164.621 114.672 161.856 115.894ZM89.6 108.874V69.8624L124.8 83.3984V122.163C110.31 121.741 100.179 118.595 94.1312 115.888C91.3792 114.672 89.6 111.917 89.6 108.874ZM91.5328 121.734C98.576 124.886 110.621 128.646 128 128.646C145.379 128.646 157.424 124.886 164.458 121.741C169.526 119.498 172.8 114.448 172.8 108.874V65.2C172.8 63.8752 171.984 62.688 170.749 62.2112L129.149 46.2112C128.406 45.9296 127.594 45.9296 126.851 46.2112L85.2512 62.2112C84.016 62.688 83.2 63.8752 83.2 65.2V108.874C83.2 114.448 86.4736 119.498 91.5328 121.734Z" fill="white"/>
</g>
<defs>
<linearGradient id="paint0_linear_186_287" x1="0" y1="25600" x2="25600" y2="0" gradientUnits="userSpaceOnUse">
<stop stop-color="#C8511B"/>
<stop offset="1" stop-color="#FF9900"/>
</linearGradient>
<clipPath id="clip0_186_287">
<rect width="256" height="256" fill="white"/>
</clipPath>
</defs>
</svg>
