<svg width="256" height="256" viewBox="0 0 256 256" fill="none" xmlns="http://www.w3.org/2000/svg" id="fastai">
<style>
#fastai {
    path.rect {fill: #242938}

    @media (prefers-color-scheme: light) {
        path.rect {fill: #F4F2ED}
    }
}
</style>
<path d="M196 0H60C26.8629 0 0 26.8629 0 60V196C0 229.137 26.8629 256 60 256H196C229.137 256 256 229.137 256 196V60C256 26.8629 229.137 0 196 0Z" fill="#242938" class="rect"/>
<path d="M106.673 74.6368V53.5605H132.233V28H200.843V74.6368H106.673Z" fill="#54A4A2"/>
<path d="M106.673 151.318V130.242H132.233V104.682H177.525V151.318H106.673Z" fill="#54A4A2"/>
<rect x="81.1123" y="28" width="21.0762" height="21.0762" fill="#86D1D7"/>
<rect x="107.121" y="28" width="21.0762" height="21.0762" fill="#86D1D7"/>
<rect x="56" y="53.5605" width="21.0762" height="21.0762" fill="#86D1D7"/>
<rect x="81.1123" y="79.1211" width="21.0762" height="21.0762" fill="#86D1D7"/>
<rect x="107.121" y="79.1211" width="21.0762" height="21.0762" fill="#86D1D7"/>
<rect x="56" y="104.682" width="21.0762" height="21.0762" fill="#86D1D7"/>
<rect x="107.121" y="104.682" width="21.0762" height="21.0762" fill="#86D1D7"/>
<rect x="56" y="155.803" width="21.0762" height="21.0762" fill="#86D1D7"/>
<rect x="81.1123" y="155.803" width="21.0762" height="21.0762" fill="#86D1D7"/>
<rect x="107.121" y="155.803" width="21.0762" height="21.0762" fill="#86D1D7"/>
<rect x="107.121" y="181.363" width="21.0762" height="21.0762" fill="#86D1D7"/>
<rect x="107.121" y="206.924" width="21.0762" height="21.0762" fill="#86D1D7"/>
<rect x="81.1123" y="206.924" width="21.0762" height="21.0762" fill="#86D1D7"/>
</svg>
