<svg width="256" height="256" viewBox="0 0 256 256" fill="none" xmlns="http://www.w3.org/2000/svg" id="fastlane">
<style>
#fastlane {
    rect {fill: #242938}

    @media (prefers-color-scheme: light) {
        rect {fill: #F4F2ED}
    }
}
</style>
<rect width="256" height="256" fill="#242938" rx="60"/>
<path d="M197.087 82.537C188.726 82.537 181.147 85.8612 175.583 91.2526L140.301 65.9877C140.521 65.0651 140.65 64.1072 140.65 63.1166C140.65 56.2877 135.114 50.751 128.284 50.751C121.455 50.751 115.918 56.2877 115.918 63.1166C115.918 69.9463 121.455 75.4823 128.284 75.4823C130.676 75.4823 132.901 74.7916 134.793 73.6166L177.983 105.048C181.351 98.0245 188.777 92.5557 197.087 92.5557C208.626 92.5557 217.982 101.91 217.982 113.45C217.982 122.672 212.008 130.499 203.719 133.271L206.554 142.887C218.996 138.889 228 127.221 228 113.45C228 96.3776 214.16 82.537 197.087 82.537Z" fill="#0A7BFF"/>
<path d="M97.973 52.5077C95.4488 60.4545 96.3199 68.6639 99.7644 75.5819L65.0925 101.493C64.2816 101.005 63.4097 100.594 62.4683 100.294C55.9761 98.2319 49.0409 101.823 46.9792 108.316C44.9167 114.808 48.5081 121.743 54.9995 123.805C61.4917 125.867 68.4269 122.276 70.4894 115.784C71.2113 113.511 71.2269 111.187 70.6808 109.034L113.604 77.4663C107.944 72.1444 104.988 63.4327 107.496 55.5334C110.982 44.5631 122.7 38.4944 133.671 41.9795C142.437 44.7639 148.073 52.8069 148.206 61.5241L158.204 61.7327C158.16 48.6975 149.787 36.6139 136.696 32.4553C120.466 27.2998 103.128 36.2772 97.973 52.5077Z" fill="#EB3D00"/>
<path d="M40.7064 136.069C47.433 140.978 55.4674 142.775 63.0846 141.739L76.7627 182.618C76.0486 183.225 75.3877 183.914 74.8104 184.703C70.8338 190.153 72.065 197.822 77.5604 201.832C83.0557 205.842 90.7338 204.674 94.7104 199.224C98.6877 193.774 97.4565 186.106 91.9612 182.096C90.0369 180.692 87.8447 179.936 85.6385 179.764L69.1861 129.321C62.3869 132.949 53.2267 132.953 46.54 128.074C37.2548 121.298 35.1744 108.34 41.8939 99.1307C47.2642 91.7713 56.6283 89.0331 64.9119 91.687L68.2307 82.3487C55.8908 78.2338 41.8509 82.2588 33.8322 93.2479C23.8908 106.873 26.9681 126.045 40.7064 136.069Z" fill="#00BCD4"/>
<path d="M198.976 184.11C196.429 176.227 190.969 170.097 184.164 166.501L197.364 125.493C198.306 125.418 199.253 125.246 200.192 124.943C206.665 122.852 210.226 115.935 208.146 109.496C206.066 103.056 199.132 99.5306 192.658 101.622C186.185 103.713 182.623 110.629 184.703 117.069C185.432 119.324 186.764 121.21 188.454 122.635L171.818 172.989C179.502 174.013 186.948 179.342 189.479 187.178C192.995 198.06 186.977 209.746 176.039 213.28C167.297 216.104 158.058 212.867 152.906 205.899L144.653 211.518C152.234 222.026 166.037 226.945 179.09 222.728C195.274 217.499 204.177 200.21 198.976 184.11Z" fill="#86C351"/>
<path d="M103.213 217.188C109.92 212.281 114.049 205.166 115.348 197.575L158.483 197.135C158.849 198.004 159.307 198.848 159.888 199.643C163.897 205.122 171.588 206.313 177.067 202.305C182.545 198.297 183.737 190.606 179.729 185.127C175.72 179.648 168.03 178.456 162.551 182.465C160.633 183.869 159.252 185.727 158.424 187.781L105.326 187.916C106.747 195.527 103.999 204.273 97.3328 209.151C88.075 215.924 75.0789 213.91 68.3054 204.652C62.8929 197.254 63.0922 187.469 68.114 180.38L60.1953 174.329C52.5609 184.839 52.1859 199.484 60.2679 210.532C70.289 224.23 89.5164 227.209 103.213 217.188Z" fill="#9032E9"/>
</svg>
