<svg width="256" height="256" viewBox="0 0 256 256" fill="none" xmlns="http://www.w3.org/2000/svg" id="fedora">
<style>
#fedora {
    rect {fill: #242938}

    @media (prefers-color-scheme: light) {
        rect {fill: #F4F2ED}
    }
}
</style>
<rect width="256" height="256" fill="#242938" rx="60"/>
<path d="M226 128.504C226 74.658 182.349 31 128.496 31C74.6434 31 31.0366 74.6214 31 128.438V203.889C31.0293 216.105 40.9386 226 53.1696 226H128.54C182.371 225.978 226 182.342 226 128.504Z" fill="#294172"/>
<path d="M157.126 54.085C131.909 54.085 111.388 74.6067 111.388 99.823V124.102H87.2112C61.9875 124.102 41.4731 144.624 41.4731 169.84C41.4731 195.056 61.9875 215.578 87.2112 215.578C112.435 215.578 132.949 195.056 132.949 169.84V145.561H157.126C182.349 145.561 202.864 125.047 202.864 99.823C202.864 74.5993 182.342 54.085 157.126 54.085ZM111.556 169.84C111.556 183.265 100.636 194.185 87.2112 194.185C73.7864 194.185 62.8664 183.265 62.8664 169.84C62.8664 156.415 73.7864 145.495 87.2112 145.495H111.388V145.561H111.556V169.84ZM157.126 124.168H132.949V124.102H132.781V99.823C132.781 86.3982 143.701 75.4782 157.126 75.4782C170.55 75.4782 181.47 86.3982 181.47 99.823C181.47 113.248 170.55 124.168 157.126 124.168Z" fill="#3C6EB4"/>
<path d="M167.233 55.4692C163.681 54.539 160.956 54.1069 157.126 54.1069C131.851 54.1069 111.366 74.5993 111.366 99.8669V124.124H92.1993C86.2229 124.124 81.3965 128.818 81.3965 134.787C81.3965 140.713 86.1717 145.429 92.0821 145.429H107.953C109.835 145.429 111.366 146.96 111.366 148.835V169.825C111.344 183.147 100.534 193.943 87.2117 193.943C82.7001 193.943 81.5796 193.35 78.5035 193.35C72.0291 193.35 67.7007 197.686 67.7007 203.655C67.7007 208.591 71.9339 212.831 77.1046 214.186C80.6567 215.117 83.3812 215.549 87.2117 215.549C112.487 215.549 132.972 195.056 132.972 169.789V145.532H152.138C158.115 145.532 162.941 140.837 162.941 134.868C162.941 128.943 158.166 124.226 152.256 124.226H136.392C134.51 124.226 132.979 122.696 132.979 120.821V99.8303C133.001 86.5081 143.811 75.7126 157.133 75.7126C161.645 75.7126 162.765 76.3058 165.849 76.3058C172.323 76.3058 176.652 71.97 176.652 66.001C176.652 61.0647 172.418 56.8241 167.248 55.4692H167.233Z" fill="white"/>
</svg>
