<svg width="256" height="256" viewBox="0 0 256 256" fill="none" xmlns="http://www.w3.org/2000/svg">
<path d="M196 0H60C26.8629 0 0 26.8629 0 60V196C0 229.137 26.8629 256 60 256H196C229.137 256 256 229.137 256 196V60C256 26.8629 229.137 0 196 0Z" fill="#F4F2ED"/>
<path d="M29.6719 73.4354V49.6074L45.6673 55.118V77.2846L29.6719 73.4354Z" fill="#0B4819"/>
<path d="M42.5698 171.392V82.7939L57.8589 86.0284V168.37L42.5698 171.392Z" fill="#0B4819"/>
<path d="M117.35 49.5678L78.0563 94.6336V113.811L136.335 48.0994L228.641 40.9536L92.8646 182.476L110.94 183.428L209.558 82.5594V177.894L198.603 188.193L226.388 189.694V216.079L139.232 209.329L183.66 166.229V144.988L120.143 207.851L44.0869 201.971L166.082 70.7729L146.005 71.8587L57.8585 168.371V86.0293L66.2078 76.1723L45.6665 77.2843V55.1176L117.35 49.5678Z" fill="#105C80"/>
<path d="M42.5698 82.795L51.4129 72.1499L66.2081 76.1725L57.8589 86.0294L42.5698 82.795Z" fill="#0B4819"/>
<path d="M63.9868 91.9937L78.056 94.6329V113.81L63.9868 112.659V91.9937Z" fill="#084010"/>
<path d="M79.7368 186.726L92.8641 182.475L110.94 183.426L99.0124 187.838L79.7368 186.726Z" fill="#0C541E"/>
<path d="M105.861 43.1572L117.35 49.5672L78.056 94.633L63.9868 91.9938L105.861 43.1572Z" fill="#1A5C34"/>
<path d="M63.9868 112.66L126.183 41.438L136.334 48.0998L78.056 113.811L63.9868 112.66Z" fill="#0B4819"/>
<path d="M136.561 67.1162L146.005 71.8583L57.8589 168.37L42.5698 171.392L136.561 67.1162Z" fill="#1A5C34"/>
<path d="M28 207.455L158.155 65.8413L166.082 70.773L44.087 201.971L28 207.455Z" fill="#0B4819"/>
<path d="M177.119 146.406L183.659 144.987L120.142 207.85L108.846 214.299L177.119 146.406Z" fill="#1A5C34"/>
<path d="M177.117 169.495V146.406L183.657 144.987V166.228L177.117 169.495Z" fill="#0B4819"/>
<path d="M129.292 216.025L177.119 169.494L183.659 166.227L139.231 209.327L129.292 216.025Z" fill="#0B4819"/>
<path d="M205.147 182.284L193.275 193.439L198.6 188.191L209.555 177.892L205.147 182.284Z" fill="#13802D"/>
<path d="M99.0122 187.839L205.149 78.458L209.558 82.5591L110.939 183.427L99.0122 187.839Z" fill="#0B4819"/>
<path d="M205.148 78.458L209.557 82.5591V177.894L205.148 182.286V78.458Z" fill="#084010"/>
<path d="M223.432 195.222L226.385 189.691V216.077L223.432 223.998V195.222Z" fill="#084010"/>
<path d="M225.88 33L228.64 40.9536L92.8641 182.476L79.7368 186.727L225.88 33Z" fill="#1A5C34"/>
<path d="M105.861 43.1578L63.9873 91.9944V112.66L126.183 41.4376L225.881 33L79.7374 186.727L99.013 187.839L205.15 78.4583V182.286L193.278 193.442L223.435 195.224V224L129.293 216.027L177.12 169.496V146.407L108.847 214.3L28 207.455L158.155 65.8412L136.56 67.1166L42.5695 171.393V82.7948L51.4127 72.1497L29.6712 73.435V49.607L105.861 43.1578Z" fill="url(#paint0_radial_669_32)"/>
<defs>
<radialGradient id="paint0_radial_669_32" cx="0" cy="0" r="1" gradientUnits="userSpaceOnUse" gradientTransform="translate(67.4408 69.0069) scale(96.7378 96.7378)">
<stop stop-color="white"/>
<stop offset="1" stop-color="#007808"/>
</radialGradient>
</defs>
</svg>
