<svg width="256" height="256" viewBox="0 0 256 256" fill="none" xmlns="http://www.w3.org/2000/svg">
<path d="M196 0H60C26.8629 0 0 26.8629 0 60V196C0 229.137 26.8629 256 60 256H196C229.137 256 256 229.137 256 196V60C256 26.8629 229.137 0 196 0Z" fill="#F4F2ED"/>
<path d="M78.1336 101.597H115.413L113.597 112.318H89.5192L87.7065 123.517H109.412L107.599 134.273H85.8938L82.2652 156.219H69.0669L78.1336 101.597Z" fill="#333333"/>
<path d="M116.017 115.251H129.057L122.243 156.209H109.203L116.017 115.251ZM117.599 104.213C118.136 100.781 121.525 98 125.191 98C128.858 98 131.471 100.781 131.015 104.213C130.56 107.646 127.149 110.452 123.47 110.452C119.791 110.452 117.099 107.623 117.599 104.213Z" fill="#333333"/>
<path d="M135.823 101.597H148.86L145.475 122.264H145.754C147.886 118.503 152.128 114.719 158.607 114.719C167.168 114.719 173.792 121.306 171.378 135.757C169.085 149.702 160.553 156.794 151.486 156.794C145.301 156.794 142.207 153.356 141.249 149.569H140.739L139.673 156.212H126.772L135.823 101.597ZM148.702 146.652C153.501 146.652 156.927 142.359 157.981 135.747C159.034 129.136 157.127 124.919 152.286 124.919C147.513 124.919 144.02 129.053 142.954 135.747C141.875 142.369 143.928 146.652 148.702 146.652Z" fill="#333333"/>
<path d="M172.894 135.896C174.997 123.204 184.384 114.726 196.731 114.726C208.357 114.726 215.291 122.163 213.052 135.63L212.542 138.882H185.266L185.184 139.363C184.358 144.564 186.81 147.588 191.903 147.588C195.291 147.588 198.23 146.149 199.717 143.403L211.609 143.748C208.705 151.802 200.891 157 190.097 157C177.237 156.981 170.679 148.984 172.894 135.896ZM201.638 131.309C202.305 127.123 199.796 124.137 195.532 124.137C191.318 124.137 187.585 127.256 186.652 131.309H201.638Z" fill="#333333"/>
<path d="M219.401 115.251H232.055L230.79 122.717H231.217C233.643 117.304 237.667 114.7 242.147 114.7C243.352 114.708 244.551 114.857 245.722 115.143L243.801 126.503C242.602 126.051 240.388 125.811 238.762 125.811C234.149 125.811 230.147 129.091 229.296 133.969L225.614 156.209H212.577L219.401 115.251Z" fill="#333333"/>
<path d="M70.0729 116.095H27.5202L24.1162 120.926L69.2852 120.901L70.0729 116.095Z" fill="#00ACD7"/>
<path d="M68.5698 126.108H13.502L10 130.92L67.782 130.879L68.5698 126.108Z" fill="#00ACD7"/>
<path d="M67.0668 136.117H43.5395L40.376 140.948L66.279 140.929L67.0668 136.117Z" fill="#00ACD7"/>
</svg>
