<svg fill="none" height="256" viewBox="0 0 256 256" width="256" xmlns="http://www.w3.org/2000/svg" xmlns:xlink="http://www.w3.org/1999/xlink">
<g clip-path="url(#a)">
<path d="m196 0h-136c-33.1371 0-60 26.8629-60 60v136c0 33.137 26.8629 60 60 60h136c33.137 0 60-26.863 60-60v-136c0-33.1371-26.863-60-60-60z" fill="#242938"/>
<g fill="#0073ff">
<path d="m156.138 128h20.1c1.57 0 3.14-1.25 3.14-3.125 0-.313 0-.937-.314-1.25l-34.547-93.75c-.628-.9375-1.57-1.875-2.826-1.875h-20.1c-1.571 0-3.141 1.25-3.141 3.125 0 .3125 0 .625.314.9375l34.861 94.3755c.314.937 1.256 1.562 2.513 1.562z"/>
<path d="m152.683 228h20.1c1.57 0 3.14-1.25 3.14-3.125 0-.313 0-.625-.314-.937l-71.606-194.063c-.314-.9375-1.57-1.875-2.826-1.875h-20.1003c-1.5704 0-3.1407 1.25-3.1407 3.125 0 .3125 0 .625.3141.9375l71.6059 194.0625c.314 1.25 1.571 1.875 2.827 1.875z"/>
<path d="m112.797 228h20.1c1.57 0 2.826-1.25 3.141-2.813 0-.312 0-.937-.315-1.249l-34.86-94.063c-.314-1.25-1.5707-1.875-2.827-1.875h-20.414c-1.5703 0-2.8266 1.562-2.8266 3.125 0 .313 0 .625.3141.937l34.5465 94.063c.942 1.25 1.885 1.875 3.141 1.875z"/>
<path d="m158.65 32.0625 16.331 44.0625c.314 1.25 1.571 1.875 2.827 1.875h19.786c1.57 0 3.14-1.25 3.14-3.125 0-.3125 0-.625-.314-.9375l-16.331-44.0625c-.314-.9375-1.256-1.875-2.512-1.875h-20.1c-1.571 0-3.141 1.25-3.141 3.125 0 .3125 0 .625.314.9375z"/>
<path d="m75.7375 228h20.1c1.5703 0 3.1406-1.25 3.1406-3.125 0-.313 0-.625-.314-.937l-16.3313-44.063c-.3141-1.25-1.5703-1.875-2.8266-1.875h-20.1c-1.5703 0-3.1406 1.25-3.1406 3.125 0 .313 0 .625.3141.937l16.3312 44.063c.3141 1.25 1.5703 1.875 2.8266 1.875z"/>
</g>
</g>
</svg>