<svg width="256" height="256" viewBox="0 0 256 256" fill="none" xmlns="http://www.w3.org/2000/svg">
<path d="M196 0H60C26.8629 0 0 26.8629 0 60V196C0 229.137 26.8629 256 60 256H196C229.137 256 256 229.137 256 196V60C256 26.8629 229.137 0 196 0Z" fill="#1DBF73"/>
<path d="M171.178 82.3595C181.494 82.3595 189.858 73.9963 189.858 63.6798C189.858 53.3632 181.494 45 171.178 45C160.861 45 152.498 53.3632 152.498 63.6798C152.498 73.9963 160.861 82.3595 171.178 82.3595Z" fill="white"/>
<path d="M190.692 94.609H105.183V89.0057C105.183 78.0009 116.188 77.7923 121.791 77.7923C128.222 77.7923 131.135 78.418 131.135 78.418V48.1077C126.589 47.5414 122.013 47.265 117.432 47.2804C99.5799 47.2804 66.5723 52.258 66.5723 90.0416V94.8453H51V122.868H66.5723V182.029H52.0428V210.052H122.194V182.001H105.169V122.841H151.851V182.001H137.343V210.025H205.228V182.001H190.692V94.609Z" fill="white"/>
</svg>
