<svg width="256" height="256" viewBox="0 0 256 256" fill="none" xmlns="http://www.w3.org/2000/svg">
<path d="M196 0H60C26.8629 0 0 26.8629 0 60V196C0 229.137 26.8629 256 60 256H196C229.137 256 256 229.137 256 196V60C256 26.8629 229.137 0 196 0Z" fill="#8800AA"/>
<path d="M134.369 112.669C229.351 94.3623 233 53 233 53C233 53 225.52 181.188 156.106 187.97C68.1419 196.564 55 238 55 238C55 238 78.5237 123.432 134.369 112.669Z" fill="#FF0066"/>
<path d="M77.0154 107.328C157.826 73.3799 150.424 18 150.424 18C150.424 18 195.04 130.978 128.155 157.317C53.4379 186.741 56.7625 237 56.7625 237C56.7625 237 29.5544 127.266 77.0154 107.328Z" fill="#FF6600"/>
<path d="M29.9585 137.011C75.0026 77.6408 64.8711 36 64.8711 36C64.8711 36 122.582 108.333 83.3114 153.134C39.442 203.182 58.5473 238 58.5473 238C58.5473 238 4.12288 171.064 29.9585 137.011Z" fill="#FFCC00"/>
</svg>
