<svg width="256" height="256" viewBox="0 0 256 256" fill="none" xmlns="http://www.w3.org/2000/svg">
<mask id="mask0_17_257" style="mask-type:alpha" maskUnits="userSpaceOnUse" x="0" y="0" width="256" height="256">
<path d="M196 0H60C26.8629 0 0 26.8629 0 60V196C0 229.137 26.8629 256 60 256H196C229.137 256 256 229.137 256 196V60C256 26.8629 229.137 0 196 0Z" fill="#D9D9D9"/>
</mask>
<g mask="url(#mask0_17_257)">
<path fill-rule="evenodd" clip-rule="evenodd" d="M256 25.6V230.4C256 244.529 244.529 256 230.4 256H25.6C11.4714 256 0 244.529 0 230.4V25.6C0 11.4714 11.4714 0 25.6 0H230.4C244.529 0 256 11.4714 256 25.6Z" fill="url(#paint0_linear_17_257)"/>
<path fill-rule="evenodd" clip-rule="evenodd" d="M256 204.107V230.4C256 244.529 244.529 256 230.4 256H182.215L94.9435 168.729C101.877 175.016 110.054 180.426 119.643 184.032C137.283 190.677 159.762 191.306 188.099 179.893L188.256 180.696C188.396 181.595 189.479 182.548 190.946 181.971L195.653 180.137C197.268 179.526 197.278 178.286 197.041 177.482L203.103 175.116C203.784 174.854 205.897 173.221 204.081 170.653H204.063L200.334 164.96C199.775 164.339 198.91 164.104 198.151 164.409L193.365 166.253C192.798 165.624 191.977 165.388 191.173 165.702C189.61 166.313 188.038 166.933 186.475 167.544C185.969 167.736 185.829 168.112 185.925 168.602L186.231 170.094C177.411 171.047 162.504 170.575 149.152 160.087C143.248 155.459 137.712 148.909 133.092 139.748L90.1231 161.646L83.3416 156.14C98.833 148.245 114.334 140.351 129.826 132.456C128.822 129.854 127.844 127.033 124.499 114.414L74.2809 136.888L68.2248 130.832L122.997 106.319C122.211 99.2129 120.064 78.8063 120.15 69.6244V69.6159C120.137 68.6457 120.055 68.1678 119.715 67.8214L256 204.107ZM57.0564 109.164C57.7075 109.76 58.804 109.858 59.9202 109.367L60.3042 109.201C60.6344 110.585 61.0073 112.039 61.4212 113.528L57.0564 109.164Z" fill="#3B808B"/>
<path d="M120.15 69.6243C120.132 68.3494 120.002 67.921 119.321 67.5285C118.674 67.1001 117.696 67.0916 116.762 67.502L53.8855 94.4256C52.9511 94.836 52.0696 95.6569 51.5977 96.5469C51.1266 97.4378 51.0737 98.3808 51.4407 99.0532L56.6895 108.694L56.7586 108.808C57.327 109.708 58.6104 109.943 59.9202 109.367L60.3042 109.201C61.9461 116.082 64.6358 124.693 68.2249 130.832L122.997 106.319C122.211 99.211 120.062 78.7933 120.15 69.6157V69.6243Z" fill="white"/>
<path d="M124.499 114.414L71.7534 138.019C74.8535 143.896 78.6782 150.131 83.3416 156.139C98.833 148.245 114.334 140.351 129.826 132.456C128.822 129.854 127.844 127.033 124.499 114.414Z" fill="white"/>
<path d="M204.063 170.653L200.334 164.96C199.775 164.339 198.91 164.104 198.151 164.409L193.365 166.252C192.798 165.623 191.977 165.388 191.173 165.702C189.61 166.313 188.038 166.933 186.476 167.544C185.969 167.736 185.829 168.112 185.925 168.602L186.231 170.094C177.411 171.046 162.504 170.575 149.152 160.087C143.248 155.459 137.712 148.909 133.092 139.748L88.6248 162.41C96.7553 171.343 106.964 179.264 119.643 184.032C137.284 190.677 159.762 191.306 188.1 179.893L188.257 180.696C188.396 181.595 189.479 182.548 190.946 181.971L195.653 180.137C197.269 179.526 197.278 178.286 197.042 177.482L203.103 175.116C203.784 174.854 205.897 173.221 204.081 170.653H204.063Z" fill="white"/>
</g>
<defs>
<linearGradient id="paint0_linear_17_257" x1="137.006" y1="0" x2="137.006" y2="256" gradientUnits="userSpaceOnUse">
<stop stop-color="#BDDDEB"/>
<stop offset="1" stop-color="#53A9D1"/>
</linearGradient>
</defs>
</svg>
