<svg width="256" height="256" viewBox="0 0 256 256" fill="none" xmlns="http://www.w3.org/2000/svg">
<g id="Fleet" clip-path="url(#clip0_8_438)">
<path id="Vector" d="M196 0H60C26.8629 0 0 26.8629 0 60V196C0 229.137 26.8629 256 60 256H196C229.137 256 256 229.137 256 196V60C256 26.8629 229.137 0 196 0Z" fill="#F4F2ED"/>
<g id="Group">
<path id="Vector_2" d="M150.943 168.526C190.372 168.526 222.336 144.314 222.336 114.448C222.336 84.5816 190.372 60.3701 150.943 60.3701C111.513 60.3701 79.5493 84.5816 79.5493 114.448C79.5493 144.314 111.513 168.526 150.943 168.526Z" fill="url(#paint0_radial_8_438)"/>
<path id="Vector_3" d="M150.943 168.526C190.372 168.526 222.336 144.314 222.336 114.448C222.336 84.5816 190.372 60.3701 150.943 60.3701C111.513 60.3701 79.5493 84.5816 79.5493 114.448C79.5493 144.314 111.513 168.526 150.943 168.526Z" fill="url(#paint1_radial_8_438)"/>
<path id="Vector_4" d="M225 127.5C225 181.348 181.348 225 127.5 225C73.6523 225 30 181.348 30 127.5C30 73.6523 73.6523 30 127.5 30C152.807 41.4549 179.282 84.0778 190.369 97.3976C201.455 110.717 230.152 127.5 216.089 92.2934C222.085 101.809 225 117.598 225 127.5Z" fill="url(#paint2_radial_8_438)"/>
<path id="Vector_5" d="M225 127.5C225 181.348 181.348 225 127.5 225C73.6523 225 30 181.348 30 127.5C30 73.6523 73.6523 30 127.5 30C152.807 41.4549 179.282 84.0778 190.369 97.3976C201.455 110.717 230.152 127.5 216.089 92.2934C222.085 101.809 225 117.598 225 127.5Z" fill="url(#paint3_radial_8_438)"/>
<path id="Vector_6" d="M225 127.5C225 181.348 181.348 225 127.5 225C73.6523 225 30 181.348 30 127.5C30 73.6523 73.6523 30 127.5 30C152.807 41.4549 179.282 84.0778 190.369 97.3976C201.455 110.717 230.152 127.5 216.089 92.2934C222.085 101.809 225 117.598 225 127.5Z" fill="url(#paint4_radial_8_438)"/>
<path id="Vector_7" d="M225 127.5C225 181.348 181.348 225 127.5 225C73.6523 225 30 181.348 30 127.5C30 73.6523 73.6523 30 127.5 30C152.807 41.4549 179.282 84.0778 190.369 97.3976C201.455 110.717 230.152 127.5 216.089 92.2934C222.085 101.809 225 117.598 225 127.5Z" fill="url(#paint5_linear_8_438)"/>
<path id="Vector_8" d="M138.209 200.707C175.116 192.827 200.808 166.645 195.595 142.227C190.381 117.81 156.236 104.403 119.33 112.283C82.4231 120.163 56.7306 146.345 61.944 170.763C67.1573 195.18 101.302 208.587 138.209 200.707Z" fill="url(#paint6_radial_8_438)"/>
<path id="Vector_9" d="M138.209 200.707C175.116 192.827 200.808 166.645 195.595 142.227C190.381 117.81 156.236 104.403 119.33 112.283C82.4231 120.163 56.7306 146.345 61.944 170.763C67.1573 195.18 101.302 208.587 138.209 200.707Z" fill="url(#paint7_linear_8_438)"/>
<path id="Vector_10" fill-rule="evenodd" clip-rule="evenodd" d="M179.274 174.311C188.943 164.458 193.07 153.365 190.906 143.229C188.741 133.093 180.445 124.653 167.595 119.608C154.786 114.578 137.995 113.202 120.331 116.973C102.668 120.744 87.9029 128.858 78.2649 138.68C68.5958 148.534 64.4696 159.626 66.6338 169.762C68.7979 179.898 77.0943 188.339 89.9444 193.384C102.753 198.413 119.544 199.789 137.208 196.019C154.872 192.247 169.637 184.132 179.274 174.311ZM138.209 200.707C175.116 192.828 200.809 166.646 195.596 142.228C190.382 117.81 156.236 104.404 119.33 112.284C82.4235 120.163 56.731 146.346 61.9443 170.764C67.1577 195.18 101.303 208.588 138.209 200.707Z" fill="#D6F8F8" fill-opacity="0.19"/>
</g>
</g>
<defs>
<radialGradient id="paint0_radial_8_438" cx="0" cy="0" r="1" gradientUnits="userSpaceOnUse" gradientTransform="translate(138.975 151.208) rotate(-42.6352) scale(95.5685 126.169)">
<stop offset="0.771266" stop-color="#001AFF"/>
<stop offset="1" stop-color="#8ACEFF"/>
</radialGradient>
<radialGradient id="paint1_radial_8_438" cx="0" cy="0" r="1" gradientUnits="userSpaceOnUse" gradientTransform="translate(164.251 114.448) rotate(-30.5427) scale(52.7663 69.6619)">
<stop offset="0.71875" stop-color="#FA00FF" stop-opacity="0"/>
<stop offset="1" stop-color="#FF00D6" stop-opacity="0.44"/>
</radialGradient>
<radialGradient id="paint2_radial_8_438" cx="0" cy="0" r="1" gradientUnits="userSpaceOnUse" gradientTransform="translate(95.6045 110.674) rotate(49.385) scale(150.607)">
<stop offset="0.0260417" stop-color="#8DFDFD"/>
<stop offset="0.270833" stop-color="#87FBFB"/>
<stop offset="0.484416" stop-color="#74D6F4"/>
<stop offset="0.931964" stop-color="#0038FF"/>
</radialGradient>
<radialGradient id="paint3_radial_8_438" cx="0" cy="0" r="1" gradientUnits="userSpaceOnUse" gradientTransform="translate(118.405 123.784) rotate(137.237) scale(103.261)">
<stop offset="0.266661" stop-color="#0500FF" stop-opacity="0"/>
<stop offset="1" stop-color="#0500FF" stop-opacity="0.15"/>
</radialGradient>
<radialGradient id="paint4_radial_8_438" cx="0" cy="0" r="1" gradientUnits="userSpaceOnUse" gradientTransform="translate(105.805 107.905) rotate(75.1975) scale(160.869)">
<stop offset="0.420095" stop-color="#FF00E5" stop-opacity="0"/>
<stop offset="0.773534" stop-color="#FF00F5" stop-opacity="0.64"/>
<stop offset="0.898911" stop-color="#BE46FF" stop-opacity="0.87"/>
</radialGradient>
<linearGradient id="paint5_linear_8_438" x1="54.0421" y1="150.876" x2="276.465" y2="153.923" gradientUnits="userSpaceOnUse">
<stop offset="0.431832" stop-color="#FE62EE" stop-opacity="0"/>
<stop offset="0.818252" stop-color="#FD3AF5" stop-opacity="0.47"/>
</linearGradient>
<radialGradient id="paint6_radial_8_438" cx="0" cy="0" r="1" gradientUnits="userSpaceOnUse" gradientTransform="translate(110.069 128.369) rotate(83.1476) scale(72.0939 108.968)">
<stop stop-color="#00B2FF"/>
<stop offset="0.57093" stop-color="#74C5FF"/>
<stop offset="0.979167" stop-color="#9FD7FF"/>
</radialGradient>
<linearGradient id="paint7_linear_8_438" x1="121.379" y1="90.3608" x2="134.891" y2="172.615" gradientUnits="userSpaceOnUse">
<stop offset="0.0416667" stop-color="#0038FF"/>
<stop offset="0.723958" stop-color="#48BFF1" stop-opacity="0.59"/>
<stop offset="1" stop-color="#74C5FF" stop-opacity="0"/>
</linearGradient>
<clipPath id="clip0_8_438">
<rect width="256" height="256" fill="white"/>
</clipPath>
</defs>
</svg>
