<svg width="256" height="256" viewBox="0 0 256 256" fill="none" xmlns="http://www.w3.org/2000/svg" id="fleet">
<style>
#fleet {
    path.rect {fill: #242938}

    @media (prefers-color-scheme: light) {
        path.rect {fill: #F4F2ED}
    }
}
</style>
<g id="Fleet">
<path id="Vector" d="M196 0H60C26.8629 0 0 26.8629 0 60V196C0 229.137 26.8629 256 60 256H196C229.137 256 256 229.137 256 196V60C256 26.8629 229.137 0 196 0Z" fill="#242938" class="rect"/>
<g id="Group">
<path id="Vector_2" d="M151.943 168.526C191.372 168.526 223.336 144.314 223.336 114.448C223.336 84.5816 191.372 60.3701 151.943 60.3701C112.513 60.3701 80.5493 84.5816 80.5493 114.448C80.5493 144.314 112.513 168.526 151.943 168.526Z" fill="url(#paint0_radial_8_430)"/>
<path id="Vector_3" d="M151.943 168.526C191.372 168.526 223.336 144.314 223.336 114.448C223.336 84.5816 191.372 60.3701 151.943 60.3701C112.513 60.3701 80.5493 84.5816 80.5493 114.448C80.5493 144.314 112.513 168.526 151.943 168.526Z" fill="url(#paint1_radial_8_430)"/>
<path id="Vector_4" d="M226 127.5C226 181.348 182.348 225 128.5 225C74.6523 225 31 181.348 31 127.5C31 73.6523 74.6523 30 128.5 30C153.807 41.4549 180.282 84.0778 191.369 97.3976C202.455 110.717 231.152 127.5 217.089 92.2934C223.085 101.809 226 117.598 226 127.5Z" fill="url(#paint2_radial_8_430)"/>
<path id="Vector_5" d="M226 127.5C226 181.348 182.348 225 128.5 225C74.6523 225 31 181.348 31 127.5C31 73.6523 74.6523 30 128.5 30C153.807 41.4549 180.282 84.0778 191.369 97.3976C202.455 110.717 231.152 127.5 217.089 92.2934C223.085 101.809 226 117.598 226 127.5Z" fill="url(#paint3_radial_8_430)"/>
<path id="Vector_6" d="M226 127.5C226 181.348 182.348 225 128.5 225C74.6523 225 31 181.348 31 127.5C31 73.6523 74.6523 30 128.5 30C153.807 41.4549 180.282 84.0778 191.369 97.3976C202.455 110.717 231.152 127.5 217.089 92.2934C223.085 101.809 226 117.598 226 127.5Z" fill="url(#paint4_radial_8_430)"/>
<path id="Vector_7" d="M226 127.5C226 181.348 182.348 225 128.5 225C74.6523 225 31 181.348 31 127.5C31 73.6523 74.6523 30 128.5 30C153.807 41.4549 180.282 84.0778 191.369 97.3976C202.455 110.717 231.152 127.5 217.089 92.2934C223.085 101.809 226 117.598 226 127.5Z" fill="url(#paint5_linear_8_430)"/>
<path id="Vector_8" d="M139.209 200.707C176.116 192.827 201.808 166.645 196.595 142.227C191.381 117.81 157.236 104.403 120.33 112.283C83.4231 120.163 57.7306 146.345 62.944 170.763C68.1573 195.18 102.302 208.587 139.209 200.707Z" fill="url(#paint6_radial_8_430)"/>
<path id="Vector_9" d="M139.209 200.707C176.116 192.827 201.808 166.645 196.595 142.227C191.381 117.81 157.236 104.403 120.33 112.283C83.4231 120.163 57.7306 146.345 62.944 170.763C68.1573 195.18 102.302 208.587 139.209 200.707Z" fill="url(#paint7_linear_8_430)"/>
<path id="Vector_10" fill-rule="evenodd" clip-rule="evenodd" d="M180.274 174.311C189.943 164.458 194.07 153.365 191.906 143.229C189.741 133.093 181.445 124.653 168.595 119.608C155.786 114.578 138.995 113.202 121.331 116.973C103.668 120.744 88.9029 128.858 79.2649 138.68C69.5958 148.534 65.4696 159.626 67.6338 169.762C69.7979 179.898 78.0943 188.339 90.9444 193.384C103.753 198.413 120.544 199.789 138.208 196.019C155.872 192.247 170.637 184.132 180.274 174.311ZM139.209 200.707C176.116 192.828 201.809 166.646 196.596 142.228C191.382 117.81 157.236 104.404 120.33 112.284C83.4235 120.163 57.731 146.346 62.9443 170.764C68.1577 195.18 102.303 208.588 139.209 200.707Z" fill="#D6F8F8" fill-opacity="0.19"/>
</g>
</g>
<defs>
<radialGradient id="paint0_radial_8_430" cx="0" cy="0" r="1" gradientUnits="userSpaceOnUse" gradientTransform="translate(139.975 151.208) rotate(-42.6352) scale(95.5685 126.169)">
<stop offset="0.771266" stop-color="#001AFF"/>
<stop offset="1" stop-color="#8ACEFF"/>
</radialGradient>
<radialGradient id="paint1_radial_8_430" cx="0" cy="0" r="1" gradientUnits="userSpaceOnUse" gradientTransform="translate(165.251 114.448) rotate(-30.5427) scale(52.7663 69.6619)">
<stop offset="0.71875" stop-color="#FA00FF" stop-opacity="0"/>
<stop offset="1" stop-color="#FF00D6" stop-opacity="0.44"/>
</radialGradient>
<radialGradient id="paint2_radial_8_430" cx="0" cy="0" r="1" gradientUnits="userSpaceOnUse" gradientTransform="translate(96.6045 110.674) rotate(49.385) scale(150.607)">
<stop offset="0.0260417" stop-color="#8DFDFD"/>
<stop offset="0.270833" stop-color="#87FBFB"/>
<stop offset="0.484416" stop-color="#74D6F4"/>
<stop offset="0.931964" stop-color="#0038FF"/>
</radialGradient>
<radialGradient id="paint3_radial_8_430" cx="0" cy="0" r="1" gradientUnits="userSpaceOnUse" gradientTransform="translate(119.405 123.784) rotate(137.237) scale(103.261)">
<stop offset="0.266661" stop-color="#0500FF" stop-opacity="0"/>
<stop offset="1" stop-color="#0500FF" stop-opacity="0.15"/>
</radialGradient>
<radialGradient id="paint4_radial_8_430" cx="0" cy="0" r="1" gradientUnits="userSpaceOnUse" gradientTransform="translate(106.805 107.905) rotate(75.1975) scale(160.869)">
<stop offset="0.420095" stop-color="#FF00E5" stop-opacity="0"/>
<stop offset="0.773534" stop-color="#FF00F5" stop-opacity="0.64"/>
<stop offset="0.898911" stop-color="#BE46FF" stop-opacity="0.87"/>
</radialGradient>
<linearGradient id="paint5_linear_8_430" x1="55.0421" y1="150.876" x2="277.465" y2="153.923" gradientUnits="userSpaceOnUse">
<stop offset="0.431832" stop-color="#FE62EE" stop-opacity="0"/>
<stop offset="0.818252" stop-color="#FD3AF5" stop-opacity="0.47"/>
</linearGradient>
<radialGradient id="paint6_radial_8_430" cx="0" cy="0" r="1" gradientUnits="userSpaceOnUse" gradientTransform="translate(111.069 128.369) rotate(83.1476) scale(72.0939 108.968)">
<stop stop-color="#00B2FF"/>
<stop offset="0.57093" stop-color="#74C5FF"/>
<stop offset="0.979167" stop-color="#9FD7FF"/>
</radialGradient>
<linearGradient id="paint7_linear_8_430" x1="122.379" y1="90.3608" x2="135.891" y2="172.615" gradientUnits="userSpaceOnUse">
<stop offset="0.0416667" stop-color="#0038FF"/>
<stop offset="0.723958" stop-color="#48BFF1" stop-opacity="0.59"/>
<stop offset="1" stop-color="#74C5FF" stop-opacity="0"/>
</linearGradient>
</defs>
</svg>
