<svg width="256" height="256" viewBox="0 0 256 256" fill="none" xmlns="http://www.w3.org/2000/svg">
<g clip-path="url(#clip0_88_42)">
<path d="M196 0H60C26.8629 0 0 26.8629 0 60V196C0 229.137 26.8629 256 60 256H196C229.137 256 256 229.137 256 196V60C256 26.8629 229.137 0 196 0Z" fill="#E65270"/>
<path d="M154.573 235.577C152.026 235.54 149.484 235.531 146.938 235.531L140.367 235.538C140.367 235.538 121.577 235.529 112.594 235.529C111.185 235.529 109.77 235.536 108.357 235.54C106.945 235.544 105.533 235.551 104.117 235.551C103.234 235.551 102.351 235.549 101.47 235.542C96.126 235.506 91.0177 234.771 86.2898 233.353C67.4551 227.713 53.1959 214.926 43.9 195.352C39.4451 185.97 36.9126 175.473 36.3778 164.164C36.1406 159.134 36.3646 153.98 37.0463 148.846C37.1272 148.234 37.2251 147.622 37.3212 147.006L37.5377 145.605L37.9049 146.019C38.0988 146.239 38.1591 146.467 38.2024 146.64C38.3869 147.323 38.5563 148.017 38.7296 148.704C39.0873 150.137 39.4601 151.62 39.897 153.042C43.0998 163.498 47.9633 173.292 54.7644 183C55.0336 183.384 55.2351 183.808 55.3518 184.22C57.6584 192.346 61.6671 199.365 67.2631 205.101C72.7065 210.678 79.2327 214.855 86.6871 217.538C81.9064 215.197 77.4797 212.204 73.4992 208.612C67.0089 202.752 62.328 195.583 59.5978 187.299C59.3247 186.468 59.095 185.463 59.466 184.351C59.5865 183.972 59.6731 183.58 59.7635 183.186C59.8218 182.914 59.8802 182.643 59.9555 182.373C61.4261 176.872 63.6592 172.557 66.781 169.191C69.692 166.054 73.3975 163.759 78.1123 162.173C82.5146 160.69 87.1088 160.022 91.5506 159.376L93.4561 159.095C95.9415 158.723 98.4646 158.283 100.899 157.852L102.366 157.593C102.912 157.499 103.454 157.363 104.017 157.223L105.386 156.895L105.027 157.596C104.998 157.656 104.976 157.705 104.936 157.757C102.628 160.714 100.694 164 99.182 167.536C99.0558 167.836 98.7809 168.112 98.5154 168.209C98.1878 168.332 97.8621 168.452 97.5363 168.577C96.4989 168.976 95.4294 169.377 94.3411 169.624C93.1699 169.892 91.9705 170.086 90.8087 170.271C89.8786 170.422 88.9503 170.571 88.0239 170.764C84.9134 171.398 82.5033 172.542 80.6844 174.29C81.0835 174.18 81.4959 174.111 81.9007 174.044C82.4637 173.952 83.0436 173.852 83.5746 173.643C86.4423 172.501 89.5905 171.971 93.4843 171.971L94.0097 171.973C94.7063 171.982 95.4049 172.019 96.111 172.057L97.4799 172.122L97.3763 172.508C94.5858 182.949 94.6649 193.193 97.6004 203.015C96.3727 196.354 96.1486 190.168 96.9093 184.188C98.0711 175.048 101.59 167.172 107.371 160.778C111.266 156.466 116.158 152.846 122.317 149.717C127.667 146.995 133.24 145.362 138.488 143.918L139.48 143.64C143.223 142.61 147.096 141.546 150.845 140.285C156.469 138.399 161.357 135.298 165.373 131.053C165.974 130.417 166.66 129.695 167.198 128.898C171.033 123.209 175.505 119.173 180.864 116.557C181.019 116.481 181.194 116.294 181.305 116.08C183.06 112.805 185.163 110.394 187.737 108.702C188.311 108.325 188.882 108.135 189.437 108.135C190.141 108.135 190.845 108.443 191.533 109.042C191.792 109.271 192.03 109.51 192.239 109.754C193.141 110.79 193.862 112.066 194.519 113.76C194.6 113.962 194.673 114.027 194.871 114.055C195.526 114.154 196.198 114.255 196.869 114.406C207.818 116.891 215.438 126.528 216.762 139.565C216.797 139.912 216.82 140.263 216.846 140.612C216.903 141.44 216.963 142.293 217.178 143.063C217.451 144.034 217.857 144.993 218.259 145.909C218.432 146.317 218.613 146.732 218.776 147.148C218.918 147.506 219.066 147.86 219.213 148.213C219.561 149.051 219.915 149.907 220.213 150.784C220.665 152.122 220.719 153.505 220.371 154.895C220.221 155.494 219.904 155.583 219.727 155.583C219.595 155.583 219.452 155.531 219.305 155.428C219.004 155.206 218.722 154.96 218.443 154.706C218.311 154.581 218.174 154.467 218.038 154.35C217.888 154.217 217.741 154.085 217.594 153.945C217.24 153.63 216.914 153.324 216.545 153.094C216.413 153.01 216.274 152.962 216.14 152.962C216.001 152.962 215.867 153.01 215.743 153.103L216.259 153.63C217.18 154.566 218.1 155.503 219.002 156.453C219.192 156.652 219.319 157.018 219.302 157.315C219.194 159.272 218.597 160.895 217.522 162.145C216.242 163.627 214.899 164.347 213.421 164.347C213.105 164.347 212.781 164.313 212.454 164.246C212.395 164.903 212.271 165.149 211.793 165.442C208.769 167.319 205.82 168.232 202.783 168.232L202.308 168.228C200.239 168.228 198.224 168.9 195.967 170.342C195.187 170.836 194.5 171.174 193.86 171.368C191.919 171.958 189.959 172.18 188.185 172.275C188.946 172.396 189.74 172.454 190.593 172.454C191.137 172.454 191.698 172.428 192.303 172.383L192.651 172.342C192.907 172.314 193.167 172.288 193.416 172.288C193.749 172.288 194.024 172.335 194.255 172.445C195.837 173.187 197.385 174.083 198.836 174.932C199.121 175.1 199.326 175.169 199.514 175.169C199.622 175.169 199.721 175.145 199.831 175.1L200.254 174.919C201.047 174.577 201.864 174.223 202.647 173.827C204.504 172.881 206.108 172.435 207.69 172.435C208.113 172.435 208.535 172.471 208.957 172.536C210.04 172.704 211.307 172.988 212.448 173.792C213.011 174.189 213.76 174.85 213.83 176.085C213.834 176.107 213.869 176.18 213.958 176.275C214.097 176.419 214.24 176.557 214.387 176.695C214.534 176.833 214.685 176.977 214.826 177.13C215.711 178.059 216.101 179.236 215.992 180.63C215.956 181.02 215.88 181.934 215.197 181.934C214.992 181.934 214.749 181.847 214.41 181.651C214.271 181.567 214.139 181.5 214.02 181.462C214.355 181.694 214.679 181.929 214.997 182.177C215.752 182.765 216.121 183.666 216.086 184.853C216.014 187.439 213.634 189.887 211.188 189.887C210.898 189.887 210.61 189.847 210.339 189.782C209.618 189.599 208.722 189.254 208.181 188.181C208.164 188.151 208.102 188.103 208.089 188.099L207.673 188.12C207.183 188.142 206.679 188.166 206.21 188.288L206.072 188.325C205.276 188.536 204.457 188.745 203.615 188.745C203.278 188.745 202.966 188.711 202.661 188.644C202.286 188.564 201.915 188.459 201.535 188.351L201.26 188.276C200.827 189.89 200.122 191.405 199.172 192.788C197.042 195.889 194.203 198.072 190.497 199.462C187.812 200.475 184.922 200.981 181.907 200.981C180.324 200.981 178.661 200.845 176.968 200.57C170.292 199.477 165.631 195.322 163.114 188.224C162.688 187.034 162.404 185.772 162.127 184.547C161.994 183.957 161.856 183.354 161.706 182.765C160.915 179.686 159.919 176.971 158.657 174.449C156.366 169.874 153.534 166.614 149.996 164.483C147.168 162.778 144.072 161.914 140.8 161.914C139.429 161.914 137.996 162.063 136.537 162.362C136.241 162.423 135.948 162.496 135.648 162.569C136.678 162.623 137.655 162.688 138.646 162.798C143.223 163.328 147.392 164.937 151.035 167.579C155.993 171.18 159.034 175.654 160.331 181.253C161.058 184.382 162.092 187.498 163.408 190.517C164.168 192.267 165.136 194.292 166.53 196.003C168.501 198.415 171.039 200.063 174.515 201.182C175.466 201.49 176.411 201.824 177.351 202.169C177.87 202.36 178.232 202.772 178.456 203.436C179 205.052 179.136 206.698 178.857 208.325C178.448 210.715 177.456 212.928 175.82 215.09C174.528 216.794 172.926 218.033 171.374 219.234C170.595 219.83 169.862 220.466 169.196 221.119C168.625 221.679 168.33 222.412 168.364 223.184C168.411 224.455 168.493 224.502 168.702 224.502C168.876 224.502 169.147 224.427 169.589 224.263C169.806 224.181 170.02 224.082 170.233 223.974L171.527 223.337C172.265 222.972 172.999 222.606 173.745 222.253C175.357 221.485 176.951 221.089 178.48 221.089C179.299 221.089 180.115 221.201 180.911 221.419C183.775 222.203 185.654 224.149 186.498 227.207C186.722 228.034 186.692 228.741 186.394 229.317C186.198 229.698 185.748 230.017 185.376 230.03C185.029 230.03 184.707 229.679 184.457 229.366C184.319 229.192 184.283 228.963 184.259 228.765C184.248 228.7 184.238 228.631 184.225 228.571C183.971 227.483 183.619 226.772 183.088 226.295C184.037 227.771 184.46 229.349 184.383 231.101C184.306 232.84 183.167 234.053 181.614 234.053C181.551 234.053 181.489 234.049 181.42 234.044C180.83 234.004 180.454 233.639 180.393 233.04C180.352 232.627 180.352 232.2 180.35 231.79C180.35 231.62 180.35 231.45 180.346 231.28C180.343 231.056 180.344 230.838 180.346 230.614C180.346 230.135 180.348 229.685 180.297 229.241C180.181 228.284 179.684 227.638 178.819 227.321C178.759 227.295 178.699 227.278 178.635 227.271C178.896 227.442 179.121 227.677 179.282 228.017C179.603 228.696 179.874 229.314 180.024 229.98C180.408 231.749 180.03 233.129 178.93 233.973C178.36 234.407 177.629 234.568 176.985 234.672C176.724 234.715 176.468 234.728 176.21 234.728C175.247 234.728 174.306 234.469 173.4 234.223L172.937 234.096C172.077 233.872 171.316 233.756 170.583 233.754C169.958 233.754 169.307 233.891 168.678 234.025L168.388 234.085C163.619 235.068 159.329 235.544 155.285 235.544L154.573 235.577Z" fill="#E65270"/>
<path opacity="0.2" d="M193.393 171.876C193.393 171.876 186.362 181.479 174.417 175.977C163.477 170.932 167.467 157.048 167.467 157.048C167.467 157.048 169.405 165.659 175.067 168.922C183.263 173.648 193.393 171.876 193.393 171.876Z" fill="#430A1D"/>
<path opacity="0.2" d="M158.744 175.988C160.267 177.759 160.295 179.571 160.774 181.78C161.675 185.935 162.784 189.542 165.097 192.96C167.32 196.244 169.981 198.567 173.417 200.078C176.394 201.384 180.22 200.998 179.652 206.071L178.655 210.342C171.047 210.342 163.922 206.368 161.018 197.727C158.473 190.146 161.47 180.985 153.756 168.167C154.372 169.031 157.955 175.063 158.744 175.988Z" fill="#430A1D"/>
<g opacity="0.2">
<path d="M155.733 172.221C155.85 172.76 155.953 173.307 156.061 173.853C155.776 173.452 155.629 172.945 155.733 172.221Z" fill="#2B2B2B"/>
</g>
<path d="M67.0918 205.347C38.3945 202.101 35.0166 169.406 35.0166 169.406C35.0166 169.406 33.4575 154.253 37.0953 139.388C39.432 166.433 58.389 185.157 58.389 185.157C58.389 185.157 62.554 200.567 67.0918 205.347Z" fill="url(#paint0_linear_88_42)"/>
<path opacity="0.2" d="M59.9368 192.896C59.9368 192.896 53.9171 193.551 45.8884 182.395C53.629 198.473 63.663 198.8 63.663 198.8L59.9368 192.896Z" fill="#2B2B2B"/>
<path d="M75.4462 211.667C73.9418 181.434 89.4512 195.462 97.4573 179.429C99.7074 165.401 106.459 156.527 106.459 156.527C106.459 156.527 58.4342 146.222 57.681 186.302C59.353 194.98 66.702 203.371 71.3057 207.911C70.4038 205.588 58.9388 169.482 97.1222 172.426C83.9419 171.142 64.9151 186.899 73.9832 210.504C74.8945 211.265 75.4462 211.667 75.4462 211.667Z" fill="url(#paint1_linear_88_42)"/>
<path opacity="0.2" d="M88.4287 168.066C78.5021 172.337 61.6426 172.318 66.4402 201.308C65.672 201.968 61.8365 195.158 62.7931 195.82C58.3795 169.902 78.2046 171.4 88.4287 168.066Z" fill="white"/>
<path opacity="0.6" d="M100.999 157.684C110.653 153.313 102.814 165.704 101.443 167.687C98.2726 172.273 90.2571 170.781 85.9829 172.311C83.5257 173.191 73.6781 174.844 70.4132 185.517C68.9615 190.245 68.4173 197.975 71.5071 207.381C70.7408 208.045 65.6626 201.679 66.6229 202.334C58.4756 160.677 96.9131 175.63 100.999 157.684Z" fill="#8B4FBA"/>
<path d="M196.974 140.673C197.238 139.845 197.686 138.787 198.253 138.162C198.384 138.233 198.528 138.242 198.635 138.319C199.576 137.621 201.062 137.714 202.246 137.714C202.952 137.714 203.986 137.49 204.668 137.794C205.662 138.235 205.549 139.434 205.963 140.341C206.743 142.035 209.147 142.056 209.155 144.45C209.162 145.577 209.409 147.105 209.158 148.209C208.968 149.027 208.17 148.777 207.479 148.777C205.393 148.777 203.308 148.844 201.216 148.844L198.324 146.377C197.552 146.659 196.95 144.806 196.842 144.177C196.671 143.14 196.648 141.703 196.974 140.673Z" fill="#F9E0E7"/>
<path d="M206.624 143.954C206.978 143.789 207.502 143.14 207.718 142.758C207.876 142.485 207.833 142.31 208.17 142.321C209.053 142.349 209.061 143.713 209.015 144.418C208.963 145.319 208.644 146.146 208.53 147.032C208.243 146.95 208.085 146.538 207.761 146.435C207.507 146.349 207.14 146.39 206.871 146.402C206.481 146.422 205.937 146.724 205.583 146.551L206.624 143.954Z" fill="white"/>
<path d="M92.2454 99.6423C92.3772 99.4678 92.413 99.416 92.4525 99.3665C96.2842 95.2721 98.314 90.1045 99.4061 84.3271C100.123 80.5452 99.2103 77.2093 97.7209 73.9489C97.6945 73.895 97.6475 73.8411 97.5966 73.7679C97.2991 74.8324 97.028 75.8775 96.7117 76.9055C95.934 79.4397 94.9926 81.892 93.4976 83.9909C92.9007 84.827 67.8675 100.698 70.4452 135.848C70.4603 136.065 70.4923 136.272 70.5186 136.516C70.9818 136.022 71.3866 135.511 71.8536 135.091C73.52 133.6 75.4424 132.65 77.4515 132.007C81.125 130.835 84.8211 129.758 88.5248 128.721C92.735 127.54 96.9715 126.446 101.037 124.666C103.336 123.661 105.469 122.338 107.51 120.744C110.547 118.365 113.172 115.518 115.431 112.221C116.748 110.301 117.361 108.835 117.955 106.579C118.329 107.736 118.133 110.973 117.569 113.037C116.981 115.169 115.991 117.031 114.699 118.739C115.008 118.627 115.347 118.569 115.624 118.388C119.205 116.052 122.377 113.175 124.72 109.232C126.29 106.59 127.247 103.698 127.38 100.478C127.382 100.433 127.401 100.388 127.412 100.317C128.158 104.267 128.051 110.99 124.161 115.768C125.535 115.214 126.78 114.656 128.051 114.223C129.103 113.865 129.798 113.16 130.378 112.102C132.931 107.478 135.048 102.629 136.192 97.2826C137.079 93.1538 137.299 89.0076 136.307 84.8594C135.181 80.1702 132.707 76.5607 129.34 73.6924C127.002 71.6991 124.422 70.2208 121.715 69.0097C121.551 68.9365 121.387 68.8697 121.225 68.7878C121.199 68.777 121.186 68.7425 121.084 68.6132C122.022 68.9084 122.861 69.1584 123.694 69.4407C127.574 70.7595 131.289 72.4792 134.581 75.2332C137.518 77.6899 139.766 80.7542 140.89 84.7839C141.894 88.3913 141.807 92.0375 141.086 95.6837C140.032 101.002 137.866 105.737 135.232 110.221C135.151 110.363 135.072 110.499 134.995 110.639C134.984 110.658 134.985 110.695 134.97 110.775C135.08 110.727 135.166 110.695 135.245 110.648C140.766 107.417 145.671 103.286 149.58 97.7352C153.376 92.3478 156.136 86.3484 157.45 79.5517C159.102 70.975 157.292 63.3595 152.438 56.6425C149.371 52.3908 145.577 49.1756 141.38 46.5552C135.963 43.1805 130.199 40.9739 124.098 39.9589C120.63 39.3792 117.158 39.2693 113.692 40.0321C111.786 40.4459 110.551 41.0191 108.44 42.4155C108.708 42.1548 108.962 41.8789 109.242 41.644C111.138 39.9955 113.325 39.1443 115.62 38.612C119.416 37.7328 123.244 37.7436 127.072 38.2543C132.999 39.0473 138.648 40.9264 144.001 43.9563C144.524 44.258 145.042 44.5662 145.62 44.9066C145.62 44.3507 145.59 43.8658 145.628 43.3852C145.675 42.6439 146.002 42.2194 146.513 42.1505C146.998 42.0815 147.283 42.2905 147.379 42.8379C147.456 43.3012 147.477 43.7774 147.535 44.2429C147.665 45.3031 148.096 46.2018 148.732 46.9818C148.795 47.0616 148.872 47.1305 148.949 47.1909C148.987 47.2232 149.036 47.221 149.171 47.2512C149.171 46.8698 149.173 46.5185 149.171 46.1694C149.162 45.4605 149.135 44.7493 149.15 44.0404C149.154 43.8658 149.263 43.5857 149.367 43.5512C149.512 43.5059 149.776 43.59 149.868 43.7214C150.111 44.0878 150.372 44.4843 150.482 44.9196C150.725 45.8419 150.836 46.8073 151.086 47.7232C151.254 48.3158 151.515 48.9019 151.845 49.3932C152.205 49.932 152.572 49.8135 152.709 49.154C152.837 48.5377 152.884 47.8977 152.965 47.2685C152.993 47.0508 153.001 46.8267 153.059 46.6241C153.105 46.4496 153.218 46.3052 153.299 46.1436C153.423 46.275 153.607 46.372 153.66 46.5358C153.786 46.9021 153.91 47.2965 153.927 47.6822C153.967 48.5356 153.895 49.3954 153.95 50.2444C153.98 50.697 154.112 51.1797 154.304 51.5719C154.519 52.0093 154.865 51.9576 154.982 51.4685C155.153 50.7702 155.238 50.0483 155.36 49.3351C155.447 48.8523 155.535 48.3718 155.637 47.7813C156.136 48.2683 156.257 48.8092 156.305 49.3329C156.432 50.7271 156.496 52.1279 156.601 53.5243C156.686 54.5716 156.998 55.4917 157.539 56.386C158.52 58.013 159.388 59.7348 160.267 61.4416C160.717 62.3165 161.135 62.3962 161.559 61.4954C162.037 60.4718 162.393 59.3793 162.798 58.3083C162.975 57.8406 163.122 57.3644 163.308 56.9032C163.395 56.6791 163.541 56.4895 163.675 56.2567C164.155 56.6554 164.27 57.1769 164.178 57.6941C164.04 58.472 163.79 59.2284 163.613 59.9977C163.421 60.8382 163.219 61.6764 163.105 62.5341C163.061 62.8789 163.197 63.2926 163.332 63.6267C163.528 64.1115 163.837 64.1697 164.167 63.7904C164.506 63.4069 164.765 62.9392 165.093 62.5492C165.279 62.3251 165.534 62.1893 165.76 62.0126C165.886 62.3272 166.142 62.6548 166.119 62.9565C166.072 63.5965 165.938 64.2494 165.733 64.8485C165.313 66.0661 164.752 67.2254 164.393 68.4602C164.133 69.3567 164.084 70.3372 163.999 71.2875C163.975 71.5202 164.146 71.9318 164.306 71.9986C164.474 72.0654 164.805 71.8758 164.954 71.6883C165.637 70.8307 166.279 69.9234 166.951 69.0421C167.113 68.8222 167.334 68.6671 167.526 68.4775C167.592 68.5162 167.654 68.5464 167.722 68.5874C167.656 69.0852 167.674 69.6239 167.516 70.0872C167.245 70.8565 166.914 71.6129 166.53 72.3133C165.921 73.4274 165.227 74.4725 164.605 75.5715C163.453 77.6037 162.689 79.8233 162.212 82.1851C161.866 83.8832 161.378 85.5446 160.949 87.2147C160.9 87.4216 160.832 87.622 160.826 87.8526C161.201 87.1695 161.568 86.4713 161.956 85.7903C162.768 84.3594 163.703 83.0449 164.961 82.0967C165.594 81.6226 166.274 81.196 166.982 80.8986C170.621 79.3664 174.3 77.942 177.769 75.9444C178.755 75.369 179.699 74.6772 180.597 73.9273C181.734 72.9835 182.152 71.6668 181.813 70.0721C181.576 68.9645 181.339 67.859 181.092 66.7061C180.505 67.7793 179.985 68.8136 179.394 69.7834C178.802 70.7531 178.068 71.5763 176.978 72.1301C177.078 71.9168 177.104 71.8241 177.155 71.7487C178.684 69.3373 179.563 66.5962 180.247 63.7581C180.316 63.465 180.237 63.1116 180.192 62.7949C179.879 60.7261 180.03 58.653 180.111 56.5778C180.132 56.1662 180.132 55.7374 180.079 55.328C180.056 55.1383 179.923 54.9013 179.781 54.8302C179.685 54.7806 179.435 54.9314 179.35 55.0629C178.998 55.6275 178.607 56.1813 178.371 56.8041C177.424 59.3232 176.518 61.8639 175.613 64.3981C174.487 67.5638 173.22 70.6367 171.284 73.2787C170.408 74.4747 169.414 75.5155 168.19 76.2417C167.959 76.3775 167.708 76.4874 167.447 76.5822C169.339 74.3432 169.763 71.5095 169.847 68.6111C169.96 64.9002 169.894 61.1808 169.928 57.4657C169.962 53.4489 170.252 49.4665 171.299 45.5962C171.339 45.4432 171.271 45.2191 171.197 45.0661C170.904 44.4067 170.529 43.7904 170.284 43.1094C169.772 41.6807 169.341 40.2153 168.836 38.778C168.544 37.9332 168.443 37.8707 167.652 37.9354C166.803 38.0043 166.292 37.4462 165.842 36.7545C165.496 36.2308 165.355 36.2437 165.117 36.8579C164.86 37.5259 164.656 38.2134 164.377 38.8706C164.281 39.0947 164.035 39.2413 163.86 39.4223C163.724 39.1939 163.5 38.9698 163.476 38.7262C163.404 37.9311 163.423 37.1294 163.372 36.3321C163.348 35.9356 163.302 35.5348 163.186 35.1641C163.129 34.9896 162.896 34.7999 162.726 34.7849C162.608 34.7741 162.399 35.009 162.348 35.1857C162.174 35.7524 162.075 36.3429 161.917 36.9139C161.792 37.3729 161.611 37.4225 161.372 37.0475C159.631 34.3323 157.309 32.4079 154.824 30.6969C154.089 30.1926 153.37 29.6647 152.641 29.1561C152.591 29.1755 152.54 29.1971 152.493 29.2121C152.587 30.1366 152.683 31.0589 152.773 31.9813C152.707 32.0222 152.641 32.0567 152.577 32.0955C152.346 31.8714 152.082 31.686 151.89 31.4231C151.408 30.7702 150.971 30.0763 150.482 29.4255C149.512 28.1239 148.294 27.193 147.121 26.8848C147.492 28.3394 147.846 29.7164 148.194 31.0977C148.141 31.1301 148.079 31.1559 148.024 31.1839C147.904 31.0115 147.761 30.8521 147.661 30.6646C147.379 30.1366 147.098 29.6108 146.836 29.0678C145.718 26.7512 143.993 25.4151 141.73 25.0423C140.192 24.788 138.631 24.6199 137.081 24.4993C135.944 24.4088 134.85 24.217 133.809 23.6459C133.086 23.2688 132.302 23.008 131.534 22.7171C131.406 22.6654 131.235 22.7279 131.086 22.7387C131.097 22.9262 131.061 23.1438 131.127 23.299C131.489 24.1092 131.882 24.9001 132.246 25.7104C132.379 26.0013 132.466 26.3224 132.572 26.6305C132.536 26.6758 132.502 26.7167 132.468 26.762C132.236 26.6736 131.995 26.6133 131.779 26.4926C130.777 25.9366 129.762 25.413 128.793 24.788C127.806 24.1502 126.719 24.0984 125.652 23.995C122.312 23.6739 119.009 23.9304 115.78 25.0488C113.816 25.7254 112.001 26.7469 110.404 28.3265C110.606 28.3028 110.815 28.3028 111.01 28.2618C112.959 27.8028 114.91 27.3718 116.917 27.4472C118.284 27.4968 119.615 27.7468 120.815 28.5398C121.007 28.6648 121.127 28.9277 121.282 29.1238C121.012 29.2315 120.73 29.4384 120.472 29.3996C119.849 29.3156 119.241 29.0505 118.612 28.9923C116.612 28.7876 114.688 29.3156 112.784 29.9168C108.175 31.3649 104 33.828 100.123 36.998C99.1783 37.7673 98.1973 38.4806 97.2144 39.196C95.3014 40.5881 93.7536 42.3875 92.5297 44.5662C92.3866 44.8248 92.2548 45.1027 92.1626 45.3893C91.9122 46.1867 92.0967 46.8526 92.7538 47.2491C93.2245 47.5335 93.7461 47.7361 94.2677 47.8805C101.157 49.8027 106.288 56.302 107.083 64.3421C107.382 67.3569 107.749 70.3803 107.617 73.4381C107.314 80.4568 105.119 86.5726 101.024 91.7961C98.5889 94.9036 95.7118 97.3753 92.5599 99.4548C92.4977 99.5022 92.4299 99.5324 92.2454 99.6423Z" fill="url(#paint2_linear_88_42)"/>
<path opacity="0.2" d="M180.529 53.0503C177.601 79.2071 167.46 73.2874 160.824 87.8894C160.461 87.3377 159.623 91.8028 161.295 83.5127C162.969 75.214 167.767 78.9614 172.306 69.471C178.055 57.4766 176.908 56.4013 180.529 53.0503Z" fill="#8B4FBA"/>
<path opacity="0.3" d="M150.227 53.5438C149.139 61.0301 139.89 60.6918 131.976 57.5154C123.377 54.0632 105.509 52.9555 104.072 57.0736C103.354 58.0175 101.914 54.1364 101.914 54.1364C101.914 54.1364 115.484 37.1921 138.201 55.076C137.277 53.4296 146.366 48.6111 146.366 48.6111C146.366 48.6111 149.098 47.6587 150.227 53.5438Z" fill="white"/>
<path opacity="0.2" d="M103.159 125.424C103.652 126.825 107.67 125.881 108.047 123.694C102.119 116.009 117.725 101.888 103.332 83.4568C112.748 111.893 92.6973 113.051 103.159 125.424Z" fill="#8B4FBA"/>
<path opacity="0.6" d="M103.159 125.424C103.652 126.825 103.564 126.424 103.938 124.237C98.0109 116.55 113.799 105.342 103.332 83.4564C112.748 111.893 92.6973 113.05 103.159 125.424Z" fill="#8B4FBA"/>
<path d="M124.756 119.812C153.242 85.5079 117.231 91.2551 105.495 67.9709C105.516 67.5701 105.541 67.1822 105.541 66.7706C105.541 63.5339 104.855 60.4868 103.661 57.7845C114.646 76.4312 142.492 59.989 137.085 98.1079C136.597 100.067 132.722 119.384 124.756 119.812Z" fill="url(#paint3_linear_88_42)"/>
<path d="M124.756 119.813C113.029 126.401 102.776 126.595 103.26 124.64C126.561 106.545 107.753 87.8981 103.368 70.3332C103.667 68.9152 105.541 68.3872 105.541 66.7775C105.541 66.6051 105.522 66.4413 105.518 66.2711C105.857 68.0144 106.659 68.62 107.429 69.5035C118.26 82.0065 152.687 86.185 124.756 119.813Z" fill="url(#paint4_linear_88_42)"/>
<path d="M121.084 119.302C139.12 88.4688 105.448 82.6117 105.691 72.8368C103.01 92.9425 135.287 101.549 104.959 125.614C104.475 127.566 109.355 125.892 121.084 119.302Z" fill="#E65271"/>
<path d="M171.485 65.743C172.918 68.482 171.327 71.7144 169.659 74.7421C168.119 77.5392 164.4 76.6234 161.877 83.3662L162.093 78.1124C164.888 72.5376 160.16 64.8638 158.842 59.6769C156.603 50.8416 154.165 42.6894 157.136 33.7248C157.335 33.1236 157.507 32.4642 157.71 31.8457C159.192 33.0977 160.31 34.3455 161.585 36.2483C162.427 37.5111 162.133 32.99 163.24 33.9403C164.055 34.6278 163.201 37.8257 163.978 38.5648C164.846 39.4053 165.372 34.5394 166.001 35.6169C167.471 38.1468 168.315 36.5413 168.942 37.2999C169.508 37.9873 170.834 43.2863 171.369 44.0039C171.89 44.7 172.391 45.4176 172.884 46.1395C172.587 49.9968 171.932 54.3326 170.847 57.8128C169.825 61.0991 169.778 62.4697 171.485 65.743Z" fill="url(#paint5_linear_88_42)"/>
<path d="M131.391 25.4649C131.479 25.5015 131.553 25.5166 131.598 25.5144C132.387 25.4993 129.47 21.3036 130.308 21.3036C131.724 21.3036 133.72 22.9759 135.104 23.0987C138.028 23.3552 141.058 23.2797 143.647 24.6352C146.127 25.9368 147.23 29.9773 147.785 30.1476C148.346 30.3243 146.435 25.4778 146.983 25.6933C147.911 26.051 148.653 26.5768 149.265 27.1586C151.713 31.169 152.51 51.0441 148.915 50.5312C145.142 49.9925 154.869 52.0569 154.908 51.891C158.162 37.8386 150.915 29.1972 151.242 29.6842C151.672 30.3307 152.016 30.8328 152.383 30.9944C153.155 31.3349 151.901 27.6069 152.607 28.1004C154.854 29.6713 156.447 30.779 157.755 31.8952C157.795 31.9599 157.806 32.115 157.87 32.0849C158.836 31.6259 164.786 30.0247 160.258 54.4877C167.134 38.5605 161.751 32.3111 162.278 32.9641C164.72 35.981 165.219 43.3466 165.534 47.7147C165.829 51.8112 163.577 61.1508 160.661 64.2388C158.604 66.411 158.646 63.7216 157.876 61.6443C156.609 58.233 154.285 55.4833 152.176 52.6732C150.606 50.5829 148.7 49.0551 146.974 47.1846C145.093 45.146 144.102 42.2971 142.421 40.0603C140.917 38.0605 139.069 36.468 137.64 34.382C136.036 32.0461 134.965 29.3739 133.195 27.2233C132.634 26.5337 132.005 26.0165 131.391 25.4649Z" fill="#E65271"/>
<path d="M144.577 23.2323C148.78 23.2172 151.419 25.5208 154.895 27.7232C157.776 29.557 161.318 29.5743 163.752 32.0999C166.987 35.4594 168.386 38.7888 168.992 43.7064C169.687 49.305 169.772 56.4422 168.846 62.0213C168.371 64.8831 166.596 70.7489 164.722 72.8413L162.474 71.2035C158.042 58.0993 144.675 52.7227 139.617 39.8447C138.126 36.0542 137.565 31.128 137.529 26.9862C137.49 22.6504 141.515 23.2452 144.577 23.2323Z" fill="url(#paint6_linear_88_42)"/>
<path d="M102.76 55.979C100.316 51.6325 96.4462 48.4367 91.9009 47.2752C90.7448 46.9799 88.6717 46.1568 90.724 43.3316C92.9176 39.4139 96.0696 37.9098 97.7661 36.4703C104.588 30.6735 101.767 30.0808 105.746 29.555C107.301 29.3482 106.891 29.193 107.68 29.555C108.469 29.9171 107.073 29.3008 106.574 28.9236C102.134 25.5598 102.455 32.2703 104.362 30.82C110.046 25.7903 123.136 22.2605 126.806 22.9803C127.339 23.0837 131.028 25.5231 131.594 25.5124C132.383 25.4973 129.469 21.3016 130.306 21.3016C131.719 21.3016 133.718 22.9738 135.102 23.0967C137.966 23.3488 146.674 27.9194 146.61 39.9527C146.592 43.629 146.789 46.2063 146.356 48.6048C143.184 66.2064 111.039 41.5064 102.76 55.979Z" fill="#F6E8A0"/>
<path d="M141.239 45.1288C139.749 42.9997 130.065 39.1618 130.065 39.1618C130.065 39.1618 113.987 32.8198 99.1594 50.8804C106.736 43.9953 120.056 46.8829 129.687 48.1544C130.96 48.3246 126.936 46.8549 127.99 46.4089C131.566 44.8939 134.88 49.1392 138.446 48.3203C140.111 47.941 141.109 46.9066 141.239 45.1288Z" fill="white"/>
<path d="M128.904 42.1483C122.999 40.3684 117.096 42.9737 115.959 43.0534C116.495 42.1333 117.367 40.0106 121.739 39.278C122.745 39.1077 124.759 39.293 125.816 39.2909C127.706 39.2866 128.879 39.8081 130.547 40.7282C131.611 41.3144 134.185 41.9393 135 41.7928C135 41.7928 144.052 42.5729 141.054 46.0854C138.058 49.5958 133.688 41.5579 124.095 44.1287C124.098 43.771 126.29 41.9803 128.904 42.1483Z" fill="#F6E8A0"/>
<path d="M119.954 27.5853C116.224 24.758 109.698 27.1823 108.853 27.1694C108.834 27.0703 108.887 26.9604 109.037 26.8505C114.724 21.8208 123.144 22.269 126.814 22.9888C126.842 22.9931 126.88 23.0082 126.923 23.0254C126.94 23.0319 126.966 23.0427 126.989 23.0534C127.783 23.4025 130.382 25.0769 131.327 25.4454C136.859 29.0334 145.597 36.6102 146.368 48.6133C143.225 47.0143 140.966 45.4563 139.229 43.9392C138.644 43.4285 125.424 27.6133 90.4303 46.6156C90.4303 46.6156 89.4569 46.0036 90.0123 44.5728C97.9149 30.0398 112.342 25.8657 135.319 39.6293C132.059 35.1836 130.482 31.1582 119.954 27.5853Z" fill="#F8D285"/>
<path d="M142.323 109.264C155.283 94.0955 160.565 82.7626 154.291 70.5591C144.131 50.7789 112.841 71.4103 99.2328 51.4555C100.675 53.3411 103.742 57.0756 106.706 58.9116C116.793 66.454 135.778 64.0275 141.828 69.8588C149.614 77.3558 151.6 92.4793 142.323 109.264Z" fill="url(#paint7_linear_88_42)"/>
<path d="M100.099 77.5583C100.084 78.5755 102.118 84.4434 101.799 85.7945C99.0691 97.33 87.2388 102.989 87.2388 102.989C87.2388 102.989 73.9888 109.092 71.8819 136.985C69.4661 138.974 69.8013 134.738 69.8766 132.854C71.3791 96.274 97.9714 100.362 100.099 77.5583Z" fill="url(#paint8_linear_88_42)"/>
<path d="M145.179 138.009C144.961 137.893 144.752 137.744 144.522 137.668C143.362 137.298 142.193 136.957 141.029 136.578C140.662 136.457 140.312 136.266 139.952 136.108C139.956 136.018 139.96 135.929 139.96 135.843C140.38 135.757 140.79 135.606 141.21 135.6C142.88 135.578 144.551 135.604 146.223 135.608C148.584 135.615 150.952 135.602 153.229 134.813C154.34 134.425 155.424 133.843 156.443 133.195C167.2 126.342 174.801 116.313 179.375 103.252C180.311 100.582 181.028 97.8213 181.582 95.0199C181.617 94.8647 181.63 94.7031 181.672 94.4337C181.493 94.5587 181.378 94.619 181.271 94.6988C174.688 99.8599 167.499 103.36 159.655 105.06C156.85 105.665 154.018 105.969 151.163 106.064C150.951 106.07 150.677 106.163 150.536 106.331C146.27 111.309 141.231 114.99 135.795 118.052C131.455 120.494 126.874 121.97 122.163 123.019C116.124 124.362 110.071 125.637 104.032 126.967C96.6156 128.598 89.2365 130.411 82.0665 133.186C77.5174 134.945 73.1114 137.059 69.082 140.086C66.0486 142.371 63.3485 145.069 61.4393 148.661C60.769 149.928 60.2926 151.331 59.7145 152.665C59.6091 152.904 59.498 153.154 59.3361 153.337C55.3368 157.813 53.7608 163.258 54.3746 169.577C54.8303 174.251 56.2933 178.526 58.3796 182.55C58.6262 183.021 58.8352 183.513 59.0292 183.929C59.129 182.909 59.208 181.767 59.3474 180.636C60.2305 173.436 63.469 168.075 68.9822 164.493C72.1888 162.403 75.642 161.022 79.2214 160.117C83.1454 159.125 87.1032 158.291 91.0592 157.47C95.8625 156.477 100.692 155.647 105.362 153.962C106.269 153.637 107.167 153.259 108.06 152.872C109.208 152.378 110.282 151.742 111.282 150.893C114.592 148.103 118.22 145.965 122.042 144.254C122.148 144.209 122.246 144.157 122.349 144.112C122.353 144.094 122.355 144.071 122.37 144.026C122.308 144.019 122.253 144.01 122.197 144.01C117.921 144.008 113.635 144.036 109.359 144.008C105.531 143.98 101.716 144.116 97.9224 144.687C92.6672 145.484 87.5815 147.042 82.6276 149.2C76.7849 151.751 71.2567 155.016 65.8942 158.679C65.7511 158.778 65.6042 158.873 65.4103 158.912C65.512 158.819 65.6042 158.716 65.7022 158.63C71.5712 153.537 77.8205 149.189 84.7138 146.14C89.5152 144.021 94.4691 142.629 99.5906 142.009C104.102 141.463 108.615 141.515 113.131 141.89C117.034 142.215 120.937 142.541 124.846 142.847C125.185 142.879 125.546 142.821 125.876 142.711C129.738 141.366 133.69 140.575 137.68 139.927C140.037 139.545 142.361 138.899 144.697 138.367C144.856 138.328 145.004 138.233 145.155 138.162C145.162 138.115 145.172 138.061 145.179 138.009Z" fill="url(#paint9_linear_88_42)"/>
<path opacity="0.2" d="M73.2808 153.077C88.5793 132.163 128.267 143.125 145.179 138.009C134.473 145.049 125.761 143.834 125.761 143.834C125.761 143.834 89.2158 139.214 73.2808 153.077Z" fill="white"/>
<path d="M190.243 73.7142C189.725 73.8155 189.343 73.8435 188.993 73.9728C187.616 74.4663 186.18 74.8326 184.886 75.5437C183.657 76.2225 182.517 77.1858 181.454 78.1771C179.386 80.0993 177.415 82.1443 175.377 84.0903C173.707 85.6828 171.937 87.1072 169.828 87.8463C169.149 88.0834 168.443 88.2191 167.733 88.3527C170.48 86.7689 172.018 83.9459 173.613 81.0496C173.478 81.0776 173.429 81.0712 173.393 81.0906C169.201 83.4373 165.097 85.9435 161.365 89.191C160.371 90.0595 159.584 91.0464 159.024 92.3933C158.126 94.5353 156.991 96.5502 155.961 98.6146C155.916 98.7073 155.865 98.7978 155.741 99.0456C156.643 98.8279 157.433 98.6836 158.211 98.4573C161.495 97.4962 164.549 95.8692 167.546 94.1021C172.227 91.3287 176.686 88.1222 181.009 84.6807C181.141 84.5773 181.275 84.4781 181.446 84.4178C181.406 84.4803 181.376 84.5493 181.329 84.601C176.198 90.456 170.444 95.2787 163.717 98.4745C160.808 99.8623 157.793 100.787 154.656 101.16C154.539 101.179 154.387 101.22 154.321 101.313C153.622 102.28 152.941 103.259 152.167 104.351C154.082 103.881 155.884 103.47 157.672 102.993C162.681 101.662 167.593 99.9701 172.282 97.5307C175.746 95.7291 179.049 93.6108 181.828 90.5982C185.496 86.6202 188.196 81.9138 189.772 76.4014C190.002 75.5911 190.073 74.7141 190.243 73.7142Z" fill="#E65271"/>
<path opacity="0.6" d="M103.594 126.943C105.079 126.372 106.772 125.666 108.578 124.873C129.864 117.276 136.9 110.941 136.9 110.941L158.284 92.822C158.284 92.822 161.777 95.8842 166.302 91.8803C163.219 96.1148 153.762 99.4097 153.762 99.4097C153.762 99.4097 153.327 102.741 150.243 105.329C158.655 102.056 172.796 102.996 182.606 92.8845C175.187 116.899 156.761 98.593 138.955 113.529C136.9 114.943 109.741 122.886 123.238 122.34C136.735 121.797 145.626 132.339 156.899 128.883C146.319 133.277 136.966 126.239 122.227 125.054C124.52 125.579 127.661 127.025 129 129.001C123.656 124.636 113.2 124.435 110.715 125.433C108.459 125.76 106.088 126.254 103.594 126.943Z" fill="#8B4FBA"/>
<path opacity="0.2" d="M154.654 134.352C139.145 141.403 84.3278 120.979 59.7145 152.665C59.7145 152.665 57.8711 151.721 67.6735 139.147C106.213 118.061 134.895 138.001 154.654 134.352Z" fill="#2B2B2B"/>
<path opacity="0.7" d="M178.637 106.262C183.225 103.308 179.497 110.529 174.91 114.794C156.844 129.232 148.676 112.803 130.76 120.709C158.17 103.416 160.856 124.967 178.637 106.262Z" fill="url(#paint10_radial_88_42)"/>
<path opacity="0.2" d="M177.232 110.363C181.823 107.409 179.497 110.531 174.91 114.798C156.844 129.236 148.676 112.807 130.76 120.713C148.395 109.482 159.456 129.064 177.232 110.363Z" fill="#8B4FBA"/>
<g opacity="0.7">
<path d="M88.0465 102.62C79.6902 111.374 86.2408 130.542 86.2408 130.542L80.2946 132.001C80.2946 132.001 74.2938 113.468 88.0465 102.62Z" fill="url(#paint11_radial_88_42)"/>
<path d="M102.47 87.9345C108.768 100.763 92.0646 118.41 101.033 124.657C100.892 125.5 95.9038 128.361 96.1373 127.534C85.0677 108.094 103.324 103.459 100.927 91.3049C88.1275 111.292 87.99 115.249 94.2092 127.902C94.1339 127.971 93.4504 128.993 92.7688 128.411C83.0436 120.067 80.3059 110.689 102.47 87.9345Z" fill="url(#paint12_radial_88_42)"/>
</g>
<path opacity="0.2" d="M123.052 114.005C123.451 120.013 127.117 110.253 127.672 103.517C128.15 78.3082 105.817 84.4046 104.797 64.0102C102.624 87.2125 126.789 86.7018 123.052 114.005Z" fill="#8B4FBA"/>
<path opacity="0.3" d="M144.705 104.006C145.1 110.014 155.641 94.5505 156.198 87.8162C152.66 44.5643 113.763 70.8697 103.594 54.9317C111.995 72.3911 166.364 48.1049 144.705 104.006Z" fill="white"/>
<path d="M215.875 188.226C215.304 188.799 214.835 189.32 214.32 189.773C213.905 190.133 213.451 190.452 212.985 190.717C211.847 191.346 210.702 191.428 209.554 190.73C207.763 189.644 205.841 189.562 203.881 189.807C203.31 189.876 202.937 190.187 202.676 190.797C200.712 195.421 197.439 198.391 193.34 200.27C192.871 200.485 192.651 200.735 192.568 201.319C192.361 202.791 192.273 204.239 192.578 205.707C193.075 208.053 194.349 209.736 196.069 211.032C197.867 212.389 199.874 213.189 201.945 213.783C204.436 214.488 206.957 214.964 209.531 214.956C210.84 214.954 212.135 214.779 213.393 214.344C216.202 213.372 217.938 211.223 218.575 207.976C218.987 205.866 219.377 203.735 219.565 201.591C219.996 196.675 218.846 192.264 216.007 188.48C215.958 188.407 215.922 188.316 215.875 188.226Z" fill="url(#paint13_linear_88_42)"/>
<path opacity="0.3" d="M207.75 188.588C207.963 190.064 210.384 190.465 211.508 190.422C213.487 190.346 214.768 189.025 216.054 187.31C216.261 187.03 216.423 186.754 216.564 186.472C218.803 188.517 220.057 191.286 219.712 194.111C219.102 199.089 213.745 202.337 207.752 201.373C203.608 200.705 200.243 198.195 198.767 195.064C199.863 193.46 200.292 191.424 201.736 190.036C203.144 188.691 205.924 188.497 207.75 188.588Z" fill="#F6E8A0"/>
<path d="M62.0154 141.782C63.3108 142.515 64.2165 142.675 65.0205 142.343C64.096 136.955 63.6121 131.523 63.7759 126.056C63.9604 120.005 64.8755 114.113 67.1952 108.596C67.489 107.896 67.8298 107.217 68.229 106.571C68.2045 106.678 68.1894 106.788 68.1536 106.887C66.9053 110.475 66.3291 114.221 66.1408 118.065C65.8433 124.056 66.4609 129.952 67.5925 135.79C67.6208 135.932 67.6566 136.07 67.7093 136.277C68.4493 135.708 69.1685 135.165 69.8708 134.594C69.9556 134.522 69.9575 134.262 69.9386 134.096C69.5809 130.551 69.6054 127.008 69.9386 123.463C70.4169 118.399 71.509 113.518 73.0661 108.764C75.2352 102.127 78.1763 95.9639 81.767 90.2038C81.8517 90.0701 81.9365 89.9365 82.0156 89.8008C82.0325 89.7706 82.0306 89.734 82.0551 89.6241C81.5335 89.8353 81.044 90.027 80.5525 90.2296C77.2462 91.6002 74.0076 93.1474 70.8895 95.0179C70.4018 95.3067 69.9311 95.6709 69.5169 96.0868C65.1297 100.535 62.5407 106.159 61.3714 112.682C61.1982 113.652 61.0739 114.639 60.8386 115.613C60.8894 114.531 60.9158 113.445 60.9986 112.363C61.3903 107.215 62.2319 102.162 63.7477 97.2849C64.1336 96.0458 63.8644 94.9274 63.7006 93.7637C63.6497 93.4017 63.4257 93.0698 63.2788 92.7229C63.0359 92.9923 62.7365 93.2185 62.5614 93.5375C61.3149 95.8066 60.5109 98.2977 59.8538 100.854C58.8465 104.763 58.2458 108.784 57.7506 112.822C57.2912 116.593 56.9993 120.386 57.0125 124.198C57.0295 128.053 57.2874 131.874 58.4077 135.555C58.9406 137.304 59.658 138.944 60.6917 140.377C61.0589 140.89 61.5164 141.328 61.9269 141.802C61.957 141.793 61.9834 141.789 62.0154 141.782Z" fill="url(#paint14_linear_88_42)"/>
<path opacity="0.2" d="M77.2857 89.7598C77.2857 89.7598 68.9143 91.1066 65.3839 97.6965C61.8516 104.282 60.8367 115.608 60.8367 115.608C60.8367 115.608 59.0291 132.501 65.0205 142.338C61.2246 106.265 77.2857 89.7598 77.2857 89.7598Z" fill="#2B2B2B"/>
<path d="M62.0154 141.782C61.9834 141.789 61.9571 141.793 61.9269 141.797C60.2003 141.026 58.8503 139.696 57.7469 138.026C56.1408 135.591 55.2972 132.775 54.7757 129.829C54.0037 125.437 53.9378 120.996 54.2654 116.557C54.4556 114.02 54.7776 111.492 55.0468 108.969C55.0562 108.879 55.0581 108.79 55.0657 108.607C54.9301 108.741 54.8341 108.816 54.7569 108.909C48.355 116.505 43.5404 125.256 40.3884 135.18C40.3056 135.438 40.3338 135.787 40.4035 136.059C42.2864 142.942 45.0072 149.383 48.3437 155.481C49.7521 158.054 51.3036 160.524 52.793 163.039C52.9097 163.237 53.0472 163.416 53.2599 163.735C53.3127 162.47 53.9039 161.446 53.4482 160.207C52.8664 158.628 52.4917 156.966 52.5689 155.216C52.6009 154.57 52.7346 153.966 53.1281 153.367C53.5179 154.635 53.8192 155.882 54.6872 156.837C54.9414 156.318 54.9922 155.865 54.8303 155.309C54.2278 153.245 53.8079 151.135 53.9227 148.939C53.9585 148.267 54.0922 147.605 54.2522 146.928C54.7757 148.577 55.6437 149.926 56.6473 151.221C56.7057 151.122 56.7603 151.057 56.7904 150.98C58.1291 147.812 59.8445 144.935 61.8874 142.31C61.9815 142.183 61.9778 141.959 62.0154 141.782Z" fill="url(#paint15_linear_88_42)"/>
<path opacity="0.2" d="M55.5383 150.23C55.5383 150.23 46.1238 129.143 50.5298 111.035C51.0777 110.54 49.6467 111.818 47.9445 114.061C47.6828 114.401 44.5271 138.313 50.9346 148.855C42.3222 137.162 46.4006 116.27 46.0353 116.88C45.2671 118.181 44.576 119.619 44.1185 121.121C39.7125 144.73 54.9339 158.94 54.9339 158.94L55.5383 150.23Z" fill="#2B2B2B"/>
<path d="M199.608 226.144C199.221 226.821 198.771 227.502 198.413 228.252C198.081 228.933 198.016 229.708 198.234 230.476C198.505 231.424 199.059 231.788 199.921 231.65C200.612 231.529 201.303 231.409 202 231.383C202.74 231.355 202.791 231.469 202.875 232.29C202.894 232.508 202.919 232.732 202.99 232.93C203.269 233.742 203.681 234.443 204.506 234.568C205.308 234.688 205.871 234.176 206.302 233.471C207.592 231.381 206.522 228.556 204.282 228.215C203.587 228.109 202.862 228.239 202.15 228.26C202.013 228.267 201.875 228.295 201.74 228.308C201.706 228.262 201.672 228.211 201.636 228.165C201.828 227.909 201.977 227.569 202.218 227.407C202.728 227.077 203.276 226.941 203.905 227.023C207.741 227.525 211.397 227.006 214.651 224.375C216.457 222.912 217.792 220.992 218.81 218.763C218.818 218.748 218.829 218.733 218.837 218.718C218.965 218.313 219.226 217.82 218.876 217.511C218.675 217.33 218.21 217.41 217.903 217.524C216.47 218.063 215.078 218.746 213.627 219.199C211.508 219.862 209.313 219.884 207.133 219.748C204.186 219.567 201.288 219.031 198.505 217.835C195.387 216.494 192.572 214.602 190.13 211.997C189.849 211.695 189.565 211.4 189.249 211.156C188.718 210.751 188.352 210.952 188.334 211.689C188.319 212.21 188.364 212.747 188.465 213.26C189.51 218.468 192.271 222.132 196.351 224.552C197.421 225.194 198.569 225.644 199.608 226.144Z" fill="#E65270"/>
<path d="M37.5773 129.197C37.4116 147.991 42.6931 164.299 53.6911 178.147C53.5367 176.871 53.3315 175.596 53.2374 174.322C53.0811 172.148 52.9794 169.967 52.8871 167.782C52.8683 167.338 52.7704 166.986 52.552 166.631C48.4341 159.832 44.657 152.798 41.6443 145.258C40.1154 141.433 38.8087 137.505 38.1082 133.359C37.8823 132.018 37.7561 130.658 37.5773 129.197Z" fill="url(#paint16_linear_88_42)"/>
<path d="M171.869 67.3979C173.839 63.4996 175.871 59.7479 176.592 55.3281C176.712 54.5889 176.676 53.8024 176.635 53.0395C176.42 48.777 176.806 44.6158 178.013 40.5559C178.121 40.196 178.249 39.8168 178.241 39.4504C178.237 39.1466 178.098 38.7953 177.921 38.5561C177.697 38.2523 177.388 38.36 177.098 38.5497C176.17 39.1509 175.496 40.0344 174.956 41.0623C173.856 43.1289 173.268 45.4153 172.862 47.7556C171.741 54.1666 171.572 60.6487 171.792 67.1652C171.796 67.1997 171.815 67.2299 171.869 67.3979Z" fill="url(#paint17_linear_88_42)"/>
<path opacity="0.4" d="M173.029 42.5663C173.387 41.6957 174.86 39.7907 175.451 39.2412L176.782 38.2693C175.443 42.1741 174.965 46.1478 174.965 50.3068C174.965 53.8108 175.906 57.0647 176.057 60.5515C176.176 63.424 175.082 64.8678 173.781 67.2059C173.193 68.2575 172.391 70.5353 171.114 70.5439C170.523 68.8825 170.617 66.8008 170.604 65.023C170.587 62.896 170.29 60.8208 170.363 58.6723C170.501 54.6167 172.416 44.0596 173.029 42.5663Z" fill="#8B4FBA"/>
<path d="M218.863 210.532C218.806 210.583 218.788 210.592 218.782 210.605C217.334 214.012 214.76 215.499 211.65 215.798C206.511 216.298 201.582 215.197 196.905 212.736C194.933 211.697 193.248 210.189 192.299 207.87C191.887 206.868 191.689 205.752 191.382 204.651C190.361 204.644 189.147 205.799 189.068 207.045C189.04 207.45 189.188 207.903 189.348 208.282C189.994 209.81 191.032 210.967 192.163 212.014C195.072 214.701 198.403 216.397 202.015 217.397C206.758 218.712 211.499 218.751 216.191 217.124C217.302 216.738 218.353 216.091 219.386 215.462C220.185 214.973 220.591 214.137 220.471 213.049C220.345 211.876 219.814 211.036 218.863 210.532Z" fill="#E65270"/>
<path opacity="0.4" d="M218.863 210.532C218.806 210.583 218.788 210.592 218.782 210.605C217.334 214.012 214.76 215.499 211.65 215.798C206.511 216.298 201.582 215.197 196.905 212.736C194.933 211.697 193.248 210.189 192.299 207.87C191.887 206.868 191.689 205.752 191.382 204.651C190.361 204.644 189.147 205.799 189.068 207.045C189.04 207.45 189.188 207.903 189.348 208.282C189.994 209.81 191.032 210.967 192.163 212.014C195.072 214.701 198.403 216.397 202.015 217.397C206.758 218.712 211.499 218.751 216.191 217.124C217.302 216.738 218.353 216.091 219.386 215.462C220.185 214.973 220.591 214.137 220.471 213.049C220.345 211.876 219.814 211.036 218.863 210.532Z" fill="#2B2B2B"/>
<path d="M167.268 156.462C167.232 158.567 167.618 160.548 168.409 162.427C170.015 166.2 172.658 168.667 175.972 170.286C178.863 171.699 181.896 172.18 185.023 171.995C185.063 171.993 185.102 171.973 185.236 171.926C183.048 171.54 181.015 170.917 179.047 170.019C175.639 168.461 172.636 166.245 170.301 162.942C169.049 161.175 168.106 159.207 167.462 157.048C167.407 156.85 167.335 156.656 167.268 156.462Z" fill="#0D0D0D"/>
<path d="M192.794 126.335C196.159 123.984 196.886 118.461 194.728 115.304C195.236 119.248 194.54 122.909 192.794 126.335Z" fill="#0D0D0D"/>
<path d="M198.343 148.008C199.987 149.551 201.968 149.978 204.031 149.937C204.856 149.913 205.677 149.758 206.502 149.713C206.946 149.689 207.413 149.721 207.854 149.831C208.686 150.049 209.057 149.902 209.341 148.989C209.985 146.905 210.288 144.746 210.072 142.545C209.966 141.492 209.776 140.41 209.407 139.444C207.972 135.602 203.623 134.023 200.401 136.121C199.985 136.391 199.595 136.705 199.224 137.055C198.833 137.419 198.479 137.841 198.072 138.276C198.255 138.516 198.405 138.746 198.575 138.947C198.964 139.403 199.111 139.944 198.993 140.552C198.624 142.457 199.345 143.812 200.736 144.683C201.73 145.304 202.819 145.75 203.901 146.161C204.461 146.381 205.035 146.536 205.619 146.67C205.796 146.663 205.873 146.629 206.012 146.502C206.88 145.86 207.501 145.017 207.884 143.914C208.091 144.565 208.049 145.646 207.867 146.45C207.754 146.946 207.827 148.161 208.049 148.515C208.031 148.536 208.014 148.56 208.002 148.579C207.899 148.523 207.799 148.463 207.701 148.396C206.586 147.614 205.34 147.366 204.067 147.185C202.497 146.957 200.968 146.545 199.629 145.508C198.019 144.261 197.155 142.526 197.061 140.296C197.057 140.227 197.048 140.162 197.027 139.979C195.568 143.239 196.014 145.823 198.343 148.008Z" fill="#0D0D0D"/>
<path d="M200.475 140.987C200.475 143.015 201.911 144.659 203.679 144.659C205.453 144.659 206.89 143.015 206.89 140.987C206.89 138.959 205.453 137.315 203.679 137.315C201.911 137.315 200.475 138.959 200.475 140.987Z" fill="url(#paint18_linear_88_42)"/>
<path d="M202.665 141.893C202.735 141.893 202.805 141.871 202.866 141.827L203.624 141.285C203.734 141.206 203.802 141.067 203.802 140.918V139.834C203.802 139.684 203.734 139.545 203.624 139.466L202.866 138.924C202.805 138.88 202.735 138.858 202.665 138.858C202.595 138.858 202.526 138.88 202.464 138.924L201.707 139.466C201.596 139.545 201.529 139.684 201.529 139.834V140.918C201.529 141.067 201.596 141.206 201.707 141.285L202.464 141.827C202.526 141.871 202.595 141.893 202.665 141.893Z" fill="white"/>
<path d="M214.818 202.862C215.387 203.267 216.272 203.095 216.602 202.379C217.97 199.401 217.844 195.932 216.506 192.971C215.737 191.273 213.436 192.643 214.203 194.335C215.114 196.358 215.302 198.845 214.393 200.83C214.069 201.539 214.186 202.414 214.818 202.862Z" fill="white"/>
<path opacity="0.2" d="M75.512 211.435C74.7005 184.888 89.003 193.523 95.3653 182.315C95.8831 181.617 96.19 180.832 96.4235 180.224C89.2835 184.726 69.2664 181.72 75.512 211.435Z" fill="#430A1D"/>
<path opacity="0.2" d="M64.6213 159.681C84.2637 140.33 123.038 142.442 125.876 142.715C109.611 155.992 60.8179 143.511 59.0291 183.922C55.8621 172.445 59.9404 164.295 64.6213 159.681Z" fill="#2B2B2B"/>
<path opacity="0.2" d="M96.0169 181.28C96.0169 181.28 96.0131 187.146 96.0169 191.29C96.0169 195.432 91.4678 193.174 89.7111 187.487C94.0963 185.519 96.0169 181.28 96.0169 181.28Z" fill="#430A1D"/>
<path opacity="0.2" d="M93.5822 183.246C96.8716 176.602 93.4918 170.855 92.9684 170.609C94.8362 170.497 98.4269 166.484 99.2836 165.148C100.621 163.056 100.701 160.017 100.813 157.533C103.466 157.397 105.332 155.537 107.747 154.878C105.693 157.078 102.91 159.681 101.664 162.646C100.555 165.28 99.6169 168.312 98.8732 171.113C98.265 173.408 97.6964 175.688 97.3217 178.057C97.043 179.819 96.1336 182.192 96.2992 183.909C96.2992 183.909 95.9603 199.362 98.6679 206.993C93.5408 204.996 90.8539 200.207 89.92 198.354C88.8618 196.257 86.8716 191.044 89.3363 187.724C90.9273 187.06 92.669 185.088 93.5822 183.246Z" fill="#430A1D"/>
<path d="M45.5589 203.319C55.879 219.595 69.6845 230.055 86.8452 234.6C92.5617 236.115 98.3742 236.531 104.238 236.505C118.582 236.434 132.924 236.475 147.268 236.473C156.914 236.469 166.563 236.473 176.21 236.445C178.505 236.441 180.794 236.266 182.99 235.391C185.144 234.538 186.805 233.027 187.733 230.581C189.059 227.049 187.927 222.606 185.063 220.212C182.964 218.457 180.552 217.947 178.013 218.076C177.33 218.115 176.648 218.236 175.969 218.315C175.814 218.335 175.645 218.376 175.498 218.337C175.278 218.283 175.07 218.158 174.86 218.067C174.98 217.865 175.067 217.619 175.225 217.47C177.848 214.917 179.653 211.771 180.518 207.952C180.834 206.562 180.926 205.151 180.811 203.726C180.804 203.614 180.796 203.504 180.793 203.399C180.766 202.662 180.988 202.433 181.623 202.399C183.498 202.3 185.372 202.216 187.242 202.048C188.136 201.966 189.017 201.716 190.026 201.642C189.91 201.819 189.823 202.08 189.667 202.162C188.172 202.953 187.196 204.271 186.705 206.03C186.131 208.101 185.728 210.217 185.811 212.413C185.937 215.96 187.144 219.011 189.106 221.703C190.87 224.116 193.043 225.933 195.5 227.312C195.816 227.489 195.901 227.644 195.79 228.051C195.475 229.213 195.515 230.385 195.871 231.544C196.087 232.251 196.485 232.764 197.051 233.128C198.343 233.952 199.832 234.068 201.241 233.393C201.28 233.624 201.314 233.885 201.363 234.109C201.77 235.876 202.766 236.578 204.27 237.613C204.621 237.613 204.971 237.613 205.323 237.613C205.364 237.613 205.404 237.486 205.447 237.477C208.097 236.966 209.209 234.195 208.902 231.57C208.823 230.894 208.652 230.228 208.537 229.618C209.738 229.256 210.975 228.976 212.156 228.502C217.607 226.332 221.205 222.121 222.729 215.706C223.337 213.139 222.96 210.84 221.22 208.935C221.111 208.81 221.104 208.508 221.128 208.303C221.467 205.879 221.989 203.472 222.124 201.033C222.452 195.244 220.863 190.169 217.347 185.937C217.14 185.691 217.127 185.48 217.182 185.174C217.413 183.877 217.679 182.582 217.818 181.27C218.104 178.623 217.223 176.43 215.681 174.518C215.545 174.348 215.393 174.165 215.327 173.953C214.896 172.482 214.005 171.48 212.828 170.803C210.456 169.435 207.94 169.157 205.348 169.65C203.649 169.975 202.098 170.794 200.565 171.626C199.889 171.992 199.268 172.176 198.642 171.549C198.535 171.443 198.368 171.417 198.268 171.318C198.095 171.13 197.805 170.87 197.837 170.712C197.88 170.471 198.13 170.197 198.347 170.098C199.543 169.56 200.774 169.269 202.069 169.269C203.041 169.269 204.014 169.236 204.975 169.107C208.038 168.682 210.847 167.418 213.485 165.616C213.662 165.495 213.856 165.392 214.056 165.355C217.466 164.758 220.205 161.692 220.8 157.809C220.859 157.416 220.851 156.966 221.028 156.654C222.474 154.098 222.591 151.383 221.757 148.592C221.228 146.827 220.494 145.135 219.912 143.392C219.599 142.457 219.283 141.489 219.204 140.519C218.995 137.755 218.675 135.016 218.027 132.346C216.643 126.644 214.176 121.702 210.217 117.826C206.219 113.914 201.533 111.854 196.342 111.223C195.884 111.169 195.643 111.001 195.44 110.484C194.306 107.542 192.442 105.476 189.759 104.403C189.062 104.125 188.367 104.062 187.712 104.4C186.778 104.894 185.827 105.385 184.991 106.062C182.8 107.812 181.064 110.085 179.623 112.656C179.51 112.85 179.386 113.104 179.218 113.169C178.993 113.253 178.657 113.283 178.484 113.145C178.352 113.042 178.322 112.624 178.373 112.38C178.433 112.094 178.627 111.839 178.776 111.587C182.591 105.273 185.018 98.3277 186.134 90.7574C186.174 90.5204 186.321 90.2639 186.475 90.0851C187.413 88.9925 188.381 87.9387 189.311 86.8375C190.796 85.0813 191.708 82.9543 192.194 80.5947C192.32 79.9762 192.382 79.3405 192.418 78.7091C192.429 78.5173 192.265 78.3147 192.182 78.1165C192.003 78.235 191.77 78.3061 191.661 78.4764C191.406 78.8729 191.23 79.3276 190.994 79.737C190.84 80.0085 190.638 80.2391 190.456 80.4998C190.399 80.3468 190.414 80.2607 190.441 80.1809C191.439 77.2717 192.133 74.2742 192.468 71.1668C192.563 70.3005 192.627 69.4256 192.645 68.555C192.661 67.9214 192.291 67.5206 191.922 67.6908C191.725 67.7814 191.553 67.9731 191.401 68.1455C189.917 69.8286 188.168 71.0763 186.375 72.2572C186.336 72.1947 186.306 72.1667 186.304 72.1344C186.255 71.8283 186.206 71.5266 186.166 71.2206C185.688 67.6326 184.862 64.1438 183.905 60.683C183.176 58.041 182.764 55.3408 183.165 52.5566C183.406 50.8973 183.92 49.3953 185.151 48.3394C185.244 48.2597 185.306 48.1325 185.415 47.9903C185.272 47.9063 185.184 47.8244 185.082 47.8007C183.306 47.3524 181.47 47.6153 180.474 49.9492C180.36 50.2099 180.209 50.4448 180.004 50.837C179.78 50.3241 179.557 49.9879 179.486 49.6216C179.132 47.7813 179.045 45.9086 179.196 44.0273C179.388 41.7043 180.103 39.5774 180.987 37.5043C181.214 36.9656 181.431 36.4118 181.578 35.8429C181.839 34.8106 181.337 34.0478 180.393 34.065C179.925 34.0758 179.429 34.1599 178.998 34.3473C176.677 35.3472 174.909 37.1035 173.734 39.6183C173.638 39.8231 173.549 40.0256 173.445 40.2713C172.513 39.2348 171.664 38.2241 171.222 36.8406C170.939 35.9549 170.563 35.0994 170.177 34.2719C169.9 33.6771 169.691 33.6901 169.352 34.231C169.26 34.3754 169.179 34.537 169.079 34.677C168.817 35.0369 168.616 35.0391 168.413 34.6318C168.23 34.2741 168.092 33.8797 167.97 33.494C167.364 31.6192 166.371 30.0633 165.01 28.8199C164.918 28.7402 164.812 28.6777 164.594 28.5247C164.675 29.1173 164.741 29.5763 164.792 30.0374C164.846 30.5094 164.895 30.9813 164.948 31.4791C164.826 31.4619 164.788 31.4662 164.762 31.4489C164.63 31.3519 164.494 31.2507 164.364 31.1429C158.859 26.7899 152.839 23.7644 146.334 21.9973C144.351 21.4586 142.272 21.2668 140.482 19.9803C140.442 19.9501 140.391 19.935 140.348 19.9113C139.994 19.7519 139.734 19.8402 139.459 20.1548C139.284 20.3531 138.971 20.4415 138.721 20.4371C137.926 20.4156 137.132 20.2152 136.341 20.1398C135.612 20.0708 134.863 19.8811 134.164 19.6807C132.965 19.3338 131.799 17.9999 130.623 17.9999C130.336 17.9999 130.045 17.9999 129.762 17.9999C129.487 17.9999 129.162 18.905 128.937 19.2217C128.548 19.7799 128.069 20.4328 127.458 20.4781C123.404 20.7668 119.395 21.4392 115.446 22.5662C109.436 24.2729 103.791 26.9214 98.732 31.0847C95.0359 34.1297 91.865 37.7457 89.6169 42.3293C89.1574 43.2602 88.7921 44.2601 88.4287 45.2427C88.1538 46.0034 88.0861 46.8051 88.3158 47.6003C88.5097 48.2532 88.939 48.6152 89.5208 48.5118C92.8234 47.917 95.6214 49.2984 98.1991 51.4425C100.764 53.5781 102.718 56.3149 103.833 59.7369C105.475 64.7924 104.586 69.3178 101.49 73.3239C101.178 73.729 100.824 74.0954 100.444 74.535C100.3 73.9208 100.18 73.3627 100.041 72.8045C99.3383 70.0677 98.3403 67.512 96.6382 65.3807C95.6497 64.1373 94.053 63.4284 95.5216 63.493C96.8773 63.5469 95.034 63.5189 94.8645 63.493C96.5553 64.8226 95.2543 65.6113 95.5047 67.8632C96.0376 72.6515 94.7553 76.7718 91.8424 80.2305C91.6655 80.4417 91.3981 80.5753 91.1477 80.6765C88.0785 81.9221 84.9887 83.103 81.9365 84.4025C76.4874 86.7212 71.2266 89.5097 66.2406 92.9468C66.1729 92.9921 66.1013 93.0352 66.0279 93.0804C65.5553 92.7313 65.3613 92.2098 65.382 91.628C65.4084 90.8522 65.5176 90.0764 65.5986 89.3028C65.6061 89.2101 65.6325 89.124 65.6381 89.0334C65.8 87.6651 65.3331 87.219 64.2335 87.831C63.6818 88.1391 63.1753 88.6499 62.778 89.1908C61.5089 90.9298 60.7219 92.9899 59.9668 95.0544C59.5676 96.1448 59.2513 97.274 58.8465 98.3622C58.7015 98.7587 58.4699 99.1617 58.1818 99.4397C53.8643 103.642 49.8425 108.163 46.4344 113.369C43.5121 117.83 41.0211 122.573 38.9951 127.646C38.9461 127.779 38.8859 127.909 38.8294 128.04C38.8143 128.068 38.7861 128.085 38.7202 128.15C38.0555 123.704 37.9256 119.278 38.3153 114.807C38.0047 116.134 37.6582 117.455 37.389 118.793C36.2818 124.189 35.9372 129.65 36.2667 135.179C36.2837 135.46 36.2216 135.761 36.1481 136.033C34.7096 141.2 33.7173 146.482 33.2936 151.88C31.8287 170.736 35.8337 187.98 45.5589 203.319ZM41.6443 145.256C44.6569 152.796 48.434 159.83 52.552 166.629C52.7685 166.987 52.8683 167.338 52.8871 167.78C52.9794 169.965 53.081 172.143 53.2373 174.32C53.3315 175.6 53.5367 176.876 53.6911 178.145C42.6931 164.295 37.4115 147.989 37.5772 129.195C37.7618 130.654 37.8823 132.016 38.1082 133.352C38.8087 137.503 40.1154 141.429 41.6443 145.256ZM82.0532 89.6196C82.0288 89.7295 82.0307 89.7661 82.0137 89.7963C81.9346 89.9299 81.8499 90.0635 81.7652 90.1993C78.1745 95.9595 75.2334 102.125 73.0643 108.76C71.5071 113.514 70.415 118.399 69.9368 123.459C69.6035 127.004 69.579 130.546 69.9368 134.091C69.9556 134.257 69.9537 134.518 69.869 134.589C69.1667 135.164 68.4436 135.707 67.7074 136.272C67.6585 136.067 67.6189 135.932 67.5907 135.785C66.4553 129.947 65.8415 124.056 66.139 118.061C66.331 114.22 66.9034 110.473 68.1518 106.883C68.1876 106.779 68.2026 106.67 68.2271 106.566C67.8279 107.219 67.4871 107.891 67.1934 108.592C64.8737 114.111 63.9567 120 63.774 126.051C63.6102 131.516 64.0941 136.951 65.0186 142.338C64.2146 142.668 63.3146 142.511 62.0135 141.778C61.974 141.957 61.9778 142.183 61.8874 142.304C59.8444 144.933 58.1291 147.81 56.7904 150.973C56.7565 151.053 56.7056 151.115 56.6473 151.214C55.6437 149.913 54.7757 148.566 54.2522 146.922C54.0922 147.594 53.9585 148.258 53.9227 148.932C53.8078 151.133 54.2277 153.238 54.8303 155.302C54.9922 155.858 54.9414 156.311 54.6872 156.83C53.8191 155.878 53.5179 154.628 53.1281 153.361C52.7346 153.96 52.6009 154.568 52.5689 155.21C52.4917 156.96 52.8664 158.621 53.4482 160.201C53.9039 161.435 53.3164 162.463 53.2599 163.728C53.0472 163.409 52.9078 163.233 52.793 163.032C51.3036 160.517 49.7521 158.05 48.3437 155.475C45.0091 149.374 42.2864 142.939 40.4035 136.052C40.3338 135.781 40.3056 135.432 40.3884 135.173C43.5404 125.25 48.3512 116.498 54.7568 108.902C54.834 108.809 54.9301 108.734 55.0656 108.6C55.0581 108.781 55.0562 108.872 55.0468 108.962C54.7775 111.49 54.4556 114.018 54.2654 116.55C53.9359 120.993 54.0018 125.431 54.7757 129.822C55.2972 132.768 56.1445 135.582 57.7469 138.02C58.8503 139.688 60.2003 141.019 61.9288 141.791C61.5127 141.317 61.0608 140.881 60.6917 140.366C59.658 138.933 58.9388 137.291 58.4078 135.544C57.2837 131.865 57.0314 128.047 57.0125 124.187C56.9956 120.371 57.2875 116.584 57.7525 112.811C58.2477 108.773 58.8484 104.758 59.8557 100.843C60.5147 98.2868 61.3131 95.7957 62.5633 93.5265C62.7384 93.2119 63.0378 92.9813 63.2807 92.7119C63.4257 93.0589 63.6479 93.3907 63.7044 93.7528C63.8701 94.9186 64.1356 96.037 63.7496 97.274C62.2319 102.153 61.3922 107.202 61.0005 112.352C60.9177 113.434 60.8932 114.52 60.8405 115.602C61.0758 114.628 61.1982 113.641 61.3752 112.671C62.5445 106.148 65.1297 100.524 69.5207 96.0758C69.933 95.6599 70.4037 95.2957 70.8914 95.007C74.0095 93.1408 77.2481 91.5892 80.5545 90.2187C81.0421 90.0204 81.526 89.8265 82.0532 89.6196ZM178.247 39.4524C178.254 39.8187 178.125 40.198 178.015 40.5579C176.806 44.6178 176.42 48.7812 176.639 53.0415C176.678 53.8044 176.716 54.5931 176.597 55.3301C175.874 59.7477 173.843 63.5016 171.873 67.3999C171.821 67.2318 171.8 67.2017 171.8 67.1758C171.581 60.6657 171.751 54.1772 172.869 47.7662C173.28 45.4238 173.864 43.1395 174.963 41.0729C175.504 40.0472 176.178 39.1636 177.106 38.5603C177.394 38.3728 177.699 38.2629 177.929 38.5667C178.098 38.7995 178.239 39.1507 178.247 39.4524ZM180.597 73.9725C179.699 74.716 178.755 75.4142 177.769 75.9852C174.297 77.9829 170.617 79.4051 166.982 80.9395C166.274 81.2368 165.594 81.6635 164.961 82.1376C163.703 83.0815 162.768 84.4046 161.956 85.8355C161.568 86.5121 161.205 87.2104 160.826 87.8978C160.838 87.6672 160.9 87.4646 160.949 87.2556C161.378 85.5834 161.866 83.9241 162.212 82.226C162.692 79.8577 163.453 77.6445 164.605 75.6146C165.227 74.5177 165.921 73.4682 166.53 72.3541C166.914 71.6559 167.249 70.8974 167.516 70.1302C167.674 69.6691 167.656 69.1303 167.721 68.6283C167.656 68.5916 167.593 68.555 167.526 68.5205C167.334 68.7058 167.113 68.8674 166.951 69.0829C166.283 69.96 165.641 70.8672 164.954 71.7292C164.805 71.921 164.473 72.1085 164.306 72.0395C164.146 71.9727 163.975 71.5654 163.999 71.3284C164.084 70.3781 164.133 69.3976 164.393 68.5011C164.75 67.2663 165.313 66.1091 165.733 64.8873C165.938 64.2925 166.072 63.6331 166.119 62.9952C166.142 62.6935 165.886 62.366 165.76 62.0535C165.535 62.2281 165.277 62.3681 165.093 62.5901C164.765 62.9844 164.505 63.4456 164.167 63.8335C163.833 64.2106 163.524 64.1481 163.332 63.6676C163.197 63.3314 163.058 62.9176 163.105 62.5771C163.219 61.7216 163.421 60.8812 163.613 60.0365C163.79 59.2693 164.04 58.5108 164.178 57.7371C164.272 57.2135 164.155 56.6941 163.675 56.2998C163.541 56.5239 163.395 56.7157 163.308 56.942C163.12 57.4031 162.969 57.8858 162.798 58.347C162.393 59.4115 162.037 60.5127 161.559 61.5341C161.135 62.4328 160.721 62.353 160.267 61.4803C159.388 59.7736 158.52 58.0539 157.539 56.4248C156.998 55.5305 156.686 54.6103 156.601 53.563C156.492 52.1709 156.432 50.7659 156.305 49.3716C156.257 48.8523 156.134 48.3114 155.637 47.8201C155.532 48.4084 155.443 48.8911 155.36 49.3759C155.238 50.0871 155.153 50.8111 154.982 51.5072C154.865 51.9985 154.519 52.0481 154.304 51.6106C154.11 51.2141 153.978 50.74 153.95 50.2875C153.899 49.4341 153.967 48.5764 153.927 47.7209C153.91 47.3331 153.788 46.943 153.66 46.5745C153.607 46.4172 153.423 46.3116 153.298 46.1823C153.217 46.3418 153.105 46.4883 153.059 46.6629C153.001 46.8676 152.993 47.0895 152.965 47.3072C152.884 47.9364 152.839 48.5808 152.709 49.1928C152.572 49.8586 152.204 49.9707 151.845 49.432C151.513 48.9385 151.254 48.3545 151.086 47.764C150.832 46.846 150.725 45.8849 150.482 44.9583C150.369 44.5251 150.111 44.1286 149.868 43.7601C149.776 43.6265 149.514 43.5403 149.367 43.5899C149.26 43.6222 149.154 43.9045 149.15 44.0812C149.135 44.7881 149.162 45.4992 149.171 46.2082C149.173 46.5594 149.171 46.9107 149.171 47.2899C149.036 47.2555 148.981 47.2576 148.949 47.2339C148.872 47.1736 148.795 47.1003 148.732 47.0206C148.096 46.2469 147.67 45.3483 147.535 44.2816C147.477 43.8097 147.456 43.3378 147.379 42.8745C147.283 42.3271 146.998 42.1181 146.512 42.187C146.002 42.256 145.68 42.6805 145.628 43.4218C145.59 43.9045 145.62 44.3872 145.62 44.9432C145.038 44.6027 144.524 44.2903 144.001 43.995C138.648 40.963 132.999 39.0839 127.072 38.2909C123.244 37.7802 119.416 37.7672 115.62 38.6486C113.324 39.1809 111.138 40.0364 109.242 41.6806C108.964 41.9177 108.708 42.1935 108.44 42.4521C110.551 41.0535 111.786 40.4825 113.692 40.0687C117.162 39.3059 120.634 39.4201 124.098 39.9955C130.197 41.0104 135.963 43.2106 141.38 46.5939C145.577 49.2143 149.371 52.4273 152.438 56.679C152.67 56.9937 152.886 57.3234 153.105 57.6466C146.825 54.2138 139.732 60.6722 132.637 57.8061C142.361 63.5426 148.119 56.1532 153.602 60.9351C154.997 62.1505 155.245 65.2859 152.058 64.7601C149.015 64.2623 156.641 65.9863 158.008 75.0564C157.93 76.5369 157.748 78.0432 157.452 79.584C156.144 86.3785 153.378 92.3801 149.582 97.7675C145.673 103.319 140.762 107.45 135.247 110.68C135.168 110.691 135.08 110.725 134.97 110.775C134.985 110.697 134.983 110.661 134.995 110.641C135.072 110.501 135.151 110.365 135.23 110.227C137.866 105.743 140.033 101.008 141.084 95.6901C141.807 92.0482 141.894 88.3977 140.888 84.7903C139.764 80.7628 137.516 77.6963 134.579 75.2396C131.287 72.4856 127.569 70.766 123.692 69.4471C122.863 69.1648 122.02 68.9149 121.082 68.6196C121.187 68.7489 121.199 68.7834 121.225 68.7942C121.383 68.8717 121.549 68.9429 121.713 69.0161C124.42 70.2272 127 71.7055 129.339 73.7032C132.705 76.5671 135.183 80.1745 136.305 84.8658C137.296 89.0119 137.075 93.1602 136.192 97.2869C135.049 102.635 132.933 107.478 130.38 112.104C129.794 113.162 129.099 113.867 128.049 114.225C126.78 114.656 125.535 115.214 124.161 115.768C128.051 110.99 128.158 104.267 127.412 100.321C127.401 100.39 127.382 100.435 127.38 100.483C127.247 103.698 126.29 106.594 124.72 109.236C122.377 113.18 119.205 116.054 115.623 118.392C115.347 118.573 115.008 118.632 114.699 118.746C115.994 117.037 116.987 115.175 117.567 113.042C118.132 110.977 118.327 107.741 117.953 106.579C117.361 108.835 116.746 110.305 115.43 112.225C113.17 115.518 110.545 118.369 107.504 120.739C105.467 122.336 103.33 123.657 101.033 124.661C96.9715 126.443 92.7349 127.536 88.521 128.717C84.8192 129.753 81.1193 130.829 77.4458 132.003C75.4424 132.645 73.5143 133.591 71.8479 135.087C71.5504 134.328 70.9912 131.648 70.9705 129.518C70.7276 104.422 88.1764 91.0074 93.4938 83.9866C95.0415 81.9415 95.9302 79.4353 96.7079 76.9011C97.0242 75.8732 97.2953 74.8302 97.5947 73.7635C97.6437 73.8389 97.6945 73.8906 97.7171 73.9445C99.2027 77.2092 100.116 80.5429 99.4042 84.3227C98.3121 90.1044 96.2786 95.2677 92.4487 99.3621C92.4073 99.4074 92.3734 99.4655 92.2416 99.6379C92.4299 99.528 92.4958 99.5 92.5561 99.4526C95.7062 97.3752 98.5851 94.9057 101.02 91.7939C105.113 86.5703 107.312 80.4568 107.614 73.4359C107.745 70.3781 107.378 67.359 107.081 64.3399C106.284 56.3041 101.157 49.7983 94.2639 47.8783C93.7461 47.7339 93.2189 47.5291 92.7519 47.2468C92.0891 46.8439 91.9084 46.1845 92.1588 45.3871C92.2492 45.1005 92.3828 44.8225 92.5259 44.5639C93.7479 42.3875 95.3013 40.5881 97.2125 39.1938C98.1935 38.4805 99.1726 37.7694 100.118 36.9958C103.997 33.8237 108.167 31.3627 112.78 29.9146C114.684 29.3177 116.608 28.7897 118.61 28.9901C119.235 29.0548 119.845 29.3198 120.468 29.4039C120.728 29.4427 121.009 29.2336 121.283 29.1388C121.129 28.9406 121.007 28.6777 120.817 28.5548C119.611 27.7618 118.28 27.5161 116.919 27.4644C114.914 27.3868 112.961 27.8221 111.009 28.2768C110.813 28.3221 110.607 28.3221 110.406 28.3415C112.005 26.7598 113.818 25.7383 115.78 25.0638C119.011 23.9411 122.31 23.689 125.652 24.01C126.721 24.1135 127.808 24.163 128.793 24.8031C129.76 25.428 130.779 25.9517 131.779 26.5076C131.995 26.6283 132.236 26.6886 132.468 26.777C132.504 26.7318 132.536 26.693 132.571 26.6477C132.466 26.3374 132.379 26.0185 132.246 25.7254C131.886 24.9151 131.493 24.1243 131.127 23.314C131.061 23.161 131.093 22.9412 131.084 22.7537C131.235 22.7451 131.404 22.6804 131.534 22.7322C132.302 23.0252 133.086 23.2838 133.816 23.676C134.861 24.2449 135.949 24.4389 137.089 24.5272C138.64 24.6501 140.195 24.8181 141.737 25.0703C144.001 25.4431 145.725 26.7792 146.844 29.0957C147.107 29.6366 147.384 30.1667 147.669 30.6947C147.77 30.8822 147.91 31.0416 148.032 31.2119C148.085 31.1839 148.147 31.1602 148.201 31.1257C147.847 29.7465 147.495 28.3695 147.126 26.9149C148.297 27.2209 149.519 28.1497 150.485 29.4534C150.977 30.1042 151.412 30.8003 151.898 31.4511C152.092 31.7097 152.353 31.8993 152.581 32.1234C152.645 32.0825 152.711 32.0502 152.777 32.007C152.683 31.0847 152.587 30.1646 152.496 29.2379C152.543 29.2186 152.596 29.197 152.645 29.1819C153.376 29.6905 154.097 30.2141 154.827 30.7227C157.309 32.4337 159.634 34.3603 161.378 37.0755C161.617 37.4505 161.796 37.3966 161.922 36.9419C162.077 36.3708 162.18 35.7804 162.351 35.2136C162.4 35.0412 162.611 34.8063 162.732 34.815C162.899 34.83 163.133 35.0197 163.187 35.1942C163.304 35.5606 163.353 35.9635 163.376 36.3622C163.423 37.1595 163.406 37.9612 163.479 38.7542C163.502 38.9977 163.73 39.224 163.863 39.4502C164.042 39.2692 164.289 39.127 164.379 38.8986C164.656 38.2456 164.863 37.5539 165.121 36.888C165.358 36.2717 165.5 36.2609 165.844 36.7846C166.296 37.4763 166.805 38.0345 167.657 37.9655C168.448 37.8965 168.548 37.9633 168.842 38.8059C169.345 40.2433 169.772 41.7086 170.288 43.1374C170.533 43.8183 170.907 44.4389 171.203 45.0941C171.276 45.2492 171.339 45.4712 171.303 45.6242C170.254 49.4923 169.966 53.4768 169.93 57.4936C169.898 61.2109 169.964 64.9282 169.853 68.639C169.768 71.5417 169.343 74.3733 167.45 76.6102C167.712 76.5154 167.961 76.4076 168.196 76.2697C169.414 75.5456 170.414 74.5048 171.286 73.3066C173.22 70.6604 174.489 67.596 175.616 64.4261C176.518 61.8876 177.428 59.3512 178.375 56.8342C178.61 56.2093 179.002 55.6576 179.352 55.0909C179.437 54.9572 179.687 54.8042 179.783 54.8603C179.925 54.9314 180.06 55.1727 180.081 55.3559C180.13 55.7654 180.13 56.1963 180.113 56.6058C180.032 58.681 179.881 60.7541 180.194 62.8228C180.239 63.1396 180.318 63.4951 180.248 63.7861C179.569 66.6241 178.686 69.3652 177.155 71.7766C177.11 71.852 177.078 71.9447 176.982 72.1581C178.07 71.6021 178.802 70.7789 179.395 69.8113C179.989 68.8394 180.508 67.8072 181.092 66.734C181.34 67.8848 181.578 68.9924 181.815 70.1001C182.152 71.7077 181.73 73.0265 180.597 73.9725ZM181.828 90.6022C179.043 93.6106 175.746 95.7332 172.282 97.5347C167.593 99.9741 162.681 101.666 157.672 102.997C155.884 103.474 154.082 103.885 152.167 104.355C152.937 103.263 153.619 102.284 154.321 101.317C154.387 101.224 154.536 101.183 154.656 101.164C157.793 100.791 160.811 99.862 163.717 98.4786C170.44 95.2849 176.198 90.4579 181.329 84.605C181.376 84.5512 181.41 84.4822 181.446 84.4218C181.271 84.4822 181.141 84.5813 181.009 84.6848C176.68 88.1241 172.227 91.3306 167.546 94.1062C164.549 95.8732 161.495 97.5002 158.211 98.4613C157.437 98.6876 156.646 98.8385 155.741 99.0496C155.865 98.804 155.916 98.7135 155.961 98.6187C156.991 96.5542 158.126 94.5393 159.024 92.3973C159.584 91.0505 160.371 90.0635 161.365 89.1951C165.093 85.9476 169.201 83.4413 173.393 81.0946C173.432 81.0752 173.478 81.0817 173.613 81.0537C172.018 83.9499 170.48 86.7686 167.733 88.3568C168.443 88.2232 169.149 88.0874 169.828 87.8504C171.937 87.1112 173.711 85.689 175.377 84.0943C177.415 82.1484 179.386 80.099 181.453 78.1811C182.517 77.1898 183.656 76.233 184.886 75.5478C186.18 74.8345 187.612 74.466 188.993 73.9768C189.347 73.8432 189.725 73.8217 190.243 73.7182C190.073 74.7181 190.002 75.5952 189.772 76.4098C188.196 81.9156 185.496 86.6264 181.828 90.6022ZM156.441 133.193C155.422 133.841 154.338 134.423 153.227 134.811C150.95 135.6 148.582 135.613 146.221 135.606C144.551 135.604 142.878 135.578 141.21 135.6C140.79 135.606 140.374 135.757 139.96 135.843C139.96 135.929 139.956 136.018 139.952 136.108C140.312 136.266 140.662 136.457 141.029 136.578C142.193 136.957 143.362 137.298 144.522 137.668C144.75 137.744 144.957 137.893 145.179 138.009C145.172 138.061 145.162 138.115 145.155 138.164C145.004 138.233 144.856 138.33 144.695 138.371C142.361 138.903 140.037 139.55 137.68 139.931C133.692 140.58 129.738 141.371 125.876 142.715C125.546 142.827 125.185 142.883 124.846 142.858C120.941 142.545 117.038 142.226 113.132 141.899C108.617 141.522 104.1 141.472 99.5925 142.017C94.4691 142.636 89.5114 144.028 84.7157 146.148C77.8224 149.197 71.5749 153.546 65.704 158.638C65.6042 158.724 65.5082 158.828 65.4122 158.921C65.6061 158.877 65.753 158.787 65.8961 158.688C71.2586 155.024 76.7868 151.755 82.6294 149.208C87.5833 147.051 92.669 145.493 97.9242 144.696C101.722 144.12 105.533 143.989 109.361 144.017C113.637 144.043 117.923 144.017 122.199 144.015C122.253 144.015 122.31 144.023 122.372 144.03C122.355 144.073 122.353 144.095 122.345 144.103C122.244 144.146 122.142 144.198 122.039 144.243C118.214 145.954 114.588 148.092 111.278 150.883C110.278 151.732 109.203 152.367 108.056 152.861C107.165 153.247 106.269 153.624 105.36 153.951C100.692 155.639 95.8606 156.466 91.0554 157.46C87.0957 158.276 83.1416 159.115 79.2176 160.106C75.642 161.009 72.1887 162.394 68.9784 164.482C63.469 168.064 60.2285 173.426 59.3455 180.625C59.2061 181.757 59.127 182.903 59.0273 183.918C58.8352 183.509 58.6262 183.013 58.3795 182.539C56.2914 178.52 54.8303 174.24 54.3746 169.566C53.7608 163.25 55.3349 157.802 59.3323 153.326C59.4961 153.143 59.6072 152.897 59.7145 152.654C60.2907 151.318 60.767 149.915 61.4355 148.65C63.3466 145.062 66.0429 142.36 69.0801 140.076C73.1132 137.048 77.5173 134.932 82.0645 133.175C89.2365 130.4 96.6156 128.588 104.03 126.956C110.073 125.629 116.126 124.353 122.165 123.011C126.876 121.968 131.457 120.489 135.793 118.043C141.233 114.979 146.268 111.298 150.532 106.323C150.674 106.155 150.945 106.064 151.159 106.055C154.012 105.963 156.848 105.657 159.649 105.051C167.497 103.349 174.684 99.8513 181.267 94.6902C181.376 94.6104 181.489 94.5501 181.668 94.4251C181.629 94.6945 181.612 94.8561 181.578 95.0113C181.024 97.8192 180.305 100.573 179.371 103.243C174.799 116.311 167.194 126.342 156.441 133.193ZM219.565 201.586C219.375 203.733 218.985 205.86 218.575 207.971C217.938 211.219 216.202 213.367 213.393 214.339C212.135 214.775 210.844 214.947 209.531 214.951C206.957 214.958 204.436 214.484 201.945 213.779C199.87 213.184 197.867 212.385 196.069 211.027C194.351 209.732 193.075 208.049 192.578 205.702C192.273 204.235 192.361 202.785 192.568 201.315C192.651 200.731 192.871 200.474 193.34 200.265C197.439 198.393 200.712 195.421 202.676 190.792C202.937 190.18 203.31 189.87 203.881 189.803C205.841 189.555 207.763 189.637 209.554 190.725C210.702 191.424 211.849 191.344 212.985 190.713C213.451 190.452 213.905 190.129 214.32 189.769C214.835 189.318 215.304 188.795 215.875 188.221C215.922 188.316 215.958 188.402 216.007 188.471C218.846 192.26 219.993 196.669 219.565 201.586ZM189.249 211.172C189.565 211.406 189.847 211.71 190.13 212.008C192.572 214.613 195.387 216.505 198.505 217.845C201.29 219.041 204.186 219.578 207.132 219.759C209.313 219.893 211.508 219.871 213.627 219.21C215.078 218.757 216.47 218.074 217.903 217.535C218.208 217.421 218.669 217.341 218.876 217.522C219.226 217.83 218.965 218.32 218.837 218.729C218.829 218.746 218.818 218.761 218.81 218.774C217.792 221 216.457 222.925 214.651 224.386C211.397 227.017 207.741 227.536 203.905 227.034C203.276 226.952 202.732 227.084 202.218 227.418C201.977 227.575 201.828 227.916 201.636 228.176C201.672 228.222 201.706 228.273 201.74 228.319C201.875 228.301 202.013 228.273 202.15 228.271C202.862 228.245 203.587 228.12 204.282 228.226C206.522 228.566 207.592 231.396 206.302 233.482C205.871 234.186 205.308 234.693 204.506 234.579C203.681 234.454 203.271 233.753 202.99 232.941C202.922 232.743 202.894 232.518 202.875 232.301C202.791 231.48 202.74 231.366 202 231.394C201.305 231.417 200.614 231.54 199.921 231.661C199.06 231.799 198.505 231.437 198.234 230.486C198.015 229.719 198.081 228.943 198.413 228.262C198.767 227.517 199.221 226.838 199.608 226.155C198.567 225.657 197.42 225.207 196.353 224.573C192.273 222.153 189.509 218.49 188.467 213.281C188.36 212.773 188.319 212.234 188.334 211.71C188.356 210.963 188.718 210.764 189.249 211.172ZM191.378 204.653C191.683 205.754 191.887 206.87 192.293 207.872C193.242 210.191 194.929 211.695 196.901 212.738C201.578 215.199 206.511 216.3 211.646 215.8C214.756 215.499 217.334 214.012 218.778 210.607C218.784 210.594 218.805 210.585 218.859 210.534C219.81 211.038 220.341 211.878 220.469 213.059C220.586 214.145 220.181 214.986 219.383 215.471C218.351 216.1 217.298 216.749 216.187 217.132C211.495 218.759 206.75 218.72 202.009 217.406C198.398 216.406 195.065 214.71 192.16 212.023C191.024 210.975 189.991 209.82 189.345 208.29C189.185 207.911 189.036 207.454 189.062 207.053C189.147 205.801 190.358 204.646 191.378 204.653ZM42.3542 177.309C38.5451 169.725 36.5624 161.677 36.5579 160.442C36.5473 156.582 36.809 152.736 37.3136 148.904C37.4304 148.017 37.5848 147.135 37.7185 146.249C37.8616 146.411 37.9086 146.575 37.9519 146.743C38.5149 148.883 39.0045 151.053 39.6484 153.16C43.0339 164.204 48.1817 174.111 54.561 183.211C54.7926 183.543 54.9922 183.935 55.107 184.338C56.4929 189.223 58.4812 193.656 61.0307 197.673C58.1705 196.279 54.915 195.777 51.0343 190.667C55.8 201.186 67.0898 205.353 67.0898 205.353C73.3712 211.786 80.6825 216.037 88.7808 218.582C89.4361 218.787 90.0951 218.951 90.756 219.132C90.6129 218.972 90.451 218.908 90.2891 218.835C84.2619 216.367 78.7092 212.928 73.6819 208.392C67.425 202.746 62.6933 195.79 59.8651 187.213C59.5639 186.291 59.4208 185.431 59.7315 184.478C59.9423 183.832 60.0515 183.144 60.2267 182.483C61.556 177.511 63.6366 173.042 66.9825 169.435C70.1834 165.978 74.0302 163.89 78.2027 162.481C83.1999 160.804 88.3629 160.186 93.5013 159.414C96.4819 158.97 99.4475 158.431 102.419 157.912C103.217 157.776 104.006 157.55 104.855 157.35C104.791 157.47 104.772 157.524 104.738 157.567C102.419 160.548 100.487 163.821 98.9504 167.411C98.8581 167.633 98.6454 167.853 98.4401 167.926C97.0675 168.422 95.7062 169.01 94.2978 169.333C92.2096 169.81 90.0725 169.993 87.9844 170.462C76.7868 173.005 73.3354 179.873 73.3863 179.811C76.7868 175.677 82.2265 174.512 83.665 173.938C87.0147 172.604 90.4886 172.242 94.0059 172.281C95.0359 172.298 96.062 172.367 97.1202 172.415C93.9626 184.211 94.3768 195.71 98.6548 206.974C98.6586 206.76 98.6152 206.558 98.5719 206.355C96.898 199.08 96.2202 191.721 97.1767 184.23C98.3309 175.134 101.786 167.385 107.557 161C111.882 156.216 116.968 152.772 122.425 149.997C127.608 147.359 133.055 145.728 138.55 144.211C142.685 143.071 146.836 141.952 150.918 140.575C156.386 138.742 161.337 135.729 165.552 131.277C166.208 130.587 166.865 129.883 167.405 129.077C170.958 123.814 175.291 119.694 180.621 117.009C180.958 115.718 181.546 114.356 182.465 112.934C183.766 110.938 185.377 109.294 187.113 107.818C187.607 107.402 188.258 107.163 188.872 107.025C189.539 106.868 189.938 107.236 190.168 107.975C190.228 108.184 190.271 108.393 190.305 108.607C190.659 108.747 191.015 108.967 191.363 109.277C191.602 109.488 191.834 109.717 192.043 109.956C193.024 111.085 193.713 112.43 194.268 113.871C194.389 114.184 194.551 114.307 194.833 114.348C195.494 114.447 196.157 114.552 196.81 114.697C207.417 117.097 215.135 126.321 216.483 139.582C216.602 140.778 216.596 142.017 216.909 143.138C217.31 144.562 217.97 145.89 218.52 147.26C219.004 148.465 219.533 149.646 219.953 150.883C220.384 152.148 220.437 153.466 220.102 154.796C219.985 155.253 219.754 155.374 219.441 155.152C219.006 154.837 218.613 154.443 218.195 154.087C217.688 153.654 217.215 153.158 216.667 152.816C216.223 152.533 215.715 152.591 215.316 153.115C215.408 153.195 215.485 153.257 215.553 153.331C216.645 154.445 217.741 155.548 218.814 156.684C218.942 156.817 219.034 157.089 219.023 157.298C218.927 159.058 218.417 160.655 217.325 161.922C215.916 163.554 214.261 164.424 212.205 163.873C212.154 164.75 212.1 164.901 211.661 165.172C208.799 166.946 205.769 167.991 202.489 167.92C200.079 167.872 197.903 168.747 195.829 170.075C195.185 170.486 194.494 170.857 193.785 171.072C191.544 171.753 189.243 171.949 186.929 172.018C186.739 172.023 186.554 172.036 186.364 172.046C186.483 172.199 186.601 172.247 186.718 172.277C188.563 172.777 190.435 172.842 192.32 172.684C192.93 172.635 193.617 172.484 194.148 172.729C195.703 173.454 197.211 174.32 198.708 175.201C199.128 175.449 199.499 175.568 199.925 175.387C200.876 174.979 201.83 174.576 202.757 174.104C204.726 173.102 206.741 172.499 208.917 172.842C210.106 173.027 211.267 173.326 212.305 174.053C212.975 174.527 213.508 175.13 213.559 176.113C213.57 176.251 213.677 176.404 213.775 176.507C214.054 176.802 214.363 177.067 214.643 177.36C215.472 178.235 215.824 179.321 215.72 180.604C215.632 181.681 215.353 181.86 214.534 181.384C214.139 181.155 213.726 180.968 213.312 181.33C213.837 181.713 214.353 182.058 214.843 182.446C215.581 183.024 215.841 183.855 215.816 184.858C215.739 187.646 212.866 190.113 210.399 189.491C209.584 189.286 208.859 188.917 208.413 188.036C208.354 187.92 208.187 187.797 208.074 187.805C207.43 187.846 206.773 187.842 206.151 188.002C205.012 188.297 203.886 188.609 202.713 188.355C202.173 188.236 201.64 188.066 201.081 187.92C200.644 189.661 199.925 191.208 198.963 192.611C196.731 195.856 193.8 197.912 190.416 199.181C186.029 200.83 181.519 201.011 177.008 200.27C170.484 199.203 165.857 195.15 163.364 188.118C162.747 186.379 162.429 184.502 161.964 182.685C161.218 179.763 160.216 176.953 158.893 174.298C156.759 170.036 153.959 166.528 150.124 164.213C145.816 161.614 141.237 161.095 136.494 162.06C135.594 162.243 134.71 162.509 133.713 162.765C135.447 162.884 137.041 162.924 138.621 163.108C143.02 163.614 147.143 165.127 150.892 167.842C155.347 171.077 158.682 175.318 160.075 181.334C160.821 184.547 161.864 187.665 163.171 190.652C164.039 192.652 164.999 194.568 166.338 196.212C168.567 198.942 171.365 200.485 174.449 201.479C175.398 201.782 176.34 202.119 177.275 202.463C177.739 202.636 178.028 203.011 178.211 203.547C178.727 205.082 178.876 206.648 178.597 208.262C178.166 210.801 177.079 212.956 175.622 214.882C174.368 216.542 172.798 217.757 171.227 218.97C170.465 219.554 169.721 220.19 169.024 220.877C168.422 221.464 168.055 222.27 168.092 223.19C168.158 224.834 168.243 225.095 169.674 224.549C169.898 224.463 170.12 224.362 170.341 224.252C171.51 223.677 172.672 223.091 173.848 222.528C176.102 221.449 178.443 221.05 180.847 221.711C183.51 222.44 185.389 224.231 186.234 227.291C186.407 227.918 186.449 228.584 186.157 229.146C186.014 229.424 185.65 229.698 185.381 229.706C185.138 229.715 184.852 229.398 184.653 229.15C184.532 228.995 184.536 228.706 184.479 228.478C184.204 227.297 183.754 226.254 182.741 225.681C182.547 225.571 182.331 225.543 182.124 225.472C183.474 227.075 184.203 228.89 184.106 231.077C184.033 232.738 182.894 233.82 181.433 233.725C181.007 233.697 180.708 233.469 180.661 232.995C180.604 232.419 180.625 231.838 180.616 231.258C180.601 230.568 180.646 229.866 180.561 229.189C180.427 228.079 179.829 227.357 178.898 227.015C178.448 226.851 178.015 226.939 177.597 227.183C178.185 227.321 178.746 227.523 179.043 228.153C179.326 228.756 179.618 229.385 179.761 230.042C180.066 231.46 179.919 232.829 178.78 233.699C178.269 234.089 177.575 234.251 176.946 234.35C175.594 234.566 174.3 234.128 172.994 233.783C172.21 233.574 171.399 233.437 170.6 233.434C169.845 233.432 169.083 233.615 168.335 233.768C163.782 234.708 159.207 234.309 154.571 234.247C149.557 234.176 144.543 234.21 139.529 234.206C130.553 234.206 121.575 234.202 112.592 234.202C108.885 234.202 105.177 234.245 101.47 234.217C96.3558 234.18 91.3002 233.521 86.3557 232.036C67.521 226.398 53.4256 214.729 44.1354 195.169C40.0401 186.541 37.7015 177.311 36.8787 167.62C36.7808 166.5 42.4069 178.487 42.3542 177.309Z" fill="#0D0D0D"/>
<path d="M189.614 126.493C188.032 122.64 188.014 121.009 189.761 117.362C191.079 114.608 194.583 117.059 194.108 113.983C193.909 111.311 191.463 108.376 191.009 107.738C190.452 106.982 190.141 106.239 189.318 106.43C188.567 106.607 187.853 107.023 187.245 107.538C185.104 109.359 183.122 111.389 181.512 113.848C178.607 118.285 179.804 120.976 183.205 124.515C184.645 126.004 189.783 126.905 189.614 126.493Z" fill="#E65270"/>
<path opacity="0.2" d="M186.462 111.859C187.3 110.811 188.607 109.799 189.966 108.76C190.689 108.213 188.535 114.938 187.91 116.733C185.854 122.614 188.546 126.258 187.806 125.808C186.174 124.816 183.845 121.353 183.685 119.214C183.506 116.899 185.076 113.596 186.462 111.859Z" fill="#2B2B2B"/>
<path d="M188.961 126.133C187.379 122.28 187.362 120.651 189.111 117.003C190.425 114.251 191.036 111.477 190.563 108.398C190.512 108.055 190.452 107.706 190.354 107.374C190.075 106.45 189.58 105.997 188.757 106.191C188.004 106.368 187.194 106.659 186.592 107.172C184.451 108.993 182.466 111.023 180.858 113.481C178.629 116.884 178.872 119.207 180.563 121.787C181.047 122.524 181.344 122.502 181.967 122.636C182.773 122.81 182.937 121.526 182.681 121.007C182.092 119.813 181.704 118.612 181.63 117.668C181.45 115.35 182.583 112.833 183.969 111.098C185.253 109.49 187.852 106.995 189.621 106.389C190.051 108.266 189.138 112.012 188.561 113.831C187.857 116.052 185.724 120.106 186.26 122.748C186.26 122.748 187.01 125.191 187.808 125.812C188.603 126.431 188.961 126.133 188.961 126.133Z" fill="#0D0D0D"/>
<g opacity="0.2">
<path d="M92.9684 170.609C92.7519 170.622 92.5504 170.596 92.3866 170.495C92.5918 170.48 92.7858 170.525 92.9684 170.609Z" fill="#8B4FBA"/>
</g>
<path opacity="0.2" d="M190.303 202.914C192.15 199.703 194.227 198.617 196.573 196.089C198.804 193.691 200.518 190.796 202.738 188.441C204.479 188.857 206.434 188.521 208.221 188.624C209.497 192.232 215.696 188.799 216.263 186.471L217.086 187.883C218.872 191.911 212.463 192.18 208.814 191.762C206.255 191.471 195.201 194.796 195.564 211.111C194.321 213.298 191.388 211.163 191.384 214.014C191.382 216.932 191.423 222.078 193.625 223.935C192.996 226.48 190.804 223.789 190.201 222.769C188.848 220.487 186.918 216.447 186.479 213.742C185.737 209.122 188.283 206.424 190.303 202.914Z" fill="#430A1D"/>
</g>
<defs>
<linearGradient id="paint0_linear_88_42" x1="2843.74" y1="-22562.1" x2="-3875.29" y2="4833.28" gradientUnits="userSpaceOnUse">
<stop offset="0.3836" stop-color="#FAA100"/>
<stop offset="0.6584" stop-color="#BF73F2"/>
<stop offset="0.6649" stop-color="#C370E6"/>
<stop offset="0.6852" stop-color="#CC68C7"/>
<stop offset="0.7081" stop-color="#D461AB"/>
<stop offset="0.7341" stop-color="#DB5B95"/>
<stop offset="0.7643" stop-color="#E05784"/>
<stop offset="0.8017" stop-color="#E35479"/>
<stop offset="0.8543" stop-color="#E55272"/>
<stop offset="1" stop-color="#E65270"/>
</linearGradient>
<linearGradient id="paint1_linear_88_42" x1="6099.08" y1="-23570.2" x2="-1273.67" y2="6491.44" gradientUnits="userSpaceOnUse">
<stop offset="0.3836" stop-color="#FAA100"/>
<stop offset="0.6584" stop-color="#BF73F2"/>
<stop offset="0.6649" stop-color="#C370E6"/>
<stop offset="0.6852" stop-color="#CC68C7"/>
<stop offset="0.7081" stop-color="#D461AB"/>
<stop offset="0.7341" stop-color="#DB5B95"/>
<stop offset="0.7643" stop-color="#E05784"/>
<stop offset="0.8017" stop-color="#E35479"/>
<stop offset="0.8543" stop-color="#E55272"/>
<stop offset="1" stop-color="#E65270"/>
</linearGradient>
<linearGradient id="paint2_linear_88_42" x1="5855.37" y1="-12407.9" x2="5502.36" y2="1939.86" gradientUnits="userSpaceOnUse">
<stop stop-color="#FAA7B5"/>
<stop offset="0.3836" stop-color="#FAA100"/>
<stop offset="0.7317" stop-color="#BF73F2"/>
</linearGradient>
<linearGradient id="paint3_linear_88_42" x1="431.957" y1="-10683.1" x2="4362.56" y2="-4766.34" gradientUnits="userSpaceOnUse">
<stop stop-color="#F6E8A0"/>
<stop offset="1" stop-color="#E65271"/>
</linearGradient>
<linearGradient id="paint4_linear_88_42" x1="688.014" y1="-6746.91" x2="4066" y2="-1663.23" gradientUnits="userSpaceOnUse">
<stop stop-color="#F6E8A0"/>
<stop offset="1" stop-color="#E65271"/>
</linearGradient>
<linearGradient id="paint5_linear_88_42" x1="1038.97" y1="-7348.08" x2="543.758" y2="202.253" gradientUnits="userSpaceOnUse">
<stop stop-color="#F6E8A0"/>
<stop offset="1" stop-color="#E65271"/>
</linearGradient>
<linearGradient id="paint6_linear_88_42" x1="2233.34" y1="1263.77" x2="-527.055" y2="-9423.02" gradientUnits="userSpaceOnUse">
<stop stop-color="#E65271"/>
<stop offset="0.3836" stop-color="#FAA100"/>
</linearGradient>
<linearGradient id="paint7_linear_88_42" x1="-1152.46" y1="-6699.04" x2="6956.02" y2="-664.122" gradientUnits="userSpaceOnUse">
<stop stop-color="#F6E8A0"/>
<stop offset="1" stop-color="#E65271"/>
</linearGradient>
<linearGradient id="paint8_linear_88_42" x1="4433.55" y1="-5171.36" x2="1099.55" y2="-4379.12" gradientUnits="userSpaceOnUse">
<stop stop-color="#FAA7B5"/>
<stop offset="0.3836" stop-color="#FAA100"/>
<stop offset="0.7317" stop-color="#BF73F2"/>
</linearGradient>
<linearGradient id="paint9_linear_88_42" x1="31557.2" y1="-10318.4" x2="-2038.04" y2="5420.53" gradientUnits="userSpaceOnUse">
<stop stop-color="#FAA7B5"/>
<stop offset="0.3836" stop-color="#FAA100"/>
<stop offset="0.7317" stop-color="#BF73F2"/>
</linearGradient>
<radialGradient id="paint10_radial_88_42" cx="0" cy="0" r="1" gradientUnits="userSpaceOnUse" gradientTransform="translate(-873.922 -533.988) rotate(-127.866) scale(2089.21 983.539)">
<stop offset="0.0091" stop-color="white"/>
<stop offset="1" stop-color="white" stop-opacity="0"/>
</radialGradient>
<radialGradient id="paint11_radial_88_42" cx="0" cy="0" r="1" gradientUnits="userSpaceOnUse" gradientTransform="translate(-1293.48 1260.71) rotate(180) scale(2094.85 2397.52)">
<stop offset="0.0091" stop-color="white"/>
<stop offset="1" stop-color="white" stop-opacity="0"/>
</radialGradient>
<radialGradient id="paint12_radial_88_42" cx="0" cy="0" r="1" gradientUnits="userSpaceOnUse" gradientTransform="translate(-648.592 1616.66) rotate(180) scale(2094.93 2397.61)">
<stop offset="0.0091" stop-color="white"/>
<stop offset="1" stop-color="white" stop-opacity="0"/>
</radialGradient>
<linearGradient id="paint13_linear_88_42" x1="2684.93" y1="-3105.57" x2="675.812" y2="850.643" gradientUnits="userSpaceOnUse">
<stop offset="0.0041" stop-color="#FAA7B5"/>
<stop offset="0.3836" stop-color="#FAA100"/>
</linearGradient>
<linearGradient id="paint14_linear_88_42" x1="1593.92" y1="-12099.1" x2="-594.197" y2="2429.77" gradientUnits="userSpaceOnUse">
<stop stop-color="#FAA7B5"/>
<stop offset="0.3836" stop-color="#FAA100"/>
<stop offset="0.7317" stop-color="#BF73F2"/>
</linearGradient>
<linearGradient id="paint15_linear_88_42" x1="1405.17" y1="-14414.8" x2="-779.496" y2="92.1855" gradientUnits="userSpaceOnUse">
<stop stop-color="#FAA7B5"/>
<stop offset="0.3836" stop-color="#FAA100"/>
<stop offset="0.7317" stop-color="#BF73F2"/>
</linearGradient>
<linearGradient id="paint16_linear_88_42" x1="764.671" y1="-9536.94" x2="1756.34" y2="664.556" gradientUnits="userSpaceOnUse">
<stop stop-color="#FAA7B5"/>
<stop offset="0.3836" stop-color="#FAA100"/>
<stop offset="0.7317" stop-color="#BF73F2"/>
</linearGradient>
<linearGradient id="paint17_linear_88_42" x1="505.332" y1="-7234.86" x2="60.519" y2="10845.4" gradientUnits="userSpaceOnUse">
<stop stop-color="#FAA7B5"/>
<stop offset="0.3836" stop-color="#FAA100"/>
<stop offset="0.7317" stop-color="#BF73F2"/>
</linearGradient>
<linearGradient id="paint18_linear_88_42" x1="956.542" y1="-1044.94" x2="-60.7357" y2="421.758" gradientUnits="userSpaceOnUse">
<stop stop-color="#FAA7B5"/>
<stop offset="0.3836" stop-color="#FAA100"/>
<stop offset="0.7317" stop-color="#BF73F2"/>
</linearGradient>
<clipPath id="clip0_88_42">
<rect width="256" height="256" fill="white"/>
</clipPath>
</defs>
</svg>
