<svg width="256" height="256" viewBox="0 0 256 256" fill="none" xmlns="http://www.w3.org/2000/svg">
<path d="M196 0H60C26.8629 0 0 26.8629 0 60V196C0 229.137 26.8629 256 60 256H196C229.137 256 256 229.137 256 196V60C256 26.8629 229.137 0 196 0Z" fill="#F4F2ED"/>
<path fill-rule="evenodd" clip-rule="evenodd" d="M207.064 32C212.926 32 218.351 35.1422 221.1 40.2501C223.734 45.1427 223.622 50.9082 220.808 55.694L220.712 55.8545L196.047 96.727C193.258 101.349 188.223 104.233 182.841 104.295L182.665 104.296H154.5L166.206 130.844L166.253 130.923L166.325 131.048C169.082 135.984 169.014 141.852 166.156 146.715L166.059 146.877L141.394 187.749C138.604 192.371 133.569 195.255 128.188 195.317L128.012 195.318L93.442 195.318L68.5902 221.283L68.5432 221.331C66.2046 223.686 63.0448 225 59.7504 225C58.9269 225 58.1028 224.918 57.2876 224.753C53.269 223.94 49.9302 221.209 48.323 217.441L48.2777 217.334L35.1993 187.594L35.1305 187.48L35.0591 187.357C35.0472 187.336 35.0352 187.315 35.0225 187.292C32.2656 182.357 32.3323 176.488 35.1911 171.625L35.2874 171.463L59.21 131.821L41.5827 91.8456L41.9057 91.6825L41.9008 91.6585C41.155 87.9817 41.7554 84.1472 43.6708 80.7885L43.7766 80.6055L43.8744 80.4416L68.5397 39.5687C71.3293 34.9473 76.3646 32.0625 81.7459 32H81.9218H207.064ZM77.5516 195.007H51.3449L59.0421 212.645L59.061 212.692C59.1886 213.008 59.3949 213.181 59.7022 213.243C59.9762 213.299 60.1979 213.242 60.4075 213.052L60.4442 213.017L77.5516 195.007ZM152.469 134.368H73.2518C73.1644 134.368 73.0769 134.371 72.9896 134.377L72.9656 134.379L94.6863 183.596H128.008C129.378 183.596 130.698 182.87 131.448 181.703L131.507 181.608L156.208 140.71C156.945 139.49 157.026 138.075 156.443 136.801C155.769 135.332 154.207 134.368 152.469 134.368ZM65.0172 144.475L45.4129 177.206C44.6328 178.51 44.5876 180.035 45.2861 181.378L45.3602 181.515L45.3997 181.581L45.4788 181.709L45.6356 181.94L45.8106 182.166L45.9781 182.355L46.0071 182.386L46.1204 182.5L46.2188 182.592C46.8354 183.147 47.5977 183.486 48.4385 183.572L48.6274 183.589L48.7368 183.594L48.8753 183.596H82.1379L65.0172 144.475ZM59.8621 104.375L68.4721 123.936L68.6398 123.879C70.1267 123.386 71.6813 123.119 73.2529 123.095L73.4888 123.093L150.276 123.093L142.037 104.375L59.8621 104.375ZM206.845 43.4105H127.345L149.072 92.6389H182.382C183.755 92.6389 185.075 91.9114 185.826 90.7446L185.885 90.6486L210.588 49.752C211.324 48.5323 211.406 47.118 210.822 45.8453C210.163 44.4067 208.651 43.4517 206.956 43.4118L206.845 43.4105ZM115.175 43.4105H82.0493C80.6871 43.4105 79.3733 44.1356 78.6254 45.3012L78.5661 45.3966L53.9288 86.2938C53.1933 87.5148 53.1119 88.9326 53.6952 90.2078C54.3522 91.6454 55.8561 92.597 57.5412 92.6375L57.6513 92.6389H136.845L115.175 43.4105Z" fill="#1F1F1F"/>
</svg>
