<svg width="256" height="256" viewBox="0 0 256 256" fill="none" xmlns="http://www.w3.org/2000/svg" id="forgemc">
<style>
#forgemc {
    rect {fill: #242938}
    path {fill: #F1F1F1}

    @media (prefers-color-scheme: light) {
        rect {fill: #F4F2ED}
        path {fill: #202D44}
    }
}
</style>
<rect width="256" height="256" rx="60" fill="#242938"/>
<path d="M226.974 86.3861L178.215 86.4887L159.047 86.4914C155.443 86.4961 151.77 86.3725 148.177 86.6099C148.578 86.6459 148.981 86.6794 149.382 86.7113H149.381C148.979 86.6794 148.578 86.6465 148.177 86.6106C143.403 86.5462 138.627 86.5392 133.852 86.5921C132.233 86.6225 130.571 86.5831 128.955 86.6921L129.046 86.5715L128.834 86.7C128.874 86.6971 128.914 86.6948 128.955 86.6921L128.893 86.7749C131.908 87.1235 135.103 86.979 138.147 87.0855C141.984 87.2191 145.87 87.5601 149.704 87.5717L149.705 87.5724C150.657 87.8932 154.735 87.8907 155.978 87.9578C163.479 88.3682 170.981 88.7377 178.486 89.0659L198.014 90.0383C201.442 90.2065 205.052 90.6359 208.466 90.3754C205.813 91.4599 202.866 91.9474 200.124 92.8182C199.205 93.1017 198.293 93.4035 197.387 93.7243C196.481 94.0451 195.582 94.3843 194.689 94.741C193.797 95.0984 192.912 95.4743 192.035 95.8677C191.157 96.261 190.289 96.6723 189.428 97.101C188.569 97.5303 187.717 97.9757 186.875 98.4396C186.033 98.9035 185.201 99.3838 184.379 99.8815C183.556 100.379 182.744 100.893 181.943 101.424C181.142 101.955 180.351 102.501 179.572 103.064C171.3 109.108 164.077 117.824 162.515 128.216C161.716 133.528 162.781 139.888 166.059 144.265C169.857 149.336 178.921 150.283 184.805 151.131C186.482 152.984 188.015 155.02 189.599 156.955C191.381 159.132 193.271 161.274 194.912 163.556C195.109 168.325 194.951 173.148 194.964 177.925C187.738 178.115 180.497 177.858 173.268 178C173.014 175.739 172.976 173.425 172.866 171.152C172.75 168.716 172.574 166.265 172.589 163.827L159.658 154.69C157.981 153.519 156.357 152.193 154.611 151.137C159.144 155.425 165.576 164.172 168.477 169.729C169.336 171.374 169.987 173.032 170.522 174.806C165.69 170.794 158.863 169.061 152.729 168.224C140.923 166.615 125.409 167.478 115.621 174.916C118.559 166.999 125.652 157.015 131.768 151.16C130.244 151.992 128.845 153.179 127.414 154.17C122.891 157.298 118.499 160.65 113.902 163.665C113.63 165.662 113.603 167.722 113.499 169.736C113.357 172.48 113.174 175.23 113.133 177.978C105.385 177.868 97.6237 177.959 89.8742 177.965C89.8136 173.18 89.7012 168.335 89.8775 163.554C91.0311 161.768 92.6158 160.102 93.9627 158.451C95.9563 156.008 97.883 153.405 100.053 151.125C105.637 149.802 111.998 149.084 116.046 144.508C118.335 141.92 119.443 138.394 119.19 134.961C118.853 130.379 116.022 125.3 111.775 123.257C107.283 121.096 101.629 121.437 96.7372 121.264C93.7097 121.157 90.6646 121.025 87.6527 120.684C83.4722 120.211 79.3808 119.373 75.4773 117.764C71.2702 116.03 67.2431 113.494 63.4163 111.049C51.2809 103.296 39.9093 94.2063 29 84.8289C36.9627 84.6797 44.9466 84.7898 52.9114 84.7892L91.976 84.7971C93.0438 91.0416 93.9071 97.34 94.9226 103.596C95.3588 106.289 95.675 109.081 96.3304 111.728C96.4848 109.416 96.1759 106.95 96.1875 104.611C96.2311 97.4356 96.2387 90.2595 96.2094 83.0836C99.3111 82.9527 102.462 83.0216 105.568 83.0637C106.133 88.1078 107.113 93.1412 107.919 98.1541C108.383 101.031 108.788 105.473 109.735 108.028C109.43 103.423 109.513 98.8815 109.515 94.2701L109.537 78.0013L227 78L226.974 86.3861ZM148.36 87.1405C148.447 87.1843 148.525 87.2187 148.601 87.2438L148.732 87.2802C148.616 87.2553 148.498 87.2105 148.36 87.1405ZM128.732 86.7066L128.764 86.7424L128.834 86.7C128.8 86.7025 128.766 86.7041 128.732 86.7066Z" fill="#F1F1F1"/>
</svg>
