<svg width="256" height="256" viewBox="0 0 256 256" fill="none" id="foundry" xmlns="http://www.w3.org/2000/svg">
<style>
#foundry {
    rect {fill: #242938}
    
    @media (prefers-color-scheme: light) {
        rect {fill: #F4F2ED}
    }
}   
</style>
<rect width="256" height="256" fill="#242938" rx="60"/>
<path class="black" d="M111.716 238.274C65.4122 230.992 29.2758 197.499 18.1286 151.506C15.3112 140.098 15.3112 115.585 18.0061 104.542C28.6633 60.9758 60.3898 29.5452 104.366 18.9874C115.513 16.3176 140.257 16.3176 151.772 19.1088C194.523 29.3025 225.76 59.2769 237.152 101.265C240.949 115.342 240.949 140.948 237.152 154.904C233.845 166.918 226.25 182.936 219.268 192.523C213.02 201.261 199.79 214.246 191.216 219.949C182.396 225.895 165.982 233.177 155.202 235.968C144.177 238.759 122.128 239.851 111.716 238.274Z" fill="white"/>
<path class="black" d="M113.263 223.578C109.863 221.883 106.706 218.856 104.521 215.344C101.364 210.501 101 208.806 101 200.087C101 188.827 102.578 186.163 109.256 186.163C112.413 186.163 113.141 185.678 113.141 183.741C113.141 182.409 113.991 179.261 114.962 176.96C116.541 172.964 117.026 172.722 121.276 173.086C125.161 173.449 125.89 173.933 126.254 176.476C126.375 178.171 126.861 180.835 127.225 182.53C127.832 185.073 128.075 185.194 129.046 183.499C129.775 182.288 129.653 180.351 128.925 178.292C128.318 176.597 127.711 173.449 127.711 171.511C127.711 168.242 128.075 168 132.082 168C140.823 168 147.987 179.503 146.894 191.49C146.53 194.881 146.53 196.939 146.773 196.213C147.137 195.365 149.322 194.639 151.629 194.639H156L155.272 201.662C154.543 210.985 150.779 218.008 144.466 222.125C140.095 225.031 138.031 225.515 129.046 225.878C120.183 226.242 117.755 225.878 113.263 223.578Z" fill="white"/>
<path d="M88.0659 157.182C86.8477 156.047 86.6738 154.882 87.5438 153.602C88.9072 151.593 91.1116 151.448 92.4169 153.311C93.3162 154.562 93.1711 155.814 92.0108 156.978C90.7346 158.259 89.3423 158.346 88.0659 157.182Z" fill="black"/>
<path d="M119.896 233.899C103.835 232.253 92.5444 229.114 79.8044 222.745C61.1176 213.385 46.4759 199.868 35.7285 182.046C27.9095 169.038 23.3209 155.312 21.3284 138.685C20.9058 135.037 20.8756 121.491 21.3284 117.424C23.9548 92.8726 34.1889 71.2224 51.3665 53.7884C63.2912 41.6774 77.0271 33.0951 93.148 27.6226C104.711 23.7052 114.975 22.0306 127.594 22.0007C138.009 21.9708 145.617 22.8679 154.915 25.2602C187.217 33.4837 214.417 56.9282 227.037 87.4601C230.689 96.2818 232.864 104.445 234.341 114.972C234.947 119.367 235.218 130.97 234.796 136.054C231.747 174.061 208.953 207.075 174.538 223.492C163.64 228.666 153.768 231.567 141.028 233.36C137.858 233.78 122.733 234.198 119.896 233.899ZM133.813 220.92C137.798 219.904 142.688 217.064 145.315 214.252C149.571 209.677 151.956 203.367 151.685 197.297L151.594 195.054L151.081 196.639C150.779 197.536 150.266 198.702 149.934 199.24C149.088 200.586 147.096 202.32 146.1 202.56C144.832 202.889 142.658 202.201 141.722 201.184C140.545 199.928 140.635 198.702 142.115 194.097C143.715 189.103 143.866 187.279 142.99 184.408C141.813 180.491 140.243 177.889 137.013 174.54C135.111 172.536 131.065 169.546 130.703 169.875C130.613 169.994 130.824 170.533 131.156 171.101C132.454 173.314 133.722 177.59 133.843 180.401C134.024 183.93 133.33 185.933 131.096 188.206C128.741 190.598 127.141 190.658 125.571 188.385C124.152 186.292 122.794 180.461 122.673 175.945C122.643 174.689 122.522 173.673 122.401 173.673C121.979 173.673 119.654 176.812 118.929 178.338C118.537 179.175 117.933 180.999 117.601 182.375C116.756 185.574 116.937 187.518 118.386 191.764C119.745 195.801 119.714 197.117 118.235 198.642C116.756 200.137 115.548 200.646 114.25 200.287C112.771 199.868 111.714 198.971 110.899 197.506C109.933 195.682 109.933 191.436 110.899 189.552C111.262 188.804 111.533 188.146 111.443 188.086C111.141 187.787 107.488 190.09 106.461 191.256C104.801 193.11 104.318 194.785 104.318 198.672C104.318 204.623 106.401 209.707 110.658 214.132C116.756 220.502 125.42 223.044 133.813 220.92ZM182.025 203.218C182.085 203.008 184.711 199.809 187.851 196.1C190.991 192.392 196.244 186.202 199.504 182.345C202.764 178.487 207.504 172.895 210.011 169.935C212.515 166.974 214.69 164.343 214.841 164.074C215.051 163.685 213.693 162.429 207.987 157.734C204.063 154.474 200.832 151.873 200.772 151.903C200.742 151.962 199.293 153.697 197.572 155.76C195.881 157.824 192.44 161.921 189.934 164.851C187.459 167.782 184.923 170.742 184.349 171.46C183.775 172.148 182.236 174.002 180.908 175.527C179.609 177.052 176.953 180.192 175.021 182.464C173.089 184.767 170.523 187.757 169.345 189.103C168.138 190.479 167.141 191.645 167.141 191.764C167.141 192.183 180.938 203.576 181.481 203.576C181.693 203.576 181.934 203.397 182.025 203.218ZM61.3289 190.359C72.3177 182.614 71.412 183.152 72.6196 183.421C76.1214 184.169 81.1329 182.285 83.6385 179.324C85.3894 177.261 87.5329 171.759 88.3783 167.094C88.9216 164.104 89.133 163.774 91.5783 162.01C94.6273 159.827 96.3784 157.854 96.9821 155.94C97.2236 155.072 97.6161 152.86 97.8273 151.006L98.1897 147.626L99.5482 146.281C101.963 143.799 115.126 133.063 119.896 129.684C120.65 129.146 121.254 128.638 121.254 128.518C121.254 128.338 116.877 124.84 116.424 124.69C116.303 124.63 115.277 125.288 114.129 126.096C112.982 126.933 109.601 129.325 106.612 131.419C95.6235 139.194 89.3443 143.799 87.8046 145.264C83.2462 149.57 80.7403 156.927 80.2271 167.542C80.0158 171.609 79.8951 172.536 79.2913 173.762C77.7818 176.872 73.797 178.427 70.6271 177.112C70.0534 176.872 69.3592 176.663 69.1479 176.663C68.9365 176.663 66.4005 178.338 63.5327 180.341C60.6647 182.375 58.0081 184.199 57.6761 184.378C57.1023 184.677 57.042 184.916 57.1627 186.083C57.4042 187.997 56.7402 188.924 55.1099 188.924C54.2042 188.924 53.7212 188.744 53.208 188.176C52.8156 187.757 52.3929 187.428 52.2419 187.428C51.789 187.458 49.7061 189.492 49.7061 189.91C49.7061 191.077 53.9325 193.319 56.1363 193.379C56.7703 193.409 58.1893 192.572 61.3289 190.359ZM179.066 175.616C184.893 168.739 190.629 161.98 191.836 160.545C196.032 155.671 199.474 151.484 199.383 151.394C199.323 151.335 197.33 151.155 194.915 150.976C192.5 150.796 189.874 150.557 189.028 150.467L187.519 150.288L184.047 154.385C179.217 160.096 179.549 159.498 180.757 160.485C181.662 161.233 181.753 161.472 181.693 162.698C181.632 164.402 180.606 167.124 179.609 168.32C178.583 169.546 176.168 170.712 174.266 170.892C172.968 171.011 172.636 170.951 172.153 170.413C171.821 170.084 171.428 169.785 171.247 169.815C171.066 169.815 169.798 171.191 168.409 172.895C167.051 174.6 165.089 176.902 164.062 178.009L162.19 180.012L162.734 181.567C163.036 182.405 163.851 184.588 164.575 186.382C165.27 188.206 165.934 189.91 166.055 190.239C166.205 190.688 166.417 190.598 167.383 189.432C167.987 188.684 173.27 182.464 179.066 175.616ZM49.1022 186.621C50.7325 185.425 50.823 185.186 50.159 184.318C49.4948 183.421 49.6154 182.704 50.5815 181.717C51.6382 180.67 52.9664 180.58 53.7817 181.448C54.0835 181.777 54.5364 182.046 54.8081 182.046C55.0797 182.046 56.3175 181.238 57.5552 180.252C58.7929 179.235 61.2081 177.321 62.9288 175.975C64.6194 174.63 66.0082 173.344 66.0082 173.075C66.0082 172.835 65.8873 171.789 65.7365 170.742C65.4043 168.529 65.7968 165.27 66.5516 163.984C67.6988 162.04 70.7779 161.173 74.6723 161.711C75.9706 161.891 77.4498 162.1 77.9932 162.19L78.9291 162.369L79.4423 160.037C79.714 158.721 80.1367 157.076 80.3782 156.358L80.8009 155.043L76.7856 155.192C67.0346 155.581 62.3252 158.242 60.7552 164.283C60.4835 165.3 60.2722 167.004 60.2722 168.081V169.994L58.7025 171.161C50.0984 177.56 46.0231 180.7 45.9022 180.999C45.4797 182.046 46.8079 187.727 47.4722 187.727C47.5325 187.727 48.2872 187.219 49.1022 186.621ZM175.957 169.277C177.768 168.589 178.734 167.811 179.428 166.556C180.153 165.27 180.877 162.459 180.606 162.04C180.485 161.891 178.07 159.827 175.202 157.435C170.341 153.428 144.107 131.837 135.292 124.601C133.149 122.836 128.771 119.248 125.632 116.646C122.462 114.044 117.179 109.679 113.858 106.957C110.537 104.236 104.529 99.302 100.484 95.9826C96.4689 92.6634 92.967 89.942 92.6952 89.942C91.8801 89.942 89.9179 91.1083 88.8311 92.2148C87.6236 93.4409 86.2348 96.1023 86.2348 97.1787C86.2348 98.1357 86.8083 98.644 98.3103 108.064C103.714 112.49 110.326 117.902 112.982 120.145C115.669 122.358 120.741 126.544 124.273 129.415C127.835 132.286 131.76 135.515 133.028 136.592C134.296 137.668 137.224 140.091 139.549 141.975C141.843 143.859 149.783 150.378 157.179 156.478C164.575 162.548 171.157 167.961 171.821 168.469C173.753 169.935 174.115 169.994 175.957 169.277ZM100.786 162.608C102.205 162.19 103.261 161.382 113.375 152.77C117.933 148.883 123.307 144.307 125.299 142.603C129.526 139.014 131.549 137.13 131.458 136.861C131.277 136.442 126.386 132.705 125.994 132.705C125.782 132.705 125.058 133.153 124.394 133.691C122.401 135.366 101.843 151.394 100.997 151.962C100.424 152.321 100.061 152.979 99.6689 154.325C98.9142 157.016 98.1897 158.272 96.016 160.545C94.9595 161.651 94.0839 162.728 94.0839 162.907C94.0839 163.326 99.1255 163.117 100.786 162.608ZM223.715 133.841C224.862 133.332 225.345 132.405 225.708 130.103C226.101 127.591 226.554 119.966 226.372 119.038C226.222 118.261 224.259 115.958 222.961 115.031C221.059 113.686 220.154 113.716 208.651 115.241C198.417 116.586 192.198 117.783 191.625 118.44C191.474 118.65 191.262 120.085 191.142 121.7L190.93 124.571L192.138 125.378C194.493 126.933 201.013 129.116 210.885 131.688C220.154 134.14 222.327 134.499 223.715 133.841ZM40.1059 132.405C46.2646 131.179 56.3175 128.697 60.3327 127.412C62.144 126.843 64.1364 125.976 64.8006 125.498L66.0082 124.63V121.909C66.0082 120.414 65.8572 118.949 65.7064 118.65C65.193 117.663 60.0912 116.467 48.6496 114.613C34.0984 112.25 34.6116 112.25 31.5624 115.031L29.6303 116.796L29.6607 122.418C29.6908 129.086 29.9927 130.94 31.3511 132.316C32.1965 133.183 32.4983 133.303 33.8871 133.303C34.7624 133.303 37.5701 132.884 40.1059 132.405ZM152.349 119.397C154.462 117.603 159.715 113.088 164.002 109.38C168.319 105.671 172.455 102.113 173.27 101.455C174.055 100.827 174.689 100.079 174.689 99.8103C174.658 99.5711 174.055 98.704 173.3 97.8964L171.941 96.4312L171.217 96.9995C170.824 97.2985 167.323 100.05 163.458 103.1C159.594 106.12 152.5 111.712 147.669 115.51C142.869 119.308 138.462 122.717 137.949 123.076C137.405 123.464 136.952 123.883 136.952 124.032C136.952 124.182 138.039 125.259 139.367 126.425L141.813 128.518L145.164 125.617C147.005 124.002 150.236 121.221 152.349 119.397ZM143.05 112.191C152.681 105.014 164.183 96.5509 167.232 94.4277C168.017 93.8895 168.651 93.2913 168.651 93.1419C168.651 92.9923 168.168 92.3344 167.594 91.7065C167.021 91.0486 166.538 90.3906 166.538 90.2412C166.538 90.0618 166.387 89.942 166.236 89.942C166.055 89.942 160.651 93.5903 154.22 98.0759C147.79 102.562 139.277 108.482 135.292 111.264C131.307 114.015 128.047 116.467 128.047 116.646C128.047 116.856 128.922 117.783 130.009 118.71C131.639 120.085 132.062 120.324 132.484 120.025C132.756 119.846 137.496 116.317 143.05 112.191ZM69.0873 107.615C69.9327 107.197 70.4158 106.15 71.3215 102.831L71.8649 100.917L70.8988 100.109C69.0572 98.5843 64.5893 96.1621 54.2949 91.0486C44.4531 86.1743 43.8495 85.9052 42.2192 85.9351C39.472 85.9351 36.2419 87.7889 35.3663 89.8524C34.8531 91.0187 32.6493 99.0627 32.1965 101.365C31.7436 103.638 32.3475 105.014 34.1286 105.821C35.6078 106.449 40.6494 107.167 46.9891 107.585C49.5551 107.765 52.1514 107.944 52.7249 108.004C53.2987 108.064 57.042 108.094 61.0269 108.064C66.4611 108.034 68.4837 107.914 69.0873 107.615ZM211.368 107.436C221.905 106.479 223.022 106.24 224.169 104.655C225.044 103.399 224.984 102.292 223.625 97.0592C221.723 89.7628 221.3 88.7758 219.549 87.6097C217.315 86.1444 215.173 85.606 213.241 86.0844C211.278 86.533 193.194 95.5041 188.727 98.2255C186.342 99.6908 185.376 100.438 185.315 100.917C185.194 101.754 186.01 105.014 186.704 106.389C187.549 108.064 188.394 108.213 197.934 108.034C202.493 107.974 208.561 107.705 211.368 107.436ZM77.3895 92.7232C79.0196 90.9888 80.8009 88.4768 80.8009 87.9087C80.8009 86.2938 63.9251 66.318 60.8459 64.3146C59.91 63.7166 59.3363 63.567 57.4949 63.567C54.325 63.5371 53.3891 63.9257 51.1552 66.2882C48.9816 68.5908 44.4833 74.2127 43.8193 75.4686C43.1249 76.7845 43.2456 78.3992 44.091 79.386C45.057 80.5224 49.1326 82.7352 57.4949 86.6527C65.5252 90.4205 69.7817 92.1549 72.7706 92.9325C75.7592 93.71 76.4536 93.6801 77.3895 92.7232ZM183.926 92.9624C187.911 91.9156 196.817 88.0282 206.417 83.1539C211.971 80.3429 213.3 79.2963 213.543 77.5022C213.663 76.5154 213.512 76.0668 212.454 74.5416C210.343 71.4616 204.485 64.7333 203.368 64.165C202.493 63.6865 201.798 63.5969 199.383 63.6865C196.666 63.7763 196.395 63.8361 195.308 64.7034C192.44 66.976 176.832 85.5761 176.108 87.6097C175.715 88.716 179.73 93.5305 181.058 93.5305C181.481 93.5305 182.779 93.2913 183.926 92.9624ZM95.4124 77.2331C96.4991 76.3359 97.6463 75.1696 98.0085 74.6912L98.6425 73.794L96.5896 69.8169C94.567 66.0191 92.0613 61.9521 85.8725 52.5922C83.2462 48.6151 82.7933 48.0769 81.5254 47.4488C79.6536 46.5516 75.8799 46.3124 74.5517 46.9703C72.5894 47.987 63.7441 56.39 63.11 57.8553C62.4458 59.3805 63.0799 60.756 65.2535 62.5204C67.1554 64.0454 79.2309 72.0596 83.3367 74.5416C87.6236 77.0835 91.4273 78.788 92.9367 78.8477C93.2086 78.8776 94.3254 78.13 95.4124 77.2331ZM167.594 77.7115C171.157 76.0967 184.138 67.9628 189.994 63.6566C194.1 60.6663 194.795 59.1413 193.164 56.8685C192.168 55.5229 186.674 50.3793 183.775 48.1067C181.934 46.6415 181.783 46.5815 180.002 46.5815C176.44 46.5815 174.809 47.2992 173.058 49.572C169.164 54.6258 158.387 72.4783 158.387 73.8239C158.387 74.2724 161.587 77.5321 162.915 78.3991C163.851 79.0272 165.058 78.8477 167.594 77.7115ZM114.009 65.8995C116.152 64.6434 117.631 63.5072 117.631 63.1184C117.631 61.4736 112.046 43.9801 109.45 37.5507C108.273 34.65 107.216 33.6632 104.318 32.7959C101.329 31.8989 100.484 32.0782 95.8047 34.7098C85.2989 40.6308 84.5744 41.7072 88.2574 46.163C91.367 49.9009 102.295 60.9653 105.918 64.0156C107.699 65.5107 110.537 67.2152 111.292 67.2152C111.563 67.2152 112.771 66.6172 114.009 65.8995ZM147.005 66.7069C149.27 65.5705 151.685 63.4473 158.387 56.7789C165.994 49.2431 168.711 46.2228 170.009 44.0697C170.734 42.8436 170.764 42.6044 170.462 41.6475C170.009 40.3017 168.59 39.1056 164.545 36.7135C159.413 33.723 156.364 32.2278 155.247 32.2278C153.436 32.2278 150.296 33.3642 149.239 34.4407C148.122 35.5173 147.76 36.3844 144.741 44.937C141.964 52.8615 141.632 53.8782 140.394 58.2441C139.186 62.6399 139.156 63.3277 140.062 64.1351C140.756 64.8229 145.224 67.2152 145.737 67.2152C145.888 67.2152 146.462 67.0059 147.005 66.7069ZM132.424 62.3409C133.36 61.8625 134.628 59.3805 135.413 56.4498C137.466 48.8842 140.243 32.3774 139.82 30.3737C139.699 29.9251 139.156 29.1776 138.613 28.6692C137.254 27.5029 135.896 27.3535 127.866 27.5029C120.65 27.6227 120.379 27.6824 118.446 29.8056C115.971 32.5268 115.941 33.5136 117.933 40.6009C118.597 42.9932 119.624 46.7012 120.228 48.8244C121.435 53.28 123.488 59.3504 124.333 61.0251C124.635 61.6531 125.209 62.2812 125.571 62.4306C126.598 62.8194 131.549 62.7895 132.424 62.3409Z" fill="black"/>
</svg>
