<svg width="256" height="256" viewBox="0 0 256 256" fill="none" xmlns="http://www.w3.org/2000/svg" id="frankenphp">
<style>
#frankenphp {
    rect {fill: #242938}
    
    @media (prefers-color-scheme: light) {
        rect {fill: #F4F2ED}
    }
}
</style>
<rect width="256" height="256" rx="60" fill="#242938"/>
<path opacity="0.9" fill-rule="evenodd" clip-rule="evenodd" d="M201.195 35H207.055C215.734 36.7441 221.365 41.8873 223.949 50.4296C224.836 53.6789 225.328 57.0234 225.414 60.3905C225.291 63.7884 224.998 67.1781 224.535 70.5467C223.348 77.2614 222.111 83.9673 220.824 90.6637C220.058 94.411 220.189 98.1219 221.215 101.796C222.738 106.108 224.106 110.473 225.316 114.882C226.82 120.705 225.843 126.044 222.386 130.898C220.038 133.476 217.456 135.83 214.672 137.929C210.662 140.851 206.234 142.869 201.39 143.984C195.617 144.773 190.018 144.089 184.594 141.933C183.118 141.341 181.653 140.722 180.199 140.077C178.703 146.745 178.443 153.451 179.418 160.195C180.573 168.459 182.602 176.578 185.473 184.413C185.603 184.674 185.603 184.934 185.473 185.194C176.973 178.322 169.484 170.51 163.012 161.757C160.952 158.845 159.124 155.775 157.543 152.577C153.998 164.233 153.803 175.951 156.957 187.733C160.248 199.888 166.141 210.532 174.633 219.667C168.182 218.831 161.736 217.952 155.297 217.03C156.94 224.788 158.632 232.536 160.375 240.272H159.789C156.08 237.698 152.369 235.126 148.656 232.557C134.736 221.659 123.44 208.541 114.77 193.202C108.054 181.389 102.78 168.954 98.9497 155.898C93.6988 164.279 87.4162 171.864 80.1022 178.651C77.6591 180.867 75.1849 183.048 72.6803 185.194L72.485 184.901C75.3704 177.097 77.4323 169.013 78.6373 160.78C79.61 154.581 79.5448 148.397 78.442 142.226C78.3836 142.07 78.282 141.935 78.1491 141.835C72.5376 144.727 66.5806 146.355 60.2781 146.718C58.6816 146.605 57.0865 146.475 55.4929 146.327C50.485 145.125 45.9278 142.977 41.8212 139.882C38.5739 137.514 35.7419 134.714 33.3251 131.484C31.3478 127.954 30.6316 124.178 31.1767 120.156C31.3527 118.709 31.6135 117.275 31.9579 115.859C33.2587 111.824 34.5609 107.788 35.8642 103.75C36.7329 99.5914 36.7329 95.4248 35.8642 91.2497C34.3762 84.4616 33.1384 77.621 32.1532 70.742C31.288 64.7611 31.5484 58.8366 32.9345 52.9686C36.9993 40.7963 45.3651 35.7506 58.032 37.832C66.3798 40.133 73.769 44.1369 80.1998 49.8437C81.1244 51.7581 82.1013 53.6468 83.1295 55.5077C86.6694 52.3564 90.5703 49.6356 94.7505 47.4023C120.401 47.2721 146.052 47.2721 171.703 47.4023C172.967 48.2428 174.204 49.1222 175.414 50.039C175.992 48.9159 176.643 47.8417 177.367 46.8163C182.463 42.7037 188.062 39.3834 194.164 36.8555C196.484 36.0476 198.828 35.4293 201.195 35Z" fill="#390174"/>
<path fill-rule="evenodd" clip-rule="evenodd" d="M216.429 48.0859C216.459 48.2866 216.425 48.4916 216.332 48.6718C215.793 49.1114 215.369 49.6323 215.062 50.2343H214.867C209.851 45.8714 204.056 44.4066 197.484 45.8398C191.553 47.4753 187.484 51.1536 185.277 56.8749C184.545 53.9784 184.643 51.114 185.57 48.2812C189.889 45.146 194.641 42.8349 199.828 41.3476C204.006 40.3213 207.976 40.8422 211.742 42.9101C213.756 44.2398 215.318 45.965 216.429 48.0859ZM71.3132 50.6249C72.2393 53.5175 72.337 56.4473 71.6061 59.4139C69.4759 53.5729 65.4068 49.8296 59.3992 48.1835C53.3504 46.7667 47.8817 47.9386 42.993 51.6991C42.6336 52.0248 42.3066 52.3846 42.0165 52.7733H41.8212C41.4453 52.0094 40.9869 51.2889 40.454 50.6249C43.8795 44.682 49.0227 42.3058 55.8836 43.496C61.5408 44.8281 66.6839 47.2044 71.3132 50.6249Z" fill="#DFEBAB"/>
<path fill-rule="evenodd" clip-rule="evenodd" d="M214.867 50.2343C213.976 52.2956 213.359 54.444 213.012 56.6796C212.639 59.9901 212.378 63.3123 212.23 66.6404C212.154 76.1472 212.252 85.6524 212.523 95.1559C212.707 103.005 212.283 110.818 211.254 118.593C210.93 120.152 210.405 121.662 209.691 123.085C209.342 123.696 208.837 124.201 208.226 124.55C204.357 126.55 200.517 126.485 196.703 124.355C195.694 123.753 194.717 123.101 193.773 122.402L184.984 114.785C183.414 113.642 181.723 112.763 179.906 112.148C182.955 106.163 185.33 99.9127 187.035 93.3981C188.613 93.2063 190.209 93.1411 191.82 93.2028C191.965 97.0256 193.853 99.5322 197.484 100.722C199.764 100.853 202.041 100.853 204.32 100.722C207.097 100.093 208.953 98.4326 209.887 95.7418C210.109 92.0353 210.207 88.3222 210.179 84.6091C210.146 81.1585 210.115 77.7081 210.082 74.2576C208.512 70.0685 205.484 68.2455 201 68.7889C197.723 68.2848 195.086 69.3264 193.09 71.9138C192.217 73.1408 191.793 74.508 191.82 76.0154H188.695C187.992 67.942 185.062 60.8131 179.906 54.6288C180.434 53.4776 180.986 52.3382 181.566 51.2109C182.849 50.1653 184.186 49.1874 185.57 48.2812C184.643 51.1142 184.545 53.9786 185.277 56.8749C187.484 51.1538 191.553 47.4753 197.484 45.8398C204.056 44.4068 209.851 45.8716 214.867 50.2343ZM71.3131 50.6249C72.729 51.4853 74.0685 52.4655 75.317 53.5546C76.4173 55.7226 77.4916 57.9037 78.5397 60.0975C76.4662 62.7118 74.6048 65.4875 72.9733 68.3982C71.387 71.3676 70.2477 74.4925 69.5553 77.7732H65.4538C64.5829 72.4328 61.4255 70.024 55.9812 70.5467C51.7211 70.1045 48.7914 71.8623 47.1922 75.8201C46.9694 79.3311 46.8717 82.8489 46.8992 86.3669C46.8731 89.9499 46.9708 93.5327 47.1922 97.109C48.6869 101.21 51.6166 103.033 55.9812 102.578C61.6263 103.082 64.7837 100.543 65.4538 94.9606C66.6293 94.8961 67.8083 94.9616 68.9694 95.1559C70.3167 101.998 72.5954 108.508 75.8053 114.687C74.4415 115.571 73.0743 116.45 71.7038 117.324L62.9148 124.941C60.8706 126.516 58.5919 127.623 56.0789 128.261C52.7012 128.871 49.8041 127.992 47.3875 125.624C46.7154 124.388 46.191 123.077 45.825 121.718C45.3594 119.33 45.0334 116.917 44.8485 114.492C44.5072 101.474 44.4747 88.4491 44.7508 75.4295C44.7418 71.5866 44.6442 67.7444 44.4578 63.9061C44.3276 60.0305 43.5137 56.3196 42.0164 52.7733C42.3065 52.3846 42.6336 52.0248 42.993 51.6991C47.8816 47.9386 53.3504 46.7667 59.3992 48.1835C65.4067 49.8296 69.4759 53.5729 71.6061 59.4139C72.337 56.4473 72.2393 53.5175 71.3131 50.6249Z" fill="#B2D033"/>
<path fill-rule="evenodd" clip-rule="evenodd" d="M216.429 48.0858C217.883 50.6892 218.795 53.4885 219.164 56.4842C218.117 54.1981 216.75 52.1147 215.062 50.2343C215.369 49.6323 215.793 49.1114 216.332 48.6718C216.426 48.4866 216.459 48.2913 216.429 48.0858Z" fill="#CED6A6"/>
<path fill-rule="evenodd" clip-rule="evenodd" d="M214.867 50.2343H215.062C216.75 52.1147 218.117 54.1981 219.164 56.4842C219.43 60.7216 219.266 64.9751 218.676 69.1795C217.529 75.8366 216.292 82.4778 214.965 89.1012C214.324 93.27 214.324 97.4365 214.965 101.601C216.189 105.662 217.491 109.7 218.871 113.71C219.943 116.835 220.203 120.025 219.652 123.281C218.742 125.886 217.213 128.067 215.062 129.824C212.489 132.138 209.673 134.168 206.664 135.878C200.185 138.921 193.611 139.116 186.937 136.464C181.179 134.106 175.511 131.532 169.945 128.749C173.614 123.432 176.941 117.887 179.906 112.148C181.723 112.763 183.414 113.642 184.984 114.785L193.773 122.402C194.717 123.101 195.694 123.753 196.703 124.355C200.517 126.485 204.357 126.55 208.226 124.55C208.836 124.201 209.342 123.696 209.691 123.085C210.405 121.662 210.93 120.152 211.254 118.593C212.283 110.818 212.707 103.005 212.523 95.1559C212.252 85.6533 212.154 76.1466 212.23 66.6404C212.378 63.3123 212.639 59.9901 213.012 56.6796C213.359 54.444 213.976 52.2956 214.867 50.2343Z" fill="#90A929"/>
<path fill-rule="evenodd" clip-rule="evenodd" d="M40.454 50.6249C40.9869 51.2889 41.4453 52.0094 41.8212 52.7733C40.0735 54.5128 38.7714 56.5309 37.9149 58.828C38.1372 55.8839 38.9835 53.1495 40.454 50.6249Z" fill="#CED6A6"/>
<path fill-rule="evenodd" clip-rule="evenodd" d="M41.8211 52.7733H42.0164C43.5137 56.3196 44.3276 60.0305 44.4578 63.9061C44.6442 67.7444 44.7418 71.5866 44.7508 75.4294C44.4747 88.4491 44.5072 101.474 44.8485 114.492C45.0333 116.917 45.3594 119.33 45.825 121.718C46.191 123.077 46.7154 124.388 47.3875 125.624C49.8041 127.992 52.7011 128.871 56.0789 128.261C58.5919 127.623 60.8706 126.516 62.9148 124.941L71.7038 117.324C73.0743 116.45 74.4414 115.571 75.8053 114.687C79.0424 120.463 82.7668 125.951 86.938 131.093C81.7158 133.781 76.3715 136.225 70.9225 138.417C61.9927 142.286 53.6593 141.31 45.9227 135.488C43.4292 133.58 41.109 131.456 38.9891 129.14C37.337 126.721 36.6858 124.052 37.036 121.132C37.2402 119.274 37.6328 117.442 38.2079 115.664C39.4188 112.096 40.5908 108.515 41.7235 104.921C42.834 99.916 42.834 94.9032 41.7235 89.8825C40.3763 83.7321 39.2039 77.5448 38.2079 71.3279C37.9153 68.3384 37.6874 65.3429 37.5243 62.3436C37.5008 61.1262 37.6311 59.9543 37.9149 58.828C38.7713 56.5309 40.0735 54.5128 41.8211 52.7733Z" fill="#90A929"/>
<path fill-rule="evenodd" clip-rule="evenodd" d="M82.6412 78.1638C82.8065 74.3472 83.9783 70.8968 86.1568 67.8123C87.2518 70.7721 88.424 73.7028 89.6724 76.6013C91.8994 70.8647 94.1455 65.1355 96.4107 59.4139C98.5984 65.1658 100.845 70.8952 103.149 76.6013C104.985 71.9061 106.84 67.2186 108.715 62.5389C110.512 67.2493 112.368 71.9371 114.282 76.6013C116.547 70.8146 118.793 65.0203 121.02 59.2186C123.406 65.0356 125.685 70.8959 127.856 76.7966C130.108 71.1479 132.322 65.4838 134.496 59.8045C136.826 65.4227 139.04 71.0879 141.137 76.7966C143.182 71.5081 145.265 66.2346 147.387 60.9764L153.442 76.7966C155.694 71.1479 157.908 65.4838 160.082 59.8045C162.408 65.4158 164.623 71.0799 166.723 76.7966C169.004 70.9959 171.281 65.2016 173.559 59.4139C175.81 65.1934 178.024 70.9878 180.199 76.7966C180.852 75.2275 181.504 73.665 182.152 72.1091C182.424 73.1351 182.619 74.1796 182.738 75.2341C182.836 78.0327 182.869 80.8323 182.836 83.6325H176.781C176.814 82.1337 176.781 80.6362 176.684 79.1404C175.871 78.1226 174.861 77.8947 173.656 78.4568C173.358 78.6876 173.123 78.9899 172.973 79.3357C172.875 80.7665 172.842 82.1987 172.875 83.6325H159.594C159.626 82.2638 159.594 80.8966 159.496 79.531C159.216 78.5447 158.565 78.089 157.543 78.1638C156.521 78.089 155.87 78.5447 155.59 79.531C155.492 80.8966 155.46 82.2638 155.492 83.6325H142.211C142.244 82.1987 142.211 80.7665 142.114 79.3357C141.473 78.2402 140.53 77.8822 139.281 78.2614L138.403 79.1404C138.305 80.6362 138.273 82.1337 138.305 83.6325H118.774C118.806 82.1987 118.774 80.7665 118.676 79.3357C118.055 78.2157 117.111 77.8577 115.844 78.2614C115.482 78.557 115.183 78.9223 114.965 79.3357C114.868 80.7657 114.835 82.1995 114.868 83.6325H101.586C101.619 82.2638 101.586 80.8966 101.489 79.531C101.209 78.5447 100.558 78.089 99.5356 78.1638C98.6114 78.1048 97.9605 78.4954 97.5825 79.3357C97.485 80.7657 97.4524 82.1995 97.4849 83.6325H84.2037C84.2361 82.1987 84.2037 80.7665 84.1061 79.3357C83.817 78.6878 83.3287 78.2972 82.6412 78.1638Z" fill="#B2CF33"/>
<path fill-rule="evenodd" clip-rule="evenodd" d="M86.1568 67.8123C83.9783 70.8968 82.8065 74.3472 82.6412 78.1638C81.6473 77.9544 80.8987 78.28 80.3952 79.1403C80.2975 80.6362 80.2651 82.1337 80.2975 83.6325H74.4382C74.5622 81.0538 75.1157 78.5798 76.0983 76.2107C76.2434 76.6296 76.4061 76.662 76.5866 76.3083C77.4275 74.203 78.2414 72.087 79.028 69.9607C80.4202 67.3652 82.1453 65.0215 84.2037 62.9295C84.9306 64.5257 85.5824 66.1551 86.1568 67.8123Z" fill="#90A72A"/>
<path fill-rule="evenodd" clip-rule="evenodd" d="M206.273 94.7653H205.687C205.781 88.8286 205.683 82.904 205.394 76.9919C204.633 74.9345 203.168 73.73 201 73.3787C199.728 73.3451 198.49 73.2474 197.289 73.0857C197.551 72.8332 197.877 72.6705 198.265 72.5974C200.023 72.4672 201.781 72.4672 203.539 72.5974C204.963 72.849 205.906 73.6629 206.371 75.0388C206.529 81.62 206.498 88.1956 206.273 94.7653Z" fill="#EBE5F0"/>
<path fill-rule="evenodd" clip-rule="evenodd" d="M197.289 73.0857C198.49 73.2474 199.728 73.3451 201 73.3787C203.168 73.73 204.633 74.9345 205.394 76.9919C205.683 82.904 205.781 88.8286 205.687 94.7653C204.178 94.826 202.681 94.7283 201.195 94.4723C198.625 93.3412 197.355 91.3557 197.387 88.5153C197.169 88.1017 196.87 87.7364 196.508 87.4411C191.767 87.16 189.293 84.6534 189.086 79.9216C190.75 79.9853 192.377 79.9202 193.969 79.7263C194.496 79.6417 194.918 79.3814 195.238 78.945C195.441 77.5183 195.637 76.0859 195.824 74.6482C196.215 74.0298 196.703 73.5091 197.289 73.0857Z" fill="#C3B2D3"/>
<path fill-rule="evenodd" clip-rule="evenodd" d="M59.9851 74.8435C58.6235 75.0075 57.2547 75.1053 55.8836 75.1365C54.0115 75.641 52.677 76.7802 51.8797 78.5544C51.5927 84.5394 51.495 90.5319 51.5867 96.5231H51.0008C50.8835 96.2704 50.7856 96.0093 50.7078 95.7418L50.6102 86.4645C50.5814 83.1743 50.6791 79.8841 50.9032 76.6013C51.4035 75.5152 52.2172 74.7666 53.3445 74.3552C55.2303 74.225 57.1228 74.225 59.0086 74.3552L59.9851 74.8435Z" fill="#E1D8E9"/>
<path fill-rule="evenodd" clip-rule="evenodd" d="M59.9851 74.8435C60.7763 75.4468 61.3296 76.2281 61.6453 77.1872L61.8406 80.5075C62.0669 81.0921 62.49 81.4177 63.1101 81.4841C64.7019 81.678 66.3294 81.7431 67.9929 81.6794C68.2026 84.8182 66.9005 87.0643 64.0866 88.4176C62.9278 88.7334 61.7546 88.9941 60.571 89.1989C60.3204 89.4734 60.0918 89.7672 59.8874 90.0778C59.896 93.5182 58.2359 95.634 54.907 96.4254C53.8021 96.5229 52.6953 96.5555 51.5867 96.5231C51.4951 90.5239 51.5928 84.5343 51.8797 78.5544C52.6769 76.7802 54.0115 75.641 55.8836 75.1365C57.2547 75.1053 58.6235 75.0075 59.9851 74.8435Z" fill="#C2B1D2"/>
<path fill-rule="evenodd" clip-rule="evenodd" d="M193.969 79.7263C192.377 79.9202 190.75 79.9853 189.086 79.9216C189.293 84.6534 191.768 87.16 196.508 87.4411C196.87 87.7364 197.169 88.1017 197.387 88.5153C197.355 91.3557 198.625 93.3412 201.195 94.4723C202.678 94.7282 204.184 94.8264 205.687 94.7653H206.273C205.926 95.7315 205.275 96.4151 204.32 96.816C202.317 97.1217 200.284 97.1873 198.266 97.0113C197.142 96.6053 196.33 95.8567 195.824 94.7653C195.585 93.4106 195.455 92.0391 195.434 90.6637C195.283 90.3179 195.048 90.0156 194.75 89.7848C192.483 89.5042 190.197 89.4062 187.914 89.4919C188.559 86.279 188.822 83.0009 188.695 79.7263H193.969ZM63.1101 81.4841H68.7741C68.4123 84.7259 68.2818 87.9893 68.3835 91.2497C66.4255 91.1612 64.4636 91.2593 62.5242 91.5426L61.8406 92.2262L61.6453 95.7418C61.3255 97.2336 60.4466 98.2428 59.0086 98.7691C57.1205 98.8994 55.2326 98.8994 53.3445 98.7691C52.2031 98.3762 51.4219 97.6274 51.0008 96.5231H51.5867C52.6953 96.5555 53.8021 96.5229 54.907 96.4254C58.2359 95.634 59.8961 93.5182 59.8875 90.0778C60.0918 89.7672 60.3204 89.4734 60.571 89.1989C61.7546 88.9941 62.9278 88.7334 64.0867 88.4176C66.9005 87.0643 68.2026 84.8182 67.9929 81.6794C66.3294 81.7431 64.7019 81.678 63.1101 81.4841Z" fill="#987BB6"/>
<path fill-rule="evenodd" clip-rule="evenodd" d="M84.2037 90.4684C86.668 97.2203 89.9558 103.535 94.0669 109.414C99.8581 117.552 106.238 125.234 113.207 132.46C113.101 141.018 113.784 149.482 115.258 157.851C113.309 160.246 112.821 162.915 113.793 165.859C114.289 164.281 115.038 162.848 116.039 161.562C116.672 165.263 117.552 168.917 118.676 172.499C118.751 172.391 118.849 172.326 118.969 172.304C118.881 173.452 119.044 174.559 119.457 175.624C119.495 175.193 119.592 174.802 119.75 174.452C124.691 190.783 134.164 203.803 148.168 213.515C148.246 213.47 148.279 213.405 148.266 213.319C149.425 217.764 150.37 222.261 151.098 226.796C138.465 216.706 128.179 204.662 120.239 190.663C110.874 174.159 104.364 156.581 100.708 137.929C93.8228 130.918 87.8334 123.236 82.7389 114.882C78.2299 107.475 75.4303 99.4674 74.3405 90.859C74.2429 89.429 74.2103 87.9952 74.2428 86.5622H80.2975C80.2121 88.0659 80.3105 89.5744 80.5905 91.0543C81.5069 91.9754 82.516 92.0731 83.6178 91.3473C83.7853 91.0367 83.9815 90.7425 84.2037 90.4684Z" fill="#90A929"/>
<path fill-rule="evenodd" clip-rule="evenodd" d="M148.266 213.319C148.279 213.405 148.246 213.47 148.168 213.515C134.164 203.803 124.691 190.783 119.75 174.452C120.348 172.39 121.52 170.729 123.266 169.472C127.793 166.388 132.676 165.672 137.914 167.323C140.238 168.085 141.963 169.55 143.09 171.718C143.258 170.137 142.867 168.705 141.918 167.421C139.781 164.969 137.079 163.635 133.813 163.417C128.292 162.912 123.768 164.767 120.239 168.984C119.593 170.013 119.17 171.12 118.969 172.304C118.849 172.326 118.751 172.391 118.676 172.499C117.552 168.917 116.672 165.263 116.039 161.562C119.541 157.728 123.903 155.547 129.125 155.019C133.939 154.455 138.301 155.562 142.211 158.339C143.072 159.188 143.827 160.139 144.457 161.171C144.525 158.345 143.451 156.033 141.235 154.238C137.175 151.693 132.748 150.717 127.953 151.308C122.886 151.953 118.654 154.134 115.258 157.851C113.784 149.482 113.101 141.018 113.207 132.46C106.238 125.234 99.8581 117.552 94.0669 109.414C89.9558 103.535 86.6679 97.2203 84.2037 90.4684V86.5622H97.4849C97.4078 88.001 97.5062 89.4439 97.7778 90.859C98.9497 92.1612 100.122 92.1612 101.293 90.859C101.565 89.4439 101.663 88.001 101.586 86.5622H114.868C114.835 87.9309 114.868 89.2981 114.965 90.6637C115.691 91.8487 116.7 92.1416 117.993 91.5426C118.29 91.3115 118.525 91.0093 118.676 90.6637C118.774 89.2981 118.806 87.9309 118.774 86.5622H138.305C138.273 87.9309 138.305 89.2981 138.403 90.6637C139.232 91.9366 140.306 92.1643 141.625 91.3473C141.813 91.0691 141.977 90.775 142.114 90.4684C142.211 89.168 142.244 87.8659 142.211 86.5622H155.492C155.415 88.001 155.514 89.4439 155.785 90.859C156.957 92.1612 158.129 92.1612 159.301 90.859C159.573 89.4439 159.671 88.001 159.594 86.5622H172.875C172.842 87.8659 172.875 89.168 172.973 90.4684C173.594 91.8352 174.604 92.1932 176 91.5426C176.298 91.3118 176.533 91.0095 176.684 90.6637C176.781 89.2981 176.814 87.9309 176.781 86.5622C178.674 86.4973 180.562 86.5626 182.445 86.7575C180.551 96.5998 177.068 105.844 171.996 114.492C168.454 120.541 164.608 126.408 160.473 132.07C147.132 153.507 145.179 175.967 154.613 199.452C156.389 203.689 158.512 207.772 160.961 211.659C156.581 211.178 152.217 210.559 147.875 209.804L147.68 210.194C147.938 211.223 148.133 212.267 148.266 213.319Z" fill="#B2D033"/>
<path fill-rule="evenodd" clip-rule="evenodd" d="M131.469 102.187H165.063C164.156 110.612 159.6 115.853 151.391 117.91C142.939 119.02 136.787 115.797 132.934 108.242C132.172 106.3 131.679 104.263 131.469 102.187Z" fill="#3A0275"/>
<path fill-rule="evenodd" clip-rule="evenodd" d="M127.758 102.968C116.63 102.578 105.494 102.447 94.3599 102.578V103.359C94.1741 103.082 94.1091 102.756 94.1646 102.382H127.953C128 102.635 127.935 102.83 127.758 102.968Z" fill="#B2D033"/>
<path fill-rule="evenodd" clip-rule="evenodd" d="M127.758 102.968C126.807 110.786 122.576 115.832 115.063 118.105C107.686 119.553 101.729 117.307 97.1919 111.367C95.5847 108.933 94.6407 106.264 94.3599 103.359V102.578C105.56 102.448 116.692 102.578 127.758 102.968Z" fill="#3A0175"/>
<path fill-rule="evenodd" clip-rule="evenodd" d="M173.266 159.218C168.484 153.696 164.904 147.446 162.524 140.468C163.596 138.062 164.963 135.849 166.625 133.828C169.249 135.091 171.886 136.328 174.535 137.538C172.828 144.667 172.404 151.893 173.266 159.218Z" fill="#FEFDFE"/>
<path fill-rule="evenodd" clip-rule="evenodd" d="M95.3364 141.054C94.1706 144.687 92.5636 148.164 90.5513 151.406C88.8736 154.046 87.0478 156.589 85.0826 159.023C84.9865 158.707 84.9533 158.375 84.9849 158.046C85.1959 154.078 85.2285 150.103 85.0826 146.132C84.8318 143.779 84.5061 141.434 84.106 139.101C86.2945 138.007 88.5087 136.965 90.7466 135.976L94.4575 139.687C94.7932 140.114 95.0875 140.571 95.3364 141.054Z" fill="#FDFDFE"/>
<path opacity="0.15" fill-rule="evenodd" clip-rule="evenodd" d="M214.672 137.929C211.08 141.742 206.654 143.76 201.39 143.984C206.234 142.869 210.662 140.851 214.672 137.929Z" fill="#010003"/>
<path fill-rule="evenodd" clip-rule="evenodd" d="M162.524 140.468C164.904 147.446 168.484 153.696 173.266 159.218C173.642 161.485 173.935 163.765 174.145 166.054C169.234 160.665 165.199 154.675 162.035 148.085C161.492 146.804 161.004 145.501 160.57 144.179C161.169 142.915 161.821 141.677 162.524 140.468Z" fill="#CDCDCE"/>
<path opacity="0.152" fill-rule="evenodd" clip-rule="evenodd" d="M41.8212 139.882C45.9278 142.977 50.485 145.125 55.493 146.327C51.4772 146.272 47.8965 145.003 44.7508 142.519C43.7445 141.674 42.7674 140.794 41.8212 139.882Z" fill="#010002"/>
<path fill-rule="evenodd" clip-rule="evenodd" d="M95.3364 141.054C95.6767 142.621 96.0347 144.183 96.4107 145.742C96.5409 146.254 96.5409 146.791 96.4107 147.304C93.3298 154.187 89.2283 160.372 84.106 165.859C84.2772 163.242 84.5705 160.635 84.9849 158.046C84.9533 158.375 84.9865 158.707 85.0826 159.023C87.0478 156.589 88.8736 154.046 90.5513 151.406C92.5636 148.164 94.1706 144.687 95.3364 141.054Z" fill="#CDCCCE"/>
<path fill-rule="evenodd" clip-rule="evenodd" d="M116.039 161.562C115.038 162.848 114.289 164.281 113.793 165.859C112.821 162.915 113.309 160.246 115.258 157.851C118.654 154.134 122.886 151.953 127.953 151.308C132.748 150.717 137.175 151.693 141.235 154.238C143.451 156.033 144.525 158.345 144.457 161.171C143.827 160.139 143.072 159.188 142.211 158.339C138.301 155.562 133.939 154.455 129.125 155.019C123.903 155.547 119.541 157.728 116.039 161.562Z" fill="#3B0374"/>
<path fill-rule="evenodd" clip-rule="evenodd" d="M119.75 174.452C119.592 174.802 119.495 175.193 119.457 175.624C119.044 174.559 118.881 173.452 118.969 172.304C119.17 171.12 119.593 170.013 120.239 168.984C123.768 164.767 128.292 162.912 133.813 163.417C137.079 163.635 139.781 164.969 141.918 167.421C142.867 168.705 143.258 170.137 143.09 171.718C141.963 169.55 140.238 168.085 137.914 167.323C132.676 165.672 127.793 166.388 123.266 169.472C121.52 170.729 120.348 172.39 119.75 174.452Z" fill="#3B0474"/>
<path fill-rule="evenodd" clip-rule="evenodd" d="M134.008 176.405C137.013 176.075 139.747 176.759 142.211 178.456C143.613 179.599 144.232 181.064 144.067 182.851C143.297 181.307 142.092 180.233 140.453 179.628C136.28 178.154 132.374 178.674 128.735 181.191C127.225 182.374 126.281 183.904 125.903 185.78C125.273 183.773 125.598 181.95 126.879 180.312C128.833 178.212 131.209 176.91 134.008 176.405Z" fill="#3D0673"/>
<path d="M107.239 105.996H97.9732C100.571 118.574 121.137 118.542 123.798 105.996H114.138C115.146 108.566 113.33 111.316 110.59 111.269C107.85 111.22 106.312 108.488 107.239 105.996ZM144.695 105.605H135.429C138.028 118.183 158.593 118.152 161.254 105.605H151.595C152.602 108.175 150.786 110.925 148.046 110.878C145.306 110.83 143.768 108.097 144.695 105.605Z" fill="#FBFAFC"/>
</svg>
