<svg width="256" height="256" viewBox="0 0 256 256" fill="none" xmlns="http://www.w3.org/2000/svg">
<rect width="256" height="256" rx="60" fill="#242938"/>
<path d="M185.137 126.649H161.109C144.633 144.841 179.302 175.734 179.302 175.734C179.302 175.734 167.974 139.349 185.137 126.649Z" fill="white"/>
<g opacity="0.20">
<path d="M161.796 126.649C161.796 126.649 162.139 126.649 162.482 126.649C156.99 139.349 170.034 156.169 177.929 165.093C178.958 171.272 180.331 175.734 180.331 175.734C180.331 175.734 145.663 144.498 161.796 126.649Z" fill="black"/>
</g>
<path d="M185.48 185.002L177.585 177.794C176.556 177.107 154.931 157.199 153.901 139.006C153.558 133.514 155.274 128.708 159.05 124.589C160.079 123.56 160.766 123.56 162.139 123.56C162.825 123.56 163.855 123.56 164.885 123.56C166.945 123.56 169.691 123.56 173.123 123.56C179.302 123.56 185.137 123.56 185.137 123.56H194.062L186.853 128.708C178.958 134.544 178.272 146.214 178.958 155.139C179.645 165.437 182.391 174.361 182.391 174.361L185.48 185.002ZM162.139 129.738C160.079 132.484 159.393 135.574 159.393 139.006C159.736 145.185 163.512 153.423 170.377 162.004C171.407 163.377 172.78 165.093 173.81 166.123C172.093 155.826 170.72 140.036 177.929 129.738C171.75 129.738 164.885 129.738 162.139 129.738Z" fill="#390075"/>
<path d="M72.8929 126.649H96.9207C113.054 144.841 78.3849 175.734 78.3849 175.734C78.3849 175.734 89.7123 139.349 72.8929 126.649Z" fill="white"/>
<g opacity="0.20">
<path d="M95.8907 126.649C95.8907 126.649 95.5475 126.649 95.2042 126.649C100.696 139.349 87.6526 156.169 79.7578 165.093C78.728 171.272 77.355 175.734 77.355 175.734C77.355 175.734 112.024 144.498 95.8907 126.649Z" fill="black"/>
</g>
<path d="M72.5495 185.002L75.6388 174.705C75.6388 174.705 78.3848 165.78 79.0713 155.482C79.7578 146.558 78.7281 134.544 71.1765 129.052L63.9681 123.903H72.8928C72.8928 123.903 79.0713 123.903 84.9067 123.903C88.3392 123.903 91.0852 123.903 93.1448 123.903C94.1745 123.903 95.2043 123.903 95.8908 123.903C97.2638 123.903 98.2936 123.903 98.9801 124.933C102.756 129.052 104.129 133.857 104.129 139.349C103.099 157.542 81.1309 177.107 80.4444 178.137L72.5495 185.002ZM79.7578 129.738C86.9662 140.036 85.5932 155.826 83.8769 166.123C84.9067 164.75 86.2797 163.377 87.3094 162.004C94.1745 153.423 97.9503 145.528 98.2936 139.006C98.6368 135.573 97.6071 132.484 95.5476 129.738C92.8015 129.738 85.9364 129.738 79.7578 129.738Z" fill="#390075"/>
<path d="M178.958 49.4168C178.958 49.4168 192.345 38.0894 203.673 38.0894C215 38.0894 222.552 47.7005 221.865 62.1172C221.179 76.5339 216.373 88.2045 217.06 97.8156C217.746 107.427 228.387 120.814 218.089 130.425C207.792 140.036 198.524 144.498 183.764 138.32C169.004 132.141 143.603 119.441 143.603 119.441L178.958 49.4168Z" fill="#B3D133"/>
<path d="M190.972 141.066C185.137 137.976 173.123 134.544 166.601 130.425C167.631 126.306 168.318 122.53 170.377 118.754C183.077 97.4723 192.345 133.857 208.478 124.246C216.03 119.784 209.851 70.3552 213.284 54.9088C215 47.3572 218.089 47.3572 220.492 49.0735C221.865 52.8493 222.208 57.3116 222.208 62.4604C221.865 77.2203 217.746 89.2342 218.089 99.1886C218.433 109.143 227.357 122.53 219.119 132.828C210.881 142.782 202.986 147.244 190.972 141.066Z" fill="black" fill-opacity="0.2"/>
<path d="M201.957 45.2977C193.718 45.2977 186.853 50.4465 185.137 57.3116C184.794 55.9386 184.451 54.5656 184.451 53.1925C184.451 44.2679 192.345 37.4028 201.957 37.4028C211.568 37.4028 219.462 44.6112 219.462 53.1925C219.462 54.5656 219.119 55.9386 218.776 57.3116C217.06 50.4465 210.195 45.2977 201.957 45.2977Z" fill="white" fill-opacity="0.6"/>
<path d="M196.464 144.155C192.345 144.155 187.54 143.125 182.734 141.066C168.318 134.887 142.917 122.187 142.573 122.187L140.171 120.814L176.899 47.3572L177.242 47.0139C177.929 46.6707 191.316 35 204.016 35C209.508 35 214.657 37.0595 218.433 40.8353C223.238 45.6409 225.641 53.1925 225.298 62.1171C224.954 69.3254 223.581 76.1905 222.552 81.6826C221.179 87.5179 220.149 92.6668 220.492 97.4723C220.492 100.218 221.865 103.308 222.895 106.74C225.641 114.635 229.074 124.589 220.835 132.484C214.657 138.32 209.508 141.409 204.016 143.125C201.27 143.812 198.867 144.155 196.464 144.155ZM148.065 118.068C154.931 121.5 173.466 130.768 185.137 135.574C198.867 141.066 207.105 136.947 216.373 128.022C218.776 125.619 219.806 122.873 219.806 119.441C219.806 116.008 218.433 112.232 217.06 108.456C215.687 104.681 214.657 101.248 214.314 97.8156C213.97 92.3235 215.343 86.8314 216.373 80.6528C217.746 74.8175 218.776 68.6389 219.119 61.7739C219.462 54.5655 217.746 48.3869 213.97 44.6111C211.224 41.8651 207.792 40.4921 204.016 40.4921C199.897 40.4921 194.748 42.2083 188.913 45.6409C185.48 47.7004 182.734 49.7599 181.704 50.7897L148.065 118.068Z" fill="#390075"/>
<path d="M77.6984 51.4763C77.6984 51.4763 64.3115 40.1489 52.9841 40.1489C41.6567 40.1489 34.1051 50.1032 34.4484 64.5199C34.7916 78.9366 39.9405 90.264 39.5972 100.218C38.9107 109.83 28.2698 123.216 38.5674 132.828C48.8651 142.439 58.1329 146.901 72.8929 140.722C87.6528 134.544 113.054 121.843 113.054 121.843L77.6984 51.4763Z" fill="#B3D133"/>
<path d="M65.6845 143.469C71.5199 140.379 83.5338 136.947 90.0556 132.828C89.0259 128.709 88.3393 124.933 86.2798 121.157C73.5794 99.8753 64.3115 136.26 48.1786 126.649C40.627 122.187 46.8055 72.7582 43.373 57.3118C41.6567 49.7602 38.5674 49.4169 36.1647 51.4764C34.7916 55.2522 34.4484 59.7145 34.4484 64.8634C34.7916 79.6233 38.9107 91.6372 38.5674 101.592C38.2242 111.546 29.2996 124.933 37.5377 135.231C45.7758 145.528 53.6706 149.647 65.6845 143.469Z" fill="black" fill-opacity="0.2"/>
<path d="M54.7004 47.7006C62.9385 47.7006 69.8036 52.8494 71.5199 59.7145C71.8631 58.3415 72.2064 56.9685 72.2064 55.5955C72.2064 46.6708 64.3115 39.8058 54.7004 39.8058C45.0893 39.8058 37.1944 46.6708 37.1944 55.5955C37.1944 56.9685 37.5377 58.3415 37.8809 59.7145C39.5972 52.8494 46.4623 47.7006 54.7004 47.7006Z" fill="white" fill-opacity="0.6"/>
<path d="M60.1924 146.558C57.7896 146.558 55.3868 146.215 52.984 145.528C47.4919 143.812 42.3431 140.722 36.1645 134.887C27.9264 126.992 31.359 117.038 34.105 109.143C35.1348 105.71 36.5078 102.621 36.5078 99.8751C36.8511 95.4128 35.8213 90.264 34.4483 84.0854C33.0753 78.2501 32.0455 71.7283 31.7022 64.5199C31.359 55.5953 33.7618 48.0437 38.5673 43.2382C42.3431 39.4624 47.1487 37.4028 52.984 37.4028C65.3412 37.4028 79.0714 49.0735 79.7579 49.4167L80.1011 49.76L116.829 123.216L114.083 124.589C113.74 124.589 88.3392 137.633 73.9225 143.468C68.7737 145.528 64.3114 146.558 60.1924 146.558ZM52.6408 43.2382C48.5217 43.2382 45.0892 44.6112 42.6864 47.3572C39.2538 51.133 37.1943 57.3116 37.5376 64.5199C37.8808 71.385 38.9106 77.5636 40.2836 83.3989C41.6566 89.5775 42.6864 95.4128 42.3431 100.562C41.9999 103.994 40.9701 107.427 39.5971 111.203C38.2241 114.978 36.8511 118.754 36.8511 122.187C36.8511 125.619 37.8808 128.365 40.2836 130.768C52.6408 142.439 61.2221 142.439 71.5198 138.32C83.1904 133.514 101.726 124.246 108.591 120.814L75.2956 53.5358C74.2658 52.8493 71.5198 50.4465 68.0872 48.387C62.2519 44.9544 56.7598 43.2382 52.6408 43.2382Z" fill="#390075"/>
<path d="M155.617 233.744C107.562 201.822 97.9505 139.349 97.9505 139.349C56.4167 95.756 69.1171 64.8631 95.8909 50.1032H170.377C189.256 63.1469 194.748 89.9207 163.512 132.484C134.679 176.764 167.288 215.552 167.288 215.552L151.155 213.149L155.617 233.744Z" fill="#B3D133"/>
<path d="M113.054 50.1032C78.7281 61.4306 66.0277 83.0556 113.397 132.484C113.397 132.484 109.278 187.405 148.066 213.149C149.782 214.865 152.185 227.909 152.185 227.909C96.2341 197.703 100.696 138.32 100.696 138.32C48.1784 83.3989 72.8928 56.9683 113.054 50.1032Z" fill="black" fill-opacity="0.2"/>
<path d="M185.137 77.9068V91.2938H193.375V93.3533C193.375 96.4426 195.778 98.8454 198.867 98.8454H202.3C205.389 98.8454 207.792 96.4426 207.792 93.3533V76.1906C207.792 73.1013 205.389 70.6985 202.3 70.6985H198.867C195.778 70.6985 193.375 73.1013 193.375 76.1906V77.9068H185.137Z" fill="#C3B2D3"/>
<g opacity="0.7">
<path d="M190.629 78.9365V80.6527H185.137V77.9067H190.629C190.972 78.25 190.629 78.5932 190.629 78.9365Z" fill="white"/>
<path d="M205.389 96.0993V78.9366C205.389 75.8473 202.986 73.4445 199.897 73.4445H196.464C195.778 73.4445 194.748 73.7878 194.062 74.131C195.091 72.0715 196.808 71.0417 199.21 71.0417H202.643C205.732 71.0417 208.135 73.4445 208.135 76.5338V93.6965C208.135 96.0993 206.762 97.8156 205.046 98.8453C205.389 97.8156 205.389 96.7858 205.389 96.0993Z" fill="white"/>
</g>
<g opacity="0.3">
<path d="M188.913 77.9067V80.996C188.913 84.4285 191.659 87.1746 195.091 87.1746C196.121 87.1746 197.151 88.2043 197.151 89.2341C197.151 92.3234 199.554 94.7262 202.643 94.7262H206.076C206.762 94.7262 207.105 94.7262 207.792 94.3829C207.449 97.129 205.046 98.8452 202.3 98.8452H198.867C195.778 98.8452 193.375 96.4424 193.375 93.3532V91.2936H185.137V77.9067H188.913Z" fill="#390075"/>
</g>
<path d="M191.659 93.3533H185.137C184.107 93.3533 183.421 92.6667 183.421 91.637V78.2501C183.421 77.2203 184.107 76.5338 185.137 76.5338H191.659C191.659 72.4147 195.091 69.3254 199.21 69.3254H202.643C206.762 69.3254 210.195 72.758 210.195 76.877V94.0398C210.195 98.1588 206.762 101.591 202.643 101.591H199.21C195.091 100.905 191.659 97.4723 191.659 93.3533ZM199.21 72.4147C197.151 72.4147 195.435 74.131 195.435 76.1905V77.9068C195.435 78.9366 194.748 79.6231 193.718 79.6231H187.197V89.2342H193.718C194.748 89.2342 195.435 89.9207 195.435 90.9505V93.3533C195.435 95.4128 197.151 97.1291 199.21 97.1291H202.643C204.703 97.1291 206.419 95.4128 206.419 93.3533V76.1905C206.419 74.131 204.703 72.4147 202.643 72.4147H199.21Z" fill="#390075"/>
<path d="M71.1765 86.4883H185.48C186.167 86.4883 186.853 85.8018 186.853 85.1153C186.853 84.4288 186.167 83.7422 185.48 83.7422H71.1765C70.49 83.7422 69.8035 84.4288 69.8035 85.1153C69.8035 85.8018 70.49 86.4883 71.1765 86.4883Z" fill="#390075"/>
<path d="M174.839 91.9802C175.869 91.9802 176.899 90.9505 176.899 89.9207V80.3096C176.899 79.2798 175.869 78.2501 174.839 78.2501C173.81 78.2501 172.78 79.2798 172.78 80.3096V89.9207C172.78 90.9505 173.466 91.9802 174.839 91.9802Z" fill="#390075"/>
<path d="M157.333 91.9802C158.363 91.9802 159.393 90.9505 159.393 89.9207V80.3096C159.393 79.2798 158.363 78.2501 157.333 78.2501C156.304 78.2501 155.274 79.2798 155.274 80.3096V89.9207C155.274 90.9505 156.304 91.9802 157.333 91.9802Z" fill="#390075"/>
<path d="M140.171 91.9802C141.2 91.9802 142.23 90.9505 142.23 89.9207V80.3096C142.23 79.2798 141.2 78.2501 140.171 78.2501C139.141 78.2501 138.111 79.2798 138.111 80.3096V89.9207C138.111 90.9505 138.798 91.9802 140.171 91.9802Z" fill="#390075"/>
<path d="M82.1607 91.9802C83.1905 91.9802 84.2202 90.9505 84.2202 89.9207V80.3096C84.2202 79.2798 83.1905 78.2501 82.1607 78.2501C81.1309 78.2501 80.1012 79.2798 80.1012 80.3096V89.9207C80.1012 90.9505 81.1309 91.9802 82.1607 91.9802Z" fill="#390075"/>
<path d="M99.3234 91.9802C100.353 91.9802 101.383 90.9505 101.383 89.9207V80.3096C101.383 79.2798 100.353 78.2501 99.3234 78.2501C98.2936 78.2501 97.2639 79.2798 97.2639 80.3096V89.9207C97.2639 90.9505 98.2936 91.9802 99.3234 91.9802Z" fill="#390075"/>
<path d="M116.829 91.9802C117.859 91.9802 118.889 90.9505 118.889 89.9207V80.3096C118.889 79.2798 117.859 78.2501 116.829 78.2501C115.8 78.2501 114.77 79.2798 114.77 80.3096V89.9207C114.77 90.9505 115.456 91.9802 116.829 91.9802Z" fill="#390075"/>
<path d="M71.5197 79.6232V93.0101H63.2816V95.0696C63.2816 98.1589 60.8788 100.562 57.7895 100.562H54.357C51.2677 100.562 48.8649 98.1589 48.8649 95.0696V77.9069C48.8649 74.8176 51.2677 72.4148 54.357 72.4148H57.7895C60.8788 72.4148 63.2816 74.8176 63.2816 77.9069V79.6232H71.5197Z" fill="#C3B2D3"/>
<g opacity="0.7">
<path d="M66.0276 80.6528V82.3691H71.5197V79.6231H66.0276C66.0276 79.9663 66.0276 80.3096 66.0276 80.6528Z" fill="white"/>
<path d="M51.2676 97.8157V80.653C51.2676 77.5637 53.6704 75.1609 56.7597 75.1609H60.1922C60.8787 75.1609 61.9085 75.5041 62.595 75.8474C61.5652 73.7879 59.8489 72.7581 57.4462 72.7581H54.0136C50.9243 72.7581 48.5215 75.1609 48.5215 78.2502V95.4129C48.5215 97.8157 49.8946 99.532 51.6108 100.562C51.6108 99.532 51.2676 98.8454 51.2676 97.8157Z" fill="white"/>
</g>
<g opacity="0.3">
<path d="M67.7439 79.6231V82.7124C67.7439 86.1449 64.9979 88.8909 61.5653 88.8909C60.5356 88.8909 59.5058 89.9207 59.5058 90.9505C59.5058 94.0397 57.103 96.4425 54.0137 96.4425H50.5812C49.8947 96.4425 49.5514 96.4425 48.8649 96.0993C49.2082 98.8453 51.611 100.562 54.357 100.562H57.7895C60.8788 100.562 63.2816 98.1588 63.2816 95.0695V93.01H71.5197V79.6231H67.7439Z" fill="#390075"/>
</g>
<path d="M57.7897 102.621H54.3571C50.2381 102.621 46.8055 99.1887 46.8055 95.0696V77.9069C46.8055 73.7878 50.2381 70.3553 54.3571 70.3553H57.7897C61.9087 70.3553 65.3413 73.7878 65.3413 77.5636H71.8631C72.8929 77.5636 73.5794 78.2502 73.5794 79.2799V92.6668C73.5794 93.6966 72.8929 94.3831 71.8631 94.3831H65.3413V94.7264C65.3413 99.1887 61.9087 102.621 57.7897 102.621ZM54.3571 74.1311C52.2976 74.1311 50.5813 75.8474 50.5813 77.9069V95.0696C50.5813 97.1292 52.2976 98.8454 54.3571 98.8454H57.7897C59.8492 98.8454 61.5655 97.1292 61.5655 95.0696V93.0101C61.5655 91.9803 62.252 91.2938 63.2817 91.2938H69.8036V81.6827H63.2817C62.252 81.6827 61.5655 80.9962 61.5655 79.9664V78.2502C61.5655 76.1906 59.8492 74.4744 57.7897 74.4744H54.3571V74.1311Z" fill="#390075"/>
<path d="M127.814 155.139C120.262 156.512 114.427 160.974 114.083 166.123C113.397 165.437 113.397 165.093 113.397 164.407C112.367 158.572 118.546 152.736 127.127 151.363C135.708 149.99 143.26 153.423 144.29 159.258C144.29 159.945 144.29 160.631 144.29 161.318C142.23 156.512 135.365 153.766 127.814 155.139Z" fill="#390075"/>
<path d="M129.873 166.466C124.038 167.496 119.575 171.272 119.232 175.391C116.829 170.586 121.978 164.407 129.53 163.377C137.081 162.004 143.603 166.466 142.917 171.615C141.2 167.839 136.052 165.78 129.873 166.466Z" fill="#390075"/>
<path d="M133.992 178.824C129.53 179.51 126.097 182.599 125.754 185.689C124.038 181.913 127.814 177.451 133.649 176.421C139.484 175.391 144.633 178.48 143.946 182.599C142.573 179.853 138.454 178.137 133.992 178.824Z" fill="#390075"/>
<path d="M89.369 76.8771L82.8472 59.7143C86.9662 55.9385 91.7718 52.506 96.9206 50.1032H99.6666H103.786H113.397H117.516H124.381H130.903H138.111H143.26H151.155H156.304H163.512H166.945C174.496 54.5655 179.988 61.0874 182.734 69.6687L179.988 77.2203L173.123 59.7143L166.258 77.2203L159.736 59.7143L153.214 77.2203L147.036 61.0874L140.857 77.2203L134.335 59.7143L127.814 77.2203L120.948 59.3711L114.083 77.2203L108.591 62.4604L103.099 76.8771L96.2341 59.3711L89.369 76.8771Z" fill="#390075"/>
<path d="M82.8472 60.0576L76.3254 76.8771L74.2658 71.385C76.3254 67.2659 79.0714 63.1469 82.8472 60.0576Z" fill="#390075"/>
<path d="M160.079 240.266L153.901 236.147C142.573 228.596 132.619 218.984 124.038 207.314C117.173 198.046 110.994 187.405 106.188 175.734C101.726 165.437 98.9801 156.169 97.2638 150.334C96.2341 146.901 95.8908 144.155 95.5475 142.782C95.2043 142.095 95.2043 141.409 95.2043 140.722C84.9067 129.738 77.3551 119.097 72.8928 108.8C68.7737 99.1886 67.4007 89.9208 68.7737 80.9962C69.8035 73.7878 72.8928 67.266 77.6983 61.4306C82.1606 55.9386 87.6527 51.4763 94.5178 47.7005L95.2043 47.3572H171.407L172.093 48.0437C181.018 54.2223 186.51 62.8037 188.226 72.758C189.599 80.9962 188.57 89.9208 185.137 99.8752C181.361 110.516 175.183 122.187 165.915 134.544C159.736 144.155 155.96 154.453 154.931 164.75C154.244 172.988 154.931 181.57 157.333 190.151C161.796 204.568 169.347 213.836 169.347 214.179L174.153 220.014L154.587 217.268L160.079 240.266ZM101.04 139.349C101.726 142.439 104.472 156.512 111.681 173.675C116.486 184.659 122.321 194.957 128.843 203.881C135.365 212.806 142.917 220.358 151.155 226.879L147.379 209.717L160.766 211.776C158.02 207.314 154.244 200.449 151.498 191.524C148.752 182.256 147.722 172.988 148.752 164.064C149.782 152.736 153.901 141.752 160.766 131.111C169.347 119.097 175.526 108.113 178.958 98.1589C182.048 89.2343 183.077 80.9962 181.704 73.7878C180.331 65.5497 175.869 58.6846 168.661 53.5358H96.5773C90.742 56.9683 85.5932 60.7441 82.1606 65.5497C78.0416 70.6985 75.6388 76.1906 74.609 82.3692C73.5793 89.9208 74.609 98.1589 78.3848 106.74C82.5039 116.695 90.0555 126.992 100.01 137.633L101.04 139.006V139.349Z" fill="#390075"/>
<path d="M133.306 103.651C134.335 110.859 140.514 116.351 148.409 116.351C155.96 116.351 162.139 110.859 163.512 103.651H133.306Z" fill="white"/>
<path d="M148.066 118.068C143.946 118.068 140.171 116.695 137.081 113.949C133.992 111.203 131.933 107.77 131.589 103.651L131.246 101.935H164.885L164.542 103.651C163.855 107.427 162.139 111.203 159.05 113.949C155.96 116.695 152.185 118.068 148.066 118.068ZM135.365 105.367C136.052 107.77 137.425 109.829 139.484 111.546C141.887 113.605 144.976 114.978 148.409 114.978C151.498 114.978 154.931 113.949 157.333 111.546C159.393 109.829 160.766 107.77 161.452 105.367H135.365Z" fill="#390075"/>
<path d="M148.066 110.516C150.151 110.516 151.841 108.825 151.841 106.74C151.841 104.655 150.151 102.964 148.066 102.964C145.98 102.964 144.29 104.655 144.29 106.74C144.29 108.825 145.98 110.516 148.066 110.516Z" fill="#390075"/>
<path d="M95.8907 103.994C96.9205 111.203 103.099 116.695 110.994 116.695C118.546 116.695 124.724 111.203 126.097 103.994H95.8907Z" fill="white"/>
<path d="M110.994 118.411C106.875 118.411 103.099 117.038 100.01 114.292C96.9206 111.546 94.8611 108.113 94.5178 103.994L94.1746 102.278H127.814L127.47 103.994C126.784 107.77 125.067 111.546 121.978 114.292C118.889 117.038 114.77 118.411 110.994 118.411ZM97.9504 105.71C98.6369 108.113 100.01 110.173 102.069 111.889C104.472 113.949 107.561 115.322 110.994 115.322C114.427 115.322 117.516 114.292 119.919 111.889C121.978 110.173 123.351 108.113 124.038 105.71H97.9504Z" fill="#390075"/>
<path d="M110.651 111.203C112.736 111.203 114.427 109.512 114.427 107.427C114.427 105.341 112.736 103.651 110.651 103.651C108.565 103.651 106.875 105.341 106.875 107.427C106.875 109.512 108.565 111.203 110.651 111.203Z" fill="#390075"/>
</svg>