<svg width="256" height="256" viewBox="0 0 256 256" fill="none" xmlns="http://www.w3.org/2000/svg">
<g clip-path="url(#clip0_49_12)">
<path d="M196 0H60C26.8629 0 0 26.8629 0 60V196C0 229.137 26.8629 256 60 256H196C229.137 256 256 229.137 256 196V60C256 26.8629 229.137 0 196 0Z" fill="#F4F2ED"/>
<g clip-path="url(#clip1_49_12)">
<path fill-rule="evenodd" clip-rule="evenodd" d="M200.908 69.9983L171.909 99.0002H113.909V120.749H142.908V149.751H113.909V185.998L84.9075 215H114.273C116.471 215 118.419 213.584 119.098 211.493L124.347 195.338C124.849 193.793 126.062 192.585 127.607 192.083L131.642 190.771C133.187 190.269 134.879 190.536 136.194 191.491L149.932 201.475C151.711 202.767 154.122 202.767 155.9 201.475L168.215 192.525C169.994 191.232 170.738 188.944 170.059 186.852L164.81 170.697C164.308 169.152 164.578 167.46 165.533 166.145L168.028 162.714C168.983 161.399 170.506 160.619 172.13 160.619L189.117 160.623C191.316 160.623 193.263 159.204 193.943 157.113L198.648 142.636C199.328 140.545 198.584 138.252 196.805 136.96L183.063 126.975C181.749 126.021 180.972 124.498 180.972 122.873V118.628C180.972 117.004 181.748 115.477 183.063 114.522L198.817 103.076C200.131 102.122 200.908 100.595 200.908 98.9702V69.9983Z" fill="#418FDE"/>
<path fill-rule="evenodd" clip-rule="evenodd" d="M171.908 41L142.908 70H171.908V99L200.908 70V41H171.908ZM84.9075 157L55.9075 186V215H84.9075L113.908 186H84.9075V157Z" fill="#FF585D"/>
<path fill-rule="evenodd" clip-rule="evenodd" d="M84.9075 41L55.9075 70V186L84.9075 157V70H142.908L171.908 41H84.9075Z" fill="#CB333B"/>
<path fill-rule="evenodd" clip-rule="evenodd" d="M84.9075 185.998H113.909V149.751H142.908V120.749H113.909V99.0002H171.909V69.9983H84.9075V185.998Z" fill="#FEFEFE"/>
<path fill-rule="evenodd" clip-rule="evenodd" d="M200.908 69.9983L171.909 99.0002H113.909V120.749H142.908V149.751H113.909V185.998L84.9075 215H114.273C116.471 215 118.419 213.584 119.098 211.493L124.347 195.338C124.849 193.793 126.062 192.585 127.607 192.083L131.642 190.771C133.187 190.269 134.879 190.536 136.194 191.491L149.932 201.475C151.711 202.767 154.122 202.767 155.9 201.475L168.215 192.525C169.994 191.232 170.738 188.944 170.059 186.852L164.81 170.697C164.308 169.152 164.578 167.46 165.533 166.145L168.028 162.714C168.983 161.399 170.506 160.619 172.13 160.619L189.117 160.623C191.316 160.623 193.263 159.204 193.943 157.113L198.648 142.636C199.328 140.545 198.584 138.252 196.805 136.96L183.063 126.975C181.749 126.021 180.972 124.498 180.972 122.873V118.628C180.972 117.004 181.748 115.477 183.063 114.522L198.817 103.076C200.131 102.122 200.908 100.595 200.908 98.9702V69.9983Z" fill="#418FDE"/>
<path fill-rule="evenodd" clip-rule="evenodd" d="M171.908 41L142.908 70H171.908V99L200.908 70V41H171.908ZM84.9075 157L55.9075 186V215H84.9075L113.908 186H84.9075V157Z" fill="#FF585D"/>
<path fill-rule="evenodd" clip-rule="evenodd" d="M84.9075 41L55.9075 70V186L84.9075 157V70H142.908L171.908 41H84.9075Z" fill="#CB333B"/>
<path fill-rule="evenodd" clip-rule="evenodd" d="M84.9075 185.998H113.909V149.751H142.908V120.749H113.909V99.0002H171.909V69.9983H84.9075V185.998Z" fill="#FEFEFE"/>
</g>
</g>
<defs>
<clipPath id="clip0_49_12">
<rect width="256" height="256" fill="white"/>
</clipPath>
<clipPath id="clip1_49_12">
<rect width="174" height="174" fill="white" transform="translate(41 41)"/>
</clipPath>
</defs>
</svg>
