<svg width="256" height="256" viewBox="0 0 256 256" fill="none" xmlns="http://www.w3.org/2000/svg">
<path d="M196 0H60C26.8629 0 0 26.8629 0 60V196C0 229.137 26.8629 256 60 256H196C229.137 256 256 229.137 256 196V60C256 26.8629 229.137 0 196 0Z" fill="#242938"/>
<path d="M65.4114 61.0212C66.0874 61.6942 66.7633 62.6635 66.7661 63.6385C66.769 65.324 64.7902 67.6106 61.1316 71.367C45.876 86.056 38.2022 104.044 38.254 125.739C38.3115 149.742 46.3822 169.018 62.0692 183.957C65.3683 186.906 66.723 189.224 66.7288 191.208C66.7288 192.181 66.0586 193.193 65.3856 194.168C64.7528 194.844 63.4038 195.523 62.4317 195.523C58.8018 195.531 53.7224 191.24 47.0898 182.89C34.1755 167.062 28.3367 149.584 28.0088 125.762C27.7068 101.93 35.1793 85.7683 49.805 69.0833C55.0685 63.1208 59.4576 60.0231 62.4518 60.0174C63.424 60.0145 64.4364 60.3481 65.4114 61.0212Z" fill="white"/>
<path d="M145.541 130.034C139.809 128.57 163.331 100.779 121.524 67.5071C121.524 67.5071 127.009 84.9342 99.3515 123.824C71.6792 162.699 111.656 185.859 111.656 185.859C111.656 185.859 92.8944 175.861 114.705 140.264C118.608 133.807 123.716 127.96 130.058 114.798C130.058 114.798 135.673 122.722 132.742 139.902C128.358 165.863 151.751 158.434 152.113 158.796C160.285 168.417 145.346 185.327 144.437 185.859C143.531 186.376 187.1 159.65 156.146 119.429C154.026 121.549 151.271 131.501 145.541 130.034Z" fill="white"/>
<path d="M191.515 61.0038C190.839 61.6769 190.163 62.6462 190.16 63.6212C190.157 65.3067 192.136 67.5933 195.795 71.3497C211.05 86.0358 218.724 104.027 218.672 125.722C218.615 149.724 210.544 169.001 194.857 183.94C191.558 186.888 190.203 189.207 190.198 191.191C190.198 192.163 190.868 193.176 191.541 194.151C192.174 194.827 193.522 195.503 194.495 195.505C198.124 195.514 203.204 191.223 209.837 182.873C222.751 167.045 228.59 149.566 228.918 125.745C229.22 101.913 221.747 85.751 207.121 69.0659C201.858 63.1035 197.469 60.0058 194.475 60C193.502 59.9971 192.49 60.3308 191.515 61.0038Z" fill="white"/>
</svg>
