<svg width="256" height="256" viewBox="0 0 256 256" fill="none" xmlns="http://www.w3.org/2000/svg">
<rect width="256" height="256" fill="#242938" rx="60"/>
<path d="M168.412 217.544C161.389 217.544 154.498 215.439 148.685 211.559C142.872 215.439 135.969 217.544 128.959 217.544C121.949 217.544 115.045 215.439 109.233 211.559C103.459 215.439 96.7787 217.491 89.743 217.544H89.5326C79.9851 217.544 71.0293 213.743 64.2829 206.85C57.6418 200.063 53.9858 191.132 53.9858 181.701V112.974C53.999 71.6332 87.6257 38 128.959 38C170.292 38 203.919 71.6332 203.919 112.974V181.727C203.919 200.76 189.19 216.466 170.384 217.491C169.726 217.531 169.069 217.544 168.412 217.544Z" fill="#3551F3"/>
<path d="M168.412 209.652C162.139 209.652 156.011 207.495 151.132 203.575C150.29 202.891 149.383 202.76 148.778 202.76C147.818 202.76 146.844 203.102 146.042 203.746C141.203 207.561 135.14 209.665 128.959 209.665C122.778 209.665 116.716 207.561 111.877 203.746C111.1 203.128 110.18 202.812 109.233 202.812C108.286 202.812 107.366 203.141 106.59 203.746C101.737 207.574 95.8981 209.613 89.704 209.665H89.5199C82.1423 209.665 75.1854 206.719 69.9383 201.352C64.7568 196.051 61.8899 189.08 61.8899 181.727V113.001C61.8899 75.9871 91.9791 45.8922 128.959 45.8922C165.94 45.8922 196.029 75.9871 196.029 112.975V181.727C196.029 196.564 184.575 208.81 169.951 209.613C169.438 209.639 168.925 209.652 168.412 209.652Z" fill="black"/>
<path d="M188.138 112.975V181.728C188.138 192.25 180.023 201.155 169.516 201.734C164.413 202.01 159.706 200.353 156.063 197.419C151.697 193.908 145.555 194.065 141.15 197.538C137.796 200.182 133.562 201.76 128.946 201.76C124.329 201.76 120.108 200.182 116.755 197.538C112.297 194.026 106.155 194.026 101.697 197.538C98.3698 200.156 94.1879 201.734 89.6377 201.76C78.7093 201.839 69.7799 192.632 69.7799 181.701V112.975C69.7799 80.2885 96.2789 53.7844 128.959 53.7844C161.639 53.7844 188.138 80.2885 188.138 112.975Z" fill="white"/>
<path d="M117.282 107.779L95.2277 95.046C92.3608 93.3887 88.6785 94.375 87.0215 97.2426C85.3645 100.11 86.3508 103.793 89.2177 105.451L102.263 112.988L89.2177 120.525C86.3508 122.181 85.3645 125.851 87.0215 128.732C88.6785 131.6 92.3476 132.586 95.2277 130.929L117.282 118.196C121.28 115.881 121.28 110.107 117.282 107.791V107.779Z" fill="black"/>
<path d="M167.215 106.963H138.244C134.93 106.963 132.234 109.646 132.234 112.974C132.234 116.302 134.917 118.986 138.244 118.986H167.215C170.53 118.986 173.225 116.302 173.225 112.974C173.225 109.646 170.543 106.963 167.215 106.963Z" fill="black"/>
</svg>