<svg width="256" height="256" viewBox="0 0 256 256" fill="none" xmlns="http://www.w3.org/2000/svg" id="gimp">
<style>
#gimp {
    rect {fill: #242938}

    @media (prefers-color-scheme: light) {
        rect {fill: #F4F2ED}
    }
}
</style>
    <rect width="256" height="256" rx="60" fill="#242938"/>
            <path fill-rule="evenodd" clip-rule="evenodd" d="M218.875 159.687C218.875 164.899 216.515 170.06 211.929 174.875C207.343 179.69 200.622 184.065 192.148 187.751C183.675 191.436 173.616 194.359 162.545 196.354C151.474 198.348 139.608 199.375 127.625 199.375C115.642 199.375 103.776 198.348 92.7051 196.354C81.6342 194.359 71.5748 191.436 63.1015 187.751C54.6282 184.065 47.9067 179.69 43.321 174.875C38.7352 170.06 36.375 164.899 36.375 159.687C36.375 154.476 38.7352 149.315 43.321 144.5C47.9067 139.685 54.6282 135.31 63.1015 131.624C71.5748 127.939 81.6342 125.016 92.7051 123.021C103.776 121.027 115.642 120 127.625 120C139.608 120 151.474 121.027 162.545 123.021C173.616 125.016 183.675 127.939 192.148 131.624C200.622 135.31 207.343 139.685 211.929 144.5C216.515 149.315 218.875 154.476 218.875 159.687Z" fill="url(#paint0_radial_38_244)"/>
            <path fill-rule="evenodd" clip-rule="evenodd" d="M63.8719 62.3394C63.8719 62.3394 78.2444 91.9776 111.868 91.1415C182.331 89.3737 194.687 52.6167 196.454 47.3134C198.222 42.0101 200.927 42.8134 201.552 47.7148C224.533 256.311 42.0678 166.811 35.5876 131.282C71.8268 120.676 62.988 100.346 62.988 100.346L63.8719 62.3394Z" fill="url(#paint1_radial_38_244)" stroke="#2E3436" stroke-width="6.58333" stroke-miterlimit="10"/>
            <path fill-rule="evenodd" clip-rule="evenodd" d="M90.689 150.33C124.383 157.069 141.542 150.821 151.585 143.066C148.933 139.641 144.403 135.885 144.403 135.885C144.403 135.885 156.17 139.155 160.313 144.503C164.445 149.836 161.847 153.121 160.766 159.945C158.359 153.952 153.866 151.704 153.258 149.323C144.226 161.808 121.726 161.289 90.689 150.33Z" fill="url(#paint2_linear_38_244)"/>
            <path opacity="0.185393" fill-rule="evenodd" clip-rule="evenodd" d="M196.844 59.2188C194.034 63.8532 189.811 69.3846 183.406 74.6875C170.247 85.5827 148.153 95.4992 112 96.4062C90.8781 96.9315 77.2363 86.7355 68.875 77.6562L68.25 100C68.9305 102.094 70.3273 106.952 67.9375 113.594C65.3659 120.74 57.1649 128.051 43.0938 133.594C44.3454 136.204 45.5712 138.812 49.3438 142.5C54.4835 147.525 61.6289 152.94 70.125 157.812C87.1172 167.557 109.133 175.279 129.656 175.625C150.18 175.971 168.942 169.452 181.844 150.625C193.737 133.269 200.256 103.885 196.844 59.2188Z" stroke="url(#paint3_linear_38_244)" stroke-width="6.58333" stroke-miterlimit="10"/>
            <path fill-rule="evenodd" clip-rule="evenodd" d="M100.553 106.976C100.554 109.646 100.029 112.29 99.0072 114.757C97.9858 117.224 96.4885 119.466 94.6007 121.354C92.7129 123.242 90.4715 124.74 88.0047 125.762C85.5379 126.784 82.894 127.31 80.2239 127.31C77.5538 127.31 74.9098 126.784 72.443 125.762C69.9762 124.74 67.7349 123.242 65.8471 121.354C63.9593 119.466 62.4619 117.224 61.4406 114.757C60.4192 112.29 59.8939 109.646 59.8945 106.976C59.8939 104.305 60.4192 101.661 61.4406 99.1943C62.4619 96.7273 63.9593 94.4856 65.8471 92.5973C67.7349 90.709 69.9762 89.2111 72.443 88.1891C74.9098 87.1672 77.5538 86.6412 80.2239 86.6412C82.894 86.6412 85.5379 87.1672 88.0047 88.1891C90.4715 89.2111 92.7129 90.709 94.6007 92.5973C96.4885 94.4856 97.9858 96.7273 99.0072 99.1943C100.029 101.661 100.554 104.305 100.553 106.976Z" fill="url(#paint4_radial_38_244)" stroke="#888A85" stroke-width="6.58333" stroke-miterlimit="10"/>
            <path fill-rule="evenodd" clip-rule="evenodd" d="M60.056 114.635C64.7878 121.194 67.4755 128.819 67.5278 135.833C67.5801 142.847 64.9929 148.675 60.3351 152.035C55.6774 155.395 49.3308 156.012 42.6914 153.751C36.0521 151.489 29.6638 146.533 24.9321 139.975C20.2003 133.416 17.5127 125.791 17.4603 118.777C17.408 111.763 19.9953 105.935 24.653 102.575C29.3107 99.2145 35.6573 98.5974 42.2967 100.859C48.9361 103.121 55.3243 108.076 60.056 114.635Z" fill="url(#paint5_radial_38_244)" stroke="black" stroke-width="6.58333" stroke-miterlimit="10"/>
            <path fill-rule="evenodd" clip-rule="evenodd" d="M94.7658 109.987C94.7662 111.273 94.5133 112.546 94.0215 113.734C93.5298 114.922 92.8089 116.001 91.8999 116.91C90.991 117.82 89.9118 118.541 88.724 119.033C87.5363 119.525 86.2632 119.778 84.9776 119.778C83.6919 119.778 82.4189 119.525 81.2311 119.033C80.0434 118.541 78.9642 117.82 78.0553 116.91C77.1463 116.001 76.4254 114.922 75.9336 113.734C75.4419 112.546 75.189 111.273 75.1894 109.987C75.189 108.702 75.4419 107.429 75.9336 106.241C76.4254 105.053 77.1463 103.973 78.0553 103.064C78.9642 102.155 80.0434 101.434 81.2311 100.942C82.4189 100.449 83.6919 100.196 84.9776 100.196C86.2632 100.196 87.5363 100.449 88.724 100.942C89.9118 101.434 90.991 102.155 91.8999 103.064C92.8089 103.973 93.5298 105.053 94.0215 106.241C94.5133 107.429 94.7662 108.702 94.7658 109.987Z" fill="#2E3436" stroke="black" stroke-width="6.58333" stroke-miterlimit="10"/>
            <path opacity="0.280899" fill-rule="evenodd" clip-rule="evenodd" d="M26.4261 107.042C23.2316 109.435 21.5479 113.483 21.6996 118.976C21.8513 124.47 24.0193 131.196 28.4691 137.137C32.9189 143.078 38.7637 147.05 43.9928 148.741C49.2219 150.431 53.5803 149.954 56.7748 147.562C59.9694 145.169 61.6591 140.927 61.5327 135.408C61.4063 129.89 59.297 123.301 54.8569 117.373C50.4168 111.445 44.6875 107.568 39.4269 105.894C34.1663 104.221 29.6207 104.649 26.4261 107.042Z" stroke="url(#paint6_linear_38_244)" stroke-width="6.58333" stroke-miterlimit="10"/>
            <path fill-rule="evenodd" clip-rule="evenodd" d="M41.1682 116.256C41.1685 117.649 40.9401 119.029 40.496 120.316C40.0519 121.603 39.4009 122.773 38.5801 123.758C37.7593 124.743 36.7848 125.525 35.7123 126.058C34.6398 126.591 33.4903 126.865 32.3294 126.865C31.1685 126.865 30.0189 126.591 28.9464 126.058C27.8739 125.525 26.8994 124.743 26.0786 123.758C25.2578 122.773 24.6068 121.603 24.1628 120.316C23.7187 119.029 23.4903 117.649 23.4905 116.256C23.4903 114.863 23.7187 113.484 24.1628 112.197C24.6068 110.909 25.2578 109.74 26.0786 108.755C26.8994 107.77 27.8739 106.988 28.9464 106.455C30.0189 105.922 31.1685 105.647 32.3294 105.647C33.4903 105.647 34.6398 105.922 35.7123 106.455C36.7848 106.988 37.7593 107.77 38.5801 108.755C39.4009 109.74 40.0519 110.909 40.496 112.197C40.9401 113.484 41.1685 114.863 41.1682 116.256Z" fill="white"/>
            <path fill-rule="evenodd" clip-rule="evenodd" d="M87.9893 105.47C87.9893 107.267 87.2753 108.99 86.0045 110.261C84.7337 111.532 83.0101 112.246 81.2128 112.246C79.4156 112.246 77.692 111.532 76.4212 110.261C75.1503 108.99 74.4364 107.267 74.4364 105.47C74.4364 103.672 75.1503 101.949 76.4212 100.678C77.692 99.4071 79.4156 98.6932 81.2128 98.6932C83.0101 98.6932 84.7337 99.4071 86.0045 100.678C87.2753 101.949 87.9893 103.672 87.9893 105.47Z" fill="white"/>
            <path fill-rule="evenodd" clip-rule="evenodd" d="M146.073 109.185C146.074 112.32 145.457 115.424 144.258 118.32C143.059 121.216 141.302 123.847 139.085 126.064C136.869 128.281 134.238 130.039 131.342 131.239C128.447 132.439 125.343 133.056 122.208 133.056C119.074 133.056 115.97 132.439 113.074 131.239C110.178 130.039 107.547 128.281 105.331 126.064C103.115 123.847 101.357 121.216 100.158 118.32C98.9594 115.424 98.3426 112.32 98.3434 109.185C98.3426 106.051 98.9594 102.947 100.158 100.051C101.357 97.1547 103.115 94.5231 105.331 92.3064C107.547 90.0897 110.178 88.3313 113.074 87.1316C115.97 85.9319 119.074 85.3145 122.208 85.3145C125.343 85.3145 128.447 85.9319 131.342 87.1316C134.238 88.3313 136.869 90.0897 139.085 92.3064C141.302 94.5231 143.059 97.1547 144.258 100.051C145.457 102.947 146.074 106.051 146.073 109.185Z" fill="url(#paint7_radial_38_244)" stroke="#888A85" stroke-width="6.58333" stroke-miterlimit="10"/>
            <path fill-rule="evenodd" clip-rule="evenodd" d="M139.279 112.721C139.28 114.23 138.983 115.725 138.406 117.119C137.828 118.514 136.982 119.781 135.915 120.848C134.848 121.915 133.581 122.762 132.187 123.34C130.792 123.917 129.298 124.215 127.789 124.215C126.28 124.215 124.785 123.917 123.391 123.34C121.996 122.762 120.73 121.915 119.663 120.848C118.596 119.781 117.749 118.514 117.172 117.119C116.595 115.725 116.298 114.23 116.298 112.721C116.298 111.212 116.595 109.717 117.172 108.323C117.749 106.928 118.596 105.661 119.663 104.594C120.73 103.526 121.996 102.68 123.391 102.102C124.785 101.524 126.28 101.227 127.789 101.227C129.298 101.227 130.792 101.524 132.187 102.102C133.581 102.68 134.848 103.526 135.915 104.594C136.982 105.661 137.828 106.928 138.406 108.323C138.983 109.717 139.28 111.212 139.279 112.721Z" fill="#2E3436" stroke="black" stroke-width="6.58333" stroke-miterlimit="10"/>
            <path fill-rule="evenodd" clip-rule="evenodd" d="M131.324 107.417C131.324 109.527 130.486 111.551 128.994 113.042C127.503 114.534 125.479 115.372 123.369 115.372C121.26 115.372 119.236 114.534 117.744 113.042C116.253 111.551 115.414 109.527 115.414 107.417C115.414 105.308 116.253 103.284 117.744 101.792C119.236 100.301 121.26 99.4625 123.369 99.4625C125.479 99.4625 127.503 100.301 128.994 101.792C130.486 103.284 131.324 105.308 131.324 107.417Z" fill="white"/>
            <path d="M194.935 180.457L199.567 171.233C182.335 158.626 150.57 149.453 150.57 149.453C145.064 146.888 143.326 151.835 147.139 155.05C147.139 155.05 174.305 174.525 194.935 180.457Z" fill="url(#paint8_linear_38_244)" stroke="#673907" stroke-width="6.58334" stroke-linecap="round"/>
            <path d="M217.026 188.96L219.506 183.47L200.268 171.146L198.734 171.015L198.071 168.892C195.276 170.642 191.216 177.143 192.292 180.798L194.37 180.012L195.496 181.1L217.026 188.96Z" fill="url(#paint9_linear_38_244)" stroke="#888A85" stroke-width="6.58334" stroke-linecap="round"/>
            <path d="M204.559 178.548L217.332 184.032" stroke="white" stroke-width="6.58334" stroke-linecap="round" stroke-linejoin="round"/>
            <path d="M244.985 212.271C238.988 191.912 236.86 175.747 221.187 177.186C208.556 178.345 207.672 196.443 220.724 201.437C233.297 206.248 244.985 212.271 244.985 212.271Z" fill="url(#paint10_radial_38_244)"/>
            <path opacity="0.527778" d="M222.126 178.835C222.788 178.64 223.483 178.577 224.169 178.65C224.856 178.723 225.522 178.931 226.128 179.261C226.735 179.591 227.27 180.038 227.704 180.575C228.138 181.112 228.462 181.73 228.657 182.392C228.852 183.055 228.915 183.749 228.841 184.436C228.768 185.123 228.56 185.788 228.23 186.395C227.899 187.001 227.453 187.536 226.915 187.97C226.378 188.404 225.76 188.727 225.098 188.922C224.435 189.118 223.741 189.181 223.054 189.108C222.367 189.034 221.702 188.827 221.095 188.496C220.489 188.166 219.953 187.72 219.519 187.182C219.086 186.645 218.762 186.027 218.567 185.365C218.372 184.702 218.309 184.008 218.382 183.321C218.455 182.635 218.663 181.969 218.994 181.363C219.324 180.756 219.771 180.221 220.308 179.787C220.846 179.354 221.463 179.03 222.126 178.835Z" fill="white"/>
            <path d="M199.2 171.353C199.647 171.221 200.115 171.179 200.579 171.228C201.042 171.277 201.491 171.417 201.9 171.64C202.31 171.863 202.671 172.164 202.964 172.527C203.256 172.89 203.475 173.306 203.607 173.753C203.738 174.2 203.781 174.669 203.731 175.132C203.682 175.595 203.541 176.045 203.318 176.454C203.095 176.863 202.794 177.224 202.431 177.517C202.069 177.809 201.652 178.028 201.205 178.159C200.758 178.291 200.289 178.334 199.826 178.284C199.363 178.235 198.914 178.095 198.504 177.872C198.095 177.649 197.734 177.348 197.441 176.985C197.148 176.623 196.93 176.206 196.798 175.759C196.667 175.312 196.624 174.843 196.674 174.38C196.723 173.917 196.863 173.468 197.086 173.058C197.309 172.649 197.611 172.288 197.973 171.995C198.336 171.703 198.753 171.484 199.2 171.353Z" fill="white"/>
            <path opacity="0.427778" d="M237.455 200.089C237.455 200.089 235.501 192.78 231.19 188.976C229.664 187.631 231.586 185.648 233.026 187.389C236.135 191.15 237.455 200.089 237.455 200.089Z" fill="url(#paint11_linear_38_244)"/>
            <path fill-rule="evenodd" clip-rule="evenodd" d="M127.015 158.683C134.502 159.398 141.264 157.322 144.075 156.313C144.566 153.536 146.758 148.206 154.305 147.855L151.654 143.215C151.654 143.215 141.82 149.954 131.324 151.943L127.015 158.683Z" fill="url(#paint12_linear_38_244)"/>
            <path fill-rule="evenodd" clip-rule="evenodd" d="M218.875 159.687C218.875 164.899 216.515 170.06 211.929 174.875C207.343 179.69 200.622 184.065 192.148 187.751C183.675 191.436 173.616 194.359 162.545 196.354C151.474 198.348 139.608 199.375 127.625 199.375C115.642 199.375 103.776 198.348 92.7051 196.354C81.6342 194.359 71.5748 191.436 63.1015 187.751C54.6282 184.065 47.9067 179.69 43.321 174.875C38.7352 170.06 36.375 164.899 36.375 159.687C36.375 154.476 38.7352 149.315 43.321 144.5C47.9067 139.685 54.6282 135.31 63.1015 131.624C71.5748 127.939 81.6342 125.016 92.7051 123.021C103.776 121.027 115.642 120 127.625 120C139.608 120 151.474 121.027 162.545 123.021C173.616 125.016 183.675 127.939 192.148 131.624C200.622 135.31 207.343 139.685 211.929 144.5C216.515 149.315 218.875 154.476 218.875 159.687Z" fill="url(#paint13_radial_38_244)"/>
            <path fill-rule="evenodd" clip-rule="evenodd" d="M63.8719 62.3394C63.8719 62.3394 78.2444 91.9776 111.868 91.1415C182.331 89.3737 194.687 52.6167 196.454 47.3134C198.222 42.0101 200.927 42.8134 201.552 47.7148C224.533 256.311 42.0678 166.811 35.5876 131.282C71.8268 120.676 62.988 100.346 62.988 100.346L63.8719 62.3394Z" fill="url(#paint14_radial_38_244)" stroke="#2E3436" stroke-width="6.58333" stroke-miterlimit="10"/>
            <path fill-rule="evenodd" clip-rule="evenodd" d="M90.689 150.33C124.383 157.069 141.542 150.821 151.585 143.066C148.933 139.641 144.403 135.885 144.403 135.885C144.403 135.885 156.17 139.155 160.313 144.503C164.445 149.836 161.847 153.121 160.766 159.945C158.359 153.952 153.866 151.704 153.258 149.323C144.226 161.808 121.726 161.289 90.689 150.33Z" fill="url(#paint15_linear_38_244)"/>
            <path opacity="0.185393" fill-rule="evenodd" clip-rule="evenodd" d="M196.844 59.2188C194.034 63.8532 189.811 69.3846 183.406 74.6875C170.247 85.5827 148.153 95.4992 112 96.4062C90.8781 96.9315 77.2363 86.7355 68.875 77.6562L68.25 100C68.9305 102.094 70.3273 106.952 67.9375 113.594C65.3659 120.74 57.1649 128.051 43.0938 133.594C44.3454 136.204 45.5712 138.812 49.3438 142.5C54.4835 147.525 61.6289 152.94 70.125 157.812C87.1172 167.557 109.133 175.279 129.656 175.625C150.18 175.971 168.942 169.452 181.844 150.625C193.737 133.269 200.256 103.885 196.844 59.2188Z" stroke="url(#paint16_linear_38_244)" stroke-width="6.58333" stroke-miterlimit="10"/>
            <path fill-rule="evenodd" clip-rule="evenodd" d="M100.553 106.976C100.554 109.646 100.029 112.29 99.0072 114.757C97.9858 117.224 96.4885 119.466 94.6007 121.354C92.7129 123.242 90.4715 124.74 88.0047 125.762C85.5379 126.784 82.894 127.31 80.2239 127.31C77.5538 127.31 74.9098 126.784 72.443 125.762C69.9762 124.74 67.7349 123.242 65.8471 121.354C63.9593 119.466 62.4619 117.224 61.4406 114.757C60.4192 112.29 59.8939 109.646 59.8945 106.976C59.8939 104.305 60.4192 101.661 61.4406 99.1943C62.4619 96.7273 63.9593 94.4856 65.8471 92.5973C67.7349 90.709 69.9762 89.2111 72.443 88.1891C74.9098 87.1672 77.5538 86.6412 80.2239 86.6412C82.894 86.6412 85.5379 87.1672 88.0047 88.1891C90.4715 89.2111 92.7129 90.709 94.6007 92.5973C96.4885 94.4856 97.9858 96.7273 99.0072 99.1943C100.029 101.661 100.554 104.305 100.553 106.976Z" fill="url(#paint17_radial_38_244)" stroke="#888A85" stroke-width="6.58333" stroke-miterlimit="10"/>
            <path fill-rule="evenodd" clip-rule="evenodd" d="M60.056 114.635C64.7878 121.194 67.4755 128.819 67.5278 135.833C67.5801 142.847 64.9929 148.675 60.3351 152.035C55.6774 155.395 49.3308 156.012 42.6914 153.751C36.0521 151.489 29.6638 146.533 24.9321 139.975C20.2003 133.416 17.5127 125.791 17.4603 118.777C17.408 111.763 19.9953 105.935 24.653 102.575C29.3107 99.2145 35.6573 98.5974 42.2967 100.859C48.9361 103.121 55.3243 108.076 60.056 114.635Z" fill="url(#paint18_radial_38_244)" stroke="black" stroke-width="6.58333" stroke-miterlimit="10"/>
            <path fill-rule="evenodd" clip-rule="evenodd" d="M94.7658 109.987C94.7662 111.273 94.5133 112.546 94.0215 113.734C93.5298 114.922 92.8089 116.001 91.8999 116.91C90.991 117.82 89.9118 118.541 88.724 119.033C87.5363 119.525 86.2632 119.778 84.9776 119.778C83.6919 119.778 82.4189 119.525 81.2311 119.033C80.0434 118.541 78.9642 117.82 78.0553 116.91C77.1463 116.001 76.4254 114.922 75.9336 113.734C75.4419 112.546 75.189 111.273 75.1894 109.987C75.189 108.702 75.4419 107.429 75.9336 106.241C76.4254 105.053 77.1463 103.973 78.0553 103.064C78.9642 102.155 80.0434 101.434 81.2311 100.942C82.4189 100.449 83.6919 100.196 84.9776 100.196C86.2632 100.196 87.5363 100.449 88.724 100.942C89.9118 101.434 90.991 102.155 91.8999 103.064C92.8089 103.973 93.5298 105.053 94.0215 106.241C94.5133 107.429 94.7662 108.702 94.7658 109.987Z" fill="#2E3436" stroke="black" stroke-width="6.58333" stroke-miterlimit="10"/>
            <path opacity="0.280899" fill-rule="evenodd" clip-rule="evenodd" d="M26.4261 107.042C23.2316 109.435 21.5479 113.483 21.6996 118.976C21.8513 124.47 24.0193 131.196 28.4691 137.137C32.9189 143.078 38.7637 147.05 43.9928 148.741C49.2219 150.431 53.5803 149.954 56.7748 147.562C59.9694 145.169 61.6591 140.927 61.5327 135.408C61.4063 129.89 59.297 123.301 54.8569 117.373C50.4168 111.445 44.6875 107.568 39.4269 105.894C34.1663 104.221 29.6207 104.649 26.4261 107.042Z" stroke="url(#paint19_linear_38_244)" stroke-width="6.58333" stroke-miterlimit="10"/>
            <path fill-rule="evenodd" clip-rule="evenodd" d="M41.1682 116.256C41.1685 117.649 40.9401 119.029 40.496 120.316C40.0519 121.603 39.4009 122.773 38.5801 123.758C37.7593 124.743 36.7848 125.525 35.7123 126.058C34.6398 126.591 33.4903 126.865 32.3294 126.865C31.1685 126.865 30.0189 126.591 28.9464 126.058C27.8739 125.525 26.8994 124.743 26.0786 123.758C25.2578 122.773 24.6068 121.603 24.1628 120.316C23.7187 119.029 23.4903 117.649 23.4905 116.256C23.4903 114.863 23.7187 113.484 24.1628 112.197C24.6068 110.909 25.2578 109.74 26.0786 108.755C26.8994 107.77 27.8739 106.988 28.9464 106.455C30.0189 105.922 31.1685 105.647 32.3294 105.647C33.4903 105.647 34.6398 105.922 35.7123 106.455C36.7848 106.988 37.7593 107.77 38.5801 108.755C39.4009 109.74 40.0519 110.909 40.496 112.197C40.9401 113.484 41.1685 114.863 41.1682 116.256Z" fill="white"/>
            <path fill-rule="evenodd" clip-rule="evenodd" d="M87.9893 105.47C87.9893 107.267 87.2753 108.99 86.0045 110.261C84.7337 111.532 83.0101 112.246 81.2128 112.246C79.4156 112.246 77.692 111.532 76.4212 110.261C75.1503 108.99 74.4364 107.267 74.4364 105.47C74.4364 103.672 75.1503 101.949 76.4212 100.678C77.692 99.4071 79.4156 98.6932 81.2128 98.6932C83.0101 98.6932 84.7337 99.4071 86.0045 100.678C87.2753 101.949 87.9893 103.672 87.9893 105.47Z" fill="white"/>
            <path fill-rule="evenodd" clip-rule="evenodd" d="M146.073 109.185C146.074 112.32 145.457 115.424 144.258 118.32C143.059 121.216 141.302 123.847 139.085 126.064C136.869 128.281 134.238 130.039 131.342 131.239C128.447 132.439 125.343 133.056 122.208 133.056C119.074 133.056 115.97 132.439 113.074 131.239C110.178 130.039 107.547 128.281 105.331 126.064C103.115 123.847 101.357 121.216 100.158 118.32C98.9594 115.424 98.3426 112.32 98.3434 109.185C98.3426 106.051 98.9594 102.947 100.158 100.051C101.357 97.1547 103.115 94.5231 105.331 92.3064C107.547 90.0897 110.178 88.3313 113.074 87.1316C115.97 85.9319 119.074 85.3145 122.208 85.3145C125.343 85.3145 128.447 85.9319 131.342 87.1316C134.238 88.3313 136.869 90.0897 139.085 92.3064C141.302 94.5231 143.059 97.1547 144.258 100.051C145.457 102.947 146.074 106.051 146.073 109.185Z" fill="url(#paint20_radial_38_244)" stroke="#888A85" stroke-width="6.58333" stroke-miterlimit="10"/>
            <path fill-rule="evenodd" clip-rule="evenodd" d="M139.279 112.721C139.28 114.23 138.983 115.725 138.406 117.119C137.828 118.514 136.982 119.781 135.915 120.848C134.848 121.915 133.581 122.762 132.187 123.34C130.792 123.917 129.298 124.215 127.789 124.215C126.28 124.215 124.785 123.917 123.391 123.34C121.996 122.762 120.73 121.915 119.663 120.848C118.596 119.781 117.749 118.514 117.172 117.119C116.595 115.725 116.298 114.23 116.298 112.721C116.298 111.212 116.595 109.717 117.172 108.323C117.749 106.928 118.596 105.661 119.663 104.594C120.73 103.526 121.996 102.68 123.391 102.102C124.785 101.524 126.28 101.227 127.789 101.227C129.298 101.227 130.792 101.524 132.187 102.102C133.581 102.68 134.848 103.526 135.915 104.594C136.982 105.661 137.828 106.928 138.406 108.323C138.983 109.717 139.28 111.212 139.279 112.721Z" fill="#2E3436" stroke="black" stroke-width="6.58333" stroke-miterlimit="10"/>
            <path fill-rule="evenodd" clip-rule="evenodd" d="M131.324 107.417C131.324 109.527 130.486 111.551 128.994 113.042C127.503 114.534 125.479 115.372 123.369 115.372C121.26 115.372 119.236 114.534 117.744 113.042C116.253 111.551 115.414 109.527 115.414 107.417C115.414 105.308 116.253 103.284 117.744 101.792C119.236 100.301 121.26 99.4625 123.369 99.4625C125.479 99.4625 127.503 100.301 128.994 101.792C130.486 103.284 131.324 105.308 131.324 107.417Z" fill="white"/>
            <path d="M194.935 180.457L199.567 171.233C182.335 158.626 150.57 149.453 150.57 149.453C145.064 146.888 143.326 151.835 147.139 155.05C147.139 155.05 174.305 174.525 194.935 180.457Z" fill="url(#paint21_linear_38_244)" stroke="#673907" stroke-width="6.58334" stroke-linecap="round"/>
            <path d="M217.026 188.96L219.506 183.47L200.268 171.146L198.734 171.015L198.071 168.892C195.276 170.642 191.216 177.143 192.292 180.798L194.37 180.012L195.496 181.1L217.026 188.96Z" fill="url(#paint22_linear_38_244)" stroke="#888A85" stroke-width="6.58334" stroke-linecap="round"/>
            <path d="M204.559 178.548L217.332 184.032" stroke="white" stroke-width="6.58334" stroke-linecap="round" stroke-linejoin="round"/>
            <path d="M244.985 212.271C238.988 191.912 236.86 175.747 221.187 177.186C208.556 178.345 207.672 196.443 220.724 201.437C233.297 206.248 244.985 212.271 244.985 212.271Z" fill="url(#paint23_radial_38_244)"/>
            <path opacity="0.527778" d="M222.126 178.835C222.788 178.64 223.483 178.577 224.169 178.65C224.856 178.723 225.522 178.931 226.128 179.261C226.735 179.591 227.27 180.038 227.704 180.575C228.138 181.112 228.462 181.73 228.657 182.392C228.852 183.055 228.915 183.749 228.841 184.436C228.768 185.123 228.56 185.788 228.23 186.395C227.899 187.001 227.453 187.536 226.915 187.97C226.378 188.404 225.76 188.727 225.098 188.922C224.435 189.118 223.741 189.181 223.054 189.108C222.367 189.034 221.702 188.827 221.095 188.496C220.489 188.166 219.953 187.72 219.519 187.182C219.086 186.645 218.762 186.027 218.567 185.365C218.372 184.702 218.309 184.008 218.382 183.321C218.455 182.635 218.663 181.969 218.994 181.363C219.324 180.756 219.771 180.221 220.308 179.787C220.846 179.354 221.463 179.03 222.126 178.835Z" fill="white"/>
            <path d="M199.2 171.353C199.647 171.221 200.115 171.179 200.579 171.228C201.042 171.277 201.491 171.417 201.9 171.64C202.31 171.863 202.671 172.164 202.964 172.527C203.256 172.89 203.475 173.306 203.607 173.753C203.738 174.2 203.781 174.669 203.731 175.132C203.682 175.595 203.541 176.045 203.318 176.454C203.095 176.863 202.794 177.224 202.431 177.517C202.069 177.809 201.652 178.028 201.205 178.159C200.758 178.291 200.289 178.334 199.826 178.284C199.363 178.235 198.914 178.095 198.504 177.872C198.095 177.649 197.734 177.348 197.441 176.985C197.148 176.623 196.93 176.206 196.798 175.759C196.667 175.312 196.624 174.843 196.674 174.38C196.723 173.917 196.863 173.468 197.086 173.058C197.309 172.649 197.611 172.288 197.973 171.995C198.336 171.703 198.753 171.484 199.2 171.353Z" fill="white"/>
            <path opacity="0.427778" d="M237.455 200.089C237.455 200.089 235.501 192.78 231.19 188.976C229.664 187.631 231.586 185.648 233.026 187.389C236.135 191.15 237.455 200.089 237.455 200.089Z" fill="url(#paint24_linear_38_244)"/>
            <path fill-rule="evenodd" clip-rule="evenodd" d="M127.015 158.683C134.502 159.398 141.264 157.322 144.075 156.313C144.566 153.536 146.758 148.206 154.305 147.855L151.654 143.215C151.654 143.215 141.82 149.954 131.324 151.943L127.015 158.683Z" fill="url(#paint25_linear_38_244)"/>
    <defs>
        <radialGradient id="paint0_radial_38_244" cx="0" cy="0" r="1" gradientUnits="userSpaceOnUse" gradientTransform="translate(127.625 159.688) scale(91.25 39.6875)">
            <stop/>
            <stop offset="1" stop-opacity="0"/>
        </radialGradient>
        <radialGradient id="paint1_radial_38_244" cx="0" cy="0" r="1" gradientUnits="userSpaceOnUse" gradientTransform="translate(94.7882 111.5) scale(170.443 124.671)">
            <stop stop-color="#857C63"/>
            <stop offset="1" stop-color="#221F19"/>
        </radialGradient>
        <linearGradient id="paint2_linear_38_244" x1="154.568" y1="142.147" x2="98.8833" y2="153.195" gradientUnits="userSpaceOnUse">
            <stop/>
            <stop offset="1" stop-opacity="0"/>
        </linearGradient>
        <linearGradient id="paint3_linear_38_244" x1="86.8438" y1="95.5534" x2="209.623" y2="234.928" gradientUnits="userSpaceOnUse">
            <stop stop-color="white"/>
            <stop offset="1" stop-color="white" stop-opacity="0"/>
        </linearGradient>
        <radialGradient id="paint4_radial_38_244" cx="0" cy="0" r="1" gradientUnits="userSpaceOnUse" gradientTransform="translate(80.2238 92.6698) scale(29.6119 29.6119)">
            <stop stop-color="white"/>
            <stop offset="1" stop-color="#B9B9B0"/>
        </radialGradient>
        <radialGradient id="paint5_radial_38_244" cx="0" cy="0" r="1" gradientUnits="userSpaceOnUse" gradientTransform="translate(34.369 116.68) rotate(-30) scale(22.2441 25.9626)">
            <stop stop-color="#5B676B"/>
            <stop offset="1" stop-color="#141718"/>
        </radialGradient>
        <linearGradient id="paint6_linear_38_244" x1="30.8875" y1="111.235" x2="54.2062" y2="145.042" gradientUnits="userSpaceOnUse">
            <stop stop-color="white"/>
            <stop offset="1" stop-color="white" stop-opacity="0"/>
        </linearGradient>
        <radialGradient id="paint7_radial_38_244" cx="0" cy="0" r="1" gradientUnits="userSpaceOnUse" gradientTransform="translate(122.208 92.3915) scale(34.7618 34.7617)">
            <stop stop-color="white"/>
            <stop offset="1" stop-color="#B9B9B0"/>
        </radialGradient>
        <linearGradient id="paint8_linear_38_244" x1="183.796" y1="160.272" x2="173.41" y2="182.957" gradientUnits="userSpaceOnUse">
            <stop stop-color="#6E3D09"/>
            <stop offset="0.242424" stop-color="#EA8113"/>
            <stop offset="0.621212" stop-color="#5C3307"/>
            <stop offset="1" stop-color="#E07C12"/>
        </linearGradient>
        <linearGradient id="paint9_linear_38_244" x1="206.055" y1="184.909" x2="210.623" y2="175.694" gradientUnits="userSpaceOnUse">
            <stop stop-color="#BDBDBD"/>
            <stop offset="0.333333" stop-color="#E2E2E2"/>
            <stop offset="0.666667" stop-color="#A3A3A3"/>
            <stop offset="1" stop-color="#DDDDDD"/>
        </linearGradient>
        <radialGradient id="paint10_radial_38_244" cx="0" cy="0" r="1" gradientUnits="userSpaceOnUse" gradientTransform="translate(217.446 190.264) rotate(-106.415) scale(24.2226 23.6056)">
            <stop stop-color="#696969"/>
            <stop offset="1"/>
        </radialGradient>
        <linearGradient id="paint11_linear_38_244" x1="231.785" y1="185.427" x2="237.636" y2="196.269" gradientUnits="userSpaceOnUse">
            <stop stop-color="white"/>
            <stop offset="1" stop-color="white" stop-opacity="0"/>
        </linearGradient>
        <linearGradient id="paint12_linear_38_244" x1="142.815" y1="152.717" x2="133.645" y2="154.926" gradientUnits="userSpaceOnUse">
            <stop/>
            <stop offset="1" stop-opacity="0"/>
        </linearGradient>
        <radialGradient id="paint13_radial_38_244" cx="0" cy="0" r="1" gradientUnits="userSpaceOnUse" gradientTransform="translate(127.625 159.688) scale(91.25 39.6875)">
            <stop/>
            <stop offset="1" stop-opacity="0"/>
        </radialGradient>
        <radialGradient id="paint14_radial_38_244" cx="0" cy="0" r="1" gradientUnits="userSpaceOnUse" gradientTransform="translate(94.7882 111.5) scale(170.443 124.671)">
            <stop stop-color="#857C63"/>
            <stop offset="1" stop-color="#221F19"/>
        </radialGradient>
        <linearGradient id="paint15_linear_38_244" x1="154.568" y1="142.147" x2="98.8833" y2="153.195" gradientUnits="userSpaceOnUse">
            <stop/>
            <stop offset="1" stop-opacity="0"/>
        </linearGradient>
        <linearGradient id="paint16_linear_38_244" x1="86.8438" y1="95.5534" x2="209.623" y2="234.928" gradientUnits="userSpaceOnUse">
            <stop stop-color="white"/>
            <stop offset="1" stop-color="white" stop-opacity="0"/>
        </linearGradient>
        <radialGradient id="paint17_radial_38_244" cx="0" cy="0" r="1" gradientUnits="userSpaceOnUse" gradientTransform="translate(80.2238 92.6698) scale(29.6119 29.6119)">
            <stop stop-color="white"/>
            <stop offset="1" stop-color="#B9B9B0"/>
        </radialGradient>
        <radialGradient id="paint18_radial_38_244" cx="0" cy="0" r="1" gradientUnits="userSpaceOnUse" gradientTransform="translate(34.369 116.68) rotate(-30) scale(22.2441 25.9626)">
            <stop stop-color="#5B676B"/>
            <stop offset="1" stop-color="#141718"/>
        </radialGradient>
        <linearGradient id="paint19_linear_38_244" x1="30.8875" y1="111.235" x2="54.2062" y2="145.042" gradientUnits="userSpaceOnUse">
            <stop stop-color="white"/>
            <stop offset="1" stop-color="white" stop-opacity="0"/>
        </linearGradient>
        <radialGradient id="paint20_radial_38_244" cx="0" cy="0" r="1" gradientUnits="userSpaceOnUse" gradientTransform="translate(122.208 92.3915) scale(34.7618 34.7617)">
            <stop stop-color="white"/>
            <stop offset="1" stop-color="#B9B9B0"/>
        </radialGradient>
        <linearGradient id="paint21_linear_38_244" x1="183.796" y1="160.272" x2="173.41" y2="182.957" gradientUnits="userSpaceOnUse">
            <stop stop-color="#6E3D09"/>
            <stop offset="0.242424" stop-color="#EA8113"/>
            <stop offset="0.621212" stop-color="#5C3307"/>
            <stop offset="1" stop-color="#E07C12"/>
        </linearGradient>
        <linearGradient id="paint22_linear_38_244" x1="206.055" y1="184.909" x2="210.623" y2="175.694" gradientUnits="userSpaceOnUse">
            <stop stop-color="#BDBDBD"/>
            <stop offset="0.333333" stop-color="#E2E2E2"/>
            <stop offset="0.666667" stop-color="#A3A3A3"/>
            <stop offset="1" stop-color="#DDDDDD"/>
        </linearGradient>
        <radialGradient id="paint23_radial_38_244" cx="0" cy="0" r="1" gradientUnits="userSpaceOnUse" gradientTransform="translate(217.446 190.264) rotate(-106.415) scale(24.2226 23.6056)">
            <stop stop-color="#696969"/>
            <stop offset="1"/>
        </radialGradient>
        <linearGradient id="paint24_linear_38_244" x1="231.785" y1="185.427" x2="237.636" y2="196.269" gradientUnits="userSpaceOnUse">
            <stop stop-color="white"/>
            <stop offset="1" stop-color="white" stop-opacity="0"/>
        </linearGradient>
        <linearGradient id="paint25_linear_38_244" x1="142.815" y1="152.717" x2="133.645" y2="154.926" gradientUnits="userSpaceOnUse">
            <stop/>
            <stop offset="1" stop-opacity="0"/>
        </linearGradient>
    </defs>
</svg>
