<svg width="256" height="256" viewBox="0 0 256 256" fill="none" xmlns="http://www.w3.org/2000/svg">
<rect width="256" height="256" fill="#1E1E1E"/>
<g clip-path="url(#clip0_0_1)">
<path d="M196 0H60C26.8629 0 0 26.8629 0 60V196C0 229.137 26.8629 256 60 256H196C229.137 256 256 229.137 256 196V60C256 26.8629 229.137 0 196 0Z" fill="#F4F2ED"/>
<path d="M126.228 239.738C107.698 238.944 94.8152 236.476 84.5333 231.752C83.0325 231.062 83.2577 231.524 81.639 225.819C78.8199 215.882 76.6772 206.88 74.3817 195.327C73.2181 189.471 72.6732 187.023 69.9859 175.579C65.1639 155.044 63.3325 145.602 62.2787 135.844C62.0118 133.372 62.4923 129.993 63.2472 129.032C63.694 128.463 63.7031 127.011 63.2605 126.895C63.0023 126.827 62.9383 126.609 62.8439 125.474C62.7655 124.531 62.6434 124.019 62.4333 123.752C62.2305 123.494 62.1342 123.113 62.1342 122.569C62.1342 122.129 62.0626 121.724 61.9752 121.669C61.8796 121.61 61.8161 120.53 61.8161 118.962C61.8161 117.394 61.7526 116.314 61.6571 116.255C61.5696 116.2 61.498 116.299 61.498 116.475C61.498 118.438 60.0892 114.862 59.2679 110.815C57.1603 100.429 53.7013 90.1073 54.497 96.5795C54.777 98.8564 55.2929 101.095 56.7739 106.46C58.5138 112.763 59.3065 117.225 58.9526 118.726C58.4469 120.871 55.1793 107.99 53.2961 96.4266C52.8181 93.4922 52.1005 89.0847 51.7013 86.6321C50.8094 81.1519 49.9798 77.0363 48.8462 72.469C47.7116 67.8972 47.7436 67.1557 49.1537 65.3575C52.0602 61.6509 60.5893 58.7694 61.5113 61.1825C62.1432 62.8364 60.2807 63.9822 55.2158 65.0553C50.8261 65.9853 50.42 66.6503 52.8031 69.007C55.1856 71.3631 69.0045 73.4689 85.3545 73.9673C114.312 74.8502 132.67 75.0826 137.839 74.6319C139.107 74.5212 140.91 74.389 141.846 74.3379C143.547 74.2451 143.547 74.2451 143.47 73.8293C143.411 73.5143 143.547 73.2202 144.029 72.6171C144.378 72.1792 144.901 71.4983 145.189 71.1042C146.17 69.7634 147.818 69.2523 148.501 70.0768C149.356 71.1083 148.601 73.4958 147.188 74.2272C146.536 74.5649 146.723 74.6689 148.229 74.8049C148.944 74.8695 149.938 74.9656 150.439 75.0185C151.955 75.1786 153.11 74.6304 152.474 74.0533C151.071 72.7821 153.711 70.2179 157.798 68.8807C158.411 68.6805 158.98 68.4538 159.063 68.377C159.146 68.3003 159.327 68.2375 159.466 68.2375C159.987 68.2375 161.479 67.0794 163.138 65.3871C164.083 64.4241 165.143 63.4541 165.495 63.2317C165.847 63.0093 166.212 62.6829 166.306 62.5064C166.592 61.9712 166.035 62.1154 164.796 62.897C164.184 63.2835 163.325 63.8187 162.888 64.0864C161.98 64.642 159.959 65.9837 158.015 67.3215C157.284 67.8251 156.506 68.3584 156.288 68.5068C156.069 68.6551 155.76 68.8855 155.601 69.0189C155.25 69.3141 153.617 69.385 152.709 69.1445C150.351 68.5199 150.181 66.4464 152.194 62.8457C153.075 61.2692 155.504 58.0448 155.81 58.0448C155.886 58.0448 156.15 57.7455 156.396 57.3798C156.842 56.7178 157.125 56.5041 158.544 55.7545C159.564 55.2154 160.16 55.1568 160.322 55.5796C160.419 55.8308 159.703 57.407 158.898 58.7194C157.209 61.4703 157.061 61.7502 157.219 61.9083C157.445 62.1339 159.164 61.1007 159.419 60.5866C159.526 60.3711 159.812 59.7667 160.054 59.2435C161.694 55.7038 165.62 55.3552 168.035 58.5349C168.673 59.3753 168.851 59.4705 168.855 58.9738C168.866 57.4195 171.027 56.1443 173.663 56.1364C174.756 56.1331 174.828 55.9541 173.881 55.5922C172.588 55.0975 172.514 54.85 173.366 53.8739C174.549 52.5206 173.988 52.2576 171.742 53.1121C169.575 53.9366 167.468 54.383 166.028 54.3229C165.263 54.291 164.465 54.3294 164.255 54.4082C164.045 54.487 163.484 54.5847 163.009 54.6252C162.533 54.6657 162.086 54.7347 162.016 54.7784C161.945 54.8222 161.54 54.8105 161.115 54.7525C158.755 54.4298 158.974 52.3804 161.93 47.1354C162.325 46.4347 162.87 45.3955 163.141 44.8262C163.412 44.2568 164.514 41.9993 165.59 39.8094C166.666 37.6196 167.841 35.1829 168.202 34.3946C168.564 33.6062 169.037 32.6208 169.253 32.2047C169.47 31.7886 169.647 31.3761 169.647 31.2881C169.647 31.2002 169.83 30.7523 170.054 30.2928C171.5 27.3273 173.806 20.0068 173.525 19.2738C173.468 19.125 173.516 19.0259 173.645 19.0259C173.763 19.0259 174.218 18.787 174.656 18.495C175.094 18.203 175.647 17.8443 175.885 17.6978C176.241 17.4793 176.302 17.3505 176.229 16.9807C175.818 14.9266 179.606 16.2396 184.319 19.7851C191.252 25.0005 197.406 33.8136 202.549 45.8903C207.119 56.6232 208.319 74.8259 205.355 88.4636C203.278 98.0247 201.864 112.698 200.344 140.462C199.377 158.139 198.824 166.116 198.026 173.907C197.81 176.009 197.529 179.163 197.4 180.914C196.752 189.71 195.776 197.876 194.116 208.387C193.549 211.98 193.469 212.824 193.426 215.713C193.262 226.604 189.276 232.788 181.715 233.879C180.982 233.985 179.452 234.345 178.315 234.679C169.097 237.389 159.264 238.826 145.791 239.432C134.865 239.923 131.705 239.972 126.228 239.738ZM88.6936 223.266C86.7315 215.255 85.5838 211.451 84.2036 208.387C82.7262 205.107 82.3905 204.672 82.573 206.277C83.4118 213.651 85.4333 220.49 88.7236 227.085C90.4585 230.563 90.4578 230.469 88.6936 223.266ZM85.2542 228.573C85.8269 226.433 84.911 221.933 82.2444 213.782C80.7234 209.132 79.6025 205.089 79.3914 203.49C79.253 202.442 79.1092 202.353 78.5139 202.949C77.5589 203.906 77.8476 205.884 79.9983 213.123C80.5771 215.07 81.1325 217.292 81.2326 218.06C81.821 222.571 84.7861 230.322 85.2542 228.573ZM139.182 204.856C142.084 202.931 141.703 197.32 138.549 195.531C135.71 193.921 134.185 197.43 135.391 202.801C135.931 205.21 137.427 206.02 139.182 204.856ZM130.628 204.431C132.792 203.32 133.511 199.613 132.155 196.555C130.818 193.541 128.136 195.068 127.653 199.119C127.583 199.705 127.418 200.873 127.286 201.714C126.814 204.729 128.066 205.747 130.628 204.431ZM77.9687 198.888C78.3156 196.108 77.5961 192.09 75.2683 183.811C74.608 181.462 73.8466 178.416 73.5764 177.042C72.6928 172.55 71.3551 170.36 72.0012 174.464C72.3148 176.456 74.0853 185.548 74.4669 187.126C74.6788 188.001 75.0367 190.211 75.2623 192.036C75.824 196.579 76.3168 198.38 77.2857 199.428C77.766 199.948 77.8441 199.887 77.9687 198.888ZM114.777 183.521C126.892 180.741 130.799 165.57 121.236 158.437C115.071 153.837 111.209 153.503 101.577 156.735C99.6087 157.395 97.8368 158.037 97.6394 158.162C96.9375 158.604 95.8515 160.172 95.8514 160.744C95.8513 161.037 95.5703 161.975 95.2269 162.828C90.6765 174.13 102.262 186.393 114.777 183.521ZM99.4298 174.839C94.664 174.126 93.6368 170.063 97.2847 166.353C99.9346 163.658 103.02 163.425 105.285 165.748C109.768 170.345 106.219 175.854 99.4298 174.839ZM159.855 181.287C168.177 179.888 173.395 170.308 169.963 162.729C161.928 144.983 133.07 153.508 139.399 171.758C142.105 179.56 149.538 183.023 159.855 181.287ZM143.644 173.923C139.934 173.008 138.731 169.614 140.719 165.671C143.204 160.741 148.521 160.799 151.144 165.785C152.729 168.796 152.37 169.799 149.8 169.54C147.489 169.307 146.731 169.637 147.861 170.386C148.684 170.931 149.737 171.881 149.94 172.261C150.574 173.448 146.297 174.577 143.644 173.923ZM104.538 108.079C105.16 107.989 105.601 107.774 106.409 107.171C106.99 106.736 107.912 106.052 108.457 105.651C113.377 102.036 114.959 100.769 116.765 98.9995C117.378 98.3996 119.167 96.7833 120.742 95.4079C122.316 94.0324 123.898 92.6418 124.257 92.3177C124.616 91.9936 125.261 91.418 125.689 91.0385C127.032 89.848 129.41 87.6711 131.238 85.9587C133.384 83.9487 138.023 79.2505 137.991 79.1197C137.914 78.8071 136.546 78.5456 134.896 78.5282C133.184 78.5102 133.147 78.5021 133.16 78.1478C133.177 77.6673 133.197 77.6698 128.535 77.562C91.236 76.6996 66.2435 75.4117 52.7356 73.656C51.1623 73.4515 51.0012 73.4565 51.0012 73.7095C51.0012 74.1524 52.2889 75.3774 53.3068 75.9027C54.5876 76.5639 54.6069 76.8535 53.385 77.0764C52.075 77.3155 52.1145 77.1605 52.6288 80.0426C54.692 91.6043 57.7253 94.2215 64.1288 89.9652C67.8116 87.5174 91.4102 84.982 106.984 85.361C109.658 85.4261 111.501 85.3983 112.392 85.2795C113.135 85.1803 114.151 85.0617 114.65 85.0158C115.149 84.9699 115.64 84.831 115.743 84.7072C115.846 84.5834 116.202 84.4821 116.536 84.4821C116.869 84.4821 117.344 84.3992 117.59 84.2979C119.276 83.6045 132.113 83.3382 132.113 83.9966C132.113 84.1122 131.453 84.7427 129.92 86.0896C129.562 86.4044 127.708 87.8371 125.801 89.2733C122.908 91.4511 120.976 92.9545 120.105 93.7047C120.018 93.7801 119.061 94.7849 117.98 95.9376C113.531 100.678 108.886 103.941 104.894 105.128C104.336 105.294 104.109 105.457 103.982 105.785C103.767 106.338 103.073 107.574 102.855 107.792C102.494 108.154 102.671 108.411 103.207 108.302C103.491 108.245 104.09 108.144 104.538 108.079ZM112.153 106.619C112.213 106.522 113.419 106.46 115.239 106.46C118.765 106.46 121.616 106.307 121.616 106.117C121.616 106.043 121.514 105.982 121.389 105.982C120.712 105.982 120.5 105.19 120.928 104.254C121.458 103.093 121.953 102.535 127.371 96.984C129.508 94.7942 131.546 92.6442 131.899 92.2062C134.958 88.4173 137.425 84.8114 137.148 84.5339C137.029 84.4143 134.681 86.6144 134.322 87.1823C134.181 87.4052 133.501 88.1469 132.811 88.8305C131.458 90.1705 131.38 90.2579 128.843 93.2414C127.912 94.3363 126.948 95.4472 126.7 95.7099C126.452 95.9727 125.896 96.5819 125.464 97.0637C124.042 98.6487 121.432 101.18 120.264 102.105C117.642 104.184 113.592 106.233 112.312 106.128C111.88 106.092 110.96 106.314 110.96 106.453C110.96 106.789 111.962 106.929 112.153 106.619ZM148.633 105.993C148.836 105.687 149.007 105.664 151.019 105.661C153.972 105.658 155.553 105.043 154.456 104.323C154.232 104.176 154.06 103.91 154.059 103.709C154.054 102.475 153.143 101.456 152.64 102.12C151.174 104.052 150.901 104.337 150.162 104.708C145.366 107.116 142.518 101.58 144.916 94.5118C146.984 88.4159 147.149 87.8644 147.638 85.4376C147.875 84.2622 147.656 81.9511 147.302 81.8912C146.555 81.7648 143.104 92.7044 141.662 99.7711C141.041 102.814 141.028 102.846 140.191 103.377C137.248 105.243 136.068 104.381 136.998 101.045C137.289 100.001 138.221 97.4153 138.648 96.4682C138.815 96.0968 138.952 95.7525 138.952 95.7029C138.952 95.6534 139.099 95.2763 139.279 94.8651C141.372 90.0755 141.864 88.3301 141.179 88.1323C139.201 87.5617 136.484 89.0826 135.298 91.424C135.168 91.679 134.901 92.1529 134.704 92.4771C134.255 93.2151 133.474 94.6654 132.147 97.2229C130.338 100.708 129.94 101.373 128.721 102.936C127.429 104.592 126.084 105.403 123.922 105.828C122.377 106.133 122.402 106.211 124.081 106.32C128.443 106.603 148.405 106.337 148.633 105.993ZM130.714 105.178C130.033 104.905 129.684 103.48 130.064 102.526C130.814 100.64 131.821 99.0699 135.308 94.3562C136.053 93.3489 136.935 92.1126 137.266 91.609C139.035 88.9233 139.3 93.6701 137.602 97.6211C135.787 101.842 132.807 105.446 131.223 105.335C131.144 105.33 130.915 105.259 130.714 105.178ZM172.954 104.536C173.839 104.438 174.605 104.268 174.749 104.138C174.923 103.982 175.399 103.912 176.29 103.912C177 103.912 177.625 103.84 177.679 103.753C177.733 103.665 177.908 103.593 178.067 103.593C178.333 103.593 178.644 102.993 178.469 102.818C178.429 102.778 178.02 102.83 177.561 102.933C176.747 103.114 176.05 103.222 174.578 103.393C172.624 103.62 167.178 103.468 165.678 103.144C165.152 103.031 165.121 102.985 164.953 102.054C164.65 100.375 163.762 99.5858 162.623 99.9854C161.498 100.381 161.435 100.588 162.329 100.946C162.978 101.206 163.604 101.721 163.604 101.995C163.604 102.287 162.616 103.275 162.324 103.275C162.163 103.275 161.992 103.339 161.943 103.419C161.836 103.593 159.966 104.173 159.031 104.322C157.274 104.603 158.871 104.708 164.882 104.708C168.49 104.708 172.1 104.631 172.954 104.536ZM183.289 95.8759C184.146 95.73 185.074 94.907 185.074 94.2926C185.074 93.833 184.712 93.5901 184.396 93.8376C184.2 93.9916 182.98 94.3135 182.53 94.3303C182.398 94.3352 181.989 94.388 181.62 94.4476C179.181 94.842 172.395 92.6881 169.221 90.512C168.855 90.2613 168.515 90.0562 168.464 90.0562C168.316 90.0562 166.745 88.9386 166.268 88.4934C164.622 86.9591 167.698 86.8108 171.715 88.2307C174.254 89.1284 174.588 89.2581 175.271 89.6108C176.323 90.155 176.445 90.208 177.567 90.6054C180.151 91.5206 180.366 91.3019 178.315 89.8431C175.261 87.6705 172.012 86.3245 170.793 86.7272C169.472 87.1637 166.455 86.3756 163.604 84.8494C158.497 82.1159 156.566 81.6202 158.308 83.4903C160.641 85.9962 163.668 88.7922 165.576 90.2048C166.763 91.083 168.381 92.1903 168.693 92.337C168.824 92.3987 169.254 92.6366 169.647 92.8656C170.565 93.3995 173.602 94.766 174.379 94.9944C175.897 95.4409 176.655 95.6203 177.453 95.7217C177.927 95.7819 178.403 95.8774 178.51 95.9339C178.766 96.0688 182.416 96.0244 183.289 95.8759ZM164.558 72.43C164.951 72.3965 165.596 72.3365 165.989 72.2967C166.754 72.2192 169.116 71.741 170.681 71.3465C171.206 71.2142 173.46 70.8561 175.691 70.5507C183.937 69.4217 186.377 68.5011 188.427 65.7456C189.324 64.5388 189.328 64.3841 188.499 62.7763C186.842 59.5588 188.582 58.5676 192.47 60.5147C193.833 61.1972 193.822 61.1971 193.822 60.5227C193.822 59.9108 193.701 59.7956 192.88 59.6269C188.411 58.7089 186.346 55.3254 188.693 52.7652C189.114 52.3052 189.08 51.7995 188.479 49.6438C188.215 48.6945 188.062 48.64 187.292 49.2215C186.991 49.4492 186.434 49.7716 186.056 49.938C185.367 50.2406 185.367 50.2406 186.071 50.946C188.317 53.1947 185.477 55.9781 180.621 56.2879C177.44 56.4909 177.165 56.5891 178.604 57.008C181.036 57.7159 181.399 59.2312 179.374 60.2171C177.488 61.1353 177.572 61.2055 179.917 60.6699C183.678 59.811 186.57 59.9362 186.935 60.9739C187.938 63.8324 185.984 66.7608 182.053 68.2912C181.112 68.6573 180.549 68.8286 178.633 69.3321C177.664 69.5867 174.868 70.0148 174.776 69.9227C174.731 69.8779 174.576 69.9051 174.43 69.9831C174.285 70.061 173.596 70.172 172.9 70.2296C168.828 70.5669 166.68 70.851 162.136 71.6531C159.621 72.0972 159.309 72.1785 159.309 72.3899C159.309 72.5443 162.431 72.6831 163.285 72.5666C163.592 72.5249 164.164 72.4634 164.558 72.43ZM178.131 49.7945C178.757 49.3744 180.093 48.4852 181.1 47.8184C184.279 45.7123 186.444 43.443 186.895 41.7425C187.015 41.2925 187.159 40.8076 187.216 40.665C187.391 40.2284 186.806 38.6497 186.597 38.9948C185.636 40.5811 184.913 41.4889 183.488 42.8986C181.123 45.2384 180.261 46.049 179.974 46.2041C179.5 46.4597 176.937 49.3659 176.712 49.9021C176.268 50.9592 176.411 50.9483 178.131 49.7945ZM64.6789 61.5714C64.6789 61.4088 64.9186 60.9609 65.2116 60.5761C65.9471 59.6098 66.2693 58.9411 66.2693 58.3806C66.2693 57.7581 66.0573 57.8381 69.8663 57.023C78.3886 55.1995 82.0388 54.7308 88.563 54.6223C122.976 54.0501 133.077 53.7339 144.014 52.8865C146.798 52.6708 146.793 52.6694 147.557 53.8762C149.209 56.4846 144.531 58.199 137.282 57.6425C136.582 57.5887 133.254 57.524 129.886 57.4987C123.763 57.4526 123.763 57.4526 120.438 56.7821C115.584 55.8033 114.163 55.8601 112.766 57.0887C112.11 57.6649 112.32 57.6629 110.749 57.1084C106.777 55.7065 101.864 55.6207 93.9428 56.8147C91.2748 57.2169 88.1616 57.625 87.0244 57.7215C81.1162 58.2232 75.5754 59.2485 68.4675 61.1554C65.5125 61.9482 64.6789 62.0397 64.6789 61.5714Z" fill="#F3D71D"/>
<path d="M126.228 239.738C107.698 238.944 94.8152 236.476 84.5333 231.752C83.0325 231.062 83.2577 231.524 81.639 225.819C78.8199 215.882 76.6772 206.88 74.3817 195.327C73.2181 189.471 72.6732 187.023 69.9859 175.579C65.1639 155.044 63.3325 145.602 62.2787 135.844C62.0118 133.372 62.4923 129.993 63.2472 129.032C63.694 128.463 63.7031 127.011 63.2605 126.895C63.0023 126.827 62.9383 126.609 62.8439 125.474C62.7655 124.531 62.6434 124.019 62.4333 123.752C62.2305 123.494 62.1342 123.113 62.1342 122.569C62.1342 122.129 62.0626 121.723 61.9752 121.669C61.8796 121.61 61.8161 120.529 61.8161 118.962C61.8161 117.394 61.7526 116.314 61.6571 116.254C61.5696 116.2 61.498 116.299 61.498 116.475C61.498 118.438 60.0892 114.862 59.2679 110.815C57.1603 100.428 53.7013 90.1072 54.497 96.5794C54.777 98.8564 55.2929 101.095 56.7739 106.46C58.5138 112.763 59.3065 117.225 58.9526 118.726C58.4469 120.871 55.1793 107.989 53.2961 96.4265C52.8181 93.4922 52.1005 89.0846 51.7013 86.632C50.8094 81.1518 49.9798 77.0362 48.8462 72.4689C47.7116 67.8972 47.7436 67.1556 49.1537 65.3574C52.0602 61.6509 60.5893 58.7693 61.5113 61.1824C62.1432 62.8363 60.2807 63.9821 55.2158 65.0552C50.8261 65.9852 50.42 66.6502 52.8031 69.0069C55.1856 71.363 69.0045 73.4688 85.3545 73.9673C114.312 74.8501 132.67 75.0825 137.839 74.6318C139.107 74.5212 140.91 74.3889 141.846 74.3378C143.547 74.245 143.547 74.245 143.47 73.8292C143.411 73.5143 143.547 73.2202 144.029 72.6171C144.378 72.1791 144.901 71.4983 145.189 71.1041C146.231 69.6798 147.901 69.2344 148.576 70.2004C149.024 70.8399 148.817 71.0227 148.324 70.4237C147.541 69.4729 146.355 69.8539 145.234 71.4162C144.972 71.7819 144.524 72.3697 144.24 72.7225C143.133 74.0961 144.138 75.0691 146.084 74.5077C147.46 74.111 148.654 72.7018 148.654 71.4755C148.654 71.1842 148.706 71.0933 148.813 71.2003C149.266 71.654 148.153 73.7276 147.188 74.2271C146.536 74.5649 146.723 74.6688 148.229 74.8049C148.944 74.8694 149.938 74.9656 150.439 75.0185C151.955 75.1786 153.11 74.6303 152.474 74.0532C151.071 72.782 153.711 70.2178 157.798 68.8807C158.411 68.6804 158.98 68.4537 159.063 68.377C159.146 68.3002 159.327 68.2374 159.466 68.2374C159.987 68.2374 161.479 67.08 163.133 65.3924C164.822 63.6695 165.6 63.0168 165.766 63.183C165.813 63.2299 165.578 63.4698 165.244 63.7163C162.776 65.5391 162.673 66.2406 165.056 65.0005C168.519 63.1985 169.964 62.8281 168.842 64.0298C167.401 65.5728 162.643 67.8487 162.066 67.2706C161.945 67.1495 161.643 67.2616 161.025 67.6579C160.546 67.9646 159.445 68.4644 158.579 68.7685C155.606 69.8119 154.832 70.2471 153.11 71.8434C147.601 76.9504 177.19 74.8249 193.446 68.9459C196.173 67.9597 196.693 67.3713 196.475 65.5232C196.099 62.3464 189.892 58.3866 188.182 60.2329C187.775 60.6728 187.608 60.5511 187.977 60.0835C188.612 59.2786 190.331 59.4435 192.47 60.5146C193.834 61.1975 193.822 61.1975 193.822 60.5189C193.822 59.9261 193.515 59.6472 192.838 59.6255C192.481 59.6141 191.061 59.0359 191.332 59.0121C191.406 59.0056 191.863 59.1156 192.347 59.2564C195.785 60.2574 197.062 58.5293 195.411 55.1102C195.239 54.7533 194.744 53.0638 194.312 51.3558C192.044 42.3939 187.44 32.7228 185.442 32.7224C184.969 32.7222 184.979 32.7452 184.19 29.6961C182.838 24.4634 181.84 22.5377 179.911 21.4387C175.719 19.0505 174.693 14.7098 178.713 16.3684C187.338 19.9281 196.131 30.8181 202.549 45.8902C207.119 56.6231 208.319 74.8259 205.355 88.4635C203.278 98.0246 201.864 112.698 200.344 140.462C199.377 158.139 198.824 166.116 198.026 173.907C197.81 176.009 197.529 179.162 197.4 180.914C196.752 189.71 195.776 197.876 194.116 208.387C193.549 211.98 193.469 212.824 193.426 215.713C193.262 226.604 189.276 232.788 181.715 233.879C180.982 233.984 179.452 234.345 178.315 234.679C169.097 237.389 159.264 238.826 145.791 239.432C134.865 239.923 131.705 239.972 126.228 239.738ZM88.6936 223.266C86.7315 215.254 85.5838 211.451 84.2036 208.387C82.7262 205.107 82.3905 204.672 82.573 206.277C83.4118 213.651 85.4333 220.49 88.7236 227.085C90.4585 230.563 90.4578 230.469 88.6936 223.266ZM85.2542 228.573C85.8269 226.433 84.911 221.933 82.2444 213.782C80.7234 209.132 79.6025 205.089 79.3914 203.49C79.253 202.442 79.1092 202.353 78.5139 202.949C77.5589 203.905 77.8476 205.884 79.9983 213.123C80.5771 215.07 81.1325 217.292 81.2326 218.06C81.821 222.571 84.7861 230.322 85.2542 228.573ZM139.182 204.855C142.084 202.931 141.703 197.32 138.549 195.531C135.71 193.921 134.185 197.43 135.391 202.801C135.931 205.209 137.427 206.02 139.182 204.855ZM130.628 204.431C132.792 203.32 133.511 199.613 132.155 196.555C130.818 193.541 128.136 195.068 127.653 199.119C127.583 199.705 127.418 200.873 127.286 201.714C126.814 204.729 128.066 205.747 130.628 204.431ZM77.9687 198.888C78.3156 196.108 77.5961 192.09 75.2683 183.811C74.608 181.462 73.8466 178.416 73.5764 177.042C72.6928 172.549 71.3551 170.36 72.0012 174.464C72.3148 176.456 74.0853 185.547 74.4669 187.125C74.6788 188.001 75.0367 190.211 75.2623 192.035C75.824 196.579 76.3168 198.38 77.2857 199.428C77.766 199.948 77.8441 199.886 77.9687 198.888ZM114.777 183.521C126.892 180.741 130.799 165.57 121.236 158.437C115.071 153.837 111.209 153.502 101.577 156.735C99.6087 157.395 97.8368 158.037 97.6394 158.162C96.9375 158.604 95.8515 160.172 95.8514 160.744C95.8513 161.037 95.5703 161.975 95.2269 162.828C90.6765 174.13 102.262 186.393 114.777 183.521ZM99.4298 174.839C94.664 174.126 93.6368 170.063 97.2847 166.353C99.9346 163.658 103.02 163.424 105.285 165.748C109.768 170.345 106.219 175.854 99.4298 174.839ZM159.855 181.287C168.177 179.888 173.395 170.307 169.963 162.729C161.928 144.983 133.07 153.508 139.399 171.758C142.105 179.56 149.538 183.023 159.855 181.287ZM143.644 173.923C139.934 173.008 138.731 169.613 140.719 165.671C143.204 160.741 148.521 160.799 151.144 165.785C152.729 168.796 152.37 169.799 149.8 169.54C147.489 169.307 146.731 169.637 147.861 170.386C148.684 170.931 149.737 171.881 149.94 172.261C150.574 173.448 146.297 174.577 143.644 173.923ZM104.54 108.079C105.167 107.988 105.6 107.777 106.405 107.17C106.982 106.736 107.867 106.079 108.372 105.71C111.149 103.684 113.537 101.864 114.38 101.133C115.473 100.185 115.732 100.01 115.732 100.22C115.732 100.302 115.32 100.704 114.817 101.114C114.314 101.523 113.778 101.96 113.626 102.085C113.203 102.434 110.223 104.656 108.513 105.899C106.68 107.231 106.659 107.305 108.137 107.199C110.229 107.051 110.665 106.943 110.557 106.602C110.448 106.258 111.099 105.922 111.666 106.031C111.923 106.08 111.881 106.12 111.471 106.218C111.183 106.287 110.974 106.423 111.006 106.521C111.085 106.763 111.912 106.845 112.125 106.632C112.235 106.521 113.353 106.46 115.262 106.46C118.767 106.46 121.616 106.306 121.616 106.117C121.616 106.043 121.514 105.982 121.389 105.982C121.134 105.982 120.662 105.561 120.662 105.334C120.662 105.252 120.805 105.329 120.98 105.504C121.206 105.731 121.51 105.823 122.031 105.823C122.592 105.823 122.744 105.875 122.679 106.045C122.446 106.653 148.222 106.595 148.633 105.987C148.834 105.689 149.021 105.663 151.019 105.661C153.972 105.658 155.553 105.043 154.456 104.323C154.232 104.176 154.06 103.91 154.059 103.709C154.059 103.514 153.883 102.978 153.669 102.518C153.455 102.058 153.344 101.682 153.423 101.682C153.627 101.682 153.748 101.919 154.144 103.097C154.487 104.115 154.517 104.15 155.193 104.324C155.871 104.498 155.877 104.505 155.413 104.582C155.15 104.625 155.58 104.662 156.367 104.663C157.372 104.665 157.633 104.631 157.242 104.549C156.936 104.484 156.734 104.422 156.793 104.411C156.852 104.399 157.458 104.312 158.138 104.217C160.287 103.918 161.824 103.35 161.884 102.833C161.929 102.441 161.996 102.399 162.567 102.399C163.677 102.399 163.402 101.33 162.236 101.111C161.656 101.002 161.291 100.677 161.453 100.414C161.61 100.159 162.488 99.7425 162.7 99.8224C162.807 99.8627 162.751 99.9404 162.57 100.003C161.571 100.347 161.501 100.614 162.322 100.943C162.977 101.206 163.604 101.72 163.604 101.995C163.604 102.287 162.616 103.275 162.324 103.275C162.163 103.275 161.992 103.339 161.943 103.418C161.836 103.593 159.966 104.173 159.031 104.322C157.274 104.603 158.871 104.708 164.882 104.708C171.527 104.708 174.294 104.548 174.749 104.138C174.923 103.982 175.399 103.912 176.29 103.912C177 103.912 177.625 103.84 177.679 103.753C177.733 103.665 177.908 103.593 178.067 103.593C178.333 103.593 178.644 102.993 178.469 102.818C178.429 102.778 178.02 102.825 177.561 102.921C175.887 103.272 175.691 103.298 175.691 103.163C175.691 103.087 176.202 102.931 176.826 102.815C182.378 101.787 186.636 98.6746 188.421 94.3408C188.668 93.7392 189.388 92.2961 190.02 91.134C193.883 84.0269 196.14 77.8855 195.563 76.0461C195.494 75.8244 195.394 75.3867 195.343 75.0735C195.164 73.9901 195.076 73.9544 193.186 74.2062C184.735 75.332 168.314 77.0152 158.276 77.7844C151.226 78.3247 141.636 78.9042 139.703 78.9068C138.942 78.9078 138.942 78.9078 136.13 81.6079C132.611 84.9866 132.315 85.001 135.677 81.6299C137.06 80.2427 138.13 79.0717 138.055 79.0276C137.542 78.7271 135.635 78.4281 134.474 78.4662C133.184 78.5085 133.147 78.4997 133.16 78.1477C133.177 77.6672 133.197 77.6698 128.535 77.562C91.236 76.6995 66.2435 75.4116 52.7356 73.6559C51.1623 73.4514 51.0012 73.4564 51.0012 73.7095C51.0012 74.1523 52.2889 75.3773 53.3068 75.9027C54.5876 76.5638 54.6069 76.8534 53.385 77.0764C52.075 77.3154 52.1145 77.1604 52.6288 80.0425C54.692 91.6042 57.7253 94.2214 64.1288 89.9652C67.8116 87.5173 91.4102 84.982 106.984 85.361C109.658 85.426 111.501 85.3982 112.392 85.2794C113.135 85.1803 114.151 85.0616 114.65 85.0157C115.149 84.9698 115.64 84.831 115.743 84.7071C115.846 84.5833 116.202 84.482 116.536 84.482C116.869 84.482 117.344 84.3991 117.59 84.2978C119.276 83.6044 132.113 83.3381 132.113 83.9966C132.113 84.1121 131.453 84.7426 129.92 86.0896C129.562 86.4044 127.708 87.837 125.801 89.2732C122.908 91.451 120.976 92.9544 120.105 93.7046C120.018 93.78 119.061 94.7848 117.98 95.9375C113.531 100.678 108.886 103.941 104.894 105.128C104.336 105.294 104.109 105.457 103.982 105.785C103.767 106.338 103.073 107.574 102.855 107.791C102.494 108.154 102.671 108.411 103.207 108.302C103.491 108.245 104.091 108.144 104.54 108.079ZM64.6789 61.5714C64.6789 61.4088 64.9186 60.9608 65.2116 60.576C65.9471 59.6098 66.2693 58.941 66.2693 58.3806C66.2693 57.758 66.0573 57.838 69.8663 57.023C78.3886 55.1994 82.0388 54.7307 88.563 54.6223C122.976 54.05 133.077 53.7338 144.014 52.8864C146.798 52.6708 146.793 52.6693 147.557 53.8762C149.209 56.4845 144.531 58.199 137.282 57.6424C136.582 57.5887 133.254 57.524 129.886 57.4986C123.763 57.4525 123.763 57.4525 120.438 56.782C115.584 55.8032 114.163 55.86 112.766 57.0886C112.11 57.6649 112.32 57.6628 110.749 57.1083C106.777 55.7065 101.864 55.6206 93.9428 56.8147C91.2748 57.2169 88.1616 57.6249 87.0244 57.7215C81.1162 58.2231 75.5754 59.2484 68.4675 61.1553C65.5125 61.9481 64.6789 62.0396 64.6789 61.5714Z" fill="#D5AD2D"/>
<path d="M126.228 239.738C107.698 238.944 94.8148 236.476 84.5329 231.752C83.0321 231.062 83.2573 231.524 81.6387 225.819C78.8196 215.882 76.6768 206.88 74.3814 195.327C73.2177 189.471 72.6728 187.023 69.9855 175.579C65.1635 155.044 63.3321 145.602 62.2784 135.844C62.0115 133.372 62.4919 129.993 63.2468 129.032C63.6937 128.463 63.7027 127.011 63.2602 126.895C63.002 126.827 62.9379 126.609 62.8435 125.474C62.7651 124.531 62.643 124.019 62.4329 123.752C62.2302 123.494 62.1338 123.113 62.1338 122.569C62.1338 122.129 62.0623 121.724 61.9748 121.669C61.8792 121.61 61.8158 120.529 61.8158 118.962C61.8158 117.394 61.7523 116.314 61.6567 116.255C61.5692 116.2 61.4977 116.299 61.4977 116.475C61.4977 118.438 60.0888 114.862 59.2676 110.815C57.16 100.428 53.7009 90.1072 54.4967 96.5794C54.7766 98.8564 55.2925 101.095 56.7736 106.46C58.5135 112.763 59.3061 117.225 58.9522 118.726C58.4466 120.871 55.179 107.989 53.2957 96.4266C52.8178 93.4922 52.1001 89.0846 51.701 86.632C50.8091 81.1518 49.9794 77.0363 48.8459 72.4689C47.7112 67.8972 47.7433 67.1556 49.1533 65.3574C52.0598 61.6509 60.5889 58.7693 61.5109 61.1824C62.1429 62.8364 60.2804 63.9821 55.2155 65.0552C50.8257 65.9853 50.4197 66.6502 52.8027 69.0069C55.1852 71.363 69.0041 73.4688 85.3541 73.9673C114.287 74.8493 132.66 75.0823 137.838 74.6327C142.953 74.1887 143.261 74.1917 144.116 74.6935C144.879 75.1409 144.879 75.1409 145.851 74.8989C146.825 74.6568 147.058 74.6629 150.45 75.0192C151.189 75.0967 151.544 75.0465 152.231 74.7672C152.993 74.4575 153.158 74.441 153.694 74.6198C154.809 74.9908 165.429 74.8838 169.17 74.4638C179.572 73.2957 191.886 70.4515 195.981 68.271C196.463 68.0143 199.63 67.2456 201.694 66.8842C203.676 66.5373 204.957 66.2314 205.909 65.8778C206.783 65.5528 206.783 65.5528 206.886 66.9349C207.343 73.0795 206.66 82.9952 205.431 88.0654C205.108 89.3951 204.729 91.517 204.163 95.1525C203.979 96.335 203.751 97.459 203.655 97.6504C203.559 97.8417 203.524 98.1641 203.577 98.3667C203.63 98.5694 203.497 100.169 203.282 101.921C202.15 111.139 201.437 120.489 200.344 140.462C199.376 158.139 198.823 166.116 198.025 173.907C197.81 176.009 197.528 179.162 197.399 180.914C196.752 189.71 195.775 197.876 194.116 208.387C193.548 211.98 193.469 212.824 193.425 215.713C193.262 226.604 189.275 232.788 181.715 233.879C180.982 233.985 179.452 234.345 178.315 234.679C169.097 237.389 159.264 238.826 145.79 239.432C134.864 239.923 131.704 239.972 126.228 239.738ZM88.6932 223.266C86.7311 215.254 85.5834 211.451 84.2032 208.387C82.7258 205.107 82.3901 204.672 82.5726 206.277C83.4114 213.651 85.4329 220.49 88.7232 227.085C90.4581 230.563 90.4574 230.469 88.6932 223.266ZM85.2539 228.573C85.8265 226.433 84.9107 221.933 82.244 213.782C80.723 209.132 79.6021 205.089 79.391 203.49C79.2527 202.442 79.1089 202.353 78.5135 202.949C77.5585 203.905 77.8473 205.884 79.998 213.123C80.5767 215.07 81.1321 217.292 81.2322 218.06C81.8207 222.571 84.7857 230.322 85.2539 228.573ZM139.182 204.855C142.084 202.931 141.703 197.32 138.549 195.531C135.71 193.921 134.185 197.43 135.39 202.801C135.931 205.21 137.426 206.02 139.182 204.855ZM130.627 204.431C132.791 203.32 133.51 199.613 132.154 196.555C130.817 193.541 128.136 195.068 127.653 199.119C127.583 199.705 127.418 200.873 127.286 201.714C126.813 204.729 128.065 205.747 130.627 204.431ZM77.9683 198.888C78.3152 196.108 77.5957 192.09 75.2679 183.811C74.6076 181.462 73.8462 178.416 73.576 177.042C72.6925 172.549 71.3547 170.36 72.0008 174.464C72.3144 176.456 74.0849 185.547 74.4666 187.126C74.6784 188.001 75.0363 190.211 75.2619 192.036C75.8236 196.579 76.3164 198.38 77.2854 199.428C77.7657 199.948 77.8438 199.886 77.9683 198.888ZM125.793 193.735C127.413 192.86 129.066 192.461 131.065 192.462C132.602 192.463 133.761 192.621 138.156 193.434C143.52 194.425 146.673 193.679 146.301 191.506C145.457 186.583 142.958 185.503 135.281 186.743C130.804 187.467 127.561 187.501 125.739 186.844C124.3 186.324 124.387 186.328 123.319 186.729C119.456 188.176 119.626 192.788 123.588 194.046C124.122 194.215 124.571 194.358 124.586 194.363C124.601 194.368 125.144 194.085 125.793 193.735ZM114.777 183.521C126.892 180.741 130.798 165.57 121.236 158.437C115.07 153.837 111.209 153.502 101.576 156.735C99.6083 157.395 97.8365 158.037 97.639 158.162C96.9371 158.604 95.8511 160.172 95.851 160.744C95.851 161.037 95.57 161.975 95.2266 162.828C90.6761 174.13 102.262 186.393 114.777 183.521ZM99.4294 174.839C94.6636 174.126 93.6365 170.063 97.2843 166.353C99.9342 163.658 103.02 163.424 105.285 165.748C109.767 170.345 106.219 175.854 99.4294 174.839ZM159.855 181.287C168.177 179.888 173.395 170.307 169.963 162.729C161.928 144.983 133.07 153.508 139.399 171.758C142.105 179.56 149.538 183.023 159.855 181.287ZM143.643 173.923C139.934 173.008 138.731 169.613 140.718 165.671C143.203 160.741 148.521 160.799 151.144 165.785C152.728 168.796 152.369 169.799 149.8 169.54C147.489 169.307 146.731 169.637 147.86 170.386C148.684 170.931 149.736 171.881 149.939 172.261C150.574 173.448 146.297 174.577 143.643 173.923ZM103.635 108.217C103.793 108.132 104.369 108.045 104.914 108.023C105.713 107.992 105.927 107.927 106.015 107.689C106.111 107.43 106.343 107.387 107.866 107.34C110.156 107.271 111.064 107.143 111.835 106.781C112.523 106.459 119.143 106.199 123.524 106.324C131.315 106.545 148.415 106.321 148.631 105.995C148.836 105.687 149 105.664 151.018 105.661C153.286 105.659 154.211 105.477 154.588 104.96C154.781 104.696 155.324 104.679 163.055 104.698C171.475 104.719 174.252 104.586 174.749 104.138C174.922 103.982 175.399 103.912 176.29 103.912C177 103.912 177.624 103.84 177.678 103.753C177.741 103.651 180.09 103.593 184.203 103.593C190.398 103.593 190.635 103.582 190.794 103.285C190.937 103.018 191.191 102.964 192.669 102.89C196.184 102.714 197.078 102.616 197.348 102.373C197.554 102.187 197.96 102.143 199.168 102.179C200.723 102.224 200.723 102.224 200.916 101.515C201.021 101.125 201.252 100.412 201.427 99.9303C201.682 99.231 201.768 98.4602 201.857 96.108C201.977 92.8896 202.089 91.8632 202.516 90.0561C202.859 88.6069 202.867 78.9423 202.53 75.1653C202.319 72.8081 197.975 71.9227 194.76 73.5815C194.229 73.8553 181.352 75.3838 171.396 76.3549C161.33 77.3367 148.631 78.2693 141.814 78.5275C140.001 78.5962 138.884 78.7072 138.609 78.8461C138.248 79.0284 138.064 79.0201 137.337 78.7888C136.766 78.6073 135.937 78.5169 134.816 78.514C133.183 78.5098 133.147 78.5018 133.16 78.1477C133.177 77.6673 133.197 77.6698 128.534 77.562C91.2357 76.6996 66.2431 75.4117 52.7352 73.6559C51.162 73.4514 51.0008 73.4564 51.0008 73.7095C51.0008 74.1523 52.2886 75.3773 53.3064 75.9027C54.5872 76.5638 54.6065 76.8535 53.3846 77.0764C52.0746 77.3154 52.1141 77.1605 52.6285 80.0425C54.6917 91.6042 57.7249 94.2214 64.1284 89.9652C67.8112 87.5173 91.4099 84.982 106.984 85.361C109.657 85.426 111.5 85.3982 112.391 85.2794C113.135 85.1803 114.151 85.0616 114.65 85.0157C115.148 84.9699 115.64 84.831 115.743 84.7072C115.845 84.5833 116.202 84.482 116.536 84.482C116.869 84.482 117.343 84.3991 117.59 84.2978C119.276 83.6044 132.113 83.3381 132.113 83.9966C132.113 84.1121 131.452 84.7426 129.92 86.0896C129.562 86.4044 127.708 87.837 125.8 89.2732C122.907 91.451 120.975 92.9545 120.105 93.7046C120.018 93.78 119.061 94.7848 117.979 95.9375C113.531 100.678 108.886 103.941 104.894 105.128C104.335 105.294 104.109 105.457 103.981 105.785C103.766 106.338 103.073 107.574 102.855 107.791C102.393 108.254 102.974 108.571 103.635 108.217ZM64.6785 61.5714C64.6785 61.4088 64.9182 60.9609 65.2112 60.576C65.9468 59.6098 66.269 58.9411 66.269 58.3806C66.269 57.758 66.057 57.838 69.866 57.023C78.3882 55.1995 82.0385 54.7308 88.5626 54.6223C122.976 54.0501 133.076 53.7339 144.014 52.8864C146.797 52.6708 146.792 52.6693 147.556 53.8762C149.208 56.4845 144.531 58.199 137.282 57.6424C136.582 57.5887 133.254 57.524 129.886 57.4986C123.763 57.4525 123.763 57.4525 120.438 56.782C115.584 55.8032 114.163 55.86 112.765 57.0886C112.11 57.6649 112.319 57.6628 110.748 57.1083C106.777 55.7065 101.863 55.6206 93.9424 56.8147C91.2745 57.2169 88.1612 57.6249 87.0241 57.7215C81.1158 58.2231 75.575 59.2484 68.4671 61.1553C65.5121 61.9481 64.6785 62.0397 64.6785 61.5714Z" fill="#28A8DD"/>
<path d="M126.228 239.738C107.698 238.944 94.8148 236.476 84.5329 231.752C83.0321 231.062 83.2573 231.524 81.6387 225.819C78.8196 215.882 76.6768 206.88 74.3814 195.327C73.2177 189.471 72.6728 187.023 69.9855 175.579C65.1635 155.044 63.3321 145.602 62.2784 135.844C61.9834 133.112 62.5317 129.767 63.4201 128.877C64.0002 128.296 64.0766 127.197 63.5698 126.725C63.3379 126.508 63.218 126.089 63.1093 125.117C63.025 124.362 62.8604 123.687 62.7228 123.532C62.4178 123.188 62.2992 122.18 62.1634 118.776C62.1034 117.272 61.9968 115.984 61.9264 115.913C61.773 115.761 61.5035 116.146 61.5001 116.524C61.4831 118.405 60.0793 114.815 59.2676 110.815C57.16 100.428 53.7009 90.1072 54.4967 96.5794C54.7766 98.8564 55.2925 101.095 56.7736 106.46C58.5135 112.763 59.3061 117.225 58.9522 118.726C58.4466 120.871 55.179 107.989 53.2957 96.4266C52.8178 93.4922 52.1001 89.0846 51.701 86.632C50.8091 81.1518 49.9794 77.0363 48.8459 72.4689C47.7112 67.8972 47.7433 67.1556 49.1533 65.3574C52.0598 61.6509 60.5889 58.7693 61.5109 61.1824C62.1429 62.8364 60.2804 63.9821 55.2155 65.0552C50.8257 65.9853 50.4197 66.6502 52.8027 69.0069C55.1852 71.363 69.0041 73.4688 85.3541 73.9673C114.287 74.8493 132.66 75.0823 137.838 74.6327C142.953 74.1887 143.261 74.1917 144.116 74.6935C144.879 75.1409 144.879 75.1409 145.851 74.8989C146.825 74.6568 147.058 74.6629 150.45 75.0192C151.189 75.0967 151.544 75.0465 152.231 74.7672C152.993 74.4575 153.158 74.441 153.694 74.6198C154.809 74.9908 165.429 74.8838 169.17 74.4638C179.572 73.2957 191.886 70.4515 195.981 68.271C196.463 68.0143 199.63 67.2456 201.694 66.8842C203.676 66.5373 204.957 66.2314 205.909 65.8778C206.783 65.5528 206.783 65.5528 206.886 66.9349C207.343 73.0795 206.66 82.9952 205.431 88.0654C205.108 89.3951 204.729 91.517 204.163 95.1525C203.979 96.335 203.751 97.459 203.655 97.6504C203.559 97.8417 203.524 98.1641 203.577 98.3667C203.63 98.5694 203.497 100.169 203.282 101.921C202.15 111.139 201.437 120.489 200.344 140.462C199.376 158.139 198.823 166.116 198.025 173.907C197.81 176.009 197.528 179.162 197.399 180.914C196.752 189.71 195.775 197.876 194.116 208.387C193.548 211.98 193.469 212.824 193.425 215.713C193.262 226.604 189.275 232.788 181.715 233.879C180.982 233.985 179.452 234.345 178.315 234.679C169.097 237.389 159.264 238.826 145.79 239.432C134.864 239.923 131.704 239.972 126.228 239.738ZM88.6932 223.266C86.7311 215.254 85.5834 211.451 84.2032 208.387C82.7258 205.107 82.3901 204.672 82.5726 206.277C83.4114 213.651 85.4329 220.49 88.7232 227.085C90.4581 230.563 90.4574 230.469 88.6932 223.266ZM85.2539 228.573C85.8265 226.433 84.9107 221.933 82.244 213.782C80.723 209.132 79.6021 205.089 79.391 203.49C79.2527 202.442 79.1089 202.353 78.5135 202.949C77.5585 203.905 77.8473 205.884 79.998 213.123C80.5767 215.07 81.1321 217.292 81.2322 218.06C81.8207 222.571 84.7857 230.322 85.2539 228.573ZM139.182 204.855C142.084 202.931 141.703 197.32 138.549 195.531C135.71 193.921 134.185 197.43 135.39 202.801C135.931 205.21 137.426 206.02 139.182 204.855ZM130.627 204.431C132.791 203.32 133.51 199.613 132.154 196.555C130.817 193.541 128.136 195.068 127.653 199.119C127.583 199.705 127.418 200.873 127.286 201.714C126.813 204.729 128.065 205.747 130.627 204.431ZM77.9683 198.888C78.3152 196.108 77.5957 192.09 75.2679 183.811C74.6076 181.462 73.8462 178.416 73.576 177.042C72.6925 172.549 71.3547 170.36 72.0008 174.464C72.3144 176.456 74.0849 185.547 74.4666 187.126C74.6784 188.001 75.0363 190.211 75.2619 192.036C75.8236 196.579 76.3164 198.38 77.2854 199.428C77.7657 199.948 77.8438 199.886 77.9683 198.888ZM125.793 193.735C127.413 192.86 129.066 192.461 131.065 192.462C132.602 192.463 133.761 192.621 138.156 193.434C143.52 194.425 146.673 193.679 146.301 191.506C145.457 186.583 142.958 185.503 135.281 186.743C130.804 187.467 127.561 187.501 125.739 186.844C124.3 186.324 124.387 186.328 123.319 186.729C119.456 188.176 119.626 192.788 123.588 194.046C124.122 194.215 124.571 194.358 124.586 194.363C124.601 194.368 125.144 194.085 125.793 193.735ZM114.777 183.521C126.892 180.741 130.798 165.57 121.236 158.437C114.914 153.72 110.884 153.453 100.588 157.066C98.4283 157.824 97.401 158.116 97.2878 158.002C97.1745 157.889 97.1233 157.923 97.1233 158.113C97.1233 158.265 97.022 158.428 96.8981 158.475C96.4283 158.656 95.8943 159.715 95.8629 160.528C95.8439 161.023 95.5995 161.902 95.2172 162.851C90.676 174.13 102.277 186.389 114.777 183.521ZM99.4294 174.839C94.6636 174.126 93.6365 170.063 97.2843 166.353C99.9342 163.658 103.02 163.424 105.285 165.748C109.767 170.345 106.219 175.854 99.4294 174.839ZM159.855 181.287C168.177 179.888 173.395 170.307 169.963 162.729C161.928 144.983 133.07 153.508 139.399 171.758C142.105 179.56 149.538 183.023 159.855 181.287ZM143.643 173.923C139.934 173.008 138.731 169.613 140.718 165.671C143.203 160.741 148.521 160.799 151.144 165.785C152.728 168.796 152.369 169.799 149.8 169.54C147.489 169.307 146.731 169.637 147.86 170.386C148.684 170.931 149.736 171.881 149.939 172.261C150.574 173.448 146.297 174.577 143.643 173.923ZM134.388 119.429C134.506 119.018 134.45 118.817 134.041 118.171C130.916 113.236 134.403 106.378 139.34 107.751C141.359 108.312 141.366 109.429 139.377 113.783C137.498 117.895 137.642 118.643 140.313 118.643C142.203 118.643 142.116 118.774 142.293 115.68C142.747 107.726 145.142 105.043 150.244 106.77C151.568 107.219 151.59 107.245 151.99 108.826C153.523 114.888 155.614 116.608 161.138 116.351C165.056 116.168 165.928 115.336 167.428 110.349C168.705 106.104 169.591 105.063 172.233 104.702C172.866 104.615 173.706 104.476 174.1 104.394C175.769 104.045 177.423 104.291 177.856 104.954C178.226 105.518 178.442 105.264 178.356 104.369C178.282 103.593 178.282 103.593 184.456 103.593C190.4 103.593 190.635 103.582 190.794 103.285C190.937 103.018 191.191 102.964 192.669 102.89C196.184 102.714 197.078 102.616 197.348 102.373C197.554 102.187 197.96 102.143 199.168 102.179C200.723 102.224 200.723 102.224 200.916 101.515C201.021 101.125 201.252 100.412 201.427 99.9303C201.682 99.231 201.768 98.4602 201.857 96.108C201.977 92.8896 202.089 91.8632 202.516 90.0561C202.859 88.6069 202.867 78.9423 202.53 75.1653C202.319 72.8081 197.975 71.9227 194.76 73.5815C194.229 73.8553 181.352 75.3838 171.396 76.3549C161.33 77.3367 148.631 78.2693 141.814 78.5275C140.001 78.5962 138.884 78.7072 138.609 78.8461C138.248 79.0284 138.064 79.0201 137.337 78.7888C136.766 78.6073 135.937 78.5169 134.816 78.514C133.183 78.5098 133.147 78.5018 133.16 78.1477C133.177 77.6673 133.197 77.6698 128.534 77.562C91.2357 76.6996 66.2431 75.4117 52.7352 73.6559C51.162 73.4514 51.0008 73.4564 51.0008 73.7095C51.0008 74.1523 52.2886 75.3773 53.3064 75.9027C54.5872 76.5638 54.6065 76.8535 53.3846 77.0764C52.0746 77.3154 52.1141 77.1605 52.6285 80.0425C54.6917 91.6042 57.7249 94.2214 64.1284 89.9652C67.1756 87.9398 79.4799 86.282 97.143 85.5168C111.224 84.9069 108.065 85.8027 89.5687 87.6645C80.4579 88.5815 76.1751 89.1739 71.7559 90.1282C70.7937 90.336 69.5039 90.5426 68.8897 90.5873C63.5395 90.9766 58.4311 97.4288 61.1165 100.405C61.9102 101.285 63.0583 101.682 65.2556 101.835C66.229 101.902 67.0929 102 67.1753 102.051C67.2577 102.102 68.2863 102.32 69.461 102.535C71.9631 102.993 72.4731 103.167 72.5851 103.595C72.6605 103.884 72.8047 103.912 74.2203 103.912C75.6295 103.912 75.7936 103.943 75.9984 104.252C76.187 104.537 76.4247 104.605 77.4431 104.671C78.3633 104.73 78.7282 104.822 78.9314 105.047C79.1042 105.238 79.4166 105.345 79.8029 105.345C80.134 105.345 80.4492 105.417 80.5033 105.504C80.5574 105.592 80.9685 105.664 81.4169 105.664C82.0437 105.664 82.3203 105.747 82.6128 106.022C82.9768 106.365 83.1313 106.383 86.1478 106.432C89.0223 106.479 89.3268 106.511 89.5794 106.79C89.8675 107.109 91.3977 107.249 91.3977 106.957C91.3977 106.399 94.1432 105.935 97.6799 105.895C100.216 105.867 101.166 105.792 102.369 105.527C104.366 105.088 104.432 105.19 103.333 107.017C103.07 107.455 102.785 107.969 102.701 108.159C102.617 108.349 102.353 108.6 102.114 108.717C101.875 108.833 101.396 109.346 101.049 109.856C100.569 110.562 100.225 110.876 99.606 111.169C96.9371 112.433 94.7707 114.582 96.1656 114.582C96.5235 114.582 96.9873 114.694 97.1963 114.832C97.541 115.058 97.6208 115.058 98.0575 114.832C98.3223 114.694 98.6396 114.582 98.7627 114.582C98.8858 114.582 99.2613 114.134 99.5971 113.587C100.655 111.863 105.054 107.773 105.618 107.99C105.783 108.053 105.912 107.968 105.997 107.74C106.115 107.418 106.248 107.389 107.866 107.339C109.918 107.274 111.29 107.119 111.529 106.924C111.633 106.84 112.124 106.948 112.771 107.199C114.609 107.91 114.744 108.704 113.167 109.542C110.379 111.024 109.907 114.23 112.108 116.734C114.005 118.892 117.192 118.459 115.388 116.289C111.949 112.151 114.358 108.691 121.616 107.344C126.243 106.485 133.032 107.955 131.782 109.545C130.698 110.926 130.699 112.85 131.785 117.286C132.053 118.378 132.272 119.439 132.272 119.642C132.272 120.299 134.196 120.105 134.388 119.429ZM157.7 113.725C153.09 112.076 153.143 106.981 157.769 107.115C159.06 107.153 159.34 107.108 160.184 106.733C163.474 105.269 166.566 107.677 165.611 110.958C165.048 112.889 163.925 113.616 161.218 113.8C158.721 113.97 158.363 113.963 157.7 113.725ZM64.6785 61.5714C64.6785 61.4088 64.9182 60.9609 65.2112 60.576C65.9468 59.6098 66.269 58.9411 66.269 58.3806C66.269 57.758 66.057 57.838 69.866 57.023C78.3882 55.1995 82.0385 54.7308 88.5626 54.6223C122.976 54.0501 133.076 53.7339 144.014 52.8864C146.797 52.6708 146.792 52.6693 147.556 53.8762C149.208 56.4845 144.531 58.199 137.282 57.6424C136.582 57.5887 133.254 57.524 129.886 57.4986C123.763 57.4525 123.763 57.4525 120.438 56.782C115.584 55.8032 114.163 55.86 112.765 57.0886C112.11 57.6649 112.319 57.6628 110.748 57.1083C106.777 55.7065 101.863 55.6206 93.9424 56.8147C91.2745 57.2169 88.1612 57.6249 87.0241 57.7215C81.1158 58.2231 75.575 59.2484 68.4671 61.1553C65.5121 61.9481 64.6785 62.0397 64.6785 61.5714Z" fill="#3698A6"/>
<path d="M129.17 239.819C108.242 238.697 98.2795 237.049 87.8988 232.992C83.3837 231.227 83.3719 231.219 82.9107 229.704C80.1147 220.516 77.1985 208.614 74.7613 196.445C73.3437 189.367 72.8544 187.163 70.0211 175.092C62.8336 144.471 61.0258 131.894 63.419 129.164C64.0063 128.495 64.0859 127.206 63.5698 126.725C63.3379 126.508 63.218 126.089 63.1093 125.117C63.0249 124.362 62.8603 123.687 62.7228 123.532C62.4172 123.188 62.2989 122.178 62.1634 118.757C62.0783 116.608 62.0035 115.972 61.8233 115.861C61.4989 115.66 61.3394 115.805 61.3335 116.304C61.3162 117.772 60.0218 113.9 59.2671 110.123C56.9523 98.5363 52.8593 88.1319 54.5925 98.2402C54.8777 99.9036 55.7124 103.232 56.9433 107.613C57.9964 111.362 58.5859 114.217 58.7772 116.493C59.3866 123.747 55.4963 109.171 53.4643 96.5858C50.6797 79.3406 49.8913 75.2637 48.3517 70.1486C47.6871 67.9403 48.0046 66.7857 49.7901 64.9173C53.5471 60.986 62.0551 58.797 61.4309 61.9224C61.1732 63.2126 59.4675 64.0252 55.1451 64.9168C50.6741 65.839 50.2212 66.6095 52.7055 69.0677C54.6629 71.0046 65.3507 73.028 77.72 73.8035C80.0203 73.9477 82.7079 74.0392 96.8052 74.4531C115.783 75.0104 133.322 75.154 137.759 74.7883C142.918 74.3631 143.513 74.3613 144.235 74.7679C144.816 75.0946 144.962 75.115 145.616 74.9598C146.314 74.7941 146.851 74.8183 150.583 75.1836C151.333 75.257 151.623 75.2036 152.354 74.857C153.103 74.5022 153.294 74.4688 153.685 74.6245C154.58 74.9818 165.577 74.8679 169.17 74.4641C179.579 73.2942 191.886 70.4513 195.981 68.271C196.463 68.0143 199.63 67.2456 201.694 66.8843C203.704 66.5325 204.973 66.2315 205.797 65.9114C207.192 65.3694 207.522 72.7631 206.459 80.729C205.877 85.0823 205.748 85.9261 205.443 87.3487C205.265 88.1808 205.02 89.3275 204.897 89.8969C203.135 98.1154 201.617 114.454 200.185 140.621C199.145 159.619 198.645 166.656 197.643 176.375C197.476 177.996 197.295 180.003 197.242 180.835C196.772 188.172 195.719 197.01 193.897 208.905C193.331 212.596 193.213 213.724 193.288 214.718C194.059 224.94 189.348 232.551 181.495 233.772C180.708 233.894 178.804 234.361 177.265 234.808C169.485 237.069 160.659 238.418 149.051 239.122C141.536 239.577 131.333 239.935 129.17 239.819ZM128.481 237.569C129.065 236.984 127.341 236.706 119.866 236.179C118.073 236.052 115.711 235.842 114.618 235.711C108.644 234.999 103.911 234.958 105.662 235.634C108.837 236.86 127.6 238.451 128.481 237.569ZM90.2844 229.35C90.2844 228.938 87.4449 217.549 86.7257 215.076C85.3988 210.513 83.0428 204.883 82.46 204.883C81.9151 204.883 83.2671 212.63 84.5723 216.987C86.2931 222.731 90.2844 231.369 90.2844 229.35ZM85.375 228.679C85.9268 226.127 85.1272 222.12 82.4063 213.802C80.9106 209.229 79.7719 205.145 79.5425 203.529C79.3957 202.496 79.2414 202.301 78.7494 202.525C77.3289 203.173 77.5483 205.448 79.7282 212.676C80.2944 214.553 80.8672 216.81 81.0012 217.692C81.86 223.347 84.885 230.946 85.375 228.679ZM139.129 205.065C141.663 203.456 142.107 199.772 140.108 196.927C136.794 192.209 133.384 196.854 135.364 203.388C135.964 205.367 137.545 206.071 139.129 205.065ZM130.627 204.59C133.382 203.171 133.845 197.754 131.428 195.208C129.984 193.686 127.864 195.886 127.483 199.303C127.402 200.024 127.267 200.912 127.184 201.276C126.435 204.522 127.942 205.972 130.627 204.59ZM78.1041 198.898C78.4739 196.503 77.6989 192.01 75.6429 184.63C74.8538 181.798 73.9605 178.242 73.6577 176.729C72.9217 173.049 71.6764 170.552 71.6764 172.756C71.6764 173.869 73.4414 183.488 74.2982 187.046C74.5197 187.966 74.883 190.187 75.1054 191.983C75.6958 196.748 76.0708 198.174 77.0284 199.294C77.7475 200.135 77.9231 200.071 78.1041 198.898ZM125.811 193.735C128.646 192.177 131.024 192.085 137.282 193.288C145.57 194.883 148.888 192.477 144.753 187.872C143.059 185.986 141.289 185.781 135.134 186.763C131.028 187.417 127.489 187.473 125.99 186.905C124.165 186.215 123.019 186.455 121.611 187.821C119.204 190.159 120.814 193.676 124.605 194.363C124.631 194.368 125.174 194.085 125.811 193.735ZM114.972 183.637C116.721 183.193 117.166 182.986 119.918 181.339C129.038 175.879 129.053 162.646 119.946 157.385C119.334 157.032 118.439 156.51 117.958 156.226C113.589 153.649 109.391 153.789 100.94 156.793C99.4095 157.337 97.9567 157.778 97.7118 157.773C97.3815 157.765 97.2285 157.863 97.1193 158.151C97.0383 158.364 96.9109 158.538 96.8361 158.538C96.4782 158.538 95.6919 159.962 95.6919 160.611C95.6919 161.017 95.4471 161.885 95.0641 162.837C90.4829 174.215 102.526 186.798 114.972 183.637ZM99.0225 174.622C94.7962 173.906 93.995 170.081 97.3305 166.546C99.91 163.812 102.8 163.548 105.08 165.84C109.731 170.514 106.072 175.818 99.0225 174.622ZM160.107 181.392C170.209 179.38 174.307 168.258 168.172 159.502C158.848 146.196 135.896 153.935 138.642 169.458C140.283 178.738 149.027 183.599 160.107 181.392ZM143.788 173.822C139.377 172.947 138.569 167.535 142.289 163.785C145.569 160.478 150.232 162.385 151.751 167.655C152.225 169.297 151.931 169.526 149.502 169.406C146.7 169.268 146.477 169.524 148.243 170.851C149.642 171.902 150.061 172.437 149.764 172.795C149.036 173.674 145.821 174.226 143.788 173.822ZM143.961 135.372C145.099 135.325 146.279 135.245 146.586 135.194C146.892 135.143 147.357 135.076 147.619 135.046C147.882 135.016 148.419 134.951 148.812 134.9C149.206 134.85 149.778 134.777 150.085 134.739C150.391 134.7 150.892 134.628 151.198 134.578C151.504 134.529 151.969 134.457 152.232 134.419C152.715 134.35 154.306 134.073 156.764 133.632C167.308 131.738 174.662 128.336 182.549 121.702C182.779 121.509 183.27 121.1 183.641 120.793C184.013 120.487 184.619 119.949 184.988 119.599C185.358 119.249 186.144 118.532 186.734 118.006C187.325 117.481 188.183 116.692 188.642 116.255C190.283 114.687 192.042 113.096 193.522 111.842C193.905 111.517 194.434 111.068 194.696 110.844C194.958 110.619 195.51 110.168 195.922 109.841C196.447 109.425 196.703 109.09 196.776 108.722C196.871 108.249 196.931 108.201 197.371 108.244C197.756 108.281 197.903 108.209 198.056 107.906C198.163 107.694 198.364 107.458 198.501 107.381C198.679 107.281 198.752 107 198.752 106.41C198.752 105.702 198.804 105.557 199.109 105.423C199.306 105.336 199.489 105.114 199.515 104.929C199.542 104.744 199.733 104.515 199.94 104.421C200.25 104.279 200.337 104.085 200.429 103.324C200.49 102.815 200.593 102.327 200.656 102.24C200.72 102.152 200.848 101.794 200.94 101.443C201.032 101.093 201.251 100.412 201.427 99.9303C201.682 99.2307 201.768 98.4612 201.856 96.108C201.977 92.8896 202.089 91.8632 202.516 90.0561C202.859 88.6069 202.867 78.9423 202.53 75.1653C202.319 72.8081 197.975 71.9227 194.76 73.5815C194.229 73.8553 181.345 75.3847 171.396 76.3548C163.723 77.103 153.892 77.8735 146.904 78.2743C145.198 78.3721 142.657 78.522 141.258 78.6074C137.942 78.8098 137.379 78.8029 137.082 78.5559C136.908 78.4112 136.297 78.3575 135.016 78.3743C133.284 78.3969 133.201 78.3832 133.279 78.0868C133.408 77.5893 132.967 77.528 128.455 77.4172C88.9522 76.447 67.4563 75.3354 52.5159 73.4904C50.8491 73.2845 50.8418 73.2852 50.8418 73.6351C50.8418 74.1248 52.1786 75.4686 53.2175 76.023C54.3795 76.6433 54.4128 76.7865 53.4262 76.9208C51.8539 77.1347 51.8998 76.9264 52.5969 80.6847C54.6443 91.7215 58.0902 94.491 64.2572 90.0561C66.1312 88.7084 76.617 86.8935 86.3083 86.2395C90.5413 85.9538 91.3311 85.9117 96.9642 85.6719C103.471 85.3949 105.039 85.3787 104.827 85.5908C104.618 85.7997 98.8594 86.6101 94.0219 87.1113C79.8202 88.5827 77.93 88.8228 72.7897 89.8082C71.2589 90.1017 69.3623 90.4219 68.575 90.5197C60.0536 91.5787 57.1236 101.372 65.1556 101.949C68.0228 102.155 72.4716 103.207 72.4716 103.679C72.4716 103.868 72.7786 103.912 74.1221 103.912C75.6316 103.912 75.792 103.941 75.9984 104.252C76.1869 104.537 76.4247 104.605 77.4431 104.671C78.3633 104.73 78.7281 104.822 78.9314 105.047C79.1042 105.238 79.4165 105.345 79.8028 105.345C80.134 105.345 80.4492 105.417 80.5033 105.504C80.5573 105.592 80.9685 105.664 81.4169 105.664C82.0436 105.664 82.3203 105.747 82.6128 106.022C82.9765 106.364 83.1321 106.383 86.122 106.432C88.9117 106.478 89.2851 106.515 89.5687 106.78C90.0052 107.187 91.381 107.273 91.7382 106.915C92.3034 106.349 94.7787 105.947 97.545 105.973C99.8297 105.993 102.427 105.749 103.525 105.41C104.267 105.18 102.648 108.376 101.855 108.706C101.614 108.806 101.416 108.968 101.414 109.067C101.405 109.628 100.415 110.787 99.626 111.16C92.83 114.374 92.7095 121.362 99.3755 125.702C103.694 128.513 104.499 129.002 106.348 129.941C110.702 132.153 116.448 133.949 121.139 134.565C121.532 134.617 122.033 134.691 122.252 134.73C122.719 134.814 123.916 134.956 125.035 135.062C125.473 135.103 126.188 135.173 126.626 135.217C127.063 135.261 128.081 135.317 128.889 135.341C129.696 135.366 130.388 135.417 130.426 135.455C130.518 135.547 141.316 135.481 143.961 135.372ZM64.8375 61.4918C64.8375 61.373 65.0773 60.9609 65.3702 60.576C66.1031 59.6134 66.428 58.9414 66.428 58.3884C66.428 58.0348 66.5156 57.8986 66.7858 57.8324C74.39 55.9713 82.0082 54.88 88.1373 54.7739C125.473 54.1273 133.367 53.8813 143.882 53.0366C146.679 52.8119 146.731 52.8242 147.391 53.8668C149.097 56.5595 146.514 57.4922 137.52 57.4319C123.153 57.3356 124.143 57.3816 120.46 56.6397C115.612 55.6633 114.091 55.7303 112.606 56.9858C112.105 57.4094 112.105 57.4094 110.451 56.8551C106.341 55.4781 102.258 55.4516 93.3857 56.7445C90.3242 57.1906 86.85 57.6268 85.6654 57.7138C81.5388 58.0167 77.049 58.8509 70.0974 60.6062C65.6117 61.7389 64.8375 61.8692 64.8375 61.4918Z" fill="#008ECF"/>
<path d="M129.17 239.819C108.242 238.697 98.2795 237.049 87.8988 232.992C83.3837 231.227 83.3719 231.219 82.9107 229.704C80.1147 220.516 77.1985 208.614 74.7613 196.445C73.3437 189.367 72.8544 187.163 70.0211 175.092C62.8514 144.546 61.0223 131.854 63.4052 129.183C64.1957 128.298 64.8313 129.337 65.5312 132.658C69.5223 151.601 76.0455 176.4 80.9266 191.187C82.7524 196.718 82.4431 196.187 83.7773 196.075C85.1605 195.959 85.1828 196.007 84.4926 197.616C83.2121 200.602 83.8442 202.114 87.859 205.67C89.5614 207.178 89.4041 207.62 87.2747 207.313C85.7999 207.1 85.8987 206.893 86.4487 209.04C86.7044 210.039 87.0625 211.572 87.2446 212.448C90.0453 225.925 92.8576 230.711 98.6785 231.907C116.667 235.602 137.196 236.239 164.338 233.946C175.002 233.045 183.309 229.726 185.967 225.307C186.654 224.164 186.673 224.217 185.538 224.098C183.705 223.906 183.754 223.461 185.694 222.656C188.569 221.463 189.466 220.524 189.422 218.757C189.402 217.99 189.513 217.364 189.848 216.358C190.982 212.94 191.213 210.289 190.949 203.679C190.726 198.105 190.794 195.891 191.249 193.814C191.952 190.606 192.327 187.406 192.948 179.322C193.37 173.84 193.681 170.755 194.057 168.333C194.411 166.052 194.593 163.621 194.85 157.742C195.14 151.082 195.324 148.527 195.739 145.399C196.255 141.508 196.343 141.217 197.283 140.276C198.629 138.928 198.589 137.982 197.095 135.797C194.812 132.46 194.811 130.71 197.088 128.609C197.959 127.804 197.987 126.634 197.319 118.962C196.611 110.84 196.624 108.172 197.372 108.244C197.756 108.281 197.903 108.209 198.056 107.906C198.163 107.694 198.364 107.458 198.501 107.381C198.679 107.281 198.752 107 198.752 106.41C198.752 105.702 198.804 105.557 199.109 105.423C199.306 105.336 199.489 105.114 199.515 104.929C199.542 104.744 199.733 104.515 199.94 104.421C200.25 104.279 200.337 104.085 200.429 103.324C200.49 102.815 200.593 102.327 200.656 102.24C200.72 102.152 200.848 101.794 200.94 101.443C201.032 101.093 201.251 100.412 201.427 99.9303C201.682 99.2307 201.768 98.4612 201.856 96.108C201.977 92.8896 202.089 91.8632 202.516 90.0561C202.859 88.6069 202.867 78.9423 202.53 75.1653C202.319 72.8081 197.975 71.9227 194.76 73.5815C194.229 73.8553 181.345 75.3847 171.396 76.3548C163.723 77.103 153.892 77.8735 146.904 78.2743C145.198 78.3721 142.657 78.522 141.258 78.6074C137.942 78.8098 137.379 78.8029 137.082 78.5559C136.908 78.4112 136.297 78.3575 135.016 78.3743C133.284 78.3969 133.201 78.3832 133.279 78.0868C133.408 77.5893 132.967 77.528 128.455 77.4172C88.9522 76.447 67.4563 75.3354 52.5159 73.4904C50.8491 73.2845 50.8418 73.2852 50.8418 73.6351C50.8418 74.1248 52.1786 75.4686 53.2175 76.023C54.3795 76.6433 54.4128 76.7865 53.4262 76.9208C51.8539 77.1347 51.8998 76.9264 52.5969 80.6847C54.6443 91.7215 58.0902 94.491 64.2572 90.0561C66.1312 88.7084 76.617 86.8935 86.3083 86.2395C90.5413 85.9538 91.3311 85.9117 96.9642 85.6719C103.471 85.3949 105.039 85.3787 104.827 85.5908C104.618 85.7997 98.8594 86.6101 94.0219 87.1113C79.8202 88.5827 77.93 88.8228 72.7897 89.8082C71.2589 90.1017 69.3623 90.4219 68.575 90.5197C60.0536 91.5787 57.1236 101.372 65.1556 101.949C66.5475 102.049 71.6784 103.02 72.1495 103.273C72.6973 103.566 72.5493 104.051 71.8168 104.363C71.162 104.641 71.162 104.641 71.8281 105.083C72.3736 105.444 72.4599 105.566 72.3044 105.753C72.0153 106.102 71.8753 106.074 67.1244 104.705C61.1549 102.984 59.8675 102.858 61.4976 104.151C62.7463 105.141 62.582 105.55 61.1145 105.105C59.7902 104.702 59.8685 104.303 60.474 108.371C60.6239 109.378 60.7404 110.472 60.7329 110.8C60.7254 111.129 60.8249 111.882 60.9541 112.473C61.5563 115.228 61.613 117.142 61.0705 116.401C60.6951 115.888 59.7882 112.731 59.2671 110.123C56.9523 98.5363 52.8593 88.1319 54.5925 98.2402C54.8777 99.9036 55.7124 103.232 56.9433 107.613C57.9964 111.362 58.5859 114.217 58.7772 116.493C59.3866 123.747 55.4963 109.171 53.4643 96.5858C50.6797 79.3406 49.8913 75.2637 48.3517 70.1486C47.6871 67.9403 48.0046 66.7857 49.7901 64.9173C53.5471 60.986 62.0551 58.797 61.4309 61.9224C61.1732 63.2126 59.4675 64.0252 55.1451 64.9168C50.6741 65.839 50.2212 66.6095 52.7055 69.0677C54.6629 71.0046 65.3507 73.028 77.72 73.8035C80.0203 73.9477 82.7079 74.0392 96.8052 74.4531C115.783 75.0104 133.322 75.154 137.759 74.7883C142.918 74.3631 143.513 74.3613 144.235 74.7679C144.816 75.0946 144.962 75.115 145.616 74.9598C146.314 74.7941 146.851 74.8183 150.583 75.1836C151.333 75.257 151.623 75.2036 152.354 74.857C153.103 74.5022 153.294 74.4688 153.685 74.6245C154.58 74.9818 165.577 74.8679 169.17 74.4641C179.579 73.2942 191.886 70.4513 195.981 68.271C196.463 68.0143 199.63 67.2456 201.694 66.8843C203.704 66.5325 204.973 66.2315 205.797 65.9114C207.192 65.3694 207.522 72.7631 206.459 80.729C205.877 85.0823 205.748 85.9261 205.443 87.3487C205.265 88.1808 205.02 89.3275 204.897 89.8969C203.135 98.1154 201.617 114.454 200.185 140.621C199.145 159.619 198.645 166.656 197.643 176.375C197.476 177.996 197.295 180.003 197.242 180.835C196.772 188.172 195.719 197.01 193.897 208.905C193.331 212.596 193.213 213.724 193.288 214.718C194.059 224.94 189.348 232.551 181.495 233.772C180.708 233.894 178.804 234.361 177.265 234.808C169.485 237.069 160.659 238.418 149.051 239.122C141.536 239.577 131.333 239.935 129.17 239.819ZM128.481 237.569C129.065 236.984 127.341 236.706 119.866 236.179C118.073 236.052 115.711 235.842 114.618 235.711C108.644 234.999 103.911 234.958 105.662 235.634C108.837 236.86 127.6 238.451 128.481 237.569ZM90.2844 229.35C90.2844 228.938 87.4449 217.549 86.7257 215.076C85.3988 210.513 83.0428 204.883 82.46 204.883C81.9151 204.883 83.2671 212.63 84.5723 216.987C86.2931 222.731 90.2844 231.369 90.2844 229.35ZM85.375 228.679C85.9268 226.127 85.1272 222.12 82.4063 213.802C80.9106 209.229 79.7719 205.145 79.5425 203.529C79.3957 202.496 79.2414 202.301 78.7494 202.525C77.3289 203.173 77.5483 205.448 79.7282 212.676C80.2944 214.553 80.8672 216.81 81.0012 217.692C81.86 223.347 84.885 230.946 85.375 228.679ZM78.1041 198.898C78.4739 196.503 77.6989 192.01 75.6429 184.63C74.8538 181.798 73.9605 178.242 73.6577 176.729C72.9217 173.049 71.6764 170.552 71.6764 172.756C71.6764 173.869 73.4414 183.488 74.2982 187.046C74.5197 187.966 74.883 190.187 75.1054 191.983C75.6958 196.748 76.0708 198.174 77.0284 199.294C77.7475 200.135 77.9231 200.071 78.1041 198.898ZM113.028 214.656C112.809 214.625 111.986 214.521 111.199 214.426C110.411 214.331 107.441 213.79 104.598 213.224C98.6897 212.048 95.6534 211.578 93.938 211.575C92.0388 211.571 91.4141 210.735 92.4988 209.649C93.2937 208.853 94.8321 209.03 99.5908 210.467C102.852 211.452 105.281 212.044 106.74 212.208C107.355 212.278 108.574 212.489 109.449 212.677C110.753 212.958 120.05 214.12 120.993 214.12C121.14 214.12 121.298 214.264 121.344 214.439C121.423 214.74 114.804 214.913 113.028 214.656ZM128.057 207.531C125.935 206.531 125.161 205.025 124.715 201.028C124.113 195.63 123.264 194.426 119.525 193.664C118.64 193.483 118.507 190.589 119.303 188.847C120.146 187.003 122.067 184.878 125.181 182.348C126.043 181.647 127.208 180.628 127.771 180.083C129.01 178.884 129.18 178.838 132.351 178.861C139.471 178.912 146.74 184.542 148.953 191.721C149.537 193.615 149.473 193.713 146.347 195.736C142.466 198.247 141.645 199.527 142.128 202.31C142.874 206.609 140.934 207.937 135.833 206.619C132.432 205.74 130.872 205.938 129.766 207.391C129.296 208.007 129.101 208.023 128.057 207.531ZM139.129 205.065C141.663 203.456 142.107 199.772 140.108 196.927C136.794 192.209 133.384 196.854 135.364 203.388C135.964 205.367 137.545 206.071 139.129 205.065ZM130.627 204.59C133.382 203.171 133.845 197.754 131.428 195.208C129.984 193.686 127.864 195.886 127.483 199.303C127.402 200.024 127.267 200.912 127.184 201.276C126.435 204.522 127.942 205.972 130.627 204.59ZM125.811 193.735C128.646 192.177 131.024 192.085 137.282 193.288C145.57 194.883 148.888 192.477 144.753 187.872C143.059 185.986 141.289 185.781 135.134 186.763C131.028 187.417 127.489 187.473 125.99 186.905C124.165 186.215 123.019 186.455 121.611 187.821C119.204 190.159 120.814 193.676 124.605 194.363C124.631 194.368 125.174 194.085 125.811 193.735ZM107.289 185.929C96.1263 184.038 88.5066 171.62 92.9713 162.597C94.8209 158.858 96.5844 159.061 95.0641 162.837C90.1342 175.081 105.273 188.819 117.179 182.907C128.814 177.129 130.305 163.369 119.946 157.385C119.334 157.032 118.439 156.51 117.958 156.226C113.605 153.659 109.421 153.79 101.02 156.759C98.3476 157.703 98.0291 157.798 97.6401 157.761C97.2907 157.728 97.4195 157.518 98.4358 156.464C107.774 146.781 127.983 153.711 129.239 167.028C130.339 178.686 119.52 188.002 107.289 185.929ZM153.583 184.709C139.537 183.29 131.058 169.802 137.646 159.356C146.417 145.444 166.622 147.279 172.428 162.514C176.74 173.83 166.404 186.004 153.583 184.709ZM160.107 181.392C170.209 179.38 174.307 168.258 168.172 159.502C158.848 146.196 135.896 153.935 138.642 169.458C140.283 178.738 149.027 183.599 160.107 181.392ZM143.788 173.822C139.377 172.947 138.569 167.535 142.289 163.785C145.569 160.478 150.232 162.385 151.751 167.655C152.225 169.297 151.931 169.526 149.502 169.406C146.7 169.268 146.477 169.524 148.243 170.851C149.642 171.902 150.061 172.437 149.764 172.795C149.036 173.674 145.821 174.226 143.788 173.822ZM99.0225 174.622C94.7962 173.906 93.995 170.081 97.3305 166.546C99.91 163.812 102.8 163.548 105.08 165.84C109.731 170.514 106.072 175.818 99.0225 174.622ZM64.8375 61.4918C64.8375 61.373 65.0773 60.9609 65.3702 60.576C66.1031 59.6134 66.428 58.9414 66.428 58.3884C66.428 58.0348 66.5156 57.8986 66.7858 57.8324C74.39 55.9713 82.0082 54.88 88.1373 54.7739C125.473 54.1273 133.367 53.8813 143.882 53.0366C146.679 52.8119 146.731 52.8242 147.391 53.8668C149.097 56.5595 146.514 57.4922 137.52 57.4319C123.153 57.3356 124.143 57.3816 120.46 56.6397C115.612 55.6633 114.091 55.7303 112.606 56.9858C112.105 57.4094 112.105 57.4094 110.451 56.8551C106.341 55.4781 102.258 55.4516 93.3857 56.7445C90.3242 57.1906 86.85 57.6268 85.6654 57.7138C81.5388 58.0167 77.049 58.8509 70.0974 60.6062C65.6117 61.7389 64.8375 61.8692 64.8375 61.4918Z" fill="#1B6F95"/>
<path d="M128.932 239.763C108.133 238.613 97.7953 236.863 87.5443 232.754C83.3617 231.078 83.4357 231.127 82.9993 229.728C80.5178 221.769 77.3299 208.733 74.7688 196.07C73.2779 188.699 72.7324 186.249 69.9052 174.225C62.8993 144.43 60.7992 129.155 63.7086 129.155C64.3974 129.155 64.6002 129.744 65.8726 135.445C71.0004 158.421 76.6298 179.537 81.2109 192.981C82.5082 196.788 82.313 196.5 83.5279 196.403C84.8167 196.299 84.806 196.275 84.149 197.767C82.9836 200.413 83.7054 202.219 87.1954 205.386C89.1599 207.168 89.1534 207.373 87.1416 207.08C85.5489 206.847 85.5747 206.822 85.972 208.253C86.1504 208.896 86.6594 211.07 87.1031 213.085C90.0662 226.539 92.7469 230.962 98.679 232.185C116.359 235.831 138.544 236.441 165.989 234.036C175.517 233.202 184.26 229.356 186.423 225.047C186.9 224.097 186.879 224.058 185.83 223.927C184.185 223.721 184.207 223.598 186.028 222.812C188.75 221.638 189.596 220.742 189.627 219C189.642 218.208 189.797 217.389 190.134 216.336C191.205 212.988 191.457 209.777 191.151 203.37C190.918 198.493 190.976 196.53 191.419 194.367C192.174 190.684 192.55 187.386 193.273 178.127C193.495 175.28 193.885 171.375 194.14 169.448C194.628 165.756 194.865 163.045 195.012 159.494C195.426 149.486 195.729 145.913 196.462 142.385C196.661 141.426 196.794 141.173 197.47 140.458C198.957 138.882 198.907 138.062 197.16 135.408C195.089 132.263 195.089 131.135 197.159 128.868C198.123 127.813 198.179 125.94 197.484 118.095C196.969 112.279 196.967 108.497 197.478 108.373C197.696 108.321 197.959 108.107 198.063 107.899C198.166 107.691 198.364 107.458 198.501 107.381C198.675 107.283 198.752 107.005 198.752 106.468C198.752 105.752 198.787 105.682 199.229 105.528C199.491 105.437 199.706 105.249 199.706 105.111C199.706 104.973 199.876 104.783 200.083 104.688C200.537 104.481 200.902 103.493 200.77 102.83C200.674 102.348 200.88 101.441 201.428 99.9303C201.681 99.2324 201.768 98.4555 201.856 96.108C201.977 92.8896 202.089 91.8632 202.516 90.0561C202.859 88.6069 202.867 78.9423 202.53 75.1653C202.319 72.8081 197.975 71.9227 194.76 73.5815C194.229 73.8553 181.352 75.3838 171.396 76.3549C161.352 77.3345 148.686 78.2653 141.814 78.5288C140.283 78.5876 138.897 78.6839 138.732 78.7431C138.568 78.8022 138.067 78.7491 137.619 78.6251C136.123 78.211 135.54 78.1377 134.459 78.2277C133.435 78.3129 133.385 78.301 133.385 77.9704C133.385 77.4439 134.912 77.5183 108.415 76.7549C84.2259 76.058 69.5857 75.2402 56.9649 73.8809C50.2716 73.16 50.3503 73.1557 50.9957 74.2015C51.4426 74.9255 52.2683 75.6342 53.2391 76.1268C54.1974 76.613 54.1473 76.7653 52.9811 76.9112C51.8339 77.0547 51.8468 76.9776 52.4274 80.2084C54.52 91.8531 57.671 94.5166 64.2155 90.1731C66.3828 88.7347 76.0791 87.0492 86.3878 86.3189C92.8411 85.8617 103.521 85.4542 103.302 85.6734C103.085 85.891 97.0526 86.6234 88.2168 87.5051C80.4939 88.2757 75.5605 88.9665 72.074 89.7654C71.2867 89.9458 70.022 90.149 69.2636 90.2168C59.9938 91.0464 56.46 101.471 65.2185 102.15C66.1898 102.226 67.0919 102.33 67.2232 102.382C67.3544 102.434 68.4038 102.651 69.5552 102.863C72.5183 103.409 72.8248 103.635 71.4203 104.238C70.5651 104.605 70.5652 104.603 71.398 105.141C72.4693 105.833 71.7685 105.775 68.8906 104.93C60.86 102.575 59.1473 102.402 61.1181 104.146C62.0484 104.969 62.0008 105.093 60.8801 104.764C60.2949 104.592 59.9847 104.567 59.87 104.682C59.6949 104.857 60.1027 108.021 61.259 115.458C61.6534 117.995 60.162 114.238 59.5804 111.23C57.7663 101.848 54.8971 92.9088 54.1095 94.185C53.7431 94.7786 54.8071 100.228 56.4153 105.993C58.0541 111.869 58.7939 115.502 58.7939 117.676C58.7939 121.307 55.2484 107.082 53.5574 96.6655C53.2019 94.4756 52.521 90.2831 52.0444 87.3487C51.0219 81.0534 50.2867 77.307 49.3253 73.493C48.3946 69.8009 48.4346 69.9407 48.2396 69.6925C47.6058 68.8854 48.2834 66.6666 49.6367 65.1174C52.9169 61.3625 61.3386 58.9878 61.3386 61.8178C61.3386 63.0659 59.5523 63.9208 54.8974 64.9005C50.5337 65.8188 50.1494 66.5857 52.7242 69.2375C53.5545 70.0926 53.8946 70.2212 57.8396 71.1715C65.7612 73.0795 73.895 73.9092 88.3759 74.2864C91.8311 74.3764 97.0199 74.5233 99.9065 74.6129C114.81 75.0755 131.599 75.2187 136.407 74.9242C142.529 74.5492 143.674 74.5376 144.353 74.8439C144.904 75.0928 145.077 75.1041 145.694 74.9312C146.083 74.8221 146.49 74.7874 146.598 74.8542C146.706 74.921 147.445 75.035 148.24 75.1075C149.036 75.18 150.024 75.2834 150.436 75.3373C151.209 75.4383 152.428 75.11 152.965 74.656C153.167 74.4849 153.317 74.478 153.681 74.623C154.58 74.9818 165.566 74.8691 169.17 74.4641C179.579 73.2942 191.886 70.4513 195.981 68.271C196.46 68.0155 199.616 67.2487 201.694 66.8829C204.068 66.465 204.714 66.3138 205.56 65.9789C206.187 65.7305 206.451 65.6908 206.584 65.8243C207.026 66.2665 207.111 75.3114 206.701 78.1912C206.613 78.8044 206.398 80.4886 206.221 81.9338C206.045 83.3791 205.582 86.1383 205.192 88.0654C204.602 90.9805 203.722 96.1878 203.43 98.497C202.133 108.734 201.227 119.931 200.266 137.595C199.088 159.241 198.661 165.364 197.567 176.296C197.356 178.398 197.138 180.871 197.082 181.79C196.688 188.243 195.598 197.288 193.814 208.899C193.284 212.347 193.185 213.384 193.185 215.462C193.185 226.504 189.212 232.58 181.251 233.71C180.599 233.803 179.395 234.094 178.575 234.357C170.033 237.097 157.563 238.824 142.45 239.361C141.007 239.412 139.003 239.52 137.997 239.602C135.343 239.816 131.22 239.889 128.932 239.763ZM128.4 237.681C130.012 237.067 127.437 236.59 119.86 236.098C118.5 236.01 116.16 235.797 114.659 235.625C108.074 234.871 103.968 234.856 105.339 235.591C107.612 236.809 126.253 238.499 128.4 237.681ZM90.4434 229.566C90.4434 226.778 85.0704 209.123 83.1859 205.719C81.1011 201.954 83.0785 213.645 85.7248 220.73C87.7703 226.206 90.4434 231.212 90.4434 229.566ZM85.5321 227.906C85.6063 224.133 85.1634 222.063 82.564 214.041C80.7423 208.418 80.2601 206.722 79.785 204.267C79.3676 202.111 79.1581 201.878 78.3801 202.708C77.329 203.828 77.5334 205.595 79.4635 212.076C80.6025 215.9 80.9465 217.321 81.1341 218.978C81.4489 221.757 83.6678 227.836 84.8437 229.141C85.2396 229.58 85.5086 229.097 85.5321 227.906ZM78.1006 199.694C78.7617 197.969 77.8921 192.386 75.7865 184.837C74.3853 179.814 73.8896 177.81 73.5184 175.666C73.1158 173.341 71.9266 171.194 71.6045 172.211C71.4276 172.769 73.5122 184.516 74.2935 187.364C74.4257 187.846 74.7185 189.71 74.9443 191.505C75.7329 197.779 77.2883 201.814 78.1006 199.694ZM113.664 214.488C112.05 214.366 108.254 213.729 104.36 212.928C99.4205 211.912 97.6133 211.621 94.6581 211.366C92.4315 211.174 92.4315 211.174 92.3847 210.696C92.2256 209.071 93.9119 209.067 99.3503 210.68C103.483 211.906 104.677 212.201 105.95 212.309C106.562 212.361 107.6 212.54 108.256 212.707C109.534 213.032 112.595 213.468 116.447 213.872C119.772 214.222 120.183 214.293 119.787 214.45C119.479 214.571 115.122 214.599 113.664 214.488ZM128.057 207.247C126.042 206.205 125.365 204.766 124.881 200.501C124.511 197.229 124.199 196.201 123.263 195.164C122.561 194.385 121.415 193.767 120.423 193.631C116.872 193.143 119.152 187.746 124.956 182.899C126.049 181.986 127.418 180.795 127.997 180.253C129.234 179.097 129.608 178.991 132.351 179.025C139.187 179.108 146.347 184.667 148.644 191.675C149.261 193.555 149.293 193.508 145.915 195.701C142.121 198.164 141.288 199.704 141.986 202.96C142.688 206.24 140.257 207.654 136.089 206.389C133.132 205.492 130.69 205.774 129.691 207.127C129.289 207.672 128.929 207.698 128.057 207.247ZM138.587 205.437C143.028 203.579 141.554 194.056 136.958 194.92C134.29 195.421 133.838 203.474 136.383 205.144C137.209 205.686 137.803 205.765 138.587 205.437ZM130.516 204.698C133.484 203.422 134.019 197.335 131.368 195.005C130.091 193.882 127.998 195.686 127.584 198.267C127.541 198.534 127.362 199.623 127.185 200.688C126.485 204.917 127.412 206.034 130.516 204.698ZM125.957 193.746C128.671 192.264 131.061 192.162 136.834 193.28C142.605 194.399 146.584 193.923 146.456 192.13C146.323 190.284 145.528 188.363 144.534 187.489C142.627 185.812 141.028 185.74 133.067 186.974C129.868 187.469 126.61 187.263 125.073 186.467C124.114 185.97 121.784 187.116 120.932 188.503C118.991 191.661 122.697 195.527 125.957 193.746ZM107.872 185.766C95.9454 183.888 87.9014 170.138 93.7723 161.665C95.5105 159.157 96.1806 159.751 95.0067 162.76C90.0229 175.538 105.3 189.025 117.643 182.746C129.376 176.776 130.214 162.909 119.206 156.849C118.476 156.447 117.52 155.912 117.083 155.66C113.419 153.547 108.769 153.905 100.252 156.954C97.3572 157.991 97.2891 157.954 98.992 156.279C105.191 150.181 117.533 151.054 124.5 158.084C135.819 169.503 124.48 188.38 107.872 185.766ZM154.061 184.476C140.733 183.343 131.931 171.092 137.084 160.848C145.103 144.905 167.906 147.385 172.872 164.74C175.672 174.529 165.282 185.43 154.061 184.476ZM156.48 181.761C170.206 182.155 176.146 166.726 166.065 156.866C158.853 149.812 144.496 151.951 139.919 160.762C134.995 170.238 142.746 182.54 153.186 181.821C154.061 181.761 155.543 181.734 156.48 181.761ZM143.291 173.596C139.876 172.528 138.986 168.73 141.307 165.135C144.295 160.504 149.579 161.581 151.515 167.216C152.199 169.206 151.986 169.449 149.695 169.293C146.814 169.096 146.266 169.521 147.898 170.688C149.82 172.064 150.164 172.658 149.297 173.106C148.002 173.777 144.724 174.044 143.291 173.596ZM100.066 174.631C95.7959 174.212 94.3147 171.964 96.0212 168.493C97.9855 164.498 102.426 163.198 105.055 165.85C109.347 170.181 106.463 175.258 100.066 174.631ZM64.9266 61.564C64.8778 61.485 65.1573 60.9949 65.5476 60.4749C66.3075 59.4626 66.587 58.8774 66.587 58.2987C66.587 57.9531 66.7721 57.8984 70.6028 57.1127C81.4159 54.895 79.871 55.0078 105.712 54.5482C125.42 54.1976 135.822 53.8045 144.354 53.088C146.676 52.8931 147.288 53.1734 147.679 54.6112C148.322 56.9711 146.452 57.3343 133.862 57.2939C123.159 57.2596 124.862 57.3883 118.276 56.1168C115.519 55.5846 113.6 55.8561 112.645 56.913C112.26 57.3389 112.11 57.334 110.778 56.8528C108.394 55.9918 106.714 55.753 103.087 55.7601C99.613 55.7669 99.1874 55.8102 91.7158 56.9154C89.9226 57.1807 87.4892 57.4734 86.3083 57.5658C81.1837 57.967 75.8708 58.9764 67.8773 61.0675C65.2577 61.7528 65.0634 61.7855 64.9266 61.564Z" fill="#0C0E0E"/>
</g>
<defs>
<clipPath id="clip0_0_1">
<rect width="256" height="256" fill="white"/>
</clipPath>
</defs>
</svg>
