<svg width="256" height="256" viewBox="0 0 256 256" fill="none" xmlns="http://www.w3.org/2000/svg">
<path d="M196 0H60C26.8629 0 0 26.8629 0 60V196C0 229.137 26.8629 256 60 256H196C229.137 256 256 229.137 256 196V60C256 26.8629 229.137 0 196 0Z" fill="#242938"/>
<g clip-path="url(#clip0_842_20)">
<path d="M203.471 73.7561C194.912 106.709 172.902 125.748 136.983 132.17C106.413 122.766 106.413 125.518 101.293 117.414C132.55 93.6352 162.432 62.4403 176.57 26.2756C190.632 41.7202 195.141 44.9314 203.471 73.7561Z" fill="#F4F2ED"/>
<path d="M127.181 235.824C109.373 235.063 96.9912 232.692 87.1097 228.157C85.6675 227.495 85.8839 227.938 84.3282 222.459C81.619 212.919 79.5597 204.276 77.3537 193.183C76.2354 187.561 75.7116 185.21 73.1291 174.222C68.4949 154.505 66.7349 145.439 65.7222 136.069C65.4657 133.696 65.9275 130.452 66.6529 129.529C67.0824 128.983 67.0911 127.588 66.6658 127.477C66.4176 127.412 66.3561 127.202 66.2653 126.113C66.19 125.208 66.0727 124.716 65.8707 124.459C65.6759 124.211 65.5833 123.846 65.5833 123.324C65.5833 122.901 65.5145 122.512 65.4305 122.46C65.3386 122.403 65.2776 121.365 65.2776 119.86C65.2776 118.355 65.2166 117.317 65.1248 117.261C65.0407 117.209 64.9719 117.304 64.9719 117.472C64.9719 119.357 63.6179 115.924 62.8287 112.038C60.8032 102.065 57.4789 92.155 58.2437 98.3694C58.5127 100.556 59.0085 102.705 60.4319 107.856C62.104 113.908 62.8657 118.193 62.5257 119.634C62.0397 121.693 58.8994 109.325 57.0895 98.2226C56.6302 95.4051 55.9405 91.1732 55.5569 88.8183C54.6997 83.5563 53.9024 79.6048 52.813 75.2193C51.7225 70.8297 51.7534 70.1177 53.1085 68.3911C55.9018 64.8323 64.0986 62.0654 64.9847 64.3824C65.592 65.9705 63.8021 67.0707 58.9345 68.101C54.7157 68.9939 54.3255 69.6325 56.6157 71.8952C58.9054 74.1574 72.1859 76.1794 87.899 76.6581C115.729 77.5057 133.372 77.7288 138.339 77.296C139.558 77.1899 141.291 77.0628 142.19 77.0137C143.825 76.9247 143.825 76.9247 143.75 76.5255C143.694 76.223 143.824 75.9406 144.287 75.3616C144.624 74.9411 145.125 74.2874 145.403 73.9089C146.345 72.6215 147.929 72.1308 148.586 72.9225C149.407 73.9129 148.681 76.2053 147.324 76.9075C146.697 77.2318 146.877 77.3317 148.324 77.4623C149.011 77.5242 149.967 77.6165 150.448 77.6673C151.905 77.821 153.015 77.2947 152.403 76.7405C151.055 75.5199 153.592 73.058 157.521 71.7741C158.109 71.5817 158.656 71.3641 158.736 71.2904C158.816 71.2167 158.99 71.1565 159.123 71.1565C159.624 71.1565 161.058 70.0444 162.653 68.4196C163.56 67.4949 164.579 66.5636 164.917 66.35C165.255 66.1365 165.606 65.823 165.697 65.6536C165.972 65.1398 165.436 65.2782 164.246 66.0287C163.658 66.3998 162.832 66.9136 162.412 67.1707C161.539 67.7042 159.597 68.9924 157.729 70.2769C157.026 70.7604 156.279 71.2725 156.069 71.415C155.859 71.5574 155.562 71.7787 155.409 71.9067C155.071 72.1902 153.503 72.2582 152.63 72.0273C150.363 71.4276 150.2 69.4368 152.135 65.9795C152.982 64.4658 155.316 61.3698 155.61 61.3698C155.683 61.3698 155.937 61.0825 156.173 60.7312C156.602 60.0957 156.873 59.8904 158.237 59.1707C159.218 58.6531 159.791 58.5968 159.946 59.0028C160.039 59.244 159.352 60.7574 158.577 62.0176C156.954 64.6589 156.813 64.9276 156.964 65.0793C157.181 65.2959 158.833 64.304 159.078 63.8104C159.181 63.6035 159.456 63.0232 159.688 62.5207C161.265 59.122 165.038 58.7874 167.359 61.8403C167.972 62.6473 168.143 62.7387 168.146 62.2618C168.157 60.7695 170.234 59.5449 172.767 59.5374C173.818 59.5342 173.887 59.3623 172.977 59.0149C171.734 58.5398 171.663 58.3023 172.482 57.3649C173.618 56.0656 173.079 55.8132 170.921 56.6336C168.838 57.4252 166.814 57.8538 165.43 57.7962C164.695 57.7656 163.928 57.8024 163.726 57.8781C163.524 57.9537 162.985 58.0474 162.528 58.0864C162.071 58.1252 161.642 58.1915 161.574 58.2335C161.506 58.2756 161.116 58.2644 160.708 58.2086C158.44 57.8988 158.65 55.9311 161.491 50.8951C161.871 50.2222 162.394 49.2245 162.655 48.6778C162.916 48.1311 163.975 45.9635 165.009 43.8609C166.042 41.7583 167.172 39.4187 167.52 38.6618C167.867 37.9048 168.321 36.9586 168.529 36.559C168.738 36.1595 168.908 35.7635 168.908 35.679C168.908 35.5946 169.084 35.1645 169.299 34.7234C170.689 31.876 172.905 24.8472 172.635 24.1433C172.58 24.0005 172.626 23.9054 172.75 23.9054C172.863 23.9054 173.3 23.6759 173.721 23.3956C174.142 23.1152 174.674 22.7707 174.903 22.6301C175.245 22.4203 175.304 22.2966 175.233 21.9416C174.839 19.9693 178.479 21.23 183.008 24.6343C189.671 29.6419 195.586 38.1039 200.528 49.6994C204.921 60.0049 206.073 77.4824 203.225 90.5768C201.228 99.757 199.869 113.845 198.409 140.504C197.479 157.477 196.948 165.136 196.181 172.616C195.974 174.635 195.703 177.662 195.579 179.345C194.957 187.79 194.019 195.63 192.424 205.723C191.878 209.172 191.802 209.983 191.76 212.757C191.603 223.213 187.772 229.152 180.506 230.198C179.801 230.301 178.331 230.646 177.238 230.968C168.38 233.569 158.929 234.949 145.981 235.531C135.48 236.003 132.443 236.05 127.181 235.824ZM91.1081 220.008C89.2224 212.316 88.1193 208.665 86.7929 205.723C85.3731 202.573 85.0504 202.157 85.2259 203.696C86.032 210.776 87.9747 217.344 91.1368 223.676C92.8042 227.015 92.8035 226.924 91.1081 220.008ZM87.8026 225.105C88.353 223.05 87.4729 218.728 84.9101 210.902C83.4483 206.438 82.371 202.556 82.1682 201.02C82.0352 200.014 81.897 199.929 81.3249 200.502C80.4071 201.42 80.6847 203.32 82.7515 210.27C83.3077 212.14 83.8414 214.274 83.9377 215.011C84.5032 219.341 87.3528 226.784 87.8026 225.105ZM139.63 202.332C142.419 200.484 142.053 195.096 139.022 193.379C136.293 191.833 134.827 195.202 135.986 200.358C136.506 202.672 137.943 203.45 139.63 202.332ZM131.409 201.924C133.488 200.858 134.179 197.298 132.876 194.362C131.591 191.468 129.014 192.934 128.55 196.824C128.482 197.387 128.324 198.508 128.197 199.315C127.743 202.21 128.946 203.187 131.409 201.924ZM80.801 196.603C81.1343 193.933 80.4429 190.075 78.2058 182.126C77.5712 179.871 76.8395 176.945 76.5798 175.627C75.7306 171.313 74.445 169.211 75.0658 173.151C75.3673 175.064 77.0688 183.793 77.4356 185.308C77.6392 186.149 77.9831 188.27 78.2 190.023C78.7398 194.385 79.2134 196.113 80.1447 197.121C80.6063 197.62 80.6813 197.561 80.801 196.603ZM116.175 181.848C127.818 179.178 131.573 164.612 122.383 157.762C116.458 153.346 112.747 153.025 103.489 156.128C101.598 156.762 99.8951 157.379 99.7054 157.498C99.0308 157.923 97.9871 159.429 97.987 159.978C97.987 160.259 97.7169 161.16 97.3869 161.979C93.0138 172.83 104.148 184.605 116.175 181.848ZM101.426 173.511C96.8458 172.827 95.8587 168.925 99.3644 165.363C101.911 162.776 104.876 162.551 107.053 164.782C111.361 169.196 107.951 174.486 101.426 173.511ZM159.498 179.702C167.495 178.358 172.51 169.16 169.212 161.884C161.49 144.845 133.756 153.03 139.838 170.553C142.439 178.045 149.582 181.369 159.498 179.702ZM143.918 172.631C140.353 171.753 139.196 168.494 141.107 164.708C143.495 159.975 148.605 160.031 151.126 164.818C152.649 167.709 152.303 168.672 149.834 168.423C147.613 168.199 146.885 168.517 147.97 169.236C148.761 169.759 149.773 170.671 149.968 171.036C150.578 172.176 146.468 173.26 143.918 172.631ZM106.335 109.411C106.933 109.324 107.357 109.118 108.133 108.539C108.691 108.121 109.578 107.465 110.102 107.08C114.83 103.609 116.35 102.392 118.086 100.693C118.675 100.117 120.394 98.5651 121.908 97.2444C123.421 95.9237 124.941 94.5885 125.286 94.2774C125.632 93.9662 126.251 93.4134 126.662 93.0491C127.953 91.9059 130.238 89.8159 131.995 88.1717C134.058 86.2418 138.516 81.7308 138.485 81.6051C138.411 81.305 137.096 81.0539 135.511 81.0373C133.865 81.0198 133.83 81.012 133.842 80.672C133.859 80.2106 133.878 80.2131 129.397 80.1095C93.5515 79.2815 69.5325 78.0449 56.5508 76.3591C55.0389 76.1628 54.884 76.1675 54.884 76.4105C54.884 76.8358 56.1216 78.0118 57.0998 78.5163C58.3307 79.1511 58.3492 79.4292 57.1749 79.6433C55.916 79.8728 55.9539 79.724 56.4482 82.4912C58.4311 93.5923 61.3461 96.1053 67.5002 92.0186C71.0395 89.6683 93.7189 87.2339 108.686 87.5978C111.255 87.6602 113.027 87.6336 113.883 87.5195C114.598 87.4243 115.574 87.3104 116.053 87.2663C116.532 87.2223 117.005 87.0889 117.104 86.97C117.202 86.8511 117.545 86.7539 117.866 86.7539C118.186 86.7539 118.642 86.6742 118.879 86.577C120.499 85.9112 132.836 85.6555 132.836 86.2878C132.836 86.3987 132.201 87.0041 130.729 88.2974C130.385 88.5996 128.603 89.9752 126.769 91.3542C123.989 93.4452 122.132 94.8887 121.296 95.6091C121.212 95.6814 120.293 96.6462 119.253 97.753C114.978 102.305 110.514 105.437 106.677 106.577C106.141 106.737 105.923 106.893 105.801 107.208C105.594 107.739 104.927 108.926 104.718 109.135C104.37 109.483 104.541 109.73 105.056 109.625C105.329 109.57 105.905 109.473 106.335 109.411ZM113.654 108.009C113.711 107.916 114.87 107.856 116.619 107.856C120.007 107.856 122.748 107.709 122.748 107.527C122.748 107.456 122.65 107.398 122.53 107.398C121.879 107.398 121.676 106.637 122.086 105.739C122.596 104.624 123.071 104.088 128.278 98.7578C130.332 96.6552 132.291 94.5908 132.631 94.1703C135.571 90.5323 137.941 87.0701 137.675 86.8036C137.56 86.6887 135.304 88.8013 134.959 89.3464C134.824 89.5605 134.17 90.2726 133.507 90.929C132.207 92.2157 132.131 92.2995 129.694 95.1643C128.799 96.2156 127.872 97.2822 127.634 97.5345C127.396 97.7868 126.861 98.3717 126.446 98.8343C125.079 100.356 122.571 102.787 121.449 103.675C118.929 105.671 115.037 107.638 113.807 107.537C113.392 107.503 112.507 107.716 112.507 107.85C112.507 108.172 113.47 108.306 113.654 108.009ZM148.713 107.407C148.907 107.114 149.071 107.092 151.005 107.089C153.844 107.086 155.363 106.495 154.309 105.804C154.094 105.663 153.928 105.408 153.927 105.215C153.922 104.03 153.047 103.052 152.563 103.689C151.155 105.544 150.892 105.818 150.182 106.174C145.573 108.486 142.836 103.171 145.14 96.3841C147.128 90.5309 147.287 90.0015 147.757 87.6714C147.984 86.5427 147.773 84.3237 147.433 84.2663C146.715 84.1448 143.399 94.6486 142.013 101.434C141.416 104.355 141.404 104.386 140.599 104.896C137.771 106.688 136.637 105.86 137.53 102.657C137.81 101.655 138.706 99.1719 139.116 98.2625C139.277 97.9059 139.409 97.5753 139.409 97.5277C139.409 97.4802 139.55 97.1181 139.722 96.7233C141.734 92.1245 142.207 90.4486 141.548 90.2586C139.648 89.7108 137.037 91.1712 135.896 93.4192C135.772 93.6642 135.516 94.1191 135.326 94.4304C134.895 95.139 134.144 96.5315 132.868 98.9872C131.13 102.334 130.747 102.972 129.576 104.472C128.334 106.063 127.042 106.841 124.964 107.25C123.479 107.542 123.504 107.617 125.117 107.722C129.309 107.994 148.493 107.738 148.713 107.407ZM131.492 106.626C130.837 106.363 130.502 104.995 130.866 104.079C131.587 102.268 132.556 100.761 135.907 96.2347C136.623 95.2675 137.47 94.0804 137.789 93.5969C139.489 91.0183 139.743 95.5758 138.111 99.3695C136.367 103.423 133.503 106.883 131.981 106.776C131.905 106.771 131.685 106.703 131.492 106.626ZM172.086 106.009C172.937 105.915 173.673 105.752 173.811 105.627C173.978 105.477 174.436 105.41 175.292 105.41C175.974 105.41 176.575 105.341 176.627 105.257C176.679 105.173 176.847 105.104 177 105.104C177.255 105.104 177.554 104.528 177.386 104.36C177.348 104.321 176.955 104.371 176.513 104.47C175.732 104.644 175.061 104.747 173.646 104.912C171.769 105.13 166.535 104.983 165.094 104.673C164.588 104.564 164.559 104.52 164.397 103.626C164.105 102.013 163.252 101.256 162.158 101.64C161.077 102.019 161.015 102.218 161.875 102.562C162.499 102.812 163.1 103.306 163.1 103.569C163.1 103.849 162.15 104.798 161.87 104.798C161.716 104.798 161.551 104.86 161.504 104.936C161.401 105.103 159.604 105.661 158.705 105.804C157.017 106.073 158.552 106.174 164.329 106.174C167.796 106.174 171.265 106.1 172.086 106.009ZM182.019 97.6938C182.842 97.5537 183.734 96.7635 183.734 96.1735C183.734 95.7322 183.386 95.4992 183.083 95.7368C182.894 95.8847 181.722 96.1936 181.289 96.2098C181.163 96.2143 180.769 96.2651 180.415 96.3225C178.07 96.7011 171.548 94.633 168.498 92.5436C168.147 92.3029 167.819 92.106 167.771 92.106C167.628 92.106 166.119 91.0328 165.66 90.6054C164.079 89.1322 167.035 88.9898 170.895 90.3531C173.336 91.2151 173.657 91.3395 174.312 91.6782C175.324 92.2008 175.441 92.2517 176.52 92.6332C179.003 93.512 179.209 93.3021 177.238 91.9013C174.303 89.8153 171.18 88.523 170.009 88.9095C168.74 89.3287 165.84 88.5719 163.1 87.1065C158.193 84.482 156.336 84.006 158.01 85.8015C160.253 88.2077 163.162 90.8923 164.996 92.2486C166.136 93.0918 167.691 94.155 167.991 94.2959C168.117 94.355 168.53 94.5835 168.908 94.8034C169.79 95.316 172.709 96.6281 173.455 96.8474C174.914 97.276 175.643 97.4484 176.41 97.5456C176.865 97.6036 177.322 97.6952 177.425 97.7495C177.671 97.879 181.18 97.8363 182.019 97.6938ZM164.017 75.1818C164.395 75.1497 165.014 75.0922 165.393 75.054C166.128 74.9795 168.397 74.5203 169.902 74.1415C170.406 74.0146 172.573 73.6707 174.716 73.3776C182.641 72.2935 184.986 71.4095 186.956 68.7638C187.818 67.6051 187.822 67.4565 187.026 65.9128C185.433 62.8236 187.105 61.8718 190.842 63.7412C192.151 64.3966 192.141 64.3965 192.141 63.749C192.141 63.1614 192.024 63.0508 191.235 62.8889C186.941 62.0073 184.957 58.7588 187.211 56.3005C187.617 55.8589 187.584 55.3732 187.006 53.3035C186.752 52.392 186.605 52.3397 185.866 52.898C185.576 53.1166 185.041 53.4261 184.677 53.5859C184.015 53.8765 184.015 53.8765 184.692 54.5537C186.85 56.7129 184.121 59.3854 179.454 59.6829C176.397 59.8778 176.133 59.972 177.516 60.3743C179.853 61.054 180.202 62.5089 178.256 63.4556C176.443 64.3372 176.524 64.4046 178.778 63.8903C182.392 63.0657 185.172 63.1859 185.522 64.1823C186.486 66.9268 184.608 69.7386 180.83 71.208C179.926 71.5595 179.385 71.7241 177.544 72.2074C176.613 72.452 173.925 72.863 173.837 72.7745C173.794 72.7315 173.644 72.7576 173.505 72.8324C173.365 72.9073 172.703 73.0139 172.035 73.0691C168.121 73.393 166.057 73.6658 161.69 74.436C159.272 74.8624 158.973 74.9404 158.973 75.1434C158.973 75.2918 161.973 75.425 162.794 75.313C163.088 75.2731 163.639 75.2139 164.017 75.1818ZM177.061 53.4482C177.663 53.0449 178.947 52.191 179.914 51.5508C182.97 49.5286 185.051 47.3497 185.484 45.7169C185.599 45.2849 185.738 44.8193 185.793 44.6824C185.961 44.2631 185.398 42.7474 185.197 43.0786C184.274 44.6018 183.579 45.4734 182.21 46.827C179.936 49.0735 179.108 49.8519 178.832 50.0008C178.377 50.2462 175.914 53.0367 175.697 53.5515C175.27 54.5664 175.408 54.556 177.061 53.4482ZM68.0289 64.756C68.0289 64.5999 68.2593 64.1697 68.5408 63.8003C69.2477 62.8725 69.5574 62.2304 69.5574 61.6922C69.5574 61.0944 69.3536 61.1713 73.0142 60.3887C81.2045 58.6378 84.7125 58.1878 90.9824 58.0837C124.055 57.5342 133.762 57.2307 144.274 56.417C146.948 56.21 146.944 56.2086 147.678 57.3672C149.266 59.8717 144.771 61.5178 137.804 60.9836C137.131 60.9319 133.933 60.8698 130.696 60.8455C124.812 60.8011 124.812 60.8011 121.616 60.1574C116.951 59.2175 115.585 59.2721 114.242 60.4517C113.613 61.0051 113.814 61.0031 112.304 60.4707C108.487 59.1247 103.765 59.0423 96.1528 60.1887C93.5888 60.575 90.5968 60.9667 89.5039 61.0594C83.8258 61.5411 78.5008 62.5256 71.6699 64.3564C68.83 65.1176 68.0289 65.2056 68.0289 64.756Z" fill="#F3D71D"/>
<path d="M127.181 235.824C109.373 235.063 96.9912 232.692 87.1097 228.157C85.6675 227.495 85.8839 227.938 84.3282 222.459C81.619 212.919 79.5597 204.276 77.3537 193.183C76.2354 187.561 75.7116 185.21 73.1291 174.222C68.4949 154.505 66.7349 145.439 65.7222 136.069C65.4657 133.696 65.9275 130.452 66.6529 129.529C67.0824 128.983 67.0911 127.588 66.6658 127.477C66.4176 127.412 66.3561 127.203 66.2653 126.113C66.19 125.208 66.0727 124.716 65.8707 124.459C65.6759 124.211 65.5833 123.846 65.5833 123.324C65.5833 122.901 65.5145 122.512 65.4305 122.46C65.3386 122.403 65.2776 121.365 65.2776 119.86C65.2776 118.355 65.2166 117.317 65.1248 117.261C65.0407 117.209 64.9719 117.304 64.9719 117.472C64.9719 119.357 63.6179 115.924 62.8287 112.038C60.8032 102.065 57.4789 92.1551 58.2437 98.3694C58.5127 100.556 59.0085 102.705 60.4319 107.856C62.104 113.908 62.8657 118.193 62.5257 119.634C62.0397 121.693 58.8994 109.325 57.0895 98.2226C56.6302 95.4051 55.9405 91.1732 55.5569 88.8183C54.6997 83.5563 53.9024 79.6048 52.813 75.2193C51.7225 70.8297 51.7534 70.1177 53.1085 68.3911C55.9018 64.8323 64.0986 62.0655 64.9847 64.3824C65.592 65.9705 63.8021 67.0707 58.9345 68.1011C54.7157 68.9939 54.3255 69.6325 56.6157 71.8952C58.9054 74.1574 72.1859 76.1795 87.899 76.6581C115.729 77.5057 133.372 77.7288 138.339 77.2961C139.558 77.1899 141.291 77.0629 142.19 77.0138C143.825 76.9248 143.825 76.9248 143.75 76.5255C143.694 76.223 143.824 75.9408 144.287 75.3617C144.624 74.9411 145.125 74.2874 145.403 73.909C146.404 72.5413 148.009 72.1137 148.658 73.0413C149.088 73.6553 148.889 73.8308 148.415 73.2557C147.663 72.3428 146.523 72.7086 145.446 74.2085C145.194 74.5598 144.764 75.1242 144.491 75.4629C143.427 76.7816 144.393 77.716 146.263 77.1769C147.585 76.796 148.732 75.443 148.732 74.2656C148.732 73.9859 148.783 73.8986 148.886 74.0013C149.321 74.437 148.251 76.4279 147.324 76.9075C146.697 77.2318 146.877 77.3317 148.324 77.4623C149.011 77.5242 149.967 77.6166 150.448 77.6673C151.905 77.821 153.015 77.2947 152.403 76.7405C151.055 75.5199 153.592 73.058 157.521 71.7741C158.109 71.5817 158.656 71.3641 158.736 71.2904C158.816 71.2167 158.99 71.1565 159.123 71.1565C159.624 71.1565 161.058 70.0451 162.648 68.4248C164.271 66.7705 165.019 66.1437 165.178 66.3034C165.223 66.3483 164.997 66.5788 164.676 66.8155C162.304 68.5656 162.206 69.2392 164.496 68.0486C167.824 66.3182 169.212 65.9627 168.134 67.1164C166.75 68.598 162.176 70.7832 161.622 70.2281C161.505 70.1119 161.216 70.2196 160.621 70.6C160.161 70.8945 159.103 71.3744 158.271 71.6664C155.413 72.6682 154.67 73.086 153.015 74.6188C147.721 79.5224 176.157 77.4815 191.779 71.8366C194.4 70.8898 194.9 70.3248 194.69 68.5503C194.329 65.5001 188.364 61.698 186.721 63.4709C186.329 63.8933 186.169 63.7763 186.524 63.3273C187.134 62.5546 188.786 62.7129 190.842 63.7413C192.152 64.397 192.141 64.397 192.141 63.7454C192.141 63.1762 191.846 62.9085 191.195 62.8877C190.852 62.8767 189.488 62.3214 189.748 62.2987C189.819 62.2924 190.258 62.3981 190.723 62.5332C194.028 63.4943 195.255 61.835 193.668 58.5522C193.503 58.2095 193.027 56.5874 192.612 54.9474C190.433 46.3425 186.008 37.0566 184.087 37.0562C183.633 37.0562 183.642 37.0782 182.885 34.1506C181.585 29.1263 180.626 27.2773 178.772 26.2221C174.743 23.9291 173.758 19.7612 177.62 21.3538C185.91 24.7716 194.36 35.2278 200.528 49.6994C204.921 60.0049 206.073 77.4825 203.225 90.5768C201.228 99.757 199.869 113.845 198.409 140.504C197.479 157.477 196.948 165.136 196.181 172.616C195.974 174.635 195.703 177.663 195.579 179.345C194.957 187.79 194.019 195.63 192.424 205.723C191.878 209.172 191.802 209.983 191.76 212.757C191.603 223.213 187.772 229.152 180.506 230.198C179.801 230.301 178.331 230.646 177.238 230.968C168.38 233.569 158.929 234.949 145.981 235.531C135.48 236.003 132.443 236.05 127.181 235.824ZM91.1081 220.008C89.2224 212.316 88.1193 208.665 86.7929 205.723C85.3731 202.573 85.0504 202.157 85.2259 203.696C86.032 210.776 87.9747 217.344 91.1368 223.676C92.8042 227.015 92.8035 226.924 91.1081 220.008ZM87.8026 225.105C88.353 223.05 87.4729 218.728 84.9101 210.902C83.4483 206.438 82.371 202.556 82.1682 201.02C82.0352 200.014 81.897 199.929 81.3249 200.502C80.4071 201.42 80.6847 203.32 82.7515 210.27C83.3077 212.141 83.8414 214.274 83.9377 215.011C84.5032 219.341 87.3528 226.784 87.8026 225.105ZM139.63 202.332C142.419 200.484 142.053 195.096 139.022 193.379C136.293 191.833 134.827 195.202 135.986 200.358C136.506 202.672 137.943 203.45 139.63 202.332ZM131.409 201.924C133.488 200.858 134.179 197.298 132.876 194.362C131.591 191.468 129.014 192.934 128.55 196.824C128.482 197.387 128.324 198.508 128.197 199.315C127.743 202.21 128.946 203.187 131.409 201.924ZM80.801 196.603C81.1343 193.933 80.4429 190.075 78.2058 182.126C77.5712 179.871 76.8395 176.945 76.5798 175.627C75.7306 171.313 74.445 169.211 75.0658 173.151C75.3673 175.064 77.0688 183.793 77.4356 185.308C77.6392 186.149 77.9831 188.27 78.2 190.023C78.7398 194.385 79.2134 196.113 80.1447 197.121C80.6063 197.62 80.6813 197.561 80.801 196.603ZM116.175 181.848C127.818 179.178 131.573 164.612 122.383 157.762C116.458 153.346 112.747 153.025 103.489 156.128C101.598 156.762 99.8951 157.379 99.7054 157.498C99.0308 157.923 97.9871 159.429 97.987 159.978C97.987 160.259 97.7169 161.16 97.3869 161.979C93.0138 172.83 104.148 184.605 116.175 181.848ZM101.426 173.511C96.8458 172.827 95.8587 168.925 99.3644 165.363C101.911 162.776 104.876 162.552 107.053 164.782C111.361 169.196 107.951 174.486 101.426 173.511ZM159.498 179.702C167.495 178.358 172.51 169.16 169.212 161.884C161.49 144.845 133.756 153.03 139.838 170.553C142.439 178.045 149.582 181.369 159.498 179.702ZM143.918 172.631C140.353 171.753 139.196 168.494 141.107 164.708C143.495 159.975 148.605 160.031 151.126 164.818C152.649 167.709 152.303 168.672 149.834 168.423C147.613 168.199 146.885 168.517 147.97 169.236C148.761 169.759 149.773 170.671 149.968 171.036C150.578 172.176 146.468 173.26 143.918 172.631ZM106.337 109.411C106.94 109.323 107.356 109.121 108.13 108.538C108.684 108.121 109.535 107.49 110.02 107.136C112.688 105.191 114.983 103.444 115.794 102.742C116.845 101.831 117.093 101.664 117.093 101.865C117.093 101.944 116.697 102.33 116.214 102.723C115.731 103.116 115.216 103.536 115.07 103.656C114.663 103.99 111.798 106.124 110.155 107.317C108.394 108.597 108.373 108.667 109.794 108.566C111.805 108.423 112.224 108.32 112.12 107.993C112.015 107.662 112.64 107.34 113.185 107.444C113.433 107.491 113.392 107.53 112.998 107.624C112.722 107.69 112.521 107.821 112.551 107.915C112.628 108.147 113.422 108.226 113.626 108.021C113.733 107.915 114.807 107.856 116.641 107.856C120.01 107.856 122.748 107.709 122.748 107.527C122.748 107.456 122.65 107.398 122.53 107.398C122.285 107.398 121.831 106.993 121.831 106.775C121.831 106.697 121.969 106.771 122.137 106.939C122.354 107.156 122.646 107.245 123.147 107.245C123.686 107.245 123.832 107.295 123.769 107.458C123.545 108.041 148.318 107.986 148.713 107.402C148.906 107.116 149.085 107.092 151.005 107.089C153.844 107.086 155.363 106.495 154.309 105.804C154.094 105.664 153.928 105.408 153.927 105.215C153.927 105.028 153.758 104.513 153.552 104.072C153.347 103.63 153.24 103.269 153.316 103.269C153.512 103.269 153.628 103.496 154.009 104.628C154.338 105.604 154.367 105.638 155.017 105.805C155.668 105.972 155.674 105.979 155.228 106.053C154.976 106.094 155.389 106.13 156.145 106.131C157.111 106.133 157.361 106.1 156.986 106.021C156.692 105.959 156.498 105.9 156.554 105.888C156.611 105.877 157.193 105.794 157.847 105.703C159.912 105.416 161.39 104.87 161.447 104.374C161.49 103.998 161.554 103.957 162.104 103.957C163.171 103.957 162.906 102.931 161.785 102.721C161.228 102.616 160.877 102.303 161.033 102.051C161.184 101.806 162.027 101.406 162.231 101.483C162.334 101.522 162.28 101.596 162.106 101.656C161.146 101.987 161.079 102.243 161.869 102.559C162.498 102.811 163.1 103.305 163.1 103.569C163.1 103.849 162.15 104.798 161.87 104.798C161.716 104.798 161.551 104.86 161.504 104.936C161.401 105.103 159.604 105.661 158.705 105.804C157.017 106.073 158.552 106.174 164.329 106.174C170.714 106.174 173.374 106.021 173.811 105.627C173.978 105.477 174.436 105.41 175.292 105.41C175.974 105.41 176.575 105.341 176.627 105.257C176.679 105.173 176.847 105.104 177 105.104C177.255 105.104 177.554 104.528 177.386 104.36C177.348 104.321 176.955 104.366 176.513 104.459C174.905 104.796 174.716 104.82 174.716 104.69C174.716 104.618 175.207 104.468 175.807 104.357C181.142 103.369 185.235 100.381 186.95 96.2199C187.188 95.6423 187.88 94.2567 188.487 93.1409C192.2 86.3169 194.368 80.4201 193.814 78.6541C193.747 78.4412 193.652 78.0209 193.603 77.7202C193.431 76.68 193.346 76.6457 191.529 76.8875C183.408 77.9684 167.626 79.5846 157.979 80.3232C151.205 80.8419 141.988 81.3983 140.13 81.4008C139.399 81.4017 139.399 81.4017 136.696 83.9942C133.314 87.2384 133.031 87.2521 136.261 84.0155C137.59 82.6834 138.619 81.559 138.547 81.5167C138.053 81.2283 136.22 80.9413 135.105 80.9778C133.865 81.0183 133.83 81.0099 133.842 80.672C133.859 80.2106 133.878 80.2131 129.397 80.1096C93.5515 79.2815 69.5325 78.0449 56.5508 76.3591C55.0389 76.1628 54.884 76.1675 54.884 76.4105C54.884 76.8358 56.1216 78.0119 57.0998 78.5163C58.3307 79.1511 58.3492 79.4292 57.1749 79.6433C55.916 79.8728 55.9539 79.7241 56.4482 82.4912C58.4311 93.5923 61.3461 96.1053 67.5002 92.0187C71.0395 89.6683 93.7189 87.2339 108.686 87.5979C111.255 87.6602 113.027 87.6336 113.883 87.5196C114.598 87.4243 115.574 87.3104 116.053 87.2663C116.532 87.2223 117.005 87.089 117.104 86.9701C117.202 86.8512 117.545 86.7539 117.866 86.7539C118.186 86.7539 118.642 86.6742 118.879 86.577C120.499 85.9112 132.836 85.6555 132.836 86.2878C132.836 86.3987 132.201 87.0041 130.729 88.2974C130.385 88.5996 128.603 89.9752 126.769 91.3542C123.989 93.4452 122.132 94.8887 121.296 95.6091C121.212 95.6815 120.293 96.6462 119.253 97.753C114.978 102.305 110.514 105.437 106.677 106.577C106.141 106.737 105.923 106.893 105.801 107.208C105.594 107.739 104.927 108.926 104.718 109.135C104.37 109.483 104.541 109.73 105.056 109.625C105.329 109.57 105.906 109.473 106.337 109.411ZM68.0289 64.756C68.0289 64.5999 68.2593 64.1697 68.5408 63.8003C69.2477 62.8726 69.5574 62.2305 69.5574 61.6922C69.5574 61.0944 69.3536 61.1714 73.0142 60.3887C81.2045 58.6378 84.7125 58.1878 90.9824 58.0837C124.055 57.5342 133.762 57.2307 144.274 56.417C146.948 56.21 146.944 56.2086 147.678 57.3673C149.266 59.8717 144.771 61.5179 137.804 60.9836C137.131 60.9319 133.933 60.8698 130.696 60.8455C124.812 60.8012 124.812 60.8012 121.616 60.1574C116.951 59.2176 115.585 59.2721 114.242 60.4517C113.613 61.0051 113.814 61.0032 112.304 60.4707C108.487 59.1247 103.765 59.0423 96.1528 60.1887C93.5888 60.575 90.5968 60.9668 89.5039 61.0594C83.8258 61.5411 78.5008 62.5256 71.6699 64.3564C68.83 65.1177 68.0289 65.2056 68.0289 64.756Z" fill="#D5AD2D"/>
<path d="M127.181 235.824C109.373 235.063 96.9912 232.692 87.1097 228.157C85.6675 227.495 85.8839 227.938 84.3282 222.459C81.619 212.919 79.5597 204.276 77.3537 193.184C76.2354 187.561 75.7116 185.21 73.1291 174.222C68.495 154.505 66.7349 145.439 65.7222 136.069C65.4657 133.696 65.9275 130.452 66.6529 129.529C67.0824 128.983 67.0911 127.588 66.6658 127.477C66.4176 127.412 66.3561 127.203 66.2653 126.113C66.19 125.208 66.0727 124.716 65.8707 124.459C65.6759 124.211 65.5833 123.846 65.5833 123.324C65.5833 122.901 65.5145 122.512 65.4305 122.46C65.3386 122.403 65.2776 121.365 65.2776 119.86C65.2776 118.355 65.2166 117.317 65.1248 117.261C65.0407 117.209 64.9719 117.304 64.9719 117.472C64.9719 119.357 63.6179 115.924 62.8287 112.038C60.8032 102.065 57.4789 92.1551 58.2437 98.3694C58.5127 100.556 59.0085 102.705 60.4319 107.856C62.104 113.908 62.8657 118.193 62.5257 119.634C62.0397 121.693 58.8994 109.325 57.0895 98.2226C56.6302 95.4052 55.9405 91.1732 55.5569 88.8183C54.6997 83.5563 53.9024 79.6048 52.813 75.2193C51.7225 70.8297 51.7534 70.1177 53.1085 68.3912C55.9018 64.8323 64.0986 62.0655 64.9847 64.3825C65.592 65.9705 63.8021 67.0707 58.9345 68.1009C54.7157 68.994 54.3255 69.6325 56.6157 71.8952C58.9054 74.1575 72.1859 76.1795 87.8991 76.6581C115.705 77.505 133.362 77.7287 138.339 77.297C143.254 76.8707 143.55 76.8734 144.372 77.3554C145.105 77.7849 145.105 77.7849 146.04 77.5527C146.975 77.3201 147.199 77.3259 150.46 77.668C151.169 77.7424 151.511 77.6943 152.171 77.4261C152.903 77.1288 153.061 77.1129 153.577 77.2845C154.648 77.6409 164.854 77.538 168.449 77.1347C178.447 76.0133 190.281 73.2823 194.216 71.1886C194.679 70.9423 197.723 70.2041 199.707 69.8572C201.612 69.5241 202.843 69.2304 203.757 68.8909C204.598 68.5788 204.598 68.5788 204.697 69.9058C205.136 75.8056 204.479 85.3263 203.298 90.1945C202.988 91.4712 202.623 93.5087 202.08 96.9993C201.903 98.1347 201.683 99.214 201.591 99.3976C201.499 99.5813 201.465 99.8908 201.516 100.085C201.567 100.28 201.439 101.816 201.232 103.498C200.144 112.349 199.46 121.326 198.409 140.504C197.479 157.477 196.948 165.136 196.181 172.616C195.974 174.635 195.703 177.663 195.579 179.345C194.957 187.79 194.019 195.63 192.424 205.723C191.878 209.172 191.802 209.983 191.76 212.757C191.603 223.213 187.772 229.152 180.506 230.198C179.801 230.301 178.331 230.646 177.238 230.968C168.38 233.569 158.929 234.95 145.981 235.531C135.48 236.003 132.443 236.05 127.181 235.824ZM91.1081 220.008C89.2224 212.316 88.1193 208.665 86.7929 205.723C85.3731 202.573 85.0504 202.157 85.2259 203.696C86.032 210.777 87.9747 217.344 91.1368 223.677C92.8042 227.015 92.8035 226.924 91.1081 220.008ZM87.8026 225.105C88.353 223.05 87.4729 218.728 84.9101 210.902C83.4483 206.438 82.371 202.556 82.1682 201.02C82.0352 200.014 81.897 199.929 81.3249 200.502C80.4071 201.42 80.6847 203.32 82.7515 210.27C83.3077 212.141 83.8414 214.274 83.9377 215.011C84.5032 219.341 87.3528 226.784 87.8026 225.105ZM139.63 202.332C142.419 200.484 142.053 195.097 139.022 193.379C136.293 191.833 134.827 195.202 135.986 200.358C136.506 202.672 137.943 203.45 139.63 202.332ZM131.409 201.924C133.488 200.858 134.179 197.298 132.876 194.362C131.591 191.468 129.014 192.934 128.55 196.824C128.482 197.387 128.324 198.508 128.197 199.315C127.743 202.21 128.946 203.187 131.409 201.924ZM80.801 196.603C81.1343 193.933 80.4429 190.075 78.2058 182.126C77.5712 179.871 76.8395 176.945 76.5798 175.627C75.7306 171.313 74.445 169.211 75.0659 173.152C75.3673 175.064 77.0688 183.793 77.4356 185.308C77.6392 186.149 77.9831 188.27 78.2 190.023C78.7398 194.385 79.2134 196.113 80.1447 197.121C80.6063 197.62 80.6813 197.562 80.801 196.603ZM126.762 191.654C128.319 190.815 129.908 190.431 131.829 190.433C133.306 190.434 134.421 190.585 138.644 191.365C143.799 192.316 146.829 191.601 146.471 189.514C145.661 184.787 143.259 183.75 135.881 184.941C131.578 185.636 128.462 185.669 126.711 185.038C125.327 184.539 125.412 184.542 124.385 184.928C120.672 186.318 120.835 190.744 124.644 191.953C125.156 192.116 125.588 192.252 125.602 192.257C125.617 192.261 126.139 191.991 126.762 191.654ZM116.175 181.848C127.818 179.178 131.573 164.612 122.383 157.762C116.458 153.346 112.747 153.025 103.489 156.128C101.598 156.762 99.8951 157.379 99.7054 157.498C99.0308 157.923 97.9871 159.429 97.987 159.978C97.987 160.259 97.7169 161.16 97.3869 161.979C93.0138 172.83 104.148 184.605 116.175 181.848ZM101.426 173.511C96.8458 172.827 95.8587 168.925 99.3644 165.363C101.911 162.776 104.876 162.552 107.053 164.782C111.361 169.196 107.951 174.486 101.426 173.511ZM159.498 179.702C167.495 178.358 172.51 169.16 169.212 161.884C161.49 144.845 133.756 153.03 139.838 170.553C142.439 178.045 149.582 181.369 159.498 179.702ZM143.918 172.631C140.353 171.753 139.196 168.494 141.107 164.708C143.495 159.975 148.605 160.031 151.126 164.818C152.649 167.709 152.303 168.672 149.834 168.423C147.613 168.199 146.885 168.517 147.97 169.236C148.761 169.759 149.773 170.671 149.968 171.036C150.578 172.176 146.468 173.26 143.918 172.631ZM105.467 109.543C105.62 109.462 106.173 109.378 106.697 109.357C107.465 109.327 107.671 109.265 107.755 109.036C107.847 108.788 108.07 108.746 109.534 108.702C111.735 108.635 112.607 108.512 113.348 108.165C114.01 107.855 120.372 107.606 124.582 107.726C132.07 107.938 148.503 107.723 148.711 107.41C148.908 107.114 149.066 107.092 151.005 107.089C153.184 107.087 154.073 106.913 154.436 106.416C154.621 106.163 155.143 106.147 162.573 106.165C170.665 106.185 173.334 106.057 173.811 105.627C173.978 105.477 174.436 105.41 175.292 105.41C175.974 105.41 176.575 105.341 176.627 105.257C176.687 105.159 178.945 105.104 182.897 105.104C188.85 105.104 189.079 105.093 189.232 104.808C189.369 104.551 189.613 104.5 191.033 104.429C194.412 104.26 195.271 104.165 195.53 103.932C195.728 103.753 196.118 103.712 197.279 103.746C198.773 103.789 198.773 103.789 198.959 103.108C199.06 102.734 199.282 102.049 199.45 101.587C199.695 100.915 199.778 100.175 199.863 97.9168C199.979 94.8265 200.087 93.841 200.497 92.106C200.826 90.7145 200.834 81.4349 200.51 77.8083C200.307 75.545 196.133 74.695 193.043 76.2876C192.533 76.5505 180.158 78.0181 170.589 78.9505C160.915 79.8932 148.711 80.7887 142.16 81.0366C140.417 81.1026 139.344 81.209 139.079 81.3425C138.733 81.5175 138.556 81.5095 137.857 81.2875C137.308 81.1132 136.511 81.0265 135.435 81.0237C133.865 81.0196 133.83 81.0119 133.842 80.672C133.859 80.2107 133.878 80.2131 129.397 80.1096C93.5515 79.2815 69.5325 78.0449 56.5508 76.3592C55.0389 76.1628 54.884 76.1676 54.884 76.4105C54.884 76.8358 56.1216 78.0119 57.0998 78.5163C58.3307 79.1511 58.3492 79.4293 57.1749 79.6433C55.916 79.8727 55.9539 79.7241 56.4482 82.4912C58.4311 93.5923 61.3461 96.1054 67.5002 92.0187C71.0396 89.6684 93.7189 87.2339 108.686 87.5979C111.255 87.6603 113.027 87.6337 113.883 87.5196C114.598 87.4243 115.574 87.3104 116.053 87.2664C116.532 87.2223 117.005 87.089 117.104 86.97C117.202 86.8512 117.545 86.7539 117.866 86.7539C118.186 86.7539 118.642 86.6743 118.879 86.577C120.499 85.9112 132.836 85.6555 132.836 86.2878C132.836 86.3987 132.201 87.0041 130.729 88.2975C130.385 88.5996 128.603 89.9753 126.769 91.3543C123.989 93.4452 122.132 94.8888 121.296 95.6091C121.212 95.6815 120.293 96.6462 119.253 97.753C114.978 102.305 110.514 105.437 106.677 106.577C106.141 106.737 105.923 106.893 105.801 107.208C105.594 107.739 104.927 108.926 104.718 109.135C104.274 109.579 104.832 109.883 105.467 109.543ZM68.0289 64.756C68.0289 64.5999 68.2593 64.1698 68.5408 63.8003C69.2477 62.8726 69.5574 62.2305 69.5574 61.6922C69.5574 61.0945 69.3536 61.1714 73.0142 60.3888C81.2045 58.6379 84.7125 58.1878 90.9824 58.0837C124.055 57.5343 133.762 57.2307 144.274 56.4171C146.948 56.21 146.944 56.2086 147.678 57.3673C149.266 59.8717 144.771 61.5179 137.804 60.9834C137.131 60.9319 133.933 60.8698 130.696 60.8455C124.812 60.8012 124.812 60.8012 121.616 60.1574C116.951 59.2176 115.585 59.2722 114.242 60.4518C113.613 61.0052 113.814 61.0032 112.304 60.4707C108.487 59.1247 103.765 59.0423 96.1528 60.1887C93.5888 60.575 90.5968 60.9668 89.5039 61.0594C83.8258 61.5411 78.5008 62.5256 71.6699 64.3565C68.83 65.1177 68.0289 65.2056 68.0289 64.756Z" fill="#28A8DD"/>
<path d="M127.181 235.824C109.373 235.063 96.9912 232.692 87.1097 228.157C85.6675 227.495 85.8839 227.938 84.3282 222.459C81.619 212.919 79.5597 204.276 77.3537 193.184C76.2354 187.561 75.7116 185.21 73.1291 174.222C68.495 154.505 66.7349 145.439 65.7222 136.069C65.4387 133.447 65.9657 130.235 66.8195 129.381C67.377 128.823 67.4504 127.768 66.9633 127.314C66.7405 127.106 66.6252 126.704 66.5208 125.77C66.4397 125.045 66.2815 124.397 66.1493 124.248C65.8562 123.918 65.7422 122.95 65.6117 119.681C65.5541 118.237 65.4516 117.001 65.3839 116.933C65.2365 116.786 64.9775 117.157 64.9743 117.519C64.9579 119.326 63.6088 115.879 62.8287 112.038C60.8032 102.065 57.4789 92.1551 58.2437 98.3694C58.5127 100.556 59.0085 102.705 60.4319 107.856C62.104 113.908 62.8657 118.193 62.5257 119.634C62.0397 121.693 58.8994 109.325 57.0895 98.2226C56.6302 95.4052 55.9405 91.1732 55.5569 88.8183C54.6997 83.5563 53.9024 79.6048 52.813 75.2193C51.7225 70.8297 51.7534 70.1177 53.1085 68.3912C55.9018 64.8323 64.0986 62.0655 64.9847 64.3825C65.592 65.9705 63.8021 67.0707 58.9345 68.1009C54.7157 68.994 54.3255 69.6325 56.6157 71.8952C58.9054 74.1575 72.1859 76.1795 87.8991 76.6581C115.705 77.505 133.362 77.7287 138.339 77.297C143.254 76.8707 143.55 76.8734 144.372 77.3554C145.105 77.7849 145.105 77.7849 146.04 77.5527C146.975 77.3201 147.199 77.3259 150.46 77.668C151.169 77.7424 151.511 77.6943 152.171 77.4261C152.903 77.1288 153.061 77.1129 153.577 77.2845C154.648 77.6409 164.854 77.538 168.449 77.1347C178.447 76.0133 190.281 73.2823 194.216 71.1886C194.679 70.9423 197.723 70.2041 199.707 69.8572C201.612 69.5241 202.843 69.2304 203.757 68.8909C204.598 68.5788 204.598 68.5788 204.697 69.9058C205.136 75.8056 204.479 85.3263 203.298 90.1945C202.988 91.4712 202.623 93.5087 202.08 96.9993C201.903 98.1347 201.683 99.214 201.591 99.3976C201.499 99.5813 201.465 99.8908 201.516 100.085C201.567 100.28 201.439 101.816 201.232 103.498C200.144 112.349 199.46 121.326 198.409 140.504C197.479 157.477 196.948 165.136 196.181 172.616C195.974 174.635 195.703 177.663 195.579 179.345C194.957 187.79 194.019 195.63 192.424 205.723C191.878 209.172 191.802 209.983 191.76 212.757C191.603 223.213 187.772 229.152 180.506 230.198C179.801 230.301 178.331 230.646 177.238 230.968C168.38 233.569 158.929 234.95 145.981 235.531C135.48 236.003 132.443 236.05 127.181 235.824ZM91.1081 220.008C89.2224 212.316 88.1193 208.665 86.7929 205.723C85.3731 202.573 85.0504 202.157 85.2259 203.696C86.032 210.777 87.9747 217.344 91.1368 223.677C92.8042 227.015 92.8035 226.924 91.1081 220.008ZM87.8026 225.105C88.353 223.05 87.4729 218.728 84.9101 210.902C83.4483 206.438 82.371 202.556 82.1682 201.02C82.0352 200.014 81.897 199.929 81.3249 200.502C80.4071 201.42 80.6847 203.32 82.7515 210.27C83.3077 212.141 83.8414 214.274 83.9377 215.011C84.5032 219.341 87.3528 226.784 87.8026 225.105ZM139.63 202.332C142.419 200.484 142.053 195.097 139.022 193.379C136.293 191.833 134.827 195.202 135.986 200.358C136.506 202.672 137.943 203.45 139.63 202.332ZM131.409 201.924C133.488 200.858 134.179 197.298 132.876 194.362C131.591 191.468 129.014 192.934 128.55 196.824C128.482 197.387 128.324 198.508 128.197 199.315C127.743 202.21 128.946 203.187 131.409 201.924ZM80.801 196.603C81.1343 193.933 80.4429 190.075 78.2058 182.126C77.5712 179.871 76.8395 176.945 76.5798 175.627C75.7306 171.313 74.445 169.211 75.0659 173.152C75.3673 175.064 77.0688 183.793 77.4356 185.308C77.6392 186.149 77.9831 188.27 78.2 190.023C78.7398 194.385 79.2134 196.113 80.1447 197.121C80.6063 197.62 80.6813 197.562 80.801 196.603ZM126.762 191.654C128.319 190.815 129.908 190.431 131.829 190.433C133.306 190.434 134.421 190.585 138.644 191.365C143.799 192.316 146.829 191.601 146.471 189.514C145.661 184.787 143.259 183.75 135.881 184.941C131.578 185.636 128.462 185.669 126.711 185.038C125.327 184.539 125.412 184.542 124.385 184.928C120.672 186.318 120.835 190.744 124.644 191.953C125.156 192.116 125.588 192.252 125.602 192.257C125.617 192.261 126.139 191.991 126.762 191.654ZM116.175 181.848C127.818 179.178 131.573 164.612 122.383 157.762C116.307 153.234 112.434 152.977 102.539 156.447C100.464 157.174 99.4766 157.454 99.3678 157.345C99.259 157.236 99.2097 157.269 99.2097 157.452C99.2097 157.597 99.1124 157.754 98.9933 157.8C98.5418 157.973 98.0285 158.99 97.9984 159.771C97.9801 160.245 97.7453 161.089 97.3779 162.001C93.0136 172.831 104.162 184.602 116.175 181.848ZM101.426 173.511C96.8458 172.827 95.8587 168.925 99.3644 165.363C101.911 162.776 104.876 162.552 107.053 164.782C111.361 169.196 107.951 174.486 101.426 173.511ZM159.498 179.702C167.495 178.358 172.51 169.16 169.212 161.884C161.49 144.845 133.756 153.03 139.838 170.553C142.439 178.045 149.582 181.369 159.498 179.702ZM143.918 172.631C140.353 171.753 139.196 168.494 141.107 164.708C143.495 159.975 148.605 160.031 151.126 164.818C152.649 167.709 152.303 168.672 149.834 168.423C147.613 168.199 146.885 168.517 147.97 169.236C148.761 169.759 149.773 170.671 149.968 171.036C150.578 172.176 146.468 173.26 143.918 172.631ZM135.023 120.308C135.136 119.914 135.082 119.721 134.689 119.101C131.686 114.363 135.037 107.778 139.782 109.096C141.723 109.635 141.729 110.707 139.818 114.887C138.012 118.836 138.15 119.554 140.717 119.554C142.534 119.554 142.449 119.68 142.619 116.709C143.056 109.072 145.358 106.495 150.261 108.154C151.533 108.585 151.555 108.611 151.939 110.128C153.413 115.949 155.422 117.6 160.731 117.353C164.496 117.178 165.334 116.379 166.776 111.591C168.003 107.514 168.854 106.515 171.393 106.168C172.002 106.085 172.809 105.952 173.188 105.873C174.792 105.537 176.381 105.774 176.798 106.41C177.152 106.951 177.361 106.708 177.278 105.849C177.207 105.104 177.207 105.104 183.14 105.104C188.853 105.104 189.079 105.093 189.232 104.808C189.369 104.551 189.613 104.5 191.033 104.429C194.412 104.26 195.271 104.165 195.53 103.932C195.728 103.753 196.118 103.712 197.279 103.746C198.773 103.789 198.773 103.789 198.959 103.108C199.06 102.734 199.282 102.049 199.45 101.587C199.695 100.915 199.778 100.175 199.863 97.9168C199.979 94.8265 200.087 93.841 200.497 92.106C200.826 90.7145 200.834 81.4349 200.51 77.8083C200.307 75.545 196.133 74.695 193.043 76.2876C192.533 76.5505 180.158 78.0181 170.589 78.9505C160.915 79.8932 148.711 80.7887 142.16 81.0366C140.417 81.1026 139.344 81.209 139.079 81.3425C138.733 81.5175 138.556 81.5095 137.857 81.2875C137.308 81.1132 136.511 81.0265 135.435 81.0237C133.865 81.0196 133.83 81.0119 133.842 80.672C133.859 80.2107 133.878 80.2131 129.397 80.1096C93.5515 79.2815 69.5325 78.0449 56.5508 76.3592C55.0389 76.1628 54.884 76.1676 54.884 76.4105C54.884 76.8358 56.1216 78.0119 57.0998 78.5163C58.3307 79.1511 58.3492 79.4293 57.1749 79.6433C55.916 79.8727 55.9539 79.7241 56.4482 82.4912C58.4311 93.5923 61.3461 96.1054 67.5002 92.0187C70.4286 90.0739 82.2536 88.4822 99.2287 87.7474C112.761 87.1619 109.725 88.0219 91.9495 89.8095C83.1935 90.6901 79.0776 91.2588 74.8306 92.1751C73.9059 92.3747 72.6663 92.573 72.076 92.616C66.9342 92.9898 62.0248 99.1849 64.6056 102.043C65.3684 102.887 66.4718 103.268 68.5835 103.415C69.5189 103.48 70.3491 103.574 70.4283 103.623C70.5076 103.672 71.4961 103.881 72.625 104.088C75.0296 104.528 75.5198 104.694 75.6274 105.106C75.6999 105.383 75.8385 105.41 77.1988 105.41C78.5532 105.41 78.7109 105.44 78.9078 105.736C79.0889 106.009 79.3174 106.076 80.2963 106.138C81.1805 106.195 81.5311 106.284 81.7265 106.5C81.8926 106.683 82.1928 106.786 82.5641 106.786C82.8823 106.786 83.1852 106.855 83.2372 106.939C83.2892 107.023 83.6843 107.092 84.1152 107.092C84.7175 107.092 84.9833 107.171 85.2646 107.436C85.6143 107.765 85.7627 107.782 88.6618 107.829C91.4243 107.875 91.7169 107.905 91.9597 108.173C92.2365 108.48 93.7072 108.614 93.7072 108.334C93.7072 107.798 96.3457 107.352 99.7447 107.314C102.182 107.286 103.095 107.215 104.251 106.961C106.17 106.539 106.234 106.637 105.178 108.392C104.925 108.812 104.651 109.305 104.57 109.488C104.49 109.67 104.236 109.911 104.006 110.023C103.777 110.135 103.316 110.627 102.983 111.117C102.522 111.795 102.19 112.096 101.596 112.377C99.0308 113.591 96.9488 115.655 98.2893 115.655C98.6334 115.655 99.0791 115.763 99.2799 115.894C99.6111 116.112 99.6878 116.112 100.108 115.894C100.362 115.763 100.667 115.655 100.785 115.655C100.904 115.655 101.264 115.225 101.587 114.699C102.604 113.044 106.832 109.117 107.374 109.325C107.532 109.386 107.656 109.304 107.737 109.085C107.852 108.776 107.979 108.749 109.534 108.7C111.506 108.638 112.825 108.489 113.054 108.302C113.154 108.221 113.626 108.325 114.247 108.565C116.015 109.249 116.144 110.011 114.629 110.816C111.949 112.239 111.495 115.317 113.611 117.721C115.434 119.793 118.497 119.378 116.763 117.293C113.458 113.321 115.773 109.999 122.748 108.705C127.195 107.88 133.719 109.291 132.518 110.818C131.476 112.144 131.477 113.992 132.521 118.251C132.778 119.3 132.989 120.318 132.989 120.514C132.989 121.144 134.838 120.958 135.023 120.308ZM157.426 114.832C152.996 113.248 153.047 108.357 157.493 108.485C158.733 108.521 159.003 108.479 159.814 108.118C162.975 106.713 165.947 109.025 165.029 112.175C164.489 114.029 163.409 114.727 160.807 114.904C158.408 115.067 158.064 115.06 157.426 114.832ZM68.0289 64.756C68.0289 64.5999 68.2593 64.1698 68.5408 63.8003C69.2477 62.8726 69.5574 62.2305 69.5574 61.6922C69.5574 61.0945 69.3536 61.1714 73.0142 60.3888C81.2045 58.6379 84.7125 58.1878 90.9824 58.0837C124.055 57.5343 133.762 57.2307 144.274 56.4171C146.948 56.21 146.944 56.2086 147.678 57.3673C149.266 59.8717 144.771 61.5179 137.804 60.9834C137.131 60.9319 133.933 60.8698 130.696 60.8455C124.812 60.8012 124.812 60.8012 121.616 60.1574C116.951 59.2176 115.585 59.2722 114.242 60.4518C113.613 61.0052 113.814 61.0032 112.304 60.4707C108.487 59.1247 103.765 59.0423 96.1528 60.1887C93.5888 60.575 90.5968 60.9668 89.5039 61.0594C83.8258 61.5411 78.5008 62.5256 71.6699 64.3565C68.83 65.1177 68.0289 65.2056 68.0289 64.756Z" fill="#3698A6"/>
<path d="M154.637 185.538C165.484 185.538 174.278 176.74 174.278 165.888C174.278 155.036 165.484 146.238 154.637 146.238C143.79 146.238 134.996 155.036 134.996 165.888C134.996 176.74 143.79 185.538 154.637 185.538Z" fill="#F4F2ED"/>
<path d="M115.355 185.538C126.203 185.538 134.996 176.74 134.996 165.888C134.996 155.036 126.203 146.238 115.355 146.238C104.508 146.238 95.7144 155.036 95.7144 165.888C95.7144 176.74 104.508 185.538 115.355 185.538Z" fill="#F4F2ED"/>
<path d="M134.308 204.958C140.428 204.958 145.389 202.083 145.389 198.536C145.389 194.988 140.428 192.113 134.308 192.113C128.188 192.113 123.227 194.988 123.227 198.536C123.227 202.083 128.188 204.958 134.308 204.958Z" fill="#F4F2ED"/>
<path d="M130.008 235.904C109.895 234.826 100.321 233.243 90.3442 229.347C86.0051 227.652 85.9938 227.646 85.5505 226.191C82.8634 217.369 80.0608 205.941 77.7186 194.257C76.3563 187.461 75.886 185.345 73.163 173.754C66.2556 144.353 64.5181 132.277 66.8182 129.656C67.3826 129.013 67.459 127.776 66.963 127.314C66.7402 127.106 66.6249 126.704 66.5205 125.77C66.4394 125.045 66.2812 124.397 66.149 124.248C65.8554 123.918 65.7417 122.948 65.6114 119.663C65.5296 117.601 65.4578 116.989 65.2846 116.883C64.9728 116.69 64.8196 116.829 64.8139 117.308C64.7973 118.718 63.5533 115 62.828 111.373C60.6034 100.248 56.6698 90.2584 58.3355 99.9641C58.6096 101.561 59.4118 104.757 60.5947 108.964C61.6068 112.563 62.1734 115.304 62.3572 117.49C62.9428 124.455 59.2041 110.459 57.2512 98.3756C54.5751 81.8174 53.8174 77.9029 52.3379 72.9916C51.6991 70.8712 52.0042 69.7627 53.7202 67.9687C57.3308 64.194 65.5074 62.0923 64.9075 65.093C64.6599 66.3319 63.0205 67.1121 58.8666 67.9681C54.5697 68.8537 54.1345 69.5935 56.522 71.9537C58.4031 73.8135 68.6746 75.7563 80.562 76.5008C82.7727 76.6394 85.3556 76.7272 98.9037 77.1246C117.142 77.6598 133.998 77.7976 138.262 77.4465C143.22 77.0382 143.792 77.0365 144.486 77.4269C145.044 77.7405 145.185 77.7601 145.813 77.6112C146.484 77.452 147 77.4752 150.587 77.826C151.307 77.8965 151.586 77.8453 152.289 77.5124C153.009 77.1717 153.192 77.1397 153.567 77.2893C154.427 77.6323 164.996 77.5229 168.449 77.1351C178.453 76.012 190.281 73.2823 194.216 71.1888C194.679 70.9423 197.722 70.2042 199.706 69.8572C201.638 69.5196 202.857 69.2306 203.649 68.9232C204.991 68.4027 205.307 75.502 204.286 83.1505C203.727 87.3304 203.602 88.1405 203.31 89.5065C203.139 90.3055 202.903 91.4065 202.785 91.9532C201.091 99.8442 199.632 115.532 198.256 140.657C197.257 158.898 196.776 165.654 195.813 174.987C195.653 176.542 195.479 178.468 195.428 179.268C194.976 186.313 193.964 194.8 192.213 206.221C191.67 209.764 191.556 210.848 191.628 211.803C192.369 221.617 187.841 228.925 180.295 230.096C179.538 230.214 177.708 230.662 176.229 231.091C168.752 233.263 160.27 234.558 149.114 235.234C141.892 235.671 132.086 236.014 130.008 235.904ZM129.345 233.743C129.906 233.18 128.25 232.914 121.067 232.408C119.343 232.286 117.073 232.084 116.023 231.959C110.281 231.275 105.732 231.235 107.416 231.885C110.467 233.061 128.499 234.589 129.345 233.743ZM92.637 225.851C92.637 225.455 89.9082 214.52 89.217 212.145C87.9416 207.764 85.6775 202.359 85.1175 202.359C84.5937 202.359 85.893 209.796 87.1474 213.98C88.8011 219.496 92.637 227.79 92.637 225.851ZM87.9189 225.207C88.4491 222.756 87.6807 218.909 85.0657 210.922C83.6283 206.532 82.5341 202.609 82.3135 201.059C82.1724 200.066 82.0242 199.878 81.5513 200.094C80.1862 200.716 80.3969 202.901 82.492 209.841C83.0362 211.644 83.5866 213.81 83.7154 214.658C84.5408 220.086 87.4479 227.383 87.9189 225.207ZM139.578 202.533C142.014 200.988 142.44 197.451 140.52 194.719C137.335 190.19 134.057 194.649 135.961 200.923C136.537 202.823 138.056 203.499 139.578 202.533ZM131.408 202.077C134.056 200.715 134.5 195.514 132.178 193.069C130.79 191.607 128.753 193.72 128.386 197C128.309 197.693 128.179 198.545 128.099 198.895C127.379 202.011 128.827 203.405 131.408 202.077ZM80.9312 196.612C81.2865 194.312 80.5417 189.998 78.5658 182.912C77.8076 180.193 76.949 176.779 76.658 175.326C75.9506 171.793 74.7538 169.395 74.7538 171.512C74.7538 172.58 76.4501 181.816 77.2735 185.232C77.4864 186.114 77.8355 188.247 78.0494 189.972C78.6167 194.548 78.9772 195.916 79.8974 196.993C80.5885 197.8 80.7572 197.737 80.9312 196.612ZM126.78 191.654C129.504 190.159 131.79 190.07 137.803 191.226C145.769 192.757 148.957 190.446 144.983 186.024C143.356 184.214 141.654 184.018 135.74 184.96C131.793 185.588 128.392 185.642 126.951 185.097C125.198 184.434 124.096 184.665 122.743 185.977C120.43 188.221 121.977 191.598 125.621 192.258C125.646 192.263 126.167 191.991 126.78 191.654ZM116.363 181.958C118.044 181.531 118.471 181.334 121.116 179.751C129.881 174.511 129.896 161.804 121.143 156.753C120.554 156.413 119.695 155.913 119.232 155.64C115.033 153.166 110.999 153.3 102.878 156.184C101.407 156.707 100.01 157.13 99.7749 157.125C99.4576 157.118 99.3106 157.212 99.2056 157.488C99.1278 157.692 99.0053 157.86 98.9333 157.86C98.5894 157.86 97.8338 159.227 97.8338 159.85C97.8338 160.24 97.5985 161.074 97.2305 161.987C92.8277 172.912 104.402 184.993 116.363 181.958ZM101.035 173.303C96.9731 172.615 96.203 168.943 99.4085 165.548C101.888 162.923 104.665 162.671 106.857 164.871C111.326 169.358 107.809 174.451 101.035 173.303ZM159.739 179.803C169.448 177.872 173.386 167.192 167.49 158.786C158.529 146.01 136.471 153.44 139.11 168.345C140.688 177.254 149.091 181.923 159.739 179.803ZM144.056 172.535C139.817 171.694 139.04 166.499 142.615 162.898C145.768 159.722 150.249 161.553 151.709 166.614C152.164 168.19 151.882 168.41 149.547 168.295C146.855 168.163 146.641 168.408 148.338 169.682C149.683 170.691 150.085 171.205 149.799 171.549C149.1 172.393 146.01 172.923 144.056 172.535ZM144.223 135.617C145.316 135.572 146.451 135.495 146.745 135.446C147.039 135.396 147.486 135.333 147.738 135.304C147.991 135.275 148.506 135.212 148.885 135.164C149.263 135.116 149.813 135.046 150.107 135.009C150.402 134.971 150.883 134.902 151.177 134.854C151.472 134.807 151.919 134.738 152.171 134.702C152.636 134.635 154.164 134.37 156.527 133.946C166.66 132.128 173.727 128.861 181.307 122.491C181.528 122.306 182 121.913 182.357 121.619C182.714 121.325 183.296 120.808 183.652 120.472C184.007 120.136 184.762 119.447 185.329 118.943C185.897 118.438 186.722 117.681 187.163 117.261C188.74 115.755 190.431 114.228 191.853 113.024C192.221 112.712 192.729 112.281 192.981 112.065C193.233 111.85 193.764 111.417 194.16 111.103C194.664 110.703 194.91 110.382 194.98 110.028C195.071 109.575 195.129 109.528 195.552 109.569C195.922 109.605 196.063 109.536 196.21 109.245C196.313 109.042 196.506 108.814 196.638 108.74C196.809 108.645 196.879 108.375 196.879 107.809C196.879 107.129 196.929 106.989 197.223 106.86C197.412 106.777 197.587 106.564 197.613 106.386C197.638 106.209 197.822 105.989 198.021 105.898C198.319 105.762 198.402 105.576 198.49 104.845C198.549 104.357 198.648 103.888 198.709 103.804C198.771 103.72 198.893 103.376 198.982 103.04C199.071 102.703 199.281 102.049 199.45 101.587C199.695 100.915 199.778 100.176 199.863 97.9169C199.979 94.8266 200.086 93.8411 200.497 92.1061C200.826 90.7145 200.834 81.435 200.509 77.8084C200.307 75.5451 196.133 74.695 193.043 76.2877C192.533 76.5507 180.15 78.0191 170.589 78.9506C163.215 79.669 153.767 80.4088 147.051 80.7935C145.411 80.8875 142.97 81.0314 141.624 81.1134C138.439 81.3078 137.897 81.301 137.612 81.064C137.444 80.925 136.857 80.8735 135.626 80.8895C133.961 80.9112 133.882 80.8981 133.956 80.6135C134.081 80.136 133.656 80.0769 129.32 79.9707C91.3567 79.0391 70.6982 77.9717 56.3398 76.2002C54.7379 76.0026 54.7309 76.0032 54.7309 76.3392C54.7309 76.8094 56.0156 78.0996 57.014 78.632C58.1308 79.2275 58.1628 79.3651 57.2146 79.494C55.7036 79.6994 55.7477 79.4994 56.4177 83.108C58.3853 93.7051 61.6969 96.3642 67.6237 92.1059C69.4247 90.8119 79.502 89.0695 88.8158 88.4414C92.8838 88.1671 93.6428 88.1267 99.0565 87.8964C105.309 87.6305 106.817 87.6149 106.613 87.8186C106.412 88.0192 100.878 88.7973 96.2289 89.2785C82.5805 90.6913 80.7638 90.9217 75.8238 91.868C74.3526 92.1498 72.5299 92.4572 71.7733 92.5512C63.5838 93.568 60.768 102.972 68.4871 103.526C71.2426 103.723 75.5181 104.733 75.5181 105.186C75.5181 105.368 75.8132 105.41 77.1043 105.41C78.555 105.41 78.7091 105.438 78.9075 105.737C79.0887 106.01 79.3172 106.076 80.2959 106.139C81.1803 106.195 81.5309 106.284 81.7263 106.5C81.8923 106.683 82.1924 106.786 82.5637 106.786C82.8819 106.786 83.1849 106.855 83.2368 106.939C83.2888 107.023 83.6839 107.092 84.115 107.092C84.7172 107.092 84.9831 107.171 85.2642 107.436C85.6138 107.765 85.7633 107.782 88.6366 107.829C91.3177 107.873 91.6766 107.91 91.9491 108.164C92.3686 108.555 93.6908 108.637 94.0341 108.294C94.5773 107.75 96.9561 107.364 99.6147 107.388C101.81 107.408 104.307 107.174 105.361 106.848C106.075 106.628 104.519 109.696 103.757 110.013C103.525 110.109 103.335 110.265 103.333 110.36C103.324 110.898 102.373 112.011 101.615 112.369C95.0834 115.455 94.9676 122.165 101.374 126.332C105.524 129.031 106.298 129.501 108.075 130.402C112.259 132.526 117.781 134.25 122.289 134.842C122.668 134.892 123.149 134.963 123.359 135C123.808 135.081 124.959 135.218 126.034 135.319C126.454 135.358 127.142 135.426 127.563 135.468C127.983 135.51 128.962 135.564 129.737 135.587C130.513 135.61 131.178 135.66 131.215 135.696C131.303 135.785 141.68 135.722 144.223 135.617ZM68.1814 64.6797C68.1814 64.5656 68.4117 64.1698 68.6934 63.8004C69.3976 62.876 69.7099 62.2309 69.7099 61.6999C69.7099 61.3603 69.7941 61.2296 70.0538 61.1661C77.3619 59.3791 84.6831 58.3312 90.5735 58.2294C126.455 57.6085 134.041 57.3723 144.146 56.5613C146.835 56.3456 146.885 56.3574 147.519 57.3585C149.158 59.9438 146.676 60.8393 138.033 60.7815C124.225 60.689 125.176 60.7332 121.637 60.0209C116.978 59.0834 115.516 59.1478 114.089 60.3532C113.607 60.76 113.607 60.76 112.018 60.2277C108.068 58.9055 104.144 58.8802 95.6175 60.1215C92.6752 60.5499 89.3364 60.9687 88.198 61.0522C84.232 61.343 79.9172 62.144 73.2364 63.8294C68.9253 64.917 68.1814 65.0421 68.1814 64.6797Z" fill="#008ECF"/>
<path d="M130.008 235.904C109.895 234.826 100.321 233.243 90.3442 229.347C86.0051 227.652 85.9938 227.646 85.5505 226.191C82.8634 217.369 80.0608 205.941 77.7186 194.257C76.3563 187.461 75.886 185.345 73.163 173.754C66.2727 144.425 64.5148 132.239 66.8049 129.675C67.5645 128.824 68.1754 129.822 68.8481 133.011C72.6837 151.199 78.9529 175.01 83.6437 189.208C85.3984 194.519 85.1011 194.009 86.3834 193.902C87.7127 193.791 87.7341 193.837 87.0709 195.381C85.8401 198.248 86.4477 199.699 90.306 203.114C91.9421 204.562 91.7909 204.987 89.7445 204.692C88.3271 204.487 88.4222 204.288 88.9507 206.35C89.1964 207.308 89.5406 208.781 89.7156 209.622C92.4072 222.562 95.11 227.158 100.704 228.305C117.992 231.853 137.721 232.466 163.806 230.263C174.054 229.399 182.038 226.212 184.592 221.969C185.252 220.871 185.27 220.921 184.179 220.808C182.419 220.623 182.465 220.196 184.33 219.424C187.092 218.277 187.955 217.376 187.912 215.679C187.894 214.944 188 214.343 188.322 213.376C189.412 210.095 189.633 207.549 189.38 201.203C189.166 195.85 189.231 193.725 189.668 191.731C190.344 188.651 190.704 185.578 191.302 177.816C191.707 172.552 192.006 169.59 192.367 167.264C192.707 165.075 192.882 162.74 193.129 157.095C193.408 150.701 193.585 148.248 193.984 145.244C194.48 141.509 194.564 141.229 195.467 140.325C196.761 139.031 196.723 138.123 195.286 136.024C193.093 132.82 193.091 131.141 195.279 129.123C196.117 128.35 196.144 127.227 195.502 119.86C194.821 112.062 194.834 109.5 195.553 109.57C195.922 109.605 196.064 109.535 196.21 109.245C196.313 109.042 196.506 108.814 196.638 108.74C196.809 108.645 196.879 108.375 196.879 107.809C196.879 107.129 196.929 106.989 197.223 106.86C197.412 106.777 197.587 106.564 197.613 106.386C197.638 106.209 197.822 105.989 198.021 105.898C198.319 105.762 198.402 105.576 198.49 104.845C198.549 104.357 198.648 103.888 198.709 103.804C198.771 103.72 198.893 103.376 198.982 103.04C199.071 102.703 199.281 102.049 199.45 101.587C199.695 100.915 199.778 100.176 199.863 97.9169C199.979 94.8266 200.086 93.8411 200.497 92.1061C200.826 90.7145 200.834 81.435 200.509 77.8084C200.307 75.5451 196.133 74.695 193.043 76.2877C192.533 76.5507 180.15 78.0191 170.589 78.9506C163.215 79.669 153.767 80.4088 147.051 80.7935C145.411 80.8875 142.97 81.0314 141.624 81.1134C138.439 81.3078 137.897 81.301 137.612 81.064C137.444 80.925 136.857 80.8735 135.626 80.8895C133.961 80.9112 133.882 80.8981 133.956 80.6135C134.081 80.136 133.656 80.0769 129.32 79.9707C91.3567 79.0391 70.6982 77.9717 56.3398 76.2002C54.7379 76.0026 54.7309 76.0032 54.7309 76.3392C54.7309 76.8094 56.0156 78.0996 57.014 78.632C58.1308 79.2275 58.1628 79.3651 57.2146 79.494C55.7036 79.6994 55.7477 79.4994 56.4177 83.108C58.3853 93.7051 61.6969 96.3642 67.6237 92.1059C69.4247 90.8119 79.502 89.0695 88.8158 88.4414C92.8838 88.1671 93.6428 88.1267 99.0565 87.8964C105.309 87.6305 106.817 87.6149 106.613 87.8186C106.412 88.0192 100.878 88.7973 96.2289 89.2785C82.5805 90.6913 80.7638 90.9217 75.8238 91.868C74.3526 92.1498 72.5299 92.4572 71.7733 92.5512C63.5838 93.568 60.768 102.972 68.4871 103.526C69.8248 103.622 74.7558 104.554 75.2086 104.796C75.735 105.078 75.5927 105.544 74.8888 105.843C74.2595 106.11 74.2595 106.11 74.8997 106.534C75.4239 106.881 75.5069 106.998 75.3574 107.178C75.0796 107.513 74.945 107.485 70.3792 106.171C64.6422 104.519 63.405 104.398 64.9716 105.639C66.1717 106.59 66.0137 106.983 64.6034 106.555C63.3307 106.169 63.406 105.785 63.9878 109.691C64.1319 110.659 64.2439 111.708 64.2367 112.024C64.2295 112.339 64.3251 113.062 64.4492 113.629C65.028 116.275 65.0825 118.113 64.5611 117.401C64.2003 116.909 63.3288 113.878 62.828 111.373C60.6034 100.248 56.6698 90.2584 58.3355 99.9641C58.6096 101.561 59.4118 104.757 60.5947 108.964C61.6068 112.563 62.1734 115.304 62.3572 117.49C62.9428 124.455 59.2041 110.459 57.2512 98.3756C54.5751 81.8174 53.8174 77.9029 52.3379 72.9916C51.6991 70.8712 52.0042 69.7627 53.7202 67.9687C57.3308 64.194 65.5074 62.0923 64.9075 65.093C64.6599 66.3319 63.0205 67.1121 58.8666 67.9681C54.5697 68.8537 54.1345 69.5935 56.522 71.9537C58.4031 73.8135 68.6746 75.7563 80.562 76.5008C82.7727 76.6394 85.3556 76.7272 98.9037 77.1246C117.142 77.6598 133.998 77.7976 138.262 77.4465C143.22 77.0382 143.792 77.0365 144.486 77.4269C145.044 77.7405 145.185 77.7601 145.813 77.6112C146.484 77.452 147 77.4752 150.587 77.826C151.307 77.8965 151.586 77.8453 152.289 77.5124C153.009 77.1717 153.192 77.1397 153.567 77.2893C154.427 77.6323 164.996 77.5229 168.449 77.1351C178.453 76.012 190.281 73.2823 194.216 71.1888C194.679 70.9423 197.722 70.2042 199.706 69.8572C201.638 69.5196 202.857 69.2306 203.649 68.9232C204.991 68.4027 205.307 75.502 204.286 83.1505C203.727 87.3304 203.602 88.1405 203.31 89.5065C203.139 90.3055 202.903 91.4065 202.785 91.9532C201.091 99.8442 199.632 115.532 198.256 140.657C197.257 158.898 196.776 165.654 195.813 174.987C195.653 176.542 195.479 178.468 195.428 179.268C194.976 186.313 193.964 194.8 192.213 206.221C191.67 209.764 191.556 210.848 191.628 211.803C192.369 221.617 187.841 228.925 180.295 230.096C179.538 230.214 177.708 230.662 176.229 231.091C168.752 233.263 160.27 234.558 149.114 235.234C141.892 235.671 132.086 236.014 130.008 235.904ZM129.345 233.743C129.906 233.18 128.25 232.914 121.067 232.408C119.343 232.286 117.073 232.084 116.023 231.959C110.281 231.275 105.732 231.235 107.416 231.885C110.467 233.061 128.499 234.589 129.345 233.743ZM92.637 225.851C92.637 225.455 89.9082 214.52 89.217 212.145C87.9416 207.764 85.6775 202.359 85.1175 202.359C84.5937 202.359 85.893 209.796 87.1474 213.98C88.8011 219.496 92.637 227.79 92.637 225.851ZM87.9189 225.207C88.4491 222.756 87.6807 218.909 85.0657 210.922C83.6283 206.532 82.5341 202.609 82.3135 201.059C82.1724 200.066 82.0242 199.878 81.5513 200.094C80.1862 200.716 80.3969 202.901 82.492 209.841C83.0362 211.644 83.5866 213.81 83.7154 214.658C84.5408 220.086 87.4479 227.383 87.9189 225.207ZM80.9312 196.612C81.2865 194.312 80.5417 189.998 78.5658 182.912C77.8076 180.193 76.949 176.779 76.658 175.326C75.9506 171.793 74.7538 169.395 74.7538 171.512C74.7538 172.58 76.4501 181.816 77.2735 185.232C77.4864 186.114 77.8355 188.247 78.0494 189.972C78.6167 194.548 78.9772 195.916 79.8974 196.993C80.5885 197.8 80.7572 197.737 80.9312 196.612ZM114.494 211.743C114.284 211.712 113.493 211.613 112.736 211.521C111.98 211.43 109.125 210.911 106.393 210.367C100.715 209.238 97.7968 208.787 96.1483 208.784C94.323 208.78 93.7228 207.977 94.765 206.934C95.5291 206.169 97.0076 206.341 101.581 207.72C104.715 208.666 107.049 209.234 108.451 209.393C109.043 209.458 110.214 209.662 111.055 209.842C112.308 210.111 121.243 211.228 122.149 211.228C122.291 211.228 122.442 211.365 122.486 211.534C122.562 211.823 116.201 211.989 114.494 211.743ZM128.938 204.902C126.899 203.941 126.155 202.495 125.726 198.658C125.147 193.474 124.332 192.318 120.738 191.586C119.888 191.413 119.76 188.634 120.525 186.961C121.336 185.191 123.182 183.151 126.174 180.721C127.002 180.048 128.123 179.069 128.663 178.546C129.854 177.395 130.018 177.351 133.065 177.374C139.907 177.421 146.893 182.828 149.02 189.722C149.581 191.54 149.52 191.633 146.516 193.575C142.786 195.987 141.997 197.216 142.461 199.887C143.178 204.016 141.313 205.291 136.411 204.025C133.143 203.181 131.644 203.371 130.58 204.767C130.129 205.359 129.942 205.374 128.938 204.902ZM139.578 202.533C142.014 200.988 142.44 197.451 140.52 194.719C137.335 190.19 134.057 194.649 135.961 200.923C136.537 202.823 138.056 203.499 139.578 202.533ZM131.408 202.077C134.056 200.715 134.5 195.514 132.178 193.069C130.79 191.607 128.753 193.72 128.386 197C128.309 197.693 128.179 198.545 128.099 198.895C127.379 202.011 128.827 203.405 131.408 202.077ZM126.78 191.654C129.504 190.159 131.79 190.07 137.803 191.226C145.769 192.757 148.957 190.446 144.983 186.024C143.356 184.214 141.654 184.018 135.74 184.96C131.793 185.588 128.392 185.642 126.951 185.097C125.198 184.434 124.096 184.665 122.743 185.977C120.43 188.221 121.977 191.598 125.621 192.258C125.646 192.263 126.167 191.991 126.78 191.654ZM108.979 184.16C98.2513 182.343 90.9284 170.421 95.2191 161.757C96.9968 158.167 98.6915 158.362 97.2305 161.987C92.4927 173.744 107.041 186.935 118.484 181.258C129.665 175.71 131.099 162.498 121.143 156.753C120.554 156.413 119.695 155.913 119.232 155.64C115.049 153.175 111.028 153.301 102.954 156.152C100.386 157.058 100.08 157.149 99.7061 157.113C99.3703 157.082 99.4941 156.88 100.471 155.868C109.446 146.571 128.867 153.225 130.074 166.011C131.132 177.205 120.734 186.149 108.979 184.16ZM153.47 182.989C139.971 181.626 131.823 168.675 138.153 158.645C146.583 145.288 166.001 147.049 171.58 161.677C175.725 172.542 165.791 184.232 153.47 182.989ZM159.739 179.803C169.448 177.872 173.386 167.192 167.49 158.786C158.529 146.01 136.471 153.44 139.11 168.345C140.688 177.254 149.091 181.923 159.739 179.803ZM144.056 172.535C139.817 171.694 139.04 166.499 142.615 162.898C145.768 159.722 150.249 161.553 151.709 166.614C152.164 168.19 151.882 168.41 149.547 168.295C146.855 168.163 146.641 168.408 148.338 169.682C149.683 170.691 150.085 171.205 149.799 171.549C149.1 172.393 146.01 172.923 144.056 172.535ZM101.035 173.303C96.9731 172.615 96.203 168.943 99.4085 165.548C101.888 162.923 104.665 162.671 106.857 164.871C111.326 169.358 107.809 174.451 101.035 173.303ZM68.1814 64.6797C68.1814 64.5656 68.4117 64.1698 68.6934 63.8004C69.3976 62.876 69.7099 62.2309 69.7099 61.6999C69.7099 61.3603 69.7941 61.2296 70.0538 61.1661C77.3619 59.3791 84.6831 58.3312 90.5735 58.2294C126.455 57.6085 134.041 57.3723 144.146 56.5613C146.835 56.3456 146.885 56.3574 147.519 57.3585C149.158 59.9438 146.676 60.8393 138.033 60.7815C124.225 60.689 125.176 60.7332 121.637 60.0209C116.978 59.0834 115.516 59.1478 114.089 60.3532C113.607 60.76 113.607 60.76 112.018 60.2277C108.068 58.9055 104.144 58.8802 95.6175 60.1215C92.6752 60.5499 89.3364 60.9687 88.198 61.0522C84.232 61.343 79.9172 62.144 73.2364 63.8294C68.9253 64.917 68.1814 65.0421 68.1814 64.6797Z" fill="#1B6F95"/>
<path d="M129.779 235.849C109.791 234.745 99.8555 233.064 90.0038 229.119C85.9842 227.51 86.0553 227.557 85.6358 226.213C83.251 218.572 80.1873 206.054 77.726 193.898C76.2932 186.819 75.769 184.467 73.0519 172.922C66.3189 144.314 64.3006 129.647 67.0967 129.647C67.7585 129.647 67.9534 130.213 69.1764 135.687C74.1044 157.747 79.5145 178.022 83.9171 190.931C85.1639 194.586 84.9763 194.309 86.1438 194.216C87.3824 194.116 87.3722 194.093 86.7408 195.526C85.6207 198.066 86.3145 199.8 89.6684 202.842C91.5565 204.553 91.5503 204.75 89.6169 204.467C88.0861 204.244 88.1109 204.219 88.4927 205.594C88.6642 206.212 89.1533 208.299 89.5798 210.234C92.4275 223.152 95.0037 227.398 100.705 228.573C117.696 232.073 139.017 232.659 165.392 230.35C174.55 229.548 182.952 225.856 185.031 221.719C185.489 220.808 185.469 220.77 184.461 220.643C182.88 220.445 182.901 220.328 184.651 219.574C187.267 218.445 188.08 217.586 188.11 215.913C188.124 215.153 188.273 214.365 188.597 213.355C189.626 210.14 189.868 207.058 189.574 200.906C189.35 196.223 189.406 194.338 189.832 192.261C190.557 188.726 190.919 185.559 191.613 176.669C191.827 173.934 192.202 170.185 192.447 168.335C192.916 164.79 193.144 162.187 193.285 158.777C193.683 149.168 193.974 145.737 194.679 142.35C194.87 141.43 194.998 141.186 195.647 140.499C197.077 138.987 197.028 138.199 195.349 135.651C193.359 132.631 193.359 131.548 195.348 129.372C196.274 128.359 196.329 126.561 195.661 119.028C195.166 113.444 195.164 109.812 195.655 109.693C195.864 109.643 196.117 109.438 196.217 109.238C196.316 109.038 196.506 108.814 196.638 108.74C196.806 108.647 196.879 108.38 196.879 107.864C196.879 107.177 196.913 107.11 197.337 106.962C197.59 106.874 197.796 106.694 197.796 106.561C197.796 106.429 197.959 106.246 198.159 106.155C198.595 105.956 198.946 105.007 198.819 104.371C198.726 103.908 198.924 103.037 199.451 101.587C199.694 100.917 199.778 100.171 199.863 97.9168C199.979 94.8265 200.086 93.8409 200.497 92.106C200.826 90.7144 200.834 81.4349 200.51 77.8083C200.307 75.545 196.133 74.6949 193.043 76.2875C192.533 76.5504 180.157 78.0181 170.589 78.9504C160.937 79.891 148.764 80.7848 142.16 81.0379C140.688 81.0942 139.356 81.1868 139.197 81.2436C139.04 81.3003 138.558 81.2494 138.128 81.1302C136.69 80.7327 136.129 80.6622 135.09 80.7487C134.106 80.8305 134.059 80.8191 134.059 80.5016C134.059 79.9961 135.526 80.0675 110.062 79.3346C86.8146 78.6654 72.7449 77.8802 60.6156 76.575C54.1831 75.8828 54.2587 75.8788 54.879 76.8829C55.3085 77.578 56.102 78.2585 57.035 78.7315C57.956 79.1983 57.9078 79.3445 56.787 79.4847C55.6845 79.6225 55.697 79.5483 56.2549 82.6504C58.266 93.8313 61.2943 96.3887 67.5838 92.2182C69.6667 90.8371 78.9853 89.2187 88.8924 88.5176C95.0943 88.0786 105.358 87.6873 105.148 87.8977C104.939 88.1067 99.1417 88.81 90.6502 89.6565C83.228 90.3964 78.4869 91.0597 75.1362 91.8267C74.3796 92 73.1641 92.1951 72.4352 92.2602C63.5266 93.0568 60.1304 103.067 68.5477 103.718C69.4813 103.791 70.3482 103.891 70.4743 103.941C70.6004 103.991 71.6089 104.199 72.7155 104.403C75.5632 104.927 75.8578 105.144 74.508 105.723C73.6861 106.075 73.6861 106.073 74.4866 106.59C75.516 107.255 74.8425 107.198 72.0768 106.388C64.359 104.126 62.7131 103.96 64.6071 105.635C65.5011 106.425 65.4554 106.544 64.3783 106.228C63.816 106.063 63.5178 106.038 63.4076 106.149C63.2393 106.317 63.6312 109.355 64.7425 116.496C65.1215 118.931 63.6882 115.325 63.1292 112.436C61.3858 103.428 58.6284 94.845 57.8715 96.0703C57.5194 96.6402 58.5419 101.872 60.0875 107.408C61.6624 113.049 62.3734 116.538 62.3734 118.625C62.3734 122.112 58.9661 108.453 57.3409 98.452C56.9992 96.3494 56.3449 92.3239 55.8869 89.5064C54.9042 83.4619 54.1976 79.8647 53.2737 76.2027C52.3793 72.6576 52.4176 72.7919 52.2303 72.5535C51.6212 71.7785 52.2723 69.6482 53.573 68.1607C56.7254 64.5554 64.819 62.2752 64.819 64.9926C64.819 66.191 63.1023 67.0117 58.6287 67.9524C54.435 68.8341 54.0657 69.5704 56.5402 72.1166C57.3381 72.9378 57.6649 73.0612 61.4563 73.9736C69.0694 75.8056 76.8863 76.6023 90.803 76.9644C94.1236 77.0508 99.1102 77.1919 101.884 77.278C116.208 77.7221 132.342 77.8595 136.963 77.5768C142.847 77.2167 143.947 77.2057 144.599 77.4997C145.129 77.7387 145.295 77.7496 145.888 77.5835C146.262 77.4788 146.653 77.4454 146.757 77.5097C146.86 77.5737 147.571 77.6832 148.335 77.7528C149.1 77.8224 150.05 77.9216 150.446 77.9734C151.188 78.0704 152.359 77.7552 152.876 77.3193C153.07 77.155 153.214 77.1483 153.564 77.2876C154.428 77.6321 164.986 77.5239 168.449 77.135C178.453 76.0117 190.281 73.2821 194.216 71.1886C194.677 70.9433 197.71 70.2071 199.707 69.8559C201.988 69.4546 202.609 69.3094 203.422 68.9878C204.025 68.7494 204.278 68.7112 204.406 68.8395C204.831 69.264 204.913 77.9485 204.518 80.7137C204.434 81.3024 204.227 82.9195 204.058 84.3072C203.888 85.6949 203.443 88.3442 203.068 90.1945C202.501 92.9935 201.656 97.9934 201.375 100.211C200.128 110.039 199.258 120.791 198.334 137.751C197.202 158.535 196.791 164.414 195.74 174.91C195.538 176.929 195.328 179.302 195.274 180.186C194.896 186.382 193.848 195.066 192.134 206.213C191.625 209.526 191.529 210.521 191.529 212.517C191.529 223.118 187.711 228.952 180.06 230.038C179.434 230.126 178.276 230.405 177.488 230.659C169.279 233.289 157.295 234.948 142.771 235.463C141.384 235.512 139.458 235.616 138.491 235.694C135.94 235.899 131.978 235.969 129.779 235.849ZM129.268 233.85C130.817 233.261 128.342 232.803 121.06 232.33C119.754 232.244 117.504 232.041 116.062 231.876C109.734 231.153 105.788 231.137 107.105 231.844C109.29 233.012 127.205 234.634 129.268 233.85ZM92.79 226.059C92.79 223.381 87.6262 206.429 85.8151 203.161C83.8116 199.546 85.712 210.77 88.2552 217.574C90.221 222.832 92.79 227.639 92.79 226.059ZM88.0699 224.464C88.1413 220.841 87.7156 218.855 85.2175 211.151C83.4668 205.753 83.0034 204.125 82.5468 201.767C82.1456 199.696 81.9443 199.473 81.1966 200.27C80.1865 201.345 80.383 203.042 82.2378 209.264C83.3324 212.937 83.6631 214.301 83.8434 215.892C84.1459 218.56 86.2784 224.397 87.4084 225.651C87.7889 226.071 88.0475 225.608 88.0699 224.464ZM80.928 197.376C81.5632 195.72 80.7276 190.359 78.7041 183.111C77.3573 178.288 76.8811 176.364 76.5243 174.306C76.1373 172.073 74.9945 170.012 74.685 170.988C74.515 171.523 76.5184 182.802 77.2693 185.538C77.3963 185.999 77.6777 187.789 77.8946 189.513C78.6526 195.537 80.1473 199.412 80.928 197.376ZM115.106 211.581C113.555 211.463 109.907 210.851 106.164 210.082C101.417 209.107 99.6805 208.828 96.8405 208.584C94.7006 208.399 94.7006 208.399 94.6557 207.94C94.5027 206.379 96.1233 206.376 101.35 207.925C105.322 209.102 106.469 209.385 107.693 209.489C108.281 209.538 109.278 209.711 109.909 209.871C111.137 210.183 114.079 210.601 117.781 210.989C120.976 211.325 121.371 211.393 120.99 211.544C120.695 211.66 116.507 211.686 115.106 211.581ZM128.938 204.629C127.002 203.628 126.351 202.247 125.886 198.15C125.53 195.009 125.23 194.023 124.331 193.026C123.656 192.278 122.555 191.685 121.602 191.553C118.189 191.085 120.38 185.903 125.958 181.25C127.009 180.374 128.324 179.23 128.881 178.71C130.069 177.6 130.429 177.497 133.065 177.529C139.634 177.611 146.516 182.947 148.723 189.677C149.316 191.482 149.347 191.437 146.101 193.543C142.455 195.907 141.654 197.386 142.324 200.513C143 203.661 140.663 205.019 136.657 203.805C133.815 202.944 131.469 203.213 130.509 204.513C130.122 205.036 129.776 205.062 128.938 204.629ZM139.058 202.891C143.326 201.106 141.909 191.963 137.492 192.792C134.929 193.274 134.494 201.005 136.94 202.609C137.734 203.129 138.305 203.206 139.058 202.891ZM131.302 202.181C134.154 200.956 134.668 195.112 132.12 192.873C130.893 191.795 128.881 193.528 128.483 196.006C128.442 196.262 128.27 197.308 128.1 198.331C127.427 202.391 128.318 203.462 131.302 202.181ZM126.92 191.665C129.529 190.241 131.826 190.144 137.373 191.219C142.92 192.292 146.744 191.835 146.62 190.113C146.493 188.341 145.729 186.496 144.773 185.657C142.94 184.047 141.404 183.978 133.753 185.163C130.679 185.639 127.547 185.44 126.071 184.675C125.149 184.2 122.909 185.299 122.09 186.631C120.226 189.663 123.787 193.375 126.92 191.665ZM109.54 184.002C98.0776 182.2 90.3469 168.998 95.9891 160.863C97.6597 158.454 98.3037 159.024 97.1755 161.914C92.3859 174.182 107.067 187.133 118.93 181.103C130.206 175.372 131.011 162.056 120.432 156.238C119.73 155.852 118.812 155.338 118.392 155.096C114.871 153.068 110.402 153.411 102.216 156.339C99.4344 157.334 99.369 157.299 101.006 155.691C106.963 149.836 118.824 150.674 125.52 157.423C136.398 168.388 125.5 186.513 109.54 184.002ZM153.929 182.764C141.12 181.677 132.661 169.914 137.614 160.077C145.32 144.769 167.235 147.151 172.007 163.815C174.699 173.213 164.713 183.68 153.929 182.764ZM156.254 180.157C169.445 180.536 175.154 165.722 165.466 156.254C158.534 149.481 144.737 151.535 140.338 159.995C135.606 169.093 143.055 180.906 153.088 180.215C153.929 180.158 155.353 180.131 156.254 180.157ZM143.579 172.318C140.297 171.292 139.441 167.646 141.672 164.193C144.544 159.747 149.622 160.781 151.483 166.192C152.14 168.102 151.935 168.336 149.733 168.186C146.964 167.997 146.438 168.405 148.006 169.526C149.854 170.847 150.184 171.417 149.351 171.848C148.106 172.492 144.956 172.748 143.579 172.318ZM102.037 173.311C97.9339 172.909 96.5105 170.751 98.1505 167.418C100.038 163.582 104.306 162.335 106.832 164.881C110.958 169.039 108.185 173.913 102.037 173.311ZM68.2672 64.7488C68.2203 64.673 68.4888 64.2023 68.8639 63.7032C69.5942 62.7312 69.8629 62.1693 69.8629 61.6136C69.8629 61.2817 70.0409 61.2293 73.7223 60.4748C84.1141 58.3454 82.6293 58.4539 107.463 58.0125C126.404 57.6758 136.401 57.2984 144.601 56.6105C146.832 56.4234 147.42 56.6924 147.796 58.073C148.414 60.3389 146.616 60.6877 134.517 60.6488C124.231 60.6159 125.868 60.7395 119.538 59.5186C116.889 59.0076 115.044 59.2683 114.127 60.283C113.757 60.6921 113.613 60.6874 112.332 60.2252C110.041 59.3986 108.426 59.1694 104.941 59.1761C101.602 59.1827 101.193 59.2243 94.0128 60.2855C92.2894 60.5401 89.9509 60.8212 88.816 60.9099C83.8911 61.295 78.7851 62.2644 71.103 64.2722C68.5854 64.9302 68.3987 64.9615 68.2672 64.7488Z" fill="#0C0E0E"/>
</g>
<defs>
<clipPath id="clip0_842_20">
<rect width="153" height="215" fill="white" transform="translate(52 21)"/>
</clipPath>
</defs>
</svg>