<svg width="256" height="256" viewBox="0 0 256 256" fill="none" xmlns="http://www.w3.org/2000/svg" id="gitbash">
<style>
#gitbash {
    rect {fill: #242938}

    @media (prefers-color-scheme: light) {
        rect {fill: #F4F2ED}
    }
}
</style>
<rect width="256" height="256" fill="#242938" rx="60"/>
<path d="M121.692 100.547V118.82L77.7715 74.9935L92.3581 60.4332L114.515 82.5649C113.921 84.1628 113.619 85.8545 113.626 87.5591C113.617 90.2607 114.369 92.9103 115.795 95.2064C117.221 97.5025 119.264 99.3529 121.692 100.547ZM135.155 103.182L141.982 109.997L135.155 116.825V103.182ZM176.932 75.1391L150.544 101.45L141.661 92.6115C142.471 90.4419 142.741 88.1087 142.449 85.8119C142.004 82.4401 140.39 79.3303 137.888 77.0218C135.387 74.7133 132.154 73.3518 128.752 73.1735C126.82 73.072 124.889 73.3694 123.078 74.0471L100.906 51.8426L119.694 33.1471C120.691 32.1495 121.875 31.358 123.179 30.818C124.483 30.278 125.881 30 127.293 30C128.705 30 130.103 30.278 131.407 30.818C132.711 31.358 133.896 32.1495 134.893 33.1471L176.932 75.1391Z" fill="#FF8080"/>
<path d="M112.968 135.608L73.0592 175.445L33.4564 136.292C31.2161 133.966 29.9758 130.858 30.0004 127.631C30.0249 124.405 31.3123 121.316 33.5877 119.024L74.4303 78.2549L112.968 116.854C115.455 119.344 116.852 122.716 116.852 126.231C116.852 129.747 115.455 133.119 112.968 135.608Z" fill="#80B3FF"/>
<path d="M135.228 140.355V157.085C137.659 158.528 139.586 160.683 140.75 163.256C141.914 165.829 142.257 168.696 141.734 171.471C141.254 174.177 139.963 176.675 138.03 178.633C136.097 180.59 133.615 181.916 130.911 182.435C127.63 183.15 124.2 182.648 121.263 181.023C118.326 179.397 116.083 176.76 114.953 173.603C113.823 170.446 113.884 166.987 115.125 163.872C116.365 160.756 118.699 158.199 121.692 156.677V138.186C121.667 137.923 121.571 137.671 121.414 137.458C121.257 137.245 121.045 137.079 120.801 136.977C120.557 136.876 120.289 136.842 120.027 136.881C119.765 136.919 119.519 137.028 119.314 137.196L77.4941 178.926L120.525 221.879C122.53 223.877 125.247 225 128.081 225C130.914 225 133.632 223.877 135.637 221.879L176.231 181.43L135.228 140.355Z" fill="#FFE680"/>
<path d="M220.617 138.404L181.904 177.062L140.215 135.448C137.876 133.111 136.563 129.943 136.562 126.639C136.562 123.336 137.876 120.167 140.215 117.83L145.015 112.996L155.648 123.582C154.508 126.671 154.46 130.056 155.511 133.177C156.562 136.298 158.65 138.966 161.428 140.741C164.207 142.515 167.509 143.289 170.788 142.933C174.067 142.578 177.126 141.115 179.458 138.787C181.79 136.459 183.256 133.406 183.612 130.132C183.968 126.859 183.193 123.563 181.415 120.79C179.638 118.016 176.964 115.932 173.838 114.883C170.712 113.834 167.32 113.882 164.225 115.02L153.65 104.478L180.693 77.498L220.617 117.364C222.006 118.743 223.108 120.382 223.86 122.188C224.612 123.993 224.999 125.929 224.999 127.884C224.999 129.839 224.612 131.775 223.86 133.581C223.108 135.386 222.006 137.025 220.617 138.404Z" fill="#8DD35F"/>
</svg>
