<svg width="256" height="256" viewBox="0 0 256 256" fill="none" xmlns="http://www.w3.org/2000/svg">
<path d="M196 0H60C26.8629 0 0 26.8629 0 60V196C0 229.137 26.8629 256 60 256H196C229.137 256 256 229.137 256 196V60C256 26.8629 229.137 0 196 0Z" fill="#F4F2ED"/>
<path d="M122.692 100.547V118.82L78.7715 74.9935L93.3581 60.4332L115.515 82.5649C114.921 84.1628 114.619 85.8545 114.626 87.5591C114.617 90.2607 115.369 92.9103 116.795 95.2064C118.221 97.5025 120.264 99.3529 122.692 100.547ZM136.155 103.182L142.982 109.997L136.155 116.825V103.182ZM177.932 75.1391L151.544 101.45L142.661 92.6115C143.471 90.4419 143.741 88.1087 143.449 85.8119C143.004 82.4401 141.39 79.3303 138.888 77.0218C136.387 74.7133 133.154 73.3518 129.752 73.1735C127.82 73.072 125.889 73.3694 124.078 74.0471L101.906 51.8426L120.694 33.1471C121.691 32.1495 122.875 31.358 124.179 30.818C125.483 30.278 126.881 30 128.293 30C129.705 30 131.103 30.278 132.407 30.818C133.711 31.358 134.896 32.1495 135.893 33.1471L177.932 75.1391Z" fill="#FF8080"/>
<path d="M113.968 135.608L74.0592 175.445L34.4564 136.292C32.2161 133.966 30.9758 130.858 31.0004 127.631C31.0249 124.405 32.3123 121.316 34.5877 119.024L75.4303 78.2549L113.968 116.854C116.455 119.344 117.852 122.716 117.852 126.231C117.852 129.747 116.455 133.119 113.968 135.608Z" fill="#80B3FF"/>
<path d="M136.228 140.355V157.085C138.659 158.528 140.586 160.683 141.75 163.256C142.914 165.829 143.257 168.696 142.734 171.471C142.254 174.177 140.963 176.675 139.03 178.633C137.097 180.59 134.615 181.916 131.911 182.435C128.63 183.15 125.2 182.648 122.263 181.023C119.326 179.397 117.083 176.76 115.953 173.603C114.823 170.446 114.884 166.987 116.125 163.872C117.365 160.756 119.699 158.199 122.692 156.677V138.186C122.667 137.923 122.571 137.671 122.414 137.458C122.257 137.245 122.045 137.079 121.801 136.977C121.557 136.876 121.289 136.842 121.027 136.881C120.765 136.919 120.519 137.028 120.314 137.196L78.4941 178.926L121.525 221.879C123.53 223.877 126.247 225 129.081 225C131.914 225 134.632 223.877 136.637 221.879L177.231 181.43L136.228 140.355Z" fill="#FFE680"/>
<path d="M221.617 138.404L182.904 177.062L141.215 135.448C138.876 133.111 137.563 129.943 137.562 126.639C137.562 123.336 138.876 120.167 141.215 117.83L146.015 112.996L156.648 123.582C155.508 126.671 155.46 130.056 156.511 133.177C157.562 136.298 159.65 138.966 162.428 140.741C165.207 142.515 168.509 143.289 171.788 142.933C175.067 142.578 178.126 141.115 180.458 138.787C182.79 136.459 184.256 133.406 184.612 130.132C184.968 126.859 184.193 123.563 182.415 120.79C180.638 118.016 177.964 115.932 174.838 114.883C171.712 113.834 168.32 113.882 165.225 115.02L154.65 104.478L181.693 77.498L221.617 117.364C223.006 118.743 224.108 120.382 224.86 122.188C225.612 123.993 225.999 125.929 225.999 127.884C225.999 129.839 225.612 131.775 224.86 133.581C224.108 135.386 223.006 137.025 221.617 138.404Z" fill="#8DD35F"/>
</svg>
