<svg width="256" height="256" viewBox="0 0 256 256" fill="none" xmlns="http://www.w3.org/2000/svg">
<g clip-path="url(#clip0_13_65)">
<rect width="256" height="256" fill="#242938" rx="60"/>
<g filter="url(#filter0_d_13_65)">
<path d="M128 233.84C186.454 233.84 233.84 186.454 233.84 128C233.84 69.5462 186.454 22.16 128 22.16C69.5462 22.16 22.16 69.5462 22.16 128C22.16 186.454 69.5462 233.84 128 233.84Z" fill="black"/>
</g>
<path d="M231.95 128C231.95 70.59 185.41 24.0497 128 24.0497C70.59 24.0498 24.0497 70.59 24.0496 128C24.0496 185.41 70.5899 231.95 128 231.95C185.41 231.95 231.95 185.41 231.95 128ZM235.73 128C235.73 187.498 187.497 235.73 128 235.73C68.5023 235.73 20.2704 187.497 20.2704 128C20.2704 68.5024 68.5023 20.2705 128 20.2704C187.497 20.2704 235.73 68.5023 235.73 128Z" fill="#BABABA" fill-opacity="0.5"/>
<path d="M128 233.84C186.454 233.84 233.84 186.454 233.84 128C233.84 69.5462 186.454 22.16 128 22.16C69.5462 22.16 22.16 69.5462 22.16 128C22.16 186.454 69.5462 233.84 128 233.84Z" fill="url(#paint0_linear_13_65)"/>
<g filter="url(#filter1_d_13_65)">
<path d="M29.72 128.064C29.72 171.581 57.8527 208.336 96.919 221.368C101.833 222.23 103.676 219.279 103.676 216.7C103.676 214.362 103.553 206.618 103.553 198.382C78.86 202.927 72.4718 192.354 70.5062 186.824C69.4006 183.997 64.6094 175.269 60.4325 172.933C56.9927 171.088 52.0787 166.541 60.3097 166.418C68.0492 166.295 73.5774 173.547 75.4202 176.497C84.2654 191.372 98.3932 187.195 104.044 184.611C104.904 178.219 107.484 173.914 110.31 171.457C88.4423 169 65.5922 160.517 65.5922 122.903C65.5922 112.205 69.4006 103.354 75.6659 96.471C74.6831 94.014 71.2433 83.9327 76.6487 70.4079C76.6487 70.4079 84.8797 67.828 103.676 80.4891C111.538 78.2778 119.892 77.1703 128.246 77.1703C136.599 77.1703 144.953 78.2778 152.816 80.4891C171.612 67.7052 179.843 70.4098 179.843 70.4098C185.248 83.9308 181.808 94.0102 180.826 96.4691C187.091 103.352 190.899 112.08 190.899 122.899C190.899 160.638 167.926 168.996 146.059 171.457C149.622 174.53 152.693 180.43 152.693 189.65C152.693 202.804 152.57 213.375 152.57 216.696C152.57 219.276 154.413 222.347 159.327 221.364C198.147 208.338 226.28 171.461 226.28 128.066C226.28 73.7267 182.3 29.72 128 29.72C73.7003 29.72 29.72 73.7286 29.72 128.064Z" fill="url(#paint1_linear_13_65)"/>
</g>
<path d="M29.72 128.064C29.72 171.581 57.8527 208.336 96.919 221.368C101.833 222.23 103.676 219.279 103.676 216.7C103.676 214.362 103.553 206.618 103.553 198.382C78.86 202.927 72.4718 192.354 70.5062 186.824C69.4006 183.997 64.6094 175.269 60.4325 172.933C56.9927 171.088 52.0787 166.541 60.3097 166.418C68.0492 166.295 73.5774 173.547 75.4202 176.497C84.2654 191.372 98.3932 187.195 104.044 184.611C104.904 178.219 107.484 173.914 110.31 171.457C88.4423 169 65.5922 160.517 65.5922 122.903C65.5922 112.205 69.4006 103.354 75.6659 96.471C74.6831 94.014 71.2433 83.9327 76.6487 70.4079C76.6487 70.4079 84.8797 67.828 103.676 80.4891C111.538 78.2778 119.892 77.1703 128.246 77.1703C136.599 77.1703 144.953 78.2778 152.816 80.4891C171.612 67.7052 179.843 70.4098 179.843 70.4098C185.248 83.9308 181.808 94.0102 180.826 96.4691C187.091 103.352 190.899 112.08 190.899 122.899C190.899 160.638 167.926 168.996 146.059 171.457C149.622 174.53 152.693 180.43 152.693 189.65C152.693 202.804 152.57 213.375 152.57 216.696C152.57 219.276 154.413 222.347 159.327 221.364C198.147 208.338 226.28 171.461 226.28 128.066C226.28 73.7267 182.3 29.72 128 29.72C73.7003 29.72 29.72 73.7286 29.72 128.064Z" fill="url(#paint2_linear_13_65)"/>
<g filter="url(#filter2_i_13_65)">
<path d="M29.72 128.064C29.72 171.581 57.8527 208.336 96.919 221.368C101.833 222.23 103.676 219.279 103.676 216.7C103.676 214.362 103.553 206.618 103.553 198.382C78.86 202.927 72.4718 192.354 70.5062 186.824C69.4006 183.997 64.6094 175.269 60.4325 172.933C56.9927 171.088 52.0787 166.541 60.3097 166.418C68.0492 166.295 73.5774 173.547 75.4202 176.497C84.2654 191.372 98.3932 187.195 104.044 184.611C104.904 178.219 107.484 173.914 110.31 171.457C88.4423 169 65.5922 160.517 65.5922 122.903C65.5922 112.205 69.4006 103.354 75.6659 96.471C74.6831 94.014 71.2433 83.9327 76.6487 70.4079C76.6487 70.4079 84.8797 67.828 103.676 80.4891C111.538 78.2778 119.892 77.1703 128.246 77.1703C136.599 77.1703 144.953 78.2778 152.816 80.4891C171.612 67.7052 179.843 70.4098 179.843 70.4098C185.248 83.9308 181.808 94.0102 180.826 96.4691C187.091 103.352 190.899 112.08 190.899 122.899C190.899 160.638 167.926 168.996 146.059 171.457C149.622 174.53 152.693 180.43 152.693 189.65C152.693 202.804 152.57 213.375 152.57 216.696C152.57 219.276 154.413 222.347 159.327 221.364C198.147 208.338 226.28 171.461 226.28 128.066C226.28 73.7267 182.3 29.72 128 29.72C73.7003 29.72 29.72 73.7286 29.72 128.064Z" fill="url(#paint3_linear_13_65)"/>
</g>
</g>
<defs>
<filter id="filter0_d_13_65" x="14.6" y="18.38" width="226.8" height="226.8" filterUnits="userSpaceOnUse" color-interpolation-filters="sRGB">
<feFlood flood-opacity="0" result="BackgroundImageFix"/>
<feColorMatrix in="SourceAlpha" type="matrix" values="0 0 0 0 0 0 0 0 0 0 0 0 0 0 0 0 0 0 127 0" result="hardAlpha"/>
<feOffset dy="3.78"/>
<feGaussianBlur stdDeviation="3.78"/>
<feComposite in2="hardAlpha" operator="out"/>
<feColorMatrix type="matrix" values="0 0 0 0 0 0 0 0 0 0 0 0 0 0 0 0 0 0 0.240942 0"/>
<feBlend mode="normal" in2="BackgroundImageFix" result="effect1_dropShadow_13_65"/>
<feBlend mode="normal" in="SourceGraphic" in2="effect1_dropShadow_13_65" result="shape"/>
</filter>
<filter id="filter1_d_13_65" x="29.72" y="29.72" width="196.56" height="193.722" filterUnits="userSpaceOnUse" color-interpolation-filters="sRGB">
<feFlood flood-opacity="0" result="BackgroundImageFix"/>
<feColorMatrix in="SourceAlpha" type="matrix" values="0 0 0 0 0 0 0 0 0 0 0 0 0 0 0 0 0 0 127 0" result="hardAlpha"/>
<feOffset dy="1.89"/>
<feColorMatrix type="matrix" values="0 0 0 0 1 0 0 0 0 1 0 0 0 0 1 0 0 0 0.529297 0"/>
<feBlend mode="normal" in2="BackgroundImageFix" result="effect1_dropShadow_13_65"/>
<feBlend mode="normal" in="SourceGraphic" in2="effect1_dropShadow_13_65" result="shape"/>
</filter>
<filter id="filter2_i_13_65" x="29.72" y="29.72" width="196.56" height="191.832" filterUnits="userSpaceOnUse" color-interpolation-filters="sRGB">
<feFlood flood-opacity="0" result="BackgroundImageFix"/>
<feBlend mode="normal" in="SourceGraphic" in2="BackgroundImageFix" result="shape"/>
<feColorMatrix in="SourceAlpha" type="matrix" values="0 0 0 0 0 0 0 0 0 0 0 0 0 0 0 0 0 0 127 0" result="hardAlpha"/>
<feOffset/>
<feGaussianBlur stdDeviation="1.89"/>
<feComposite in2="hardAlpha" operator="arithmetic" k2="-1" k3="1"/>
<feColorMatrix type="matrix" values="0 0 0 0 0.258824 0 0 0 0 0.137255 0 0 0 0 0.431373 0 0 0 0.70355 0"/>
<feBlend mode="normal" in2="shape" result="effect1_innerShadow_13_65"/>
</filter>
<linearGradient id="paint0_linear_13_65" x1="10606.2" y1="22.16" x2="10606.2" y2="21190.2" gradientUnits="userSpaceOnUse">
<stop stop-color="#FEFEFE"/>
<stop offset="1" stop-color="#E0E0E0"/>
</linearGradient>
<linearGradient id="paint1_linear_13_65" x1="128" y1="29.72" x2="128" y2="221.552" gradientUnits="userSpaceOnUse">
<stop stop-color="#892793"/>
<stop offset="1" stop-color="#492779"/>
</linearGradient>
<linearGradient id="paint2_linear_13_65" x1="128" y1="29.72" x2="128" y2="221.552" gradientUnits="userSpaceOnUse">
<stop stop-color="#892793"/>
<stop offset="1" stop-color="#492779"/>
</linearGradient>
<linearGradient id="paint3_linear_13_65" x1="128" y1="29.72" x2="128" y2="221.552" gradientUnits="userSpaceOnUse">
<stop stop-color="#892793"/>
<stop offset="1" stop-color="#492779"/>
</linearGradient>
<clipPath id="clip0_13_65">
<rect width="256" height="256" fill="white"/>
</clipPath>
</defs>
</svg>
