<svg width="256" height="256" viewBox="0 0 256 256" fill="none" xmlns="http://www.w3.org/2000/svg">
<g clip-path="url(#clip0_3_34)">
<path d="M196 0H60C26.8629 0 0 26.8629 0 60V196C0 229.137 26.8629 256 60 256H196C229.137 256 256 229.137 256 196V60C256 26.8629 229.137 0 196 0Z" fill="#F4F2ED"/>
<circle cx="128.459" cy="127.678" r="105.4" fill="#242938"/>
<path fill-rule="evenodd" clip-rule="evenodd" d="M13 127.5C13 63.8107 64.8107 12 128.5 12C192.189 12 244 63.8107 244 127.5C244 191.189 192.189 243 128.5 243C64.8107 243 13 191.189 13 127.5ZM216.753 93.4678C216.398 92.4982 215.707 91.6904 214.815 91.1799L214.789 91.1735C213.897 90.6693 212.85 90.4885 211.835 90.6693C210.821 90.8568 209.903 91.3931 209.244 92.1819C208.585 92.9703 208.229 93.9719 208.229 95.0058C208.236 95.5294 208.326 96.0399 208.507 96.5441C212.139 106.199 213.975 116.332 213.968 126.653C213.968 147.54 206.374 167.646 192.583 183.259C179.064 198.569 160.568 208.509 140.423 211.314V172.364C142.472 171.943 144.508 171.4 146.492 170.735V204.444L147.293 204.25C164.387 200.095 179.878 190.194 190.903 176.357C202.264 162.101 208.274 144.917 208.274 126.66C208.294 112.397 204.481 98.3663 197.243 86.0811C190.011 73.7893 179.587 63.6494 167.107 56.7472C166.578 56.4629 166.015 56.2882 165.421 56.2303C164.826 56.172 164.238 56.2366 163.67 56.4177C163.101 56.5985 162.584 56.8894 162.131 57.2771C161.679 57.6715 161.317 58.1365 161.052 58.6795C160.761 59.2805 160.606 59.9463 160.606 60.6119C160.606 61.3939 160.813 62.1629 161.207 62.8348C161.601 63.5071 162.17 64.0692 162.855 64.4505C173.971 70.5901 183.251 79.6118 189.701 90.5468C196.151 101.481 199.556 113.974 199.556 126.666C199.556 141.214 195.188 155.199 186.909 167.122C179.018 178.496 168.142 187.24 155.41 192.462V163.917C157.472 163.193 159.281 161.926 160.684 160.239C162.183 158.43 163.114 156.239 163.385 153.906C163.657 151.567 163.243 149.221 162.19 147.12C161.201 145.143 159.701 143.489 157.84 142.312C159.545 126.651 164.528 123.556 168.179 121.288L168.187 121.283C170.358 119.939 172.232 118.775 172.232 115.389V110.568C172.232 105.572 167.269 93.9137 156.179 79.1401C140.824 58.6859 132.067 56.547 129.767 56.3789C128.904 56.2912 128.156 56.3307 127.33 56.3745L127.246 56.3789C124.926 56.547 116.169 58.6859 100.795 79.1401C89.6854 93.9137 84.7155 105.572 84.7155 110.568V115.376C84.7155 118.763 86.59 119.926 88.7614 121.27C92.4125 123.532 97.4018 126.628 99.1078 142.293C97.4343 143.34 96.0382 144.794 95.056 146.513C94.0091 148.355 93.4661 150.449 93.4855 152.562C93.4855 157.558 96.7751 162.159 101.544 163.91V192.462C88.8129 187.247 77.9429 178.503 70.0457 167.122C61.7732 155.205 57.3916 141.214 57.3916 126.673C57.3916 100.842 71.4672 77.0012 94.1253 64.4505C94.9719 63.9788 95.6438 63.2356 96.0251 62.3437C96.4065 61.4519 96.4841 60.4502 96.2384 59.5131C95.9994 58.5761 95.4436 57.7361 94.681 57.1415C93.9184 56.547 92.9686 56.2172 91.9991 56.2172H91.9927C91.2622 56.2172 90.5384 56.4047 89.9053 56.7602C77.4193 63.6557 66.9888 73.7956 59.7441 86.0811C52.4994 98.3663 48.6735 112.403 48.6866 126.666C48.6866 144.93 54.6969 162.114 66.0581 176.37C77.0899 190.207 92.5742 200.107 109.668 204.263L110.469 204.457V170.754C112.453 171.42 114.489 171.969 116.538 172.383V211.333C96.3937 208.522 77.8977 198.576 64.3778 183.272C50.5865 167.659 42.9865 147.56 42.9865 126.666C42.9801 116.345 44.822 106.212 48.467 96.5568C48.6672 96.0141 48.7576 95.4453 48.7381 94.8702C48.7191 94.295 48.5831 93.7329 48.3441 93.2093C48.1051 92.6857 47.7689 92.2204 47.3424 91.8263C46.9159 91.432 46.4311 91.1283 45.8883 90.9281C45.3454 90.7276 44.7767 90.6372 44.2015 90.6566C43.6263 90.676 43.0641 90.8116 42.5406 91.0506C42.0171 91.29 41.5519 91.6258 41.1576 92.0523C40.7634 92.4791 40.4597 92.9703 40.2593 93.5066C35.0569 107.408 33.2022 122.556 34.8889 137.304C36.5756 152.051 41.8104 166.385 50.018 178.755C58.2255 191.124 69.4056 201.516 82.3376 208.8C95.2756 216.083 109.952 220.258 124.784 220.866L125.456 220.891V173.501C126.755 173.559 128.397 173.591 128.5 173.591C128.524 173.59 128.674 173.586 128.907 173.581C129.492 173.567 130.596 173.542 131.524 173.501V220.891L132.196 220.866C147.028 220.238 161.698 216.057 174.63 208.767C187.562 201.471 198.736 191.086 206.943 178.716C215.151 166.347 220.392 152.019 222.085 137.271C223.785 122.524 221.936 107.375 216.753 93.4678ZM111.633 156.45C112.538 155.099 112.945 153.471 112.79 151.855C112.635 150.239 111.918 148.721 110.774 147.57C110.121 146.911 109.352 146.394 108.492 146.039C107.633 145.683 106.728 145.502 105.804 145.502H105.797C104.175 145.502 102.592 146.071 101.338 147.099C100.084 148.126 99.2186 149.567 98.9019 151.163C98.5852 152.753 98.8306 154.421 99.5933 155.849C100.356 157.277 101.603 158.408 103.102 159.035C104.602 159.656 106.282 159.74 107.833 159.274C109.384 158.803 110.742 157.807 111.64 156.456L111.633 156.45ZM157.427 149.274C156.664 147.839 155.423 146.708 153.924 146.088C153.064 145.726 152.14 145.545 151.216 145.545C150.537 145.545 149.852 145.642 149.193 145.842C147.642 146.308 146.285 147.309 145.38 148.654C144.476 149.998 144.062 151.633 144.217 153.242C144.372 154.858 145.083 156.376 146.227 157.527C146.88 158.186 147.649 158.703 148.508 159.065C149.368 159.42 150.272 159.601 151.203 159.601H151.209C152.832 159.601 154.409 159.039 155.662 158.011C156.916 156.984 157.782 155.543 158.105 153.953C158.422 152.363 158.183 150.696 157.42 149.268L157.427 149.274Z" fill="#F4F2ED"/>
</g>
<defs>
<clipPath id="clip0_3_34">
<rect width="256" height="256" fill="white"/>
</clipPath>
</defs>
</svg>
