<svg fill="none" height="256" viewBox="0 0 256 256" width="256" xmlns="http://www.w3.org/2000/svg" xmlns:xlink="http://www.w3.org/1999/xlink">
<linearGradient id="a" gradientUnits="userSpaceOnUse" x1="0" x2="25600" y1="25600" y2="0">
<stop offset="0" stop-color="#4d27a8"/>
<stop offset="1" stop-color="#a166ff"/>
</linearGradient>
<clipPath id="b">
<rect height="256" rx="60" width="256"/>
</clipPath>
<g clip-path="url(#b)">
<path d="m256 0h-256v256h256z" fill="url(#a)"/><path d="m105.6 73.6001h6.4v-6.4h-6.4zm-6.4 3.2v-12.8c0-1.7664 1.43-3.2 3.2-3.2h12.8c1.77 0 3.2 1.4336 3.2 3.2v12.8c0 1.7664-1.43 3.2-3.2 3.2h-12.8c-1.77 0-3.2-1.4336-3.2-3.2zm32-22.4h6.4v-6.4h-6.4zm-6.4 3.2v-12.8c0-1.7664 1.43-3.2 3.2-3.2h12.8c1.77 0 3.2 1.4336 3.2 3.2v12.8c0 1.7664-1.43 3.2-3.2 3.2h-12.8c-1.77 0-3.2-1.4336-3.2-3.2zm12.8 28.8h6.4v-6.4h-6.4zm-3.2-12.8h12.8c1.77 0 3.2 1.4336 3.2 3.2v12.8c0 1.7664-1.43 3.2-3.2 3.2h-12.8c-1.77 0-3.2-1.4336-3.2-3.2v-12.8c0-1.7664 1.43-3.2 3.2-3.2zm-6.4 33.5999c-5.635 0-26.067-.24-39.3568-3.507l32.4638 51.398c.32.512.493 1.104.493 1.709v7.286c4.493 1.303 8.643 1.316 12.8.052v-7.338c0-.605.173-1.197.493-1.709l32.464-51.398c-13.29 3.267-33.722 3.507-39.357 3.507zm-50.3872-8.9855c-.5088-.7424-.8128-1.5424-.8128-2.416 0-9.104 30.029-10.7872 47.93-10.9824l.067 6.4c-21.991.24-35.4274 2.7488-40.1634 4.6176 5.024 2.0992 19.8244 4.9663 43.3664 4.9663 23.482 0 38.262-2.8511 43.325-4.9471-2.067-.8352-6.349-2.0704-14.912-3.1168l.774-6.352c19.399 2.368 22.013 6.0864 22.013 9.4144 0 .8736-.304 1.6736-.813 2.416l-37.587 59.5135v8.672c0 1.306-.794 2.483-2.006 2.97-3.492 1.401-6.999 2.099-10.583 2.099-3.552 0-7.174-.688-10.918-2.067-1.255-.464-2.093-1.661-2.093-3.002v-8.672zm72.5442 92.5605c.496 1.196.221 2.572-.695 3.488l-19.2 19.199c-.624.624-1.443.938-2.262.938s-1.638-.314-2.262-.938l-19.2-19.199c-.916-.916-1.191-2.292-.695-3.488.493-1.194 1.664-1.975 2.957-1.975h9.6v-9.6h6.4v12.8c0 1.766-1.43 3.2-3.2 3.2h-5.075l11.475 11.475 11.475-11.475h-5.075c-1.77 0-3.2-1.434-3.2-3.2v-12.8h6.4v9.6h9.6c1.293 0 2.464.781 2.957 1.975z" fill="#fff"/>
</g>
</svg>