<svg width="256" height="256" viewBox="0 0 256 256" fill="none" xmlns="http://www.w3.org/2000/svg" id="googleplayconsole">
<style>
#googleplayconsole {
    rect {fill: #242938}

    @media (prefers-color-scheme: light) {
        rect {fill: #F4F2ED}
    }
}
</style>
<rect width="256" height="256" fill="#242938" rx="60"/>
<path d="M46 198.047V57.9605C46 42.6159 62.8917 33.0255 76.413 40.7035L199.863 110.744C213.379 118.416 213.379 137.586 199.863 145.253L76.413 215.299C62.8974 222.971 46 213.386 46 198.047Z" fill="#2F80ED"/>
<path d="M169.603 93.5779L104.739 130.73L92.3546 108.906C91.6672 107.691 90.7444 106.624 89.6398 105.767C88.5352 104.91 87.2706 104.279 85.9192 103.911C83.1861 103.148 80.2606 103.492 77.7815 104.867L46 122.416V143.937L79.7947 125.268L92.2359 147.205C93.627 149.652 96.0022 151.48 98.7505 152.223C101.52 152.963 104.471 152.585 106.962 151.171L188.644 104.378L169.603 93.5779Z" fill="#CCF6FF"/>
</svg>
