<svg width="256" height="256" viewBox="0 0 256 256" fill="none" xmlns="http://www.w3.org/2000/svg">
<path d="M196 0H60C26.8629 0 0 26.8629 0 60V196C0 229.137 26.8629 256 60 256H196C229.137 256 256 229.137 256 196V60C256 26.8629 229.137 0 196 0Z" fill="#242938"/>
<path d="M59.7302 104.911L38.387 83.4773C26.6126 95.2769 20 111.265 20 127.935C20 144.604 26.6126 160.593 38.387 172.392L59.821 150.958C53.7138 144.858 50.2746 136.585 50.2576 127.954C50.2406 119.322 53.6471 111.035 59.7302 104.911Z" fill="#E8710A"/>
<path d="M38.3857 83.4785L59.7289 104.913C62.7571 101.881 66.3532 99.4758 70.3115 97.8348C74.2698 96.1939 78.5128 95.3492 82.7978 95.3492C87.0828 95.3492 91.3257 96.1939 95.2841 97.8348C99.2424 99.4758 102.838 101.881 105.867 104.913L121.397 78.3017L120.489 77.5751C108.375 68.5374 93.4134 64.1605 78.3385 65.2444C63.2636 66.3284 49.0821 72.8007 38.3857 83.4785Z" fill="#F9AB00"/>
<path d="M121.488 177.571L105.867 151.051C102.838 154.082 99.2424 156.488 95.2841 158.129C91.3257 159.769 87.0828 160.614 82.7978 160.614C78.5128 160.614 74.2698 159.769 70.3115 158.129C66.3532 156.488 62.7571 154.082 59.7289 151.051L38.3857 172.485C49.0608 183.067 63.1707 189.48 78.1632 190.563C93.1558 191.646 108.041 187.327 120.126 178.388L121.125 177.571" fill="#F9AB00"/>
<path d="M127.484 83.4778C115.71 95.2774 109.097 111.266 109.097 127.935C109.097 144.605 115.71 160.593 127.484 172.393L148.918 150.959C142.8 144.84 139.363 136.542 139.363 127.89C139.363 119.237 142.8 110.939 148.918 104.821C155.036 98.7028 163.335 95.2656 171.987 95.2656C180.64 95.2656 188.938 98.7028 195.056 104.821L216.581 83.4778C210.735 77.6204 203.791 72.9733 196.147 69.8027C188.502 66.632 180.308 65 172.032 65C163.757 65 155.562 66.632 147.918 69.8027C140.274 72.9733 133.33 77.6204 127.484 83.4778Z" fill="#F9AB00"/>
<path d="M216.58 83.4773L195.237 104.911C201.355 111.03 204.792 119.328 204.792 127.98C204.792 136.633 201.355 144.931 195.237 151.049C189.118 157.167 180.82 160.604 172.168 160.604C163.515 160.604 155.217 157.167 149.099 151.049L127.483 172.483C139.286 184.298 155.299 190.94 172 190.949C180.269 190.953 188.458 189.328 196.099 186.168C203.74 183.007 210.684 178.373 216.535 172.528C222.385 166.684 227.026 159.745 230.195 152.107C233.363 144.469 234.996 136.281 235 128.012C235.005 119.743 233.38 111.554 230.219 103.913C227.059 96.2714 222.424 89.3275 216.58 83.4773Z" fill="#E8710A"/>
</svg>
