<svg width="256" height="256" viewBox="0 0 256 256" fill="none" xmlns="http://www.w3.org/2000/svg" id="googleplay">
<style>
#googleplay {
    rect {fill: #242938}

    @media (prefers-color-scheme: light) {
        rect {fill: #F4F2ED}   
    }
}
</style>
<rect width="256" height="256" fill="#242938" rx="60"/>
<path d="M122.901 123.913L45.6904 204.806C46.5574 207.879 48.1155 210.713 50.2456 213.091C52.3757 215.47 55.0213 217.329 57.9804 218.529C60.9394 219.728 64.1334 220.234 67.3183 220.01C70.5032 219.786 73.5946 218.836 76.3562 217.233L163.233 167.754L122.901 123.913Z" fill="#EA4335"/>
<path d="M200.978 110.161L163.408 88.6436L121.12 125.753L163.58 167.638L200.863 146.35C204.166 144.621 206.932 142.021 208.863 138.831C210.793 135.641 211.813 131.984 211.813 128.256C211.813 124.528 210.793 120.87 208.863 117.681C206.932 114.491 204.166 111.891 200.863 110.161H200.978Z" fill="#FBBC04"/>
<path d="M45.6906 51.3037C45.2239 53.0291 44.9917 54.8095 45.0002 56.5969V199.512C45.0049 201.299 45.2369 203.077 45.6906 204.805L125.548 125.983L45.6906 51.3037Z" fill="#4285F4"/>
<path d="M123.477 128.055L163.406 88.6439L76.6439 38.9343C73.3799 37.0227 69.6676 36.0102 65.885 36C61.3166 35.991 56.8706 37.476 53.2247 40.2286C49.5788 42.9812 46.9329 46.8505 45.6904 51.2466L123.477 128.055Z" fill="#34A853"/>
</svg>
