<svg width="256" height="256" viewBox="0 0 256 256" fill="none" xmlns="http://www.w3.org/2000/svg">
<path d="M196 0H60C26.8629 0 0 26.8629 0 60V196C0 229.137 26.8629 256 60 256H196C229.137 256 256 229.137 256 196V60C256 26.8629 229.137 0 196 0Z" fill="#F4F2ED"/>
<path d="M128.065 215.532C125.865 215.532 123.666 214.949 121.726 213.85L34.4036 163.85C30.458 161.586 28 157.317 28 152.789C28 148.261 30.458 143.992 34.4036 141.728L121.661 91.7282C125.607 89.4643 130.458 89.4643 134.339 91.7282L221.596 141.728C225.542 143.992 228 148.261 228 152.789C228 157.317 225.542 161.586 221.596 163.85L134.339 213.85C132.398 214.949 130.199 215.532 128 215.532H128.065ZM66.4864 152.789L128.065 188.106L189.643 152.789L128.065 117.472L66.4864 152.789Z" fill="url(#paint0_linear_928_12)"/>
<path d="M128.065 166.631C125.865 166.631 123.666 166.049 121.726 164.949L34.4036 114.884C30.458 112.62 28 108.351 28 103.823C28 99.2956 30.458 95.0265 34.4036 92.7626L121.661 42.6979C125.607 40.434 130.458 40.434 134.339 42.6979L221.596 92.6979C225.542 94.9618 228 99.2309 228 103.759C228 108.287 225.542 112.556 221.596 114.82L134.339 164.82C132.398 165.919 130.199 166.501 128 166.501L128.065 166.631ZM66.4864 103.823L128.065 139.14L189.643 103.823L128.065 68.5065L66.4864 103.823Z" fill="url(#paint1_linear_928_12)"/>
<defs>
<linearGradient id="paint0_linear_928_12" x1="29.4877" y1="152.789" x2="189.514" y2="152.789" gradientUnits="userSpaceOnUse">
<stop stop-color="#F9D100"/>
<stop offset="1" stop-color="#F97700"/>
</linearGradient>
<linearGradient id="paint1_linear_928_12" x1="225.93" y1="103.823" x2="65.7102" y2="103.823" gradientUnits="userSpaceOnUse">
<stop stop-color="#F9D100"/>
<stop offset="1" stop-color="#F97700"/>
</linearGradient>
</defs>
</svg>
