<svg width="256" height="256" viewBox="0 0 256 256" fill="none" xmlns="http://www.w3.org/2000/svg">
<path d="M196 0H60C26.8629 0 0 26.8629 0 60V196C0 229.137 26.8629 256 60 256H196C229.137 256 256 229.137 256 196V60C256 26.8629 229.137 0 196 0Z" fill="#FEB672"/>
<path d="M128.5 8C62.5061 8 9 61.4987 9 127.5C9 193.494 62.5061 247 128.5 247C194.501 247 248 193.494 248 127.5C248 61.4987 194.501 8 128.5 8ZM191.85 65.599C191.096 65.047 190.259 64.6184 189.37 64.3293C188.321 63.9579 187.262 63.6117 186.196 63.2912C185.101 62.9641 184.051 62.5051 183.067 61.9244C182.114 61.3602 181.298 60.5926 180.677 59.6763C180.057 58.7502 179.736 57.5178 179.736 56.0017C179.736 54.5303 180.034 53.2158 180.609 52.1179C181.175 51.025 181.973 50.0691 182.947 49.3171C183.918 48.5702 185.053 47.9952 186.308 47.6217C187.593 47.2483 188.922 47.0541 190.267 47.0541C191.835 47.0541 193.366 47.2782 194.822 47.7188C196.219 48.1445 197.511 48.8615 198.639 49.8325L194.636 54.2166C194.099 53.6095 193.411 53.1558 192.642 52.9021C191.845 52.6077 191.004 52.4512 190.155 52.4391C189.677 52.4381 189.201 52.4907 188.735 52.5959C188.251 52.7035 187.784 52.8769 187.346 53.1113C186.918 53.3352 186.548 53.6546 186.263 54.0449C185.974 54.4659 185.824 54.9679 185.838 55.4788C185.838 56.39 186.166 57.0697 186.853 57.5552C187.496 58.0108 188.317 58.4066 189.296 58.7203C190.252 59.0414 191.305 59.3626 192.403 59.6763C193.493 59.99 194.524 60.4381 195.472 61.0057C196.421 61.5733 197.205 62.3501 197.817 63.2912C198.437 64.2397 198.744 65.5318 198.744 67.1301C198.744 68.6537 198.46 69.9981 197.892 71.1408C197.325 72.2761 196.548 73.2321 195.577 73.9789C194.565 74.7435 193.417 75.3087 192.193 75.6445C190.894 76.0179 189.52 76.1972 188.086 76.1972C186.293 76.1972 184.613 75.9208 183.082 75.3756C181.53 74.8086 180.106 73.9405 178.892 72.8213L183.052 68.2429C183.679 69.0349 184.478 69.6735 185.389 70.1101C186.83 70.7923 188.456 70.9763 190.013 70.6329C190.509 70.5147 190.986 70.3287 191.432 70.0802C191.846 69.8414 192.202 69.5152 192.477 69.1242C192.751 68.7077 192.891 68.2182 192.881 67.7201C192.898 67.3088 192.814 66.8995 192.634 66.5292C192.454 66.1589 192.184 65.8392 191.85 65.599ZM158.913 47.7636H164.776V70.0952H176.218V75.4802H158.913V47.7711V47.7636ZM146.156 47.7636H152.019V75.4802H146.156V47.7711V47.7636ZM125.587 47.7636H130.494L142.549 75.4802H135.924L133.512 69.5425H122.405L120.068 75.4876H113.607L125.587 47.7636ZM89.2592 47.7636H99.947C101.359 47.7636 102.71 47.8981 103.98 48.1819C105.227 48.4433 106.34 48.9063 107.281 49.5412C108.222 50.176 108.977 51.0349 109.529 52.0955C110.082 53.1635 110.366 54.5228 110.366 56.1286C110.366 58.0556 109.858 59.7211 108.85 61.0804C107.817 62.4187 106.319 63.3198 104.652 63.6048L104.219 63.6945L111.314 75.4802H104.286L98.4233 64.277H95.1222V75.4802H89.2592V47.7711V47.7636ZM58.4581 55.5834C59.1549 53.8448 60.215 52.2751 61.5674 50.9794C62.9199 49.6836 64.5335 48.6916 66.3003 48.0698C68.1226 47.3977 70.1467 47.0466 72.3126 47.0466C74.5233 47.0466 76.5922 47.323 78.4668 47.8533C80.2593 48.3686 81.8801 49.2648 83.2543 50.5047L79.1166 55.0232C78.3168 54.218 77.3714 53.5718 76.3308 53.1187C75.0497 52.6286 73.6834 52.4 72.3126 52.4465C70.9682 52.4465 69.7508 52.6631 68.6678 53.1187C67.6089 53.5572 66.6527 54.2108 65.8596 55.0382C65.0828 55.8598 64.4779 56.8456 64.0671 57.9659C63.6454 59.1395 63.4355 60.3786 63.4472 61.6256C63.4472 62.9551 63.6488 64.1949 64.0671 65.3077C64.4779 66.4131 65.0828 67.3915 65.8596 68.2056C66.6363 69.0272 67.5774 69.6695 68.6678 70.1251C69.7433 70.5732 70.9757 70.8047 72.3126 70.8047C73.6644 70.8047 74.852 70.6553 75.8453 70.3417C76.7714 70.0578 77.5407 69.7591 78.1158 69.4454L78.1532 69.4305L78.2278 69.3632L78.2876 69.2512V64.5459H73.2611V59.1684H83.9116V73.5681C82.1191 74.4868 80.2444 75.159 78.3324 75.5623C76.3537 75.9842 74.3358 76.1945 72.3126 76.1897C70.1467 76.1897 68.1301 75.8536 66.3003 75.1739C64.5332 74.5505 62.9196 73.5571 61.5672 72.2601C60.2148 70.9631 59.1548 69.3923 58.4581 67.6529C57.7112 65.8604 57.3377 63.8438 57.3377 61.6256C57.3377 59.4149 57.7112 57.3908 58.4581 55.5834ZM96.713 150.698C94.9205 151.482 92.6351 152.378 91.7463 152.849C90.1032 153.73 87.5488 155.65 86.1148 157.853C85.0532 159.497 84.2544 161.296 83.7472 163.186C83.5531 164.112 83.4485 165.456 83.4709 167.04C83.5157 170.729 84.1506 175.644 85.4128 179.012C86.8617 182.836 87.6534 184.113 89.3115 187.989C90.021 189.633 90.6782 191.186 90.9994 191.948C91.065 192.097 91.0918 192.26 91.0774 192.421C91.0631 192.583 91.008 192.739 90.9173 192.874C90.138 194.055 89.0815 195.026 87.8401 195.705C84.9721 197.251 78.9523 197.811 75.9573 197.826H75.9424C72.9549 197.803 66.9276 197.251 64.0671 195.705C62.8243 195.025 61.7676 194.05 60.99 192.866C60.9 192.733 60.8447 192.579 60.829 192.418C60.8134 192.258 60.8379 192.096 60.9003 191.948L62.5883 187.989C64.2538 184.106 65.038 182.836 66.487 179.012C67.7567 175.644 68.3915 170.729 68.4288 167.04C68.4717 165.749 68.3791 164.457 68.1525 163.186C67.6454 161.298 66.8466 159.501 65.7849 157.86C64.3584 155.657 61.8041 153.73 60.1609 152.856C58.9211 152.192 54.9851 150.72 53.4391 149.869C51.2578 148.639 49.1663 147.256 47.1802 145.731C44.6046 143.588 42.2091 141.238 40.0177 138.703C37.1945 135.193 34.5879 131.085 33.3332 126.656C31.7647 121.159 31.8245 118.806 31.6154 117.029C31.6071 116.957 31.6137 116.885 31.6348 116.816C31.656 116.747 31.6911 116.683 31.7381 116.628C31.7851 116.573 31.8429 116.529 31.9079 116.498C31.9729 116.466 32.0437 116.449 32.1158 116.446C33.6245 116.394 39.0617 116.267 58.0846 116.237C58.4581 116.237 58.7942 116.461 58.9286 116.82C64.2762 130.98 78.2204 142.699 96.6308 149.077C97.3777 149.331 97.4524 150.377 96.713 150.698ZM143.527 191.014C145.865 197.228 147.142 199.282 149.846 205.578C150.996 208.245 152.071 210.784 152.594 212.009C152.811 212.509 152.744 213.055 152.452 213.518C151.185 215.434 149.47 217.013 147.456 218.118C142.81 220.628 133.019 221.539 128.164 221.554H128.141C123.287 221.539 113.503 220.628 108.85 218.118C106.835 217.014 105.12 215.435 103.853 213.518C103.708 213.297 103.619 213.043 103.596 212.78C103.572 212.517 103.615 212.252 103.719 212.009C104.241 210.784 105.31 208.245 106.452 205.586C109.163 199.282 110.441 197.221 112.778 191.014C114.84 185.54 115.878 177.571 115.945 171.566C116.01 169.472 115.86 167.377 115.497 165.314C114.974 162.939 113.368 159.332 111.65 156.665C109.335 153.073 105.183 149.966 102.509 148.547C100.492 147.464 94.1139 145.074 91.6044 143.692C88.0614 141.7 84.6646 139.459 81.4394 136.985C78.3249 134.543 72.2006 128.546 69.8106 125.558C65.2173 119.867 60.99 113.19 58.9435 105.997C56.4042 97.0723 56.5087 93.2558 56.1652 90.3728C56.1506 90.2563 56.1604 90.1379 56.1938 90.0253C56.2272 89.9127 56.2835 89.8081 56.3593 89.7184C56.4351 89.6286 56.5286 89.5554 56.634 89.5035C56.7394 89.4516 56.8544 89.4221 56.9718 89.4168C60.0713 89.3048 73.291 89.021 128.156 89.0733C183.022 89.021 196.242 89.3048 199.334 89.4168C199.834 89.4392 200.207 89.8724 200.148 90.3728C199.804 93.2558 199.901 97.0723 197.369 105.997C195.323 113.19 191.096 119.867 186.502 125.566C184.112 128.538 177.988 134.543 174.873 136.985C172.073 139.166 167.905 141.93 164.701 143.692C162.192 145.074 155.813 147.464 153.797 148.547C151.13 149.966 146.985 153.073 144.662 156.665C142.945 159.332 141.339 162.939 140.823 165.307C140.495 166.808 140.345 169.011 140.375 171.566C140.428 177.571 141.466 185.54 143.527 191.014ZM216.975 138.703C214.787 141.238 212.394 143.589 209.82 145.731C208.094 147.083 205.525 148.778 203.553 149.869C202.007 150.72 198.079 152.192 196.847 152.856C195.203 153.73 192.642 155.65 191.208 157.86C190.155 159.496 189.161 161.722 188.848 163.186C188.622 164.457 188.53 165.749 188.571 167.04C188.608 170.729 189.243 175.644 190.513 179.012C191.962 182.836 192.746 184.113 194.404 187.982L196.1 191.948C196.163 192.096 196.188 192.258 196.172 192.419C196.156 192.579 196.101 192.733 196.01 192.866C195.232 194.05 194.175 195.024 192.933 195.705C190.065 197.251 184.045 197.803 181.058 197.826H181.043C178.055 197.803 172.02 197.251 169.167 195.705C167.922 195.026 166.863 194.051 166.083 192.866C165.993 192.733 165.937 192.579 165.922 192.418C165.906 192.258 165.931 192.096 165.993 191.948C166.314 191.186 166.979 189.625 167.689 187.989C169.347 184.106 170.138 182.836 171.572 179.012C172.842 175.644 173.484 170.729 173.522 167.04C173.561 165.749 173.471 164.458 173.253 163.186C172.744 161.296 171.946 159.497 170.885 157.853C169.451 155.65 166.897 153.73 165.254 152.849C164.357 152.378 162.065 151.482 160.287 150.69C159.548 150.377 159.615 149.331 160.362 149.07C178.78 142.699 192.724 130.98 198.071 116.812C198.137 116.642 198.253 116.495 198.403 116.393C198.554 116.29 198.733 116.236 198.915 116.237C217.931 116.267 223.376 116.386 224.884 116.439C224.956 116.442 225.027 116.461 225.092 116.493C225.156 116.525 225.214 116.57 225.26 116.626C225.306 116.681 225.341 116.746 225.361 116.815C225.381 116.884 225.387 116.957 225.377 117.029C225.183 118.799 225.228 121.152 223.667 126.649C222.412 131.085 219.798 135.193 216.975 138.703ZM104.271 56.0763C104.306 56.746 104.117 57.4083 103.734 57.9585C103.392 58.3971 102.937 58.7352 102.419 58.9369C101.864 59.15 101.28 59.276 100.686 59.3103C100.1 59.3471 99.5117 59.367 98.9238 59.3701H95.1147V52.6781H99.3121C99.8723 52.6781 100.447 52.7079 101.037 52.7976C101.635 52.8722 102.173 53.0366 102.628 53.2606C103.101 53.4953 103.504 53.8477 103.801 54.2838C104.132 54.8212 104.293 55.4459 104.264 56.0763H104.271ZM127.858 55.3295L131.532 64.6355H124.22L127.858 55.3295Z" fill="#F4F2ED"/>
</svg>
