<svg width="256" height="256" viewBox="0 0 256 256" fill="none" xmlns="http://www.w3.org/2000/svg">
<path d="M196 0H60C26.8629 0 0 26.8629 0 60V196C0 229.137 26.8629 256 60 256H196C229.137 256 256 229.137 256 196V60C256 26.8629 229.137 0 196 0Z" fill="#FFD100"/>
<path d="M154.501 39.1869V43.8261C124.678 30.041 88.636 41.5726 74.0776 69.4077C74.0776 69.5403 73.9362 69.6729 73.9362 69.8054V69.938C69.9788 77.4934 68 85.844 68 94.3271C68 125.476 94.9962 150.661 128.07 150.661C137.257 150.661 146.303 148.672 154.642 144.828V162.591C154.36 176.243 142.205 187.111 127.646 186.712C113.512 186.448 102.205 175.712 101.922 162.591V160.336H68.2825V162.591C68.7067 193.607 95.8444 218.391 128.918 217.995C161.285 217.597 187.435 193.208 188 162.855V39.1869H154.501ZM102.911 82.9278C109.555 69.938 126.092 64.3711 139.944 70.6007C149.697 74.9749 155.775 84.1208 155.775 94.1946C155.775 97.7733 155.066 101.22 153.511 104.401C147.434 117.656 131.179 123.753 117.046 118.186C111.109 115.8 106.162 111.558 103.194 106.124L103.053 105.991C99.2365 98.701 99.2365 90.2181 102.911 82.9278Z" fill="#212322"/>
</svg>
