<svg width="256" height="256" viewBox="0 0 256 256" fill="none" xmlns="http://www.w3.org/2000/svg">
<path d="M196 0H60C26.8629 0 0 26.8629 0 60V196C0 229.137 26.8629 256 60 256H196C229.137 256 256 229.137 256 196V60C256 26.8629 229.137 0 196 0Z" fill="#242938"/>
<path d="M200.009 106.38L164.79 45.3786C163.318 43.1304 160.868 41.7152 158.183 41.5615H87.7442C85.0593 41.7152 82.6089 43.1304 81.137 45.3786L45.9096 106.38C44.7046 108.782 44.7046 111.604 45.9096 114.006L81.137 175.015C82.6089 177.263 85.0593 178.678 87.7442 178.824H158.183C160.868 178.678 163.318 177.263 164.79 175.015L200.018 114.006C201.214 111.604 201.214 108.782 200.009 106.38Z" fill="#F1DECD"/>
<path d="M174.949 58.0032L163.902 38.8772H102.367L154.755 129.218L200.925 103L174.949 58.0032Z" fill="#3EA8FF"/>
<path d="M138.079 79.2804L114.763 38.8772H83.159L73.4141 52.3988L101.226 100.558L126.166 143.775L163.31 122.975L138.079 79.2804Z" fill="#2180CE"/>
<path d="M202.743 106.154L159.299 127.358L212.916 208.892L202.743 106.154Z" fill="#DEBA92"/>
<path d="M164.394 124.851L127.533 146.136L203.212 192.079L164.394 124.851Z" fill="#D49B64"/>
<path d="M220.964 208.091L220.907 207.533C220.212 199.94 211.89 109.372 211.866 108.984C211.68 106.687 211 104.455 209.884 102.441C209.86 102.369 209.828 102.304 209.795 102.239L209.747 102.118L209.723 102.142L209.707 102.134L209.739 102.118L200.196 85.588L173.355 39.0871C170.46 34.0812 165.122 31 159.34 31H86.5642C80.79 31 75.4525 34.0812 72.5573 39.0871L36.1653 102.11C33.2782 107.116 33.2782 113.278 36.1653 118.284L72.5573 181.307C75.4444 186.313 80.7819 189.394 86.5642 189.394H159.34C162.462 189.37 165.51 188.432 168.115 186.709L199.323 209.094C193.686 207.331 187.855 206.288 181.96 205.997C167.314 205.293 124.379 205.77 75.6789 209.741C55.6957 211.367 46.2499 216.114 47.3498 217.044C50.1722 219.454 53.5122 220.408 70.1554 220.343C84.971 220.295 128.1 221.888 141.128 222.689C150.355 223.263 160.06 225.018 167.039 225.091C174.479 224.993 181.895 224.427 189.262 223.392C200.374 221.864 215.109 218.783 218.497 214.682C220.284 212.984 221.198 210.55 220.964 208.091ZM84.5424 50.6678C85.8929 48.6056 88.1411 47.3036 90.6077 47.1661H155.296C157.755 47.3036 159.995 48.5975 161.354 50.6517L188.251 97.2415C184.216 101.447 180.714 106.137 177.827 111.2L157.795 113.424L145.851 129.663C140.02 129.63 134.205 130.326 128.544 131.717L83.1514 53.0859L84.5424 50.6678ZM90.6077 173.22C88.1411 173.082 85.8929 171.78 84.5424 169.718L52.194 113.699C51.086 111.499 51.086 108.895 52.194 106.695L73.8108 69.2682L122.01 152.759L122.042 152.743C122.6 153.746 123.369 154.611 124.299 155.291L149.312 173.228L90.6077 173.22ZM185.033 178.937L138.208 145.352C143.376 144.228 148.649 143.661 153.938 143.661L165.883 127.431L185.914 125.207C188.551 120.629 191.68 116.351 195.231 112.437L200.916 169.775C194.187 169.055 187.766 172.759 185.033 178.937ZM100.029 156.116C101.234 158 100.676 160.499 98.8 161.704C96.9157 162.909 94.4167 162.351 93.2118 160.475C93.1471 160.378 93.0905 160.272 93.0338 160.167L64.729 111.151C63.524 109.267 64.082 106.768 65.9582 105.563C67.8425 104.358 70.3414 104.916 71.5464 106.792C71.6111 106.889 71.6677 106.995 71.7243 107.1L100.029 156.116Z" fill="#473A3A"/>
</svg>
