<?xml version="1.0" encoding="UTF-8"?>
<svg id="Layer_1" xmlns="http://www.w3.org/2000/svg" version="1.1" viewBox="0 0 256 256">
  <!-- Generator: Adobe Illustrator 29.7.0, SVG Export Plug-In . SVG Version: 2.1.1 Build 14)  -->
  <defs>
    <style>
      .st0 {
        fill: #f4f2ed;
      }

      .st1 {
        fill-rule: evenodd;
      }
    </style>
  </defs>
  <rect class="st0" width="256" height="256" rx="60" ry="60"/>
  <path class="st1" d="M105.45,152.33l65.91-48.72c3.23-2.4,7.85-1.46,9.39,2.25,8.1,19.57,4.48,43.08-11.65,59.23-16.12,16.14-38.56,19.68-59.06,11.62l-22.4,10.38c32.13,21.98,71.14,16.55,95.52-7.87,19.34-19.37,25.33-45.76,19.73-69.56l.05.06c-8.12-34.96,2-48.94,22.72-77.52.5-.68.99-1.35,1.48-2.05l-27.27,27.3v-.08l-94.45,94.98M91.84,164.16c-23.07-22.06-19.08-56.19.59-75.87,14.55-14.57,38.39-20.51,59.2-11.77l22.35-10.33c-4.64-3.42-9.73-6.2-15.11-8.26-27.67-11.33-59.44-4.92-80.57,16.24-20.93,20.95-27.51,53.17-16.21,80.67,8.44,20.55-5.39,35.08-19.33,49.75-4.95,5.2-9.91,10.4-13.9,15.9l62.95-56.3"/>
</svg>