<svg width="256" height="256" viewBox="0 0 256 256" fill="none" xmlns="http://www.w3.org/2000/svg">
<path d="M196 0H60C26.8629 0 0 26.8629 0 60V196C0 229.137 26.8629 256 60 256H196C229.137 256 256 229.137 256 196V60C256 26.8629 229.137 0 196 0Z" fill="#242938"/>
<path d="M41.7551 28C39.2149 28.0572 36.362 28.0389 34.8075 28.7525C33.2113 29.6299 33.3929 30.8842 33.6981 31.2157C33.9074 31.479 34.5644 31.9351 34.5806 32.4735C34.4023 33.4654 30.2995 32.5449 27.9249 32.988C26.9367 33.1963 26.1262 33.782 26.0037 34.4552C25.9465 35.4913 26.5684 35.7459 27.2139 36.1948C28.7927 37.2654 30.4758 38.0632 31.7597 39.1401C32.3881 39.6009 32.9881 40.1109 33.9055 40.7223C38.2433 43.5759 43.5991 46.2004 45.0894 47.1914C62.6391 58.9121 80.8755 70.7181 98.0666 80.3806C106.776 92.2427 117.13 103.958 124.553 115.426C120.285 122.117 116.425 127.225 111.518 133.707C107.772 138.512 105.14 141.625 102.362 144.959C97.3835 151.029 92.1488 155.36 87.7722 161.603C86.7437 162.911 86.1663 164.264 85.9499 165.665C85.7086 169.193 92.1502 174.547 92.7641 174.793C94.7666 175.531 96.9056 174.43 98.7631 173.333C103.99 169.081 108.797 163.131 115.346 158.246C118.822 155.695 121.972 153.234 126.372 150.13C131.681 146.242 135.525 142.937 139.968 139.186C142.714 137.179 144.414 137.582 144.674 137.559C154.79 142.071 162.697 147.792 168.285 154.274C182.731 172.932 192.497 190.921 205.86 207.762C207.97 210.54 209.938 212.297 211.608 214.478L213.923 218.35C214.352 219.026 215.74 220.696 216.335 219.583C218.695 221.664 219.521 223.763 220.805 225.682C222.048 227.617 222.605 228.452 223.424 228.483C224.239 228.394 224.751 226.825 224.807 225.786C224.775 222.558 224.545 221.576 224.783 221.391C225.151 221.282 225.937 224.214 229.464 223.76C230.319 223.223 229.521 219.071 228.909 209.083C225.888 179.407 220.307 149.323 210.277 122.387C209.275 119.546 208.029 117.133 206.344 115.489C202.67 111.063 198.643 107.818 194.637 104.498C192.552 102.615 190.248 100.798 188.416 98.8387C186.679 96.8459 186.969 93.6864 188.071 91.165C188.879 89.1011 190.426 86.2193 190.769 85.3046C191.779 81.9462 191.586 81.5312 191.922 78.5137C192.004 77.3079 191.917 76.668 192.415 75.784C193.042 75.2726 193.858 75.2105 194.697 75.5838C195.802 76.3202 196.382 76.2784 196.542 75.978C195.998 72.179 190.217 68.7845 186.901 69.1944C184.823 68.557 182.104 68.5377 180.112 68.8025C176.374 69.4565 173.569 70.2231 170.536 71.3773C167.903 72.6436 165.705 73.8739 162.314 73.1237C159.615 72.483 158.288 71.4184 157.137 69.9363C150.579 62.351 146.674 52.8765 139.707 46.9487C106.222 34.3994 75.2992 28.7992 41.7551 28ZM75.5994 39.6947C96.9724 39.6513 118.701 41.8812 137.022 50.29C141.951 57.1464 144.898 64.1879 148.795 71.561C150.424 75.7085 151.451 78.4617 149.338 82.0459C142.589 90.1899 135.111 100.065 128.583 109.47C128.344 113.969 108.855 81.6547 102.79 77.0598C84.2937 63.3129 82.2566 65.4405 54.567 43.8595C52.9775 42.41 51.5782 40.195 60.9058 40.04C65.754 39.8358 70.6671 39.7047 75.5994 39.6947ZM187.934 70.637C188.746 70.6437 190.119 70.8891 191.664 72.2588C190.905 72.9138 191.032 73.7471 191.132 74.5961C189.381 73.5787 187.241 75.1526 184.348 75.295C186.917 74.7118 188.169 73.3084 187.324 70.6771C187.456 70.6591 187.663 70.6347 187.934 70.637ZM182.294 71.7767C183.198 71.9728 182.883 71.8893 183.476 72.3412C182.44 73.8158 181.475 74.5543 179.953 74.2612C178.683 74.0124 178.318 73.3366 177.564 72.285L178.731 72.1467C179.57 74.7413 182.211 73.9457 182.425 72.6562C182.412 71.9796 182.294 71.7767 182.294 71.7767ZM171.34 75.618C173.426 75.592 175.72 79.1212 174.81 81.3499C178.433 84.1971 180.641 81.1284 183 79.595C187.81 76.9398 189.054 77.2779 190.631 77.5206C190.506 81.1113 189.689 84.803 186.956 89.8108C182.384 103.762 175.618 108.971 168.626 114.725C154.413 126.651 139.843 137.562 123.722 147.018C120.32 148.813 117.724 149.806 114.977 148.413C115.264 143.94 116.995 140.055 119.243 135.582C123.613 128.036 127.987 120.97 131.922 112.934C141.658 95.9541 149.177 89.4273 156.911 82.8552C160.884 80.1483 162.152 79.0391 163.347 79.053C164.557 80.8679 169.06 82.1152 169.559 81.5017C168.65 81.0932 168.592 80.6587 168.63 79.8755C169.066 76.7659 170.17 75.6326 171.34 75.618ZM188.705 109.532C192.25 111.134 198.773 116.547 205.607 120.373C218.343 148.372 218.928 183.384 217.408 201.902C216.672 207.757 216.084 206.736 214.267 205.493C194.646 188.835 184.971 164.89 170.645 147.799C161.379 140.712 150.776 137.316 148.352 134.077C166.317 122.106 180.167 112.068 188.705 109.532ZM119.94 129.155C120.59 129.181 119.427 131.241 118.946 132.076C116.198 136.519 114.515 141.775 112.502 146.564C111.226 149.265 109.68 150.12 108.307 149.776C106.752 149.266 104.484 146.832 105.915 144.666C109.938 139.945 113.443 134.208 118.594 129.927C119.306 129.363 119.724 129.146 119.94 129.155ZM122.505 149.742C124.107 149.739 115.134 155.935 113.015 156.599C110.692 153.909 116.865 151.82 118.931 151.147C121.002 150.146 122.097 149.742 122.505 149.742ZM100.323 150.411C100.867 152.824 102.839 153.993 104.086 154.908C103.151 155.863 102.509 156.487 101.516 157.156C99.994 156.073 98.6017 155.322 97.8466 153.307C98.728 152.04 99.3328 151.352 100.323 150.411ZM94.8693 156.792C95.5719 158.123 96.8242 159.725 98.101 160.501C97.5037 161.2 96.8579 161.958 96.0191 162.496C94.5669 161.731 93.1766 160.046 92.6519 159.026C93.3838 157.976 94.2996 157.08 94.8693 156.792ZM107.054 157.878C107.795 159.87 108.87 160.342 109.538 160.868C109.061 161.381 108.686 161.974 107.339 162.687C106.692 162.471 105.307 161.005 104.965 159.787C105.87 158.73 106.22 158.57 107.054 157.878ZM101.046 163.406C101.526 164.727 102.244 165.752 103.446 166.351C102.815 167.328 102.374 167.623 101.562 168.047C101.137 167.702 100.099 166.978 99.1185 165.257C99.9367 164.339 100.312 164.056 101.046 163.406ZM88.2429 164.982C89.5499 168.085 92.4094 170.088 94.8436 172.74C94.467 172.956 94.3297 173.752 93.6974 173.764C91.3144 172.155 88.759 169.833 87.1733 166.373C87.6214 165.721 87.6693 165.529 88.2429 164.982Z" fill="#F1F1F1"/>
<path d="M189.054 71.7414C189.083 71.5809 189.217 71.1336 189.482 71.2471C189.755 71.4873 189.907 71.8273 189.928 72.3513C189.926 72.6119 189.903 72.8252 189.565 72.4912C189.393 72.2903 189.327 72.2472 189.054 71.7414Z" fill="#F1F1F1"/>
</svg>
