<svg width="256" height="256" viewBox="0 0 256 256" fill="none" xmlns="http://www.w3.org/2000/svg">
<rect width="256" height="256" rx="60" fill="#F4F2ED"/>
<path d="M141.787 90.72C127.606 90.72 116.069 102.21 116.069 116.334C116.069 130.459 127.606 141.947 141.787 141.947C155.968 141.947 167.507 130.458 167.507 116.334C167.507 102.211 155.967 90.72 141.787 90.72ZM141.787 132.343C132.923 132.343 125.713 125.16 125.713 116.334C125.713 107.508 132.923 100.326 141.787 100.326C150.651 100.326 157.862 107.507 157.862 116.334C157.862 125.162 150.652 132.343 141.787 132.343Z" fill="#F55036"/>
<path d="M106.279 90.8195C105.4 90.7214 104.517 90.6695 103.634 90.6638C103.194 90.6638 102.773 90.6768 102.342 90.684C101.911 90.6912 101.482 90.7315 101.052 90.7575C99.3198 90.893 97.6047 91.1885 95.9272 91.6382C92.5563 92.5449 89.3069 94.1218 86.4976 96.3618C83.6463 98.6249 81.3623 101.515 79.8238 104.807C79.0567 106.448 78.4908 108.174 78.1376 109.949C77.9625 110.825 77.8336 111.71 77.7526 112.601C77.7236 113.044 77.673 113.488 77.6672 113.929L77.6513 114.59L77.644 114.922V115.196L77.6658 123.774L77.6875 132.352L77.7468 140.928H87.3921L87.4529 132.352L87.4746 123.772L87.4963 115.194V114.932L87.5035 114.727L87.5151 114.316C87.5151 114.041 87.5556 113.776 87.5715 113.503C87.6236 112.97 87.7033 112.44 87.8104 111.915C88.0217 110.883 88.3517 109.878 88.7917 108.921C89.6789 107.001 91.0033 105.315 92.6605 103.993C94.3336 102.649 96.3383 101.646 98.505 101.049C99.6006 100.751 100.722 100.554 101.854 100.461C102.141 100.445 102.426 100.418 102.714 100.408C103.002 100.398 103.296 100.389 103.575 100.391C104.129 100.391 104.675 100.427 105.228 100.477C107.425 100.698 109.554 101.369 111.478 102.449L116.292 94.1232C113.216 92.3431 109.807 91.2202 106.279 90.8195Z" fill="#F55036"/>
<path d="M44.7004 90.5917C30.5177 90.5917 18.9807 102.081 18.9807 116.205C18.9807 130.328 30.5177 141.819 44.7004 141.819H53.1589V132.213H44.7004C35.8368 132.213 28.626 125.032 28.626 116.205C28.626 107.377 35.8368 100.196 44.7004 100.196C53.5641 100.196 60.8126 107.377 60.8126 116.205V139.794C60.8126 148.564 53.6423 155.706 44.8582 155.798C40.6551 155.764 36.6357 154.081 33.6715 151.114L26.8515 157.906C31.5786 162.638 37.9832 165.33 44.6845 165.403V165.407C44.7424 165.407 44.8003 165.407 44.8568 165.407H45.0377V165.403C59.0178 165.214 70.3377 153.864 70.4028 139.909L70.4115 115.576C70.0757 101.744 58.6704 90.5917 44.7004 90.5917Z" fill="#F55036"/>
<path d="M198.574 90.72C184.393 90.72 172.856 102.21 172.856 116.334C172.856 130.459 184.393 141.947 198.574 141.947H207.374V132.343H198.574C189.711 132.343 182.5 125.16 182.5 116.334C182.5 107.508 189.711 100.326 198.574 100.326C206.968 100.326 213.876 106.766 214.585 114.946H214.571V164.128H224.216V116.334C224.213 102.21 212.756 90.72 198.574 90.72Z" fill="#F55036"/>
<path d="M238.956 92.0216H237.581L235.705 94.9232L233.769 92.0216H232.381V97.1877H233.931V94.6739L235.306 96.7034H236.055L237.406 94.6104L237.43 97.1877H238.981L238.956 92.0216Z" fill="#F55036"/>
<path d="M226.706 93.2555H228.393V97.1877H230.094V93.2555H231.793V92.0216H226.706V93.2555Z" fill="#F55036"/>
</svg>
