<svg width="256" height="256" viewBox="0 0 256 256" fill="none" xmlns="http://www.w3.org/2000/svg" id="groq">
<style>
#groq {
    rect {fill: #242938}
    @media (prefers-color-scheme: light) {
        rect {fill: #F4F2ED}
    }
}
</style>
<rect width="256" height="256" rx="60" fill="#242938"/>
<path d="M140.806 90.72C126.625 90.72 115.088 102.21 115.088 116.334C115.088 130.459 126.625 141.947 140.806 141.947C154.987 141.947 166.526 130.458 166.526 116.334C166.526 102.211 154.986 90.72 140.806 90.72ZM140.806 132.343C131.942 132.343 124.732 125.16 124.732 116.334C124.732 107.508 131.942 100.326 140.806 100.326C149.67 100.326 156.881 107.507 156.881 116.334C156.881 125.162 149.671 132.343 140.806 132.343Z" fill="#F55036"/>
<path d="M105.298 90.8195C104.419 90.7214 103.536 90.6695 102.653 90.6638C102.213 90.6638 101.792 90.6768 101.361 90.684C100.93 90.6912 100.501 90.7315 100.071 90.7575C98.3389 90.893 96.6237 91.1885 94.9462 91.6382C91.5753 92.5449 88.326 94.1218 85.5166 96.3618C82.6653 98.6249 80.3814 101.515 78.8428 104.807C78.0757 106.448 77.5098 108.174 77.1566 109.949C76.9815 110.825 76.8527 111.71 76.7716 112.601C76.7427 113.044 76.692 113.488 76.6862 113.929L76.6703 114.59L76.6631 114.922V115.196L76.6848 123.774L76.7065 132.352L76.7659 140.928H86.4111L86.4719 132.352L86.4936 123.772L86.5153 115.194V114.932L86.5226 114.727L86.5341 114.316C86.5341 114.041 86.5747 113.776 86.5906 113.503C86.6427 112.97 86.7223 112.44 86.8294 111.915C87.0407 110.883 87.3707 109.878 87.8107 108.921C88.698 107.001 90.0223 105.315 91.6795 103.993C93.3527 102.649 95.3573 101.646 97.524 101.049C98.6197 100.751 99.7414 100.554 100.873 100.461C101.16 100.445 101.445 100.418 101.733 100.408C102.021 100.398 102.315 100.389 102.594 100.391C103.148 100.391 103.694 100.427 104.247 100.477C106.444 100.698 108.573 101.369 110.497 102.449L115.311 94.1232C112.235 92.3431 108.827 91.2202 105.298 90.8195Z" fill="#F55036"/>
<path d="M43.7197 90.5917C29.537 90.5917 18 102.081 18 116.205C18 130.328 29.537 141.819 43.7197 141.819H52.1782V132.213H43.7197C34.8561 132.213 27.6453 125.032 27.6453 116.205C27.6453 107.377 34.8561 100.196 43.7197 100.196C52.5834 100.196 59.8318 107.377 59.8318 116.205V139.794C59.8318 148.564 52.6616 155.706 43.8775 155.798C39.6743 155.764 35.655 154.081 32.6908 151.114L25.8708 157.906C30.5979 162.638 37.0025 165.33 43.7038 165.403V165.407C43.7617 165.407 43.8196 165.407 43.8761 165.407H44.057V165.403C58.0371 165.214 69.357 153.864 69.4221 139.909L69.4308 115.576C69.095 101.744 57.6897 90.5917 43.7197 90.5917Z" fill="#F55036"/>
<path d="M197.594 90.72C183.412 90.72 171.875 102.21 171.875 116.334C171.875 130.459 183.412 141.947 197.594 141.947H206.394V132.343H197.594C188.73 132.343 181.519 125.16 181.519 116.334C181.519 107.508 188.73 100.326 197.594 100.326C205.987 100.326 212.895 106.766 213.605 114.946H213.59V164.128H223.235V116.334C223.232 102.21 211.775 90.72 197.594 90.72Z" fill="#F55036"/>
<path d="M237.975 92.0216H236.6L234.725 94.9232L232.788 92.0216H231.4V97.1877H232.95V94.6739L234.325 96.7034H235.075L236.425 94.6104L236.45 97.1877H238L237.975 92.0216Z" fill="#F55036"/>
<path d="M225.725 93.2555H227.413V97.1877H229.113V93.2555H230.813V92.0216H225.725V93.2555Z" fill="#F55036"/>
</svg>
