<svg width="256" height="256" viewBox="0 0 256 256" fill="none" xmlns="http://www.w3.org/2000/svg" id="grunt">
<style>
#grunt {
    rect {fill: #242938}

    @media (prefers-color-scheme: light) {
        rect {fill: #F4F2ED}
    }
}
</style>
<rect width="256" height="256" fill="#242938" rx="60"/>
<path fill-rule="evenodd" clip-rule="evenodd" d="M180.968 169.569C186.878 165.169 189.909 159.604 191.317 152.716C198.171 159.494 200.586 167.466 200.021 176.47C199.254 188.68 193.646 197.578 182.068 202.358C181.161 202.734 180.343 203.722 179.844 204.625C174.417 214.458 166.434 220.681 155.183 222.459C154.24 222.608 153.299 223.145 152.488 223.694C139.109 232.722 117.843 232.689 104.395 223.631C103.485 223.023 102.459 222.608 101.382 222.415C91.2651 220.666 83.5801 215.33 78.3792 206.572C76.8676 204.023 75.1104 202.309 72.3773 201.061C52.8515 192.149 53.1845 163.259 65.3995 153.194C66.5913 156.136 67.5111 159.227 69.0507 161.973C70.6036 164.744 72.7696 167.171 74.667 169.749L75.5967 169.495C75.9181 166.266 76.3467 163.043 76.533 159.807C76.7951 155.251 76.9946 150.683 77.0077 146.118C77.0242 140.547 74.9406 136.208 69.6788 133.498C65.8264 131.513 61.9806 129.316 58.6277 126.601C50.4316 119.964 50.6393 111.018 58.9244 104.599C60.9141 103.06 62.0943 101.301 62.3268 98.8116C62.8163 93.5663 63.6406 88.3358 59.8838 83.7103C58.842 82.4278 58.3178 80.6475 57.8199 79.0139C55.3934 71.0734 59.3002 64.7434 67.5292 63.4526C69.9013 63.0801 71.1921 62.4669 71.4756 59.7057C71.9817 54.7852 70.925 51.4059 66.3918 49.0354C62.7834 47.1463 58.7595 46.0484 54.7753 44.5434C59.4305 37.8541 66.3539 34.8044 74.4675 34.3149C85.1955 33.6654 93.6059 38.5629 100.762 46.0748C101.95 47.321 102.944 48.7618 104.195 49.9355C104.814 50.5174 105.832 50.9987 106.622 50.9344C107.032 50.8998 107.585 49.6008 107.651 48.8392C108.188 42.5406 111.033 37.4568 115.677 33.3126C116.468 32.6071 117.47 32.1373 118.395 31.5455L120.673 42.2142L121.662 42.2043C123.294 33.6571 129.126 29.302 136.764 26.5557C136.604 29.114 136.23 31.5109 136.37 33.8764C136.506 36.143 137.174 38.3799 137.693 41.0619C142.037 38.0321 145.818 34.8869 150.772 35.0171C149.705 39.0755 148.547 43.0269 147.66 47.0392C147.205 49.098 147.774 51.0498 150.393 50.9954C151.351 50.9756 152.533 50.2289 153.197 49.4558C158.841 42.8966 165.099 37.2853 173.806 35.1275C184.911 32.3746 196.089 36.1001 202.416 44.9407C201.214 45.2358 200.083 45.422 199.017 45.7946C196.262 46.7606 193.343 47.4677 190.841 48.8936C185.539 51.9152 184.69 54.7703 185.96 61.5487C186.075 62.1603 187.048 62.8048 187.756 63.0653C188.882 63.4774 190.15 63.4873 191.309 63.8301C198.079 65.8231 201.313 71.4311 199.38 78.1996C198.674 80.6276 197.634 82.9452 196.287 85.0851C192.843 90.5661 194.121 96.212 195.532 101.8C195.845 103.038 197.489 104.022 198.657 104.954C205.795 110.642 206.483 119.318 199.628 125.388C195.816 128.764 191.193 131.297 186.723 133.838C182.617 136.17 180.202 139.579 180.188 144.071C180.154 152.569 180.675 161.068 180.968 169.569ZM151.459 154.944L151.426 154.969C151.413 155.057 151.423 155.146 151.455 155.229C151.488 155.311 151.541 155.384 151.611 155.439L152.127 156.675C153.96 161.487 155.717 166.33 157.644 171.102C159.944 176.801 158.353 176.59 165.643 175.932L171.669 174.829C174.823 174.768 175.644 173.194 175.396 170.125C174.793 162.664 174.574 155.172 174.152 147.694C173.613 138.161 177.342 131.36 186.274 127.316C189.519 125.848 192.604 123.589 195.123 121.056C198.954 117.2 197.865 111.343 193.188 108.661L192.786 111.963C189.235 106.408 188.206 100.767 187.278 95.0895L187.183 92.0613C187.253 91.9848 187.295 91.8871 187.303 91.7838C187.311 91.6804 187.284 91.5773 187.227 91.4909L188.676 80.5173L189.237 80.5997L190.053 84.0367C191.225 81.986 192.189 80.5684 192.885 79.0337C195.614 72.9938 193.158 68.9535 186.451 69.0408C182.452 69.0919 178.372 69.6854 174.49 70.6695C164.357 73.2394 156.049 79.2974 147.777 85.3505C146.951 85.9555 146.086 86.5093 145.238 87.0863L144.846 86.628L149.138 80.481L150.195 79.248C150.265 79.2045 150.325 79.1465 150.371 79.078C150.416 79.0095 150.447 78.932 150.46 78.8507L166.511 65.9929L156.753 60.7871L156.621 60.8086L155.913 60.286C144.643 54.9995 132.657 53.9214 120.569 55.3654C113.941 56.1567 107.512 58.6145 100.993 60.319C97.1533 61.8108 93.502 63.5911 91.0129 66.3341L107.055 79.3733L107.049 79.3469L107.627 80.1431L112.144 86.6527C107.046 83.7977 102.446 80.542 97.7138 77.4924C90.3848 72.7713 82.4361 69.6145 73.6713 68.998C69.9607 68.7375 65.5742 68.2925 63.6455 72.2668C61.6493 76.3813 64.3692 80.0178 66.6622 83.3987C66.7479 83.5257 67.0149 83.5306 67.3116 83.6312L67.6825 80.4233C68.4227 81.9943 68.8793 83.5471 69.0606 85.1312C69.4167 88.2402 69.6211 91.3673 69.8898 94.4878C69.2848 97.4434 68.8892 100.465 68.0155 103.34C67.1237 106.276 65.7638 109.068 64.6082 111.925L63.9505 111.62L63.7609 108.681C58.4859 111.897 58.1826 118.489 63.2515 122.531C66.3143 124.972 69.814 126.932 73.2955 128.774C79.8447 132.235 82.8218 137.776 82.7179 144.899C82.6009 153.098 82.1047 161.294 81.6333 169.485C81.3794 173.893 81.2475 173.886 85.2532 174.823L91.8602 175.952C93.9619 175.782 96.672 177.722 97.9495 174.602C100.472 168.445 102.793 162.206 105.196 156.001C105.298 155.857 105.351 155.683 105.346 155.506L105.958 154.206L108.404 149.537L109.134 149.795C108.041 160.735 104.187 171.049 100.903 181.773C119.216 181.773 137.029 181.774 154.84 181.763C155.127 181.763 155.412 181.626 155.604 181.576L146.7 147.811L147.703 147.503L151.021 154.202L151.459 154.944ZM172.325 205.401C165.601 205.068 163.262 207.046 161.67 214.634C166.051 212.308 169.891 209.689 172.279 205.362L172.371 205.134L172.325 205.401ZM191.863 166.435C186.1 178.248 175.175 180.945 163.808 182.241L169.233 192.588L168.391 199.37C177.498 198.806 185.49 196.073 190.631 188.229C195.418 180.924 195.209 172.846 192.667 164.622L191.863 166.435ZM64.5637 165.509C64.5307 165.318 64.5274 164.975 64.4582 164.96C64.2505 164.917 63.8268 164.98 63.8186 165.043C63.3867 168.414 62.6021 171.798 62.6597 175.167C62.8609 186.926 69.209 194.955 80.5601 198.069C83.1696 198.784 85.9093 199.028 88.7001 199.51L87.6698 192.59L93.2663 182.186C81.2294 181.059 70.2953 177.745 64.5637 165.509ZM158.887 206.575L159.537 205.38C160.504 203.169 161.635 201.013 162.412 198.738C164.911 191.401 162.092 187.404 154.329 187.084C153.824 187.063 153.317 187.053 152.811 187.054C136.609 187.053 120.406 187.036 104.205 187.077C102.603 187.081 100.966 187.267 99.4067 187.633C94.5966 188.762 92.7075 191.597 93.9751 196.35C94.7993 199.444 96.2631 202.368 97.4401 205.37L98.0501 206.488L98.5067 207.241C101.143 210.648 103.249 214.707 106.508 217.344C117.223 226.018 129.487 226.734 142.09 222.339C149.862 219.627 155.46 214.146 158.889 206.577L158.887 206.575ZM190.757 42.5109C178.72 37.2491 166.323 41.8548 159.179 54.2511L163.373 56.2869C168.867 48.1238 176.479 43.0615 185.955 44.0324C187.298 44.1709 188.759 43.1785 190.757 42.5109ZM67.0248 43.0236C68.8134 43.3615 70.6052 44.0044 72.3905 43.9813C77.7726 43.9088 82.6701 45.1978 86.7319 48.7799C89.2738 51.0201 91.5255 53.59 94.0328 56.1418L97.8588 54.1785C91.4118 42.346 78.1369 37.1469 67.0248 43.0236ZM180.958 48.8722C180.45 48.9513 179.583 49.0123 178.758 49.2332C174.488 50.3756 171.885 53.3823 170.316 57.2842C169.836 58.476 169.572 60.4278 170.212 61.2569C171.539 62.9779 172.703 65.3401 176.003 64.2241C178.217 63.4757 178.8 62.1965 179.109 60.347C179.717 56.6973 180.289 53.0411 180.958 48.8722ZM75.9494 49.0387C76.444 51.8378 76.9154 54.4802 77.3753 57.1226C77.616 58.5123 77.8089 59.9085 78.071 61.2932C78.6216 64.1813 81.3992 64.9428 83.1317 64.3626C84.9532 63.7527 87.2396 61.3937 87.4143 59.6101C87.8874 54.7885 81.0629 49.0107 75.9494 49.0387ZM84.523 205.426C87.1967 209.399 90.7425 212.452 95.9236 214.784C93.1179 209.651 92.2426 203.497 84.523 205.426Z" fill="#493310"/>
<path fill-rule="evenodd" clip-rule="evenodd" d="M69.8882 94.4911C69.6195 91.369 69.4151 88.2435 69.059 85.1346C68.862 83.5001 68.3964 81.9093 67.6809 80.4266L67.31 83.6345C67.0133 83.5339 66.7462 83.5306 66.6605 83.4021C64.3675 80.0211 61.6476 76.3847 63.6439 72.2702C65.5726 68.2958 69.959 68.7409 73.6697 69.0013C82.4344 69.6195 90.3848 72.7762 97.7121 77.4957C102.445 80.5453 107.044 83.801 112.143 86.6561L107.626 80.1464L107.047 79.3518L107.055 79.3782C106.06 77.0127 105.234 74.5598 104.034 72.3031C102.029 68.5299 99.1776 65.0401 100.991 60.3223C107.51 58.6161 113.939 56.16 120.568 55.3687C132.656 53.9247 144.641 55.0028 155.912 60.291L156.619 60.8119L156.748 60.7921C156.893 64.9527 155.297 68.4985 153.2 71.9965C151.951 74.0818 151.351 76.5544 150.459 78.854C150.445 78.9353 150.415 79.0128 150.369 79.0815C150.324 79.1502 150.265 79.2086 150.195 79.2529L149.137 80.4843L144.844 86.6313L145.237 87.0896C146.084 86.5127 146.949 85.9588 147.775 85.3538C156.047 79.3007 164.354 73.2411 174.488 70.6728C178.37 69.6887 182.452 69.0953 186.449 69.0442C193.157 68.9568 195.613 72.9971 192.883 79.037C192.187 80.5733 191.223 81.991 190.051 84.04L189.235 80.603L188.675 80.5206L187.226 91.4942L187.089 91.6624L187.179 92.0662L187.275 95.0944C186.954 95.9566 186.357 96.817 186.35 97.6808C186.289 104.7 186.914 111.564 192.298 117.734C188.03 119.903 184.255 121.992 180.338 123.767C176.786 125.38 173.097 126.82 171.821 130.91C170.763 134.306 170.156 137.842 169.355 141.285L167.382 135.812C166.806 149.157 167.416 162.219 171.663 174.834L165.636 175.937C161.611 169.815 157.597 163.686 153.535 157.588C153.25 157.161 152.602 156.977 152.122 156.68L151.606 155.444L151.865 155.078L151.422 154.974L151.456 154.949L151.014 154.211L147.696 147.511L146.694 147.82L155.597 181.585C155.406 181.634 155.119 181.771 154.834 181.771C137.022 181.782 119.211 181.781 100.897 181.781C104.179 171.056 108.035 160.743 109.128 149.803L108.397 149.546L105.949 154.214L105.338 155.515C105.342 155.691 105.29 155.864 105.189 156.009C104.596 156.482 103.839 156.847 103.434 157.447C100.458 161.845 97.5371 166.28 94.6708 170.751C93.6108 172.411 92.785 174.219 91.8536 175.96L85.2467 174.831C89.6892 162.247 90.2414 149.211 89.6529 136.023L87.5627 141.483C87.116 132.562 84.4604 125.833 75.0395 123.08C71.4476 122.03 68.3254 119.376 65.7374 117.886C67.3512 113.789 69.1859 110.75 69.6656 107.507C70.3019 103.249 69.8651 98.8347 69.8882 94.4911ZM138.18 95.162L138.791 94.5307L140.281 92.8031C136.411 93.1822 132.643 93.8548 128.877 93.835C125.079 93.8136 121.283 93.1048 117.487 92.6992L116.696 92.4784L117.487 92.6976L118.7 95.1356C125.469 102.829 131.123 102.982 137.931 95.6516C138.063 95.5098 138.127 95.3054 138.222 95.1307L138.18 95.162ZM100.429 135.936L107.688 131.449C109.319 128.245 111.264 125.149 112.439 121.786C113 120.179 113.305 119.295 115.054 118.835C118.893 117.83 120.866 115.238 120.769 111.897L116.923 112.367C112.809 110.031 109.691 106.785 107.161 102.75C105.753 100.505 103.562 98.6682 101.485 96.9357C97.0594 93.2432 91.5173 92.4025 86.1022 92.2871C82.7756 92.2179 79.4145 93.8004 76.0698 94.6411C75.9676 94.7417 75.8555 94.7516 75.7335 94.679L74.8516 95.0549L74.6818 95.3021C74.667 95.3846 74.7098 95.5428 74.7642 95.5626C75.9676 95.9895 77.1759 96.4033 78.5952 96.8945C75.3692 100.945 75.7747 104.792 78.2391 108.999L79.5183 104.494L80.1349 104.552L80.4464 107.736L80.8536 109.149L81.0909 110.094C80.7563 120.301 89.8837 127.651 103.455 127.401L100.437 135.946L100.299 136.192L100.429 135.936ZM156.467 135.934L156.708 136.08L156.457 135.944L153.546 127.305C169.363 128.868 175.853 118.115 176.423 108.293L177.048 104.586L177.562 104.606L178.749 109.019C181.14 104.769 181.754 100.897 178.41 96.9753L182.379 95.4159L180.727 94.768C179.92 94.2768 179.147 93.4328 178.301 93.3553C174.655 93.0124 170.97 92.5657 167.334 92.7668C160.11 93.1658 154.165 96.3143 150.091 102.404C147.383 106.452 144.465 110.178 139.975 112.365L135.816 111.894C136.48 115.853 138.737 117.912 142.207 119.01C143.028 119.27 143.858 120.152 144.262 120.962C145.997 124.417 147.574 127.951 149.208 131.457L156.467 135.934Z" fill="#F5A900"/>
<path fill-rule="evenodd" clip-rule="evenodd" d="M97.4368 205.37C96.2598 202.37 94.796 199.445 93.9718 196.35C92.7042 191.597 94.5933 188.762 99.4034 187.633C100.977 187.267 102.587 187.08 104.202 187.077C120.405 187.038 136.607 187.053 152.808 187.054C153.314 187.054 153.822 187.062 154.326 187.084C162.089 187.402 164.907 191.401 162.408 198.738C161.634 201.013 160.503 203.169 159.533 205.38L158.884 206.575L158.882 206.578C156.787 207.94 154.748 209.399 152.585 210.643C147.147 213.764 141.221 215.178 135.013 215.923C126.522 216.944 118.238 216.297 110.293 213.251C106.197 211.68 102.422 209.27 98.5017 207.241L98.0451 206.488L97.4368 205.37ZM155.788 200.467L156.456 199.267C158.312 194.487 157.481 193.191 152.429 193.132C148.677 193.091 144.922 193.059 141.17 193.142C137.528 193.221 136.719 194.398 137.69 197.884C138.129 199.704 138.315 201.638 139.058 203.324C140.949 207.622 144.368 210.02 147.394 209.514C151.514 208.827 155.208 204.842 155.806 200.443L155.788 200.467ZM101.091 200.464L101.083 200.449C101.771 205.019 104.533 207.831 108.781 209.208C111.777 210.177 114.412 208.825 115.868 206.488C117.457 203.934 118.166 200.833 119.259 197.97C120.301 194.403 119.565 193.262 115.939 193.155C112.7 193.058 109.456 193.109 106.213 193.135C99.2534 193.19 99.1182 193.358 100.46 199.836L101.091 200.464Z" fill="#F5A800"/>
<path fill-rule="evenodd" clip-rule="evenodd" d="M69.8882 94.4911C69.8651 98.8347 70.3019 103.249 69.6706 107.502C69.1892 110.745 67.3545 113.784 65.7423 117.881C68.3304 119.371 71.4525 122.025 75.0445 123.075C84.4636 125.828 87.1209 132.557 87.5677 141.478L89.6579 136.019C90.2447 149.206 89.6925 162.24 85.2516 174.826C81.2459 173.891 81.3778 173.898 81.6316 169.488C82.1047 161.299 82.5993 153.101 82.7163 144.902C82.8202 137.779 79.8431 132.239 73.2938 128.777C69.8123 126.937 66.3144 124.977 63.2499 122.534C58.181 118.491 58.4843 111.9 63.7593 108.684L63.9488 111.623L64.6066 111.928C65.7621 109.073 67.1221 106.279 68.0139 103.343C68.8876 100.468 69.2832 97.4484 69.8882 94.4911ZM171.668 174.831C167.421 162.214 166.811 149.152 167.387 135.809L169.36 141.282C170.159 137.837 170.768 134.301 171.826 130.907C173.102 126.819 176.791 125.376 180.343 123.764C184.258 121.989 188.035 119.902 192.303 117.731C186.919 111.561 186.294 104.697 186.355 97.6775C186.362 96.8137 186.959 95.9533 187.28 95.0911C188.208 100.768 189.237 106.411 192.787 111.965L193.19 108.663C197.865 111.345 198.956 117.202 195.125 121.057C192.608 123.593 189.522 125.849 186.276 127.318C177.342 131.362 173.613 138.163 174.153 147.696C174.575 155.173 174.795 162.666 175.398 170.126C175.642 173.196 174.821 174.77 171.668 174.831ZM193.315 112.344L193.231 112.505L193.358 112.522L193.315 112.344Z" fill="#E08700"/>
<path fill-rule="evenodd" clip-rule="evenodd" d="M98.505 207.241C102.425 209.27 106.2 211.68 110.296 213.251C118.24 216.297 126.525 216.944 135.016 215.923C141.224 215.178 147.15 213.764 152.589 210.643C154.753 209.4 156.79 207.94 158.886 206.578C155.457 214.148 149.859 219.629 142.086 222.341C129.484 226.735 117.22 226.018 106.505 217.346C103.248 214.707 101.139 210.648 98.505 207.241Z" fill="#E08600"/>
<path fill-rule="evenodd" clip-rule="evenodd" d="M64.5637 165.509C70.297 177.745 81.2294 181.059 93.2663 182.188L87.6699 192.591C73.2708 191.414 63.9934 180.541 64.5637 165.509ZM169.233 192.59C167.426 189.14 165.617 185.691 163.808 182.242C175.176 180.945 186.1 178.248 191.863 166.437C192.044 167.186 192.405 167.939 192.379 168.681C191.953 181.052 183.469 191.47 169.233 192.59Z" fill="white"/>
<path fill-rule="evenodd" clip-rule="evenodd" d="M64.5637 165.509C63.9933 180.541 73.2707 191.413 87.6698 192.59L88.7001 199.51C85.9077 199.028 83.1696 198.784 80.5601 198.069C69.209 194.957 62.8609 186.926 62.6598 175.167C62.6021 171.799 63.3867 168.415 63.8186 165.043C63.8268 164.978 64.2505 164.916 64.4582 164.96C64.5274 164.975 64.5307 165.318 64.5637 165.509ZM169.233 192.59C183.469 191.47 191.953 181.052 192.38 168.679C192.407 167.937 192.044 167.184 191.864 166.435L192.669 164.622C195.211 172.846 195.42 180.924 190.633 188.229C185.491 196.074 177.5 198.806 168.392 199.37L169.233 192.59Z" fill="#C7C6C6"/>
<path fill-rule="evenodd" clip-rule="evenodd" d="M190.757 42.5109C188.759 43.1785 187.298 44.1709 185.955 44.0324C176.479 43.0615 168.869 48.1238 163.373 56.2869L159.179 54.2511C166.323 41.8548 178.72 37.2491 190.757 42.5109ZM67.0248 43.0236C78.137 37.1469 91.4118 42.3461 97.8589 54.1769L94.0328 56.1402C91.5256 53.5884 89.2722 51.0201 86.7319 48.7783C82.6702 45.1979 77.7727 43.9071 72.3905 43.9797C70.6052 44.0044 68.8134 43.3615 67.0248 43.0236Z" fill="#F0A500"/>
<path fill-rule="evenodd" clip-rule="evenodd" d="M180.958 48.8723C180.287 53.0412 179.717 56.6974 179.109 60.347C178.8 62.1966 178.217 63.4758 176.003 64.2242C172.705 65.3401 171.539 62.9779 170.212 61.257C169.572 60.4278 169.835 58.4761 170.316 57.2842C171.884 53.3824 174.486 50.3756 178.758 49.2333C179.583 49.0124 180.451 48.9514 180.958 48.8723ZM75.9495 49.0387C81.0629 49.0107 87.8875 54.7868 87.4143 59.6118C87.2396 61.3954 84.9532 63.7543 83.1317 64.3643C81.3992 64.9445 78.6216 64.1829 78.071 61.2949C77.8089 59.9102 77.616 58.5123 77.3754 57.1243C76.9155 54.4802 76.444 51.8378 75.9495 49.0387Z" fill="#DE8500"/>
<path fill-rule="evenodd" clip-rule="evenodd" d="M100.993 60.3223C99.1792 65.0401 102.031 68.5298 104.036 72.3031C105.234 74.5598 106.061 77.011 107.057 79.3782L91.0145 66.3391C93.5004 63.5944 97.1517 61.8141 100.993 60.3223Z" fill="#E08600"/>
<path fill-rule="evenodd" clip-rule="evenodd" d="M150.459 78.854C151.351 76.5544 151.951 74.0818 153.2 71.9965C155.297 68.4968 156.893 64.9527 156.748 60.7921C160.046 62.5476 163.341 64.3049 166.51 65.9962L150.459 78.854ZM152.127 156.677C152.607 156.973 153.255 157.158 153.54 157.585C157.602 163.683 161.615 169.811 165.641 175.934C158.352 176.591 159.942 176.802 157.643 171.104C155.717 166.332 153.96 161.489 152.127 156.677ZM91.8569 175.954C92.7899 174.213 93.6141 172.404 94.6741 170.744C97.5411 166.274 100.462 161.839 103.437 157.44C103.843 156.84 104.599 156.476 105.193 156.002C102.788 162.207 100.467 168.447 97.9462 174.603C96.6687 177.724 93.9586 175.784 91.8569 175.954Z" fill="#DE8600"/>
<path fill-rule="evenodd" clip-rule="evenodd" d="M84.523 205.426C92.2426 203.497 93.118 209.651 95.9236 214.784C90.7426 212.45 87.1951 209.399 84.523 205.426ZM172.279 205.362C169.891 209.687 166.051 212.308 161.67 214.634C163.264 207.046 165.603 205.068 172.325 205.401L172.279 205.362ZM172.325 205.401L172.37 205.133L172.279 205.362L172.325 205.401Z" fill="#ECA200"/>
<path fill-rule="evenodd" clip-rule="evenodd" d="M151.426 154.969L151.87 155.073L151.611 155.439C151.541 155.384 151.488 155.311 151.455 155.229C151.423 155.146 151.413 155.057 151.426 154.969Z" fill="#DE8600"/>
<path fill-rule="evenodd" clip-rule="evenodd" d="M187.183 92.0629L187.092 91.659L187.229 91.4909C187.286 91.5778 187.313 91.6812 187.304 91.7848C187.296 91.8885 187.253 91.9863 187.183 92.0629Z" fill="#E08700"/>
<path fill-rule="evenodd" clip-rule="evenodd" d="M149.209 131.457C147.576 127.953 145.998 124.417 144.264 120.962C143.86 120.154 143.029 119.27 142.208 119.01C138.738 117.91 136.482 115.852 135.817 111.894L139.976 112.365C140.758 112.419 141.556 112.607 142.316 112.505C145.954 112.012 148.438 109.708 150.856 107.159C158.96 98.6138 168.466 93.3339 180.732 94.7697L182.384 95.4175L178.415 96.9769C181.758 100.899 181.144 104.771 178.754 109.02L177.567 104.608L177.053 104.588L176.428 108.297C174.684 112.393 173.024 116.529 168.77 118.827C162.578 122.17 156.362 123.632 150.099 119.19C147.424 123.255 149.005 127.4 149.209 131.457ZM169.704 108.478V100.849C163.285 104.627 157.806 108.3 153.414 113.4L151.603 115.589C157.732 120.185 169.718 117.162 169.704 108.478Z" fill="#49330E"/>
<path fill-rule="evenodd" clip-rule="evenodd" d="M81.0893 110.092L80.8519 109.147L80.4448 107.735L80.1332 104.55L79.5167 104.492L78.2375 108.997C75.7731 104.791 75.3676 100.943 78.5936 96.8929C77.1743 96.4033 75.966 95.9895 74.7626 95.5609C74.7082 95.5412 74.6637 95.3829 74.6802 95.3005L74.85 95.0532L75.7319 94.6774C75.8522 94.7499 75.966 94.74 76.0682 94.6395C80.6607 95.1439 85.3967 95.1109 89.8145 96.2764C96.7528 98.1078 102.11 102.705 106.904 107.949C109.569 110.863 112.632 113.051 116.921 112.365L120.767 111.895C120.864 115.238 118.891 117.828 115.052 118.834C113.303 119.293 112.998 120.177 112.438 121.784C111.262 125.149 109.317 128.243 107.687 131.446C108.094 127.341 109.49 123.161 106.793 119.127C103.529 121.565 99.9705 122.458 96.1214 121.768C89.1024 120.505 83.9048 116.813 81.0893 110.092ZM103.528 113.344C99.1331 108.259 93.6669 104.58 87.2545 100.844V108.468C87.3567 117.337 99.4677 120.149 105.264 115.664C105.091 115.345 104.945 114.978 104.713 114.68C104.349 114.21 103.925 113.786 103.528 113.344Z" fill="#49330F"/>
<path fill-rule="evenodd" clip-rule="evenodd" d="M149.209 131.457C149.005 127.399 147.424 123.255 150.098 119.188C156.36 123.629 162.577 122.168 168.768 118.825C173.023 116.526 174.683 112.391 176.427 108.295C175.856 118.115 169.365 128.868 153.55 127.305L156.461 135.944L156.469 135.934L149.209 131.457ZM81.0893 110.092C83.9048 116.813 89.1007 120.505 96.123 121.768C99.9721 122.46 103.531 121.565 106.795 119.127C109.49 123.161 108.094 127.341 107.688 131.446L100.429 135.936L100.437 135.944L103.455 127.399C89.8837 127.649 80.7547 120.299 81.0893 110.092Z" fill="#E08700"/>
<path fill-rule="evenodd" clip-rule="evenodd" d="M116.923 112.365C112.634 113.051 109.571 110.863 106.905 107.949C102.112 102.705 96.7544 98.1078 89.8161 96.2764C85.3983 95.1093 80.6624 95.1422 76.0698 94.6395C79.4145 93.7988 82.7757 92.2146 86.1006 92.2855C91.5157 92.4009 97.0577 93.2416 101.484 96.9341C103.562 98.6666 105.752 100.503 107.159 102.748C109.691 106.784 112.809 110.029 116.923 112.365Z" fill="#DE8600"/>
<path fill-rule="evenodd" clip-rule="evenodd" d="M180.729 94.7697C168.465 93.3339 158.957 98.6138 150.853 107.159C148.436 109.708 145.95 112.012 142.312 112.505C141.552 112.609 140.754 112.419 139.973 112.365C144.463 110.178 147.383 106.452 150.09 102.404C154.163 96.3142 160.109 93.1657 167.332 92.7668C170.97 92.5657 174.653 93.0141 178.299 93.3553C179.148 93.4361 179.921 94.2784 180.729 94.7697ZM118.698 95.1356L117.485 92.6976V92.6992C121.281 93.1064 125.076 93.8136 128.876 93.835C132.641 93.8548 136.409 93.1822 140.28 92.8031L138.791 94.5306L138.18 95.162L138.221 95.1274C134.42 95.767 130.628 96.8088 126.812 96.9077C124.125 96.9802 121.403 95.7719 118.698 95.1356Z" fill="#DF8600"/>
<path fill-rule="evenodd" clip-rule="evenodd" d="M118.698 95.1356C121.403 95.7736 124.125 96.9802 126.81 96.9093C130.626 96.8088 134.418 95.7686 138.219 95.129C138.124 95.3038 138.059 95.5082 137.927 95.6499C131.121 102.982 125.469 102.829 118.698 95.1356Z" fill="#52380B"/>
<path fill-rule="evenodd" clip-rule="evenodd" d="M137.69 197.884C136.719 194.398 137.529 193.221 141.17 193.142C144.922 193.059 148.677 193.091 152.429 193.132C157.481 193.191 158.314 194.487 156.456 199.267L155.788 200.468L155.805 200.443C154.928 201.392 154.076 202.367 153.167 203.288C149.049 207.468 144.533 207.198 140.969 202.531C139.82 201.026 138.78 199.437 137.69 197.884Z" fill="#47310D"/>
<path fill-rule="evenodd" clip-rule="evenodd" d="M100.46 199.835C99.1182 193.355 99.2534 193.186 106.213 193.134C109.456 193.107 112.7 193.056 115.939 193.153C119.565 193.261 120.301 194.403 119.259 197.968C118.029 199.696 116.862 201.473 115.556 203.143C112.502 207.048 108.165 207.294 104.52 203.819C103.36 202.713 102.227 201.572 101.082 200.449L101.088 200.464L100.46 199.835Z" fill="#47310E"/>
<path fill-rule="evenodd" clip-rule="evenodd" d="M101.083 200.449C102.229 201.574 103.361 202.713 104.522 203.819C108.167 207.292 112.504 207.048 115.558 203.143C116.864 201.473 118.031 199.696 119.261 197.968C118.168 200.832 117.46 203.932 115.87 206.486C114.412 208.823 111.778 210.175 108.783 209.206C104.533 207.831 101.771 205.019 101.083 200.449Z" fill="#DC8400"/>
<path fill-rule="evenodd" clip-rule="evenodd" d="M137.69 197.884C138.78 199.436 139.82 201.025 140.969 202.531C144.533 207.198 149.049 207.468 153.167 203.288C154.076 202.367 154.926 201.392 155.805 200.443C155.206 204.842 151.512 208.827 147.393 209.514C144.368 210.02 140.947 207.622 139.057 203.324C138.316 201.638 138.129 199.704 137.69 197.884Z" fill="#DE8500"/>
<path fill-rule="evenodd" clip-rule="evenodd" d="M193.315 112.344L193.358 112.521L193.231 112.505L193.315 112.344Z" fill="#493310"/>
<path fill-rule="evenodd" clip-rule="evenodd" d="M153.414 113.402C157.806 108.3 163.287 104.627 169.704 100.851V108.48C167.057 111.854 164.065 114.867 159.456 114.862C157.442 114.858 155.427 113.916 153.414 113.402Z" fill="white"/>
<path fill-rule="evenodd" clip-rule="evenodd" d="M153.414 113.402C155.429 113.916 157.442 114.858 159.456 114.861C164.065 114.867 167.057 111.854 169.704 108.478C169.718 117.162 157.732 120.185 151.603 115.589L153.414 113.402Z" fill="#C5C4C3"/>
<path fill-rule="evenodd" clip-rule="evenodd" d="M87.2545 108.467V100.843C93.6652 104.58 99.1331 108.257 103.528 113.343C100.996 115.626 95.8593 115.697 92.1503 113.15C90.3123 111.889 88.8732 110.046 87.2545 108.467Z" fill="white"/>
<path fill-rule="evenodd" clip-rule="evenodd" d="M87.2545 108.467C88.8732 110.046 90.3123 111.89 92.1503 113.151C95.8593 115.698 100.996 115.627 103.528 113.344C103.927 113.788 104.35 114.21 104.713 114.68C104.945 114.978 105.091 115.344 105.264 115.664C99.4677 120.147 87.3567 117.335 87.2545 108.467Z" fill="#C5C4C3"/>
</svg>
