<svg width="256" height="256" viewBox="0 0 256 256" fill="none" xmlns="http://www.w3.org/2000/svg">
<path d="M196 0H60C26.8629 0 0 26.8629 0 60V196C0 229.137 26.8629 256 60 256H196C229.137 256 256 229.137 256 196V60C256 26.8629 229.137 0 196 0Z" fill="#F4F2ED"/>
<path d="M108.318 84.9998C116.204 85.0565 122.181 87.3064 126.083 91.6873C129.778 95.8386 131.555 101.835 131.359 109.511H131.353C131.34 109.914 131.17 110.297 130.881 110.577C130.591 110.857 130.204 111.014 129.801 111.013H113.801C112.752 111.013 111.877 110.164 111.877 109.13C111.877 104.463 110.262 102.189 106.958 102.189C103.654 102.189 101.522 104.218 101.46 107.763C101.389 111.716 103.625 115.309 109.99 121.481C118.369 129.342 121.727 136.305 121.565 145.509C121.302 160.391 111.182 170.011 95.784 170.011C87.9205 170.011 81.9133 167.909 77.9177 163.76C73.8627 159.547 72.0032 153.363 72.3914 145.384C72.4047 144.98 72.5749 144.598 72.865 144.318C73.1553 144.038 73.5435 143.881 73.947 143.882H90.4959C90.7264 143.885 90.9541 143.941 91.1609 144.043C91.3675 144.145 91.5489 144.291 91.6922 144.471C91.8172 144.621 91.9089 144.795 91.9607 144.983C92.0124 145.171 92.0236 145.367 91.9929 145.559C91.8087 148.438 92.3096 150.59 93.4431 151.78C94.1685 152.551 95.1804 152.941 96.4412 152.941C99.4987 152.941 101.29 150.782 101.358 147.019C101.415 143.766 100.386 140.915 94.781 135.148C87.5409 128.075 81.0486 120.767 81.2498 109.276C81.3689 102.611 84.0161 96.5165 88.7058 92.113C93.6649 87.4601 100.446 84.9998 108.318 84.9998ZM49.0379 85.0017C56.2497 84.9394 61.9115 87.1638 65.8504 91.6042C70.0158 96.3025 72.13 103.375 72.1414 112.635C72.131 113.041 71.9622 113.428 71.6717 113.712C71.3811 113.995 70.9916 114.154 70.5857 114.155H53.2146C52.9104 114.146 52.6215 114.019 52.407 113.803C52.1925 113.587 52.0684 113.297 52.0613 112.993C51.9196 106.589 50.0213 103.471 46.2468 103.471C39.5876 103.471 35.6597 112.511 33.5769 117.521C30.6667 124.52 29.1845 132.123 29.4763 139.695C29.6152 143.22 30.1824 148.177 33.5291 150.231C36.496 152.05 40.7293 150.843 43.2937 148.828C45.8553 146.81 47.9187 143.323 48.7859 140.14C48.9078 139.698 48.9158 139.355 48.7996 139.202C48.6776 139.043 48.3405 139.007 48.0828 139.007H43.6228C43.3868 139.007 43.1536 138.956 42.9392 138.857C42.7249 138.758 42.5343 138.614 42.3816 138.434C42.2644 138.294 42.1812 138.128 42.1384 137.95C42.0957 137.772 42.094 137.586 42.1345 137.408L45.1843 124.164C45.3345 123.487 45.9492 122.973 46.7058 122.883V122.848H75.9783C76.0463 122.848 76.1172 122.849 76.1824 122.863C76.9417 122.962 77.4768 123.668 77.4627 124.438H77.4715V124.475L74.4256 137.697C74.2612 138.445 73.5126 138.992 72.6511 138.992H68.9705C68.8378 138.993 68.7085 139.036 68.6023 139.116C68.4963 139.196 68.4183 139.307 68.3806 139.434C64.9859 150.95 60.3898 158.865 54.3201 163.617C49.1571 167.663 42.7926 169.551 34.2888 169.552C26.6492 169.552 21.4973 167.094 17.1277 162.243C11.3526 155.833 8.96671 145.337 10.4119 132.693C13.0189 108.955 25.3309 85.0018 49.0379 85.0017ZM179.549 86.5466C179.747 86.5451 179.944 86.5835 180.127 86.6589C180.31 86.7344 180.476 86.8464 180.616 86.9871C180.755 87.1276 180.865 87.2947 180.939 87.4783C181.013 87.6621 181.051 87.8591 181.048 88.0574L180.942 167.212C180.972 167.397 180.961 167.587 180.91 167.767C180.859 167.948 180.77 168.115 180.648 168.258C180.507 168.422 180.331 168.553 180.134 168.642C179.936 168.731 179.722 168.776 179.506 168.773H162.019C161.821 168.774 161.624 168.736 161.441 168.66C161.258 168.584 161.092 168.473 160.953 168.333C160.814 168.192 160.704 168.025 160.63 167.842C160.556 167.658 160.519 167.46 160.522 167.262L160.894 159.584C160.911 158.459 160.888 158.436 159.738 158.436H143.2C141.999 158.436 141.919 158.538 141.497 159.64L138.059 167.9C137.756 168.49 137.136 168.773 136.201 168.773H118.892C117.841 168.773 117.088 167.733 117.484 166.761L117.498 166.741V166.727L153.35 87.7371C153.588 87.2639 153.954 86.5468 154.787 86.5466H179.549ZM216.23 86.5388C235.619 86.5388 245.299 95.3263 244.993 112.669C244.636 132.989 232.252 147.923 213.606 151.366C210.957 151.853 208.262 152.043 205.57 152.029L196.567 151.989C196.42 151.988 196.278 152.046 196.172 152.148C196.066 152.251 196.004 152.391 196.001 152.539C195.999 152.638 196.025 152.737 196.077 152.822C196.128 152.907 196.203 152.976 196.292 153.02L197.388 153.591L200.222 155.069L203.07 156.552C203.364 156.706 203.66 156.858 203.955 157.01C204.584 157.339 204.827 157.883 204.685 158.586L202.691 167.589C202.527 168.34 201.923 168.773 201.039 168.773H184.609C184.374 168.773 184.14 168.723 183.927 168.624C183.713 168.525 183.523 168.38 183.371 168.201C183.253 168.06 183.169 167.894 183.126 167.716C183.083 167.537 183.081 167.352 183.121 167.173L201.416 87.7429C201.597 86.9157 202.376 86.5478 203.07 86.5476H216.217L216.23 86.5388ZM163.011 108.084C162.934 107.778 162.69 107.806 162.489 108.219C162.344 108.507 162.216 108.804 162.104 109.106L149.704 139.79C149.633 139.98 149.585 140.135 149.551 140.249C149.535 140.308 149.533 140.37 149.544 140.429C149.555 140.489 149.578 140.546 149.613 140.595C149.648 140.645 149.694 140.686 149.747 140.717C149.8 140.747 149.858 140.765 149.919 140.77C150.049 140.78 150.18 140.786 150.31 140.785L150.299 140.79H150.321L160.264 140.903C161.418 140.807 161.471 140.759 161.588 139.589C161.589 139.551 163.074 108.369 163.011 108.084ZM207.503 104.201C207.357 104.201 207.217 104.258 207.113 104.36C207.009 104.462 206.948 104.599 206.944 104.745C206.942 104.845 206.967 104.944 207.017 105.03C207.068 105.116 207.142 105.187 207.23 105.233C207.251 105.244 214.832 109.24 215.352 109.529C215.76 109.753 215.766 110.133 215.633 110.793C215.618 110.875 210.445 133.587 210.438 133.7C210.461 133.728 210.6 133.813 211.39 133.813H211.742C220.37 133.464 225.074 123.269 225.247 113.377C225.346 107.661 223.261 104.314 219.52 104.201H207.503Z" fill="url(#paint0_linear_341_1171)"/>
<defs>
<linearGradient id="paint0_linear_341_1171" x1="245" y1="127.506" x2="10" y2="127.506" gradientUnits="userSpaceOnUse">
<stop stop-color="#ACFF85"/>
<stop offset="1" stop-color="#0AEE44"/>
</linearGradient>
</defs>
</svg>
