<svg width="256" height="256" viewBox="0 0 256 256" fill="none" xmlns="http://www.w3.org/2000/svg">
<path d="M196 0H60C26.8629 0 0 26.8629 0 60V196C0 229.137 26.8629 256 60 256H196C229.137 256 256 229.137 256 196V60C256 26.8629 229.137 0 196 0Z" fill="#F4F2ED"/>
<path d="M57.2318 113.669C50.3696 116.882 32.2071 131.348 28.7089 135.635C25.076 139.921 24 133.224 27.767 122.107C30.7262 113.133 38.2615 100.944 50.9079 90.4969C58.3071 84.4695 74.5871 75.7638 84.5426 70.6735C86.5612 69.6017 112.662 58.6187 135.938 53.1273C137.956 52.5914 133.516 56.4757 132.843 58.6187C129.345 68.7981 59.5179 112.463 59.5179 112.463L57.2318 113.669ZM155.58 236.492C156.791 243.724 155.715 244.26 148.181 245.198C140.646 246.136 135.13 243.322 133.112 241.448C131.094 239.572 130.691 235.42 132.709 231.67C133.92 229.259 135.131 228.455 135.804 225.509C136.477 222.696 137.015 222.026 137.553 220.955C138.09 220.017 138.226 219.079 138.36 212.516C138.494 205.954 138.36 193.63 139.033 188.407C139.706 183.05 162.982 190.818 162.982 190.818C162.982 190.818 157.465 204.48 155.985 207.828C154.505 211.177 154.64 217.606 154.64 218.945C154.64 220.285 154.102 222.963 153.698 223.097C153.294 223.231 155.043 226.713 154.235 228.723C153.697 230.598 155.446 235.42 155.58 236.492ZM164.46 31.6968C163.653 26.6071 164.46 16.5606 165.536 14.9541C168.901 10.3997 186.659 9.86444 190.427 15.2217C192.041 17.6324 191.907 23.258 191.638 26.8747C191.369 30.4908 190.427 38.2594 190.292 40.8049C190.158 42.6803 170.65 45.6263 166.344 40.5366C165.133 39.1978 164.46 31.6968 164.46 31.6968ZM204.015 223.499C212.222 229.393 218.546 230.464 222.716 232.607C226.887 234.751 225.811 238.903 218.815 240.108C213.164 241.179 204.284 239.036 198.365 239.036C192.445 239.036 179.26 239.706 175.761 237.296C171.726 234.483 173.474 229.259 173.474 229.259C174.551 226.313 177.241 219.749 176.434 214.392C175.627 209.034 174.55 206.088 172.532 201.131C170.514 196.176 169.035 183.988 170.918 183.318C172.802 182.648 172.263 183.318 174.685 183.853C177.107 184.388 179.798 185.192 185.045 185.192C190.292 185.192 196.077 184.388 198.096 183.987C200.114 183.585 201.728 183.183 201.055 187.335C200.383 191.487 198.365 199.256 198.23 205.283C198.096 211.311 198.096 218.276 198.499 219.481C198.902 220.687 201.863 222.026 204.015 223.499Z" fill="#010101"/>
<path d="M175.224 45.091C160.425 57.8159 131.767 61.2977 89.2527 77.6386C78.3547 81.7906 49.2942 94.2471 42.2979 107.24C65.8423 93.7118 74.5877 112.329 76.4709 131.483C78.2193 149.431 87.2342 158.807 110.375 158.27C134.189 157.735 141.454 171.531 148.046 187.738C160.827 125.723 181.278 113.669 194.462 103.088C222.447 80.4511 188.005 40.5366 175.224 45.091Z" fill="#8AC640"/>
<path d="M175.224 45.0911C139.705 57.4135 104.59 60.4942 63.2863 85.8091C53.4649 91.8365 32.7455 105.498 28.709 131.617C43.7769 115.008 78.623 94.1137 121.273 80.8536C142.799 74.1561 158.541 69.7365 177.645 62.3696C176.3 53.7968 176.3 50.4484 175.224 45.0911Z" fill="#8AC640"/>
<path d="M220.564 118.49C220.564 118.49 218.007 127.196 212.895 130.01C212.895 130.01 209.128 131.349 201.594 127.197C199.441 125.992 197.827 121.84 197.961 120.5C198.096 117.285 200.114 115.812 200.114 115.812C200.114 115.812 202.267 112.195 204.823 112.329C207.38 112.463 211.685 112.864 213.03 111.659C214.24 110.32 220.833 114.07 220.564 118.49ZM165.671 34.2415C165.671 34.2415 165.134 41.0731 164.192 45.3586C164.057 46.1628 160.021 46.5639 157.061 47.7699C162.711 63.8425 196.75 63.7083 201.19 55.8062C199.038 54.3332 194.732 52.056 192.714 51.2525C190.696 50.4482 190.831 50.5824 190.696 46.8322C190.562 43.0814 190.292 36.1169 190.023 34.2415C189.754 32.3661 168.9 32.3661 165.671 34.2415Z" fill="#010101"/>
<path d="M167.017 34.2415C167.017 34.2415 167.017 38.1258 166.613 41.876C166.479 43.6173 166.344 44.6885 166.075 46.028C165.941 46.8322 170.649 50.0458 171.995 57.145C178.453 71.4763 193.387 64.3778 199.576 57.5468C197.423 56.0732 193.925 54.0643 189.889 52.4571C187.871 51.6529 188.813 49.9123 188.679 46.1621C188.544 42.4119 188.006 36.9198 187.737 34.9109C187.467 32.902 170.246 32.3661 167.017 34.2415Z" fill="#F0EFEF"/>
<path d="M165.671 34.2415C165.671 34.2415 165.536 36.6529 165.134 39.4653C166.882 41.206 169.169 43.6173 170.919 45.0909C172.13 46.1628 175.089 46.0287 177.781 46.0287C180.202 46.0287 182.355 46.2963 183.297 45.761C185.45 44.6892 188.544 42.0108 190.293 40.0013C190.159 37.5906 190.024 35.3134 189.89 34.2415C189.754 32.3661 168.9 32.3661 165.671 34.2415Z" fill="#010101"/>
<path d="M177.915 44.421C176.3 44.421 174.416 44.2875 172.936 44.0192C172.263 43.8857 171.591 43.4839 171.053 43.2157C170.111 42.5456 169.169 41.7427 168.093 40.9385C165.94 39.3313 165.806 38.3936 165.806 37.9925C166.748 29.5538 165.537 22.4552 165.537 22.4552C165.537 22.4552 164.595 18.8385 169.707 17.9008C174.82 16.9631 177.914 16.8296 177.914 16.8296C177.914 16.8296 181.143 16.8296 186.121 17.9008C191.234 18.8385 190.292 22.4552 190.292 22.4552C190.292 22.4552 189.081 29.5538 190.023 37.9925C190.023 38.3936 189.889 39.3313 187.736 40.9385C185.852 42.2779 184.372 43.7509 182.893 44.0192C181.412 44.2875 179.529 44.421 177.915 44.421Z" fill="#010101"/>
<path d="M177.915 13.3469C169.035 13.3469 167.286 15.7576 164.729 18.4366C164.192 19.106 164.595 23.1245 165.537 31.6967H166.748C166.748 31.6967 165.94 29.2854 166.075 26.4729C166.21 23.6604 166.748 23.7946 166.344 23.1245C165.806 22.3203 164.729 20.9808 167.152 19.6419C169.573 18.3024 173.34 20.7131 177.915 20.8473C182.489 20.7131 186.391 18.3024 188.812 19.6419C191.234 20.9808 190.158 22.3203 189.62 23.1245C189.082 23.928 189.754 23.6598 189.889 26.4729C190.023 29.2854 189.216 31.6967 189.216 31.6967H190.427C191.234 23.1245 191.772 19.3743 191.368 18.7042C189.081 15.7576 186.794 13.4804 177.915 13.3469ZM220.564 118.892C220.564 118.892 218.007 127.062 213.03 129.875C211.953 129.339 212.088 128.536 211.146 127.33C210.876 126.929 209.935 126.66 209.532 126.259C209.128 125.857 209.263 125.187 208.59 124.652C208.051 124.116 207.648 124.517 207.109 124.116C206.572 123.58 206.436 122.91 206.033 122.509C205.764 122.241 204.688 122.107 204.419 121.839C203.746 121.169 197.827 119.964 198.096 118.624C198.634 116.615 199.71 115.142 199.71 115.142C199.71 115.142 202.266 111.391 204.822 111.525C207.378 111.659 209.8 112.195 211.146 110.99C212.626 109.65 220.968 114.606 220.564 118.892Z" fill="#010101"/>
<path d="M203.074 59.6906C203.074 59.6906 211.55 57.6811 217.335 63.1732C223.121 68.7988 222.716 75.7632 220.968 80.0493C222.448 81.7906 225.139 86.612 223.121 92.3717C232 99.8721 228.098 111.392 220.161 119.026C220.161 119.026 218.277 112.061 210.743 111.659C211.012 108.981 203.747 106.837 207.11 99.8721C201.998 98.6667 202.132 95.1842 201.325 90.8987C200.652 86.612 203.074 59.6906 203.074 59.6906Z" fill="#010101"/>
<path d="M199.979 63.4406C199.979 63.4406 209.8 58.4851 215.586 64.1107C221.371 69.7363 219.756 75.8972 218.007 80.1833C219.487 81.9239 222.985 86.8807 220.832 92.7733C220.429 94.1128 217.469 94.1128 215.316 97.5954C220.697 94.5139 224.061 95.3182 225.272 99.2018C227.156 105.229 222.984 112.462 219.352 116.48C219.352 116.346 219.217 116.212 219.217 116.079C218.68 118.088 218.007 121.972 213.971 126.258C211.952 128.401 210.338 128.133 208.051 127.597C205.36 126.927 204.418 125.721 200.651 123.713C198.499 122.508 199.709 121.034 199.709 119.829C199.709 119.561 199.978 119.159 200.382 118.623C200.651 117.953 201.458 116.883 202.669 115.677C202.669 115.677 204.418 113.266 206.975 113.4C209.531 113.534 212.222 112.999 212.895 112.328C212.895 107.641 207.514 107.506 209.397 99.4701C209.531 99.0683 210.205 98.3983 212.357 98.1306C209.127 97.4606 207.648 97.3264 205.36 95.184C203.746 93.711 202.535 91.8356 202.131 89.4249C201.324 85.273 199.979 63.4406 199.979 63.4406Z" fill="#F0EFEF"/>
<path d="M171.591 55.0026C170.784 53.9307 166.613 48.5734 158.675 46.4304C156.387 45.7603 154.908 47.6357 152.621 48.9752C151.948 48.5734 148.988 47.2339 147.374 48.171C145.76 49.108 144.684 50.0464 143.069 50.7158C142.261 50.314 140.109 50.314 138.36 50.9834C136.611 51.5194 133.92 52.7247 131.363 56.2073C129.749 61.967 159.886 57.6802 159.886 57.6802L171.591 55.0026Z" fill="#010101"/>
<path d="M171.86 55.0028C167.554 53.5291 168.227 48.5736 158.675 47.77C156.791 47.6359 155.58 49.1089 154.235 50.0466C154.908 50.7167 155.58 51.7878 155.984 52.859C154.773 51.5202 152.62 49.7783 150.467 49.3765C148.449 48.9754 147.104 50.4484 144.951 51.5202C145.354 51.9213 145.758 52.5914 146.296 53.3956C144.412 52.1903 143.067 51.7885 140.511 52.7256C138.762 53.2608 135.399 54.7345 132.842 58.3512C131.228 64.1109 160.02 57.6811 160.02 57.6811L171.86 55.0028Z" fill="#8AC640"/>
<path d="M197.154 57.1457C197.154 57.1457 197.154 55.6721 197.019 54.3333C197.019 54.0656 195.943 53.3955 195.943 53.1279L195.674 52.8596C195.674 52.8596 197.827 51.6543 199.441 52.3243C201.19 52.8596 202.132 55.1368 202.132 55.1368C205.226 54.0656 205.495 55.271 206.975 56.8781C210.205 56.208 210.608 57.4134 212.626 60.3606C212.626 60.3606 210.205 59.9589 205.496 60.7618C200.921 61.4312 197.154 57.0116 197.154 57.1457Z" fill="#010101"/>
<path d="M196.616 56.4756C196.616 56.4756 197.423 55.8056 197.153 55.6714C198.633 54.8678 200.651 53.9308 201.593 56.4756C204.688 55.4038 205.091 56.8774 206.571 58.4852C210.338 56.7439 210.607 58.8863 210.876 59.824C209.666 59.824 207.917 59.9582 205.495 60.2258C200.921 60.8959 196.481 56.3415 196.616 56.4756Z" fill="#8AC640"/>
<path d="M150.872 53.1272C150.872 53.1272 158.541 55.8055 164.999 55.4037C171.457 54.8685 182.489 54.3325 188.408 57.8151C188.408 57.8151 194.463 55.6714 200.114 57.145C205.765 58.618 216.124 68.2621 213.03 78.4414C212.761 79.1115 211.012 80.1827 208.994 80.8528C208.994 80.8528 210.07 85.4065 208.187 89.1567C206.303 92.7734 202.132 99.7385 201.997 109.382C201.863 110.989 201.595 114.337 201.325 115.945C190.831 115.543 174.686 111.658 158.81 111.927C158.944 110.186 159.079 109.114 159.214 107.373H159.617C158.81 102.953 158.541 100.676 157.733 97.3271C152.62 94.1129 147.238 90.3627 142.665 83.2634C138.225 76.1642 150.872 53.1272 150.872 53.1272ZM202.805 125.455C202.805 125.455 211.146 155.19 201.325 167.647C201.325 167.647 202.805 173.406 199.441 179.567C198.903 182.246 198.23 184.657 197.827 187.335C196.078 198.452 193.117 203.14 192.31 220.954L184.237 220.821C184.237 220.821 183.295 207.962 180.47 201.131C178.857 197.248 172.532 192.023 172.802 186.8C173.071 182.782 173.878 179.433 180.74 174.075C181.278 166.307 173.475 158.94 174.686 130.009L202.805 125.455Z" fill="#010101"/>
<path d="M200.383 124.249C202.536 137.911 207.514 158.136 198.499 168.047C199.031 170.56 199.077 173.152 198.633 175.682C198.365 177.289 197.826 179.03 197.154 180.905C195.808 184.12 195.27 188.808 194.866 191.62C193.117 202.737 193.117 203.274 192.31 221.088L184.237 220.953C184.237 220.953 183.295 208.095 180.47 201.265C178.857 197.381 175.493 194.032 175.224 188.808C174.955 184.791 177.78 176.754 184.507 177.022C184.104 160.815 176.569 164.029 174.551 130.276L200.383 124.249ZM150.872 53.1272C150.872 53.1272 153.832 54.0649 157.06 54.3325C160.29 54.6002 163.788 54.3325 166.882 54.1984C173.34 53.6631 182.489 52.9931 188.543 56.4756C188.543 56.4756 191.907 55.4037 195.54 55.6714C197.154 55.8055 198.769 57.145 200.652 57.6809C206.572 59.1539 212.222 68.9315 209.666 77.772C209.397 78.4421 207.513 77.772 205.36 78.4421C205.763 80.3175 206.033 84.6036 203.88 89.1573C201.593 93.7117 198.633 99.605 199.171 110.856C185.044 110.186 178.721 109.249 164.729 108.579C163.518 103.623 162.71 98.6672 162.576 96.1224C164.46 95.1847 165.535 94.3818 167.016 92.774C162.98 93.4441 161.365 93.1758 158.943 91.8363C156.522 90.4968 152.216 86.2107 150.064 83.3982C149.795 83.13 148.315 87.5495 144.952 87.6843C143.74 85.9431 148.853 80.9869 147.911 79.1121C144.548 72.2805 150.872 53.1272 150.872 53.1272Z" fill="#F0EFEF"/>
<path d="M201.459 113.132C201.459 113.132 201.727 117.954 201.727 119.16C201.727 120.499 202.804 124.517 202.938 126.392C201.459 128.937 195.001 134.697 183.295 136.84C171.725 139.251 156.387 121.169 156.387 121.169C156.791 119.428 158.137 114.338 159.078 111.659C159.213 111.392 159.482 110.722 159.482 110.454C160.693 108.713 201.459 113.132 201.459 113.132Z" fill="#010101"/>
<path d="M198.499 113.535C198.499 116.883 199.037 119.294 199.441 121.437C200.114 125.322 201.19 127.867 201.19 130.411C201.19 138.179 190.965 136.84 182.354 137.108C170.783 139.52 160.962 121.437 160.962 121.437C161.769 118.357 162.307 114.875 163.518 111.928C163.652 110.32 163.921 108.311 164.056 107.374C180.47 107.374 192.04 108.311 198.768 108.98C199.037 110.454 198.768 112.999 198.499 113.535Z" fill="#F0EFEF"/>
<path d="M185.583 130.812C185.583 130.812 178.452 115.007 157.06 119.696C151.948 134.027 145.086 150.502 149.526 168.316C145.086 174.344 139.973 177.693 139.973 188.809C139.973 199.926 140.512 201.801 140.512 201.801L156.253 202.606C156.253 202.606 161.365 196.043 163.383 188.944C163.921 186.934 164.46 183.318 164.056 179.166C164.594 178.363 166.881 176.488 167.151 172.871C167.151 172.871 174.82 168.853 179.26 159.076C183.431 150.234 182.354 142.599 185.583 130.812Z" fill="#010101"/>
<path d="M185.583 130.812C185.18 129.339 179.798 114.874 159.886 119.159C148.181 150.234 152.486 163.092 154.235 168.717C146.297 178.763 142.664 180.906 144.279 201.265H154.774C159.617 193.63 160.693 190.817 160.962 180.772C160.962 180.37 159.483 181.576 158.406 182.915C159.214 178.763 161.501 177.96 163.25 175.415C164.057 174.343 164.729 172.736 164.729 170.593C174.147 164.298 177.645 156.395 179.663 148.224C181.278 142.6 183.161 133.357 185.583 130.812Z" fill="#F0EFEF"/>
<path d="M152.352 109.249C152.352 109.249 155.985 109.382 159.214 110.454C162.308 111.525 162.308 112.194 163.519 113.535C164.73 114.875 167.69 116.883 167.152 118.892C166.883 119.964 166.21 120.231 165.268 121.169C164.865 121.571 161.904 124.785 161.232 125.187C160.828 125.455 160.29 125.857 159.886 126.125L157.868 127.464C156.523 128.134 155.581 128.536 154.101 128.402C154.101 128.402 150.738 128.268 148.585 125.991C148.585 125.991 148.316 124.919 148.854 124.384C148.854 124.384 146.028 121.973 145.221 120.366C144.413 118.759 144.413 116.482 144.952 115.277C145.221 114.07 150.468 110.722 152.352 109.249ZM155.716 239.572L155.312 242.921C155.312 242.921 154.101 244.394 145.087 244.261C135.938 244.127 133.517 241.314 132.71 239.841L132.172 236.358C132.172 236.358 133.921 233.813 134.325 233.813C137.284 234.081 147.375 238.099 154.372 239.171C155.043 239.171 155.177 239.438 155.716 239.572ZM175.224 232.741C175.224 234.214 175.089 234.214 175.089 235.688C176.703 236.893 180.74 237.563 188.408 237.429C199.575 237.161 209.935 240.778 222.582 238.634L222.716 236.223L221.506 236.09L176.703 232.473L175.224 232.741Z" fill="#010101"/>
<path d="M185.045 237.429H188.408C195.674 237.162 202.536 238.769 209.935 239.171C213.837 239.036 218.68 238.099 218.277 235.286L180.067 232.071C177.78 234.616 179.528 236.759 185.045 237.429ZM141.185 181.04C142.395 181.844 150.603 186.666 163.922 185.996C163.653 188.541 163.787 193.497 157.868 202.203C154.908 206.489 152.351 213.99 151.813 223.5C151.948 225.643 153.159 227.518 151.544 230.331C152.082 232.071 154.235 235.554 155.311 237.697C156.387 239.841 156.926 242.251 149.795 242.385C142.53 242.519 130.824 241.715 132.439 236.09C133.247 233.144 135.534 230.063 135.803 228.857C136.072 227.652 136.072 224.036 138.359 221.624C140.378 214.928 139.704 208.498 139.302 202.471C138.628 196.175 138.494 186.13 141.185 181.04ZM153.697 71.8789C163.25 59.1541 155.177 48.9754 139.84 52.0555C133.651 53.2608 127.462 57.5476 127.058 65.3156C125.04 65.5832 120.466 65.8508 118.179 74.1554C116.43 80.5846 115.488 81.7899 112.393 85.0042C110.375 87.2814 112.528 91.9693 114.007 95.3183C118.986 106.837 134.323 107.908 144.683 116.615C148.181 115.677 151.813 111.793 152.89 109.249C144.145 98.9344 146.028 94.9166 142.53 89.5592C146.297 88.2191 154.908 82.9959 153.697 71.8789Z" fill="#010101"/>
<path d="M151.813 71.0754C152.351 70.2711 153.293 68.5305 153.697 67.8604C153.832 67.7263 155.312 70.2711 155.446 70.1376C159.079 64.2438 160.02 55.6715 155.849 54.868C154.907 54.7338 153.159 54.3327 151.679 53.7961C148.988 52.8584 146.567 52.8584 142.261 53.6626C136.341 54.7338 130.422 59.0199 130.422 65.1815C130.422 65.5832 134.591 66.7886 135.803 71.7448C133.784 68.9316 130.286 65.8509 126.116 68.5299C121.676 71.3423 123.963 77.7715 118.043 84.4683C116.025 86.7455 116.294 89.4245 118.446 94.7818C121.944 103.221 138.493 107.774 147.507 115.811C149.66 114.873 151.14 112.73 152.216 111.123C146.162 104.828 143.74 98.9337 141.991 94.6476C139.839 89.6921 137.417 86.8796 132.708 83.1281C135.13 84.0659 137.014 85.0036 138.089 85.8071C139.3 86.6107 141.049 86.7448 142.664 86.2089C148.45 84.2013 151.545 76.1644 151.813 71.0754Z" fill="#F0EFEF"/>
<path d="M210.339 73.2183C209.935 78.308 206.168 75.7632 204.15 74.8254C200.114 73.0842 196.077 71.8788 191.368 71.8788C186.659 71.8788 180.605 72.2806 175.359 73.6201C168.093 75.629 165.94 75.4955 162.711 73.8877C159.483 72.1465 153.833 67.8604 153.833 67.8604C153.833 67.8604 153.698 69.1998 155.043 70.9411C156.792 73.0842 160.694 75.7632 165.941 77.5038C168.497 78.308 170.516 77.7714 172.803 77.2361C184.777 74.2895 197.423 73.7536 208.052 80.1827C208.59 80.4504 210.474 79.6468 211.281 78.4415C212.357 76.7009 210.339 73.2183 210.339 73.2183Z" fill="#010101"/>
<path d="M149.123 124.249C150.199 124.919 151.545 125.321 153.024 126.526C153.024 126.526 151.813 126.526 151.276 125.991C150.603 125.589 149.257 124.384 149.123 124.249Z" fill="#0A1825"/>
<path d="M188.005 18.0348C187.601 16.8295 184.641 14.6858 177.78 14.6858C170.38 14.6858 168.227 16.963 168.093 18.1683C168.093 18.5701 167.555 22.8569 167.42 24.5975C167.42 24.5975 167.42 26.7406 167.554 29.9548C167.689 32.0979 168.227 33.3032 168.496 36.1163C168.765 39.0623 169.573 40.9377 171.052 43.3491C171.725 43.7502 172.263 44.1526 172.936 44.2868C175.627 44.822 180.336 44.9562 182.892 44.2868C184.372 43.885 186.256 41.3401 186.659 39.0629C187.197 36.2505 187.735 34.2409 187.87 32.5003C188.139 30.7597 188.274 26.8747 188.408 25.8028C188.812 22.8569 188.139 18.3025 188.005 18.0348Z" fill="#F0EFEF"/>
<path d="M173.878 183.585C173.878 183.585 181.009 186.666 198.634 183.987C198.634 183.987 193.656 208.9 195.944 221.356C195.944 221.356 198.231 224.571 215.183 230.732C215.183 230.732 222.717 232.607 222.448 236.358C222.448 236.358 222.717 237.162 213.569 236.893C204.42 236.625 195.809 235.018 189.755 235.018C183.7 235.018 177.242 235.285 176.166 233.545C174.956 231.938 176.435 227.785 178.184 225.374C180.069 222.83 179.53 220.954 179.396 216.4C178.991 204.48 169.842 192.157 173.878 183.585Z" fill="#010101"/>
<path d="M172.398 185.862C171.456 187.202 172.532 192.291 173.878 197.247C175.223 202.203 178.184 205.15 178.856 213.32C179.528 221.356 179.663 222.428 177.376 227.115C175.088 231.802 174.416 236.089 182.353 236.223C190.291 236.357 194.597 236.089 202.669 237.295C210.742 238.5 213.567 238.902 218.007 238.233C222.447 237.563 223.389 236.089 221.506 234.75C219.622 233.411 211.818 231.938 208.455 229.258C205.226 226.847 196.077 222.829 195.943 221.758C195.54 218.141 195.405 205.015 196.077 200.729C196.75 196.442 197.692 190.281 197.961 188.674C198.231 187.067 199.575 185.459 197.288 185.995C195.001 186.53 186.391 187.736 179.933 187.335C173.475 186.934 172.802 185.46 172.398 185.862Z" fill="#8AC640"/>
<path opacity="0.3" d="M176.973 227.25C179.26 228.321 182.624 229.125 185.18 229.125C185.18 229.125 184.237 233.546 185.718 236.224C187.197 238.903 174.954 237.296 174.954 237.296L174.417 227.786L176.973 227.25ZM212.626 238.769C214.779 238.099 216.259 235.688 214.51 233.411C212.626 231.134 211.012 230.732 213.433 230.599C215.855 230.465 224.735 235.822 224.735 235.822L220.16 239.974L212.626 238.769ZM171.994 191.086C175.089 192.158 179.798 192.425 183.834 192.291C187.87 192.158 193.925 191.621 197.827 190.282C201.728 188.943 200.114 191.755 200.114 191.755L197.961 193.765C197.961 193.765 192.849 195.774 184.507 195.64C174.686 195.506 171.726 194.435 171.726 194.435L171.994 191.086ZM172.263 197.783C175.358 198.855 180.067 199.123 184.103 198.988C188.139 198.855 193.521 198.855 197.423 197.381C199.037 196.846 198.096 199.123 198.096 199.123L197.423 200.328C197.423 200.328 192.176 202.203 183.968 202.069C174.147 201.935 172.398 201.131 172.398 201.131L172.263 197.783Z" fill="#010101"/>
<path d="M163.384 103.891C163.384 104.829 173.878 110.052 179.663 111.124C185.449 112.195 197.557 111.124 199.441 110.722L199.171 112.597C199.171 112.597 184.776 114.741 173.744 111.794C162.711 108.847 163.922 108.177 163.922 108.177L163.384 103.891Z" fill="#010101"/>
<path d="M140.915 218.142C142.53 218.946 148.315 220.419 152.082 219.615C152.62 219.481 152.082 210.373 153.562 206.221C155.715 200.461 159.213 195.774 160.827 185.595C155.176 185.059 148.719 183.585 145.355 182.513C141.05 195.64 142.53 206.891 140.915 218.142ZM149.93 226.581C150.872 226.848 151.545 227.919 151.814 227.251C152.352 226.045 150.872 223.768 150.737 222.161V222.027C149.527 220.956 141.32 220.821 141.858 221.357C140.916 223.098 139.436 222.83 138.899 226.313C138.63 228.053 140.783 226.581 142.8 226.446C139.168 228.857 134.997 231.938 134.324 234.617C133.517 238.367 134.862 239.439 138.899 241.448C142.397 242.252 146.567 242.386 149.796 242.252C153.429 241.582 154.102 239.841 153.025 237.43C151.41 233.813 150.334 229.125 149.93 226.581Z" fill="#F0EFEF"/>
<path d="M151.41 52.5913C155.85 55.1361 162.039 54.4667 164.326 54.3326C164.864 54.3326 170.246 53.3949 170.515 53.5284C171.053 53.6625 171.053 54.0643 171.053 54.0643C171.053 54.0643 169.035 55.1355 164.461 55.4031C160.155 55.6708 155.043 55.4031 152.218 54.0643C148.854 52.5913 151.41 52.5913 151.41 52.5913ZM197.154 55.1361C197.961 55.6714 203.208 57.681 205.496 60.0917C207.514 62.2354 206.438 62.1012 206.033 61.5653C205.496 60.8952 201.325 58.0828 199.71 57.4133C198.096 56.7439 196.077 55.5379 196.077 55.2703C196.077 55.0027 197.154 55.1361 197.154 55.1361Z" fill="#010101"/>
<path d="M150.737 110.721C154.638 110.454 158.675 111.391 161.231 114.07C162.577 115.409 164.729 116.882 164.46 118.222C164.46 118.623 163.653 119.695 162.981 120.499C162.577 121.034 161.366 122.24 160.962 122.642C160.425 123.044 158.541 124.517 158.137 124.785C157.734 125.053 157.195 125.723 156.792 125.857C155.447 126.527 153.967 125.991 152.621 125.322C151.276 124.652 152.891 124.517 151.41 123.446C147.778 120.901 145.76 119.159 147.24 114.204C147.374 113.266 148.853 112.194 150.737 110.721Z" fill="#F0EFEF"/>
<path opacity="0.4" d="M116.43 80.0491C104.321 84.8712 73.5106 100.141 64.7659 104.829C72.031 109.382 75.3944 120.365 76.4711 131.482C76.6052 132.554 76.7399 133.492 76.8747 134.563C77.0087 135.501 77.1435 136.17 77.2776 136.573C77.2776 136.707 77.2776 136.975 77.4123 137.108C85.3505 115.544 113.738 92.774 114.815 91.0327C115.352 90.2291 114.142 86.7466 116.025 83.3989C118.448 79.1114 123.157 77.236 116.43 80.0491ZM145.221 181.174C151.41 168.852 151.545 157.065 151.41 143.269C151.41 137.509 155.58 129.339 153.428 131.616C145.355 140.589 125.04 157.467 110.375 158.404C130.96 157.734 139.032 168.048 145.221 181.174Z" fill="#010101"/>
<path d="M52.9258 116.213C60.5945 110.721 100.284 89.6933 109.837 86.746C119.389 83.6653 116.429 80.0486 116.429 80.0486C116.429 80.0486 77.681 96.6571 54.5401 110.989" fill="#010101"/>
<path opacity="0.4" d="M165.94 77.5043C162.845 76.299 160.424 79.9157 161.231 83.3982C162.039 86.8808 169.304 90.7644 168.9 103.489C168.631 113.937 166.344 118.222 166.344 118.222L161.231 111.794C161.231 111.794 160.424 97.3277 158.675 95.1847C156.926 93.0416 151.41 89.1573 149.257 87.1484C147.104 85.1388 151.679 82.4605 151.41 78.7097C151.141 75.0936 153.697 67.8609 153.697 67.8609L165.94 77.5043ZM184.642 134.563C184.373 144.608 186.66 159.476 187.601 166.575C188.543 173.673 189.754 174.209 187.601 177.424C185.449 180.505 182.624 185.595 182.624 185.595L173.34 184.791C173.34 184.791 180.74 175.415 181.143 173.673C181.546 171.933 177.376 158.673 177.376 158.673L184.642 134.563ZM166.748 40.8048C168.632 44.9561 170.918 46.8315 174.551 48.0375C176.703 48.8411 185.179 49.9129 188.543 46.1621C190.023 44.4208 189.081 39.7329 189.081 39.7329L181.412 45.8938L171.052 44.019L169.842 40.9383L166.748 40.8048Z" fill="#010101"/>
<path d="M164.962 48.5C169.276 49.5 173.776 51 180.776 53.3243C183.445 53.9892 188.091 51.3287 190.167 50.3305C192.391 49.1657 196.246 48.5 200.693 52.9926C201.138 53.4917 201 57.5 201 57.5C202.038 59.3453 200 57 197.5 55.9864C206 59.4327 193.968 55.1329 192.5 55.5C184.5 57.5 183.523 58.1647 177 56.5C171.471 55.336 173.375 54.6675 167 55" fill="black"/>
<path d="M167.554 50.0464C171.052 52.3236 179.798 54.4666 182.219 54.8684C184.641 55.4037 188.543 52.3236 190.426 51.52C192.445 50.5823 195.943 50.0464 199.979 53.6631C200.382 54.0649 199.037 55.8061 199.037 55.8061C198.902 55.672 198.095 55.672 197.018 55.1361C195.942 54.6008 195 54.1983 193.386 54.3325C186.659 55.1361 185.583 57.4133 179.663 56.0731C173.743 54.733 172.263 53.6624 166.478 53.9301" fill="#8AC640"/>
<path d="M167.5 50C171.94 51.8754 179.394 54.3326 181.816 54.8685C184.237 55.4044 188.139 52.9931 190.023 51.7877C193.387 49.6447 197.692 51.386 199.71 53.6632C201.055 55.1361 201.594 56.0738 201.594 56.4756C201.594 57.0109 199.98 56.4756 199.98 56.4756C199.038 56.0738 197.961 55.9404 197.155 55.4038C196.078 54.8685 195.001 54.0649 193.388 54.1984C186.66 55.0026 185.315 57.2792 179.53 55.9397C173.745 54.6002 172.688 53.5989 166.5 54" fill="#8AC640"/>
<path d="M145.49 175.548C145.221 175.281 145.759 175.013 145.49 175.013C143.742 175.013 141.32 173.673 139.973 171.798C134.189 163.494 125.712 158.003 110.375 158.404C87.3677 158.94 78.2187 149.565 76.4703 131.617C75.5284 121.839 72.8374 112.329 67.3214 106.971L64.092 108.981C70.2805 114.338 72.2991 123.044 73.6446 134.965C75.7972 152.913 90.3275 161.218 107.28 161.485C124.905 161.753 131.228 165.37 137.82 174.21C139.973 177.023 142.395 177.96 144.278 178.362L145.49 175.548Z" fill="#010101"/>
<path opacity="0.4" d="M207.917 89.425C208.321 91.434 209.397 95.3183 211.549 97.193C212.492 98.1308 212.626 98.3984 211.819 98.3984C211.011 98.3984 205.091 98.1308 205.091 98.1308L203.477 95.3183L207.917 89.425Z" fill="#010101"/>
</svg>
