<svg width="256" height="256" viewBox="0 0 256 256" fill="none" xmlns="http://www.w3.org/2000/svg">
<path d="M196 0H60C26.8629 0 0 26.8629 0 60V196C0 229.137 26.8629 256 60 256H196C229.137 256 256 229.137 256 196V60C256 26.8629 229.137 0 196 0Z" fill="#242938"/>
<path fill-rule="evenodd" clip-rule="evenodd" d="M199.144 167.68C199.144 168.95 198.3 170.215 197.457 170.633L143.059 201.848C141.372 202.692 139.264 202.266 138.421 200.583C137.999 200.157 137.999 199.313 137.999 198.891V136.473C137.999 135.208 138.843 133.938 139.686 133.517L194.084 101.884C195.77 101.04 197.879 101.462 198.722 103.149C199.144 103.571 199.144 104.414 199.144 104.84V167.68ZM119.007 199.319C119.007 201.428 117.321 202.698 115.634 202.698C115.212 202.698 114.369 202.698 113.947 202.272L59.5499 171.065C58.2848 170.639 57.8631 169.374 57.8631 168.113V104.847C57.8631 102.738 59.5499 101.468 61.2366 101.468C61.6583 101.468 62.5016 101.468 62.9233 101.89L117.321 133.105C118.586 133.523 119.007 134.788 119.007 136.053V199.319ZM72.2092 79.5359L126.607 47.9029C127.872 47.4769 129.137 47.4769 129.981 47.9029L184.378 79.5359C186.065 80.3752 186.487 82.4841 185.643 84.1712L184.378 85.4365L129.981 117.069C128.715 117.495 127.45 117.495 126.607 117.069L72.2092 85.4365C70.5225 84.5929 70.1008 82.4841 70.9442 80.797L72.2092 79.5359ZM216 82.9061C216 80.7973 215.157 78.6884 213.891 77.4273H213.47L213.048 77.0013L212.627 76.5795H212.205L132.085 30.1845L131.663 29.7627C129.554 28.4974 126.602 28.9234 124.494 30.1845L44.3735 76.1578H43.9518L43.5301 76.5795L43.1084 77.0013L42.6867 77.4273C41.4217 78.6884 41 80.3755 41 82.4844V82.9061V175.278C41 177.805 42.6867 180.336 44.7952 181.605L124.916 227.575C124.916 227.575 125.337 227.575 125.337 228H125.759H126.181H126.602H127.024H127.446H129.132H129.554H129.976H130.398H130.819H131.241C131.241 228 131.663 228 131.663 227.575L211.783 181.605C214.313 180.336 215.579 177.805 215.579 175.278L216 82.9061Z" fill="#9FEF00"/>
</svg>
