<svg width="256" height="256" viewBox="0 0 256 256" fill="none" xmlns="http://www.w3.org/2000/svg">
<path d="M196 0H60C26.8629 0 0 26.8629 0 60V196C0 229.137 26.8629 256 60 256H196C229.137 256 256 229.137 256 196V60C256 26.8629 229.137 0 196 0Z" fill="#F4F2ED"/>
<path d="M234.845 61H138.156C137.048 61 136.15 61.8981 136.15 63.006V192.994C136.15 194.102 137.048 195 138.156 195H234.845C235.952 195 236.851 194.102 236.851 192.994V63.006C236.851 61.8981 235.952 61 234.845 61Z" fill="#00EA64"/>
<path fill-rule="evenodd" clip-rule="evenodd" d="M19 63.006C19 61.8982 19.8981 61 21.006 61H50.6946C51.8025 61 52.7006 61.8982 52.7006 63.006V111.15H86V63.006C86 61.8982 86.8983 61 88.006 61H117.695C118.802 61 119.701 61.8982 119.701 63.006V192.994C119.701 194.102 118.802 195 117.695 195H88.006C86.8983 195 86 194.102 86 192.994V144.85H52.7006V192.994C52.7006 194.102 51.8025 195 50.6946 195H21.006C19.8981 195 19 194.102 19 192.994V63.006Z" fill="#121418"/>
</svg>
