<svg width="256" height="256" viewBox="0 0 256 256" fill="none" xmlns="http://www.w3.org/2000/svg">
<path d="M196 0H60C26.8629 0 0 26.8629 0 60V196C0 229.137 26.8629 256 60 256H196C229.137 256 256 229.137 256 196V60C256 26.8629 229.137 0 196 0Z" fill="#F4F2ED"/>
<path fill-rule="evenodd" clip-rule="evenodd" d="M50.1832 146.711C49.3636 148.942 48.5429 151.174 47.7233 153.406C45.6936 155.414 43.6641 157.426 41.6338 159.436C39.4146 161.635 38.9374 161.62 39.4586 164.729C40.0707 168.383 41.8276 172.149 45.0618 175.391C48.4621 178.8 55.6015 183.624 60.7389 181.35C60.2615 183.076 59.6276 184.886 58.8207 186.656C55.3758 194.209 63.7713 195.689 69.6468 197.278C74.5297 198.598 86.5133 202.117 88.2426 195.699C89.0203 192.811 89.141 191.26 88.864 188.503C90.3836 185.111 90.8688 184.57 92.1265 182.704C93.8524 180.144 93.7284 179.17 93.3508 175.993C93.2778 175.381 93.1889 174.714 93.0859 174.012C98.9007 174.887 104.491 174.876 110.19 174.169C108.46 175.177 106.725 176.06 104.436 177.237C99.0053 180.028 104.123 188.265 106.464 191.872C111.376 199.442 115.781 204.65 124.08 200.16C126.867 198.651 127.083 197.043 128.822 194.446C129.783 193.918 134.736 189.706 137.682 187.327C138.798 188.666 140.935 188.913 144.176 189.147C145.806 189.265 152.201 189.225 153.896 189.236C158.981 189.268 162.033 188.74 162.431 183.198C162.62 180.57 162.507 180.011 161.214 177.713C161.136 174.814 161.058 171.914 160.981 169.016C160.893 165.75 160.269 163.747 158.988 160.697C157.822 157.926 157.17 155.561 155.809 152.874C155.996 151.821 156.144 150.734 156.245 149.598C157.973 151.263 159.702 152.93 161.431 154.596C164.727 157.77 167.45 160.363 172.475 160.126C177.709 159.879 183.7 155.756 185.234 150.713C185.746 149.03 186.256 147.347 186.767 145.664C194.659 147.155 203.883 146.814 210.755 143.148C220.861 137.754 225.59 126.91 226.752 115.438C227.692 106.159 225.882 90.5539 221.458 82.0868C220.157 79.5969 214.283 76.4465 211.707 79.0562C209.767 81.0229 208.434 84.0189 206.34 85.8088C204.717 87.1951 202.707 87.8815 200.946 88.6071C199.583 84.9263 197.623 82.0654 195.224 79.2067C193.316 76.9347 191.518 75.8024 189.002 74.2269C184.03 71.1133 180.172 67.1827 175.648 63.453C161.958 52.1651 150.201 52.5113 133.144 59.6905C125.006 63.1162 121.081 67.7649 116.09 74.4417C113.074 74.599 111.002 75.1832 107.813 77.997C105.46 80.0739 103.269 82.2108 101.148 84.4248C85.2034 86.9659 75.3012 90.0043 64.8251 99.2916C60.5621 103.071 57.4632 107.259 55.0459 111.967C52.8019 114.447 50.5708 116.989 47.6079 118.13C45.5221 118.932 45.5608 118.93 44.826 116.968C47.3061 115.104 47.2669 111.596 47.4964 108.421C49.061 108.495 49.6475 110.25 50.7114 111.593C51.3391 108.785 51.7031 104.424 48.7479 102.894C49.2285 101.609 49.7722 100.314 50.2702 98.8978C45.9112 99.6545 30.9671 109.727 38.9408 117.41C39.4656 119.543 39.8789 121.012 40.5723 122.455C42.3967 126.249 46.499 126.899 50.0737 125.505C49.094 129.996 48.8955 134.883 49.4851 141.743C49.6265 143.388 49.8639 145.047 50.1832 146.711Z" fill="black"/>
<path d="M51.1303 147.059C50.8013 147.955 50.4708 148.853 50.1414 149.75L48.2473 149.056C48.5767 148.159 48.9074 147.261 49.2363 146.364L51.1303 147.059ZM50.1414 149.75C49.6512 151.084 49.1602 152.419 48.6703 153.753L46.7764 153.058C47.2662 151.725 47.7572 150.389 48.2473 149.056L50.1414 149.75ZM48.6703 153.753L48.4334 154.12L47.7235 153.406L48.6703 153.753ZM48.4334 154.12C47.3583 155.184 46.2819 156.25 45.2064 157.315L43.7863 155.887C44.8619 154.822 45.9381 153.756 47.0134 152.692L48.4334 154.12ZM45.2064 157.315C44.2528 158.26 43.2979 159.206 42.3439 160.15L40.9239 158.722C41.8779 157.778 42.8326 156.832 43.7863 155.887L45.2064 157.315ZM42.3439 160.15C41.9078 160.582 41.7598 160.724 41.6285 160.851L40.2317 159.391C40.5231 159.111 40.8447 158.801 40.9239 158.722L42.3439 160.15ZM41.6285 160.851C40.3366 162.095 40.081 162.341 40.453 164.563L38.4643 164.895C37.9159 161.621 38.2985 161.252 40.2317 159.391L41.6285 160.851ZM40.453 164.563C40.753 166.353 41.348 168.178 42.2819 169.955L40.4905 170.894C39.4599 168.934 38.8003 166.901 38.4643 164.895L40.453 164.563ZM42.2819 169.955C43.1488 171.606 44.3029 173.204 45.7758 174.681L44.3479 176.101C42.7134 174.462 41.4401 172.702 40.4905 170.894L42.2819 169.955ZM45.7758 174.681C47.6604 176.571 50.7369 178.912 53.9387 180.128L53.2287 182.015C49.7296 180.685 46.388 178.146 44.3479 176.101L45.7758 174.681ZM53.9387 180.128C56.166 180.975 58.4359 181.266 60.3327 180.427L61.1453 182.273C58.6985 183.356 55.908 183.033 53.2287 182.015L53.9387 180.128ZM60.3327 180.427L62.2814 179.564L61.7136 181.618L60.739 181.35L60.3327 180.427ZM61.7136 181.618C61.4603 182.535 61.1639 183.474 60.8233 184.417L58.9216 183.73C59.2447 182.835 59.5255 181.946 59.7644 181.082L61.7136 181.618ZM60.8233 184.417C60.5051 185.296 60.1451 186.187 59.7403 187.074L57.9015 186.238C58.2771 185.414 58.617 184.572 58.9216 183.73L60.8233 184.417ZM59.7403 187.074C58.0339 190.816 59.8223 192.786 62.5941 194.05L61.7574 195.889C57.9648 194.159 55.5282 191.442 57.9015 186.238L59.7403 187.074ZM62.5941 194.05C64.3654 194.858 66.5088 195.416 68.5007 195.935L67.9957 197.884C65.9029 197.339 63.651 196.752 61.7574 195.889L62.5941 194.05ZM68.5007 195.935C69.027 196.071 69.537 196.204 69.9033 196.303L69.3905 198.253C68.8511 198.106 68.423 197.995 67.9957 197.884L68.5007 195.935ZM69.9033 196.303C72.3053 196.953 76.458 198.144 80.1909 198.38L80.0642 200.4C76.1527 200.152 71.8702 198.923 69.3905 198.253L69.9033 196.303ZM80.1909 198.38C83.5644 198.594 86.5721 198.026 87.2681 195.443L89.2173 195.955C88.1844 199.789 84.334 200.671 80.0642 200.4L80.1909 198.38ZM87.2681 195.443C87.6364 194.074 87.85 193.017 87.939 191.969L89.9588 192.135C89.8625 193.273 89.6259 194.437 89.2173 195.955L87.2681 195.443ZM87.939 191.969C88.0283 190.916 87.9917 189.894 87.8621 188.597L89.8663 188.408C90.0124 189.868 90.0547 191.001 89.9588 192.135L87.939 191.969ZM87.8621 188.597L87.9409 188.092L88.8642 188.503L87.8621 188.597ZM87.9409 188.092C89.2997 185.059 89.8597 184.24 90.8487 182.791L92.5134 183.928C91.5992 185.267 91.0813 186.025 89.7875 188.913L87.9409 188.092ZM90.8487 182.791C90.9497 182.643 91.036 182.517 91.2903 182.14L92.9629 183.268C92.8988 183.364 92.6883 183.672 92.5134 183.928L90.8487 182.791ZM91.2903 182.14C92.0614 180.996 92.416 180.232 92.5295 179.442L94.526 179.719C94.3636 180.85 93.9165 181.853 92.9629 183.268L91.2903 182.14ZM92.5295 179.442C92.6479 178.612 92.5287 177.622 92.3489 176.108L94.3531 175.879C94.5504 177.541 94.6821 178.628 94.526 179.719L92.5295 179.442ZM92.3489 176.108C92.2995 175.694 92.2587 175.367 92.2303 175.154L94.2269 174.901C94.2874 175.355 94.3291 175.676 94.3531 175.879L92.3489 176.108ZM92.2303 175.154C92.2079 174.982 92.1577 174.638 92.0878 174.158L94.0844 173.866C94.1155 174.081 94.1625 174.416 94.2269 174.901L92.2303 175.154ZM92.0878 174.158L91.8909 172.811L93.236 173.014L93.0861 174.012L92.0878 174.158ZM93.236 173.014C96.093 173.443 98.8966 173.656 101.686 173.674L101.678 175.694C98.7945 175.675 95.8937 175.455 92.9362 175.01L93.236 173.014ZM101.686 173.674C104.483 173.692 107.265 173.515 110.071 173.167L110.308 175.172C107.417 175.53 104.553 175.712 101.678 175.694L101.686 173.674ZM110.071 173.167L110.695 175.045L110.19 174.169L110.071 173.167ZM110.695 175.045C109.065 175.995 107.437 176.832 105.361 177.898L104.438 176.099C106.487 175.046 108.093 174.221 109.685 173.293L110.695 175.045ZM105.361 177.898C105.21 177.976 105.054 178.056 104.898 178.136L103.975 176.337C104.132 176.257 104.287 176.177 104.438 176.099L105.361 177.898ZM104.898 178.136C102.764 179.233 102.745 181.536 103.498 183.948L101.573 184.548C100.541 181.244 100.678 178.032 103.975 176.337L104.898 178.136ZM103.498 183.948C104.353 186.686 106.169 189.567 107.308 191.323L105.62 192.42C104.419 190.57 102.504 187.528 101.573 184.548L103.498 183.948ZM107.308 191.323C109.694 195 111.944 198.095 114.527 199.678L113.478 201.398C110.556 199.608 108.146 196.313 105.62 192.42L107.308 191.323ZM114.527 199.678C116.968 201.175 119.822 201.313 123.602 199.268L124.557 201.052C120.04 203.496 116.541 203.276 113.478 201.398L114.527 199.678ZM123.602 199.268C125.389 198.301 125.989 197.251 126.796 195.836L128.556 196.83C127.58 198.54 126.856 199.807 124.557 201.052L123.602 199.268ZM126.796 195.836C127.117 195.273 127.47 194.656 127.986 193.885L129.659 195.006C129.246 195.623 128.885 196.255 128.556 196.83L126.796 195.836ZM127.986 193.885L128.337 193.558L128.823 194.446L127.986 193.885ZM128.337 193.558C128.927 193.234 131.446 191.154 133.896 189.129L135.182 190.684C132.649 192.777 130.043 194.93 129.308 195.333L128.337 193.558ZM133.896 189.129C135.157 188.087 136.401 187.059 137.047 186.538L138.317 188.116C137.135 189.07 136.163 189.873 135.182 190.684L133.896 189.129ZM137.047 186.538L137.821 185.913L138.459 186.68L137.682 187.327L137.047 186.538ZM138.459 186.68C138.862 187.163 139.499 187.462 140.365 187.669L139.899 189.634C138.608 189.325 137.617 188.829 136.905 187.974L138.459 186.68ZM140.365 187.669C141.359 187.907 142.665 188.023 144.247 188.137L144.105 190.157C142.446 190.037 141.062 189.912 139.899 189.634L140.365 187.669ZM144.247 188.137C145.488 188.227 149.451 188.225 152.01 188.224V190.244C149.396 190.245 145.347 190.247 144.105 190.157L144.247 188.137ZM152.01 188.224C152.822 188.224 153.497 188.224 153.9 188.226L153.892 190.246C153.489 190.243 152.818 190.244 152.01 190.244V188.224ZM153.9 188.226C156.285 188.241 158.176 188.135 159.424 187.427L160.419 189.187C158.771 190.12 156.591 190.262 153.892 190.246L153.9 188.226ZM159.424 187.427C160.565 186.781 161.251 185.508 161.421 183.127L163.441 183.269C163.215 186.429 162.175 188.192 160.419 189.187L159.424 187.427ZM161.421 183.127C161.509 181.903 161.529 181.174 161.392 180.549L163.364 180.114C163.559 180.999 163.541 181.865 163.441 183.269L161.421 183.127ZM161.392 180.549C161.254 179.922 160.93 179.273 160.33 178.207L162.098 177.22C162.79 178.45 163.17 179.23 163.364 180.114L161.392 180.549ZM160.33 178.207L160.204 177.737L161.214 177.713L160.33 178.207ZM160.204 177.737C160.165 176.288 160.126 174.837 160.087 173.388L162.107 173.341C162.145 174.79 162.185 176.241 162.224 177.69L160.204 177.737ZM160.087 173.388C160.049 171.939 160.009 170.489 159.971 169.04L161.991 168.992C162.029 170.441 162.069 171.892 162.107 173.341L160.087 173.388ZM159.971 169.04C159.929 167.484 159.761 166.235 159.454 165.021L161.41 164.531C161.757 165.897 161.945 167.284 161.991 168.992L159.971 169.04ZM159.454 165.021C159.143 163.797 158.681 162.574 158.057 161.087L159.919 160.306C160.575 161.869 161.066 163.174 161.41 164.531L159.454 165.021ZM158.057 161.087C157.615 160.036 157.236 159.015 156.865 158.014L158.759 157.32C159.113 158.274 159.473 159.247 159.919 160.306L158.057 161.087ZM158.759 157.316V157.32L157.812 157.667L158.759 157.316ZM156.865 158.018C156.288 156.461 155.728 154.951 154.906 153.328L156.713 152.421C157.576 154.124 158.159 155.695 158.759 157.316L156.865 158.018ZM154.906 153.328L154.815 152.701L155.809 152.874L154.906 153.328ZM154.815 152.701C154.914 152.137 154.998 151.615 155.061 151.141L157.058 151.394C156.975 152.01 156.89 152.559 156.804 153.048L154.815 152.701ZM155.061 151.141C155.118 150.711 155.177 150.173 155.235 149.516L157.255 149.681C157.212 150.159 157.146 150.734 157.058 151.394L155.061 151.141ZM155.235 149.516L155.423 147.404L156.943 148.868L156.245 149.598L155.235 149.516ZM156.943 148.868C157.932 149.821 158.922 150.775 159.911 151.728L158.514 153.187C157.525 152.235 156.535 151.281 155.546 150.328L156.943 148.868ZM159.911 151.728L162.129 153.866L160.733 155.325L158.514 153.187L159.911 151.728ZM162.129 153.866C163.731 155.409 165.194 156.81 166.818 157.768L165.792 159.512C163.974 158.44 162.426 156.957 160.733 155.325L162.129 153.866ZM166.818 157.768C168.379 158.69 170.14 159.224 172.428 159.116L172.523 161.136C169.786 161.265 167.672 160.621 165.792 159.512L166.818 157.768ZM172.428 159.116C174.897 159 177.563 157.94 179.78 156.305L180.98 157.93C178.455 159.792 175.389 161 172.523 161.136L172.428 159.116ZM179.78 156.305C181.896 154.744 183.582 152.674 184.267 150.421L186.201 151.005C185.383 153.696 183.422 156.128 180.98 157.93L179.78 156.305ZM184.267 150.421C184.504 149.643 184.74 148.865 184.976 148.088L186.909 148.672C186.674 149.449 186.437 150.228 186.201 151.005L184.267 150.421ZM184.976 148.088C185.25 147.183 185.526 146.276 185.801 145.372L187.734 145.956C187.46 146.861 187.184 147.767 186.909 148.672L184.976 148.088ZM185.801 145.372L186.064 144.506L186.953 144.674L186.767 145.664L185.801 145.372ZM186.953 144.674C191.042 145.447 195.496 145.717 199.776 145.268L199.974 147.272C195.499 147.742 190.848 147.46 186.582 146.654L186.953 144.674ZM199.776 145.268C203.537 144.874 207.164 143.919 210.281 142.256L211.228 144.039C207.879 145.827 203.995 146.851 199.974 147.272L199.776 145.268ZM210.281 142.256C214.847 139.819 218.277 136.219 220.746 131.942L222.498 132.944C219.845 137.54 216.153 141.411 211.228 144.039L210.281 142.256ZM220.746 131.942V131.938L221.622 132.443L220.746 131.942ZM220.746 131.938C223.568 127.05 225.148 121.284 225.75 115.343L227.754 115.533C227.123 121.76 225.463 127.811 222.498 132.947L220.746 131.938ZM225.75 115.343C226.24 110.502 225.969 103.9 224.955 97.5147L226.944 97.1993C227.983 103.748 228.26 110.538 227.754 115.533L225.75 115.343ZM224.955 97.5147C224.062 91.8824 222.591 86.4354 220.562 82.5523L222.354 81.6209C224.483 85.6959 226.018 91.3624 226.944 97.1993L224.955 97.5147ZM220.562 82.5523C220.404 82.2478 220.14 81.9156 219.8 81.5809L221.213 80.1366C221.7 80.618 222.094 81.1232 222.354 81.6209L220.562 82.5523ZM219.8 81.5809C218.935 80.7266 217.648 79.9176 216.316 79.4592L216.971 77.5497C218.589 78.1063 220.155 79.093 221.213 80.1366L219.8 81.5809ZM216.316 79.4592C215.08 79.0339 213.834 78.9166 212.945 79.3815L212.013 77.5901C213.448 76.84 215.256 76.9601 216.971 77.5497L216.316 79.4592ZM212.945 79.3815C212.758 79.4787 212.584 79.6053 212.43 79.7622L210.985 78.3498C211.295 78.0364 211.641 77.7843 212.013 77.5901L212.945 79.3815ZM212.43 79.7622C211.604 80.5993 210.879 81.6577 210.153 82.7189L208.488 81.5824C209.272 80.4357 210.056 79.2922 210.985 78.3498L212.43 79.7622ZM210.153 82.7189C209.197 84.1146 208.237 85.5164 206.995 86.578L205.685 85.0391C206.736 84.1414 207.614 82.8588 208.488 81.5824L210.153 82.7189ZM206.995 86.578C205.474 87.8777 203.71 88.585 202.072 89.2418L201.323 87.3642C202.812 86.7672 204.415 86.1236 205.685 85.0391L206.995 86.578ZM202.072 89.2418C201.787 89.3561 201.507 89.4688 201.329 89.5418L200.564 87.6719C200.878 87.5429 201.101 87.4532 201.323 87.3642L202.072 89.2418ZM201.329 89.5418L200.364 89.9392L199.999 88.9541L200.946 88.6068L201.329 89.5418ZM199.999 88.9541C199.346 87.1906 198.545 85.6155 197.617 84.1347L199.33 83.0619C200.322 84.646 201.184 86.3429 201.893 88.2596L199.999 88.9541ZM197.617 84.1347C196.68 82.6382 195.617 81.2441 194.451 79.8535L195.997 78.5592C197.229 80.0267 198.347 81.4939 199.33 83.0619L197.617 84.1347ZM194.451 79.8535C193.549 78.7798 192.674 77.9757 191.73 77.2565L192.952 75.6546C194.012 76.4617 194.991 77.3613 195.997 78.5592L194.451 79.8535ZM191.73 77.2565C190.787 76.5382 189.716 75.8651 188.466 75.0828L189.538 73.3706C190.804 74.1629 191.89 74.8454 192.952 75.6546L191.73 77.2565ZM188.466 75.0828C184.944 72.8777 181.992 70.2883 178.981 67.6465L180.307 66.124C183.254 68.7102 186.144 71.2447 189.538 73.3706L188.466 75.0828ZM178.981 67.6465C177.713 66.5349 176.434 65.4127 175.004 64.2338L176.291 62.6715C177.614 63.7627 178.967 64.949 180.307 66.124L178.981 67.6465ZM175.004 64.2338C168.334 58.7341 162.157 56.0694 155.595 55.6561L155.722 53.6363C162.725 54.0771 169.272 56.8843 176.291 62.6715L175.004 64.2338ZM155.595 55.6561C148.985 55.2401 141.921 57.0914 133.535 60.6214L132.753 58.7593C141.423 55.1099 148.768 53.1989 155.722 53.6363L155.595 55.6561ZM133.535 60.6214C129.583 62.2847 126.658 64.2416 124.12 66.5885L122.755 65.1048C125.461 62.602 128.569 60.5204 132.753 58.7593L133.535 60.6214ZM124.12 66.5885C121.563 68.9533 119.364 71.7469 116.899 75.0451L115.281 73.8378C117.807 70.4596 120.068 67.5895 122.755 65.1048L124.12 66.5885ZM116.899 75.0451L116.614 75.4268L116.141 75.4514L116.09 74.4414L116.899 75.0451ZM116.141 75.4514C114.737 75.5244 113.561 75.6942 112.391 76.1619L111.641 74.2841C113.058 73.7178 114.427 73.515 116.039 73.4315L116.141 75.4514ZM112.391 76.1619C111.204 76.6364 109.98 77.4308 108.48 78.7542L107.146 77.2393C108.834 75.7497 110.243 74.8435 111.641 74.2841L112.391 76.1619ZM108.48 78.7542C107.326 79.773 106.2 80.8168 105.096 81.8854L103.691 80.4334C104.8 79.361 105.948 78.2967 107.146 77.2393L108.48 78.7542ZM105.096 81.8854L105.092 81.8895L104.393 81.1596L105.096 81.8854ZM105.092 81.8895C103.998 82.9476 102.929 84.0259 101.878 85.1232L100.418 83.7263C101.487 82.6108 102.576 81.5119 103.695 80.4298L105.092 81.8895ZM101.878 85.1232L101.306 85.4192L101.148 84.4248L101.878 85.1232ZM101.306 85.4192C93.4109 86.6773 87.0129 88.0581 81.2988 90.2715L80.573 88.3852C86.4152 86.1226 92.9415 84.713 100.99 83.4304L101.306 85.4192ZM81.2988 90.2715C75.6338 92.4657 70.6342 95.4905 65.4922 100.049L64.1583 98.5343C69.4915 93.8059 74.6833 90.6665 80.573 88.3852L81.2988 90.2715ZM65.4922 100.049C63.4086 101.896 61.6117 103.84 60.0444 105.893L58.4425 104.67C60.0937 102.507 61.9793 100.466 64.1583 98.5343L65.4922 100.049ZM60.0444 105.893C58.4764 107.946 57.1289 110.12 55.9457 112.425L54.1465 111.51C55.3798 109.107 56.7917 106.832 58.4425 104.67L60.0444 105.893ZM55.9457 112.425L55.7958 112.642L55.0461 111.967L55.9457 112.425ZM55.7958 112.642C54.6472 113.911 53.5009 115.198 52.2715 116.304L50.9222 114.797C52.1091 113.728 53.2015 112.503 54.2964 111.293L55.7958 112.642ZM52.2715 116.304C50.9827 117.464 49.5856 118.451 47.9708 119.073L47.2452 117.187C48.5926 116.668 49.7941 115.813 50.9222 114.797L52.2715 116.304ZM47.9708 119.073H47.967L47.6081 118.13L47.9708 119.073ZM47.967 119.073C46.6711 119.571 46.0376 119.821 45.3198 119.517L46.1013 117.654C46.1339 117.668 46.4595 117.49 47.2491 117.187L47.967 119.073ZM45.3198 119.517L45.3158 119.512L45.7105 118.585L45.3198 119.517ZM45.3158 119.512C44.5589 119.191 44.3476 118.569 43.8791 117.319L45.7731 116.617C46.0391 117.328 46.0337 117.628 46.1051 117.658L45.3158 119.512ZM43.8791 117.319L43.6157 116.616L44.2225 116.159L44.8261 116.968L43.8791 117.319ZM44.2225 116.159C46.0784 114.765 46.2544 111.987 46.4233 109.313L48.4431 109.439C48.2458 112.567 48.0396 115.815 45.4297 117.777L44.2225 116.159ZM46.4233 109.313C46.4451 108.963 46.4676 108.615 46.4866 108.349L48.5065 108.492C48.48 108.857 48.4614 109.149 48.4431 109.439L46.4233 109.313ZM46.4866 108.349L46.5584 107.364L47.544 107.411L47.4965 108.42L46.4866 108.349ZM47.544 107.411C49.21 107.49 49.969 108.665 50.7877 109.933L49.091 111.022C48.5678 110.212 48.0823 109.46 47.4491 109.43L47.544 107.411ZM50.7877 109.933C51.0162 110.287 51.2516 110.651 51.5006 110.966L49.9227 112.22C49.6089 111.824 49.3463 111.418 49.091 111.022L50.7877 109.933ZM51.6979 111.81L51.236 113.877L49.9227 112.22L50.7115 111.593L51.6979 111.81ZM49.7253 111.376C50.0664 109.85 50.3279 107.85 49.9584 106.213L51.9232 105.771C52.3745 107.771 52.0851 110.078 51.6979 111.81L49.7253 111.376ZM49.9584 106.213C49.7238 105.172 49.2212 104.277 48.2867 103.793L49.2096 101.994C50.7547 102.794 51.565 104.182 51.9232 105.771L49.9584 106.213ZM48.2867 103.793L47.488 103.379L47.801 102.542L48.748 102.893L48.2867 103.793ZM47.801 102.542C47.9502 102.143 48.1674 101.589 48.3907 101.02L50.2684 101.755C50.0937 102.2 49.9184 102.648 49.6951 103.245L47.801 102.542ZM48.3907 101.02C48.6883 100.261 48.994 99.4816 49.3156 98.5663L51.2251 99.229C50.9376 100.047 50.5982 100.912 50.2684 101.755L48.3907 101.02ZM50.1007 97.9032L51.7949 97.6093L51.2251 99.229L50.2703 98.8977L50.1007 97.9032ZM50.4401 99.8921C48.4844 100.232 44.1774 102.648 41.0509 105.893L39.5911 104.497C43.0019 100.956 47.8465 98.2945 50.1007 97.9032L50.4401 99.8921ZM41.0509 105.893C39.9178 107.069 38.9572 108.34 38.3506 109.634L36.5203 108.79C37.2353 107.264 38.3246 105.811 39.5911 104.497L41.0509 105.893ZM38.3506 109.634C37.7718 110.869 37.5076 112.132 37.7205 113.359L35.7317 113.698C35.4431 112.036 35.7763 110.377 36.5203 108.79L38.3506 109.634ZM37.7205 113.359C37.9136 114.473 38.5122 115.594 39.6394 116.68L38.2425 118.139C36.7813 116.731 35.997 115.229 35.7317 113.698L37.7205 113.359ZM39.6394 116.68L39.9195 117.169L38.9409 117.41L39.6394 116.68ZM39.9195 117.169C40.1758 118.212 40.4058 119.094 40.6559 119.891L38.7308 120.491C38.4702 119.66 38.2301 118.74 37.9625 117.65L39.9195 117.169ZM40.6559 119.891C40.8951 120.654 41.1562 121.339 41.4837 122.021L39.6611 122.888C39.2956 122.128 39.0023 121.356 38.7308 120.491L40.6559 119.891ZM41.4837 122.021C42.2101 123.532 43.3593 124.451 44.6839 124.877L44.0686 126.802C42.2376 126.214 40.6539 124.953 39.6611 122.888L41.4837 122.021ZM44.6839 124.877C46.2291 125.373 48.0271 125.221 49.7067 124.566L50.4409 126.444C48.3411 127.263 46.0628 127.442 44.0686 126.802L44.6839 124.877ZM49.7067 124.566L51.4606 123.882L51.06 125.718L50.0738 125.505L49.7067 124.566ZM51.06 125.718C50.5842 127.9 50.2972 130.188 50.2008 132.771L48.181 132.701C48.2816 130.003 48.5846 127.6 49.0876 125.292L51.06 125.718ZM50.2008 132.771C50.1049 135.356 50.2027 138.255 50.4953 141.661L48.4753 141.826C48.1787 138.372 48.0807 135.397 48.181 132.701L50.2008 132.771ZM50.4953 141.661C50.5699 142.528 50.6592 143.326 50.7617 144.056L48.7652 144.324C48.6381 143.418 48.5403 142.583 48.4753 141.826L50.4953 141.661ZM50.7617 144.056C50.8747 144.861 51.013 145.685 51.1735 146.522L49.1932 146.901C49.0309 146.055 48.8871 145.195 48.7652 144.324L50.7617 144.056ZM51.1735 146.522L51.1303 147.059L50.1833 146.711" fill="black"/>
<path fill-rule="evenodd" clip-rule="evenodd" d="M101.702 86.0329L88.4047 88.1939L76.271 93.5126L65.9655 99.9952L56.1588 111.963L50.6185 117.83L45.2616 119.805L43.8447 116.342L46.3221 112.766L46.8787 107.723L48.5381 107.79L50.3513 109.444L49.8622 104.307L47.8524 102.959L47.9134 101.001L43.1524 103.694L38.8412 108.781L37.9424 113.327L39.7859 116.967L41.5054 123.152L45.0026 124.808L48.6814 124.627L52.1695 122.6L49.8428 134.402L52.1695 147.533L49.6082 153.596L41.2188 162.635L42.7103 168.035L46.6845 174.293L54.1784 179.567L58.1533 180.111L62.5725 180.261L59.8154 191.58L69.9547 195.735L82.5872 197.397L86.9085 194.572L87.2411 186.926L92.0615 178.948L92.394 172.631L104.029 173.463L114.833 172.465L104.029 178.948L105.857 186.76L112.672 197.397L119.321 200.223L124.64 198.062L126.801 193.741L137.937 185.264L140.098 187.092L157.55 187.757L161.041 184.931L161.373 179.945L160.21 177.784L159.379 164.321L153.561 152.686L154.558 147.533L158.049 149.361L167.856 158.503L172.676 158.835L177.995 156.675L183.314 152.686L185.973 144.042L201.597 145.039L211.072 141.383L218.718 134.236L224.203 123.93L225.533 111.797L224.369 97.6681L221.377 85.0359L218.385 81.0467L214.23 79.7167L206.916 87.6951L200.268 90.0222L194.45 80.3817L188.633 75.0629L185.474 73.0682L172.842 62.5965L162.703 57.1115L152.564 56.2803L140.763 58.2749L130.457 62.0979L123.31 67.9153L117.659 74.7304L111.841 76.3925L101.702 86.0329Z" fill="#FFFF00" stroke="#1F1917" stroke-width="0.27" stroke-miterlimit="10"/>
<path fill-rule="evenodd" clip-rule="evenodd" d="M63.1369 116.032C51.7465 129.316 54.2768 145.429 57.4336 161.214C55.7489 156.958 54.0638 152.702 52.3793 148.445C51.7586 144.544 51.1378 140.642 50.5171 136.74C50.6943 132.75 50.8717 128.759 51.0493 124.769C52.6453 120.956 54.2414 117.143 55.8374 113.33C58.2318 109.783 60.6261 106.236 63.0204 102.689C66.7446 99.5853 70.469 96.4817 74.1932 93.3782C78.2722 91.6936 82.3514 90.0085 86.4304 88.3239C91.2186 87.7031 96.0072 87.0825 100.796 86.4618C96.3618 91.516 91.9283 96.5708 87.4943 101.625C76.8144 105.089 70.516 107.422 63.1369 116.032Z" fill="#FFFFCC"/>
<path fill-rule="evenodd" clip-rule="evenodd" d="M116.757 75.5548C108.838 83.2803 104.513 89.1068 99.474 98.1526C95.8694 104.624 91.8262 110.856 88.0366 117.236C86.1197 120.465 85.9387 123.174 85.3658 126.897C83.5036 124.681 81.6415 122.464 79.7793 120.247C80.6662 117.587 81.5529 114.926 82.4397 112.266C85.4547 106.857 88.4698 101.448 91.4844 96.0388C97.8691 89.7427 104.254 83.4469 110.638 77.1509C112.678 76.6187 114.717 76.0869 116.757 75.5548Z" fill="#FFFFCC"/>
<path fill-rule="evenodd" clip-rule="evenodd" d="M155.862 56.4013C149.52 58.7792 138.988 59.5623 138.257 66.8415C137.737 72.0108 138.647 74.6082 141.763 80.0774C134.067 72.1137 132.163 73.3462 117.289 75.821C119.417 72.8059 121.545 69.7909 123.673 66.7759C127.397 64.4706 131.122 62.1648 134.846 59.8594C139.635 58.7952 144.423 57.7312 149.212 56.667C151.429 56.5783 153.645 56.4898 155.862 56.4013Z" fill="#FFFFCC"/>
<path fill-rule="evenodd" clip-rule="evenodd" d="M173.362 154.863C175.474 156.166 175.429 157.11 175.075 158.004C176.741 157.337 178.406 156.671 180.072 156.005C181.151 154.556 182.23 153.108 183.309 151.659C184.11 149.595 184.911 147.531 185.711 145.466C184.688 144.697 183.665 143.927 182.641 143.157C178.169 143.728 173.695 144.299 169.223 144.87C168.89 145.775 168.556 146.679 168.223 147.583C168.319 148.868 168.414 150.152 168.509 151.437C168.937 152.198 169.366 152.96 169.794 153.721C170.46 154.054 171.126 154.388 171.792 154.72C172.316 154.768 172.839 154.816 173.362 154.863Z" fill="#CCCC00"/>
<path fill-rule="evenodd" clip-rule="evenodd" d="M172.113 131.914C165.387 133.856 165.44 134.391 163.453 141.064C166.075 136.857 168.017 134.734 172.113 131.914Z" fill="#CCCC00"/>
<path fill-rule="evenodd" clip-rule="evenodd" d="M216.838 81.9776C215.642 82.5299 214.478 82.7959 213.731 83.8898C212.122 86.2441 210.743 88.2246 208.081 89.8775C206.741 90.7102 205.355 91.2495 203.934 91.6922C202.755 92.0589 202.047 91.7315 201.043 92.4524C201.639 92.5564 202.234 92.6606 202.829 92.7651C204.142 92.7651 205.454 92.7651 206.767 92.7651C208.385 91.7656 210.003 90.7663 211.621 89.7672C212.573 88.7677 213.524 87.7687 214.476 86.7692C215.263 85.172 216.05 83.5744 216.838 81.9776Z" fill="#CCCC00"/>
<path fill-rule="evenodd" clip-rule="evenodd" d="M109.693 96.9043C107.047 104.145 104.735 110.352 100.726 116.908C105.863 111.374 108.977 106.67 111.919 100.413C113.062 97.9823 113.278 95.13 116.461 96.1907C116.604 98.6177 117.117 101.044 117.26 103.471C118.98 91.1419 123.83 85.9862 135.104 81.2016C131.916 81.5826 128.727 81.9629 125.54 82.3436C122.542 83.0101 119.544 83.6759 116.546 84.342C115.071 86.4835 113.595 88.6249 112.12 90.766C111.311 92.8121 110.503 94.8584 109.693 96.9043Z" fill="#CCCC00"/>
<path fill-rule="evenodd" clip-rule="evenodd" d="M131.536 96.6191C133.967 108.063 137.467 119.045 138.988 130.67C139.976 138.224 140.084 141.853 136.283 148.37C132.13 148.101 129.551 148.57 125.533 149.886C109.539 155.129 100.366 162.838 89.5889 147.305C93.0291 148.926 96.4698 150.548 99.9098 152.169C102.362 151.687 104.815 151.205 107.268 150.723C111.598 148.201 115.928 145.679 120.258 143.157C123.637 142.491 127.015 141.825 130.394 141.159C131.488 136.591 132.582 132.022 133.677 127.454C132.868 121.411 132.059 115.368 131.25 109.324C131.155 106.469 131.06 103.614 130.965 100.759C131.155 99.3789 131.346 97.9991 131.536 96.6191Z" fill="#CCCC00"/>
<path fill-rule="evenodd" clip-rule="evenodd" d="M159.087 167.425C157.744 176.722 162.181 181.72 160.344 184.287C159.823 185.015 159.118 186.283 158.331 186.63C155.52 187.872 151.655 186.398 151.378 187.125C148.285 187.125 145.193 187.125 142.099 187.125C140.862 186.601 139.625 186.078 138.388 185.555C140.291 183.318 142.195 181.082 144.098 178.845C145.954 174.801 147.809 170.756 149.665 166.711C150.855 162.619 152.045 158.527 153.234 154.434C153.853 154.434 154.471 154.434 155.09 154.434C156.423 158.765 157.755 163.095 159.087 167.425Z" fill="#CCCC00"/>
<path fill-rule="evenodd" clip-rule="evenodd" d="M143.491 140.398C144.245 144.619 145.554 145.622 147.539 149.708C146.217 156.375 144.094 164.303 141.539 170.184C140.462 172.665 139.592 174.032 137.692 175.949C134.485 179.188 131.242 182.01 127.605 184.817C124.987 186.835 123.159 185.823 119.928 185.365C118.555 187.856 118.175 189.24 115.646 190.504C111.757 192.448 108.277 188.258 105.225 185.793C107.428 189.235 109.632 192.677 111.835 196.119C113.358 197.546 114.881 198.974 116.403 200.402C117.688 200.592 118.973 200.782 120.258 200.973C121.971 199.926 123.684 198.879 125.397 197.832C126.301 196.119 127.205 194.406 128.109 192.693C130.012 191.266 131.916 189.838 133.819 188.41C136.151 186.412 138.483 184.413 140.814 182.415C142.29 180.321 143.765 178.227 145.24 176.133C146.572 173.659 147.904 171.184 149.237 168.71C150.95 163.571 152.663 158.432 154.376 153.293C154.519 151.341 154.662 149.391 154.804 147.44C152.663 146.488 150.522 145.536 148.38 144.585C146.81 143.109 145.061 141.873 143.491 140.398Z" fill="#CCCC00"/>
<path fill-rule="evenodd" clip-rule="evenodd" d="M92.2777 170.137C99.4827 170.137 107.092 169.738 113.691 166.712C115.558 163.91 117.402 161.622 119.687 159.146C117.607 163.074 116.955 165.294 116.403 169.71C115.689 170.756 114.976 171.803 114.262 172.85C108.837 172.993 103.412 173.135 97.9876 173.278C96.2269 173.088 94.4661 172.897 92.7056 172.707C92.5154 172.517 92.3251 172.326 92.1348 172.136C92.1825 171.47 92.2303 170.804 92.2777 170.137Z" fill="#CCCC00"/>
<path fill-rule="evenodd" clip-rule="evenodd" d="M91.2785 165.141C91.0921 163.452 90.9057 161.763 90.7192 160.073C89.4882 167.482 89.7842 172.448 86.3742 179.085C83.8268 182.036 80.6906 184.722 77.0985 186.159C77.4017 187.979 77.4923 189.116 77.3164 190.45C76.6836 195.249 67.0831 193.129 63.1343 192.938C69.4704 194.57 75.8066 196.201 82.1422 197.832C83.5697 197.261 84.9972 196.69 86.425 196.119C86.9009 193.359 87.3767 190.599 87.8526 187.839C89.1848 185.365 90.5176 182.89 91.8495 180.416C92.0873 178.893 92.3254 177.371 92.5634 175.848C92.1351 172.279 91.707 168.71 91.2785 165.141Z" fill="#CCCC00"/>
<path fill-rule="evenodd" clip-rule="evenodd" d="M80.5717 123.315C80.3724 126.917 80.1398 128.419 81.7285 131.601C83.7483 135.646 86.2288 139.445 88.4235 143.443C88.6611 140.778 88.8989 138.113 89.137 135.448C86.282 131.404 83.427 127.359 80.5717 123.315Z" fill="#CCCC00"/>
<path fill-rule="evenodd" clip-rule="evenodd" d="M51.2674 150.53C50.6494 151.845 50.0314 153.161 49.4134 154.476C51.1143 160.205 52.6261 163.834 55.8649 168.839C55.3009 170.867 54.8787 171.754 53.5809 173.407C50.7305 172.968 48.1996 172.841 45.3115 172.85C48.5002 175.324 51.6885 177.799 54.8764 180.273C56.4463 179.988 58.0168 179.702 59.5872 179.417C61.1573 177.846 62.7277 176.276 64.2982 174.706C62.0611 171.232 59.8249 167.758 57.5887 164.285C55.4815 159.7 53.3742 155.114 51.2674 150.53Z" fill="#CCCC00"/>
<path fill-rule="evenodd" clip-rule="evenodd" d="M216.858 80.0821C218.8 88.8183 221.304 96.879 221.072 105.826C220.787 116.803 218.647 130.668 208.477 137.288C197.087 144.7 183.717 141.194 171.221 138.018C176.313 140.112 181.404 142.205 186.495 144.299C191.254 144.537 196.013 144.775 200.771 145.013C204.007 144.061 207.243 143.109 210.478 142.158C213 140.064 215.523 137.971 218.044 135.877C219.948 131.88 221.851 127.882 223.755 123.886C224.468 119.269 225.182 114.654 225.896 110.038C225.325 105.517 224.754 100.997 224.183 96.4767C223.136 92.0034 222.089 87.5302 221.042 83.0578C219.648 82.0657 218.253 81.074 216.858 80.0821Z" fill="#CCCC00"/>
<path fill-rule="evenodd" clip-rule="evenodd" d="M46.8866 106.119C41.7158 109.484 39.685 110.962 40.2517 117.199C40.7668 119.067 41.2822 120.935 41.7977 122.803C42.5275 123.297 43.2578 123.791 43.9877 124.285C44.8896 124.585 45.7916 124.886 46.6935 125.187C48.3253 124.8 49.9572 124.414 51.5893 124.027C52.4267 121.429 53.2643 118.831 54.1016 116.233C51.7824 117.371 49.4634 118.509 47.1445 119.647C46.6076 119.647 46.0708 119.647 45.534 119.647C44.9327 118.724 44.3314 117.8 43.7301 116.877C44.4603 115.803 45.1903 114.73 45.9205 113.656C46.307 111.616 46.6935 109.576 47.0799 107.536C47.5737 107.687 48.0678 107.837 48.5615 107.987C49.1628 108.46 49.7641 108.932 50.3654 109.404C50.2795 108.331 50.1937 107.257 50.1075 106.183C49.6995 105.496 49.2917 104.809 48.8835 104.122C48.4756 103.778 48.0678 103.435 47.6596 103.091C47.402 104.101 47.1445 105.11 46.8866 106.119Z" fill="#CCCC00"/>
<path fill-rule="evenodd" clip-rule="evenodd" d="M162.893 56.9705C167.481 61.2316 173.114 64.9357 176.784 70.1435C178.205 72.1598 179.783 73.1906 176.76 76.0378C179.954 75.1255 181.141 75.2246 183.697 75.5345C188.349 76.0973 192.708 82.7089 192.986 87.447C192.931 87.8901 191.694 88.8958 188.098 89.8886C188.027 90.0269 186.068 89.6206 186.117 89.7531C186.491 90.7757 186.99 90.9324 187.753 91.4109C187.918 92.5482 188.025 94.3019 188.799 95.5453C191.062 95.5057 193.273 95.752 195.489 96.1909C196.235 97.4277 196.123 98.6644 196.06 99.9023C196.917 99.7598 197.774 99.6169 198.63 99.4743C198.392 97.5228 198.154 95.5722 197.916 93.6214C198.677 92.3365 199.439 91.0516 200.2 89.767C199.105 87.2927 198.011 84.8183 196.917 82.3437C194.823 80.3453 192.729 78.3467 190.636 76.3478C190.434 76.3382 190.232 76.3277 190.031 76.3179C187.676 74.8725 185.322 73.428 182.968 71.983C179.127 68.841 175.287 65.6986 171.446 62.5565C168.595 60.6944 165.744 58.8323 162.893 56.9705Z" fill="#CCCC00"/>
<path fill-rule="evenodd" clip-rule="evenodd" d="M170.623 92.1435C170.381 92.5669 170.015 93.2435 169.547 93.712C171.458 95.5202 172.401 96.7308 173.083 99.288C170.922 100.361 168.761 101.434 166.601 102.507C164.772 104.259 162.944 106.012 161.116 107.765C158.709 106.469 158.109 105.474 156.945 103.005C155.589 103.364 154.304 103.71 153.184 103.299C153.895 103.304 154.331 103.126 155.041 102.688C156.205 101.479 157.368 100.27 158.531 99.061C160.586 97.5046 162.642 95.9483 164.696 94.3921C166.041 93.9536 167.386 93.5154 168.731 93.0773C169.245 92.866 170.109 92.3552 170.623 92.1435Z" fill="#CCCC00"/>
<path fill-rule="evenodd" clip-rule="evenodd" d="M176.587 98.5917C169.713 102.293 163.128 106.016 159.613 113.046C159.613 104.123 168.572 100.195 176.587 98.5917Z" fill="#CCCC00"/>
<path fill-rule="evenodd" clip-rule="evenodd" d="M158.248 81.0393C153.144 84.5197 149.534 91.5433 149.988 98.3887C148.325 92.4616 148.914 86.8607 154.02 82.7667C154.882 82.3479 155.743 81.9292 156.604 81.5105C157.152 81.3535 157.7 81.1966 158.248 81.0393Z" fill="#CCCC00"/>
<path fill-rule="evenodd" clip-rule="evenodd" d="M168.006 133.88C169.061 133.306 170.976 132.517 172.031 131.942C170.946 132.126 169 132.525 167.915 132.708C165.016 133.197 164.675 133.894 164.225 136.748C164.013 138.092 163.721 139.76 163.509 141.104C164.077 139.584 164.761 137.817 165.423 136.368C166.124 134.835 166.518 134.69 168.006 133.88ZM114.219 60.373C116.497 56.9559 117.808 55.8443 121.314 53.6795C116.554 54.8262 115.646 55.7076 114.219 60.373ZM113.469 67.9012C117.455 59.8871 120.474 56.9362 128.82 53.0001C119.38 55.314 116.605 56.9595 113.469 67.9012ZM28.0996 109.615C28.9744 105.602 29.7897 104.088 32.2639 100.794C28.2503 103.598 27.7271 104.75 28.0996 109.615ZM117.456 176.779C117.335 175.805 117.214 174.831 117.093 173.857C116.874 172.093 116.882 170.659 117.023 168.883C117.159 167.164 117.293 165.446 117.429 163.726C116.928 165.473 115.927 167.221 115.427 168.968C115.227 169.667 115.061 170.233 114.966 170.755C107.496 172.282 100.081 172.377 92.6089 171.044C92.1323 168.278 91.552 165.395 91.0653 163.329C90.9177 165.644 91.0128 172.041 91.0007 175.624C90.9914 178.399 90.8745 179.349 89.4435 181.71C88.1035 183.921 87.5359 184.422 85.6602 188.157C85.816 190.513 85.8191 192.071 85.193 194.308C84.1515 198.026 73.6487 195.145 70.8777 194.386C67.4656 193.453 60.4113 192.064 62.1853 187.515C63.7468 183.512 64.7361 179.292 65.499 173.69C59.2477 164.684 53.4336 152.343 52.3183 141.408C51.4521 132.917 51.9719 127.691 53.8092 122.498C56.7204 114.269 60.7928 107.147 67.3282 101.411C76.1432 93.6761 84.3838 90.569 97.286 88.6054C94.1835 92.0784 91.1138 95.7514 87.7679 99.6893C84.3808 103.677 82.3678 107.703 80.2175 112.064C77.2464 118.087 77.31 120.379 81.2488 125.666C84.6429 130.223 86.4751 132.275 87.957 136.733C86.733 139.255 86.2882 141.387 85.8766 144.832C90.0324 149.374 93.1204 152.487 97.1554 153.446C101.113 154.387 104.419 154.205 107.959 152.395C115.824 148.374 123.1 143.182 131.972 142.968C136.076 132.877 135.661 124.447 133.691 114.684C132.345 108.017 131.806 101.705 131.387 94.9074C129.723 101.907 129.411 108.063 130.645 115.035C132.133 123.438 133.29 132.722 129.15 140.107C121.129 140.721 114.254 145.601 107.024 149.346C104.118 150.851 101.092 150.998 97.8752 150.115C94.8894 149.295 92.8746 147.32 89.658 143.61C89.6078 139.885 90.4481 138.166 92.1583 134.793C94.9065 129.376 97.9401 124.334 101.269 119.003C97.1924 123.924 93.3309 128.034 90.1229 132.98C88.8966 129.486 87.1436 127.712 84.2389 123.779C81.4019 119.937 81.1047 118.254 83.2259 113.808C85.3588 109.34 87.1677 105.413 90.798 101.493C97.0707 94.719 102.817 87.1798 109.677 80.5089C113.401 76.8868 114.913 77.0119 119.854 76.2631C124.319 75.5864 128.679 74.7317 133.233 73.6737C128.828 74.0843 124.571 74.2354 120.284 74.3418C120.239 74.343 120.195 74.3445 120.151 74.3445C124.369 68.957 126.817 65.9551 133.669 62.9783C150.537 55.6519 161.255 54.8596 174.506 65.9983C177.94 68.8851 180.939 71.6876 184.422 74.1783C183.159 74.2863 182.071 74.5126 180.632 75.0779C182.383 74.7442 184.406 75.0752 186.223 75.4073C186.734 75.7382 187.258 76.0609 187.795 76.3779C190.253 77.826 191.648 78.6259 193.311 80.9424C195.068 83.3903 196.532 85.8363 197.823 88.5323C196.977 88.2302 196.268 87.9746 195.636 87.7866C195.171 87.5734 194.664 87.4324 194.128 87.3807C193.064 87.2785 192.047 87.54 191.2 88.0616C191.165 88.0775 191.132 88.093 191.097 88.1097C189.737 88.7716 187.631 89.5264 186.221 89.7552C186.94 90.0034 188.53 90.0963 189.28 89.7995C189.381 89.7594 189.483 89.7292 189.588 89.7039C189.25 90.2796 189.029 90.9337 188.961 91.6399C188.871 92.5764 189.061 93.4752 189.464 94.2555C189.465 94.2583 189.466 94.261 189.468 94.2638C189.595 94.5632 189.772 94.8397 189.967 95.0387C189.322 95.2756 188.665 95.5471 187.987 95.8415C191.13 95.3626 193.964 95.2803 197.033 95.6846C197.235 96.6518 197.439 97.6765 197.628 98.719C197.247 98.7493 196.868 98.7781 196.488 98.808C196.458 98.8107 196.427 98.8134 196.396 98.8162C194.944 97.6559 193.327 97.8509 191.117 98.3552C184.398 99.8875 185.977 103.658 182.886 109.339C186.095 105.415 185.858 101.31 191.088 100.072C192.307 99.7831 193.137 99.4221 193.962 99.5461C192.477 100.293 191.192 101.531 190.683 102.969C189.247 107.023 190.139 110.439 188.562 114.225C190.515 110.84 190.633 107.537 192.38 103.975C193.007 102.696 195.336 100.648 196.765 100.617C197.158 100.608 197.549 100.6 197.942 100.591C198.286 102.845 198.496 105.082 198.362 106.938C198.119 110.324 197.239 115.351 196.712 117.274C198.482 114.999 199.288 110.181 200.065 106.79C200.875 103.258 200.67 99.0198 199.962 95.226C198.989 90.0202 204.351 90.8669 207.463 88.4137C209.751 86.6098 211.326 83.73 213.424 81.6899C215.504 79.6669 218.78 82.6396 219.598 84.6175C223.147 93.2026 224.763 106.71 223.826 115.364C222.774 125.075 218.083 135.677 209.518 140.458C198.599 146.552 185.725 142.829 174.876 139.174C172.561 138.394 170.951 137.257 168.915 135.975C169.47 138.47 169.721 141.111 168.984 143.603C167.814 147.557 165.924 154.027 171.292 155.22C173.335 155.674 174.262 155.608 177.147 154.12C174.812 154.648 173.635 154.518 172.03 154.222C170.576 153.954 169.805 153.03 169.399 151.941C169.907 152.308 170.735 152.507 172.151 152.848C176.131 153.807 179.924 151.892 180.665 149.132C181.098 147.519 181.024 146.673 181.94 144.476C182.763 144.729 183.615 144.962 184.489 145.173C183.996 146.78 183.503 148.388 183.01 149.995C181.731 154.168 176.747 157.532 172.347 157.455C168.279 157.383 165.7 154.835 162.892 152.337C160.958 150.615 159.096 148.968 157.25 147.337C152.188 145.74 148.13 143.873 143.432 140.395C146.775 144.325 149.044 146.5 153.707 148.455C153.028 155.373 150.624 160.416 148.575 167.037C147.647 170.031 140.323 182.026 138.294 183.195C136.847 184.029 127.782 191.664 126.076 192.671C124.807 194.358 123.692 196.688 121.783 197.697C115.965 200.774 112.226 194.883 109.095 189.908C107.669 187.641 103.711 181.113 107.162 179.285C110.425 177.556 112.252 176.322 115.581 174.136C116.07 175.028 116.909 175.888 117.456 176.779ZM137.682 187.327C134.737 189.706 129.783 193.918 128.822 194.446C127.082 197.043 126.867 198.651 124.08 200.16C115.781 204.65 111.376 199.442 106.464 191.872C104.123 188.264 99.0052 180.028 104.436 177.236C106.725 176.06 108.459 175.178 110.189 174.171C104.491 174.878 98.8995 174.886 93.0851 174.012C93.188 174.713 93.2777 175.381 93.3504 175.993C93.7283 179.17 93.8523 180.144 92.1264 182.704C90.8683 184.571 90.3835 185.111 88.864 188.502C89.1405 191.26 89.0205 192.811 88.2426 195.699C86.5132 202.116 74.5297 198.599 69.6467 197.278C63.7713 195.689 55.3757 194.21 58.8207 186.656C59.6279 184.886 60.2618 183.076 60.7388 181.35C55.6014 183.624 48.462 178.8 45.0617 175.391C41.8275 172.149 40.0707 168.383 39.4586 164.729C38.9373 161.619 39.4146 161.635 41.6338 159.436C43.664 157.426 45.6936 155.414 47.7233 153.406C48.5428 151.174 49.3639 148.945 50.1831 146.716C49.8638 145.05 49.6265 143.389 49.4851 141.743C48.8954 134.883 49.0936 129.998 50.0736 125.507C46.4989 126.902 42.397 126.248 40.5726 122.455C39.8788 121.012 39.4655 119.543 38.9415 117.41C30.9673 109.727 45.9108 99.6548 50.2701 98.8973C49.7717 100.314 49.2257 101.609 48.7451 102.894C51.7015 104.424 51.3391 108.785 50.7114 111.592C49.6479 110.25 49.0601 108.495 47.4959 108.42C47.2668 111.595 47.3064 115.104 44.8267 116.968C45.5608 118.93 45.5223 118.932 47.6086 118.13C50.5716 116.989 52.8027 114.448 55.0471 111.968C57.4643 107.259 60.5629 103.071 64.8255 99.2916C75.3003 90.0046 85.2014 86.9662 101.144 84.4255C103.266 82.211 105.459 80.0743 107.813 77.9966C111.002 75.1824 113.073 74.5981 116.089 74.4408C121.08 67.7649 125.007 63.1157 133.145 59.6905C150.201 52.5112 161.958 52.1651 175.648 63.4529C180.172 67.1826 184.03 71.1132 189.002 74.2268C191.518 75.8024 193.316 76.9349 195.224 79.2066C197.623 82.0653 199.582 84.9242 200.946 88.6039C202.708 87.8787 204.717 87.1955 206.339 85.8087C208.434 84.0188 209.767 81.0228 211.707 79.0561C214.283 76.4464 220.157 79.5969 221.458 82.0867C225.882 90.5538 227.692 106.159 226.752 115.438C225.59 126.91 220.861 137.754 210.754 143.148C203.883 146.814 194.66 147.155 186.767 145.663C186.255 147.347 185.746 149.03 185.234 150.713C183.699 155.756 177.709 159.879 172.475 160.126C167.45 160.363 164.727 157.77 161.431 154.595C159.702 152.93 157.972 151.265 156.243 149.6C156.143 150.734 155.994 151.822 155.808 152.875C157.169 155.563 157.822 157.926 158.987 160.696C160.269 163.748 160.893 165.75 160.981 169.016C161.058 171.915 161.136 174.815 161.214 177.713C162.507 180.011 162.62 180.57 162.432 183.198C162.033 188.739 158.982 189.268 153.896 189.236C152.202 189.225 145.806 189.265 144.176 189.147C140.935 188.913 138.799 188.665 137.682 187.327ZM154.831 157.102C153.808 160.756 152.432 164.204 151.177 168.157C149.989 171.9 143.896 182.766 140.31 185.4C141.008 185.919 142.289 186.123 144.572 186.32C146.186 186.459 152.553 186.489 154.151 186.516C157.67 186.578 159.006 186.313 159.361 182.306C159.535 180.345 159.382 179.978 158.401 178.258C158.314 175.191 158.227 172.123 158.14 169.056C158.059 166.149 157.5 164.474 156.357 161.764C155.673 160.142 155.301 158.629 154.831 157.102ZM47.6405 106.91C48.4305 106.821 48.9191 107.235 49.5302 107.846C49.4171 106.387 49.1476 105.305 48.1233 104.709C48.0515 104.946 47.9839 105.183 47.9202 105.424C47.7962 105.893 47.7076 106.392 47.6405 106.91ZM52.6043 117.452C52.0356 118.923 51.508 120.439 51.0113 122.006C50.929 122.265 50.85 122.526 50.7731 122.786C47.7682 124.06 43.8171 124.87 42.3045 121.712C41.5701 120.179 41.1555 118.675 40.6199 116.738C35.6713 111.611 43.0686 104.843 47.0979 102.415C46.5148 103.669 46.1007 104.618 45.818 105.595C44.5928 109.829 46.3726 113.607 42.5298 116.677C44.3357 120.321 44.2526 121.774 48.4542 120.09C50.0751 119.441 51.4117 118.529 52.6043 117.452ZM51.4464 151.952C53.7241 159.829 57.603 167.569 61.9033 174.076C61.9029 174.114 61.9025 174.151 61.9022 174.19C61.6329 175.309 61.3211 176.399 60.6677 177.274C57.5941 181.386 49.7753 175.35 47.5122 173.039C45.0383 170.513 43.3824 167.522 42.9882 164.716C42.7015 162.67 42.9797 162.62 44.4075 161.172C46.3319 159.224 48.2581 157.275 50.1816 155.327C50.6027 154.201 51.0253 153.077 51.4464 151.952ZM196.993 88.7247C197.432 89.1582 197.785 89.6743 198.029 90.2453C198.162 90.1234 198.304 90.008 198.453 89.8985C198.273 89.4926 198.09 89.0925 197.902 88.6983C197.591 88.7051 197.288 88.7138 196.993 88.7247ZM159.343 102.894C158.942 102.054 158.75 101.167 158.743 100.291C157.268 101.47 155.664 102.587 154 103.232C156.298 101.18 159.419 96.3403 161.681 94.8126C164.248 93.0782 167.731 93.4158 170.724 92.0314C169.702 92.9598 168.393 93.7078 167.06 94.4198C168.528 94.9574 169.797 96.045 170.521 97.5631C170.827 98.2033 171.009 98.8717 171.083 99.5405C173.094 98.8802 175.068 98.5676 176.735 98.5916C170.77 100.266 164.425 104.182 160.05 109.368C160.542 108.016 161.229 106.795 162.056 105.705C160.909 105.106 159.941 104.148 159.343 102.894ZM131.681 81.315C128.387 82.6003 125.383 83.5647 122.172 84.3715C119.242 88.2224 117.457 90.2174 116.783 95.3789C115.989 90.3013 115.824 89.3586 118.084 85.5686C117.429 85.9015 116.82 86.3592 115.947 87.1053C112.79 89.805 108.675 100.414 107.029 104.207C108.074 99.6415 111.341 88.2302 114.706 84.904C116.919 82.7164 117.421 82.7665 120.541 82.4713C124.258 82.119 127.967 81.7348 131.681 81.315ZM200.435 92.3845C203.107 92.6373 204.635 93.0498 207.028 91.8663C211.488 89.6593 214.769 86.0562 216.897 81.7469C215.595 86.8881 212.976 91.2569 207.542 93.1948C204.874 94.1456 203.153 93.1637 200.435 92.3845ZM149.152 92.8867C150.159 88.4283 151.946 84.1326 158.87 80.8092C149.693 83.1072 147.972 86.9616 149.152 92.8867ZM30.1486 116.898C30.936 107.982 32.6699 104.133 39.0049 97.4229C31.059 103.022 29.0762 105.566 30.1486 116.898Z" fill="black"/>
<path fill-rule="evenodd" clip-rule="evenodd" d="M160.54 104.33C159.927 103.047 160.475 101.501 161.761 100.89C163.047 100.277 164.595 100.824 165.209 102.108C165.267 102.229 165.313 102.354 165.351 102.48C164.123 103.391 162.997 104.465 162.054 105.708C161.417 105.453 160.855 104.988 160.54 104.33Z" fill="#FFFFCC"/>
<path fill-rule="evenodd" clip-rule="evenodd" d="M189.272 93.2145C189.375 92.1518 190.281 91.3683 191.344 91.4709C192.406 91.5738 193.19 92.5235 193.088 93.5863C193.066 93.8124 193.005 94.0245 192.913 94.2198C191.941 94.3853 190.968 94.6707 189.966 95.0391C189.547 94.6102 189.213 93.8272 189.272 93.2145Z" fill="#FFFFCC"/>
</svg>
