<svg width="256" height="256" viewBox="0 0 256 256" fill="none" xmlns="http://www.w3.org/2000/svg">
<path d="M196 0H60C26.8629 0 0 26.8629 0 60V196C0 229.137 26.8629 256 60 256H196C229.137 256 256 229.137 256 196V60C256 26.8629 229.137 0 196 0Z" fill="#242938"/>
<path d="M88.5614 207.971L79.9707 218.823L83.7321 207.971C83.7321 207.971 88.557 208.098 88.557 207.971H88.5657H88.5614Z" fill="#F7DF1E"/>
<path d="M72.7273 184.459C70.0777 185.793 67.6945 189.026 67.0798 191.911C66.4651 194.795 65.5017 200.411 61.4326 201.754C61.4326 201.754 63.8877 202.925 66.8309 200.918C69.7747 198.915 72.1029 194.692 71.5694 191.156C70.8372 186.34 72.8986 184.382 72.7273 184.468V184.459Z" fill="#F7DF1E"/>
<path d="M146.161 164.51C146.161 164.51 147.631 166.83 153.685 166.776C159.735 166.713 161.028 164.284 158.32 161.174C155.602 158.062 152.329 157.108 148.092 158.234C143.85 159.369 139.727 162.589 142.218 167.444C144.71 172.301 155.335 187.059 159.798 191.242C159.798 191.242 163.763 184.966 164.451 179.974C165.233 174.408 165.563 167.96 162.281 168.978C159.007 169.986 149.164 172.789 146.161 164.506V164.514V164.51Z" fill="#F7DF1E"/>
<path d="M175.835 154.617C175.835 154.617 178.594 161.178 180.456 164.208C182.319 167.246 183.395 168.141 188.808 170.05C194.22 171.953 215.294 179.409 217.876 179.943C217.876 179.943 196.73 164.682 194.695 163.141C192.655 161.59 189.459 161.454 186.886 161.653C182.862 161.947 179.195 159.808 175.826 154.627H175.835V154.617Z" fill="#F7DF1E"/>
<path d="M183.897 178.591C183.897 178.591 182.559 183.198 184.883 187.76C187.216 192.322 189.798 192.91 192.371 193.263C194.943 193.616 199.257 194.918 200.446 198.477C200.446 198.477 201.884 193.86 197.873 190.654C193.863 187.457 188.595 187.485 186.402 184.772C183.857 181.62 184.123 180.123 183.902 178.582V178.591H183.897Z" fill="#F7DF1E"/>
<path d="M169.809 192.598L181.253 217.014L171.315 205.909C171.315 205.909 171.369 198.562 169.045 195.528L169.8 192.598H169.809Z" fill="#F7DF1E"/>
<path d="M158.193 214.302L156.846 224.249L153.672 218.941L158.193 214.302Z" fill="#F7DF1E"/>
<path d="M212.279 149.485C206.623 149.083 206.275 143.02 200.365 141.722C194.456 140.424 188.799 142.599 182.587 140.668L181.497 138.977L182.555 136.572L227.996 129.505L182.546 122.433C182.465 122.243 182.442 122.189 182.365 121.995C183.853 119.896 186.349 117.292 189.369 117.735C194.316 118.459 198.394 120.258 201.573 117.69C204.751 115.122 205.027 110.541 210.878 112.034C217.262 113.657 221.16 112.92 223.154 107.377C223.154 107.377 218.325 109.655 213.839 107.471C209.354 105.288 206.216 103.823 202.097 106.056C197.978 108.29 195.817 107.865 194.103 107.295C192.403 106.73 187.235 104.654 179.151 108.348L214.658 79.7545L171.943 96.2852C171.966 93.7031 172.527 89.9911 175.344 88.6259C179.842 86.4416 184.223 85.6368 185.408 81.7259C186.593 77.8147 184.246 73.8769 189.921 71.8145C196.115 69.5677 198.923 66.7639 197.453 61.058C197.453 61.058 194.745 65.6565 189.808 66.3756C184.87 67.0941 181.452 67.646 179.304 71.8101C177.157 75.9746 175.126 76.8382 173.395 77.331C171.685 77.8147 166.332 78.9903 161.752 86.406C161.661 86.3606 161.697 86.3785 161.607 86.3334L178.246 43.3383L149.34 79.2389C149.304 79.2117 149.317 79.2211 149.281 79.1939C153.427 71.5256 151.777 66.2984 151.343 64.5709C150.904 62.8215 150.642 60.6331 153.179 56.695C155.716 52.7566 154.49 49.5188 152.654 44.88C150.818 40.2412 153.45 35.5974 153.45 35.5974C147.771 37.1661 146.745 41.0004 147.88 47.489C148.924 53.4391 144.339 53.3669 141.536 56.342C138.737 59.317 140.225 63.5181 140.573 68.5049C140.795 71.6654 137.783 74.0211 135.545 75.3186L128.496 30L121.41 75.5494C121.261 75.5406 121.32 75.545 121.171 75.5316C120.895 66.8368 116.844 63.1513 115.605 61.8809C114.348 60.588 113.019 58.8293 113.236 54.1492C113.453 49.4691 110.763 47.2854 106.842 44.2019C102.922 41.118 102.868 35.7782 102.868 35.7782C98.7486 39.9921 99.7842 43.822 104.03 48.8591C107.923 53.4751 103.921 55.7226 102.999 59.7016C102.072 63.6807 105.472 66.5654 108.28 70.7024C110.021 73.2659 108.701 76.716 107.443 78.9678L78.7501 43.3339L95.3893 86.3287C95.2989 86.3738 95.3349 86.356 95.2445 86.401C90.6645 78.9857 85.3109 77.8147 83.6016 77.3263C81.8656 76.8335 79.8398 75.9702 77.6921 71.8058C75.5443 67.6413 72.1262 67.0897 67.1885 66.3709C62.2511 65.6518 59.5427 61.0536 59.5427 61.0536C58.0732 66.7596 60.8809 69.5633 67.0756 71.8101C72.75 73.8719 70.4034 77.8103 71.5881 81.7215C72.7728 85.6324 77.1543 86.4372 81.6527 88.6213C84.4695 89.9867 85.0305 93.6987 85.0533 96.2808L42.3383 79.7498L77.8456 108.344C69.7611 104.65 64.5933 106.726 62.893 107.291C61.1792 107.86 59.0184 108.285 54.8989 106.051C50.7801 103.818 47.6468 105.283 43.1568 107.467C38.6716 109.651 33.8423 107.372 33.8423 107.372C35.8363 112.915 39.7337 113.652 46.1185 112.029C51.9692 110.541 52.2446 115.117 55.4239 117.685C58.6022 120.254 62.676 118.454 67.6272 117.731C70.6479 117.288 73.1436 119.892 74.631 121.99C74.5497 122.18 74.5269 122.234 74.45 122.429L29 129.5L74.4409 136.568L71.0225 138.67C69.7161 139.475 68.7212 140.7 68.2056 142.142L67.5909 143.865C66.9308 145.714 65.5563 147.234 63.7616 148.021C61.2787 149.106 58.8279 149.092 55.9301 148.531C51.2006 147.609 47.3254 149.06 44.1696 151.19C41.9587 152.682 40.1274 156.869 38.4317 158.37C36.7358 159.871 32.7302 158.664 32.7302 158.664C35.3435 162.779 42.9214 163.009 44.7665 160.757C48.1033 156.679 53.3434 155.838 57.7702 157.258C61.8308 158.564 66.9896 156.344 69.8787 153.681C72.6186 151.167 72.3973 147.966 76.2497 145.696C79.6137 143.712 83.8276 143.757 83.8276 143.757C83.6832 145.705 82.8918 149.205 80.4095 151.769C77.43 154.843 42.3204 183.966 42.3204 183.966L80.6581 165.604C81.1602 177.374 83.4884 190.279 85.6183 195.388C86.5363 197.581 87.7976 199.633 89.3303 201.709C93.6396 207.542 99.1648 212.352 105.395 216.056L105.441 216.028C112.06 219.972 121.103 224.66 127.234 225.144C131.57 224.258 132.24 221.658 132.24 217.747C132.24 213.835 130.481 212.71 128.645 212.606C126.805 212.497 125.575 211.299 124.418 209.644C123.255 207.989 126.534 207.822 131.046 207.75C135.563 207.668 136.472 205.498 137.498 202.848C138.515 200.203 134.509 199.95 126.434 200.908C119.606 201.713 117.454 200.606 116.903 199.674C120.705 196.211 125.168 193.073 127.497 193.674C131.408 194.71 132.163 192.494 131.209 191.825C130.358 191.232 126.316 187.245 124.562 186.028C124.377 185.893 122.5 184.685 122.573 184.473C123.785 181.009 125.946 182.271 129.685 183.062C133.424 183.849 136.806 179.531 136.047 178.07C134.921 175.905 134.057 177.121 131.986 172.966C129.852 164.185 131.923 149.639 141.079 146.976C149.083 144.643 157.823 147.216 159.884 147.908C160.087 147.98 160.286 147.799 160.251 147.595L157.967 134.822L156.208 126.774C156.263 126.534 156.484 126.362 156.733 126.399C166.201 127.696 172.544 139.475 175.651 143.901C178.757 148.328 184.64 153.071 189.491 154.391C194.347 155.725 196.318 153.55 199.601 153.641C202.884 153.731 204.67 156.824 209.96 156.851C215.241 156.878 217.181 154.391 220.319 154.346C222.674 154.31 224.994 155.599 224.994 155.599C223.85 152.537 217.927 149.892 212.266 149.49L212.279 149.485ZM92.4048 171.975C93.4585 174.869 88.6615 176.673 86.6626 174.358C84.8722 172.269 85.3469 164.913 95.3349 166.034H95.3439C95.3439 166.034 91.0485 168.254 92.4048 171.975ZM109.216 171.193C99.3771 172.409 96.8229 165.952 96.8229 165.952V165.943C103.375 168.227 108.402 168.91 109.076 164.194C109.749 159.478 104.274 156.937 99.7573 156.177C95.4209 155.454 89.9181 153.844 89.9181 151.615C89.9181 149.386 92.9614 146.026 104.197 146.026C115.433 146.026 118.39 152.384 119.105 155.35C119.823 158.325 119.05 169.977 109.212 171.193H109.216Z" fill="#F7DF1E"/>
</svg>
