<svg width="256px" height="277px" viewBox="0 0 256 277" version="1.1" xmlns="http://www.w3.org/2000/svg" xmlns:xlink="http://www.w3.org/1999/xlink">
    <defs>
        <polygon id="path-v8_rwilevk-1" points="0 0 191 0 191 97 0 97"></polygon>
        <polygon id="path-v8_rwilevk-3" points="0 0 191 0 191 97 0 97"></polygon>
        <polygon id="path-v8_rwilevk-5" points="0 0 191 0 191 97 0 97"></polygon>
        <polygon id="path-v8_rwilevk-7" points="0 0 191 0 191 97 0 97"></polygon>
    </defs>
    <g id="Page-1" stroke="none" stroke-width="1" fill="none" fill-rule="evenodd">
        <g id="helm-light">
            <path d="M196,11 L60,11 C26.8629,11 0,37.8629 0,71 L0,207 C0,240.137 26.8629,267 60,267 L196,267 C229.137,267 256,240.137 256,207 L256,71 C256,37.8629 229.137,11 196,11 Z" id="Path" fill="#F4F2ED" fill-rule="nonzero"></path>
            <g id="helm" transform="translate(33, 0)">
                <path d="M0,115 L12.0345285,115 L12.0345285,131.376 L26.5737052,131.376 L26.5737052,115 L38.6082338,115 L38.6082338,161 L26.5737052,161 L26.5737052,143.458667 L12.0345285,143.458667 L12.0345285,161 L0,161 L0,115 Z M52.4143426,161 L52.4143426,115 L80.881806,115 L80.881806,124.997333 L64.4488712,124.997333 L64.4488712,132.48 L78.9880478,132.48 L78.9880478,142.661333 L64.4488712,142.661333 L64.4488712,151.125333 L80.881806,151.125333 L80.881806,161 L52.4143426,161 Z M94.0770249,161 L94.0770249,115 L106.111554,115 L106.111554,148.856 L122.605578,148.856 L122.605578,161 L94.0770249,161 Z M141.237716,115 L159.930943,132.050667 L178.563081,115 L184,115 L184,161 L171.904382,161 L171.904382,137.386667 L159.930943,148.365333 L147.896414,137.448 L147.896414,161 L135.800797,161 L135.800797,115 L141.237716,115 Z" id="Shape" fill="#0F1689" fill-rule="nonzero"></path>
                <g id="Group" transform="translate(95.5, 228.5) scale(-1, 1) rotate(-180) translate(-95.5, -228.5)translate(0, 180)">
                    <g id="Clipped">
                        <mask id="mask-v8_rwilevk-2" fill="white">
                            <use xlink:href="#path-v8_rwilevk-1"></use>
                        </mask>
                        <g id="Path"></g>
                        <g id="Group" mask="url(#mask-v8_rwilevk-2)" fill="#0F1689" fill-rule="nonzero">
                            <g transform="translate(24.4588, 32.6386)" id="Path">
                                <path d="M123.407934,58.0176608 C127.629987,58.0082979 131.072613,49.0010487 131.097386,37.8993996 C131.121893,26.7977504 127.719217,17.8056698 123.497163,17.8150182 C119.275108,17.8243811 115.832483,26.8316303 115.80771,37.9332794 C115.783203,49.0349286 119.185879,58.0270092 123.407934,58.0176608 Z" transform="translate(123.4525, 37.9163) rotate(35) translate(-123.4525, -37.9163)"></path>
                                <path d="M17.7473145,58.0176606 C21.9693686,58.0082977 25.4119943,49.0010486 25.4367672,37.8993994 C25.4612742,26.7977503 22.0585977,17.8056696 17.8365436,17.815018 C13.6144895,17.824381 10.1718639,26.8316301 10.147091,37.9332793 C10.122584,49.0349284 13.5252604,58.027009 17.7473145,58.0176606 Z" transform="translate(17.7919, 37.9163) scale(-1, 1) rotate(35) translate(-17.7919, -37.9163)"></path>
                                <path d="M70.5803669,40.1401492 C74.8089722,40.1401492 78.2369335,31.1544707 78.2369335,20.0700746 C78.2369335,8.98567847 74.8089722,0 70.5803669,0 C66.3517621,0 62.9238002,8.98567847 62.9238002,20.0700746 C62.9238002,31.1544707 66.3517621,40.1401492 70.5803669,40.1401492 L70.5803669,40.1401492 Z" transform="translate(70.5804, 20.0701) scale(-1, 1) translate(-70.5804, -20.0701)"></path>
                            </g>
                        </g>
                    </g>
                    <g id="Clipped">
                        <mask id="mask-v8_rwilevk-4" fill="white">
                            <use xlink:href="#path-v8_rwilevk-3"></use>
                        </mask>
                        <g id="Path"></g>
                        <path d="M153.302632,105.030492 C140.969706,84.6372238 118.620865,71.0105893 93.0978334,71.0105893 C68.2730837,71.0105893 46.4512159,83.9018047 33.9276316,103.372016 M35.2676728,181.747241 C47.9726134,200.091309 69.1363956,212.101499 93.0978334,212.101499 C117.10281,212.101499 138.299954,200.047624 150.997165,181.647183" id="Shape" stroke="#0F1689" stroke-width="20" mask="url(#mask-v8_rwilevk-4)"></path>
                    </g>
                </g>
                <g id="Group">
                    <g id="Clipped">
                        <mask id="mask-v8_rwilevk-6" fill="white">
                            <use xlink:href="#path-v8_rwilevk-5"></use>
                        </mask>
                        <g id="Path"></g>
                        <g id="Group" mask="url(#mask-v8_rwilevk-6)" fill="#0F1689" fill-rule="nonzero">
                            <g transform="translate(24.4588, 31.1463)" id="Path">
                                <path d="M123.407934,58.0176608 C127.629987,58.0082979 131.072613,49.0010487 131.097386,37.8993996 C131.121893,26.7977504 127.719217,17.8056698 123.497163,17.8150182 C119.275108,17.8243811 115.832483,26.8316303 115.80771,37.9332794 C115.783203,49.0349286 119.185879,58.0270092 123.407934,58.0176608 Z" transform="translate(123.4525, 37.9163) rotate(35) translate(-123.4525, -37.9163)"></path>
                                <path d="M17.7473145,58.0176606 C21.9693686,58.0082977 25.4119943,49.0010486 25.4367672,37.8993994 C25.4612742,26.7977503 22.0585977,17.8056696 17.8365436,17.815018 C13.6144895,17.824381 10.1718639,26.8316301 10.147091,37.9332793 C10.122584,49.0349284 13.5252604,58.027009 17.7473145,58.0176606 Z" transform="translate(17.7919, 37.9163) scale(-1, 1) rotate(35) translate(-17.7919, -37.9163)"></path>
                                <path d="M70.5803669,40.1401492 C74.8089722,40.1401492 78.2369335,31.1544707 78.2369335,20.0700746 C78.2369335,8.98567847 74.8089722,0 70.5803669,0 C66.3517621,0 62.9238002,8.98567847 62.9238002,20.0700746 C62.9238002,31.1544707 66.3517621,40.1401492 70.5803669,40.1401492 L70.5803669,40.1401492 Z" transform="translate(70.5804, 20.0701) scale(-1, 1) translate(-70.5804, -20.0701)"></path>
                            </g>
                        </g>
                    </g>
                    <g id="Clipped">
                        <mask id="mask-v8_rwilevk-8" fill="white">
                            <use xlink:href="#path-v8_rwilevk-7"></use>
                        </mask>
                        <g id="Path"></g>
                        <path d="M153.302632,103.538184 C140.969706,83.1449164 118.620865,69.5182819 93.0978334,69.5182819 C68.2730837,69.5182819 46.4512159,82.4094966 33.9276316,101.879708 M35.2676728,180.254933 C47.9726134,198.599002 69.1363956,210.609191 93.0978334,210.609191 C117.10281,210.609191 138.299954,198.555317 150.997165,180.154876" id="Shape" stroke="#0F1689" stroke-width="20" mask="url(#mask-v8_rwilevk-8)"></path>
                    </g>
                </g>
            </g>
        </g>
    </g>
</svg>
