<svg width="256" height="256" viewBox="0 0 256 256" fill="none" xmlns="http://www.w3.org/2000/svg">
<path d="M196 0H60C26.8629 0 0 26.8629 0 60V196C0 229.137 26.8629 256 60 256H196C229.137 256 256 229.137 256 196V60C256 26.8629 229.137 0 196 0Z" fill="#F4F2ED"/>
<path d="M127.665 33L45.165 80.6651L45 175.665L127.335 223L209.835 175.335L210 80.3349L127.665 33ZM165.862 168.691L158.272 173.106L150.6 168.567V135.841H104.4V168.691L96.81 173.106L89.1375 168.567V87.268L96.7687 82.8936L104.4 87.3506V120.159H150.6V87.3093L158.231 82.9348L165.862 87.3918V168.691Z" fill="#0E83CD"/>
</svg>
