<svg width="256" height="256" viewBox="0 0 256 256" fill="none" xmlns="http://www.w3.org/2000/svg">
<path d="M196 0H60C26.8629 0 0 26.8629 0 60V196C0 229.137 26.8629 256 60 256H196C229.137 256 256 229.137 256 196V60C256 26.8629 229.137 0 196 0Z" fill="#F4F2ED"/>
<path fill-rule="evenodd" clip-rule="evenodd" d="M58.1992 33V89.9623C58.1992 97.7257 59.4976 105.252 61.8424 112.222C62.5909 114.359 63.3852 116.382 64.2865 118.405C69.3291 129.476 77.1288 139.07 86.9399 146.268C99.0602 155.125 113.689 159.893 128.703 159.879H154.793C157.833 159.879 160.781 159.589 163.623 158.993C161.797 151.093 157.353 144.042 151.013 138.984C144.672 133.926 136.808 131.158 128.695 131.131H128.497C121.326 131.091 114.284 129.217 108.043 125.688C103.109 122.881 98.8058 119.091 95.3989 114.553C91.9921 110.014 89.5548 104.825 88.2383 99.3059C87.7847 97.5232 87.4857 95.7047 87.3447 93.8707C87.1977 92.5732 87.1289 91.268 87.1385 89.9623V33H58.1992Z" fill="url(#paint0_linear_406_1317)"/>
<path fill-rule="evenodd" clip-rule="evenodd" d="M86.9393 152.802V223.841H58V115.665C58.9165 119.138 60.4517 123.031 61.246 124.55C67.2387 136.018 76.0878 145.749 86.9393 152.802Z" fill="#1E8CFE"/>
<path fill-rule="evenodd" clip-rule="evenodd" d="M102.405 96.9854C99.3579 96.9854 96.4174 97.2907 93.5762 97.8785C97.1659 113.711 111.487 125.589 128.496 125.688H128.694C135.881 125.734 142.938 127.607 149.202 131.131C154.13 133.949 158.427 137.749 161.826 142.295C165.224 146.841 167.653 152.036 168.96 157.558C169.411 159.284 169.709 161.123 169.862 162.955C170.014 164.238 170.053 165.574 170.053 166.91V223.841H199V166.91C199 159.139 197.701 151.619 195.303 144.589C194.612 142.496 193.796 140.446 192.859 138.451C187.865 127.363 180.075 117.762 170.251 110.589C168.492 109.285 166.662 108.082 164.767 106.985C153.803 100.438 141.268 96.9823 128.496 96.9854H102.405Z" fill="url(#paint1_linear_406_1317)"/>
<path fill-rule="evenodd" clip-rule="evenodd" d="M170.061 104.039V33H198.992V141.176C198.176 138.125 197.092 135.152 195.754 132.291C189.761 120.823 180.912 111.093 170.061 104.039Z" fill="#1E8CFE"/>
<defs>
<linearGradient id="paint0_linear_406_1317" x1="58.0938" y1="6376.94" x2="10600.2" y2="6376.94" gradientUnits="userSpaceOnUse">
<stop stop-color="#0417FF"/>
<stop offset="1" stop-color="#1D8CFD"/>
</linearGradient>
<linearGradient id="paint1_linear_406_1317" x1="10636" y1="6439.78" x2="93.5762" y2="6439.78" gradientUnits="userSpaceOnUse">
<stop stop-color="#0417FF"/>
<stop offset="1" stop-color="#1D8CFD"/>
</linearGradient>
</defs>
</svg>
