<svg width="256" height="256" viewBox="0 0 256 256" fill="none" xmlns="http://www.w3.org/2000/svg">
<g clip-path="url(#clip0_169_1111)">
<path d="M196 0H60C26.8629 0 0 26.8629 0 60V196C0 229.137 26.8629 256 60 256H196C229.137 256 256 229.137 256 196V60C256 26.8629 229.137 0 196 0Z" fill="#FDEE21"/>
<path fill-rule="evenodd" clip-rule="evenodd" d="M147.746 190.017V237.372H157.405V215.608L159.397 215.653V237.372H169.165V190.017H159.397V207.587H157.405V190.017H147.746Z" fill="black"/>
<path fill-rule="evenodd" clip-rule="evenodd" d="M181.185 190.017H171.777V237.372H181.185V190.017Z" fill="black"/>
<path fill-rule="evenodd" clip-rule="evenodd" d="M182.727 190.017L190.159 237.372H201.376L208.807 190.017H198.822L196.359 210.279C196.155 211.055 195.461 211.055 195.338 210.279L192.878 190.016L182.727 190.017Z" fill="black"/>
<path fill-rule="evenodd" clip-rule="evenodd" d="M229.475 190.017H210.801V237.372H229.475V224.955L219.092 224.848V219.525H224.039V207.197H219.092V202.434H229.475V190.017Z" fill="black"/>
<path fill-rule="evenodd" clip-rule="evenodd" d="M128.637 46.4064C127.064 41.2216 72.9611 15.9035 72.2695 18.6832C62.3347 21.8005 58.2914 35.5838 51.4574 44.3143L36.2813 43.268C29.596 53.6162 26.088 64.1891 28.4766 75.1779C37.0451 89.1515 46.9917 101.042 53.1913 118.594C53.6813 126.867 82.9385 119.461 89.2094 117.824C80.6431 125.205 73.183 136.646 76.3888 169.597C79.3154 185.071 81.3173 202.347 107.275 219.847C110.692 222.151 117.762 224.809 122.134 226.747C126.314 229.056 131.204 230.004 144.996 224.927C152.977 220.786 161.594 218.291 169.405 214.161L160.017 214.691C147.09 215.03 137.11 216.19 134.031 211.843L122.134 187.12L129.07 170.903C138.67 172.089 141.856 181.459 150.317 185.027L160.289 176.135C189.256 196.716 200.779 163.091 204.082 136.902C203.73 126.247 184.916 140.245 186.056 135.262C186.498 123.809 178.742 108.823 173.731 97.1475L179.53 70.134C182.162 67.3125 167.347 37.2638 155.25 33.5167C144.636 30.2285 128.637 46.4064 128.637 46.4064Z" fill="#FDEE21"/>
<path fill-rule="evenodd" clip-rule="evenodd" d="M176.224 103.816C176.328 106.717 176.316 110.247 176.549 112.448C176.509 114.127 175.464 114.188 174.598 114.54L180.235 117.025C181.354 119.291 182.253 121.558 183.161 123.825C184.215 129.401 183.429 129.561 182.728 129.972C180.682 129.997 178.643 130.001 176.739 129.514C177.592 130.055 177.779 130.451 177.869 131.145C178.036 132.424 177.351 134.172 176.224 135.857C177.891 136.97 180.93 138.059 183.189 139.093L185.763 132.195C184.597 122.061 181.062 112.721 176.224 103.816Z" fill="#C8C037"/>
<path fill-rule="evenodd" clip-rule="evenodd" d="M186.742 137.809C189.868 139.378 194.187 138.918 200.175 135.203C201.066 134.441 201.896 134.896 200.302 136.15C192.448 144.633 188.688 140.389 186.742 137.809Z" fill="#C8C037"/>
<path fill-rule="evenodd" clip-rule="evenodd" d="M200.774 134.091C201.703 136.232 201.141 137.973 200.828 139.78C199.859 148.976 197.478 156.247 192.807 163.843C177.614 193.246 162.275 174.849 150.044 162.875L144.986 178.132C144.717 179.47 143.601 180.512 151.501 184.699L159.549 177.855C190.243 205.966 211.993 138.508 200.773 134.092L200.774 134.091Z" fill="#C8C037"/>
<path fill-rule="evenodd" clip-rule="evenodd" d="M153.747 160.365C151.676 160.543 145.512 163.065 145.238 164.526L148.074 159.44L153.747 160.365Z" fill="#C8C037"/>
<path fill-rule="evenodd" clip-rule="evenodd" d="M149.719 129.187C150.099 129.187 151.92 129.775 151.725 129.644C151.445 129.457 151.694 132.718 152.267 134.418L150.044 140.238C154.301 134.328 161.032 134.722 167.28 133.96L164.299 131.737C164.817 129.658 164.207 128.013 163.92 126.245L149.719 129.187Z" fill="#C8C037"/>
<path fill-rule="evenodd" clip-rule="evenodd" d="M160.178 111.664C155.611 113.349 151.24 116.103 148.305 121.971C150.544 112.298 151.001 112.665 151.723 112.187C154.855 110.501 157.419 111.552 160.178 111.664Z" fill="#C8C037"/>
<path fill-rule="evenodd" clip-rule="evenodd" d="M135.791 225.046C130.268 232.382 117.946 224.492 107.713 220.469C81.7121 200.567 76.6325 181.831 76.2796 163.451C74.9427 137.123 81.6591 121.825 90.1545 118.203C84.5321 131.249 81.9108 154.668 84.5178 172.083C86.622 181.771 86.6657 198.112 100.133 206.859C106.727 211.327 104.941 214.807 109.4 218.992C114.288 223.579 127.913 227.939 135.79 225.047L135.791 225.046Z" fill="#FCF6A0"/>
<path fill-rule="evenodd" clip-rule="evenodd" d="M144.042 103.371C134.692 87.4129 121.543 81.4222 106.714 80.7676C109.686 79.6015 112.658 78.9944 115.63 77.2694C116.358 76.349 116.119 74.7294 115.847 73.0847C101.573 68.5984 92.5638 63.0538 81.1602 57.9141L111.946 66.8068C132.736 67.7577 130.95 73.9358 144.043 103.372L144.042 103.371Z" fill="#FCF6A0"/>
<path fill-rule="evenodd" clip-rule="evenodd" d="M154.052 95.6758C147.142 83.8033 140.442 69.3941 131.345 60.2299C109.387 48.2998 87.6641 39.4397 62.207 31.3772L70.3317 18.8008C97.3454 26.2232 122.719 38.6436 145.447 59.1186C149.292 70.8217 151.856 82.5404 154.051 95.6744L154.052 95.6758Z" fill="#FCF6A0"/>
<path fill-rule="evenodd" clip-rule="evenodd" d="M167.983 74.6955C167.983 74.6955 164.109 64.2351 162.223 60.2406C157.848 54.4047 155.636 43.5295 146.676 38.4053C149.509 39.3265 151.449 38.2289 157.234 44.5423L166.347 65.3491L167.983 74.6955Z" fill="#FCF6A0"/>
<path fill-rule="evenodd" clip-rule="evenodd" d="M172.799 92.818C173.694 83.755 175.389 69.2176 173.443 63.4741C168.027 54.7264 162.572 45.6845 157.115 37.2905C156.211 36.2781 155.56 34.9041 154.848 33.832C162.521 36.2248 170.528 42.6461 181.325 67.9962L172.799 92.818Z" fill="#FCF6A0"/>
<path fill-rule="evenodd" clip-rule="evenodd" d="M140.544 93.8885C137.488 90.9934 134.764 80.7537 130.133 78.6248C125.847 78.1931 124.275 76.5699 118.639 77.9523C120.683 76.7193 122.613 75.1417 124.786 74.2972C126.258 73.879 127.639 74.3423 129.043 74.5755C129.39 74.3782 129.618 74.1328 129.532 73.7619C123.859 69.5416 112.22 69.4814 104.363 67.0723C113.482 67.4397 123.571 66.8312 130.424 69.4765C135.934 75.3632 137.725 86.4491 140.544 93.8885Z" fill="black"/>
<path fill-rule="evenodd" clip-rule="evenodd" d="M157.254 44.5088C158.519 44.6471 165.327 57.6099 165.647 59.7669C166.214 64.482 167.61 69.7679 167.985 74.7013C166.864 69.9697 165.641 65.2383 164.114 60.5067C163.668 59.2037 162.538 56.2581 159.4 52.0918C157.939 49.1551 157.624 46.8467 157.254 44.5088Z" fill="black"/>
<path fill-rule="evenodd" clip-rule="evenodd" d="M180.323 115.112H177.41L180.629 116.129L180.323 115.112Z" fill="black"/>
<path fill-rule="evenodd" clip-rule="evenodd" d="M160.446 111.611C157.518 111.178 154.512 111.12 151.584 111.895C150.389 113.825 150.307 115.789 149.785 117.602C153.346 112.879 154.759 112.59 160.446 111.611Z" fill="black"/>
<path fill-rule="evenodd" clip-rule="evenodd" d="M200.395 135.989C198.765 137.555 198.602 139.028 193.782 140.795C190.268 141.795 188.282 140.1 186.629 137.82C189.137 138.685 189.537 140.966 196.262 138.409L200.395 135.989Z" fill="black"/>
<path fill-rule="evenodd" clip-rule="evenodd" d="M185.789 136.969C184.615 140.852 183.351 144.776 182.076 148.412C179.04 152.698 180.334 150.256 175.789 156.913C177.243 154.212 179.134 151.617 180.125 148.805C180.82 146.952 181.686 144.988 182.069 143.342C180.864 142.618 178.397 142.561 178.063 142.821C174.022 145.689 173.293 148.725 170.911 151.682C172.637 148.359 174.112 144.733 176.114 141.742C176.342 141.355 177.824 141.28 178.735 141.051C177.319 140.758 174.699 140.145 174.488 140.174C171.852 140.936 170.375 143.699 168.418 145.536C169.844 143.055 171.158 140.474 172.97 138.343C173.15 138.092 178.047 138.609 180.585 139.828L180.635 141.042L182.076 141.742L183.159 138.473L185.789 136.969Z" fill="black"/>
<path fill-rule="evenodd" clip-rule="evenodd" d="M153.815 160.378C153.164 160.111 147.419 159.222 147.419 159.43C145.213 161.32 144.879 163.128 144.926 164.694C148.596 160.349 148.459 160.336 153.815 160.378Z" fill="black"/>
<path fill-rule="evenodd" clip-rule="evenodd" d="M149.449 129.123C149.449 129.123 153.595 128.396 153.514 128.861C153.214 130.593 154.022 134.812 154.11 134.223L151.779 136.512C156.66 133.558 161.798 134.151 167.009 133.701C167.009 133.701 162.622 132.242 162.89 132.196C163.869 132.029 162.63 126.688 162.294 126.573C163.128 126.232 163.944 125.977 164.788 125.723C158.513 123.746 154.886 124.911 149.449 129.123Z" fill="black"/>
<path fill-rule="evenodd" clip-rule="evenodd" d="M185.328 132.848L184.406 133.404C184.276 130.156 181.377 130.394 178.932 130.364L176.927 129.775C177.537 130.454 179.421 130.402 178.661 131.868C178.021 132.279 177.727 134.046 177.36 135.53L176.277 135.595C178.192 136.496 179.968 137.285 182.076 138.341L183.322 138.57L186.303 136.641L185.328 132.848Z" fill="black"/>
<path fill-rule="evenodd" clip-rule="evenodd" d="M157.849 130.658C157.382 129.547 155.035 129.705 154.528 130.423C154.117 131.007 154.503 134.755 155.03 134.123C155.793 133.317 156.788 132.979 157.984 133.044C158.135 132.351 158.082 131.604 157.849 130.658Z" fill="white"/>
<path fill-rule="evenodd" clip-rule="evenodd" d="M180.363 136.243C180.584 136.048 181.051 134.169 180.9 133.607C180.592 132.28 178.408 132.56 178.408 132.56C177.876 132.937 177.409 135.005 177.604 135.687C177.696 136.266 180.013 136.45 180.363 136.243Z" fill="white"/>
<path fill-rule="evenodd" clip-rule="evenodd" d="M87.0156 201.078L88.3945 201.24C96.569 206.071 110.029 213.235 129.515 209.385L132.573 215.177C123.991 220.196 114.761 219.041 106.112 219.394L87.0156 201.078Z" fill="black"/>
<path fill-rule="evenodd" clip-rule="evenodd" d="M75.2812 162.885L79.3762 183.578C90.3392 191.827 109.067 201.275 124.677 200.513L121.227 190.985C88.6418 182.656 85.8859 172.126 75.282 162.883L75.2812 162.885Z" fill="black"/>
<path fill-rule="evenodd" clip-rule="evenodd" d="M85.4693 120.5C87.4707 136.534 90.1424 148.692 101.726 158.874C108.826 165.021 115.874 171.141 124.446 176.192C124.446 176.192 123.694 180.9 123.066 180.815C97.5557 177.405 78.8795 151.943 76.6172 140.314C78.8084 131.393 81.9523 125.821 85.4693 120.5Z" fill="black"/>
<path fill-rule="evenodd" clip-rule="evenodd" d="M97.7344 111.415C101.133 129.187 109.239 147.187 117.295 163.516C120.249 168.027 121.022 170.018 125.573 172.764C131.726 175.108 136.076 174.51 140.542 174.158C139.319 171.432 138.231 168.582 136.826 166.02C126.826 156.501 131.448 147.834 134.104 142.347C128.543 140.656 121.176 137.061 120.162 132.334C118.53 117.042 119.359 112.192 120.991 104.337C113.462 106.249 105.833 108.143 97.7344 111.415Z" fill="black"/>
<path fill-rule="evenodd" clip-rule="evenodd" d="M70.1114 17.0146C67.6366 18.9605 65.2525 21.743 62.6876 24.9055C58.4356 30.2034 55.609 35.3713 51.2809 39.2027C50.4154 40.1011 47.9862 41.5481 44.9322 41.7626C43.4936 41.8491 42.5565 42.1356 39.913 41.7361C37.5818 40.2166 35.3669 41.2048 33.2053 44.3169C30.8351 48.42 27.8332 56.2109 26.5849 61.1154C24.0123 73.6232 30.5713 83.9287 36.8612 91.8712C42.4567 98.4511 45.6828 102.563 47.9802 108.595C49.7197 112.507 51.0084 117.877 52.4036 121.641C52.9066 122.835 52.8021 122.829 54.1562 123.188C57.0801 123.939 61.1361 123.945 64.7469 124.319C66.3091 124.345 68.4546 124.275 70.4874 124.02C73.2886 123.383 76.5795 122.76 79.3377 121.611C82.0332 120.812 84.4347 119.706 86.5996 118.688C86.3203 119.828 84.258 120.925 83.4849 122.371C76.1469 135.015 74.137 146.266 75.4144 164.018C76.1371 171.886 77.6372 178.408 79.9008 185.871C80.9366 189.286 83.1407 194.695 85.2529 198.287C91.5341 208.97 105.586 222.69 125.147 227.97C128.56 228.531 132.433 228.232 136.075 227.065C145.73 223.542 165.407 215.21 165.407 215.21C165.407 215.21 147.941 216.95 139.942 215.997C138.09 215.649 136.049 215.53 134.759 214.012C134.542 213.675 133.756 211.769 134.264 211.753C134.956 211.729 136.945 210.736 140.015 210.406C133.461 209.557 133.554 209.567 133.076 208.13C132.332 205.899 131.193 202.85 130.021 200.182C132.901 200.474 139.277 200.905 141.441 198.216C141.441 198.216 137.667 198.741 134.333 198.27C133.21 198.112 131.296 197.289 130.72 197.036C129.223 196.334 127.991 196.115 127.703 195.658C127.184 194.066 126.832 193.53 126.204 191.397C125.354 188.571 125.286 185.42 125.125 182.536C127.306 185.772 130.086 188.497 133.766 189.888C133.813 189.768 138.539 192.361 141.971 191.028L142.683 190.752C142.683 190.828 140.409 190.992 139.575 190.494C132.595 186.923 131.543 183.796 130.417 182.244L127.402 176.809C128.319 174.608 128.837 174.525 130.052 174.505C133.726 174.996 135.325 175.374 137.561 174.725C139.071 178.467 139.48 182.231 142.918 184.955C154.376 189.048 156.866 183.739 159.64 179.047C167.885 186.33 181.306 188.576 190.626 179.174C202.476 162.67 206.227 136.652 205.176 135.166C203.697 132.144 201.755 129.027 200.088 129.458C194.145 131.411 191.955 135.039 186.066 134.211C186.767 134.164 187.946 134.141 187.956 134.06C188.409 128.058 187.919 125.154 187.7 124.656C185.913 119.913 183.567 114.921 181.931 111.18C181.51 110.404 180.272 104.509 178.197 102.181C177.306 101.266 175.129 98.8549 175.129 98.8549L174.944 101.418C174.944 101.418 175.796 101.573 176.12 103.161C177.348 109.181 183.604 123.415 184.063 124.098C186.28 128.406 184.289 133.773 185.974 136.784C186.136 137.166 189.413 136.75 191.953 136.938C196.129 135.856 195.952 133.641 199.561 133.308C201.991 133.084 202.234 138.578 202.202 139.004C201.75 145.07 200.217 152.123 197.871 158.564C192.992 169.877 187.53 180.037 179.781 181.454C170.331 183.442 165.42 178.469 160.297 175.302L158.338 177.314C151.68 185.295 143.774 184.585 140.541 174.158C138.931 170.113 136.834 167.634 135.038 164.164L125.514 172.422C124.721 174.379 123.745 177.465 122.561 180.913C121.738 183.309 121.048 187.426 121.092 190.847C119.872 193.35 125.321 203.503 128.765 209.679C129.781 211.502 131.678 214.684 131.741 214.883C132.424 217.015 133.92 218.897 134.011 219.127C140.403 229.163 125.946 226.852 122.96 226.246C117.07 225.116 111.308 222.154 105.892 218.194C105.578 217.964 105.264 217.731 104.953 217.494C98.5161 212.616 92.594 206.375 87.5587 200.202C84.5562 196.109 81.6973 187.721 79.5857 181.774C76.4211 167.476 71.8794 142.694 84.1822 123.914C84.9621 122.84 85.8036 121.053 86.5201 120.699C90.1754 117.723 94.1446 115.695 98.4129 114.569L97.982 111.238C95.8504 111.821 88.6729 114.981 86.6435 116.304C82.0284 117.914 78.2003 119.596 72.3186 121.369C70.4067 121.65 68.5258 121.656 66.6925 121.355C62.4613 120.664 55.2493 121.282 54.7893 120.767C51.9243 115.958 51.1399 107.341 48.5259 102.73L48.495 102.684L48.4619 102.64C46.9381 100.174 45.1618 98.1638 43.4125 96.0716C37.148 88.5797 31.7863 81.3359 30.2855 73.6599C29.9081 71.3935 28.9363 69.0458 29.4528 62.3397L29.4623 62.3069L29.4714 62.274C30.9785 56.0092 33.4304 50.9023 37.5918 45.7842C41.9223 45.8684 46.2088 45.9828 49.5477 46.7506C51.0794 47.0591 54.2649 47.56 57.5551 49.0352C65.8827 52.7694 76.886 58.9089 76.886 58.9089C68.6265 53.4488 59.3908 46.3572 53.5586 44.9261C52.6909 44.7783 52.1577 44.3018 51.9 43.47C60.6717 37.2663 62.2764 29.9622 68.0459 23.4115C70.6826 22.03 71.7107 21.3247 73.9511 21.0317C94.6714 24.9753 107.715 34.9093 118.033 41.5518C122.222 44.2931 126.028 46.3661 129.664 48.8628C132.852 50.1246 142.469 58.8653 145.285 63.5777C148.144 70.8449 150.232 78.6948 152.136 86.2698C153.501 93.974 154.699 97.0993 154.699 97.0993C154.699 97.0993 153.539 90.6552 153.732 89.4973C154.935 90.0385 157.78 91.1075 158.958 90.9414C158.958 90.9414 153.692 87.6642 153.002 84.7679C150.787 75.4744 148.566 61.0066 147.967 60.2523C146.279 57.6958 139.24 51.2119 134.923 48.2127C133.289 47.0782 132.407 46.3743 132.338 45.8755C133.717 44.1984 135.421 41.9798 136.948 40.5701C138.412 39.2188 139.745 37.6948 141.786 36.7829C150.754 31.9209 155.882 38.6534 157.099 37.2901C157.099 37.2901 155.169 34.628 156.027 35.0662C156.904 35.6385 159.765 36.3132 160.079 36.6647C163.347 39.7424 171.892 50.9914 177.043 62.8605C178.28 65.7679 178.783 67.6824 178.209 71.1832C177.634 74.6873 177.189 76.6141 176.561 78.9542C175.995 80.5187 172.788 91.2292 172.8 92.6682C172.155 98.5448 174.894 105.902 174.894 105.902C174.921 103.905 174.792 102.84 174.943 101.412L175.127 98.8605C175.127 98.8605 175.01 98.1818 175.031 97.9127C175.171 96.148 175.53 94.6641 175.635 93.6535C176.666 85.9787 178.455 80.4536 180.486 73.7188C181.089 72.0191 181.879 71.074 181.838 69.7799C181.872 67.4835 180.165 64.4011 178.931 61.3909C177.687 58.3485 176.2 54.9568 174.247 51.3821C169.796 43.6775 166.001 37.6493 159.053 33.8766C157.109 32.8497 149.459 31.8457 146.817 32.4423C143.612 33.2459 140.857 34.0385 138.66 35.7322C135.201 38.3974 132.485 42.524 129.298 44.9555C122.247 40.7118 118.844 37.5358 118.21 37.098C114.02 34.3955 108.99 31.2591 103.577 28.285C100.983 25.3722 84.8686 18.4056 70.1132 17.016L70.1114 17.0146ZM160.296 175.297C155.95 171.209 152.293 166.999 149.881 162.666C149.095 167.763 146.237 171.393 144.029 174.964C143.59 175.801 143.273 176.943 145.437 180.581C146.02 181.551 148.131 181.717 149.556 181.628C148.107 180.309 145.901 178.914 145.545 177.705C148.096 179.795 150.457 180.395 152.591 180.058C153.079 179.993 153.685 179.37 154.153 178.412C155.105 175.952 155.85 175.359 156.602 174.696L158.337 177.312L160.296 175.297Z" fill="black"/>
</g>
<defs>
<clipPath id="clip0_169_1111">
<rect width="256" height="256" fill="white"/>
</clipPath>
</defs>
</svg>
