<svg fill="none" height="256" viewBox="0 0 256 256" width="256" xmlns="http://www.w3.org/2000/svg" xmlns:xlink="http://www.w3.org/1999/xlink">
<g clip-path="url(#a)">
<path d="m196 0h-136c-33.1371 0-60 26.8629-60 60v136c0 33.137 26.8629 60 60 60h136c33.137 0 60-26.863 60-60v-136c0-33.1371-26.863-60-60-60z" fill="#fdee21"/>
<g clip-path="url(#b)">
<g clip-rule="evenodd" fill-rule="evenodd" mask="url(#c)">
<path d="m147.747 190.016v47.355h9.659v-21.764l1.992.045v21.719h9.768v-47.355h-9.768v17.57h-1.992v-17.57z" fill="#000" stroke="#fdee21" stroke-width="5.1286"/>
<path d="m181.187 190.016h-9.408v47.355h9.408z" fill="#000" stroke="#fdee21" stroke-width="5.1286"/>
<path d="m182.726 190.016 7.432 47.355h11.217l7.431-47.355h-9.985l-2.463 20.262c-.204.776-.898.776-1.021 0l-2.46-20.263z" fill="#000" stroke="#fdee21" stroke-width="5.1286"/>
<path d="m229.477 190.016h-18.674v47.355h18.674v-12.417l-10.383-.107v-5.323h4.947v-12.328h-4.947v-4.763h10.383z" fill="#000" stroke="#fdee21" stroke-width="5.1286"/>
<path d="m128.638 46.4059c-1.573-5.1848-55.6757-30.5029-56.3673-27.7232-9.9348 3.1173-13.9781 16.9006-20.8121 25.6311l-15.1761-1.0463c-6.6853 10.3482-10.1933 20.9211-7.8047 31.9099 8.5685 13.9736 18.5151 25.8646 24.7147 43.4166.49 8.273 29.7472.867 36.0181-.77-8.5663 7.381-16.0264 18.822-12.8206 51.773 2.9266 15.474 4.9285 32.75 30.886 50.25 3.417 2.304 10.487 4.962 14.859 6.9 4.18 2.309 9.07 3.257 22.862-1.82 7.981-4.141 16.598-6.636 24.409-10.766l-9.388.53c-12.927.339-22.907 1.499-25.986-2.848l-11.897-24.723 6.936-16.217c9.6 1.186 12.786 10.556 21.247 14.124l9.972-8.892c28.967 20.581 40.49-13.044 43.793-39.233-.352-10.655-19.166 3.343-18.026-1.64.442-11.453-7.314-26.439-12.325-38.115l5.799-27.0135c2.632-2.8215-12.183-32.8702-24.28-36.6173-10.614-3.2882-26.613 12.8897-26.613 12.8897z" fill="#fdee21"/>
<path d="m176.223 103.816c.104 2.901.092 6.431.325 8.632-.04 1.679-1.085 1.74-1.951 2.092l5.637 2.485c1.119 2.266 2.018 4.533 2.926 6.8 1.054 5.576.268 5.736-.433 6.147-2.046.025-4.085.029-5.989-.458.853.541 1.04.937 1.13 1.631.167 1.279-.518 3.027-1.645 4.712 1.667 1.113 4.706 2.202 6.965 3.236l2.574-6.898c-1.166-10.134-4.701-19.474-9.539-28.379z" fill="#c8c037"/>
<path d="m186.743 137.808c3.126 1.569 7.445 1.109 13.433-2.606.891-.762 1.721-.307.127.947-7.854 8.483-11.614 4.239-13.56 1.659z" fill="#c8c037"/>
<path d="m200.776 134.09c.929 2.141.367 3.882.054 5.689-.969 9.196-3.35 16.467-8.021 24.063-15.193 29.403-30.532 11.006-42.763-.968l-5.058 15.257c-.269 1.338-1.385 2.38 6.515 6.567l8.048-6.844c30.694 28.111 52.444-39.347 41.224-43.763z" fill="#c8c037"/>
<path d="m153.749 160.365c-2.071.178-8.235 2.7-8.509 4.161l2.836-5.086z" fill="#c8c037"/>
<path d="m149.721 129.187c.38 0 2.201.588 2.006.457-.28-.187-.031 3.074.542 4.774l-2.223 5.82c4.257-5.91 10.988-5.516 17.236-6.278l-2.981-2.223c.518-2.079-.092-3.724-.379-5.492z" fill="#c8c037"/>
<path d="m160.18 111.664c-4.567 1.685-8.938 4.439-11.873 10.307 2.239-9.673 2.696-9.306 3.418-9.784 3.132-1.686 5.696-.635 8.455-.523z" fill="#c8c037"/>
<path d="m135.793 225.046c-5.523 7.336-17.845-.554-28.078-4.577-26.0012-19.902-31.0808-38.638-31.4337-57.018-1.3369-26.328 5.3795-41.626 13.8749-45.248-5.6224 13.046-8.2437 36.465-5.6367 53.88 2.1042 9.688 2.1479 26.029 15.6155 34.776 6.594 4.468 4.808 7.948 9.267 12.133 4.888 4.587 18.513 8.947 26.39 6.055z" fill="#fcf6a0"/>
<path d="m144.042 103.371c-9.35-15.9581-22.499-21.9488-37.328-22.6034 2.972-1.1661 5.944-1.7732 8.916-3.4982.728-.9204.489-2.54.217-4.1847-14.274-4.4863-23.283-10.0309-34.6866-15.1706l30.7856 8.8927c20.79.9509 19.004 7.129 32.097 36.5652z" fill="#fcf6a0"/>
<path d="m154.052 95.6758c-6.91-11.8725-13.61-26.2817-22.707-35.4459-21.958-11.9301-43.6805-20.7902-69.1376-28.8527l8.1247-12.5764c27.0137 7.4224 52.3869 19.8428 75.1149 40.3178 3.845 11.7031 6.409 23.4218 8.604 36.5558z" fill="#fcf6a0"/>
<path d="m167.982 74.6955s-3.874-10.4604-5.76-14.4549c-4.375-5.8359-6.587-16.7111-15.547-21.8353 2.833.9212 4.773-.1764 10.558 6.137l9.113 20.8068z" fill="#fcf6a0"/>
<path d="m172.799 92.8175c.895-9.063 2.59-23.6004.644-29.3439-5.416-8.7477-10.871-17.7896-16.328-26.1836-.904-1.0124-1.555-2.3864-2.267-3.4585 7.673 2.3928 15.68 8.8141 26.477 34.1642z" fill="#fcf6a0"/><g fill="#000">
<path d="m140.544 93.8885c-3.056-2.8951-5.78-13.1348-10.411-15.2637-4.286-.4317-5.858-2.0549-11.494-.6725 2.044-1.233 3.974-2.8106 6.147-3.6551 1.472-.4182 2.853.0451 4.257.2783.347-.1973.575-.4427.489-.8136-5.673-4.2203-17.312-4.2805-25.169-6.6896 9.119.3674 19.208-.2411 26.061 2.4042 5.51 5.8867 7.301 16.9726 10.12 24.412z"/>
<path d="m157.253 44.5088c1.265.1383 8.073 13.1011 8.393 15.2581.567 4.7151 1.963 10.001 2.338 14.9344-1.121-4.7316-2.344-9.463-3.871-14.1946-.446-1.303-1.576-4.2486-4.714-8.4149-1.461-2.9367-1.776-5.2451-2.146-7.583z"/>
<path d="m180.324 115.112h-2.913l3.219 1.017z"/>
<path d="m160.449 111.61c-2.928-.433-5.934-.491-8.862.284-1.195 1.93-1.277 3.894-1.799 5.707 3.561-4.723 4.974-5.012 10.661-5.991z"/>
<path d="m200.397 135.989c-1.63 1.566-1.793 3.039-6.613 4.806-3.514 1-5.5-.695-7.153-2.975 2.508.865 2.908 3.146 9.633.589z"/>
<path d="m185.791 136.968c-1.174 3.883-2.438 7.807-3.713 11.443-3.036 4.286-1.742 1.844-6.287 8.501 1.454-2.701 3.345-5.296 4.336-8.108.695-1.853 1.561-3.817 1.944-5.463-1.205-.724-3.672-.781-4.006-.521-4.041 2.868-4.77 5.904-7.152 8.861 1.726-3.323 3.201-6.949 5.203-9.94.228-.387 1.71-.462 2.621-.691-1.416-.293-4.036-.906-4.247-.877-2.636.762-4.113 3.525-6.07 5.362 1.426-2.481 2.74-5.062 4.552-7.193.18-.251 5.077.266 7.615 1.485l.05 1.214 1.441.7 1.083-3.269z"/>
<path d="m153.814 160.377c-.651-.267-6.396-1.156-6.396-.948-2.206 1.89-2.54 3.698-2.493 5.264 3.67-4.345 3.533-4.358 8.889-4.316z"/>
<path d="m149.45 129.123s4.146-.727 4.065-.262c-.3 1.732.508 5.951.596 5.362l-2.331 2.289c4.881-2.954 10.019-2.361 15.23-2.811 0 0-4.387-1.459-4.119-1.505.979-.167-.26-5.508-.596-5.623.834-.341 1.65-.596 2.494-.85-6.275-1.977-9.902-.812-15.339 3.4z"/>
<path d="m185.33 132.848-.922.556c-.13-3.248-3.029-3.01-5.474-3.04l-2.005-.589c.61.679 2.494.627 1.734 2.093-.64.411-.934 2.178-1.301 3.662l-1.083.065c1.915.901 3.691 1.69 5.799 2.746l1.246.229 2.981-1.929z"/>
<path d="m157.851 130.658c-.467-1.111-2.814-.953-3.321-.235-.411.584-.025 4.332.502 3.7.763-.806 1.758-1.144 2.954-1.079.151-.693.098-1.44-.135-2.386z" fill="#fff"/>
<path d="m180.362 136.242c.221-.195.688-2.074.537-2.636-.308-1.327-2.492-1.047-2.492-1.047-.532.377-.999 2.445-.804 3.127.092.579 2.409.763 2.759.556z" fill="#fff"/>
<path d="m87.0178 201.078 1.3789.162c8.1745 4.831 21.6343 11.995 41.1203 8.145l3.058 5.792c-8.582 5.019-17.812 3.864-26.461 4.217z" fill="#000"/>
<path d="m75.2817 162.884 4.0949 20.693c10.963 8.249 29.6904 17.697 45.3004 16.935l-3.45-9.528c-32.5847-8.329-35.3407-18.859-45.9446-28.102z" fill="#000"/>
<path d="m85.4715 120.5c2.0014 16.034 4.6731 28.192 16.2565 38.374 7.1 6.147 14.148 12.267 22.72 17.318 0 0-.752 4.708-1.38 4.623-25.5101-3.41-44.1863-28.872-46.4486-40.501 2.1912-8.921 5.3351-14.493 8.8521-19.814z" fill="#000"/>
<path d="m97.734 111.414c3.399 17.772 11.505 35.772 19.561 52.101 2.954 4.511 3.727 6.502 8.278 9.248 6.153 2.344 10.503 1.746 14.969 1.394-1.223-2.726-2.311-5.576-3.716-8.138-10-9.519-5.378-18.186-2.722-23.673-5.561-1.691-12.928-5.286-13.942-10.013-1.632-15.292-.803-20.142.829-27.997-7.529 1.912-15.158 3.806-23.257 7.078z" fill="#000"/>
<path d="m70.1124 17.0142c-2.4748 1.9459-4.8589 4.7284-7.4238 7.8909-4.252 5.2979-7.0786 10.4658-11.4067 14.2972-.8655.8984-3.2947 2.3454-6.3487 2.5599-1.4386.0865-2.3757.373-5.0192-.0265-2.3312-1.5195-4.5461-.5313-6.7077 2.5808-2.3702 4.103-5.3721 11.894-6.6204 16.7985-2.5726 12.5078 3.9864 22.8133 10.2763 30.7558 5.5955 6.5799 8.8216 10.6922 11.119 16.7242 1.7395 3.912 3.0282 9.282 4.4234 13.046.503 1.194.3985 1.188 1.7526 1.547 2.9239.751 6.9799.757 10.5907 1.131 1.5622.026 3.7077-.044 5.7405-.299 2.8012-.637 6.0921-1.26 8.8503-2.409 2.6955-.799 5.097-1.905 7.2619-2.923-.2793 1.14-2.3416 2.237-3.1147 3.683-7.338 12.644-9.3479 23.895-8.0705 41.647.7227 7.868 2.2228 14.39 4.4864 21.853 1.0358 3.415 3.2399 8.824 5.3521 12.416 6.2812 10.683 20.3331 24.403 39.8941 29.683 3.413.561 7.286.262 10.928-.905 9.655-3.523 29.332-11.855 29.332-11.855s-17.466 1.74-25.465.787c-1.852-.348-3.893-.467-5.183-1.985-.217-.337-1.003-2.243-.495-2.259.692-.024 2.681-1.017 5.751-1.347-6.554-.849-6.461-.839-6.939-2.276-.744-2.231-1.883-5.28-3.055-7.948 2.88.292 9.256.723 11.42-1.966 0 0-3.774.525-7.108.054-1.123-.158-3.037-.981-3.613-1.234-1.497-.702-2.729-.921-3.017-1.378-.519-1.592-.871-2.128-1.499-4.261-.85-2.826-.918-5.977-1.079-8.861 2.181 3.236 4.961 5.961 8.641 7.352.047-.12 4.773 2.473 8.205 1.14l.712-.276c0 .076-2.274.24-3.108-.258-6.98-3.571-8.032-6.698-9.158-8.25l-3.015-5.435c.917-2.201 1.435-2.284 2.65-2.304 3.674.491 5.273.869 7.509.22 1.51 3.742 1.919 7.506 5.357 10.23 11.458 4.093 13.948-1.216 16.722-5.908 8.245 7.283 21.666 9.529 30.986.127 11.85-16.504 15.601-42.522 14.55-44.008-1.479-3.022-3.421-6.139-5.088-5.708-5.943 1.953-8.133 5.581-14.022 4.753.701-.047 1.88-.07 1.89-.151.453-6.002-.037-8.906-.256-9.404-1.787-4.743-4.133-9.735-5.769-13.476-.421-.776-1.659-6.671-3.734-8.999-.891-.915-3.068-3.3265-3.068-3.3265l-.185 2.5635s.852.155 1.176 1.743c1.228 6.02 7.484 20.254 7.943 20.937 2.217 4.308.226 9.675 1.911 12.686.162.382 3.439-.034 5.979.154 4.176-1.082 3.999-3.297 7.608-3.63 2.43-.224 2.673 5.27 2.641 5.696-.452 6.066-1.985 13.119-4.331 19.56-4.879 11.313-10.341 21.473-18.09 22.89-9.45 1.988-14.361-2.985-19.484-6.152l-1.959 2.012c-6.658 7.981-14.564 7.271-17.797-3.156-1.61-4.045-3.707-6.524-5.503-9.994l-9.524 8.258c-.793 1.957-1.769 5.043-2.953 8.491-.823 2.396-1.513 6.513-1.469 9.934-1.22 2.503 4.229 12.656 7.673 18.832 1.016 1.823 2.913 5.005 2.976 5.204.683 2.132 2.179 4.014 2.27 4.244 6.392 10.036-8.065 7.725-11.051 7.119-5.89-1.13-11.652-4.092-17.068-8.052-.314-.23-.628-.463-.939-.7-6.4369-4.878-12.359-11.119-17.3943-17.292-3.0025-4.093-5.8614-12.481-7.973-18.428-3.1646-14.298-7.7063-39.08 4.5965-57.86.7799-1.074 1.6214-2.861 2.3379-3.215 3.6553-2.976 7.6245-5.004 11.8928-6.13l-.4309-3.331c-2.1316.583-9.3091 3.743-11.3385 5.066-4.6151 1.61-8.4432 3.292-14.3249 5.065-1.9119.281-3.7928.287-5.6261-.014-4.2312-.691-11.4432-.073-11.9032-.588-2.865-4.809-3.6494-13.426-6.2634-18.037l-.0309-.046-.0331-.044c-1.5238-2.466-3.3001-4.4766-5.0494-6.5688-6.2645-7.4919-11.6262-14.7358-13.127-22.4118-.3774-2.2664-1.3492-4.614-.8327-11.3201l.0095-.0328.0091-.0329c1.5071-6.2648 3.959-11.3717 8.1204-16.4898 4.3305.0842 8.617.1986 11.9559.9664 1.5317.3085 4.7172.8094 8.0074 2.2846 8.3276 3.7342 19.3309 9.8736 19.3309 9.8736-8.2595-5.4601-17.4952-12.5516-23.3274-13.9827-.8677-.1478-1.4009-.6243-1.6586-1.4561 8.7717-6.2037 10.3764-13.5078 16.1459-20.0585 2.6367-1.3815 3.6648-2.0868 5.9052-2.3798 20.7203 3.9436 33.7639 13.8776 44.0819 20.5201 4.189 2.7413 7.995 4.8143 11.631 7.311 3.188 1.2618 12.805 10.0024 15.621 14.7148 2.859 7.2672 4.947 15.1171 6.851 22.6921 1.365 7.7042 2.563 10.8295 2.563 10.8295s-1.16-6.4441-.967-7.602c1.203.5412 4.048 1.6102 5.226 1.4441 0 0-5.266-3.2772-5.956-6.1735-2.215-9.2935-4.436-23.7612-5.035-24.5155-1.688-2.5565-8.727-9.0404-13.044-12.0396-1.634-1.1345-2.516-1.8384-2.585-2.3372 1.379-1.6771 3.083-3.8957 4.61-5.3054 1.464-1.3513 2.797-2.8753 4.838-3.7872 8.968-4.862 14.096 1.8705 15.313.5072 0 0-1.93-2.6621-1.072-2.2239.877.5723 3.738 1.247 4.052 1.5985 3.268 3.0777 11.813 14.3266 16.964 26.1958 1.237 2.9074 1.74 4.8218 1.166 8.3226-.575 3.5041-1.02 5.431-1.648 7.7711-.566 1.5645-3.773 12.2749-3.761 13.7139-.645 5.8766 2.094 13.2343 2.094 13.2343.027-1.997-.102-3.062.049-4.49l.184-2.5519s-.117-.6788-.096-.9479c.14-1.7647.499-3.2485.604-4.2592 1.031-7.6748 2.82-13.1998 4.851-19.9346.603-1.6997 1.393-2.6449 1.352-3.939.034-2.2964-1.673-5.3787-2.907-8.3889-1.244-3.0424-2.731-6.4341-4.684-10.0088-4.451-7.7046-8.246-13.7328-15.194-17.5055-1.944-1.0269-9.594-2.0309-12.236-1.4343-3.205.8036-5.96 1.5962-8.157 3.2899-3.459 2.6652-6.175 6.7918-9.362 9.2233-7.051-4.2437-10.454-7.4197-11.088-7.8575-4.19-2.7025-9.22-5.8389-14.633-8.813-2.594-2.9128-18.7084-9.8794-33.4638-11.269zm90.1846 158.2828c-4.346-4.088-8.003-8.298-10.415-12.631-.786 5.097-3.644 8.727-5.852 12.298-.439.837-.756 1.979 1.408 5.617.583.97 2.694 1.136 4.119 1.047-1.449-1.319-3.655-2.714-4.011-3.923 2.551 2.09 4.912 2.69 7.046 2.353.488-.065 1.094-.688 1.562-1.646.952-2.46 1.697-3.053 2.449-3.716l1.735 2.616z" fill="#000" stroke="#000" stroke-width=".11397"/>
</g>
</g>
</g>
</g>
</svg>