<!-- <svg xmlns="http://www.w3.org/2000/svg" width="256" height="256" fill="none" viewBox="0 0 256 256">
<rect width="256" height="256" fill="#E14E1D" rx="60"/>
<path fill="#fff" d="M48 38L56.6098 134.593H167.32L163.605 176.023L127.959 185.661L92.38 176.037L90.0012 149.435H57.9389L62.5236 200.716L127.951 218.888L193.461 200.716L202.244 102.655H85.8241L82.901 69.9448H205.041H205.139L208 38H48Z"/>
<path fill="#EBEBEB" d="M128 38H48L56.6098 134.593H128V102.655H85.8241L82.901 69.9448H128V38Z"/>
<path fill="#EBEBEB" d="M128 185.647L127.959 185.661L92.38 176.037L90.0012 149.435H57.9388L62.5236 200.716L127.951 218.888L128 218.874V185.647Z"/>
</svg>
 -->

<?xml version="1.0" encoding="UTF-8"?>
<svg version="1.1" xmlns="http://www.w3.org/2000/svg" width="288" height="288">
<path d="M0 0 C95.04 0 190.08 0 288 0 C288 95.04 288 190.08 288 288 C192.96 288 97.92 288 0 288 C0 192.96 0 97.92 0 0 Z " fill="#DC6E3C" transform="translate(0,0)"/>
<path d="M0 0 C5.61 0 11.22 0 17 0 C17.67096355 2.01289066 18.34170789 4.02585452 19.01171875 6.0390625 C19.74044855 8.22237154 20.47275262 10.40448836 21.20703125 12.5859375 C23.38747489 19.07493777 25.52627432 25.56503356 27.421875 32.14453125 C27.96600581 34.06609464 27.96600581 34.06609464 29 36 C32.66607325 25.20270332 36.30061547 14.43424182 39.2734375 3.421875 C40 1 40 1 41 0 C46.28 0 51.56 0 57 0 C57 26.4 57 52.8 57 80 C51.72 80 46.44 80 41 80 C40.67 67.79 40.34 55.58 40 43 C39.01 46.96 38.02 50.92 37 55 C34.2 64.8 34.2 64.8 33 66 C31.48071962 66.07179964 29.95832518 66.08392007 28.4375 66.0625 C27.19806641 66.04896484 27.19806641 66.04896484 25.93359375 66.03515625 C24.97646484 66.01775391 24.97646484 66.01775391 24 66 C23.18686324 63.0835095 22.3744665 60.16681631 21.5625 57.25 C21.33240234 56.425 21.10230469 55.6 20.86523438 54.75 C20.64287109 53.95078125 20.42050781 53.1515625 20.19140625 52.328125 C19.98717041 51.5949707 19.78293457 50.86181641 19.57250977 50.10644531 C19.02123659 48.07813616 18.50978312 46.03913249 18 44 C17.67 55.88 17.34 67.76 17 80 C11.39 80 5.78 80 0 80 C0 53.6 0 27.2 0 0 Z " fill="#FEFBF9" transform="translate(164,188)"/>
<path d="M0 0 C5.61 0 11.22 0 17 0 C17 10.56 17 21.12 17 32 C20.63 32 24.26 32 28 32 C28 21.44 28 10.88 28 0 C33.61 0 39.22 0 45 0 C45 26.4 45 52.8 45 80 C39.39 80 33.78 80 28 80 C28 69.11 28 58.22 28 47 C24.37 47 20.74 47 17 47 C17 57.89 17 68.78 17 80 C11.39 80 5.78 80 0 80 C0 53.6 0 27.2 0 0 Z " fill="#FDFAF8" transform="translate(69,188)"/>
<path d="M0 0 C14.19 0 28.38 0 43 0 C43 4.95 43 9.9 43 15 C38.71 15 34.42 15 30 15 C30 36.45 30 57.9 30 80 C24.39 80 18.78 80 13 80 C13 58.55 13 37.1 13 15 C8.71 15 4.42 15 0 15 C0 10.05 0 5.1 0 0 Z " fill="#FDF9F7" transform="translate(118,188)"/>
<path d="M0 0 C5.61 0 11.22 0 17 0 C17 21.45 17 42.9 17 65 C23.27 65 29.54 65 36 65 C36 69.95 36 74.9 36 80 C24.12 80 12.24 80 0 80 C0 53.6 0 27.2 0 0 Z " fill="#FDFAF8" transform="translate(229,188)"/>
<path d="M0 0 C2.13262124 3.19893186 2.59021548 5.22998243 3 9 C2.67 9.33 2.34 9.66 2 10 C1.84141158 12.14386657 1.74870702 14.29266838 1.68359375 16.44140625 C1.64169922 17.74658203 1.59980469 19.05175781 1.55664062 20.39648438 C1.51682392 21.7851533 1.47711175 23.17382522 1.4375 24.5625 C1.39432011 25.95509183 1.350706 27.34767028 1.30664062 28.74023438 C1.20014124 32.16004801 1.09813077 35.57993763 1 39 C0.67 39 0.34 39 0 39 C0 26.13 0 13.26 0 0 Z " fill="#E48F68" transform="translate(181,229)"/>
</svg>
