<svg width="256" height="256" viewBox="0 0 256 256" fill="none" xmlns="http://www.w3.org/2000/svg">
<path d="M196 0H60C26.8629 0 0 26.8629 0 60V196C0 229.137 26.8629 256 60 256H196C229.137 256 256 229.137 256 196V60C256 26.8629 229.137 0 196 0Z" fill="#242938"/>
<path d="M50.1869 198.274C50.1869 198.074 51.384 198.274 50.8743 198.274C50.1608 198.274 50.0249 198.16 50.2287 197.786C50.3646 197.499 51.35 195.088 52.4373 192.389C53.5246 189.719 56.5146 182.34 59.063 176.024C61.6113 169.708 64.5334 162.53 65.5188 160.09C70.6155 147.429 86.3812 108.498 88.1141 104.249C89.2354 101.579 91.8177 95.1764 93.9243 90.0373C99.8365 75.4526 101.807 70.5431 104.457 63.9972C105.851 60.6381 107.04 57.882 107.176 57.882C107.278 57.882 107.583 58.4275 107.787 59.0878C108.025 59.7481 108.433 60.4372 108.705 60.6094C108.977 60.753 109.928 62.7627 110.845 65.0595C111.763 67.3563 114.141 73.2419 116.146 78.1226C118.117 83.032 120.529 89.0037 121.514 91.3867C122.534 93.9706 123.728 96 124 96C124 96 124.704 97.0071 124.5 98.5C124.432 99.189 123.213 102.182 121.922 105.254C119.748 110.594 118.151 114.556 113.122 126.93C111.933 129.944 109.996 134.71 108.841 137.553C107.685 140.395 105.749 145.189 104.525 148.175C103.302 151.19 101.332 156.099 100.108 159.085C98.8851 162.1 96.9484 166.923 95.7591 169.851C94.5699 172.78 91.8856 179.354 89.813 184.494C87.7403 189.633 85.5997 194.887 85.0561 196.207C84.5464 197.528 84.068 199.471 84 199.5C83.932 199.557 76.8003 199.943 68 200C54.6807 200.115 50.1869 198.619 50.1869 198.274Z" fill="#0DB1F9"/>
<path d="M37.5211 178.694C29.8761 168.272 24.8134 155.956 22.6388 142.577C21.8913 137.782 21.7554 122.508 22.4689 117.455C25.0512 98.7652 30.7255 85.7308 41.1568 74.5625C44.7924 70.6867 51.7239 65.3179 56.8885 62.4468L57.67 61.9875L55.1217 51.537C53.7286 45.795 52.6753 41.0578 52.8112 41.0004C52.9131 40.9717 56.9565 42.5507 61.8153 44.5604C66.6402 46.5414 76.2559 50.5034 83.1874 53.3457C90.0849 56.188 95.7932 58.5423 95.8612 58.5997C95.9291 58.6571 89.7452 68.964 82.1001 81.5104C72.3485 97.588 68.1692 104.191 67.9993 103.876C67.7615 103.445 66.1645 97.0138 63.2424 84.9556C62.8347 83.1756 62.359 81.7113 62.2231 81.7113C62.1211 81.7113 60.8979 82.343 59.5048 83.1469C45.8797 90.956 37.1474 109.043 37.1474 129.485C37.1474 140.538 39.8996 150.415 45.8457 160.664L48.7678 165.688L44.5885 172.579C42.312 176.369 40.1714 179.843 39.8316 180.273L39.254 181.077L37.5211 178.694Z" fill="#0DB1F9"/>
<path d="M76.2217 214.898C76.2217 214.783 77.6488 211.165 79.4156 206.859L82.5755 198.992H109.554C124.402 198.992 142.445 199.05 149.682 199.136C160.011 199.222 162.933 199.193 163.273 198.906C163.749 198.504 163.783 198.619 156.41 180.474C152.604 171.143 149.274 162.875 147.745 159.085C147.303 157.994 145.163 152.683 142.988 147.314C138.673 136.691 132.693 121.934 127.053 107.981C125.082 103.1 123.451 98.8513 123.451 98.5642C123.451 98.2771 124.131 96.4109 124.946 94.4012C125.761 92.3915 127.528 88.0563 128.887 84.7259C132.795 75.0219 133.067 74.4477 133.305 74.8783C133.44 75.0793 137.042 83.8359 141.289 94.3438C145.537 104.852 151.619 119.838 154.779 127.648C157.939 135.457 162.458 146.568 164.768 152.338C167.113 158.109 170.069 165.401 171.36 168.559C172.651 171.718 174.622 176.627 175.777 179.469C179.888 189.633 182.233 195.403 186.106 204.993C188.281 210.333 190.014 214.754 189.98 214.811C189.776 214.955 76.2217 215.07 76.2217 214.898Z" fill="#06376D"/>
<path d="M142.139 199.968C133.271 199.825 116.18 199.739 104.152 199.796C92.1575 199.825 82.3379 199.796 82.3379 199.71C82.3379 199.566 82.5418 199.05 88.7937 183.632C90.9003 178.493 93.5506 171.919 94.7398 168.99C98.0357 160.865 104.627 144.529 107.821 136.691C108.977 133.849 110.879 129.112 112.103 126.126C116.622 114.958 118.762 109.675 120.937 104.306C122.16 101.292 123.315 98.3345 123.519 97.789C123.757 97.1573 123.961 96.9564 124.063 97.2148C124.165 97.4444 125.898 101.78 127.936 106.833C132.761 118.747 139.047 134.222 144.008 146.453C146.182 151.821 148.323 157.133 148.765 158.224C150.362 162.157 153.691 170.397 157.429 179.613C159.502 184.752 162.05 191.039 163.069 193.595C165.55 199.853 165.38 200.313 160.759 200.227C159.4 200.198 151.007 200.083 142.139 199.968Z" fill="#074D86"/>
<path d="M197.252 207.404C196.64 204.677 193.786 192.102 190.898 179.469C188.01 166.837 185.699 156.501 185.733 156.472C185.767 156.444 187.092 156.961 188.689 157.621C202.79 163.363 203.13 163.478 203.402 163.105C203.877 162.387 204.659 155.324 204.693 151.19C204.829 140.538 202.077 129.542 197.082 120.901C190.83 110.106 182.403 103.215 172.923 101.119C171.802 100.89 170.817 100.545 170.681 100.344C170.5 100.5 169.853 100.529 169.558 100.344C169.32 100.689 168.84 100.459 168.5 100C168.33 99.7703 168 100 167.555 100.028C167.079 100.43 165 100 164.055 100.086C163.749 99.6551 162 100.5 161.5 100C160.922 100.488 159.808 100.804 159.808 100.373C159.5 101 159.245 100.397 159 100.5C158.932 101.849 157.973 99.2819 156.07 90.9273C154.575 84.3814 154.134 81.8262 154.406 81.6826C155.629 81.051 160.997 80.5055 165.924 80.5055C173.229 80.5342 177.171 81.2807 182.913 83.721C196.606 89.5492 209.62 104.737 215.532 121.819C218.522 130.432 219.643 137.093 219.847 147.658C220.017 155.066 220.02 155.442 219.443 155.585C218.899 155.7 219.024 154.471 219.5 154.5C220.01 154.529 219.881 156.071 219.779 158.023C219.405 163.621 219.214 165.856 218.5 166C217.99 166.115 218.456 163.471 219 163.5C219.578 163.529 218.964 166.837 218.42 169.162C218.284 169.679 219.235 170.167 226.439 173.096C233.982 176.168 234.593 176.483 234.186 176.972C233.336 177.862 220.527 190.638 219.269 191.815C218.488 192.561 217.808 192.934 217.401 192.877C216.857 192.82 216.823 192.848 217.231 193.078C217.638 193.336 217.638 193.422 217.197 193.882C216.891 194.169 215.226 195.805 213.493 197.557C211.081 199.968 210.163 200.686 209.62 200.629C209.076 200.571 209.008 200.6 209.382 200.83C209.824 201.059 209.824 201.174 209.382 201.605C207.377 203.701 198.747 212.228 198.577 212.285C198.441 212.314 197.863 210.132 197.252 207.404Z" fill="#06376D"/>
</svg>
