<svg width="256" height="256" viewBox="0 0 256 256" fill="none" xmlns="http://www.w3.org/2000/svg">
<path d="M196 0H60C26.8629 0 0 26.8629 0 60V196C0 229.137 26.8629 256 60 256H196C229.137 256 256 229.137 256 196V60C256 26.8629 229.137 0 196 0Z" fill="#242938"/>
<path d="M133.769 136.981L129.923 118.019L97.231 133.188V152.151L129.923 161.632L133.769 136.981Z" fill="#ACDDF2"/>
<path d="M212.069 76.5547C219.642 84.898 223 95.2818 225.404 105.749C237.757 159.643 204.908 211.46 150.169 223.057C90.346 235.731 39.5264 194.538 31.8956 142.934C28.5148 121.715 32.3879 99.992 42.9075 81.1814C43.8767 79.418 44.5114 77.3093 46.7575 76.5205L75.0075 76.9832L65.3729 97.068V99.1349C72.3306 119.041 85.2998 135.402 97.6075 152.142C98.9306 159.249 97.9498 166.739 101.161 173.531C110.134 183.525 119.104 193.525 128.069 203.53C128.731 204.273 129.527 204.743 130.346 203.644C134.446 201.175 135.642 196.639 137.908 192.945C143.054 184.59 148.646 176.459 152.711 167.49L153.961 165.537C158.996 163.607 162.173 159.158 166.627 156.454C168.115 155.646 169.331 154.425 170.123 152.942C170.915 151.459 171.246 149.779 171.077 148.111C170.815 139.722 170.984 131.268 170.973 122.914C172.992 120.949 174.892 118.867 176.669 116.683C181.008 110.675 187.838 106.58 190.388 99.2373C190.838 99.2942 191.296 99.2184 191.704 99.0174C192.108 98.8164 192.442 98.5016 192.665 98.1147C194.465 95.4183 192.531 93.1618 191.746 90.7915C190.242 86.233 187.361 82.1258 187.065 77.1615L212.069 76.5547Z" fill="#287ABE"/>
<path d="M75.0186 76.9842L46.7686 76.5215C50.4916 66.9683 57.857 60.1306 65.4647 53.8427C78.557 43.0076 93.5763 35.5289 110.534 32.5101C140.026 27.3334 166.853 33.6327 190.595 51.753C199.442 58.4922 207.469 66.1264 212.092 76.5215L187.042 77.0601L166.545 76.8135V69.9985L181.234 69.9226L181.711 69.661L181.245 68.8987C178.772 66.5095 175.819 64.6549 172.572 63.4603C169.33 62.2619 165.869 61.7462 162.411 61.9509C142.211 62.4212 121.999 62.1405 101.799 62.095C94.7147 62.095 88.8186 65.0835 83.1378 68.7774C77.8993 69.0011 77.807 73.4118 76.4532 76.7794L75.0186 76.9842Z" fill="#B8E1F2"/>
<path d="M65.3721 99.1128C65.3721 98.4225 65.3721 97.7361 65.3721 97.0459C77.1798 93.5872 88.0221 87.8416 99.1336 82.7863C102.653 81.1821 107.503 81.3186 109.384 76.87C116.145 77.1507 123.045 75.7475 129.684 77.7461C129.737 93.4658 129.791 109.223 129.845 125.015H128.799C115.826 119.547 102.949 113.865 89.8644 108.689C81.7451 105.514 74.3105 100.436 65.3721 99.1128Z" fill="#B6E0F2"/>
<path d="M65.3721 99.1123C74.299 100.428 81.7336 105.491 89.899 108.722C102.984 113.899 115.861 119.58 128.83 125.049C127.795 129.843 122.98 130.988 119.949 133.806C113.037 140.253 104.772 145.156 98.1798 151.994C97.999 152.078 97.8067 152.123 97.6105 152.131C85.3105 135.391 72.3413 119.042 65.3721 99.1123Z" fill="#90D4F0"/>
<path d="M170.984 122.874C170.984 131.271 170.826 139.713 171.088 148.067C171.257 149.736 170.926 151.416 170.134 152.899C169.342 154.382 168.126 155.603 166.638 156.411C162.184 159.115 159.007 163.563 153.973 165.494C148.6 158.758 145.253 150.718 140.434 143.645C137.157 138.84 135.8 132.64 130.188 129.496C130.188 128.434 130.207 127.372 130.246 126.31L132.419 125.184C133.4 126.374 134.776 126.219 136.05 126.105C147.673 125.058 159.319 123.981 170.984 122.874Z" fill="#4D8AC8"/>
<path d="M101.162 173.544C97.9504 166.741 98.885 159.262 97.6196 152.143C97.8196 152.136 98.0119 152.09 98.1889 152.007C108.439 152.435 118.685 152.693 128.866 154.256C128.866 162.114 128.847 169.972 128.808 177.833C126.754 177.754 124.708 177.538 122.685 177.181C115.489 176.081 108.543 173.567 101.162 173.544Z" fill="#B6E0F2"/>
<path d="M128.8 177.823C128.8 169.961 128.815 162.103 128.854 154.241C131.211 146.091 129.219 137.718 130.142 129.541C135.765 132.685 137.134 138.893 140.388 143.691C145.219 150.775 148.554 158.769 153.931 165.539L152.677 167.492L129.777 177.88C129.45 177.891 129.123 177.872 128.8 177.823Z" fill="#58AFDD"/>
<path d="M166.488 76.8467L186.984 77.0932C187.28 82.0575 190.161 86.1685 191.665 90.7271C192.449 93.1049 194.384 95.35 192.588 98.0465C192.138 98.0086 191.692 98.0958 191.288 98.293C190.888 98.4902 190.549 98.7936 190.307 99.1691C186.038 99.9541 182.338 102.188 178.476 103.894C174.619 105.601 171.192 108.453 166.622 108.332C166.622 97.91 166.607 87.4959 166.569 77.0818L166.488 76.8467Z" fill="#4D8AC8"/>
<path d="M166.646 108.345C171.204 108.467 174.619 105.603 178.5 103.908C182.385 102.213 186.062 99.9677 190.331 99.1826C187.769 106.536 180.95 110.624 176.612 116.632C174.835 118.812 172.935 120.894 170.919 122.863C159.266 123.947 147.612 125.028 135.962 126.105C134.685 126.219 133.308 126.374 132.327 125.187C140.377 121.513 148.485 117.967 156.446 114.113C159.973 112.43 164.062 111.633 166.646 108.345Z" fill="#266FA8"/>
<path d="M128.8 177.824C129.135 177.858 129.473 177.858 129.812 177.824C129.992 186.418 130.173 195.023 130.346 203.647C129.527 204.769 128.742 204.265 128.069 203.533C119.089 193.555 110.119 183.569 101.162 173.58C108.531 173.58 115.477 176.117 122.673 177.217C124.696 177.555 126.746 177.759 128.8 177.824Z" fill="#90D4F0"/>
<path d="M109.431 76.8928C107.504 81.383 102.654 81.2048 99.181 82.809C88.0695 87.8643 77.2271 93.6099 65.4194 97.0686L75.0656 76.9838L76.4771 76.8018L109.431 76.8928Z" fill="#90D4F0"/>
<path d="M130.334 203.609C130.161 195.015 129.98 186.41 129.799 177.786L152.699 167.398C148.634 176.383 143.042 184.499 137.895 192.853C135.688 196.593 134.434 201.129 130.334 203.609Z" fill="#266FA8"/>
<path d="M190.342 99.2025C190.585 98.8271 190.923 98.5237 191.323 98.3265C191.727 98.1293 192.173 98.042 192.623 98.08C192.4 98.4668 192.061 98.7854 191.658 98.9826C191.25 99.1836 190.792 99.2594 190.342 99.2025Z" fill="#266FA8"/>
<path d="M83.1045 68.7991C88.7968 65.1053 94.6853 62.0599 101.766 62.1168C121.978 62.1168 142.189 62.4429 162.378 61.9727C165.839 61.7679 169.308 62.2798 172.554 63.4821C175.804 64.6805 178.758 66.535 181.235 68.9319V69.9634L166.431 70.043H90.2545C87.7968 70.043 85.3122 70.1909 83.1045 68.7991Z" fill="#F4FAFD"/>
<path d="M83.1034 68.7949C85.3111 70.1905 87.7957 70.0313 90.2534 70.0313H166.43V76.8463L166.523 77.0928L129.73 77.7793C123.034 75.792 116.192 77.1838 109.43 76.9032L76.4072 76.8236C77.7841 73.4331 77.8649 69.0225 83.1034 68.7949Z" fill="#E9F6FD"/>
<path d="M181.234 69.923C181.234 69.5779 181.234 69.2328 181.234 68.8877L181.699 69.65L181.234 69.923Z" fill="#E9F6FD"/>
<path d="M129.731 77.7799L166.593 77.1162C166.593 87.5379 166.612 97.952 166.647 108.366C164.062 111.654 159.985 112.451 156.493 114.146C148.52 117.999 140.424 121.545 132.374 125.216L130.201 126.342L129.893 125.072L129.731 77.7799Z" fill="#68C1EA"/>
</svg>
