<svg width="256" height="256" viewBox="0 0 256 256" fill="none" id="impala" xmlns="http://www.w3.org/2000/svg" xmlns:xlink="http://www.w3.org/1999/xlink">
<style>
#impala {
    rect {fill: #242938}
    
    @media (prefers-color-scheme: light) {
        rect {fill: #F4F2ED}
    }
}  
</style>
<rect width="256" height="256" fill="#242938" rx="60"/>
<path d="m166.343 17.885c2.028 1.5777 3.818 3.1213 5.716 4.7613 24.71 21.3534 32.135 46.93 24.945 72.9755-.457 1.6563-1.81 1.7277-3.729 2.9211-11.865 7.3811-23.287 15.0321-30.379 24.7471-2.981 4.083-4.495 8.669-5.945 13.125-.434 1.333 1.04 3.837 2.662 4.293 1.821.511 5.645-.187 7.131-1.229 7.562-5.297 14.843-10.776 21.834-16.393 4.77-3.832 8.902-7.994 13.769-11.867 1.316 8.474 1.089 16.802-4.933 24.397-2.534 4.836-5.799 5.408-9.874 8.323-4.635 2.241-9.977 5.651-13.259 8.497-5.129 5.3-4.856 9.582 2.83 13.295.483.19 3.015.973 3.836 1.09-1.739.751-3.269.995-7.252 1.742-.142 3.851-5.119 6.418-6.575 8.218-.688 1.725-.945 1.986-1.163 3.909-1.878 16.551-5.669 34.461-15.218 50.037-3.228 5.266-7.118 8.564-15.202 10.747-.967.261-5.496 1.776-6.078 1.856 1.989-2.038 2.366-5.047-.271-7.357-1.892-1.657-9.444-1.564-11.886-3.081.465-.068 3.706.09 4.167.099 3.851.086 7.494-.04 8.624-3.097.905-2.453-1.12-4.902-4.952-6.62-2.604-1.169-4.399-1.501-6.624-2.964-.538-.354-1.35-2.301-.787-3.585.077-.176.403-.241.613-.12 2.512 1.452 5.788 2.99 7.886 4.607 1.346.794 3.044 1.705 4.216 1.696 1.239-.01 1.952-.981 3.4-1.64 3.335-1.914 4.517-2.846 6.617-5.461.364-1.438-.427-3.879-1.125-5.651-2.919-7.411-3.842-15.122-.842-22.559 2.15-5.33 5.226-10.773 9.818-15.363 7.343-7.342 7.682-14.059-.011-21.089-13.15-12.017-11.637-24.162-.982-36.478 7.592-8.777 17.361-16.4165 28.177-23.5934 2.239-1.4854 3.699-1.6369 4.318-3.6706 7.919-23.5358 3.047-47.4053-14.389-68.3351-.772-.9026-7.289-6.7371-7.388-7.0669.205-.0888 8.1 5.9728 8.305 5.884zm-71.3071 127.274c-.4225-3.442-.4747-6.69-1.2704-9.861-3.1763-12.655-13.5808-22.839-26.864-31.992-1.0553-.727-2.0285-1.551-3.2795-2.105-6.6352-2.9354-8.6584-7.2524-9.518-12.1266-4.79-27.1634 5.9156-51.2565 33.9047-71.9808.1863-.1383 5.7281-4.8002 6.6316-5.0303-7.8486 8.8195-17.1896 17.4338-21.6193 32.1755-4.2885 14.2725-4.3342 28.4275.2965 42.6002.4728 1.447 2.1182 2.886 3.7582 3.9989 11.6256 7.8909 22.5715 16.1631 29.2413 26.2411 3.199 4.832 5.357 10.142 6.284 15.361 1.258 7.08-5.555 11.639-17.5651 12.719zm-11.8186 22.278c10.609-4.552 18.4767-3.137 22.9157 3.065 4.724 6.597 7.726 16.11 8.243 23.38-2.672-4.214-6.382-10.89-8.987-15.121-1.225-1.989-2.842-3.434-6.6355-3.39-3.5461.042-5.8834-1.297-6.651-3.438-.3528-.984-.7752-2.457-1.701-3.123-1.5428-1.11-4.0928-1.132-7.1842-1.373zm-3.7003-21.632c-13.8463-5.976-23.8629-13.632-25.7596-25.043 7.6207 2.108 21.4407 15.364 25.7596 25.043z" fill="#2c6791"/>
</svg>