<svg fill="none" height="256" viewBox="0 0 256 256" width="256" xmlns="http://www.w3.org/2000/svg" xmlns:xlink="http://www.w3.org/1999/xlink">
<g clip-path="url(#a)">
<path d="m196 0h-136c-33.1371 0-60 26.8629-60 60v136c0 33.137 26.8629 60 60 60h136c33.137 0 60-26.863 60-60v-136c0-33.1371-26.863-60-60-60z" fill="#242938"/>
<path d="m119.62 142.943 52.622 31.809 1.977-24.194-14.597-16.794-21.583-3.843z" fill="#ff4d00"/>
<path d="m128.483 33 43.758 141.75 43.759-47.25z" fill="#ff7d00"/>
<path d="m121.465 108.076-1.845 34.868 67.252-15.442z" fill="#001aff"/>
<path d="m41 127.5 46.7239 50.452 8.6988-12.595-1.5814-15.121-21.4509-15.015z" fill="#e23400"/>
<path d="m123.772 38.1235-82.772 89.3775 53.8413 22.735z" fill="#ff4d00"/>
<path d="m94.8413 150.235-7.1171 27.717 40.7598 44.048 38.354-41.38z" fill="#ff7d00"/>
</g>
</svg>
