<svg width="256" height="256" viewBox="0 0 256 256" fill="none" xmlns="http://www.w3.org/2000/svg">
<path d="M196 0H60C26.8629 0 0 26.8629 0 60V196C0 229.137 26.8629 256 60 256H196C229.137 256 256 229.137 256 196V60C256 26.8629 229.137 0 196 0Z" fill="#FF6B4A"/>
<path d="M41.343 73.8725V50.1658L215.657 50V73.7067L158.554 67.9044H137.516V106.366L173.08 117.141L221 128.58L213.82 151.79L167.57 134.217L137.349 125.099V188.096H158.721L215.824 182.293V206H41.51V182.293L98.6128 188.096H119.651V125.099L89.2626 134.383L43.1796 151.955L36 128.746L84.0866 117.307L119.484 106.531V68.0702H98.4459L41.343 73.8725Z" fill="black"/>
</svg>
