<svg width="256px" height="256px" viewBox="0 0 256 256" version="1.1" xmlns="http://www.w3.org/2000/svg" xmlns:xlink="http://www.w3.org/1999/xlink">
    <defs>
        <radialGradient cx="49.9997366%" cy="50%" fx="49.9997366%" fy="50%" r="50%" id="radialGradient-o0z6e9m0z0-1">
            <stop stop-color="#4000BF" offset="0%"></stop>
            <stop stop-color="#4000BF" offset="100%"></stop>
        </radialGradient>
    </defs>
    <g id="Page-1" stroke="none" stroke-width="1" fill="none" fill-rule="evenodd">
        <g id="insomnia">
            <path d="M196,0 L60,0 C26.8629,0 0,26.8629 0,60 L0,196 C0,229.137 26.8629,256 60,256 L196,256 C229.137,256 256,229.137 256,196 L256,60 C256,26.8629 229.137,0 196,0 Z" id="Path" fill="#4000BF" fill-rule="nonzero"></path>
            <g id="Group" transform="translate(16, 17)">
                <path d="M111.499303,217.330922 C169.9483,217.330922 217.330225,169.948997 217.330225,111.5 C217.330225,53.0517 169.9483,5.669775 111.499303,5.669775 C53.0508637,5.669775 5.66891784,53.0517 5.66891784,111.5 C5.66891784,169.948997 53.0508637,217.330922 111.499303,217.330922 Z" id="Path" fill="#FFFFFF" fill-rule="nonzero"></path>
                <path d="M111.5,0 C49.9202225,0 0,49.9202225 0,111.5 C0,173.080056 49.9202225,223 111.5,223 C173.080056,223 223,173.080056 223,111.5 C223,49.9202225 173.080056,0 111.5,0 Z M111.5,11.3389925 C166.817241,11.3389925 211.661147,56.18262 211.661147,111.5 C211.661147,166.817241 166.817241,211.661147 111.5,211.661147 C56.18262,211.661147 11.3389925,166.817241 11.3389925,111.5 C11.3389925,56.18262 56.18262,11.3389925 111.5,11.3389925 Z" id="Shape" fill="#4000BF" fill-rule="nonzero"></path>
                <path d="M112.75995,32.1275403 C156.596872,32.1275403 192.133316,67.663775 192.133316,111.500697 C192.133316,155.336922 156.596872,190.873366 112.75995,190.873366 C68.9238644,190.873366 33.3874206,155.336922 33.3874206,111.500697 C33.3874206,100.786941 35.5098928,90.5693594 39.3574094,81.2451719 C44.9752672,88.8954656 54.0349906,93.8620937 64.2545928,93.8620937 C81.3023156,93.8620937 95.1220437,80.0423656 95.1220437,62.9947125 C95.1220437,52.7751103 90.1554156,43.7154566 82.504425,38.0976684 C91.8293094,34.2500822 102.046891,32.1275403 112.75995,32.1275403 Z" id="Path" fill="url(#radialGradient-o0z6e9m0z0-1)"></path>
            </g>
        </g>
    </g>
</svg>
