<svg width="256" height="256" viewBox="0 0 256 256" fill="none" xmlns="http://www.w3.org/2000/svg" id="itchio">
<style>
#itchio {
    rect {fill: #242938}

    @media (prefers-color-scheme: light) {
        rect {fill: #F4F2ED}
    }
}
</style>
<rect width="256" height="256" rx="60" fill="#242938"/>
<path d="M54.0747 39.1132C45.3508 44.2954 28.163 64.05 28 69.2306V77.806C28 88.6761 38.156 98.23 47.3771 98.23C58.4493 98.23 67.6745 89.0495 67.6753 78.1534C67.6753 89.0495 76.5842 98.23 87.6572 98.23C98.731 98.23 107.354 89.0495 107.354 78.1534C107.354 89.0495 116.827 98.23 127.9 98.23H128.1C139.174 98.23 148.647 89.0495 148.647 78.1534C148.647 89.0495 157.271 98.23 168.343 98.23C179.416 98.23 188.325 89.0495 188.325 78.1534C188.325 89.0495 197.552 98.23 208.623 98.23C217.844 98.23 228 88.6777 228 77.806V69.2306C227.837 64.0492 210.649 44.2938 201.927 39.1132C174.812 38.1607 156.015 37.996 127.999 38.0001C99.9846 38.0025 61.7911 38.4404 54.0731 39.1132H54.0747ZM107.214 93.1105C106.155 94.957 104.843 96.6464 103.317 98.1297C99.1377 102.218 93.4084 104.753 87.0923 104.753C81.0145 104.759 75.1768 102.379 70.8329 98.1264C69.3185 96.6423 68.1676 95.0554 67.1137 93.2076L67.1088 93.2108C66.0557 95.0619 64.5885 96.648 63.0708 98.1338C58.7253 102.384 52.8883 104.761 46.8114 104.755C46.0501 104.755 45.2579 104.545 44.6172 104.325C43.7271 113.598 43.3514 122.461 43.2185 128.922L43.2169 128.959C43.2006 132.24 43.1843 134.939 43.168 138.687C43.3392 158.144 41.2419 201.75 51.7427 212.465C68.0152 216.261 97.9583 217.989 127.998 218H128.003C158.043 217.989 187.986 216.261 204.258 212.465C214.759 201.749 212.662 158.144 212.833 138.687C212.815 134.939 212.8 132.24 212.784 128.958L212.781 128.922C212.649 122.458 212.274 113.597 211.384 104.323C210.743 104.543 209.951 104.754 209.189 104.754C203.113 104.759 197.275 102.382 192.93 98.1322C191.412 96.6464 189.945 95.0611 188.891 93.2092L188.886 93.206C187.832 95.0538 186.682 96.6415 185.167 98.1248C180.823 102.377 174.986 104.756 168.908 104.75C162.593 104.75 156.863 102.214 152.683 98.1264C151.157 96.6431 149.846 94.9537 148.787 93.1073C147.74 94.9517 146.441 96.641 144.927 98.1264C140.582 102.379 134.744 104.757 128.666 104.751C128.446 104.751 128.226 104.741 128.006 104.735H128C127.78 104.741 127.56 104.751 127.337 104.751C121.259 104.757 115.421 102.379 111.076 98.1273C109.563 96.6418 108.263 94.9525 107.216 93.1081L107.214 93.1105ZM90.5157 114.712L90.5141 114.72H90.5263C97.1391 114.734 103.013 114.72 110.292 122.668C116.021 122.067 122.007 121.767 127.998 121.776H128.002C133.993 121.767 139.979 122.067 145.709 122.668C152.987 114.719 158.862 114.733 165.475 114.72H165.486L165.484 114.712C168.609 114.712 181.106 114.712 189.815 139.182L199.169 172.75C206.1 197.723 196.949 198.334 185.535 198.356C168.607 197.725 159.234 185.426 159.234 173.129C149.864 174.666 138.933 175.434 128.002 175.435H127.997C117.065 175.435 106.134 174.666 96.7642 173.129C96.7642 185.426 87.3906 197.725 70.4637 198.356C59.0492 198.334 49.899 197.724 56.8305 172.75L66.1869 139.182C74.8953 114.713 87.3931 114.713 90.5173 114.713L90.5157 114.712ZM127.998 133.942V133.947C127.981 133.964 110.177 150.322 106.976 156.14L118.635 155.673V165.845C118.635 166.321 123.314 166.127 127.998 165.91H128.002C132.684 166.127 137.364 166.321 137.364 165.845V155.673L149.023 156.14C145.821 150.322 128.002 133.947 128.002 133.947V133.942L127.999 133.944L127.998 133.942Z" fill="#FA5C5C"/>
</svg>
