<svg width="256" height="256" viewBox="0 0 256 256" fill="none" xmlns="http://www.w3.org/2000/svg">
<path d="M196 0H60C26.8629 0 0 26.8629 0 60V196C0 229.137 26.8629 256 60 256H196C229.137 256 256 229.137 256 196V60C256 26.8629 229.137 0 196 0Z" fill="#242938"/>
<path d="M109.217 166.317C110.172 168.147 111.445 169.699 112.997 169.699C113.316 169.699 113.634 169.62 113.992 169.5C115.584 168.864 115.663 166.078 115.266 163.412C112.957 164.168 110.968 165.282 109.217 166.317Z" fill="#67CFE3"/>
<path d="M188.168 175.35C188.168 175.31 188.168 175.27 188.168 175.27C187.491 170.415 185.422 168.227 183.591 166.317C181.88 164.526 180.288 162.815 180.806 159.711C181.283 156.845 183.552 155.055 187.292 154.617C185.024 139.296 181.721 119.956 177.423 103.48C175.274 95.2429 171.932 89.5124 167.395 85.7319C162.222 88.3982 156.014 91.3032 149.05 94.2878C144.036 96.4765 138.863 98.5857 133.928 100.536C129.949 104.794 125.611 108.972 122.985 110.206C121.075 111.041 119.403 111.4 117.931 111.4C114.747 111.4 112.638 109.808 111.604 108.415C110.41 108.733 109.455 108.932 108.778 109.012C107.982 109.092 106.868 109.211 105.436 109.29C105.993 110.723 105.754 112.434 104.719 113.708C103.565 115.101 101.695 115.817 99.0288 115.817C95.2086 115.817 89.7567 114.344 82.4744 111.4C81.4 110.962 80.4051 110.564 79.5297 110.246C78.9725 110.246 78.4154 110.246 77.8583 110.246C70.8943 110.246 65.4823 110.047 61.2243 109.688C56.5684 119.359 58.5979 130.063 60.3091 138.898C61.9406 147.374 67.6312 162.456 72.884 175.43C74.8339 180.245 76.7441 184.742 78.3358 188.522C92.5821 189.796 110.887 190.552 130.824 190.552C154.542 190.552 175.911 189.477 190.953 187.766C189.759 183.229 188.406 176.942 188.168 175.35ZM78.5746 148.09C73.7993 145.185 70.6158 139.972 70.6158 133.963C70.6158 124.85 78.0175 117.448 87.1303 117.448C90.2741 117.448 93.2188 118.324 95.7259 119.836C100.461 122.741 103.645 127.954 103.645 133.924C103.645 143.037 96.2432 150.438 87.1303 150.438C84.0264 150.478 81.0816 149.603 78.5746 148.09ZM136.117 161.7C134.406 162.456 131.939 162.775 127.999 162.815C127.999 163.173 128.039 163.491 128.039 163.73C128.198 165.998 127.681 167.789 126.447 169.102C125.333 170.296 123.741 170.933 121.95 170.933C121.154 170.933 120.319 170.813 119.682 170.575C118.966 170.296 118.369 169.858 117.812 169.142C117.294 170.614 116.379 171.649 115.066 172.206C114.389 172.485 113.713 172.644 112.997 172.644C110.569 172.644 108.46 170.973 106.749 167.829C106.51 167.948 106.271 168.107 106.072 168.227C104.879 168.863 103.446 169.182 101.934 169.182C99.0288 169.182 96.3228 168.068 94.6912 166.157C93.3382 164.605 92.7811 162.616 93.0597 160.546C93.9351 154.219 102.292 151.672 103.247 151.393L105.197 150.836L106.51 152.388C106.669 152.587 107.624 153.503 111.206 153.503C112.559 153.503 114.111 153.383 115.862 153.105C121.592 152.189 123.781 147.613 123.94 147.334L124.736 145.464H126.805C139.221 145.583 141.131 151.035 141.449 152.707C142.006 156.607 140.057 159.989 136.117 161.7ZM138.306 138.58C135.162 138.58 132.257 137.704 129.75 136.192C124.975 133.287 121.791 128.074 121.791 122.065C121.791 112.952 129.193 105.55 138.306 105.55C141.449 105.55 144.394 106.425 146.901 107.937C151.637 110.842 154.82 116.056 154.82 122.025C154.82 131.178 147.418 138.58 138.306 138.58Z" fill="#67CFE3"/>
<path d="M126.687 148.568C126.687 148.568 123.901 154.935 116.261 156.129C114.271 156.447 112.56 156.567 111.127 156.567C107.028 156.567 105.039 155.492 104.044 154.338C104.044 154.338 96.7216 156.447 96.0849 160.944C95.6074 164.327 98.9501 166.038 101.895 166.038C102.89 166.038 103.845 165.839 104.561 165.441C107.506 163.849 111.883 160.427 117.773 159.671C118.29 159.591 119.046 159.591 119.922 159.591C121.911 159.591 124.657 159.71 127.323 159.71C130.348 159.71 133.253 159.551 134.844 158.835C138.466 157.243 138.466 154.577 138.227 153.224C137.988 151.712 135.799 148.647 126.687 148.568Z" fill="#67CFE3"/>
<path d="M125.095 162.775C124.419 162.775 123.703 162.775 123.026 162.735C121.872 162.695 120.837 162.695 119.922 162.695C119.206 162.695 118.649 162.695 118.211 162.775C118.887 165.202 119.763 167.55 120.678 167.908C120.957 167.988 121.394 168.107 121.952 168.107C123.424 168.107 125.453 167.391 125.175 163.969C125.135 163.611 125.135 163.213 125.095 162.775Z" fill="#67CFE3"/>
<path d="M86.3734 205.952C83.548 206.589 75.231 211.126 68.0283 212.479C60.8256 213.832 54.6177 214.588 52.429 215.384C50.2403 216.18 48.569 217.811 52.8269 219.403C57.1247 221.035 77.8575 221.592 79.7278 219.403C81.5981 217.214 78.4544 216.259 73.9178 216.339C70.6945 216.379 71.0925 215.264 71.0925 215.145C71.0925 215.145 71.2914 213.712 76.2657 213.036C81.24 212.359 103.167 210.29 102.729 207.942C102.331 205.634 89.1988 205.316 86.3734 205.952Z" fill="white"/>
<path d="M72.3801 224.426C74.6994 223.922 76.4621 222.973 76.3172 222.307C76.1724 221.641 74.1748 221.511 71.8556 222.015C69.5364 222.52 67.7737 223.469 67.9185 224.135C68.0634 224.8 70.0609 224.931 72.3801 224.426Z" fill="white"/>
<path d="M62.274 223.848C64.7714 223.649 66.7536 222.955 66.7013 222.298C66.649 221.64 64.582 221.269 62.0845 221.468C59.5871 221.666 57.6049 222.36 57.6572 223.018C57.7096 223.675 59.7766 224.046 62.274 223.848Z" fill="white"/>
<path d="M54.3602 222.628C56.0153 222.402 57.2993 221.796 57.2281 221.273C57.1569 220.75 55.7574 220.509 54.1023 220.735C52.4472 220.96 51.1632 221.567 51.2344 222.089C51.3056 222.612 52.7051 222.853 54.3602 222.628Z" fill="white"/>
<path d="M48.4811 221.498C50.0905 221.264 51.3465 220.739 51.2865 220.326C51.2265 219.913 49.8732 219.767 48.2638 220.001C46.6543 220.235 45.3983 220.759 45.4583 221.173C45.5183 221.586 46.8716 221.731 48.4811 221.498Z" fill="white"/>
<path d="M47.1314 219.869C48.7409 219.635 49.9969 219.111 49.9369 218.697C49.8769 218.284 48.5236 218.139 46.9141 218.372C45.3047 218.606 44.0486 219.13 44.1086 219.544C44.1687 219.957 45.522 220.102 47.1314 219.869Z" fill="white"/>
<path d="M46.7968 217.916C48.1887 217.714 49.2736 217.251 49.2199 216.881C49.1662 216.511 47.9943 216.375 46.6024 216.577C45.2104 216.78 44.1256 217.243 44.1792 217.613C44.2329 217.983 45.4049 218.118 46.7968 217.916Z" fill="white"/>
<path d="M129.471 208.22C124.536 208.459 113.394 207.902 111.882 210.489C110.33 213.075 116.418 214.03 125.929 213.234C135.44 212.439 148.93 211.364 149.487 208.459C150.044 205.554 146.98 206.111 146.662 204.281C146.343 202.41 150.044 202.41 150.761 199.664C151.477 196.919 145.747 197.237 140.653 197.237C135.559 197.237 127.083 197.714 126.287 200.381C125.491 203.047 130.147 203.047 133.49 203.684C136.793 204.32 135.838 205.554 135.838 205.554C135.679 207.265 134.405 207.981 129.471 208.22Z" fill="white"/>
<path d="M116.301 216.697C118.653 216.697 120.559 216.073 120.559 215.304C120.559 214.535 118.653 213.911 116.301 213.911C113.949 213.911 112.043 214.535 112.043 215.304C112.043 216.073 113.949 216.697 116.301 216.697Z" fill="white"/>
<path d="M127.283 216.259C128.866 216.259 130.148 215.689 130.148 214.986C130.148 214.283 128.866 213.712 127.283 213.712C125.701 213.712 124.418 214.283 124.418 214.986C124.418 215.689 125.701 216.259 127.283 216.259Z" fill="white"/>
<path d="M136.157 215.145C137.871 215.145 139.261 214.682 139.261 214.11C139.261 213.539 137.871 213.076 136.157 213.076C134.442 213.076 133.053 213.539 133.053 214.11C133.053 214.682 134.442 215.145 136.157 215.145Z" fill="white"/>
<path d="M143.003 214.031C144.255 214.031 145.271 213.55 145.271 212.956C145.271 212.363 144.255 211.882 143.003 211.882C141.75 211.882 140.734 212.363 140.734 212.956C140.734 213.55 141.75 214.031 143.003 214.031Z" fill="white"/>
<path d="M148.931 212.757C150.206 212.757 151.239 212.276 151.239 211.683C151.239 211.089 150.206 210.608 148.931 210.608C147.656 210.608 146.623 211.089 146.623 211.683C146.623 212.276 147.656 212.757 148.931 212.757Z" fill="white"/>
<path d="M48.5312 181.916C48.5312 183.309 51.5158 184.582 56.8482 185.736C56.4503 182.99 56.6891 180.205 57.0472 178.016C51.5954 179.21 48.5312 180.523 48.5312 181.916Z" fill="white"/>
<path d="M205.877 178.375C205.798 178.613 205.718 178.812 205.599 179.051C204.962 180.603 204.007 181.956 202.813 183.07C200.386 185.339 198.277 186.731 196.406 187.209C206.832 185.737 213 183.906 213 181.956C213.04 180.643 210.493 179.449 205.877 178.375Z" fill="white"/>
<path d="M66.7161 193.019C70.5762 193.019 73.322 190.91 75.2321 188.164C73.0434 183.07 69.4619 174.554 66.0396 165.521C65.1244 166.316 64.0499 167.51 62.8959 169.301C60.0307 173.758 57.6431 184.145 60.6276 189.596C61.8612 191.905 63.851 193.019 66.7161 193.019Z" fill="#DFCAA3"/>
<path d="M203.371 167.312C201.102 161.422 196.287 157.283 191.631 157.164H191.472C191.472 157.164 190.557 157.044 189.363 157.044C186.856 157.044 183.752 157.602 183.314 160.148C183.036 161.939 183.792 162.854 185.463 164.566C187.334 166.555 189.92 169.261 190.716 174.912C191.592 181.399 193.183 184.702 195.412 184.702C196.446 184.702 198.357 184.065 201.5 181.081C205.36 177.419 205.002 171.57 203.371 167.312Z" fill="#DFCAA3"/>
<path d="M121.832 122.065C121.832 128.034 125.016 133.287 129.751 136.152C132.258 137.664 135.163 138.54 138.307 138.54C147.42 138.54 154.821 131.138 154.821 122.025C154.821 116.056 151.638 110.803 146.902 107.937C144.395 106.425 141.49 105.55 138.347 105.55C129.234 105.55 121.832 112.952 121.832 122.065ZM141.291 127.596C141.291 130.461 138.944 132.809 136.078 132.809C133.213 132.809 130.865 130.461 130.865 127.596C130.865 124.731 133.213 122.383 136.078 122.383C138.983 122.383 141.291 124.691 141.291 127.596Z" fill="white"/>
<path d="M70.6562 133.963C70.6562 139.932 73.8398 145.185 78.5753 148.05C81.0823 149.563 83.9873 150.438 87.131 150.438C96.2439 150.438 103.646 143.036 103.646 133.923C103.646 127.954 100.462 122.701 95.7266 119.836C93.2195 118.324 90.3146 117.448 87.1708 117.448C78.058 117.448 70.6562 124.85 70.6562 133.963ZM90.8717 139.773C90.8717 142.638 88.5238 144.986 85.6586 144.986C82.7935 144.986 80.4456 142.638 80.4456 139.773C80.4456 136.908 82.7935 134.56 85.6586 134.56C88.5636 134.56 90.8717 136.908 90.8717 139.773Z" fill="white"/>
<path d="M85.6974 144.986C88.5765 144.986 90.9104 142.652 90.9104 139.773C90.9104 136.894 88.5765 134.56 85.6974 134.56C82.8183 134.56 80.4844 136.894 80.4844 139.773C80.4844 142.652 82.8183 144.986 85.6974 144.986Z" fill="#231F20"/>
<path d="M136.117 132.809C138.996 132.809 141.33 130.475 141.33 127.596C141.33 124.717 138.996 122.383 136.117 122.383C133.238 122.383 130.904 124.717 130.904 127.596C130.904 130.475 133.238 132.809 136.117 132.809Z" fill="#231F20"/>
<path d="M71.3726 107.619C70.8155 107.499 70.4574 107.46 70.338 107.46C68.1493 107.579 66.1198 106.067 65.7219 103.838C65.6821 103.6 65.6821 103.401 65.6423 103.162C64.4485 103.838 63.2546 104.555 62.1404 105.351L60.1507 106.743L58.6783 104.833C58.2406 104.236 56.2111 101.49 54.3407 97.8691C50.7991 99.5405 48.0533 101.371 47.3768 103.082C47.2574 103.401 47.2972 103.6 47.4166 103.759C48.0135 104.594 51.4358 107.181 71.3726 107.619Z" fill="#648C1A"/>
<path d="M165.683 74.9871C165.007 78.9267 163.733 83.2644 162.897 84.4582L162.102 85.5725C165.683 83.8215 168.906 82.1501 171.612 80.6379C181.044 75.3452 182.237 73.0371 182.357 72.4402C182.436 72.0422 182.357 71.9229 182.317 71.8831C182.198 71.7637 181.561 71.127 178.576 71.127C175.313 71.127 170.737 71.8831 166.001 72.9177C165.922 73.5544 165.802 74.231 165.683 74.9871Z" fill="#648C1A"/>
<path d="M162.024 85.6123L160.671 85.4929C160.632 85.4929 158.164 85.2939 154.742 85.2939C151.2 85.2939 146.584 85.4929 142.764 86.4082C143.48 87.9204 143.321 89.7908 142.167 91.1438C141.252 92.258 139.66 94.1284 137.75 96.2773C141.093 94.9243 144.555 93.4519 148.017 91.9795C153.15 89.7908 157.846 87.602 162.024 85.6123Z" fill="#648C1A"/>
<path d="M71.5715 81.6328C75.6305 82.747 80.2068 83.3041 85.2209 83.3041C104.64 83.3041 125.97 74.9074 134.287 71.2861L134.804 71.0473C134.725 69.8137 134.844 68.4607 135.123 67.1076C135.64 64.6802 136.715 62.6506 137.988 61.2976C137.749 60.3823 137.55 59.7058 137.391 59.3476C134.645 57.8752 111.843 49.3989 99.9447 49.3989C98.7509 49.3989 97.7163 49.4785 96.8806 49.6775C86.3351 51.8264 70.3379 70.1321 69.7808 72.7187C69.6216 73.833 69.6614 77.3747 69.7808 81.1552L71.5715 81.6328Z" fill="#648C1A"/>
<path d="M112.757 101.968C114.508 100.854 116.736 101.133 118.169 102.486C118.408 102.446 118.766 102.366 119.323 102.088C121.512 101.053 129.391 92.6562 135.36 85.4534C135.559 85.1748 135.798 84.9758 136.076 84.7769C122.427 90.6665 103.326 97.1531 85.1399 97.1531C82.2349 97.1531 79.4494 96.9939 76.8627 96.6357L77.2607 97.8296L74.9924 98.7051C74.9924 98.7051 74.5945 98.8642 73.918 99.1428C76.8627 99.8193 80.8024 101.172 85.7766 103.162C94.8895 106.823 98.3516 106.982 99.227 106.943C100.461 106.306 101.973 106.266 103.246 106.903C105.594 106.744 107.425 106.624 108.539 106.505C109.056 106.465 109.772 106.306 110.728 106.067C110.608 104.436 111.324 102.884 112.757 101.968Z" fill="#648C1A"/>
<path d="M135.281 73.5947C135.002 73.7141 134.724 73.8335 134.445 73.9529C134.365 73.9927 134.326 73.9927 134.246 74.0325C133.968 74.1519 133.689 74.2712 133.371 74.3906C133.331 74.4304 133.251 74.4304 133.211 74.4702C132.933 74.5896 132.654 74.709 132.376 74.8284C132.336 74.8682 132.256 74.8682 132.217 74.908C131.898 75.0273 131.58 75.1865 131.262 75.3059C131.182 75.3457 131.102 75.3457 131.063 75.3855C130.704 75.5049 130.386 75.6641 130.028 75.7834C129.67 75.9426 129.312 76.062 128.953 76.2212C128.874 76.261 128.794 76.3008 128.715 76.3008C128.357 76.46 127.959 76.5793 127.6 76.7385C127.561 76.7783 127.481 76.7783 127.441 76.8181C127.083 76.9375 126.725 77.0967 126.367 77.2161C126.287 77.2559 126.247 77.2559 126.168 77.2957C125.77 77.4548 125.372 77.5742 124.974 77.7334C124.894 77.7732 124.815 77.813 124.735 77.813C124.337 77.9722 123.9 78.0915 123.502 78.2507H123.462C123.024 78.4099 122.586 78.5691 122.149 78.6885C122.069 78.7283 121.95 78.7681 121.87 78.7681C121.432 78.9272 120.995 79.0864 120.557 79.2058C120.517 79.2058 120.438 79.2456 120.358 79.2456C119.96 79.365 119.522 79.5242 119.124 79.6435C119.045 79.6833 118.965 79.6833 118.886 79.7231C118.448 79.8823 117.97 80.0017 117.493 80.1609C117.413 80.2007 117.294 80.2007 117.214 80.2405C116.776 80.3997 116.299 80.519 115.821 80.6782C115.782 80.6782 115.782 80.6782 115.742 80.718C115.264 80.8772 114.787 80.9966 114.269 81.1558C114.15 81.1955 114.07 81.2353 113.951 81.2353C113.474 81.3945 112.956 81.5139 112.479 81.6333C112.399 81.6333 112.359 81.6731 112.28 81.6731C111.802 81.7925 111.364 81.9119 110.887 82.0312C110.807 82.071 110.688 82.071 110.608 82.1108C110.091 82.2302 109.614 82.3496 109.096 82.5088C108.977 82.5486 108.897 82.5486 108.778 82.5884C108.3 82.7078 107.783 82.8271 107.305 82.9465C107.266 82.9465 107.226 82.9863 107.186 82.9863C106.669 83.1057 106.151 83.2251 105.634 83.3445C105.515 83.3843 105.395 83.3843 105.276 83.4241C104.759 83.5434 104.241 83.6628 103.684 83.7424C103.605 83.7424 103.565 83.7822 103.485 83.7822C103.008 83.8618 102.49 83.9812 102.013 84.0608C101.893 84.0608 101.814 84.1006 101.694 84.1006C101.177 84.1802 100.66 84.2995 100.103 84.3791C99.9833 84.3791 99.9037 84.4189 99.7843 84.4189C99.267 84.4985 98.7895 84.5781 98.2722 84.6577C98.2324 84.6577 98.1528 84.6577 98.113 84.6975C97.5957 84.7771 97.0386 84.8567 96.4814 84.9363C96.3621 84.9363 96.2427 84.9761 96.1233 84.9761C95.5662 85.0556 95.0489 85.0954 94.4917 85.175C94.4519 85.175 94.3723 85.175 94.3326 85.175C93.8152 85.2148 93.3377 85.2944 92.8204 85.3342C92.701 85.3342 92.6214 85.374 92.502 85.374C91.9847 85.4138 91.4276 85.4536 90.9103 85.4934C90.7909 85.4934 90.7113 85.4934 90.5919 85.5332C90.0746 85.573 89.597 85.6128 89.0797 85.6128C89.0001 85.6128 88.9603 85.6128 88.8808 85.6128C88.3236 85.6526 87.8063 85.6526 87.289 85.6924C87.1696 85.6924 87.0502 85.6924 86.9308 85.6924C86.3737 85.6924 85.8564 85.7322 85.2993 85.7322H85.2595C85.2197 85.7322 85.1799 85.7322 85.1401 85.7322C84.6228 85.7322 84.1055 85.7322 83.5881 85.6924C83.4687 85.6924 83.3892 85.6924 83.2698 85.6924C82.7525 85.6924 82.1953 85.6526 81.678 85.6128C81.5586 85.6128 81.479 85.6128 81.3597 85.6128C80.8423 85.573 80.325 85.5332 79.8475 85.4934C79.8077 85.4934 79.7679 85.4934 79.7281 85.4934C79.2108 85.4536 78.6537 85.374 78.1363 85.3342C78.017 85.3342 77.8976 85.2944 77.7782 85.2944C77.2609 85.2148 76.7435 85.175 76.2262 85.0954C76.1466 85.0954 76.067 85.0556 76.0272 85.0556C75.5497 84.9761 75.0722 84.8965 74.5947 84.8169C74.5151 84.8169 74.3957 84.7771 74.3161 84.7771C73.7988 84.6975 73.3212 84.5781 72.8039 84.4587C72.6845 84.4189 72.6049 84.4189 72.4856 84.3791C71.9682 84.2598 71.4509 84.1404 70.9336 83.9812C71.4111 84.6975 71.8887 85.4536 72.3264 86.2893C73.9977 89.2341 75.2314 92.1789 75.9079 93.8901C76.1864 93.9299 76.5048 93.9697 76.8231 94.0095C76.9425 94.0095 77.0221 94.0493 77.1415 94.0493C77.3405 94.0891 77.5792 94.0891 77.818 94.1289C77.9374 94.1289 78.0567 94.1687 78.2159 94.1687C78.4149 94.2085 78.6537 94.2085 78.8924 94.2483C79.0516 94.2483 79.171 94.2881 79.3302 94.2881C79.5689 94.2881 79.7679 94.3279 80.0067 94.3279C80.1658 94.3279 80.325 94.3676 80.524 94.3676C80.7627 94.3676 80.9617 94.4074 81.2005 94.4074C81.3597 94.4074 81.5586 94.4074 81.7576 94.4472C81.9964 94.4472 82.1953 94.487 82.4341 94.487C82.6331 94.487 82.832 94.487 83.031 94.487C83.2698 94.487 83.5085 94.487 83.7473 94.5268C83.9463 94.5268 84.185 94.5268 84.384 94.5268C84.6228 94.5268 84.8615 94.5268 85.1401 94.5268C85.1799 94.5268 85.1799 94.5268 85.2197 94.5268C85.6176 94.5268 86.0156 94.5268 86.4135 94.5268C86.5329 94.5268 86.6125 94.5268 86.7319 94.5268C87.09 94.5268 87.4084 94.5268 87.7665 94.487C87.9257 94.487 88.0451 94.487 88.2043 94.487C88.5624 94.487 88.9603 94.4472 89.3185 94.4472C89.3981 94.4472 89.5175 94.4472 89.5971 94.4472C90.0746 94.4074 90.5521 94.4074 91.0694 94.3676C91.1888 94.3676 91.3082 94.3676 91.4276 94.3279C91.8255 94.2881 92.2235 94.2483 92.5816 94.2483C92.7408 94.2483 92.9 94.2085 93.0591 94.2085C93.4969 94.1687 93.9346 94.1289 94.3723 94.0891C94.4917 94.0891 94.5713 94.0493 94.6907 94.0493C95.208 93.9697 95.7651 93.9299 96.3223 93.8503C96.4814 93.8503 96.6008 93.8105 96.76 93.8105C97.1977 93.7707 97.6355 93.6911 98.0732 93.6115C98.2324 93.5717 98.4313 93.5717 98.5905 93.532C99.0681 93.4524 99.5854 93.3728 100.063 93.2932C100.182 93.2932 100.262 93.2534 100.381 93.2534C100.978 93.134 101.575 93.0544 102.212 92.935C102.371 92.8952 102.53 92.8554 102.689 92.8554C103.167 92.7759 103.644 92.6565 104.122 92.5769C104.321 92.5371 104.52 92.4973 104.719 92.4575C105.276 92.3381 105.833 92.2187 106.39 92.0993C106.47 92.0595 106.589 92.0595 106.669 92.0197C107.305 91.8606 107.982 91.7014 108.658 91.5422C108.857 91.5024 109.017 91.4626 109.216 91.383C109.733 91.2636 110.25 91.1443 110.768 90.9851C110.967 90.9453 111.205 90.8657 111.404 90.8259C112.041 90.6667 112.638 90.5075 113.314 90.3086C113.394 90.2688 113.474 90.2688 113.553 90.229C114.269 90.03 114.986 89.831 115.742 89.5923C115.941 89.5127 116.14 89.4729 116.379 89.3933C116.936 89.2341 117.493 89.0351 118.05 88.876C118.289 88.7964 118.527 88.7168 118.726 88.6372C119.443 88.3984 120.119 88.1597 120.835 87.9209C120.915 87.8811 120.955 87.8811 121.034 87.8413C121.83 87.5627 122.586 87.2842 123.382 87.0056C123.621 86.926 123.86 86.8464 124.059 86.7668C124.656 86.5679 125.253 86.3291 125.889 86.0903C126.128 86.0107 126.367 85.8913 126.645 85.8118C127.441 85.5332 128.237 85.2148 129.033 84.8965C129.073 84.8965 129.113 84.8567 129.152 84.8567C129.988 84.5383 130.864 84.1802 131.699 83.822C131.938 83.7026 132.217 83.623 132.455 83.5036C133.092 83.2251 133.769 82.9465 134.405 82.668C134.684 82.5486 134.923 82.4292 135.201 82.3496C136.077 81.9517 136.992 81.5537 137.867 81.1558C138.226 79.9619 138.743 78.4895 139.38 76.8579C139.34 76.8579 139.3 76.8579 139.22 76.8579C138.982 76.8579 138.703 76.8181 138.464 76.7783C136.992 76.5793 135.878 75.3855 135.281 73.5947Z" fill="#DFCAA3"/>
<path d="M142.246 59.5867C143.798 59.9448 144.952 61.2183 145.548 63.2478C145.628 63.5662 145.708 63.9243 145.787 64.2825C149.329 59.3081 153.189 56.7612 157.328 56.7612C159.078 56.7612 160.591 57.1592 161.864 57.9551C164.053 55.2888 165.406 53.4981 165.406 53.4981C163.774 53.7766 160.352 54.2542 160.352 54.2542C173.285 49.4788 172.25 36.5454 172.25 36.5454C172.25 38.774 165.565 44.1463 165.565 44.1463C165.843 42.1963 164.809 39.6892 164.809 39.6892C165.087 42.2361 157.089 48.7625 157.089 48.7625C157.686 47.5686 157.248 45.4993 157.248 45.4993C156.81 47.887 153.229 48.7625 153.229 48.7625C155.457 46.0962 159.636 31.969 156.492 31.0538C153.388 30.1783 149.05 40.2862 149.05 40.2862C148.891 37.8985 147.578 37.8985 147.578 37.8985C148.175 45.3401 142.206 51.2695 142.206 51.2695C141.768 49.7971 139.38 49.041 139.38 49.041C139.937 50.2349 139.619 54.5327 139.301 57.5969C139.181 58.7908 139.062 59.7857 138.982 60.3428C139.778 59.7857 140.614 59.4673 141.45 59.4673C141.728 59.5071 142.007 59.5469 142.246 59.5867Z" fill="#DFCAA3"/>
<path d="M138.983 74.4302C139.461 74.5495 140.058 74.271 140.655 73.7139C141.053 72.7986 141.451 71.8833 141.928 70.9282C142.326 70.0527 142.764 69.2568 143.202 68.4609C143.52 66.8293 143.48 65.1978 143.122 63.9641C142.804 62.8896 142.286 62.1733 141.729 62.054C141.65 62.054 141.57 62.0142 141.53 62.0142C140.257 62.0142 138.347 64.2427 137.63 67.5854C137.233 69.3364 137.233 71.1272 137.63 72.4802C137.869 73.5547 138.426 74.271 138.983 74.4302Z" fill="white"/>
<path d="M157.289 59.3081C147.301 59.3081 140.894 79.7229 139.66 83.9809C140.018 84.0605 140.376 84.1799 140.695 84.3391C144.993 83.0656 150.524 82.7473 154.742 82.7473C158.284 82.7473 160.87 82.9463 160.87 82.9463C161.985 81.3943 168.431 59.3081 157.289 59.3081ZM159.836 68.3813C159.756 69.2568 159.517 69.9731 159.279 70.6496C159.04 71.2864 158.722 71.8833 158.443 72.4006C157.886 73.4353 157.289 74.2312 156.851 74.7883C156.413 75.3454 156.135 75.624 156.135 75.624C156.135 75.624 156.215 75.2261 156.374 74.5893C156.533 73.9128 156.772 72.9975 157.05 71.9231C157.17 71.366 157.289 70.8088 157.408 70.1721C157.528 69.5752 157.568 68.9385 157.528 68.3813C157.488 68.1028 157.448 67.864 157.369 67.7446C157.369 67.7048 157.329 67.7048 157.329 67.665L157.209 67.6252L156.891 67.5456C156.772 67.5059 156.612 67.5058 156.493 67.4661C156.374 67.4263 156.254 67.4661 156.095 67.4263C155.976 67.4263 155.856 67.4661 155.737 67.4661C155.259 67.5456 154.742 67.7844 154.265 68.1426C153.787 68.5007 153.31 68.9783 152.912 69.4558C152.076 70.4507 151.399 71.5649 150.842 72.52C150.285 73.4751 149.808 74.3108 149.489 74.9077C149.171 75.5046 148.972 75.8628 148.972 75.8628C148.972 75.8628 148.972 75.7832 148.972 75.5842C148.972 75.3852 148.972 75.1465 149.012 74.7883C149.052 74.1118 149.211 73.1169 149.489 71.9629C149.808 70.8088 150.285 69.4956 151.121 68.1426C151.559 67.4661 152.076 66.8293 152.752 66.2324C153.429 65.6355 154.344 65.158 155.339 64.959C155.578 64.9192 155.856 64.9192 156.095 64.8794C156.334 64.8794 156.612 64.8794 156.851 64.9192C157.09 64.959 157.329 64.9988 157.568 65.0784L157.886 65.1977L158.045 65.2375H158.085L158.204 65.2773H158.244L158.324 65.3171C158.363 65.3171 158.96 65.7151 159.119 65.9539L159.279 66.1528L159.398 66.3518C159.478 66.511 159.557 66.6304 159.597 66.7895C159.876 67.4661 159.876 67.9436 159.836 68.3813Z" fill="#67CFE3"/>
<path d="M117.932 108.694C119.125 108.694 120.478 108.375 121.871 107.739C124.816 106.426 131.979 99.2226 140.137 89.4331C140.415 89.0749 140.574 88.6372 140.535 88.1597C140.495 87.6821 140.256 87.2842 139.898 86.9658C139.5 86.6475 139.062 86.5679 138.784 86.5679C138.266 86.5679 137.789 86.8066 137.431 87.2046C133.889 91.4626 123.901 102.924 120.478 104.555L120.439 104.595C119.762 104.913 119.165 105.072 118.608 105.192L117.295 105.391L116.34 104.476C116.021 104.157 115.584 103.998 115.146 103.998C114.828 103.998 114.509 104.078 114.231 104.277C113.833 104.515 113.554 104.913 113.475 105.391C113.355 105.829 113.475 106.306 113.713 106.704C113.793 106.863 115.066 108.694 117.932 108.694Z" fill="white"/>
<path d="M101.296 109.092C101.017 109.092 100.739 109.171 100.46 109.291L99.9429 109.569L99.346 109.609C99.2267 109.609 99.1073 109.609 98.9083 109.609C97.2767 109.609 93.2575 109.092 84.7018 105.629C75.2706 101.809 71.5697 101.252 70.1769 101.252C69.8984 101.252 69.7392 101.292 69.6994 101.292C69.2219 101.371 68.8239 101.65 68.5852 102.008C68.3066 102.406 68.227 102.844 68.3066 103.321C68.4658 104.157 69.1821 104.754 70.0177 104.754C70.0575 104.754 70.0973 104.754 70.1371 104.754H70.3361H70.5351C71.5697 104.833 74.9124 105.43 83.4682 108.853C90.3923 111.638 95.6054 113.071 99.0277 113.071C100.818 113.071 102.052 112.673 102.649 111.917C102.928 111.559 103.087 111.121 103.047 110.644C103.007 110.166 102.768 109.768 102.41 109.45C102.012 109.171 101.575 109.092 101.296 109.092Z" fill="white"/>
<path d="M74.0781 96.3572C74.0781 96.3572 68.1487 78.8872 60.1103 78.8872C59.0757 78.8872 58.0012 79.1658 56.887 79.8423C47.2966 85.6523 60.6674 103.281 60.6674 103.281C66.5172 99.2622 74.0781 96.3572 74.0781 96.3572ZM59.1155 91.6216C58.8767 91.144 58.6379 90.5869 58.439 89.9502C58.2798 89.3135 58.0808 88.5972 58.1604 87.7615C58.2002 87.3237 58.3196 86.8462 58.5982 86.3686C58.8767 85.8911 59.394 85.4534 59.8716 85.2544L59.9512 85.2146L59.9909 85.1748L60.1501 85.135L60.2695 85.0952L60.3889 85.0554C60.4287 85.0554 60.5879 85.0156 60.6674 85.0156C60.747 85.0156 60.8664 85.0156 60.9858 85.0156H61.145H61.2644C61.4235 85.0554 61.5429 85.0554 61.7021 85.0952C62.2592 85.2544 62.6572 85.4932 63.0153 85.7717C63.7316 86.3288 64.2091 86.886 64.6469 87.4829C65.0846 88.0798 65.4427 88.6767 65.7611 89.2737C66.3978 90.4675 66.8753 91.6216 67.1937 92.6562C67.512 93.6511 67.711 94.5266 67.8304 95.1633C67.91 95.4817 67.91 95.7204 67.9498 95.8796C67.9498 96.0388 67.9896 96.1184 67.9896 96.1184C67.9896 96.1184 67.7508 95.8398 67.3927 95.3623C67.0345 94.8847 66.4774 94.1684 65.8805 93.3327C65.2836 92.4971 64.6071 91.5022 63.851 90.5073C63.4928 89.99 63.0949 89.5124 62.6969 89.0349C62.299 88.5574 61.8613 88.1196 61.4633 87.8013C61.2644 87.6421 61.0654 87.5625 60.946 87.5227C60.9062 87.5227 60.9062 87.5227 60.8664 87.5227C60.8664 87.5227 60.8664 87.5227 60.9062 87.5227H60.946C60.946 87.5227 60.9858 87.4829 60.946 87.4829L60.8266 87.5227H60.747C60.6277 87.5625 60.5879 87.6023 60.5083 87.6421C60.4287 87.7217 60.3491 87.8808 60.3093 88.0798C60.1899 88.4778 60.1899 89.0747 60.2297 89.592C60.2695 90.1492 60.3491 90.6665 60.4287 91.144C60.5879 92.1389 60.7868 92.9746 60.9062 93.6113C61.0256 94.2082 61.1052 94.5664 61.1052 94.5664C61.1052 94.5664 61.0256 94.4868 60.946 94.3674C60.8266 94.248 60.6674 94.0491 60.4685 93.8103C60.1103 93.3327 59.593 92.5766 59.1155 91.6216Z" fill="#67CFE3"/>
<path d="M115.344 150.438C115.423 150.438 115.543 150.399 115.622 150.399C115.742 150.399 115.821 150.359 115.94 150.319C120.159 149.444 123.302 147.016 123.342 144.549C123.342 144.39 123.342 144.191 123.302 144.031C123.263 143.713 123.143 143.395 122.984 143.116C122.944 142.997 122.865 142.917 122.785 142.798C122.745 142.758 122.705 142.718 122.705 142.678C122.666 142.639 122.626 142.599 122.586 142.559C122.467 142.44 122.387 142.32 122.268 142.201C122.188 142.121 122.069 142.042 121.949 141.962C121.432 141.564 120.795 141.206 120.039 140.967C119.999 140.967 119.96 140.927 119.92 140.927C119.801 140.888 119.681 140.848 119.562 140.808C119.522 140.808 119.442 140.768 119.403 140.768C119.283 140.729 119.164 140.689 119.044 140.689C118.965 140.689 118.925 140.649 118.845 140.649C118.726 140.609 118.607 140.609 118.487 140.569C118.408 140.569 118.288 140.53 118.209 140.53C118.05 140.49 117.89 140.49 117.691 140.45C117.572 140.45 117.453 140.41 117.333 140.41C117.254 140.41 117.134 140.41 117.055 140.41C116.935 140.41 116.816 140.41 116.657 140.41C116.577 140.41 116.458 140.41 116.378 140.41C116.259 140.41 116.1 140.41 115.98 140.41C115.901 140.41 115.821 140.41 115.702 140.41C115.543 140.41 115.383 140.41 115.264 140.45C115.184 140.45 115.105 140.45 115.025 140.45C114.786 140.45 114.548 140.49 114.349 140.53C114.15 140.569 113.911 140.569 113.712 140.609C113.513 140.649 113.314 140.689 113.115 140.729C113.075 140.729 113.036 140.768 112.956 140.768C112.757 140.808 112.558 140.848 112.399 140.888C112.2 140.927 112.001 141.007 111.842 141.047C111.802 141.047 111.762 141.087 111.722 141.087C111.523 141.126 111.364 141.206 111.165 141.246C110.966 141.325 110.807 141.365 110.648 141.445C110.608 141.445 110.568 141.485 110.528 141.485C110.17 141.644 109.852 141.763 109.534 141.922C109.494 141.922 109.454 141.962 109.454 141.962C109.295 142.042 109.136 142.121 109.016 142.201C108.897 142.281 108.778 142.36 108.618 142.44C108.579 142.44 108.579 142.479 108.539 142.479C108.459 142.559 108.34 142.599 108.26 142.678C108.22 142.718 108.181 142.718 108.181 142.758C108.101 142.838 108.021 142.877 107.942 142.957C107.902 142.997 107.902 142.997 107.862 143.037C107.663 143.196 107.464 143.395 107.265 143.554C107.226 143.554 107.226 143.594 107.226 143.594C107.146 143.673 107.106 143.713 107.027 143.793C106.987 143.833 106.987 143.833 106.947 143.872C106.867 143.952 106.828 143.992 106.788 144.071C106.748 144.111 106.748 144.111 106.708 144.151C106.629 144.23 106.549 144.35 106.509 144.429C106.43 144.509 106.39 144.628 106.31 144.708C106.31 144.748 106.27 144.748 106.27 144.788C106.231 144.867 106.191 144.947 106.151 144.987C106.151 145.026 106.111 145.066 106.111 145.066C106.072 145.146 106.032 145.186 106.032 145.265C106.032 145.305 105.992 145.305 105.992 145.345C105.952 145.424 105.912 145.544 105.912 145.623C105.873 145.703 105.873 145.822 105.833 145.902C105.833 145.942 105.833 145.942 105.833 145.981C105.833 146.061 105.833 146.101 105.793 146.18C105.793 146.22 105.793 146.26 105.793 146.3C105.793 146.379 105.793 146.419 105.793 146.499C105.793 146.539 105.793 146.578 105.793 146.578C105.793 146.658 105.793 146.777 105.833 146.857C105.873 147.016 105.912 147.175 105.952 147.295C106.708 149.842 110.767 151.195 115.344 150.438Z" fill="#231F20"/>
<path d="M104.76 147.334C104.919 148.21 105.397 148.926 106.193 149.523C106.272 149.603 106.352 149.643 106.431 149.722C107.745 150.637 109.695 151.155 111.963 151.195C112.838 151.195 113.754 151.115 114.709 150.956C117.534 150.478 119.961 149.324 121.434 147.931C121.752 147.613 122.031 147.295 122.269 146.937C122.508 146.618 122.667 146.26 122.787 145.902C122.906 145.544 122.986 145.186 122.986 144.827C122.986 144.668 122.986 144.469 122.946 144.31C122.827 143.594 122.468 142.957 121.911 142.44C121.752 142.32 121.633 142.161 121.434 142.042C121.115 141.803 120.717 141.564 120.32 141.405C119.762 141.126 119.086 140.927 118.409 140.768C118.091 140.689 117.773 140.649 117.454 140.609C116.937 140.53 116.38 140.49 115.783 140.49C115.783 140.49 115.783 140.49 115.743 140.49C115.146 140.49 114.549 140.53 113.952 140.569C113.634 140.609 113.316 140.649 112.997 140.689C112.042 140.848 111.167 141.087 110.331 141.365C106.75 142.639 104.362 145.026 104.76 147.334Z" fill="#231F20"/>
<path d="M112.997 169.699C113.316 169.699 113.634 169.62 113.992 169.5C115.584 168.864 115.663 166.078 115.266 163.412C112.997 164.128 110.968 165.282 109.217 166.317C110.172 168.147 111.445 169.699 112.997 169.699Z" fill="white"/>
<path d="M120.677 167.869C120.956 167.948 121.394 168.068 121.951 168.068C123.423 168.068 125.453 167.351 125.174 163.929C125.134 163.611 125.134 163.213 125.134 162.775C124.458 162.775 123.742 162.775 123.065 162.735C121.911 162.695 120.876 162.695 119.961 162.695C119.245 162.695 118.688 162.695 118.25 162.775C118.887 165.163 119.762 167.51 120.677 167.869Z" fill="white"/>
<path d="M126.687 148.568C126.687 148.568 123.901 154.935 116.261 156.129C114.271 156.447 112.56 156.567 111.127 156.567C107.028 156.567 105.039 155.492 104.044 154.338C104.044 154.338 96.7216 156.447 96.0849 160.944C95.6074 164.327 98.9501 166.038 101.895 166.038C102.89 166.038 103.845 165.839 104.561 165.441C107.506 163.849 111.883 160.427 117.773 159.671C118.29 159.591 119.046 159.591 119.922 159.591C121.911 159.591 124.657 159.71 127.323 159.71C130.348 159.71 133.253 159.551 134.844 158.835C138.466 157.243 138.466 154.577 138.227 153.224C137.988 151.712 135.799 148.647 126.687 148.568Z" fill="#DFCAA3"/>
</svg>
