<svg width="256" height="256" viewBox="0 0 256 256" fill="none" xmlns="http://www.w3.org/2000/svg">
<path d="M196 0H60C26.8629 0 0 26.8629 0 60V196C0 229.137 26.8629 256 60 256H196C229.137 256 256 229.137 256 196V60C256 26.8629 229.137 0 196 0Z" fill="#F4F2ED"/>
<path d="M109.217 166.314C110.172 168.145 111.445 169.697 112.997 169.697C113.316 169.697 113.634 169.617 113.992 169.498C115.584 168.861 115.663 166.075 115.266 163.409C112.957 164.165 110.968 165.28 109.217 166.314Z" fill="#67CFE3"/>
<path d="M188.168 175.347C188.168 175.308 188.168 175.268 188.168 175.268C187.491 170.413 185.422 168.224 183.591 166.314C181.88 164.523 180.288 162.812 180.806 159.708C181.283 156.843 183.552 155.052 187.292 154.615C185.024 139.294 181.721 119.954 177.423 103.479C175.274 95.2418 171.932 89.5114 167.395 85.731C162.222 88.3972 156.014 91.3021 149.05 94.2867C144.036 96.4754 138.863 98.5845 133.928 100.534C129.949 104.792 125.611 108.971 122.985 110.204C121.075 111.04 119.403 111.398 117.931 111.398C114.747 111.398 112.638 109.806 111.604 108.414C110.41 108.732 109.455 108.931 108.778 109.011C107.982 109.09 106.868 109.21 105.436 109.289C105.993 110.722 105.754 112.433 104.719 113.706C103.565 115.099 101.695 115.815 99.0288 115.815C95.2086 115.815 89.7567 114.343 82.4744 111.398C81.4 110.96 80.4051 110.563 79.5297 110.244C78.9725 110.244 78.4154 110.244 77.8583 110.244C70.8943 110.244 65.4823 110.045 61.2243 109.687C56.5684 119.357 58.5979 130.062 60.3091 138.896C61.9406 147.372 67.6312 162.454 72.884 175.427C74.8339 180.242 76.7441 184.739 78.3358 188.519C92.5821 189.793 110.887 190.549 130.824 190.549C154.542 190.549 175.911 189.474 190.953 187.763C189.759 183.227 188.406 176.939 188.168 175.347ZM78.5746 148.088C73.7993 145.183 70.6158 139.97 70.6158 133.961C70.6158 124.849 78.0175 117.447 87.1303 117.447C90.2741 117.447 93.2188 118.322 95.7259 119.835C100.461 122.74 103.645 127.953 103.645 133.922C103.645 143.035 96.2432 150.436 87.1303 150.436C84.0264 150.476 81.0816 149.601 78.5746 148.088ZM136.117 161.698C134.406 162.454 131.939 162.772 127.999 162.812C127.999 163.17 128.039 163.489 128.039 163.727C128.198 165.996 127.681 167.787 126.447 169.1C125.333 170.294 123.741 170.93 121.95 170.93C121.154 170.93 120.319 170.811 119.682 170.572C118.966 170.294 118.369 169.856 117.812 169.14C117.294 170.612 116.379 171.647 115.066 172.204C114.389 172.482 113.713 172.641 112.997 172.641C110.569 172.641 108.46 170.97 106.749 167.826C106.51 167.946 106.271 168.105 106.072 168.224C104.879 168.861 103.446 169.179 101.934 169.179C99.0288 169.179 96.3228 168.065 94.6912 166.155C93.3382 164.603 92.7811 162.613 93.0597 160.544C93.9351 154.217 102.292 151.67 103.247 151.391L105.197 150.834L106.51 152.386C106.669 152.585 107.624 153.5 111.206 153.5C112.559 153.5 114.111 153.381 115.862 153.102C121.592 152.187 123.781 147.611 123.94 147.332L124.736 145.462H126.805C139.221 145.581 141.131 151.033 141.449 152.705C142.006 156.604 140.057 159.987 136.117 161.698ZM138.306 138.578C135.162 138.578 132.257 137.702 129.75 136.19C124.975 133.285 121.791 128.072 121.791 122.063C121.791 112.95 129.193 105.548 138.306 105.548C141.449 105.548 144.394 106.424 146.901 107.936C151.637 110.841 154.82 116.054 154.82 122.023C154.82 131.176 147.418 138.578 138.306 138.578Z" fill="#67CFE3"/>
<path d="M126.687 148.565C126.687 148.565 123.901 154.932 116.261 156.126C114.271 156.445 112.56 156.564 111.127 156.564C107.028 156.564 105.039 155.49 104.044 154.336C104.044 154.336 96.7216 156.445 96.0849 160.941C95.6074 164.324 98.9501 166.035 101.895 166.035C102.89 166.035 103.845 165.836 104.561 165.438C107.506 163.846 111.883 160.424 117.773 159.668C118.29 159.588 119.046 159.588 119.922 159.588C121.911 159.588 124.657 159.708 127.323 159.708C130.348 159.708 133.253 159.549 134.844 158.832C138.466 157.241 138.466 154.574 138.227 153.221C137.988 151.709 135.799 148.645 126.687 148.565Z" fill="#67CFE3"/>
<path d="M125.093 162.772C124.417 162.772 123.701 162.772 123.024 162.732C121.87 162.692 120.835 162.692 119.92 162.692C119.204 162.692 118.647 162.692 118.209 162.772C118.885 165.199 119.761 167.547 120.676 167.905C120.955 167.985 121.393 168.104 121.95 168.104C123.422 168.104 125.452 167.388 125.173 163.966C125.133 163.608 125.133 163.21 125.093 162.772Z" fill="#67CFE3"/>
<path d="M86.3754 205.949C83.55 206.586 75.233 211.122 68.0303 212.475C60.8275 213.828 54.6196 214.584 52.4309 215.38C50.2423 216.176 48.5709 217.808 52.8289 219.399C57.1267 221.031 77.8594 221.588 79.7297 219.399C81.6001 217.211 78.4563 216.256 73.9198 216.335C70.6965 216.375 71.0944 215.261 71.0944 215.141C71.0944 215.141 71.2934 213.709 76.2676 213.032C81.2419 212.356 103.168 210.286 102.731 207.939C102.333 205.631 89.2007 205.312 86.3754 205.949Z" fill="#221F1F"/>
<path d="M72.3782 224.422C74.6974 223.918 76.4601 222.969 76.3153 222.303C76.1704 221.638 74.1729 221.507 71.8536 222.012C69.5344 222.516 67.7717 223.465 67.9166 224.131C68.0614 224.796 70.0589 224.927 72.3782 224.422Z" fill="#221F1F"/>
<path d="M62.272 223.844C64.7695 223.645 66.7516 222.951 66.6993 222.294C66.647 221.637 64.58 221.265 62.0826 221.464C59.5851 221.663 57.603 222.357 57.6553 223.014C57.7076 223.671 59.7746 224.043 62.272 223.844Z" fill="#221F1F"/>
<path d="M54.3582 222.624C56.0133 222.398 57.2973 221.792 57.2261 221.269C57.1549 220.746 55.7555 220.505 54.1004 220.731C52.4452 220.956 51.1612 221.563 51.2324 222.086C51.3037 222.608 52.7031 222.849 54.3582 222.624Z" fill="#221F1F"/>
<path d="M48.4811 221.494C50.0905 221.26 51.3465 220.736 51.2865 220.323C51.2265 219.91 49.8732 219.764 48.2638 219.998C46.6543 220.231 45.3983 220.756 45.4583 221.169C45.5183 221.582 46.8716 221.728 48.4811 221.494Z" fill="#221F1F"/>
<path d="M47.1314 219.865C48.7409 219.632 49.9969 219.107 49.9369 218.694C49.8769 218.281 48.5236 218.135 46.9141 218.369C45.3047 218.603 44.0486 219.127 44.1086 219.54C44.1687 219.953 45.522 220.099 47.1314 219.865Z" fill="#221F1F"/>
<path d="M46.7968 217.913C48.1887 217.711 49.2736 217.247 49.2199 216.877C49.1662 216.508 47.9943 216.372 46.6024 216.574C45.2104 216.776 44.1256 217.24 44.1792 217.609C44.2329 217.979 45.4049 218.115 46.7968 217.913Z" fill="#221F1F"/>
<path d="M129.471 208.217C124.536 208.456 113.394 207.899 111.882 210.485C110.33 213.072 116.418 214.027 125.929 213.231C135.44 212.435 148.93 211.361 149.487 208.456C150.044 205.551 146.98 206.108 146.662 204.278C146.343 202.407 150.044 202.407 150.761 199.661C151.477 196.916 145.747 197.234 140.653 197.234C135.559 197.234 127.083 197.711 126.287 200.378C125.491 203.044 130.147 203.044 133.49 203.681C136.793 204.317 135.838 205.551 135.838 205.551C135.679 207.262 134.405 207.978 129.471 208.217Z" fill="#221F1F"/>
<path d="M116.299 216.693C118.651 216.693 120.557 216.07 120.557 215.301C120.557 214.531 118.651 213.908 116.299 213.908C113.947 213.908 112.041 214.531 112.041 215.301C112.041 216.07 113.947 216.693 116.299 216.693Z" fill="#221F1F"/>
<path d="M127.283 216.256C128.866 216.256 130.148 215.686 130.148 214.982C130.148 214.279 128.866 213.709 127.283 213.709C125.701 213.709 124.418 214.279 124.418 214.982C124.418 215.686 125.701 216.256 127.283 216.256Z" fill="#221F1F"/>
<path d="M136.157 215.141C137.871 215.141 139.261 214.678 139.261 214.106C139.261 213.535 137.871 213.072 136.157 213.072C134.442 213.072 133.053 213.535 133.053 214.106C133.053 214.678 134.442 215.141 136.157 215.141Z" fill="#221F1F"/>
<path d="M143.001 214.027C144.253 214.027 145.269 213.546 145.269 212.952C145.269 212.359 144.253 211.878 143.001 211.878C141.748 211.878 140.732 212.359 140.732 212.952C140.732 213.546 141.748 214.027 143.001 214.027Z" fill="#221F1F"/>
<path d="M148.931 212.753C150.206 212.753 151.239 212.272 151.239 211.679C151.239 211.086 150.206 210.604 148.931 210.604C147.656 210.604 146.623 211.086 146.623 211.679C146.623 212.272 147.656 212.753 148.931 212.753Z" fill="#221F1F"/>
<path d="M48.5312 181.913C48.5312 183.306 51.5158 184.579 56.8482 185.733C56.4503 182.987 56.6891 180.202 57.0472 178.013C51.5954 179.207 48.5312 180.52 48.5312 181.913Z" fill="#221F1F"/>
<path d="M205.877 178.372C205.798 178.61 205.718 178.809 205.599 179.048C204.962 180.6 204.007 181.953 202.813 183.067C200.386 185.336 198.277 186.728 196.406 187.206C206.832 185.734 213 183.903 213 181.953C213.04 180.64 210.493 179.446 205.877 178.372Z" fill="#221F1F"/>
<path d="M66.7161 193.016C70.5762 193.016 73.322 190.907 75.2321 188.161C73.0434 183.067 69.4619 174.551 66.0396 165.518C65.1244 166.314 64.0499 167.508 62.8959 169.299C60.0307 173.755 57.6431 184.142 60.6276 189.594C61.8612 191.902 63.851 193.016 66.7161 193.016Z" fill="#DFCAA3"/>
<path d="M203.369 167.308C201.1 161.419 196.285 157.28 191.629 157.161H191.47C191.47 157.161 190.555 157.042 189.361 157.042C186.854 157.042 183.75 157.599 183.312 160.145C183.034 161.936 183.79 162.851 185.461 164.563C187.332 166.552 189.918 169.258 190.714 174.909C191.59 181.396 193.181 184.698 195.41 184.698C196.444 184.698 198.355 184.062 201.498 181.077C205.358 177.416 205 171.566 203.369 167.308Z" fill="#DFCAA3"/>
<path d="M121.83 122.063C121.83 128.032 125.014 133.285 129.749 136.15C132.256 137.662 135.161 138.538 138.305 138.538C147.418 138.538 154.819 131.136 154.819 122.023C154.819 116.054 151.636 110.801 146.9 107.936C144.393 106.424 141.488 105.548 138.345 105.548C129.232 105.548 121.83 112.95 121.83 122.063ZM141.289 127.594C141.289 130.459 138.942 132.807 136.076 132.807C133.211 132.807 130.863 130.459 130.863 127.594C130.863 124.729 133.211 122.381 136.076 122.381C138.981 122.381 141.289 124.689 141.289 127.594Z" fill="#F4F2ED"/>
<path d="M70.6562 133.961C70.6562 139.93 73.8398 145.183 78.5753 148.048C81.0823 149.561 83.9873 150.436 87.131 150.436C96.2439 150.436 103.646 143.034 103.646 133.922C103.646 127.952 100.462 122.7 95.7266 119.834C93.2195 118.322 90.3146 117.447 87.1708 117.447C78.058 117.447 70.6562 124.848 70.6562 133.961ZM90.8717 139.771C90.8717 142.636 88.5238 144.984 85.6586 144.984C82.7935 144.984 80.4456 142.636 80.4456 139.771C80.4456 136.906 82.7935 134.558 85.6586 134.558C88.5636 134.558 90.8717 136.906 90.8717 139.771Z" fill="#F4F2ED"/>
<path d="M85.6974 144.984C88.5765 144.984 90.9104 142.65 90.9104 139.771C90.9104 136.892 88.5765 134.558 85.6974 134.558C82.8183 134.558 80.4844 136.892 80.4844 139.771C80.4844 142.65 82.8183 144.984 85.6974 144.984Z" fill="#231F20"/>
<path d="M136.117 132.807C138.996 132.807 141.33 130.473 141.33 127.594C141.33 124.715 138.996 122.381 136.117 122.381C133.238 122.381 130.904 124.715 130.904 127.594C130.904 130.473 133.238 132.807 136.117 132.807Z" fill="#231F20"/>
<path d="M71.3726 107.618C70.8155 107.498 70.4574 107.459 70.338 107.459C68.1493 107.578 66.1198 106.066 65.7219 103.837C65.6821 103.599 65.6821 103.4 65.6423 103.161C64.4485 103.837 63.2546 104.554 62.1404 105.349L60.1507 106.742L58.6783 104.832C58.2406 104.235 56.2111 101.489 54.3407 97.8682C50.7991 99.5395 48.0533 101.37 47.3768 103.081C47.2574 103.4 47.2972 103.599 47.4166 103.758C48.0135 104.593 51.4358 107.18 71.3726 107.618Z" fill="#648C1A"/>
<path d="M165.685 74.986C165.008 78.9256 163.735 83.2632 162.899 84.457L162.104 85.5713C165.685 83.8203 168.908 82.149 171.614 80.6368C181.046 75.3442 182.239 73.0361 182.359 72.4392C182.438 72.0412 182.359 71.9219 182.319 71.8821C182.2 71.7627 181.563 71.126 178.578 71.126C175.315 71.126 170.739 71.8821 166.003 72.9167C165.924 73.5534 165.804 74.2299 165.685 74.986Z" fill="#648C1A"/>
<path d="M162.022 85.6113L160.669 85.4919C160.63 85.4919 158.162 85.293 154.74 85.293C151.198 85.293 146.582 85.4919 142.762 86.4072C143.478 87.9194 143.319 89.7897 142.165 91.1427C141.25 92.2569 139.658 94.1273 137.748 96.2762C141.091 94.9232 144.553 93.4508 148.015 91.9784C153.148 89.7897 157.844 87.601 162.022 85.6113Z" fill="#648C1A"/>
<path d="M71.5715 81.6317C75.6305 82.7459 80.2068 83.3031 85.2209 83.3031C104.64 83.3031 125.97 74.9065 134.287 71.2852L134.804 71.0465C134.725 69.8128 134.844 68.4598 135.123 67.1068C135.64 64.6794 136.715 62.6499 137.988 61.2969C137.749 60.3816 137.55 59.7051 137.391 59.347C134.645 57.8746 111.843 49.3984 99.9447 49.3984C98.7509 49.3984 97.7163 49.478 96.8806 49.677C86.3351 51.8259 70.3379 70.1312 69.7808 72.7178C69.6216 73.832 69.6614 77.3737 69.7808 81.1542L71.5715 81.6317Z" fill="#648C1A"/>
<path d="M112.759 101.967C114.51 100.853 116.738 101.131 118.171 102.484C118.41 102.444 118.768 102.365 119.325 102.086C121.514 101.052 129.393 92.6551 135.362 85.4524C135.561 85.1738 135.8 84.9748 136.078 84.7759C122.429 90.6654 103.328 97.1519 85.1419 97.1519C82.2369 97.1519 79.4513 96.9927 76.8647 96.6345L77.2626 97.8284L74.9944 98.7038C74.9944 98.7038 74.5964 98.863 73.9199 99.1416C76.8647 99.8181 80.8043 101.171 85.7786 103.161C94.8914 106.822 98.3535 106.981 99.229 106.941C100.463 106.305 101.975 106.265 103.248 106.901C105.596 106.742 107.427 106.623 108.541 106.503C109.058 106.464 109.774 106.305 110.73 106.066C110.61 104.434 111.326 102.882 112.759 101.967Z" fill="#648C1A"/>
<path d="M135.281 73.5933C135.002 73.7126 134.724 73.832 134.445 73.9514C134.365 73.9912 134.326 73.9912 134.246 74.031C133.968 74.1504 133.689 74.2698 133.371 74.3891C133.331 74.4289 133.251 74.4289 133.211 74.4687C132.933 74.5881 132.654 74.7075 132.376 74.8269C132.336 74.8667 132.256 74.8667 132.217 74.9065C131.898 75.0259 131.58 75.185 131.262 75.3044C131.182 75.3442 131.102 75.3442 131.063 75.384C130.704 75.5034 130.386 75.6626 130.028 75.7819C129.67 75.9411 129.312 76.0605 128.953 76.2197C128.874 76.2595 128.794 76.2993 128.715 76.2993C128.357 76.4584 127.959 76.5778 127.6 76.737C127.561 76.7768 127.481 76.7768 127.441 76.8166C127.083 76.936 126.725 77.0951 126.367 77.2145C126.287 77.2543 126.247 77.2543 126.168 77.2941C125.77 77.4533 125.372 77.5727 124.974 77.7319C124.894 77.7716 124.815 77.8114 124.735 77.8114C124.337 77.9706 123.9 78.09 123.502 78.2492H123.462C123.024 78.4084 122.586 78.5675 122.149 78.6869C122.069 78.7267 121.95 78.7665 121.87 78.7665C121.432 78.9257 120.995 79.0849 120.557 79.2042C120.517 79.2042 120.438 79.244 120.358 79.244C119.96 79.3634 119.522 79.5226 119.124 79.642C119.045 79.6818 118.965 79.6818 118.886 79.7216C118.448 79.8807 117.97 80.0001 117.493 80.1593C117.413 80.1991 117.294 80.1991 117.214 80.2389C116.776 80.3981 116.299 80.5174 115.821 80.6766C115.782 80.6766 115.782 80.6766 115.742 80.7164C115.264 80.8756 114.787 80.995 114.269 81.1542C114.15 81.1939 114.07 81.2337 113.951 81.2337C113.474 81.3929 112.956 81.5123 112.479 81.6317C112.399 81.6317 112.359 81.6715 112.28 81.6715C111.802 81.7909 111.364 81.9102 110.887 82.0296C110.807 82.0694 110.688 82.0694 110.608 82.1092C110.091 82.2286 109.614 82.348 109.096 82.5072C108.977 82.5469 108.897 82.5469 108.778 82.5867C108.3 82.7061 107.783 82.8255 107.305 82.9449C107.266 82.9449 107.226 82.9847 107.186 82.9847C106.669 83.1041 106.151 83.2234 105.634 83.3428C105.515 83.3826 105.395 83.3826 105.276 83.4224C104.759 83.5418 104.241 83.6612 103.684 83.7408C103.605 83.7408 103.565 83.7806 103.485 83.7806C103.008 83.8602 102.49 83.9795 102.013 84.0591C101.893 84.0591 101.814 84.0989 101.694 84.0989C101.177 84.1785 100.66 84.2979 100.103 84.3775C99.9833 84.3775 99.9037 84.4173 99.7843 84.4173C99.267 84.4969 98.7895 84.5764 98.2722 84.656C98.2324 84.656 98.1528 84.656 98.113 84.6958C97.5957 84.7754 97.0386 84.855 96.4814 84.9346C96.3621 84.9346 96.2427 84.9744 96.1233 84.9744C95.5662 85.054 95.0489 85.0938 94.4917 85.1734C94.4519 85.1734 94.3723 85.1734 94.3326 85.1734C93.8152 85.2132 93.3377 85.2927 92.8204 85.3325C92.701 85.3325 92.6214 85.3723 92.502 85.3723C91.9847 85.4121 91.4276 85.4519 90.9103 85.4917C90.7909 85.4917 90.7113 85.4917 90.5919 85.5315C90.0746 85.5713 89.597 85.6111 89.0797 85.6111C89.0001 85.6111 88.9603 85.6111 88.8808 85.6111C88.3236 85.6509 87.8063 85.6509 87.289 85.6907C87.1696 85.6907 87.0502 85.6907 86.9308 85.6907C86.3737 85.6907 85.8564 85.7305 85.2993 85.7305H85.2595C85.2197 85.7305 85.1799 85.7305 85.1401 85.7305C84.6228 85.7305 84.1055 85.7305 83.5881 85.6907C83.4687 85.6907 83.3892 85.6907 83.2698 85.6907C82.7525 85.6907 82.1953 85.6509 81.678 85.6111C81.5586 85.6111 81.479 85.6111 81.3597 85.6111C80.8423 85.5713 80.325 85.5315 79.8475 85.4917C79.8077 85.4917 79.7679 85.4917 79.7281 85.4917C79.2108 85.4519 78.6537 85.3723 78.1363 85.3325C78.017 85.3325 77.8976 85.2927 77.7782 85.2927C77.2609 85.2132 76.7435 85.1734 76.2262 85.0938C76.1466 85.0938 76.067 85.054 76.0272 85.054C75.5497 84.9744 75.0722 84.8948 74.5947 84.8152C74.5151 84.8152 74.3957 84.7754 74.3161 84.7754C73.7988 84.6958 73.3212 84.5764 72.8039 84.4571C72.6845 84.4173 72.6049 84.4173 72.4856 84.3775C71.9682 84.2581 71.4509 84.1387 70.9336 83.9795C71.4111 84.6958 71.8887 85.4519 72.3264 86.2876C73.9977 89.2324 75.2314 92.1771 75.9079 93.8883C76.1864 93.9281 76.5048 93.9679 76.8231 94.0077C76.9425 94.0077 77.0221 94.0475 77.1415 94.0475C77.3405 94.0872 77.5792 94.0872 77.818 94.127C77.9374 94.127 78.0567 94.1668 78.2159 94.1668C78.4149 94.2066 78.6537 94.2066 78.8924 94.2464C79.0516 94.2464 79.171 94.2862 79.3302 94.2862C79.5689 94.2862 79.7679 94.326 80.0067 94.326C80.1658 94.326 80.325 94.3658 80.524 94.3658C80.7627 94.3658 80.9617 94.4056 81.2005 94.4056C81.3597 94.4056 81.5586 94.4056 81.7576 94.4454C81.9964 94.4454 82.1953 94.4852 82.4341 94.4852C82.6331 94.4852 82.832 94.4852 83.031 94.4852C83.2698 94.4852 83.5085 94.4852 83.7473 94.525C83.9463 94.525 84.185 94.525 84.384 94.525C84.6228 94.525 84.8615 94.525 85.1401 94.525C85.1799 94.525 85.1799 94.525 85.2197 94.525C85.6176 94.525 86.0156 94.525 86.4135 94.525C86.5329 94.525 86.6125 94.525 86.7319 94.525C87.09 94.525 87.4084 94.525 87.7665 94.4852C87.9257 94.4852 88.0451 94.4852 88.2043 94.4852C88.5624 94.4852 88.9603 94.4454 89.3185 94.4454C89.3981 94.4454 89.5175 94.4454 89.5971 94.4454C90.0746 94.4056 90.5521 94.4056 91.0694 94.3658C91.1888 94.3658 91.3082 94.3658 91.4276 94.326C91.8255 94.2862 92.2235 94.2464 92.5816 94.2464C92.7408 94.2464 92.9 94.2066 93.0591 94.2066C93.4969 94.1668 93.9346 94.127 94.3723 94.0873C94.4917 94.0873 94.5713 94.0475 94.6907 94.0475C95.208 93.9679 95.7651 93.9281 96.3223 93.8485C96.4814 93.8485 96.6008 93.8087 96.76 93.8087C97.1977 93.7689 97.6355 93.6893 98.0732 93.6097C98.2324 93.5699 98.4313 93.5699 98.5905 93.5301C99.0681 93.4505 99.5854 93.371 100.063 93.2914C100.182 93.2914 100.262 93.2516 100.381 93.2516C100.978 93.1322 101.575 93.0526 102.212 92.9332C102.371 92.8934 102.53 92.8536 102.689 92.8536C103.167 92.774 103.644 92.6547 104.122 92.5751C104.321 92.5353 104.52 92.4955 104.719 92.4557C105.276 92.3363 105.833 92.2169 106.39 92.0975C106.47 92.0578 106.589 92.0577 106.669 92.018C107.305 91.8588 107.982 91.6996 108.658 91.5404C108.857 91.5006 109.017 91.4608 109.216 91.3812C109.733 91.2619 110.25 91.1425 110.768 90.9833C110.967 90.9435 111.205 90.8639 111.404 90.8241C112.041 90.665 112.638 90.5058 113.314 90.3068C113.394 90.267 113.474 90.267 113.553 90.2272C114.269 90.0282 114.986 89.8293 115.742 89.5905C115.941 89.5109 116.14 89.4711 116.379 89.3915C116.936 89.2324 117.493 89.0334 118.05 88.8742C118.289 88.7946 118.527 88.715 118.726 88.6354C119.443 88.3967 120.119 88.1579 120.835 87.9192C120.915 87.8794 120.955 87.8794 121.034 87.8396C121.83 87.561 122.586 87.2825 123.382 87.0039C123.621 86.9243 123.86 86.8447 124.059 86.7651C124.656 86.5662 125.253 86.3274 125.889 86.0886C126.128 86.009 126.367 85.8897 126.645 85.8101C127.441 85.5315 128.237 85.2132 129.033 84.8948C129.073 84.8948 129.113 84.855 129.152 84.855C129.988 84.5367 130.864 84.1785 131.699 83.8204C131.938 83.701 132.217 83.6214 132.455 83.502C133.092 83.2234 133.769 82.9449 134.405 82.6663C134.684 82.5469 134.923 82.4276 135.201 82.348C136.077 81.95 136.992 81.5521 137.867 81.1542C138.226 79.9603 138.743 78.4879 139.38 76.8564C139.34 76.8564 139.3 76.8564 139.22 76.8564C138.982 76.8564 138.703 76.8166 138.464 76.7768C136.992 76.5778 135.878 75.384 135.281 73.5933Z" fill="#DFCAA3"/>
<path d="M142.246 59.5862C143.798 59.9443 144.952 61.2177 145.548 63.2472C145.628 63.5656 145.708 63.9237 145.787 64.2819C149.329 59.3076 153.189 56.7608 157.328 56.7608C159.078 56.7608 160.591 57.1587 161.864 57.9546C164.053 55.2884 165.406 53.4977 165.406 53.4977C163.774 53.7762 160.352 54.2537 160.352 54.2537C173.285 49.4784 172.25 36.5453 172.25 36.5453C172.25 38.7738 165.565 44.146 165.565 44.146C165.843 42.1961 164.809 39.6891 164.809 39.6891C165.087 42.2359 157.089 48.7622 157.089 48.7622C157.686 47.5683 157.248 45.499 157.248 45.499C156.81 47.8867 153.229 48.7622 153.229 48.7622C155.457 46.0959 159.636 31.969 156.492 31.0538C153.388 30.1783 149.05 40.286 149.05 40.286C148.891 37.8984 147.578 37.8983 147.578 37.8983C148.175 45.3399 142.206 51.2692 142.206 51.2692C141.768 49.7968 139.38 49.0407 139.38 49.0407C139.937 50.2345 139.619 54.5323 139.301 57.5965C139.181 58.7903 139.062 59.7851 138.982 60.3423C139.778 59.7851 140.614 59.4668 141.45 59.4668C141.728 59.5066 142.007 59.5464 142.246 59.5862Z" fill="#DFCAA3"/>
<path d="M138.982 74.429C139.459 74.5483 140.056 74.2698 140.653 73.7127C141.051 72.7974 141.449 71.8821 141.926 70.9271C142.324 70.0516 142.762 69.2557 143.2 68.4598C143.518 66.8283 143.478 65.1967 143.12 63.9631C142.802 62.8887 142.284 62.1724 141.727 62.053C141.648 62.053 141.568 62.0132 141.528 62.0132C140.255 62.0132 138.345 64.2417 137.629 67.5844C137.231 69.3353 137.231 71.126 137.629 72.479C137.867 73.5535 138.424 74.2698 138.982 74.429Z" fill="#221F1F"/>
<path d="M157.287 59.3076C147.299 59.3076 140.892 79.722 139.658 83.98C140.016 84.0596 140.375 84.179 140.693 84.3381C144.991 83.0647 150.522 82.7464 154.74 82.7464C158.282 82.7464 160.868 82.9453 160.868 82.9453C161.983 81.3934 168.429 59.3076 157.287 59.3076ZM159.834 68.3807C159.754 69.2562 159.515 69.9725 159.277 70.649C159.038 71.2857 158.72 71.8826 158.441 72.3999C157.884 73.4345 157.287 74.2304 156.849 74.7875C156.412 75.3447 156.133 75.6232 156.133 75.6232C156.133 75.6232 156.213 75.2253 156.372 74.5886C156.531 73.9121 156.77 72.9968 157.048 71.9224C157.168 71.3652 157.287 70.8081 157.406 70.1714C157.526 69.5745 157.566 68.9378 157.526 68.3807C157.486 68.1021 157.446 67.8634 157.367 67.744C157.367 67.7042 157.327 67.7042 157.327 67.6644L157.207 67.6246L156.889 67.545C156.77 67.5052 156.611 67.5052 156.491 67.4654C156.372 67.4256 156.252 67.4654 156.093 67.4256C155.974 67.4256 155.854 67.4654 155.735 67.4654C155.258 67.545 154.74 67.7838 154.263 68.1419C153.785 68.5001 153.308 68.9776 152.91 69.4551C152.074 70.45 151.397 71.5642 150.84 72.5193C150.283 73.4743 149.806 74.31 149.487 74.9069C149.169 75.5038 148.97 75.862 148.97 75.862C148.97 75.862 148.97 75.7824 148.97 75.5834C148.97 75.3845 148.97 75.1457 149.01 74.7875C149.05 74.111 149.209 73.1162 149.487 71.9622C149.806 70.8081 150.283 69.4949 151.119 68.1419C151.557 67.4654 152.074 66.8287 152.75 66.2318C153.427 65.6349 154.342 65.1574 155.337 64.9584C155.576 64.9186 155.854 64.9186 156.093 64.8788C156.332 64.8788 156.611 64.8788 156.849 64.9186C157.088 64.9584 157.327 64.9982 157.566 65.0778L157.884 65.1972L158.043 65.2369H158.083L158.202 65.2767H158.242L158.322 65.3165C158.361 65.3165 158.958 65.7145 159.118 65.9532L159.277 66.1522L159.396 66.3512C159.476 66.5104 159.555 66.6297 159.595 66.7889C159.874 67.4654 159.874 67.9429 159.834 68.3807Z" fill="#67CFE3"/>
<path d="M117.932 108.692C119.125 108.692 120.478 108.374 121.871 107.737C124.816 106.424 131.979 99.2209 140.137 89.4316C140.415 89.0734 140.574 88.6357 140.535 88.1582C140.495 87.6806 140.256 87.2827 139.898 86.9643C139.5 86.646 139.062 86.5664 138.784 86.5664C138.266 86.5664 137.789 86.8052 137.431 87.2031C133.889 91.4611 123.901 102.922 120.478 104.553L120.439 104.593C119.762 104.912 119.165 105.071 118.608 105.19L117.295 105.389L116.34 104.474C116.021 104.155 115.584 103.996 115.146 103.996C114.828 103.996 114.509 104.076 114.231 104.275C113.833 104.514 113.554 104.912 113.475 105.389C113.355 105.827 113.475 106.304 113.713 106.702C113.793 106.861 115.066 108.692 117.932 108.692Z" fill="#221F1F"/>
<path d="M101.298 109.09C101.019 109.09 100.741 109.17 100.462 109.289L99.9449 109.567L99.348 109.607C99.2286 109.607 99.1092 109.607 98.9103 109.607C97.2787 109.607 93.2595 109.09 84.7037 105.628C75.2725 101.808 71.5717 101.25 70.1789 101.25C69.9003 101.25 69.7411 101.29 69.7013 101.29C69.2238 101.37 68.8259 101.648 68.5871 102.007C68.3085 102.405 68.229 102.842 68.3085 103.32C68.4677 104.155 69.184 104.752 70.0197 104.752C70.0595 104.752 70.0993 104.752 70.1391 104.752H70.338H70.537C71.5717 104.832 74.9144 105.429 83.4701 108.851C90.3943 111.637 95.6073 113.069 99.0296 113.069C100.82 113.069 102.054 112.671 102.651 111.915C102.929 111.557 103.089 111.119 103.049 110.642C103.009 110.164 102.77 109.766 102.412 109.448C102.014 109.17 101.576 109.09 101.298 109.09Z" fill="#221F1F"/>
<path d="M74.0781 96.3559C74.0781 96.3559 68.1487 78.8862 60.1103 78.8862C59.0757 78.8862 58.0012 79.1648 56.887 79.8413C47.2966 85.6512 60.6674 103.28 60.6674 103.28C66.5172 99.2608 74.0781 96.3559 74.0781 96.3559ZM59.1155 91.6204C58.8767 91.1428 58.6379 90.5857 58.439 89.949C58.2798 89.3123 58.0808 88.596 58.1604 87.7603C58.2002 87.3226 58.3196 86.8451 58.5982 86.3675C58.8767 85.89 59.394 85.4523 59.8716 85.2533L59.9512 85.2135L59.9909 85.1737L60.1501 85.1339L60.2695 85.0941L60.3889 85.0543C60.4287 85.0543 60.5879 85.0145 60.6674 85.0145C60.747 85.0145 60.8664 85.0145 60.9858 85.0145H61.145H61.2644C61.4235 85.0543 61.5429 85.0543 61.7021 85.0941C62.2592 85.2533 62.6572 85.4921 63.0153 85.7706C63.7316 86.3277 64.2091 86.8849 64.6469 87.4818C65.0846 88.0787 65.4427 88.6756 65.7611 89.2725C66.3978 90.4663 66.8753 91.6204 67.1937 92.655C67.512 93.6499 67.711 94.5253 67.8304 95.162C67.91 95.4804 67.91 95.7192 67.9498 95.8783C67.9498 96.0375 67.9896 96.1171 67.9896 96.1171C67.9896 96.1171 67.7508 95.8385 67.3927 95.361C67.0345 94.8835 66.4774 94.1672 65.8805 93.3315C65.2836 92.4958 64.6071 91.501 63.851 90.5061C63.4928 89.9888 63.0949 89.5113 62.6969 89.0337C62.299 88.5562 61.8613 88.1185 61.4633 87.8001C61.2644 87.6409 61.0654 87.5614 60.946 87.5216C60.9062 87.5216 60.9062 87.5216 60.8664 87.5216C60.8664 87.5216 60.8664 87.5216 60.9062 87.5216H60.946C60.946 87.5216 60.9858 87.4818 60.946 87.4818L60.8266 87.5216H60.747C60.6277 87.5614 60.5879 87.6011 60.5083 87.6409C60.4287 87.7205 60.3491 87.8797 60.3093 88.0787C60.1899 88.4766 60.1899 89.0735 60.2297 89.5909C60.2695 90.148 60.3491 90.6653 60.4287 91.1428C60.5879 92.1377 60.7868 92.9734 60.9062 93.6101C61.0256 94.207 61.1052 94.5651 61.1052 94.5651C61.1052 94.5651 61.0256 94.4855 60.946 94.3662C60.8266 94.2468 60.6674 94.0478 60.4685 93.809C60.1103 93.3315 59.593 92.5754 59.1155 91.6204Z" fill="#67CFE3"/>
<path d="M115.346 150.436C115.425 150.436 115.544 150.396 115.624 150.396C115.743 150.396 115.823 150.356 115.942 150.316C120.161 149.441 123.304 147.014 123.344 144.546C123.344 144.387 123.344 144.188 123.304 144.029C123.265 143.711 123.145 143.392 122.986 143.114C122.946 142.994 122.867 142.915 122.787 142.795C122.747 142.756 122.707 142.716 122.707 142.676C122.668 142.636 122.628 142.596 122.588 142.557C122.469 142.437 122.389 142.318 122.27 142.198C122.19 142.119 122.071 142.039 121.951 141.96C121.434 141.562 120.797 141.204 120.041 140.965C120.001 140.965 119.962 140.925 119.922 140.925C119.802 140.885 119.683 140.845 119.564 140.806C119.524 140.806 119.444 140.766 119.405 140.766C119.285 140.726 119.166 140.686 119.046 140.686C118.967 140.686 118.927 140.646 118.847 140.646C118.728 140.607 118.609 140.607 118.489 140.567C118.41 140.567 118.29 140.527 118.211 140.527C118.052 140.487 117.892 140.487 117.693 140.448C117.574 140.448 117.455 140.408 117.335 140.408C117.256 140.408 117.136 140.408 117.057 140.408C116.937 140.408 116.818 140.408 116.659 140.408C116.579 140.408 116.46 140.408 116.38 140.408C116.261 140.408 116.102 140.408 115.982 140.408C115.903 140.408 115.823 140.408 115.704 140.408C115.544 140.408 115.385 140.408 115.266 140.448C115.186 140.448 115.107 140.448 115.027 140.448C114.788 140.448 114.55 140.487 114.351 140.527C114.152 140.567 113.913 140.567 113.714 140.607C113.515 140.646 113.316 140.686 113.117 140.726C113.077 140.726 113.037 140.766 112.958 140.766C112.759 140.806 112.56 140.845 112.401 140.885C112.202 140.925 112.003 141.005 111.844 141.044C111.804 141.044 111.764 141.084 111.724 141.084C111.525 141.124 111.366 141.204 111.167 141.243C110.968 141.323 110.809 141.363 110.65 141.442C110.61 141.442 110.57 141.482 110.53 141.482C110.172 141.641 109.854 141.761 109.536 141.92C109.496 141.92 109.456 141.96 109.456 141.96C109.297 142.039 109.138 142.119 109.018 142.198C108.899 142.278 108.779 142.358 108.62 142.437C108.581 142.437 108.581 142.477 108.541 142.477C108.461 142.557 108.342 142.596 108.262 142.676C108.222 142.716 108.183 142.716 108.183 142.756C108.103 142.835 108.023 142.875 107.944 142.955C107.904 142.994 107.904 142.994 107.864 143.034C107.665 143.193 107.466 143.392 107.267 143.551C107.228 143.551 107.228 143.591 107.228 143.591C107.148 143.671 107.108 143.711 107.029 143.79C106.989 143.83 106.989 143.83 106.949 143.87C106.869 143.949 106.83 143.989 106.79 144.069C106.75 144.109 106.75 144.109 106.71 144.148C106.631 144.228 106.551 144.347 106.511 144.427C106.432 144.507 106.392 144.626 106.312 144.705C106.312 144.745 106.272 144.745 106.272 144.785C106.233 144.865 106.193 144.944 106.153 144.984C106.153 145.024 106.113 145.064 106.113 145.064C106.073 145.143 106.034 145.183 106.034 145.263C106.034 145.302 105.994 145.302 105.994 145.342C105.954 145.422 105.914 145.541 105.914 145.621C105.875 145.7 105.875 145.82 105.835 145.899C105.835 145.939 105.835 145.939 105.835 145.979C105.835 146.058 105.835 146.098 105.795 146.178C105.795 146.218 105.795 146.257 105.795 146.297C105.795 146.377 105.795 146.417 105.795 146.496C105.795 146.536 105.795 146.576 105.795 146.576C105.795 146.655 105.795 146.775 105.835 146.854C105.875 147.014 105.914 147.173 105.954 147.292C106.71 149.839 110.769 151.192 115.346 150.436Z" fill="#231F20"/>
<path d="M104.76 147.332C104.919 148.207 105.397 148.924 106.193 149.521C106.272 149.6 106.352 149.64 106.431 149.72C107.745 150.635 109.695 151.152 111.963 151.192C112.838 151.192 113.754 151.112 114.709 150.953C117.534 150.476 119.961 149.322 121.434 147.929C121.752 147.61 122.031 147.292 122.269 146.934C122.508 146.616 122.667 146.257 122.787 145.899C122.906 145.541 122.986 145.183 122.986 144.825C122.986 144.666 122.986 144.467 122.946 144.308C122.827 143.591 122.468 142.955 121.911 142.437C121.752 142.318 121.633 142.159 121.434 142.039C121.115 141.801 120.717 141.562 120.32 141.403C119.762 141.124 119.086 140.925 118.409 140.766C118.091 140.686 117.773 140.646 117.454 140.607C116.937 140.527 116.38 140.487 115.783 140.487C115.783 140.487 115.783 140.487 115.743 140.487C115.146 140.487 114.549 140.527 113.952 140.567C113.634 140.607 113.316 140.646 112.997 140.686C112.042 140.845 111.167 141.084 110.331 141.363C106.75 142.636 104.362 145.024 104.76 147.332Z" fill="#231F20"/>
<path d="M112.997 169.696C113.316 169.696 113.634 169.617 113.992 169.497C115.584 168.86 115.663 166.075 115.266 163.409C112.997 164.125 110.968 165.279 109.217 166.314C110.172 168.144 111.445 169.696 112.997 169.696Z" fill="#221F1F"/>
<path d="M120.677 167.866C120.956 167.945 121.394 168.065 121.951 168.065C123.423 168.065 125.453 167.348 125.174 163.926C125.134 163.608 125.134 163.21 125.134 162.772C124.458 162.772 123.742 162.772 123.065 162.732C121.911 162.692 120.876 162.692 119.961 162.692C119.245 162.692 118.688 162.692 118.25 162.772C118.887 165.16 119.762 167.507 120.677 167.866Z" fill="#221F1F"/>
<path d="M126.687 148.565C126.687 148.565 123.901 154.932 116.261 156.126C114.271 156.445 112.56 156.564 111.127 156.564C107.028 156.564 105.039 155.49 104.044 154.336C104.044 154.336 96.7216 156.445 96.0849 160.941C95.6074 164.324 98.9501 166.035 101.895 166.035C102.89 166.035 103.845 165.836 104.561 165.438C107.506 163.846 111.883 160.424 117.773 159.668C118.29 159.588 119.046 159.588 119.922 159.588C121.911 159.588 124.657 159.708 127.323 159.708C130.348 159.708 133.253 159.549 134.844 158.832C138.466 157.241 138.466 154.574 138.227 153.221C137.988 151.709 135.799 148.645 126.687 148.565Z" fill="#DFCAA3"/>
</svg>
