<svg width="256" height="256" viewBox="0 0 256 256" fill="none" xmlns="http://www.w3.org/2000/svg" id="jax">
<style>
#jax {
    rect {fill: #242938}

    @media (prefers-color-scheme: light) {
        rect {fill: #F4F2ED}
    }
}
</style>
<rect width="256" height="256" fill="#242938" rx="60"/>
<path d="M44.0579 127.503L32.0288 148.343H56.087L68.1161 127.503H44.0579Z" fill="#5E97F6"/>
<path d="M20 169.177L32.0291 148.342H56.0873L44.0582 169.177H20Z" fill="#5E97F6"/>
<path d="M80.1454 148.342H56.0872L44.0581 169.177H68.1163L80.1454 148.342Z" fill="#5E97F6"/>
<path d="M104.204 148.342H80.1453L68.1162 169.177H92.1744L104.204 148.342Z" fill="#5E97F6"/>
<path d="M92.1746 127.503L80.1455 148.343H104.204L116.233 127.503H92.1746Z" fill="#5E97F6"/>
<path d="M104.204 106.669L92.1748 127.503H116.233L128.262 106.669H104.204Z" fill="#5E97F6"/>
<path d="M116.233 85.8344L104.204 106.669H128.262L140.291 85.8344H116.233Z" fill="#5E97F6"/>
<path d="M128.262 65L116.233 85.8344H140.291L152.32 65H128.262Z" fill="#5E97F6"/>
<path d="M20 169.177L32.0291 190.011H56.0873L44.0582 169.177H20Z" fill="#2A56C6"/>
<path d="M80.1454 190.011H56.0872L44.0581 169.177H68.1163L80.1454 190.011Z" fill="#2A56C6"/>
<path d="M104.204 190.011H80.1453L68.1162 169.177H92.1744L104.204 190.011Z" fill="#2A56C6"/>
<path d="M116.233 169.177L104.204 148.342L92.1748 169.177L104.204 190.011L116.233 169.177Z" fill="#00796B"/>
<path d="M140.291 127.503L128.262 106.669L116.233 127.503H140.291Z" fill="#00796B"/>
<path d="M140.291 85.8344L128.262 106.669L140.291 127.503L152.32 106.669L140.291 85.8344Z" fill="#00796B"/>
<path d="M80.1456 148.343L68.1165 127.503L56.0874 148.343H80.1456Z" fill="#3367D6"/>
<path d="M140.291 127.503H116.233L104.204 148.343H128.262L140.291 127.503Z" fill="#26A69A"/>
<path d="M164.349 127.503H140.291L128.262 148.343H152.32L164.349 127.503Z" fill="#26A69A"/>
<path d="M188.407 85.8344L176.378 65L164.349 85.8344L176.378 106.669L188.407 85.8344Z" fill="#9C27B0"/>
<path d="M200.436 106.669L188.407 85.8344L176.378 106.669L188.407 127.503L200.436 106.669Z" fill="#9C27B0"/>
<path d="M212.466 127.503L200.437 106.669L188.408 127.503L200.437 148.342L212.466 127.503Z" fill="#9C27B0"/>
<path d="M224.495 148.343L212.466 127.503L200.437 148.343L212.466 169.177L224.495 148.343Z" fill="#9C27B0"/>
<path d="M236.524 169.177L224.495 148.342L212.466 169.177L224.495 190.011L236.524 169.177Z" fill="#9C27B0"/>
<path d="M224.495 65L212.466 85.8344L224.495 106.669L236.524 85.8344L224.495 65Z" fill="#9C27B0"/>
<path d="M200.437 106.669L212.466 85.8344L224.495 106.669L212.466 127.503L200.437 106.669Z" fill="#9C27B0"/>
<path d="M188.407 127.503L176.378 148.343L188.407 169.177L200.436 148.343L188.407 127.503Z" fill="#9C27B0"/>
<path d="M176.378 190.011L164.349 169.177L176.378 148.342L188.407 169.177L176.378 190.011Z" fill="#9C27B0"/>
<path d="M152.32 190.011L140.291 169.177H164.349L176.378 190.011H152.32Z" fill="#6A1B9A"/>
<path d="M128.262 148.342H104.204L116.233 169.177H140.291L128.262 148.342Z" fill="#00695C"/>
<path d="M152.32 148.342H128.262L140.291 169.177L152.32 148.342Z" fill="#00695C"/>
<path d="M152.32 106.669L164.349 127.503H188.407L176.378 106.669H152.32Z" fill="#00695C"/>
<path d="M164.349 85.8344H140.291L152.32 106.669H176.378L164.349 85.8344Z" fill="#00695C"/>
<path d="M224.495 190.011L212.466 169.177H188.408L200.437 190.011H224.495Z" fill="#00695C"/>
<path d="M200.437 148.342L188.408 169.177H212.466L200.437 148.342Z" fill="#00695C"/>
<path d="M176.378 65H152.32L140.291 85.8344H164.349L176.378 65Z" fill="#EA80FC"/>
<path d="M176.378 148.342H152.32L140.291 169.177H164.349L176.378 148.342Z" fill="#EA80FC"/>
<path d="M188.407 127.503H164.349L152.32 148.343H176.378L188.407 127.503Z" fill="#EA80FC"/>
<path d="M224.495 65H200.437L188.408 85.8344H212.466L224.495 65Z" fill="#EA80FC"/>
<path d="M200.437 106.669L188.408 85.8344H212.466L200.437 106.669Z" fill="#EA80FC"/>
</svg>
