<svg width="256" height="256" viewBox="0 0 256 256" fill="none" xmlns="http://www.w3.org/2000/svg">
<path d="M196 0H60C26.8629 0 0 26.8629 0 60V196C0 229.137 26.8629 256 60 256H196C229.137 256 256 229.137 256 196V60C256 26.8629 229.137 0 196 0Z" fill="#F4F2ED"/>
<path d="M42.1392 160.177C47.1867 160.177 51.2785 156.086 51.2785 151.038C51.2785 145.991 47.1867 141.899 42.1392 141.899C37.0918 141.899 33 145.991 33 151.038C33 156.086 37.0918 160.177 42.1392 160.177Z" fill="#444444"/>
<path d="M95.5324 90.5265C94.0893 92.4987 61.9577 162.294 61.3804 164.025C60.8032 165.757 62.583 167.2 66.1906 168.884C69.8944 170.615 71.0969 170.519 72.1551 169.028C73.2134 167.537 105.874 97.9822 106.596 95.6734C107.317 93.4126 105.634 92.162 102.555 90.6708C99.4767 89.1797 96.9754 88.5544 95.5324 90.5265Z" fill="#444444"/>
<path d="M147.481 94.2785C152.529 94.2785 156.62 90.1867 156.62 85.1392C156.62 80.0918 152.529 76 147.481 76C142.434 76 138.342 80.0918 138.342 85.1392C138.342 90.1867 142.434 94.2785 147.481 94.2785Z" fill="#111111"/>
<path d="M119.583 107.025C119.583 113.23 119.583 113.278 122.95 113.278H140.266V133.625C140.266 145.458 140.026 156.425 139.785 157.964C138.871 163.352 135.552 166.43 130.646 166.43C127.808 166.43 124.874 165.132 123.575 163.256C121.122 159.744 120.449 159.215 118.813 159.215C117.322 159.215 116.889 159.6 113.811 163.688C109.77 169.028 109.674 169.894 112.271 172.78C123.19 184.901 145.557 181.775 152.484 167.104C155.033 161.716 155.178 159.744 155.178 128.863V104.139C155.178 101.061 153.735 99.3289 150.368 99.3289H126.798C119.631 99.3289 119.583 99.3289 119.583 107.025ZM169.464 134.828C170.907 149.354 181.489 158.83 190.532 160.177C197.459 161.091 202.269 160.177 208.57 155.848V175.57C208.57 179.466 208.57 180.38 215.785 180.38C222.327 180.38 223.001 179.418 223.001 173.164V104.861C223.001 100.099 222.087 100.05 215.785 100.05C209.484 100.05 209.099 100.772 209.099 103.995C204.145 99.7137 192.216 96.8277 183.942 101.638C175.669 106.448 167.492 115.01 169.464 134.828ZM208.089 129.681C208.089 143.726 203.039 146.805 196.689 146.805C188.127 146.805 184.712 139.734 183.558 132.567C182.259 124.486 184.76 112.364 196.16 112.364C204.385 112.364 208.089 116.645 208.089 129.681Z" fill="#111111"/>
</svg>
