<svg width="256" height="256" viewBox="0 0 256 256" fill="none" id="junit" xmlns="http://www.w3.org/2000/svg">
    <rect width="256" height="256" rx="60" fill="#F4F2ED"/>
    <path d="M128.249 35.2865C105.295 34.8485 83.399 40.9055 64.664 58.226C25.4585 94.487 24.2915 156.572 62.159 194.171C68.975 200.939 77.087 207.2 85.994 211.013C88.3205 203.191 87.8675 193.747 87.131 184.463C86.954 184.28 86.771 184.099 86.636 183.896C84.1475 180.187 85.994 170.503 85.994 166.097C101.648 168.872 114.398 177.482 131.156 172.481C147.555 167.587 154.391 143.936 139.932 132.74C131.201 125.975 118.247 126.898 107.95 128.138C101.765 128.885 94.043 131.168 89.774 124.591C87.254 120.719 89.855 111.217 90.278 106.837C90.383 105.733 90.4985 104.608 90.608 103.499C91.7045 89.897 93.524 76.148 93.524 62.5385H160.01V39.4625C149.336 37.025 138.683 35.489 128.249 35.2865Z"
          fill="#DC514A"/>
    <path d="M159.473 39.4205V80.0405H111.094L108.58 111.281C119.315 110.44 129.268 108.545 139.996 111.067C147.35 112.799 154.253 116.272 159.361 121.907C173.615 137.615 170.81 167.102 154.445 180.35C149.84 184.079 144.578 186.529 139.022 188.104C133.892 189.743 128.738 190.438 123.566 190.486C121.714 190.586 119.859 190.638 118.004 190.642C109.949 190.642 101.892 189.595 94.1285 187.423C92.1545 186.869 89.1005 186.1 87.1805 184.663C86.774 184.576 86.366 184.481 85.9595 184.393L85.334 210.638C135.194 237.077 198.712 208.789 216.596 156.901C231.715 113.051 208.301 50.93 159.473 39.4205Z"
          fill="#23A161"/>
</svg>
