<svg width="256" height="256" viewBox="0 0 256 256" fill="none" xmlns="http://www.w3.org/2000/svg" id="jupyter">
<style>
#jupyter{
    path.rect {fill: #242938}
    path.text {fill: white}

    @media (prefers-color-scheme: light) {
        path.rect {fill: #F4F2ED}
        path.text {fill: #4E4E4E}
    }
}
</style>
<path class="rect" d="M196 0H60C26.8629 0 0 26.8629 0 60V196C0 229.137 26.8629 256 60 256H196C229.137 256 256 229.137 256 196V60C256 26.8629 229.137 0 196 0Z" fill="#242938"/>
<path class="text" d="M38.3864 134.075C38.3864 141.162 37.8199 143.471 36.363 145.172C34.7416 146.633 32.6366 147.441 30.4547 147.44L31.0213 151.49C34.404 151.536 37.6863 150.34 40.248 148.128C41.6263 146.446 42.652 144.503 43.2638 142.416C43.8757 140.329 44.0611 138.139 43.8092 135.978V109.168H38.3864V133.913V134.075Z" fill="white"/>
<path class="text" d="M78.8277 130.88C78.8277 133.918 78.8277 136.631 79.0705 138.98H74.2548L73.9311 134.161C72.9238 135.866 71.4833 137.274 69.7561 138.242C68.0288 139.209 66.0764 139.701 64.0973 139.669C59.403 139.669 53.8184 137.117 53.8184 126.709V109.416H59.2411V125.615C59.2411 131.245 60.9813 135.011 65.8779 135.011C66.8853 135.022 67.8847 134.832 68.8176 134.451C69.7505 134.07 70.5979 133.507 71.3103 132.794C72.0227 132.081 72.5857 131.233 72.9662 130.299C73.3467 129.365 73.5372 128.365 73.5264 127.357V109.213H78.9491V130.718L78.8277 130.88Z" fill="white"/>
<path class="text" d="M89.1065 119.05C89.1065 115.284 89.1065 112.206 88.8637 109.412H93.7199L93.9627 114.474C95.0446 112.645 96.6022 111.144 98.4694 110.131C100.337 109.118 102.443 108.632 104.565 108.723C111.769 108.723 117.191 114.757 117.191 123.748C117.191 134.359 110.676 139.624 103.635 139.624C101.832 139.705 100.04 139.318 98.4305 138.503C96.8212 137.687 95.4495 136.469 94.4483 134.967V151.167H89.1065V119.172V119.05ZM94.4483 126.948C94.463 127.683 94.5443 128.415 94.6911 129.135C95.1503 130.933 96.1955 132.527 97.6613 133.664C99.1273 134.801 100.93 135.416 102.785 135.412C108.491 135.412 111.85 130.755 111.85 123.991C111.85 118.078 108.693 113.016 102.987 113.016C100.729 113.201 98.6159 114.204 97.0439 115.837C95.472 117.47 94.5491 119.62 94.4483 121.885V126.948Z" fill="white"/>
<path class="text" d="M126.853 109.384L133.368 126.839C134.056 128.783 134.785 131.132 135.27 132.874C135.837 131.092 136.444 128.824 137.172 126.718L143.081 109.384H148.787L140.693 130.444C136.646 140.569 134.178 145.793 130.455 148.952C128.58 150.666 126.293 151.866 123.818 152.435L122.483 147.899C124.213 147.33 125.82 146.437 127.217 145.267C129.192 143.657 130.758 141.603 131.79 139.273C132.011 138.869 132.162 138.431 132.235 137.977C132.189 137.488 132.066 137.01 131.871 136.559L120.864 109.303H126.772L126.853 109.384Z" fill="white"/>
<path class="text" d="M163.183 100.888V109.393H170.952V113.443H163.183V129.4C163.183 133.045 164.235 135.151 167.229 135.151C168.293 135.168 169.354 135.046 170.386 134.786L170.629 138.836C169.082 139.373 167.449 139.62 165.813 139.565C164.729 139.633 163.644 139.466 162.631 139.074C161.618 138.683 160.702 138.077 159.945 137.297C158.297 135.091 157.545 132.341 157.841 129.602V113.402H153.227V109.352H157.922V102.144L163.183 100.888Z" fill="white"/>
<path class="text" d="M180.941 125.13C180.832 126.503 181.021 127.884 181.497 129.177C181.972 130.47 182.723 131.645 183.697 132.619C184.67 133.593 185.843 134.344 187.136 134.82C188.428 135.296 189.807 135.486 191.18 135.376C193.956 135.438 196.714 134.914 199.274 133.837L200.204 137.887C197.063 139.182 193.686 139.803 190.29 139.71C188.31 139.845 186.324 139.551 184.469 138.846C182.614 138.142 180.933 137.044 179.541 135.628C178.15 134.213 177.08 132.512 176.407 130.644C175.734 128.776 175.472 126.784 175.64 124.806C175.64 115.896 180.941 108.849 189.602 108.849C199.314 108.849 201.742 117.354 201.742 122.781C201.794 123.617 201.794 124.456 201.742 125.292H180.82L180.941 125.13ZM196.805 121.08C196.961 119.997 196.884 118.893 196.578 117.843C196.271 116.793 195.744 115.82 195.031 114.991C194.317 114.162 193.435 113.496 192.443 113.037C191.45 112.578 190.371 112.338 189.278 112.332C187.054 112.493 184.971 113.479 183.437 115.097C181.902 116.716 181.027 118.849 180.982 121.08H196.805Z" fill="white"/>
<path class="text" d="M209.97 118.594C209.97 115.111 209.97 112.114 209.727 109.36H214.583V115.151H214.826C215.336 113.364 216.389 111.78 217.839 110.618C219.29 109.457 221.065 108.777 222.92 108.671C223.43 108.604 223.947 108.604 224.458 108.671V113.734C223.839 113.662 223.214 113.662 222.596 113.734C220.759 113.805 219.011 114.543 217.678 115.81C216.345 117.077 215.518 118.786 215.352 120.619C215.201 121.448 215.12 122.288 215.109 123.13V138.884H209.768V118.634L209.97 118.594Z" fill="white"/>
<path d="M207.593 28.038C207.76 30.7588 207.113 33.4675 205.735 35.8191C204.358 38.1707 202.312 40.0587 199.859 41.2426C197.405 42.4265 194.655 42.8527 191.959 42.4669C189.263 42.0811 186.742 40.9008 184.718 39.0764C182.695 37.2519 181.259 34.8659 180.595 32.2222C179.932 29.5785 180.069 26.7969 180.99 24.2317C181.912 21.6665 183.575 19.4338 185.769 17.8181C187.962 16.2024 190.587 15.2767 193.308 15.159C195.092 15.0608 196.878 15.3165 198.563 15.9114C200.248 16.5063 201.799 17.4288 203.127 18.6257C204.454 19.8225 205.533 21.2703 206.299 22.8856C207.066 24.5009 207.506 26.2519 207.593 28.038Z" fill="#767677"/>
<path d="M127.573 186.648C91.1525 186.648 59.1421 173.566 42.5907 154.248C49.0127 171.627 60.6005 186.62 75.7943 197.209C90.988 207.798 109.059 213.474 127.573 213.474C146.088 213.474 164.159 207.798 179.353 197.209C194.547 186.62 206.134 171.627 212.557 154.248C196.046 173.566 164.157 186.648 127.573 186.648Z" fill="#F37726"/>
<path d="M127.573 61.0254C163.995 61.0254 196.005 74.1068 212.557 93.4251C206.134 76.0461 194.547 61.053 179.353 50.4641C164.159 39.8752 146.088 34.1987 127.573 34.1987C109.059 34.1987 90.988 39.8752 75.7943 50.4641C60.6005 61.053 49.0127 76.0461 42.5907 93.4251C59.1421 74.0663 90.9907 61.0254 127.573 61.0254Z" fill="#F37726"/>
<path d="M77.4354 224.242C77.649 227.669 76.8384 231.082 75.1068 234.047C73.3752 237.011 70.801 239.392 67.7122 240.887C64.6234 242.382 61.1599 242.923 57.7629 242.441C54.3658 241.959 51.1891 240.475 48.6374 238.18C46.0858 235.885 44.2746 232.881 43.4348 229.552C42.595 226.222 42.7646 222.718 43.9218 219.486C45.0791 216.253 47.1717 213.439 49.933 211.401C52.6944 209.363 55.9994 208.194 59.4271 208.042C61.6725 207.922 63.9196 208.246 66.04 208.995C68.1604 209.744 70.1125 210.904 71.7848 212.408C73.4572 213.913 74.817 215.732 75.7865 217.763C76.756 219.793 77.3163 221.995 77.4354 224.242Z" fill="#9E9E9E"/>
<path d="M46.73 56.623C44.7675 56.6772 42.8328 56.1495 41.1692 55.1063C39.5055 54.063 38.1873 52.5507 37.3802 50.7597C36.573 48.9686 36.3131 46.9787 36.6331 45.0402C36.953 43.1017 37.8385 41.3011 39.1783 39.8649C40.5181 38.4287 42.2522 37.421 44.1627 36.9686C46.0732 36.5162 48.0747 36.6392 49.9156 37.3221C51.7564 38.0051 53.3543 39.2175 54.5084 40.807C55.6626 42.3964 56.3213 44.2919 56.4019 46.255C56.4786 48.9095 55.5059 51.4872 53.6951 53.4283C51.8843 55.3695 49.3814 56.5174 46.73 56.623Z" fill="#616262"/>
</svg>
