<svg width="256" height="256" viewBox="0 0 256 256" fill="none" xmlns="http://www.w3.org/2000/svg">
<path d="M196 0H60C26.8629 0 0 26.8629 0 60V196C0 229.137 26.8629 256 60 256H196C229.137 256 256 229.137 256 196V60C256 26.8629 229.137 0 196 0Z" fill="#242938"/>
<path d="M204.361 48H50.6395C45.1705 48.016 39.9301 50.1998 36.0629 54.0743C32.1957 57.9487 30.016 63.1991 30 68.6784V187.322C30.016 192.801 32.1957 198.051 36.0629 201.926C39.9301 205.8 45.1705 207.984 50.6395 208H204.361C209.829 207.984 215.07 205.8 218.937 201.926C222.804 198.051 224.984 192.801 225 187.322V68.6784C224.984 63.1991 222.804 57.9487 218.937 54.0743C215.07 50.1998 209.829 48.016 204.361 48ZM112.397 164.349L74.8821 186.192C73.7423 186.855 72.4833 187.287 71.1768 187.464C69.8704 187.64 68.5421 187.556 67.2678 187.218C64.6943 186.535 62.497 184.855 61.1593 182.549C59.8217 180.243 59.4532 177.499 60.135 174.921C60.8168 172.342 62.493 170.141 64.7948 168.801L102.31 146.958C103.45 146.293 104.709 145.86 106.016 145.683C107.323 145.506 108.652 145.589 109.927 145.926C111.203 146.264 112.399 146.851 113.447 147.652C114.496 148.453 115.377 149.454 116.04 150.596C116.703 151.739 117.134 153.001 117.31 154.31C117.485 155.62 117.401 156.952 117.063 158.229C116.725 159.506 116.139 160.704 115.338 161.754C114.537 162.804 113.538 163.686 112.397 164.349ZM127.156 131.071H127.111C125.792 131.065 124.488 130.799 123.272 130.288C122.057 129.778 120.953 129.032 120.025 128.094C119.097 127.156 118.363 126.044 117.864 124.822C117.365 123.599 117.111 122.29 117.116 120.97L117.305 77.67C117.316 75.0105 118.379 72.4638 120.26 70.5873C122.141 68.7107 124.687 67.6569 127.342 67.6564H127.387C130.049 67.6681 132.598 68.7388 134.472 70.6331C136.346 72.5274 137.393 75.0901 137.381 77.7574L137.193 121.057C137.181 123.717 136.119 126.263 134.238 128.14C132.357 130.016 129.81 131.07 127.156 131.071ZM193.534 182.521C192.875 183.665 191.998 184.668 190.952 185.472C189.906 186.277 188.712 186.867 187.439 187.208C186.166 187.55 184.837 187.637 183.53 187.465C182.223 187.292 180.963 186.863 179.821 186.202L142.251 164.47C141.108 163.81 140.106 162.931 139.303 161.883C138.499 160.835 137.909 159.639 137.567 158.363C137.225 157.087 137.138 155.755 137.31 154.445C137.482 153.135 137.91 151.871 138.569 150.727C139.229 149.582 140.107 148.579 141.153 147.775C142.2 146.971 143.395 146.381 144.669 146.04C145.943 145.698 147.272 145.612 148.58 145.785C149.887 145.959 151.148 146.389 152.29 147.05L189.86 168.782C191.001 169.443 192.002 170.322 192.805 171.37C193.607 172.418 194.196 173.613 194.537 174.889C194.878 176.165 194.965 177.496 194.793 178.805C194.621 180.114 194.193 181.377 193.534 182.521Z" fill="#FFC61C"/>
</svg>
