<svg width="256" height="256" viewBox="0 0 256 256" fill="none" xmlns="http://www.w3.org/2000/svg">
<path d="M196 0H60C26.8629 0 0 26.8629 0 60V196C0 229.137 26.8629 256 60 256H196C229.137 256 256 229.137 256 196V60C256 26.8629 229.137 0 196 0Z" fill="#F4F2ED"/>
<path d="M146.469 163.575L173.76 216.196H216.897L168.012 122.83L146.469 163.575ZM59.5062 191.791L79.4853 167.459L111.432 216.196L90.9259 118.435L73.6127 155.248L59.5062 191.791Z" fill="#409B83"/>
<path d="M59.5062 191.789L90.9259 118.428L70.9524 142.775L39 94.0339L59.5062 191.789ZM212.786 39.5436H169.649L143.227 90.0025V39.5422H103.653V91.8742L124.752 192.391L129.667 216.195H143.226V172.033L212.786 39.5436Z" fill="#56C5A8"/>
</svg>
