<svg width="256" height="256" viewBox="0 0 256 256" fill="none" id="kdenlive" xmlns="http://www.w3.org/2000/svg">
<style>
#kdenlive {
    rect {fill: #242938}
    
    @media (prefers-color-scheme: light) {
        rect {fill: #F4F2ED}
    }
}   
</style>
<rect width="256" height="256" fill="#242938" rx="60"/>
<path d="M101 70.5859V79.5513H112.932V70.5859H101Z" fill="#83B9F5"/>
<path d="M91.6172 85.0498V94.0152H113.049V85.0498H91.6172Z" fill="#83B9F5"/>
<path d="M66.4766 99.5146V108.48H112.932V99.5146H66.4766Z" fill="#83B9F5"/>
<path d="M40.875 113.858V122.824H112.934V113.858H40.875Z" fill="#83B9F5"/>
<path d="M23.9609 128.323V137.289H112.934V128.323H23.9609Z" fill="#83B9F5"/>
<path d="M52.1133 142.668V151.633H112.935V142.668H52.1133Z" fill="#83B9F5"/>
<path d="M76.9023 157.132V166.097H113.048V157.132H76.9023Z" fill="#83B9F5"/>
<path d="M67.1719 171.477V180.442H113.049V171.477H67.1719Z" fill="#83B9F5"/>
<path d="M90.8047 185.224V194.189H112.932V185.224H90.8047Z" fill="#83B9F5"/>
<path d="M149.27 47.166H111.592L130.228 76.8463L149.27 47.166Z" fill="#F38577"/>
<path d="M132.66 52.6006V208.109H127.798V52.6006H132.66Z" fill="#F38577"/>
<path d="M150.513 70.5654C148.784 70.5654 147.285 71.9931 147.285 73.7775V191.194C147.285 193.811 150.168 195.358 152.243 193.811L230.642 135.163C232.371 133.854 232.371 131.237 230.642 129.928L152.243 71.2792C151.782 70.8033 151.205 70.5654 150.513 70.5654Z" fill="#527EB2"/>
</svg>
