<svg width="256" height="256" viewBox="0 0 256 256" fill="none" xmlns="http://www.w3.org/2000/svg" id="kubevela">
<style>
#kubevela {
    rect {fill: #242938}
    path[fill="#F1F1F1"] {fill: #F1F1F1}

    @media (prefers-color-scheme: light) {
        rect {fill: #F4F2ED}
        path[fill="#F1F1F1"] {fill: #131313}
    }
}
</style>
<rect width="256" height="256" rx="60" fill="#242938"/>
<path d="M69.457 211.169C71.6583 215.043 74.8439 218.268 78.6916 220.516C82.5393 222.764 86.9126 223.956 91.369 223.971C95.671 223.935 99.889 222.771 103.609 220.588C105.567 219.457 107.789 218.861 110.05 218.861C112.311 218.861 114.533 219.457 116.491 220.588C120.104 222.64 124.173 223.755 128.327 223.832C132.482 223.908 136.589 222.944 140.275 221.026C142.19 220.006 144.327 219.472 146.497 219.472C148.667 219.472 150.804 220.006 152.719 221.026C164.761 227.247 179.503 222.765 186.175 210.863L69.457 211.169Z" fill="#F1F1F1"/>
<path d="M199.491 166.98L199.191 162.001C196.143 112.832 178.041 66.6448 148.239 32V164.61L199.491 166.98ZM141.249 164.268V59.7638C113.772 87.3829 96.2104 123.319 91.3047 161.965L141.249 164.268Z" fill="#006FFF"/>
<path d="M95.384 171.653L91.364 162.001L44 159.799L57.014 191.054C59.8793 196.118 64.6292 199.846 70.2297 201.425C75.8303 203.005 81.8282 202.309 86.918 199.489C91.778 196.711 97.718 196.711 102.578 199.489C105.845 201.31 109.523 202.266 113.264 202.266C117.005 202.266 120.683 201.31 123.95 199.489C128.81 196.711 134.75 196.711 139.61 199.489C142.877 201.31 146.555 202.266 150.296 202.266C154.037 202.266 157.715 201.31 160.982 199.489C165.842 196.711 171.782 196.711 176.642 199.489C181.736 202.34 187.753 203.052 193.372 201.471C198.991 199.89 203.753 196.143 206.612 191.054L212 180.058L99.968 174.875C98.9753 174.837 98.0144 174.514 97.2012 173.944C96.3879 173.373 95.7569 172.58 95.384 171.659V171.653Z" fill="#F1F1F1"/>
</svg>
