<svg width="256" height="256" viewBox="0 0 256 256" fill="none" id="lancedb" xmlns="http://www.w3.org/2000/svg" xmlns:xlink="http://www.w3.org/1999/xlink">
<style>
#lancedb {
    rect {fill: #242938}
    
    @media (prefers-color-scheme: light) {
        rect {fill: #F4F2ED}
        path {fill: #000000} 
    }
}  
</style>
<g clip-path="url(#a)">
<g mask="url(#b)">
<rect width="256" height="256" fill="#242938" rx="60"/>
<path d="m177.479 95.9822c3.141-10.6946 13.029-18.503 24.74-18.503 14.238 0 25.781 11.5426 25.781 25.7808 0 14.239-11.543 25.782-25.781 25.782-11.711 0-21.599-7.809-24.74-18.503-2.463 8.386-9.075 14.998-17.461 17.461 10.694 3.141 18.503 13.029 18.503 24.74 0 14.238-11.543 25.781-25.781 25.781-11.711 0-21.599-7.809-24.74-18.503-2.463 8.386-9.075 14.998-17.461 17.461 10.694 3.141 18.503 13.029 18.503 24.74 0 14.238-11.543 25.781-25.782 25.781-14.2382 0-25.7808-11.543-25.7808-25.781 0-11.711 7.8084-21.599 18.503-24.74-8.3865-2.463-14.9981-9.075-17.4614-17.461-3.1412 10.694-13.0285 18.503-24.7396 18.503-14.2385 0-25.7812-11.543-25.7812-25.781 0-11.711 7.8084-21.599 18.503-24.74-10.6946-3.141-18.503-13.029-18.503-24.74 0-11.7106 7.8084-21.598 18.503-24.7392-10.6946-3.1412-18.503-13.0285-18.503-24.7396 0-14.2385 11.5427-25.7812 25.7812-25.7812 11.7111 0 21.5984 7.8084 24.7396 18.503 3.1412-10.6946 13.0286-18.503 24.7392-18.503 11.711 0 21.599 7.8084 24.74 18.503 3.141-10.6946 13.029-18.503 24.74-18.503 14.238 0 25.781 11.5427 25.781 25.7812 0 11.7111-7.809 21.5984-18.503 24.7396 8.386 2.4633 14.998 9.0749 17.461 17.4614zm-32.018 32.0178c-10.694-3.141-18.503-13.029-18.503-24.74 0-11.7106 7.809-21.598 18.503-24.7392-8.386-2.4632-14.998-9.0749-17.461-17.4613-3.141 10.6946-13.029 18.503-24.74 18.503-11.7106 0-21.598-7.8084-24.7392-18.503-2.4632 8.3864-9.0749 14.9981-17.4613 17.4613 10.6946 3.1412 18.503 13.0286 18.503 24.7392 0 11.711-7.8084 21.599-18.503 24.74 8.3864 2.463 14.9981 9.075 17.4613 17.461 3.1412-10.694 13.0286-18.503 24.7392-18.503 11.711 0 21.599 7.809 24.74 18.503 2.463-8.386 9.075-14.998 17.461-17.461zm82.539 74.219c0 14.238-11.543 25.781-25.781 25.781-14.239 0-25.781-11.543-25.781-25.781 0-14.239 11.542-25.781 25.781-25.781 14.238 0 25.781 11.542 25.781 25.781z" fill="#fff" fill-rule="evenodd"/>
</g>
</g>
</svg>
