<svg width="256" height="256" viewBox="0 0 256 256" fill="none" xmlns="http://www.w3.org/2000/svg" id="lando">
<style>
#lando {
    rect {fill: #242938}
    
    @media (prefers-color-scheme: light) {
        rect {fill: #F4F2ED}
    }
}  
</style>
<rect width="256" height="256" fill="#242938" rx="60"/>
<path d="M121.786 30.0555C121.758 30.0835 120.636 30.2237 119.346 30.3078C115.869 30.5881 114.747 30.7563 109.502 31.7093C106.978 32.1579 103.893 32.8867 101.089 33.6996C97.4145 34.7648 90.7116 37.1194 90.291 37.5119C90.1507 37.652 89.8983 37.7642 89.702 37.7642C89.113 37.7642 82.326 41.128 78.7923 43.1743C75.9036 44.8562 71.3602 47.7995 69.9579 48.8927C69.7336 49.0609 68.5276 50.014 67.2936 50.9671C64.7414 52.9573 61.4882 55.8446 58.5995 58.7038C44.9693 72.187 35.1253 90.7159 31.6757 109.385C31.3953 110.758 31.1709 112.104 31.1148 112.328C31.0587 112.581 30.9465 113.534 30.8344 114.431C30.7222 115.356 30.5819 116.365 30.5259 116.673C29.8247 120.457 29.8247 135.538 30.5259 139.435C30.5819 139.715 30.7222 140.696 30.8344 141.621C30.9465 142.518 31.0868 143.527 31.1429 143.864C31.1989 144.172 31.3392 144.873 31.4233 145.406C31.844 148.041 33.1341 153.254 34.2559 156.899C39.0517 172.428 47.4093 186.22 58.8799 197.6C68.9763 207.636 80.9518 215.232 94.3576 220.166C100.219 222.296 108.577 224.427 114.13 225.155C114.747 225.212 115.7 225.352 116.233 225.436C121.618 226.193 133.874 226.193 140.016 225.408C148.317 224.371 158.189 221.736 165.874 218.512C169.183 217.138 175.858 213.803 177.288 212.85C177.877 212.429 178.438 212.121 178.578 212.121C178.691 212.121 178.943 211.981 179.139 211.84C179.336 211.672 180.934 210.607 182.701 209.43C189.993 204.608 196.219 199.086 202.754 191.63C203.23 191.097 204.044 190.116 204.577 189.415C205.11 188.714 205.642 188.014 205.783 187.873C210.214 182.463 216.019 172.26 219.104 164.467C221.095 159.477 223.227 152.47 224.068 148.209C224.629 145.293 225.078 142.743 225.19 141.481C225.302 140.64 225.415 139.771 225.499 139.547C226.172 137.445 226.172 117.402 225.471 116.253C225.415 116.169 225.302 115.356 225.19 114.459C225.106 113.534 224.966 112.721 224.938 112.637C224.882 112.553 224.741 111.824 224.657 111.067C224.349 108.712 223.143 103.695 221.937 99.714C216.664 82.1943 206.147 65.9359 192.405 54.1066C190.862 52.733 189.516 51.5838 189.432 51.4997C188.563 50.6026 179.251 44.2114 178.775 44.2114C178.634 44.2114 178.494 44.0713 178.494 43.9311C178.494 43.7629 178.354 43.6508 178.214 43.6508C178.046 43.6508 177.4 43.3144 176.727 42.894C173.502 40.8476 165.341 37.1475 160.265 35.4095C152.3 32.6624 148.177 31.7654 137.267 30.3078C135.949 30.1396 121.954 29.8873 121.786 30.0555ZM134.743 42.6417C136.174 42.7538 137.576 42.894 137.912 42.95C138.249 43.0061 139.09 43.1182 139.791 43.2023C143.157 43.6228 149.383 44.9403 151.879 45.7812C152.58 46.0055 153.393 46.2297 153.702 46.2858C155.273 46.5941 163.322 49.8738 166.575 51.5557C170.053 53.3217 176.447 57.134 177.709 58.1992C177.905 58.3674 179.027 59.2364 180.177 60.1054C187.329 65.5155 195.35 74.1212 199.669 81.045C203.034 86.427 205.138 90.4075 207.073 95.0608C208.363 98.1162 208.391 98.2284 207.858 97.7799C207.101 97.1632 202.389 95.5654 199.893 95.0888C195.406 94.2479 192.209 93.9956 185.506 93.9956C176.699 93.9676 172.1 94.332 171.483 95.1169C171.006 95.6494 171.847 95.9858 174.119 96.2101C181.131 96.8268 186.235 99.3777 187.16 102.713C188.366 107.03 185.253 110.366 175.774 114.879C173.558 115.944 171.707 116.813 171.623 116.813C171.567 116.813 171.259 115.888 170.922 114.767C166.996 101.003 157.516 90.2954 144.531 84.9133C142.4 84.0444 138.165 82.7269 136.594 82.4746C136.117 82.3905 134.968 82.1943 134.042 82.0261C131.911 81.6337 125.544 81.5215 122.88 81.8299C107.707 83.5398 94.638 92.4819 87.7949 105.881C85.2428 110.871 84.0929 114.403 83.2796 119.701C82.2699 126.26 82.7747 133.184 84.7099 139.603C85.1306 140.949 85.411 142.098 85.3549 142.154C85.2988 142.238 84.2331 142.406 82.9991 142.574C81.7651 142.743 80.1385 142.967 79.3532 143.079C78.596 143.191 76.3243 143.275 74.305 143.303C68.9763 143.303 66.34 142.266 65.1621 139.687C63.4233 135.847 66.0596 131.053 72.9868 125.531C74.2769 124.494 74.5013 123.821 73.5758 123.821C72.8747 123.821 68.3313 126.176 64.4049 128.559C62.9746 129.428 61.404 130.381 60.8992 130.689C59.6652 131.446 53.4671 135.959 52.4294 136.856C49.0359 139.855 46.5399 142.574 45.0535 144.985C44.5486 145.742 44.156 146.247 44.156 146.106C44.156 145.938 43.9597 144.761 43.7353 143.443C43.511 142.126 43.2305 140.416 43.1464 139.659C43.0622 138.874 42.95 138.089 42.8659 137.865C42.2489 136.015 42.2489 121.439 42.8659 118.355C42.922 118.047 43.0622 117.038 43.1464 116.113C43.4268 113.646 44.801 107.114 45.5583 104.62C48.0543 96.5465 50.8028 90.2113 54.589 83.9042C66.0876 64.7867 84.7099 50.8269 106.277 45.1926C111.409 43.847 117.355 42.8659 121.982 42.6136C123.525 42.5295 124.815 42.4454 124.843 42.4174C124.983 42.3053 132.471 42.4735 134.743 42.6417ZM211.953 110.506C213.355 118.804 213.635 121.719 213.635 127.465C213.663 131.053 213.355 137.22 213.159 137.893C213.074 138.089 212.962 138.874 212.878 139.659C211.728 149.919 207.381 162.281 201.464 172.092C199.949 174.615 196.079 180.333 195.63 180.725C195.518 180.809 194.901 181.566 194.2 182.407C191.507 185.715 187.469 189.864 184.244 192.639C183.178 193.564 182.056 194.545 181.748 194.797C181.467 195.05 179.784 196.311 178.046 197.544C156.114 213.186 128.882 217.699 103.08 209.962C94.8904 207.524 85.1306 202.73 78.2314 197.741C71.5285 192.919 65.4426 187.033 59.7493 179.884C58.8799 178.791 55.5986 173.914 54.4207 171.923C52.2051 168.279 49.7371 163.178 48.2226 159.253L47.5776 157.515L49.4005 158.328C51.532 159.309 55.4864 160.374 58.4592 160.795C59.6091 160.963 61.0675 161.187 61.6845 161.271C63.5074 161.524 76.6047 161.608 79.4934 161.356C80.9518 161.243 83.1113 161.047 84.2612 160.963C86.7292 160.767 93.1516 159.982 95.7598 159.59C95.9842 159.533 97.1621 160.374 98.3961 161.44C104.061 166.345 110.315 169.597 117.355 171.279C121.534 172.316 122.01 172.372 127.311 172.456C136.847 172.624 144.98 170.298 152.833 165.084C161.723 159.225 168.398 150.031 171.202 139.771L171.876 137.36L177.064 134.866C193.723 126.877 205.839 118.355 210.494 111.347C211.139 110.366 211.728 109.553 211.756 109.609C211.784 109.637 211.868 110.03 211.953 110.506Z" fill="#DD3F8F"/>
</svg>
