<svg width="256" height="256" viewBox="0 0 256 256" fill="none" xmlns="http://www.w3.org/2000/svg" id="lcedrs">
<style>
#lcedrs{
    path.rect {fill: #242938}
    stop.text {stop-color: white}

    @media (prefers-color-scheme: light) {
        path.rect {fill: #F4F2ED}
        stop.text {stop-color: black}
    }
}
</style>
<path d="M196 0H60C26.8629 0 0 26.8629 0 60V196C0 229.137 26.8629 256 60 256H196C229.137 256 256 229.137 256 196V60C256 26.8629 229.137 0 196 0Z" fill="#242938" class="rect"/>
<path fill-rule="evenodd" clip-rule="evenodd" d="M195.932 64.3422L161.256 99.5285L153.701 92.1125L188.377 56.9263L195.932 64.3422ZM163.464 64.6104L111.451 117.39L103.896 109.974L155.91 57.1945L163.464 64.6104ZM87.4875 94.0241C94.0507 87.4027 100.613 80.7828 114.07 67.127L121.625 74.543C108.158 88.2086 101.588 94.836 95.0201 101.462C89.5965 106.934 84.1736 112.406 74.8588 121.848L114.268 132.128L146.272 99.6528L153.827 107.069L121.823 139.544L132.8 178.792L184.733 127.024L192.221 134.506L131.697 194.839L75.2063 179.306L58.6991 123.16L60.8822 120.945C74.3503 107.278 80.9186 100.65 87.4875 94.0241ZM122.512 181.344L111.61 142.366L72.3803 132.132L83.7119 170.675L122.512 181.344ZM181.341 111.826L190.118 103.066L182.625 95.5877L173.817 104.379L136.633 142.109L144.188 149.525L181.341 111.826Z" fill="url(#paint0_linear_0_1)"/>
<defs>
<linearGradient id="paint0_linear_0_1" x1="76.9748" y1="178.161" x2="224.463" y2="26.637" gradientUnits="userSpaceOnUse">
<stop class="text" stop-color="white"/>
<stop class="text" offset="1" stop-color="white"/>
</linearGradient>
</defs>
</svg>
