

<svg width="256" height="256" viewBox="0 0 256 256" xmlns="http://www.w3.org/2000/svg" id="librewolf">
<style>
#librewolf {
  fill: #242938;
}

@media (prefers-color-scheme: light) {
  #background-rect {
    fill: #F4F2ED;
  }
}
</style>
<rect id="background-rect" width="256" height="256" rx="60" ry="60"/>
<g clip-path="url(#clip1_37_45)">
<path d="M128 228C183.229 228 228 183.229 228 128C228 72.7715 183.229 28 128 28C72.7715 28 28 72.7715 28 128C28 183.229 72.7715 228 128 228Z" fill="#00ACFF"/>
<path d="M117.873 207.466C103.865 205.668 90.4657 200.084 78.7729 191.171C74.9592 188.263 67.8036 181.061 64.6799 176.986C55.9326 165.575 50.4934 152.624 48.699 138.935C47.9308 133.075 47.9351 122.301 48.7076 116.945C52.57 90.1702 69.4201 67.2046 93.6165 55.7367C104.871 50.4026 115.172 48.1448 128.254 48.1448C149.414 48.1448 168.195 55.726 183.414 70.4104C190.746 77.4845 195.663 84.1941 199.873 92.8714C205.568 104.609 207.874 114.818 207.874 128.29C207.874 146.025 202.753 161.491 192.116 175.879C188.955 180.155 182.78 186.649 178.682 190.008C167.442 199.222 153.115 205.457 138.899 207.32C133.987 207.964 122.384 208.044 117.873 207.466ZM147.523 193.099C156.081 190.401 163.055 186.776 169.789 181.525C173.369 178.733 179.557 172.485 182.151 169.043C189.189 159.708 193.977 148.014 195.386 136.722C196.064 131.284 195.67 119.779 194.634 114.785C191.89 101.555 185.978 90.3801 176.664 80.8178C170.857 74.8563 165.571 70.9269 158.77 67.5169C148.45 62.3426 139.607 60.2519 127.992 60.2401C115.696 60.2283 104.915 63.0459 94.2444 69.0619C84.5306 74.5386 74.4887 84.592 68.9889 94.3464C64.9383 101.53 61.9736 110.056 60.8168 117.846C60.0583 122.954 60.0434 133.098 60.7871 137.989C62.2755 147.777 65.9883 157.45 71.3707 165.564C74.3099 169.995 74.2176 169.946 76.8104 168.463C81.4485 165.809 82.6581 164.525 85.1847 159.575C88.1393 153.787 91.2983 148.728 94.1525 145.215C97.4473 141.16 97.9002 140.438 99.5531 136.609C100.385 134.682 101.877 131.853 102.869 130.321L104.672 127.536L102.339 125.243C99.2398 122.197 96.6617 118.742 96.1767 116.985C95.6813 115.191 96.2659 114.19 98.5942 112.845C100.949 111.486 102.632 111.095 108.925 110.448C111.989 110.133 115.315 109.556 116.363 109.158C117.405 108.762 120.52 107.067 123.284 105.391C131.265 100.553 131.94 100.302 136.725 100.406C140.767 100.494 140.774 100.492 143.171 99.0435C148.192 96.0081 155.404 90.531 164.894 82.5455C166.714 81.0142 168.467 79.8122 168.79 79.8743C170.132 80.133 172.598 86.1825 172.972 90.137C173.199 92.5354 172.735 94.9071 171.313 98.6191C170.925 99.6319 170.746 100.599 170.915 100.768C171.322 101.173 172.718 99.4284 172.718 98.5152C172.718 97.3508 173.489 97.2179 174.538 98.2015C175.301 98.9166 175.958 99.1213 177.491 99.1213C179.166 99.1213 179.58 99.2766 180.234 100.149C181.343 101.628 181.603 105.661 180.754 108.216C179.928 110.702 177.433 113.569 175.168 114.634C173.141 115.587 169.039 119.592 167.119 122.493C166.384 123.604 165.006 125.918 164.056 127.637C163.107 129.356 161.515 131.953 160.518 133.408C158.556 136.271 156.877 140.265 155.256 145.921C154.303 149.244 154.223 150.109 154.184 157.52C154.136 166.472 153.673 168.668 151.253 171.425C148.502 174.558 145.755 181.44 145.524 185.779C145.379 188.518 144.957 191.187 144.357 193.164C144.093 194.035 144.586 194.025 147.523 193.099Z" fill="white"/>
<path d="M131.214 109.957L134.822 105.336L140.627 104.522L137.019 109.142L131.214 109.957Z" fill="#00ACFF"/>
</g>
<defs>
<clipPath id="clip1_37_45">
<rect width="200" height="200" fill="white" transform="translate(28 28)"/>
</clipPath>
</defs>
</svg>
