<svg width="256" height="256" viewBox="0 0 256 256" fill="none" id="libreoffice" xmlns="http://www.w3.org/2000/svg">
<style>
#libreoffice {
    rect {fill: #242938}

    @media (prefers-color-scheme: light) {
        rect {fill: #F4F2ED}
    }
}
</style>
<g clip-path="url(#clip0_312_2)">
<rect width="256" height="256" fill="#242938" rx="60"/>
<path d="M63.2737 39C62.927 39 62.5804 39.0155 62.2352 39.0489C57.1578 40.022 55.9135 42.2004 56.0046 47.3899V208.659C56.0051 214.482 58.5127 216.999 64.3121 217H191.692C197.492 216.999 199.997 214.482 199.997 208.659V108.787C200.064 105.85 198.917 102.904 196.882 100.793L138.507 42.1778C136.405 40.1347 133.471 38.9809 130.546 39.0489H64.3121C63.9671 39.0155 63.6204 39 63.2737 39ZM160.213 39.0869C159.922 39.0869 159.672 39.0869 159.341 39.0869C155.691 39 154.414 45.9073 157.256 48.5578L190.619 82.2397C193.701 85.1902 199.838 82.6656 200 78.3802V44.6983C200 41.7589 197.351 39.0873 194.44 39.0869H161.08C160.759 39.0869 160.503 39.0869 160.213 39.0869Z" fill="url(#paint0_linear_312_2)"/>
<path d="M65 47V209H191V108.448L130.739 47H65Z" fill="url(#paint1_linear_312_2)"/>
</g>
<defs>
<linearGradient id="paint0_linear_312_2" x1="188.923" y1="208.656" x2="66.4439" y2="47.8274" gradientUnits="userSpaceOnUse">
<stop stop-color="#535353"/>
<stop offset="1" stop-color="#7E7E7E"/>
</linearGradient>
<linearGradient id="paint1_linear_312_2" x1="188.261" y1="209" x2="64.7383" y2="49.3213" gradientUnits="userSpaceOnUse">
<stop stop-color="#E6E6E6"/>
<stop offset="1" stop-color="white"/>
</linearGradient>
<clipPath id="clip0_312_2">
<rect width="256" height="256" fill="white"/>
</clipPath>
</defs>
</svg>
