<svg width="256" height="256" viewBox="0 0 256 256" fill="none" xmlns="http://www.w3.org/2000/svg">
<path d="M196 0H60C26.8629 0 0 26.8629 0 60V196C0 229.137 26.8629 256 60 256H196C229.137 256 256 229.137 256 196V60C256 26.8629 229.137 0 196 0Z" fill="#0066FF"/>
<mask id="mask0_0_1" style="mask-type:alpha" maskUnits="userSpaceOnUse" x="32" y="32" width="191" height="191">
<path d="M127.5 222.656C180.053 222.656 222.656 180.053 222.656 127.5C222.656 74.9468 180.053 32.3438 127.5 32.3438C74.9468 32.3438 32.3438 74.9468 32.3438 127.5C32.3438 180.053 74.9468 222.656 127.5 222.656Z" fill="#0535C1"/>
</mask>
<g mask="url(#mask0_0_1)">
<path d="M127.5 222.656C180.053 222.656 222.656 180.053 222.656 127.5C222.656 74.9468 180.053 32.3438 127.5 32.3438C74.9468 32.3438 32.3438 74.9468 32.3438 127.5C32.3438 180.053 74.9468 222.656 127.5 222.656Z" fill="#0066FF"/>
<path d="M175.078 121.553C166.319 121.553 159.219 114.452 159.219 105.693C159.219 96.9342 166.319 89.834 175.078 89.834C183.336 89.834 190.119 96.146 190.869 104.207C190.945 105.026 191.604 105.693 192.425 105.693H198.867C200.97 105.693 202.987 106.529 204.474 108.016C205.961 109.503 206.797 111.52 206.797 113.623C206.797 115.726 205.961 117.743 204.474 119.23C202.987 120.717 200.97 121.553 198.867 121.553H175.078Z" fill="#5DBCEB"/>
<path d="M126.712 48.6948L96.4807 67.5912C96.2668 67.7248 96.0903 67.9107 95.968 68.1312C95.8456 68.3518 95.7814 68.5998 95.7813 68.852V100.242C95.7813 101.062 95.1152 101.729 94.2936 101.729H81.4095C81.2141 101.728 81.0205 101.767 80.84 101.841C80.6594 101.916 80.4953 102.026 80.3571 102.164C80.2189 102.302 80.1094 102.466 80.0347 102.647C79.96 102.827 79.9217 103.021 79.9219 103.216V120.065C79.9219 120.887 80.588 121.553 81.4095 121.553H94.0795C94.9804 121.553 95.6734 122.346 95.5529 123.239L80.1503 236.83C80.1217 237.04 80.1385 237.254 80.1996 237.457C80.2607 237.661 80.3646 237.848 80.5044 238.008C80.6441 238.168 80.8164 238.296 81.0098 238.383C81.2031 238.471 81.4129 238.516 81.6252 238.516H173.376C173.589 238.516 173.798 238.47 173.991 238.383C174.184 238.295 174.357 238.167 174.496 238.007C174.636 237.848 174.739 237.66 174.8 237.457C174.861 237.254 174.878 237.04 174.85 236.83L159.447 123.239C159.419 123.028 159.435 122.814 159.497 122.611C159.558 122.408 159.662 122.22 159.801 122.06C159.941 121.901 160.113 121.773 160.307 121.685C160.5 121.598 160.71 121.552 160.922 121.553H173.592C174.412 121.553 175.078 120.887 175.078 120.065V103.216C175.078 103.021 175.04 102.827 174.965 102.647C174.891 102.466 174.781 102.302 174.643 102.164C174.505 102.026 174.341 101.916 174.16 101.841C173.979 101.767 173.786 101.728 173.591 101.729H160.706C160.312 101.729 159.933 101.572 159.654 101.293C159.375 101.014 159.219 100.635 159.219 100.241V68.852C159.219 68.6 159.155 68.352 159.033 68.1315C158.911 67.9109 158.735 67.725 158.521 67.5912L128.287 48.6948C128.05 48.5471 127.777 48.4688 127.498 48.4688C127.22 48.4688 126.948 48.5471 126.712 48.6948Z" fill="#FF6633"/>
<path d="M83.5933 211.437L87.7849 180.529L162.172 143.336L165.83 170.319L83.5933 211.437ZM156.313 238.516H98.6866L170.228 202.745L173.887 229.73L156.313 238.516ZM136.489 121.553L92.8202 143.386L95.7812 121.553H136.489Z" fill="#FFA385"/>
<path d="M115.605 79.9219C115.605 78.8276 116.494 77.9395 117.588 77.9395H137.412C138.506 77.9395 139.395 78.8276 139.395 79.9219V99.7461C139.395 100.84 138.506 101.729 137.412 101.729H117.588C116.494 101.729 115.605 100.84 115.605 99.7461V79.9219Z" fill="#FFFF33"/>
<path d="M64.0625 143.359C55.3034 143.359 48.2031 136.259 48.2031 127.5C48.2031 118.741 55.3034 111.641 64.0625 111.641C66.8817 111.64 69.6502 112.39 72.0827 113.815C74.5153 115.24 76.5238 117.288 77.9014 119.748C78.4945 120.804 79.5619 121.553 80.7719 121.553H95.7812C98.673 121.553 101.446 122.701 103.491 124.746C105.536 126.791 106.685 129.564 106.685 132.456C106.685 135.348 105.536 138.121 103.491 140.166C101.446 142.211 98.673 143.359 95.7812 143.359H64.0625Z" fill="white"/>
</g>
</svg>
