<svg width="256" height="256" viewBox="0 0 256 256" fill="none" id="liquidsoap" xmlns="http://www.w3.org/2000/svg">
<style>
#liquidsoap {
    rect {fill: #242938}
    
    @media (prefers-color-scheme: light) {
        rect {fill: #F4F2ED}
    }
}   
</style>
<rect width="256" height="256" fill="#242938" rx="60"/>
<path d="M61.2359 225.645C56.1573 224.671 51.0786 221.373 48.344 217.177L46 213.505V144.035V74.5647L48.344 70.8926C49.8285 68.6444 52.1725 66.3962 54.5165 64.9723C58.345 62.7241 58.5013 62.7241 70.69 62.4992C83.035 62.2744 83.1131 62.2744 85.0665 64.1479C86.3947 65.4969 87.0198 66.8458 87.0198 68.7193C87.0198 75.0143 83.8163 76.5881 71.1588 76.5881C65.377 76.5881 62.0173 76.8878 61.3922 77.4874C60.0639 78.7614 60.0639 209.308 61.3922 210.582C62.7204 211.856 141.01 211.856 142.338 210.582C143.666 209.308 143.666 78.7614 142.338 77.4874C141.713 76.8878 138.431 76.5881 132.649 76.5881C127.805 76.5881 122.961 76.2883 121.945 75.9136C116.632 73.9652 115.148 68.7193 118.742 64.5976L120.851 62.2744L133.118 62.4992C145.151 62.7241 145.385 62.7241 149.214 64.9723C151.558 66.3962 153.902 68.6444 155.386 70.8926L157.73 74.5647L157.965 142.836C158.121 203.687 158.043 211.481 156.949 214.254C154.37 220.624 149.604 224.296 142.104 225.645C136.556 226.619 66.4708 226.619 61.2359 225.645Z" fill="#990066"/>
<path d="M99.8316 171.987C98.8941 171.837 97.3314 170.863 96.3157 169.814L94.4405 167.865L94.2061 107.088C93.9717 38.6673 93.8154 40.9905 99.5972 34.9953C105.301 29.0749 105.613 29 141.711 29C176.714 29 177.105 29.0749 182.496 33.7213C187.966 38.4425 188.903 41.1404 189.216 52.4564C189.528 63.098 188.903 66.0207 185.934 67.9692C183.199 69.8427 179.371 69.393 176.793 66.92C174.527 64.7467 174.527 64.6718 174.527 55.6039C174.527 50.5829 174.136 45.8617 173.745 45.0373C172.964 43.6884 171.792 43.6134 142.102 43.6134C115.224 43.6134 111.161 43.7633 110.145 44.8125C109.051 45.8617 108.895 52.4564 108.895 106.639C108.895 148.68 108.661 167.865 108.036 168.914C107.332 170.113 102.488 172.811 101.707 172.436C101.551 172.362 100.691 172.137 99.8316 171.987Z" fill="#990066"/>
<path d="M196.013 102.442C189.762 100.344 185.074 92.5503 183.512 81.9087L183.043 78.6113L185.856 80.9345C190.231 84.6815 193.2 85.8806 197.888 85.8056C200.232 85.7307 203.123 86.1803 204.295 86.7799C208.827 88.9531 211.561 95.0233 209.843 98.6954C207.967 102.517 201.482 104.316 196.013 102.442Z" fill="#990066"/>
</svg>
