<svg width="256" height="256" viewBox="0 0 256 256" fill="none" xmlns="http://www.w3.org/2000/svg" id="litestar">
<style>
#litestar {
    rect {fill: #242938}

    @media (prefers-color-scheme: light) {
        rect {fill: #F4F2ED}
    }
}
</style>
<rect width="256" height="256" fill="#242938" rx="60"/>
<mask id="mask0_1394_2" style="mask-type:luminance" maskUnits="userSpaceOnUse" x="26" y="78" width="186" height="93">
<path d="M26 78.6221H211.858V170.34H26V78.6221Z" fill="white"/>
</mask>
<g mask="url(#mask0_1394_2)">
<path d="M104.432 159.21C112.695 155.441 119.875 151.289 125.754 147.441C136.998 140.087 151.37 126.412 152.159 125.321L146.892 121.803L142.33 118.755L156.77 118.192L161.411 118.011L162.672 113.547L166.599 99.6483L171.599 113.198L173.204 117.55L177.845 117.369L192.286 116.806L180.935 125.742L177.287 128.613L178.895 132.968L183.894 146.515L171.878 138.491L168.018 135.913L164.371 138.784L153.02 147.722L154.969 140.815L156.945 133.826L157.189 132.958C143.37 143.293 124.039 153.25 112.481 156.933C109.829 157.777 107.147 158.535 104.432 159.21ZM77.2541 169.791C97.7363 168.991 122.138 163.789 146.152 148.52L141.525 164.901L168.328 143.8L196.694 162.744L184.89 130.758L211.691 109.657L177.594 110.987L165.79 79.001L156.521 111.811L122.425 113.144L142.165 126.326C129.171 138.132 96.5823 163.309 53.4103 164.998C44.6814 165.338 35.5175 164.717 26 162.832C26 162.832 47.4871 170.956 77.2541 169.791Z" fill="#EDB641"/>
</g>
<mask id="mask1_1394_2" style="mask-type:luminance" maskUnits="userSpaceOnUse" x="101" y="63" width="130" height="130">
<path d="M101.082 63H230.58V192.537H101.082V63Z" fill="white"/>
</mask>
<g mask="url(#mask1_1394_2)">
<path d="M165.874 63.1187C130.135 63.1187 101.166 92.0644 101.166 127.769C101.166 134.532 102.205 141.048 104.132 147.173C106.947 145.773 109.636 144.324 112.195 142.851C110.846 138.054 110.125 132.996 110.125 127.769C110.125 97.0081 135.083 72.0685 165.874 72.0685C196.662 72.0685 221.62 97.0081 221.62 127.769C221.62 158.531 196.662 183.469 165.874 183.469C149.174 183.469 134.194 176.131 123.976 164.51C121.006 165.666 117.997 166.718 114.952 167.667C126.801 182.738 145.203 192.418 165.874 192.418C201.61 192.418 230.579 163.475 230.579 127.769C230.579 92.0644 201.61 63.1187 165.874 63.1187Z" fill="#EDB641"/>
</g>
<path d="M71.4777 119.135L75.0488 130.116H86.6043L77.2543 136.902L80.8254 147.883L71.4777 141.097L62.1277 147.883L65.6988 136.902L56.3511 130.116H67.9066L71.4777 119.135Z" fill="#EDB641"/>
<path d="M88.1067 82.9399L91.1893 92.4202H101.165L93.0947 98.2759L96.1772 107.756L88.1067 101.898L80.0363 107.756L83.1188 98.2759L75.0483 92.4202H85.0242L88.1067 82.9399Z" fill="#EDB641"/>
<path d="M37.1739 140.643L38.9746 146.173H44.7954L40.0867 149.591L41.885 155.123L37.1739 151.703L32.4675 155.123L34.2659 149.591L29.5571 146.173H35.3779L37.1739 140.643Z" fill="#EDB641"/>
</svg>
