<svg width="256" height="256" viewBox="0 0 256 256" fill="none" xmlns="http://www.w3.org/2000/svg">
<path d="M196 0H60C26.8629 0 0 26.8629 0 60V196C0 229.137 26.8629 256 60 256H196C229.137 256 256 229.137 256 196V60C256 26.8629 229.137 0 196 0Z" fill="#7270FF"/>
<path d="M136.705 209.117C125.601 206.779 114.1 199.589 106.07 190.061C103.393 186.856 101.112 184.431 101.013 184.518C100.914 184.691 97.8407 187.896 94.0732 191.707C84.6545 201.408 82.9691 202.534 77.9127 202.534C74.2444 202.534 72.9555 202.015 70.1795 199.589C67.5026 197.251 66.8086 195.951 66.8086 193.179C66.8086 189.455 67.4035 188.589 77.2187 178.714C80.4905 175.423 85.2494 170.312 87.728 167.454L92.2887 162.257L90.9006 154.461C88.8186 143.287 88.9177 117.129 90.9998 104.222C97.1467 66.2835 111.622 45.3219 131.847 45.4085C151.874 45.4951 162.284 62.6455 157.625 87.7649C154.155 106.215 140.175 134.799 124.411 156.02C120.545 161.131 117.372 166.068 117.372 166.934C117.372 169.793 122.528 177.328 127.782 182.092C136.408 189.975 144.934 192.227 153.56 188.762C160.302 186.163 164.366 181.313 168.431 171.092C170.315 166.588 173.587 164.422 178.842 164.422C188.657 164.422 192.127 171.611 187.665 182.352C181.518 196.731 168.531 206.865 153.064 209.464C146.521 210.503 143.05 210.503 136.705 209.117ZM118.264 126.397C123.817 117.042 130.757 101.97 133.433 93.3951C136.408 83.6938 136.705 68.3623 133.929 65.937C131.649 63.9448 129.765 64.9842 125.601 70.3546C118.463 79.8826 112.712 102.057 111.82 123.712C111.225 138.09 111.324 138.09 118.264 126.397Z" fill="white"/>
</svg>
