<svg width="256" height="256" viewBox="0 0 256 256" fill="none" xmlns="http://www.w3.org/2000/svg">
<path d="M196 0H60C26.8629 0 0 26.8629 0 60V196C0 229.137 26.8629 256 60 256H196C229.137 256 256 229.137 256 196V60C256 26.8629 229.137 0 196 0Z" fill="#242938"/>
<path d="M46 80.1221V176.366L128 224.488V200.62L66.4038 164.432V92.0563L46 80.1221Z" fill="#F96B13"/>
<path d="M189.596 92.0563V188.3L210 176.366V80.1221L189.596 92.0563Z" fill="#CC4E00"/>
<path d="M107.596 43.9343L189.596 92.0563L210 80.1221L128 32L107.596 43.9343Z" fill="#FFCA73"/>
<path d="M46 80.1218L66.4038 92.056L86.8075 80.1218L66.4038 68.1875L46 80.1218Z" fill="#FFCA73"/>
<path d="M66.4038 92.0563V164.047L86.8075 152.113V80.1221L66.4038 92.0563Z" fill="#CC4E00"/>
<path d="M128 200.62V224.489L148.404 212.554V188.301L128 200.62Z" fill="#CC4E00"/>
<path d="M66.4038 164.432L128 200.62L148.404 188.686L86.8075 152.498L66.4038 164.432Z" fill="#FFCA73"/>
<path d="M107.596 43.9346V68.1881L169.192 104.376V176.751L189.596 188.686V92.4416L107.596 43.9346Z" fill="#F96B13"/>
</svg>
