<svg width="256" height="256" viewBox="0 0 256 256" fill="none" xmlns="http://www.w3.org/2000/svg">
<path d="M196 0H60C26.8629 0 0 26.8629 0 60V196C0 229.137 26.8629 256 60 256H196C229.137 256 256 229.137 256 196V60C256 26.8629 229.137 0 196 0Z" fill="#F4F2ED"/>
<path fill-rule="evenodd" clip-rule="evenodd" d="M79.1076 68.1882L51.2138 87.3839C48.1823 89.47 46.0836 92.6048 45.3463 96.1475L42.6192 109.252C42.4746 109.947 42.154 110.596 41.6863 111.139L29.029 127.716C27.3248 129.697 27.3659 134.959 32.0336 138.33C33.8235 139.888 36.2166 143.382 38.9387 147.357C44.7021 155.772 51.94 166.34 58.0496 165.242C66.6951 162.208 77.2781 161.237 85.4034 165.242C101.198 178.866 97.3203 191.427 91.7602 209.435C89.5228 216.682 87.013 224.811 85.4034 234.245C92.9897 206.66 110.049 174.623 140.809 163.752C135.267 159.229 123.957 155.027 113.948 154.015C113.948 154.015 144.696 127.716 182.621 115.632C156.146 52.6981 112.446 22.6229 112.446 22.6229C110.219 19.8713 105.722 20.774 104.794 24.1589C104.049 34.108 102.813 40.8733 100.773 47.2505L85.4034 29.5321C83.7979 27.5985 80.5882 28.715 80.6043 31.2015C83.2066 45.6544 82.8414 53.7669 79.1076 68.1882ZM89.9265 66.8671L90.0182 66.8612C90.219 66.8484 90.4166 66.8222 90.6098 66.7837L89.9265 66.8671ZM110.721 34.4171C121.254 52.5995 126.025 62.929 127.644 82.2065C116.44 75.848 111.558 74.2298 103.318 74.2701C108.125 59.6686 109.593 50.8763 110.721 34.4171Z" fill="#131313"/>
<path d="M178.418 169.458C135.517 179.265 111.146 194.034 92.5083 234.248C125.965 178.169 227.246 188.198 227.246 188.198C225.354 179.038 205.217 161.569 191.973 150.855C191.973 150.855 202.658 137.732 226.278 131.089C226.278 131.089 180.865 133.718 154.427 147.979C162.992 152.495 173.963 160.116 178.418 169.458Z" fill="#131313"/>
</svg>
