<svg width="256" height="256" viewBox="0 0 256 256" fill="none" xmlns="http://www.w3.org/2000/svg">
<path d="M196 0H60C26.8629 0 0 26.8629 0 60V196C0 229.137 26.8629 256 60 256H196C229.137 256 256 229.137 256 196V60C256 26.8629 229.137 0 196 0Z" fill="#242938"/>
<path d="M18 152.145V115.937H26.5698V121.745H26.7762C27.535 119.765 28.8155 118.176 30.612 116.98C32.4085 115.783 34.5175 115.187 36.9361 115.187C38.6406 115.187 40.1721 115.477 41.5307 116.059C42.8892 116.64 44.0469 117.47 45.0038 118.551C45.9606 119.632 46.6553 120.948 47.0932 122.498H47.2662C47.866 120.995 48.7224 119.701 49.841 118.62C50.9569 117.539 52.2708 116.696 53.78 116.092C55.2892 115.488 56.9184 115.187 58.6703 115.187C61.0889 115.187 63.1923 115.694 64.9777 116.707C66.763 117.721 68.1579 119.131 69.1594 120.942C70.1608 122.754 70.663 124.877 70.663 127.312V152.145H62.0597V129.395C62.0597 127.892 61.8058 126.618 61.3009 125.57C60.7932 124.522 60.0567 123.725 59.0887 123.179C58.1207 122.633 56.924 122.36 55.4957 122.36C54.0674 122.36 52.8985 122.674 51.8496 123.3C50.8007 123.926 49.9833 124.798 49.3975 125.914C48.8089 127.031 48.516 128.316 48.516 129.775V152.148H40.1526V128.953C40.1526 127.585 39.8876 126.413 39.3575 125.435C38.8275 124.456 38.0799 123.697 37.1119 123.162C36.1439 122.627 34.9917 122.36 33.6555 122.36C32.3193 122.36 31.0528 122.691 29.9927 123.35C28.9326 124.012 28.0985 124.911 27.4876 126.049C26.8767 127.188 26.5726 128.498 26.5726 129.979V152.148H18V152.145ZM86.9406 152.76C84.5219 152.76 82.3851 152.3 80.53 151.376C78.6748 150.455 77.2354 149.167 76.2116 147.515C75.185 145.863 74.6745 143.969 74.6745 141.829V141.76C74.6745 139.598 75.2213 137.747 76.3148 136.209C77.4083 134.673 78.9929 133.454 81.0656 132.555C83.1383 131.656 85.649 131.115 88.5976 130.933L102.593 130.078V135.715L89.8083 136.501C87.6882 136.639 86.0646 137.138 84.9376 138.004C83.8078 138.87 83.2443 140.02 83.2443 141.454V141.487C83.2443 142.968 83.8134 144.134 84.9543 144.989C86.0953 145.844 87.6101 146.271 89.4987 146.271C91.1585 146.271 92.637 145.94 93.9398 145.281C95.2426 144.622 96.2719 143.723 97.0335 142.582C97.7923 141.443 98.1745 140.158 98.1745 138.721V127.858C98.1745 126.036 97.5914 124.596 96.4309 123.537C95.2677 122.478 93.5911 121.949 91.404 121.949C89.3759 121.949 87.7524 122.376 86.5305 123.231C85.3086 124.086 84.5498 125.184 84.2513 126.527L84.1816 126.835H76.2339L76.2674 126.425C76.4515 124.285 77.1768 122.365 78.4433 120.669C79.7098 118.973 81.4673 117.636 83.7129 116.657C85.9586 115.678 88.6255 115.187 91.7137 115.187C94.8018 115.187 97.4324 115.689 99.6781 116.69C101.924 117.691 103.665 119.092 104.895 120.893C106.128 122.691 106.744 124.809 106.744 127.246V152.148H98.1745V146.58H97.968C97.2762 147.832 96.3779 148.927 95.2732 149.859C94.1685 150.794 92.9048 151.511 91.4905 152.01C90.0733 152.512 88.5586 152.763 86.9461 152.763L86.9406 152.76ZM128.23 152.862C124.612 152.862 121.479 152.098 118.832 150.573C116.182 149.048 114.137 146.872 112.697 144.049C111.258 141.225 110.538 137.877 110.538 134.005V133.972C110.538 130.123 111.264 126.794 112.714 123.981C114.165 121.168 116.21 119.001 118.849 117.473C121.488 115.948 124.578 115.184 128.127 115.184C131.352 115.184 134.139 115.794 136.49 117.013C138.839 118.232 140.683 119.842 142.019 121.847C143.356 123.852 144.114 126.061 144.301 128.473V128.713H136.214L136.144 128.44C135.798 126.686 134.964 125.189 133.639 123.948C132.314 122.707 130.512 122.087 128.23 122.087C126.434 122.087 124.86 122.572 123.513 123.537C122.165 124.505 121.122 125.879 120.386 127.654C119.649 129.43 119.281 131.559 119.281 134.041V134.074C119.281 136.581 119.655 138.721 120.405 140.497C121.153 142.273 122.202 143.635 123.549 144.578C124.897 145.524 126.47 145.996 128.266 145.996C130.453 145.996 132.222 145.411 133.57 144.236C134.917 143.064 135.787 141.534 136.178 139.642L136.248 139.333H144.368L144.335 139.573C144.103 142.077 143.297 144.333 141.916 146.338C140.532 148.342 138.68 149.931 136.354 151.103C134.027 152.275 131.321 152.862 128.233 152.862H128.23ZM171.684 153C166.825 153 162.624 151.963 159.089 149.892C155.552 147.821 152.824 144.876 150.899 141.062C148.974 137.248 148.014 132.734 148.014 127.517V127.448C148.014 122.233 148.982 117.724 150.918 113.921C152.854 110.119 155.588 107.182 159.126 105.108C162.663 103.037 166.85 102 171.687 102C176.525 102 180.712 103.037 184.249 105.108C187.786 107.179 190.515 110.119 192.439 113.921C194.362 117.724 195.324 122.233 195.324 127.448V127.517C195.324 132.731 194.362 137.246 192.439 141.062C190.515 144.876 187.792 147.821 184.269 149.892C180.745 151.966 176.55 153 171.69 153H171.684ZM171.684 145.383C174.703 145.383 177.3 144.65 179.476 143.18C181.652 141.71 183.328 139.639 184.503 136.964C185.677 134.289 186.266 131.14 186.266 127.519V127.45C186.266 123.808 185.672 120.647 184.486 117.972C183.301 115.297 181.613 113.235 179.423 111.79C177.233 110.345 174.655 109.619 171.682 109.619C168.708 109.619 166.158 110.342 163.957 111.79C161.756 113.237 160.063 115.292 158.877 117.956C157.692 120.62 157.097 123.785 157.097 127.453V127.522C157.097 131.165 157.689 134.325 158.877 137C160.063 139.675 161.751 141.743 163.94 143.199C166.128 144.658 168.708 145.386 171.682 145.386L171.684 145.383ZM218.509 153C214.684 153 211.345 152.429 208.488 151.293C205.632 150.154 203.38 148.527 201.732 146.409C200.083 144.291 199.157 141.763 198.951 138.826L198.917 138.313H207.417L207.487 138.724C207.741 140.136 208.363 141.354 209.353 142.378C210.343 143.403 211.652 144.195 213.275 144.752C214.899 145.312 216.748 145.59 218.821 145.59C220.894 145.59 222.732 145.306 224.264 144.735C225.795 144.167 226.975 143.351 227.807 142.292C228.638 141.233 229.051 139.998 229.051 138.586V138.553C229.051 136.708 228.353 135.252 226.961 134.179C225.567 133.109 223.257 132.232 220.032 131.548L214.676 130.456C209.791 129.455 206.128 127.809 203.687 125.52C201.246 123.231 200.025 120.253 200.025 116.588V116.555C200.047 113.64 200.847 111.095 202.426 108.919C204.005 106.746 206.187 105.047 208.974 103.828C211.761 102.609 214.941 102 218.512 102C222.082 102 225.296 102.593 228.013 103.776C230.73 104.959 232.867 106.611 234.424 108.729C235.978 110.847 236.837 113.306 236.999 116.108L237.032 116.69H228.532L228.462 116.246C228.256 114.812 227.715 113.588 226.839 112.573C225.963 111.561 224.811 110.78 223.382 110.234C221.954 109.688 220.308 109.415 218.442 109.415C216.576 109.415 214.832 109.694 213.415 110.251C211.998 110.808 210.904 111.588 210.131 112.592C209.359 113.593 208.974 114.757 208.974 116.075V116.108C208.974 117.84 209.682 119.246 211.099 120.327C212.517 121.408 214.72 122.258 217.716 122.873L223.073 123.965C226.551 124.671 229.383 125.628 231.573 126.835C233.76 128.043 235.381 129.557 236.427 131.377C237.476 133.2 238 135.387 238 137.935V137.968C238 141.021 237.222 143.674 235.668 145.927C234.114 148.182 231.88 149.922 228.964 151.152C226.049 152.382 222.565 152.997 218.512 152.997L218.509 153Z" fill="#F1F1F1"/>
</svg>
