<svg version="1.2" xmlns="http://www.w3.org/2000/svg" viewBox="0 0 256 256" width="256" height="256">
	<title>manim-logo-sidebar-dark</title>
	<style>
		.s0 { fill: #242938 } 
		.s1 { fill: #e07a5f } 
		.s2 { fill: #525893 } 
		.s3 { fill: #87c2a5 } 
		.s4 { fill: #ece6e2 } 
	</style>
	<path id="Layer 2" fill-rule="evenodd" class="s0" d="m60 0h136c33.14 0 60 26.86 60 60v136c0 33.14-26.86 60-60 60h-136c-33.14 0-60-26.86-60-60v-136c0-33.14 26.86-60 60-60z"/>
	<g id="layer1">
		<g id="g86">
			<path id="path34" class="s1" d="m223.17 173.75h-56.53l28.26-48.96z"/>
			<path id="rect36" fill-rule="evenodd" class="s2" d="m195.31 92.92v65.41h-65.41v-65.41z"/>
			<path id="circle38" fill-rule="evenodd" class="s3" d="m129.03 191.03c-18.51 0-33.47-14.96-33.47-33.47 0-18.51 14.96-33.48 33.47-33.48 18.51 0 33.48 14.97 33.48 33.48 0 18.51-14.97 33.47-33.48 33.47z"/>
			<path id="path1500" class="s4" d="m87.61 121.76l-22.61-53.75c-0.93-2.41-0.93-2.41-4.27-2.41h-21.87c-2.22 0-3.89 0-3.89 2.04 0 2.04 2.04 2.04 2.6 2.04 1.48 0 4.63 0.37 7.22 1.3v63.01c0 2.6 0 7.79-7.97 8.53-2.22 0.19-2.22 1.85-2.22 2.04 0 2.04 1.85 2.04 4.08 2.04h18.16c2.23 0 3.89 0 3.89-2.04 0-1.11-0.92-2.04-1.85-2.04-9.08-0.74-9.08-5.74-9.08-8.53v-58.75l0.18-0.19 28.73 69.14c1.12 2.04 1.86 2.41 2.6 2.41 1.48 0 1.67-0.93 2.41-2.41l28.91-69.14 0.19 0.19v58.75c0 2.6 0 7.79-8.16 8.53-2.22 0.19-2.22 1.85-2.22 2.04 0 2.04 1.85 2.04 4.08 2.04h31.51c2.22 0 3.89 0 3.89-2.04 0-1.11-0.93-2.04-1.86-2.04-9.08-0.74-9.08-5.74-9.08-8.53v-55.79c0-2.59 0-7.78 7.97-8.52 1.3 0 2.23-0.74 2.23-2.04 0-2.04-1.67-2.04-3.9-2.04h-22.79c-2.97 0-3.34 0-4.27 2.41zm-3.52 2.22c0.93 1.86 1.11 2.04 2.6 2.6l-5.38 12.42h-0.18l-26.88-64.32c-0.56-1.48-1.67-3.52-3.15-5h10.19zm32.81-54.31h12.6c-2.78 2.96-2.78 6.11-2.78 8.15v56.54c0 2.03 0 5.19 2.78 8.15h-15.19c2.59-2.96 2.59-6.12 2.59-8.15z"/>
		</g>
	</g>
</svg>