<svg xmlns="http://www.w3.org/2000/svg" width="256" height="256" fill="none" viewBox="0 0 256 256" id="manim">
<style>
#manim {
    rect {fill: #242938}
    path:not([fill]) {fill: #ece6e2}
    @media (prefers-color-scheme: light) {
        rect {fill: #F4F2ED}
        path:not([fill]) {fill: #343434}
    }
}
</style>
<rect width="256" height="256" rx="60"/>
<path fill="#e07a5f" d="m221.95 173.47h-56.53l28.26-48.95z"/>
<path fill="#525893" d="m194.09 92.64v65.41h-65.41v-65.41z"/>
<path fill="#87c2a5" d="m127.81 188.36c-18.51 0-33.47-14.97-33.47-33.48 0-18.51 14.96-33.47 33.47-33.47 18.51 0 33.48 14.96 33.48 33.47 0 18.51-14.97 33.48-33.48 33.48z"/>
<path d="m86.39 121.49-22.61-53.76c-.93-2.41-.93-2.41-4.26-2.41h-21.88c-2.22 0-3.89 0-3.89 2.04 0 2.04 2.04 2.04 2.6 2.04 1.48 0 4.63.37 7.22 1.3v63.02c0 2.59 0 7.78-7.97 8.53-2.22.18-2.22 1.85-2.22 2.03 0 2.04 1.85 2.04 4.08 2.04h18.16c2.23 0 3.9 0 3.9-2.04 0-1.11-.93-2.03-1.86-2.03-9.08-.75-9.08-5.75-9.08-8.53v-58.76l.18-.18 28.73 69.13c1.12 2.04 1.86 2.41 2.6 2.41 1.48 0 1.67-.92 2.41-2.41l28.91-69.13.19.18v58.76c0 2.59 0 7.78-8.16 8.53-2.22.18-2.22 1.85-2.22 2.03 0 2.04 1.85 2.04 4.08 2.04h31.51c2.22 0 3.89 0 3.89-2.04 0-1.11-.93-2.03-1.86-2.03-9.08-.75-9.08-5.75-9.08-8.53v-55.79c0-2.6 0-7.79 7.97-8.53 1.3 0 2.23-.74 2.23-2.04 0-2.04-1.67-2.04-3.9-2.04h-22.79c-2.97 0-3.34 0-4.27 2.41zm-3.52 2.23c.93 1.85 1.11 2.04 2.6 2.59l-5.38 12.42h-.18l-26.88-64.32c-.56-1.48-1.67-3.52-3.15-5h10.19zm32.81-54.31h12.6c-2.78 2.97-2.78 6.12-2.78 8.16v56.53c0 2.04 0 5.19 2.78 8.16h-15.19c2.59-2.97 2.59-6.12 2.59-8.16z"/>
</svg>