<svg width="256" height="256" viewBox="0 0 256 256" fill="none" xmlns="http://www.w3.org/2000/svg">
<rect width="256" height="256" rx="60" fill="#525252"/>
<path fill-rule="evenodd" clip-rule="evenodd" d="M151.963 35C157.987 35.0013 163.953 36.1895 169.518 38.4962C175.084 40.8031 180.141 44.1836 184.4 48.4446C188.659 52.7059 192.037 57.7641 194.341 63.3306C196.645 68.8973 197.831 74.8633 197.829 80.8879C197.831 88.6096 195.883 96.2065 192.167 102.975C188.451 109.744 183.086 115.464 176.571 119.608C183.894 130.372 187.811 143.09 187.813 156.109C187.813 164.633 186.135 173.073 182.873 180.948C179.611 188.823 174.83 195.978 168.802 202.005C162.775 208.032 155.62 212.813 147.745 216.075C139.87 219.337 131.43 221.016 122.907 221.016C105.692 221.016 89.183 214.178 77.0106 202.005C64.8383 189.833 58 173.324 58 156.109C57.9995 141.538 62.902 127.391 71.9186 115.944C80.9349 104.497 93.5407 96.4177 107.707 93.0054C106.628 89.0566 106.083 84.9813 106.085 80.8879C106.085 68.7206 110.919 57.0515 119.522 48.4478C128.126 39.8441 139.795 35 151.963 35ZM133.461 62.3864C138.368 57.4794 145.023 54.7226 151.963 54.7226C158.902 54.7226 165.557 57.4794 170.464 62.3864C175.371 67.2931 178.128 73.9486 178.128 80.8879C178.128 87.8275 175.371 94.4827 170.464 99.3897C165.557 104.297 158.902 107.053 151.963 107.053C145.023 107.053 138.368 104.297 133.461 99.3897C128.554 94.4827 125.797 87.8275 125.797 80.8879C125.797 73.9486 128.554 67.2931 133.461 62.3864ZM90.9493 124.152C99.425 115.676 110.92 110.915 122.907 110.915C134.893 110.915 146.388 115.676 154.864 124.152C163.34 132.628 168.101 144.123 168.101 156.109C168.101 168.096 163.34 179.591 154.864 188.067C146.388 196.542 134.893 201.304 122.907 201.304C110.92 201.304 99.425 196.542 90.9493 188.067C82.4736 179.591 77.712 168.096 77.712 156.109C77.712 144.123 82.4736 132.628 90.9493 124.152Z" fill="#FDFDFD"/>
<path d="M123.247 138.008C125.742 138.008 128.212 138.499 130.517 139.454C132.822 140.409 134.916 141.808 136.68 143.572C138.444 145.336 139.844 147.43 140.798 149.735C141.753 152.04 142.245 154.51 142.245 157.005C142.245 159.5 141.753 161.97 140.798 164.275C139.844 166.58 138.444 168.674 136.68 170.438C134.916 172.202 132.822 173.602 130.517 174.556C128.212 175.511 125.742 176.002 123.247 176.002C118.209 176.002 113.377 174.001 109.814 170.438C106.251 166.876 104.25 162.043 104.25 157.005C104.25 151.967 106.251 147.135 109.814 143.572C113.377 140.009 118.209 138.008 123.247 138.008Z" fill="#AFFFFC"/>
</svg>
