<svg width="256" height="256" viewBox="0 0 256 256" fill="none" xmlns="http://www.w3.org/2000/svg">
<rect width="256" height="256" rx="60" fill="#050505"/>
<path d="M162.909 162.662L144.762 157.916L172.883 116.639L150.303 74.2121L167.342 66.1582L181.887 101.969L204.606 67.4526L218.459 75.6503L190.615 119.947L215.134 163.812L201.697 172.873L181.887 133.754L162.909 162.662Z" fill="#DEDEDE"/>
<path d="M23.2734 174.886L40.4509 172.872L42.8059 86.58L60.8146 148.854L74.6674 147.704L84.5029 99.6676L104.451 153.456L124.676 151.587L93.2301 70.9036L79.9314 72.3418L65.386 119.946L52.0873 64.4316L32.0007 66.1575L23.2734 174.886Z" fill="#DEDEDE"/>
<path fill-rule="evenodd" clip-rule="evenodd" d="M105.696 181.214L171.081 174.311L177.038 167.263L132.016 59.9735L121.211 55.8027L91.2891 175.605L105.696 181.214ZM162.077 164.818L114.839 167.263L132.016 92.6207L162.077 164.818Z" fill="#EA4A6C"/>
</svg>
