<svg width="256" height="256" viewBox="0 0 256 256" fill="none" xmlns="http://www.w3.org/2000/svg">
<path d="M196 0H60C26.8629 0 0 26.8629 0 60V196C0 229.137 26.8629 256 60 256H196C229.137 256 256 229.137 256 196V60C256 26.8629 229.137 0 196 0Z" fill="#242938"/>
<path fill-rule="evenodd" clip-rule="evenodd" d="M156.163 54.4156C152.473 50.8105 147.528 48.7933 142.38 48.7933C137.231 48.7933 132.286 50.8105 128.596 54.4156L55.0895 126.788C53.8594 127.989 52.2117 128.66 50.4963 128.66C48.7809 128.66 47.1331 127.989 45.9031 126.788C45.3009 126.2 44.8222 125.497 44.4953 124.72C44.1684 123.943 44 123.108 44 122.265C44 121.422 44.1684 120.587 44.4953 119.81C44.8222 119.033 45.3009 118.33 45.9031 117.742L119.41 45.369C125.559 39.3614 133.8 36 142.38 36C150.959 36 159.201 39.3614 165.349 45.369C168.907 48.8428 171.595 53.1131 173.193 57.8303C174.791 62.5475 175.254 67.5776 174.544 72.5088C179.52 71.7981 184.594 72.2442 189.372 73.8127C194.15 75.3811 198.505 78.0301 202.103 81.5554L202.485 81.9387C205.496 84.8787 207.889 88.3949 209.524 92.2795C211.158 96.1641 212 100.338 212 104.555C212 108.772 211.158 112.946 209.524 116.831C207.889 120.715 205.496 124.232 202.485 127.172L136.003 192.621C135.803 192.817 135.643 193.051 135.534 193.31C135.425 193.569 135.369 193.847 135.369 194.128C135.369 194.409 135.425 194.687 135.534 194.946C135.643 195.204 135.803 195.439 136.003 195.634L149.657 209.082C150.259 209.67 150.738 210.373 151.065 211.15C151.392 211.927 151.56 212.761 151.56 213.605C151.56 214.448 151.392 215.283 151.065 216.06C150.738 216.837 150.259 217.54 149.657 218.128C148.427 219.329 146.779 220 145.064 220C143.348 220 141.701 219.329 140.471 218.128L126.817 204.689C125.411 203.317 124.293 201.676 123.529 199.862C122.766 198.049 122.373 196.1 122.373 194.132C122.373 192.163 122.766 190.214 123.529 188.401C124.293 186.588 125.411 184.947 126.817 183.575L193.298 118.117C195.104 116.353 196.539 114.243 197.519 111.912C198.499 109.582 199.004 107.077 199.004 104.548C199.004 102.018 198.499 99.5135 197.519 97.1828C196.539 94.8521 195.104 92.7422 193.298 90.9776L192.916 90.602C189.231 87.0006 184.292 84.9836 179.149 84.9793C174.006 84.975 169.064 86.9838 165.372 90.579L110.605 144.506L110.59 144.521L109.841 145.265C108.611 146.467 106.962 147.14 105.244 147.14C103.527 147.14 101.878 146.467 100.647 145.265C100.045 144.677 99.5665 143.974 99.2396 143.197C98.9128 142.42 98.7444 141.585 98.7444 140.742C98.7444 139.898 98.9128 139.063 99.2396 138.286C99.5665 137.509 100.045 136.806 100.647 136.218L156.186 81.5324C157.987 79.7667 159.417 77.657 160.393 75.3276C161.369 72.9982 161.871 70.4962 161.869 67.9692C161.867 65.4421 161.361 62.941 160.381 60.6133C159.401 58.2855 157.967 56.1783 156.163 54.4156Z" fill="#F1F1F1"/>
<path fill-rule="evenodd" clip-rule="evenodd" d="M146.596 72.8226C147.194 72.24 147.669 71.5431 147.994 70.7733C148.319 70.0035 148.486 69.1762 148.486 68.3405C148.486 67.5048 148.319 66.6776 147.994 65.9078C147.669 65.138 147.194 64.4411 146.596 63.8585C145.373 62.6668 143.735 62 142.029 62C140.323 62 138.684 62.6668 137.461 63.8585L83.4533 116.899C80.4619 119.812 78.084 123.296 76.4603 127.145C74.8366 130.994 74 135.131 74 139.309C74 143.488 74.8366 147.624 76.4603 151.473C78.084 155.322 80.4619 158.806 83.4533 161.719C89.563 167.67 97.7501 171 106.273 171C114.797 171 122.984 167.67 129.094 161.719L183.109 108.679C183.708 108.096 184.183 107.4 184.508 106.63C184.833 105.86 185 105.033 185 104.197C185 103.361 184.833 102.534 184.508 101.764C184.183 100.994 183.708 100.298 183.109 99.715C181.887 98.5233 180.248 97.8565 178.542 97.8565C176.836 97.8565 175.198 98.5233 173.975 99.715L119.967 152.755C116.301 156.327 111.388 158.326 106.273 158.326C101.158 158.326 96.2454 156.327 92.5799 152.755C90.7859 151.007 89.36 148.916 88.3864 146.607C87.4128 144.297 86.9112 141.816 86.9112 139.309C86.9112 136.802 87.4128 134.321 88.3864 132.011C89.36 129.702 90.7859 127.611 92.5799 125.863L146.596 72.8226Z" fill="#F1F1F1"/>
</svg>
