<svg width="256" height="256" viewBox="0 0 256 256" fill="none" xmlns="http://www.w3.org/2000/svg" id="mdbook">
<style>
#mdbook {
    rect {fill: #242938}
    path {fill: #F1F1F1}

    @media (prefers-color-scheme: light) {
        rect {fill: #F4F2ED}
        path {fill: #1F1F1F}
    }
}
</style>
<rect width="256" height="256" fill="#242938" rx="60"/>
<path d="M224.971 68.5142C225.177 71.5256 224.971 73.9919 224.317 75.8148L185.671 202.945C185.026 205.197 183.521 206.921 181.156 208.306C178.966 209.591 176.484 210.298 173.944 210.361H54.78C44.442 210.361 38.3055 207.35 36.1555 201.336C35.2955 198.977 35.2955 197.145 36.263 195.751C37.2305 194.465 38.843 193.821 41.217 193.821H153.376C161.349 193.821 166.939 192.32 169.949 189.416C172.968 186.521 176.094 179.855 179.212 169.668L214.633 53.0552C216.568 46.7108 215.708 41.1348 212.259 36.3006C208.819 31.4752 203.865 29 197.514 29H99.2404C98.1654 29 95.8989 29.4289 92.6649 30.1795L92.7724 29.7506C90.7731 29.2516 88.7135 29.035 86.6539 29.1072C84.9989 29.1615 83.3932 29.682 82.0224 30.6084C80.7344 31.4427 79.5729 32.4568 78.5734 33.6198C77.7134 34.6921 76.9609 35.9789 76.1009 37.6946C75.3447 39.2002 74.6631 40.742 74.0584 42.3144C73.4627 43.8405 72.8144 45.3456 72.1144 46.827C71.3619 48.4354 70.7169 49.7222 69.9644 50.7945C69.4269 51.4468 68.6744 52.4029 67.8144 53.4752C66.9544 54.5565 66.0854 55.6288 65.4404 56.4866C64.8976 57.1929 64.4961 57.9969 64.2579 58.8546C64.0429 59.6052 64.1504 60.7847 64.4729 62.2859C64.7954 63.7872 64.9029 64.8684 64.9029 65.619C64.5804 68.8359 63.3979 73.0268 61.3554 78.0755C59.304 83.1154 57.4765 86.7701 55.8639 88.9147C54.9748 89.9226 54.0422 90.8915 53.0689 91.8188C51.555 93.3201 50.5875 94.6068 50.265 95.7864C49.9425 96.2153 49.9425 97.3948 50.1575 99.4411C50.48 101.371 50.5875 102.765 50.48 103.516C50.1575 106.42 49.0825 110.28 47.255 115.115C45.7661 119.184 43.9661 123.133 41.871 126.928C41.656 127.464 40.9035 128.429 39.721 129.93C38.5295 131.431 37.777 132.611 37.571 133.585C37.347 134.228 37.4545 135.515 37.6695 137.231C37.8845 138.955 37.8845 140.242 37.562 141.1C36.917 144.317 35.627 148.293 33.692 152.913C31.748 157.524 29.813 161.393 27.869 164.717C27.3315 165.584 26.6955 166.549 25.719 167.729C24.859 168.908 24.1065 169.873 23.569 170.731C23.0561 171.555 22.6923 172.462 22.494 173.412C22.4114 174.261 22.5599 175.116 22.924 175.887C23.2465 177.067 23.354 177.924 23.354 178.684C23.2465 179.864 23.139 181.472 22.8165 183.402C22.6015 185.332 22.3865 186.521 22.3865 186.842C20.4515 191.989 20.559 197.476 22.6015 203.159C24.9665 209.816 29.2755 215.509 35.412 220.128C41.5485 224.739 48.0075 227 54.5739 227H173.729C179.328 227 184.605 225.168 189.559 221.415C194.513 217.662 197.845 213.042 199.458 207.565L234.987 90.9521C236.922 84.7327 236.062 79.2461 232.613 74.3136C230.785 71.6328 228.313 69.801 224.971 68.5142ZM85.1309 160.857L100.423 114.9H112.042C116.136 114.9 143.038 113.077 139.383 133.692C135.728 154.307 119.146 160.75 99.7689 160.964C80.4009 161.179 85.1309 160.857 85.1309 160.857ZM105.583 154.414C110.644 154.307 125.927 151.296 129.376 136.051C132.816 120.807 116.996 121.665 116.996 121.665H107.41L96.4364 154.414C96.5439 154.522 100.638 154.522 105.583 154.414ZM102.035 102.765L116.781 57.13H127.334L128.194 93.6418L153.591 57.13H164.251L149.613 102.765H141.972L155.427 64.7612L129.054 102.765H121.735L120.875 65.1901L109.247 102.765H102.035Z" fill="#F1F1F1"/>
</svg>
