<svg width="256" height="256" viewBox="0 0 256 256" fill="none" xmlns="http://www.w3.org/2000/svg" id="medium">
<style>
#medium {
    rect {fill: #242938}
    path {fill: white}

    @media (prefers-color-scheme: light) {
        rect {fill: #F4F2ED}   
        path {fill: #030303}
    }
}
</style>
<rect width="256" height="256" fill="#242938" rx="60"/>
<path d="M86.5847 190C116.18 190 140.171 162.017 140.171 127.499C140.171 92.9813 116.178 65 86.5847 65C56.9911 65 33 92.9729 33 127.499C33 162.025 56.9893 190 86.5847 190Z" fill="white"/>
<path d="M172.163 186.332C186.96 186.332 198.956 159.993 198.956 127.499C198.956 95.0132 186.96 68.6655 172.163 68.6655C157.366 68.6655 145.37 95.0132 145.37 127.499C145.37 159.985 157.366 186.332 172.163 186.332Z" fill="white"/>
<path d="M213.576 180.211C218.78 180.211 223 156.612 223 127.499C223 98.3879 218.784 74.7866 213.578 74.7866C208.372 74.7866 204.153 98.3942 204.153 127.499C204.153 156.604 208.372 180.211 213.576 180.211Z" fill="white"/>
</svg>
