<svg width="256" height="256" viewBox="0 0 256 256" fill="none" xmlns="http://www.w3.org/2000/svg">
<path d="M196 0H60C26.8629 0 0 26.8629 0 60V196C0 229.137 26.8629 256 60 256H196C229.137 256 256 229.137 256 196V60C256 26.8629 229.137 0 196 0Z" fill="#242938"/>
<g filter="url(#filter0_f_206_84)">
<path d="M128 223C180.467 223 223 180.467 223 128C223 75.5329 180.467 33 128 33C75.5329 33 33 75.5329 33 128C33 180.467 75.5329 223 128 223Z" fill="#0057B7"/>
</g>
<g filter="url(#filter1_f_206_84)">
<path d="M222.996 127.638H33.0136C33.0088 127.759 33.0043 127.88 33 128C33 140.476 35.4572 152.829 40.2314 164.355C45.0056 175.881 52.0033 186.354 60.8248 195.175C69.6464 203.997 80.1191 210.995 91.6451 215.769C103.171 220.543 115.524 223 128 223C140.476 223 152.829 220.543 164.355 215.769C175.881 210.995 186.354 203.997 195.175 195.175C203.997 186.354 210.994 175.881 215.769 164.355C220.543 152.829 223 140.476 223 128C222.999 127.88 222.997 127.759 222.996 127.638Z" fill="#FFD700"/>
</g>
<path d="M84.6737 69.6167H89.5589L102.02 100.626L114.456 69.6167H119.367L103.901 107.654H100.087L84.6737 69.6167ZM83.0801 69.6167H87.3906L88.096 92.8152V107.654H83.0801V69.6167ZM116.624 69.6167H120.934V107.654H115.918V92.8152L116.624 69.6167Z" fill="white"/>
<path d="M134.31 79.3873V107.654H129.451V79.3873H134.31ZM129.085 71.8896C129.085 71.1058 129.32 70.444 129.791 69.9041C130.278 69.3642 130.992 69.0942 131.933 69.0942C132.856 69.0942 133.561 69.3642 134.049 69.9041C134.554 70.444 134.806 71.1058 134.806 71.8896C134.806 72.6385 134.554 73.2829 134.049 73.8228C133.561 74.3452 132.856 74.6065 131.933 74.6065C130.992 74.6065 130.278 74.3452 129.791 73.8228C129.32 73.2829 129.085 72.6385 129.085 71.8896Z" fill="white"/>
<path d="M147.843 69.6167V107.654H142.801V69.6167H147.843ZM170.806 69.6167L155.001 87.3552L146.118 96.5771L145.282 91.1955L151.97 83.8284L164.745 69.6167H170.806ZM165.947 107.654L151.866 89.1056L154.87 85.1085L171.955 107.654H165.947Z" fill="white"/>
<path d="M109.966 141.829H95.7917V185.862H83.3475V141.829H69.4307V132.257H109.966V141.829Z" fill="#5F5F5F"/>
<path d="M135.754 183.122H116.867V196.487H139.51V206.059H104.423V152.454H139.546V162.026H116.867V173.55H135.754V183.122Z" fill="#5F5F5F"/>
<path d="M162.201 150.334L171.037 132.257H185.396L170.043 158.839L186.574 185.862H171.479L162.349 167.417L153.218 185.862H138.859L154.617 158.839L139.264 132.257H153.513L162.201 150.334Z" fill="#5F5F5F"/>
<defs>
<filter id="filter0_f_206_84" x="23.1703" y="23.1703" width="209.659" height="209.659" filterUnits="userSpaceOnUse" color-interpolation-filters="sRGB">
<feFlood flood-opacity="0" result="BackgroundImageFix"/>
<feBlend mode="normal" in="SourceGraphic" in2="BackgroundImageFix" result="shape"/>
<feGaussianBlur stdDeviation="4.91484" result="effect1_foregroundBlur_206_84"/>
</filter>
<filter id="filter1_f_206_84" x="31.7565" y="126.395" width="192.487" height="97.8494" filterUnits="userSpaceOnUse" color-interpolation-filters="sRGB">
<feFlood flood-opacity="0" result="BackgroundImageFix"/>
<feBlend mode="normal" in="SourceGraphic" in2="BackgroundImageFix" result="shape"/>
<feGaussianBlur stdDeviation="0.621771" result="effect1_foregroundBlur_206_84"/>
</filter>
</defs>
</svg>
