<svg width="256" height="256" viewBox="0 0 256 256" fill="none" xmlns="http://www.w3.org/2000/svg">
<path d="M196 0H60C26.8629 0 0 26.8629 0 60V196C0 229.137 26.8629 256 60 256H196C229.137 256 256 229.137 256 196V60C256 26.8629 229.137 0 196 0Z" fill="#F4F2ED"/>
<path d="M167.982 49H199.727V80.7455H167.982V49Z" fill="black"/>
<path d="M183.854 49H215.6V80.7455H183.854V49Z" fill="#F7D046"/>
<path d="M41 49H72.7455V80.7455H41V49ZM41 80.7455H72.7455V112.491H41V80.7455ZM41 112.491H72.7455V144.236H41V112.491ZM41 144.236H72.7455V175.982H41V144.236ZM41 175.982H72.7455V207.727H41V175.982Z" fill="black"/>
<path d="M56.873 49H88.6185V80.7455H56.873V49Z" fill="#F7D046"/>
<path d="M183.855 80.7454H215.6V112.491H183.855V80.7454ZM56.873 80.7454H88.6185V112.491H56.873V80.7454Z" fill="#F2A73B"/>
<path d="M136.236 80.7454H167.982V112.491H136.236V80.7454Z" fill="black"/>
<path d="M152.109 80.7454H183.855V112.491H152.109V80.7454ZM88.6182 80.7454H120.364V112.491H88.6182V80.7454Z" fill="#F2A73B"/>
<path d="M120.364 112.491H152.109V144.236H120.364V112.491ZM152.109 112.491H183.855V144.236H152.109V112.491ZM88.6182 112.491H120.364V144.236H88.6182V112.491Z" fill="#EE792F"/>
<path d="M104.491 144.236H136.236V175.982H104.491V144.236Z" fill="black"/>
<path d="M120.364 144.236H152.109V175.982H120.364V144.236Z" fill="#EB5829"/>
<path d="M183.855 112.491H215.6V144.236H183.855V112.491ZM56.873 112.491H88.6185V144.236H56.873V112.491Z" fill="#EE792F"/>
<path d="M167.982 144.236H199.727V175.982H167.982V144.236Z" fill="black"/>
<path d="M183.854 144.236H215.6V175.982H183.854V144.236Z" fill="#EB5829"/>
<path d="M167.982 175.982H199.727V207.727H167.982V175.982Z" fill="black"/>
<path d="M56.873 144.236H88.6185V175.982H56.873V144.236Z" fill="#EB5829"/>
<path d="M183.855 175.982H215.6V207.727H183.855V175.982ZM56.873 175.982H88.6185V207.727H56.873V175.982Z" fill="#EA3326"/>
</svg>
