<svg width="256" height="256" viewBox="0 0 256 256" fill="none" xmlns="http://www.w3.org/2000/svg">
<path d="M196 0H60C26.8629 0 0 26.8629 0 60V196C0 229.137 26.8629 256 60 256H196C229.137 256 256 229.137 256 196V60C256 26.8629 229.137 0 196 0Z" fill="#F4F2ED"/>
<path d="M25 148.843V119.715H31.6715V123.405C33.3546 120.415 37.0202 118.857 40.3217 118.857C44.1674 118.857 47.5301 120.594 49.0945 124.005C51.3832 120.174 54.8072 118.857 58.5916 118.857C63.8827 118.857 68.9286 122.21 68.9286 129.932V148.843H62.1994V131.066C62.1994 127.656 60.455 125.082 56.5481 125.082C52.8824 125.082 50.4785 127.953 50.4785 131.543V148.839H43.6304V131.066C43.6304 127.717 41.94 125.1 37.9753 125.1C34.2521 125.1 31.9058 127.853 31.9058 131.561V148.857L25 148.843Z" fill="#131313"/>
<path d="M77.5 148.857V106H85V148.857H77.5Z" fill="#131313"/>
<path d="M81.7856 165.276C83.3417 165.714 84.7405 166 87.7096 166C93.2292 166 99.7397 162.853 101.453 154.019L108.529 118.6H119.05L120.334 112.707H109.706L111.137 105.667C112.232 100.201 115.222 97.4299 120.023 97.4299C121.271 97.4299 120.921 97.5384 122.033 97.7518L123.571 91.7178C122.09 91.2693 120.763 91.0016 117.873 91.0016C114.821 90.9552 111.842 91.942 109.409 93.8051C106.715 95.9105 104.938 99.0035 104.126 102.997L102.133 112.707H92.7248L91.9556 118.603H100.97L94.4741 151.353C93.7586 155.068 91.6695 159.51 85.6741 159.51C84.3147 159.51 84.8084 159.405 83.5779 159.203L81.7856 165.276Z" fill="#0194E2"/>
<path d="M126.065 148.857H119.286L128.578 104.929H135.357L126.065 148.857Z" fill="#0194E2"/>
<path d="M161.071 121.612C154.992 117.283 146.716 118.134 141.611 123.614C136.505 129.093 136.11 137.551 140.68 143.5L145.243 140.091C142.978 137.231 142.518 133.305 144.059 129.983C145.599 126.661 148.87 124.528 152.478 124.49V128.119L161.071 121.612Z" fill="#43C9ED"/>
<path d="M142.857 146.102C149.212 150.431 157.865 149.58 163.202 144.1C168.54 138.621 168.953 130.163 164.175 124.214L159.405 127.623C161.773 130.483 162.254 134.409 160.643 137.731C159.032 141.053 155.613 143.187 151.841 143.224V139.595L142.857 146.102Z" fill="#0194E2"/>
<path d="M172.857 119.929H180.385L181.917 139.674L192.638 119.929L199.785 120.032L202.593 139.674L212.038 119.929L218.928 120.032L204.634 148.857H197.744L194.423 128.193L183.449 148.857H176.302L172.857 119.929Z" fill="#0194E2"/>
<path d="M223.478 120.382H222.143V119.929H225.357V120.392H224.025V124.214H223.478V120.382Z" fill="#0194E2"/>
<path d="M226.429 119.929H227.213L228.199 122.21C228.326 122.503 228.443 122.803 228.563 123.103H228.6C228.721 122.803 228.831 122.503 228.952 122.21L229.931 119.929H230.714V124.211H230.105V121.848C230.105 121.474 230.154 120.959 230.186 120.577H230.154L229.763 121.555L228.791 123.775H228.365L227.38 121.558L226.99 120.581H226.959C226.994 120.962 227.045 121.477 227.045 121.852V124.214H226.449L226.429 119.929Z" fill="#0194E2"/>
</svg>
