<svg width="256" height="256" viewBox="0 0 256 256" fill="none" xmlns="http://www.w3.org/2000/svg">
<g clip-path="url(#clip0_862_43)">
<mask id="mask0_862_43" style="mask-type:luminance" maskUnits="userSpaceOnUse" x="0" y="0" width="256" height="256">
<path d="M196 0H60C26.8629 0 0 26.8629 0 60V196C0 229.137 26.8629 256 60 256H196C229.137 256 256 229.137 256 196V60C256 26.8629 229.137 0 196 0Z" fill="white"/>
</mask>
<g mask="url(#mask0_862_43)">
<path d="M196 0H60C26.8629 0 0 26.8629 0 60V196C0 229.137 26.8629 256 60 256H196C229.137 256 256 229.137 256 196V60C256 26.8629 229.137 0 196 0Z" fill="#F4F2ED"/>
<path d="M265 239.706V15.2974C265 6.09068 258.869 -1.6792 250.469 -4.16357L240.93 1.54428L135.07 114.415L131.751 124.788L129.812 134.746L162.824 258.116L167.93 260H244.704C255.913 260 265 250.914 265 239.706Z" fill="#EA6618"/>
<path d="M0 15.2963V239.705C0 246.645 3.48537 252.768 8.79883 256.428L15.3069 253.312L127.358 133.343L131.752 124.788L131.916 116.517L101.42 0.493513L96.8006 -4.99902H20.2953C9.0866 -4.99902 0 4.08758 0 15.2963Z" fill="#D65813"/>
<path d="M131.752 124.789L250.47 -4.16463C248.598 -4.71909 246.656 -5.00045 244.704 -5H96.8027L131.753 124.788L131.752 124.789Z" fill="#E05E11"/>
<path d="M20.2953 260.001H167.931L131.752 124.788L8.79785 256.428C12.1781 258.76 16.1888 260.007 20.2953 260.001Z" fill="#DE5C16"/>
<path d="M93.7145 96.3577H108.44C114.307 118.496 120.985 137.921 128.435 155.45C136.873 135.73 143.058 116.29 148.294 96.3567H162.209C155.977 121.124 145.783 146.086 134.123 171.851H121.815C110.614 147.435 101.081 122.333 93.7145 96.3577ZM45.1449 58H77.8869V198.405H45V187.582H65.1566V68.5348H45.1449V58ZM210.945 68.5348H190.933V187.582H211.088V198.405H178.202V58H210.944V68.5348H210.945Z" fill="white"/>
</g>
</g>
<defs>
<clipPath id="clip0_862_43">
<rect width="256" height="256" fill="white"/>
</clipPath>
</defs>
</svg>
