<svg width="256" height="256" viewBox="0 0 256 256" fill="none" xmlns="http://www.w3.org/2000/svg">
<path d="M196 0H60C26.8629 0 0 26.8629 0 60V196C0 229.137 26.8629 256 60 256H196C229.137 256 256 229.137 256 196V60C256 26.8629 229.137 0 196 0Z" fill="#242938"/>
<path d="M127.5 215.455C176.076 215.455 215.455 176.076 215.455 127.5C215.455 78.924 176.076 39.5455 127.5 39.5455C78.924 39.5455 39.5455 78.924 39.5455 127.5C39.5455 176.076 78.924 215.455 127.5 215.455ZM127.5 235C68.1294 235 20 186.871 20 127.5C20 68.1294 68.1294 20 127.5 20C186.871 20 235 68.1294 235 127.5C235 186.871 186.871 235 127.5 235Z" fill="#F1F1F1"/>
<path d="M159.434 97.0734L128.111 78.9891C127.733 78.7709 127.267 78.7709 126.89 78.9891L95.663 97.0178L127.597 115.455L159.434 97.0734ZM169.817 113.648L137.273 132.437V170.721L169.207 152.285C169.585 152.066 169.817 151.663 169.817 151.227V113.648ZM117.728 170.721V132.326L85.1832 113.536V151.227C85.1832 151.663 85.416 152.066 85.7939 152.285L117.728 170.721ZM178.979 85.7888C185.405 89.4985 189.363 96.3543 189.363 103.774V151.227C189.363 158.646 185.405 165.502 178.979 169.211L137.884 192.938C131.458 196.648 123.542 196.648 117.117 192.938L76.0212 169.211C69.5959 165.502 65.6377 158.646 65.6377 151.227V103.774C65.6377 96.3543 69.5959 89.4985 76.0212 85.7888L117.117 62.0623C123.542 58.3526 131.458 58.3526 137.884 62.0623L178.979 85.7888Z" fill="#F1F1F1"/>
</svg>
