<svg width="256" height="256" viewBox="0 0 256 256" fill="none" xmlns="http://www.w3.org/2000/svg">
<path d="M196 0H60C26.8629 0 0 26.8629 0 60V196C0 229.137 26.8629 256 60 256H196C229.137 256 256 229.137 256 196V60C256 26.8629 229.137 0 196 0Z" fill="#850000"/>
<path d="M36.1494 153.267C34.5874 153.678 32.3554 154.966 31.3005 156.08L30.2641 157.127L29.9754 153.439H26.1518L26.0648 166.807L26 180.202H30.3511L30.4751 171.491C30.6194 161.66 30.7934 160.727 32.6515 158.826C34.0026 157.451 36.1216 156.685 37.9724 156.896C39.5325 157.068 40.6189 157.77 41.4425 159.172C41.9977 160.113 42.0273 160.784 42.1217 170.175L42.2087 180.202H46.5597L46.6467 170.906C46.7337 161.986 46.7633 161.573 47.3833 160.401C49.6468 156.222 55.6191 155.58 57.5845 159.295C58.1768 160.401 58.2064 161.016 58.2934 170.319L58.4081 180.202H62.5001L62.4075 169.294L62.3206 158.412L61.4951 156.866C59.674 153.411 54.6419 152.066 50.4703 153.881C49.7911 154.177 48.4975 155.14 47.5869 155.984C46.0619 157.424 45.9101 157.511 45.5918 156.983C44.8256 155.667 43.5597 154.496 42.2938 153.881C40.791 153.208 37.617 152.861 36.1494 153.267Z" fill="#F1F1F1"/>
<path d="M72.7879 153.294C69.2308 154.053 65.7903 156.597 64.4374 159.525C62.348 163.943 62.4349 170.291 64.641 174.585C66.8804 178.973 72.6732 181.488 77.9348 180.405C85.1156 178.888 88.4617 173.883 87.962 165.433C87.8751 163.971 87.6086 162.129 87.3476 161.283C86.3501 158.095 83.4666 155.109 80.2279 153.908C78.3179 153.179 74.7312 152.89 72.7879 153.294ZM78.8176 157.51C81.9638 158.97 83.4944 161.985 83.4666 166.749C83.437 171.579 82.0268 174.585 79.0841 176.082C77.1112 177.1 73.8225 177.129 71.9921 176.197C70.7336 175.525 69.2308 174 68.522 172.654C67.1987 170.11 67.1413 164.174 68.4072 161.457C69.8175 158.385 72.1457 156.866 75.4049 156.836C76.8225 156.808 77.7035 156.981 78.8176 157.51ZM98.6407 153.381C96.5494 153.995 95.2854 154.697 94.0787 155.926C93.4347 156.57 92.8128 157.097 92.6981 157.097C92.5815 157.097 92.4667 156.251 92.4667 155.196V153.266L90.6382 153.351L88.7875 153.438L88.7005 166.806L88.6413 180.202H93.0515V171.781C93.0812 162.888 93.2255 161.428 94.4026 159.671C95.228 158.383 97.4322 157.154 99.3773 156.895C102.168 156.512 105.024 158.124 105.668 160.458C105.877 161.196 105.992 165.02 105.992 170.905V180.202H110.432L110.345 169.734L110.258 159.296L109.492 157.654C108.609 155.811 107.287 154.61 105.198 153.794C103.375 153.09 100.347 152.889 98.6407 153.381ZM120.104 153.266C115.666 154.234 112.521 157.597 111.285 162.657C110.728 164.905 110.815 169.177 111.429 171.281C113.23 177.485 117.228 180.557 123.019 180.146C125.252 179.97 127.196 179.211 128.693 177.896C129.692 177.015 129.785 176.985 129.959 177.542C130.255 178.505 129.785 182.276 129.22 183.564C128.108 186.081 125.902 187.221 122.193 187.221C118.875 187.194 116.634 185.963 116.106 183.831C115.962 183.276 115.666 183.129 114.581 182.98C113.899 182.905 113.221 182.798 112.549 182.659C111.935 182.545 111.87 182.632 111.87 183.774C111.899 186.579 114.017 189.037 117.429 190.209C118.934 190.736 120.019 190.88 122.31 190.88C127.608 190.88 131.252 189.007 133.016 185.408C134.339 182.746 134.549 179.646 134.454 165.433L134.367 153.44H130.544L130.457 154.965C130.399 155.811 130.283 156.512 130.198 156.512C130.103 156.512 129.576 156.105 128.989 155.607C126.755 153.649 122.93 152.652 120.104 153.266ZM125.902 157.538C126.727 157.978 127.782 158.766 128.223 159.351C131.519 163.647 130.897 172.51 127.075 175.256C123.342 177.953 118.136 176.485 116.286 172.249C115.342 170.082 115.109 165.172 115.847 162.512C116.402 160.371 117.986 158.326 119.787 157.393C121.37 156.542 124.016 156.597 125.902 157.538ZM144.367 153.41C141.929 154.112 141.193 154.465 139.573 155.694C136.427 158.037 134.961 161.63 134.989 166.891C134.989 170.724 135.576 173.037 137.166 175.497C139.285 178.741 142.899 180.557 147.308 180.587C152.397 180.614 156.424 178.358 158.456 174.353L159.483 172.308L160.394 174.179C163.72 181.171 174.13 182.863 180.043 177.426C180.983 176.574 182.011 175.38 182.307 174.823C182.632 174.239 182.949 173.769 183.036 173.769C183.13 173.769 183.449 174.383 183.745 175.171C185.22 178.684 188.864 180.614 194.068 180.585C197.098 180.585 199.332 180.03 201.364 178.741C202.57 177.983 204.508 175.814 204.508 175.199C204.508 175.084 204.652 174.614 204.834 174.181L205.122 173.356L205.974 174.823C209.657 181.258 219.921 182.689 225.503 177.57C226.946 176.226 228.914 172.749 228.445 172.308C228.299 172.164 227.302 171.925 226.21 171.809L224.274 171.549L223.796 172.54C222.473 175.286 220.595 176.667 217.744 176.898C213.242 177.311 209.858 174.527 208.976 169.764C208.831 168.918 208.772 168.152 208.859 168.065C208.946 167.978 213.508 167.92 218.973 167.92H228.914V166.343C228.914 164.319 228.53 162.331 227.714 160.169C226.767 157.652 223.891 154.848 221.274 153.881C218.446 152.826 214.535 152.89 211.744 154.025C207.068 155.926 204.24 160.669 204.212 166.545V168.562L203.04 167.537C201.774 166.488 199.246 165.462 195.247 164.413C190.772 163.242 189.275 162.655 188.481 161.746C187.628 160.726 187.57 160.055 188.185 158.883C188.864 157.538 190.742 156.808 193.541 156.808C196.742 156.808 198.182 157.538 199.217 159.642C199.802 160.841 200.068 161.132 200.538 161.045C200.864 160.987 201.747 160.841 202.533 160.756C204.182 160.552 204.306 160.112 203.214 157.799C201.774 154.726 198.449 153.15 193.483 153.179C191.155 153.207 190.187 153.323 188.806 153.881C185.805 155.022 184.1 157.04 183.658 159.995L183.449 161.341L182.538 159.583C177.954 150.807 164.305 150.988 160.22 159.873L159.483 161.485L158.456 159.44C157.161 156.866 155.131 155.05 152.369 153.995C149.926 153.063 146.514 152.824 144.367 153.41ZM150.924 157.567C153.952 159.057 155.456 162.102 155.456 166.747C155.427 173.182 152.456 176.985 147.454 176.985C144.394 176.985 141.837 175.286 140.456 172.395C139.725 170.818 139.66 170.435 139.66 166.749C139.66 162.448 139.986 161.224 141.691 159.229C143.723 156.836 147.894 156.077 150.924 157.567ZM174.332 157.241C175.75 157.826 177.658 159.585 178.337 160.9C179.632 163.416 179.834 168.679 178.779 171.751C178.187 173.478 176.573 175.379 175.011 176.139C172.365 177.485 168.541 177.042 166.366 175.14C162.78 172.012 162.339 163.242 165.598 159.468C167.63 157.068 171.539 156.107 174.332 157.241ZM219.856 157.364C222.184 158.356 223.918 160.726 224.005 163.032L224.063 164.261H209.07L209.157 163.386C209.359 160.928 211.063 158.622 213.48 157.423C215.063 156.627 218.092 156.596 219.856 157.364ZM185.864 165.636C187.041 166.719 188.69 167.363 193.924 168.764C196.418 169.438 198.804 170.234 199.217 170.522C201.747 172.336 200.423 175.843 196.859 176.696C194.742 177.187 191.862 176.928 190.157 176.052C188.979 175.467 188.625 175.055 187.894 173.508L187.013 171.694L183.543 172.04L183.747 170.667C183.832 169.908 183.926 167.891 183.926 166.192V163.09L184.481 163.973C184.772 164.443 185.394 165.203 185.864 165.636ZM137.521 65.1529C134.837 65.2621 130.32 65.9783 130.32 66.2819C130.32 66.4114 133.508 68.003 133.747 68.003C133.979 68.003 137.68 69.8538 138.496 70.3664C139.573 71.0512 140.34 71.6749 140.116 71.6749C139.971 71.6749 136.168 70.2073 134.73 69.5836C133.558 69.0857 128.685 67.6403 126.307 67.0758C125.028 66.7797 124.486 66.665 122.302 66.2671C119.078 65.6748 115.297 65.6452 113.641 66.1875C111.285 66.9537 110.757 67.8938 110.757 71.3695C110.757 73.2795 110.85 74.0956 111.27 75.8168C111.444 76.5682 111.957 78.2098 112.203 78.7669C112.268 78.939 112.492 79.4813 112.68 79.9662C112.875 80.4436 113.454 81.6725 113.967 82.6775C116.835 88.3666 121.131 93.1156 127.19 97.2945C129.096 98.603 134.297 101.09 136.377 101.684C136.906 101.829 137.086 102.132 136.653 102.132C136.168 102.132 131.78 100.916 130.877 100.533C130.534 100.385 130.187 100.248 129.835 100.122C126.713 98.8565 122.721 96.2618 119.417 93.3118C115.797 90.0919 112.904 86.1388 110.93 81.7151C109.666 78.8613 108.805 75.5281 108.596 72.628C108.466 70.9735 108.337 70.5682 107.902 70.5904C107.757 70.5904 106.397 70.5385 104.885 70.4608C100.802 70.2868 95.2058 70.7347 89.6758 71.6897C79.0915 73.4886 67.6762 77.6527 55.9222 84.0007C53.9668 85.0559 52.0354 86.1549 50.1294 87.2969C49.9074 87.4264 49.2041 87.8521 48.5619 88.2593C47.9197 88.6553 47.1664 89.1051 46.8925 89.2772C46.2855 89.6251 39.5692 94.1871 38.7678 94.7923C38.4625 95.0181 37.6241 95.64 36.9226 96.1452C33.7338 98.5105 26.7881 104.17 26.3901 104.742C26.194 105.031 26.4975 105.175 26.9176 105.031C27.1267 104.951 27.669 104.844 28.1021 104.777C28.5518 104.712 29.7085 104.409 30.669 104.092C31.6462 103.787 32.6863 103.469 32.9973 103.389C35.368 102.834 36.3286 102.638 37.7259 102.436C38.3477 102.349 39.2805 102.212 39.8079 102.132C46.3225 101.17 49.4299 100.931 52.3281 101.155C58.6335 101.67 64.6614 102.732 68.1111 103.961C70.691 104.886 75.9471 107.727 78.2605 109.433C79.5912 110.438 83.8867 114.712 84.8306 116.004C85.5709 117.025 86.3852 117.914 86.5814 117.914C86.6388 117.914 86.7258 114.66 86.7406 110.692L86.785 103.483L95.2206 103.433C101.857 103.404 103.701 103.456 103.817 103.6C103.976 103.804 104.36 104.488 105.624 106.831C106.832 109.08 107.424 110.163 107.793 110.822C107.981 111.169 108.429 112 108.805 112.65C109.151 113.309 109.81 114.516 110.258 115.347C110.706 116.179 111.076 116.879 111.076 116.909C111.076 117.053 111.733 117.914 111.849 117.914C111.914 117.914 112.071 117.675 112.183 117.408C112.312 117.118 112.651 116.483 112.919 116.005C113.208 115.521 113.72 114.58 114.076 113.931C114.429 113.272 114.914 112.369 115.168 111.936C115.875 110.677 116.611 109.304 117.22 108.19C117.524 107.612 118.009 106.722 118.29 106.195C118.579 105.667 118.999 104.923 119.223 104.518C119.386 104.2 119.569 103.894 119.772 103.6C119.895 103.456 121.79 103.404 128.621 103.433L137.297 103.483L137.34 117.567C137.377 128.664 137.419 131.627 137.586 131.627C137.678 131.613 138.322 131.244 138.981 130.782C139.906 130.132 140.31 129.734 140.737 128.996C141.72 127.326 144.489 124.695 146.354 123.675C148.614 122.425 151.045 121.512 153.569 120.965C156.136 120.423 156.887 120.344 162.707 120.133C173.334 119.764 174.911 119.699 174.991 119.62C175.033 119.575 174.889 119.157 174.687 118.68C174.463 118.217 174.073 117.356 173.804 116.786C172.792 114.595 172.792 113.866 173.849 112.794C174.571 112.05 176.429 111.393 179.623 110.757C180.152 110.64 180.809 110.503 181.085 110.401C181.352 110.324 181.692 110.264 181.837 110.264C182.234 110.264 185.429 109.476 186.103 109.224C186.565 109.036 189.066 108.493 192.051 107.916C193.346 107.662 196.715 106.99 199.505 106.433C201.269 106.085 203.113 105.717 203.59 105.623C204.075 105.523 204.762 105.386 205.115 105.319C205.469 105.24 205.931 105.147 206.157 105.11C206.379 105.06 207.508 104.844 208.643 104.605C209.799 104.359 210.949 104.142 211.224 104.105C212.026 104.026 218.07 102.573 219.466 102.132C221.677 101.411 222.334 101.127 223.732 100.187C225.242 99.1601 225.654 98.603 227.142 95.64C228.799 92.3364 229.038 91.7794 229.5 90.3913C230.222 88.1797 230.179 87.3339 229.26 86.4085C228.625 85.7719 227.244 85.113 226.232 84.9687C225.48 84.8761 225.386 84.9039 225.01 85.3092C224.786 85.548 224.598 85.8293 224.598 85.9311C224.598 86.068 224.339 86.7768 223.622 88.498C223.558 88.6701 223.413 89.1051 223.297 89.4511C223.185 89.8298 223.052 90.2018 222.899 90.5653C222.69 91.0132 222.677 90.9336 222.754 89.6899C222.834 88.461 223.045 87.4264 223.508 85.8663C223.587 85.5628 223.702 85.0483 223.744 84.7299L223.824 84.1599L222.162 83.4881C220.793 82.9284 219.429 82.3546 218.072 81.7669C217.538 81.5555 217.003 81.3483 216.466 81.1451C215.909 80.9438 215.36 80.724 214.818 80.4862C214.261 80.2433 213.7 80.0101 213.134 79.7866C212.055 79.3739 208.304 78.1025 205.115 77.0957C204.247 76.8218 199.202 75.3116 198.702 75.1654C197.677 74.8915 196.926 74.6897 196.463 74.5435C196.202 74.4787 195.58 74.3066 195.095 74.1752C192.277 73.3942 191.538 73.1999 190.526 72.9167C189.969 72.7509 189.407 72.6015 188.842 72.4689C188.538 72.3893 187.707 72.1949 186.998 72.021C185.762 71.7175 180.585 70.5256 177.782 69.8889C177.113 69.7308 176.443 69.5766 175.772 69.4263C175.294 69.3202 174.814 69.2239 174.332 69.1375C173.662 69.0149 172.995 68.8822 172.329 68.7396C171.288 68.5347 170.245 68.3416 169.2 68.1603C168.265 67.9927 167.33 67.8292 166.394 67.6699C161.971 66.8741 161.665 66.8241 153.728 65.9487C148.834 65.3935 142.262 64.9308 140.658 65.0086C140.404 65.0086 138.981 65.0733 137.521 65.1529ZM118.984 73.0111C123.213 74.3862 127.334 76.2499 130.161 78.0636C132.402 79.5183 135.193 81.8317 135.944 82.8662L136.27 83.2993L135.655 83.0606C135.322 82.9162 134.613 82.6127 134.086 82.3591C131.267 81.0507 130.964 80.9341 130.964 81.2246C130.964 81.3042 131.621 82.3591 132.402 83.5381C133.205 84.7299 133.847 85.7867 133.847 85.8792C133.847 85.9588 133.544 85.8293 133.175 85.5757C131.73 84.5856 128.345 83.1698 128.151 83.4585C128.108 83.5381 129.15 84.8613 130.479 86.4085C131.793 87.9557 132.885 89.2772 132.885 89.3716C132.885 89.6121 132.626 89.5807 131.412 89.1328C130.161 88.6849 129.835 88.6424 129.835 88.9385C129.835 89.1476 132.546 92.7991 133.623 94.065C133.927 94.4111 134.165 94.7442 134.165 94.8238C134.165 95.2069 130.414 92.7695 127.753 90.6652C123.951 87.6374 120.278 83.5658 118.34 80.2049C116.758 77.4584 116.208 75.976 116.208 74.3492C116.208 73.3942 116.258 73.1999 116.613 72.8686C116.817 72.6428 117.076 72.4689 117.168 72.4689C117.27 72.4689 118.066 72.7094 118.984 73.0111ZM169.605 78.6892C171.145 78.9631 173.24 79.3239 174.252 79.5053C175.265 79.6793 176.494 79.8884 176.978 79.968C177.456 80.0605 178.15 80.1919 178.503 80.2715C178.851 80.3511 179.545 80.4881 180.021 80.6047C181.613 80.9507 181.996 81.0303 184.592 81.6392C187.381 82.2962 187.988 82.4184 188.842 82.5997C189.563 82.7367 190.287 83.0125 190.287 83.142C190.287 83.1846 189.752 83.4899 189.117 83.8212C187.801 84.4801 187.526 84.5245 182.11 84.7318C178.416 84.8909 176.451 84.8484 174.652 84.5597C171.028 84.0026 169.155 82.9828 167.695 80.7786C167.182 80.0254 166.844 79.8088 165.672 79.5053C165.237 79.3758 164.58 79.2018 164.232 79.0871C163.879 78.9779 163.27 78.8039 162.881 78.6892C161.732 78.3856 162.389 78.2117 164.71 78.2117C166.315 78.2117 167.436 78.3209 169.605 78.6892ZM188.89 100.968C188.757 100.997 188.619 100.997 188.486 100.968C188.377 100.916 188.457 100.889 188.681 100.889C188.905 100.889 188.984 100.916 188.89 100.968ZM188.196 101.155C188.196 101.235 188.009 101.351 187.763 101.396C187.27 101.525 185.312 102.081 184.668 102.291C184.446 102.371 183.728 102.595 183.071 102.782C181.415 103.259 177.41 104.568 176.334 104.981C174.317 105.747 169.566 108.269 168.894 108.934C167.904 109.911 167.593 110.966 167.738 112.976C167.788 113.814 167.904 114.884 167.997 115.347C168.186 116.351 168.076 116.627 167.693 116.128C167.305 115.637 166.487 113.851 166.248 112.976C166.118 112.57 165.974 112.05 165.894 111.791C165.604 110.886 165.72 109.817 166.168 109.16C166.775 108.234 168.959 106.752 171.526 105.523C172.74 104.936 176.283 103.722 179.544 102.767C180.201 102.573 180.917 102.349 181.141 102.291C183.454 101.51 188.196 100.759 188.196 101.155ZM137.482 102.227C137.439 102.269 137.293 102.291 137.178 102.24C137.049 102.19 137.099 102.147 137.271 102.147C137.452 102.132 137.549 102.175 137.482 102.225V102.227Z" fill="#F1F1F1"/>
<path d="M103.86 133.068V144.228H111.848C117.843 144.228 119.88 144.178 120.025 144.033C120.265 143.795 120.315 121.904 120.076 121.904C119.997 121.904 119.88 122.028 119.83 122.173C119.773 122.317 118.022 125.041 115.935 128.23C112.637 133.27 111.719 134.499 111.719 133.877C111.719 133.767 106.253 125.237 104.858 123.178C104.668 122.91 104.5 122.627 104.358 122.332C104.229 122.091 104.069 121.906 103.99 121.906C103.925 121.906 103.86 126.931 103.86 133.068Z" fill="#F1F1F1"/>
</svg>
