<svg width="256" height="256" viewBox="0 0 256 256" fill="none" xmlns="http://www.w3.org/2000/svg">
<path d="M196 0H60C26.8629 0 0 26.8629 0 60V196C0 229.137 26.8629 256 60 256H196C229.137 256 256 229.137 256 196V60C256 26.8629 229.137 0 196 0Z" fill="#F4F2ED"/>
<path d="M154.99 94C150.206 94 146.332 97.8531 146.332 102.595V128.402C146.332 137.887 138.554 145.604 128.997 145.604C119.44 145.604 111.662 137.887 111.662 128.402V102.595C111.662 97.8425 107.788 94 103.005 94C98.2211 94 94.3477 97.8531 94.3477 102.595V128.402C94.3477 147.371 109.894 162.805 128.997 162.805C148.1 162.805 163.647 147.371 163.647 128.402V102.595C163.657 97.8531 159.773 94 154.99 94ZM154.99 108.512C151.698 108.512 149.031 105.866 149.031 102.595C149.031 99.3244 151.698 96.6781 154.99 96.6781C158.281 96.6781 160.948 99.3244 160.948 102.595C160.948 105.866 158.281 108.512 154.99 108.512Z" fill="#030303"/>
<path d="M191.491 128.402L171.626 148.123C168.239 151.478 168.239 156.93 171.626 160.285C175.013 163.641 180.495 163.641 183.871 160.285L203.735 140.565L223.6 160.285C226.987 163.641 232.469 163.641 235.845 160.285C239.232 156.93 239.232 151.478 235.845 148.123L215.991 128.402L235.856 108.682C239.242 105.326 239.242 99.8747 235.856 96.5191C232.469 93.1636 226.987 93.1636 223.611 96.5191L203.746 116.24L183.871 96.5191C180.484 93.1636 175.002 93.1636 171.626 96.5191C168.239 99.8747 168.239 105.326 171.626 108.682L191.491 128.402ZM229.738 160.126C226.447 160.126 223.78 157.48 223.78 154.209C223.78 150.938 226.447 148.292 229.738 148.292C233.03 148.292 235.697 150.938 235.697 154.209C235.697 157.469 233.03 160.126 229.738 160.126Z" fill="#030303"/>
<path d="M81.965 94.6563C78.7266 93.3225 75.0013 94.0635 72.5248 96.5193L52.6495 116.24L32.7848 96.5193C30.3083 94.0635 26.583 93.3225 23.3445 94.6563C20.1061 95.99 18 99.1233 18 102.595V154.199C18 158.952 21.8735 162.805 26.6571 162.805C31.4407 162.805 35.3142 158.952 35.3142 154.209V123.353L46.5218 134.478C49.9084 137.834 55.3905 137.834 58.7666 134.478L69.9742 123.353V154.199C69.9742 158.952 73.8477 162.794 78.6313 162.794C83.4149 162.794 87.2884 158.941 87.2884 154.199V102.595C87.3096 99.1233 85.2035 95.99 81.965 94.6563ZM78.6419 160.127C75.3505 160.127 72.6835 157.48 72.6835 154.209C72.6835 150.938 75.3505 148.292 78.6419 148.292C81.9333 148.292 84.6002 150.938 84.6002 154.209C84.6108 157.47 81.9333 160.127 78.6419 160.127Z" fill="#030303"/>
</svg>
