<svg width="256" height="256" viewBox="0 0 256 256" fill="none" xmlns="http://www.w3.org/2000/svg" id="n8n">
<style>
  #n8n {
    rect {fill: #242938}

    @media (prefers-color-scheme: light) {
        rect {fill: #F4F2ED}
    }
  }
</style>
<g clip-path="url(#clip0_39_23)">
<rect width="256" height="256" rx="60" fill="#242938"/>
<path d="M203.837 73.5193C197.117 75.7427 191.188 81.3754 189.261 87.3044L188.668 89.182H174.735C159.616 89.182 157.244 89.4784 152.6 91.9983C149.388 93.7276 145.04 98.4215 143.509 101.781C142.817 103.264 141.829 106.821 141.335 109.687C140.248 115.715 139.655 117.049 136.937 119.47C134.417 121.743 132.342 122.286 126.364 122.286C122.213 122.286 121.522 122.187 121.274 121.397C120.187 118.234 118.013 114.726 115.592 112.256C107.687 104.4 95.0877 103.609 86.1941 110.428C83.279 112.701 79.9191 117.345 79.0298 120.359L78.4369 122.286H72.4584H66.4799L65.2941 119.272C64.5035 117.246 63.2189 115.27 61.1931 113.096C50.3232 101.485 31.8442 104.153 24.8281 118.284C23 121.94 23 122.088 23 127.919C23 133.601 23.0988 134.045 24.5811 137.257C29.5714 147.732 41.7754 152.771 52.6948 148.819C55.7582 147.682 58.278 145.953 61.0943 142.988C63.3177 140.617 66.2329 135.626 66.2329 134.194C66.2329 133.848 68.3574 133.65 72.3102 133.65H78.4369L79.0298 135.577C80.6109 140.913 86.3423 146.694 92.0738 148.769C104.08 153.117 117.223 146.694 121.274 134.49C121.522 133.749 122.213 133.65 126.364 133.65C132.342 133.65 134.417 134.194 136.937 136.466C139.605 138.887 140.099 139.974 141.285 146.249C142.57 153.018 144.398 156.872 147.857 160.183C152.6 164.63 157.689 166.754 163.667 166.754C165.99 166.754 166.632 166.902 166.83 167.594C168.757 173.375 173.203 178.464 178.638 181.132C181.998 182.763 182.295 182.812 188.026 182.812C193.659 182.812 194.103 182.713 197.315 181.231C211.446 174.511 214.756 156.23 203.837 145.261C192.127 133.551 172.017 138.591 166.83 154.501C166.632 155.143 166.039 155.39 164.507 155.39C161.493 155.39 158.875 154.451 156.701 152.623C154.181 150.449 153.341 148.572 152.254 142.346C151.216 136.713 149.438 132.761 146.621 129.697L145.04 127.968L146.671 126.239C149.092 123.669 151.167 119.025 152.056 114.331C153.44 106.87 153.637 106.376 156.108 103.955C159.418 100.744 160.703 100.546 175.871 100.546C186.346 100.546 188.767 100.694 188.767 101.188C188.767 102.769 191.979 108.106 194.449 110.576C205.369 121.495 223.749 118.185 230.419 104.153C231.901 100.941 232 100.497 232 94.864C232 89.2314 231.951 88.7867 230.419 85.5751C228.294 81.0789 223.996 76.8297 219.549 74.7052C216.535 73.3217 215.646 73.1241 211.001 73.0253C207.691 72.9264 205.072 73.1241 203.837 73.5193ZM214.707 85.1799C222.81 88.8361 222.909 100.398 214.855 104.548C212.681 105.685 208.284 105.783 205.912 104.795C202.206 103.264 199.588 99.1626 199.588 94.864C199.588 87.1562 207.691 81.9683 214.707 85.1799ZM49.335 118.284C53.0901 120.211 55.4123 123.917 55.4123 127.869C55.4123 131.081 54.8688 132.563 52.7936 134.885C46.321 142.297 34.1664 137.85 34.117 128.067C34.117 121.99 38.7121 117.395 44.8882 117.345C46.5187 117.345 48.1986 117.691 49.335 118.284ZM104.574 118.284C105.661 118.778 107.242 120.013 108.082 121.051C113.665 127.82 109.515 137.85 100.819 138.492C97.0641 138.789 94.8901 137.998 92.469 135.528C87.2811 130.389 88.3681 122.434 94.7913 118.729C97.6076 117.049 101.511 116.9 104.574 118.284ZM192.423 151.141C194.943 152.178 197.562 155.242 198.402 158.058C201.021 166.754 191.682 174.61 183.48 170.657C175.377 166.754 175.427 155.143 183.579 151.388C185.951 150.301 190.101 150.153 192.423 151.141Z" fill="#EA4B71"/>
</g>
<defs>
<clipPath id="clip0_39_23">
<rect width="256" height="256" fill="white"/>
</clipPath>
</defs>
</svg>