<svg width="256" height="256" viewBox="0 0 256 256" fill="none" xmlns="http://www.w3.org/2000/svg">
<path d="M196 0H60C26.8629 0 0 26.8629 0 60V196C0 229.137 26.8629 256 60 256H196C229.137 256 256 229.137 256 196V60C256 26.8629 229.137 0 196 0Z" fill="#F4F2ED"/>
<path d="M74.9101 176.474C53.7102 176.487 35.1448 161.865 29.6207 140.806C24.1035 119.747 33 97.496 51.324 86.5325C69.6481 75.5758 92.8411 78.6285 107.889 93.9885L120.531 107.033L107.379 120.491L94.8411 107.495C92.2429 104.802 89.1272 102.662 85.6808 101.202C82.2344 99.742 78.5284 98.9928 74.7851 98.9992C71.0418 99.0057 67.3384 99.7676 63.897 101.239C60.4557 102.711 57.3474 104.862 54.7585 107.564C43.7034 118.961 43.7034 137.416 54.7585 148.813C57.3469 151.515 60.4549 153.667 63.896 155.139C67.337 156.612 71.0403 157.374 74.7836 157.381C78.5269 157.388 82.2331 156.64 85.6797 155.18C89.1263 153.721 92.2425 151.581 94.8411 148.889L107.786 135.569L120.937 149.034L108.062 162.354C103.775 166.82 98.628 170.374 92.9306 172.8C87.2333 175.227 81.1034 176.477 74.9101 176.474Z" fill="url(#paint0_linear_406_1343)"/>
<path d="M181.241 176.474C175.098 176.469 169.019 175.231 163.365 172.834C157.71 170.437 152.596 166.93 148.324 162.52L115.379 128.134L148.055 94.1611C163.048 78.7598 186.227 75.6244 204.578 86.5328C222.923 97.4412 231.882 119.658 226.406 140.724C220.93 161.789 202.392 176.446 181.206 176.474H181.241ZM161.379 149.062C163.961 151.712 167.05 153.818 170.462 155.255C173.873 156.692 177.538 157.43 181.241 157.427C194.089 157.441 205.337 148.565 208.668 135.79C211.992 123.027 206.565 109.549 195.427 102.947C190.029 99.7406 183.703 98.4574 177.481 99.3072C171.26 100.157 165.51 103.09 161.172 107.626L141.275 128.161L161.379 149.062Z" fill="url(#paint1_linear_406_1343)"/>
<defs>
<linearGradient id="paint0_linear_406_1343" x1="28" y1="128" x2="228.5" y2="128" gradientUnits="userSpaceOnUse">
<stop stop-color="#4190FF"/>
<stop offset="0.51" stop-color="#2EB9FA"/>
<stop offset="1" stop-color="#1BE1F6"/>
</linearGradient>
<linearGradient id="paint1_linear_406_1343" x1="28.5" y1="128" x2="228" y2="128" gradientUnits="userSpaceOnUse">
<stop stop-color="#4190FF"/>
<stop offset="0.51" stop-color="#2EB9FA"/>
<stop offset="1" stop-color="#1BE1F6"/>
</linearGradient>
</defs>
</svg>
