<svg width="256" height="256" viewBox="0 0 256 256" fill="none" xmlns="http://www.w3.org/2000/svg">
<path d="M196 0H60C26.8629 0 0 26.8629 0 60V196C0 229.137 26.8629 256 60 256H196C229.137 256 256 229.137 256 196V60C256 26.8629 229.137 0 196 0Z" fill="#242938"/>
<path d="M56.1643 105.977C43.5468 105.977 35.1113 113.304 35.1113 127.566V137.717C36.3624 137.11 37.7206 136.788 39.1861 136.788C40.6516 136.788 42.0456 137.145 43.2966 137.753V127.566C43.2966 118.344 48.3722 113.59 56.1643 113.59C63.9563 113.59 69.0319 118.344 69.0319 127.566V149.763H77.2172V127.566C77.2172 113.233 68.746 105.977 56.1643 105.977Z" fill="#F1F1F1"/>
<path d="M81.6855 128.424C81.6855 115.485 91.1933 105.977 104.633 105.977C118.072 105.977 127.437 115.485 127.437 128.424V131.462H90.2997C91.515 139.076 97.1982 143.293 104.633 143.293C110.173 143.293 114.033 141.578 116.535 137.86H125.614C122.326 145.795 114.57 150.907 104.633 150.907C91.1576 150.871 81.6855 141.399 81.6855 128.424ZM118.787 124.135C117.143 117.308 111.531 113.59 104.633 113.59C97.7344 113.59 92.1941 117.379 90.5499 124.135H118.787Z" fill="#F1F1F1"/>
<path d="M131.834 128.424C131.834 115.485 141.342 105.977 154.781 105.977C168.221 105.977 177.729 115.485 177.729 128.424C177.729 141.363 168.221 150.871 154.781 150.871C141.342 150.871 131.834 141.399 131.834 128.424ZM169.436 128.424C169.436 119.774 163.574 113.59 154.746 113.59C145.917 113.59 140.055 119.81 140.055 128.424C140.055 137.038 145.917 143.258 154.746 143.258C163.574 143.258 169.436 137.074 169.436 128.424Z" fill="#F1F1F1"/>
<path d="M224.624 158.235H225.589C230.843 158.235 232.845 155.911 232.845 149.871V107.407H241.03V149.334C241.03 159.879 236.884 165.312 226.34 165.312H224.624V158.235Z" fill="#F1F1F1"/>
<path d="M220.514 153.874H212.328V143.758H191.526C187.379 143.758 183.769 141.721 182.125 138.468C180.588 135.394 181.017 131.784 183.233 128.746L201.927 104.226C204.608 100.616 209.147 99.1502 213.436 100.58C217.726 102.01 220.514 105.834 220.514 110.338V136.466H226.661V143.758H220.514V153.874ZM190.132 133.214C189.881 133.536 189.738 133.964 189.738 134.429C189.738 135.573 190.668 136.502 191.812 136.502H212.364V110.159C212.364 108.801 211.363 108.301 210.934 108.158C210.756 108.122 210.505 108.05 210.184 108.05C209.683 108.05 209.076 108.229 208.54 108.908L190.132 133.214Z" fill="#F1F1F1"/>
<path d="M15.7034 128.817C14.6311 129.354 13.6303 130.247 12.9154 131.427C12.2006 132.606 11.9146 133.857 12.0218 135.108C12.1291 137.36 13.3801 139.433 15.4175 140.577C17.3119 141.649 19.4565 141.399 21.4939 140.934C23.9959 140.291 26.1405 140.041 28.3924 141.399C28.3924 141.399 28.3924 141.399 28.4996 141.399C32.3599 143.651 32.3599 149.298 28.4996 151.55C28.4996 151.55 28.4996 151.55 28.3924 151.55C26.1405 152.909 23.9959 152.623 21.4939 152.015C19.528 151.479 17.3834 151.193 15.4175 152.372C13.3444 153.552 12.2006 155.697 12.0218 157.841C11.9146 159.092 12.2006 160.343 12.9154 161.523C13.6303 162.702 14.5239 163.596 15.7034 164.132C17.6693 165.133 20.0999 165.133 22.1373 163.953C24.0317 162.881 24.9253 160.808 25.4614 158.842C26.1763 156.34 26.9984 154.338 29.3217 153.087C31.5735 151.729 33.7182 152.015 36.2202 152.623C38.1861 153.159 40.3307 153.445 42.2966 152.265C44.3697 151.086 45.5135 148.941 45.6922 146.796C45.6922 146.618 45.6922 146.51 45.6922 146.332C45.6922 146.153 45.6922 146.046 45.6922 145.867C45.585 143.615 44.334 141.542 42.2966 140.398C40.4022 139.326 38.2576 139.576 36.2202 140.041C33.7182 140.684 31.5735 140.934 29.3217 139.576C27.0699 138.218 26.1763 136.324 25.4614 133.821C24.9253 131.856 24.0317 129.854 22.1373 128.71C20.0641 127.852 17.6693 127.852 15.7034 128.817Z" fill="#8FE3E8"/>
<path d="M236.956 90C233.096 90 229.95 93.1454 229.95 97.0057C229.95 100.866 233.096 104.011 236.956 104.011C240.816 104.011 243.962 100.866 243.962 97.0057C243.962 93.1454 240.816 90 236.956 90Z" fill="#8FE3E8"/>
</svg>
