<?xml version="1.0" encoding="UTF-8" standalone="no"?>
<svg
   width="256"
   height="256"
   viewBox="0 0 256 256"
   fill="none"
   version="1.1"
   id="svg1"
   xmlns="http://www.w3.org/2000/svg"
   xmlns:svg="http://www.w3.org/2000/svg">
  <defs
     id="defs1" />
  <path
     d="M 196,0 H 60 C 26.8629,0 0,26.8629 0,60 v 136 c 0,33.137 26.8629,60 60,60 h 136 c 33.137,0 60,-26.863 60,-60 V 60 C 256,26.8629 229.137,0 196,0 Z"
     fill="#f4f2ed"
     id="path1" />
  <g
     id="c"
     transform="matrix(0.70715637,0,0,0.69903718,41.5,25.326639)">
    <path
       d="m 243.29,131.526 c 0,67.188 -54.458,121.645 -121.645,121.645 C 54.458,253.171 0,198.714 0,131.526 0,64.34 54.458,9.882 121.645,9.882 188.832,9.823 243.289,64.339 243.289,131.526"
       fill="#008cc1"
       id="c0"
       style="display:inline" />
    <path
       d="m 53.927,91.626 c 0,5.364 -4.361,9.725 -9.724,9.725 -5.364,0 -9.725,-4.36 -9.725,-9.725 0,-5.363 4.36,-9.724 9.725,-9.724 a 9.696,9.696 0 0 1 9.724,9.724 m 1.65,26.699 c 0,5.363 -4.361,9.725 -9.724,9.725 -5.363,0 -9.725,-4.362 -9.725,-9.725 0,-5.364 4.362,-9.724 9.725,-9.724 a 9.696,9.696 0 0 1 9.724,9.724 m 5.953,28.29 c 0,5.363 -4.362,9.724 -9.725,9.724 -5.363,0 -9.725,-4.361 -9.725,-9.724 0,-5.365 4.362,-9.725 9.725,-9.725 5.363,-0.059 9.724,4.302 9.724,9.725 m 13.321,25.342 c 0,5.363 -4.363,9.725 -9.726,9.725 -5.363,0 -9.724,-4.362 -9.724,-9.725 0,-5.364 4.361,-9.724 9.724,-9.724 5.363,-0.06 9.725,4.302 9.725,9.724 m 104.141,35.421 c 0,5.363 -4.361,9.724 -9.725,9.724 -5.363,0 -9.724,-4.361 -9.724,-9.724 0,-5.363 4.36,-9.725 9.724,-9.725 5.364,0 9.725,4.362 9.725,9.725 m 17.68,-20.923 c 0,5.363 -4.36,9.724 -9.725,9.724 -5.363,0 -9.724,-4.36 -9.724,-9.724 0,-5.363 4.361,-9.725 9.724,-9.725 5.365,0 9.726,4.362 9.726,9.725 M 145.396,38.525 c 0,5.363 -4.362,9.724 -9.725,9.724 -5.363,0 -9.724,-4.36 -9.724,-9.724 0,-5.363 4.361,-9.724 9.724,-9.724 5.363,0 9.725,4.36 9.725,9.724 m -25.578,-8.958 c 0,5.363 -4.362,9.724 -9.725,9.724 -5.363,0 -9.724,-4.36 -9.724,-9.724 0,-5.363 4.36,-9.725 9.724,-9.725 5.363,0 9.725,4.362 9.725,9.725"
       fill="#ffffff"
       id="c1" />
    <path
       d="m 188.773,37.7 c 35.804,0 64.83,29.026 64.83,64.83 0,35.804 -29.026,64.83 -64.83,64.83 -35.805,0 -64.83,-29.026 -64.83,-64.83 0,-35.804 29.025,-64.83 64.83,-64.83"
       fill="#66b245"
       id="c2" />
    <path
       d="m 188.773,169.096 c -36.705,0 -66.567,-29.862 -66.567,-66.566 0,-36.705 29.862,-66.566 66.567,-66.566 36.704,0 66.566,29.86 66.566,66.566 0,36.704 -29.862,66.566 -66.566,66.566 z m 0,-129.66 c -34.79,0 -63.094,28.305 -63.094,63.094 0,34.79 28.304,63.093 63.094,63.093 34.79,0 63.093,-28.303 63.093,-63.093 0,-34.79 -28.303,-63.093 -63.093,-63.093 z"
       fill="#ffffff"
       id="c3" />
    <path
       d="m 99.956,181.682 c 29.294,0 53.043,23.747 53.043,53.042 0,29.294 -23.749,53.043 -53.043,53.043 -29.295,0 -53.043,-23.749 -53.043,-53.043 0,-29.295 23.748,-53.042 53.043,-53.042"
       fill="#66b245"
       id="c4" />
    <path
       d="m 99.956,289.503 c -30.206,0 -54.779,-24.574 -54.779,-54.779 0,-30.206 24.573,-54.779 54.78,-54.779 30.205,0 54.778,24.573 54.778,54.78 0,30.204 -24.573,54.778 -54.779,54.778 z m 0,-106.085 c -28.29,0 -51.306,23.015 -51.306,51.306 0,28.29 23.016,51.306 51.306,51.306 28.29,0 51.306,-23.016 51.306,-51.306 0,-28.29 -23.016,-51.306 -51.306,-51.306 z"
       fill="#ffffff"
       id="c5" />
    <path
       d="m 56.284,1.984 c 19.53,0 35.362,15.833 35.362,35.362 0,19.53 -15.832,35.362 -35.362,35.362 -19.53,0 -35.361,-15.832 -35.361,-35.362 0,-19.53 15.832,-35.362 35.361,-35.362"
       fill="#66b245"
       id="c6" />
    <path
       d="m 56.284,74.444 c -20.456,0 -37.098,-16.642 -37.098,-37.098 0,-20.456 16.642,-37.098 37.098,-37.098 20.456,0 37.098,16.642 37.098,37.098 0,20.456 -16.642,37.098 -37.098,37.098 z m 0,-70.723 c -18.54,0 -33.625,15.084 -33.625,33.625 0,18.541 15.084,33.626 33.625,33.626 18.541,0 33.626,-15.085 33.626,-33.626 0,-18.54 -15.085,-33.625 -33.626,-33.625 z"
       fill="#ffffff"
       id="c7" />
  </g>
</svg>
