<svg width="256" height="256" viewBox="0 0 256 256" fill="none" xmlns="http://www.w3.org/2000/svg" id="neo4j">
<style>
  #neo4j {
      rect {fill: #242938}
      @media (prefers-color-scheme: light) {
          rect {fill: #F4F2ED}
      }
  }
</style>
<rect width="256" height="256" rx="60" fill="#242938"/>
<path d="M127 202C173.944 202 212 163.944 212 117C212 70.0558 173.944 32 127 32C80.0558 32 42 70.0558 42 117C42 163.944 80.0558 202 127 202Z" fill="#008CC1"/>
<path d="M72.3385 96.6097C76.1272 96.6097 79.1985 93.5383 79.1985 89.7497C79.1985 85.961 76.1272 82.8897 72.3385 82.8897C68.5498 82.8897 65.4785 85.961 65.4785 89.7497C65.4785 93.5383 68.5498 96.6097 72.3385 96.6097Z" fill="white"/>
<path d="M73.4402 115.173C77.2289 115.173 80.3002 112.101 80.3002 108.313C80.3002 104.524 77.2289 101.453 73.4402 101.453C69.6516 101.453 66.5802 104.524 66.5802 108.313C66.5802 112.101 69.6516 115.173 73.4402 115.173Z" fill="white"/>
<path d="M77.5737 135.11C81.3624 135.11 84.4337 132.038 84.4337 128.25C84.4337 124.461 81.3624 121.39 77.5737 121.39C73.785 121.39 70.7137 124.461 70.7137 128.25C70.7137 132.038 73.785 135.11 77.5737 135.11Z" fill="white"/>
<path d="M86.9065 152.751C90.6951 152.751 93.7665 149.679 93.7665 145.891C93.7665 142.102 90.6951 139.031 86.9065 139.031C83.1178 139.031 80.0465 142.102 80.0465 145.891C80.0465 149.679 83.1178 152.751 86.9065 152.751Z" fill="white"/>
<path d="M160.43 177.861C164.218 177.861 167.29 174.79 167.29 171.001C167.29 167.212 164.218 164.141 160.43 164.141C156.641 164.141 153.57 167.212 153.57 171.001C153.57 174.79 156.641 177.861 160.43 177.861Z" fill="white"/>
<path d="M173.021 163.273C176.81 163.273 179.881 160.202 179.881 156.413C179.881 152.625 176.81 149.553 173.021 149.553C169.233 149.553 166.161 152.625 166.161 156.413C166.161 160.202 169.233 163.273 173.021 163.273Z" fill="white"/>
<path d="M137.21 59.7216C140.998 59.7216 144.07 56.6502 144.07 52.8616C144.07 49.0729 140.998 46.0016 137.21 46.0016C133.421 46.0016 130.35 49.0729 130.35 52.8616C130.35 56.6502 133.421 59.7216 137.21 59.7216Z" fill="white"/>
<path d="M119.142 53.3969C122.931 53.3969 126.002 50.3256 126.002 46.5369C126.002 42.7482 122.931 39.6769 119.142 39.6769C115.353 39.6769 112.282 42.7482 112.282 46.5369C112.282 50.3256 115.353 53.3969 119.142 53.3969Z" fill="white"/>
<path d="M114.15 229.15C135.137 229.15 152.15 212.137 152.15 191.15C152.15 170.163 135.137 153.15 114.15 153.15C93.1632 153.15 76.15 170.163 76.15 191.15C76.15 212.137 93.1632 229.15 114.15 229.15Z" fill="#66B245" stroke="white" stroke-width="2.3"/>
<path d="M175.15 142.15C200.003 142.15 220.15 122.003 220.15 97.15C220.15 72.2972 200.003 52.15 175.15 52.15C150.297 52.15 130.15 72.2972 130.15 97.15C130.15 122.003 150.297 142.15 175.15 142.15Z" fill="#66B245" stroke="white" stroke-width="2.3"/>
<path d="M82.15 77.15C95.9571 77.15 107.15 65.9571 107.15 52.15C107.15 38.3429 95.9571 27.15 82.15 27.15C68.3429 27.15 57.15 38.3429 57.15 52.15C57.15 65.9571 68.3429 77.15 82.15 77.15Z" fill="#66B245" stroke="white" stroke-width="2.3"/>
</svg>