<svg width="256" height="256" viewBox="0 0 256 256" fill="none" xmlns="http://www.w3.org/2000/svg">
<path d="M196 0H60C26.8629 0 0 26.8629 0 60V196C0 229.137 26.8629 256 60 256H196C229.137 256 256 229.137 256 196V60C256 26.8629 229.137 0 196 0Z" fill="#242938"/>
<path d="M40.9438 36L214.088 36.0396C214.251 37.3707 214.204 38.7165 214.203 40.0551C214.203 42.2699 214.178 44.4895 214.295 46.702C216.154 46.8646 218.047 46.7964 219.912 46.7886C221.603 46.7815 223.311 46.8288 225 46.7753V133.572V209.565C221.445 209.593 217.889 209.583 214.333 209.539L214.314 209.707C214.054 212.064 214.209 214.796 214.241 217.188C214.251 217.951 214.338 218.771 214.272 219.528C214.247 219.803 214.201 219.983 214.057 220.218C213.752 220.367 178.276 220.238 174.665 220.237L83.8605 220.239L54.1493 220.24L45.1599 220.247C43.7495 220.255 42.3237 220.353 40.9166 220.297C40.9082 220.264 40.899 220.23 40.8913 220.197C40.5177 218.568 41.1465 210.204 40.482 209.568C39.1654 209.345 37.5967 209.579 36.2504 209.581L32.1162 209.569C31.4457 209.567 30.654 209.485 30 209.602V133.664V46.7952C33.5215 46.8264 37.1496 46.9351 40.6587 46.6934C41.0178 43.1521 40.6063 39.5495 40.9438 36Z" fill="#AEB1B2"/>
<path d="M40.6641 36H127.119H214.145C214.309 37.3407 214.204 37.9743 214.204 39.3226C214.203 41.5533 214.178 43.7888 214.295 46.0173C216.154 46.181 218.047 46.1124 219.912 46.1045C221.603 46.0973 223.311 46.145 225 46.0911V133.513C221.449 133.573 217.896 133.575 214.343 133.518C214.203 131.987 214.256 130.419 214.253 128.882L214.241 121.642L214.156 101.445C213.027 101.202 211.79 101.268 210.641 101.269C208.463 101.272 206.264 101.374 204.092 101.196C204.059 106.627 204.051 112.067 203.925 117.498C203.719 126.393 203.393 135.293 203.506 144.193L196.752 144.176C195.551 144.174 194.061 144.012 192.901 144.293C189.638 144.099 186.342 144.376 183.073 144.235L182.249 144.247C182.252 146.877 182.155 149.495 182.195 152.126C182.208 152.956 182.131 153.935 182.304 154.74L182.241 154.839C180.777 155.06 179.18 154.933 177.695 154.94C175.58 154.949 173.463 155.014 171.35 155.007C170.951 155.033 170.6 155.017 170.206 154.954C170.312 150.91 170.283 146.844 170.244 142.798C170.366 139.286 170.339 135.773 170.447 132.262C170.361 131.451 170.42 130.565 170.422 129.748L170.438 125.152C170.44 124.32 170.522 123.393 170.326 122.581C170.112 122.397 169.779 122.424 169.509 122.404C169.734 122.265 169.97 122.175 170.212 122.073L170.218 121.764L170.255 121.882C170.494 120.165 170.216 118.205 170.179 116.464C170.147 114.941 170.293 113.285 170.096 111.782C169.815 109.879 169.954 107.809 170.008 105.892C170.05 104.193 170.077 102.495 170.088 100.795C167.833 100.836 165.582 100.948 163.328 101.025C162.085 101.068 160.773 101.015 159.543 101.169C158.418 101.345 149.474 101.312 148.784 100.937L148.631 101.073C145.315 100.851 141.928 100.985 138.603 100.956C136.882 100.74 134.853 100.919 133.103 100.924C131.115 101.022 129.094 100.937 127.101 100.937C123.614 100.955 120.127 100.953 116.64 100.933L116.623 101.035C115.108 100.779 112.837 101.033 111.255 101.071C109.641 101.11 107.997 101.047 106.388 101.147L106.193 101.204C102.642 101.069 99.0719 101.416 95.5132 101.156C95.3533 97.6334 95.3528 94.0693 95.3991 90.5447L95.3382 90.4559C93.5373 90.4579 86.1512 90.5876 84.8511 90.083C84.814 87.0264 84.8803 83.9698 84.8662 80.9126C84.8637 80.3067 84.9871 79.0305 84.8228 78.4934C84.7979 78.4129 84.7341 78.3506 84.6897 78.279L84.7282 78.2387C85.0665 74.69 84.6371 71.0819 84.9213 67.5355C87.2223 67.6026 89.5306 67.5624 91.8321 67.5599C93.0021 67.5586 94.3193 67.6892 95.4635 67.4885C95.2948 66.2435 95.4771 64.7858 95.4912 63.5217C95.5156 61.3273 95.4464 58.759 95.5078 56.5664H95.3172C91.4138 56.4712 87.5099 56.5664 83.701 56.5664C76.4808 56.5664 69.212 56.4908 61.9922 56.5664C61.9922 55.043 61.9922 53.3291 61.9922 51.7105C61.9922 49.7109 61.9922 47.9019 61.9922 45.9023C57.7711 45.8405 53.4594 45.9253 49.2389 45.9766C46.4022 46.011 43.4866 45.7951 40.6641 46.0086C40.6643 42.3794 40.6644 39.6182 40.6641 36Z" fill="#8D8F91"/>
<path d="M116.844 45.8936L214.347 45.8984L214.34 56.6305C213.084 56.482 211.74 56.57 210.475 56.5698L203.695 56.5637L193.01 56.5677L159.49 56.5736L138.163 56.5795C138.166 60.1213 138.209 63.6677 138.17 67.2091C138.17 70.7627 138.052 74.3584 138.188 77.9069L116.833 77.9046L116.82 56.5927C109.726 56.4519 102.608 56.5766 95.5108 56.5797C87.8985 56.4963 80.2794 56.5774 72.6661 56.5656L62.0497 56.5684L61.996 56.5864C59.5463 56.5296 57.0903 56.5694 54.6401 56.5732C53.558 56.5747 52.4204 56.6439 51.3458 56.5475C51.319 60.0819 51.4464 63.6465 51.315 67.1763L51.2759 67.2148C47.7426 67.3051 44.1977 67.2183 40.6623 67.2504L40.6556 56.5631L40.6484 45.8947L61.9743 45.8956L116.844 45.8936Z" fill="#E5EAEA"/>
<path d="M127.494 56.5628L134.501 56.5696C135.712 56.5683 136.957 56.5085 138.163 56.5797C138.166 60.1217 138.208 63.6681 138.17 67.2093C138.17 70.7631 138.051 74.3588 138.187 77.9073L116.833 77.905L116.82 56.5931C120.373 56.4942 123.94 56.5795 127.494 56.5628Z" fill="#C5CACA"/>
<path d="M30 132.74L40.6626 132.745L40.6645 187.614C40.6613 194.664 40.5058 201.896 40.6671 208.921C37.1193 208.832 33.5501 208.915 30 208.916V132.74Z" fill="#76757F"/>
<path d="M116.822 56.5927L116.835 77.9047C116.83 81.95 116.711 86.0382 116.849 90.0786C113.296 90.0669 109.736 90.12 106.184 90.0717L106.169 90.0205C106.25 85.9811 106.162 81.9334 106.189 77.8921L95.5019 77.8852L95.5189 67.2389C95.4531 63.6906 95.514 60.1296 95.5126 56.5798C102.61 56.5767 109.728 56.452 116.822 56.5927Z" fill="#67534F"/>
<path d="M95.5171 67.2395L106.174 67.2334C106.168 70.7742 106.293 74.3573 106.187 77.8925L95.5 77.8856L95.5171 67.2395Z" fill="#8E716A"/>
<path d="M106.169 90.0205L106.184 90.0717L106.178 97.1024C106.178 98.2846 106.112 99.5155 106.193 100.692L106.233 100.741C106.071 101.951 106.167 103.26 106.167 104.483L106.176 111.416L84.8484 111.41L84.8348 122.057C83.5068 121.974 82.1233 122.06 80.7885 122.065L72.6709 122.094C72.5875 118.537 72.6572 114.964 72.6564 111.405H84.8489C84.847 109.975 84.6914 101.372 84.9128 100.75C88.4428 100.729 91.9771 100.708 95.5066 100.746L95.5042 90.1005C97.9334 90.0478 100.372 90.0961 102.802 90.0995C103.869 90.1009 105.127 90.2257 106.169 90.0205Z" fill="#C06235"/>
<path d="M106.169 90.0205L106.184 90.0717L106.177 97.1024C106.178 98.2846 106.112 99.5155 106.193 100.692C105.134 100.896 103.799 100.755 102.71 100.754L95.5063 100.746L95.5039 90.1005C97.9331 90.0478 100.372 90.0961 102.802 90.0995C103.868 90.1009 105.127 90.2257 106.169 90.0205Z" fill="#C6A3B9"/>
<path d="M72.6665 90.0711C76.7208 90.073 80.8209 89.9385 84.8686 90.0715C88.4049 90.0964 91.9725 89.9775 95.5039 90.1008L95.5063 100.746C91.9768 100.709 88.4425 100.729 84.9125 100.751C84.6912 101.373 84.8467 109.976 84.8486 111.406H72.6562C72.7625 104.299 72.6494 97.1793 72.6665 90.0711Z" fill="#A54F38"/>
<path d="M84.8698 90.0714C88.4061 90.0963 91.9736 89.9769 95.5051 90.1007L95.5075 100.746C91.978 100.709 88.4437 100.729 84.9137 100.751C84.6802 100.206 84.8444 91.3794 84.8698 90.0714Z" fill="#67534F"/>
<path d="M84.8531 77.9013L95.5011 77.8853L106.188 77.8921C106.161 81.9333 106.249 85.981 106.168 90.0204C105.126 90.2261 103.868 90.1008 102.801 90.0994C100.371 90.0964 97.9323 90.0482 95.5031 90.1003C91.9716 89.977 88.4046 90.096 84.8678 90.0711C84.7586 86.0224 84.8468 81.9528 84.8531 77.9013Z" fill="#C5CACA"/>
<path d="M84.8531 77.9013L95.5011 77.8853L95.5031 90.1003C91.9716 89.977 88.4046 90.096 84.8678 90.0711C84.7586 86.0224 84.8468 81.9528 84.8531 77.9013Z" fill="#8E716A"/>
<path d="M72.6679 77.8774C76.7051 78.0435 80.8106 77.8976 84.8534 77.9015C84.8475 81.953 84.7593 86.0227 84.8685 90.0714C80.8208 89.9383 76.7207 90.0728 72.6664 90.0709L72.6523 90.0061C72.8035 85.9871 72.6657 81.9028 72.6679 77.8774Z" fill="#67534F"/>
<path d="M40.6562 77.8875C44.1883 77.8932 47.7803 77.7546 51.3036 77.9115L51.3324 78.0189L51.3249 90.082C47.7894 90.084 44.1889 89.9372 40.6616 90.1074L40.6562 77.8875Z" fill="#E5EAEA"/>
<path d="M84.8398 67.2587C88.3786 67.1722 91.9793 67.1452 95.5171 67.2393L95.5 77.8854L84.852 77.9014L84.8398 67.2587Z" fill="#67534F"/>
<path d="M61.9776 122.077C65.5411 122.061 69.1044 122.067 72.6679 122.095C72.6614 125.648 72.6196 129.205 72.6527 132.757C69.1202 132.616 65.5439 132.735 62.0065 132.741C61.9387 129.189 62.0122 125.63 61.9776 122.077Z" fill="#C06235"/>
<path d="M51.3471 56.5474C52.4216 56.6439 53.5592 56.5748 54.6413 56.5731C57.0915 56.5694 59.5475 56.5297 61.9972 56.5864L61.9877 63.3215C61.9877 64.6169 61.9363 65.9405 62.0269 67.2322C59.6096 67.2053 57.1889 67.2391 54.7712 67.2431C53.6606 67.245 52.4058 67.3636 51.3164 67.1764C51.4476 63.6464 51.3202 60.0819 51.3471 56.5474Z" fill="#ABB0B1"/>
<path d="M159.491 56.5739L193.011 56.568L203.696 56.564L210.476 56.5701C211.741 56.5703 213.085 56.4823 214.342 56.6309L214.341 77.9586L214.349 90.0634C214.31 93.6446 214.338 97.2287 214.341 100.81C213.111 100.688 211.84 100.748 210.603 100.748C208.294 100.748 205.98 100.773 203.671 100.745L203.678 132.729L203.673 143.401L193.01 143.407L182.376 143.404C182.246 146.952 182.454 150.514 182.333 154.062L170.168 154.084L170.161 164.746C170.141 168.785 170.277 172.869 170.14 176.902C163.041 176.998 155.936 176.873 148.836 176.933L148.833 164.734C145.28 164.671 141.718 164.722 138.165 164.731L116.85 164.73C113.288 164.678 109.723 164.774 106.161 164.713C102.155 164.809 98.1283 164.727 94.1201 164.727C91.0391 164.727 87.9269 164.836 84.8508 164.723C84.7908 161.18 84.841 157.628 84.8381 154.084L72.6556 154.079C72.5875 150.529 72.6575 146.965 72.6621 143.414C72.6061 139.864 72.6709 136.307 72.6553 132.757C72.6221 129.204 72.664 125.648 72.6705 122.095L80.788 122.065C82.1227 122.06 83.5063 121.975 84.8342 122.057L84.8479 111.41L106.175 111.416L106.167 104.483C106.166 103.26 106.07 101.952 106.233 100.741L106.193 100.693C106.112 99.5156 106.178 98.2851 106.177 97.1024L106.183 90.0717C109.736 90.1205 113.295 90.0668 116.848 90.0785C116.71 86.0386 116.829 81.9505 116.834 77.9049L138.189 77.9072C138.053 74.3587 138.172 70.7631 138.172 67.2094C138.21 63.668 138.167 60.1217 138.165 56.5798L159.491 56.5739Z" fill="#D7742F"/>
<path d="M159.49 56.5739L193.01 56.568L203.694 56.564L210.474 56.5701C211.739 56.5703 213.083 56.4823 214.34 56.6309L214.339 77.9586L214.347 90.0634C214.308 93.6446 214.331 97.9263 214.334 101.508C213.096 101.508 211.858 101.508 210.621 101.508C208.311 101.507 206.455 101.536 204.146 101.508L203.677 132.729V144.259H193.006L182.374 143.404L182.349 143.341C182.205 139.824 182.326 136.25 182.321 132.726C182.468 129.196 182.313 125.616 182.348 122.08C182.272 118.52 182.331 114.948 182.329 111.387C178.274 111.448 174.212 111.416 170.156 111.414L170.154 100.744L159.497 100.74C155.947 100.745 152.394 100.781 148.845 100.747C148.659 97.2292 148.819 93.6232 148.827 90.0966C145.314 89.9006 141.688 90.0483 138.165 90.0907L138.187 77.9072C138.051 74.3587 138.17 70.7631 138.17 67.2094C138.208 63.668 138.165 60.1217 138.163 56.5798L159.49 56.5739Z" fill="#C5CACA"/>
<path d="M138.163 56.5801L159.49 56.5742C159.485 60.1012 159.4 63.6481 159.505 67.1726L159.552 67.2227C159.381 68.4839 159.476 69.8615 159.482 71.1339C159.5 73.3911 159.506 75.6484 159.499 77.906C155.947 77.7967 152.367 77.8888 148.813 77.8938L148.827 90.0969C145.314 89.9009 141.688 90.0486 138.165 90.091L138.187 77.9075C138.051 74.359 138.17 70.7633 138.17 67.2097C138.208 63.6683 138.165 60.122 138.163 56.5801Z" fill="#67534F"/>
<path d="M159.504 67.1724L159.552 67.2224C159.38 68.4838 159.476 69.8612 159.481 71.1336C159.499 73.3908 159.505 75.6482 159.498 77.9057C155.947 77.7964 152.366 77.8886 148.812 77.8935L148.831 67.2399L155.89 67.242C157.064 67.2428 158.344 67.3403 159.504 67.1724Z" fill="#8E716A"/>
<path d="M170.169 77.8364L170.217 77.8863C170.042 79.1649 170.144 80.5616 170.145 81.8545C170.149 84.5903 170.207 87.3359 170.15 90.0703L159.498 90.0995V100.74C155.948 100.745 152.395 100.781 148.845 100.747C148.659 97.2292 148.82 93.6232 148.828 90.0966L148.814 77.8935C152.368 77.8886 155.948 77.7964 159.499 77.9057C161.929 77.8231 164.383 77.9019 166.815 77.9069C167.908 77.9088 169.089 77.9926 170.169 77.8364Z" fill="#C5CACA"/>
<path d="M170.172 77.8364L170.22 77.8863C170.044 79.1649 170.146 80.5616 170.148 81.8545C170.152 84.5903 170.21 87.3359 170.153 90.0703L159.5 90.0995L159.502 77.9057C161.931 77.8231 164.385 77.9019 166.818 77.9069C167.91 77.9088 169.092 77.9926 170.172 77.8364Z" fill="#8E716A"/>
<path d="M148.828 90.0962L159.498 90.0996V100.74C155.948 100.745 152.395 100.781 148.845 100.746C148.659 97.2288 148.82 93.6233 148.828 90.0962Z" fill="#C6A3B9"/>
<path d="M159.5 90.0995L170.153 90.0698L182.336 90.0562L182.333 111.387C178.277 111.448 174.215 111.415 170.159 111.414L170.157 100.744L159.5 100.74V90.0995Z" fill="#A54F38"/>
<path d="M159.5 90.0996L170.153 90.0703L170.163 97.1356C170.164 98.3232 170.24 99.561 170.157 100.744L159.5 100.74V90.0996Z" fill="#67534F"/>
<path d="M170.217 77.8857L182.343 77.8926L182.334 90.056L170.15 90.0696C170.207 87.3352 170.149 84.5896 170.145 81.8538C170.143 80.5609 170.042 79.1643 170.217 77.8857Z" fill="#67534F"/>
<path d="M203.672 77.8933C205.994 77.9215 208.32 77.8952 210.643 77.8956C211.865 77.8959 213.127 77.8312 214.342 77.9584L214.351 90.0631C210.811 90.2021 207.223 90.086 203.678 90.0899L203.672 77.8933Z" fill="#ABB0B1"/>
<path d="M193.012 56.568L203.696 56.564C203.617 57.8216 203.668 59.1131 203.668 60.3745L203.677 67.2343L193.013 67.2381L193.012 56.568Z" fill="#ABB0B1"/>
<path d="M182.352 122.08L193.007 122.073L193.01 132.754C189.455 132.653 185.882 132.743 182.324 132.726C182.471 129.196 182.316 125.616 182.352 122.08Z" fill="#C06235"/>
<path d="M159.552 67.2222C163.086 67.2425 166.62 67.2448 170.154 67.2288C170.148 70.7457 169.998 74.3265 170.169 77.8362C169.089 77.9923 167.907 77.9085 166.815 77.9066C164.382 77.9016 161.928 77.8228 159.499 77.9055C159.505 75.6481 159.5 73.3908 159.482 71.1334C159.476 69.861 159.381 68.4836 159.552 67.2222Z" fill="#67534F"/>
<path d="M116.834 77.9048L138.189 77.9071L138.166 90.0906C141.689 90.0482 145.315 89.9005 148.829 90.0964C148.821 93.623 148.66 97.229 148.846 100.746C145.287 100.698 141.722 100.744 138.163 100.747L116.899 100.754L116.85 100.73C113.329 100.858 109.757 100.761 106.233 100.741L106.193 100.693C106.111 99.5154 106.178 98.285 106.177 97.1023L106.184 90.0716C109.736 90.1203 113.295 90.0667 116.848 90.0784C116.711 86.0385 116.829 81.9503 116.834 77.9048Z" fill="#A54F38"/>
<path d="M116.839 90.0859L130.935 90.084C133.34 90.0835 135.77 90.1566 138.173 90.0684C138.147 93.6276 138.143 97.1873 138.163 100.747L116.899 100.753L116.85 100.73C116.801 97.1834 116.837 93.633 116.839 90.0859Z" fill="#C06235"/>
<path d="M116.899 100.754L138.162 100.747L138.16 122.073L127.487 122.068L127.496 132.738H116.836L116.847 109.707L116.828 103.868C116.824 102.877 116.71 101.722 116.899 100.754Z" fill="#E68C37"/>
<path d="M170.163 132.768C174.215 132.675 178.271 132.781 182.324 132.726C182.328 136.25 182.207 139.824 182.352 143.341L182.376 143.404C182.247 146.952 182.454 150.514 182.334 154.062L170.169 154.084C170.095 150.531 170.161 146.963 170.158 143.407C170.203 139.863 170.164 136.314 170.163 132.768Z" fill="#D7742F"/>
<path d="M170.161 132.768C174.213 132.675 178.269 132.781 182.322 132.726C182.326 136.25 182.205 139.824 182.35 143.341C181.341 143.59 179.637 143.414 178.546 143.412L170.156 143.407C170.201 139.863 170.163 136.314 170.161 132.768Z" fill="#C06235"/>
<path d="M170.161 164.747C170.141 168.785 170.276 172.869 170.14 176.902C163.04 176.998 155.936 176.873 148.835 176.933L148.832 164.734C151.427 164.651 154.045 164.724 156.643 164.725L170.161 164.747Z" fill="#C06235"/>
<path d="M72.6683 122.095L80.7858 122.066C82.1206 122.061 83.5041 121.975 84.8321 122.057C84.8218 126.18 84.8949 130.312 84.815 134.433L84.8286 143.324C82.8158 143.517 80.7268 143.408 78.7023 143.409C76.7005 143.411 74.6568 143.5 72.66 143.414C72.604 139.865 72.6687 136.307 72.6531 132.757C72.62 129.204 72.6619 125.648 72.6683 122.095Z" fill="#D7742F"/>
<path d="M72.6531 132.757C75.171 132.728 77.6887 132.72 80.2062 132.733C81.7155 132.735 83.2608 132.675 84.7648 132.789C84.757 133.284 84.6712 133.968 84.815 134.433L84.8286 143.324C82.8158 143.517 80.7268 143.408 78.7023 143.409C76.7005 143.411 74.6568 143.5 72.66 143.414C72.604 139.864 72.6687 136.307 72.6531 132.757Z" fill="#C06235"/>
<path d="M159.496 100.74L170.154 100.744L170.156 111.414C167.785 111.334 165.388 111.409 163.014 111.409L148.831 111.417C148.803 107.861 148.807 104.303 148.844 100.747C152.394 100.781 155.946 100.745 159.496 100.74Z" fill="#C06235"/>
<path d="M84.8344 122.057L95.5195 122.068C95.5083 125.597 95.5195 129.12 95.5248 132.743L95.518 143.425C94.4031 143.502 93.2438 143.422 92.1235 143.419L84.8486 143.414L84.831 143.324L84.8174 134.433C84.8973 130.311 84.8242 126.179 84.8344 122.057Z" fill="#E5EAEA"/>
<path d="M159.466 122.071C163.026 122.068 166.599 121.998 170.158 122.085L170.163 132.768C170.164 136.313 170.203 139.863 170.158 143.407C168.399 143.41 160.541 143.199 159.491 143.502L159.488 132.747C159.548 129.195 159.518 125.623 159.466 122.071Z" fill="#E5EAEA"/>
<path d="M148.831 132.742L159.484 132.747L159.488 143.501L159.495 154.002L159.417 154C158.348 154.237 156.928 154.066 155.812 154.063L148.872 154.067C148.648 152.306 148.829 149.341 148.829 147.47L148.831 132.742Z" fill="#27303C"/>
<path d="M148.826 143.402C152.317 143.397 156.001 143.325 159.49 143.402C159.49 146.907 159.468 150.42 159.49 153.971C158.633 154.257 156.929 154.066 155.813 154.063L148.873 154.068C148.636 150.543 148.779 146.933 148.826 143.402Z" fill="#151619"/>
<path d="M170.156 111.414C174.212 111.416 178.274 111.448 182.33 111.387C182.331 114.948 182.273 118.52 182.349 122.08C178.316 121.964 174.266 122.129 170.229 122.047C170.096 120.673 170.147 119.242 170.144 117.861L170.156 111.414Z" fill="#C06235"/>
<path d="M148.817 122.069L159.465 122.071C159.517 125.623 159.547 129.195 159.487 132.747L148.834 132.742C148.765 129.188 148.816 125.625 148.817 122.069Z" fill="#C5CACA"/>
<path d="M95.5174 122.069C99.0669 122.069 102.625 122.016 106.173 122.082C106.175 125.634 106.22 129.191 106.168 132.742H95.5067C95.5082 129.216 95.458 125.599 95.5174 122.069Z" fill="#C5CACA"/>
<path d="M84.8469 143.415L92.1218 143.419C93.2426 143.423 94.4014 143.503 95.5163 143.426L95.5129 154.066L84.8435 154.082C84.822 150.526 84.823 146.97 84.8469 143.415Z" fill="#C5CACA"/>
<path d="M170.155 143.407C170.158 146.962 170.092 150.53 170.166 154.084C167.707 154.041 165.242 154.078 162.783 154.08C161.781 154.081 160.454 154.243 159.496 154.002L159.488 143.501C160.538 143.198 168.397 143.41 170.155 143.407Z" fill="#C5CACA"/>
<path d="M106.167 132.742L106.164 143.479C105.291 143.219 97.061 143.405 95.5156 143.426L95.5224 132.743L106.167 132.742Z" fill="#27303C"/>
<path d="M95.519 143.426C97.0644 143.405 105.294 143.219 106.167 143.48L106.17 154.066L95.5156 154.066L95.519 143.426Z" fill="#151619"/>
<path d="M116.816 143.389C119.194 143.512 121.639 143.404 124.022 143.403L138.178 143.395C138.121 146.95 138.167 150.513 138.168 154.07L116.841 154.074L116.816 143.389Z" fill="#C06235"/>
<path d="M106.16 164.714C109.723 164.774 113.288 164.678 116.849 164.73L138.164 164.731C141.718 164.722 145.279 164.671 148.832 164.734L148.836 176.932C148.837 180.477 148.919 184.041 148.826 187.584C148.784 191.139 148.822 194.698 148.828 198.254L106.19 198.248C106.111 194.7 106.183 191.137 106.17 187.587C106.102 184.806 106.166 182.014 106.146 179.232C106.213 174.394 106.138 169.552 106.16 164.714Z" fill="#A54F38"/>
<path d="M116.848 164.729L138.163 164.73C138.145 168.79 138.106 172.858 138.162 176.917L116.86 176.912C116.737 172.866 116.847 168.779 116.848 164.729Z" fill="#151619"/>
<path d="M106.16 164.713C109.723 164.774 113.288 164.678 116.849 164.729C116.849 168.779 116.739 172.867 116.861 176.912C116.823 179.071 116.815 181.229 116.835 183.388C116.837 184.782 116.79 186.197 116.853 187.588L106.17 187.586C106.102 184.806 106.166 182.015 106.146 179.232C106.213 174.394 106.138 169.552 106.16 164.713Z" fill="#E5EAEA"/>
<path d="M138.164 164.731C141.717 164.722 145.279 164.671 148.832 164.734L148.835 176.932C148.837 180.477 148.919 184.041 148.826 187.584L138.163 187.587C138.153 184.033 138.24 180.469 138.163 176.917C138.107 172.858 138.146 168.79 138.164 164.731Z" fill="#E5EAEA"/>
<path d="M116.862 176.912L138.165 176.917C138.241 180.469 138.154 184.033 138.164 187.587L116.853 187.588C116.79 186.197 116.838 184.782 116.835 183.388C116.815 181.229 116.824 179.071 116.862 176.912Z" fill="#C5CACA"/>
<path d="M72.6539 154.078L84.8363 154.084C84.8393 157.628 84.7886 161.181 84.849 164.723L84.8407 176.934C80.8086 176.781 76.7111 176.915 72.6729 176.92C72.543 169.312 72.6721 161.688 72.6539 154.078Z" fill="#A54F38"/>
<path d="M170.168 154.084L182.333 154.062L182.344 176.925L174.294 176.912C172.919 176.911 171.512 176.972 170.141 176.902C170.277 172.869 170.142 168.785 170.161 164.746L170.168 154.084Z" fill="#A54F38"/>
<path d="M84.852 164.723C87.9282 164.836 91.0409 164.726 94.1214 164.726C98.1296 164.727 102.156 164.809 106.162 164.713C106.14 169.552 106.215 174.394 106.148 179.232C106.004 178.502 106.073 177.694 106.081 176.95C103.372 176.845 100.636 176.915 97.9253 176.914L84.8438 176.933L84.852 164.723Z" fill="#C06235"/>
<path d="M148.837 176.932C155.938 176.873 163.042 176.998 170.142 176.902L170.158 187.589L156.2 187.577C153.747 187.577 151.279 187.521 148.828 187.584C148.921 184.041 148.839 180.477 148.837 176.932Z" fill="#A54F38"/>
<path d="M84.8427 176.933L97.9238 176.914C100.635 176.915 103.371 176.845 106.08 176.95C106.072 177.694 106.002 178.502 106.146 179.232C106.167 182.015 106.103 184.806 106.17 187.587C99.0811 187.433 91.9553 187.579 84.8622 187.584C84.7779 184.04 84.8515 180.479 84.8427 176.933Z" fill="#A54F38"/>
<path d="M51.3281 187.593L61.9954 187.577C61.9897 191.123 61.8804 194.706 62.0046 198.248L51.3359 198.261L51.3281 187.593Z" fill="#76757F"/>
<path d="M61.9831 143.397C65.5367 143.422 69.1109 143.314 72.6612 143.414C72.6566 146.965 72.5866 150.529 72.6547 154.079C69.1185 153.96 65.5494 154.064 62.0095 154.069C61.9303 150.518 61.996 146.95 61.9831 143.397Z" fill="#A54F38"/>
<path d="M182.372 143.403L193.007 143.407L193.005 154.074L182.33 154.062C182.451 150.514 182.243 146.952 182.372 143.403Z" fill="#A54F38"/>
<path d="M193.012 187.588L203.676 187.577C203.669 191.123 203.558 194.708 203.685 198.249L193.018 198.26L193.012 187.588Z" fill="#76757F"/>
<path d="M30 132.867C32.2948 132.866 34.5892 132.798 36.8839 132.775C37.9667 132.764 39.1111 132.686 40.188 132.797C40.3784 132.511 40.2786 133.339 40.2832 133.749C40.4826 151.702 40.5471 169.689 40.4444 187.642C40.2619 189.286 40.4535 191.331 40.4589 193.011C40.4755 198.221 40.6631 203.432 40.636 208.64C42.5075 208.506 44.4726 208.665 46.3529 208.705C50.1781 208.818 54.0043 208.881 57.8309 208.892L99.6896 208.857L180.383 208.859L197.149 208.845C202.841 208.795 208.523 208.647 214.216 208.696C214.056 206.275 214.231 203.732 214.238 201.295L214.335 183.755C214.211 166.764 214.213 149.772 214.343 132.781C217.895 132.837 221.449 132.836 225 132.776V209.576C221.445 209.604 217.891 209.621 214.336 209.576L213.574 209.671L214.336 208.91C214.336 210.814 214.306 214.147 214.336 216.432C214.346 217.195 214.306 217.941 214.336 218.717C214.347 219.003 214.336 219.955 214.336 220.24C213.955 220.24 178.726 220.24 174.727 220.24H83.9867H54.2798H45.4248C44.0144 220.248 42.0923 220.336 40.6641 220.336C40.4736 219.955 41.3306 220.24 40.636 220.24C40.306 218.622 40.5245 210.518 40.5245 209.617C39.143 209.617 37.44 209.614 36.0938 209.617H31.9995C31.329 209.614 30.6665 209.617 30 209.617V132.867Z" fill="#75757F"/>
<path d="M30 46.7658C33.5215 46.797 37.1496 46.9058 40.6587 46.6641C40.4956 49.6694 40.6903 52.6975 40.6641 55.7095C40.644 58.0098 40.6641 60.7559 40.6641 63.2315V77.9897V90.9391V120.36V129.691C40.6631 131.306 40.6641 131.912 40.6641 133.5C40.188 133.5 40.4344 133.5 40.188 133.5C39.1406 133.5 37.9028 133.5 36.8555 133.5C34.5703 133.5 32.2852 133.5 30 133.5V46.7658Z" fill="#8D8F91"/>
</svg>
