<svg width="256" height="256" viewBox="0 0 256 256" fill="none" xmlns="http://www.w3.org/2000/svg">
<path d="M196 0H60C26.8629 0 0 26.8629 0 60V196C0 229.137 26.8629 256 60 256H196C229.137 256 256 229.137 256 196V60C256 26.8629 229.137 0 196 0Z" fill="#242938"/>
<path fill-rule="evenodd" clip-rule="evenodd" d="M40 70.175C40 53.5 53.5089 40 70.1711 40H184.835C201.497 40 215 53.5063 215 70.175V167.688C215 184.925 193.188 192.406 182.608 178.8L149.533 136.244V187.844C149.533 202.844 137.374 215 122.372 215H70.1711C53.5089 215 40 201.494 40 184.825V70.175ZM70.1711 64.1375C68.5754 64.1375 67.0446 64.7728 65.9139 65.9043C64.7832 67.0359 64.1447 68.5715 64.1381 70.175V184.825C64.1381 188.163 66.8437 190.863 70.1711 190.863H123.28C124.947 190.863 125.395 189.513 125.395 187.844V118.656C125.395 101.406 147.207 93.9312 157.786 107.537L190.868 150.094V70.175C190.868 66.8375 191.179 64.1375 187.852 64.1375H70.1711Z" fill="#12FFF7"/>
<path fill-rule="evenodd" clip-rule="evenodd" d="M40 70.175C40 53.5 53.5089 40 70.1711 40H184.835C201.497 40 215 53.5063 215 70.175V167.688C215 184.925 193.188 192.406 182.608 178.8L149.533 136.244V187.844C149.533 202.844 137.374 215 122.372 215H70.1711C53.5089 215 40 201.494 40 184.825V70.175ZM70.1711 64.1375C68.5754 64.1375 67.0446 64.7728 65.9139 65.9043C64.7832 67.0359 64.1447 68.5715 64.1381 70.175V184.825C64.1381 188.163 66.8437 190.863 70.1711 190.863H123.28C124.947 190.863 125.395 189.513 125.395 187.844V118.656C125.395 101.406 147.207 93.9312 157.786 107.537L190.868 150.094V70.175C190.868 66.8375 191.179 64.1375 187.852 64.1375H70.1711Z" fill="url(#paint0_linear_341_1047)"/>
<path fill-rule="evenodd" clip-rule="evenodd" d="M40 70.175C40 53.5 53.5089 40 70.1711 40H184.835C201.497 40 215 53.5063 215 70.175V167.688C215 184.925 193.188 192.406 182.608 178.8L149.533 136.244V187.844C149.533 202.844 137.374 215 122.372 215H70.1711C53.5089 215 40 201.494 40 184.825V70.175ZM70.1711 64.1375C68.5754 64.1375 67.0446 64.7728 65.9139 65.9043C64.7832 67.0359 64.1447 68.5715 64.1381 70.175V184.825C64.1381 188.163 66.8437 190.863 70.1711 190.863H123.28C124.947 190.863 125.395 189.513 125.395 187.844V118.656C125.395 101.406 147.207 93.9312 157.786 107.537L190.868 150.094V70.175C190.868 66.8375 191.179 64.1375 187.852 64.1375H70.1711Z" fill="url(#paint1_linear_341_1047)"/>
<path d="M184.834 40C201.496 40 214.999 53.5063 214.999 70.175V167.688C214.999 184.925 193.187 192.406 182.608 178.8L149.526 136.244V187.844C149.526 202.844 137.373 215 122.371 215C122.766 215.001 123.158 214.923 123.524 214.772C123.889 214.621 124.221 214.399 124.501 214.118C124.782 213.838 125.004 213.505 125.156 213.138C125.308 212.772 125.387 212.379 125.388 211.981V118.65C125.388 101.412 147.206 93.9313 157.792 107.544L190.867 150.094V46.0312C190.859 44.4288 190.22 42.8948 189.089 41.7646C187.959 40.6344 186.429 40 184.834 40Z" fill="#B9FFB3"/>
<defs>
<linearGradient id="paint0_linear_341_1047" x1="215.006" y1="215" x2="61.1271" y2="39.9944" gradientUnits="userSpaceOnUse">
<stop stop-color="#B9FFB3"/>
<stop offset="1" stop-color="#B9FFB3" stop-opacity="0"/>
</linearGradient>
<linearGradient id="paint1_linear_341_1047" x1="215.006" y1="215" x2="111.062" y2="174.569" gradientUnits="userSpaceOnUse">
<stop stop-color="#1A1A1A" stop-opacity="0.9"/>
<stop offset="1" stop-color="#1A1A1A" stop-opacity="0"/>
</linearGradient>
</defs>
</svg>
