<svg width="256" height="256" viewBox="0 0 256 256" fill="none" xmlns="http://www.w3.org/2000/svg">
<path d="M196 0H60C26.8629 0 0 26.8629 0 60V196C0 229.137 26.8629 256 60 256H196C229.137 256 256 229.137 256 196V60C256 26.8629 229.137 0 196 0Z" fill="#242938"/>
<path d="M38 71.1776C66.4039 73.064 89.163 95.8807 90.9486 124.314H124.119C122.276 77.5424 84.7494 39.944 38 38V71.1776Z" fill="#0DC09D"/>
<path d="M91.1358 131.881C89.2494 160.285 66.4327 183.044 38 184.83V218C84.771 216.157 122.369 178.63 124.313 131.881H91.1358Z" fill="#0DC09D"/>
<path d="M164.864 124.119C166.751 95.7151 189.568 72.956 218 71.1704V38C171.229 39.8432 133.631 77.3696 131.687 124.119H164.864Z" fill="#0DC09D"/>
<path d="M218 184.822C189.596 182.936 166.837 160.12 165.052 131.687H131.881C133.725 178.458 171.251 216.056 218 218V184.822Z" fill="#0DC09D"/>
</svg>
