<svg width="256" height="256" viewBox="0 0 256 256" fill="none" xmlns="http://www.w3.org/2000/svg">
<path d="M196 0H60C26.8629 0 0 26.8629 0 60V196C0 229.137 26.8629 256 60 256H196C229.137 256 256 229.137 256 196V60C256 26.8629 229.137 0 196 0Z" fill="#242938"/>
<path d="M227.413 58.1636L220.212 171.143L151.366 23L227.413 58.1636ZM179.728 204.252L127.707 233.911L75.6853 204.252L78.626 186.966H176.79L179.728 204.252ZM35.1271 171.143L28 58.1636L104.047 23L35.1271 171.143Z" fill="url(#paint0_radial_206_78)"/>
<path fill-rule="evenodd" clip-rule="evenodd" d="M176.545 114.434L176.538 114.485C173.494 132.225 161.72 143.44 141.216 148.13C146.287 151.684 152.208 152.647 159.064 151.036C146.262 155.782 134.969 155.958 125.152 151.605C126.879 157.718 130.929 162.127 137.364 164.9C121.415 161.475 110.956 150.431 106.011 131.777C103.486 135.109 103.677 140.665 106.573 148.538C97.9368 138.083 96.3263 127.093 101.775 115.594C107.487 102.956 117.862 97.8915 132.905 100.404C153.326 122.81 166.492 129.353 172.342 120.007C174.901 112.013 172.27 102.18 164.431 90.5412C158.802 82.5904 152.173 77.0141 144.599 73.9008C143.048 69.4994 140.29 66.4173 136.419 64.8043C133.722 63.5469 131.229 63.3013 129.046 64.1898C128.691 64.3357 128.338 64.4846 127.985 64.6367C124.51 66.125 118.736 68.5971 112.306 66.1555C107.548 64.3488 104.208 65.5072 102.287 69.6302C100.395 73.858 99.1272 76.1538 98.4841 76.5175C97.5057 77.2799 95.4246 78.075 92.2588 78.8913C89.0933 79.7079 87.1077 80.9677 86.3023 82.6707C84.8165 86.2802 84.2782 89.1927 84.6875 91.4087C83.9745 94.1582 82.8274 96.0145 81.2489 96.9352C80.9025 97.1361 80.5535 97.3326 80.2021 97.5247C78.5481 98.437 77.7203 98.8934 77.3056 100.842L77.2718 101C76.8025 103.195 76.6471 103.92 78.9051 111.237C77.431 122.088 79.2207 132.541 84.2728 142.553C84.2665 142.54 91.3363 160.199 110.787 169.403C131.389 177.922 149.732 174.902 165.815 160.344C156.286 162.265 149.273 162.398 144.808 160.769C161.791 159.53 172.904 151.249 178.208 135.937C171.145 141.39 165.677 144.57 161.839 145.426C168.414 141.236 172.912 136.404 175.365 130.968C177.818 125.532 178.212 120.02 176.545 114.434ZM150.622 91.9082C149.07 93.9115 147.008 98.5739 151.171 101.197C155.334 103.82 153.479 100.537 152.031 98.5669C150.583 96.5974 150.622 91.9082 150.622 91.9082Z" fill="url(#paint1_radial_206_78)"/>
<defs>
<radialGradient id="paint0_radial_206_78" cx="0" cy="0" r="1" gradientUnits="userSpaceOnUse" gradientTransform="translate(127.816 119.421) rotate(90) scale(114.378 108.143)">
<stop stop-color="#AA1BB6"/>
<stop offset="1" stop-color="#452070"/>
</radialGradient>
<radialGradient id="paint1_radial_206_78" cx="0" cy="0" r="1" gradientUnits="userSpaceOnUse" gradientTransform="translate(127.592 125.411) rotate(26.565) scale(79.1638 70.6441)">
<stop offset="0.271" stop-color="#B1219B"/>
<stop offset="1" stop-color="#5306A1"/>
</radialGradient>
</defs>
</svg>
