<svg width="256" height="256" viewBox="0 0 256 256" fill="none" xmlns="http://www.w3.org/2000/svg">
<path d="M196 0H60C26.8629 0 0 26.8629 0 60V196C0 229.137 26.8629 256 60 256H196C229.137 256 256 229.137 256 196V60C256 26.8629 229.137 0 196 0Z" fill="#F4F2ED"/>
<path d="M82.6413 83.0041C88.0246 77.6788 95.7511 76.2207 102.781 74.0018C110.824 73.558 118.867 76.0305 126.151 79.3905C129.317 80.6584 129.127 84.3988 129.824 87.2517C127.544 87.7589 125.264 88.2026 122.984 88.7732C123.997 87.1883 124.947 85.6668 125.897 84.0819C125.834 82.5603 124.061 81.9898 123.174 80.912C121.971 81.7362 120.767 82.5603 119.564 83.3845C118.741 82.6871 117.917 81.9898 117.094 81.2924C114.878 81.6094 112.471 81.9264 110.381 80.7218C106.834 79.1369 103.034 77.9324 99.1078 78.3128C97.3345 79.0735 95.9411 80.4682 94.4845 81.6728C94.4845 81.0388 94.5478 79.7709 94.5478 79.1369C93.7245 80.0879 92.9012 81.0388 92.1412 82.0532C86.6946 82.6237 84.1613 88.266 85.3646 93.1476C84.2246 94.0351 83.0213 94.9861 81.8813 95.8736C83.148 93.4012 84.2247 90.6751 82.768 88.0125C78.7147 89.217 78.3981 93.6548 76.5614 96.8246C74.6615 100.311 71.4315 102.974 69.9115 106.651C69.7849 108.68 70.1015 110.645 70.2915 112.674C68.7715 112.23 67.2516 111.85 65.7949 111.406C69.5949 101.072 74.2181 90.4215 82.6413 83.0041Z" fill="#90E59A"/>
<path d="M94.4843 81.7369C96.0043 80.5323 97.3342 79.0742 99.1075 78.3769C103.034 77.9965 106.834 79.201 110.381 80.7859C109.874 83.0048 109.114 85.1603 108.101 87.189C105.061 85.6041 102.021 83.8924 99.1709 82.0539C99.7409 83.195 100.311 84.3361 100.881 85.4773C100.248 86.3648 99.5509 87.189 98.9176 88.0766C97.6509 86.4282 96.3842 84.7799 95.1809 83.0682C94.7376 85.5407 92.901 87.3792 90.3677 85.9845C90.9377 84.6531 91.5077 83.3852 92.0776 82.1173C92.8376 81.1029 93.661 80.152 94.4843 79.201C94.5476 79.7716 94.4843 81.0395 94.4843 81.7369Z" fill="#5CCE74"/>
<path d="M110.381 80.7222C112.471 81.9267 114.815 81.6097 117.095 81.2927C117.918 81.9901 118.741 82.6875 119.564 83.3848C120.768 82.5607 121.971 81.7365 123.174 80.9124C123.998 81.9901 125.834 82.5607 125.898 84.0822C125.011 85.6671 123.998 87.252 122.984 88.7735C122.414 88.9003 121.274 89.1539 120.768 89.3441C121.908 90.7388 123.048 92.1336 124.188 93.4649C119.375 93.7185 115.891 90.4219 112.218 88.0128C108.861 88.52 106.455 92.1336 102.971 92.514C101.261 91.7532 99.6781 90.7388 98.0948 89.7245C97.5248 91.563 97.1448 93.4649 96.0682 95.0498C94.4849 96.1276 92.4582 96.1276 90.6216 96.6347C90.6849 97.4589 90.8116 98.3465 90.8749 99.1706C88.9116 97.2687 86.505 95.4936 83.7184 96.7615C85.745 98.8536 82.705 99.6778 81.3117 100.629C78.5884 102.15 75.5485 104.116 75.2318 107.539C74.4718 109.504 75.2952 112.547 73.0785 113.625C70.4819 114.322 67.8219 113.879 65.2253 113.815C65.4153 113.181 65.732 111.977 65.922 111.343C67.4419 111.787 68.9619 112.167 70.4186 112.611C70.1652 110.582 69.8486 108.617 70.0386 106.588C71.5585 102.911 74.7885 100.248 76.6885 96.7615C78.5251 93.5917 78.8418 89.1539 82.895 87.9494C84.3517 90.6121 83.275 93.3381 82.0084 95.8106C83.1484 94.8596 84.2883 93.9721 85.4917 93.0845C84.2883 88.203 86.8217 82.5607 92.2682 81.9901C91.6982 83.258 91.1282 84.5894 90.5583 85.8573C93.0282 87.252 94.9282 85.4135 95.3715 82.9411C96.5748 84.6528 97.8415 86.3011 99.1081 87.9494C99.7415 87.0618 100.375 86.2377 101.071 85.3501C100.501 84.209 99.9315 83.0678 99.3615 81.9267C102.275 83.7652 105.251 85.4135 108.291 87.0618C109.115 85.1599 109.875 83.0044 110.381 80.7222ZM85.1117 121.042C86.505 121.296 87.835 121.55 89.2283 121.867C87.645 126.114 85.4283 130.425 85.6817 135.117C86.505 138.16 89.0383 140.442 90.9383 142.914C88.1516 143.739 84.2884 143.105 82.3884 145.704C81.2484 150.776 85.8717 153.692 88.8483 156.798C84.5417 155.213 79.7284 152.931 78.2084 148.176C80.2984 145.577 82.895 143.485 85.6183 141.456C81.6917 135.497 79.9818 126.748 85.1117 121.042ZM129.001 131.757C130.014 132.644 131.091 133.532 132.104 134.356C132.231 136.068 132.358 137.843 132.421 139.554C130.648 137.272 129.064 134.8 129.001 131.757ZM155.981 133.088C157.057 131.566 158.894 131.693 160.034 133.024C162.187 135.814 163.391 139.111 164.847 142.28C166.684 142.407 168.52 142.534 170.294 142.661C166.684 143.992 163.264 146.021 162.757 150.205C161.237 148.049 163.454 146.084 164.341 144.119C162.314 139.871 157.374 137.716 155.981 133.088ZM104.301 135.814L105.378 135.243C105.568 138.096 106.898 141.393 104.808 143.802C102.718 143.612 100.691 143.485 98.6648 143.105C101.388 141.329 103.415 139.111 104.301 135.814ZM132.421 139.618C133.941 141.646 135.651 143.422 137.551 145.07C139.578 142.724 144.074 138.984 145.911 143.422C142.871 144.88 139.071 145.957 138.058 149.634C138.058 149.761 137.994 149.951 137.994 150.078C138.438 153.311 139.641 156.418 140.591 159.524C133.624 155.023 137.804 145.323 132.421 139.618ZM170.294 140.505C173.27 140.822 176.437 141.52 178.717 143.739C175.867 143.548 172.954 143.675 170.294 142.661C170.294 142.154 170.294 141.076 170.294 140.505ZM162.821 156.862C166.43 158.447 169.977 160.158 173.777 161.426C175.93 160.539 178.97 155.784 180.744 159.271C177.957 161.807 174.094 164.406 170.167 163.518C167.127 162.06 165.164 159.144 162.821 156.862ZM62.312 157.432C63.0087 157.559 64.3386 157.749 65.0986 157.813C68.1386 164.85 68.2653 173.028 72.4452 179.621C74.8518 183.552 76.8151 187.672 79.0951 191.666C81.5017 195.787 85.4917 198.577 89.2283 201.43C97.2082 207.325 110.381 206.438 116.018 197.753C119.628 190.018 115.131 181.84 112.028 174.74C106.708 166.371 92.8382 172.711 93.2182 181.84C91.6349 172.774 103.225 165.103 110.951 169.731C116.461 173.281 117.981 180.001 120.134 185.771C122.668 192.681 118.931 200.859 112.408 203.902C107.341 207.135 101.135 205.867 95.4982 205.867C87.7716 205.487 82.7684 199.211 77.7651 194.202C72.8885 188.243 69.7219 181.143 65.922 174.423C63.8953 169.034 62.7553 163.265 62.312 157.432ZM103.351 180.635C104.238 181.65 104.935 182.791 105.821 183.869C103.668 186.658 100.185 186.531 97.0815 186.088C95.8148 184.693 94.4849 183.298 93.2182 181.903C96.2582 183.742 99.6781 187.482 103.478 185.137C103.351 183.615 103.351 182.157 103.351 180.635Z" fill="#75D66F"/>
<path d="M102.845 92.5139C106.328 92.1335 108.735 88.5199 112.091 88.0127C115.828 90.4852 119.311 93.7184 124.061 93.4648C122.921 92.0701 121.781 90.6754 120.641 89.344C121.211 89.2172 122.351 88.9003 122.858 88.7735C125.138 88.2029 127.418 87.7591 129.698 87.252C130.268 89.4074 130.838 91.6263 131.535 93.7818C130.458 94.8596 129.381 96.0007 128.241 97.0784C130.585 100.312 132.738 103.735 135.081 106.968C139.958 105.637 143.061 110.328 145.214 114.005C140.844 113.752 135.904 113.688 132.485 110.519C130.395 108.617 128.368 106.651 126.151 104.813C124.821 105.193 123.491 105.574 122.161 105.954C121.085 103.355 120.451 99.9313 117.158 99.2973C117.411 100.629 117.728 101.897 117.981 103.228C116.018 104.369 113.865 104.876 111.648 104.242C112.535 102.404 113.485 100.629 114.435 98.7902C111.711 98.5366 110.128 100.882 108.608 102.721C108.292 101.77 107.975 100.819 107.722 99.8679C106.708 99.7411 105.758 99.4875 104.745 99.4241C103.288 99.7411 102.718 101.833 101.135 101.897C98.5383 101.643 96.0684 100.565 93.4084 100.438C90.2418 100.882 87.2652 102.277 84.1619 103.165C83.1486 102.34 82.0719 101.516 81.0586 100.692C82.4519 99.6777 85.5552 98.9169 83.4652 96.8249C86.3152 95.5569 88.6585 97.332 90.6218 99.2339C90.5585 98.4098 90.4318 97.5222 90.3685 96.6981C92.2051 96.2543 94.1684 96.1909 95.815 95.1131C96.8917 93.5282 97.2717 91.5629 97.8417 89.7878C99.5516 90.7388 101.135 91.7531 102.845 92.5139Z" fill="#8FE772"/>
<path d="M128.305 97.0779C129.382 96.0001 130.458 94.859 131.598 93.7812C132.675 97.0145 134.068 100.311 136.791 102.467C141.351 105.953 146.101 109.757 151.801 111.089C156.868 112.04 162.441 111.469 166.811 108.553C170.611 105.129 172.384 100.121 176.311 96.8243C179.984 98.6628 184.101 99.487 187.647 101.579C191.321 103.925 193.094 108.109 195.311 111.723C192.904 112.166 190.561 112.673 188.154 113.181C189.041 114.702 189.991 116.287 190.941 117.809C190.307 118.76 189.674 119.711 189.104 120.725C187.901 118.823 186.761 116.921 185.621 115.019C183.024 115.653 180.554 116.667 178.337 118.062C178.591 119.267 178.844 120.471 179.097 121.676C173.524 118.823 167.571 121.676 162.568 124.465C161.048 125.289 159.464 126.24 157.944 127.065C154.778 125.353 151.675 123.578 148.318 122.246C146.988 124.402 145.405 126.494 143.821 128.523C143.251 126.874 142.618 125.226 142.111 123.514C141.541 123.578 140.401 123.768 139.831 123.831C139.578 126.177 139.641 128.523 139.958 130.868C138.438 130.678 136.855 130.488 135.335 130.298C136.031 127.128 136.855 124.021 137.488 120.788C136.728 120.852 135.145 120.978 134.385 121.042C131.788 125.036 131.662 129.854 132.168 134.482C131.092 133.594 130.078 132.707 129.065 131.883C129.192 128.586 129.635 125.353 129.888 122.056C126.468 120.598 125.075 124.529 124.442 127.065C122.542 126.431 120.642 125.86 118.805 125.163C114.562 123.831 111.775 120.091 107.659 118.443C105.505 117.555 103.922 115.78 102.275 114.195C102.085 114.829 101.705 116.097 101.579 116.731C103.225 119.52 103.225 123.134 99.9953 124.846C98.982 124.719 96.9554 124.465 95.8787 124.275C99.2987 127.762 104.302 128.396 108.799 129.6C108.165 130.044 106.899 130.932 106.265 131.376C101.959 129.981 97.272 129.854 93.2187 127.635C93.0921 125.987 92.9021 124.275 92.7754 122.627C91.5721 122.373 90.4321 122.183 89.2288 121.929C87.8355 121.676 86.5055 121.422 85.1122 121.105C84.0989 119.901 82.9589 117.809 81.1223 118.886C79.6656 120.218 78.4623 121.803 77.069 123.261C76.2457 122.12 75.359 120.978 74.5357 119.837C68.3291 120.598 68.8358 128.079 64.8458 131.439C62.3125 133.277 62.4392 136.764 60.0959 138.793C59.7792 135.94 59.5892 133.151 59.9059 130.298C61.1725 125.289 63.3892 120.598 64.6558 115.526C64.7825 115.146 64.9725 114.322 65.0992 113.878C67.6958 114.005 70.4191 114.385 72.9524 113.688C75.169 112.61 74.2824 109.567 75.1057 107.602C75.4857 104.178 78.4623 102.213 81.1856 100.691C82.1989 101.516 83.2756 102.34 84.2889 103.164C87.3922 102.213 90.3688 100.882 93.5354 100.438C96.1954 100.565 98.6653 101.642 101.262 101.896C102.845 101.833 103.352 99.7405 104.872 99.4236C105.885 99.487 106.835 99.7405 107.849 99.8673C108.165 100.818 108.482 101.769 108.735 102.72C110.318 100.882 111.838 98.536 114.562 98.7896C113.612 100.628 112.725 102.403 111.775 104.242C113.992 104.876 116.145 104.305 118.108 103.227C117.792 101.896 117.538 100.628 117.285 99.2968C120.578 99.8673 121.212 103.291 122.288 105.953C123.618 105.573 124.948 105.193 126.278 104.812C128.432 106.651 130.522 108.616 132.611 110.518C136.031 113.688 140.971 113.751 145.341 114.005C143.251 110.391 140.085 105.636 135.208 106.968C132.865 103.735 130.648 100.311 128.305 97.0779Z" fill="#A9F37E"/>
<path d="M188.217 113.181C190.623 112.674 192.967 112.23 195.373 111.723C196.133 113.371 196.767 115.02 197.4 116.668C190.813 123.261 181.124 124.973 172.447 127.002C168.837 128.08 165.481 126.178 162.504 124.466C167.507 121.74 173.46 118.824 179.034 121.676C178.78 120.472 178.527 119.267 178.274 118.063C180.554 116.668 183.024 115.654 185.557 115.02C186.697 116.922 187.9 118.824 189.04 120.725C189.61 119.775 190.243 118.76 190.877 117.809C190.053 116.288 189.104 114.703 188.217 113.181Z" fill="#87DE71"/>
<path d="M140.337 98.3466L140.211 99.1074C145.657 104.559 153.764 107.92 161.364 105.701C164.277 104.116 167.19 102.15 168.584 99.044C173.333 89.2175 174.157 77.6159 170.927 67.2188C168.014 65.1267 165.227 62.7177 163.517 59.5478C160.034 54.7297 154.27 49.6579 147.937 51.9402C141.477 52.8278 136.917 58.5335 135.144 64.4928C132.737 72.1004 131.914 80.7223 135.207 88.2031C135.841 91.9436 136.537 96.5715 140.337 98.3466ZM152.497 79.6446C153.89 83.7654 151.61 89.4711 146.544 89.5345C144.264 87.9496 141.097 86.4914 141.604 83.1948C140.717 77.1087 148.95 77.2989 152.497 79.6446Z" fill="#FBFDFC"/>
<path d="M195.12 103.608C198.033 100.502 201.58 98.093 204.683 95.2401C210.003 87.4423 214.499 77.1087 210.446 67.7259C209.053 61.5131 201.833 59.3576 196.196 60.0549C188.786 61.3229 180.617 63.9855 176.69 71.0226C176.817 77.8694 177.893 84.7163 176.5 91.4997C183.72 93.4016 191.573 96.5714 195.12 103.608ZM200.44 74.763C201.896 74.446 203.416 74.0656 204.873 73.6218C206.52 76.1577 206.456 79.7713 205.57 82.5608C202.656 85.4136 198.476 82.4974 197.273 79.3909C198.35 77.806 199.426 76.2845 200.44 74.763Z" fill="#FBFDFC"/>
<path d="M44.8955 144.689C44.1989 146.274 43.3756 147.922 42.5522 149.444C43.2489 151.473 44.3256 153.374 45.5922 155.086C45.9722 154.896 46.7322 154.579 47.0488 154.452C44.3256 151.282 46.4789 147.479 48.2522 144.436C47.1122 144.626 45.9722 144.689 44.8955 144.689Z" fill="white"/>
<path d="M52.8123 145.894L52.559 145.197C52.4323 145.45 52.2423 145.958 52.179 146.211L51.4823 147.035C51.3557 147.162 51.1024 147.479 51.039 147.606C49.3924 149.001 49.709 151.156 49.519 153.058C49.7724 153.502 50.3424 154.453 50.5957 154.96C53.4457 156.672 52.8757 150.395 50.9124 150.269C52.1157 148.81 53.4457 147.416 53.8256 145.514L52.8123 145.894Z" fill="white"/>
<path d="M146.544 89.5341C151.611 89.5341 153.827 83.765 152.497 79.6442C148.951 77.2985 140.781 77.1083 141.604 83.131C141.098 86.4276 144.264 87.9492 146.544 89.5341Z" fill="#231F20"/>
<path d="M205.57 82.497C206.457 79.7076 206.52 76.094 204.873 73.5581C203.417 74.0019 201.96 74.3823 200.44 74.6992C199.363 76.2208 198.35 77.7423 197.273 79.2638C198.477 82.4336 202.593 85.3499 205.57 82.497Z" fill="#231F20"/>
<path d="M202.783 143.802C196.26 142.661 189.673 143.738 183.15 143.612C180.237 141.646 177.387 139.364 173.777 139.11C172.637 139.618 171.497 140.061 170.357 140.505C173.334 140.822 176.437 141.519 178.717 143.675C175.867 143.485 172.954 143.612 170.294 142.597C166.684 143.929 163.264 145.957 162.757 150.141C161.237 147.986 163.454 146.021 164.341 144.055C162.314 139.808 157.437 137.589 155.981 133.024C157.057 131.503 158.894 131.63 160.034 132.961C162.187 135.75 163.391 139.047 164.847 142.217C166.684 142.344 168.52 142.47 170.294 142.597C170.294 142.09 170.294 141.012 170.294 140.505C169.407 140.886 168.457 141.266 167.57 141.71C165.987 138.223 164.657 134.673 163.517 131.059C165.67 131.566 167.76 132.327 169.914 132.771C179.794 131.249 190.37 129.284 198.097 122.437C199.743 120.789 202.657 119.331 202.15 116.605C201.96 115.21 201.517 113.878 200.883 112.674C199.807 110.392 198.287 108.3 197.337 105.891C199.553 105.066 201.833 104.242 203.987 103.228C211.713 95.6836 215.576 84.9062 216.4 74.2556C215.64 68.6132 214.056 62.4004 209.687 58.4064C201.707 54.4124 192.333 55.6803 184.227 58.5966C180.554 60.0547 177.894 63.0343 174.79 65.4434C172.32 64.8728 170.8 62.02 169.154 60.1181C165.987 54.7294 161.681 49.7844 155.791 47.4387C150.851 47.2485 145.214 45.9172 140.971 49.087C138.818 50.4818 136.411 51.7497 134.891 53.9686C131.471 60.3717 129.508 67.4721 128.938 74.6359C127.861 74.1921 126.784 73.8118 125.708 73.368C118.171 70.5785 110.318 68.6766 102.275 68.9302C96.7015 70.008 91.2549 71.6563 86.0617 74.002C75.4851 79.5175 68.7719 90.2949 64.8453 101.263C62.4387 106.081 60.7287 111.152 59.7787 116.414C58.8921 121.169 57.0554 125.797 56.8021 130.679C56.8021 133.975 57.0554 137.272 56.9921 140.569C56.8654 140.632 56.6754 140.759 56.5488 140.822C53.1288 142.724 49.0755 142.661 45.2756 143.295C42.4256 143.231 39.7023 141.836 36.8524 142.661H36.789C33.7491 144.119 30.5191 144.943 27.4792 146.338C26.7825 150.649 26.0859 156.608 31.2791 158.256C33.1158 158.256 35.0157 158.256 36.8524 158.256C43.439 158.256 49.9622 158.32 56.5488 158.383C57.0554 158.383 57.5621 158.383 58.0687 158.383C59.652 166.625 61.2354 175.12 65.6053 182.41C70.7352 190.715 75.8018 199.401 83.5917 205.487C91.0649 210.495 100.501 210.685 109.051 209.164C112.281 208.783 114.561 206.248 117.475 205.043C119.248 203.965 121.908 203.712 122.541 201.429C128.368 191.92 123.934 180.191 118.615 171.506C115.258 165.547 107.911 164.342 101.705 164.596C98.0315 165.166 95.7515 168.273 92.7749 170.175C89.5449 172.14 86.3783 176.324 88.8483 180.128C90.9383 184.122 93.5349 189.447 98.8548 189.13C102.211 188.75 106.645 187.989 108.101 184.502C108.735 180.255 103.731 178.226 100.375 177.465C100.565 179.557 100.755 181.586 100.945 183.678C99.2348 182.474 97.4615 181.333 95.6882 180.128C96.7648 174.549 102.971 174.676 107.278 172.964C111.648 179.748 116.208 188.496 112.661 196.611C108.545 201.746 101.135 201.112 95.4349 199.781C87.9616 198.64 82.9584 191.92 79.6651 185.644C74.6618 176.958 68.5819 167.639 69.6586 157.178C73.1418 157.115 76.6885 156.861 80.1084 157.242C83.465 158.003 86.4417 160.919 90.0516 159.524C97.7782 157.432 105.821 158.7 113.738 158.573C119.944 158.256 126.214 157.939 132.421 158.32C134.638 158.954 135.904 161.68 138.501 161.489C141.478 162.504 143.187 159.397 145.404 158.129C150.407 157.939 155.474 157.812 160.414 158.129C162.757 162.25 166.304 166.688 171.37 167.322C177.514 167.576 182.77 163.201 186.064 158.383C190.433 159.397 195.12 160.729 199.363 158.573C208.547 154.706 218.68 154.706 228.116 151.98C228.116 151.283 228.116 149.951 228.116 149.254C220.706 144.563 211.333 145.957 202.783 143.802ZM160.414 143.992C154.777 144.119 148.064 144.816 144.644 139.237C142.364 139.871 140.084 140.759 138.881 142.978C138.058 142.534 136.348 141.583 135.524 141.139C135.524 139.047 135.524 136.955 135.714 134.863C136.601 134.863 138.438 134.863 139.324 134.863H139.514C142.997 135.053 146.417 134.482 149.837 134.039C151.611 134.229 152.054 136.384 153.194 137.462C155.221 139.998 158.071 141.773 160.414 143.992ZM156.424 149.761C152.054 149.888 147.747 149.888 143.441 149.634C142.997 147.035 146.291 147.542 147.874 147.162C151.547 146.908 155.157 147.098 158.831 147.098C158.957 148.937 158.197 149.824 156.424 149.761ZM176.69 71.0857C180.617 64.0487 188.787 61.386 196.197 60.1181C201.833 59.4207 208.99 61.5762 210.447 67.7891C214.5 77.1084 210.003 87.4421 204.683 95.3033C201.58 98.2195 198.033 100.565 195.12 103.672C191.573 96.5712 183.72 93.4014 176.5 91.6262C177.83 84.7794 176.817 77.8692 176.69 71.0857ZM135.144 64.4924C136.918 58.5332 141.478 52.8275 147.937 51.9399C154.271 49.6576 160.097 54.7294 163.517 59.5475C165.29 62.7807 168.014 65.1264 170.927 67.2185C174.157 77.6156 173.334 89.2172 168.584 99.0437C167.19 102.213 164.214 104.115 161.364 105.7C153.701 107.919 145.657 104.559 140.211 99.1071L140.338 98.3463C136.474 96.5712 135.841 91.8798 135.144 88.2028C131.914 80.722 132.738 72.1001 135.144 64.4924ZM36.8524 156.228C34.5724 156.164 32.3558 156.037 30.0758 155.657C29.6958 153.501 28.7458 150.332 30.9625 148.873C33.2424 147.606 34.8257 145.577 36.1557 143.358C36.4091 143.421 36.5991 143.421 36.8524 143.421C38.7524 143.675 40.7157 143.612 42.6156 143.231C42.4256 145.704 39.069 146.781 39.5123 149.317C40.0823 151.79 41.4756 154.009 42.489 156.354C40.589 156.291 38.7524 156.228 36.8524 156.228ZM47.0489 154.516C46.6689 154.706 45.9089 155.023 45.5923 155.15C44.3256 153.375 43.3123 151.536 42.5523 149.507C43.439 147.986 44.1989 146.338 44.8956 144.753C45.9722 144.689 47.1122 144.626 48.1889 144.499C46.4789 147.542 44.3256 151.283 47.0489 154.516ZM50.4688 154.896C50.2155 154.452 49.6455 153.501 49.3922 152.994C49.5822 151.092 49.2655 148.937 50.9122 147.542C51.0388 147.415 51.2288 147.162 51.3555 146.972L52.0522 146.147C52.1788 145.894 52.3688 145.387 52.4321 145.133L52.6855 145.83L53.5721 145.45C53.2555 147.352 51.8622 148.747 50.6588 150.205C52.8121 150.332 53.3188 156.608 50.4688 154.896ZM55.0921 149.571C55.4088 148.62 55.9154 147.923 56.5488 147.415C58.7654 145.704 62.5653 146.147 65.2253 145.957C68.3919 146.401 72.3185 145.133 74.7252 147.859C74.4718 148.43 73.9652 149.571 73.7118 150.141C68.0119 149.888 62.2487 149.761 56.5488 149.634C56.0421 149.634 55.5988 149.634 55.0921 149.571ZM81.5017 140.378C78.2084 142.09 74.5352 142.153 70.9885 142.153C70.2286 136.701 73.6485 132.073 76.1818 127.572C77.3218 127.319 78.4618 127.065 79.6018 126.748C78.0184 131.439 78.9051 136.258 81.5017 140.378ZM72.3819 179.684C74.7885 183.615 76.7518 187.736 79.0318 191.73C81.4384 195.85 85.4283 198.64 89.1649 201.493C97.1448 207.389 110.318 206.501 115.955 197.816C119.564 190.081 115.068 181.903 111.965 174.803C106.645 166.434 92.7749 172.774 93.1549 181.903C96.1948 183.742 99.6148 187.482 103.415 185.136C103.351 183.678 103.288 182.157 103.288 180.635C104.175 181.65 104.871 182.791 105.758 183.868C103.605 186.658 100.121 186.531 97.0182 186.087C95.7515 184.693 94.4215 183.298 93.1549 181.903C91.5716 172.837 103.161 165.166 110.888 169.794C116.398 173.345 117.918 180.065 120.071 185.834C122.604 192.744 118.868 200.922 112.345 203.965C107.278 207.198 101.071 205.931 95.4349 205.931C87.7083 205.55 82.705 199.274 77.7018 194.266C72.8252 188.306 69.6586 181.206 65.8586 174.486C63.8953 169.034 62.7553 163.201 62.312 157.432C63.0087 157.559 64.3386 157.749 65.0986 157.812C68.0753 164.913 68.2653 173.028 72.3819 179.684ZM57.4354 154.706C57.1821 154.262 56.8021 153.375 56.5488 152.931C63.262 151.853 69.9752 153.438 76.6885 153.692C76.9418 154.009 77.4484 154.579 77.7651 154.896C70.9885 154.896 64.1486 155.403 57.4354 154.706ZM78.2718 148.113C80.3617 145.513 82.9584 143.421 85.6817 141.393C81.7551 135.497 79.9817 126.748 85.1117 121.042C84.0984 119.838 82.9584 117.746 81.1217 118.823C79.6651 120.155 78.4618 121.74 77.0685 123.198C71.1785 127.699 68.8986 134.863 65.352 141.012C63.642 140.949 61.932 140.885 60.222 140.885C60.222 140.378 60.1587 139.301 60.0954 138.73C59.7787 135.877 59.5887 133.088 59.9054 130.235C61.172 125.227 63.3887 120.535 64.6553 115.463C64.782 115.083 64.972 114.259 65.0986 113.815C65.2886 113.181 65.6053 111.977 65.7953 111.343C69.5952 101.009 74.2818 90.4217 82.6417 82.9409C88.025 77.6156 95.7515 76.1575 102.781 73.9386C110.698 73.4948 118.615 75.9039 125.771 79.2005C125.898 79.2639 126.024 79.3273 126.151 79.3907C129.318 80.6586 129.128 84.399 129.824 87.2519C130.394 89.4074 130.964 91.6262 131.661 93.7817C132.738 97.015 134.131 100.312 136.854 102.467C141.414 105.954 146.164 109.758 151.864 111.089C156.931 112.04 162.504 111.469 166.874 108.553C170.674 105.13 172.447 100.121 176.374 96.8248C180.047 98.6633 184.164 99.4874 187.71 101.58C191.383 103.925 193.157 108.109 195.373 111.723C195.5 112.04 195.627 112.357 195.753 112.674C196.323 114.005 196.83 115.337 197.4 116.668C190.813 123.261 181.124 124.973 172.447 127.002C168.837 128.079 165.48 126.177 162.504 124.466C160.984 125.29 159.401 126.241 157.881 127.065C152.434 129.981 146.101 131.566 139.894 130.869C138.374 130.679 136.791 130.488 135.271 130.298C135.968 127.128 136.791 124.022 137.424 120.789C136.664 120.852 135.081 120.979 134.321 121.042C131.724 125.036 131.598 129.854 132.104 134.482C132.231 136.194 132.358 137.969 132.421 139.681C130.584 137.399 129.064 134.863 129.001 131.883C129.128 128.587 129.571 125.353 129.824 122.057C126.404 120.599 125.011 124.529 124.378 127.065C124.378 128.46 124.504 129.854 124.568 131.249C118.551 132.644 112.155 133.341 106.201 131.376C101.895 129.981 97.2082 129.854 93.1549 127.636C93.0282 125.987 92.8382 124.276 92.7116 122.627C91.5082 122.374 90.3683 122.183 89.1649 121.93C87.5816 126.177 85.365 130.488 85.6183 135.18C86.4417 138.223 88.9749 140.505 90.8749 142.978C88.0883 143.802 84.225 143.168 82.325 145.767C81.1851 150.839 85.8083 153.755 88.785 156.861C84.5417 155.15 79.7284 152.867 78.2718 148.113ZM131.408 144.563C123.554 144.689 115.638 144.943 107.785 144.246C108.291 141.646 109.178 139.11 109.875 136.511C115.385 136.321 120.894 136.511 126.404 136.258C129.064 138.286 130.204 141.583 131.408 144.563ZM104.808 143.802C102.718 143.612 100.691 143.485 98.6648 143.104C101.388 141.266 103.415 139.047 104.301 135.814L105.378 135.243C105.568 138.096 106.898 141.393 104.808 143.802ZM98.6015 134.292C98.2215 135.75 97.9048 137.208 97.6515 138.73C95.6882 139.808 93.9149 141.266 92.2049 142.597C89.9249 139.237 89.0383 135.307 89.7983 131.313C92.7116 132.2 96.2582 132.073 98.6015 134.292ZM86.8216 149.888C86.4417 148.557 86.0617 147.162 85.6183 145.83C88.5316 146.528 93.1549 144.816 94.9282 147.225C97.5248 147.669 99.9948 148.873 102.655 148.937C112.091 146.147 122.098 147.669 131.788 147.669C131.851 148.493 131.978 150.205 132.041 151.029C124.758 151.283 117.475 151.346 110.191 151.156C106.391 151.156 102.781 148.62 98.9815 149.761C97.3348 149.888 95.4349 151.663 93.9782 150.141C91.5082 150.015 89.1649 149.951 86.8216 149.888ZM131.724 156.037C120.768 156.418 109.875 156.228 98.9181 156.164C96.6382 156.101 94.2949 155.974 92.0149 155.911C91.4449 155.15 90.8749 154.326 90.3049 153.565C93.1549 153.565 96.0048 153.628 98.9181 153.565C110.128 153.692 121.338 153.882 132.548 154.643C132.294 155.023 131.914 155.72 131.724 156.037ZM133.371 140.695C134.638 142.28 136.031 143.675 137.551 145.006C139.578 142.661 144.074 138.92 145.911 143.358C142.871 144.816 139.071 145.894 138.058 149.571L137.994 150.015C138.438 153.248 139.641 156.354 140.591 159.461C134.068 155.277 137.298 146.528 133.371 140.695ZM170.167 163.518C167.127 162.06 165.227 159.144 162.884 156.861C166.494 158.446 170.04 160.158 173.84 161.426C175.994 160.538 179.034 155.784 180.807 159.271C177.957 161.806 174.094 164.406 170.167 163.518ZM188.66 155.72C185.747 156.101 183.024 154.262 180.047 154.516C174.22 154.896 168.33 155.403 162.567 154.135C155.981 155.53 149.204 154.896 142.554 155.277C142.491 154.643 142.427 153.375 142.364 152.741C149.141 152.17 155.917 152.424 162.567 153.755C168.774 152.931 175.107 153.692 181.314 152.614C183.847 152.804 189.23 151.663 188.66 155.72ZM177.514 150.332C173.714 149.824 169.724 150.522 165.987 149.381C166.24 148.937 166.747 147.986 167 147.479C173.777 146.908 180.554 145.957 187.457 146.338C189.357 146.718 190.813 148.24 192.397 149.254C187.774 151.536 182.454 150.966 177.514 150.332ZM210.51 153.184C205.38 154.135 200.567 156.418 195.31 156.544C195.437 155.15 195.5 153.692 195.5 152.297C196.07 151.917 197.273 151.092 197.907 150.712C198.033 149.19 198.223 147.669 198.35 146.147C202.593 145.957 206.583 147.542 210.763 147.986C210.827 149.634 211.333 151.536 210.51 153.184Z" fill="#231F20"/>
<path d="M102.275 114.132C103.922 115.717 105.505 117.492 107.658 118.38C111.712 119.965 114.562 123.769 118.805 125.1C118.425 125.734 118.045 126.431 117.665 127.065C111.902 125.227 105.758 126.621 99.9951 124.783C103.225 123.071 103.225 119.458 101.578 116.668C101.705 116.034 102.085 114.766 102.275 114.132Z" fill="#97EB74"/>
<path d="M64.7822 131.376C68.7721 128.016 68.2654 120.535 74.472 119.774C75.3587 120.916 76.182 122.057 77.0053 123.198C71.1154 127.699 68.8354 134.863 65.2888 141.012C63.5788 140.949 61.8689 140.886 60.1589 140.886C60.1589 140.378 60.0956 139.301 60.0322 138.73C62.3755 136.701 62.2489 133.215 64.7822 131.376Z" fill="#84CB71"/>
<path d="M148.254 122.247C151.61 123.578 154.714 125.354 157.88 127.065C152.434 129.981 146.1 131.566 139.894 130.869C139.577 128.523 139.514 126.178 139.767 123.832C140.337 123.769 141.477 123.642 142.047 123.515C142.617 125.163 143.187 126.812 143.757 128.523C145.34 126.495 146.86 124.403 148.254 122.247Z" fill="#6CB960"/>
<path d="M95.8774 124.212C96.8908 124.339 98.9174 124.593 99.994 124.783C105.757 126.621 111.901 125.227 117.664 127.065C118.044 126.431 118.424 125.734 118.804 125.1C120.704 125.797 122.54 126.368 124.44 127.002C124.44 128.397 124.567 129.791 124.63 131.186C118.614 132.581 112.217 133.278 106.264 131.313C106.897 130.869 108.164 129.982 108.797 129.538C104.301 128.333 99.2974 127.699 95.8774 124.212Z" fill="#77C66C"/>
<path d="M36.219 143.358C38.3723 143.675 40.5256 143.675 42.6789 143.231C42.4889 145.703 39.1323 146.781 39.5756 149.317C40.1456 151.79 41.5389 154.008 42.5522 156.354C38.4356 156.164 34.2557 156.417 30.2024 155.657C29.8224 153.501 28.8724 150.331 31.0891 148.873C33.3057 147.542 34.889 145.577 36.219 143.358Z" fill="#D07B84"/>
<path d="M198.35 146.148C202.593 145.957 206.583 147.542 210.763 147.986C210.763 149.698 211.27 151.6 210.446 153.248C205.316 154.199 200.503 156.481 195.247 156.608C195.373 155.213 195.437 153.755 195.437 152.36C196.007 151.98 197.21 151.156 197.843 150.776C198.033 149.191 198.223 147.669 198.35 146.148Z" fill="#FEFEFE"/>
<path d="M85.6179 145.83C88.5312 146.527 93.1545 144.816 94.9278 147.225C94.4211 147.161 93.4078 147.035 92.9011 146.971C93.2178 147.986 93.5345 149.063 93.9145 150.078C91.5712 150.078 89.1645 149.951 86.8212 149.951C86.4412 148.556 85.9979 147.161 85.6179 145.83ZM56.5483 152.931C63.2616 151.853 69.9748 153.438 76.688 153.691C76.9414 154.008 77.448 154.579 77.7647 154.896C70.9881 154.896 64.1482 155.403 57.435 154.706C57.1817 154.262 56.7383 153.374 56.5483 152.931Z" fill="#E1CB86"/>
<path d="M55.0918 149.571C56.3584 145.386 61.805 146.147 65.2883 145.957C68.4549 146.401 72.3815 145.133 74.7882 147.859C74.5348 148.43 74.0282 149.571 73.7749 150.141C67.5049 149.824 61.2984 149.761 55.0918 149.571ZM98.9178 153.628C110.128 153.755 121.337 153.945 132.547 154.706C132.357 155.086 131.914 155.784 131.724 156.101C120.767 156.481 109.874 156.291 98.9178 156.227C98.9178 155.53 98.9178 154.262 98.9178 153.628Z" fill="#DDC377"/>
<path d="M92.9013 146.971C93.408 147.035 94.4213 147.161 94.928 147.225C97.5246 147.669 99.9945 148.873 102.655 148.936C112.091 146.147 122.098 147.669 131.787 147.669C131.851 148.493 131.977 150.204 132.041 151.029C124.758 151.282 117.474 151.346 110.191 151.155C106.391 151.155 102.781 148.62 98.9812 149.761C97.3346 149.887 95.4346 151.663 93.978 150.141C93.5346 149 93.218 147.986 92.9013 146.971ZM90.3047 153.564C93.1546 153.564 96.0046 153.628 98.9179 153.564C98.9179 154.198 98.9179 155.53 98.9179 156.164C96.6379 156.1 94.2946 155.974 92.0147 155.91C91.4447 155.149 90.8747 154.389 90.3047 153.564Z" fill="#DCC576"/>
<path d="M143.441 149.635C142.998 147.036 146.291 147.543 147.874 147.162C151.547 146.909 155.157 147.099 158.831 147.099C159.021 148.938 158.261 149.825 156.487 149.762C152.117 149.889 147.748 149.889 143.441 149.635ZM167.001 147.479C173.777 146.909 180.554 145.958 187.457 146.338C189.357 146.719 190.814 148.24 192.397 149.255C187.774 151.537 182.517 151.03 177.514 150.332C173.714 149.825 169.724 150.523 165.987 149.381C166.241 148.874 166.747 147.923 167.001 147.479ZM142.364 152.805C149.141 152.234 155.917 152.488 162.567 153.819C168.774 152.995 175.107 153.756 181.314 152.678C183.91 152.868 189.294 151.727 188.66 155.784C185.747 156.165 183.024 154.326 180.047 154.58C174.22 154.96 168.331 155.467 162.567 154.2C155.981 155.594 149.204 154.96 142.554 155.341C142.491 154.707 142.428 153.439 142.364 152.805Z" fill="#F5D776"/>
<path d="M137.994 150.078C137.994 149.951 138.057 149.761 138.057 149.634L137.994 150.078Z" fill="#959D64"/>
</svg>
