<svg width="256" height="256" viewBox="0 0 256 256" fill="none" xmlns="http://www.w3.org/2000/svg">
<path d="M196 0H60C26.8629 0 0 26.8629 0 60V196C0 229.137 26.8629 256 60 256H196C229.137 256 256 229.137 256 196V60C256 26.8629 229.137 0 196 0Z" fill="#1D4914"/>
<path d="M90.2046 40H120.72V216H90.4568L68.2635 139.063V216H38V40H68.0114L90.2046 112.16V40ZM188.484 185.577V81.7372H219V197.143C219 207.451 210.425 216 200.085 216H154.438C144.098 216 135.775 207.451 135.775 197.143V160.686L166.291 153.646V185.577H188.484Z" fill="white"/>
</svg>
