<svg width="256" height="256" viewBox="0 0 256 256" fill="none" xmlns="http://www.w3.org/2000/svg">
<path d="M196 0H60C26.8629 0 0 26.8629 0 60V196C0 229.137 26.8629 256 60 256H196C229.137 256 256 229.137 256 196V60C256 26.8629 229.137 0 196 0Z" fill="#242938"/>
<path d="M206.309 182.148L212.732 202.876H199.687L206.309 182.148ZM199.431 174.079L184.629 218.315H195.081L197.423 210.499H214.939L217.154 218.315H228.501L213.588 174.072L199.431 174.079ZM169.715 218.331H180.318V174.065L169.713 174.062L169.715 218.331ZM96.1 174.062L87.2529 209.147L78.778 174.065L67.3365 174.062L79.4404 218.331H94.7169L106.918 174.062H96.1ZM138.963 183.701H143.52C150.132 183.701 154.408 187.204 154.408 196.29C154.408 205.38 150.132 208.88 143.52 208.88H138.963V183.701ZM128.447 174.062V218.331H145.638C154.797 218.331 157.788 216.536 161.023 212.506C163.307 209.678 164.785 203.469 164.785 196.685C164.785 190.46 163.533 184.912 161.355 181.454C157.425 175.271 151.767 174.062 143.325 174.062H128.447ZM28 174V218.331H38.6936V184.672L46.9795 184.673C49.723 184.673 51.6788 185.48 52.9999 187.145C54.6756 189.251 55.3599 192.649 55.3599 198.865V218.331H65.722V193.839C65.722 176.357 56.2762 174 47.0341 174H28ZM111.381 174.062L111.385 218.331H121.985V174.062H111.381Z" fill="white"/>
<path d="M50.4982 85.6863C50.4982 85.6863 64.1365 61.9502 91.368 59.4947V50.8832C61.2057 53.7405 35.0864 83.8742 35.0864 83.8742C35.0864 83.8742 49.88 134.32 91.368 138.939V129.785C60.9222 125.267 50.4982 85.6863 50.4982 85.6863ZM91.368 111.581V119.964C68.3577 115.126 61.9706 86.911 61.9706 86.911C61.9706 86.911 73.0188 72.4733 91.368 70.1321V79.3304C91.3539 79.3304 91.3444 79.3253 91.3328 79.3253C81.7021 77.9622 74.1788 88.5745 74.1788 88.5745C74.1788 88.5745 78.3955 106.44 91.368 111.581ZM91.368 35V50.8832C92.2528 50.803 93.1383 50.7352 94.0291 50.6994C128.321 49.3363 150.663 83.8742 150.663 83.8742C150.663 83.8742 125.002 120.682 98.2671 120.682C95.8157 120.682 93.5218 120.414 91.368 119.964V129.785C93.2106 130.062 95.1199 130.223 97.1143 130.223C121.993 130.223 139.984 115.235 157.406 97.4974C160.294 100.227 172.12 106.864 174.55 109.771C157.986 126.13 119.381 139.315 97.4952 139.315C95.3858 139.315 93.3591 139.165 91.368 138.939V152.74H185.93V35H91.368ZM91.368 70.1321V59.4947C92.2438 59.4225 93.1267 59.3673 94.0291 59.3339C118.688 58.4201 134.866 84.3294 134.866 84.3294C134.866 84.3294 117.392 112.956 98.657 112.956C95.9603 112.956 93.5437 112.444 91.368 111.581V79.3304C100.968 80.6987 102.899 85.7005 108.671 97.049L121.506 84.2824C121.506 84.2824 112.137 69.7867 96.3411 69.7867C94.6242 69.7859 92.9809 69.9283 91.368 70.1321Z" fill="#77B900"/>
</svg>
