<svg width="256" height="256" viewBox="0 0 256 256" xmlns="http://www.w3.org/2000/svg">
<g clip-path="url(#clip0_42_2)">
<path d="M196 0H60C26.8629 0 0 26.8629 0 60V196C0 229.137 26.8629 256 60 256H196C229.137 256 256 229.137 256 196V60C256 26.8629 229.137 0 196 0Z" fill="#242938"/>
<path d="M127.64 226.3C182.482 226.3 226.94 181.842 226.94 127C226.94 72.1581 182.482 27.7 127.64 27.7C72.798 27.7 28.3398 72.1581 28.3398 127C28.3398 181.842 72.798 226.3 127.64 226.3Z" fill="white"/>
<path d="M127.64 217.3C177.511 217.3 217.94 176.871 217.94 127C217.94 77.1286 177.511 36.7 127.64 36.7C77.7685 36.7 37.3398 77.1286 37.3398 127C37.3398 176.871 77.7685 217.3 127.64 217.3Z" fill="black"/>
<mask id="mask0_42_2" style="mask-type:luminance" maskUnits="userSpaceOnUse" x="76" y="42" width="73" height="97">
<path d="M105 42C92.9322 47.8348 83.677 58.2243 79.2699 70.883C74.8628 83.5417 75.6648 97.4326 81.4996 109.5C87.3343 121.567 97.7239 130.823 110.383 135.23C123.041 139.637 136.932 138.835 149 133L105 42Z" fill="white"/>
</mask>
<g mask="url(#mask0_42_2)">
<path d="M128.799 138.68C156.789 138.68 179.479 115.99 179.479 87.9999C179.479 60.0102 156.789 37.3199 128.799 37.3199C100.809 37.3199 78.1191 60.0102 78.1191 87.9999C78.1191 115.99 100.809 138.68 128.799 138.68Z" fill="white"/>
</g>
<mask id="mask1_42_2" style="mask-type:luminance" maskUnits="userSpaceOnUse" x="66" y="99" width="79" height="97">
<path d="M66 188C77.8021 195.028 91.9128 197.08 105.228 193.705C118.543 190.329 129.972 181.802 137 170C144.028 158.198 146.08 144.087 142.705 130.772C139.329 117.457 130.802 106.028 119 99L66 188Z" fill="white"/>
</mask>
<g mask="url(#mask1_42_2)">
<path d="M92.8001 194.68C120.79 194.68 143.48 171.99 143.48 144C143.48 116.01 120.79 93.3199 92.8001 93.3199C64.8103 93.3199 42.1201 116.01 42.1201 144C42.1201 171.99 64.8103 194.68 92.8001 194.68Z" fill="white"/>
</g>
<mask id="mask2_42_2" style="mask-type:luminance" maskUnits="userSpaceOnUse" x="108" y="96" width="106" height="54">
<path d="M213 150C213.133 136.076 207.729 122.67 197.977 112.73C188.225 102.791 174.924 97.1326 161 96.9999C147.076 96.8673 133.67 102.271 123.73 112.023C113.791 121.775 108.133 135.076 108 149L213 150Z" fill="white"/>
</mask>
<g mask="url(#mask2_42_2)">
<path d="M160.25 199.18C188.24 199.18 210.93 176.49 210.93 148.5C210.93 120.51 188.24 97.8199 160.25 97.8199C132.261 97.8199 109.57 120.51 109.57 148.5C109.57 176.49 132.261 199.18 160.25 199.18Z" fill="white"/>
</g>
<path d="M127 118.75C149.506 118.75 167.75 100.506 167.75 78C167.75 55.4944 149.506 37.25 127 37.25C104.494 37.25 86.25 55.4944 86.25 78C86.25 100.506 104.494 118.75 127 118.75Z" fill="black"/>
<path d="M84.5996 192.75C107.105 192.75 125.35 174.506 125.35 152C125.35 129.494 107.105 111.25 84.5996 111.25C62.094 111.25 43.8496 129.494 43.8496 152C43.8496 174.506 62.094 192.75 84.5996 192.75Z" fill="black"/>
<path d="M170.75 192.75C193.256 192.75 211.5 174.506 211.5 152C211.5 129.494 193.256 111.25 170.75 111.25C148.244 111.25 130 129.494 130 152C130 174.506 148.244 192.75 170.75 192.75Z" fill="black"/>
</g>
<defs>
<clipPath id="clip0_42_2">
<rect width="256" height="256" fill="white"/>
</clipPath>
</defs>
</svg>