<svg width="256" height="256" viewBox="0 0 256 256" fill="none" xmlns="http://www.w3.org/2000/svg">
<rect width="256" height="256" rx="60" fill="#CA3A31" />
<mask id="mask0_3_148" style="mask-type:alpha" maskUnits="userSpaceOnUse" x="-969" y="-969" width="2194" height="2194">
<path d="M24.773 -360.463L-450 -276.877L-366.413 197.899L-360.462 231.7L-276.876 706.475L197.899 622.888L231.7 616.936L706.475 533.35L622.888 58.5748L616.936 24.7735L533.35 -450L58.5743 -366.413L24.773 -360.462V-360.463Z" stroke="black" stroke-width="895.105"/>
</mask>
<g mask="url(#mask0_3_148)">
<path d="M62.6209 83.8405L49.8687 117.475C46.8451 125.884 46.8451 134.965 50.5375 143.038L65.3073 176C68.997 184.074 75.7103 190.463 83.7663 193.493L117.665 206.604C126.056 209.631 135.118 209.631 143.172 205.934L176.067 191.133C184.12 187.433 190.5 180.705 193.52 172.632L206.61 138.662C209.63 130.254 209.63 121.17 205.937 113.099L191.171 80.1375C187.479 72.064 180.765 65.6745 172.708 62.6446L138.813 49.8709C130.423 46.8437 121.357 46.8437 113.303 50.5439L80.4088 65.0042C72.0178 68.7044 65.9761 75.4319 62.6209 83.8405Z" fill="white"/>
</g>
</svg>