<svg width="256" height="256" viewBox="0 0 256 256" fill="none" xmlns="http://www.w3.org/2000/svg" id="odin">
<style>
#odin {
    rect {fill: #242938}
    path {fill: #F2F2F2}

    @media (prefers-color-scheme: light) {
        rect {fill: #F4F2ED}
        path {fill: #242938}
    }
}
</style>
<rect width="256" height="256" rx="60" fill="#242938"/>
<path fill-rule="evenodd" clip-rule="evenodd" d="M71.1215 210.254C67.2873 207.622 64.2569 205.073 64.2569 205.073L162.861 34.2854C162.861 34.2854 166.92 35.7908 170.272 37.3982C174.499 39.4237 177.999 41.3984 177.999 41.3984C225.795 68.9937 242.197 130.202 214.602 177.998C187.006 225.796 125.797 242.195 78.0007 214.6C78.0007 214.6 74.6529 212.676 71.1215 210.254ZM169.666 55.8319L86.3338 200.166C126.164 223.163 177.171 209.495 200.167 169.666C223.162 129.834 209.497 78.8283 169.666 55.8319ZM45.9418 185.18C42.5908 180.327 41.398 178 41.398 178C24.1712 148.078 22.9078 110.027 41.3987 78.0002C59.8896 45.9731 93.473 28.0426 128 28C128 28 132.662 27.988 136.543 28.3597C142.391 28.92 146.278 29.6745 146.278 29.6745L51.9818 193.001C51.9818 193.001 49.7448 190.685 45.9418 185.18ZM118.025 45.2773C92.8963 48.3313 69.4517 62.7439 55.8322 86.3343C42.2126 109.923 41.4535 137.433 51.373 160.724L118.025 45.2773Z" fill="#F2F2F2"/>
</svg>
