<svg width="256" height="256" viewBox="0 0 256 256" fill="none" xmlns="http://www.w3.org/2000/svg" id="opensergo">
<style>
#opensergo {
    rect {fill: #242938}

    @media (prefers-color-scheme: light) {
        rect {fill: #F4F2ED}
    }
}
</style>
<rect width="256" height="256" rx="60" fill="#242938"/>
<path fill-rule="evenodd" clip-rule="evenodd" d="M156.844 107.666H73.6234L129.52 51.9627L120.508 76.6518H190.396C190.431 76.6534 190.466 76.6434 190.495 76.6233C190.524 76.6032 190.545 76.5742 190.555 76.5408L205.271 36.2219C205.28 36.1967 205.283 36.1697 205.279 36.1432C205.276 36.1167 205.265 36.0915 205.25 36.0697C205.234 36.0479 205.214 36.0302 205.19 36.0181C205.166 36.006 205.139 35.9998 205.112 36H98.1474C67.753 36 41.487 59.2069 40.0632 89.4521C38.5518 121.631 64.3643 148.317 96.3337 148.317H181.368L125.471 204.02L134.484 179.347H64.5712C64.5366 179.348 64.5031 179.359 64.4747 179.379C64.4464 179.398 64.4246 179.426 64.4121 179.458L49.6802 219.769C49.6671 219.795 49.6612 219.823 49.663 219.852C49.6649 219.88 49.6745 219.908 49.6908 219.931C49.7071 219.955 49.7296 219.974 49.7557 219.986C49.7819 219.998 49.8107 220.002 49.8393 219.999H158.658C190.635 219.999 216.456 193.313 214.936 161.134C213.504 130.873 187.238 107.666 156.844 107.666Z" fill="#5A81FF"/>
</svg>
