<svg width="256" height="256" viewBox="0 0 256 256" fill="none" xmlns="http://www.w3.org/2000/svg">
<path d="M196 0H60C26.8629 0 0 26.8629 0 60V196C0 229.137 26.8629 256 60 256H196C229.137 256 256 229.137 256 196V60C256 26.8629 229.137 0 196 0Z" fill="#F4F2ED"/>
<path fill-rule="evenodd" clip-rule="evenodd" d="M153.211 88.4208C153.211 77.455 144.032 68.5753 133.364 68.5753C122.405 68.5753 113.518 77.4617 113.518 88.4208C113.518 95.4987 117.227 101.713 122.806 105.226L116.43 115.504C115.689 115.332 114.916 115.243 114.124 115.243C108.46 115.243 103.867 119.836 103.867 125.5C103.867 131.164 108.46 135.758 114.124 135.758C119.788 135.758 124.382 131.164 124.382 125.5C124.382 121.998 122.626 118.905 119.946 117.055L126.221 106.941C128.436 107.797 130.846 108.267 133.364 108.267C144.323 108.267 153.211 99.3791 153.211 88.4208ZM169.966 68.7875C174.571 68.7875 178.306 72.5228 178.306 77.1279C178.306 81.733 174.571 85.4673 169.966 85.4673C165.362 85.4673 161.627 81.733 161.627 77.1279C161.627 74.5544 162.793 72.2544 164.625 70.7235L157.783 57.9752C156.54 58.6597 155.112 59.0498 153.593 59.0498C148.981 59.0498 144.896 54.9966 144.896 50.3521C144.896 49.6928 144.971 49.0494 145.11 48.4312L130.531 41.5446C129.264 42.9546 127.429 43.8404 125.386 43.8404C121.563 43.8404 118.465 40.7418 118.465 36.9193C118.465 33.0986 121.563 30 125.386 30C129.206 30 132.305 33.0986 132.305 36.9193C132.305 37.3354 132.268 37.7439 132.198 38.1407L146.734 45.0072C148.326 42.9672 150.806 41.657 153.593 41.657C158.396 41.657 162.289 45.5507 162.289 50.3521C162.289 52.2252 161.697 53.9598 160.69 55.3791L168.011 69.0182C168.638 68.8681 169.292 68.7875 169.966 68.7875Z" fill="#F57616"/>
<path fill-rule="evenodd" clip-rule="evenodd" d="M180.797 42.8583C184.408 42.8583 187.337 45.7866 187.337 49.3985C187.337 50.7859 186.905 52.0727 186.167 53.1312L191.25 62.6014C192.857 61.7568 194.688 61.2786 196.63 61.2786C203.032 61.2786 208.225 66.4709 208.225 72.8744C208.225 79.2771 203.032 84.4693 196.63 84.4693C196.055 84.4693 195.492 84.4274 194.94 84.3468L189.827 95.5408C191.91 96.5767 193.628 98.2368 194.736 100.275L208.466 96.9232C208.863 93.4689 211.799 90.7847 215.361 90.7847C219.192 90.7847 222.301 93.8925 222.301 97.7251C222.301 100.754 220.359 103.331 217.653 104.278L217.763 118.664C223.594 119.785 228 124.916 228 131.075C228 138.054 222.34 143.714 215.361 143.714C208.38 143.714 202.721 138.054 202.721 131.075C202.721 124.564 207.645 119.203 213.972 118.51L213.865 104.504C211.742 104.038 209.981 102.598 209.077 100.675L195.959 103.878C196.05 104.457 196.097 105.05 196.097 105.654C196.097 111.886 191.043 116.941 184.811 116.941C178.578 116.941 173.524 111.886 173.524 105.654C173.524 99.4212 178.578 94.3665 184.811 94.3665C185.268 94.3665 185.718 94.3942 186.161 94.447L191.307 83.1775C187.581 81.2491 185.033 77.3587 185.033 72.8744C185.033 69.7951 186.234 66.9968 188.193 64.9208L183.139 55.5051C182.412 55.7844 181.623 55.9379 180.797 55.9379C177.185 55.9379 174.257 53.0096 174.257 49.3985C174.257 45.7866 177.185 42.8583 180.797 42.8583Z" fill="#4BB6D1"/>
<path fill-rule="evenodd" clip-rule="evenodd" d="M137.537 167.868C143.91 167.868 149.356 162.459 149.356 156.05C149.356 155.613 149.332 155.181 149.286 154.756L171.665 149.428C173.048 153.385 176.814 156.224 181.243 156.224C183.586 156.224 185.743 155.429 187.461 154.094L196.372 163.588C194.893 165.657 194.023 168.191 194.023 170.926C194.023 177.907 199.683 183.565 206.663 183.565C213.643 183.565 219.303 177.907 219.303 170.926C219.303 163.946 213.643 158.287 206.663 158.287C203.788 158.287 201.138 159.249 199.014 160.865L189.979 151.238C190.873 149.726 191.388 147.962 191.388 146.077C191.388 140.475 186.845 135.932 181.243 135.932C175.779 135.932 171.322 140.254 171.107 145.664L148.273 151.102C147.187 148.75 145.352 146.816 143.073 145.606L147.207 132.889C151.658 132.508 155.154 128.774 155.154 124.224C155.154 119.423 151.26 115.528 146.457 115.528C141.655 115.528 137.761 119.423 137.761 124.224C137.761 127.948 140.103 131.125 143.393 132.365L139.483 144.392C138.849 144.287 138.201 144.231 137.537 144.231C131.012 144.231 125.719 149.524 125.719 156.05C125.719 162.575 131.012 167.868 137.537 167.868ZM171.271 172.646C181.807 172.646 190.352 181.19 190.352 191.727C190.352 202.263 181.807 210.808 171.271 210.808C166.388 210.808 161.932 208.972 158.557 205.951L149.108 212.527C150.029 213.881 150.568 215.517 150.568 217.278C150.568 221.957 146.772 225.752 142.094 225.752C137.414 225.752 133.619 221.957 133.619 217.278C133.619 212.599 137.414 208.805 142.094 208.805C143.605 208.805 145.024 209.201 146.253 209.896L155.974 203.131C153.598 199.949 152.191 196.001 152.191 191.727C152.191 181.492 160.971 172.646 171.271 172.646ZM115 208.389C117.09 209.612 118.492 211.878 118.492 214.472C118.492 218.361 115.337 221.516 111.448 221.516C107.558 221.516 104.404 218.361 104.404 214.472C104.404 210.627 107.486 207.502 111.314 207.429L114.239 188.789C111.461 187.311 109.57 184.388 109.57 181.024C109.57 176.169 113.507 172.231 118.36 172.231C123.215 172.231 127.152 176.169 127.152 181.024C127.152 185.671 122.978 189.815 118.36 189.815C118.211 189.815 118.064 189.811 117.916 189.803L115 208.389Z" fill="#A2D61D"/>
<path fill-rule="evenodd" clip-rule="evenodd" d="M94.8498 72.5256C94.8498 63.1099 86.73 54.8468 77.1701 54.8468C67.4088 54.8468 59.4913 62.7643 59.4913 72.5256C59.4913 73.1723 59.5273 73.8115 59.5961 74.4406L51.4529 77.0753C50.0814 75.1066 47.8007 73.8191 45.2197 73.8191C41.0273 73.8191 37.6284 77.2179 37.6284 81.4112C37.6284 85.6035 41.0273 89.0041 45.2197 89.0041C49.4129 89.0041 52.8126 85.6035 52.8126 81.4112C52.8126 81.1536 52.8009 80.8986 52.774 80.6478L60.4139 78.175C62.7727 85.1665 69.3859 90.2044 77.1701 90.2044C77.4494 90.2044 77.7254 90.1977 78.0005 90.1843V101.521C74.2946 102.381 71.5333 105.703 71.5333 109.667C71.5333 114.285 75.2777 118.03 79.8946 118.03C84.5122 118.03 88.2575 114.285 88.2575 109.667C88.2575 105.703 85.4953 102.381 81.7911 101.521V89.5938C89.3119 87.5613 94.8498 80.6889 94.8498 72.5256ZM90.1381 34.5727C94.3305 34.5727 97.7311 37.9732 97.7311 42.1647C97.7311 43.0858 97.5684 43.9674 97.2672 44.7844L104.492 51.4076C106.048 50.1326 108.038 49.3676 110.208 49.3676C115.193 49.3676 119.237 53.4107 119.237 58.3966C119.237 63.3817 115.193 67.4256 110.208 67.4256C105.351 67.4256 101.178 63.2014 101.178 58.3966C101.178 56.9581 101.514 55.5983 102.113 54.3913L95.0729 47.9349C93.745 49.0715 92.0213 49.7577 90.1381 49.7577C85.9458 49.7577 82.5452 46.358 82.5452 42.1647C82.5452 37.9732 85.9458 34.5727 90.1381 34.5727Z" fill="#FAC60B"/>
<path fill-rule="evenodd" clip-rule="evenodd" d="M64.1232 186.515L53.6816 175.146C52.8764 175.537 51.9738 175.756 51.0184 175.756C47.6472 175.756 44.9135 173.022 44.9135 169.651C44.9135 166.28 47.6472 163.547 51.0184 163.547C54.3896 163.547 57.1233 166.28 57.1233 169.651C57.1233 170.686 56.8658 171.66 56.4111 172.514L66.6396 183.651C69.6023 180.969 73.5305 179.334 77.8403 179.334C78.2236 179.334 78.6036 179.348 78.9802 179.373L82.9151 165.77C75.7634 163.504 70.5778 156.813 70.5778 148.913C70.5778 148.008 70.6466 147.12 70.7775 146.251L48.5833 144.954C47.2496 147.139 44.8447 148.596 42.0984 148.596C37.9061 148.596 34.5063 145.196 34.5063 141.003C34.5063 136.916 37.7366 133.582 41.7839 133.417L44.5679 118.551C39.8085 117.28 36.3014 112.938 36.3014 107.778C36.3014 101.621 41.294 96.6285 47.4509 96.6285C53.607 96.6285 58.5996 101.621 58.5996 107.778C58.5996 113.624 54.0985 118.418 48.3736 118.889L45.5032 134.216C47.9869 135.465 49.6914 138.035 49.6914 141.003L49.688 141.208L71.779 142.498C74.3475 135.907 80.7585 131.235 88.2575 131.235C98.0188 131.235 105.936 139.151 105.936 148.913C105.936 158.676 98.0188 166.592 88.2575 166.592C87.714 166.592 87.1763 166.566 86.6453 166.518L82.7272 180.063C89.561 182.153 94.5327 188.51 94.5327 196.027C94.5327 205.244 87.0572 212.719 77.8403 212.719C68.6226 212.719 61.1471 205.244 61.1471 196.027C61.1471 192.491 62.2476 189.214 64.1232 186.515Z" fill="#4BB6D1"/>
<path fill-rule="evenodd" clip-rule="evenodd" d="M100.306 88.5741C105.293 88.5741 109.338 92.618 109.338 97.6047C109.338 102.591 105.293 106.636 100.306 106.636C95.3193 106.636 91.2754 102.591 91.2754 97.6047C91.2754 92.618 95.3193 88.5741 100.306 88.5741Z" fill="#FBDE4C"/>
<path fill-rule="evenodd" clip-rule="evenodd" d="M161.628 101.842C165.938 101.842 169.432 105.337 169.432 109.646C169.432 113.955 165.938 117.45 161.628 117.45C157.318 117.45 153.824 113.955 153.824 109.646C153.824 105.337 157.318 101.842 161.628 101.842Z" fill="#90CDD4"/>
<path fill-rule="evenodd" clip-rule="evenodd" d="M192.4 119.458C196.71 119.458 200.205 122.953 200.205 127.262C200.205 131.572 196.71 135.067 192.4 135.067C188.091 135.067 184.596 131.572 184.596 127.262C184.596 122.953 188.091 119.458 192.4 119.458Z" fill="#90CDD4"/>
<path fill-rule="evenodd" clip-rule="evenodd" d="M200.762 86.6433C203.426 86.6433 205.587 88.804 205.587 91.4681C205.587 94.133 203.426 96.293 200.762 96.293C198.097 96.293 195.938 94.133 195.938 91.4681C195.938 88.804 198.097 86.6433 200.762 86.6433Z" fill="#90CDD4"/>
<path fill-rule="evenodd" clip-rule="evenodd" d="M163.412 156.639C167.261 156.639 170.382 159.762 170.382 163.609C170.382 167.458 167.261 170.579 163.412 170.579C159.564 170.579 156.442 167.458 156.442 163.609C156.442 159.762 159.564 156.639 163.412 156.639Z" fill="#BBE042"/>
<path fill-rule="evenodd" clip-rule="evenodd" d="M98.0766 170.631C101.341 170.631 103.988 173.278 103.988 176.543C103.988 179.806 101.341 182.454 98.0766 182.454C94.812 182.454 92.1655 179.806 92.1655 176.543C92.1655 173.278 94.812 170.631 98.0766 170.631Z" fill="#90CDD4"/>
<path fill-rule="evenodd" clip-rule="evenodd" d="M66.6352 160.598C69.8991 160.598 72.5464 163.244 72.5464 166.509C72.5464 169.773 69.8991 172.42 66.6352 172.42C63.3706 172.42 60.7241 169.773 60.7241 166.509C60.7241 163.244 63.3706 160.598 66.6352 160.598Z" fill="#90CDD4"/>
<path fill-rule="evenodd" clip-rule="evenodd" d="M62.1757 119.681C66.6089 119.681 70.2032 123.275 70.2032 127.708C70.2032 132.141 66.6089 135.735 62.1757 135.735C57.7426 135.735 54.1475 132.141 54.1475 127.708C54.1475 123.275 57.7426 119.681 62.1757 119.681Z" fill="#90CDD4"/>
<path fill-rule="evenodd" clip-rule="evenodd" d="M94.3824 115.557C97.3988 115.557 99.8448 118.002 99.8448 121.018C99.8448 124.035 97.3988 126.481 94.3824 126.481C91.366 126.481 88.9209 124.035 88.9209 121.018C88.9209 118.002 91.366 115.557 94.3824 115.557Z" fill="#FBDE4C"/>
<path fill-rule="evenodd" clip-rule="evenodd" d="M133.085 49.975C136.361 49.975 139.016 52.6315 139.016 55.9063C139.016 59.181 136.361 61.8367 133.085 61.8367C129.81 61.8367 127.154 59.181 127.154 55.9063C127.154 52.6315 129.81 49.975 133.085 49.975Z" fill="#F89F49"/>
<path fill-rule="evenodd" clip-rule="evenodd" d="M116.093 144.031C119.887 144.031 122.962 147.106 122.962 150.899C122.962 154.692 119.887 157.767 116.093 157.767C112.301 157.767 109.226 154.692 109.226 150.899C109.226 147.106 112.301 144.031 116.093 144.031Z" fill="#90CDD4"/>
<path fill-rule="evenodd" clip-rule="evenodd" d="M131.079 114.799C133.281 114.799 135.068 116.585 135.068 118.789C135.068 120.992 133.281 122.778 131.079 122.778C128.875 122.778 127.089 120.992 127.089 118.789C127.089 116.585 128.875 114.799 131.079 114.799Z" fill="#F89F49"/>
<path fill-rule="evenodd" clip-rule="evenodd" d="M133.086 193.749C136.144 193.749 138.625 196.228 138.625 199.288C138.625 202.347 136.144 204.826 133.086 204.826C130.027 204.826 127.547 202.347 127.547 199.288C127.547 196.228 130.027 193.749 133.086 193.749Z" fill="#BBE042"/>
<path fill-rule="evenodd" clip-rule="evenodd" d="M163.635 128.731C166.395 128.731 168.633 130.969 168.633 133.729C168.633 136.489 166.395 138.727 163.635 138.727C160.875 138.727 158.637 136.489 158.637 133.729C158.637 130.969 160.875 128.731 163.635 128.731Z" fill="#BBE042"/>
<path fill-rule="evenodd" clip-rule="evenodd" d="M155.162 64.7342C157.921 64.7342 160.159 66.9721 160.159 69.7318C160.159 72.4907 157.921 74.7286 155.162 74.7286C152.402 74.7286 150.164 72.4907 150.164 69.7318C150.164 66.9721 152.402 64.7342 155.162 64.7342Z" fill="#F89F49"/>
<path fill-rule="evenodd" clip-rule="evenodd" d="M108.556 71.8998C110.807 71.8998 112.632 73.7242 112.632 75.9747C112.632 78.2261 110.807 80.0505 108.556 80.0505C106.306 80.0505 104.48 78.2261 104.48 75.9747C104.48 73.7242 106.306 71.8998 108.556 71.8998Z" fill="#FBDE4C"/>
<path fill-rule="evenodd" clip-rule="evenodd" d="M72.6556 46.3348C74.2468 46.3348 75.5378 47.6249 75.5378 49.2169C75.5378 50.8082 74.2468 52.0983 72.6556 52.0983C71.0644 52.0983 69.7734 50.8082 69.7734 49.2169C69.7734 47.6249 71.0644 46.3348 72.6556 46.3348Z" fill="#FBDE4C"/>
<path fill-rule="evenodd" clip-rule="evenodd" d="M171.04 57.1815C172.991 57.1815 174.573 58.7635 174.573 60.7146C174.573 62.6657 172.991 64.2477 171.04 64.2477C169.089 64.2477 167.507 62.6657 167.507 60.7146C167.507 58.7635 169.089 57.1815 171.04 57.1815Z" fill="#F89F49"/>
<path fill-rule="evenodd" clip-rule="evenodd" d="M185.265 162.18C187.162 162.18 188.701 163.719 188.701 165.616C188.701 167.513 187.162 169.052 185.265 169.052C183.368 169.052 181.829 167.513 181.829 165.616C181.829 163.719 183.368 162.18 185.265 162.18Z" fill="#BBE042"/>
<path fill-rule="evenodd" clip-rule="evenodd" d="M200.898 148.332C202.795 148.332 204.333 149.87 204.333 151.767C204.333 153.664 202.795 155.202 200.898 155.202C199 155.202 197.462 153.664 197.462 151.767C197.462 149.87 199 148.332 200.898 148.332Z" fill="#BBE042"/>
<path fill-rule="evenodd" clip-rule="evenodd" d="M62.0152 87.5705C64.9703 87.5705 67.3668 89.967 67.3668 92.9222C67.3668 95.8773 64.9703 98.2738 62.0152 98.2738C59.0601 98.2738 56.6636 95.8773 56.6636 92.9222C56.6636 89.967 59.0601 87.5705 62.0152 87.5705Z" fill="#FBDE4C"/>
<path fill-rule="evenodd" clip-rule="evenodd" d="M31.1798 119.738C33.4882 119.738 35.3596 121.609 35.3596 123.917C35.3596 126.226 33.4882 128.097 31.1798 128.097C28.8714 128.097 27 126.226 27 123.917C27 121.609 28.8714 119.738 31.1798 119.738Z" fill="#90CDD4"/>
</svg>
