<svg width="256" height="256" viewBox="0 0 256 256" fill="none" xmlns="http://www.w3.org/2000/svg">
<path d="M196 0H60C26.8629 0 0 26.8629 0 60V196C0 229.137 26.8629 256 60 256H196C229.137 256 256 229.137 256 196V60C256 26.8629 229.137 0 196 0Z" fill="#F4F2ED"/>
<path d="M133.696 137.124C125.349 145.477 125.349 159.013 133.696 167.365C142.049 175.711 155.586 175.711 163.933 167.365C172.286 159.013 172.286 145.477 163.933 137.124C155.586 128.778 142.049 128.778 133.696 137.124ZM156.301 159.746C155.318 160.73 154.151 161.511 152.866 162.043C151.582 162.576 150.205 162.85 148.814 162.85C147.424 162.85 146.047 162.576 144.762 162.043C143.478 161.511 142.311 160.73 141.328 159.746C140.345 158.764 139.565 157.597 139.033 156.313C138.501 155.029 138.227 153.653 138.227 152.263C138.227 150.873 138.501 149.497 139.033 148.213C139.565 146.929 140.345 145.762 141.328 144.78C142.311 143.796 143.478 143.015 144.762 142.483C146.047 141.95 147.424 141.676 148.814 141.676C150.205 141.676 151.582 141.95 152.866 142.483C154.151 143.015 155.318 143.796 156.301 144.78C160.434 148.894 160.434 155.613 156.301 159.746ZM163.58 31.9224L150.477 45.0223C149.244 46.265 148.551 47.9449 148.551 49.6957C148.551 51.4466 149.244 53.1265 150.477 54.3692L201.63 105.517C202.873 106.75 204.553 107.442 206.304 107.442C208.055 107.442 209.735 106.75 210.978 105.517L224.079 92.4153C226.64 89.8538 226.64 85.6362 224.079 83.0764L172.904 31.9208C171.664 30.6904 169.988 30 168.242 30C166.495 30 164.819 30.692 163.58 31.9224ZM71.7854 199.327C72.9026 198.205 73.5298 196.687 73.5298 195.103C73.5298 193.52 72.9026 192.001 71.7854 190.879L65.1298 184.218C64.0065 183.102 62.4869 182.475 60.903 182.475C59.3191 182.475 57.7995 183.102 56.6762 184.218L42.9226 197.978L42.8972 197.997L39.1246 194.219C37.0355 192.13 33.6353 192.13 31.5668 194.219C29.4777 196.306 29.4777 199.706 31.5668 201.776L54.2338 224.434C54.7294 224.931 55.3179 225.324 55.9658 225.593C56.6137 225.862 57.3082 226 58.0095 226C58.7109 226 59.4054 225.862 60.0533 225.593C60.7012 225.324 61.2897 224.931 61.7853 224.434C63.8537 222.345 63.8744 218.945 61.7853 216.884L58.0064 213.105L58.0318 213.086L71.7854 199.327Z" fill="#F5A800"/>
<path d="M141.091 69.5342L111.985 98.636C109.4 101.221 109.4 105.479 111.985 108.064L129.958 126.031C142.662 116.889 160.476 118.02 171.905 129.456L186.46 114.9C189.041 112.315 189.041 108.064 186.46 105.479L150.516 69.5342C149.897 68.9151 149.163 68.424 148.354 68.0889C147.546 67.7538 146.679 67.5813 145.804 67.5813C144.929 67.5813 144.063 67.7538 143.254 68.0889C142.446 68.424 141.71 68.9151 141.091 69.5342ZM122.401 133.605L111.785 122.99C109.298 120.505 105.221 120.505 102.741 122.99L65.3019 160.441C64.1077 161.644 63.4375 163.27 63.4375 164.965C63.4375 166.66 64.1077 168.286 65.3019 169.489L86.513 190.7C87.716 191.894 89.3427 192.565 91.0382 192.565C92.7336 192.565 94.3603 191.894 95.5633 190.7L119.64 166.586C114.55 156.071 115.463 143.369 122.401 133.605Z" fill="#425CC7"/>
</svg>
