<svg width="256" height="256" viewBox="0 0 256 256" fill="none" xmlns="http://www.w3.org/2000/svg">
<path d="M196 0H60C26.8629 0 0 26.8629 0 60V196C0 229.137 26.8629 256 60 256H196C229.137 256 256 229.137 256 196V60C256 26.8629 229.137 0 196 0Z" fill="#F4F2ED"/>
<path fill-rule="evenodd" clip-rule="evenodd" d="M212.744 222.242V172.981H159.412C144.908 172.981 131.473 180.639 124.045 193.142L106.755 222.242H212.744Z" fill="#63D2F9"/>
<path fill-rule="evenodd" clip-rule="evenodd" d="M43 33V82.2608H183.474L212.744 33H43Z" fill="#4E5EE4"/>
<path fill-rule="evenodd" clip-rule="evenodd" d="M110.23 109.987L43.1553 222.242H100.302L180.511 87.9446H148.954C133.082 87.9446 118.377 96.3144 110.23 109.987Z" fill="#63B0F9"/>
</svg>
