<?xml version="1.0" encoding="utf-8"?>
<svg viewBox="0 0 256 256" xmlns="http://www.w3.org/2000/svg">
  <rect x="-0.102" y="0.16" width="256" height="256" rx="15" ry="15" style="paint-order: fill; fill: rgb(255, 255, 255);" transform="matrix(1.0000000000000002, 0, 0, 1.0000000000000002, 7.105427357601002e-15, 7.105427357601002e-15)"/>
  <path fill="#E81B22" opacity="1.000000" stroke="none" d="M 31.184 101.737 C 35.95 101.737 40.634 101.7 45.323 101.748 C 49.251 101.788 52.624 104.118 55.446 108.537 C 58.111 112.703 59.603 117.826 59.887 123.754 C 60.226 130.824 58.904 137.078 55.88 142.282 C 53.551 146.294 50.668 148.674 47.309 149.528 C 46.524 149.73 45.717 149.829 44.923 149.833 C 39.303 149.857 33.684 149.945 28.069 149.817 C 22.548 149.692 18.207 145.888 15.238 138.272 C 13.909 134.846 13.227 131.071 13.11 126.994 C 13.003 123.156 13.38 119.503 14.346 116.007 C 15.74 110.925 17.97 107.092 20.991 104.472 C 23.18 102.576 25.52 101.683 28.001 101.733 C 29.034 101.755 30.072 101.737 31.184 101.737 M 20.082 117.933 C 18.915 121.125 18.516 124.569 18.888 128.209 C 19.391 133.104 21.039 136.74 23.668 139.238 C 25.38 140.864 27.271 141.254 29.197 141.269 C 34.066 141.306 38.939 141.289 43.803 141.269 C 44.554 141.268 45.306 141.205 46.043 141.029 C 51.006 139.852 54.889 132.622 54.155 123.569 C 53.546 116.073 49.437 110.317 44.753 110.303 C 39.261 110.291 33.77 110.298 28.275 110.307 C 27.811 110.31 27.34 110.344 26.885 110.471 C 23.972 111.286 21.712 113.702 20.082 117.933 Z" style="" transform="matrix(1.0000000000000002, 0, 0, 1.0000000000000002, 7.105427357601002e-15, 7.105427357601002e-15)"/>
  <path fill="#E81B22" opacity="1.000000" stroke="none" d="M 241.49 141.28 C 241.95 141.28 242.332 141.28 242.808 141.28 C 242.696 141.684 242.649 141.952 242.559 142.177 C 241.667 144.441 240.757 146.685 239.882 148.96 C 239.638 149.598 239.359 149.865 238.878 149.863 C 233.262 149.837 227.639 149.91 222.016 149.821 C 218.386 149.766 215.103 147.929 212.323 144.035 C 209.519 140.098 207.776 135.164 207.283 129.171 C 206.671 121.717 207.893 115.127 211.025 109.556 C 213.929 104.387 217.575 101.773 221.89 101.748 C 228.42 101.708 234.945 101.737 241.474 101.737 C 241.753 101.737 242.031 101.737 242.472 101.737 C 241.903 103.192 241.41 104.45 240.912 105.704 C 240.435 106.903 239.933 108.075 239.488 109.301 C 239.221 110.026 238.921 110.327 238.377 110.323 C 233.015 110.289 227.651 110.297 222.289 110.303 C 218.407 110.31 214.825 114.336 213.458 120.205 C 213.375 120.55 213.315 120.905 213.212 121.404 C 222.419 121.404 231.547 121.404 240.761 121.404 C 240.693 121.765 240.676 122.003 240.603 122.182 C 239.702 124.484 238.78 126.764 237.896 129.082 C 237.617 129.809 237.292 130.053 236.764 130.05 C 229.252 130.021 221.74 130.032 214.225 130.033 C 213.92 130.033 213.616 130.033 213.169 130.033 C 213.41 130.992 213.565 131.824 213.808 132.587 C 215.302 137.244 217.652 140.063 220.836 140.995 C 221.615 141.225 222.432 141.265 223.224 141.269 C 229.29 141.289 235.352 141.28 241.49 141.28 Z" style="" transform="matrix(1.0000000000000002, 0, 0, 1.0000000000000002, 7.105427357601002e-15, 7.105427357601002e-15)"/>
  <path fill="#E81B22" opacity="1.000000" stroke="none" d="M 62.867 113.618 C 62.867 109.635 62.867 105.781 62.867 101.811 C 63.173 101.784 63.416 101.74 63.666 101.74 C 71.829 101.737 79.988 101.716 88.148 101.743 C 92.799 101.761 97.067 107.859 97.73 115.335 C 98.194 120.5 97.397 125.085 95.256 128.964 C 93.699 131.769 91.73 133.495 89.418 134.017 C 88.427 134.24 87.41 134.172 86.401 134.227 C 86.131 134.244 85.857 134.231 85.587 134.231 C 85.575 134.324 85.557 134.414 85.539 134.505 C 89.225 139.523 92.914 144.539 96.735 149.742 C 96.345 149.792 96.131 149.842 95.912 149.842 C 93.66 149.846 91.404 149.822 89.152 149.861 C 88.624 149.871 88.225 149.629 87.826 149.065 C 85.266 145.416 82.688 141.799 80.113 138.166 C 77.324 134.231 74.54 130.294 71.756 126.355 C 71.663 126.221 71.585 126.064 71.383 125.72 C 71.775 125.698 72.045 125.666 72.306 125.666 C 77.333 125.664 82.361 125.615 87.385 125.69 C 89.521 125.72 91.82 123.147 92.124 118.944 C 92.42 114.891 90.747 111.209 88.306 110.423 C 88.005 110.327 87.689 110.306 87.381 110.306 C 81.369 110.299 75.36 110.302 69.35 110.303 C 69.148 110.303 68.942 110.333 68.638 110.358 C 68.608 114.736 68.629 119.083 68.625 123.429 C 68.621 127.796 68.621 132.159 68.621 136.526 C 68.621 140.889 68.621 145.252 68.621 149.768 C 66.711 149.93 64.842 149.81 62.867 149.847 C 62.867 137.721 62.867 125.733 62.867 113.618 Z" style="" transform="matrix(1.0000000000000002, 0, 0, 1.0000000000000002, 7.105427357601002e-15, 7.105427357601002e-15)"/>
  <path fill="#E81B22" opacity="1.000000" stroke="none" d="M 121.977 118.643 C 121.149 116.472 120.343 114.383 119.488 112.169 C 119.309 112.529 119.172 112.755 119.068 113.019 C 115.435 122.34 111.801 131.663 108.173 140.989 C 107.139 143.647 106.101 146.307 105.08 148.977 C 104.861 149.549 104.624 149.879 104.157 149.867 C 102.266 149.816 100.374 149.846 98.486 149.843 C 98.362 149.843 98.232 149.813 97.988 149.783 C 98.139 149.334 98.242 148.974 98.371 148.644 C 102.412 138.397 106.456 128.157 110.497 117.912 C 112.21 113.568 113.933 109.23 115.62 104.862 C 116.662 102.17 118.134 100.942 120.068 101.332 C 121.308 101.58 122.312 102.549 122.999 104.291 C 125.94 111.741 128.884 119.189 131.83 126.637 C 134.464 133.31 137.108 139.979 139.745 146.652 C 140.131 147.628 140.505 148.615 140.942 149.754 C 138.6 149.754 136.386 149.754 134.134 149.754 C 133.092 146.968 132.032 144.142 130.96 141.281 C 130.625 141.281 130.317 141.281 130.008 141.281 C 125.447 141.281 120.887 141.272 116.331 141.295 C 115.821 141.298 115.49 141.113 115.208 140.339 C 114.354 138.039 113.432 135.809 112.54 133.549 C 112.458 133.35 112.397 133.13 112.273 132.756 C 117.31 132.756 122.239 132.756 127.271 132.756 C 127.172 132.35 127.125 132.085 127.043 131.861 C 125.366 127.48 123.685 123.102 121.977 118.643 Z" style="" transform="matrix(1.0000000000000002, 0, 0, 1.0000000000000002, 7.105427357601002e-15, 7.105427357601002e-15)"/>
  <path fill="#E81B22" opacity="1.000000" stroke="none" d="M 161.916 110.302 C 158.934 110.302 156.035 110.297 153.133 110.303 C 148.39 110.317 144.391 116.011 143.696 123.635 C 142.962 131.685 146.429 139.779 151.829 141.033 C 152.589 141.21 153.37 141.268 154.146 141.269 C 160.31 141.288 166.471 141.28 172.636 141.28 C 172.936 141.28 173.236 141.28 173.643 141.28 C 173.519 141.697 173.468 141.925 173.39 142.122 C 172.485 144.417 171.558 146.693 170.675 149.009 C 170.418 149.671 170.117 149.861 169.663 149.86 C 164.038 149.838 158.419 149.918 152.8 149.821 C 148.698 149.75 145.095 147.446 142.199 142.664 C 139.419 138.074 137.982 132.522 137.943 126.04 C 137.905 119.078 139.436 113.174 142.517 108.371 C 145.274 104.062 148.609 101.788 152.453 101.753 C 159.032 101.692 165.609 101.737 172.189 101.737 C 172.472 101.737 172.755 101.737 173.047 101.737 C 172.961 102.648 171.541 106.453 169.864 110.302 C 167.269 110.302 164.63 110.302 161.916 110.302 Z" style="" transform="matrix(1.0000000000000002, 0, 0, 1.0000000000000002, 7.105427357601002e-15, 7.105427357601002e-15)"/>
  <path fill="#E81B22" opacity="1.000000" stroke="none" d="M 183.531 141.28 C 191.845 141.28 200.076 141.28 208.378 141.28 C 208.326 141.557 208.318 141.756 208.257 141.91 C 207.344 144.243 206.404 146.555 205.504 148.904 C 205.242 149.576 204.968 149.871 204.448 149.869 C 196.161 149.837 187.877 149.846 179.589 149.845 C 178.881 149.845 178.194 149.683 177.577 149.066 C 176.75 148.237 176.311 147.013 176.243 145.445 C 176.23 145.151 176.239 144.857 176.239 144.563 C 176.239 130.84 176.239 117.119 176.239 103.396 C 176.239 102.901 176.239 102.406 176.239 101.826 C 178.17 101.826 180.018 101.826 181.975 101.826 C 182.014 106.158 181.987 110.504 181.991 114.847 C 181.995 119.255 181.991 123.66 181.991 128.066 C 181.991 132.419 181.991 136.771 181.991 141.28 C 182.54 141.28 182.995 141.28 183.531 141.28 Z" style="" transform="matrix(1.0000000000000002, 0, 0, 1.0000000000000002, 7.105427357601002e-15, 7.105427357601002e-15)"/>
</svg>