<?xml version="1.0" encoding="utf-8"?>
<svg viewBox="0 0 256 256" fill="none" xmlns="http://www.w3.org/2000/svg">
  <rect width="256" height="256" rx="60" fill="#F4F2ED" transform="matrix(1, 0, 0, 1, -3.552713678800501e-15, 0)"/>
  <path fill="#E81B22" opacity="1.000000" stroke="none" d="M 30.003 106.933 C 34.769 106.933 39.453 106.896 44.142 106.944 C 48.07 106.984 51.443 109.314 54.265 113.733 C 56.93 117.899 58.422 123.022 58.706 128.95 C 59.045 136.02 57.723 142.274 54.699 147.478 C 52.37 151.49 49.487 153.87 46.128 154.724 C 45.343 154.926 44.536 155.025 43.742 155.029 C 38.122 155.053 32.503 155.141 26.888 155.013 C 21.367 154.888 17.026 151.084 14.057 143.468 C 12.728 140.042 12.046 136.267 11.929 132.19 C 11.822 128.352 12.199 124.699 13.165 121.203 C 14.559 116.121 16.789 112.288 19.81 109.668 C 21.999 107.772 24.339 106.879 26.82 106.929 C 27.853 106.951 28.891 106.933 30.003 106.933 M 18.901 123.129 C 17.734 126.321 17.335 129.765 17.707 133.405 C 18.21 138.3 19.858 141.936 22.487 144.434 C 24.199 146.06 26.09 146.45 28.016 146.465 C 32.885 146.502 37.758 146.485 42.622 146.465 C 43.373 146.464 44.125 146.401 44.862 146.225 C 49.825 145.048 53.708 137.818 52.974 128.765 C 52.365 121.269 48.256 115.513 43.572 115.499 C 38.08 115.487 32.589 115.494 27.094 115.503 C 26.63 115.506 26.159 115.54 25.704 115.667 C 22.791 116.482 20.531 118.898 18.901 123.129 Z" style="" transform="matrix(1, 0, 0, 1, -3.552713678800501e-15, 0)"/>
  <path fill="#E81B22" opacity="1.000000" stroke="none" d="M 240.309 146.476 C 240.769 146.476 241.151 146.476 241.627 146.476 C 241.515 146.88 241.468 147.148 241.378 147.373 C 240.486 149.637 239.576 151.881 238.701 154.156 C 238.457 154.794 238.178 155.061 237.697 155.059 C 232.081 155.033 226.458 155.106 220.835 155.017 C 217.205 154.962 213.922 153.125 211.142 149.231 C 208.338 145.294 206.595 140.36 206.102 134.367 C 205.49 126.913 206.712 120.323 209.844 114.752 C 212.748 109.583 216.394 106.969 220.709 106.944 C 227.239 106.904 233.764 106.933 240.293 106.933 C 240.572 106.933 240.85 106.933 241.291 106.933 C 240.722 108.388 240.229 109.646 239.731 110.9 C 239.254 112.099 238.752 113.271 238.307 114.497 C 238.04 115.222 237.74 115.523 237.196 115.519 C 231.834 115.485 226.47 115.493 221.108 115.499 C 217.226 115.506 213.644 119.532 212.277 125.401 C 212.194 125.746 212.134 126.101 212.031 126.6 C 221.238 126.6 230.366 126.6 239.58 126.6 C 239.512 126.961 239.495 127.199 239.422 127.378 C 238.521 129.68 237.599 131.96 236.715 134.278 C 236.436 135.005 236.111 135.249 235.583 135.246 C 228.071 135.217 220.559 135.228 213.044 135.229 C 212.739 135.229 212.435 135.229 211.988 135.229 C 212.229 136.188 212.384 137.02 212.627 137.783 C 214.121 142.44 216.471 145.259 219.655 146.191 C 220.434 146.421 221.251 146.461 222.043 146.465 C 228.109 146.485 234.171 146.476 240.309 146.476 Z" style="" transform="matrix(1, 0, 0, 1, -3.552713678800501e-15, 0)"/>
  <path fill="#E81B22" opacity="1.000000" stroke="none" d="M 61.686 118.814 C 61.686 114.831 61.686 110.977 61.686 107.007 C 61.992 106.98 62.235 106.936 62.485 106.936 C 70.648 106.933 78.807 106.912 86.967 106.939 C 91.618 106.957 95.886 113.055 96.549 120.531 C 97.013 125.696 96.216 130.281 94.075 134.16 C 92.518 136.965 90.549 138.691 88.237 139.213 C 87.246 139.436 86.229 139.368 85.22 139.423 C 84.95 139.44 84.676 139.427 84.406 139.427 C 84.394 139.52 84.376 139.61 84.358 139.701 C 88.044 144.719 91.733 149.735 95.554 154.938 C 95.164 154.988 94.95 155.038 94.731 155.038 C 92.479 155.042 90.223 155.018 87.971 155.057 C 87.443 155.067 87.044 154.825 86.645 154.261 C 84.085 150.612 81.507 146.995 78.932 143.362 C 76.143 139.427 73.359 135.49 70.575 131.551 C 70.482 131.417 70.404 131.26 70.202 130.916 C 70.594 130.894 70.864 130.862 71.125 130.862 C 76.152 130.86 81.18 130.811 86.204 130.886 C 88.34 130.916 90.639 128.343 90.943 124.14 C 91.239 120.087 89.566 116.405 87.125 115.619 C 86.824 115.523 86.508 115.502 86.2 115.502 C 80.188 115.495 74.179 115.498 68.169 115.499 C 67.967 115.499 67.761 115.529 67.457 115.554 C 67.427 119.932 67.448 124.279 67.444 128.625 C 67.44 132.992 67.44 137.355 67.44 141.722 C 67.44 146.085 67.44 150.448 67.44 154.964 C 65.53 155.126 63.661 155.006 61.686 155.043 C 61.686 142.917 61.686 130.929 61.686 118.814 Z" style="" transform="matrix(1, 0, 0, 1, -3.552713678800501e-15, 0)"/>
  <path fill="#E81B22" opacity="1.000000" stroke="none" d="M 120.796 123.839 C 119.968 121.668 119.162 119.579 118.307 117.365 C 118.128 117.725 117.991 117.951 117.887 118.215 C 114.254 127.536 110.62 136.859 106.992 146.185 C 105.958 148.843 104.92 151.503 103.899 154.173 C 103.68 154.745 103.443 155.075 102.976 155.063 C 101.085 155.012 99.193 155.042 97.305 155.039 C 97.181 155.039 97.051 155.009 96.807 154.979 C 96.958 154.53 97.061 154.17 97.19 153.84 C 101.231 143.593 105.275 133.353 109.316 123.108 C 111.029 118.764 112.752 114.426 114.439 110.058 C 115.481 107.366 116.953 106.138 118.887 106.528 C 120.127 106.776 121.131 107.745 121.818 109.487 C 124.759 116.937 127.703 124.385 130.649 131.833 C 133.283 138.506 135.927 145.175 138.564 151.848 C 138.95 152.824 139.324 153.811 139.761 154.95 C 137.419 154.95 135.205 154.95 132.953 154.95 C 131.911 152.164 130.851 149.338 129.779 146.477 C 129.444 146.477 129.136 146.477 128.827 146.477 C 124.266 146.477 119.706 146.468 115.15 146.491 C 114.64 146.494 114.309 146.309 114.027 145.535 C 113.173 143.235 112.251 141.005 111.359 138.745 C 111.277 138.546 111.216 138.326 111.092 137.952 C 116.129 137.952 121.058 137.952 126.09 137.952 C 125.991 137.546 125.944 137.281 125.862 137.057 C 124.185 132.676 122.504 128.298 120.796 123.839 Z" style="" transform="matrix(1, 0, 0, 1, -3.552713678800501e-15, 0)"/>
  <path fill="#E81B22" opacity="1.000000" stroke="none" d="M 160.735 115.498 C 157.753 115.498 154.854 115.493 151.952 115.499 C 147.209 115.513 143.21 121.207 142.515 128.831 C 141.781 136.881 145.248 144.975 150.648 146.229 C 151.408 146.406 152.189 146.464 152.965 146.465 C 159.129 146.484 165.29 146.476 171.455 146.476 C 171.755 146.476 172.055 146.476 172.462 146.476 C 172.338 146.893 172.287 147.121 172.209 147.318 C 171.304 149.613 170.377 151.889 169.494 154.205 C 169.237 154.867 168.936 155.057 168.482 155.056 C 162.857 155.034 157.238 155.114 151.619 155.017 C 147.517 154.946 143.914 152.642 141.018 147.86 C 138.238 143.27 136.801 137.718 136.762 131.236 C 136.724 124.274 138.255 118.37 141.336 113.567 C 144.093 109.258 147.428 106.984 151.272 106.949 C 157.851 106.888 164.428 106.933 171.008 106.933 C 171.291 106.933 171.574 106.933 171.866 106.933 C 171.78 107.844 170.36 111.649 168.683 115.498 C 166.088 115.498 163.449 115.498 160.735 115.498 Z" style="" transform="matrix(1, 0, 0, 1, -3.552713678800501e-15, 0)"/>
  <path fill="#E81B22" opacity="1.000000" stroke="none" d="M 182.35 146.476 C 190.664 146.476 198.895 146.476 207.197 146.476 C 207.145 146.753 207.137 146.952 207.076 147.106 C 206.163 149.439 205.223 151.751 204.323 154.1 C 204.061 154.772 203.787 155.067 203.267 155.065 C 194.98 155.033 186.696 155.042 178.408 155.041 C 177.7 155.041 177.013 154.879 176.396 154.262 C 175.569 153.433 175.13 152.209 175.062 150.641 C 175.049 150.347 175.058 150.053 175.058 149.759 C 175.058 136.036 175.058 122.315 175.058 108.592 C 175.058 108.097 175.058 107.602 175.058 107.022 C 176.989 107.022 178.837 107.022 180.794 107.022 C 180.833 111.354 180.806 115.7 180.81 120.043 C 180.814 124.451 180.81 128.856 180.81 133.262 C 180.81 137.615 180.81 141.967 180.81 146.476 C 181.359 146.476 181.814 146.476 182.35 146.476 Z" style="" transform="matrix(1, 0, 0, 1, -3.552713678800501e-15, 0)"/>
</svg>