<svg width="256" height="256" viewBox="0 0 256 256" fill="none" xmlns="http://www.w3.org/2000/svg">
<path d="M196 0H60C26.8629 0 0 26.8629 0 60V196C0 229.137 26.8629 256 60 256H196C229.137 256 256 229.137 256 196V60C256 26.8629 229.137 0 196 0Z" fill="#242938"/>
<path fill-rule="evenodd" clip-rule="evenodd" d="M87.574 198C49.1673 198 18 166.94 18 128.558C18 90.1715 49.1673 59 87.574 59H168.439C206.855 59 238 90.1715 238 128.558C238 166.94 206.855 198 168.439 198H87.574ZM166.637 173.484C191.52 173.484 211.674 153.406 211.674 128.558C211.674 103.706 191.52 83.5162 166.637 83.5162H89.3625C64.4932 83.5162 44.3261 103.706 44.3261 128.558C44.3261 153.406 64.4932 173.484 89.3625 173.484H166.637Z" fill="#FF0000"/>
</svg>
