<svg width="256" height="256" viewBox="0 0 256 256" fill="none" xmlns="http://www.w3.org/2000/svg" id="oracledb">
<style>
#oracledb {
    rect {fill: #242938}
    @media (prefers-color-scheme: light) {
        rect {fill: #F4F2ED}
    }
}
</style>
<rect width="256" height="256" rx="60" fill="#242938" />
<path d="M128 83C154.51 83 176 72.2548 176 59C176 45.7452 154.51 35 128 35C101.49 35 80 45.7452 80 59C80 72.2548 101.49 83 128 83Z" fill="#6435E8"/>
<path opacity="0.5" d="M80 95V131C80 144.255 101.49 155 128 155C154.51 155 176 144.255 176 131V95C176 108.255 154.51 119 128 119C101.49 119 80 108.255 80 95Z" fill="#6435E8"/>
<path opacity="0.7" d="M80 59V95C80 108.255 101.49 119 128 119C154.51 119 176 108.255 176 95V59C176 72.2548 154.51 83 128 83C101.49 83 80 72.2548 80 59Z" fill="#6435E8"/>
<path d="M113.5 201.425H127.046L119.883 189.901L106.737 210.737H100.755L116.744 185.709C117.44 184.698 118.598 184.087 119.883 184.087C121.126 184.087 122.285 184.677 122.959 185.667L139.012 210.737H133.029L130.206 206.081H116.491L113.5 201.425ZM175.647 206.081V184.34H170.57V208.209C170.57 208.862 170.823 209.494 171.308 209.978C171.792 210.463 172.445 210.737 173.162 210.737H196.314L199.306 206.081H175.647ZM91.6537 202.183C96.5834 202.183 100.586 198.202 100.586 193.272C100.586 188.342 96.5834 184.34 91.6537 184.34H69.4427V210.737H74.5178V188.996H91.3166C93.6761 188.996 95.5721 190.913 95.5721 193.272C95.5721 195.632 93.6761 197.549 91.3166 197.549L77.0038 197.528L92.1592 210.737H99.5327L89.3364 202.183H91.6537ZM38.2006 210.737C30.9135 210.737 25 204.838 25 197.549C25 190.26 30.9135 184.34 38.2006 184.34H53.5436C60.8327 184.34 66.742 190.26 66.742 197.549C66.742 204.838 60.8327 210.737 53.5436 210.737H38.2006ZM53.2023 206.081C57.9235 206.081 61.7471 202.268 61.7471 197.549C61.7471 192.83 57.9235 188.996 53.2023 188.996H38.5398C33.8208 188.996 29.9949 192.83 29.9949 197.549C29.9949 202.268 33.8208 206.081 38.5398 206.081H53.2023ZM149.609 210.737C142.32 210.737 136.4 204.838 136.4 197.549C136.4 190.26 142.32 184.34 149.609 184.34H167.832L164.861 188.996H149.946C145.227 188.996 141.393 192.83 141.393 197.549C141.393 202.268 145.227 206.081 149.946 206.081H168.253L165.261 210.737H149.609ZM211.693 206.081C207.795 206.081 204.488 203.468 203.477 199.866H225.176L228.167 195.21H203.477C204.488 191.629 207.795 188.996 211.693 188.996H226.587L229.6 184.34H211.356C204.067 184.34 198.147 190.26 198.147 197.549C198.147 204.838 204.067 210.737 211.356 210.737H227.009L230 206.081H211.693Z" fill="#EA1B22"/>
</svg>
