<?xml version="1.0" encoding="utf-8"?>
<svg viewBox="0 0 256 256" fill="none" xmlns="http://www.w3.org/2000/svg">
  <rect width="256" height="256" rx="60" fill="#242938" transform="matrix(1, 0, 0, 1, -3.552713678800501e-15, 0)"/>
  <path fill="#E81B22" opacity="1.000000" stroke="none" d="M 31.233 101.548 C 35.999 101.548 40.683 101.511 45.372 101.559 C 49.3 101.599 52.673 103.929 55.495 108.348 C 58.16 112.514 59.652 117.637 59.936 123.565 C 60.275 130.635 58.953 136.889 55.929 142.093 C 53.6 146.105 50.717 148.485 47.358 149.339 C 46.573 149.541 45.766 149.64 44.972 149.644 C 39.352 149.668 33.733 149.756 28.118 149.628 C 22.597 149.503 18.256 145.699 15.287 138.083 C 13.958 134.657 13.276 130.882 13.159 126.805 C 13.052 122.967 13.429 119.314 14.395 115.818 C 15.789 110.736 18.019 106.903 21.04 104.283 C 23.229 102.387 25.569 101.494 28.05 101.544 C 29.083 101.566 30.121 101.548 31.233 101.548 M 20.131 117.744 C 18.964 120.936 18.565 124.38 18.937 128.02 C 19.44 132.915 21.088 136.551 23.717 139.049 C 25.429 140.675 27.32 141.065 29.246 141.08 C 34.115 141.117 38.988 141.1 43.852 141.08 C 44.603 141.079 45.355 141.016 46.092 140.84 C 51.055 139.663 54.938 132.433 54.204 123.38 C 53.595 115.884 49.486 110.128 44.802 110.114 C 39.31 110.102 33.819 110.109 28.324 110.118 C 27.86 110.121 27.389 110.155 26.934 110.282 C 24.021 111.097 21.761 113.513 20.131 117.744 Z" style="" transform="matrix(1, 0, 0, 1, -3.552713678800501e-15, 0)"/>
  <path fill="#E81B22" opacity="1.000000" stroke="none" d="M 241.539 141.091 C 241.999 141.091 242.381 141.091 242.857 141.091 C 242.745 141.495 242.698 141.763 242.608 141.988 C 241.716 144.252 240.806 146.496 239.931 148.771 C 239.687 149.409 239.408 149.676 238.927 149.674 C 233.311 149.648 227.688 149.721 222.065 149.632 C 218.435 149.577 215.152 147.74 212.372 143.846 C 209.568 139.909 207.825 134.975 207.332 128.982 C 206.72 121.528 207.942 114.938 211.074 109.367 C 213.978 104.198 217.624 101.584 221.939 101.559 C 228.469 101.519 234.994 101.548 241.523 101.548 C 241.802 101.548 242.08 101.548 242.521 101.548 C 241.952 103.003 241.459 104.261 240.961 105.515 C 240.484 106.714 239.982 107.886 239.537 109.112 C 239.27 109.837 238.97 110.138 238.426 110.134 C 233.064 110.1 227.7 110.108 222.338 110.114 C 218.456 110.121 214.874 114.147 213.507 120.016 C 213.424 120.361 213.364 120.716 213.261 121.215 C 222.468 121.215 231.596 121.215 240.81 121.215 C 240.742 121.576 240.725 121.814 240.652 121.993 C 239.751 124.295 238.829 126.575 237.945 128.893 C 237.666 129.62 237.341 129.864 236.813 129.861 C 229.301 129.832 221.789 129.843 214.274 129.844 C 213.969 129.844 213.665 129.844 213.218 129.844 C 213.459 130.803 213.614 131.635 213.857 132.398 C 215.351 137.055 217.701 139.874 220.885 140.806 C 221.664 141.036 222.481 141.076 223.273 141.08 C 229.339 141.1 235.401 141.091 241.539 141.091 Z" style="" transform="matrix(1, 0, 0, 1, -3.552713678800501e-15, 0)"/>
  <path fill="#E81B22" opacity="1.000000" stroke="none" d="M 62.916 113.429 C 62.916 109.446 62.916 105.592 62.916 101.622 C 63.222 101.595 63.465 101.551 63.715 101.551 C 71.878 101.548 80.037 101.527 88.197 101.554 C 92.848 101.572 97.116 107.67 97.779 115.146 C 98.243 120.311 97.446 124.896 95.305 128.775 C 93.748 131.58 91.779 133.306 89.467 133.828 C 88.476 134.051 87.459 133.983 86.45 134.038 C 86.18 134.055 85.906 134.042 85.636 134.042 C 85.624 134.135 85.606 134.225 85.588 134.316 C 89.274 139.334 92.963 144.35 96.784 149.553 C 96.394 149.603 96.18 149.653 95.961 149.653 C 93.709 149.657 91.453 149.633 89.201 149.672 C 88.673 149.682 88.274 149.44 87.875 148.876 C 85.315 145.227 82.737 141.61 80.162 137.977 C 77.373 134.042 74.589 130.105 71.805 126.166 C 71.712 126.032 71.634 125.875 71.432 125.531 C 71.824 125.509 72.094 125.477 72.355 125.477 C 77.382 125.475 82.41 125.426 87.434 125.501 C 89.57 125.531 91.869 122.958 92.173 118.755 C 92.469 114.702 90.796 111.02 88.355 110.234 C 88.054 110.138 87.738 110.117 87.43 110.117 C 81.418 110.11 75.409 110.113 69.399 110.114 C 69.197 110.114 68.991 110.144 68.687 110.169 C 68.657 114.547 68.678 118.894 68.674 123.24 C 68.67 127.607 68.67 131.97 68.67 136.337 C 68.67 140.7 68.67 145.063 68.67 149.579 C 66.76 149.741 64.891 149.621 62.916 149.658 C 62.916 137.532 62.916 125.544 62.916 113.429 Z" style="" transform="matrix(1, 0, 0, 1, -3.552713678800501e-15, 0)"/>
  <path fill="#E81B22" opacity="1.000000" stroke="none" d="M 122.026 118.454 C 121.198 116.283 120.392 114.194 119.537 111.98 C 119.358 112.34 119.221 112.566 119.117 112.83 C 115.484 122.151 111.85 131.474 108.222 140.8 C 107.188 143.458 106.15 146.118 105.129 148.788 C 104.91 149.36 104.673 149.69 104.206 149.678 C 102.315 149.627 100.423 149.657 98.535 149.654 C 98.411 149.654 98.281 149.624 98.037 149.594 C 98.188 149.145 98.291 148.785 98.42 148.455 C 102.461 138.208 106.505 127.968 110.546 117.723 C 112.259 113.379 113.982 109.041 115.669 104.673 C 116.711 101.981 118.183 100.753 120.117 101.143 C 121.357 101.391 122.361 102.36 123.048 104.102 C 125.989 111.552 128.933 119 131.879 126.448 C 134.513 133.121 137.157 139.79 139.794 146.463 C 140.18 147.439 140.554 148.426 140.991 149.565 C 138.649 149.565 136.435 149.565 134.183 149.565 C 133.141 146.779 132.081 143.953 131.009 141.092 C 130.674 141.092 130.366 141.092 130.057 141.092 C 125.496 141.092 120.936 141.083 116.38 141.106 C 115.87 141.109 115.539 140.924 115.257 140.15 C 114.403 137.85 113.481 135.62 112.589 133.36 C 112.507 133.161 112.446 132.941 112.322 132.567 C 117.359 132.567 122.288 132.567 127.32 132.567 C 127.221 132.161 127.174 131.896 127.092 131.672 C 125.415 127.291 123.734 122.913 122.026 118.454 Z" style="" transform="matrix(1, 0, 0, 1, -3.552713678800501e-15, 0)"/>
  <path fill="#E81B22" opacity="1.000000" stroke="none" d="M 161.965 110.113 C 158.983 110.113 156.084 110.108 153.182 110.114 C 148.439 110.128 144.44 115.822 143.745 123.446 C 143.011 131.496 146.478 139.59 151.878 140.844 C 152.638 141.021 153.419 141.079 154.195 141.08 C 160.359 141.099 166.52 141.091 172.685 141.091 C 172.985 141.091 173.285 141.091 173.692 141.091 C 173.568 141.508 173.517 141.736 173.439 141.933 C 172.534 144.228 171.607 146.504 170.724 148.82 C 170.467 149.482 170.166 149.672 169.712 149.671 C 164.087 149.649 158.468 149.729 152.849 149.632 C 148.747 149.561 145.144 147.257 142.248 142.475 C 139.468 137.885 138.031 132.333 137.992 125.851 C 137.954 118.889 139.485 112.985 142.566 108.182 C 145.323 103.873 148.658 101.599 152.502 101.564 C 159.081 101.503 165.658 101.548 172.238 101.548 C 172.521 101.548 172.804 101.548 173.096 101.548 C 173.01 102.459 171.59 106.264 169.913 110.113 C 167.318 110.113 164.679 110.113 161.965 110.113 Z" style="" transform="matrix(1, 0, 0, 1, -3.552713678800501e-15, 0)"/>
  <path fill="#E81B22" opacity="1.000000" stroke="none" d="M 183.58 141.091 C 191.894 141.091 200.125 141.091 208.427 141.091 C 208.375 141.368 208.367 141.567 208.306 141.721 C 207.393 144.054 206.453 146.366 205.553 148.715 C 205.291 149.387 205.017 149.682 204.497 149.68 C 196.21 149.648 187.926 149.657 179.638 149.656 C 178.93 149.656 178.243 149.494 177.626 148.877 C 176.799 148.048 176.36 146.824 176.292 145.256 C 176.279 144.962 176.288 144.668 176.288 144.374 C 176.288 130.651 176.288 116.93 176.288 103.207 C 176.288 102.712 176.288 102.217 176.288 101.637 C 178.219 101.637 180.067 101.637 182.024 101.637 C 182.063 105.969 182.036 110.315 182.04 114.658 C 182.044 119.066 182.04 123.471 182.04 127.877 C 182.04 132.23 182.04 136.582 182.04 141.091 C 182.589 141.091 183.044 141.091 183.58 141.091 Z" style="" transform="matrix(1, 0, 0, 1, -3.552713678800501e-15, 0)"/>
</svg>