<svg width="256" height="256" id="orpc" viewBox="0 0 256 256" fill="none" xmlns="http://www.w3.org/2000/svg">
<g clip-path="url(#clip0_228_2)">
<path d="M196 0H60C26.8629 0 0 26.8629 0 60V196C0 229.137 26.8629 256 60 256H196C229.137 256 256 229.137 256 196V60C256 26.8629 229.137 0 196 0Z" fill="#242938"/>
<path d="M239.664 93.2587C239.807 93.3135 239.807 93.3135 239.953 93.3693C242.035 94.1792 243.89 95.356 244.932 97.4277C245.514 98.9146 245.842 100.492 245.623 102.082C245.591 102.509 245.616 102.842 245.67 103.262C245.751 104.127 245.631 104.886 245.454 105.731C245.423 105.886 245.392 106.041 245.36 106.201C244.978 108.056 244.527 109.896 244.066 111.733C243.993 112.024 243.92 112.316 243.847 112.608C243.024 115.905 242.155 119.186 241.179 122.441C241.14 122.571 241.101 122.7 241.061 122.834C240.505 124.685 239.933 126.531 239.351 128.374C239.26 128.665 239.17 128.956 239.08 129.248C238.334 131.675 237.412 133.859 235.068 135.123C233.221 135.942 231.381 136.058 229.427 135.704C229.292 135.68 229.157 135.655 229.018 135.63C221.295 134.187 221.295 134.187 219.139 131.613C219.057 131.517 218.975 131.42 218.89 131.321C218.114 130.315 217.807 129.212 217.486 128C217.461 127.921 217.436 127.842 217.411 127.76C217.317 127.289 217.323 126.817 217.32 126.338C217.319 126.23 217.319 126.121 217.318 126.01C217.317 125.78 217.316 125.55 217.315 125.32C217.314 124.975 217.31 124.631 217.305 124.286C217.296 122.876 217.424 121.589 217.761 120.218C213.342 122.137 209.997 124.829 208.131 129.421C207.179 131.973 207.125 134.421 208.236 136.925C209.395 139.388 211.086 140.743 213.569 141.749C219.21 143.508 225.923 140.859 230.973 138.546C233.022 137.61 234.912 137.273 237.095 137.952C239.648 138.928 241.345 141.754 242.45 144.153C242.99 145.392 243.348 146.696 243.658 148.011C243.714 148.236 243.714 148.236 243.771 148.465C244.081 149.837 244.14 151.155 244.133 152.557C244.132 152.925 244.136 153.293 244.14 153.662C244.152 156.585 243.545 159.034 241.487 161.189C238.411 164.069 234.083 165.784 230.159 167.049C230.033 167.09 229.907 167.131 229.778 167.173C219.325 170.532 208.087 170.938 198.088 165.819C195.202 164.285 192.649 162.282 190.349 159.962C190.244 159.86 190.138 159.758 190.029 159.653C189.115 158.764 188.331 157.806 187.594 156.766C187.529 156.674 187.464 156.582 187.397 156.488C181.779 148.469 181.327 139.147 181.947 129.667C181.845 129.815 181.743 129.963 181.638 130.116C179.195 133.651 176.397 137.032 172.993 139.673C172.838 139.799 172.684 139.926 172.53 140.053C170.519 141.709 168.397 143.217 166.243 144.676C166.141 144.745 166.038 144.815 165.933 144.886C158.087 150.174 158.087 150.174 154.672 149.678C154.159 149.562 153.658 149.423 153.157 149.261C153.174 149.38 153.19 149.499 153.208 149.621C153.29 150.241 153.363 150.863 153.433 151.485C153.446 151.6 153.459 151.716 153.473 151.835C153.7 153.921 153.747 156.013 153.764 158.11C153.767 158.408 153.771 158.706 153.776 159.004C153.821 161.876 153.55 164.479 151.539 166.667C148.771 169.272 144.243 169.652 140.622 169.828C140.489 169.835 140.357 169.842 140.22 169.85C137.439 169.979 134.617 169.653 132.469 167.718C129.898 165.288 129.59 161.939 129.206 158.581C129.189 158.434 129.172 158.288 129.154 158.137C127.867 147.034 126.947 135.708 127.123 124.526C127.01 124.508 126.897 124.489 126.781 124.47C126.633 124.446 126.484 124.422 126.332 124.397C126.185 124.373 126.038 124.349 125.887 124.324C124.248 124.025 123.118 122.996 122.122 121.683C121.787 121.176 121.545 120.65 121.337 120.079C121.134 120.387 120.958 120.681 120.787 121.006C119.927 122.615 119.008 124.186 117.858 125.604C117.594 125.911 117.594 125.911 117.48 126.332C117.6 126.348 117.72 126.363 117.844 126.38C119.213 126.651 120.401 127.56 121.475 128.417C121.634 128.54 121.634 128.54 121.797 128.666C124.425 130.843 125.536 134.332 125.9 137.636C126.05 139.286 126.057 140.936 126.021 142.591C126.019 142.716 126.017 142.841 126.015 142.969C125.894 150.018 125.23 162.765 120.137 167.986C117.293 170.591 112.77 170.651 109.119 170.789C108.903 170.797 108.687 170.807 108.471 170.818C105.908 170.939 103.473 170.604 101.47 168.868C101.186 168.598 100.929 168.32 100.675 168.022C100.6 167.936 100.525 167.85 100.448 167.761C97.6856 164.14 99.3 157.571 99.8219 153.503C99.8819 153.042 99.9427 152.581 100.004 152.12C100.141 151.075 100.27 150.029 100.399 148.984C96.649 149.052 96.649 149.052 92.823 149.123C92.9109 150.984 92.9109 150.984 93.035 152.843C93.1292 154.126 93.1394 155.412 93.1467 156.699C93.149 156.991 93.1527 157.283 93.158 157.575C93.2034 160.126 93.0611 162.608 91.4455 164.687C91.3626 164.8 91.2796 164.914 91.1942 165.031C90.0278 166.395 88.4653 167.067 86.762 167.466C86.5737 167.511 86.5737 167.511 86.3816 167.556C84.5933 167.974 82.8091 168.315 80.9766 168.439C80.8301 168.449 80.6837 168.459 80.5328 168.469C78.5636 168.595 76.696 168.669 74.7778 168.161C74.6292 168.125 74.4806 168.089 74.3275 168.053C72.7085 167.598 71.4058 166.522 70.5076 165.103C70.446 165.009 70.3844 164.915 70.3209 164.818C69.0118 162.531 68.9256 159.454 68.648 156.896C68.6174 156.623 68.5868 156.349 68.5561 156.076C68.0315 151.403 67.6001 146.721 67.2016 142.035C67.2023 142.116 67.2029 142.197 67.2036 142.28C67.2562 149.332 65.6968 155.855 60.7274 161.073C60.6642 161.142 60.6009 161.21 60.5357 161.28C56.2931 165.839 50.6013 168.13 44.6108 169.272C44.3609 169.321 44.3609 169.321 44.1061 169.371C37.4921 170.491 29.406 169.233 23.5352 165.937C23.392 165.859 23.2489 165.781 23.1015 165.7C18.0048 162.819 14.0915 158.152 12.4856 152.447C12.2812 151.679 12.0965 150.906 11.9212 150.13C11.8878 149.982 11.8543 149.834 11.8199 149.682C11.3475 147.474 11.2273 145.312 11.232 143.059C11.2324 142.628 11.2292 142.198 11.2257 141.768C11.2175 139.232 11.5112 136.804 12.145 134.349C12.1871 134.183 12.2292 134.018 12.2726 133.847C13.4512 129.321 15.8074 125.528 18.9894 122.163C19.0995 122.045 19.2096 121.927 19.3231 121.805C24.3986 116.492 32.1258 113.446 39.3763 113.27C41.8475 113.253 44.2229 113.642 46.6168 114.234C46.7527 114.267 46.8887 114.301 47.0288 114.335C49.1068 114.869 50.8598 115.726 52.1009 117.57C52.5458 118.413 52.8757 119.395 52.8757 120.357C53.0385 120.371 53.0385 120.371 53.2045 120.385C53.8832 120.536 54.4424 120.837 55.0539 121.165C55.181 121.232 55.3081 121.3 55.4391 121.37C57.2244 122.344 58.8576 123.514 60.3142 124.943C60.4436 125.063 60.5731 125.183 60.7064 125.307C64.3753 128.782 65.918 133.448 66.9261 138.283C66.9227 138.188 66.9193 138.093 66.9158 137.995C66.8149 135.152 66.7303 132.31 66.6512 129.467C66.6356 128.907 66.6198 128.347 66.6041 127.787C66.5736 126.7 66.5432 125.613 66.5129 124.526C66.3732 124.491 66.2336 124.456 66.0897 124.42C65.9034 124.372 65.7171 124.324 65.5309 124.276C65.4392 124.253 65.3475 124.23 65.253 124.206C63.4579 123.738 62.2459 122.494 61.2986 120.936C61.0424 120.447 60.913 119.946 60.7877 119.41C60.7597 119.295 60.7317 119.181 60.7028 119.063C60.6452 118.824 60.5887 118.585 60.5333 118.345C60.4568 118.015 60.3765 117.687 60.2959 117.358C59.2239 112.81 58.6298 105.736 60.9771 101.51C61.1177 101.303 61.2641 101.1 61.4162 100.902C61.4952 100.796 61.5742 100.69 61.6556 100.58C65.2908 96.0856 74.9863 96.1611 80.3309 95.5989C84.6235 95.1602 88.9231 94.9205 93.2362 94.8395C93.3973 94.8364 93.5584 94.8334 93.7244 94.8303C101.462 94.6907 110.805 94.8959 117.342 99.6511C117.42 99.7065 117.497 99.7618 117.577 99.8189C118.827 100.719 119.873 101.733 120.786 102.986C120.825 102.91 120.863 102.835 120.903 102.757C122.119 100.449 123.856 98.8754 126.322 98.0443C132.311 96.2302 138.857 95.7117 145.073 95.2477C145.186 95.2392 145.3 95.2307 145.416 95.222C146.206 95.1638 146.995 95.112 147.785 95.0653C147.9 95.0585 148.015 95.0516 148.134 95.0446C150.459 94.9126 152.785 94.8958 155.113 94.8929C155.534 94.8923 155.955 94.8904 156.375 94.8872C165.492 94.8201 176.851 95.7014 183.737 102.43C186.008 104.712 187.048 107.943 187.057 111.124C187.056 111.515 187.054 111.906 187.052 112.297C187.051 112.499 187.051 112.702 187.05 112.904C187.049 113.397 187.046 113.889 187.043 114.381C187.102 114.277 187.161 114.172 187.222 114.064C187.752 113.134 188.307 112.235 188.92 111.359C189.003 111.24 189.086 111.121 189.172 110.999C192.797 105.865 197.47 101.73 203.022 98.8173C203.115 98.7675 203.208 98.7176 203.304 98.6663C207.276 96.5607 211.951 95.3409 216.384 94.7874C216.478 94.7751 216.572 94.7628 216.669 94.7501C217.559 94.6409 218.45 94.5971 219.346 94.5615C219.507 94.5543 219.668 94.547 219.833 94.5395C220.826 94.5024 221.789 94.5354 222.778 94.6205C224.04 94.7742 224.04 94.7742 225.198 94.3878C225.471 94.0264 225.672 93.6564 225.889 93.2587C226.69 92.4504 227.559 91.9101 228.644 91.5912C228.871 91.5243 228.871 91.5243 229.103 91.456C232.488 90.6159 236.504 92.0373 239.664 93.2587ZM151.229 122.024C151.229 122.116 151.229 122.208 151.229 122.302C151.41 122.211 151.592 122.119 151.78 122.024C151.598 122.024 151.416 122.024 151.229 122.024ZM35.7948 139.534C35.049 140.4 34.3922 141.464 34.1419 142.591C34.249 143.405 34.8855 143.964 35.4887 144.462C37.0858 145.577 39.2058 145.639 41.073 145.315C42.5129 144.952 43.5866 144.182 44.473 143.008C43.6027 142.358 42.7604 141.965 41.7353 141.627C40.6064 141.234 39.64 140.83 38.6876 140.09C38.6039 140.029 38.5203 139.967 38.4341 139.904C38.0674 139.62 37.7988 139.324 37.5511 138.935C37.4716 138.811 37.392 138.688 37.3101 138.561C36.7162 138.561 36.212 139.149 35.7948 139.534Z" fill="#C9A6F6"/>
<path d="M95.1803 99.0442C95.4768 99.0433 95.7734 99.0417 96.0699 99.0399C102.713 99.0061 111.217 99.3283 116.357 104.176C117.907 105.733 118.855 107.784 118.892 110.004C118.833 114.857 115.448 119.64 112.246 122.997C112.174 123.073 112.102 123.148 112.029 123.225C111.053 124.245 110.049 125.182 108.94 126.054C108.793 126.172 108.646 126.29 108.499 126.407C107.599 127.127 106.689 127.833 105.777 128.536C105.67 128.619 105.563 128.701 105.452 128.786C105.191 128.988 104.93 129.189 104.669 129.39C104.806 129.388 104.806 129.388 104.946 129.387C105.907 129.377 106.868 129.371 107.829 129.367C108.186 129.365 108.543 129.362 108.901 129.358C112.65 129.321 116.399 129.479 119.357 132.068C121.398 134.159 121.782 137.09 121.785 139.89C121.785 139.987 121.785 140.084 121.785 140.184C121.776 145.934 120.717 151.772 119.271 157.322C119.218 157.542 119.165 157.762 119.113 157.983C118.25 161.562 118.25 161.562 116.654 162.602C114.4 163.973 110.858 163.741 108.31 163.755C108.097 163.757 107.884 163.759 107.671 163.763C105.281 163.809 105.281 163.809 104.223 162.89C103.355 161.846 103.202 161.027 103.292 159.684C103.347 159.243 103.414 158.804 103.48 158.365C103.709 156.79 103.886 155.213 104.05 153.63C104.064 153.49 104.079 153.35 104.094 153.205C104.476 149.536 104.828 145.863 104.945 142.174C104.865 142.176 104.784 142.178 104.702 142.179C104.061 142.186 103.434 142.168 102.796 142.106C101.943 142.031 101.096 142.013 100.24 142.012C100.084 142.011 99.9287 142.011 99.7684 142.01C99.2669 142.009 98.7655 142.009 98.2641 142.009C98.0077 142.009 98.0077 142.009 97.7461 142.009C95.0497 142.009 92.3736 142.097 89.6844 142.287C89.1219 142.32 88.5651 142.323 88.0018 142.313C88.0232 142.412 88.0446 142.512 88.0666 142.614C88.1377 142.998 88.1761 143.37 88.2035 143.759C88.2194 143.98 88.2194 143.98 88.2356 144.206C88.2465 144.364 88.2574 144.522 88.2687 144.685C88.2804 144.851 88.2921 145.016 88.3041 145.187C88.3289 145.538 88.3534 145.889 88.3778 146.24C88.4144 146.769 88.4518 147.297 88.4893 147.826C88.6012 149.416 88.7126 151.006 88.7812 152.598C88.803 153.074 88.8385 153.543 88.8995 154.015C88.9807 154.658 88.9914 155.285 88.9918 155.932C88.9935 156.05 88.9952 156.168 88.997 156.29C89 157.616 88.7298 158.657 87.864 159.684C85.7835 161.691 80.7716 161.513 78.1269 161.534C77.9542 161.538 77.7815 161.542 77.6036 161.546C76.372 161.555 75.5561 161.351 74.5282 160.683C73.6203 159.767 73.3955 158.595 73.247 157.347C73.2275 157.19 73.2275 157.19 73.2076 157.03C73.1648 156.685 73.1232 156.339 73.0818 155.993C73.0671 155.871 73.0524 155.75 73.0373 155.625C72.9262 154.709 72.8182 153.792 72.7116 152.875C72.6966 152.746 72.6817 152.618 72.6663 152.485C72.1973 148.45 71.8316 144.41 71.5332 140.358C71.4856 139.714 71.4354 139.069 71.3839 138.425C70.8175 131.303 70.7286 124.163 70.7831 117.022C70.7054 117.039 70.6278 117.055 70.5477 117.073C70.1902 117.15 69.8324 117.225 69.4745 117.3C69.3523 117.326 69.2302 117.353 69.1043 117.38C67.9643 117.617 66.8747 117.768 65.8242 117.161C64.4184 116.102 64.2713 113.665 64.0334 112.019C63.8948 110.962 63.8739 109.914 63.8785 108.849C63.879 108.689 63.8796 108.529 63.8802 108.365C63.9074 104.208 63.9074 104.208 65.1139 102.969C65.9468 102.239 67.0089 101.901 68.0712 101.675C68.1965 101.647 68.3218 101.62 68.4508 101.591C71.6241 100.917 74.8631 100.439 78.0838 100.068C78.3509 100.036 78.3509 100.036 78.6233 100.004C84.1273 99.3568 89.6404 99.0578 95.1803 99.0442Z" fill="#FEFEFE"/>
<path d="M180.156 104.793C180.257 104.878 180.358 104.962 180.462 105.05C181.639 106.127 182.647 107.863 182.812 109.481C182.829 109.902 182.83 110.321 182.825 110.742C182.823 110.971 182.823 110.971 182.82 111.205C182.687 118.22 179.152 124.673 174.469 129.681C174.163 130.011 173.868 130.347 173.578 130.692C173.192 131.142 172.774 131.53 172.324 131.914C172.006 132.189 171.699 132.473 171.392 132.759C170.537 133.536 169.635 134.243 168.723 134.948C168.598 135.046 168.598 135.046 168.47 135.145C165.569 137.402 162.497 139.438 159.321 141.28C159.202 141.349 159.082 141.419 158.958 141.491C157.398 142.385 156.019 142.829 154.196 142.537C152.401 142.027 151.045 140.438 149.92 139.022C149.861 138.948 149.802 138.875 149.742 138.799C149.108 137.982 148.59 137.087 148.06 136.199C148.15 137.411 148.24 138.623 148.33 139.836C148.353 140.141 148.376 140.447 148.398 140.753C148.573 143.107 148.754 145.461 148.95 147.813C148.979 148.161 149.008 148.508 149.036 148.856C149.055 149.085 149.074 149.315 149.093 149.544C149.102 149.657 149.112 149.769 149.121 149.885C149.167 150.441 149.214 150.996 149.262 151.551C149.607 155.578 149.607 155.578 149.625 157.393C149.628 157.567 149.628 157.567 149.631 157.745C149.624 158.968 149.337 160.082 148.48 160.97C147.317 161.97 145.804 162.203 144.341 162.463C144.203 162.488 144.203 162.488 144.062 162.514C142.534 162.774 140.987 162.773 139.442 162.785C139.34 162.786 139.237 162.787 139.132 162.789C137.563 162.806 136.268 162.764 135.082 161.62C133.788 160.206 133.684 158.284 133.468 156.444C133.456 156.35 133.445 156.256 133.433 156.159C132.459 148.056 131.874 139.905 131.53 131.752C131.524 131.604 131.518 131.455 131.511 131.303C131.311 126.586 131.214 121.881 131.255 117.161C131.033 117.227 131.033 117.227 130.806 117.294C129.881 117.553 128.956 117.608 128.001 117.621C127.901 117.625 127.801 117.629 127.698 117.633C126.835 117.643 126.35 117.345 125.728 116.735C124.887 115.407 124.712 113.829 124.505 112.297C124.481 112.123 124.457 111.95 124.433 111.771C124.327 110.911 124.342 110.047 124.342 109.182C124.342 108.869 124.339 108.557 124.337 108.244C124.322 104.602 124.322 104.602 125.583 103.278C127.352 101.617 129.888 101.403 132.185 101.032C132.39 100.998 132.596 100.964 132.801 100.93C133.433 100.825 134.066 100.724 134.699 100.624C134.861 100.598 134.861 100.598 135.027 100.571C136.864 100.277 138.703 100.047 140.553 99.8596C140.698 99.8449 140.843 99.8301 140.993 99.8149C170.871 96.8285 170.871 96.8285 180.156 104.793ZM151.229 122.024C151.229 122.116 151.229 122.208 151.229 122.302C151.41 122.211 151.592 122.119 151.78 122.024C151.598 122.024 151.416 122.024 151.229 122.024Z" fill="#FEFEFE"/>
<path d="M238.715 97.411C239.831 97.8977 240.783 98.3944 241.322 99.5386C241.842 101.075 241.325 102.881 240.964 104.402C240.913 104.622 240.863 104.841 240.813 105.061C240.663 105.713 240.508 106.365 240.352 107.016C240.329 107.112 240.307 107.208 240.283 107.307C238.979 112.774 237.308 118.131 235.636 123.492C235.541 123.801 235.445 124.109 235.35 124.418C235.206 124.886 235.059 125.353 234.911 125.82C234.854 126.008 234.854 126.008 234.795 126.201C234.481 127.173 234 128.048 233.138 128.625C230.622 129.694 226.562 128.268 224.178 127.31C223.051 126.824 222.231 126.216 221.714 125.067C221.167 123.555 221.558 121.947 221.885 120.426C221.928 120.223 221.97 120.019 222.013 119.816C222.506 117.48 223.092 115.165 223.685 112.853C217.898 112.701 213.071 114.063 208.782 118.169C205.146 121.75 203.211 126.46 203.112 131.56C203.101 133.107 203.135 134.568 203.573 136.06C203.601 136.157 203.628 136.254 203.656 136.353C204.262 138.468 205.122 140.391 206.604 142.035C206.774 142.226 206.774 142.226 206.947 142.421C207.838 143.371 208.772 144.055 209.91 144.676C210.039 144.75 210.168 144.824 210.3 144.9C212.814 146.215 215.665 146.531 218.45 146.343C218.597 146.334 218.743 146.324 218.895 146.314C223.775 145.96 228.36 144.362 232.781 142.323C234.323 141.614 234.323 141.614 235.256 141.757C237.13 142.534 238.085 144.712 238.871 146.474C239.86 148.892 240.488 151.754 239.457 154.256C237.595 157.711 231.63 159.386 228.23 160.518C228.02 160.588 228.02 160.588 227.805 160.659C218.833 163.591 208.815 163.759 200.267 159.406C198.112 158.274 196.134 156.907 194.36 155.228C194.065 154.949 194.065 154.949 193.715 154.677C193.215 154.269 192.829 153.786 192.416 153.292C192.31 153.17 192.205 153.048 192.096 152.922C187.767 147.836 185.905 141.445 185.916 134.818C185.916 134.717 185.916 134.617 185.916 134.513C185.935 125.747 189.046 117.257 194.757 110.629C194.859 110.511 194.859 110.511 194.963 110.391C200.71 103.784 209.171 99.4013 217.899 98.8174C225.652 98.42 225.652 98.42 227.542 99.3732C227.584 99.1153 227.584 99.1153 227.628 98.8521C227.899 97.6319 228.412 96.4563 229.47 95.7602C231.804 94.3087 236.457 96.4636 238.715 97.411Z" fill="#FEFEFE"/>
<path d="M43.6465 117.856C43.8298 117.885 44.0131 117.914 44.1965 117.942C45.7099 118.189 47.3742 118.499 48.4678 119.662C48.7369 120.1 48.7761 120.429 48.7702 120.941C48.7688 121.145 48.7688 121.145 48.7675 121.354C48.764 121.565 48.764 121.565 48.7605 121.781C48.7592 121.925 48.758 122.068 48.7567 122.216C48.7535 122.569 48.7489 122.922 48.7433 123.275C48.8297 123.302 48.9161 123.328 49.0052 123.355C52.3073 124.378 55.0314 125.73 57.5592 128.139C57.6625 128.234 57.7659 128.33 57.8724 128.428C59.999 130.46 61.4595 133.233 62.2427 136.06C62.2832 136.201 62.3236 136.341 62.3654 136.486C63.6962 141.429 63.0637 147.12 60.5837 151.606C59.9115 152.76 59.116 153.808 58.2479 154.82C58.1542 154.932 58.0604 155.043 57.9638 155.158C56.2594 157.15 54.0779 158.624 51.7737 159.823C51.6886 159.867 51.6034 159.912 51.5156 159.957C49.4715 161.006 47.2665 161.715 45.024 162.185C44.9273 162.206 44.8306 162.227 44.731 162.249C41.2206 162.976 37.2362 162.856 33.7286 162.185C33.5994 162.161 33.4703 162.138 33.3372 162.113C29.1586 161.324 25.2759 159.857 22.0199 157.044C21.8985 156.941 21.777 156.839 21.6519 156.734C18.0642 153.6 16.0143 148.849 15.5731 144.136C15.5172 143.251 15.5147 142.366 15.5126 141.479C15.5113 141.137 15.507 140.794 15.5027 140.451C15.4892 138.432 15.7271 136.464 16.3292 134.531C16.3644 134.417 16.3996 134.302 16.4359 134.184C18.2405 128.505 22.2807 123.842 27.3921 120.913C27.5466 120.822 27.7011 120.731 27.8603 120.638C32.5452 117.952 38.3386 116.862 43.6465 117.856ZM35.7948 139.534C35.049 140.4 34.3922 141.464 34.1419 142.591C34.2491 143.405 34.8855 143.964 35.4887 144.462C37.0858 145.578 39.2058 145.639 41.073 145.315C42.5129 144.952 43.5866 144.182 44.473 143.008C43.6027 142.358 42.7604 141.965 41.7353 141.627C40.6064 141.234 39.64 140.83 38.6876 140.09C38.6039 140.029 38.5203 139.967 38.4341 139.904C38.0674 139.62 37.7988 139.324 37.5511 138.935C37.4716 138.812 37.392 138.688 37.3101 138.561C36.7162 138.561 36.212 139.149 35.7948 139.534Z" fill="#FEFEFE"/>
<path d="M40.0651 130.501C40.0885 130.649 40.1119 130.796 40.1361 130.949C40.3439 132.689 40.3439 132.689 41.3111 134.046C42.1475 134.554 42.9699 134.897 43.8962 135.2C45.8742 135.891 47.4786 136.842 48.514 138.764C49.2402 140.33 49.2279 142.225 48.7459 143.871C47.9304 146.125 46.2941 147.55 44.1975 148.567C41.4476 149.854 38.2622 150.139 35.3816 149.122C33.9879 148.576 32.8369 147.86 31.8001 146.76C31.72 146.679 31.6399 146.597 31.5574 146.514C30.1006 144.937 29.756 142.815 29.8248 140.731C29.964 138.351 30.8906 136.021 32.4889 134.253C32.5959 134.131 32.703 134.009 32.8133 133.883C34.6599 131.888 37.3283 130.47 40.0651 130.501ZM35.7948 139.534C35.049 140.4 34.3922 141.464 34.1418 142.591C34.249 143.405 34.8855 143.964 35.4887 144.462C37.0858 145.577 39.2058 145.639 41.073 145.315C42.5129 144.952 43.5865 144.182 44.473 143.008C43.6027 142.358 42.7604 141.965 41.7353 141.627C40.6064 141.234 39.64 140.83 38.6876 140.09C38.6039 140.029 38.5203 139.967 38.4341 139.904C38.0674 139.62 37.7988 139.324 37.5511 138.935C37.4716 138.811 37.392 138.688 37.3101 138.561C36.7162 138.561 36.212 139.149 35.7948 139.534Z" fill="#CAA6F6"/>
<path d="M181.809 136.755C181.854 136.755 181.9 136.755 181.947 136.755C181.955 136.853 181.963 136.951 181.971 137.053C182.652 144.91 185.3 151.53 190.625 157.322C190.736 157.445 190.736 157.445 190.849 157.571C196.298 163.371 205.313 166.536 213.051 166.788C222.291 166.997 233.917 164.638 241.119 158.433C241.454 158.155 241.454 158.155 241.73 158.155C241.766 158.078 241.802 158 241.839 157.919C242.022 157.568 242.238 157.257 242.462 156.931C243.245 155.703 243.619 154.29 243.934 152.875C243.979 152.875 244.025 152.875 244.071 152.875C244.179 155.968 243.862 158.554 241.73 160.935C238.782 164.021 234.099 165.78 230.159 167.049C230.033 167.09 229.907 167.131 229.778 167.173C219.325 170.532 208.087 170.938 198.088 165.819C195.202 164.286 192.649 162.282 190.349 159.962C190.244 159.86 190.138 159.758 190.029 159.654C189.115 158.764 188.331 157.806 187.594 156.766C187.529 156.674 187.464 156.582 187.397 156.488C183.542 150.986 181.489 144.065 181.671 137.311C181.74 136.972 181.74 136.972 181.809 136.755Z" fill="#8E74AE"/>
<path d="M161.147 115.215C161.345 115.238 161.345 115.238 161.547 115.26C163.194 115.449 164.785 115.734 166.381 116.188C165.267 117.826 163.785 119.133 162.249 120.357C162.013 120.557 161.778 120.756 161.543 120.956C157.651 124.148 152.504 127.361 147.509 128.278C147.015 123.932 146.796 119.587 146.683 115.215C151.416 114.685 156.417 114.645 161.147 115.215ZM151.229 122.024C151.229 122.116 151.229 122.208 151.229 122.302C151.41 122.211 151.592 122.119 151.78 122.024C151.598 122.024 151.416 122.024 151.229 122.024Z" fill="#CAA6F6"/>
<path d="M11.2755 142.869C11.3209 142.869 11.3664 142.869 11.4132 142.869C11.4219 142.99 11.4306 143.11 11.4396 143.234C11.7952 147.037 12.785 150.762 14.5815 154.125C14.6578 154.271 14.7342 154.417 14.8128 154.567C16.9949 158.543 20.6343 161.59 24.6372 163.575C24.733 163.623 24.8288 163.67 24.9275 163.719C30.9804 166.636 39.1831 167.619 45.7128 166.076C45.8614 166.042 46.01 166.008 46.1631 165.972C50.4072 164.976 54.2135 163.471 57.6969 160.796C57.8298 160.694 57.9626 160.592 58.0994 160.487C61.9061 157.482 64.7452 153.453 65.9619 148.706C65.9881 148.607 66.0142 148.509 66.0412 148.408C66.4617 146.813 66.7051 145.197 66.9261 143.564C66.9716 143.564 67.017 143.564 67.0639 143.564C67.8327 148.304 65.8872 154.224 63.208 158.062C62.4449 159.123 61.6274 160.128 60.7274 161.074C60.6642 161.142 60.6009 161.21 60.5357 161.28C56.2931 165.839 50.6013 168.13 44.6108 169.272C44.4442 169.305 44.2777 169.338 44.1061 169.371C37.492 170.491 29.406 169.233 23.5352 165.937C23.392 165.859 23.2489 165.781 23.1015 165.7C18.0048 162.819 14.0915 158.152 12.4856 152.448C11.629 149.226 11.2156 146.197 11.2755 142.869Z" fill="#8E74AE"/>
<path d="M97.8336 113.4C98.1633 113.401 98.4929 113.401 98.8226 113.402C99.6236 113.404 100.425 113.406 101.226 113.409C101.068 113.927 100.903 114.366 100.599 114.814C100.494 114.969 100.494 114.969 100.387 115.128C100.312 115.237 100.236 115.346 100.158 115.459C100.039 115.632 100.039 115.632 99.9181 115.808C96.4192 120.852 92.2083 125.172 87.313 128.834C86.9677 128.298 86.9734 127.725 86.943 127.106C86.9362 126.988 86.9295 126.87 86.9225 126.748C86.9005 126.358 86.8802 125.967 86.8599 125.577C86.845 125.304 86.8299 125.032 86.8148 124.759C86.7833 124.187 86.7525 123.616 86.7225 123.044C86.6841 122.314 86.6443 121.585 86.6039 120.856C86.5728 120.293 86.5422 119.729 86.5117 119.166C86.4972 118.897 86.4826 118.629 86.4679 118.36C86.3932 116.987 86.323 115.619 86.3488 114.243C86.8045 114.013 87.3169 114.021 87.8188 113.973C87.9994 113.956 87.9994 113.956 88.1836 113.938C88.4398 113.913 88.6959 113.888 88.9521 113.863C89.3376 113.826 89.723 113.789 90.1083 113.751C90.7231 113.691 91.338 113.633 91.9531 113.577C92.2213 113.552 92.4894 113.526 92.7574 113.5C94.4448 113.351 96.1414 113.394 97.8336 113.4Z" fill="#CAA6F5"/>
<path d="M121.199 116.883C121.29 116.883 121.381 116.883 121.475 116.883C121.515 117.022 121.515 117.022 121.557 117.163C122.083 118.801 122.973 120.113 124.51 120.932C125.012 121.154 125.542 121.252 126.078 121.361C126.192 121.385 126.306 121.409 126.423 121.434C126.702 121.493 126.981 121.551 127.26 121.608C127.263 121.774 127.265 121.941 127.268 122.113C127.335 126.268 127.466 130.416 127.677 134.566C127.7 135.009 127.722 135.453 127.744 135.896C127.993 140.848 128.356 145.777 128.863 150.708C128.917 151.248 128.97 151.788 129.023 152.327C129.041 152.516 129.059 152.705 129.078 152.894C129.113 153.251 129.147 153.608 129.182 153.965C129.309 155.263 129.477 156.55 129.688 157.837C129.742 158.17 129.793 158.503 129.843 158.837C130.075 160.406 130.075 160.406 130.566 161.907C130.613 162.018 130.659 162.128 130.707 162.241C131.597 164.191 133.042 165.55 135.019 166.321C138.187 167.408 142.371 166.915 145.564 166.259C145.654 166.24 145.744 166.222 145.837 166.203C148.393 165.672 150.79 164.966 152.331 162.689C153.061 161.529 153.306 160.181 153.57 158.85C153.616 158.85 153.661 158.85 153.708 158.85C153.836 161.644 153.647 164.163 151.802 166.381C149.139 169.276 144.315 169.649 140.622 169.828C140.489 169.835 140.357 169.842 140.22 169.85C137.439 169.979 134.617 169.653 132.469 167.718C129.898 165.288 129.59 161.939 129.206 158.581C129.18 158.361 129.18 158.361 129.154 158.138C127.867 147.034 126.947 135.708 127.123 124.526C127.01 124.508 126.897 124.489 126.781 124.471C126.633 124.446 126.484 124.422 126.332 124.397C126.185 124.373 126.038 124.349 125.887 124.324C124.248 124.025 123.118 122.996 122.122 121.683C121.787 121.176 121.545 120.65 121.337 120.079C121.134 120.387 120.958 120.681 120.787 121.006C120 122.479 119.136 123.861 118.169 125.221C118.039 125.404 117.909 125.587 117.78 125.771C117.681 125.91 117.582 126.05 117.48 126.193C116.713 126.123 116.011 126.013 115.276 125.777C115.352 125.688 115.352 125.688 115.43 125.597C116.231 124.658 117.003 123.699 117.756 122.719C117.824 122.63 117.893 122.541 117.964 122.449C119.277 120.72 120.243 118.831 121.199 116.883Z" fill="#8E74AE"/>
<path d="M59.7632 110.352C59.8086 110.352 59.8541 110.352 59.9009 110.352C59.9128 110.493 59.9247 110.635 59.937 110.781C60.3437 115.414 60.3437 115.414 62.4391 119.404C62.6559 119.662 62.6559 119.662 62.6559 119.94C62.7739 119.997 62.7739 119.997 62.8943 120.054C63.2141 120.222 63.5012 120.416 63.801 120.618C64.6956 121.17 65.6387 121.369 66.6506 121.608C66.7892 123.564 66.839 125.522 66.8925 127.482C67.0324 132.603 67.2711 137.699 67.7223 142.803C67.754 143.162 67.7851 143.522 67.8162 143.882C68.1075 147.251 68.4234 150.617 68.8206 153.976C68.8546 154.264 68.888 154.553 68.9213 154.841C69.4174 159.927 69.4174 159.927 72.2139 163.994C72.8628 164.484 73.4723 164.817 74.2614 165.01C74.5092 165.071 74.7558 165.138 75.0007 165.21C76.1045 165.523 77.1387 165.59 78.2818 165.581C78.4192 165.581 78.4192 165.581 78.5594 165.58C81.1825 165.564 83.7504 165.158 86.3143 164.617C86.5024 164.578 86.5024 164.578 86.6942 164.538C88.7239 164.079 90.4831 163.053 91.6634 161.307C92.3511 160.158 92.6428 158.89 92.9607 157.6C93.0062 157.6 93.0516 157.6 93.0985 157.6C93.2121 160.16 93.0724 162.594 91.4455 164.687C91.3626 164.8 91.2796 164.914 91.1942 165.031C90.0278 166.396 88.4653 167.067 86.762 167.466C86.5737 167.511 86.5737 167.511 86.3816 167.557C84.5933 167.974 82.8091 168.315 80.9766 168.439C80.8301 168.449 80.6837 168.459 80.5328 168.469C78.5636 168.595 76.696 168.67 74.7778 168.161C74.6292 168.125 74.4806 168.09 74.3275 168.053C72.7085 167.598 71.4058 166.523 70.5076 165.104C70.446 165.01 70.3844 164.916 70.3209 164.819C69.0119 162.531 68.9252 159.454 68.648 156.896C68.6173 156.62 68.5865 156.344 68.5557 156.068C68.4213 154.865 68.2926 153.662 68.1659 152.458C68.1487 152.296 68.1316 152.133 68.114 151.966C67.1539 142.841 66.6903 133.698 66.5129 124.526C66.3732 124.491 66.2336 124.456 66.0897 124.42C65.9034 124.372 65.7171 124.324 65.5309 124.276C65.4392 124.253 65.3475 124.23 65.253 124.207C63.4579 123.738 62.2459 122.495 61.2986 120.936C61.0424 120.448 60.913 119.946 60.7877 119.41C60.7597 119.296 60.7316 119.181 60.7028 119.063C60.6452 118.824 60.5887 118.585 60.5333 118.346C60.4568 118.016 60.3765 117.687 60.2959 117.358C59.9986 116.096 59.8281 114.84 59.7201 113.548C59.7079 113.405 59.6957 113.263 59.6832 113.116C59.6154 112.178 59.65 111.284 59.7632 110.352Z" fill="#8E74AE"/>
<path d="M183.049 124.665C183.2 125.124 183.172 125.261 183.059 125.717C183.029 125.841 182.998 125.966 182.967 126.095C182.934 126.225 182.902 126.355 182.868 126.489C182.805 126.744 182.743 126.999 182.68 127.254C182.648 127.38 182.616 127.506 182.584 127.635C182.53 127.864 182.482 128.094 182.444 128.326C182.291 129.239 181.875 129.859 181.335 130.597C181.249 130.718 181.162 130.839 181.073 130.964C180.816 131.321 180.556 131.676 180.294 132.03C180.224 132.125 180.154 132.22 180.081 132.318C178.071 135.026 175.649 137.612 172.993 139.673C172.838 139.799 172.684 139.926 172.53 140.053C170.519 141.709 168.397 143.217 166.243 144.676C166.141 144.745 166.038 144.815 165.933 144.886C158.093 150.171 158.093 150.171 154.672 149.678C153.268 149.373 153.268 149.373 153.019 149.123C152.887 148.2 152.866 147.274 152.882 146.343C152.955 146.363 153.029 146.383 153.105 146.404C156.031 147.103 158.74 146.278 161.284 144.815C161.368 144.767 161.452 144.719 161.538 144.669C162.15 144.314 162.751 143.941 163.351 143.564C163.503 143.469 163.503 143.469 163.658 143.373C165.147 142.446 166.595 141.476 168.014 140.443C168.318 140.223 168.624 140.004 168.929 139.786C170.245 138.843 171.512 137.854 172.755 136.814C172.964 136.64 173.177 136.468 173.39 136.298C175.993 134.208 178.188 131.807 180.156 129.112C180.22 129.024 180.285 128.936 180.351 128.846C181.175 127.719 181.925 126.563 182.635 125.36C182.773 125.128 182.911 124.896 183.049 124.665Z" fill="#8E74AE"/>
<path d="M245.311 102.43C245.448 102.499 245.448 102.499 245.587 102.569C245.833 103.644 245.677 104.669 245.454 105.731C245.407 105.963 245.407 105.963 245.36 106.201C244.978 108.057 244.527 109.896 244.066 111.733C243.993 112.024 243.92 112.316 243.847 112.608C243.024 115.905 242.155 119.186 241.179 122.441C241.14 122.571 241.101 122.7 241.061 122.834C240.505 124.685 239.933 126.531 239.351 128.374C239.26 128.665 239.17 128.956 239.08 129.248C238.333 131.676 237.411 133.859 235.068 135.123C233.221 135.942 231.381 136.058 229.427 135.704C229.292 135.68 229.157 135.655 229.018 135.63C221.295 134.187 221.295 134.187 219.139 131.613C219.016 131.468 219.016 131.468 218.89 131.321C218.114 130.315 217.807 129.212 217.486 128C217.461 127.91 217.436 127.82 217.41 127.727C217.346 127.433 217.332 127.174 217.335 126.873C217.335 126.768 217.336 126.663 217.336 126.555C217.337 126.447 217.338 126.339 217.34 126.228C217.34 126.118 217.341 126.008 217.341 125.894C217.343 125.623 217.346 125.353 217.348 125.082C217.439 125.082 217.53 125.082 217.624 125.082C217.669 125.253 217.669 125.253 217.715 125.428C218.104 126.809 218.657 127.862 219.552 128.973C219.552 129.064 219.552 129.156 219.552 129.251C219.63 129.287 219.708 129.323 219.789 129.361C220.129 129.542 220.416 129.756 220.723 129.989C222.24 131.062 223.979 131.453 225.751 131.891C225.999 131.954 226.247 132.016 226.495 132.079C229.466 132.823 232.732 133.544 235.531 131.865C238.271 129.903 239.119 126.124 239.956 123.011C240.087 122.546 240.239 122.091 240.395 121.634C240.904 120.115 241.311 118.567 241.73 117.022C241.765 116.893 241.8 116.764 241.836 116.631C241.969 116.14 242.102 115.648 242.234 115.156C242.426 114.443 242.621 113.731 242.819 113.019C243.792 109.518 244.64 106.003 245.311 102.43Z" fill="#8F74AE"/>
<path d="M125.745 142.313C125.836 142.313 125.927 142.313 126.021 142.313C125.909 149.545 125.385 162.607 120.137 167.986C117.293 170.591 112.77 170.652 109.119 170.789C108.903 170.797 108.687 170.807 108.471 170.818C105.908 170.939 103.473 170.604 101.47 168.868C101.186 168.599 100.929 168.32 100.675 168.022C100.562 167.893 100.562 167.893 100.448 167.761C99.2223 166.155 99.0408 163.998 99.1594 162.046C99.2503 162.001 99.3413 161.955 99.4349 161.907C99.4687 162.047 99.5024 162.187 99.5372 162.33C100.043 164.26 100.934 165.739 102.654 166.794C106.249 168.799 112.814 168.012 116.696 166.939C118.756 166.26 120.587 164.993 121.613 163.019C122.215 161.652 122.647 160.281 122.99 158.824C123.037 158.629 123.084 158.435 123.131 158.24C124.271 153.485 125.188 148.718 125.607 143.842C125.633 143.549 125.66 143.257 125.686 142.964C125.703 142.776 125.703 142.776 125.721 142.584C125.729 142.495 125.737 142.405 125.745 142.313Z" fill="#8E74AE"/>
<path d="M218.588 117.161C218.5 117.618 218.41 118.076 218.321 118.533C218.296 118.663 218.271 118.793 218.245 118.928C218.22 119.052 218.196 119.177 218.171 119.305C218.137 119.477 218.137 119.477 218.103 119.653C218.037 119.94 218.037 119.94 217.899 120.218C217.672 120.334 217.672 120.334 217.376 120.449C217.213 120.514 217.213 120.514 217.047 120.581C216.931 120.627 216.814 120.674 216.694 120.722C212.666 122.383 209.834 125.39 208.133 129.403C207.654 130.625 207.426 131.84 207.292 133.142C207.247 133.142 207.202 133.142 207.155 133.142C207.044 128.329 208.176 124.595 211.528 121.043C213.232 119.389 216.121 117.161 218.588 117.161Z" fill="#8F74AF"/>
<path d="M37.3101 135.643C37.4518 135.823 37.5852 136.01 37.7147 136.199C38.8154 137.658 40.3253 138.313 41.9984 138.894C44.3615 139.726 44.3615 139.726 44.8863 140.785C44.9032 141.057 44.9105 141.329 44.9121 141.601C44.9141 141.747 44.916 141.893 44.918 142.043C44.887 142.443 44.816 142.669 44.6108 143.008C44.1682 142.836 43.7536 142.645 43.3366 142.418C42.7017 142.09 42.0569 141.862 41.3823 141.636C39.8438 141.112 38.07 140.233 37.3101 138.7C36.1673 139.096 35.5686 139.906 34.9684 140.924C34.7138 141.471 34.4889 142.025 34.2796 142.591C34.1887 142.591 34.0978 142.591 34.0041 142.591C33.9006 140.544 34.0182 138.804 35.4042 137.167C36.8132 135.643 36.8132 135.643 37.3101 135.643Z" fill="#8E74AE"/>
<path d="M97.5495 146.057C97.8532 146.057 98.157 146.058 98.4607 146.059C99.1987 146.06 99.9367 146.062 100.675 146.065C100.676 146.305 100.677 146.545 100.678 146.785C100.679 146.919 100.68 147.052 100.681 147.19C100.658 148.722 100.658 148.722 100.399 148.984C100.159 149.001 99.9183 149.01 99.6776 149.014C99.5236 149.018 99.3696 149.021 99.211 149.024C99.0434 149.027 98.8758 149.03 98.7031 149.032C98.4471 149.037 98.4471 149.037 98.1859 149.042C97.8241 149.049 97.4624 149.055 97.1006 149.061C96.636 149.069 96.1713 149.078 95.7067 149.087C95.2649 149.095 94.8231 149.103 94.3813 149.111C94.1299 149.116 94.1299 149.116 93.8734 149.121C93.7194 149.123 93.5654 149.125 93.4068 149.128C93.2023 149.131 93.2023 149.131 92.9937 149.135C92.6852 149.123 92.6852 149.123 92.5475 148.984C92.5259 148.777 92.5129 148.57 92.5039 148.362C92.4981 148.237 92.4924 148.112 92.4864 147.983C92.481 147.852 92.4756 147.721 92.47 147.585C92.464 147.453 92.4581 147.321 92.452 147.186C92.4373 146.858 92.4233 146.531 92.4097 146.204C94.1195 146.017 95.8322 146.05 97.5495 146.057Z" fill="#8E74AE"/>
<path d="M151.091 119.106C153.046 119.106 155 119.106 157.014 119.106C156.46 119.665 155.827 120.011 155.154 120.409C155.024 120.487 154.894 120.566 154.761 120.647C152.317 122.102 152.317 122.102 151.229 122.024C151.183 121.979 151.138 121.933 151.091 121.885C151.091 120.968 151.091 120.051 151.091 119.106Z" fill="#9075B0"/>
<path d="M126.985 121.608C127.076 121.608 127.167 121.608 127.26 121.608C127.263 121.775 127.265 121.941 127.268 122.113C127.335 126.268 127.467 130.416 127.677 134.566C127.7 135.009 127.722 135.452 127.744 135.894C127.979 140.598 128.323 145.28 128.79 149.966C128.962 151.687 128.962 151.687 129.023 152.403C129.036 152.546 129.048 152.688 129.061 152.835C129.051 153.153 129.051 153.153 128.776 153.431C128.562 153.215 128.595 152.994 128.568 152.694C128.556 152.565 128.544 152.436 128.531 152.302C128.519 152.159 128.506 152.015 128.493 151.868C128.479 151.717 128.466 151.567 128.452 151.411C128.407 150.906 128.363 150.401 128.319 149.896C128.304 149.721 128.289 149.546 128.273 149.366C127.478 140.13 127.125 130.875 126.985 121.608Z" fill="#9679B9"/>
<path d="M66.6506 123.97C66.6961 123.97 66.7416 123.97 66.7884 123.97C66.7912 124.074 66.7941 124.178 66.797 124.284C66.967 130.47 67.177 136.632 67.7219 142.797C67.7544 143.168 67.7865 143.538 67.8184 143.908C68.1425 147.78 68.1425 147.78 68.598 151.637C68.6866 152.285 68.7606 152.913 68.7169 153.569C68.5805 153.707 68.5805 153.707 68.4414 153.847C68.2177 153.622 68.2524 153.354 68.2209 153.042C68.2061 152.898 68.1913 152.754 68.1761 152.606C68.1605 152.447 68.1448 152.288 68.1288 152.124C68.1121 151.958 68.0954 151.792 68.0782 151.621C68.0233 151.069 67.9696 150.517 67.9162 149.965C67.9024 149.823 67.9024 149.823 67.8883 149.678C67.0572 141.124 66.5721 132.566 66.6506 123.97Z" fill="#9477B6"/>
<path d="M93.0985 117.717C92.464 118.648 91.7191 119.454 90.8945 120.218C90.849 120.218 90.8036 120.218 90.7567 120.218C90.7567 119.484 90.7567 118.751 90.7567 117.995C91.5669 117.79 92.2644 117.686 93.0985 117.717Z" fill="#9175B2"/>
<path d="M186.768 112.575C187.043 112.853 187.043 112.853 187.08 113.115C187.073 114.073 187.029 115.029 186.355 115.771C186.464 114.701 186.613 113.639 186.768 112.575Z" fill="#9577B8"/>
<path d="M147.923 135.921C148.542 136.703 148.542 136.703 148.611 137.172C148.52 137.126 148.43 137.08 148.336 137.033C148.336 137.858 148.336 138.684 148.336 139.534C148.29 139.534 148.245 139.534 148.198 139.534C148.107 138.342 148.016 137.149 147.923 135.921Z" fill="#CBB2EA"/>
<path d="M67.3394 139.256C67.3848 139.256 67.4303 139.256 67.4771 139.256C67.5226 140.265 67.568 141.274 67.6149 142.313C67.3394 142.174 67.3394 142.174 67.2544 141.925C67.1016 141.038 67.212 140.139 67.3394 139.256Z" fill="#9B7CBE"/>
<path d="M209.359 117.439C209.359 117.856 209.359 117.856 209.177 118.075C209.095 118.152 209.013 118.228 208.928 118.307C208.438 118.78 208.003 119.277 207.568 119.801C207.477 119.755 207.386 119.709 207.292 119.662C207.948 118.885 208.635 118.152 209.359 117.439Z" fill="#CBB0ED"/>
<path d="M67.7526 144.815C67.7981 144.815 67.8436 144.815 67.8904 144.815C68.0167 145.563 68.0435 146.28 68.0281 147.038C67.8918 146.992 67.7554 146.946 67.6149 146.899C67.6024 146.183 67.636 145.521 67.7526 144.815Z" fill="#997ABB"/>
<path d="M114.312 120.496C114.357 120.633 114.403 120.771 114.45 120.913C113.995 121.417 113.54 121.922 113.072 122.441C112.981 122.395 112.89 122.35 112.797 122.302C113.297 121.706 113.797 121.11 114.312 120.496Z" fill="#CAADED"/>
<path d="M108.526 126.193C108.526 126.331 108.526 126.469 108.526 126.61C108.255 126.859 107.991 127.084 107.7 127.305C107.538 127.43 107.538 127.43 107.373 127.557C107.299 127.611 107.225 127.666 107.149 127.722C107.058 127.676 106.967 127.63 106.873 127.583C107.419 127.124 107.964 126.666 108.526 126.193Z" fill="#CCB1ED"/>
<path d="M183.049 124.665C183.244 125.255 183.075 125.598 182.911 126.193C182.775 126.102 182.638 126.01 182.498 125.915C182.643 125.443 182.774 125.08 183.049 124.665Z" fill="#A180C6"/>
<path d="M237.184 118.272C237.23 118.272 237.275 118.272 237.322 118.272C237.37 118.95 237.241 119.352 236.909 119.94C236.754 119.481 236.785 119.238 236.969 118.794C237.008 118.695 237.048 118.597 237.089 118.496C237.12 118.422 237.152 118.349 237.184 118.272Z" fill="#CCB3ED"/>
<path d="M239.388 110.49C239.433 110.49 239.479 110.49 239.526 110.49C239.553 111.077 239.499 111.487 239.25 112.019C239.159 112.019 239.068 112.019 238.975 112.019C239.233 110.959 239.233 110.959 239.388 110.49Z" fill="#CDB2EE"/>
</g>
<defs>
<clipPath id="clip0_228_2">
<rect width="256" height="256" fill="white"/>
</clipPath>
</defs>
</svg>
