<svg width="256" height="256" viewBox="0 0 256 256" fill="none" xmlns="http://www.w3.org/2000/svg">
<path d="M196 0H60C26.8629 0 0 26.8629 0 60V196C0 229.137 26.8629 256 60 256H196C229.137 256 256 229.137 256 196V60C256 26.8629 229.137 0 196 0Z" fill="#F4F2ED"/>
<path d="M215.01 133.251C217.668 133.251 219.823 131.096 219.823 128.437C219.823 125.778 217.668 123.623 215.01 123.623C212.351 123.623 210.196 125.778 210.196 128.437C210.196 131.096 212.351 133.251 215.01 133.251Z" fill="#123B6D"/>
<path d="M85.081 133.472C88.2762 133.472 90.8664 130.881 90.8664 127.686C90.8664 124.491 88.2762 121.9 85.081 121.9C81.8859 121.9 79.2957 124.491 79.2957 127.686C79.2957 130.881 81.8859 133.472 85.081 133.472Z" fill="#123B6D"/>
<path d="M150.531 127.687H83.1379V130.911L145.85 165.359L146.689 165.801C147.887 166.379 149.2 166.68 150.531 166.68C151.862 166.68 153.175 166.379 154.373 165.801L155.212 165.359L217.924 130.911V127.687H150.531Z" fill="#123B6D"/>
<path d="M150.531 127.687H83.1379V124.463L145.85 90.0145L146.689 89.5728C147.887 88.994 149.2 88.6934 150.531 88.6934C151.862 88.6934 153.175 88.994 154.373 89.5728L155.212 90.0145L217.659 124.507V127.687H150.531Z" fill="#123B6D"/>
<path d="M200.126 50.001H101.068C96.5803 50.001 92.9421 53.6392 92.9421 58.1273V185.896C92.9421 190.384 96.5803 194.022 101.068 194.022H200.126C204.614 194.022 208.252 190.384 208.252 185.896V58.1273C208.252 53.6392 204.614 50.001 200.126 50.001Z" fill="#28A8EA"/>
<path d="M92.9421 133.252H138.96V167.965H92.9421V133.252Z" fill="#14447D"/>
<path d="M133.219 133.252H173.629V167.965H133.219V133.252Z" fill="#0364B8"/>
<path d="M92.9421 99.8193H133.219V133.252H92.9421V99.8193Z" fill="#0664B2"/>
<path d="M173.628 133.252H208.297V167.965H173.628V133.252ZM133.219 99.8191H173.628V133.252H133.219V99.8191ZM92.9421 66.4307H133.219V99.8191H92.9421V66.4307Z" fill="#0078D4"/>
<path d="M173.629 66.4307H208.297V99.8191H173.629V66.4307Z" fill="#50D9FF"/>
<path d="M101.068 50.0011H199.994C202.131 50.0034 204.186 50.8254 205.735 52.2977C206.481 53.0118 207.077 53.8683 207.487 54.8165C207.896 55.7647 208.112 56.7854 208.12 57.8183V66.6512H92.9421V57.8183C92.9885 55.7058 93.8694 53.6977 95.3921 52.2328C96.9149 50.768 98.9556 49.9656 101.068 50.0011Z" fill="#0358A7"/>
<path d="M217.924 130.911L155.212 165.315C154.948 165.502 154.667 165.665 154.373 165.801C153.175 166.379 151.862 166.68 150.531 166.68C149.2 166.68 147.887 166.379 146.689 165.801C146.395 165.665 146.114 165.502 145.85 165.315L83.2262 130.911C82.6493 130.593 82.1685 130.126 81.8343 129.559C81.5002 128.992 81.325 128.345 81.3272 127.687V197.158C81.3439 198.29 81.5874 199.408 82.0433 200.445C82.4992 201.482 83.1583 202.417 83.9817 203.196C84.805 203.974 85.7759 204.579 86.837 204.975C87.8982 205.372 89.028 205.552 90.1598 205.505H211.167C212.299 205.552 213.429 205.372 214.49 204.975C215.551 204.579 216.522 203.974 217.345 203.196C218.169 202.417 218.828 201.482 219.284 200.445C219.74 199.408 219.983 198.29 220 197.158V127.687C220.002 128.345 219.827 128.992 219.493 129.559C219.159 130.126 218.678 130.593 218.101 130.911H217.924Z" fill="url(#paint0_linear_332_271)"/>
<path opacity="0.5" d="M150.531 166.684C149.2 166.683 147.887 166.381 146.689 165.801L83.5354 131.131L86.3618 126.273C86.3618 126.273 148.19 160.368 149.383 160.854C149.767 161.018 150.18 161.103 150.597 161.103C151.015 161.103 151.428 161.018 151.812 160.854L214.965 126.141L217.659 130.91L154.373 165.801C153.175 166.381 151.862 166.683 150.531 166.684Z" fill="#0A2767"/>
<path d="M89.895 205.637H211.167C212.996 205.631 214.78 205.078 216.29 204.047L146.689 165.801C146.395 165.665 146.114 165.502 145.85 165.315L83.2264 130.911L81.2832 129.851V197.158C81.2831 198.282 81.5067 199.396 81.9411 200.433C82.3755 201.471 83.0119 202.412 83.8134 203.201C84.6149 203.99 85.5653 204.612 86.6094 205.03C87.6535 205.448 88.7704 205.655 89.895 205.637Z" fill="#28A8EA"/>
<g opacity="0.67">
<path opacity="0.05" d="M134.323 83.124H87.5542C87.3314 83.4987 87.2096 83.9248 87.2009 84.3606V171.056C87.2239 171.814 87.5411 172.532 88.0853 173.06C88.6294 173.588 89.3577 173.883 90.1157 173.882H130.348C131.097 173.894 131.84 173.758 132.535 173.483C133.231 173.207 133.866 172.797 134.403 172.276C134.94 171.756 135.37 171.134 135.667 170.447C135.964 169.76 136.122 169.022 136.134 168.273V87.143C136.13 86.3837 135.966 85.6338 135.654 84.9416C135.343 84.2494 134.889 83.6302 134.323 83.124Z" fill="black"/>
<path opacity="0.1" d="M119.749 96.1969H81.239V185.586H119.749C121.722 185.646 123.637 184.922 125.077 183.573C126.517 182.224 127.365 180.359 127.434 178.387V103.307C127.342 101.351 126.485 99.509 125.047 98.1788C123.61 96.8486 121.707 96.1368 119.749 96.1969Z" fill="black"/>
<path opacity="0.2" d="M119.749 91.1628H81.239V180.42H119.749C121.714 180.479 123.624 179.762 125.062 178.422C126.501 177.082 127.353 175.229 127.434 173.265V98.185C127.32 96.2442 126.453 94.4246 125.018 93.1131C123.583 91.8017 121.693 91.102 119.749 91.1628Z" fill="black"/>
<path opacity="0.1" d="M128.052 83.3021H87.8193C87.0654 83.2902 86.3371 83.5753 85.7917 84.0959C85.2463 84.6165 84.9276 85.3308 84.9045 86.0845V172.824C84.9276 173.578 85.2463 174.292 85.7917 174.812C86.3371 175.333 87.0654 175.618 87.8193 175.606H128.052C129.54 175.607 130.97 175.025 132.034 173.985C133.099 172.945 133.715 171.529 133.749 170.042V88.8669C133.715 87.379 133.099 85.9636 132.034 84.9237C130.97 83.8837 129.54 83.3017 128.052 83.3021Z" fill="black"/>
<path opacity="0.1" d="M127.964 85.5984H87.731C86.9771 85.5864 86.2487 85.8716 85.7033 86.3922C85.1579 86.9128 84.8393 87.6271 84.8162 88.3808V174.237C84.8393 174.99 85.1579 175.705 85.7033 176.225C86.2487 176.746 86.9771 177.031 87.731 177.019L127.478 177.682C129.087 177.544 130.597 176.844 131.743 175.706C132.89 174.568 133.6 173.063 133.749 171.454V91.1631C133.714 89.6598 133.087 88.2312 132.003 87.1887C130.919 86.1463 129.467 85.5746 127.964 85.5984Z" fill="black"/>
<path opacity="0.01" d="M81.239 83.124V151.844H80.7532V163.239C80.7589 163.61 80.8378 163.976 80.9851 164.317C81.1325 164.658 81.3456 164.966 81.6121 165.225C81.8787 165.483 82.1936 165.686 82.5387 165.823C82.8839 165.96 83.2526 166.027 83.6238 166.021L115.598 160.368C118.778 160.368 127.345 157.718 127.345 154.627V84.6256C127.311 84.1134 127.207 83.6082 127.036 83.124H81.239Z" fill="black"/>
<path opacity="0.2" d="M119.749 93.5035H81.239V182.893H119.749C121.722 182.952 123.637 182.229 125.077 180.879C126.517 179.53 127.365 177.666 127.434 175.694V100.614C127.342 98.6576 126.485 96.8156 125.047 95.4854C123.61 94.1552 121.707 93.4434 119.749 93.5035Z" fill="black"/>
<path opacity="0.3" d="M119.749 85.6429H81.239V173.177H119.749C121.719 173.225 123.628 172.497 125.065 171.151C126.503 169.804 127.353 167.947 127.434 165.978V92.8417C127.353 90.8736 126.503 89.016 125.065 87.6693C123.628 86.3227 121.719 85.5949 119.749 85.6429Z" fill="black"/>
<path opacity="0.3" d="M119.749 85.6429H81.239V172.736H119.749C121.722 172.795 123.637 172.071 125.077 170.722C126.517 169.373 127.365 167.509 127.434 165.537V92.8417C127.353 90.8736 126.503 89.016 125.065 87.6693C123.628 86.3227 121.719 85.5949 119.749 85.6429Z" fill="black"/>
<path opacity="0.3" d="M119.749 87.4527H81.239V176.842H119.749C121.719 176.89 123.628 176.162 125.065 174.816C126.503 173.469 127.353 171.611 127.434 169.643V94.5632C127.342 92.6068 126.485 90.7648 125.047 89.4346C123.61 88.1044 121.707 87.3926 119.749 87.4527Z" fill="black"/>
<path opacity="0.2" d="M119.749 89.1314H81.239V178.521H119.749C121.722 178.58 123.637 177.856 125.077 176.507C126.517 175.158 127.365 173.294 127.434 171.322V96.242C127.342 94.2855 126.485 92.4435 125.047 91.1134C123.61 89.7832 121.707 89.0713 119.749 89.1314Z" fill="black"/>
<path opacity="0.1" d="M126.992 88.1599H86.7593C86.3881 88.154 86.0194 88.2214 85.6742 88.358C85.3291 88.4947 85.0142 88.6981 84.7476 88.9564C84.4811 89.2148 84.268 89.5232 84.1206 89.8639C83.9733 90.2046 83.8944 90.5711 83.8887 90.9423V172.382C83.8944 172.753 83.9733 173.12 84.1206 173.46C84.268 173.801 84.4811 174.109 84.7476 174.368C85.0142 174.626 85.3291 174.829 85.6742 174.966C86.0194 175.103 86.3881 175.17 86.7593 175.164H126.992C127.738 175.182 128.48 175.052 129.176 174.781C129.871 174.51 130.506 174.104 131.044 173.587C131.582 173.07 132.012 172.451 132.309 171.767C132.607 171.082 132.766 170.346 132.777 169.6V93.7246C132.743 92.2213 132.115 90.7927 131.031 89.7503C129.947 88.7078 128.496 88.1362 126.992 88.1599Z" fill="black"/>
<path opacity="0.2" d="M122.576 88.1599H82.2989C81.9347 88.1645 81.5748 88.2395 81.239 88.3807V173.133C81.5892 173.2 81.9488 173.2 82.2989 173.133H122.576C123.318 173.144 124.056 173.01 124.746 172.736C125.436 172.463 126.066 172.056 126.599 171.54C127.132 171.023 127.558 170.406 127.853 169.725C128.148 169.043 128.306 168.31 128.317 167.568V93.7246C128.306 92.9822 128.148 92.2494 127.853 91.5679C127.558 90.8864 127.132 90.2697 126.599 89.753C126.066 89.2362 125.436 88.8295 124.746 88.5562C124.056 88.2829 123.318 88.1482 122.576 88.1599Z" fill="black"/>
<path opacity="0.3" d="M112.462 83.3461H83.138C82.7668 83.3402 82.3981 83.4075 82.0529 83.5442C81.7077 83.6809 81.3929 83.8842 81.1263 84.1426C80.8597 84.4009 80.6467 84.7093 80.4993 85.05C80.3519 85.3908 80.2731 85.7572 80.2673 86.1284V167.568C80.2731 167.939 80.3519 168.306 80.4993 168.646C80.6467 168.987 80.8597 169.296 81.1263 169.554C81.3929 169.812 81.7077 170.016 82.0529 170.152C82.3981 170.289 82.7668 170.356 83.138 170.35H123.415C124.172 170.386 124.928 170.269 125.639 170.007C126.35 169.744 127.001 169.341 127.553 168.822C128.105 168.303 128.547 167.678 128.853 166.985C129.158 166.291 129.322 165.543 129.333 164.786V91.384C129.333 88.0717 121.516 86.2609 120.5 85.2893C118.012 84.0147 115.258 83.3487 112.462 83.3461Z" fill="black"/>
<path opacity="0.1" d="M124.916 92.1784H84.8162C84.445 92.1726 84.0763 92.2399 83.7311 92.3766C83.386 92.5133 83.0711 92.7166 82.8045 92.975C82.538 93.2333 82.3249 93.5417 82.1775 93.8824C82.0301 94.2232 81.9513 94.5896 81.9456 94.9608V176.4C81.9513 176.772 82.0301 177.138 82.1775 177.479C82.3249 177.82 82.538 178.128 82.8045 178.386C83.0711 178.645 83.386 178.848 83.7311 178.985C84.0763 179.121 84.445 179.189 84.8162 179.183H124.916C126.42 179.207 127.872 178.635 128.956 177.592C130.039 176.55 130.667 175.121 130.702 173.618V97.7432C130.667 96.2398 130.039 94.8112 128.956 93.7688C127.872 92.7264 126.42 92.1547 124.916 92.1784Z" fill="black"/>
<path opacity="0.1" d="M121.472 80.6072H92.7656V105.384H81.239V153.39H80.7532V164.829C80.7589 165.2 80.8378 165.567 80.9851 165.908C81.1325 166.248 81.3456 166.557 81.6121 166.815C81.8787 167.073 82.1936 167.277 82.5387 167.413C82.8839 167.55 83.2526 167.617 83.6238 167.612L115.51 161.826C118.689 161.826 127.257 159.132 127.257 156.085V86.1719C127.222 84.6686 126.595 83.2399 125.511 82.1975C124.427 81.1551 122.975 80.5834 121.472 80.6072Z" fill="black"/>
<path opacity="0.15" d="M121.472 81.9764H92.7656V105.384H81.239V154.804H80.7532V166.243C80.7589 166.614 80.8378 166.98 80.9851 167.321C81.1325 167.662 81.3456 167.97 81.6121 168.228C81.8787 168.487 82.1936 168.69 82.5387 168.827C82.8839 168.963 83.2526 169.031 83.6238 169.025L115.598 163.372C118.778 163.372 127.345 160.722 127.345 157.63V87.5853C127.334 86.8295 127.172 86.0835 126.87 85.3908C126.567 84.6981 126.13 84.0725 125.583 83.5505C125.037 83.0284 124.392 82.6204 123.686 82.3502C122.98 82.0799 122.227 81.9529 121.472 81.9764Z" fill="black"/>
</g>
<path d="M42.7286 83.1252H119.749C120.741 83.1077 121.727 83.2857 122.65 83.6491C123.573 84.0125 124.415 84.5541 125.128 85.2431C125.842 85.9322 126.413 86.755 126.809 87.6647C127.204 88.5744 127.416 89.5531 127.434 90.5449V164.83C127.434 165.806 127.234 166.772 126.847 167.669C126.459 168.565 125.893 169.372 125.181 170.041C123.726 171.454 121.778 172.246 119.749 172.25H42.7286C40.6981 172.256 38.7468 171.462 37.2965 170.041C36.5794 169.374 36.0059 168.568 35.611 167.672C35.2161 166.776 35.0082 165.809 35 164.83V90.5449C35.0464 88.5378 35.8853 86.6308 37.3335 85.2405C38.7817 83.8501 40.7214 83.0897 42.7286 83.1252Z" fill="#0078D4"/>
<path d="M57.17 113.775C59.2649 109.476 62.6039 105.906 66.7534 103.528C71.4455 101.022 76.7178 99.8029 82.0339 99.9953C86.9758 99.8884 91.856 101.108 96.1662 103.528C100.162 105.792 103.414 109.168 105.529 113.245C107.765 117.71 108.886 122.65 108.797 127.642C108.888 132.863 107.721 138.028 105.396 142.703C103.268 146.959 99.915 150.481 95.7687 152.816C91.2733 155.151 86.2822 156.369 81.2169 156.369C76.1515 156.369 71.1605 155.151 66.6651 152.816C62.6459 150.514 59.3672 147.113 57.2141 143.012C54.9587 138.615 53.8211 133.731 53.9019 128.791C53.8129 123.628 54.9321 118.516 57.17 113.863V113.775ZM67.5042 137.8C68.611 140.513 70.4831 142.846 72.8921 144.513C75.3747 146.202 78.3257 147.068 81.3273 146.986C84.4625 147.094 87.5522 146.213 90.16 144.469C92.5487 142.794 94.3794 140.44 95.4154 137.712C96.5629 134.71 97.1323 131.518 97.0936 128.305C97.1376 125.056 96.5991 121.825 95.5037 118.765C94.5468 115.996 92.7958 113.569 90.4691 111.787C87.895 109.959 84.7916 109.028 81.6364 109.137C78.5788 109.049 75.5693 109.913 73.0246 111.611C70.5805 113.293 68.6658 115.637 67.5042 118.368C65.0077 124.605 65.0077 131.563 67.5042 137.8Z" fill="white"/>
<path opacity="0.4" d="M57.17 113.775C59.2649 109.476 62.6039 105.906 66.7534 103.528C71.4455 101.022 76.7178 99.8029 82.0339 99.9953C86.9758 99.8884 91.856 101.108 96.1662 103.528C100.162 105.792 103.414 109.168 105.529 113.245C107.765 117.71 108.886 122.65 108.797 127.642C108.888 132.863 107.721 138.028 105.396 142.703C103.268 146.959 99.915 150.481 95.7687 152.816C91.2733 155.151 86.2822 156.369 81.2169 156.369C76.1515 156.369 71.1605 155.151 66.6651 152.816C62.6459 150.514 59.3672 147.113 57.2141 143.012C54.9587 138.615 53.8211 133.731 53.9019 128.791C53.8129 123.628 54.9321 118.516 57.17 113.863V113.775ZM67.5042 137.8C68.611 140.513 70.4831 142.846 72.8921 144.513C75.3747 146.202 78.3257 147.068 81.3273 146.986C84.4625 147.094 87.5522 146.213 90.16 144.469C92.5487 142.794 94.3794 140.44 95.4154 137.712C96.5629 134.71 97.1323 131.518 97.0936 128.305C97.1376 125.056 96.5991 121.825 95.5037 118.765C94.5468 115.996 92.7958 113.569 90.4691 111.787C87.895 109.959 84.7916 109.028 81.6364 109.137C78.5788 109.049 75.5693 109.913 73.0246 111.611C70.5805 113.293 68.6658 115.637 67.5042 118.368C65.0077 124.605 65.0077 131.563 67.5042 137.8Z" fill="white"/>
<path d="M57.17 113.775C59.2649 109.476 62.6039 105.906 66.7534 103.528C71.4455 101.022 76.7178 99.8029 82.0339 99.9953C86.9758 99.8884 91.856 101.108 96.1662 103.528C100.162 105.792 103.414 109.168 105.529 113.245C107.765 117.71 108.886 122.65 108.797 127.642C108.888 132.863 107.721 138.028 105.396 142.703C103.268 146.959 99.915 150.481 95.7687 152.816C91.2733 155.151 86.2822 156.369 81.2169 156.369C76.1515 156.369 71.1605 155.151 66.6651 152.816C62.6459 150.514 59.3672 147.113 57.2141 143.012C54.9587 138.615 53.8211 133.731 53.9019 128.791C53.8129 123.628 54.9321 118.516 57.17 113.863V113.775ZM67.5042 137.8C68.611 140.513 70.4831 142.846 72.8921 144.513C75.3747 146.202 78.3257 147.068 81.3273 146.986C84.4625 147.094 87.5522 146.213 90.16 144.469C92.5487 142.794 94.3794 140.44 95.4154 137.712C96.5629 134.71 97.1323 131.518 97.0936 128.305C97.1376 125.056 96.5991 121.825 95.5037 118.765C94.5468 115.996 92.7958 113.569 90.4691 111.787C87.895 109.959 84.7916 109.028 81.6364 109.137C78.5788 109.049 75.5693 109.913 73.0246 111.611C70.5805 113.293 68.6658 115.637 67.5042 118.368C65.0077 124.605 65.0077 131.563 67.5042 137.8Z" fill="url(#paint1_linear_332_271)"/>
<path d="M57.17 113.775C59.2649 109.476 62.6039 105.906 66.7534 103.528C71.4455 101.022 76.7178 99.8029 82.0339 99.9953C86.9758 99.8884 91.856 101.108 96.1662 103.528C100.162 105.792 103.414 109.168 105.529 113.245C107.765 117.71 108.886 122.65 108.797 127.642C108.888 132.863 107.721 138.028 105.396 142.703C103.268 146.959 99.915 150.481 95.7687 152.816C91.2733 155.151 86.2822 156.369 81.2169 156.369C76.1515 156.369 71.1605 155.151 66.6651 152.816C62.6459 150.514 59.3672 147.113 57.2141 143.012C54.9587 138.615 53.8211 133.731 53.9019 128.791C53.8129 123.628 54.9321 118.516 57.17 113.863V113.775ZM67.5042 137.8C68.611 140.513 70.4831 142.846 72.8921 144.513C75.3747 146.202 78.3257 147.068 81.3273 146.986C84.4625 147.094 87.5522 146.213 90.16 144.469C92.5487 142.794 94.3794 140.44 95.4154 137.712C96.5629 134.71 97.1323 131.518 97.0936 128.305C97.1376 125.056 96.5991 121.825 95.5037 118.765C94.5468 115.996 92.7958 113.569 90.4691 111.787C87.895 109.959 84.7916 109.028 81.6364 109.137C78.5788 109.049 75.5693 109.913 73.0246 111.611C70.5805 113.293 68.6658 115.637 67.5042 118.368C65.0077 124.605 65.0077 131.563 67.5042 137.8Z" fill="url(#paint2_linear_332_271)"/>
<defs>
<linearGradient id="paint0_linear_332_271" x1="377.309" y1="442.184" x2="318.926" y2="509.069" gradientUnits="userSpaceOnUse">
<stop stop-color="#35B8F1"/>
<stop offset="0.75" stop-color="#0D64AD"/>
</linearGradient>
<linearGradient id="paint1_linear_332_271" x1="259.185" y1="403.137" x2="259.185" y2="459.662" gradientUnits="userSpaceOnUse">
<stop stop-color="#F2F2F2"/>
<stop offset="1" stop-color="white"/>
</linearGradient>
<linearGradient id="paint2_linear_332_271" x1="-447.395" y1="2184.66" x2="-447.395" y2="2178.87" gradientUnits="userSpaceOnUse">
<stop stop-color="#F2F2F2"/>
<stop offset="1" stop-color="white"/>
</linearGradient>
</defs>
</svg>
