<svg width="256" height="256" viewBox="0 0 256 256" fill="none" xmlns="http://www.w3.org/2000/svg">
<path d="M196 0H60C26.8629 0 0 26.8629 0 60V196C0 229.137 26.8629 256 60 256H196C229.137 256 256 229.137 256 196V60C256 26.8629 229.137 0 196 0Z" fill="#242938"/>
<path d="M210.17 38.95C210.17 38.95 210.17 38.95 210.16 38.95C210.16 38.95 210.16 38.95 210.17 38.95ZM115.49 223.31H109.22C75.03 221.72 47.6 194.3 46 160.11V153.61C47.27 124.54 64.93 97.58 91.12 80.82C91.23 43.92 132.32 33.14 167.46 33H168.87C186.1 33.07 201.74 35.67 210.15 38.95C189.19 55.84 179.48 89.84 146.52 89.84C139.32 89.84 131.01 88.22 121.24 84.44C139.95 70.4 166.67 57.51 181.49 49.66C136.07 60.93 74.96 90.24 66.57 141.77C64.14 156.47 67.18 171.51 78.96 185.38C86.98 194.76 98.88 200.71 112.24 200.71C136.41 200.71 156.09 181.13 156.09 156.95C156.09 135.19 140.18 117.14 119.4 113.78C117.27 113.44 115.1 113.27 112.91 113.27C100.59 113.27 87.78 118.69 79.12 129.09C85.98 113.59 100.5 98.03 112.4 90.46C113.19 90.39 113.99 90.36 114.81 90.36C122.66 90.36 131.64 93.21 136 94.89C160.99 104.39 178.76 128.61 178.76 156.97C178.76 192.59 150.7 221.67 115.47 223.31" fill="#04652F"/>
</svg>
