<svg width="256" height="256" viewBox="0 0 256 256" fill="none" xmlns="http://www.w3.org/2000/svg">
<g clip-path="url(#clip0_49_49)">
<path d="M196 0H60C26.8629 0 0 26.8629 0 60V196C0 229.137 26.8629 256 60 256H196C229.137 256 256 229.137 256 196V60C256 26.8629 229.137 0 196 0Z" fill="#242938"/>
<path d="M122.175 54.6497C122.163 54.6497 122.163 54.6384 122.152 54.6384C108.497 45.3945 80.2089 44 46.9944 44C38.3898 44 31.3712 50.8149 31.045 59.3392L31 111.092H31.0225V164.531C31.0225 176.002 39.942 185.628 51.4035 186.022C63.4274 186.438 73.3029 176.947 73.3029 165.027V160.674C73.3029 160.269 73.3704 159.853 73.5392 159.482C75.1025 155.996 78.6007 153.567 82.6497 153.567C82.6724 153.567 89.7584 153.567 91.0631 153.567C91.0631 153.567 91.2993 153.556 91.7829 153.556C124.84 153.556 150.71 129.659 150.71 100.161C150.71 80.9084 139.294 64.0399 122.175 54.6497ZM73.3029 119.065V76.1515C88.2063 76.174 100.309 79.4577 104.291 89.8488C105.168 92.098 105.629 94.6621 105.629 97.6083C105.629 112.869 91.2095 118.93 73.3029 119.065Z" fill="#7357A5"/>
<path d="M206.549 150.746H198.787V84.25C198.787 78.8746 196.605 74.0052 193.085 70.4852C189.564 66.9653 184.694 64.7837 179.317 64.7837H136.823L91.821 153.186L91.6408 167.356C91.6297 167.637 91.6186 167.918 91.6186 168.199C91.6186 177.826 99.4359 185.642 109.075 185.642H159.848V192.153C159.848 202.903 168.565 211.619 179.317 211.619C190.071 211.619 198.787 202.903 198.787 192.153V185.642H206.549C211.362 185.642 215.727 183.685 218.887 180.524C222.048 177.376 224.005 173.013 224.005 168.199C224.005 158.562 216.188 150.746 206.549 150.746ZM140.186 143.031L159.848 103.716V139.961C159.87 140.22 159.882 140.467 159.882 140.726C159.882 140.985 159.87 141.243 159.848 141.502C159.454 146.653 155.157 150.701 149.905 150.701C149.747 150.701 149.59 150.712 149.432 150.746H136.328L140.186 143.031ZM175.943 135.069C175.977 135.047 176.011 135.036 176.033 135.036H176.798C176.674 135.047 176.382 135.047 175.943 135.069Z" fill="#7CC242"/>
</g>
<defs>
<clipPath id="clip0_49_49">
<rect width="256" height="256" fill="white"/>
</clipPath>
</defs>
</svg>
