<svg width="256" height="256" viewBox="0 0 256 256" fill="none" xmlns="http://www.w3.org/2000/svg">
<g clip-path="url(#clip0_49_51)">
<path d="M196 0H60C26.8629 0 0 26.8629 0 60V196C0 229.137 26.8629 256 60 256H196C229.137 256 256 229.137 256 196V60C256 26.8629 229.137 0 196 0Z" fill="#F4F2ED"/>
<mask id="mask0_49_51" style="mask-type:luminance" maskUnits="userSpaceOnUse" x="32" y="44" width="193" height="168">
<path d="M224.247 44H32V212H224.247V44Z" fill="white"/>
</mask>
<g mask="url(#mask0_49_51)">
<path d="M123.175 54.6497C123.163 54.6497 123.163 54.6384 123.152 54.6384C109.497 45.3945 81.2089 44 47.9944 44C39.3898 44 32.3712 50.8149 32.045 59.3392L32 111.092H32.0225V164.531C32.0225 176.002 40.942 185.628 52.4035 186.022C64.4274 186.438 74.3029 176.947 74.3029 165.027V160.674C74.3029 160.269 74.3704 159.853 74.5392 159.482C76.1025 155.996 79.6007 153.567 83.6497 153.567C83.6724 153.567 90.7584 153.567 92.0631 153.567C92.0631 153.567 92.2993 153.556 92.7829 153.556C125.84 153.556 151.71 129.659 151.71 100.161C151.71 80.9084 140.294 64.0399 123.175 54.6497ZM74.3029 119.065V76.1515C89.2063 76.174 101.309 79.4577 105.291 89.8488C106.168 92.098 106.629 94.6621 106.629 97.6083C106.629 112.869 92.2095 118.93 74.3029 119.065Z" fill="#7357A5"/>
<path d="M207.549 150.746H199.787V84.25C199.787 78.8746 197.605 74.0052 194.085 70.4852C190.564 66.9653 185.694 64.7837 180.317 64.7837H137.823L92.821 153.186L92.6408 167.356C92.6297 167.637 92.6186 167.918 92.6186 168.199C92.6186 177.826 100.436 185.642 110.075 185.642H160.848V192.153C160.848 202.903 169.565 211.619 180.317 211.619C191.071 211.619 199.787 202.903 199.787 192.153V185.642H207.549C212.362 185.642 216.727 183.685 219.887 180.524C223.048 177.376 225.005 173.013 225.005 168.199C225.005 158.562 217.188 150.746 207.549 150.746ZM141.186 143.031L160.848 103.716V139.961C160.87 140.22 160.882 140.467 160.882 140.726C160.882 140.985 160.87 141.243 160.848 141.502C160.454 146.653 156.157 150.701 150.905 150.701C150.747 150.701 150.59 150.712 150.432 150.746H137.328L141.186 143.031ZM176.943 135.069C176.977 135.047 177.011 135.036 177.033 135.036H177.798C177.674 135.047 177.382 135.047 176.943 135.069Z" fill="#7CC242"/>
</g>
</g>
<defs>
<clipPath id="clip0_49_51">
<rect width="256" height="256" fill="white"/>
</clipPath>
</defs>
</svg>
