<svg width="256" height="256" viewBox="0 0 256 256" fill="none" xmlns="http://www.w3.org/2000/svg">
<path d="M196 0H60C26.8629 0 0 26.8629 0 60V196C0 229.137 26.8629 256 60 256H196C229.137 256 256 229.137 256 196V60C256 26.8629 229.137 0 196 0Z" fill="#F4F2ED"/>
<path fill-rule="evenodd" clip-rule="evenodd" d="M127.552 227.607C98.062 227.585 74.306 220.58 57.708 207.998C40.91 195.265 32 177.195 32 156.748C32 137.047 40.891 122.841 50.952 113.238C58.836 105.713 67.536 100.894 73.594 98.121C72.224 93.959 70.515 88.511 68.986 82.883C66.94 75.353 64.933 66.517 64.933 60.043C64.933 52.38 66.62 44.683 71.171 38.703C75.98 32.385 83.218 29 91.926 29C98.732 29 104.51 31.499 109.034 35.81C113.358 39.93 116.236 45.403 118.223 51.108C121.714 61.132 123.073 73.726 123.455 86.295H131.796C132.178 73.726 133.537 61.132 137.029 51.108C139.016 45.403 141.894 39.931 146.218 35.81C150.741 31.5 156.519 29 163.325 29C172.033 29 179.272 32.385 184.08 38.703C188.631 44.683 190.319 52.38 190.319 60.043C190.319 66.517 188.312 75.353 186.265 82.883C184.736 88.511 183.027 93.959 181.657 98.121C187.715 100.894 196.416 105.713 204.3 113.239C214.36 122.841 223.252 137.047 223.252 156.748C223.252 177.195 214.341 195.265 197.544 207.998C180.946 220.58 157.19 227.585 127.7 227.607H127.552Z" fill="#633001"/>
<path d="M91.9262 36.2881C79.1722 36.2881 73.3002 45.8041 73.3002 58.9631C73.3002 69.4231 80.1222 90.3711 82.9212 98.5261C83.5512 100.361 82.5612 102.37 80.7572 103.081C70.5352 107.112 40.3672 121.87 40.3672 155.669C40.3672 191.272 71.0252 218.117 127.558 218.159H127.693C184.227 218.117 214.883 191.272 214.883 155.669C214.883 121.87 184.716 107.112 174.494 103.081C172.69 102.371 171.7 100.361 172.33 98.5261C175.129 90.3721 181.951 69.4231 181.951 58.9631C181.951 45.8031 176.08 36.2881 163.325 36.2881C144.965 36.2881 140.389 62.2951 140.062 90.2081C140.04 92.0711 138.534 93.5831 136.67 93.5831H118.58C116.717 93.5831 115.21 92.0711 115.189 90.2081C114.863 62.2951 110.286 36.2881 91.9262 36.2881Z" fill="#D1884F"/>
<path d="M127.693 206.755C86.1552 206.755 40.4402 184.52 40.3682 155.737V155.871C40.3682 191.503 71.0732 218.362 127.693 218.362C184.313 218.362 215.018 191.503 215.018 155.871V155.737C214.946 184.52 169.231 206.755 127.693 206.755Z" fill="#FEDC90"/>
<path d="M104.614 146.896C104.614 156.614 100.021 161.675 94.3557 161.675C88.6907 161.675 84.0977 156.614 84.0977 146.896C84.0977 137.178 88.6907 132.117 94.3557 132.117C100.021 132.117 104.614 137.178 104.614 146.896ZM171.288 146.896C171.288 156.614 166.696 161.675 161.031 161.675C155.365 161.675 150.773 156.614 150.773 146.896C150.773 137.178 155.365 132.117 161.031 132.117C166.696 132.117 171.288 137.178 171.288 146.896Z" fill="#633001"/>
</svg>
