<svg width="256" height="256" viewBox="0 0 256 256" fill="none" xmlns="http://www.w3.org/2000/svg">
<rect width="256" height="256" rx="60" fill="#1AA44A" />
<path opacity="0.4" d="M193.1 127.7C193.1 128.9 193.1 130.2 193.1 131.6L61.1 167C48.8 148.1 46.1 124.4 53.6 103.1C61.4 81.8 78.8 65.3 100.7 59C122.3 52.4 146 56.6 164 70.1C182.3 83.6 193.1 104.9 193.1 127.7ZM107 198.2C102.4 197.2 97.9 195.8 93.5 194C89.1 192.2 85 189.9 81.2 187.1C77.2 184.5 73.5 181.5 70.1 178.1L190.7 145.7C188.6 153.2 185.6 160.7 181.1 167.3C176.9 173.9 171.5 179.6 165.2 184.4C158.9 189.2 152 193.1 144.5 195.5C137 198.2 129.2 199.4 121.1 199.4C116.5 199.4 111.8 199 107 198.2Z" fill="white"/>
<path d="M49.4 172.4V82.7L215.3 127.7L49.4 172.4Z" fill="white"/>
<path d="M58.4 89.6V165.8L49.4 172.4V155.6H42.8V144.5H49.4V110.9H42.8V99.5H49.4V82.7L58.4 89.6Z" fill="#17542E"/>
</svg>