<svg width="256" height="256" viewBox="0 0 256 256" fill="none" xmlns="http://www.w3.org/2000/svg">
<path d="M196 0H60C26.8629 0 0 26.8629 0 60V196C0 229.137 26.8629 256 60 256H196C229.137 256 256 229.137 256 196V60C256 26.8629 229.137 0 196 0Z" fill="#242938"/>
<path d="M235.406 130.248H242.751V104.004H127.878C127.878 108.67 128.054 112.96 128.042 117.626C128.042 117.935 128.151 118.104 128.394 118.28C138.305 125.378 145.849 130.244 145.849 130.244H127.874C127.874 130.244 128.065 133.901 128.065 136.251C128.042 136.255 127.999 137.049 127.999 137.049L115.605 104H100.758C100.758 104 92.0204 126.876 88.4065 137.722C88.3674 137.722 88.3322 136.149 88.297 136.146V108.255C88.297 105.474 88.4887 104 88.4887 104H73.7202V117.122H65.5147V104H13V143.362H27.7684C27.7684 143.362 27.9131 130.291 27.9131 123.411C27.9483 123.403 27.9835 123.399 28.0148 123.391C29.0317 126.012 30.0173 129.231 31.0498 131.882H50.7424V143.362H65.5108V130.24H73.7163V143.362H101.223L108.299 121.698L115.131 143.362H216.484V123.29L228.57 151.555L243.6 151.563L235.394 130.24L235.406 130.248ZM167.267 117.126V129.778L151.325 117.126H167.267Z" fill="black"/>
<path d="M167.266 115.487H147.574L167.266 131.89V141.731H129.524V131.89H150.859L129.524 117.13V105.65H167.266V115.491V115.487ZM63.8798 141.731H52.3928V105.646H63.8798V118.768H75.3667V105.646H86.8537V141.731H75.3667V128.609H63.8798V141.731ZM108.189 117.13L99.9834 141.731H88.4964L101.626 105.646H114.756L127.885 141.731H116.398L108.193 117.13H108.189ZM14.6504 105.65V141.734H26.1374V117.133H40.9058V118.772H27.7761L32.7002 130.251H50.7501V105.65H14.6465H14.6504ZM201.727 117.13V105.65H168.905V141.734H201.727V131.894H178.753V130.255H201.727V118.776H178.753V117.137H201.727V117.13ZM232.907 128.609H241.112V105.646H203.37V141.731H214.857V117.13H229.625V118.768H216.496L229.625 149.932H241.112L232.907 128.609Z" fill="#8FB7E5"/>
<mask id="mask0_206_88" style="mask-type:luminance" maskUnits="userSpaceOnUse" x="14" y="105" width="228" height="45">
<path d="M167.266 115.487H147.574L167.266 131.89V141.731H129.524V131.89H150.859L129.524 117.13V105.65H167.266V115.491V115.487ZM63.8798 141.731H52.3928V105.646H63.8798V118.768H75.3667V105.646H86.8537V141.731H75.3667V128.609H63.8798V141.731ZM108.189 117.13L99.9834 141.731H88.4964L101.626 105.646H114.756L127.885 141.731H116.398L108.193 117.13H108.189ZM14.6504 105.65V141.734H26.1374V117.133H40.9058V118.772H27.7761L32.7002 130.251H50.7501V105.65H14.6465H14.6504ZM201.727 117.13V105.65H168.905V141.734H201.727V131.894H178.753V130.255H201.727V118.776H178.753V117.137H201.727V117.13ZM232.907 128.609H241.112V105.646H203.37V141.731H214.857V117.13H229.625V118.768H216.496L229.625 149.932H241.112L232.907 128.609Z" fill="white"/>
</mask>
<g mask="url(#mask0_206_88)">
<path d="M129.521 44.9614C192.056 44.9614 242.752 95.6301 242.752 158.13C242.752 220.63 192.056 271.298 129.521 271.298C66.9861 271.298 16.29 220.634 16.29 158.13C16.29 95.6262 66.9861 44.9614 129.521 44.9614Z" fill="url(#paint0_radial_206_88)"/>
<g style="mix-blend-mode:overlay">
<path d="M129.521 64.6421C158.522 64.6421 182.035 88.1401 182.035 117.125C182.035 146.111 158.525 169.609 129.521 169.609C100.516 169.609 77.0059 146.111 77.0059 117.125C77.0059 88.1401 100.516 64.6421 129.521 64.6421Z" fill="url(#paint1_radial_206_88)"/>
</g>
<g style="mix-blend-mode:soft-light">
<path d="M27.7772 95.8062H70.4436L4.8032 153.21H-37.8633L27.7772 95.8062ZM98.3417 95.8062H109.829L44.1882 153.21H32.7013L98.3417 95.8062ZM127.879 95.8062H155.777L90.1362 153.21H62.2381L127.879 95.8062ZM167.264 95.8062H188.599L122.958 153.21H101.623L167.264 95.8062ZM198.443 95.8062H209.93L144.29 153.21H132.803L198.443 95.8062ZM237.828 95.8062H249.315L183.675 153.21H172.188L237.828 95.8062Z" fill="#B8EEFE"/>
</g>
<g style="mix-blend-mode:soft-light">
<path d="M27.7772 95.8062H70.4436L4.8032 153.21H-37.8633L27.7772 95.8062ZM98.3417 95.8062H109.829L44.1882 153.21H32.7013L98.3417 95.8062ZM127.879 95.8062H155.777L90.1362 153.21H62.2381L127.879 95.8062ZM167.264 95.8062H188.599L122.958 153.21H101.623L167.264 95.8062ZM198.443 95.8062H209.93L144.29 153.21H132.803L198.443 95.8062ZM237.828 95.8062H249.315L183.675 153.21H172.188L237.828 95.8062Z" fill="#B8EEFE"/>
</g>
<path d="M124.596 107.289L14.6465 105.65H241.109L124.596 107.289Z" fill="white"/>
</g>
<defs>
<radialGradient id="paint0_radial_206_88" cx="0" cy="0" r="1" gradientUnits="userSpaceOnUse" gradientTransform="translate(129.521 158.13) scale(113.2 113.2)">
<stop stop-color="#BFEBFD"/>
<stop offset="1" stop-color="#BFEBFD" stop-opacity="0"/>
</radialGradient>
<radialGradient id="paint1_radial_206_88" cx="0" cy="0" r="1" gradientUnits="userSpaceOnUse" gradientTransform="translate(129.521 117.129) scale(52.499 52.4991)">
<stop stop-color="#BFEBFD"/>
<stop offset="1" stop-color="#BFEBFD" stop-opacity="0"/>
</radialGradient>
</defs>
</svg>
