<svg width="256" height="256" viewBox="0 0 256 256" fill="none" xmlns="http://www.w3.org/2000/svg">
	<path d="M0 0 C1.53598692 -0.00543627 3.07196862 -0.01256728 4.60794067 -0.02124023 C8.73615211 -0.03929805 12.86395858 -0.03247966 16.99217606 -0.01972389 C21.33911374 -0.00950424 25.68601975 -0.01901419 30.03295898 -0.02526855 C37.32900128 -0.03251912 44.62488092 -0.02302571 51.92089844 -0.00390625 C60.32231528 0.01785752 68.72334365 0.0108043 77.12475109 -0.01121187 C84.3744826 -0.02944016 91.62409805 -0.0318881 98.8738451 -0.0214572 C103.18784248 -0.01526286 107.50165805 -0.01427338 111.81564331 -0.02760315 C115.87397058 -0.03927001 119.93180339 -0.03094141 123.99007797 -0.00802612 C125.4677537 -0.00279623 126.945472 -0.00415291 128.42313004 -0.01307678 C146.89997949 -0.11426202 161.44421984 4.94784732 175.00390625 17.76757812 C187.94376753 31.460852 191.75767645 46.97694479 191.64648438 65.38867188 C191.65192065 66.9246588 191.65905165 68.46064049 191.66772461 69.99661255 C191.68578243 74.12482398 191.67896403 78.25263045 191.66620827 82.38084793 C191.65598861 86.72778562 191.66549857 91.07469162 191.67175293 95.42163086 C191.67900349 102.71767315 191.66951009 110.01355279 191.65039062 117.30957031 C191.62862686 125.71098715 191.63568007 134.11201552 191.65769625 142.51342297 C191.67592454 149.76315447 191.67837248 157.01276993 191.66794157 164.26251698 C191.66174724 168.57651435 191.66075776 172.89032993 191.67408752 177.20431519 C191.68575439 181.26264245 191.67742578 185.32047527 191.6545105 189.37874985 C191.64928061 190.85642557 191.65063729 192.33414388 191.65956116 193.81180191 C191.7607464 212.28865136 186.69863705 226.83289172 173.87890625 240.39257812 C160.18563237 253.33243941 144.66953959 257.14634832 126.2578125 257.03515625 C124.72182558 257.04059252 123.18584388 257.04772353 121.64987183 257.05639648 C117.52166039 257.0744543 113.39385392 257.06763591 109.26563644 257.05488014 C104.91869876 257.04466049 100.57179275 257.05417044 96.22485352 257.0604248 C88.92881122 257.06767537 81.63293158 257.05818196 74.33691406 257.0390625 C65.93549722 257.01729873 57.53446885 257.02435195 49.13306141 257.04636812 C41.8833299 257.06459641 34.63371445 257.06704435 27.3839674 257.05661345 C23.06997002 257.05041911 18.75615445 257.04942963 14.44216919 257.0627594 C10.38384192 257.07442626 6.32600911 257.06609766 2.26773453 257.04318237 C0.7900588 257.03795248 -0.6876595 257.03930916 -2.16531754 257.04823303 C-20.64216699 257.14941827 -35.18640734 252.08730893 -48.74609375 239.26757812 C-61.68595503 225.57430425 -65.49986395 210.05821146 -65.38867188 191.64648438 C-65.39410815 190.11049745 -65.40123915 188.57451576 -65.40991211 187.0385437 C-65.42796993 182.91033227 -65.42115153 178.7825258 -65.40839577 174.65430832 C-65.39817611 170.30737063 -65.40768607 165.96046463 -65.41394043 161.61352539 C-65.42119099 154.3174831 -65.41169759 147.02160346 -65.39257812 139.72558594 C-65.37081436 131.3241691 -65.37786757 122.92314073 -65.39988375 114.52173328 C-65.41811204 107.27200178 -65.42055998 100.02238632 -65.41012907 92.77263927 C-65.40393474 88.4586419 -65.40294526 84.14482632 -65.41627502 79.83084106 C-65.42794189 75.7725138 -65.41961328 71.71468098 -65.396698 67.6564064 C-65.39146811 66.17873068 -65.39282479 64.70101237 -65.40174866 63.22335434 C-65.5029339 44.74650489 -60.44082455 30.20226453 -47.62109375 16.64257812 C-33.92781987 3.70271684 -18.41172709 -0.11119207 0 0 Z " fill="#242938" transform="translate(64.87109375,-0.517578125)" />
	<path d="M0 0 C9.48073982 6.90761496 13.36919274 16.95833261 15.49609375 28.1640625 C17.76623567 45.44529791 16.04287083 63.76552771 5.40625 78.15625 C1.08991078 82.9612314 -3.9437766 85.03066861 -10 87 C-11.485 87.495 -11.485 87.495 -13 88 C-21.58783756 88.74304085 -29.70092778 88.19255996 -36.77734375 82.9375 C-40.76857727 79.45590749 -43.61071962 76.77856077 -46 72 C-46.33 88.5 -46.66 105 -47 122 C-57.89 122 -68.78 122 -80 122 C-80 80.75 -80 39.5 -80 -3 C-69.11 -3 -58.22 -3 -47 -3 C-46.505 4.425 -46.505 4.425 -46 12 C-45.319375 10.80375 -44.63875 9.6075 -43.9375 8.375 C-40.12436441 2.32325391 -35.2641555 -2.31122387 -28.34765625 -4.5234375 C-18.21339168 -6.58064262 -9.04290256 -4.92269265 0 0 Z " fill="#F4F2ED" transform="translate(137,70)" />
	<path d="M0 0 C5.02907631 2.17164659 7.87518103 5.69412112 10.25 10.5625 C12.03654475 18.75083009 11.91100069 27.44079314 8 35 C5.3666612 38.16000656 3.89362319 39.7021256 0 41 C-3.96481482 41.2557945 -6.92114009 41.35125671 -10.6875 40.125 C-15.47838086 35.72256894 -17.66727003 30.72494368 -18.453125 24.2890625 C-18.68706471 15.91736294 -18.0661094 9.88414324 -12.6796875 3.4140625 C-8.58523769 -0.63563922 -5.4002884 -0.68575091 0 0 Z " fill="#242938" transform="translate(108,91)" />
	<path d="M0 0 C5.21795313 2.87819554 8.60394758 6.63836987 10.89453125 12.1484375 C11.83206771 17.98199769 10.17233344 22.38163371 6.89453125 27.1484375 C3.01661712 31.15495593 -0.26957916 33.30013159 -5.85546875 33.4609375 C-10.73771385 33.40465802 -13.36420121 32.44431605 -17.10546875 29.1484375 C-20.95349422 24.97974324 -22.80074081 21.45566329 -23.54296875 15.8359375 C-22.87173439 10.17839076 -20.54189089 6.29913849 -16.2734375 2.53125 C-10.95990923 -1.17878749 -6.13364344 -2.48076859 0 0 Z " fill="#F4F2ED" transform="translate(188.10546875,124.8515625)" />
</svg>
