<svg width="256" height="256" viewBox="0 0 256 256" fill="none" xmlns="http://www.w3.org/2000/svg">
<rect width="256" height="256" rx="60" fill="#FFD000" />
<path d="M219 127.5C219 177.482 178.482 218 128.5 218C78.5182 218 38 177.482 38 127.5C38 77.5182 78.5182 37 128.5 37C178.482 37 219 77.5182 219 127.5Z" fill="#FFA300"/>
<path d="M90.5621 209.688L82.6301 98.1599H173.543L165.584 210.078C154.266 215.168 141.714 218 128.5 218C114.953 218 102.101 215.023 90.5621 209.688Z" fill="#FED100"/>
<path opacity="0.5" d="M116.497 217.211C107.332 215.997 98.599 213.41 90.5124 209.665L82.6301 98.1599H113.692L116.497 217.211Z" fill="white"/>
<path d="M173.543 75.8447H82.6301V98.1598H173.543V75.8447Z" fill="white"/>
</svg>