<svg width="256" height="256" viewBox="0 0 256 256" fill="none" xmlns="http://www.w3.org/2000/svg" id="playfab">
<style>
#playfab {
    rect {fill: #242938}

    @media (prefers-color-scheme: light) {
        rect {fill: #F4F2ED}
    }
}
</style>
<rect width="256" height="256" fill="#242938" rx="60"/>
<path d="M215 178.579L130.159 227.88C127.524 228.479 125.354 226.691 123.107 225.619C109.38 219.095 95.3335 209.227 81.9457 201.93L80.977 154.572L40 130.699L40.2906 77.2331L127.476 28L214.671 77.2621L215 178.589V178.579ZM81.4711 128.476V101.898L127.485 75.6577L174.275 103.048L173.48 155.045L128.299 180.464L102.773 168.103V188.882L129.2 202.751L193.63 165.01L193.649 91.4598C193.087 89.6138 187.798 87.0043 185.774 85.7865C166.883 74.4593 146.695 65.1036 127.902 53.5637L126.032 53.4767L61.2829 90.9476V119.633L81.4711 128.486V128.476ZM127.485 99.8393L102.967 114.646L103.248 142.017L127.485 156.186C128.861 156.186 150.338 143.534 151.21 142.481C153.544 139.688 151.849 118.986 151.713 113.969L127.485 99.8393Z" fill="#F75B0C"/>
</svg>
