<svg width="256" height="256" viewBox="0 0 256 256" fill="none" xmlns="http://www.w3.org/2000/svg">
<path d="M196 0H60C26.8629 0 0 26.8629 0 60V196C0 229.137 26.8629 256 60 256H196C229.137 256 256 229.137 256 196V60C256 26.8629 229.137 0 196 0Z" fill="#F4F2ED"/>
<path d="M69.1549 149.62C69.1549 142.398 63.2999 136.543 56.0774 136.543C48.855 136.543 43 142.398 43 149.62V197.571C43 204.794 48.855 210.649 56.0774 210.649C63.2999 210.649 69.1549 204.794 69.1549 197.571V149.62Z" fill="#282D33"/>
<path d="M56.0771 92.9512C63.2995 92.9512 69.1551 98.806 69.1553 106.028C69.1553 113.251 63.2996 119.106 56.0771 119.106C48.8548 119.106 43 113.251 43 106.028C43.0002 98.8061 48.8549 92.9513 56.0771 92.9512ZM151.97 92.9512C159.192 92.9512 165.047 98.806 165.047 106.028C165.047 113.251 159.192 119.106 151.97 119.106C144.747 119.106 138.893 113.251 138.893 106.028C138.893 98.8061 144.747 92.9513 151.97 92.9512ZM56.0781 45C63.3003 45.0003 69.1551 50.855 69.1553 58.0771C69.1553 65.2995 63.3004 71.155 56.0781 71.1553C48.8556 71.1553 43 65.2996 43 58.0771C43.0002 50.8548 48.8557 45 56.0781 45ZM104.02 45C111.242 45.0003 117.097 50.855 117.097 58.0771C117.097 65.2995 111.242 71.155 104.02 71.1553C96.7971 71.1553 90.9414 65.2996 90.9414 58.0771C90.9416 50.8548 96.7971 45 104.02 45ZM151.97 45C159.192 45 165.047 50.8548 165.047 58.0771C165.047 65.2996 159.192 71.1553 151.97 71.1553C144.747 71.1552 138.893 65.2996 138.893 58.0771C138.893 50.8549 144.747 45.0001 151.97 45ZM199.923 45C207.145 45.0002 213 50.8549 213 58.0771C213 65.2995 207.145 71.1551 199.923 71.1553C192.7 71.1553 186.845 65.2996 186.845 58.0771C186.845 50.8548 192.7 45 199.923 45Z" fill="url(#paint0_linear_343_1330)"/>
<path d="M117.096 106.029C117.096 98.8066 111.241 92.9517 104.019 92.9517C96.7964 92.9517 90.9414 98.8066 90.9414 106.029V197.571C90.9414 204.794 96.7964 210.649 104.019 210.649C111.241 210.649 117.096 204.794 117.096 197.571V106.029Z" fill="#282D33"/>
<path d="M213.001 106.029C213.001 98.8066 207.146 92.9517 199.923 92.9517C192.701 92.9517 186.846 98.8066 186.846 106.029V197.571C186.846 204.794 192.701 210.649 199.923 210.649C207.146 210.649 213.001 204.794 213.001 197.571V106.029Z" fill="#282D33"/>
<path d="M165.047 149.62C165.047 142.398 159.193 136.543 151.97 136.543C144.748 136.543 138.893 142.398 138.893 149.62V197.571C138.893 204.794 144.748 210.649 151.97 210.649C159.193 210.649 165.047 204.794 165.047 197.571V149.62Z" fill="#282D33"/>
<defs>
<linearGradient id="paint0_linear_343_1330" x1="219.3" y1="81.1637" x2="43" y2="81.1637" gradientUnits="userSpaceOnUse">
<stop stop-color="#83E2FE"/>
<stop offset="1" stop-color="#FE3070"/>
</linearGradient>
</defs>
</svg>
