<svg width="256" height="256" viewBox="0 0 256 256" fill="none" xmlns="http://www.w3.org/2000/svg">
<path d="M196 0H60C26.8629 0 0 26.8629 0 60V196C0 229.137 26.8629 256 60 256H196C229.137 256 256 229.137 256 196V60C256 26.8629 229.137 0 196 0Z" fill="#F4F2ED"/>
<g clip-path="url(#clip0_0_1)">
<path d="M97.7917 73.9028C77.6528 73.9028 61.3334 71.0889 61.3334 67.6174V135.507C61.3334 138.979 77.6528 141.793 97.7917 141.793C117.931 141.793 134.25 138.978 134.25 135.507V67.6195C134.25 71.091 117.931 73.9028 97.7917 73.9028Z" fill="#B9CED9"/>
<path d="M61.3334 67.6194V135.507C61.3334 138.979 77.6528 141.793 97.7917 141.793V73.9028C77.6563 73.9028 61.3334 71.091 61.3334 67.6194Z" fill="#A1BDCC"/>
<path d="M129.222 70.8069V138.694C132.416 137.76 134.25 136.671 134.25 135.508V67.6194C134.25 68.7826 132.417 69.875 129.222 70.8069Z" fill="#A1BDCC"/>
<path d="M97.7917 73.9056C117.927 73.9056 134.25 71.0912 134.25 67.6195C134.25 64.1477 117.927 61.3333 97.7917 61.3333C77.6563 61.3333 61.3334 64.1477 61.3334 67.6195C61.3334 71.0912 77.6563 73.9056 97.7917 73.9056Z" fill="#8AADBF"/>
<path d="M61.3334 110.361C61.3334 113.833 77.6528 116.647 97.7917 116.647C117.931 116.647 134.25 113.833 134.25 110.361V115.39C134.25 118.862 117.931 121.676 97.7917 121.676C77.6528 121.676 61.3334 118.864 61.3334 115.392V110.361Z" fill="#789EB2"/>
<path d="M134.25 87.734C134.25 91.2063 117.931 94.0202 97.7917 94.0202C77.6528 94.0202 61.3334 91.2056 61.3334 87.734V92.7632C61.3334 96.2354 77.6528 99.0486 97.7917 99.0486C117.931 99.0486 134.25 96.2347 134.25 92.7632V87.734Z" fill="#789EB2"/>
<path d="M186.333 107.167H115.5C110.898 107.167 107.167 110.898 107.167 115.5V186.333C107.167 190.936 110.898 194.667 115.5 194.667H186.333C190.936 194.667 194.667 190.936 194.667 186.333V115.5C194.667 110.898 190.936 107.167 186.333 107.167Z" fill="#F80000"/>
<path d="M129.627 134.239H142.187C148.56 134.239 151.053 138.118 151.053 144.215C151.053 148.001 149.946 154.006 141.772 154.006H136.6V167.583H129.627V134.239ZM136.6 148.878H140.479C142.557 148.878 143.988 146.615 143.988 144.399C143.988 141.674 143.25 139.365 140.11 139.365H136.6V148.878Z" fill="white"/>
<path d="M155.765 167.583V134.239H162.738V162.04H173.174V167.583H155.765Z" fill="white"/>
</g>
<defs>
<clipPath id="clip0_0_1">
<rect width="200" height="200" fill="white" transform="translate(28 28)"/>
</clipPath>
</defs>
</svg>
