<svg width="256" height="256" viewBox="0 0 256 256" fill="none" xmlns="http://www.w3.org/2000/svg">
<path d="M196 0H60C26.8629 0 0 26.8629 0 60V196C0 229.137 26.8629 256 60 256H196C229.137 256 256 229.137 256 196V60C256 26.8629 229.137 0 196 0Z" fill="#242938"/>
<path d="M181.815 120.262C182.088 121.971 182.368 123.68 182.704 125.351H199.215V120.262H181.815ZM184.551 132.976C184.893 134.145 185.254 135.309 185.654 136.467C186.613 136.944 187.548 137.477 188.451 138.071H209.381V132.976H184.551ZM150.569 135.34C149.784 135.626 149.015 135.96 148.261 136.323V136.33C149.017 135.965 149.782 135.626 150.569 135.34ZM74.5183 199.078V204.167H135.652V199.078H74.5183ZM110.121 211.793V216.867H160.45V211.793H110.121Z" fill="#3C6EB4"/>
<path d="M122.679 39.9794C113.626 39.9794 104.756 41.0248 99.4735 43.1266C84.9263 48.4514 73.7532 62.9931 70.4418 80.6101C66.0814 101.234 66.3413 117.376 62.0122 132.563C63.9914 131.054 66.1843 129.849 68.5188 128.986C71.9002 127.648 77.5698 126.977 83.3591 126.977C89.1485 126.977 95.0669 127.65 98.9038 128.986C107.332 132.065 113.98 139.975 116.733 149.791H134.652C138.323 143.004 143.926 137.764 150.569 135.34C157.795 132.475 174.842 132.482 183.051 135.34C183.941 135.664 184.806 136.059 185.658 136.481C180.012 120.135 180.729 103.015 175.993 80.6101C172.683 62.9931 161.506 48.4514 146.961 43.1266C140.962 41.0321 131.73 39.9812 122.679 39.9794Z" fill="#CCCCCC"/>
<path d="M93.4758 101.795C91.8419 101.797 90.2755 102.482 89.1209 103.7C87.9662 104.918 87.3177 106.569 87.3177 108.29C87.3177 110.012 87.9662 111.663 89.1209 112.881C90.2755 114.099 91.8419 114.784 93.4758 114.786C95.11 114.784 96.6768 114.099 97.8319 112.881C98.9869 111.663 99.6358 110.012 99.6357 108.29C99.6358 106.569 98.9872 104.918 97.8325 103.7C96.6779 102.482 95.1097 101.797 93.4758 101.795ZM155.776 101.795C154.142 101.797 152.576 102.482 151.421 103.7C150.267 104.918 149.618 106.569 149.618 108.29C149.618 110.012 150.267 111.663 151.421 112.881C152.576 114.099 154.142 114.784 155.776 114.786C156.587 114.787 157.39 114.621 158.139 114.295C158.888 113.969 159.569 113.491 160.143 112.888C160.717 112.284 161.172 111.568 161.482 110.779C161.793 109.99 161.953 109.144 161.953 108.29C161.953 107.436 161.793 106.591 161.482 105.802C161.172 105.013 160.717 104.296 160.143 103.693C159.569 103.09 158.888 102.612 158.139 102.286C157.39 101.96 156.587 101.793 155.776 101.795Z" fill="#E7E8E9"/>
<path d="M103.856 103.487L80.942 109.631L81.5983 112.087L104.516 105.943L103.856 103.487ZM147.221 103.487L146.561 105.943L169.473 112.087L170.133 109.631L147.221 103.487ZM106.15 107.19L83.1047 120.5L84.3769 122.699L107.418 109.391L106.15 107.19ZM144.94 107.19L143.668 109.391L166.711 122.699L167.984 120.5L144.94 107.19ZM107.835 111.605L91.9658 127.497C93.0462 127.633 94.075 127.805 95.0577 127.996L109.633 113.401L107.835 111.605ZM143.253 111.605L141.458 113.401L161.387 133.362C162.515 133.288 163.667 133.238 164.834 133.214L143.253 111.605ZM108.606 117.391L101.31 130.039C102.068 130.413 102.811 130.825 103.532 131.278L110.809 118.66L108.606 117.391ZM142.485 117.391L140.281 118.66L150.029 135.563C150.21 135.491 150.385 135.406 150.569 135.34C151.141 135.113 151.795 134.91 152.481 134.72L142.485 117.391Z" fill="#A7A9AC"/>
<path d="M145.075 103.736C145.075 106.21 144.563 108.66 143.569 110.946C142.574 113.231 141.116 115.308 139.278 117.058C137.44 118.807 135.258 120.195 132.856 121.142C130.454 122.088 127.88 122.576 125.28 122.576C122.681 122.576 120.106 122.089 117.704 121.142C115.303 120.195 113.12 118.808 111.282 117.058C109.443 115.309 107.985 113.232 106.991 110.946C105.996 108.66 105.484 106.21 105.484 103.736C105.484 101.262 105.996 98.8126 106.991 96.527C107.986 94.2414 109.444 92.1647 111.282 90.4155C113.121 88.6662 115.303 87.2787 117.705 86.3321C120.107 85.3855 122.681 84.8985 125.28 84.8987C130.53 84.8991 135.564 86.884 139.276 90.4167C142.988 93.9494 145.075 98.7405 145.075 103.736Z" fill="white"/>
<path d="M133.729 100.34C133.065 98.6199 133.065 95.1794 131.074 95.1794C129.082 95.1794 127.239 93.8888 125.28 93.8888C123.321 93.8888 121.482 95.1794 119.487 95.1794C117.496 95.1794 117.496 98.6199 116.832 100.342C116.169 102.06 125.28 107.651 125.28 107.651C125.28 107.651 134.392 102.06 133.729 100.34Z" fill="#808080"/>
<path d="M115.829 146.972C116.438 148.606 116.917 150.309 117.292 152.063H133.515C134.331 150.269 135.281 148.565 136.345 146.97L115.829 146.972ZM197.281 146.974C198.357 148.592 199.302 150.294 200.105 152.063H220.519V146.974H197.281Z" fill="#3C6EB4"/>
<path d="M83.361 126.977C77.5716 126.977 71.9002 127.648 68.5188 128.986C59.2152 132.386 52.0781 141.668 49.9614 152.909C48.8552 158.119 48.2191 162.849 47.6789 167.303H119.744C119.203 162.849 118.582 158.121 117.476 152.909C115.361 141.668 108.207 132.388 98.9019 128.988C95.0632 127.652 89.1485 126.979 83.3591 126.979L83.361 126.977Z" fill="#CCCCCC"/>
<path d="M64.6912 166.424C63.8503 166.45 63.0396 166.758 62.3773 167.303H67.0973C66.4096 166.739 65.5635 166.431 64.6912 166.426V166.424ZM104.553 166.424C103.712 166.45 102.9 166.758 102.237 167.303H106.961C106.272 166.738 105.425 166.43 104.551 166.426L104.553 166.424Z" fill="#E7E8E9"/>
<path d="M71.2162 167.063L70.3238 167.303H71.2826L71.2162 167.063ZM99.1896 167.063L99.125 167.303H100.084L99.1896 167.063Z" fill="#A7A9AC"/>
<path d="M85.0369 155.656C81.7528 155.665 78.6005 156.884 76.2455 159.057C73.8904 161.23 72.5169 164.187 72.4146 167.303H97.6408C97.5387 164.19 96.1677 161.236 93.8166 159.063C91.4655 156.891 88.3179 155.669 85.0369 155.656Z" fill="white"/>
<path d="M85.0369 161.383C83.7832 161.383 82.6087 162.213 81.3347 162.213C80.0606 162.213 80.0514 164.403 79.6274 165.5C79.4799 165.884 80.1215 166.575 80.9825 167.303H89.0877C89.9505 166.575 90.5774 165.884 90.4281 165.5C90.004 164.403 90.0114 162.213 88.7373 162.213C87.4652 162.213 86.2907 161.383 85.0369 161.383Z" fill="#808080"/>
<path d="M179.138 12.7048L76.3713 13.0072C75.9909 13.0089 75.6156 13.0959 75.2733 13.2619C74.9309 13.4278 74.6301 13.6684 74.393 13.9659L10.5439 94.5968C10.3097 94.895 10.1451 95.2419 10.0621 95.6119C9.97918 95.982 9.98 96.3659 10.0645 96.7356L33.222 196.967C33.3087 197.341 33.4785 197.69 33.7189 197.988C33.9593 198.287 34.2641 198.527 34.6104 198.691L127.323 243.054C127.669 243.216 128.046 243.299 128.427 243.295C128.808 243.292 129.184 243.203 129.527 243.035L221.987 198.131C222.332 197.963 222.634 197.72 222.872 197.419C223.109 197.117 223.276 196.767 223.359 196.392L245.939 96.0331C246.022 95.6623 246.02 95.2778 245.935 94.9077C245.849 94.5376 245.682 94.1913 245.445 93.8943L181.137 13.6451C180.896 13.3485 180.591 13.11 180.246 12.9472C179.9 12.7844 179.52 12.7016 179.138 12.7048ZM177.927 17.7936L240.707 96.1161L218.666 194.097L128.424 237.934L37.9125 194.639L15.3008 96.7853L77.6158 18.0812L177.927 17.7936Z" fill="#892CA0"/>
<path d="M206.625 186.515C205.508 178.911 204.966 170.64 202.902 160.911C200.638 148.893 192.996 138.97 183.049 135.338C174.84 132.48 157.795 132.473 150.569 135.338C140.622 138.97 132.98 148.893 130.716 160.911C128.655 170.642 128.111 178.911 126.993 186.515" fill="#CCCCCC"/>
<path d="M146.474 175.362C145.92 175.363 145.372 175.478 144.86 175.701C144.349 175.924 143.884 176.251 143.493 176.663C143.101 177.074 142.791 177.563 142.579 178.101C142.368 178.64 142.259 179.216 142.26 179.798C142.259 180.381 142.368 180.957 142.579 181.495C142.791 182.033 143.101 182.522 143.493 182.934C143.884 183.346 144.349 183.673 144.86 183.896C145.372 184.119 145.92 184.234 146.474 184.234C147.593 184.233 148.665 183.765 149.455 182.934C150.245 182.102 150.688 180.974 150.687 179.798C150.688 178.623 150.245 177.495 149.455 176.663C148.665 175.831 147.593 175.363 146.474 175.362ZM189.083 175.362C188.53 175.363 187.981 175.478 187.47 175.701C186.958 175.924 186.493 176.251 186.102 176.663C185.71 177.074 185.4 177.563 185.188 178.101C184.977 178.64 184.868 179.216 184.869 179.798C184.868 180.381 184.977 180.957 185.188 181.495C185.4 182.033 185.71 182.522 186.102 182.934C186.493 183.346 186.958 183.673 187.47 183.896C187.981 184.119 188.53 184.234 189.083 184.234C190.202 184.233 191.274 183.765 192.064 182.934C192.854 182.102 193.297 180.974 193.296 179.798C193.297 178.623 192.854 177.495 192.064 176.663C191.274 175.831 190.202 175.363 189.083 175.362Z" fill="#E7E8E9"/>
<path d="M153.47 176.129L137.798 180.327L138.458 182.783L154.126 178.585L153.47 176.129ZM183.331 176.129L182.671 178.585L198.343 182.783L199.003 180.327L183.331 176.129ZM154.937 178.696L139.184 187.778L140.453 189.978L156.204 180.899L154.937 178.696ZM181.865 178.696L180.593 180.899L196.344 189.978L197.616 187.778L181.865 178.696Z" fill="#A7A9AC"/>
<path d="M181.758 176.693C181.758 180.101 180.332 183.37 177.793 185.78C175.255 188.19 171.812 189.544 168.221 189.544C164.631 189.544 161.187 188.19 158.648 185.78C156.109 183.37 154.683 180.102 154.683 176.693C154.683 173.285 156.109 170.016 158.648 167.606C161.187 165.196 164.631 163.843 168.221 163.843C171.812 163.843 175.255 165.197 177.793 167.607C180.332 170.017 181.758 173.285 181.758 176.693Z" fill="white"/>
<path d="M173.998 174.374C173.544 173.201 173.544 170.852 172.182 170.852C170.821 170.852 169.564 169.975 168.221 169.975C166.881 169.975 165.622 170.854 164.259 170.854C162.899 170.854 162.899 173.201 162.443 174.376C161.99 175.549 168.221 179.361 168.221 179.361C168.221 179.361 174.453 175.549 173.998 174.374Z" fill="#808080"/>
<path d="M125.282 82.9978C113.37 82.9978 103.581 92.2571 103.581 103.744C103.581 115.23 113.37 124.49 125.282 124.49C137.197 124.49 146.985 115.23 146.985 103.744C146.985 92.2571 137.193 82.9978 125.282 82.9978ZM125.282 86.8125C135.235 86.8125 143.172 94.4235 143.172 103.744C143.172 113.066 135.235 120.673 125.282 120.673C115.332 120.673 107.392 113.066 107.392 103.744C107.392 94.4235 115.332 86.8125 125.282 86.8125ZM85.0369 153.741C77.1936 153.741 70.6926 159.751 70.4805 167.303H74.2952C74.5017 161.92 79.1572 157.554 85.0369 157.554C90.9185 157.554 95.5684 161.92 95.7749 167.303H99.5878C99.3795 159.753 92.8766 153.741 85.0369 153.741ZM168.225 161.94C159.771 161.94 152.774 168.504 152.774 176.686C152.774 184.872 159.771 191.447 168.225 191.447C176.681 191.447 183.674 184.871 183.674 176.686C183.674 168.504 176.682 161.94 168.225 161.94ZM168.225 165.755C174.724 165.755 179.859 170.672 179.859 176.688C179.859 182.699 174.724 187.634 168.225 187.634C161.728 187.634 156.591 182.699 156.591 176.686C156.591 170.675 161.728 165.755 168.225 165.755Z" fill="#60605B"/>
<path d="M39.4299 167.303V172.392H128.782C129.003 170.738 129.248 169.044 129.53 167.303H39.4299ZM84.7014 186.373V191.447H216.832V186.373H206.608L206.627 186.513H126.991L127.01 186.373H84.7014Z" fill="#3C6EB4"/>
<path d="M122.683 38.0748H122.679C113.493 38.0748 104.555 39.0778 98.7932 41.3622C83.5214 46.9728 72.0072 62.0583 68.5833 80.2211C65.5374 94.63 64.7299 106.815 63.1092 117.848C62.4178 122.565 61.5642 127.058 60.351 131.45C54.1541 136.345 49.7033 143.925 48.0753 152.561C46.9395 157.931 46.3108 162.775 45.7632 167.303H49.5945C50.1255 162.934 50.745 158.343 51.8126 153.309L51.8273 153.291V153.258C53.837 142.595 60.622 133.913 69.1733 130.791L69.2065 130.773L69.2212 130.758C72.1215 129.608 77.7154 128.889 83.3591 128.889C88.9955 128.889 94.8107 129.591 98.264 130.79C106.808 133.917 113.587 142.601 115.595 153.258V153.291L115.61 153.309C116.679 158.343 117.297 162.935 117.828 167.303H121.661C121.114 162.771 120.487 157.919 119.349 152.542C117.118 140.731 109.61 130.871 99.5565 127.2H99.5417L99.527 127.181C95.3011 125.714 89.2941 125.08 83.3573 125.076C77.4315 125.076 71.69 125.69 67.8347 127.215C66.8797 127.565 65.9541 127.989 65.047 128.446C65.7933 125.125 66.4083 121.776 66.8907 118.407C68.5409 107.156 69.3153 95.1149 72.3003 81.0029L72.3187 80.9844V80.9549C75.5195 63.9187 86.3423 49.9689 100.134 44.9207L100.152 44.9059H100.18C104.983 42.9958 113.777 41.8895 122.683 41.8914C131.575 41.8914 140.685 42.9663 146.301 44.9207C160.092 49.967 170.915 63.9168 174.112 80.9531L174.131 80.9899V81.0029C177.114 95.1149 177.907 107.156 179.557 118.407C180.3 123.474 181.264 128.382 182.654 133.222C178.24 131.887 172.322 131.286 166.438 131.286C160.114 131.286 153.999 131.949 149.907 133.568C139.225 137.477 131.239 147.949 128.859 160.522C126.765 170.401 126.208 178.736 125.105 186.229L128.887 186.788C130.021 179.076 130.543 170.884 132.574 161.302L132.593 161.283V161.271C134.746 149.83 142.038 140.48 151.233 137.125H151.246L151.279 137.106C154.414 135.864 160.398 135.097 166.44 135.097C172.479 135.097 178.698 135.847 182.415 137.14H182.433C191.609 140.506 198.883 149.843 201.036 161.271V161.302C203.066 170.882 203.603 179.076 204.737 186.786L208.522 186.229C207.421 178.735 206.863 170.399 204.77 160.52C202.657 149.353 196.119 139.846 187.199 135.119C185.348 129.564 184.212 123.885 183.325 117.848C181.708 106.823 180.906 94.6466 177.866 80.2543C174.448 62.0602 162.926 46.9304 147.625 41.329H147.592C141.205 39.0981 131.883 38.0767 122.683 38.0748ZM93.9754 61.0535C92.0168 61.0428 90.0821 61.4836 88.3215 62.3419C86.5609 63.2001 85.0218 64.4526 83.8237 66.0021L82.6567 67.5029L85.6915 69.8334L86.8549 68.316C87.6511 67.3046 88.6534 66.4743 89.7953 65.8801C90.9372 65.286 92.1924 64.9417 93.4776 64.87C95.8745 64.7686 98.3636 65.7329 100.067 67.4236L101.424 68.7806L104.122 66.0666L102.765 64.7262C100.419 62.4108 97.2659 61.0956 93.9699 61.0572L93.9754 61.0535ZM155.505 61.0535C152.209 61.0929 149.056 62.4095 146.71 64.7262L145.353 66.0666L148.036 68.7806L149.395 67.4236C150.265 66.5766 151.297 65.9138 152.429 65.475C153.562 65.0363 154.771 64.8305 155.984 64.87C158.52 64.9807 161.073 66.3026 162.622 68.3179L163.789 69.8334L166.805 67.5029L165.638 66.0021C164.444 64.4533 162.908 63.201 161.15 62.3427C159.393 61.4844 157.461 61.0432 155.505 61.0535ZM93.8777 77.8593C91.3506 77.8603 88.9272 78.8912 87.1405 80.7253C85.3537 82.5595 84.3497 85.0467 84.3492 87.6404C84.3492 90.2343 85.353 92.7221 87.1398 94.5566C88.9267 96.3912 91.3503 97.4223 93.8777 97.4233C95.1303 97.4245 96.3708 97.1724 97.5284 96.6813C98.6859 96.1903 99.7378 95.4698 100.624 94.5613C101.51 93.6527 102.213 92.5739 102.693 91.3863C103.172 90.1988 103.419 88.9259 103.419 87.6404C103.419 86.355 103.172 85.0823 102.692 83.895C102.212 82.7076 101.509 81.629 100.623 80.7206C99.7372 79.8123 98.6854 79.092 97.5279 78.6011C96.3705 78.1101 95.1301 77.858 93.8777 77.8593ZM155.584 77.8593C153.058 77.8608 150.635 78.8919 148.848 80.726C147.062 82.5601 146.058 85.0471 146.058 87.6404C146.058 90.234 147.061 92.7214 148.848 94.5559C150.634 96.3904 153.057 97.4218 155.584 97.4233C158.112 97.4223 160.535 96.3912 162.322 94.5566C164.109 92.7221 165.113 90.2343 165.113 87.6404C165.112 85.0471 164.109 82.5601 162.322 80.726C160.536 78.8919 158.111 77.8608 155.584 77.8593ZM125.282 91.9824C123.885 91.9824 122.74 92.412 121.788 92.7328C120.835 93.0555 120.074 93.2749 119.487 93.2749C118.442 93.2749 117.415 93.8483 116.856 94.5212C116.3 95.1924 116.036 95.8856 115.833 96.5457C115.427 97.8603 115.23 99.197 115.051 99.6616C114.642 100.72 115.033 101.563 115.357 102.116C115.68 102.669 116.075 103.104 116.519 103.554C117.411 104.45 118.54 105.348 119.679 106.185C120.846 107.04 122.017 107.818 122.887 108.386L122.841 109.153C122.412 109.504 121.366 110.431 119.633 111.017C118.608 111.364 117.575 111.487 116.679 111.259C115.918 111.063 115.16 110.392 114.382 109.376C114.432 108.974 114.45 108.81 114.541 108.148C114.701 106.991 114.933 105.591 115.038 105.176L111.334 104.251C111.113 105.136 110.925 106.426 110.759 107.623C110.593 108.818 110.471 109.841 110.471 109.841L110.392 110.523L110.759 111.097C112.103 113.209 113.895 114.491 115.739 114.961C117.583 115.433 119.371 115.147 120.865 114.644C122.801 113.986 124.379 112.929 125.249 112.265C126.121 112.929 127.69 113.989 129.621 114.644C131.114 115.149 132.884 115.433 134.728 114.961C136.572 114.489 138.366 113.209 139.708 111.097L140.077 110.525L139.995 109.841C139.995 109.841 139.874 108.818 139.708 107.623C139.542 106.424 139.35 105.136 139.133 104.251L135.43 105.176C135.534 105.591 135.766 106.991 135.928 108.148C136.017 108.801 136.039 108.96 136.085 109.362C135.303 110.387 134.555 111.063 133.788 111.261C132.891 111.487 131.861 111.364 130.836 111.017C129.103 110.431 128.055 109.504 127.628 109.153L127.594 108.436C128.478 107.864 129.674 107.072 130.882 106.187C132.021 105.348 133.15 104.448 134.044 103.55C134.486 103.102 134.885 102.667 135.205 102.116C135.532 101.563 135.919 100.72 135.51 99.6598C135.331 99.1988 135.119 97.8603 134.713 96.5438C134.51 95.8875 134.267 95.1905 133.708 94.5175C133.15 93.8464 132.123 93.2749 131.075 93.2749C130.491 93.2749 129.729 93.0536 128.778 92.7328C127.825 92.412 126.682 91.9824 125.282 91.9824ZM125.282 95.7971C125.845 95.7971 126.591 96.0147 127.55 96.3373C128.431 96.636 129.54 96.9642 130.802 97.025C130.845 97.0896 130.959 97.3016 131.075 97.6796C131.28 98.3433 131.488 99.3574 131.776 100.344C131.684 100.469 131.573 100.626 131.332 100.869C130.701 101.504 129.672 102.328 128.616 103.102C126.993 104.295 125.979 104.916 125.282 105.353C124.591 104.918 123.557 104.302 121.929 103.104C120.872 102.33 119.864 101.504 119.233 100.869C118.99 100.626 118.883 100.469 118.79 100.344C119.074 99.3574 119.285 98.3452 119.487 97.6796C119.551 97.4508 119.644 97.231 119.762 97.025C121.023 96.966 122.117 96.636 123 96.3373C123.955 96.0147 124.722 95.7971 125.282 95.7971ZM64.5455 139.743C61.9642 139.854 59.5489 141.115 57.9707 143.161L56.8091 144.677L59.8218 147.007L60.9889 145.488C61.4413 144.923 62.0074 144.459 62.6506 144.126C63.2938 143.794 63.9997 143.6 64.7225 143.558C65.4042 143.538 66.0828 143.656 66.7185 143.902C67.3543 144.149 67.9344 144.52 68.4247 144.994L69.7817 146.334L72.4607 143.622L71.1037 142.282C70.243 141.432 69.2166 140.768 68.0884 140.331C66.9602 139.894 65.7543 139.694 64.5455 139.743ZM104.809 139.743C103.602 139.694 102.398 139.894 101.272 140.33C100.146 140.767 99.122 141.432 98.264 142.282L96.9088 143.622L99.5878 146.332L100.947 144.994C101.437 144.52 102.016 144.149 102.652 143.902C103.287 143.655 103.966 143.537 104.647 143.556C105.37 143.598 106.077 143.791 106.72 144.124C107.364 144.457 107.93 144.922 108.382 145.488L109.531 147.007L112.562 144.677L111.397 143.161C110.613 142.148 109.617 141.317 108.48 140.726C107.342 140.136 106.09 139.801 104.809 139.743ZM188.892 146.956H188.888C186.478 146.984 184.173 147.946 182.459 149.64L181.102 150.979L183.784 153.689L185.138 152.35C185.675 151.832 186.311 151.427 187.008 151.159C187.704 150.891 188.448 150.765 189.194 150.789C190.743 150.853 192.33 151.668 193.276 152.894L194.443 154.41L197.461 152.081L196.294 150.566C195.471 149.498 194.424 148.623 193.227 148.002C192.031 147.381 190.713 147.029 189.366 146.97C189.209 146.965 189.052 146.956 188.892 146.956ZM146.81 146.956C146.65 146.956 146.491 146.963 146.331 146.972C144.982 147.031 143.662 147.383 142.462 148.003C141.263 148.624 140.214 149.498 139.387 150.566L138.225 152.081L141.257 154.412L142.418 152.894C142.91 152.276 143.526 151.769 144.228 151.406C144.93 151.043 145.7 150.833 146.489 150.789C147.237 150.765 147.982 150.891 148.681 151.159C149.38 151.427 150.018 151.832 150.558 152.35L151.915 153.691L154.598 150.981L153.241 149.64C151.526 147.946 149.22 146.983 146.81 146.956ZM64.9437 151.156C63.3276 151.156 61.7777 151.814 60.6348 152.984C59.4918 154.154 58.8493 155.74 58.8483 157.395C58.8467 158.216 59.0031 159.029 59.3086 159.788C59.6142 160.546 60.0629 161.236 60.629 161.817C61.1952 162.398 61.8677 162.859 62.6081 163.174C63.3484 163.488 64.1421 163.651 64.9437 163.651C65.7454 163.651 66.5391 163.488 67.2794 163.174C68.0198 162.859 68.6923 162.398 69.2584 161.817C69.8246 161.236 70.2733 160.546 70.5789 159.788C70.8844 159.029 71.0408 158.216 71.0392 157.395C71.0382 155.74 70.3957 154.154 69.2527 152.984C68.1098 151.814 66.5599 151.156 64.9437 151.156ZM104.422 151.156C103.62 151.154 102.826 151.314 102.085 151.626C101.344 151.939 100.67 152.398 100.102 152.978C99.5347 153.557 99.0842 154.246 98.7767 155.004C98.4691 155.762 98.3106 156.574 98.3101 157.395C98.3084 158.217 98.4654 159.032 98.772 159.791C99.0786 160.551 99.5288 161.242 100.097 161.823C100.665 162.404 101.339 162.865 102.081 163.179C102.824 163.492 103.619 163.653 104.422 163.651C105.224 163.651 106.017 163.488 106.758 163.174C107.498 162.859 108.171 162.398 108.737 161.817C109.303 161.236 109.752 160.546 110.057 159.788C110.363 159.029 110.519 158.216 110.518 157.395C110.517 155.74 109.874 154.154 108.731 152.984C107.588 151.814 106.038 151.156 104.422 151.156ZM146.742 159.04C145.015 159.043 143.361 159.746 142.141 160.996C140.921 162.247 140.235 163.941 140.233 165.708C140.234 167.476 140.92 169.171 142.14 170.422C143.36 171.672 145.015 172.376 146.742 172.379C147.598 172.38 148.446 172.208 149.238 171.874C150.03 171.539 150.749 171.048 151.355 170.428C151.961 169.809 152.442 169.073 152.771 168.263C153.099 167.453 153.268 166.585 153.269 165.708C153.268 164.832 153.098 163.964 152.77 163.154C152.442 162.345 151.961 161.609 151.355 160.99C150.748 160.371 150.029 159.88 149.238 159.545C148.446 159.21 147.598 159.039 146.742 159.04ZM188.951 159.04C188.094 159.039 187.246 159.21 186.455 159.545C185.663 159.88 184.944 160.371 184.338 160.99C183.732 161.609 183.251 162.345 182.922 163.154C182.594 163.964 182.425 164.832 182.424 165.708C182.424 166.585 182.594 167.453 182.922 168.263C183.25 169.073 183.731 169.809 184.337 170.428C184.943 171.048 185.663 171.539 186.454 171.874C187.246 172.208 188.094 172.38 188.951 172.379C190.678 172.377 192.334 171.674 193.555 170.423C194.776 169.172 195.462 167.477 195.463 165.708C195.461 163.941 194.775 162.245 193.554 160.995C192.333 159.745 190.678 159.042 188.951 159.04ZM85.0351 159.486C83.9915 159.486 83.184 159.794 82.5755 159.998C81.9671 160.201 81.5596 160.301 81.3328 160.301C80.4663 160.301 79.5684 160.81 79.1148 161.355C78.6612 161.899 78.475 162.425 78.3331 162.886C78.0454 163.813 77.9108 164.665 77.8537 164.816C77.4739 165.799 77.8352 166.549 78.0934 166.988C78.1634 167.11 78.2409 167.2 78.3146 167.305H84.1409C83.8539 167.116 83.5717 166.919 83.2946 166.715C82.6345 166.228 81.9911 165.718 81.6352 165.36V165.342C81.7514 164.862 81.8878 164.287 81.9708 164.016C81.98 163.986 81.9781 164.012 81.9892 163.988C82.664 163.889 83.3407 163.754 83.7887 163.601C84.4008 163.396 84.8249 163.3 85.0351 163.3C85.2434 163.3 85.6509 163.396 86.263 163.603C86.7111 163.754 87.3932 163.889 88.0662 163.988C88.0754 164.012 88.0717 163.988 88.081 164.016C88.1658 164.287 88.317 164.858 88.4313 165.343L88.4165 165.36C88.0607 165.718 87.4209 166.228 86.759 166.713C86.486 166.915 86.2094 167.112 85.9293 167.303H91.7556C91.8293 167.202 91.9067 167.108 91.975 166.988C92.2331 166.549 92.5963 165.799 92.2146 164.816C92.1593 164.667 92.0063 163.813 91.7168 162.886C91.5692 162.326 91.3033 161.804 90.9369 161.355C90.4834 160.81 89.6039 160.301 88.7373 160.301C88.5106 160.301 88.0994 160.203 87.491 159.998C86.8825 159.794 86.0786 159.486 85.0351 159.486ZM168.223 168.072C167.135 168.072 166.287 168.397 165.636 168.616C164.986 168.835 164.536 168.948 164.265 168.948C163.376 168.948 162.465 169.455 161.997 170.017C161.532 170.576 161.335 171.127 161.186 171.614C160.883 172.587 160.732 173.5 160.66 173.688C160.275 174.684 160.649 175.44 160.913 175.89C161.178 176.343 161.484 176.664 161.809 176.992C162.46 177.643 163.249 178.261 164.042 178.841C164.696 179.321 165.334 179.756 165.878 180.121C165.518 180.407 165.041 180.798 164.167 181.093C163.54 181.305 162.957 181.354 162.493 181.236C162.154 181.15 161.772 180.755 161.392 180.329C161.422 180.095 161.429 180.08 161.471 179.785C161.582 179.002 161.739 178.03 161.79 177.824L158.09 176.898C157.92 177.577 157.804 178.436 157.69 179.256C157.576 180.08 157.498 180.79 157.498 180.79L157.419 181.46L157.788 182.037C158.77 183.582 160.142 184.579 161.549 184.939C162.959 185.298 164.289 185.07 165.382 184.701C166.382 184.351 167.327 183.861 168.19 183.246C168.85 183.711 169.825 184.303 171 184.703C172.093 185.071 173.419 185.298 174.828 184.939C176.238 184.579 177.61 183.582 178.594 182.037L178.963 181.46L178.882 180.79C178.882 180.79 178.788 180.082 178.674 179.26C178.561 178.438 178.447 177.577 178.277 176.898L174.575 177.824C174.627 178.03 174.802 179.004 174.911 179.785C174.947 180.08 174.942 180.095 174.971 180.329C174.593 180.753 174.225 181.15 173.887 181.236C173.423 181.354 172.836 181.305 172.209 181.093C171.361 180.805 170.895 180.422 170.535 180.134C171.088 179.769 171.734 179.33 172.403 178.843C173.196 178.261 173.985 177.645 174.636 176.992C174.982 176.666 175.282 176.295 175.53 175.89C175.796 175.438 176.153 174.682 175.77 173.688C175.696 173.5 175.543 172.587 175.241 171.614C175.093 171.127 174.909 170.576 174.446 170.015C173.978 169.455 173.069 168.946 172.18 168.946C171.911 168.946 171.461 168.835 170.808 168.614C170.157 168.393 169.311 168.072 168.223 168.072ZM168.223 171.885C168.476 171.885 168.926 171.999 169.58 172.221C170.232 172.417 170.899 172.555 171.575 172.634C171.599 172.685 171.575 172.652 171.603 172.744C171.702 173.067 171.863 173.686 172.003 174.247L171.938 174.311C171.377 174.84 170.78 175.329 170.152 175.777C169.221 176.459 168.78 176.717 168.223 177.07C167.67 176.719 167.228 176.463 166.293 175.779C165.664 175.331 165.065 174.841 164.503 174.311C164.462 174.269 164.477 174.267 164.442 174.228C164.578 173.679 164.726 173.063 164.823 172.746C164.853 172.648 164.845 172.685 164.869 172.635C165.541 172.557 166.204 172.419 166.85 172.221C167.504 171.999 167.969 171.885 168.221 171.885H168.223Z" fill="black"/>
<path d="M93.874 75.9602C92.3652 75.9608 90.872 76.2658 89.4837 76.857C88.0955 77.4481 86.8408 78.3133 85.7947 79.4006C84.4815 80.7456 83.5109 82.3866 82.9646 84.1852C82.564 85.4968 82.3955 86.8682 82.4668 88.2377C82.5561 90.0329 83.0545 91.784 83.924 93.3571C84.7935 94.9303 86.011 96.2839 87.4836 97.3145C88.2485 97.8437 89.0751 98.2777 89.945 98.607C92.6614 99.6327 95.6704 99.56 98.3341 98.4042C99.357 97.9611 100.308 97.3683 101.157 96.6452C102.153 95.8054 103.001 94.8037 103.664 93.6823C105.062 91.334 105.6 88.5734 105.187 85.8722C104.959 84.3634 104.441 82.9128 103.662 81.6002C102.805 80.1608 101.65 78.9207 100.276 77.9625C99.5099 77.4338 98.6827 77.0004 97.8123 76.6719C96.5544 76.1995 95.2214 75.9584 93.8777 75.9602H93.874ZM155.584 75.9602C154.242 75.963 152.911 76.2059 151.653 76.6774C150.609 77.0692 149.629 77.6149 148.746 78.2962C147.714 79.0867 146.823 80.0454 146.109 81.1319C144.387 83.7379 143.769 86.9208 144.391 89.9819C144.839 92.207 145.92 94.2555 147.503 95.8819C148.28 96.6775 149.167 97.358 150.136 97.9027C151.119 98.4501 152.179 98.8478 153.28 99.0827C154.421 99.325 155.594 99.3853 156.755 99.2615C159.008 99.0264 161.136 98.1121 162.858 96.6397C163.996 95.6773 164.938 94.5057 165.635 93.1882C166.733 91.1245 167.192 88.7804 166.953 86.4548C166.78 84.742 166.237 83.0873 165.36 81.6058C164.407 80.0064 163.089 78.6555 161.514 77.6638C160.562 77.0715 159.527 76.6229 158.444 76.3327C157.512 76.0849 156.549 75.9597 155.584 75.9602ZM93.874 79.7583H93.8777C94.2665 79.7594 94.6548 79.789 95.0393 79.8468C95.9088 79.981 96.7474 80.2695 97.5154 80.6987C98.1661 81.0595 98.76 81.5143 99.2781 82.0483C99.9817 82.769 100.539 83.6193 100.919 84.5521C101.27 85.4042 101.47 86.3106 101.511 87.2311C101.555 88.1677 101.441 89.105 101.175 90.0041C100.882 90.9764 100.406 91.8838 99.7722 92.6775C99.1486 93.4517 98.3825 94.0995 97.5154 94.5858C96.0546 95.3947 94.3657 95.6932 92.7162 95.4339C90.8495 95.1435 89.1619 94.1574 87.9925 92.6738C87.3566 91.8818 86.8807 90.9739 86.5912 90.0004C86.3606 89.235 86.245 88.4397 86.2483 87.6404C86.25 86.8413 86.3661 86.0465 86.5931 85.2804C86.8861 84.3089 87.3617 83.4022 87.9943 82.6088C88.6157 81.8357 89.3792 81.1886 90.2437 80.7023C91.2386 80.1492 92.3465 79.8302 93.4832 79.7694C93.6122 79.762 93.7431 79.7583 93.874 79.7583ZM155.584 79.7583C156.354 79.7593 157.119 79.878 157.852 80.1105C158.8 80.412 159.678 80.9003 160.433 81.5468C161.197 82.1923 161.828 82.9801 162.292 83.8662C162.778 84.7863 163.078 85.7931 163.175 86.8291C163.329 88.4122 163.021 90.0059 162.29 91.4182C161.824 92.3019 161.194 93.089 160.433 93.7376C159.867 94.2178 159.233 94.6128 158.553 94.9103C157.617 95.3175 156.607 95.5277 155.586 95.5277C154.565 95.5277 153.556 95.3175 152.62 94.9103C151.708 94.5164 150.884 93.9455 150.195 93.2306C149.493 92.5096 148.937 91.6593 148.558 90.7268C148.208 89.8752 148.009 88.9694 147.968 88.0497C147.935 87.3764 147.984 86.7016 148.113 86.04C148.313 85.0339 148.703 84.0753 149.262 83.2154C149.808 82.3842 150.508 81.6646 151.323 81.0951C152.041 80.5986 152.839 80.23 153.682 80.0054C154.303 79.8413 154.942 79.7582 155.584 79.7583ZM64.7373 149.253C64.6684 149.251 64.5995 149.251 64.5308 149.255C60.2993 149.476 56.9511 153.079 56.9511 157.393C56.9511 161.848 60.5224 165.548 64.9456 165.548C69.3688 165.548 72.9548 161.848 72.9548 157.393C72.9548 152.939 69.3688 149.255 64.9456 149.255L64.7373 149.253ZM104.217 149.253C104.148 149.251 104.079 149.251 104.009 149.255C99.7777 149.476 96.4129 153.079 96.4129 157.393C96.4129 161.848 100.001 165.548 104.424 165.548C108.849 165.548 112.418 161.848 112.418 157.393C112.418 152.939 108.847 149.255 104.424 149.255L104.217 149.253ZM64.9456 153.07C67.2577 153.07 69.1401 154.952 69.1401 157.393C69.1401 159.834 67.2577 161.733 64.9456 161.733C62.6335 161.733 60.7621 159.834 60.7621 157.393C60.7621 154.952 62.6335 153.07 64.9456 153.07ZM104.424 153.07C106.736 153.07 108.606 154.952 108.606 157.393C108.606 159.834 106.736 161.733 104.424 161.733C102.112 161.733 100.228 159.834 100.228 157.393C100.228 154.952 102.112 153.07 104.424 153.07ZM146.744 157.122C142.088 157.122 138.318 161.014 138.318 165.707C138.318 170.401 142.088 174.293 146.744 174.293C151.401 174.293 155.169 170.403 155.169 165.707C155.169 161.014 151.401 157.122 146.744 157.122ZM188.953 157.122C184.297 157.122 180.527 161.014 180.527 165.707C180.527 170.401 184.297 174.293 188.953 174.293C193.61 174.293 197.378 170.403 197.378 165.707C197.378 161.014 193.61 157.122 188.953 157.122ZM146.626 160.935L146.745 160.937C149.29 160.937 151.355 163.028 151.355 165.707C151.355 168.387 149.29 170.478 146.745 170.478C144.201 170.478 142.132 168.387 142.132 165.707C142.132 163.111 144.068 161.06 146.506 160.937C146.546 160.935 146.586 160.933 146.626 160.935ZM188.833 160.935L188.954 160.937C191.499 160.937 193.564 163.028 193.564 165.707C193.564 168.387 191.499 170.478 188.954 170.478C186.41 170.478 184.341 168.387 184.341 165.707C184.341 163.111 186.277 161.06 188.715 160.937C188.754 160.935 188.793 160.933 188.833 160.935Z" fill="#892CA0"/>
<path d="M90.7009 80.0127C89.458 80.0117 88.2656 80.5238 87.3857 81.4365C86.5058 82.3493 86.0105 83.5879 86.0086 84.8802C86.0072 85.5216 86.1276 86.157 86.3628 86.75C86.598 87.343 86.9435 87.8819 87.3794 88.3358C87.8153 88.7897 88.3331 89.1497 88.9031 89.3951C89.473 89.6406 90.084 89.7666 90.7009 89.7661C91.3179 89.7666 91.9288 89.6406 92.4988 89.3951C93.0688 89.1497 93.5866 88.7897 94.0225 88.3358C94.4584 87.8819 94.8038 87.343 95.0391 86.75C95.2743 86.157 95.3947 85.5216 95.3933 84.8802C95.3914 83.5879 94.8961 82.3493 94.0162 81.4365C93.1363 80.5238 91.9438 80.0117 90.7009 80.0127ZM152.38 80.0127C151.137 80.0117 149.945 80.5238 149.065 81.4365C148.185 82.3493 147.689 83.5879 147.688 84.8802C147.686 85.5216 147.807 86.157 148.042 86.75C148.277 87.343 148.622 87.8819 149.058 88.3358C149.494 88.7897 150.012 89.1497 150.582 89.3951C151.152 89.6406 151.763 89.7666 152.38 89.7661C152.997 89.7661 153.607 89.6397 154.177 89.394C154.746 89.1483 155.264 88.7883 155.699 88.3344C156.135 87.8806 156.48 87.3419 156.715 86.7491C156.95 86.1564 157.07 85.5213 157.069 84.8802C157.067 83.5886 156.572 82.3505 155.693 81.4379C154.814 80.5253 153.622 80.0127 152.38 80.0127ZM62.9156 152.527C62.1208 152.528 61.3588 152.856 60.7969 153.439C60.2351 154.022 59.9195 154.813 59.9195 155.638C59.9193 156.047 59.9967 156.451 60.1474 156.829C60.2981 157.207 60.519 157.55 60.7976 157.839C61.0762 158.128 61.407 158.357 61.7711 158.514C62.1351 158.67 62.5253 158.75 62.9193 158.75C63.3133 158.75 63.7035 158.67 64.0675 158.514C64.4316 158.357 64.7624 158.128 65.041 157.839C65.3196 157.55 65.5405 157.207 65.6912 156.829C65.8419 156.451 65.9193 156.047 65.9191 155.638C65.9191 155.229 65.8415 154.825 65.6907 154.447C65.5399 154.07 65.3189 153.727 65.0404 153.438C64.7618 153.149 64.4311 152.92 64.0671 152.764C63.7032 152.607 63.3132 152.527 62.9193 152.527H62.9156ZM102.777 152.974C102.384 152.974 101.994 153.054 101.63 153.211C101.266 153.367 100.935 153.596 100.657 153.885C100.379 154.174 100.158 154.517 100.007 154.895C99.8567 155.273 99.7793 155.677 99.7796 156.086C99.7796 156.494 99.8572 156.899 100.008 157.277C100.159 157.654 100.38 157.997 100.658 158.286C100.937 158.575 101.268 158.804 101.632 158.96C101.995 159.116 102.385 159.196 102.779 159.196C103.173 159.197 103.564 159.117 103.928 158.961C104.293 158.805 104.624 158.576 104.903 158.287C105.182 157.998 105.403 157.655 105.554 157.277C105.705 156.9 105.783 156.495 105.783 156.086C105.783 155.677 105.705 155.271 105.554 154.893C105.403 154.515 105.182 154.172 104.903 153.883C104.624 153.593 104.292 153.364 103.927 153.208C103.563 153.052 103.172 152.973 102.777 152.974ZM144.575 160.507C143.726 160.507 142.912 160.856 142.31 161.477C141.709 162.099 141.37 162.943 141.367 163.824C141.366 164.262 141.449 164.695 141.609 165.1C141.77 165.504 142.006 165.872 142.304 166.181C142.602 166.491 142.956 166.737 143.346 166.904C143.736 167.072 144.153 167.158 144.575 167.158C144.997 167.158 145.415 167.072 145.804 166.904C146.194 166.737 146.548 166.491 146.846 166.181C147.144 165.872 147.38 165.504 147.541 165.1C147.702 164.695 147.784 164.262 147.783 163.824C147.781 162.943 147.442 162.099 146.841 161.477C146.239 160.856 145.424 160.507 144.575 160.507ZM187.437 160.935C187.015 160.935 186.597 161.021 186.207 161.189C185.817 161.356 185.463 161.602 185.165 161.912C184.867 162.222 184.631 162.59 184.47 162.995C184.309 163.4 184.227 163.834 184.229 164.272C184.231 165.153 184.57 165.998 185.171 166.62C185.773 167.242 186.588 167.591 187.437 167.591C188.286 167.591 189.101 167.242 189.703 166.62C190.304 165.998 190.643 165.153 190.645 164.272C190.646 163.834 190.565 163.4 190.404 162.995C190.243 162.59 190.007 162.222 189.709 161.912C189.411 161.602 189.057 161.356 188.667 161.189C188.277 161.021 187.859 160.935 187.437 160.935Z" fill="white"/>
</svg>
