<svg fill="none" height="256" viewBox="0 0 256 256" width="256" xmlns="http://www.w3.org/2000/svg" xmlns:xlink="http://www.w3.org/1999/xlink">
<radialGradient id="a" cx="0" cy="0" gradientTransform="matrix(-207.13706938 118.02435381 -288.47306195 -506.28080325 207.567 85.7697)" gradientUnits="userSpaceOnUse" r="1">
<stop offset="0" stop-color="#fbfdff"/>
<stop offset="1" stop-color="#fff" stop-opacity="0"/>
</radialGradient>
<g clip-path="url(#b)">
<path d="m196 0h-136c-33.1371 0-60 26.8629-60 60v136c0 33.137 26.8629 60 60 60h136c33.137 0 60-26.863 60-60v-136c0-33.1371-26.863-60-60-60z" fill="#0075ff"/>
<path d="m18.2499 164.938h5.1277c.689 0 1.2499.751 1.2499 1.686v25.62c0 .93-.5572 1.687-1.2499 1.687h-5.1277c-.689 0-1.2499-.752-1.2499-1.687v-25.62c0-.929.5572-1.686 1.2499-1.686zm11.8517-33.67h4.0133c.9975 0 1.8034 1.092 1.8034 2.433v31.237c0 1.345-.8096 2.433-1.8034 2.433h-4.0133c-.9977 0-1.8034-1.093-1.8034-2.433v-31.237c0-1.346.8094-2.433 1.8034-2.433zm-.5572 40.231h5.1277c.689 0 1.2499.752 1.2499 1.686v27.129c0 .929-.5571 1.686-1.2499 1.686h-5.1277c-.689 0-1.25-.752-1.25-1.686v-27.129c0-.929.5572-1.686 1.25-1.686zm11.298-74.2153h5.1279c.6888 0 1.2497.7516 1.2497 1.6858v50.7995c0 .929-.5571 1.686-1.2497 1.686h-5.1279c-.6887 0-1.2496-.752-1.2496-1.686v-50.7995c0-.9291.5571-1.6858 1.2496-1.6858zm0 58.9393h5.1279c.6888 0 1.2497.752 1.2497 1.686v15.753c0 .93-.5571 1.687-1.2497 1.687h-5.1279c-.6887 0-1.2496-.752-1.2496-1.687v-15.753c0-.929.5571-1.686 1.2496-1.686zm.5574 31.964h4.0131c.9978 0 1.8034 1.092 1.8034 2.432v8.938c0 1.346-.8094 2.433-1.8034 2.433h-4.0131c-.9977 0-1.8033-1.092-1.8033-2.433v-8.938c0-1.346.8094-2.432 1.8033-2.432zm10.7409-114.9953h5.1276c.6893 0 1.25.7516 1.25 1.686v35.9293c0 .93-.5569 1.687-1.25 1.687h-5.1276c-.6888 0-1.25-.752-1.25-1.687v-35.9394c0-.9294.5575-1.6861 1.25-1.6861zm0 43.6743h5.1314c.6893 0 1.2462.751 1.2462 1.681v48.702c0 .929-.5569 1.681-1.2462 1.681h-5.1314c-.6888 0-1.2462-.752-1.2462-1.681v-48.702c0-.93.5574-1.681 1.2462-1.681zm11.2982-51.0888h5.128c.6887 0 1.2496.7516 1.2496 1.686v23.96c0 .9294-.5571 1.6861-1.2496 1.6861h-5.128c-.689 0-1.2496-.7516-1.2496-1.6861v-23.965c0-.9294.5568-1.6861 1.2496-1.6861zm0 31.542h5.128c.6887 0 1.2496.7516 1.2496 1.6861v34.4717c0 .93-.5571 1.687-1.2496 1.687h-5.128c-.689 0-1.2496-.752-1.2496-1.687v-34.4717c0-.9295.5568-1.6861 1.2496-1.6861zm0 42.8058h5.128c.6887 0 1.2496.752 1.2496 1.686v30.973c0 .93-.5571 1.686-1.2496 1.686h-5.128c-.689 0-1.2496-.751-1.2496-1.686v-30.973c0-.93.5568-1.686 1.2496-1.686zm11.8479-80.3606h4.0136c.9975 0 1.8031 1.0919 1.8031 2.4326v44.984c0 1.346-.8094 2.433-1.8031 2.433h-4.0136c-.9977 0-1.8033-1.092-1.8033-2.433v-44.984c0-1.3458.8093-2.4326 1.8033-2.4326zm0 54.8216h4.0136c.9975 0 1.8031 1.091 1.8031 2.432v10.442c0 1.345-.8094 2.432-1.8031 2.432h-4.0136c-.9977 0-1.8033-1.092-1.8033-2.432v-10.442c0-1.345.8093-2.432 1.8033-2.432zm0 18.78h4.0099c.9975 0 1.803 1.092 1.803 2.432v46.488c0 1.346-.8093 2.432-1.803 2.432h-4.0099c-.9977 0-1.8033-1.091-1.8033-2.432v-46.488c0-1.345.8093-2.432 1.8033-2.432zm11.2983-79.6093h4.0133c.9975 0 1.8031 1.0918 1.8031 2.4325v8.938c0 1.3458-.8094 2.4325-1.8031 2.4325h-4.0133c-.9975 0-1.8036-1.0918-1.8036-2.4325v-8.9329c0-1.3458.8099-2.4325 1.8036-2.4325zm0 18.0181h4.0133c.9975 0 1.8031 1.0919 1.8031 2.4326v69.0156c0 1.346-.8094 2.433-1.8031 2.433h-4.0133c-.9975 0-1.8036-1.093-1.8036-2.433v-69.0106c0-1.3457.8099-2.4325 1.8036-2.4325zm0 78.8522h4.0133c.9975 0 1.8031 1.092 1.8031 2.432v18.699c0 1.346-.8094 2.433-1.8031 2.433h-4.0133c-.9975 0-1.8036-1.092-1.8036-2.433v-18.699c0-1.345.8099-2.432 1.8036-2.432zm0 28.541h4.0133c.9975 0 1.8031 1.091 1.8031 2.432v11.944c0 1.346-.8094 2.433-1.8031 2.433h-4.0133c-.9975 0-1.8036-1.092-1.8036-2.433v-11.944c0-1.346.8099-2.432 1.8036-2.432zm11.2982-3.758h4.0127c.998 0 1.804 1.092 1.804 2.432v21.71c0 1.346-.81 2.433-1.804 2.433h-4.0127c-.9977 0-1.8033-1.092-1.8033-2.433v-21.71c0-1.346.8094-2.432 1.8033-2.432zm0-75.095h4.0127c.998 0 1.804 1.092 1.804 2.433v53.242c0 1.346-.81 2.432-1.804 2.432h-4.0127c-.9977 0-1.8033-1.092-1.8033-2.432v-53.242c0-1.346.8094-2.433 1.8033-2.433zm0-47.315h4.0127c.998 0 1.804 1.0919 1.804 2.4325v37.4736c0 1.3456-.81 2.4323-1.804 2.4323h-4.0127c-.9977 0-1.8033-1.0918-1.8033-2.4323v-37.4685c0-1.3457.8094-2.4325 1.8033-2.4325zm11.2977 133.673h4.014c.997 0 1.803 1.092 1.803 2.433v10.441c0 1.346-.809 2.433-1.803 2.433h-4.014c-.997 0-1.803-1.092-1.803-2.433v-10.441c0-1.346.809-2.433 1.803-2.433zm0-132.9214h4.014c.997 0 1.803 1.0919 1.803 2.4325v63.7599c0 1.345-.809 2.432-1.803 2.432h-4.014c-.997 0-1.803-1.092-1.803-2.432v-63.7548c0-1.3457.809-2.4325 1.803-2.4325zm0 73.5964h4.014c.997 0 1.803 1.092 1.803 2.432v26.21c0 1.346-.809 2.432-1.803 2.432h-4.014c-.997 0-1.803-1.092-1.803-2.432v-26.21c0-1.346.809-2.432 1.803-2.432zm11.291-70.59h4.013c.998 0 1.804 1.0918 1.804 2.4326v17.947c0 1.3457-.81 2.4325-1.804 2.4325h-4.013c-.997 0-1.803-1.0918-1.803-2.4325v-17.942c0-1.3457.809-2.4325 1.803-2.4325zm0 27.784h4.013c.998 0 1.804 1.0918 1.804 2.4323v69.0157c0 1.346-.81 2.432-1.804 2.432h-4.013c-.997 0-1.803-1.092-1.803-2.432v-69.0106c0-1.3456.809-2.4323 1.803-2.4323zm11.295-26.2808h4.013c.998 0 1.803 1.0919 1.803 2.4326v39.7282c0 1.346-.809 2.433-1.803 2.433h-4.013c-.998 0-1.804-1.092-1.804-2.433v-39.7231c0-1.3458.81-2.4326 1.804-2.4326zm0 49.5648h4.013c.998 0 1.803 1.092 1.803 2.433v32.974c0 1.346-.809 2.432-1.803 2.432h-4.013c-.998 0-1.804-1.091-1.804-2.432v-32.974c0-1.346.81-2.433 1.804-2.433zm0 42.801h4.013c.998 0 1.803 1.092 1.803 2.432v14.946c0 1.346-.809 2.433-1.803 2.433h-4.013c-.998 0-1.804-1.092-1.804-2.433v-14.946c0-1.345.81-2.432 1.804-2.432zm11.226-90.111h4.014c.997 0 1.803 1.0919 1.803 2.4326v61.5044c0 1.345-.809 2.433-1.803 2.433h-4.014c-.997 0-1.803-1.093-1.803-2.433v-61.4994c0-1.3457.809-2.4325 1.803-2.4325zm0 71.342h4.014c.997 0 1.803 1.091 1.803 2.432v48.738c0 1.345-.809 2.431-1.803 2.431h-4.014c-.997 0-1.803-1.091-1.803-2.431v-48.738c0-1.346.809-2.432 1.803-2.432zm11.219-73.5968h4.013c.998 0 1.804 1.0919 1.804 2.4326v26.2097c0 1.3455-.81 2.4323-1.804 2.4323h-4.013c-.997 0-1.803-1.0918-1.803-2.4323v-26.2046c0-1.3458.809-2.4326 1.803-2.4326zm0 36.0465h4.013c.998 0 1.804 1.0918 1.804 2.4327v76.5316c0 1.345-.81 2.432-1.804 2.432h-4.013c-.997 0-1.803-1.092-1.803-2.432v-76.5266c0-1.3459.809-2.4326 1.803-2.4326zm0 86.3633h4.013c.998 0 1.804 1.092 1.804 2.432v14.195c0 1.345-.81 2.432-1.804 2.432h-4.013c-.997 0-1.803-1.092-1.803-2.432v-14.195c0-1.345.809-2.432 1.803-2.432zm11.295-4.505h4.013c.998 0 1.804 1.092 1.804 2.433v20.953c0 1.346-.81 2.433-1.804 2.433h-4.013c-.998 0-1.804-1.092-1.804-2.433v-20.953c0-1.346.81-2.433 1.804-2.433zm0-63.83h4.013c.998 0 1.804 1.092 1.804 2.433v14.199c0 1.345-.81 2.432-1.804 2.432h-4.013c-.998 0-1.804-1.092-1.804-2.432v-14.199c0-1.346.81-2.433 1.804-2.433zm0-54.8213h4.013c.998 0 1.804 1.0918 1.804 2.4325v44.9848c0 1.346-.81 2.432-1.804 2.432h-4.013c-.998 0-1.804-1.091-1.804-2.432v-44.9848c0-1.3457.81-2.4325 1.804-2.4325zm11.449 3.758h4.013c.998 0 1.803 1.0919 1.803 2.4326v56.9997c0 1.346-.809 2.433-1.803 2.433h-4.013c-.998 0-1.804-1.092-1.804-2.433v-56.9997c0-1.3458.81-2.4326 1.804-2.4326zm0 126.9143h4.013c.998 0 1.803 1.092 1.803 2.432v8.938c0 1.346-.809 2.433-1.803 2.433h-4.013c-.998 0-1.804-1.092-1.804-2.433v-8.938c0-1.346.81-2.432 1.804-2.432zm11.136-122.4047h4.013c.998 0 1.804 1.0919 1.804 2.4326v14.1992c0 1.3456-.81 2.4323-1.804 2.4323h-4.013c-.998 0-1.803-1.0918-1.803-2.4323v-14.1992c0-1.3458.809-2.4326 1.803-2.4326zm0 24.026h4.013c.998 0 1.804 1.0917 1.804 2.4323v26.9614c0 1.346-.81 2.432-1.804 2.432h-4.013c-.998 0-1.803-1.091-1.803-2.432v-26.9614c0-1.3456.809-2.4323 1.803-2.4323zm11.438-20.2782h4.013c.998 0 1.803 1.0919 1.803 2.4326v8.9381c0 1.3456-.809 2.4323-1.803 2.4323h-4.013c-.998 0-1.804-1.0918-1.804-2.4323v-8.9381c0-1.3458.81-2.4326 1.804-2.4326zm0 18.0234h4.013c.998 0 1.803 1.0918 1.803 2.4326v8.1862c0 1.3456-.809 2.4327-1.803 2.4327h-4.013c-.998 0-1.804-1.0921-1.804-2.4327v-8.1862c0-1.3459.81-2.4326 1.804-2.4326zm0 17.2715h4.013c.998 0 1.803 1.092 1.803 2.433v13.442c0 1.346-.809 2.432-1.803 2.432h-4.013c-.998 0-1.804-1.091-1.804-2.432v-13.442c0-1.346.81-2.433 1.804-2.433zm11.294-30.7852h4.013c.998 0 1.804 1.0918 1.804 2.4325v46.4877c0 1.345-.81 2.432-1.804 2.432h-4.013c-.998 0-1.803-1.091-1.803-2.432v-46.4927c0-1.3458.809-2.4326 1.803-2.4326zm11.223 13.5137h4.013c.998 0 1.804 1.0918 1.804 2.4326v31.4659c0 1.346-.81 2.432-1.804 2.432h-4.013c-.998 0-1.803-1.092-1.803-2.432v-31.4659c0-1.3459.809-2.4326 1.803-2.4326zm11.136 17.2715h4.013c.998 0 1.804 1.092 1.804 2.433v8.937c0 1.346-.81 2.433-1.804 2.433h-4.013c-.997 0-1.803-1.092-1.803-2.433v-8.937c0-1.346.809-2.433 1.803-2.433z" fill="url(#a)" fill-rule="evenodd"/>
</g>
</svg>