<svg width="256" height="256" viewBox="0 0 256 256" fill="none" xmlns="http://www.w3.org/2000/svg">
  <rect width="256" height="256" rx="60" fill="#F4F2ED"/>
  <path fill="#0062FF" d="M56.3 79.5C83.2 39.8 137.1 29.4 176.8 56.3c39.7 26.9 50.1 80.8 23.3 120.5-26.9 39.7-80.9 50.1-120.6 23.3C39.8 173.2 29.4 119.2 56.3 79.5Zm55.8-27.9c-20.3 6.4-38.7 21.4-49.7 42.9-17.2 33.7-10.9 72.6 13 95.2-13.2-20-16.5-50.5-6.6-81 8.5-26 24.7-46.4 43.3-57.1Zm30.6 153.6c20.9-6.1 39.9-21.3 51.2-43.4 17.1-33.3 11.1-71.8-12.3-94.5 12.6 20 15.7 50 5.9 80-8.7 26.8-25.6 47.5-44.8 57.9Zm4.8-9.8c14.1-12.1 25.7-32.2 30.9-56.5 8.2-38.3-2.5-74-24.2-85.9 11.5 15.5 17.3 45.6 13.7 79.3-2.7 25.7-10.4 48.2-20.4 63.1Zm-69.5-77.9c-8.3 38.6 2.7 74.5 24.7 86.1-11.8-15.3-17.9-45.7-14.2-79.8 2.7-25.3 10.2-47.6 19.9-62.4-13.9 12.1-25.3 32.1-30.4 56.1Zm49-60.6c-15.8 0.2-28.2 32.4-27.6 71.8 0.6 39.3 14 71.1 29.9 70.8 15.9-0.2 28.2-32.4 27.6-71.8-0.6-39.3-14-71.1-29.9-70.8Z"/>
</svg>
