<svg width="256" height="256" viewBox="0 0 256 256" fill="none" xmlns="http://www.w3.org/2000/svg">
<path d="M196 0H60C26.8629 0 0 26.8629 0 60V196C0 229.137 26.8629 256 60 256H196C229.137 256 256 229.137 256 196V60C256 26.8629 229.137 0 196 0Z" fill="#242938"/>
<path d="M104.355 73.7593H101.391V89.1319H104.355V73.7593ZM117.11 73.7593H114.146V89.1319H117.11V73.7593ZM134.548 44.4331L131.505 39.167L80.7676 68.4932L83.8106 73.7593L134.548 44.4331Z" fill="#3BBCED"/>
<path d="M134.248 44.4331L137.291 39.167L188.029 68.4932L184.986 73.7593L134.248 44.4331Z" fill="#3BBCED"/>
<path d="M197 73.8382V67.7522H58V73.8382H197Z" fill="#3BBCED"/>
<path d="M141.959 159.799V69.5971H148.045V164.166C146.421 162.322 144.339 160.981 141.959 159.799ZM131.584 158.238V31H137.67V158.979C135.951 158.159 131.805 158.238 131.584 158.238ZM73.9564 170.93C66.5461 165.443 61.6426 156.677 61.6426 146.728C61.6426 141.462 63.0458 136.259 65.6473 131.734H117.567C120.232 136.259 121.572 141.462 121.572 146.728C121.572 151.332 120.973 155.636 119.128 159.499C115.202 155.715 109.416 154.076 103.551 154.076C93.1604 154.076 84.2679 160.54 81.966 170.189C81.1461 170.11 80.6258 170.047 79.8217 170.047C77.8035 170.11 75.88 170.41 73.9564 170.93Z" fill="#3BBCED"/>
<path d="M99.4669 95.959H83.7474V111.773H99.4669V95.959ZM81.7293 95.959H66.0098V111.773H81.7293V95.959ZM81.7293 113.555H66.0098V129.369H81.7293V113.555ZM99.4669 113.555H83.7474V129.369H99.4669V113.555ZM117.11 113.555H101.39V129.369H117.11V113.555ZM117.11 87.4922H101.39V103.306H117.11V87.4922Z" fill="#3BBCED"/>
<path d="M84.5505 173.311C86.6948 164.182 94.9408 157.355 104.732 157.355C111.039 157.355 116.667 160.177 120.53 164.639C123.873 162.337 127.878 160.997 132.245 160.997C143.66 160.997 152.931 170.268 152.931 181.715C152.931 184.095 152.568 186.319 151.827 188.463C154.35 191.884 155.911 196.189 155.911 200.792C155.911 212.223 146.64 221.51 135.209 221.51C130.164 221.51 125.56 219.728 122.012 216.764C118.228 222.03 112.079 225.531 105.095 225.531C97.0851 225.531 90.1162 220.927 86.6317 214.242C85.2285 214.541 83.8094 214.683 82.3274 214.683C70.9122 214.683 61.5625 205.396 61.5625 193.965C61.5625 182.535 70.8334 173.248 82.3274 173.248C83.0684 173.169 83.8094 173.169 84.5505 173.311Z" fill="#3BBCED"/>
</svg>
