<svg width="256" height="256" viewBox="0 0 256 256" fill="none" xmlns="http://www.w3.org/2000/svg">
<rect width="256" height="256" rx="60" fill="#F4F2ED"/>
<path fill-rule="evenodd" clip-rule="evenodd" d="M69.6588 112.664C69.9118 112.855 70.3508 112.979 69.9118 113.356C69.5968 113.795 69.2198 114.172 68.9692 114.675C68.7187 115.117 68.5302 115.241 68.1532 114.928C68.6543 114.11 69.1554 113.354 69.6564 112.662L69.6588 112.664ZM195.872 178.561C195.872 178.747 195.934 178.871 195.934 179.062C196.06 178.811 196.06 178.685 196.125 178.561H195.872ZM183.063 203.646L172.135 143.034C171.949 142.975 171.698 142.851 171.257 142.724C171.383 142.975 171.448 143.163 171.51 143.352C171.82 143.29 171.949 143.29 172.073 143.228C172.073 143.165 172.073 143.103 172.137 143.037L183.065 203.653L183.063 203.646ZM171.76 129.391C171.698 129.577 171.698 129.768 171.698 129.956C171.698 129.765 171.698 129.574 171.765 129.388L171.76 129.391ZM171.822 130.646C171.76 130.646 171.76 130.646 171.698 130.579V130.641C171.765 130.703 171.765 130.703 171.827 130.641L171.822 130.646ZM171.698 131.147V130.705C171.514 130.767 171.326 130.767 171.073 130.832C171.388 130.951 171.703 131.018 171.703 131.142L171.698 131.147Z" fill="#DD3735"/>
<path fill-rule="evenodd" clip-rule="evenodd" d="M220.611 115.871C220.487 113.418 220.425 110.965 220.172 108.515C219.733 105.181 219.294 101.786 218.54 98.5167C217.974 95.8133 217.036 93.2339 216.092 90.6569C214.898 87.6385 213.705 84.558 212.197 81.6661C209.749 77.0132 206.547 72.8614 203.596 68.5234C201.644 65.7556 199.134 63.4935 197.248 60.6636C196.182 59.0291 194.612 57.6476 193.042 56.3925C190.529 54.3762 187.893 52.5509 185.256 50.7923C183.247 49.4084 181.238 48.0889 179.1 46.8934C177.406 45.9461 175.585 45.1921 173.827 44.3737C171.817 43.4312 169.87 42.2978 167.611 41.8587C167.043 41.7394 166.542 41.5486 165.976 41.3577C164.533 40.8566 163.151 40.2911 161.705 39.8496C159.51 39.1577 157.374 38.3416 155.112 37.7737C152.922 37.2082 150.66 36.8336 148.398 36.5163C145.888 36.1464 143.315 36.0152 140.8 35.7694C139.168 35.5785 137.536 35.3924 135.966 35.3304C133.58 35.2063 131.132 35.2063 128.746 35.1443C127.553 35.0798 126.298 34.9534 125.105 35.0178C123.284 35.0798 121.464 35.2683 119.641 35.5189C117.884 35.7098 116.126 36.02 114.432 36.2753C112.363 36.5258 110.292 36.6523 108.218 36.9052C106.271 37.1581 104.262 37.5351 102.317 37.8501C101.625 37.9766 100.933 38.2271 100.242 38.3512C98.7383 38.6661 97.1682 38.7926 95.6602 39.2961C92.9639 40.1169 90.2604 41.0618 87.6238 42.0639C85.1733 43.0709 82.7872 44.1399 80.4655 45.3973C78.0794 46.7145 75.8174 48.2845 73.5577 49.7973C71.4198 51.2433 69.2866 52.7513 67.2107 54.3858C65.2064 55.9606 63.3214 57.7192 61.4984 59.4801C60.4962 60.4823 59.6778 61.6801 58.7353 62.8111C57.1676 64.6365 55.5975 66.395 54.0895 68.2824C52.8392 69.8573 51.7034 71.4894 50.5104 73.1262C48.3796 76.0134 46.559 79.0963 44.8649 82.1791C44.1729 83.4366 43.5453 84.6941 42.9178 85.9491C41.9753 87.8342 40.9707 89.6595 40.0926 91.609C39.4627 92.9309 38.9616 94.3769 38.5846 95.8228C37.7089 98.9057 36.8285 102.051 36.0124 105.129C35.2584 107.897 35.0699 110.788 35.0102 113.618C34.9458 116.133 35.1964 118.586 35.4469 121.101C35.5113 121.731 35.1367 122.485 35.8859 122.986C35.6354 123.678 35.8239 124.06 36.1961 124.179C35.7619 124.871 36.387 125.315 36.1389 125.945C36.0745 126.069 36.3298 126.32 36.4491 126.508C36.4491 126.699 36.3894 126.95 36.4491 127.138C36.5159 127.704 36.7664 128.269 36.7664 128.899C36.7664 129.338 37.141 129.841 37.2675 130.283C37.3295 130.469 37.2675 130.784 37.141 130.91C36.764 131.35 36.8261 131.727 37.3916 131.979C37.7089 132.795 37.5825 133.172 37.5204 133.554C37.6445 134.117 37.456 134.306 37.5204 134.432C38.0215 135.439 38.2124 136.57 38.2721 137.701C38.2721 137.954 38.3985 138.207 38.525 138.52C38.587 138.52 38.525 139.713 38.525 139.713C38.8352 139.527 39.0905 139.465 39.4031 139.338C39.594 140.154 39.7801 140.913 40.0306 141.605C40.3456 142.106 40.3456 142.354 40.2215 142.416C40.472 143.547 40.5961 144.616 41.0328 145.685C41.0328 144.492 40.9135 143.299 40.7226 142.166C41.6007 142.481 42.3547 142.793 42.8581 142.793C42.9226 142.602 42.9846 142.354 43.049 142.228C42.672 141.853 42.3571 141.288 41.9801 140.911C42.1065 141.412 41.9801 141.603 41.9801 141.793C41.7295 141.665 41.4145 141.538 41.102 141.412C41.3525 141.102 41.603 140.784 41.9801 140.41C41.9801 139.842 41.6699 139.336 40.787 139.4C41.164 139.276 41.541 139.09 41.9801 138.961C42.672 138.587 41.918 137.895 41.918 137.014C41.9801 135.948 41.3525 134.879 41.164 133.745C40.849 131.987 40.9135 129.345 40.725 127.584C40.348 127.269 40.033 128.085 39.971 128.15C40.1618 129.658 40.348 131.166 40.472 132.676C40.0974 131.419 39.8445 130.035 39.5319 128.524C39.4675 128.966 39.4054 129.154 39.4054 129.407C39.0953 129.717 39.3434 130.099 39.5319 130.538C39.0929 130.347 38.5894 130.414 38.5894 130.414V132.175C37.9642 131.545 37.7781 131.044 37.4608 130.6C37.3367 130.099 37.2699 129.598 37.1506 129.097C37.2699 128.78 37.1506 128.591 37.1506 128.405C37.0838 127.961 37.0217 127.46 36.9597 126.892C37.0217 126.83 36.8977 125.89 36.8977 125.89C37.3987 125.95 37.7161 126.009 38.0287 126.009C37.4011 125.198 37.8378 124.692 38.0931 124.189C38.2196 123.936 38.6586 123.879 38.7851 123.621C39.2861 122.678 40.1046 121.927 40.1046 120.729C40.1046 120.163 40.2955 119.536 40.3551 118.968C40.4816 117.899 40.6057 116.83 40.6653 115.761C40.7942 114.377 40.6653 112.993 40.9827 111.674C41.4885 109.478 42.1161 107.276 42.8056 105.074C43.3067 103.499 43.8746 101.996 44.4998 100.421C45.4423 97.9679 46.3228 95.515 47.5158 93.191C49.2099 89.7932 51.157 86.5242 53.042 83.1932C54.2351 81.1173 55.4902 79.1678 56.8121 77.1564C58.0648 75.2069 59.3175 73.1954 60.7658 71.3701C62.7773 68.7931 64.9749 66.4022 67.4231 64.2642C69.9356 62.0022 72.3217 59.6758 75.0204 57.5999C78.5328 54.8892 82.2408 52.5031 86.1921 50.4272C89.3967 48.7331 92.7229 47.4064 96.0515 46.149C98.1871 45.3329 100.509 44.9559 102.709 44.2639C105.219 43.4455 107.731 43.0709 110.368 43.0065C112.062 42.942 113.697 42.7535 115.391 42.565C116.899 42.4457 118.405 42.3169 120.039 42.1284C119.848 42.3789 119.786 42.5054 119.724 42.6295C119.037 43.6364 118.283 44.6433 117.591 45.6479C117.025 46.4663 116.398 47.3468 115.832 48.1628C114.825 49.4871 113.756 50.8066 112.816 52.1906C111.373 54.2665 110.053 56.4044 108.545 58.4779C107.042 60.4894 105.407 62.3768 103.837 64.3239C101.766 67.0297 99.8192 69.7952 97.748 72.4987C95.863 75.0757 93.8587 77.5334 92.0357 80.1103C90.4036 82.37 88.9576 84.7632 87.3876 87.0849C85.0659 90.5448 82.7418 93.9378 80.4202 97.3977C78.5972 100.037 76.7766 102.616 74.8939 105.257C74.7675 105.448 74.579 105.506 74.3929 105.632C73.8918 106.448 73.8918 106.89 73.7009 107.267C73.1998 108.209 72.6987 109.152 72.1308 110.034C71.8159 110.536 71.3768 110.975 70.9998 111.478C70.9378 110.724 72.002 110.347 71.5009 109.402C71.1907 109.908 70.8734 110.347 70.5608 110.851L69.8068 112.354C70.0573 112.545 70.4987 112.671 70.0573 113.046C69.8664 113.363 69.6803 113.738 69.4918 114.055C69.8068 113.864 69.9929 113.678 70.1838 113.425C70.1838 114.117 69.8068 114.68 69.4918 115.246C69.2413 115.747 68.6137 116.129 68.1747 116.503C68.2367 116.568 68.6758 116.756 68.7402 116.818C69.3057 116.627 69.4942 116.317 69.5586 116.503C69.7495 116.253 69.9356 116.064 69.9977 115.876C70.2458 115.246 70.6228 114.745 71.2504 114.492C71.5033 114.365 71.6894 114.177 71.8779 113.991C73.7629 112.039 75.71 110.154 77.4041 108.078C80.0432 104.869 82.4293 101.54 84.9442 98.271C86.0084 96.887 87.2659 95.5031 88.3945 94.1812C88.5806 95.6272 88.4566 97.0087 88.3945 98.333C88.2036 100.657 88.0795 102.986 87.8934 105.372C87.829 106.315 87.8934 107.257 87.829 108.202C87.829 108.452 87.6381 108.641 87.6381 108.894C87.6381 109.521 87.829 110.213 87.829 110.843C87.6381 113.17 87.3852 115.432 87.1967 117.758C87.1323 118.259 87.3828 118.765 87.5069 119.207C87.1967 122.6 87.8887 126.186 87.3208 129.77C87.7598 129.078 87.8863 128.639 87.8863 128.2C87.9459 127.823 87.8863 127.446 87.8863 127.007V126.377C87.9459 125.243 88.1965 124.05 88.0724 122.917C87.9459 121.66 87.9459 120.466 88.1988 119.271C88.3253 118.77 88.1368 118.14 88.4518 117.51V118.453C88.3897 122.032 88.5162 125.618 88.0151 129.202C87.9507 129.517 88.206 130.085 87.514 130.02C86.9461 131.151 87.6381 131.97 87.013 132.597C86.8841 132.724 87.1323 133.289 87.1967 133.666C86.9438 134.423 86.9438 134.423 87.3208 134.485C87.3828 135.869 87.5117 137.124 87.5713 138.446C88.5735 136.06 88.0724 133.602 88.5162 131.149C88.5782 132.156 88.6427 133.163 88.5782 134.227C88.5782 135.866 88.5162 137.436 88.4542 139.071C88.4542 139.386 88.3897 139.701 88.3277 140.016C88.1368 140.899 88.0772 141.777 87.7622 142.593C87.5117 143.223 87.6381 144.168 87.6381 144.919V147.313C87.8887 148.382 87.5737 148.947 87.7622 149.575C87.5713 150.207 87.5117 150.395 87.5713 150.584L87.7622 151.526C89.0197 151.4 88.4542 152.345 88.9552 152.846C88.5782 153.352 88.7047 153.538 88.7047 153.793C88.7047 154.359 88.6451 154.862 88.5806 155.428C88.5806 156.874 88.5186 158.32 88.5186 159.704C88.5186 159.894 88.5806 160.078 88.5806 160.267C88.5806 160.396 88.5186 162.032 88.5186 162.032C88.6451 162.219 88.5186 162.407 88.3277 162.596C88.268 162.596 88.0795 154.609 88.0795 154.609H87.137C87.013 158.379 87.3279 161.775 86.636 165.299C85.8819 165.359 85.6338 165.485 84.813 165.485C82.8659 165.485 80.9189 165.485 78.9718 165.547C76.6477 165.547 74.3905 165.609 72.064 165.609C70.9378 165.609 69.7447 165.738 68.6137 165.738C67.1057 165.738 65.5357 165.547 64.0324 165.547C61.706 165.547 59.4463 165.738 57.1223 165.8C55.4281 165.862 53.734 165.862 52.0399 165.927C50.9065 165.986 49.7731 166.046 48.6468 166.175C48.1457 166.237 47.7043 166.425 47.0768 166.614C46.8859 166.614 46.4492 166.552 46.0746 166.614C45.4423 166.74 44.8816 167.115 44.2492 167.244C43.3067 167.435 43.0562 167.683 43.1803 168.628V169.255C43.1182 169.379 44.5642 169.064 44.5642 169.064C44.4354 169.064 44.3733 169.441 44.1824 169.756C44.6883 169.565 45.0009 169.441 45.3158 169.317C46.2583 169.759 47.0744 169.508 47.826 169.699C50.2741 170.324 52.7843 170.582 55.2945 170.828C56.929 170.954 58.499 171.018 60.1311 171.078C62.4528 171.205 64.7769 171.331 67.0986 171.331C69.0456 171.331 70.9306 171.14 72.8729 171.14C75.5692 171.14 78.2751 171.264 80.9737 171.331C81.5392 171.331 82.1668 171.264 82.7943 171.264H87.3756C91.4607 171.14 95.5409 171.073 99.6235 170.954C101.95 170.887 104.336 170.763 106.658 170.699L113.816 170.508C116.579 170.446 119.342 170.446 122.043 170.389C124.114 170.389 126.124 170.317 128.199 170.257C130.519 170.195 132.905 170.007 135.229 169.883C136.486 169.818 137.744 169.692 138.999 169.568C140.507 169.444 142.077 169.258 143.58 169.193C145.842 169.064 148.166 169.002 150.428 168.876C153.254 168.69 156.079 168.439 158.966 168.375C161.605 168.251 164.304 168.313 166.943 168.251C169.267 168.186 171.591 168.06 173.977 167.998L177.938 167.807C177.938 167.807 180.572 167.745 181.892 167.616C184.151 167.492 186.411 167.241 188.673 167.179C190.114 167.115 191.56 167.179 193.004 167.115C195.325 167.053 197.711 166.924 200.035 166.924C200.911 166.924 201.854 167.053 202.985 167.115C202.484 167.556 202.169 167.807 201.792 168.122C202.042 168.184 202.293 168.313 202.546 168.437C202.169 168.687 201.854 168.747 201.543 168.747C201.415 169.064 201.288 169.191 201.162 169.821H202.293C201.854 169.821 201.477 170.386 201.038 170.763C200.537 170.634 200.095 170.763 199.845 171.455C200.284 171.703 200.222 171.892 200.16 172.147C199.406 172.395 198.84 172.648 199.157 173.464C198.902 173.588 198.589 173.715 198.275 173.903C197.964 174.404 197.396 174.531 197.52 175.223C197.773 175.282 198.022 175.414 198.212 175.471C197.898 175.597 197.585 175.786 197.27 175.91C196.141 176.602 196.645 176.917 196.895 177.232C196.704 177.358 196.518 177.482 196.33 177.547C196.454 178.112 196.64 178.239 196.704 178.239C196.454 178.425 196.139 178.678 195.762 178.993C195.571 179.558 195.321 179.809 195.07 180.186C194.819 180.563 194.693 181.069 194.378 181.443C193.061 182.892 192.118 184.593 190.424 185.722C189.794 186.163 189.231 186.729 188.666 187.296C187.535 188.363 186.53 189.558 185.337 190.565C183.769 191.885 182.14 193.078 180.441 194.273C178.372 195.719 176.301 197.165 174.227 198.549C173.096 199.301 171.841 199.866 170.648 200.558C169.455 201.25 168.324 201.88 167.131 202.57C166.377 203.071 165.685 203.763 164.869 204.145C162.798 205.028 160.598 205.779 158.465 206.598C156.389 207.48 154.886 208.232 153.316 208.798C151.872 209.299 150.364 209.68 148.858 209.991C148.357 210.12 147.789 209.991 147.224 210.055C146.155 210.246 145.088 210.499 144.019 210.623C141.256 211 138.493 211.253 135.732 211.63C134.098 211.821 132.528 212.131 130.896 212.322C129.767 212.384 128.574 212.26 127.443 212.26C126.627 212.26 125.749 212.451 124.931 212.324C123.613 212.133 122.294 211.823 120.974 211.57C120.664 211.508 120.22 211.379 119.972 211.508C119.471 211.761 119.027 211.384 118.524 211.508C118.214 211.573 117.899 211.317 117.584 211.317C117.331 211.258 117.016 211.384 116.701 211.317C116.009 211.131 115.384 210.881 114.625 210.943C113.878 211.005 113.122 210.628 112.31 210.442C111.177 210.189 110.115 209.941 108.979 209.685C108.543 209.559 108.168 209.37 107.727 209.12C106.092 209.12 105.023 209.058 104.019 208.678C103.141 208.368 102.325 207.927 101.382 208.053C101.134 208.115 100.945 207.991 100.69 207.991C100.499 207.738 100.315 207.235 100.129 207.235C98.8743 207.299 98.1203 206.233 97.0513 205.915C96.4882 205.724 96.0491 205.097 95.4836 204.908C94.0997 204.343 92.9734 203.15 91.4034 202.961C90.9023 202.897 90.4012 202.646 89.8333 202.46C90.0242 202.708 90.1435 202.897 90.3344 203.085C88.5138 202.202 86.8197 201.2 85.1232 200.255C84.875 200.193 84.6865 199.945 84.498 199.816L82.8039 198.685C81.8614 198.876 81.4844 198.494 81.229 198.37C79.5349 197.177 77.5902 196.421 75.9558 195.101C75.2638 194.533 74.4525 194.156 73.9514 193.465C73.0686 192.396 72.002 191.642 70.8089 191.014C69.8688 190.513 68.9907 189.945 68.1126 189.38C67.6712 189.065 67.2298 188.688 67.2298 187.996C67.2298 187.554 67.0437 187.113 66.4782 187.366C66.2276 186.989 65.9771 186.55 65.6621 186.423C64.9081 186.113 64.407 185.54 63.8415 185.039C63.276 184.538 62.8394 183.846 62.1474 183.596C60.8899 183.095 60.1359 182.026 59.3843 181.145C57.6233 179.069 56.0533 176.802 54.4212 174.607C54.2947 174.416 54.0442 174.29 53.8557 174.101C54.1062 174.793 54.4212 175.359 54.7338 175.986C54.1086 175.736 53.6696 175.294 53.2926 174.855C53.2281 174.92 57.6233 182.15 57.6233 182.15C58.0051 182.715 58.3153 183.283 58.6923 183.849C57.7498 183.911 57.1223 183.407 56.8073 182.842C56.2442 181.839 55.6142 181.21 54.3592 181.338C54.2351 180.895 54.1086 180.391 54.049 179.954C53.7936 179.954 53.6075 179.954 53.1661 179.89C54.049 181.274 54.8006 182.467 55.6166 183.851C55.2993 183.66 55.1155 183.536 54.9843 183.474C56.1129 184.667 56.929 186.177 58.3726 186.934C58.6875 188.377 60.3196 189.069 60.6966 190.453C60.3864 190.389 60.1287 190.327 59.8138 190.262C59.3127 189.635 58.7472 189.007 58.1841 188.315C58.3082 188.754 58.4943 189.131 58.7472 189.446C59.5012 190.389 60.1932 191.331 61.0713 192.15C61.3862 192.47 61.8253 192.596 61.8253 193.161C62.3263 193.412 62.5172 193.472 62.7034 193.472C62.8322 193.853 62.6437 194.419 63.3953 194.292C63.8964 195.235 64.3975 195.235 65.0895 194.922C65.9079 195.741 66.3493 195.805 66.9124 195.304C66.9124 195.614 66.9745 195.929 66.9745 196.182C67.225 196.056 67.1654 195.867 67.1654 195.552C67.4756 195.803 67.6664 195.929 67.7905 196.053C68.4181 196.936 68.9836 197.752 69.8617 198.444C71.0547 199.451 72.1237 200.52 73.2499 201.463C75.4499 203.288 77.9028 204.799 80.3486 206.18C83.3646 207.879 86.2542 209.702 89.3299 211.334C93.0331 213.286 96.9893 214.608 101.069 215.55C102.578 215.865 104.021 216.178 105.532 216.552C106.844 216.934 108.166 217.5 109.485 217.812C111.494 218.254 113.566 218.631 115.575 219.005C116.011 219.07 116.457 219.134 116.959 219.196C117.519 219.323 118.209 219.07 118.335 219.261C118.65 219.762 118.901 219.509 119.278 219.447C119.717 219.32 120.22 219.32 120.721 219.32C122.48 219.382 124.174 219.759 125.933 219.635C126.314 219.635 126.878 219.318 127.193 219.945C127.756 219.695 128.071 219.695 128.321 219.635C128.388 220.198 128.321 220.198 128.202 220.26C128.073 220.322 127.885 220.387 127.634 220.575C129.894 221.014 132.029 221.076 133.909 220.575C137.178 220.826 140.004 220.449 142.705 219.506C142.955 219.821 143.144 220.26 143.521 219.633C143.645 219.442 143.96 219.378 144.213 219.316C144.776 219.189 145.468 218.939 145.969 219.125C146.537 219.316 146.725 218.814 147.162 218.814C147.918 218.814 148.608 218.75 149.3 218.624C149.677 218.562 150.054 218.373 150.493 218.247C149.992 217.991 149.491 217.929 149.109 217.929C149.865 217.552 150.555 217.237 151.247 216.927C151.12 217.113 150.994 217.364 150.746 217.364H151.621C151.431 217.364 151.18 217.929 150.867 218.306C153.125 217.741 155.196 217.237 157.207 216.731C156.515 215.414 157.959 215.856 158.462 215.099C157.835 215.29 157.207 215.476 156.577 215.6C158.713 214.534 160.911 213.591 163.044 212.649C162.734 213.026 162.352 213.214 161.791 213.532C162.168 213.591 162.419 213.591 162.607 213.651C163.609 213.968 163.361 213.026 163.674 212.458C164.867 212.458 165.368 212.272 165.933 212.081C166.561 211.89 167.188 211.704 167.818 211.453C168.82 211.014 169.763 210.451 170.768 209.95C170.958 209.883 171.269 209.95 171.522 209.95C172.214 209.506 172.462 209.129 172.65 209.191C173.533 209.318 174.153 209 174.406 208.189C174.845 207.872 175.16 207.621 175.473 207.43C176.852 206.676 178.169 205.922 179.553 205.168C180.054 205.168 180.307 205.168 180.431 205.104C181.252 204.722 182.006 204.288 182.758 203.846C182.567 203.784 182.13 203.536 182.13 203.536C182.755 203.407 182.941 203.345 183.323 203.219C184.826 201.453 186.902 200.26 188.47 198.876C189.162 198.814 189.162 198.626 189.162 198.502C189.41 198.187 189.663 197.81 189.973 197.557C191.357 196.299 192.86 195.23 194.118 193.911C195.939 192.083 197.697 190.196 199.329 188.246C200.832 186.485 202.345 184.727 203.6 182.777C205.359 180.074 206.864 177.306 208.435 174.474C209.566 172.464 210.57 170.453 211.703 168.441C211.823 168.251 212.078 168 212.267 168C213.961 167.809 215.66 167.69 217.292 167.499C217.669 167.437 218.108 167.189 218.485 166.998C218.294 166.683 218.17 166.306 217.984 165.991C217.731 165.609 217.354 165.299 217.101 164.917C216.853 164.607 216.664 164.225 216.476 163.851C216.285 163.54 216.099 163.287 215.91 162.968C215.528 162.276 215.154 161.584 214.836 160.835C214.774 160.644 214.646 160.333 214.712 160.143C215.843 157.692 216.282 155.051 217.349 152.598C218.416 150.083 218.733 147.253 219.234 144.549C219.673 141.972 219.926 139.395 220.236 136.818C220.427 134.995 220.678 133.235 220.737 131.412C221.119 128.52 220.99 125.814 220.928 123.108C220.866 120.722 220.737 118.269 220.618 115.878L220.611 115.871ZM63.0684 193.271C62.6294 192.77 62.2524 192.202 61.8133 191.701L62.0042 191.51C62.689 192.267 63.381 193.021 64.0706 193.839C63.6936 193.648 63.2545 193.524 63.0684 193.271ZM64.0706 193.839C64.2615 193.775 64.4524 193.775 64.6385 193.713C64.8294 194.028 64.9534 194.405 65.1396 194.782C64.2615 194.717 63.8224 194.34 64.073 193.839H64.0706ZM129.378 219.807V219.616C130.571 219.492 131.7 219.366 132.893 219.242V219.425C131.7 219.616 130.571 219.736 129.378 219.802V219.807ZM145.198 218.173C144.322 218.363 143.38 218.49 142.502 218.616C142.187 218.678 141.81 218.993 141.686 218.426C141.559 218.49 141.433 218.49 141.309 218.554C141.619 219.495 142.375 218.74 143.003 219.117C141.619 219.308 140.307 219.432 138.985 219.619V219.494C139.366 219.432 139.803 219.368 140.178 219.304V219.117C139.553 219.053 138.925 218.991 138.293 218.991C138.109 218.991 137.856 219.244 137.668 219.306C137.417 219.368 137.166 219.432 136.851 219.432C135.785 219.495 134.718 219.494 133.711 219.557C133.647 219.557 133.52 219.494 133.458 219.494V219.304C137.665 218.741 141.81 218.175 146.017 217.609C146.081 217.734 146.081 217.86 146.143 217.984C145.766 217.984 145.515 218.115 145.2 218.175L145.198 218.173ZM146.143 217.547C147.589 217.357 148.911 217.232 150.29 217.046C147.403 217.862 146.458 217.986 146.143 217.547ZM91.4511 90.5949C93.4554 87.827 95.5313 85.0591 97.5404 82.2316C98.168 81.4084 98.6691 80.5279 99.2966 79.7119C99.4875 79.4589 99.738 79.3349 100.051 79.0819L99.9886 78.9626C100.239 78.6453 100.49 78.39 100.616 78.1418C100.936 77.6407 101.124 77.0728 101.375 76.5073C101.437 76.388 101.625 76.2616 101.625 76.2616C102.508 76.7006 102.508 75.7605 102.818 75.4431C103.384 74.8132 103.95 74.1236 104.451 73.4937C104.828 72.9926 105.205 72.5512 105.52 71.9857C105.582 71.7948 105.393 71.4846 105.329 71.2293H105.143C105.333 71.1052 105.52 70.9191 105.708 70.7902C105.77 70.7902 105.77 70.7902 105.832 70.7282C106.209 70.1603 106.586 69.5948 106.963 69.0913C107.715 68.0892 108.531 67.0822 109.409 66.2041C109.285 66.5143 109.158 66.8317 109.032 67.0822C109.096 67.0822 109.096 67.1467 109.158 67.1467C109.912 66.1397 110.728 65.1972 111.482 64.1879C111.418 64.1282 111.356 64.0638 111.292 64.0638C110.981 64.3788 110.728 64.6937 110.413 65.0087C110.351 64.9443 110.289 64.8822 110.223 64.8822C110.855 64.0638 111.482 63.2478 112.108 62.3053C112.234 62.4961 112.361 62.7443 112.609 63.2478C112.864 62.6202 113.115 62.1812 113.301 61.7397C113.115 61.9306 112.864 62.1168 112.675 62.3076L112.485 62.1168L113.616 60.4226C114.809 58.7237 116.002 56.9628 117.195 55.2639C117.636 54.6363 118.197 54.1329 118.579 53.5029C119.772 51.1168 121.657 49.227 123.098 47.027C123.413 46.588 123.852 46.211 124.229 45.834C124.539 45.4522 124.795 45.5811 125.045 45.896C126.739 48.034 128.433 50.234 130.127 52.3719C131.387 53.9467 132.642 55.45 133.835 57.0868C135.279 59.1007 136.661 61.1122 138.107 63.1237C139.739 65.4501 141.371 67.7766 142.941 70.1627C145.327 73.687 147.587 77.2088 149.973 80.7283C151.731 83.3053 153.49 85.8227 155.184 88.3997H151.977C149.028 88.34 146.012 88.0895 143.063 88.2135C139.044 88.4044 134.964 88.8435 130.946 89.1584C125.859 89.5999 120.71 89.6595 115.627 89.6595C113.802 89.6595 111.981 89.9148 110.163 90.0413C107.963 90.1654 105.827 90.2918 103.63 90.3515C101.053 90.4803 98.5474 90.5424 95.9704 90.6068C94.5244 90.6688 93.0188 90.6068 91.4487 90.6068L91.4511 90.5949ZM163.471 119.514V120.082C163.409 120.082 163.347 120.147 163.22 120.147C162.97 119.264 162.719 118.319 162.404 117.439C161.777 115.613 161.085 113.788 159.954 112.156C158.694 110.397 157.568 108.577 156.308 106.751C155.998 106.31 155.554 105.933 155.177 105.558C153.857 104.11 152.538 102.599 150.844 101.533C148.331 99.9579 145.756 98.6384 142.993 97.505C142.239 97.1948 141.55 96.8131 140.798 96.374H142.301L153.039 96.1831C155.363 96.1235 157.625 96.1235 159.947 95.997C160.51 95.997 160.825 96.1879 161.14 96.689C161.703 97.6315 162.268 98.574 162.896 99.5189C162.96 99.643 163.087 99.8291 163.087 100.02C163.087 101.404 163.087 102.85 163.149 104.234C163.208 105.68 163.34 107.064 163.397 108.51C163.397 109.956 163.27 111.464 163.335 112.972C163.399 115.112 163.461 117.314 163.461 119.51L163.471 119.514ZM95.906 98.4595C98.8576 98.333 101.68 98.1445 104.572 98.018C106.827 97.8916 109.154 97.8272 111.411 97.7031C112.353 97.6434 113.234 97.5838 114.174 97.7031C113.172 98.2089 112.165 98.7124 111.287 99.3399C110.156 100.094 109.092 101.099 107.958 101.917C106.825 102.733 105.82 103.74 104.88 104.809C103.687 106.252 102.368 107.51 101.11 108.894C100.227 109.901 99.225 110.843 98.4734 111.912C97.4068 113.296 96.4643 114.8 95.4598 116.374C95.7747 110.4 96.1517 104.492 95.8988 98.4547L95.906 98.4595ZM136.911 158.947C134.9 159.448 132.831 160.016 130.755 160.267C128.999 160.52 127.176 160.458 125.355 160.458C123.718 160.458 122.148 160.396 120.516 160.267C118.696 160.081 116.875 159.892 115.116 159.074C113.606 158.382 112.038 157.754 110.535 156.998C109.022 156.244 107.517 155.366 106.383 153.982C105.572 152.972 104.439 152.156 103.434 151.276C103.625 152.03 104.062 152.66 104.754 153.099C104.439 153.476 104 153.29 103.37 152.28C103.184 152.407 102.995 152.471 102.869 152.533C103.059 152.092 103.246 151.65 103.434 151.276C103.184 150.775 102.869 150.207 102.618 149.701C102.117 148.885 101.616 148.007 101.174 147.188C101.048 146.998 101.048 146.811 100.924 146.623C100.609 146.246 100.294 145.867 100.041 145.49C99.54 144.738 99.101 143.922 98.4734 143.165C98.4734 143.356 98.5378 143.542 98.5378 143.795C98.4734 143.795 98.4114 143.857 98.4114 143.857L97.0895 140.651C97.0274 140.651 97.0274 140.651 96.9654 140.713L98.094 144.864C98.032 144.864 97.9699 144.924 97.9031 144.924C97.7194 144.676 97.5309 144.423 97.402 144.113C97.278 143.607 96.901 143.607 96.5908 143.795C96.3999 143.922 96.2734 144.361 96.3378 144.549C96.7793 145.618 97.2804 146.687 97.7838 147.756C97.9079 148.133 98.0344 148.448 98.2229 148.825C98.2873 148.952 98.4758 149.076 98.4758 149.264C98.7287 149.765 98.9172 150.267 99.2298 150.71C99.7953 151.464 100.423 152.218 100.988 152.972C101.549 153.726 102.05 154.547 102.554 155.299C102.616 155.425 102.804 155.425 102.864 155.49C103.181 156.432 104.248 157.122 105.002 156.745C105.193 158.191 106.76 158.694 107.388 160.078C106.634 159.763 106.071 159.513 105.567 159.26C105.503 159.322 105.503 159.384 105.438 159.51C106.192 159.887 106.946 160.264 107.634 160.703C108.266 161.085 108.894 161.46 109.459 161.896C110.213 162.588 111.094 162.97 112.155 163.218C112.098 163.027 112.036 162.963 112.036 162.963C113.792 163.781 115.615 164.662 116.994 165.349C110.464 165.478 103.494 165.604 96.271 165.731C96.271 164.538 96.209 163.404 96.209 162.209C96.209 161.708 96.3331 161.266 96.2687 160.763C96.0778 157.876 96.0778 154.979 95.7031 152.149C95.3285 149.133 95.3285 146.177 95.393 143.154C95.4526 141.524 95.3285 139.827 95.2641 138.19C95.2641 135.99 95.2641 133.848 95.3309 131.653C95.3309 131.338 95.4574 131.087 95.5838 130.77H95.7747C95.8344 130.899 95.7747 131.087 95.894 131.151C96.0849 131.342 96.3999 131.653 96.5264 131.591C96.901 131.338 97.4665 131.089 97.5929 130.708C97.9031 129.956 98.032 129.138 98.032 128.384C98.032 127.82 98.2849 127.443 98.5331 127.064C98.6619 126.873 98.7239 126.687 98.8504 126.437C98.5999 126.246 98.3493 126.122 98.0344 125.871C98.2873 125.179 98.2253 124.361 99.1678 123.986C99.2918 123.922 99.2918 123.604 99.3586 123.418C99.4183 122.91 99.478 122.344 99.5448 121.843C99.6688 122.034 99.7357 122.094 99.855 122.218C99.9218 122.094 99.9838 122.027 99.9838 122.027C99.9838 121.779 99.9218 121.275 99.9838 121.275C100.738 121.149 100.423 120.333 100.8 119.956C100.86 119.889 100.735 119.701 100.735 119.574C100.735 119.45 100.735 119.264 100.797 119.264C101.673 119.073 101.549 118.131 102.115 117.689C102.305 117.563 102.365 117.379 102.616 117.062C103.117 117.94 102.239 118.381 102.177 119.009C103.241 118.381 103.556 116.873 102.928 116.432C103.179 116.241 103.429 115.993 103.62 115.74C104.312 114.986 105.061 114.294 105.691 113.54C106.133 112.977 106.383 112.285 106.822 111.719C107.075 111.404 107.576 111.154 107.953 110.963C109.084 110.337 110.149 109.646 110.841 108.577C110.967 108.45 111.156 108.326 111.342 108.2C111.533 108.073 111.91 108.073 111.972 107.885C112.036 107.761 111.848 107.446 111.721 107.257C111.969 107.131 112.222 106.88 112.723 106.627C112.532 107.004 112.473 107.257 112.346 107.51L112.656 107.82C113.224 107.381 114.102 106.88 114.668 106.503C114.668 106.443 114.353 106.193 114.353 106.193C113.978 106.384 113.413 106.694 112.85 106.947C112.969 106.756 112.969 106.632 113.041 106.57C113.916 106.004 114.794 105.439 115.737 104.995C117.932 103.993 120.132 102.986 122.33 102.043C122.707 101.853 123.213 101.981 123.649 101.981C123.835 101.981 123.959 101.981 124.15 101.919C125.152 101.604 126.159 101.289 127.164 101.036C127.601 100.912 128.102 100.85 128.548 100.85C130.426 100.91 132.311 100.91 134.193 101.036C135.009 101.099 135.763 101.287 136.517 101.538C137.458 101.855 138.462 102.294 139.343 102.731C140.409 103.303 141.414 103.928 142.421 104.62C144.241 105.813 145.935 107.135 147.756 108.204C149.515 109.273 150.896 110.719 152.027 112.356C153.411 114.303 154.979 116.064 155.606 118.453L156.546 122.604C156.737 123.358 157.176 124.112 156.988 124.991C156.67 126.565 156.42 128.2 156.169 129.772C156.045 130.405 155.919 131.037 155.983 131.657C156.103 133.614 155.351 135.308 154.599 137.069C154.346 137.635 153.969 138.202 153.657 138.83C153.719 138.892 154.096 139.083 154.158 139.083L154.723 137.952C154.788 137.952 154.788 137.952 154.85 138.016C154.535 138.894 154.284 139.839 153.967 140.72C153.218 142.669 152.464 144.681 151.521 146.566C151.02 147.635 150.137 148.515 149.512 149.524C148.887 150.403 148.384 151.345 147.756 152.163C147.19 152.855 146.627 153.547 145.871 154.048C144.177 155.306 142.418 156.563 140.598 157.57C139.469 158.262 138.15 158.639 136.894 158.954L136.911 158.947ZM103.441 155.607L103.379 155.671C103.248 155.609 103.059 155.547 102.935 155.421L101.427 153.154C101.303 152.968 101.237 152.779 101.303 152.529C101.995 153.598 102.69 154.604 103.441 155.607ZM142.502 164.22C145.325 163.027 147.649 161.333 149.779 159.381C150.097 159.066 150.409 158.754 150.786 158.499C153.425 156.866 155.368 154.602 157.129 152.087C159.138 149.195 160.457 145.926 162.092 142.846C162.216 142.593 162.34 142.345 162.466 142.154C162.34 149.322 163.158 156.363 164.098 163.469C157.005 163.719 149.782 163.97 142.499 164.223L142.502 164.22ZM206.17 162.335C206.108 162.462 205.979 162.588 205.92 162.717C205.855 162.588 205.855 162.4 205.793 162.145C205.416 163.154 204.6 162.65 204.035 162.65C200.646 162.715 197.191 162.715 193.798 162.715C190.534 162.715 187.208 162.715 183.944 162.772C182.875 162.772 181.744 163.023 180.675 163.087C178.102 163.211 175.528 163.278 172.953 163.338C172.762 163.338 172.576 163.027 172.261 162.774C172.199 162.901 172.07 163.089 171.884 163.34C171.817 163.216 171.693 163.092 171.567 162.903C171.505 163.094 171.44 163.28 171.376 163.404H171.195C171.068 162.526 170.818 161.71 170.818 160.827C170.818 158.942 171.009 157.057 171.068 155.168C171.133 154.289 171.068 153.473 171.068 152.653C171.321 152.844 171.51 152.97 171.76 153.154C171.884 152.908 172.011 152.719 172.137 152.533C172.137 152.533 172.011 152.467 171.884 152.342C172.004 152.278 172.132 152.152 172.132 152.09C172.194 151.899 172.323 151.713 172.323 151.588C172.323 151.147 172.194 150.77 172.132 150.395C172.194 150.395 172.256 150.395 172.323 150.329L172.698 152.214H172.889C172.636 151.777 173.452 151.398 172.762 150.896C172.7 150.832 172.824 150.455 172.824 150.267C172.633 149.892 172.514 149.515 172.323 149.011C172.385 148.949 172.574 148.885 172.762 148.821C172.512 148.696 172.323 148.572 172.135 148.51C172.762 147.942 172.762 147.628 172.197 147C172.326 146.94 172.45 146.94 172.45 146.881C172.45 146.313 172.45 145.747 172.326 145.187C172.199 144.552 172.517 143.803 171.572 143.421C171.634 143.612 171.698 143.736 171.822 143.922C171.822 143.922 171.631 143.986 171.445 144.113C170.629 143.356 171.135 142.347 170.944 141.218C171.383 141.345 171.698 141.471 172.011 141.6C171.884 141.156 171.572 140.653 171.383 140.087H171.128V135.936C171.128 136 171.567 136 171.82 136.064C171.82 136 171.879 135.938 171.879 135.874C171.689 135.623 171.438 135.372 171.187 135.058L171.314 134.931C170.813 134.306 171.063 133.428 171.063 133.237V128.835C171.693 129.464 170.753 130.281 171.693 130.658V130.03H171.629C171.567 129.087 171.567 128.145 171.505 127.2H171.381C171.316 127.329 171.316 127.391 171.252 127.517H171.128L171.505 112.49C172.132 113.306 172.822 114.065 173.261 114.876C174.707 117.52 176.59 119.784 178.348 122.173C179.856 124.248 181.235 126.51 182.619 128.648C184.313 131.225 185.946 133.802 187.642 136.379C188.897 138.331 190.219 140.281 191.531 142.168C192.724 143.862 193.984 145.499 195.239 147.136C196.304 148.582 197.435 150.028 198.501 151.474C199.759 153.235 201.014 154.993 202.271 156.692C202.896 157.57 203.588 158.451 204.276 159.331C204.657 159.832 205.22 160.214 205.597 160.524C205.538 160.524 205.473 160.524 205.349 160.462C205.54 160.713 205.66 160.901 205.788 161.028C206.48 161.405 206.542 161.782 206.165 162.35L206.17 162.335ZM209.372 146.621V146.179C209.372 146.303 209.434 146.492 209.372 146.621ZM211.508 118.894C211.443 118.894 211.069 118.512 211.007 118.45C210.942 118.641 211.007 118.827 210.88 119.08C210.816 118.894 210.379 118.956 210.379 118.77C210.315 119.648 210.754 120.529 210.689 121.409C210.88 121.283 211.632 121.218 211.82 121.032C211.885 121.094 212.011 121.156 212.073 121.156C210.816 122.101 211.131 123.041 211.696 124.115C211.82 124.363 212.197 124.866 211.82 125.37C211.696 125.496 211.885 125.871 211.947 126.188H212.131V126.308L211.565 126.499C211.441 126.308 210.689 125.935 210.689 125.616V128.827C211.317 129.018 211.317 129.896 211.567 130.338C211.699 130.147 211.758 130.02 211.823 129.837L211.887 129.894C211.823 130.271 211.761 130.648 211.634 131.027C211.51 131.591 211.384 132.094 211.324 132.659C211.324 132.722 211.443 132.85 211.443 132.91C210.756 134.485 211.133 136.241 210.883 137.873C210.692 139.066 210.883 140.331 210.756 141.586C210.627 142.655 210.374 143.786 210.126 144.855C210.062 145.046 209.935 145.105 209.625 145.232C209.749 144.478 209.687 143.974 209.561 143.282C209.494 143.282 208.678 142.843 208.613 142.843C208.613 143.726 209.115 144.919 209.305 145.921C209.115 145.859 208.363 145.42 208.303 145.42C208.174 146.174 208.174 147.181 208.112 147.997C208.048 148.627 207.485 149.19 207.42 149.882C207.42 150.264 207.859 150.512 207.797 151.142H208.299C208.299 149.887 208.866 148.756 208.866 147.434H209.053C209.117 147.561 209.305 147.687 209.243 147.749C209.117 148.441 208.862 149.195 208.928 149.887C208.928 150.264 209.239 150.641 209.119 151.08C208.99 151.462 208.928 151.837 208.864 152.402C208.8 152.087 208.738 151.963 208.738 151.775C208.676 151.775 208.11 151.71 208.046 151.71C207.984 152.087 208.487 152.464 208.423 152.779C208.361 152.841 208.299 152.841 208.172 152.906L206.101 149.885C204.464 147.499 202.832 145.105 201.2 142.655C200.758 142.025 200.381 141.397 200.066 140.77C198.122 137.434 195.986 134.227 193.6 131.147C191.782 128.823 190.331 126.303 188.637 123.857C187.072 121.531 185.502 119.266 183.932 116.937C183.366 116.186 182.677 115.494 182.173 114.675C180.543 112.098 179.095 109.457 177.468 106.88C176.084 104.74 174.581 102.664 173.135 100.59C172.633 99.8983 172.132 99.1419 171.627 98.3879C171.564 98.2686 171.502 98.1421 171.502 97.9536C171.376 96.5697 171.25 95.1857 171.187 93.8662C171.187 92.6088 171.314 91.3513 171.314 90.0294V88.8984C171.314 88.5834 171.374 88.3329 171.374 88.0155C171.433 87.9559 171.498 87.8294 171.56 87.7673C169.739 87.7673 167.854 87.7005 166.034 87.7673C164.84 87.827 164.213 87.3235 163.397 86.4431C161.011 83.7396 159.252 80.6591 157.181 77.7672C155.234 74.9993 153.225 72.2935 151.216 69.59C149.581 67.39 147.947 65.2521 146.317 63.0521C144.494 60.5372 142.738 58.0222 140.853 55.5072C138.591 52.4912 136.267 49.4704 133.945 46.4544C132.871 45.0704 131.678 43.7509 130.485 42.3026C131.304 42.4314 132.06 42.5555 132.812 42.6199L135.828 42.8108C138.087 42.9945 140.347 43.121 142.604 43.4312C144.489 43.6865 146.374 44.0635 148.321 44.3761C152.469 45.0681 156.549 46.2015 160.505 47.521C162.829 48.275 165.086 49.2819 167.353 50.2244C172.435 52.3003 177.272 54.8153 182.044 57.4543C183.548 58.2727 184.43 59.5923 185.557 60.7877C187.191 62.4866 188.826 64.1831 190.393 65.9417C192.211 68.0176 193.906 70.1555 195.666 72.2935C197.234 74.1785 198.864 76.0635 200.439 77.9533C200.94 78.5188 201.322 79.2108 201.756 79.8383C202.758 81.3487 203.891 82.7971 204.769 84.4292C205.395 85.627 205.772 87.011 206.211 88.3305C206.836 90.2799 207.466 92.1649 208.096 94.1144C208.532 95.5604 208.907 97.0731 209.222 98.5764C209.475 99.5857 209.413 100.652 209.723 101.654C210.105 102.981 209.723 104.422 210.105 105.747C210.164 105.873 210.224 106.062 210.291 106.188C210.541 106.436 210.73 106.689 210.353 107.066C210.293 107.128 210.293 107.376 210.353 107.567C210.482 107.443 210.544 107.317 210.67 107.128C210.67 107.255 210.73 107.319 210.73 107.379C210.73 107.627 210.666 107.88 210.73 108.13C210.73 108.254 210.854 108.441 210.916 108.569C211.043 108.441 211.167 108.379 211.417 108.188C211.983 110.328 212.047 112.466 212.047 114.666C212.047 116.742 212.422 118.818 211.546 120.829C211.732 120.137 211.293 119.505 211.482 118.877L211.508 118.894Z" fill="#DD3A0A"/>
<path fill-rule="evenodd" clip-rule="evenodd" d="M171.385 143.347C171.445 143.347 171.51 143.411 171.51 143.411L171.445 143.34C171.445 143.28 171.445 143.28 171.383 143.34L171.385 143.347ZM181.304 205.471C180.613 205.972 179.921 206.414 179.042 206.602C178.976 206.54 178.976 206.476 178.914 206.412C179.606 205.972 180.357 205.533 181.049 205.092C181.114 205.211 181.24 205.34 181.302 205.467L181.304 205.471ZM63.5695 120.268C64.2614 119.393 64.9534 118.512 65.7026 117.632C65.7623 117.694 66.2634 117.823 66.3278 117.882C65.6358 118.765 64.6933 119.958 64.0037 120.901C63.8749 120.774 63.6864 120.335 63.5623 120.271L63.5695 120.268ZM45.7333 151.085C45.2323 150.016 44.7312 148.883 44.2301 147.816C44.2921 147.752 44.7312 147.563 44.7932 147.563C45.4852 148.565 45.7954 149.758 46.3012 150.832C46.3012 150.832 45.8002 151.083 45.7357 151.083L45.7333 151.085ZM61.7489 120.901C61.3719 121.469 60.9949 122.099 60.6179 122.666C60.5558 122.6 59.8638 122.915 59.8018 122.853C60.1788 122.287 61.1189 121.278 61.4959 120.715C61.5604 120.777 61.6224 120.841 61.7489 120.906V120.901ZM174.588 208.053C174.647 208.053 174.647 207.991 174.712 207.991C175.151 208.053 175.652 208.115 176.155 208.115C175.334 208.681 174.831 208.616 174.58 208.053H174.588ZM61.8682 123.542C61.935 123.351 62.0591 123.165 62.1855 122.977C62.3096 122.977 62.4957 122.912 62.4957 122.912C62.751 122.473 62.751 122.158 63.0016 121.781C62.9395 121.719 62.8751 121.719 62.8107 121.655C62.4361 121.912 62.0591 122.227 61.6821 122.478C61.8085 122.602 61.8085 122.669 61.8085 122.793C61.3074 122.729 61.1165 122.984 60.866 123.671C60.804 123.862 60.489 123.924 60.174 124.172C60.112 124.301 60.05 124.616 59.9235 124.929L59.9879 124.995C59.8615 125.122 59.673 125.186 59.673 125.186C59.296 125.561 58.8569 125.878 58.4799 126.253C58.4179 126.444 58.3558 126.63 58.3558 126.818C58.7973 126.379 59.5489 125.561 60.1144 125.057L60.1788 125.122C60.4293 124.745 60.6179 124.368 60.8708 123.991C60.9304 124.053 60.9304 124.115 60.9949 124.182C60.804 124.683 60.6179 125.246 60.4293 125.749C60.2981 125.811 60.1096 125.94 60.1096 125.876C59.8591 126.067 59.6706 126.315 59.4176 126.503L58.289 127.257C57.6615 127.823 57.0339 128.324 56.342 128.892C55.9029 129.584 55.4639 130.211 54.958 131.03C55.7144 130.839 55.9029 131.156 55.8409 131.786C56.719 131.91 56.7834 131.221 57.0339 130.717C57.096 130.588 57.1604 130.335 57.2845 130.273C57.85 129.772 58.4775 129.333 59.1051 128.83C59.2315 128.703 59.2315 128.448 59.2315 128.262C59.2315 128.2 58.9142 128.2 58.7257 128.135C59.2912 127.506 60.1096 126.441 60.6727 125.749C60.9877 125.558 61.3003 125.306 61.3003 125.117C61.2382 124.425 61.6773 124.239 62.1831 123.986C61.9302 123.795 61.8658 123.611 61.8658 123.549L61.8682 123.542Z" fill="#DD3735"/>
<path fill-rule="evenodd" clip-rule="evenodd" d="M63.1281 122.85C62.8775 123.289 62.627 123.666 62.3765 124.108L61.9995 123.917C61.7489 125.36 60.8684 126.618 59.9904 126.868C60.2409 126.995 60.4914 127.121 60.6823 127.059C60.8684 126.995 60.9925 126.678 61.119 126.491L62.8131 124.038L63.381 123.094L63.1305 122.843L63.1281 122.85ZM42.221 150.453C42.536 150.453 42.851 150.515 43.2232 150.515C43.2232 150.264 43.5406 150.324 43.5406 150.076H43.7315C43.7315 150.391 43.7935 150.641 43.7935 150.958H42.4764C42.4119 150.894 42.159 150.515 42.221 150.453ZM41.72 147.561C41.5291 147.37 41.2189 147.184 41.2189 146.995C41.1545 146.747 41.343 146.434 41.5291 146.119C41.6579 146.559 41.72 146.936 41.844 147.377C41.7796 147.437 41.7176 147.501 41.7176 147.563L41.72 147.561ZM43.29 143.535C43.5406 144.17 43.7911 144.862 44.044 145.492C43.982 145.492 43.605 145.683 43.543 145.742C43.2924 145.113 42.9774 144.421 42.7269 143.793C42.7889 143.731 43.1659 143.54 43.2924 143.54L43.29 143.535ZM183.068 203.651C183.378 203.527 183.755 203.46 184.261 203.341C183.693 203.777 183.254 204.092 182.877 204.469C182.813 204.407 182.751 204.343 182.686 204.343C182.813 204.092 182.939 203.904 183.068 203.651ZM105.887 70.7902C106.262 70.5373 106.579 70.3488 106.954 70.0983L107.078 70.2223C106.696 70.7234 106.386 71.2245 105.944 71.8568C105.882 71.4202 105.882 71.1649 105.818 70.8547C105.756 70.8547 105.818 70.8547 105.882 70.7926L105.887 70.7902ZM124.284 102.604C124.849 102.351 125.415 102.103 126.104 101.786C126.042 102.163 126.042 102.416 126.042 102.669C125.852 102.604 125.601 102.54 125.412 102.54C125.035 102.604 124.344 103.108 124.029 103.17C123.969 103.17 124.284 102.669 124.284 102.604ZM171.386 155.924C171.51 156.552 172.703 156.866 171.51 157.494C171.7 157.625 171.884 157.685 172.073 157.814C172.073 157.878 172.011 158.005 171.949 158.067C171.822 158.126 171.572 158.253 171.448 158.186C171.383 158.186 171.257 157.938 171.257 157.811C171.257 157.246 171.321 156.68 171.383 155.926L171.386 155.924Z" fill="#DD3735"/>
</svg>
