<svg width="256" height="256" viewBox="0 0 256 256" fill="none" xmlns="http://www.w3.org/2000/svg">
<rect width="256" height="256" fill="#242938" rx="60"/>
<path d="M136.079 47.375C141.197 47.375 146.07 49.5635 149.47 53.3885L190.095 99.0913C201.298 111.695 194.293 131.702 177.674 134.563L80.5209 151.292L92.7037 137.52C97.5093 132.087 97.4996 123.921 92.6809 118.5L55.9649 77.1948C45.6943 65.6403 53.8966 47.375 69.3559 47.375H136.079Z" fill="url(#paint0_linear_2013_11)"/>
<path d="M69.3559 208.625C53.8966 208.625 45.6943 190.36 55.9649 178.805L147.878 75.4031C153.912 68.6149 153.912 58.3852 147.878 51.5968L144.125 47.375L205.211 116.097C211.245 122.885 211.245 133.115 205.211 139.903L149.47 202.611C146.07 206.436 141.197 208.625 136.079 208.625H69.3559Z" fill="url(#paint1_linear_2013_11)"/>
<path d="M69.3559 208.625C53.8966 208.625 45.6943 190.36 55.9649 178.805L147.878 75.4031C153.912 68.6149 153.912 58.3852 147.878 51.5968L144.125 47.375L205.211 116.097C211.245 122.885 211.245 133.115 205.211 139.903L149.47 202.611C146.07 206.436 141.197 208.625 136.079 208.625H69.3559Z" fill="url(#paint2_linear_2013_11)"/>
<path d="M110.73 208.625C101.455 208.625 96.5332 197.666 102.696 190.733L176.544 107.653C182.578 100.865 182.578 90.6352 176.544 83.8467L169.208 75.5938L205.211 116.097C211.245 122.885 211.245 133.115 205.211 139.903L149.47 202.612C146.07 206.436 141.197 208.625 136.079 208.625H110.73Z" fill="url(#paint3_linear_2013_11)"/>
<defs>
<linearGradient id="paint0_linear_2013_11" x1="128" y1="98.4375" x2="67.0834" y2="37.5208" gradientUnits="userSpaceOnUse">
<stop stop-color="#102784"/>
<stop offset="0.274053" stop-color="#1B44B1"/>
<stop offset="1" stop-color="#2764E7"/>
</linearGradient>
<linearGradient id="paint1_linear_2013_11" x1="179.063" y1="86.7917" x2="62.6042" y2="205.937" gradientUnits="userSpaceOnUse">
<stop stop-color="#0FAFFF"/>
<stop offset="0.177827" stop-color="#4894FE"/>
<stop offset="1" stop-color="#2764E7"/>
</linearGradient>
<linearGradient id="paint2_linear_2013_11" x1="93.0625" y1="171" x2="110.979" y2="191.604" gradientUnits="userSpaceOnUse">
<stop stop-color="#2764E7" stop-opacity="0"/>
<stop offset="1" stop-color="#2052CB"/>
</linearGradient>
<linearGradient id="paint3_linear_2013_11" x1="201.458" y1="110.979" x2="119.042" y2="204.146" gradientUnits="userSpaceOnUse">
<stop stop-color="#6CE0FF"/>
<stop offset="0.211723" stop-color="#66C0FF"/>
<stop offset="1" stop-color="#58AAFE"/>
</linearGradient>
</defs>
</svg>
