<svg fill="none" height="256" viewBox="0 0 256 256" width="256" xmlns="http://www.w3.org/2000/svg" xmlns:xlink="http://www.w3.org/1999/xlink">
<path d="m196 0h-136c-33.1371 0-60 26.8629-60 60v136c0 33.137 26.8629 60 60 60h136c33.137 0 60-26.863 60-60v-136c0-33.1371-26.863-60-60-60z" fill="#f4f2ed"/>
<path d="m145.488 47.2391c3.677-4.1724 3.677-10.9373 0-15.1098-3.677-4.1724-9.638-4.1724-13.315 0-3.676 4.1725-3.676 10.9374 0 15.1098 3.677 4.1725 9.638 4.1725 13.315 0z" fill="#5d88d6"/>
<path d="m172.109 77.4485c4.085-4.6357 4.085-12.1517 0-16.7874s-10.708-4.6357-14.793 0-4.085 12.1517 0 16.7874 10.708 4.6357 14.793 0z" fill="#5d88d6"/>
<path d="m198.726 107.664c4.493-5.099 4.493-13.3646 0-18.4629-4.492-5.0984-11.776-5.0984-16.269 0-4.492 5.0983-4.492 13.3639 0 18.4629 4.493 5.098 11.777 5.098 16.269 0z" fill="#5d88d6"/>
<path d="m225.324 137.842c4.901-5.562 4.901-14.579 0-20.141-4.9-5.561-12.846-5.561-17.747 0-4.901 5.562-4.901 14.579 0 20.141 4.901 5.561 12.847 5.561 17.747 0z" fill="#5d88d6"/>
<path d="m93.0124 46.4009c3.2691-3.7098 3.2691-9.7246 0-13.4345-3.269-3.7098-8.5692-3.7098-11.8382 0-3.269 3.7099-3.269 9.7247 0 13.4345s8.5692 3.7098 11.8382 0z" fill="#32dbfc"/>
<path d="m119.631 76.6091c3.676-4.1724 3.676-10.9373 0-15.1098-3.677-4.1724-9.638-4.1724-13.315 0-3.677 4.1725-3.677 10.9374 0 15.1098 3.677 4.1725 9.638 4.1725 13.315 0z" fill="#32dbfc"/>
<path d="m146.229 106.793c4.085-4.635 4.085-12.1512 0-16.7869s-10.708-4.6357-14.793 0-4.085 12.1519 0 16.7869c4.085 4.636 10.708 4.636 14.793 0z" fill="#32dbfc"/>
<path d="m172.837 136.987c4.492-5.099 4.492-13.365 0-18.463-4.493-5.098-11.777-5.098-16.269 0-4.493 5.098-4.493 13.364 0 18.463 4.492 5.098 11.776 5.098 16.269 0z" fill="#32dbfc"/>
<path d="m199.465 167.218c4.901-5.562 4.901-14.579 0-20.14-4.901-5.562-12.847-5.562-17.747 0-4.901 5.561-4.901 14.578 0 20.14 4.9 5.562 12.846 5.562 17.747 0z" fill="#32dbfc"/>
<path d="m40.5637 45.5941c2.8608-3.2466 2.8608-8.5103 0-11.7568-2.8608-3.2466-7.4992-3.2466-10.36 0-2.8608 3.2465-2.8608 8.5102 0 11.7568s7.4992 3.2466 10.36 0z" fill="#000"/>
<path d="m67.146 75.7581c3.269-3.7099 3.269-9.7247 0-13.4345-3.2691-3.7098-8.5692-3.7098-11.8383 0-3.269 3.7098-3.269 9.7246 0 13.4345 3.2691 3.7098 8.5692 3.7098 11.8383 0z" fill="#000"/>
<path d="m93.7762 105.986c3.6767-4.173 3.6767-10.9375 0-15.11-3.6767-4.1724-9.6379-4.1724-13.3146 0-3.6767 4.1725-3.6767 10.937 0 15.11 3.6767 4.172 9.6379 4.172 13.3146 0z" fill="#000"/>
<path d="m120.384 136.18c4.085-4.635 4.085-12.151 0-16.787s-10.708-4.636-14.793 0-4.085 12.152 0 16.787c4.085 4.636 10.708 4.636 14.793 0z" fill="#000"/><path d="m146.989 166.382c4.492-5.099 4.492-13.365 0-18.463-4.493-5.098-11.777-5.098-16.269 0-4.493 5.098-4.493 13.364 0 18.463 4.492 5.098 11.776 5.098 16.269 0z" fill="#000"/>
<path d="m173.58 196.538c4.901-5.561 4.901-14.578 0-20.14-4.9-5.561-12.846-5.561-17.747 0-4.901 5.562-4.901 14.579 0 20.14 4.901 5.562 12.847 5.562 17.747 0z" fill="#000"/>
<g fill="#5d88d6">
<path d="m93.0159 163.822c3.269-3.71 3.269-9.725 0-13.435-3.2691-3.71-8.5692-3.71-11.8383 0-3.269 3.71-3.269 9.725 0 13.435 3.2691 3.709 8.5692 3.709 11.8383 0z"/>
<path d="m61.2313 195.961c4.6231 0 8.3709-4.254 8.3709-9.5s-3.7478-9.5-8.3709-9.5c-4.6232 0-8.3709 4.254-8.3709 9.5s3.7477 9.5 8.3709 9.5z"/>
<path d="m35.3709 225.337c4.6231 0 8.3709-4.253 8.3709-9.5 0-5.246-3.7478-9.499-8.3709-9.499s-8.3709 4.253-8.3709 9.499c0 5.247 3.7478 9.5 8.3709 9.5z"/>
<path d="m87.1002 225.321c4.6231 0 8.3709-4.253 8.3709-9.5 0-5.246-3.7478-9.499-8.3709-9.499-4.6232 0-8.371 4.253-8.371 9.499 0 5.247 3.7478 9.5 8.371 9.5z"/>
<path d="m144.762 222.559c3.269-3.71 3.269-9.724 0-13.434s-8.569-3.71-11.838 0-3.269 9.724 0 13.434 8.569 3.71 11.838 0z"/>
<path d="m118.884 193.175c3.269-3.71 3.269-9.724 0-13.434s-8.569-3.71-11.838 0c-3.27 3.71-3.27 9.724 0 13.434 3.269 3.71 8.569 3.71 11.838 0z"/>
</g>
</svg>