<svg width="256" height="256" viewBox="0 0 256 256" fill="none" xmlns="http://www.w3.org/2000/svg">
<path d="M196 0H60C26.8629 0 0 26.8629 0 60V196C0 229.137 26.8629 256 60 256H196C229.137 256 256 229.137 256 196V60C256 26.8629 229.137 0 196 0Z" fill="#242938"/>
<g clip-path="url(#clip0_950_93)">
<path d="M146.095 33H37.5238C35.0254 33 33 35.0254 33 37.5238C33 40.0222 35.0254 42.0476 37.5238 42.0476H146.095C148.594 42.0476 150.619 40.0222 150.619 37.5238C150.619 35.0254 148.594 33 146.095 33Z" fill="#56B3B4"/>
<path d="M218.476 33H164.19C161.692 33 159.667 35.0254 159.667 37.5238C159.667 40.0222 161.692 42.0476 164.19 42.0476H218.476C220.974 42.0476 223 40.0222 223 37.5238C223 35.0254 220.974 33 218.476 33Z" fill="#404659"/>
<path d="M64.6667 51.0952H37.5238C35.0254 51.0952 33 53.1206 33 55.619C33 58.1175 35.0254 60.1428 37.5238 60.1428H64.6667C67.1651 60.1428 69.1905 58.1175 69.1905 55.619C69.1905 53.1206 67.1651 51.0952 64.6667 51.0952Z" fill="#EA5E5E"/>
<path d="M173.238 51.0952H82.7621C80.2637 51.0952 78.2383 53.1206 78.2383 55.619C78.2383 58.1175 80.2637 60.1428 82.7621 60.1428H173.238C175.737 60.1428 177.762 58.1175 177.762 55.619C177.762 53.1206 175.737 51.0952 173.238 51.0952Z" fill="#FBBF47"/>
<path d="M218.476 51.0952H191.333C188.835 51.0952 186.81 53.1206 186.81 55.619C186.81 58.1175 188.835 60.1428 191.333 60.1428H218.476C220.975 60.1428 223 58.1175 223 55.619C223 53.1206 220.975 51.0952 218.476 51.0952Z" fill="#404659"/>
<path d="M100.857 69.1904H37.5238C35.0254 69.1904 33 71.2158 33 73.7142C33 76.2127 35.0254 78.238 37.5238 78.238H100.857C103.356 78.238 105.381 76.2127 105.381 73.7142C105.381 71.2158 103.356 69.1904 100.857 69.1904Z" fill="#56B3B4"/>
<path d="M155.143 69.1904H118.953C116.454 69.1904 114.429 71.2158 114.429 73.7142C114.429 76.2127 116.454 78.238 118.953 78.238H155.143C157.641 78.238 159.667 76.2127 159.667 73.7142C159.667 71.2158 157.641 69.1904 155.143 69.1904Z" fill="#C693C6"/>
<path d="M182.286 69.1904H173.238C170.74 69.1904 168.714 71.2158 168.714 73.7142C168.714 76.2127 170.74 78.238 173.238 78.238H182.286C184.784 78.238 186.81 76.2127 186.81 73.7142C186.81 71.2158 184.784 69.1904 182.286 69.1904Z" fill="#56B3B4"/>
<path d="M218.476 69.1904H200.381C197.882 69.1904 195.857 71.2158 195.857 73.7142C195.857 76.2127 197.882 78.238 200.381 78.238H218.476C220.974 78.238 223 76.2127 223 73.7142C223 71.2158 220.974 69.1904 218.476 69.1904Z" fill="#404659"/>
<path d="M73.7143 87.2856H37.5238C35.0254 87.2856 33 89.311 33 91.8095C33 94.3079 35.0254 96.3333 37.5238 96.3333H73.7143C76.2127 96.3333 78.2381 94.3079 78.2381 91.8095C78.2381 89.311 76.2127 87.2856 73.7143 87.2856Z" fill="#FBBF47"/>
<path d="M128 87.2856H91.8095C89.311 87.2856 87.2856 89.311 87.2856 91.8095C87.2856 94.3079 89.311 96.3333 91.8095 96.3333H128C130.498 96.3333 132.524 94.3079 132.524 91.8095C132.524 89.311 130.498 87.2856 128 87.2856Z" fill="#404659"/>
<path d="M191.333 87.2856H146.095C143.597 87.2856 141.571 89.311 141.571 91.8095C141.571 94.3079 143.597 96.3333 146.095 96.3333H191.333C193.832 96.3333 195.857 94.3079 195.857 91.8095C195.857 89.311 193.832 87.2856 191.333 87.2856Z" fill="#EA5E5E"/>
<path d="M218.476 87.2856H209.429C206.93 87.2856 204.905 89.311 204.905 91.8095C204.905 94.3079 206.93 96.3333 209.429 96.3333H218.476C220.975 96.3333 223 94.3079 223 91.8095C223 89.311 220.975 87.2856 218.476 87.2856Z" fill="#404659"/>
<path d="M73.7143 105.381H37.5238C35.0254 105.381 33 107.406 33 109.905C33 112.403 35.0254 114.428 37.5238 114.428H73.7143C76.2127 114.428 78.2381 112.403 78.2381 109.905C78.2381 107.406 76.2127 105.381 73.7143 105.381Z" fill="#C693C6"/>
<path d="M128 105.381H91.8095C89.311 105.381 87.2856 107.406 87.2856 109.905C87.2856 112.403 89.311 114.428 91.8095 114.428H128C130.498 114.428 132.524 112.403 132.524 109.905C132.524 107.406 130.498 105.381 128 105.381Z" fill="#404659"/>
<path d="M191.333 105.381H146.095C143.597 105.381 141.571 107.406 141.571 109.905C141.571 112.403 143.597 114.428 146.095 114.428H191.333C193.832 114.428 195.857 112.403 195.857 109.905C195.857 107.406 193.832 105.381 191.333 105.381Z" fill="#FBBF47"/>
<path d="M218.476 105.381H209.429C206.93 105.381 204.905 107.406 204.905 109.905C204.905 112.403 206.93 114.428 209.429 114.428H218.476C220.975 114.428 223 112.403 223 109.905C223 107.406 220.975 105.381 218.476 105.381Z" fill="#404659"/>
<path d="M46.5714 123.476H37.5238C35.0254 123.476 33 125.501 33 128C33 130.498 35.0254 132.524 37.5238 132.524H46.5714C49.0699 132.524 51.0952 130.498 51.0952 128C51.0952 125.501 49.0699 123.476 46.5714 123.476Z" fill="#EA5E5E"/>
<path d="M91.8097 123.476H64.6669C62.1684 123.476 60.1431 125.501 60.1431 128C60.1431 130.498 62.1684 132.524 64.6669 132.524H91.8097C94.3082 132.524 96.3335 130.498 96.3335 128C96.3335 125.501 94.3082 123.476 91.8097 123.476Z" fill="#FBBF47"/>
<path d="M182.286 123.476H109.905C107.406 123.476 105.381 125.501 105.381 128C105.381 130.498 107.406 132.524 109.905 132.524H182.286C184.784 132.524 186.809 130.498 186.809 128C186.809 125.501 184.784 123.476 182.286 123.476Z" fill="#56B3B4"/>
<path d="M218.476 123.476H200.381C197.882 123.476 195.857 125.501 195.857 128C195.857 130.498 197.882 132.524 200.381 132.524H218.476C220.974 132.524 223 130.498 223 128C223 125.501 220.974 123.476 218.476 123.476Z" fill="#404659"/>
<path d="M73.7143 141.571H37.5238C35.0254 141.571 33 143.597 33 146.095C33 148.594 35.0254 150.619 37.5238 150.619H73.7143C76.2127 150.619 78.2381 148.594 78.2381 146.095C78.2381 143.597 76.2127 141.571 73.7143 141.571Z" fill="#56B3B4"/>
<path d="M128 141.571H91.8095C89.311 141.571 87.2856 143.597 87.2856 146.095C87.2856 148.594 89.311 150.619 91.8095 150.619H128C130.498 150.619 132.524 148.594 132.524 146.095C132.524 143.597 130.498 141.571 128 141.571Z" fill="#EA5E5E"/>
<path d="M173.238 141.571H146.095C143.597 141.571 141.571 143.597 141.571 146.095C141.571 148.594 143.597 150.619 146.095 150.619H173.238C175.736 150.619 177.762 148.594 177.762 146.095C177.762 143.597 175.736 141.571 173.238 141.571Z" fill="#C693C6"/>
<path d="M218.476 141.571H191.333C188.835 141.571 186.81 143.597 186.81 146.095C186.81 148.594 188.835 150.619 191.333 150.619H218.476C220.975 150.619 223 148.594 223 146.095C223 143.597 220.975 141.571 218.476 141.571Z" fill="#404659"/>
<path d="M46.5714 159.667H37.5238C35.0254 159.667 33 161.692 33 164.19C33 166.689 35.0254 168.714 37.5238 168.714H46.5714C49.0699 168.714 51.0952 166.689 51.0952 164.19C51.0952 161.692 49.0699 159.667 46.5714 159.667Z" fill="#C693C6"/>
<path d="M146.095 159.667H64.6669C62.1684 159.667 60.1431 161.692 60.1431 164.19C60.1431 166.689 62.1684 168.714 64.6669 168.714H146.095C148.594 168.714 150.619 166.689 150.619 164.19C150.619 161.692 148.594 159.667 146.095 159.667Z" fill="#FBBF47"/>
<path d="M218.476 159.667H164.19C161.692 159.667 159.667 161.692 159.667 164.19C159.667 166.689 161.692 168.714 164.19 168.714H218.476C220.974 168.714 223 166.689 223 164.19C223 161.692 220.974 159.667 218.476 159.667Z" fill="#404659"/>
<path d="M91.8095 177.762H37.5238C35.0254 177.762 33 179.787 33 182.286C33 184.784 35.0254 186.809 37.5238 186.809H91.8095C94.308 186.809 96.3333 184.784 96.3333 182.286C96.3333 179.787 94.308 177.762 91.8095 177.762Z" fill="#C693C6"/>
<path d="M218.476 177.762H109.905C107.406 177.762 105.381 179.787 105.381 182.286C105.381 184.784 107.406 186.809 109.905 186.809H218.476C220.975 186.809 223 184.784 223 182.286C223 179.787 220.975 177.762 218.476 177.762Z" fill="#404659"/>
<path d="M55.619 195.857H37.5238C35.0254 195.857 33 197.882 33 200.381C33 202.879 35.0254 204.905 37.5238 204.905H55.619C58.1175 204.905 60.1429 202.879 60.1429 200.381C60.1429 197.882 58.1175 195.857 55.619 195.857Z" fill="#56B3B4"/>
<path d="M91.8095 195.857H73.7142C71.2158 195.857 69.1904 197.882 69.1904 200.381C69.1904 202.879 71.2158 204.905 73.7142 204.905H91.8095C94.3079 204.905 96.3333 202.879 96.3333 200.381C96.3333 197.882 94.3079 195.857 91.8095 195.857Z" fill="#FBBF47"/>
<path d="M218.476 195.857H109.905C107.406 195.857 105.381 197.882 105.381 200.381C105.381 202.879 107.406 204.905 109.905 204.905H218.476C220.975 204.905 223 202.879 223 200.381C223 197.882 220.975 195.857 218.476 195.857Z" fill="#404659"/>
<path d="M91.8095 213.952H37.5238C35.0254 213.952 33 215.978 33 218.476C33 220.974 35.0254 223 37.5238 223H91.8095C94.308 223 96.3333 220.974 96.3333 218.476C96.3333 215.978 94.308 213.952 91.8095 213.952Z" fill="#EA5E5E"/>
<path d="M218.476 213.952H109.905C107.406 213.952 105.381 215.978 105.381 218.476C105.381 220.974 107.406 223 109.905 223H218.476C220.975 223 223 220.974 223 218.476C223 215.978 220.975 213.952 218.476 213.952Z" fill="#404659"/>
</g>
<defs>
<clipPath id="clip0_950_93">
<rect width="190" height="190" fill="white" transform="translate(33 33)"/>
</clipPath>
</defs>
</svg>
