<svg width="256" height="256" viewBox="0 0 256 256" fill="none" xmlns="http://www.w3.org/2000/svg">
<path d="M196 0H60C26.8629 0 0 26.8629 0 60V196C0 229.137 26.8629 256 60 256H196C229.137 256 256 229.137 256 196V60C256 26.8629 229.137 0 196 0Z" fill="#F4F2ED"/>
<path d="M128 28L28 61.2L43.2524 184.3L128 228L212.748 184.3L228 61.2L128 28Z" fill="#DD0031"/>
<mask id="mask0_223_525" style="mask-type:alpha" maskUnits="userSpaceOnUse" x="28" y="28" width="200" height="201">
<path d="M128 28L28 61.2664L43.2524 184.613L128 228.4L212.748 184.613L228 61.2664L128 28Z" fill="white"/>
</mask>
<path fill-rule="evenodd" clip-rule="evenodd" d="M127.996 28V50.2444V50.1442V151.647V228.4L212.744 184.613L227.996 61.2664L127.996 28Z" fill="#C3002F"/>
<path d="M157.29 123L148 121L155.226 131V162L180 142V108L168.645 112L157.29 123Z" fill="white"/>
<path d="M97.7097 123L107 121L99.7744 131V162L75 142V108L86.355 112L97.7097 123Z" fill="white"/>
<path fill-rule="evenodd" clip-rule="evenodd" d="M102 132.164L110.87 120L116.413 123.041H138.587L144.13 120L153 132.164V177.781L146.348 186.904L138.587 194H116.413L108.652 186.904L102 177.781V132.164Z" fill="white"/>
<path d="M156 181L169 168V155L156 166V181Z" fill="white"/>
<path d="M99 181L86 168V155L99 166V181Z" fill="white"/>
<path fill-rule="evenodd" clip-rule="evenodd" d="M112.953 63L104 82L118.548 120H125.262V63H112.953ZM129.738 63V120H137.572L151 82L142.048 63H129.738Z" fill="white"/>
<path d="M118.94 120L73.3599 104L67 79L106.22 82L120 120H118.94Z" fill="white"/>
<path d="M137.06 120L182.64 104L189 79L148.72 82L136 120H137.06Z" fill="white"/>
<path d="M153.25 79L175 77.0001L160.5 63H146L153.25 79Z" fill="white"/>
<path d="M102.5 79L80 77.0001L95.0002 63H110L102.5 79Z" fill="white"/>
</svg>
