<svg width="256" height="256" viewBox="0 0 256 256" fill="none" id="primereact" xmlns="http://www.w3.org/2000/svg">
<style>
#primereact {
    rect {fill: #242938}
    
    @media (prefers-color-scheme: light) {
        rect {fill: #F4F2ED}
    }
}   
</style>
<rect width="256" height="256" fill="#242938" rx="60"/>
<path fill-rule="evenodd" clip-rule="evenodd" d="M223.95 104.333L209.012 127.875L223.92 151.371C229.36 159.942 229.36 170.177 223.921 178.748C218.482 187.32 208.74 192.437 197.862 192.437H168.043L154.254 214.167C148.758 222.829 138.914 228 127.921 228C116.928 228 107.083 222.829 101.587 214.167L87.798 192.437H57.9204C47.1211 192.437 37.4498 187.357 32.05 178.847C26.6502 170.337 26.6502 160.177 32.05 151.667L46.9886 128.125L32.0793 104.63C26.6402 96.0583 26.6402 85.8238 32.0793 77.2522C37.5184 68.6806 47.2603 63.5632 58.1384 63.5632H87.9572L101.746 41.8332C107.242 33.1719 117.087 28 128.08 28C139.073 28 148.917 33.1714 154.413 41.8332L168.202 63.5632H198.079C208.879 63.5632 218.551 68.6438 223.95 77.1532C229.35 85.6625 229.35 95.8231 223.95 104.333ZM128.08 33.9897C119.467 33.9895 111.754 38.0412 107.447 44.8279L95.5582 63.5632H160.6L148.712 44.8279C144.406 38.0412 136.693 33.9897 128.08 33.9897ZM167.418 181.444L167.098 181.947L167.052 182.02L166.285 183.229L162.21 189.651L161.509 190.756L153.041 204.101L150.488 208.124L148.69 210.958L148.622 210.972L148.581 211.036C144.275 217.823 136.419 219.778 127.806 219.777C119.206 219.777 111.645 217.834 107.336 211.064L107.2 211.033L102.829 204.145L101.734 202.42L54.5899 128.125L63.1412 114.65L63.1423 114.654L78.2252 90.8968L78.2147 90.8952L79.927 88.1972L79.9379 88.1992L91.7761 69.5528L164.404 69.5296L201.41 127.875L167.418 181.444ZM218.22 175.753C213.971 182.449 206.36 186.447 197.862 186.447H171.844L205.21 133.864L218.219 154.365C222.469 161.062 222.469 169.057 218.22 175.753ZM37.7511 175.852C41.961 182.487 49.5008 186.447 57.9204 186.447H83.9973L50.7894 134.115L37.7511 154.662C33.5414 161.297 33.5414 169.218 37.7511 175.852ZM37.7807 101.635C33.5314 94.9389 33.5314 86.9428 37.7807 80.2468C42.0296 73.5505 49.64 69.5528 58.1384 69.5528H84.1561L50.7894 122.136L37.7807 101.635ZM198.079 69.5528C206.499 69.5528 214.04 73.5133 218.249 80.1478C222.459 86.7819 222.459 94.7037 218.249 101.338L205.21 121.886L172.003 69.5528H198.079Z" fill="#03C4E8"/>
<path d="M162.903 138.389L151 136.204L160.258 147.13V181L189.586 159.148L192 122L177.452 126.37L162.903 138.389Z" fill="#03C4E8"/>
<path d="M94.3872 138.389L106 136.204L96.9676 147.13V181L68.3554 159.148L66 122L80.1936 126.37L94.3872 138.389Z" fill="#03C4E8"/>
<path fill-rule="evenodd" clip-rule="evenodd" d="M101 147.949L110.391 134L116.261 137.487H139.739L145.609 134L155 147.949V200.257L144.025 221H109.833L101 200.257V147.949Z" fill="#03C4E8"/>
<path d="M160 204L176 189.5V175L160 187.269V204Z" fill="#03C4E8"/>
<path d="M97 204L81 189.5V175L97 187.269V204Z" fill="#03C4E8"/>
<path fill-rule="evenodd" clip-rule="evenodd" d="M113.524 71L104 91.6668L119.476 133H126.619V71H113.524ZM131.381 71V133H139.714L154 91.6668L144.476 71H131.381Z" fill="#03C4E8"/>
<path d="M119.76 133L66.44 115.049L59 87L104.88 90.3658L121 133H119.76Z" fill="#03C4E8"/>
<path d="M138.26 133L192.44 115.049L200 87L152.12 90.3658L137 133H138.26Z" fill="#03C4E8"/>
<path d="M156.628 87L183 84.9998L166.256 71H147L156.628 87Z" fill="#03C4E8"/>
<path d="M100.64 87L75 84.9998L91.2796 71H110L100.64 87Z" fill="#03C4E8"/>
</svg>
