<svg width="256" height="256" viewBox="0 0 256 256" fill="none" xmlns="http://www.w3.org/2000/svg" id="primevue">
<style>
#primevue {
    path.rect {fill: #242938}
    
    @media (prefers-color-scheme: light) {
        rect {fill: #F4F2ED}
        path[fill="white"] {fill:black} 
    }
}
</style>
<rect width="256" height="256" fill="#242938" rx="60"/>
<path d="M170.089 118.152L156.462 115.122L167.072 130.323V177.389L203.378 146.988V95.3265L186.734 101.386L170.089 118.102V118.152ZM167.072 206.225L186.734 186.479V166.733L167.072 183.449V206.225ZM141.376 113.557H140.722H141.426H141.376ZM191.36 53.2095L215.447 51.2905L206.345 89.2665L161.189 106.133L191.259 53.26L191.36 53.2095ZM68.7634 101.437L52.1189 95.377V147.038L88.4251 177.439V130.373L99.0354 115.173L85.408 118.203L68.7634 101.487V101.437ZM88.4251 183.449L68.7634 166.733V186.479L88.4251 206.225V183.449ZM64.1371 53.26L94.208 106.133L49.1017 89.2665L40 51.2905L64.0869 53.2095L64.1371 53.26ZM162.546 133.302V201.679L153.445 215.314L142.885 225.97H112.613L102.053 215.314L92.9509 201.679V133.302L102.455 119.061L127.749 162.34L153.042 119.061L162.546 133.302ZM154.903 27L153.495 30.4845L127.749 93.054L102.002 30.4845L100.594 27H154.903Z" fill="#41B883"/>
<path d="M194.327 48.2605L162.546 51.2905L153.495 30.4845L154.953 27H173.157L194.327 48.2605ZM159.429 55.6335L153.947 42.554L130.766 98.912V113.557H139.063H140.722H141.376H141.577L161.189 106.285L191.41 53.2095L159.429 55.6335ZM61.1704 48.2605L92.9509 51.2905L102.002 30.4845L100.594 27H82.391L61.2207 48.2605H61.1704ZM150.126 114.87L143.589 118.91H111.909L105.371 114.87L102.354 118.91L102.455 119.062L127.749 162.34L153.042 119.062L153.143 118.91L150.126 114.87ZM64.087 53.2095L94.3086 106.285L113.92 113.557H114.121H116.434H124.731V98.912L101.55 42.6045L96.0686 55.684L64.087 53.26V53.2095Z" fill="white" />
</svg>
