<svg width="256" height="256" viewBox="0 0 256 256" fill="none" xmlns="http://www.w3.org/2000/svg">
<rect width="256" height="256" rx="60" fill="#242938" />
<path d="M175.298 127.562L223.528 180.563C218.228 186.04 210.808 189.398 202.679 189.398C194.023 189.398 186.427 185.687 181.127 179.857L154.45 150.531L133.602 127.562L154.45 104.771L181.127 75.4432C186.427 69.6144 194.023 65.9022 202.679 65.9022C210.808 65.9022 218.228 69.2592 223.528 74.5597L175.298 127.562Z" fill="#E57000"/>
<path d="M81.2305 127.561L33 180.563C38.3003 186.039 45.7203 189.397 53.8491 189.397C62.505 189.397 70.1012 185.687 75.4017 179.856L102.078 150.53L122.926 127.561L102.078 104.77L75.4017 75.4424C70.1012 69.6135 62.505 65.9016 53.8491 65.9016C45.7203 65.9016 38.3003 69.2584 33 74.5589L81.2305 127.561Z" fill="#E57000"/>
<path d="M147.269 153.841L128.24 132.877L109.211 153.841L65.1885 202.219C70.0259 207.057 76.8002 210.121 84.2153 210.121C92.1175 210.121 98.7303 206.895 103.728 201.413L128.24 174.644L152.588 201.413C157.427 206.732 164.36 210.121 172.261 210.121C179.68 210.121 186.453 207.057 191.29 202.219L147.269 153.841Z" fill="black"/>
<path d="M147.267 101.279L128.239 122.243L109.21 101.279L65.187 52.9015C70.0245 48.0639 76.7989 45 84.214 45C92.1162 45 98.7288 48.226 103.727 53.7079L128.239 80.4763L152.587 53.7079C157.425 48.3881 164.358 45 172.259 45C179.678 45 186.451 48.0639 191.289 52.9015L147.267 101.279Z" fill="black"/>
</svg>