<svg width="256" height="256" viewBox="0 0 256 256" fill="none" id="pulsar" xmlns="http://www.w3.org/2000/svg" xmlns:xlink="http://www.w3.org/1999/xlink">
<style>
#pulsar {
    rect {fill: #242938}
    
    @media (prefers-color-scheme: light) {
        rect {fill: #F4F2ED}
    }
}  
</style>
<g clip-path="url(#a)">
<rect width="256" height="256" fill="#242938" rx="60"/>
<path d="m225 93.6007h-47.419c-12.816-33.5552-26.365-59.6007-44.811-59.6007-24.011 0-35.3011 28.6066-46.2097 56.4318l-.9541 2.431h-54.6062v16.5392h31.8033c11.2265 0 13.5164 5.165 13.5164 5.165-8.8095 18.666-19.4 37.115-37.0508 37.115h-8.2689v17.364h8.3325c34.2203 0 49.1678-37.896 61.1575-68.326 11.004-28.0425 18.669-45.0155 32.28-45.0155 14.122 0 28.973 41.9333 42.045 78.9615 1.908 5.382 3.848 10.895 5.82 16.365-50.123 2.17-74.007 18.188-93.4386 31.254-14.2161 9.55-25.4426 21.401-43.9204 21.401h-12.276v17.363h12.1806c22.2624 0 36.1286-9.376 50.8853-19.316 20.4491-13.718 43.6341-29.258 98.2721-29.258h31.581v-17.364h-17.842c-1.466.152-2.938-.161-4.3-.915-1.363-.752-2.58-1.925-3.555-3.426-3.117-8.247-6.17-16.929-9.16-25.611l-4.134-11.547s2.957-4.341 11.163-4.341h28.909z" fill="#188fff"/>
</g>
</svg>