<svg width="256" height="256" viewBox="0 0 256 256" fill="none" id="pulsar" xmlns="http://www.w3.org/2000/svg">
<style>
#pulsar {
    rect {fill: #242938}
    
    @media (prefers-color-scheme: light) {
        rect {fill: #F4F2ED}
    }
}  
</style>
<rect width="256" height="256" fill="#242938" rx="60"/>
<path d="M225 100.84H177.581C164.765 74.4689 151.216 54 132.77 54C108.759 54 97.4689 76.4817 86.5603 98.3492L85.6062 100.26H31V113.258H62.8033C74.0298 113.258 76.3197 117.317 76.3197 117.317C67.5102 131.986 56.9197 146.485 39.2689 146.485H31V160.131H39.3325C73.5528 160.131 88.5003 130.349 100.49 106.435C111.494 84.3963 119.159 71.0574 132.77 71.0574C146.892 71.0574 161.743 104.012 174.815 133.112C176.723 137.342 178.663 141.675 180.635 145.974C130.512 147.679 106.628 160.267 87.1964 170.536C72.9803 178.041 61.7538 187.355 43.276 187.355H31V201H43.1806C65.443 201 79.3092 193.631 94.0659 185.82C114.515 175.039 137.7 162.826 192.338 162.826H223.919V149.18H206.077C204.611 149.299 203.139 149.053 201.777 148.461C200.414 147.87 199.197 146.948 198.222 145.768C195.105 139.287 192.052 132.464 189.062 125.641L184.928 116.566C184.928 116.566 187.885 113.155 196.091 113.155H225V100.84Z" fill="#188FFF"/>
</svg>
