<svg width="256" height="256" viewBox="0 0 256 256" fill="none" xmlns="http://www.w3.org/2000/svg">
<path d="M196 0H60C26.8629 0 0 26.8629 0 60V196C0 229.137 26.8629 256 60 256H196C229.137 256 256 229.137 256 196V60C256 26.8629 229.137 0 196 0Z" fill="#242938"/>
<path fill-rule="evenodd" clip-rule="evenodd" d="M69.8767 138.023C76.7213 134.071 76.7327 121.277 69.9021 109.446C63.0715 97.6155 51.9856 91.2285 45.1409 95.1804C38.2963 99.1322 38.2849 111.926 45.1155 123.757C51.9461 135.588 63.0321 141.975 69.8767 138.023ZM69.9177 163.355C76.7483 175.186 76.7369 187.98 69.8923 191.932C63.0475 195.884 51.9616 189.497 45.1311 177.666C38.3005 165.835 38.3118 153.041 45.1565 149.089C52.0011 145.137 63.0871 151.524 69.9177 163.355ZM116.562 190.322C123.392 202.153 123.381 214.946 116.536 218.9C109.692 222.851 98.6056 216.464 91.775 204.633C84.9446 192.802 84.956 180.008 91.8006 176.056C98.6452 172.105 109.731 178.491 116.562 190.322ZM116.546 136.414C123.377 148.244 123.366 161.039 116.521 164.991C109.677 168.942 98.5906 162.555 91.76 150.725C84.9294 138.894 84.9408 126.1 91.7854 122.148C98.63 118.196 109.716 124.583 116.546 136.414Z" fill="#F26E7E"/>
<path fill-rule="evenodd" clip-rule="evenodd" d="M209.858 123.786C216.688 111.955 216.677 99.161 209.832 95.2092C202.988 91.2573 191.902 97.6443 185.071 109.475C178.241 121.306 178.252 134.1 185.097 138.052C191.941 142.004 203.027 135.617 209.858 123.786ZM209.859 149.105C216.703 153.057 216.716 165.851 209.885 177.682C203.054 189.513 191.968 195.9 185.123 191.948C178.279 187.996 178.267 175.202 185.098 163.371C191.929 151.541 203.015 145.154 209.859 149.105ZM163.224 176.028C170.069 179.98 170.081 192.774 163.25 204.605C156.419 216.435 145.333 222.822 138.489 218.871C131.644 214.919 131.633 202.125 138.463 190.294C145.294 178.463 156.38 172.076 163.224 176.028ZM163.198 122.132C170.043 126.084 170.054 138.878 163.223 150.708C156.393 162.539 145.307 168.926 138.462 164.974C131.618 161.022 131.606 148.228 138.437 136.398C145.267 124.567 156.353 118.18 163.198 122.132Z" fill="#8A3391"/>
<path fill-rule="evenodd" clip-rule="evenodd" d="M152.215 49.311C152.215 57.2147 141.141 63.622 127.48 63.622C113.818 63.622 102.744 57.2147 102.744 49.311C102.744 41.4072 113.818 35 127.48 35C141.141 35 152.215 41.4072 152.215 49.311ZM105.581 76.2062C105.581 84.11 94.5064 90.5172 80.8451 90.5172C67.1839 90.5172 56.1094 84.11 56.1094 76.2062C56.1094 68.3025 67.1839 61.8953 80.8451 61.8953C94.5064 61.8953 105.581 68.3025 105.581 76.2062ZM174.175 90.5172C187.836 90.5172 198.911 84.11 198.911 76.2062C198.911 68.3025 187.836 61.8953 174.175 61.8953C160.514 61.8953 149.439 68.3025 149.439 76.2062C149.439 84.11 160.514 90.5172 174.175 90.5172ZM152.215 103.162C152.215 111.066 141.141 117.473 127.48 117.473C113.818 117.473 102.744 111.066 102.744 103.162C102.744 95.2582 113.818 88.8509 127.48 88.8509C141.141 88.8509 152.215 95.2582 152.215 103.162Z" fill="#F7BF2A"/>
</svg>
