<svg width="256" height="256" viewBox="0 0 256 256" fill="none" id="puppygraph" xmlns="http://www.w3.org/2000/svg" xmlns:xlink="http://www.w3.org/1999/xlink">
<style>
#puppygraph {
    rect {fill: #242938}
    
    @media (prefers-color-scheme: light) {
        rect {fill: #F4F2ED}
    }
}  
</style>
<g clip-path="url(#a)">
<rect width="256" height="256" fill="#242938" rx="60"/>
<g fill="#5e2f76">
<path d="m181.179 30h-106.3857c-29.1775 0-52.7933 23.1265-52.7933 51.6372v81.9058 24.94 36.49h28.3216l11.3515-36.49 5.2482-16.85c22.1042 16.516 47.5177 16.85 49.3147 16.85h.112 6.674v-24.94-29.654c-7.5 0-13.604 5.969-13.604 13.306v16.348 10.74c-11.323-.669-22.0183-4.546-31.1737-10.74-17.6548-11.913-29.6057-32.36-29.6057-54.929v-26.0003h85.4224c4.763 0 9.384 1.5344 13.176 4.3799l16.999 12.7489c6.133 4.6035 13.662 7.0855 21.392 7.0855h21.02v23.294c0 10.462-8.671 18.97-19.395 18.97h-11.037c-11.094 0-20.822 5.803-26.155 14.478-2.767 4.492-4.364 9.764-4.364 15.372v9.569 36.489h38.704v-36.573c27.666-1.617 49.599-24.074 49.599-51.553v-55.2088c0-28.5387-23.644-51.6652-52.821-51.6652z"/>
<path d="m130.572 96.9382c-4.257 0-7.711 3.1768-7.711 7.0928s3.454 7.093 7.711 7.093 7.711-3.177 7.711-7.093c.027-3.916-3.427-7.0928-7.711-7.0928z"/>
</g>
</g>
</svg>