<svg width="256" height="256" viewBox="0 0 256 256" fill="none" xmlns="http://www.w3.org/2000/svg" id="pwa">
<style>
#pwa {
    rect {fill: #242938}
    path[fill="#F1F1F1"] {fill: #F1F1F1}

    @media (prefers-color-scheme: light) {
        rect {fill: #F4F2ED}
        path[fill="#F1F1F1"] {fill: #3D3D3D}
    }
}
</style>
<rect width="256" height="256" rx="60" fill="#242938"/>
<path d="M178.795 153.685L185.028 137.923H203.025L194.484 114.013L205.166 87L235.762 168.235H213.199L207.97 153.685H178.795Z" fill="#F1F1F1"/>
<path d="M159.546 168.235L192.299 87.0001L170.585 87.0002L148.18 139.496L132.248 87.0003H115.557L98.4498 139.496L86.3855 115.575L75.4678 149.21L86.5525 168.235H107.922L123.381 121.158L138.12 168.235H159.546Z" fill="#5A0FC8"/>
<path d="M40.6119 140.348H53.9868C58.0383 140.348 61.646 139.896 64.8099 138.992L68.2688 128.335L77.936 98.5525C77.1994 97.385 76.3584 96.2811 75.4132 95.241C70.4496 89.7469 63.1876 87 53.6268 87H20V168.235H40.6119V140.348ZM58.3156 105.689C60.2544 107.64 61.2236 110.251 61.2236 113.522C61.2236 116.819 60.3711 119.433 58.6661 121.366C56.797 123.513 53.3553 124.586 48.3413 124.586H40.6119V102.762H48.3981C53.0711 102.762 56.3769 103.738 58.3156 105.689Z" fill="#F1F1F1"/>
</svg>
