<svg width="256" height="256" viewBox="0 0 256 256" fill="none" xmlns="http://www.w3.org/2000/svg">
<path d="M196 0H60C26.8629 0 0 26.8629 0 60V196C0 229.137 26.8629 256 60 256H196C229.137 256 256 229.137 256 196V60C256 26.8629 229.137 0 196 0Z" fill="#F4F2ED"/>
<path d="M219.647 169.38L133.335 49.7995C130.618 46.0668 124.353 46.0668 121.665 49.7995L35.3515 169.38C34.4728 170.603 34.0001 172.072 34 173.578C34.0018 175.091 34.4789 176.564 35.3639 177.791C36.2489 179.018 37.4971 179.936 38.9322 180.415L125.246 208.646H125.259C126.708 209.118 128.27 209.118 129.719 208.646H129.732L216.046 180.417C217.123 180.068 218.102 179.468 218.901 178.666C219.7 177.864 220.296 176.883 220.641 175.805C220.996 174.731 221.09 173.587 220.913 172.469C220.737 171.352 220.296 170.292 219.627 169.38H219.647ZM127.503 66.278L162.098 114.21L129.746 103.632C129.497 103.551 129.231 103.565 128.982 103.505C128.738 103.445 128.489 103.404 128.239 103.383C127.989 103.349 127.752 103.255 127.503 103.255C127.253 103.255 127.023 103.349 126.772 103.383C126.523 103.41 126.274 103.451 126.03 103.505C125.773 103.552 125.51 103.552 125.28 103.632L93.1228 114.15L92.9196 114.217L127.518 66.2753H127.505L127.503 66.278ZM78.6228 134.009L116.286 121.683L120.307 120.373V191.911L52.7781 169.818L78.6228 134.009ZM134.705 191.898V120.373L176.389 134.009L202.235 169.798L134.698 191.898H134.705Z" fill="#E620E9"/>
</svg>
