<svg width="256" height="256" viewBox="0 0 256 256" fill="none" xmlns="http://www.w3.org/2000/svg">
<g clip-path="url(#clip0_3_37)">
<path d="M196.003 0.0110474H60.0032C26.8661 0.0110474 0.00323486 26.8739 0.00323486 60.011V196.011C0.00323486 229.148 26.8661 256.011 60.0032 256.011H196.003C229.14 256.011 256.003 229.148 256.003 196.011V60.011C256.003 26.8739 229.14 0.0110474 196.003 0.0110474Z" fill="#F4F2ED"/>
<path fill-rule="evenodd" clip-rule="evenodd" d="M61.208 259.376C61.7697 257.948 64.269 250.856 65.5797 239.149C66.7032 229.105 66.7195 189.462 65.5797 179.19C63.8132 163.224 53.0916 113.345 53.0916 113.345L215.707 133.568C215.707 133.568 206.777 142.714 203.821 147.716C199.442 155.12 191.765 167.191 187.328 177.731C181.304 192.052 175.401 216.23 168.652 234.798L159.209 260.18C112.633 260.251 112.368 260.579 61.208 259.376Z" fill="#AA910D" stroke="black" stroke-width="2.71094" stroke-miterlimit="1.5" stroke-linecap="round" stroke-linejoin="round"/>
<path fill-rule="evenodd" clip-rule="evenodd" d="M172.047 154.521L214.592 133.24C214.592 133.24 205.661 142.385 202.698 147.387C198.326 154.791 190.649 166.862 186.212 177.402C180.188 191.724 174.286 215.902 167.537 234.47C164.732 242.19 161.589 251.422 158.291 260.955L127.263 274.034C133.003 261.581 137.472 245.724 141.559 235.841C149.277 217.159 153.6 191.742 159.998 176.919C163.523 168.769 172.047 154.521 172.047 154.521Z" fill="#DCBC00"/>
<path fill-rule="evenodd" clip-rule="evenodd" d="M180.611 147.326C201.151 149.852 215.78 168.585 213.257 189.134C210.726 209.682 191.992 224.313 171.452 221.787C161.845 220.606 153.542 215.885 147.666 209.094C147.637 209.06 147.58 208.992 147.58 208.992L94.1493 202.399C94.1493 202.399 94.0506 202.468 94.0053 202.502C86.6622 207.664 77.4645 210.228 67.8653 209.047C47.3177 206.52 32.6888 187.787 35.22 167.239C37.7431 146.69 56.4768 132.059 77.0245 134.586C87.8679 135.92 170.6 146.095 180.611 147.326Z" fill="#CBCFCC" stroke="black" stroke-width="2.15736" stroke-miterlimit="1.5" stroke-linecap="round" stroke-linejoin="round"/>
<path fill-rule="evenodd" clip-rule="evenodd" d="M179.026 152.061C196.904 154.161 209.712 170.382 207.613 188.262C205.512 206.141 189.293 218.952 171.415 216.852C153.538 214.753 140.728 198.531 142.829 180.652C144.929 162.772 161.149 149.961 179.026 152.061Z" fill="#465D63"/>
<path d="M187.091 166.145L188.721 164.197L187.696 162.115L188.651 162.227L189.309 163.622L190.257 162.416L191.203 162.527L189.713 164.344L190.852 166.587L189.867 166.472L189.134 164.967L188.07 166.26L187.091 166.145Z" fill="#C8D0D2"/>
<path d="M146.512 192.097L146.712 190.395L145.506 187.878L146.463 187.99L147.227 189.703L148.347 188.212L149.288 188.322L147.525 190.496L147.326 192.193L146.512 192.097Z" fill="#C8D0D2"/>
<path d="M158.385 202.462L160.003 202.652C160.322 202.69 160.56 202.731 160.714 202.777C160.868 202.821 161.002 202.894 161.116 202.993C161.23 203.092 161.321 203.217 161.387 203.367C161.453 203.518 161.476 203.68 161.456 203.855C161.434 204.045 161.362 204.213 161.241 204.359C161.121 204.505 160.968 204.607 160.784 204.666C161.022 204.767 161.198 204.911 161.309 205.1C161.422 205.288 161.464 205.499 161.436 205.733C161.415 205.917 161.351 206.091 161.245 206.255C161.139 206.419 161.006 206.544 160.846 206.63C160.685 206.717 160.495 206.759 160.276 206.758C160.138 206.756 159.808 206.727 159.287 206.669L157.911 206.508L158.385 202.462ZM159.123 203.232L159.013 204.167L159.548 204.23C159.867 204.267 160.065 204.286 160.143 204.286C160.285 204.286 160.401 204.25 160.49 204.179C160.58 204.109 160.632 204.009 160.648 203.878C160.662 203.753 160.64 203.647 160.58 203.561C160.52 203.474 160.423 203.415 160.289 203.383C160.209 203.364 159.977 203.332 159.592 203.286L159.123 203.232ZM158.934 204.84L158.807 205.922L159.563 206.011C159.857 206.045 160.045 206.059 160.126 206.052C160.25 206.044 160.356 206.002 160.442 205.925C160.528 205.849 160.58 205.739 160.597 205.595C160.611 205.474 160.594 205.367 160.544 205.276C160.496 205.184 160.418 205.113 160.311 205.061C160.204 205.009 159.965 204.962 159.594 204.918L158.934 204.84Z" fill="#C8D0D2"/>
<path d="M204.606 181.728L203.718 181.623L203.472 180.663L201.856 180.473L201.414 181.353L200.547 181.251L202.598 177.391L203.461 177.492L204.606 181.728ZM203.29 179.95L202.909 178.384L202.187 179.821L203.29 179.95Z" fill="#C8D0D2"/>
<path fill-rule="evenodd" clip-rule="evenodd" d="M181.098 177.918C184.838 175.449 185.87 170.407 183.402 166.667C180.933 162.927 175.892 161.895 172.152 164.364L153.159 176.903C149.419 179.373 148.387 184.414 150.855 188.154C153.324 191.894 158.365 192.926 162.105 190.457L181.098 177.918Z" fill="#D1D1CD"/>
<path fill-rule="evenodd" clip-rule="evenodd" d="M163.728 179.656C165.692 182.632 164.87 186.643 161.895 188.607C158.92 190.572 154.91 189.751 152.945 186.775C150.982 183.799 151.802 179.788 154.778 177.824C157.753 175.86 161.763 176.681 163.728 179.656Z" fill="#BE0003"/>
<path fill-rule="evenodd" clip-rule="evenodd" d="M181.419 167.977C183.383 170.952 182.561 174.962 179.587 176.927C176.611 178.891 172.601 178.07 170.637 175.095C168.673 172.118 169.494 168.108 172.47 166.144C175.444 164.179 179.455 165 181.419 167.977Z" fill="#BE0003"/>
<path fill-rule="evenodd" clip-rule="evenodd" d="M196.248 193.121C199.988 190.652 201.02 185.611 198.551 181.871C196.083 178.131 191.042 177.098 187.302 179.568L168.308 192.107C164.569 194.576 163.537 199.617 166.005 203.357C168.474 207.097 173.514 208.13 177.254 205.661L196.248 193.121Z" fill="#D1D1CD"/>
<path fill-rule="evenodd" clip-rule="evenodd" d="M178.869 194.859C180.833 197.835 180.012 201.846 177.036 203.81C174.061 205.774 170.051 204.953 168.087 201.977C166.123 199.002 166.944 194.991 169.92 193.027C172.895 191.063 176.905 191.884 178.869 194.859Z" fill="#BE0003"/>
<path fill-rule="evenodd" clip-rule="evenodd" d="M196.569 183.18C198.533 186.156 197.711 190.166 194.737 192.13C191.761 194.095 187.751 193.274 185.787 190.297C183.823 187.322 184.644 183.312 187.619 181.347C190.594 179.383 194.605 180.204 196.569 183.18Z" fill="#BE0003"/>
<path fill-rule="evenodd" clip-rule="evenodd" d="M113.894 177.79C113.289 176.783 111.981 176.456 110.975 177.061L101.778 182.583C100.772 183.188 100.445 184.496 101.05 185.502C101.654 186.509 102.962 186.836 103.968 186.232L113.165 180.709C114.171 180.104 114.498 178.797 113.894 177.79Z" fill="#334249" stroke="black" stroke-width="1.90881" stroke-miterlimit="1.5" stroke-linecap="round" stroke-linejoin="round"/>
<path fill-rule="evenodd" clip-rule="evenodd" d="M133.313 180.174C132.708 179.168 131.4 178.842 130.394 179.447L121.202 184.976C120.195 185.582 119.869 186.89 120.474 187.896C121.08 188.902 122.388 189.228 123.394 188.623L132.587 183.094C133.593 182.488 133.919 181.181 133.313 180.174Z" fill="#324148" stroke="black" stroke-width="1.90881" stroke-miterlimit="1.5" stroke-linecap="round" stroke-linejoin="round"/>
<path fill-rule="evenodd" clip-rule="evenodd" d="M147.781 152.551C148.07 150.195 146.393 148.047 144.038 147.758L108.228 143.354C105.873 143.064 103.725 144.741 103.436 147.097L102.386 155.633C102.096 157.989 103.773 160.137 106.128 160.426L141.938 164.83C144.294 165.12 146.441 163.442 146.731 161.087L147.781 152.551Z" fill="#646464"/>
<path fill-rule="evenodd" clip-rule="evenodd" d="M67.3956 177.229L66.9936 183.461C66.7878 186.651 66.4536 186.27 69.6463 186.477L75.3087 186.843C78.4933 187.048 78.1128 187.383 78.3185 184.193L78.7286 177.962L84.9516 178.364C88.1444 178.57 87.7638 178.906 87.9696 175.715L88.335 170.05C88.5408 166.859 88.875 167.241 85.6904 167.035L79.4594 166.632L79.8613 160.401C80.0671 157.21 80.4015 157.591 77.2087 157.385L71.5463 157.019C68.3536 156.813 68.7422 156.478 68.5282 159.669L68.1263 165.9L61.8952 165.497C58.7107 165.291 59.0912 164.956 58.8855 168.146L58.5201 173.811C58.3061 177.001 57.9718 176.62 61.1645 176.826L67.3956 177.229Z" fill="#202C33" stroke="black" stroke-width="2.01082" stroke-miterlimit="1.5" stroke-linecap="round" stroke-linejoin="round"/>
<path fill-rule="evenodd" clip-rule="evenodd" d="M63.917 171.027L83.3902 172.287C84.3732 172.35 85.6534 172.992 85.6534 172.992C85.6534 172.992 85.6973 172.564 85.7134 172.313L85.7736 171.381C85.95 168.646 86.4879 169.413 83.5877 169.225L76.9983 168.812L77.4556 161.721C77.632 158.987 78.1781 159.754 75.2697 159.565L73.9686 159.502C71.0601 159.314 71.6921 158.623 71.5157 161.358L71.0583 168.448L64.1144 167.966C61.2142 167.778 61.8461 167.087 61.6697 169.823L61.6095 170.755C61.5916 171.034 61.5645 171.328 61.5645 171.328C61.5645 171.328 62.9583 170.965 63.917 171.027Z" fill="#111618"/>
<path fill-rule="evenodd" clip-rule="evenodd" d="M70.3389 195.517C70.8607 195.609 76.3156 196.474 82.8768 193.338C86.885 191.422 90.3006 187.185 90.3006 187.185C90.3006 187.185 87.9029 191.415 83.0894 193.744C77.1152 196.641 70.9007 195.618 70.3389 195.517Z" fill="#808080"/>
<path fill-rule="evenodd" clip-rule="evenodd" d="M94.0831 165.732C93.7553 164.794 93.2789 163.731 92.5916 162.716C90.6958 159.919 87.2529 157.231 84.1371 155.352C81.5792 153.806 78.71 152.056 75.0617 151.308C71.7654 150.633 66.6877 151.105 66.6877 151.105C66.6877 151.105 77.3058 147.996 85.6879 153.945C90.8331 157.598 93.1112 162.625 94.0831 165.732C94.633 167.332 94.7523 168.565 94.7523 168.565C94.7523 168.565 94.6118 167.438 94.0831 165.732Z" fill="#3B3B3B"/>
<path fill-rule="evenodd" clip-rule="evenodd" d="M145.603 37.8558C161.148 39.7776 162.362 31.4236 176.925 30.3188C184.873 29.7167 194.538 32.3034 197.096 33.3098C210.202 38.4615 213.205 52.4842 215.123 60.3723C217.181 68.7952 216.887 72.4598 219.82 82.3114C222.126 90.0494 223.822 95.6055 224.827 100.982C225.901 106.729 226.953 111.124 226.257 116.789C225.614 122.027 223.887 128.274 221.129 131.768C218.467 135.143 213.493 135.707 209.714 137.759C205.61 139.993 200.372 142.499 196.485 145.17C192.839 147.676 189.685 151.454 186.388 153.787C183.37 155.922 180.006 157.537 176.689 159.168C172.9 161.03 168.205 163.601 163.65 164.959C159.103 166.316 154.214 167.126 149.401 167.314C143.483 167.545 134.9 167.174 128.153 166.344C121.657 165.545 114.346 163.961 108.936 162.337C104.324 160.953 99.7549 159.018 95.6721 156.598C91.5892 154.179 87.6554 150.546 84.4302 147.821C81.6064 145.435 78.7328 143.053 76.329 140.252C73.6868 137.188 71.5486 132.759 68.6173 129.445C65.4915 125.911 61.0164 122.211 57.5743 119.049C54.4123 116.143 49.7146 114.389 47.9484 110.471C46.1174 106.412 45.8378 99.804 46.6046 94.6948C47.3713 89.5855 50.0731 84.549 52.5409 79.8142C55.2315 74.6681 59.6968 69.3641 62.7242 63.8131C66.0806 57.6529 68.7606 49.72 72.6955 42.8565C76.7348 35.8114 84.2754 24.4317 94.3086 21.3427C101.102 19.252 112.648 21.3439 117.852 23.054C131.735 27.6204 130.535 35.9925 145.603 37.8558Z" fill="#FEE32D" stroke="black" stroke-width="2.36088" stroke-miterlimit="1.5" stroke-linecap="round" stroke-linejoin="round"/>
<path fill-rule="evenodd" clip-rule="evenodd" d="M176.888 32.3512C181.54 30.6053 190.872 31.8225 195.803 33.8109C200.516 35.7141 203.895 39.8553 206.468 44.2845C209.737 49.923 210.842 48.5372 216.177 73.8312C217.388 79.5336 218.748 85.4207 219.974 89.3279C220.835 92.0729 221.516 94.3376 222.225 97.1133C223.146 100.703 224.097 106.521 224.19 110.704C224.271 114.584 224.265 118.645 222.777 122.212C221.281 125.783 220.356 130.443 216.52 132.292C210.305 135.282 195.517 143.028 195.517 143.028C194.674 141.14 199.424 133.78 195.221 123.929C190.344 112.474 184.183 109.148 184.183 109.148C184.183 109.148 198.654 103.584 203.409 83.9589C205.436 75.5989 204.271 60.1032 199.594 52.7088C191.75 40.2998 185.09 39.701 177.965 38.1437C174.698 37.4293 175.503 32.8743 176.888 32.3512Z" fill="#FFDF26"/>
<path fill-rule="evenodd" clip-rule="evenodd" d="M149.573 40.4491C149.573 40.4491 155.941 39.8268 158.629 38.637C163.339 36.5513 170.195 32.4218 175.224 32.4734C177.69 32.4989 175.578 35.0726 174.741 36.1411C173.478 37.7429 174.083 35.9602 165.145 42.216C156.836 48.0346 150.409 61.098 148.838 73.2214C148.106 78.8484 151.069 92.1928 152.217 92.5314L141.087 89.5236C141.087 89.5236 141.813 73.7244 143.153 65.9518C144.567 57.7724 149.573 40.4491 149.573 40.4491Z" fill="#F0CC00"/>
<path fill-rule="evenodd" clip-rule="evenodd" d="M69.1651 126.711C69.1651 126.711 52.8466 112.386 51.3299 111.378C47.0977 108.572 47.9547 99.8567 48.4612 94.5958C48.9678 89.334 51.9138 84.512 54.3856 79.8122C56.8892 75.0532 60.8164 70.8577 63.4669 66.038C67.1035 59.3995 71.2213 46.6383 76.2458 39.9857C80.2927 34.6156 85.7147 26.5289 90.8719 24.2061C99.4934 20.3229 105.654 22.9207 105.776 23.9339C105.853 24.5773 101.757 27.3349 95.7694 30.6129C91.3815 33.0154 87.1439 36.7331 85.6948 38.5155C82.8622 42.012 76.8711 51.6602 75.2326 62.7336C74.5975 67.038 74.9721 75.7438 75.4106 78.7192C76.117 83.4533 76.621 92.7089 76.3725 94.7322C76.1503 96.5421 74.3134 97.7413 73.3521 99.2916C72.3288 100.946 70.8994 102.7 70.2242 104.659C69.3762 107.156 68.3872 111.003 68.2236 114.272C68.0512 117.948 69.1651 126.711 69.1651 126.711Z" fill="#EFCC00"/>
<path fill-rule="evenodd" clip-rule="evenodd" d="M196.777 39.026C197.795 37.4727 202.337 39.8654 203.542 41.5457C204.95 43.4971 205.789 48.7504 205.129 49.0728C204.193 49.5328 202.516 45.4948 201.157 43.5964C199.748 41.645 196.378 39.6382 196.777 39.026Z" fill="white"/>
<path fill-rule="evenodd" clip-rule="evenodd" d="M222.649 112.289C221.631 111.924 221.371 114.559 220.614 116.964C219.751 119.737 219.254 120.501 218.009 121.925C214.174 126.33 214.019 129.326 214.842 129.397C218.359 129.698 220.622 124.783 221.908 121.403C222.69 119.372 223.219 112.496 222.649 112.289Z" fill="white"/>
<path fill-rule="evenodd" clip-rule="evenodd" d="M131.885 41.7818C132.357 41.2917 134.906 42.836 135.736 43.896C136.566 44.9551 137.332 47.6506 136.859 48.1407C136.387 48.6307 133.432 47.43 132.61 46.37C131.779 45.3101 131.413 42.2718 131.885 41.7818Z" fill="white"/>
<path fill-rule="evenodd" clip-rule="evenodd" d="M181.039 41.4407C194.718 43.1228 203.943 59.7796 201.622 78.6129C199.31 97.4473 186.322 111.372 172.65 109.691C158.971 108.008 149.755 91.3528 152.067 72.5184C154.388 53.6851 167.367 39.7596 181.039 41.4407Z" fill="white" stroke="black" stroke-width="2.25505" stroke-miterlimit="1.5" stroke-linecap="round" stroke-linejoin="round"/>
<path fill-rule="evenodd" clip-rule="evenodd" d="M165.049 80.4814C169.34 81.009 172.402 84.9259 171.875 89.2213C171.347 93.5168 167.428 96.5757 163.13 96.0471C158.839 95.5194 155.777 91.6026 156.304 87.3063C156.84 83.0118 160.751 79.9528 165.049 80.4814Z" fill="black"/>
<path fill-rule="evenodd" clip-rule="evenodd" d="M107.93 32.4493C121.602 34.1313 130.826 50.7872 128.506 69.6205C126.193 88.4549 113.205 102.379 99.5338 100.698C85.8623 99.0172 76.6378 82.3604 78.9504 63.5261C81.271 44.6927 94.2505 30.7672 107.93 32.4493Z" fill="white" stroke="black" stroke-width="2.25505" stroke-miterlimit="1.5" stroke-linecap="round" stroke-linejoin="round"/>
<path fill-rule="evenodd" clip-rule="evenodd" d="M114.145 74.2205C118.435 74.7481 121.498 78.6649 120.97 82.9612C120.443 87.2567 116.524 90.3148 112.225 89.7861C107.935 89.2585 104.872 85.3416 105.4 81.0462C105.927 76.7507 109.846 73.6918 114.145 74.2205Z" fill="black"/>
<path fill-rule="evenodd" clip-rule="evenodd" d="M92.466 196.246C95.7574 196.428 109.096 201.407 117.545 202.244C132.662 203.74 136.462 202.472 138.926 203.191C150.418 206.543 151.395 216.744 149.483 222.735C147.103 230.198 139.917 242.366 111.513 238.698C79.0109 234.501 76.4292 216.158 78.3176 208.145C80.8996 197.188 88.6429 196.036 92.466 196.246Z" fill="#F0CC00" stroke="black" stroke-width="2.29742" stroke-miterlimit="1.5" stroke-linecap="round" stroke-linejoin="round"/>
<path fill-rule="evenodd" clip-rule="evenodd" d="M105.895 204.844C110.039 205.089 113.515 205.79 118.562 205.855C126.219 205.951 131.049 204.277 136.476 204.146C141.901 204.015 146.112 207.922 148.049 212.109C150.245 216.854 149.165 220.504 148.287 223.093C144.915 233.033 135.418 237.968 113.853 235.088C105.349 233.951 101.07 232.842 95.364 228C91.0592 224.347 88.3416 215.407 91.4715 209.855C95.0936 203.433 101.977 204.612 105.895 204.844Z" fill="#FEE32D"/>
<path fill-rule="evenodd" clip-rule="evenodd" d="M140.019 209.307C140.8 209.402 142.98 210.746 143.639 212.127C144.377 213.67 144.568 217.526 144.441 218.568C144.378 219.088 143.202 218.791 142.878 218.378C142.421 217.794 142.282 216.079 141.696 215.062C141.042 213.925 139.232 212.515 138.952 211.556C138.719 210.759 139.237 209.212 140.019 209.307Z" fill="white"/>
<path fill-rule="evenodd" clip-rule="evenodd" d="M130.083 117.286C161.348 121.131 185.215 136.583 183.348 151.77C181.479 166.958 154.579 176.167 123.314 172.322C92.0491 168.477 68.1822 153.025 70.0505 137.837C71.9181 122.649 98.8176 113.441 130.083 117.286Z" fill="black" fill-opacity="0.27"/>
<path fill-rule="evenodd" clip-rule="evenodd" d="M169.819 161.609L180.227 157.138L172.209 195.589L169.819 161.609Z" fill="white" stroke="black" stroke-width="2.36088" stroke-miterlimit="1.5" stroke-linecap="round" stroke-linejoin="round"/>
<path fill-rule="evenodd" clip-rule="evenodd" d="M87.2728 151.457L78.2562 144.597L76.718 183.845L87.2728 151.457Z" fill="white" stroke="black" stroke-width="2.36088" stroke-miterlimit="1.5" stroke-linecap="round" stroke-linejoin="round"/>
<path fill-rule="evenodd" clip-rule="evenodd" d="M136.939 91.8365C171.104 96.0628 196.777 116.176 194.236 136.722C191.693 157.268 161.891 170.517 127.725 166.291C93.5605 162.063 67.8869 141.949 70.4296 121.403C72.9714 100.857 102.773 87.6084 136.939 91.8365Z" fill="#FEE32D" stroke="black" stroke-width="2.18338" stroke-miterlimit="1.5" stroke-linecap="round" stroke-linejoin="round"/>
<path fill-rule="evenodd" clip-rule="evenodd" d="M109.288 94.5626C109.288 94.5626 84.1405 100.358 81.3699 122.758C78.5946 145.158 101.013 155.997 101.013 155.997C101.013 155.997 70.6967 144.181 73.472 121.781C76.2426 99.3804 109.288 94.5626 109.288 94.5626Z" fill="#E8C500"/>
<path fill-rule="evenodd" clip-rule="evenodd" d="M156.31 124.519C163.504 125.41 168.958 129.262 168.481 133.115C168.004 136.97 161.776 139.377 154.582 138.486C147.388 137.596 141.935 133.744 142.412 129.89C142.889 126.035 149.117 123.629 156.31 124.519Z" fill="#F7DB27"/>
<path fill-rule="evenodd" clip-rule="evenodd" d="M142.614 129.091C143.874 125.771 149.672 123.801 156.29 124.62C163.484 125.51 168.939 129.362 168.46 133.216C168.189 135.417 166.04 137.145 162.911 138.058C163.02 137.768 163.095 137.468 163.133 137.158C163.612 133.304 158.157 129.452 150.964 128.562C147.876 128.18 144.97 128.405 142.614 129.091Z" fill="#CDB100"/>
<path fill-rule="evenodd" clip-rule="evenodd" d="M107.759 118.512C114.953 119.402 120.407 123.254 119.93 127.108C119.453 130.963 113.225 133.369 106.031 132.479C98.8367 131.588 93.3838 127.737 93.8607 123.883C94.3377 120.028 100.566 117.621 107.759 118.512Z" fill="#F7DB27"/>
<path fill-rule="evenodd" clip-rule="evenodd" d="M94.0625 123.083C95.3231 119.763 101.121 117.793 107.739 118.612C114.933 119.502 120.388 123.354 119.909 127.209C119.638 129.409 117.489 131.137 114.36 132.05C114.468 131.76 114.544 131.46 114.582 131.15C115.061 127.296 109.606 123.444 102.412 122.554C99.3251 122.172 96.4187 122.397 94.0625 123.083Z" fill="#CDB100"/>
<path fill-rule="evenodd" clip-rule="evenodd" d="M177.32 111.813C178.298 110.677 183.142 115.715 183.576 116.462C184.103 117.385 188.725 121.56 186.174 123.266C183.553 125.013 182.767 119.971 181.208 118.016C179.785 116.228 175.545 113.896 177.32 111.813Z" fill="white"/>
</g>
<defs>
<clipPath id="clip0_3_37">
<rect width="256" height="256" fill="white"/>
</clipPath>
</defs>
</svg>
