<?xml version="1.0" encoding="UTF-8" standalone="no"?>
<!-- Created with Inkscape (http://www.inkscape.org/) -->

<svg
   width="256"
   height="256"
   viewBox="0 0 67.733334 67.733334"
   version="1.1"
   id="svg1"
   xml:space="preserve"
   xmlns="http://www.w3.org/2000/svg"
   xmlns:svg="http://www.w3.org/2000/svg"
   xmlns:serif="http://www.serif.com/"><defs
     id="defs1" /><g
     id="layer1"
     transform="translate(26.009467,28.118343)"><path
       d="M 25.849722,-28.115427 H -10.13361 c -8.767525,0 -15.875001,7.107476 -15.875001,15.874999 v 35.983333 c 0,8.767498 7.107476,15.875 15.875001,15.875 h 35.983332 c 8.767497,0 15.874999,-7.107502 15.874999,-15.875 v -35.983333 c 0,-8.767523 -7.107502,-15.874999 -15.874999,-15.874999 z"
       fill="#f4f2ed"
       id="path1-7"
       style="stroke-width:0.264583" /><g
       style="clip-rule:evenodd;fill-rule:evenodd;stroke-linecap:round;stroke-linejoin:round;stroke-miterlimit:1.5"
       id="g1"
       transform="matrix(0.21622604,0,0,0.21622604,-303.22066,-23.06152)"><g
         id="Snake-Body"
         serif:id="Snake Body"
         transform="matrix(0.988738,0.121402,-0.121402,0.988738,25.5367,-190.217)">
        <g
   id="Body">
            <g
   id="snakelower"
   transform="rotate(-6.9999815,1435.6042,224.89225)">
                <path
   d="m 1374.64,312.799 c 0.69,-1.754 3.76,-10.466 5.37,-24.846 1.38,-12.338 1.4,-61.034 0,-73.652 -2.17,-19.611 -15.34,-80.881 -15.34,-80.881 l 199.75,24.842 c 0,0 -10.97,11.234 -14.6,17.378 -5.38,9.095 -14.81,23.922 -20.26,36.869 -7.4,17.592 -14.65,47.291 -22.94,70.099 l -11.5996,31.17807 c -57.2117,0.0874 -57.5382,0.48964 -120.3804,-0.98707 z"
   style="fill:#aa910d;stroke:#000000;stroke-width:3.33px"
   id="path1" />
            </g>
            <g
   id="highlight"
   transform="rotate(-6.9999815,1435.6799,226.20484)">
                <path
   d="m 1510.95,184 52.26,-26.141 c 0,0 -10.97,11.234 -14.61,17.378 -5.37,9.095 -14.8,23.922 -20.25,36.869 -7.4,17.592 -14.65,47.291 -22.94,70.099 -3.4449,9.48367 -7.3065,20.824 -11.357,32.53378 L 1455.94,330.804 c 7.05,-15.296 12.54,-34.774 17.56,-46.914 9.48,-22.948 14.79,-54.169 22.65,-72.377 4.33,-10.011 14.8,-27.513 14.8,-27.513 z"
   style="fill:#dcbc00"
   id="path2" />
            </g>
        </g>
        
    </g><g
         id="Controller"
         transform="matrix(0.988738,0.121402,-0.121402,0.988738,-4.70593,-180.633)">
        <g
   id="Body1"
   serif:id="Body"
   transform="translate(0.0303899,0.00185873)">
            <path
   d="m 1543.54,151.836 c 25.42,0.005 46.06,20.655 46.06,46.086 -0.01,25.43 -20.66,46.073 -46.08,46.068 -11.89,-0.002 -22.72,-4.514 -30.9,-11.914 -0.04,-0.037 -0.12,-0.112 -0.12,-0.112 l -66.13,-0.04 c 0,0 -0.11,0.099 -0.16,0.148 -8.18,7.392 -19.01,11.895 -30.89,11.893 -25.43,-0.005 -46.07,-20.655 -46.06,-46.086 0,-25.431 20.65,-46.073 46.08,-46.068 13.42,0.003 115.81,0.023 128.2,0.025 z"
   style="fill:#cbcfcc;stroke:#000000;stroke-width:2.65px"
   id="path12" />
        </g>
        <g
   id="Panel-Right"
   serif:id="Panel Right">
            <g
   id="Panel-Back"
   serif:id="Panel Back">
                <g
   id="panelright"
   transform="matrix(1.25194,6.94183e-5,-6.94266e-5,1.25209,702.158,-210.326)">
                    <path
   d="m 671.126,294.011 c 17.661,-0.094 32.075,14.169 32.169,31.83 0.093,17.661 -14.169,32.075 -31.83,32.169 -17.661,0.094 -32.076,-14.169 -32.169,-31.83 -0.094,-17.661 14.169,-32.076 31.83,-32.169 z"
   style="fill:#465d63"
   id="path13" />
                </g>
                <g
   id="X"
   transform="matrix(0.715199,3.96568e-5,-3.96615e-5,0.715285,1073.74,-61.4904)">
                    <path
   d="m 671.925,328.927 2.372,-3.663 -2.184,-3.333 1.651,-0.009 1.414,2.24 1.363,-2.255 1.636,-0.008 -2.158,3.409 2.41,3.585 -1.703,0.009 -1.564,-2.411 -1.543,2.427 z"
   style="fill:#c8d0d2;fill-rule:nonzero"
   id="path14" />
                </g>
                <g
   id="Y"
   transform="matrix(0.715199,3.96568e-5,-3.96615e-5,0.715285,1026.13,-24.0172)">
                    <path
   d="m 674.752,329.265 -0.016,-2.944 -2.583,-4.037 1.655,-0.009 1.661,2.759 1.598,-2.776 1.627,-0.009 -2.55,4.074 0.016,2.935 z"
   style="fill:#c8d0d2;fill-rule:nonzero"
   id="path15" />
                </g>
                <g
   id="B"
   transform="matrix(0.715199,3.96568e-5,-3.96615e-5,0.715285,1043.41,-8.06965)">
                    <path
   d="m 673,322.152 2.797,-0.015 c 0.553,-0.003 0.966,0.018 1.238,0.063 0.272,0.044 0.516,0.139 0.732,0.284 0.215,0.146 0.395,0.339 0.54,0.582 0.144,0.243 0.217,0.515 0.219,0.817 0.002,0.328 -0.085,0.629 -0.26,0.903 -0.175,0.275 -0.414,0.481 -0.715,0.62 0.427,0.122 0.756,0.331 0.986,0.629 0.231,0.298 0.347,0.649 0.349,1.053 0.002,0.318 -0.07,0.628 -0.217,0.929 -0.146,0.302 -0.347,0.543 -0.602,0.724 -0.255,0.181 -0.57,0.293 -0.945,0.337 -0.235,0.026 -0.803,0.045 -1.703,0.056 l -2.381,0.013 z m 1.419,1.157 0.009,1.617 0.925,-0.005 c 0.551,-0.003 0.893,-0.013 1.026,-0.029 0.242,-0.03 0.431,-0.115 0.569,-0.254 0.138,-0.139 0.206,-0.321 0.205,-0.547 -0.002,-0.216 -0.062,-0.392 -0.182,-0.526 -0.12,-0.135 -0.298,-0.216 -0.533,-0.243 -0.14,-0.015 -0.543,-0.021 -1.208,-0.018 z m 0.015,2.781 0.01,1.871 1.307,-0.007 c 0.509,-0.003 0.832,-0.019 0.969,-0.048 0.209,-0.039 0.38,-0.133 0.511,-0.282 0.131,-0.149 0.196,-0.347 0.195,-0.595 -0.001,-0.21 -0.053,-0.388 -0.156,-0.534 -0.102,-0.146 -0.25,-0.251 -0.443,-0.317 -0.193,-0.066 -0.61,-0.097 -1.253,-0.094 z"
   style="fill:#c8d0d2;fill-rule:nonzero"
   id="path16" />
                </g>
                <g
   id="A"
   transform="matrix(0.715199,3.96568e-5,-3.96615e-5,0.715285,1092.32,-44.9897)">
                    <path
   d="m 679.066,328.752 -1.536,0.008 -0.619,-1.586 -2.796,0.015 -0.569,1.592 -1.499,0.008 2.688,-7.009 1.493,-0.008 z m -2.615,-2.754 -0.977,-2.59 -0.931,2.6 z"
   style="fill:#c8d0d2;fill-rule:nonzero"
   id="path17" />
                </g>
            </g>
            <g
   id="Red-Buttons2"
   serif:id="Red Buttons2">
                <g
   id="redbuttonframe2"
   transform="matrix(0.756173,0.897271,-0.581386,0.490079,1174.3,-621.108)">
                    <path
   d="m 733.575,310.063 c -0.025,-7.24 -3.854,-13.086 -8.545,-13.048 -4.691,0.039 -8.48,5.947 -8.455,13.187 l 0.126,36.765 c 0.025,7.24 3.854,13.086 8.545,13.048 4.691,-0.039 8.48,-5.947 8.455,-13.187 z"
   style="fill:#d1d1cd"
   id="path18" />
                </g>
                <g
   id="redbutton4"
   transform="matrix(0.645468,0.76591,-0.765818,0.645545,1362.13,-554.928)">
                    <path
   d="m 678.152,355.215 c 4.373,-0.023 7.941,3.508 7.964,7.881 0.024,4.372 -3.507,7.94 -7.88,7.964 -4.372,0.023 -7.941,-3.508 -7.964,-7.881 -0.023,-4.372 3.508,-7.94 7.88,-7.964 z"
   style="fill:#be0003"
   id="path19" />
                </g>
                <g
   id="redbutton3"
   transform="matrix(0.645468,0.76591,-0.765818,0.645545,1382.04,-571.712)">
                    <path
   d="m 678.015,355.216 c 4.372,-0.023 7.94,3.508 7.964,7.88 0.023,4.372 -3.508,7.941 -7.88,7.964 -4.373,0.023 -7.941,-3.508 -7.964,-7.88 -0.024,-4.372 3.507,-7.941 7.88,-7.964 z"
   style="fill:#be0003"
   id="path20" />
                </g>
            </g>
            <g
   id="Red-Buttons1"
   serif:id="Red Buttons1">
                <g
   id="reduttonframe1"
   transform="matrix(0.756173,0.897271,-0.581386,0.490079,1194.96,-604.73)">
                    <path
   d="m 733.551,309.883 c -0.025,-7.24 -3.854,-13.086 -8.545,-13.047 -4.691,0.038 -8.48,5.946 -8.455,13.186 l 0.126,36.766 c 0.025,7.239 3.854,13.085 8.545,13.047 4.691,-0.039 8.48,-5.947 8.455,-13.186 z"
   style="fill:#d1d1cd"
   id="path21" />
                </g>
                <g
   id="redbutton2"
   transform="matrix(0.645468,0.76591,-0.765818,0.645545,1382.78,-538.55)">
                    <path
   d="m 678.124,355.079 c 4.373,-0.023 7.941,3.508 7.964,7.88 0.023,4.372 -3.507,7.941 -7.88,7.964 -4.372,0.023 -7.941,-3.508 -7.964,-7.88 -0.023,-4.372 3.508,-7.941 7.88,-7.964 z"
   style="fill:#be0003"
   id="path22" />
                </g>
                <g
   id="redbutton1"
   transform="matrix(0.645468,0.76591,-0.765818,0.645545,1402.7,-555.334)">
                    <path
   d="m 677.987,355.079 c 4.372,-0.023 7.94,3.508 7.964,7.88 0.023,4.373 -3.508,7.941 -7.881,7.964 -4.372,0.023 -7.94,-3.507 -7.964,-7.88 -0.023,-4.372 3.508,-7.941 7.881,-7.964 z"
   style="fill:#be0003"
   id="path23" />
                </g>
            </g>
        </g>
        <g
   id="Panel-Mid"
   serif:id="Panel Mid">
            <g
   id="Middle-Buttons"
   serif:id="Middle Buttons">
                <g
   id="button2"
   transform="matrix(0.7629,-0.596793,0.50169,0.641485,826.704,315.3)">
                    <path
   d="m 594.538,371.767 c 10e-4,-1.771 -1.207,-3.211 -2.696,-3.212 l -13.604,-0.015 c -1.489,-0.001 -2.699,1.436 -2.7,3.207 -0.002,1.771 1.206,3.21 2.695,3.212 l 13.604,0.014 c 1.489,10e-4 2.699,-1.435 2.701,-3.206 z"
   style="fill:#334249;stroke:#000000;stroke-width:2.64px"
   id="path24" />
                </g>
                <g
   id="button1"
   transform="matrix(0.762933,-0.596751,0.501656,0.641513,850.741,312.34)">
                    <path
   d="m 592.669,374.588 c 0,-1.772 -1.208,-3.21 -2.698,-3.21 l -13.603,-0.002 c -1.49,0 -2.699,1.438 -2.699,3.209 0,1.771 1.209,3.209 2.698,3.21 l 13.604,10e-4 c 1.489,0 2.698,-1.437 2.698,-3.208 z"
   style="fill:#324148;stroke:#000000;stroke-width:2.64px"
   id="path25" />
                </g>
            </g>
            <g
   id="infobox"
   transform="matrix(0.427146,0.052447,-0.0524533,0.427198,1387.96,77.9999)">
                <path
   d="m 292.484,163.35 c -0.824,-6.723 -6.952,-11.512 -13.675,-10.688 l -102.217,12.529 c -6.723,0.824 -11.512,6.951 -10.688,13.674 l 2.987,24.363 c 0.825,6.723 6.952,11.513 13.675,10.689 l 102.217,-12.529 c 6.723,-0.824 11.512,-6.952 10.688,-13.675 z"
   style="fill:#646464"
   id="path26" />
            </g>
        </g>
        <g
   id="Panel-Left"
   serif:id="Panel Left">
            <g
   id="Direction-Button"
   serif:id="Direction Button">
                <g
   id="directionbutton"
   transform="rotate(-3.3095262,1416.5911,197.36037)">
                    <path
   d="m 1409.57,204.851 v 7.671 c 0,3.927 -0.44,3.486 3.49,3.487 l 6.97,0.001 c 3.92,0 3.48,0.441 3.48,-3.486 l 0.01,-7.67 7.66,10e-4 c 3.93,0 3.49,0.441 3.49,-3.486 v -6.973 c 0,-3.928 0.44,-3.486 -3.48,-3.487 l -7.67,-0.001 v -7.67 c 0,-3.928 0.44,-3.487 -3.49,-3.487 l -6.97,-0.001 c -3.93,-0.001 -3.48,-0.442 -3.49,3.486 v 7.67 l -7.67,-0.001 c -3.92,-0.001 -3.48,-0.442 -3.48,3.485 v 6.973 c -0.01,3.928 -0.45,3.487 3.48,3.487 z"
   style="fill:#202c33;stroke:#000000;stroke-width:2.47px"
   id="path27" />
                </g>
                <g
   id="shadow1"
   transform="rotate(-3.3095262,1416.4123,189.81995)">
                    <path
   d="m 1404.38,197.522 23.97,0.004 c 1.21,0 2.83,0.686 2.83,0.686 0,0 0.02,-0.529 0.02,-0.837 v -1.148 c 0,-3.366 0.72,-2.469 -2.85,-2.47 l -8.11,0.015 v -8.728 c 0,-3.366 0.73,-2.469 -2.85,-2.47 l -1.6,0.025 c -3.58,0 -2.86,-0.897 -2.86,2.469 v 8.728 l -8.55,-0.042 c -3.57,-0.001 -2.85,-0.898 -2.85,2.469 v 1.148 c 0,0.343 -0.01,0.705 -0.01,0.705 0,0 1.68,-0.554 2.86,-0.554 z"
   style="fill:#111618"
   id="path28" />
                </g>
            </g>
            <g
   id="shadow2"
   transform="translate(0.0303899,0.00185873)">
                <path
   d="m 1416.31,227.099 c 0.65,0.034 7.43,0.271 14.96,-4.534 4.6,-2.936 8.13,-8.613 8.13,-8.613 0,0 -2.29,5.516 -7.81,9.076 -6.85,4.426 -14.58,4.109 -15.28,4.071 -0.03,-0.002 -0.05,-0.003 -0.05,-0.003 0,0 0.02,0.001 0.05,0.003 z"
   style="fill:#808080"
   id="path29" />
            </g>
            <g
   id="shadow11"
   serif:id="shadow1"
   transform="translate(0.0303899,0.00185873)">
                <path
   d="m 1440.8,187.23 c -0.54,-1.094 -1.28,-2.319 -2.27,-3.454 -2.73,-3.126 -7.33,-5.888 -11.41,-7.712 -3.35,-1.502 -7.11,-3.206 -11.67,-3.572 -4.12,-0.33 -10.24,1.006 -10.24,1.006 0,0 12.48,-5.38 23.59,0.618 6.82,3.684 10.35,9.472 12,13.114 0.91,1.869 1.24,3.354 1.24,3.354 0,0 -0.34,-1.353 -1.24,-3.354 z"
   style="fill:#3b3b3b"
   id="path30" />
            </g>
        </g>
    </g><g
         id="Snake-Head"
         serif:id="Snake Head"
         transform="matrix(0.988738,0.121402,-0.121402,0.988738,-4.70593,-180.633)">
        <g
   id="head"
   transform="translate(0.0303899,0.00185873)">
            <path
   d="m 1484.47,23.611 c 19.24,0.016 19.47,-10.351 37.06,-13.878 9.6,-1.924 21.77,-0.217 25.04,0.627 16.75,4.319 22.51,20.966 26.03,30.296 3.77,9.961 3.96,14.473 9.01,26.045 3.97,9.089 6.87,15.609 8.9,22.014 2.17,6.845 4.11,12.046 4.11,19.057 0,6.483 -1.17,14.358 -4.01,19.031 -2.74,4.513 -8.72,5.945 -13.02,9.013 -4.67,3.338 -10.68,7.177 -15.02,11.015 -4.07,3.601 -7.35,8.68 -11.02,12.018 -3.36,3.055 -7.22,5.527 -11.02,8.012 -4.34,2.837 -9.68,6.675 -15.03,9.012 -5.34,2.336 -11.18,4.055 -17.02,5.005 -7.18,1.167 -17.7,2 -26.05,1.998 -8.04,-0.002 -17.19,-0.838 -24.03,-2.008 -5.83,-0.997 -11.69,-2.673 -17.03,-5.012 -5.34,-2.338 -10.68,-6.179 -15.02,-9.018 -3.8,-2.486 -7.66,-4.96 -11.01,-8.015 -3.68,-3.34 -6.95,-8.42 -11.02,-12.022 -4.34,-3.841 -10.35,-7.682 -15.02,-11.022 -4.29,-3.069 -10.28,-4.504 -13.02,-9.017 -2.84,-4.675 -4.17,-12.689 -4,-19.033 0.17,-6.344 2.71,-12.889 5.01,-19.031 2.51,-6.677 7.16,-13.812 10.02,-21.033 3.17,-8.013 5.25,-18.086 9.02,-27.043 3.87,-9.194 11.36,-24.197 23.13,-29.465 7.97,-3.566 22.36,-2.744 28.96,-1.438 17.61,3.489 17.4,13.876 36.05,13.892 z"
   style="fill:#fee32d;stroke:#000000;stroke-width:2.9px"
   id="path31" />
        </g>
        <g
   id="Shadows"
   transform="matrix(1.00155,0,0,1.00167,894.193,-165.734)">
            <g
   id="shadow3"
   transform="matrix(0.998451,0,0,0.998331,-892.808,165.457)">
                <path
   d="m 1521.82,12.219 c 5.41,-2.825 16.97,-2.738 23.28,-1.052 6.03,1.615 10.77,6.158 14.57,11.173 4.83,6.385 5.97,4.53 16.26,34.57 2.33,6.771 4.87,13.745 6.95,18.325 1.46,3.218 2.63,5.877 3.91,9.155 1.66,4.239 3.69,11.19 4.43,16.276 0.68,4.718 1.28,9.67 0,14.242 -1.29,4.578 -1.72,10.398 -6.12,13.226 -7.13,4.576 -24,16.233 -24,16.233 -1.31,-2.175 3.38,-11.859 -3.22,-23.241 -7.66,-13.236 -15.67,-16.368 -15.67,-16.368 0,0 16.81,-8.95 19.67,-33.589 1.22,-10.496 -2.52,-29.214 -9.33,-37.529 -11.42,-13.955 -19.63,-13.688 -28.55,-14.52 -4.09,-0.382 -3.79,-6.056 -2.18,-6.901 z"
   style="fill:#ffdf26"
   id="path32" />
            </g>
            <g
   id="shadow21"
   serif:id="shadow2"
   transform="matrix(0.998451,0,0,0.998331,-892.808,165.457)">
                <path
   d="m 1489.73,26.181 c 0,0 7.67,-1.712 10.77,-3.565 5.43,-3.248 13.17,-9.309 19.31,-9.999 3.01,-0.338 0.82,3.116 -0.04,4.544 -1.3,2.142 -0.83,-0.122 -10.79,8.843 -9.26,8.338 -15.14,25.227 -15.24,40.243 -0.05,6.97 5.56,22.796 7.01,23.037 l -14.02,-2.001 c 0,0 -1.48,-19.371 -1.01,-29.048 0.5,-10.184 4.01,-32.054 4.01,-32.054 z"
   style="fill:#f0cc00"
   id="path33" />
            </g>
            <g
   id="shadow12"
   serif:id="shadow1"
   transform="matrix(0.998451,0,0,0.998331,-892.808,165.457)">
                <path
   d="m 1404.61,143.389 c 0,0 -22.04,-15.022 -24.04,-16.024 -5.58,-2.788 -5.84,-13.542 -6.01,-20.032 -0.17,-6.491 2.7,-12.811 5.01,-18.911 2.34,-6.177 6.5,-11.88 9.01,-18.153 3.44,-8.638 6.55,-24.813 11.68,-33.676 4.13,-7.153 9.53,-17.824 15.47,-21.428 9.93,-6.025 17.83,-3.78 18.13,-2.563 0.19,0.773 -4.39,4.748 -11.2,9.641 -4.99,3.586 -9.6,8.753 -11.1,11.143 -2.93,4.687 -8.79,17.347 -9.13,31.093 -0.13,5.343 1.63,15.901 2.61,19.463 1.57,5.666 3.57,16.875 3.57,19.379 0,2.24 -2.06,3.977 -3,6.011 -1,2.17 -2.48,4.523 -3.01,7.012 -0.66,3.172 -1.29,8.01 -1,12.02 0.34,4.507 3.01,15.025 3.01,15.025 z"
   style="fill:#efcc00"
   id="path34" />
            </g>
        </g>
        <g
   id="Highlights"
   transform="matrix(1.00155,0,0,1.00167,895.927,-160.133)">
            <g
   id="highlight3"
   transform="matrix(0.991009,-0.121666,0.121681,0.99089,-891.119,346.576)">
                <path
   d="m 1552.81,19.744 c 1.25,-1.908 6.83,1.031 8.31,3.095 1.73,2.397 2.76,8.85 1.95,9.246 -1.15,0.565 -3.21,-4.395 -4.88,-6.727 -1.73,-2.397 -5.87,-4.862 -5.38,-5.614 z"
   style="fill:#ffffff"
   id="path35" />
            </g>
            <g
   id="highlight2"
   transform="matrix(0.991009,-0.121666,0.121681,0.99089,-891.119,346.576)">
                <path
   d="m 1584.59,109.737 c -1.25,-0.448 -1.57,2.788 -2.5,5.743 -1.06,3.406 -1.67,4.344 -3.2,6.093 -4.71,5.412 -4.9,9.092 -3.89,9.179 4.32,0.369 7.1,-5.668 8.68,-9.82 0.96,-2.495 1.61,-10.941 0.91,-11.195 z"
   style="fill:#ffffff"
   id="path36" />
            </g>
            <g
   id="highlight1"
   transform="matrix(0.991009,-0.121666,0.121681,0.99089,-891.119,346.576)">
                <path
   d="m 1473.1,23.129 c 0.58,-0.602 3.71,1.295 4.73,2.597 1.02,1.301 1.96,4.612 1.38,5.214 -0.58,0.602 -4.21,-0.873 -5.22,-2.175 -1.02,-1.302 -1.47,-5.034 -0.89,-5.636 z"
   style="fill:#ffffff"
   id="path37" />
            </g>
        </g>
        <g
   id="Eyes">
            <g
   id="Eye-R">
                <g
   id="eyeball-r"
   transform="translate(0.0303899,0.00185873)">
                    <path
   d="m 1528.21,22.677 c 16.93,0.003 30.67,18.93 30.66,42.239 0,23.309 -13.75,42.23 -30.67,42.227 -16.93,-0.004 -30.66,-18.93 -30.66,-42.239 0.01,-23.309 13.75,-42.23 30.67,-42.227 z"
   style="fill:#ffffff;stroke:#000000;stroke-width:2.77px"
   id="path38" />
                </g>
                <g
   id="pupil-r"
   transform="translate(0.0303899,0.00185873)">
                    <path
   d="m 1514.56,72.669 c 5.31,0.001 9.63,4.318 9.63,9.634 0,5.316 -4.32,9.632 -9.64,9.631 -5.31,-10e-4 -9.63,-4.318 -9.63,-9.635 0.01,-5.316 4.32,-9.631 9.64,-9.63 z"
   id="path39" />
                </g>
            </g>
            <g
   id="Eye-L">
                <g
   id="eyeball-l"
   transform="translate(0.0303899,0.00185873)">
                    <path
   d="m 1437.73,22.659 c 16.92,0.004 30.66,18.93 30.65,42.239 0,23.309 -13.75,42.23 -30.67,42.227 -16.92,-0.003 -30.66,-18.93 -30.66,-42.239 0.01,-23.309 13.75,-42.23 30.68,-42.227 z"
   style="fill:#ffffff;stroke:#000000;stroke-width:2.77px"
   id="path40" />
                </g>
                <g
   id="pupil-l"
   transform="translate(0.0303899,0.00185873)">
                    <path
   d="m 1451.56,72.656 c 5.31,10e-4 9.63,4.318 9.63,9.635 0,5.316 -4.32,9.631 -9.64,9.63 -5.31,-0.001 -9.63,-4.318 -9.63,-9.634 0,-5.316 4.32,-9.632 9.64,-9.631 z"
   id="path41" />
                </g>
            </g>
        </g>
        <g
   id="Jaw">
            <g
   id="Jaw1"
   serif:id="Jaw"
   transform="matrix(0.966789,-5.09118e-4,5.41645e-4,1.02855,892.707,-175.25)">
                <path
   d="m 569.42,389.108 c 4.179,-0.262 21.769,3.708 32.553,3.475 19.296,-0.417 23.893,-2.471 27.111,-1.976 15.011,2.309 17.815,14.26 16.328,21.639 -1.851,9.191 -9.038,24.657 -45.425,24.425 -41.638,-0.265 -47.722,-21.635 -46.576,-31.408 1.567,-13.363 11.155,-15.851 16.009,-16.155 z"
   style="fill:#f0cc00;stroke:#000000;stroke-width:2.83px"
   id="path42" />
            </g>
            <g
   id="Jaw-Light"
   serif:id="Jaw Light"
   transform="matrix(0.931083,-4.90315e-4,5.2164e-4,0.990567,913.997,-159.516)">
                <path
   d="m 587.362,396.695 c 5.466,-0.322 10.13,0.018 16.749,-0.662 10.043,-1.034 16.1,-3.821 23.185,-4.799 7.084,-0.978 13.223,3.198 16.43,8.06 3.636,5.51 2.806,10.165 2.071,13.484 -2.825,12.743 -14.471,20.247 -43.172,19.946 -11.318,-0.119 -17.1,-0.841 -25.347,-5.942 -6.222,-3.849 -11.212,-14.444 -8.002,-21.748 3.715,-8.451 12.918,-8.035 18.086,-8.339 z"
   style="fill:#fee32d"
   id="path43" />
            </g>
            <g
   id="hilight1"
   transform="matrix(0.966789,-5.09118e-4,5.0918e-4,0.966905,672.291,-152.965)">
                <path
   d="m 859.405,400.127 c 1,-0.001 3.957,1.358 5.001,2.997 1.168,1.833 2.004,6.665 2.004,7.999 10e-4,0.666 -1.528,0.472 -2,0.001 -0.667,-0.666 -1.107,-2.807 -2.002,-3.999 -1,-1.333 -3.501,-2.832 -4.002,-3.998 -0.416,-0.969 -10e-4,-3 0.999,-3 z"
   style="fill:#ffffff"
   id="path44" />
            </g>
        </g>
        <g
   id="Snout">
            <g
   id="shadow22"
   serif:id="shadow2"
   transform="matrix(0.994086,0.122058,-0.148232,1.20725,936.941,-331.749)">
                <path
   d="m 590.975,316.747 c 38.347,-3.871 71.334,5.44 73.618,20.778 2.283,15.339 -26.996,30.935 -65.343,34.806 -38.347,3.871 -71.334,-5.44 -73.617,-20.779 -2.284,-15.339 26.995,-30.934 65.342,-34.805 z"
   style="fill-opacity:0.27"
   id="path45" />
            </g>
            <g
   id="tooth-R"
   transform="translate(0.0303899,0.00185873)">
                <path
   d="m 1532.52,170.866 12.02,-7.01 -4.02,48.08 z"
   style="fill:#ffffff;stroke:#000000;stroke-width:2.9px"
   id="path46" />
            </g>
            <g
   id="tooth-L"
   transform="translate(0.0303899,0.00185873)">
                <path
   d="m 1430.36,170.846 -12.02,-7.014 4,48.081 z"
   style="fill:#ffffff;stroke:#000000;stroke-width:2.9px"
   id="path47" />
            </g>
            <g
   id="snout"
   transform="matrix(1.16089,5.31638e-4,-9.59148e-4,2.0944,804.244,-533.637)">
                <path
   d="m 584.086,297.961 c 36.426,0.009 65.991,9.875 65.981,22.017 -0.011,12.142 -29.593,21.992 -66.02,21.983 -36.426,-0.01 -65.991,-9.876 -65.98,-22.018 0.01,-12.142 29.592,-21.992 66.019,-21.982 z"
   style="fill:#fee32d;stroke:#000000;stroke-width:1.72px"
   id="path48" />
            </g>
            <g
   id="shadow13"
   serif:id="shadow1"
   transform="matrix(0.590658,2.70496e-4,-2.70529e-4,0.590729,-605.649,-55.1469)">
                <path
   d="m 3478.21,257.973 c 0,0 -50.43,18.356 -50.45,65.29 -0.03,46.935 49,63.602 49,63.602 0,0 -65.58,-16.675 -65.55,-63.61 0.02,-46.934 67,-65.282 67,-65.282 z"
   style="fill:#e8c500"
   id="path49" />
            </g>
            <g
   id="Nostril-R">
                <g
   id="nostril-r"
   transform="matrix(1.15237,5.27734e-4,-6.08997e-4,1.32981,860.768,-268.078)">
                    <path
   d="m 564.004,297.373 c 7.727,0.004 13.999,2.919 13.997,6.506 -0.002,3.588 -6.277,6.498 -14.004,6.494 -7.727,-0.003 -13.998,-2.918 -13.996,-6.505 0.002,-3.588 6.277,-6.498 14.003,-6.495 z"
   style="fill:#f7db27"
   id="path50" />
                </g>
                <g
   id="shadow-r"
   transform="matrix(0.465447,2.13155e-4,-2.1318e-4,0.465503,-114.16,3.52739)">
                    <path
   d="m 3456.32,281.48 c 2.23,-9.101 16.78,-16.132 34.38,-16.123 19.13,0.009 34.66,8.337 34.65,18.585 0,5.851 -5.07,11.071 -12.97,14.471 0.19,-0.795 0.29,-1.605 0.29,-2.428 0.01,-10.249 -15.52,-18.576 -34.65,-18.586 -8.21,-0.004 -15.75,1.525 -21.7,4.081 z"
   style="fill:#cdb100"
   id="path51" />
                </g>
            </g>
            <g
   id="Nostril-L">
                <g
   id="nostril-l"
   transform="matrix(1.15237,5.27734e-4,-6.08997e-4,1.32981,800.675,-268.105)">
                    <path
   d="m 564.004,297.352 c 7.727,0.003 13.999,2.918 13.997,6.505 -0.002,3.588 -6.277,6.498 -14.004,6.495 -7.727,-0.004 -13.998,-2.919 -13.996,-6.506 0.002,-3.588 6.277,-6.498 14.003,-6.494 z"
   style="fill:#f7db27"
   id="path52" />
                </g>
                <g
   id="shadow-l"
   transform="matrix(0.465447,2.13155e-4,-2.1318e-4,0.465503,-174.253,3.49987)">
                    <path
   d="m 3456.32,281.418 c 2.23,-9.102 16.78,-16.132 34.38,-16.124 19.13,0.009 34.66,8.337 34.65,18.586 0,5.85 -5.07,11.07 -12.97,14.471 0.19,-0.795 0.29,-1.606 0.29,-2.429 0.01,-10.248 -15.52,-18.576 -34.65,-18.585 -8.21,-0.004 -15.75,1.524 -21.7,4.081 z"
   style="fill:#cdb100"
   id="path53" />
                </g>
            </g>
            <g
   id="highlight11"
   serif:id="highlight1"
   transform="matrix(1.00155,-1.45487e-5,-1.45487e-5,1.00167,26.65,-13.0335)">
                <path
   d="m 1505.26,121.885 c 1.02,-1.529 7.67,3.88 8.31,4.724 0.78,1.045 7.03,5.436 4.18,7.893 -2.93,2.518 -4.64,-3.501 -6.83,-5.648 -2,-1.963 -7.51,-4.168 -5.66,-6.969 z"
   style="fill:#ffffff"
   id="path54" />
            </g>
        </g>
    </g></g></g></svg>
