<svg width="256" height="256" viewBox="0 0 256 256" fill="none" xmlns="http://www.w3.org/2000/svg" id="pypi">
<style>
#pypi {
    rect {fill: #242938}

    @media (prefers-color-scheme: light) {
        rect {fill: #F4F2ED}   
    }
}
</style>
<rect width="256" height="256" fill="#242938" rx="60"/>
<path d="M65.4515 110.317L90.1333 119.301L115.18 110.184L90.4985 101.201L65.4515 110.317Z" fill="#F7F7F4"/>
<path d="M90.725 100.579H90.2722L65.2252 109.695V110.939L89.9069 119.923H90.3597L115.407 110.806V109.562L90.725 100.579ZM90.498 101.904L113.243 110.183L90.1327 118.597L67.3877 110.315L90.498 101.904Z" fill="#CCCCCC"/>
<path d="M65.4515 110.317L90.1333 119.301V148.31L65.4515 139.326V110.317Z" fill="#EFEEEA"/>
<path d="M65.6779 109.695L64.7897 110.317V139.326L65.2252 139.948L89.9069 148.932L90.7952 148.31V119.301L90.3597 118.679L65.6779 109.695ZM66.1115 111.26L89.4707 119.762V147.365L66.1115 138.861V111.26Z" fill="#CCCCCC"/>
<path d="M90.241 90.035L114.923 99.0184L139.97 89.902L115.288 80.9186L90.241 90.035Z" fill="#F7F7F4"/>
<path d="M115.514 80.2966H115.062L90.0146 89.413V90.657L114.696 99.6404H115.149L140.196 90.524V89.2801L115.514 80.2966ZM115.287 81.6212L138.032 89.9L114.919 98.3139L92.1713 90.0351L115.287 81.6212Z" fill="#CCCCCC"/>
<path d="M90.241 90.035L114.923 99.0184V128.027L90.241 119.044V90.035Z" fill="#EFEEEA"/>
<path d="M90.4674 89.413L89.5791 90.035V119.044L90.0146 119.666L114.696 128.649L115.585 128.027V99.0184L115.149 98.3965L90.4674 89.413ZM90.9004 90.9776L114.26 99.4815V127.082L90.9004 118.581V90.9776Z" fill="#CCCCCC"/>
<path d="M40.6619 148.628L65.3436 157.612L90.3906 148.495L65.7089 139.512L40.6619 148.628Z" fill="#F7F7F4"/>
<path d="M65.9353 138.89H65.4825L40.4355 148.006V149.25L65.1173 158.234H65.57L90.617 149.117V147.873L65.9353 138.89ZM65.7092 140.214L88.4568 148.493L65.3412 156.906L42.5962 148.628L65.7092 140.214Z" fill="#CCCCCC"/>
<path d="M40.6619 148.628L65.3436 157.612V186.621L40.6619 177.637V148.628Z" fill="#EFEEEA"/>
<path d="M40.8883 148.006L40 148.628V177.637L40.4355 178.259L65.1172 187.243L66.0055 186.621V157.612L65.57 156.99L40.8883 148.006ZM41.3227 149.573L64.6792 158.074V185.675L41.3227 177.173V149.573Z" fill="#CCCCCC"/>
<path d="M65.4514 157.643L90.1331 166.626V195.635L65.4514 186.652V157.643Z" fill="#EFEEEA"/>
<path d="M65.6778 157.021L64.7896 157.643V186.652L65.2251 187.274L89.9068 196.257L90.795 195.635V166.626L90.3595 166.004L65.6778 157.021ZM66.1116 158.585L89.4707 167.089V194.689L66.1116 186.188V158.585Z" fill="#CCCCCC"/>
<path d="M65.4514 128.346L90.1331 137.329L115.18 128.213L90.4984 119.23L65.4514 128.346Z" fill="#F7F7F4"/>
<path d="M90.7248 118.608H90.2721L65.2251 127.724V128.968L89.9068 137.951H90.3596L115.407 128.835V127.591L90.7248 118.608ZM90.498 119.934L113.243 128.213L90.1327 136.624L67.3877 128.345L90.498 119.934Z" fill="#CCCCCC"/>
<path d="M65.4514 128.346L90.1331 137.329V166.338L65.4514 157.355V128.346Z" fill="#EFEEEA"/>
<path d="M65.6778 127.724L64.7896 128.346V157.355L65.2251 157.977L89.9068 166.96L90.795 166.338V137.329L90.3595 136.707L65.6778 127.724ZM66.1116 129.29L89.4707 137.791V165.392L66.1116 156.891V129.29Z" fill="#CCCCCC"/>
<path d="M189.291 148.597V177.606L214.338 168.49V139.481L189.291 148.597Z" fill="white"/>
<path d="M214.112 138.859L189.065 147.975L188.629 148.597V177.606L189.518 178.228L214.565 169.112L215 168.49V139.481L214.112 138.859ZM213.675 140.426V168.026L189.953 176.66V149.059L213.675 140.426Z" fill="#CCCCCC"/>
<path d="M164.502 157.612V186.621L189.549 177.504V148.495L164.502 157.612Z" fill="#FFD242"/>
<path d="M189.322 147.873L164.275 156.99L163.84 157.612V186.621L164.728 187.243L189.775 178.126L190.211 177.504V148.495L189.322 147.873ZM188.886 149.438V177.041L165.161 185.675V158.074L188.886 149.438Z" fill="#CCCCCC"/>
<path d="M139.712 166.626V195.635L164.759 186.519V157.51L139.712 166.626Z" fill="#FFD242"/>
<path d="M164.533 156.888L139.486 166.004L139.05 166.626V195.635L139.939 196.257L164.986 187.141L165.421 186.519V157.51L164.533 156.888ZM164.097 158.453V186.053L140.372 194.689V167.089L164.097 158.453Z" fill="#CCCCCC"/>
<path d="M114.923 175.64V204.649L139.97 195.533V166.524L114.923 175.64Z" fill="white"/>
<path d="M139.743 165.902L114.696 175.018L114.261 175.64V204.649L115.149 205.271L140.196 196.155L140.632 195.533V166.524L139.743 165.902ZM139.305 167.467V195.068L115.583 203.704V176.101L139.305 167.467Z" fill="#CCCCCC"/>
<path d="M90.241 166.657L114.923 175.64V204.65L90.241 195.666V166.657Z" fill="#EFEEEA"/>
<path d="M90.4674 166.035L89.5791 166.657V195.666L90.0146 196.288L114.696 205.271L115.585 204.65V175.64L115.149 175.019L90.4674 166.035ZM90.9005 167.6L114.26 176.101V203.704L90.9005 195.2V167.6Z" fill="#CCCCCC"/>
<path d="M189.291 119.301V148.31L214.338 139.193V110.184L189.291 119.301Z" fill="#FFD242"/>
<path d="M214.112 109.562L189.065 118.679L188.629 119.301V148.31L189.518 148.932L214.565 139.815L215 139.193V110.184L214.112 109.562ZM213.675 111.128V138.729L189.953 147.365V119.762L213.675 111.128Z" fill="#CCCCCC"/>
<path d="M164.609 81.0206V110.03L189.656 100.913V71.9043L164.609 81.0206Z" fill="#353564"/>
<path d="M189.43 71.2823L164.383 80.3987L163.948 81.0206V110.03L164.836 110.652L189.883 101.535L190.318 100.913V71.9043L189.43 71.2823ZM188.994 72.8473V100.448L165.27 109.084V81.4835L188.994 72.8473Z" fill="#CCCCCC"/>
<path d="M164.609 81.0206L189.291 90.004L214.338 80.8877L189.656 71.9043L164.609 81.0206Z" fill="#FFC91D"/>
<path d="M189.883 71.2823H189.43L164.383 80.3987V81.6426L189.065 90.626H189.518L214.565 81.5096V80.2657L189.883 71.2823ZM189.656 72.6064L212.406 80.8852L189.291 89.2991L166.546 81.0202L189.656 72.6064Z" fill="#CCCCCC"/>
<path d="M189.291 90.004V119.013L214.338 109.897V80.8877L189.291 90.004Z" fill="#FFD242"/>
<path d="M214.112 80.2657L189.065 89.3821L188.629 90.0041V119.013L189.518 119.635L214.565 110.519L215 109.897V80.8877L214.112 80.2657ZM213.675 81.8304V109.434L189.953 118.067V90.4666L213.675 81.8304Z" fill="#CCCCCC"/>
<path d="M164.502 128.315V157.324L189.549 148.208V119.199L164.502 128.315Z" fill="#FFD242"/>
<path d="M189.322 118.577L164.275 127.693L163.84 128.315V157.324L164.728 157.946L189.775 148.83L190.211 148.208V119.199L189.322 118.577ZM188.886 120.143V147.743L165.161 156.377V128.776L188.886 120.143Z" fill="#CCCCCC"/>
<path d="M164.502 99.0184V128.027L189.549 118.911V89.902L164.502 99.0184Z" fill="#3775A9"/>
<path d="M189.322 89.2801L164.275 98.3964L163.84 99.0184V128.027L164.728 128.649L189.775 119.533L190.211 118.911V89.902L189.322 89.2801ZM188.886 90.8452V118.446L165.161 127.082V99.4815L188.886 90.8452Z" fill="#CCCCCC"/>
<path d="M139.82 60.7383L164.502 69.7218L189.549 60.6054L164.867 51.622L139.82 60.7383Z" fill="#2F6491"/>
<path d="M165.093 51H164.641L139.594 60.1164V61.3603L164.275 70.3437H164.728L189.775 61.2274V59.9834L165.093 51ZM164.865 52.3236L187.61 60.6051L164.499 69.0163L141.754 60.7375L164.865 52.3236Z" fill="#CCCCCC"/>
<path d="M164.502 69.7217V98.7308L189.549 89.6144V60.6054L164.502 69.7217Z" fill="#3775A9"/>
<path d="M189.322 59.9834L164.275 69.0998L163.84 69.7217V98.7308L164.728 99.3527L189.775 90.2364L190.211 89.6144V60.6054L189.322 59.9834ZM188.886 61.5503V89.1508L165.161 97.7844V70.1839L188.886 61.5503Z" fill="#CCCCCC"/>
<path d="M115.03 157.355L139.712 166.338L164.759 157.222L140.077 148.239L115.03 157.355Z" fill="#AFAFDE"/>
<path d="M140.304 147.617H139.851L114.804 156.733V157.977L139.486 166.96H139.939L164.986 157.844V156.6L140.304 147.617ZM140.076 148.943L162.821 157.222L139.71 165.633L116.965 157.354L140.076 148.943Z" fill="#CCCCCC"/>
<path d="M139.712 137.329V166.338L164.759 157.222V128.213L139.712 137.329Z" fill="#FFD242"/>
<path d="M164.533 127.591L139.486 136.707L139.05 137.329V166.338L139.939 166.96L164.986 157.844L165.421 157.222V128.213L164.533 127.591ZM164.097 129.158V156.758L140.372 165.392V137.791L164.097 129.158Z" fill="#CCCCCC"/>
<path d="M139.712 108.033V137.042L164.759 127.925V98.9164L139.712 108.033Z" fill="#3775A9"/>
<path d="M164.533 98.2944L139.486 107.411L139.05 108.033V137.042L139.939 137.664L164.986 128.547L165.421 127.925V98.9164L164.533 98.2944ZM164.097 99.8601V127.461L140.372 136.094V108.494L164.097 99.8601Z" fill="#CCCCCC"/>
<path d="M115.288 128.244L139.97 137.227V166.236L115.288 157.253V128.244Z" fill="#E9E9FF"/>
<path d="M115.514 127.622L114.626 128.244V157.253L115.062 157.875L139.743 166.858L140.632 166.236V137.227L140.196 136.605L115.514 127.622ZM115.949 129.187L139.305 137.688V165.291L115.949 156.787V129.187Z" fill="#CCCCCC"/>
<path d="M114.923 146.344V175.353L139.97 166.236V137.227L114.923 146.344Z" fill="#3775A9"/>
<path d="M139.743 136.605L114.696 145.722L114.261 146.344V175.353L115.149 175.975L140.196 166.858L140.632 166.236V137.227L139.743 136.605ZM139.305 138.17V165.773L115.583 174.407V146.806L139.305 138.17Z" fill="#CCCCCC"/>
<path d="M90.241 137.36L114.923 146.344V175.353L90.241 166.369V137.36Z" fill="#2F6491"/>
<path d="M90.4674 136.738L89.5791 137.36V166.369L90.0146 166.991L114.696 175.975L115.585 175.353V146.344L115.149 145.722L90.4674 136.738ZM90.9005 138.305L114.26 146.806V174.407L90.9005 165.905V138.305Z" fill="#CCCCCC"/>
<path d="M90.241 108.064L114.923 117.047L139.97 107.931L115.288 98.9473L90.241 108.064Z" fill="#2F6491"/>
<path d="M115.514 98.3254H115.062L90.0146 107.442V108.686L114.696 117.669H115.149L140.196 108.553V107.309L115.514 98.3254ZM115.287 99.6509L138.032 107.93L114.922 116.341L92.1766 108.062L115.287 99.6509Z" fill="#CCCCCC"/>
<path d="M114.923 117.047V146.056L139.97 136.94V107.931L114.923 117.047Z" fill="#3775A9"/>
<path d="M139.743 107.309L114.696 116.425L114.261 117.047V146.056L115.149 146.678L140.196 137.562L140.632 136.94V107.931L139.743 107.309ZM139.305 108.875V136.475L115.583 145.109V117.509L139.305 108.875Z" fill="#CCCCCC"/>
<path d="M90.241 108.064L114.923 117.047V146.056L90.241 137.073V108.064Z" fill="#2F6491"/>
<path d="M90.4674 107.442L89.5791 108.064V137.073L90.0146 137.695L114.696 146.678L115.585 146.056V117.047L115.149 116.425L90.4674 107.442ZM90.9005 109.007L114.26 117.509V145.109L90.9005 136.608V109.007Z" fill="#CCCCCC"/>
<path d="M115.03 69.7527V98.7617L140.077 89.6454V60.6363L115.03 69.7527Z" fill="#353564"/>
<path d="M139.851 60.0143L114.804 69.1307L114.369 69.7527V98.7617L115.257 99.3837L140.304 90.2673L140.739 89.6453V60.6363L139.851 60.0143ZM139.414 61.5794V89.1799L115.692 97.8162V70.2156L139.414 61.5794Z" fill="#CCCCCC"/>
<path d="M115.03 69.7527L139.712 78.7361L164.759 69.6197L140.077 60.6363L115.03 69.7527Z" fill="#2F6491"/>
<path d="M140.304 60.0143H139.851L114.804 69.1307V70.3747L139.486 79.3581H139.939L164.986 70.2417V68.9978L140.304 60.0143ZM140.078 61.3385L162.821 69.6173L139.71 78.0312L116.965 69.7523L140.078 61.3385Z" fill="#CCCCCC"/>
<path d="M139.712 78.7361V107.745L164.759 98.6288V69.6197L139.712 78.7361Z" fill="#3775A9"/>
<path d="M164.533 68.9978L139.486 78.1141L139.05 78.7361V107.745L139.939 108.367L164.986 99.2507L165.421 98.6288V69.6197L164.533 68.9978ZM164.097 70.5625V98.1657L140.372 106.799V79.1987L164.097 70.5625Z" fill="#CCCCCC"/>
<path d="M115.03 69.7527L139.712 78.7361V107.745L115.03 98.7617V69.7527Z" fill="#2F6491"/>
<path d="M115.257 69.1307L114.369 69.7527V98.7617L114.804 99.3837L139.486 108.367L140.374 107.745V78.7361L139.939 78.1141L115.257 69.1307ZM115.692 70.6975L139.048 79.1987V106.799L115.692 98.298V70.6975Z" fill="#CCCCCC"/>
<path d="M180.199 169.804C182.855 169.804 185.009 168.296 185.009 166.436C185.009 164.576 182.855 163.068 180.199 163.068C177.542 163.068 175.388 164.576 175.388 166.436C175.388 168.296 177.542 169.804 180.199 169.804Z" fill="white"/>
<path d="M149.062 93.1726C151.719 93.1726 153.873 91.6646 153.873 89.8043C153.873 87.9441 151.719 86.4361 149.062 86.4361C146.406 86.4361 144.252 87.9441 144.252 89.8043C144.252 91.6646 146.406 93.1726 149.062 93.1726Z" fill="white"/>
</svg>
