<svg width="256" height="256" viewBox="0 0 256 256" fill="none" xmlns="http://www.w3.org/2000/svg">
<path d="M196 0H60C26.8629 0 0 26.8629 0 60V196C0 229.137 26.8629 256 60 256H196C229.137 256 256 229.137 256 196V60C256 26.8629 229.137 0 196 0Z" fill="#242938"/>
<path d="M121.7 21.0029C119.451 21.0664 117.229 22.137 115.371 24.2008C114.35 25.3378 113.483 26.6912 112.764 28.0257C110.89 31.5381 110.521 35.5139 109.827 39.3666L106.009 61.0065C105.862 61.8558 105.481 62.2071 104.72 62.4501L76.695 71.3601C74.6528 72.0279 72.6055 72.8911 70.7992 74.039C65.2891 77.5415 64.4741 83.3042 68.6112 88.3644C70.4374 90.6029 72.7909 92.1775 75.4023 93.3215L92.8538 101.103C92.9995 101.183 93.1551 101.234 93.3128 101.264L96.9978 103.925C96.9978 103.925 93.3296 144.554 100.216 147.365C100.155 147.355 99.8094 147.283 99.8094 147.283C99.8094 147.283 100.507 148.038 102.39 147.816C103.831 148.084 103.641 148.04 102.463 147.806C105.024 147.475 109.737 145.329 117.907 137.106C118.508 136.567 119.095 136.013 119.668 135.443L137.315 116.376L141.442 117.83C141.591 118.035 141.806 118.167 142.15 118.269L161.802 124.253C164.488 125.083 167.145 125.69 170.008 125.271C175.12 124.522 178.882 120.31 178.831 115.159C178.811 112.897 178.018 110.854 176.977 108.884L163.962 84.1803C163.548 83.3995 163.561 82.8944 164.157 82.1959L186.021 56.4761C187.437 54.7864 188.715 52.9746 189.456 50.8751C191.085 46.2415 188.978 42.5585 184.172 41.6586C181.962 41.2637 179.783 41.472 177.629 42.0406L146.304 50.3701C145.382 50.6181 144.926 50.4445 144.425 49.6041L131.636 28.3373C130.669 26.7349 129.514 25.1682 128.189 23.8456C126.227 21.882 123.95 20.9404 121.7 21.0029ZM122.636 40.585C123.142 40.9402 123.398 41.3063 123.637 41.7012L137.398 64.6508C137.777 65.2739 138.117 65.4942 138.87 65.2938L163.103 58.8475L168.937 57.3195C168.851 57.8086 168.638 58.1033 168.405 58.3791L148.418 81.8665C147.853 82.5492 147.801 83.0274 148.226 83.8271L160.859 107.799L161.439 109.026L161.424 109.046L138.893 102.831L138.887 102.813L134.626 101.617L109.353 129.653L113.975 92.7926L109.827 90.9868L109.835 90.9799L86.3651 81.6532C86.8152 81.2434 87.2177 81.0728 87.639 80.9418L116.168 71.9167C116.839 71.7084 117.22 71.4504 117.284 70.6844L117.683 68.3478L121.525 46.7109L122.636 40.585Z" fill="#E15919"/>
<path d="M132.473 242.113L130.221 241.801L130.284 235.984L130.378 230.137L131.472 230.293C133.661 230.606 137.007 230.449 137.914 229.98C139.947 228.948 141.104 227.76 142.229 225.508L143.418 223.226L139.353 213.062C137.132 207.496 133.661 198.865 131.628 193.862C129.627 188.889 127.626 183.855 127.251 182.698L126.5 180.571H134.099C139.822 180.571 141.792 180.665 142.011 180.947C142.198 181.165 142.917 183.386 143.637 185.887C144.387 188.389 145.169 191.047 145.419 191.798C146.826 196.051 149.578 206.058 149.766 207.559C150.047 209.716 150.454 210.092 150.704 208.497C150.954 206.933 157.99 183.01 158.678 181.291C158.991 180.571 158.991 180.571 166.496 180.571C170.624 180.571 174.001 180.665 174.001 180.759C174.001 180.915 164.463 206.527 160.492 217.003C159.46 219.754 158.209 223.163 157.709 224.601C153.987 235.077 149.328 240.237 142.292 241.676C139.165 242.332 135.225 242.52 132.473 242.113Z" fill="#E45A1C"/>
<path d="M83 195.863V168L95.446 168.156C109.205 168.313 110.206 168.438 114.459 170.377C117.211 171.659 120.526 174.63 121.651 176.881C122.84 179.226 123.403 182.229 123.403 186.044C123.403 191.923 122.12 195.738 119.025 199.053C115.053 203.368 111.113 204.838 102.545 205.244L98.1666 205.432L98.0728 214.594L98.0102 223.726H90.5051H83V195.863ZM103.42 192.642C106.672 191.672 108.142 189.609 108.173 186.044C108.173 183.479 107.517 182.041 105.828 181.04C104.921 180.509 104.202 180.415 101.45 180.415H98.1666L98.0728 186.356C98.0415 189.609 98.0728 192.454 98.1353 192.673C98.3542 193.236 101.575 193.205 103.42 192.642Z" fill="#E45A1C"/>
</svg>
