<svg width="256" height="256" viewBox="0 0 256 256" fill="none" xmlns="http://www.w3.org/2000/svg" id="pytest">
  <rect width="256" height="256" rx="60" fill="#F4F2ED"/>
  <path d="M64.2488 67.6455H191.751C195.202 67.6455 198 70.4432 198 73.8943C198 77.3455 195.202 80.1431 191.751 80.1431H64.2488C60.7977 80.1431 58 77.3455 58 73.8943C58 70.4432 60.7977 67.6455 64.2488 67.6455Z" fill="#696969"/>
  <path d="M65.3601 55H90.9964V60.916H65.3601V55Z" fill="#009FE3"/>
  <path d="M98.8845 55H124.52V60.916H98.8845V55Z" fill="#C7D302"/>
  <path d="M131.965 55H157.601V60.916H131.965V55Z" fill="#F07E16"/>
  <path d="M164.906 55H190.542V60.916H164.906V55Z" fill="#DF2815"/>
  <path d="M164.906 86.6508H190.542V129.986H164.906V86.6508Z" fill="#DF2815"/>
  <path d="M131.965 86.6508H157.649V157.052H131.965V86.6508Z" fill="#F07E16"/>
  <path d="M98.8845 86.6508H124.519V192.104H98.8845V86.6508Z" fill="#C7D302"/>
  <path d="M65.3601 86.6508H90.9964V215.177H65.3601V86.6508Z" fill="#009FE3"/>
</svg>