<svg width="256" height="256" viewBox="0 0 256 256" fill="none" id="qbtlabs" xmlns="http://www.w3.org/2000/svg" xmlns:xlink="http://www.w3.org/1999/xlink">
<style>
#qbtlabs {
    rect {fill: #242938}
    
    @media (prefers-color-scheme: light) {
        rect {fill: #F4F2ED}
    }
}  
</style>
<rect width="256" height="256" fill="#242938" rx="60"/>
<path d="M214.011 31.7342C218.43 36.481 221.32 42.7468 222 49.5822C222 52.4304 221.32 54.3292 219.79 57.9368C218.261 61.5444 199.392 98.0001 193.783 108.063C190.553 113.95 188.853 120.975 188.853 127.81C188.853 134.836 190.553 141.671 193.783 147.557C199.392 157.621 218.261 194.266 219.79 197.873C221.32 201.481 222 203.19 222 206.038C221.32 212.874 218.601 219.139 214.181 223.696C209.931 228.633 204.322 231.861 198.373 232.431C195.823 232.431 194.123 231.671 191.064 229.962C188.004 228.253 154.687 207.747 145.678 201.481C144.998 201.101 144.319 200.532 143.468 200.151L98.9331 170.722C99.9529 180.215 103.693 189.329 109.812 195.974C111.002 197.304 112.192 198.444 113.552 199.582C112.532 200.151 111.341 200.722 110.322 201.481C101.313 207.747 68.5064 228.823 65.2767 230.532C62.0471 232.24 60.5172 233 57.7974 233C51.6781 232.24 46.0687 229.203 41.9891 224.266C37.5696 219.519 34.6799 213.253 34 206.418C34.17 203.57 34.8499 200.722 36.2098 198.253C37.7396 194.645 56.6077 158 62.2169 147.937C65.4465 142.05 67.1465 135.215 67.1465 128.19C67.1465 121.164 65.4465 114.329 62.2169 108.443C56.6077 98.0001 37.5696 61.3544 36.2098 57.7468C34.8499 55.2784 34.17 52.4304 34 49.5822C34.6799 42.7468 37.3996 36.481 41.8192 31.7342C46.0687 26.7975 51.6781 23.7595 57.7974 23C60.3472 23.1899 62.8968 23.9494 65.2767 25.4684C67.9965 26.7975 91.9638 42.3671 104.712 50.7216L107.602 52.6203C108.622 53.3798 109.472 53.9493 110.152 54.3292L111.512 55.2784L156.897 85.2785C155.877 73.886 150.608 63.443 142.448 56.4178C143.468 55.8482 144.659 55.2784 145.678 54.5189C154.687 48.2532 187.494 26.9873 190.723 25.4684C192.933 23.9494 195.482 23.1899 198.203 23C204.152 23.7595 209.762 26.7975 214.011 31.7342ZM130.379 141.481L140.069 130.658C141.429 129.139 141.429 126.861 140.069 125.342L130.379 114.519C129.02 113 126.98 113 125.621 114.519L115.931 125.342C114.571 126.861 114.571 129.139 115.931 130.658L125.621 141.481C126.81 142.81 129.02 142.81 130.379 141.481Z" fill="#FF694A"/>
</svg>
