<svg width="256" height="256" viewBox="0 0 256 256" fill="none" xmlns="http://www.w3.org/2000/svg" id="qemu">
<style>
#qemu {
    rect {fill: #242938}

    @media (prefers-color-scheme: light) {
        rect {fill: #F4F2ED}
    }
}
</style>
<rect width="256" height="256" rx="60" fill="#242938"/>
<path d="M127.888 28C72.1835 28 27 72.9059 27 128.323C27 183.741 72.1835 228.647 127.888 228.647C146.115 228.647 163.18 223.857 177.936 215.443L183.184 228.647H187.529H223.641H223.866L207.954 189.319C220.982 172.414 228.719 151.27 228.719 128.323C228.719 72.9059 183.592 28 127.888 28Z" fill="black"/>
<path d="M193.379 88.7526C193.379 120.503 163.468 146.242 126.57 146.242C89.6715 146.242 59.7598 120.503 59.7598 88.7526C59.7598 57.002 89.6715 31.2629 126.57 31.2629C163.468 31.2629 193.379 57.002 193.379 88.7526Z" fill="url(#paint0_linear_210_338)"/>
<path d="M148.983 69.4019C148.983 75.9495 143.675 81.2574 137.127 81.2574C130.579 81.2574 125.271 75.9495 125.271 69.4019C125.271 62.8543 130.579 57.5464 137.127 57.5464C143.675 57.5464 148.983 62.8543 148.983 69.4019Z" fill="black"/>
<path d="M182.763 84.7692L115.49 75.062L113.606 84.8133L180.878 94.5205L182.763 84.7692Z" fill="black"/>
<path d="M187.967 87.8689H176.111V93.1127H187.967V87.8689Z" fill="black"/>
<path d="M101.115 44.5233C101.012 48.4691 94.1346 45.0342 93.8358 49.5451C86.2092 46.1496 94.4295 54.7305 93.6666 55.5261H93.6102L93.046 55.4698C92.6779 55.3383 92.1436 55.1104 91.3532 54.6234C86.0269 58.867 85.8975 67.6845 80.4068 72.5665C76.8053 80.3397 75.9294 88.7868 73.2973 96.8856C72.0009 104.655 70.8619 112.41 72.7895 120.189C73.3682 126.512 71.5451 135.101 77.3035 139.543C85.839 146.554 92.9322 155.424 100.099 163.862C111.328 177.681 121.278 192.503 130.061 207.986C130.646 204.163 132.064 215.686 134.631 216.45C133.743 210.686 132.587 201.53 132.036 194.444C129.18 175.863 120.023 158.966 116.575 140.558C116.469 139.781 116.344 138.984 116.237 138.189V135.875H115.954C114.825 126.77 114.419 116.979 121.033 109.863C127.785 103.052 137.836 101.336 145.972 96.6035C147.782 95.536 149.673 94.6684 151.615 94.0644C151.631 94.0589 151.656 94.0698 151.671 94.0644C157.299 92.3248 163.315 92.3793 169.163 93.3308C169.249 93.3453 169.359 93.3729 169.445 93.3872C169.977 93.4762 170.554 93.5659 171.081 93.6693C175.363 94.0509 183.982 95.722 185.526 92.7665C179.618 87.7356 171.108 88.0862 163.915 86.1084C162.777 85.9013 161.366 85.6743 159.966 85.5441L152.913 83.9642L151.163 83.5128V83.5692L125.942 78.6602C125.541 78.295 125.103 77.9211 124.7 77.6446L149.301 80.6915V80.5787C150.168 80.7718 151.027 80.9282 151.897 81.0301V81.0864L169.276 84.3026C172.275 85.4212 175.473 86.2594 178.473 86.4468C183.425 87.1673 189.713 94.5555 191.338 94.9105C190.542 87.1338 182.775 83.651 176.329 81.3685C168.797 77.7067 157.547 77.8401 156.355 67.7137C156.037 67.0082 155.724 66.3032 155.339 65.626L152.405 61.7327L152.518 61.6763C148.514 56.9513 142.876 53.5115 136.888 52.197C130.945 50.1456 124.271 48.1035 117.986 47.288C115.853 53.5683 113.466 42.3125 108.337 45.6517C103.841 46.1841 104.462 47.3717 101.115 44.5233ZM133.446 62.8614C135.074 62.8184 136.936 63.1179 138.806 63.7642C143.794 65.4875 147.043 69.1182 146.085 71.8893C145.128 74.6605 140.296 75.4747 135.308 73.7513C130.32 72.028 127.072 68.4538 128.029 65.6826C128.628 63.9506 130.732 62.933 133.446 62.8614Z" fill="#FF6600"/>
<defs>
<linearGradient id="paint0_linear_210_338" x1="126.57" y1="31.2629" x2="126.57" y2="146.242" gradientUnits="userSpaceOnUse">
<stop stop-color="white"/>
<stop offset="1"/>
</linearGradient>
</defs>
</svg>
