<svg width="256" height="256" viewBox="0 0 256 256" fill="none" xmlns="http://www.w3.org/2000/svg">
<path d="M196 0H60C26.8629 0 0 26.8629 0 60V196C0 229.137 26.8629 256 60 256H196C229.137 256 256 229.137 256 196V60C256 26.8629 229.137 0 196 0Z" fill="#F4F2ED"/>
<path d="M157.597 67.208L128.5 84.0072L157.597 100.806V67.208Z" fill="#4695EB"/>
<path d="M99.4028 67.208V100.806L128.5 84.0072L99.4028 67.208Z" fill="#FF004A"/>
<path d="M157.597 100.807L128.5 84.0073L99.4028 100.807L128.5 117.606L157.597 100.807Z" fill="#091313"/>
<path d="M68.7227 120.35L97.8198 137.147V103.551L68.7227 120.35Z" fill="#4695EB"/>
<path d="M97.8198 170.746L126.915 153.947L97.8198 137.147V170.746Z" fill="#FF004A"/>
<path d="M97.8198 103.551V137.147L126.915 153.946V120.35L97.8198 103.551Z" fill="#091313"/>
<path d="M159.18 170.746V137.147L130.085 153.947L159.18 170.746Z" fill="#4695EB"/>
<path d="M188.277 120.35L159.18 103.551V137.147L188.277 120.35Z" fill="#FF004A"/>
<path d="M130.085 153.946L159.18 137.147V103.551L130.085 120.35V153.946Z" fill="#091313"/>
<path d="M191.649 34H65.3514C48.1084 34 34 48.1084 34 65.3514V191.649C34 208.892 48.1084 223 65.3514 223H151.844L128.5 166.298L111.564 202.103H65.3514C59.687 202.103 54.8973 197.313 54.8973 191.649V65.3514C54.8973 59.687 59.687 54.8973 65.3514 54.8973H191.649C197.313 54.8973 202.103 59.687 202.103 65.3514V191.649C202.103 197.313 197.313 202.103 191.649 202.103H164.244L172.847 223H191.649C208.892 223 223 208.892 223 191.649V65.3514C223 48.1084 208.892 34 191.649 34Z" fill="#4695EB"/>
</svg>
