<svg width="256" height="256" viewBox="0 0 256 256" fill="none" xmlns="http://www.w3.org/2000/svg">
<path d="M196 0H60C26.8629 0 0 26.8629 0 60V196C0 229.137 26.8629 256 60 256H196C229.137 256 256 229.137 256 196V60C256 26.8629 229.137 0 196 0Z" fill="#242938"/>
<path d="M127.432 23.0053C123.744 22.9204 120.104 23.8547 116.911 25.706L49.0502 64.9618C45.9956 66.7281 43.4586 69.2693 41.6944 72.3299C39.9302 75.3905 39.001 78.8626 39 82.3973V160.95C39.0045 164.481 39.9355 167.949 41.6995 171.006C43.4635 174.062 45.9985 176.6 49.0502 178.365L116.911 217.652C119.965 219.419 123.43 220.35 126.956 220.35C130.483 220.35 133.947 219.419 137.001 217.652L204.873 178.365C207.922 176.599 210.455 174.061 212.218 171.004C213.98 167.947 214.909 164.48 214.913 160.95V82.3973C214.913 78.8637 213.985 75.3922 212.223 72.3317C210.46 69.2712 207.925 66.7294 204.873 64.9618L137.001 25.706C134.088 24.0164 130.797 23.0877 127.432 23.0053ZM127.214 67.4055C129.065 67.4482 130.876 67.9567 132.481 68.8842L169.812 90.4784C171.491 91.4506 172.886 92.8487 173.855 94.5322C174.825 96.2158 175.335 98.1254 175.335 100.069V143.278C175.331 145.219 174.819 147.124 173.85 148.803C172.881 150.483 171.488 151.878 169.812 152.848L132.481 174.463C130.802 175.434 128.897 175.945 126.959 175.945C125.02 175.945 123.116 175.434 121.437 174.463L84.1048 152.848C82.4286 151.878 81.0364 150.483 80.0673 148.803C79.0982 147.124 78.5864 145.218 78.583 143.278V100.069C78.5827 98.1255 79.0929 96.216 80.0621 94.5325C81.0314 92.849 82.4256 91.4508 84.1048 90.4784L121.437 68.8842C123.191 67.8701 125.189 67.3585 127.214 67.4055Z" fill="#63A0FF"/>
<path d="M212.218 72.3621L173.84 94.5626C174.811 96.2448 175.323 98.1534 175.325 100.097V143.295C175.324 145.237 174.813 147.144 173.844 148.826C172.874 150.508 171.481 151.904 169.803 152.876L132.483 174.481C130.808 175.443 128.911 175.949 126.981 175.948V220.35C130.498 220.35 133.953 219.426 137.002 217.669L152.099 208.931L171.365 220.142C179.982 225.157 193.855 225.157 202.472 220.142L211.087 215.129C219.704 210.115 219.704 202.039 211.087 197.025L191.927 185.875L204.873 178.382C207.923 176.616 210.456 174.077 212.218 171.021C213.981 167.964 214.91 164.497 214.914 160.967V82.4247C214.912 78.8916 213.982 75.4212 212.218 72.3621Z" fill="#3874D8"/>
<path d="M41.7139 72.3288L80.0843 94.5405C81.0521 92.8564 82.445 91.4573 84.1231 90.4837L121.449 68.8844C123.128 67.915 125.031 67.405 126.969 67.4057C128.906 67.4064 130.809 67.9176 132.487 68.8882L169.816 90.4817C171.485 91.4537 172.871 92.847 173.835 94.5228L212.198 72.3231C210.441 69.2705 207.915 66.7336 204.873 64.966L136.992 25.6959C133.941 23.9318 130.481 23.0026 126.959 23.0015C123.437 23.0004 119.976 23.9274 116.924 25.6895L49.0621 64.9609C46.01 66.7288 43.4757 69.2706 41.7139 72.331V72.3288Z" fill="#99BFFF"/>
</svg>
