<svg width="256" height="256" viewBox="0 0 256 256" fill="none" xmlns="http://www.w3.org/2000/svg">
<path d="M196 0H60C26.8629 0 0 26.8629 0 60V196C0 229.137 26.8629 256 60 256H196C229.137 256 256 229.137 256 196V60C256 26.8629 229.137 0 196 0Z" fill="#F4F2ED"/>
<path d="M127.432 28.0053C123.744 27.9204 120.104 28.8547 116.911 30.706L49.0502 69.9618C45.9956 71.7281 43.4586 74.2693 41.6944 77.3299C39.9302 80.3905 39.001 83.8626 39 87.3973V165.95C39.0045 169.481 39.9355 172.949 41.6995 176.006C43.4635 179.062 45.9985 181.6 49.0502 183.365L116.911 222.652C119.965 224.419 123.43 225.35 126.956 225.35C130.483 225.35 133.947 224.419 137.001 222.652L204.873 183.365C207.922 181.599 210.455 179.061 212.218 176.004C213.98 172.947 214.909 169.48 214.913 165.95V87.3973C214.913 83.8637 213.985 80.3922 212.223 77.3317C210.46 74.2712 207.925 71.7294 204.873 69.9618L137.001 30.706C134.088 29.0164 130.797 28.0877 127.432 28.0053ZM127.214 72.4055C129.065 72.4482 130.876 72.9567 132.481 73.8842L169.812 95.4784C171.491 96.4506 172.886 97.8487 173.855 99.5322C174.825 101.216 175.335 103.125 175.335 105.069V148.278C175.331 150.219 174.819 152.124 173.85 153.803C172.881 155.483 171.488 156.878 169.812 157.848L132.481 179.463C130.802 180.434 128.897 180.945 126.959 180.945C125.02 180.945 123.116 180.434 121.437 179.463L84.1048 157.848C82.4286 156.878 81.0364 155.483 80.0673 153.803C79.0982 152.124 78.5864 150.218 78.583 148.278V105.069C78.5827 103.126 79.0929 101.216 80.0621 99.5325C81.0314 97.849 82.4256 96.4508 84.1048 95.4784L121.437 73.8842C123.191 72.8701 125.189 72.3585 127.214 72.4055Z" fill="#63A0FF"/>
<path d="M212.218 77.3621L173.84 99.5626C174.811 101.245 175.323 103.153 175.325 105.097V148.295C175.324 150.237 174.813 152.144 173.844 153.826C172.874 155.508 171.481 156.904 169.803 157.876L132.483 179.481C130.808 180.443 128.911 180.949 126.981 180.948V225.35C130.498 225.35 133.953 224.426 137.002 222.669L152.099 213.931L171.365 225.142C179.982 230.157 193.855 230.157 202.472 225.142L211.087 220.129C219.704 215.115 219.704 207.039 211.087 202.025L191.927 190.875L204.873 183.382C207.923 181.616 210.456 179.077 212.218 176.021C213.981 172.964 214.91 169.497 214.914 165.967V87.4247C214.912 83.8916 213.982 80.4212 212.218 77.3621Z" fill="#3874D8"/>
<path d="M41.7139 77.3288L80.0843 99.5405C81.0521 97.8564 82.445 96.4573 84.1231 95.4837L121.449 73.8844C123.128 72.915 125.031 72.405 126.969 72.4057C128.906 72.4064 130.809 72.9176 132.487 73.8882L169.816 95.4817C171.485 96.4537 172.871 97.847 173.835 99.5228L212.198 77.3231C210.441 74.2705 207.915 71.7336 204.873 69.966L136.992 30.6959C133.941 28.9318 130.481 28.0026 126.959 28.0015C123.437 28.0004 119.976 28.9274 116.924 30.6895L49.0621 69.9609C46.01 71.7288 43.4757 74.2706 41.7139 77.331V77.3288Z" fill="#99BFFF"/>
</svg>
