<svg width="256" height="256" viewBox="0 0 256 256" fill="none" xmlns="http://www.w3.org/2000/svg">
<path d="M196 0H60C26.8629 0 0 26.8629 0 60V196C0 229.137 26.8629 256 60 256H196C229.137 256 256 229.137 256 196V60C256 26.8629 229.137 0 196 0Z" fill="#F4F2ED"/>
<path d="M217.18 203.455C198.511 221.692 170.771 215.21 162.311 190.786C160.804 186.435 160.376 181.874 161.171 177.25C161.447 175.642 161.563 173.987 161.557 172.354C161.532 165.919 157.684 163.176 151.613 165.198C142.492 168.237 134.88 164.773 131.733 156.154C129.208 149.235 132.764 141.279 139.642 138.458C147.16 135.374 155.153 138.289 158.444 145.292C159.558 147.661 159.922 150.229 160.523 152.736C161.641 157.391 165.23 159.293 169.517 157.323C171.856 156.247 174.053 154.858 176.299 153.585C191.321 145.069 208.022 147.886 218.542 160.718C228.931 173.389 228.456 190.32 217.18 203.455Z" fill="#3E87D0"/>
<path d="M47.8666 95.3983C42.6933 85.2176 44.7342 74.9088 52.8868 69.1196C61.397 63.0764 73.2722 64.8969 79.6894 73.2286C85.857 81.2362 84.5727 93.6164 76.9142 99.9806C68.5341 106.944 56.8757 106.039 49.7181 97.8544C49.1016 97.1494 48.5739 96.3665 47.8666 95.3983Z" fill="#3E87D0"/>
<path d="M66.2912 139.021C63.049 146.434 57.343 150.426 49.7961 150.748C42.4827 151.06 36.6722 147.508 33.156 140.895C29.2534 133.555 30.7867 124.356 36.6407 118.874C42.5316 113.357 51.7847 112.31 58.5076 116.399C65.6187 120.725 68.993 129.258 66.8169 137.421C66.6962 137.873 66.5431 138.317 66.2912 139.021Z" fill="#3E87D0"/>
<path d="M99.41 75.4721C84.3013 72.6114 79.2797 54.9936 89.1709 44.4858C94.0938 39.2561 102.24 37.5532 109.321 40.3007C115.744 42.7929 119.97 49.4243 120.501 56.437C121.356 67.7242 110.959 77.3284 99.41 75.4721Z" fill="#3E87D0"/>
<path d="M67.0762 160.704C75.0504 163.594 78.7289 169.376 78.1133 177.701C77.6849 183.495 72.6165 189.213 66.5305 190.329C60.1087 191.506 54.6555 189.684 50.8003 184.172C47.2404 179.083 46.9774 173.642 49.8329 168.22C52.9503 162.3 58.1326 159.88 64.7188 160.306C65.4181 160.351 66.1096 160.518 67.0762 160.704Z" fill="#3E87D0"/>
<path d="M140.229 69.2107C128.907 67.1703 124.98 55.0144 129.243 47.1157C132.939 40.2688 140.374 37.3638 147.829 39.9184C154.675 42.2643 158.945 49.7218 157.645 57.0607C156.36 64.3132 150.221 69.3393 142.643 69.3337C141.94 69.3331 141.238 69.2804 140.229 69.2107Z" fill="#3E87D0"/>
<path d="M84.9407 210.23C77.1753 203.378 78.5519 192.968 87.4207 189.631C92.0055 187.907 97.3132 189.381 100.405 193.237C103.48 197.074 103.841 202.807 101.256 206.777C98.4229 211.13 93.2686 213.144 88.3965 211.727C87.2825 211.403 86.2405 210.832 84.9407 210.23Z" fill="#3E87D0"/>
<path d="M161.546 67.0789C162.514 59.6893 167.111 56.1353 174.302 56.9087C179.639 57.4827 184.008 62.978 183.69 68.7157C183.375 74.3798 178.158 79.1355 172.363 79.09C166.427 79.0435 160.625 73.7398 161.546 67.0789Z" fill="#3E87D0"/>
<path d="M115.39 216.477C111.927 213.729 109.905 210.615 111.369 206.286C112.547 202.803 114.945 200.541 118.678 200.049C122.533 199.54 126.086 201.452 127.723 204.73C129.429 208.145 129.012 212.23 126.421 214.853C123.953 217.353 120.499 219.322 115.39 216.477Z" fill="#3E87D0"/>
<path d="M183.453 85.2718C186.698 78.3848 193.976 76.9214 198.219 82.0548C200.655 85.0014 201.05 88.8388 199.227 91.8361C197.153 95.2465 193.359 96.849 189.56 95.9188C186.219 95.1007 183.415 91.6939 183.107 87.9571C183.041 87.1624 183.282 86.3426 183.453 85.2718Z" fill="#3E87D0"/>
<path d="M141.942 213.15C139.296 210.986 137.845 208.627 138.898 205.318C140.072 201.632 143.354 199.49 146.646 200.314C150.433 201.261 152.703 204.734 152.06 208.597C151.487 212.035 148.296 214.321 144.529 213.921C143.729 213.836 142.955 213.509 141.942 213.15Z" fill="#3E87D0"/>
<path d="M198.783 114.794C196.3 112.969 194.565 111.004 195.166 107.905C195.972 103.75 199.542 101.283 203.332 102.223C206.915 103.111 209.165 107.089 208.144 110.732C207.004 114.802 203.622 116.357 198.783 114.794Z" fill="#3E87D0"/>
<path d="M206.588 134.74C202.855 135.258 200.554 133.723 199.776 130.449C199.114 127.66 200.174 125.31 203.027 124.259C205.925 123.191 208.339 124.065 209.947 126.704C211.741 129.651 210.615 132.446 206.588 134.74Z" fill="#3E87D0"/>
</svg>
