<svg width="256" height="256" viewBox="0 0 256 256" fill="none" xmlns="http://www.w3.org/2000/svg">
<path d="M196 0H60C26.8629 0 0 26.8629 0 60V196C0 229.137 26.8629 256 60 256H196C229.137 256 256 229.137 256 196V60C256 26.8629 229.137 0 196 0Z" fill="#242938"/>
<path d="M185.193 150.623C185.689 150.651 186.288 150.768 186.724 151.015C188.242 151.876 196.136 160.212 197.871 161.948L211.573 175.646C213.975 178.043 216.478 180.395 218.785 182.883C219.275 183.413 219.706 183.913 219.907 184.625C220.109 185.335 219.97 186.11 219.595 186.743C218.729 188.211 215.045 191.515 213.662 192.895L199.985 206.566L191.703 214.856C190.27 216.292 188.855 217.885 187.305 219.192C186.735 219.675 186.23 219.828 185.51 220C185.017 219.968 184.41 219.857 183.971 219.617C182.639 218.889 180.654 216.525 179.488 215.357L171.623 207.476L158.502 194.362C156.252 192.113 153.892 189.912 151.742 187.568C151.336 187.124 151.006 186.69 150.823 186.107C150.576 185.323 150.686 184.567 151.115 183.864C152.11 182.23 154.487 180.263 155.911 178.842L165.491 169.274L177.486 157.271C179.424 155.331 181.329 153.167 183.413 151.395C183.948 150.94 184.523 150.788 185.193 150.623Z" fill="#7934FE"/>
<path d="M54.1713 149.465L66.7268 149.469C66.7362 151.773 66.0791 155.645 67.7805 157.39C67.8559 157.468 67.935 157.542 68.0177 157.612C68.0996 157.683 68.1859 157.748 68.2751 157.81C68.3643 157.871 68.4564 157.928 68.5515 157.98C68.6465 158.032 68.7436 158.079 68.8437 158.121C68.9431 158.164 69.0446 158.201 69.1483 158.234C69.252 158.266 69.3565 158.293 69.4631 158.314C69.569 158.335 69.6756 158.352 69.7836 158.363C69.8917 158.374 69.9998 158.379 70.1078 158.379C70.2036 158.378 70.2993 158.372 70.395 158.362C70.49 158.351 70.585 158.336 70.6786 158.317C70.7729 158.297 70.8657 158.272 70.9571 158.244C71.0485 158.215 71.1384 158.182 71.2269 158.144C71.3146 158.106 71.4009 158.064 71.4851 158.018C71.5692 157.971 71.6511 157.921 71.7302 157.867C71.8092 157.813 71.8854 157.755 71.9586 157.694C72.0326 157.631 72.103 157.566 72.1697 157.498C73.8421 155.805 73.2402 151.733 73.2075 149.464C75.7205 149.479 81.2084 149.149 83.3392 149.553C83.9005 149.659 84.4807 149.899 84.8977 150.299C85.3872 150.768 85.6259 151.402 85.7535 152.054C86.1314 153.981 85.8652 159.712 85.8674 162.025C83.7845 161.999 79.6049 161.419 77.9731 162.941C77.894 163.015 77.8193 163.092 77.749 163.174C77.6779 163.255 77.6112 163.34 77.5488 163.427C77.4872 163.515 77.4292 163.607 77.3762 163.7C77.3233 163.794 77.2747 163.89 77.2312 163.989C77.1884 164.088 77.1499 164.188 77.1166 164.291C77.0832 164.394 77.0557 164.497 77.0324 164.603C77.01 164.708 76.9926 164.815 76.981 164.922C76.9694 165.029 76.9628 165.136 76.9614 165.244C76.9592 165.351 76.9628 165.458 76.9715 165.564C76.9802 165.67 76.994 165.776 77.0136 165.881C77.0324 165.986 77.0564 166.089 77.0861 166.192C77.1151 166.295 77.1492 166.396 77.1884 166.495C77.2283 166.594 77.2725 166.691 77.3211 166.786C77.3697 166.881 77.4234 166.973 77.4814 167.062C77.5394 167.152 77.6018 167.238 77.6685 167.322C77.7345 167.405 77.8048 167.485 77.8795 167.562C79.3728 169.067 83.7504 168.52 85.8572 168.535L85.8703 181.135L82.4718 181.144C80.9966 181.12 79.1995 180.885 78.0159 181.953C77.9325 182.028 77.8534 182.109 77.778 182.193C77.7033 182.277 77.633 182.365 77.5677 182.457C77.5017 182.549 77.4415 182.644 77.3856 182.741C77.3298 182.839 77.2798 182.94 77.2348 183.043C77.1898 183.147 77.1499 183.252 77.1159 183.359C77.0818 183.468 77.0542 183.576 77.0317 183.687C77.0092 183.797 76.9926 183.909 76.9817 184.021C76.9708 184.133 76.9657 184.245 76.9672 184.358C76.9672 184.466 76.973 184.574 76.9839 184.681C76.9947 184.788 77.0114 184.895 77.0324 185C77.0542 185.106 77.081 185.211 77.113 185.314C77.1449 185.417 77.1819 185.517 77.2232 185.617C77.2653 185.716 77.3117 185.813 77.3632 185.908C77.4147 186.003 77.4712 186.095 77.5314 186.184C77.5923 186.273 77.6569 186.36 77.7258 186.442C77.7954 186.525 77.8679 186.604 77.9455 186.679C79.4236 188.111 83.8222 187.587 85.8616 187.578C85.8369 190.178 86.28 196.322 85.5352 198.363C85.2313 199.195 84.6946 199.673 83.8758 200.001C82.8852 200.397 42.4368 200.304 38.2898 200.176C37.8419 200.163 37.409 200.157 36.9875 199.988C36.2107 199.674 35.628 199.098 35.3183 198.316C34.8888 197.232 34.9956 156.914 35.131 152.68C35.1478 152.151 35.1585 151.623 35.3798 151.132C35.7922 150.217 36.6102 149.784 37.5164 149.483C40.8888 149.381 44.2909 149.469 47.6666 149.468C47.6739 151.555 47.0574 155.687 48.5703 157.305C48.645 157.384 48.724 157.459 48.8067 157.53C48.8894 157.601 48.975 157.667 49.0642 157.73C49.1534 157.792 49.2455 157.85 49.3405 157.903C49.4355 157.956 49.5334 158.005 49.6328 158.048C49.7328 158.092 49.8351 158.129 49.9381 158.163C50.0418 158.196 50.147 158.224 50.2536 158.247C50.3602 158.269 50.4675 158.287 50.5756 158.298C50.6844 158.31 50.7924 158.317 50.9012 158.318C51.7468 158.332 52.62 157.997 53.2184 157.395C54.7037 155.901 54.1866 151.504 54.1713 149.465Z" fill="#7934FE"/>
<path d="M54.1767 92.2315L66.7321 92.2344C66.7416 94.4547 66.1425 98.5008 67.7533 100.144C67.8302 100.223 67.9099 100.297 67.9941 100.368C68.0782 100.439 68.1652 100.505 68.2551 100.567C68.3458 100.629 68.4394 100.686 68.5351 100.739C68.6315 100.792 68.7302 100.84 68.831 100.883C68.9318 100.926 69.0348 100.964 69.1392 100.997C69.2437 101.03 69.3495 101.058 69.4569 101.08C69.5642 101.103 69.6723 101.119 69.7818 101.131C69.8906 101.143 70.0001 101.149 70.1096 101.15C70.9066 101.153 71.658 100.853 72.2121 100.276C73.8627 98.5595 73.2535 94.4634 73.226 92.2308C75.5685 92.238 81.8034 91.8558 83.7369 92.4629C84.4941 92.7008 85.1272 93.0838 85.4746 93.82C85.7292 94.3612 85.83 94.9647 85.8539 95.558C85.9504 98.0264 85.859 100.538 85.859 103.012V117.725L85.8524 130.904C85.8648 133.666 85.9728 136.454 85.8677 139.211C85.8423 139.882 85.7988 140.63 85.5435 141.255C85.1642 142.183 84.3715 142.611 83.4773 142.945C80.0665 143.003 76.6462 142.951 73.2347 142.951C73.2013 140.765 73.8975 136.905 72.3767 135.17C71.7516 134.457 70.9886 134.151 70.0494 134.119C69.2125 134.092 68.4169 134.312 67.8207 134.922C66.1476 136.634 66.722 140.661 66.7169 142.954L54.1767 142.951C54.1687 140.737 54.807 136.691 53.1665 134.987C52.6051 134.404 51.8436 134.144 51.0466 134.127C50.1683 134.108 49.3408 134.331 48.7142 134.974C47.0744 136.654 47.6503 140.747 47.6713 142.955C45.2783 142.947 38.4347 143.416 36.5918 142.538C35.9252 142.22 35.4711 141.652 35.2614 140.943C34.8441 139.53 35.1141 125.785 35.1152 123.256L35.1082 105.134C35.1056 101.902 34.9991 98.6371 35.1339 95.41C35.1603 94.7797 35.2028 94.2045 35.5348 93.6489C36.0212 92.8357 36.8125 92.4955 37.6873 92.2511C41.0039 92.1416 44.3542 92.233 47.6742 92.2337C47.6495 94.5251 47.1005 98.4696 48.7367 100.302C49.2393 100.864 49.9145 101.148 50.6658 101.144C51.6224 101.14 52.6066 100.818 53.2687 100.11C54.7083 98.5697 54.1927 94.2901 54.1767 92.2315Z" fill="#DC27DC"/>
<path d="M37.8207 35.0706L68.3756 35.0703L78.0177 35.052C79.7401 35.0483 81.575 34.9131 83.28 35.1183C83.932 35.1968 84.4803 35.4679 84.9503 35.9286C85.4072 36.3769 85.6081 36.9254 85.7292 37.5434C86.1643 39.7654 85.8662 45.0126 85.8677 47.6115C83.6492 47.6332 79.6495 46.9847 77.8951 48.5733C77.2504 49.1572 76.9719 49.9565 76.9697 50.8146C76.9668 51.6959 77.2061 52.517 77.8632 53.1336C79.5624 54.7257 83.626 54.1396 85.8619 54.1244L85.8706 66.6651C83.7304 66.7173 79.7648 66.087 78.096 67.5362C78.0133 67.6073 77.9343 67.682 77.8588 67.7611C77.7834 67.8402 77.7123 67.9221 77.6449 68.0084C77.5774 68.094 77.5151 68.1833 77.4563 68.2754C77.3983 68.3675 77.3446 68.4625 77.2961 68.5597C77.2467 68.6569 77.2025 68.757 77.1633 68.8586C77.1242 68.9601 77.0901 69.0638 77.0611 69.169C77.0321 69.2742 77.0089 69.3808 76.99 69.4882C76.9719 69.5955 76.9588 69.7036 76.9508 69.8124C76.8935 70.648 77.1619 71.4814 77.745 72.0893C79.4116 73.828 83.5723 73.1846 85.8633 73.1933C85.8097 75.7806 86.4842 82.7934 85.0866 84.6974C84.5427 85.438 83.8211 85.6447 82.9522 85.7818C79.7213 85.8986 76.4504 85.8079 73.2151 85.8181C73.2064 83.6573 73.8555 79.5873 72.3107 77.8609C71.7799 77.2676 71.0379 76.9644 70.2496 76.926C69.3662 76.8832 68.501 77.0732 67.8447 77.697C66.1128 79.3443 66.7075 83.5376 66.7155 85.8094L54.1695 85.8166C54.1492 83.5833 54.8208 79.4915 53.1542 77.7695C52.5986 77.1951 51.8299 76.9368 51.043 76.9202C50.1698 76.9013 49.3452 77.1189 48.7171 77.7536C47.0541 79.4371 47.6467 83.5796 47.667 85.8101C45.491 85.8036 38.2379 86.1837 36.5945 85.3618C35.9555 85.0427 35.4217 84.334 35.2489 83.6435C34.7964 81.8344 35.0981 79.1151 35.103 77.1922L35.1177 65.1194L35.1137 46.9405C35.1121 44.086 34.9313 41.1347 35.107 38.2911C35.1506 37.5853 35.2676 36.82 35.6789 36.2247C36.1946 35.4784 36.9631 35.2106 37.8207 35.0706Z" fill="#7934FE"/>
<path d="M94.7161 92.2682C98.1393 92.1384 101.594 92.2268 105.021 92.2283H123.44L134.684 92.2181C136.566 92.2174 138.61 92.0694 140.477 92.3037C140.636 92.3248 140.792 92.3581 140.945 92.4046C141.098 92.451 141.246 92.5097 141.391 92.5808C141.534 92.6512 141.671 92.7324 141.802 92.8253C141.932 92.9181 142.054 93.0211 142.168 93.1335C142.641 93.6014 142.834 94.2738 142.938 94.9136C143.127 96.0676 143.021 97.321 143.017 98.491L143.001 104.852C140.867 104.847 136.862 104.25 135.157 105.736C134.498 106.31 134.198 107.112 134.176 107.974C134.153 108.853 134.368 109.685 135.017 110.312C136.718 111.954 140.764 111.374 143.001 111.358L143.001 123.904C140.789 123.951 136.95 123.29 135.175 124.787C134.502 125.353 134.206 126.152 134.174 127.016C134.144 127.866 134.363 128.714 134.971 129.333C136.619 131.013 140.746 130.42 143 130.431C142.977 132.813 143.443 139.45 142.637 141.315C142.24 142.235 141.61 142.577 140.718 142.949L130.443 142.954C130.442 140.775 131.061 136.895 129.568 135.128C129.001 134.457 128.204 134.16 127.34 134.128C126.493 134.097 125.647 134.315 125.027 134.918C123.347 136.553 123.94 140.715 123.934 142.955L111.4 142.954C111.389 140.74 112.015 136.704 110.379 134.996C109.821 134.414 109.067 134.152 108.272 134.131C107.405 134.107 106.567 134.319 105.937 134.942C104.271 136.591 104.873 140.755 104.895 142.955C102.591 142.947 95.709 143.357 93.9481 142.635C93.2859 142.365 92.8131 141.769 92.5389 141.125C92.2858 140.53 92.288 139.804 92.2699 139.163C92.1886 136.302 92.275 133.414 92.2808 130.551L92.2815 115.007L92.2909 101.194C92.2945 99.3622 92.1742 97.4973 92.2539 95.6708C92.2793 95.0891 92.3685 94.5117 92.6071 93.9764C93.043 92.9994 93.7537 92.6222 94.7161 92.2682Z" fill="#26A2FD"/>
<path d="M187.605 92.2284C190.042 92.24 196.819 91.7714 198.697 92.6789C199.396 93.0169 199.851 93.5602 200.079 94.3058C200.502 95.684 200.226 109.225 200.225 111.791L200.232 130.283C200.234 133.49 200.336 136.735 200.209 139.936C200.188 140.496 200.103 140.972 199.831 141.469C199.388 142.275 198.653 142.676 197.807 142.95L166.562 142.953L156.848 142.967C155.244 142.969 153.458 143.116 151.872 142.901C151.329 142.827 150.769 142.501 150.377 142.126C149.892 141.662 149.687 140.989 149.574 140.345C149.201 138.222 149.492 132.827 149.5 130.405C151.588 130.41 155.518 130.973 157.156 129.615C157.247 129.539 157.335 129.459 157.418 129.375C157.501 129.29 157.58 129.201 157.654 129.108C157.728 129.016 157.797 128.918 157.86 128.818C157.924 128.718 157.983 128.615 158.035 128.509C158.088 128.403 158.135 128.294 158.176 128.182C158.218 128.071 158.253 127.958 158.283 127.843C158.312 127.728 158.336 127.611 158.353 127.494C158.37 127.376 158.381 127.259 158.386 127.14C158.416 126.299 158.118 125.508 157.508 124.924C155.872 123.353 151.709 123.896 149.505 123.907L149.5 111.357C151.585 111.373 155.809 111.888 157.358 110.412C157.436 110.337 157.511 110.258 157.582 110.174C157.652 110.092 157.718 110.005 157.78 109.916C157.843 109.826 157.9 109.734 157.952 109.638C158.005 109.543 158.053 109.445 158.096 109.345C158.139 109.245 158.177 109.143 158.21 109.039C158.242 108.936 158.27 108.83 158.292 108.724C158.315 108.617 158.332 108.51 158.343 108.401C158.355 108.293 158.361 108.184 158.361 108.075C158.363 107.971 158.36 107.866 158.351 107.762C158.342 107.657 158.329 107.554 158.31 107.451C158.291 107.348 158.266 107.246 158.237 107.146C158.208 107.045 158.174 106.947 158.136 106.849C158.097 106.753 158.053 106.658 158.004 106.565C157.956 106.472 157.903 106.382 157.846 106.295C157.788 106.207 157.727 106.123 157.661 106.041C157.595 105.96 157.526 105.882 157.453 105.808C155.939 104.306 151.552 104.833 149.505 104.854C149.509 102.471 149.045 95.6383 149.93 93.8169C150.375 92.9023 151.029 92.578 151.956 92.2654C155.314 92.1305 158.714 92.2299 162.075 92.2335C162.043 94.4901 161.512 98.2743 163.004 100.144C163.487 100.75 164.133 101.105 164.911 101.141C165.847 101.184 166.858 100.88 167.536 100.22C169.108 98.6913 168.544 94.3798 168.548 92.2299L181.175 92.2335C181.158 94.2036 180.684 98.5194 181.959 100.016C182.029 100.097 182.104 100.174 182.181 100.247C182.26 100.32 182.341 100.39 182.426 100.455C182.51 100.521 182.599 100.581 182.69 100.637C182.781 100.694 182.875 100.746 182.971 100.792C183.067 100.839 183.165 100.88 183.266 100.917C183.366 100.954 183.469 100.986 183.573 101.012C183.676 101.039 183.781 101.061 183.887 101.077C183.993 101.093 184.099 101.104 184.206 101.109C184.32 101.115 184.434 101.115 184.548 101.109C184.662 101.103 184.775 101.092 184.888 101.073C185 101.055 185.112 101.032 185.222 101.002C185.332 100.973 185.44 100.937 185.547 100.896C185.653 100.855 185.757 100.809 185.859 100.756C185.96 100.704 186.059 100.648 186.154 100.585C186.25 100.522 186.342 100.455 186.43 100.384C186.519 100.311 186.603 100.234 186.684 100.154C188.172 98.658 187.618 94.3044 187.605 92.2284Z" fill="#7934FE"/>
<path d="M94.9598 35.0675C105.047 34.9273 115.154 35.0664 125.244 35.0619L135.299 35.046C136.983 35.0432 138.809 34.9088 140.48 35.1129C141.145 35.1939 141.726 35.4821 142.201 35.953C142.655 36.4041 142.853 37.1011 142.945 37.7176C143.117 38.877 143.03 40.122 143.026 41.2934L143 47.6094C140.785 47.6275 136.75 46.9841 135.041 48.6328C134.461 49.1935 134.199 49.9472 134.181 50.7429C134.16 51.6184 134.377 52.4497 135.013 53.08C136.684 54.7353 140.779 54.1376 143.006 54.1223L143.002 66.6594C140.758 66.7305 137.012 66.0486 135.187 67.5661C134.538 68.1057 134.219 68.8804 134.184 69.7131C134.147 70.5915 134.345 71.4612 134.967 72.1111C136.589 73.8041 140.767 73.1832 143.003 73.1956C143.001 75.3027 143.013 77.4106 143.037 79.517C143.044 80.6609 143.147 81.9013 142.97 83.0299C142.874 83.6421 142.647 84.2202 142.267 84.7135C141.647 85.5208 140.892 85.6818 139.926 85.7863C130.661 86.0264 121.331 85.7906 112.059 85.7928L101.285 85.8066C99.1655 85.8095 96.981 85.9168 94.8727 85.7087C94.2367 85.6463 93.6318 85.3467 93.172 84.9042C92.6796 84.4313 92.4751 83.7393 92.359 83.0843C91.9819 80.9576 92.2706 75.5958 92.2793 73.1702C94.2041 73.1883 98.4308 73.6547 99.8987 72.4876C99.9901 72.4151 100.077 72.3375 100.16 72.2562C100.244 72.1743 100.323 72.0887 100.397 71.9987C100.472 71.9088 100.541 71.8152 100.606 71.7187C100.671 71.6215 100.731 71.5214 100.785 71.4177C100.839 71.3147 100.888 71.2088 100.931 71.1007C100.975 70.9919 101.013 70.8817 101.045 70.77C101.076 70.6575 101.103 70.5437 101.124 70.429C101.144 70.3144 101.158 70.1984 101.166 70.0823C101.224 69.2279 100.946 68.3596 100.343 67.7409C98.7274 66.0827 94.505 66.6695 92.2814 66.6499L92.2771 54.1194C94.3448 54.1042 97.773 54.6598 99.5658 53.6131C100.655 52.9777 100.975 52.0631 101.275 50.917C101.092 50.0393 100.878 49.2392 100.211 48.598C98.5932 47.0421 94.4695 47.597 92.2822 47.613C92.2785 45.1534 91.7411 38.0517 92.9327 36.2488C93.4295 35.4968 94.1112 35.2404 94.9598 35.0675Z" fill="#DC27DC"/>
<path d="M111.396 149.464L123.948 149.469C123.952 151.643 123.311 155.698 124.865 157.345C125.45 157.963 126.285 158.309 127.132 158.325C127.238 158.327 127.345 158.324 127.451 158.315C127.557 158.306 127.663 158.293 127.767 158.274C127.872 158.255 127.976 158.231 128.078 158.202C128.181 158.173 128.281 158.139 128.381 158.1C128.479 158.061 128.577 158.016 128.671 157.968C128.766 157.92 128.858 157.866 128.948 157.809C129.037 157.752 129.124 157.689 129.207 157.623C129.291 157.557 129.371 157.487 129.448 157.413C131.069 155.836 130.455 151.633 130.421 149.465C132.754 149.474 139.632 149.021 141.486 149.86C142.151 150.16 142.664 150.814 142.876 151.511C143.262 152.777 142.998 158.428 142.998 160.064L143.003 181.738L143.004 192.118C143.003 193.898 143.081 195.72 142.976 197.497C142.952 197.922 142.856 198.308 142.646 198.682C142.178 199.515 141.392 199.911 140.515 200.186L109.614 200.187L99.9773 200.204C98.2679 200.207 96.4396 200.342 94.749 200.125C94.1405 200.046 93.5625 199.71 93.1325 199.281C92.6465 198.795 92.4515 198.099 92.3441 197.438C91.9779 195.186 92.2643 190.087 92.2723 187.576C94.245 187.559 97.9357 188.063 99.5806 187.094C100.686 186.442 100.99 185.5 101.283 184.334C101.063 183.513 100.87 182.774 100.246 182.15C98.6769 180.575 94.4488 181.136 92.2781 181.143L92.2716 168.518C94.2537 168.513 97.7805 168.982 99.4464 168.092C100.599 167.477 100.957 166.515 101.285 165.335C101.09 164.468 100.878 163.675 100.215 163.04C98.4913 161.389 94.5532 161.996 92.2767 162.043C92.2817 159.632 91.8038 152.885 92.7365 151.007C93.1854 150.103 93.8381 149.771 94.7671 149.482C98.1337 149.385 101.526 149.468 104.896 149.469C104.901 151.48 104.346 155.72 105.731 157.273C106.303 157.915 107.159 158.29 108.015 158.315C108.887 158.341 109.76 158.032 110.388 157.417C112.003 155.837 111.414 151.581 111.396 149.464Z" fill="#7934FE"/>
<path d="M152.154 35.0584L182.384 35.0493L191.915 35.0459C193.763 35.0459 195.662 34.9498 197.5 35.1315C198.214 35.202 198.691 35.3035 199.242 35.7939C199.895 36.3753 200.142 37.1503 200.208 37.996C200.397 40.4234 200.228 42.9684 200.225 45.4091L200.218 60.1761L200.234 74.9015C200.241 77.4425 200.398 80.0944 200.214 82.6251C200.154 83.4375 200.026 84.1701 199.459 84.791C199.079 85.2067 198.575 85.5157 198.024 85.6382C195.963 86.0959 190.029 85.7732 187.611 85.8029C187.581 83.6087 188.25 79.6236 186.731 77.89C186.15 77.227 185.35 76.9304 184.481 76.9202C183.609 76.91 182.782 77.1364 182.163 77.7783C180.582 79.4161 181.164 83.6043 181.168 85.7978L179.718 85.7761C175.997 85.7521 172.277 85.7637 168.557 85.8109C168.494 83.777 169.1 79.4626 167.745 77.9488C167.171 77.3075 166.294 76.9362 165.439 76.9188C164.562 76.9006 163.697 77.2074 163.068 77.8269C161.453 79.4176 162.033 83.6051 162.061 85.7957C159.536 85.7507 153.989 86.1083 151.888 85.6528C151.319 85.5294 150.75 85.2792 150.343 84.8534C149.891 84.3819 149.668 83.761 149.561 83.1278C149.366 81.9679 149.49 80.6812 149.493 79.5032L149.506 73.1795C151.621 73.1309 155.524 73.8222 157.211 72.4302C157.293 72.3613 157.372 72.2881 157.446 72.2112C157.521 72.1343 157.592 72.0538 157.659 71.9697C157.726 71.8855 157.789 71.7977 157.847 71.7078C157.905 71.6171 157.958 71.5243 158.007 71.4285C158.056 71.3328 158.1 71.2349 158.138 71.134C158.177 71.0339 158.211 70.9324 158.24 70.8287C158.269 70.7249 158.293 70.6205 158.311 70.5146C158.329 70.4087 158.341 70.3021 158.349 70.1947C158.416 69.2706 158.108 68.3378 157.458 67.6697C155.971 66.1429 151.583 66.6637 149.509 66.6731L149.506 54.1237C151.639 54.1078 155.775 54.7265 157.378 53.2214C157.995 52.6411 158.342 51.8084 158.36 50.9641C158.362 50.856 158.36 50.7479 158.351 50.6399C158.343 50.5318 158.33 50.4244 158.311 50.3178C158.292 50.2112 158.268 50.1053 158.239 50.0015C158.209 49.8971 158.174 49.7948 158.135 49.694C158.095 49.5932 158.05 49.4945 158.001 49.398C157.952 49.3016 157.897 49.208 157.839 49.1166C157.78 49.0259 157.717 48.9382 157.649 48.8533C157.582 48.7684 157.51 48.6879 157.435 48.6103C155.845 46.9862 151.623 47.5948 149.509 47.6195C149.508 45.2088 148.975 38.1564 150.075 36.3467C150.569 35.5349 151.264 35.2561 152.154 35.0584Z" fill="#26A2FD"/>
</svg>
