<svg width="256" height="256" viewBox="0 0 256 256" fill="none" xmlns="http://www.w3.org/2000/svg">
<rect width="256" height="256" rx="60" fill="#F4F2ED"/>
<path d="M124.44 217C109.333 217 94.8453 210.999 84.1632 200.317C73.4811 189.635 67.48 175.147 67.48 160.04C67.48 144.933 73.4811 130.445 84.1632 119.763C94.8453 109.081 109.333 103.08 124.44 103.08V217ZM124.44 39H67.48V95.96H124.44V39ZM160.04 95.96C167.593 95.96 174.837 92.9594 180.178 87.6184C185.519 82.2774 188.52 75.0334 188.52 67.48C188.52 59.9266 185.519 52.6826 180.178 47.3416C174.837 42.0006 167.593 39 160.04 39C152.487 39 145.243 42.0006 139.902 47.3416C134.561 52.6826 131.56 59.9266 131.56 67.48C131.56 75.0334 134.561 82.2774 139.902 87.6184C145.243 92.9594 152.487 95.96 160.04 95.96Z" fill="#131313"/>
</svg>
