<svg width="256" height="256" viewBox="0 0 256 256" fill="none" xmlns="http://www.w3.org/2000/svg" id="railway">
<style>
#railway {
    rect {fill: #242938}
    path {fill: #F1F1F1}
    
    @media (prefers-color-scheme: light) {
        rect {fill: #F4F2ED}
        path {fill: #1F1F1F}
    }
}
</style>
<rect width="256" height="256" rx="60" fill="#242938"/>
<path d="M28.9289 113.581C28.4525 116.92 28.1424 120.281 28 123.651H179.914C179.383 122.615 178.671 121.68 177.952 120.766C151.981 87.2131 138.011 90.1223 118.026 89.2699C111.363 88.9959 106.845 88.8857 80.3238 88.8857C66.1291 88.8857 50.6973 88.9219 35.6699 88.9619C33.7246 94.2127 31.8484 99.3021 30.935 103.442H108.781V113.581H28.9289ZM181.111 133.8H28.0779C28.2381 136.505 28.4904 139.174 28.8549 141.807H170.142C176.44 141.807 179.966 138.234 181.111 133.8ZM36.7924 169.466C36.7924 169.466 60.215 226.978 127.895 228C168.346 228 203.104 203.975 218.892 169.466H36.7924Z" fill="#F1F1F1"/>
<path d="M127.893 28C90.4908 28 57.9436 48.5391 40.7559 78.9008C54.1877 78.8727 80.3465 78.8566 80.3465 78.8566H80.3525V78.8467C111.272 78.8467 112.421 78.9848 118.462 79.2369L122.202 79.3748C135.229 79.8092 151.241 81.2076 163.84 90.74C170.679 95.9102 180.553 107.321 186.439 115.451C191.881 122.97 193.446 131.614 189.747 139.896C186.341 147.507 179.014 152.047 170.141 152.047H31.2598C31.2598 152.047 32.0865 155.552 33.3262 159.421H222.903C226.269 149.301 227.99 138.707 228 128.043C228.002 72.7959 183.182 28 127.893 28Z" fill="#F1F1F1"/>
</svg>
