<svg width="256" height="256" viewBox="0 0 256 256" fill="none" xmlns="http://www.w3.org/2000/svg">
<path d="M196 0H60C26.8629 0 0 26.8629 0 60V196C0 229.137 26.8629 256 60 256H196C229.137 256 256 229.137 256 196V60C256 26.8629 229.137 0 196 0Z" fill="#242938"/>
<path d="M228.59 101.832L226.364 88.7919C225.728 84.6573 223.979 81.1588 222.707 81.1588C221.434 81.1588 220.321 84.6573 220.321 88.9509V92.4494C220.321 96.5839 216.823 100.241 212.529 100.241H209.031C208.713 100.241 208.554 100.241 208.395 100.241V109.624C208.713 109.624 208.872 109.624 209.031 109.624H221.911C226.364 109.306 229.226 105.966 228.59 101.832Z" fill="#2453FF"/>
<path d="M197.739 90.7003H177.066C176.907 90.7003 176.748 90.7003 176.589 90.7003H155.121C154.803 90.7003 154.644 90.7003 154.485 90.8594V88.7921C154.485 84.6575 153.372 81 152.1 81C150.828 81 149.237 84.4985 148.442 88.6331L146.216 101.673C145.58 105.807 148.442 109.306 152.736 109.306H165.617C166.889 109.306 168.161 109.147 169.274 108.829C168.797 111.055 167.048 112.645 164.662 112.645H146.534C143.672 112.645 141.445 109.942 141.922 107.08L143.831 96.1071C144.308 93.2447 142.081 90.5413 139.219 90.5413H49.3716C47.4633 90.5413 45.8731 91.6545 45.078 93.4037L28.2217 119.324C27.9036 119.801 27.9036 120.278 28.3807 120.755L31.5611 124.572C32.0382 125.049 32.6743 125.049 33.1513 124.731L44.6009 115.667V170.529C44.6009 173.233 46.6682 175.3 49.3716 175.3H74.8151C77.5185 175.3 79.5857 173.233 79.5857 170.529V151.447C79.5857 148.743 81.653 146.676 84.3564 146.676H147.806C150.51 146.676 152.577 148.743 152.577 151.447V170.529C152.577 173.233 154.644 175.3 157.347 175.3H182.791C185.494 175.3 187.562 173.233 187.562 170.529V150.016H174.045C169.91 150.016 166.253 146.517 166.253 142.223V129.025C166.253 126.48 167.525 124.254 169.274 122.823V138.566C169.274 142.701 172.773 146.358 177.066 146.358H197.898C202.033 146.358 205.69 142.86 205.69 138.566V98.6514C205.531 94.1988 202.033 90.7003 197.739 90.7003Z" fill="#2453FF"/>
</svg>
