<svg xmlns="http://www.w3.org/2000/svg" width="256" height="256" fill="none" viewBox="0 0 256 256" id="ratatui">
<style>
    #ratatui .bg-rect { fill: #242938; }
    #ratatui .bg-path { fill: #242938; }
    #ratatui .logo { fill: white; }

    @media (prefers-color-scheme: light) {
        #ratatui .bg-rect { fill: #F4F2ED; }
        #ratatui .bg-path { fill: #F4F2ED; }
        #ratatui .logo { fill: black; }
    }
</style>
<rect class="bg-rect" width="256" height="256" rx="60"/>
<path class="bg-path" d="M196 0H60C26.8629 0 0 26.8629 0 60V196C0 229.137 26.8629 256 60 256H196C229.137 256 256 229.137 256 196V60C256 26.8629 229.137 0 196 0Z"/>
<path class="logo" d="M99.2 142.4H102.8V146H106.4V149.6H110V153.2H113.6V156.8H117.2V160.4H120.8V164H124.4V167.6H128V171.2H131.6V174.8H135.2V178.4H138.8V182H142.4V185.6H146V189.2H149.6V192.8H153.2V196.4H156.8V200H160.4V203.6H164V207.2H167.6V210.8H171.2V214.4H174.8V218H56V214.4H52.4V210.8H48.8V207.2H45.2V203.6H41.6V200H38V192.8H41.6V189.2H45.2V185.6H48.8V182H52.4V178.4H56V174.8H59.6V171.2H63.2V167.6H66.8V164H70.4V160.4H74V156.8H77.6V153.2H81.2V149.6H84.8V146H88.4V142.4H92V138.8H99.2V142.4ZM92 192.8H95.6V196.4H99.2V200H102.8V192.8H99.2V189.2H95.6V185.6H92V192.8ZM92 171.2H81.2V174.8H84.8V178.4H99.2V164H95.6V160.4H92V171.2ZM218 95.6H214.4V110H210.8V113.6H207.2V117.2H203.6V120.8H196.4V124.4H192.8V128H189.2V131.6H185.6V135.2H178.4V167.6H196.4V171.2H200V203.6H196.4V207.2H192.8V214.4H189.2V218H185.6V214.4H182V210.8H178.4V207.2H182V203.6H185.6V200H189.2V182H185.6V185.6H174.8V189.2H171.2V200H167.6V196.4H164V192.8H160.4V189.2H156.8V185.6H153.2V182H149.6V178.4H146V174.8H142.4V171.2H138.8V167.6H135.2V164H131.6V160.4H128V156.8H124.4V149.6H128V142.4H131.6V138.8H124.4V142.4H110V138.8H106.4V135.2H102.8V131.6H99.2V124.4H102.8V120.8H106.4V117.2H113.6V113.6H138.8V110H142.4V106.4H146V102.8H149.6V99.2H153.2V95.6H156.8V92H171.2V88.4H182V84.8H218V95.6ZM156.8 102.8H153.2V110H156.8V113.6H164V110H167.6V102.8H164V99.2H156.8V102.8ZM142.4 41.6H146V74H149.6V77.6H153.2V84.8H156.8V92H153.2V95.6H149.6V99.2H146V102.8H142.4V106.4H138.8V110H128V106.4H124.4V102.8H117.2V99.2H113.6V95.6H110V92H88.4V88.4H84.8V70.4H88.4V66.8H92V63.2H95.6V59.6H99.2V56H102.8V52.4H106.4V48.8H110V45.2H113.6V41.6H120.8V38H142.4V41.6Z"/>
</svg>
