<svg width="256" height="256" viewBox="0 0 256 256" fill="none" id="ray" xmlns="http://www.w3.org/2000/svg" xmlns:xlink="http://www.w3.org/1999/xlink">
<style>
#ray {
    rect {fill: #242938}
    
    @media (prefers-color-scheme: light) {
        rect {fill: #F4F2ED}
    }
}  
</style>
<rect width="256" height="256" fill="#242938" rx="60"/>
<path d="M100.155 121.276C101.452 116.465 104.071 112.071 107.742 108.543C110.417 105.99 113.596 103.966 117.095 102.586C120.595 101.207 124.347 100.5 128.134 100.506C136.102 100.506 143.307 103.577 148.528 108.543C152.199 112.07 154.817 116.465 156.114 121.276H177.357C178.036 118.665 179.123 116.168 180.583 113.867L142.93 78.0189C138.452 80.5512 133.343 81.8933 128.134 81.9047C124.347 81.9107 120.595 81.2035 117.095 79.8242C113.596 78.4448 110.417 76.4207 107.742 73.8679C105.06 71.3207 102.934 68.2942 101.485 64.9623C100.036 61.6304 99.294 58.0586 99.2999 54.4524C99.2999 46.8669 102.526 40.0026 107.742 35.037C110.417 32.4842 113.596 30.4599 117.095 29.0806C120.595 27.7013 124.347 26.9943 128.134 27C136.102 27 143.307 30.0715 148.528 35.037C151.209 37.584 153.335 40.6105 154.784 43.9425C156.233 47.2745 156.975 50.8463 156.969 54.4524C156.97 59.4129 155.56 64.2808 152.888 68.5393L190.541 104.387C195.02 101.855 200.132 100.515 205.342 100.506C213.309 100.506 220.514 103.577 225.729 108.543C228.411 111.09 230.536 114.115 231.985 117.446C233.434 120.778 234.177 124.348 234.172 127.953C234.177 131.559 233.435 135.132 231.986 138.463C230.537 141.795 228.411 144.822 225.729 147.369C223.054 149.922 219.876 151.946 216.376 153.325C212.876 154.704 209.125 155.412 205.337 155.406C200.128 155.407 195.018 154.067 190.545 151.524L152.888 187.465C155.449 191.617 156.969 196.401 156.969 201.548C156.975 205.154 156.233 208.726 154.784 212.057C153.335 215.389 151.209 218.416 148.528 220.963C145.852 223.516 142.674 225.54 139.174 226.919C135.674 228.299 131.922 229.006 128.134 229C124.347 229.006 120.595 228.299 117.095 226.919C113.596 225.54 110.417 223.516 107.742 220.963C105.06 218.416 102.934 215.389 101.485 212.057C100.036 208.726 99.294 205.154 99.2999 201.548C99.2999 193.962 102.526 187.102 107.742 182.137C110.417 179.584 113.596 177.559 117.095 176.18C120.595 174.801 124.347 174.095 128.134 174.1C133.344 174.098 138.457 175.438 142.93 177.981L180.583 142.133C179.123 139.834 178.036 137.338 177.357 134.729H156.114C154.817 139.539 152.199 143.934 148.528 147.461C145.852 150.015 142.674 152.039 139.174 153.418C135.674 154.798 131.922 155.504 128.134 155.499C124.347 155.504 120.595 154.798 117.095 153.418C113.596 152.039 110.417 150.015 107.742 147.461C104.071 143.934 101.452 139.539 100.155 134.729H78.907C77.6095 139.539 74.9913 143.934 71.3205 147.461C68.6454 150.015 65.4666 152.039 61.9668 153.418C58.4672 154.798 54.7153 155.504 50.9276 155.499C47.1399 155.504 43.3884 154.798 39.8886 153.418C36.3889 152.039 33.2099 150.015 30.5347 147.461C27.8226 144.932 25.6702 141.91 24.2044 138.577C22.7386 135.242 21.9891 131.661 22.0001 128.047C22.0001 120.461 25.2262 113.596 30.4418 108.631C33.1171 106.078 36.296 104.054 39.7957 102.675C43.2955 101.296 47.0471 100.588 50.8348 100.594C58.8024 100.594 66.0075 103.666 71.2278 108.631C74.8982 112.16 77.5164 116.554 78.8139 121.364H100.155V121.276ZM117.704 211.484C120.357 214.01 124.058 215.635 128.134 215.635C132.212 215.635 135.906 214.099 138.565 211.484C141.22 208.956 142.93 205.434 142.93 201.548C142.93 197.666 141.318 194.148 138.565 191.617C135.804 188.971 132.053 187.477 128.134 187.465C124.053 187.465 120.357 189.001 117.699 191.617C116.322 192.919 115.228 194.467 114.48 196.171C113.732 197.876 113.344 199.704 113.338 201.552C113.338 205.434 114.951 208.951 117.699 211.484H117.704ZM215.773 137.978C218.427 135.45 220.133 131.928 220.133 128.047C220.133 124.16 218.52 120.643 215.773 118.111C214.405 116.8 212.779 115.759 210.989 115.047C209.198 114.334 207.277 113.965 205.337 113.959C201.26 113.959 197.565 115.496 194.906 118.111C193.529 119.413 192.435 120.961 191.687 122.665C190.939 124.37 190.55 126.199 190.545 128.047C190.545 131.928 192.158 135.446 194.906 137.978C197.56 140.504 201.26 142.133 205.342 142.133C209.251 142.078 212.988 140.589 215.773 137.978ZM138.565 44.5167C135.804 41.8708 132.053 40.3776 128.134 40.3655C124.053 40.3655 120.357 41.9013 117.699 44.5167C116.322 45.819 115.228 47.3667 114.48 49.0715C113.732 50.7763 113.344 52.6048 113.338 54.4524C113.338 58.3337 114.951 61.8519 117.699 64.3836C120.357 66.9105 124.053 68.5393 128.134 68.5393C132.212 68.5393 135.906 67.0036 138.565 64.3836C141.22 61.8566 142.93 58.3337 142.93 54.4524C142.874 50.7288 141.311 47.1696 138.565 44.5167ZM40.3988 118.111C39.0221 119.413 37.9285 120.961 37.1804 122.665C36.4322 124.37 36.0443 126.199 36.0386 128.047C36.0386 131.928 37.6517 135.446 40.3988 137.978C43.0579 140.504 46.7533 142.133 50.8348 142.133C54.9114 142.133 58.6068 140.597 61.2659 137.978C63.9202 135.357 65.6309 131.928 65.6309 128.047C65.6309 124.16 64.0179 120.643 61.2659 118.111C58.514 115.584 54.9114 113.959 50.8348 113.959C46.7533 113.959 43.0579 115.496 40.3988 118.111ZM117.699 118.111C116.322 119.413 115.228 120.961 114.48 122.665C113.732 124.37 113.344 126.199 113.338 128.047C113.338 131.928 114.951 135.446 117.699 137.978C120.357 140.504 124.053 142.133 128.134 142.133C132.212 142.133 135.906 140.597 138.565 137.978C141.22 135.45 142.93 131.928 142.93 128.047C142.93 124.16 141.318 120.643 138.565 118.111C135.804 115.465 132.053 113.972 128.134 113.959C124.053 113.959 120.357 115.496 117.699 118.111Z" fill="#028CF0"/>
</svg>
