<svg width="256" height="256" viewBox="0 0 256 256" fill="none" xmlns="http://www.w3.org/2000/svg" id="Rclone">
<style>
#Rclone {
    rect {fill: #242938}

    @media (prefers-color-scheme: light) {
        rect {fill: #F4F2ED}   
    }
}
</style>
<rect width="256" height="256" fill="#242938" rx="60"/>
<path d="M209.702 131.116C204.073 121.367 195.884 114.02 186.472 109.432C185.267 115.862 182.989 122.199 179.537 128.179L174.09 137.632C177.718 139.648 180.877 142.615 183.104 146.472C189.648 157.805 185.762 172.302 174.427 178.846C163.094 185.39 148.597 181.507 142.053 170.172L131.062 151.164H113.325L104.457 166.523L115.455 185.528C130.483 211.554 163.76 220.471 189.786 205.444C215.809 190.419 224.726 157.142 209.702 131.116Z" fill="#70CAF2"/>
<path d="M155.202 51.2984C129.176 36.2737 95.899 45.1906 80.8742 71.2141C75.2434 80.9627 72.9778 91.7293 73.7101 102.174C79.8792 100.003 86.5076 98.8067 93.414 98.8067L104.321 98.7966C104.252 94.6482 105.245 90.4283 107.469 86.5732C114.016 75.2377 128.51 71.352 139.846 77.8987C151.181 84.4429 155.064 98.937 148.52 110.273L137.557 129.295L146.423 144.657L164.16 144.654L175.118 125.626C190.145 99.6027 181.228 66.3232 155.202 51.2984Z" fill="#B4E3F9"/>
<path d="M111.039 188.081L105.574 178.639C102.015 180.774 97.8668 182.025 93.4148 182.025C80.3239 182.025 69.7129 171.414 69.7129 158.323C69.7129 145.234 80.3239 134.623 93.4148 134.623L115.369 134.608L124.24 119.249L115.369 103.89L93.4122 103.911C63.3601 103.91 39 128.273 39 158.323C39 188.375 63.3601 212.737 93.4122 212.737C104.666 212.737 115.119 209.319 123.796 203.468C118.831 199.21 114.491 194.059 111.039 188.081Z" fill="#3F79AD"/>
</svg>
