<svg width="256" height="256" viewBox="0 0 256 256" fill="none" xmlns="http://www.w3.org/2000/svg">
<g clip-path="url(#clip0_186_361)">
<mask id="mask0_186_361" style="mask-type:luminance" maskUnits="userSpaceOnUse" x="0" y="0" width="256" height="256">
<path d="M196 0H60C26.8629 0 0 26.8629 0 60V196C0 229.137 26.8629 256 60 256H196C229.137 256 256 229.137 256 196V60C256 26.8629 229.137 0 196 0Z" fill="white"/>
</mask>
<g mask="url(#mask0_186_361)">
<path d="M256 0H0V256H256V0Z" fill="url(#paint0_linear_186_361)"/>
</g>
<path fill-rule="evenodd" clip-rule="evenodd" d="M48.9248 44.4L78.6624 74.1376L74.1376 78.6624L44.4 48.9248V73.2H38V41.2C38 39.4336 39.4304 38 41.2 38H73.2V44.4H48.9248ZM217.2 41.2V73.2H210.8V48.9248L181.062 78.6624L176.538 74.1376L206.275 44.4H182V38H214C215.77 38 217.2 39.4336 217.2 41.2ZM210.8 182H217.2V214C217.2 215.766 215.77 217.2 214 217.2H182V210.8H206.275L176.538 181.062L181.062 176.538L210.8 206.275V182ZM209.2 125.082C209.2 114.461 196.938 103.968 176.4 97.0144L178.451 90.9536C202.058 98.944 215.6 111.382 215.6 125.082C215.6 138.784 202.058 151.226 178.448 159.213L176.397 153.149C196.938 146.198 209.2 135.709 209.2 125.082ZM46.1792 125.082C46.1792 135.258 57.6576 145.472 76.8864 152.41L74.7136 158.429C52.512 150.419 39.7792 138.266 39.7792 125.082C39.7792 111.901 52.512 99.7472 74.7136 91.7344L76.8864 97.7536C57.6576 104.694 46.1792 114.909 46.1792 125.082ZM78.6624 181.062L48.9248 210.8H73.2V217.2H41.2C39.4304 217.2 38 215.766 38 214V182H44.4V206.275L74.1376 176.538L78.6624 181.062ZM127.6 99.7152C104.733 99.7152 92.4 93.808 92.4 91.3952C92.4 88.9792 104.733 83.0752 127.6 83.0752C150.464 83.0752 162.8 88.9792 162.8 91.3952C162.8 93.808 150.464 99.7152 127.6 99.7152ZM127.693 124.499C105.798 124.499 92.4 118.518 92.4 115.264V99.7088C100.282 104.058 114.262 106.115 127.6 106.115C140.938 106.115 154.918 104.058 162.8 99.7088V115.264C162.8 118.522 149.472 124.499 127.693 124.499ZM127.693 148.934C105.798 148.934 92.4 142.954 92.4 139.699V123.958C100.179 128.531 113.974 130.899 127.693 130.899C141.334 130.899 155.05 128.534 162.8 123.974V139.699C162.8 142.957 149.472 148.934 127.693 148.934ZM127.6 170.858C104.826 170.858 92.4 164.736 92.4 161.59V148.394C100.179 152.966 113.974 155.334 127.693 155.334C141.334 155.334 155.05 152.973 162.8 148.41V161.59C162.8 164.736 150.374 170.858 127.6 170.858ZM127.6 76.6752C107.565 76.6752 86 81.28 86 91.3952V161.59C86 171.875 106.928 177.258 127.6 177.258C148.272 177.258 169.2 171.875 169.2 161.59V91.3952C169.2 81.28 147.635 76.6752 127.6 76.6752Z" fill="white"/>
</g>
<defs>
<linearGradient id="paint0_linear_186_361" x1="0" y1="25600" x2="25600" y2="0" gradientUnits="userSpaceOnUse">
<stop stop-color="#2E27AD"/>
<stop offset="1" stop-color="#527FFF"/>
</linearGradient>
<clipPath id="clip0_186_361">
<rect width="256" height="256" fill="white"/>
</clipPath>
</defs>
</svg>
