<svg width="256" height="256" viewBox="0 0 256 256" fill="none" xmlns="http://www.w3.org/2000/svg">
<path d="M196 0H60C26.8629 0 0 26.8629 0 60V196C0 229.137 26.8629 256 60 256H196C229.137 256 256 229.137 256 196V60C256 26.8629 229.137 0 196 0Z" fill="#F4F2ED"/>
<path d="M188.025 127.889C188.025 133.403 185.788 138.394 182.168 142.003C178.547 145.616 173.546 147.852 168.022 147.852C162.497 147.852 157.496 150.084 153.88 153.697C150.259 157.311 148.019 162.302 148.019 167.815C148.019 173.329 145.782 178.32 142.162 181.929C138.541 185.543 133.54 187.778 128.016 187.778C122.491 187.778 117.49 185.543 113.874 181.929C110.253 178.32 108.013 173.329 108.013 167.815C108.013 162.302 110.253 157.311 113.874 153.697C117.49 150.084 122.491 147.852 128.016 147.852C133.54 147.852 138.541 145.616 142.162 142.003C145.782 138.394 148.019 133.403 148.019 127.889C148.019 116.862 139.065 107.926 128.016 107.926C122.491 107.926 117.49 105.69 113.874 102.077C110.253 98.4676 108.013 93.4769 108.013 87.9631C108.013 82.4493 110.253 77.4585 113.874 73.8452C117.49 70.2319 122.491 68 128.016 68C139.065 68 148.019 76.9355 148.019 87.9631C148.019 93.4769 150.259 98.4676 153.88 102.077C157.496 105.69 162.497 107.926 168.022 107.926C179.071 107.926 188.025 116.862 188.025 127.889Z" fill="#F44250"/>
<path d="M108.012 127.889C108.012 116.863 99.0564 107.926 88.0089 107.926C76.9616 107.926 68.0059 116.863 68.0059 127.889C68.0059 138.914 76.9616 147.852 88.0089 147.852C99.0564 147.852 108.012 138.914 108.012 127.889Z" fill="#121212"/>
<path d="M68.006 167.815C68.006 156.79 59.0504 147.852 48.003 147.852C36.9557 147.852 28 156.79 28 167.815C28 178.841 36.9557 187.778 48.003 187.778C59.0504 187.778 68.006 178.841 68.006 167.815Z" fill="#121212"/>
<path d="M228.03 167.815C228.03 156.79 219.075 147.852 208.027 147.852C196.98 147.852 188.024 156.79 188.024 167.815C188.024 178.841 196.98 187.778 208.027 187.778C219.075 187.778 228.03 178.841 228.03 167.815Z" fill="#121212"/>
</svg>
