<svg width="256" height="256" viewBox="0 0 256 256" fill="none" xmlns="http://www.w3.org/2000/svg">
<g clip-path="url(#clip0_1_656)">
<path d="M196 0H60C26.8629 0 0 26.8629 0 60V196C0 229.137 26.8629 256 60 256H196C229.137 256 256 229.137 256 196V60C256 26.8629 229.137 0 196 0Z" fill="#F4F2ED"/>
<path d="M150.549 148.118L146.926 154.408C145.835 156.303 143.814 157.471 141.628 157.471H113.876C111.689 157.471 109.669 156.303 108.577 154.408L104.955 148.118H150.549ZM160.69 130.508L154.303 141.599H101.2L94.8131 130.508H160.69ZM154.537 113.287L160.701 123.989H94.8028L100.966 113.287H154.537ZM141.628 97.0081C143.814 97.0081 145.835 98.1761 146.926 100.071L150.783 106.768H104.72L108.577 100.071C109.669 98.1761 111.689 97.0081 113.876 97.0081H141.628Z" fill="#00435B"/>
<path d="M73.486 94.09C70.4117 79.1832 69.7521 67.7499 71.7392 59.4478C72.921 54.5101 75.0816 50.482 78.3672 47.5758C81.8358 44.5076 86.2213 43.002 91.1487 43.002C99.2778 43.002 107.823 46.7089 116.956 53.751C120.681 56.6235 124.547 60.0857 128.562 64.1396C128.881 63.7281 129.243 63.3401 129.645 62.9815C140.996 52.8659 150.553 46.5812 158.727 44.1579C163.587 42.717 168.15 42.5798 172.305 43.9782C176.692 45.4543 180.187 48.5056 182.652 52.7796C186.722 59.8331 187.795 69.1016 186.278 80.5456C185.659 85.2103 184.602 90.2917 183.108 95.7972C183.672 95.8653 184.237 95.9903 184.796 96.1756C199.198 100.948 209.396 106.081 215.571 111.946C219.244 115.436 221.643 119.321 222.51 123.622C223.425 128.161 222.533 132.714 220.07 136.985C216.008 144.028 208.54 149.583 197.9 153.983C193.627 155.75 188.794 157.35 183.393 158.789C183.639 159.345 183.83 159.936 183.958 160.556C187.033 175.463 187.692 186.896 185.705 195.199C184.523 200.136 182.363 204.164 179.077 207.07C175.608 210.139 171.223 211.644 166.295 211.644C158.167 211.644 149.621 207.937 140.488 200.895C136.724 197.992 132.815 194.487 128.754 190.377C128.336 191.031 127.823 191.638 127.217 192.179C115.866 202.294 106.309 208.579 98.135 211.002C93.2748 212.443 88.7116 212.58 84.5563 211.182C80.17 209.706 76.6751 206.655 74.2092 202.381C70.1399 195.327 69.0668 186.059 70.5839 174.615C71.2246 169.781 72.3365 164.501 73.9169 158.764C73.2993 158.702 72.6789 158.571 72.0655 158.368C57.6634 153.595 47.4653 148.463 41.291 142.597C37.6175 139.108 35.2187 135.222 34.3515 130.922C33.4362 126.383 34.3287 121.829 36.7916 117.559C40.8535 110.515 48.322 104.96 58.9619 100.56C63.3616 98.7409 68.3565 97.0984 73.9531 95.6262C73.7538 95.138 73.5963 94.6249 73.486 94.09Z" fill="black"/>
<path d="M173.91 162.021C175.342 161.767 176.714 162.685 177.034 164.094L177.051 164.177L177.204 164.97C182.154 190.995 178.667 204.007 166.743 204.007C155.076 204.007 140.225 192.904 122.189 170.697C121.79 170.206 121.575 169.592 121.581 168.96C121.594 167.487 122.775 166.298 124.238 166.267L124.322 166.266L125.272 166.273C132.862 166.314 140.24 166.049 147.407 165.479C155.867 164.806 164.701 163.653 173.91 162.021ZM92.0197 142.349L92.0653 142.426L92.5419 143.258C96.3611 149.897 100.34 156.199 104.479 162.163C109.354 169.187 114.835 176.298 120.924 183.495C121.865 184.608 121.758 186.261 120.695 187.244L120.626 187.306L120.013 187.833C99.8687 205.094 86.7756 208.539 80.7336 198.17C74.8196 188.021 76.9638 169.565 87.1662 142.805C87.3904 142.217 87.8117 141.725 88.3582 141.413C89.6356 140.684 91.2552 141.105 92.0197 142.349ZM184.132 103.946L184.215 103.973L184.973 104.235C209.838 112.885 219.285 122.391 213.314 132.752C207.474 142.886 190.496 150.265 162.38 154.887C161.752 154.99 161.109 154.871 160.561 154.548C159.268 153.788 158.835 152.123 159.596 150.829C163.623 143.979 167.25 137.163 170.477 130.381C174.136 122.69 177.571 114.434 180.78 105.615C181.266 104.278 182.695 103.551 184.049 103.922L184.132 103.946ZM96.299 99.5915C97.5927 100.352 98.0251 102.017 97.2644 103.311C93.2375 110.161 89.6105 116.977 86.3838 123.759C82.7241 131.45 79.2898 139.706 76.0808 148.525C75.5843 149.89 74.1062 150.618 72.7283 150.194L72.6457 150.167L71.8875 149.905C47.0221 141.255 37.5751 131.749 43.5465 121.388C49.3867 111.254 66.3649 103.875 94.4809 99.2526C95.108 99.1495 95.7511 99.2695 96.299 99.5915ZM176.127 56.9888C182.041 67.1385 179.897 85.5937 169.694 112.354C169.47 112.942 169.049 113.434 168.502 113.746C167.225 114.475 165.605 114.054 164.841 112.81L164.795 112.733L164.319 111.901C160.499 105.262 156.52 98.9599 152.381 92.9956C147.507 85.972 142.025 78.8614 135.937 71.6643C134.995 70.5508 135.102 68.8983 136.165 67.9154L136.234 67.8535L136.847 67.3263C156.992 50.0655 170.085 46.6197 176.127 56.9888ZM91.1365 50.812C102.803 50.812 117.654 61.9156 135.691 84.1228C136.089 84.6134 136.304 85.2276 136.299 85.8597C136.286 87.3322 135.104 88.5208 133.642 88.5528L133.557 88.5534L132.608 88.5465C125.018 88.5054 117.64 88.77 110.473 89.3404C102.013 90.0138 93.1782 91.1665 83.9698 92.7983C82.5376 93.0521 81.1654 92.1341 80.8457 90.7257L80.8283 90.6421L80.6756 89.8495C75.7254 63.8245 79.2125 50.812 91.1365 50.812Z" fill="#FF4154"/>
<path d="M116.106 97.3495H139.401C142.807 97.3495 145.954 99.1716 147.65 102.126L159.346 122.507C161.029 125.439 161.029 129.044 159.346 131.975L147.65 152.356C145.954 155.311 142.807 157.133 139.401 157.133H116.106C112.699 157.133 109.553 155.311 107.857 152.356L96.16 131.975C94.4775 129.044 94.4775 125.439 96.16 122.507L107.857 102.126C109.553 99.1716 112.699 97.3495 116.106 97.3495ZM135.85 103.501C139.259 103.501 142.407 105.325 144.102 108.282L152.258 122.512C153.937 125.441 153.937 129.041 152.258 131.971L144.102 146.201C142.407 149.158 139.259 150.982 135.85 150.982H119.656C116.247 150.982 113.1 149.158 111.405 146.201L103.248 131.971C101.569 129.041 101.569 125.441 103.248 122.512L111.405 108.282C113.1 105.325 116.247 103.501 119.656 103.501H135.85ZM132.023 110.229H123.483C120.078 110.229 116.933 112.049 115.236 115.002L110.926 122.503C109.24 125.437 109.24 129.046 110.926 131.98L115.236 139.481C116.933 142.433 120.078 144.254 123.483 144.254H132.023C135.429 144.254 138.574 142.433 140.27 139.481L144.58 131.98C146.266 129.046 146.266 125.437 144.58 122.503L140.27 115.002C138.574 112.049 135.429 110.229 132.023 110.229ZM128.339 116.669C131.741 116.669 134.885 118.486 136.582 121.435L137.193 122.497C138.884 125.434 138.884 129.049 137.193 131.986L136.582 133.047C134.885 135.996 131.741 137.814 128.339 137.814H127.167C123.765 137.814 120.622 135.996 118.924 133.047L118.313 131.986C116.623 129.049 116.623 125.434 118.313 122.497L118.924 121.435C120.622 118.486 123.765 116.669 127.167 116.669H128.339ZM127.755 123.012C126.24 123.012 124.844 123.818 124.088 125.127C123.332 126.435 123.332 128.048 124.088 129.356C124.844 130.664 126.24 131.47 127.752 131.47C129.266 131.47 130.663 130.664 131.419 129.356C132.175 128.048 132.175 126.435 131.419 125.127C130.663 123.818 129.266 123.012 127.755 123.012Z" fill="#FFD94C"/>
</g>
<defs>
<clipPath id="clip0_1_656">
<rect width="256" height="256" fill="white"/>
</clipPath>
</defs>
</svg>
