<svg width="256" height="256" viewBox="0 0 256 256" fill="none" xmlns="http://www.w3.org/2000/svg" id="reactos">
<style>
#reactos {
    rect {fill: #242938}
    
    @media (prefers-color-scheme: light) {
        rect {fill: #F4F2ED}
    }
}
</style>
<rect width="256" height="256" rx="60" fill="#242938"/>
<path opacity="0.3" fill-rule="evenodd" clip-rule="evenodd" d="M191.175 143.311C191.175 182.918 159.125 215.027 119.589 215.027C80.0523 215.027 48.002 182.918 48.002 143.311C48.002 103.703 80.0525 71.5952 119.589 71.5952C159.125 71.5952 191.175 103.703 191.175 143.311Z" fill="url(#paint0_radial_828_560)"/>
<path fill-rule="evenodd" clip-rule="evenodd" d="M200.862 133.301C200.862 172.909 168.812 205.017 129.276 205.017C89.7393 205.017 57.689 172.909 57.689 133.301C57.689 93.6937 89.7395 61.5854 129.276 61.5854C168.812 61.5854 200.862 93.6936 200.862 133.301Z" fill="#244762"/>
<path fill-rule="evenodd" clip-rule="evenodd" d="M58.7247 121.129C57.0483 130.846 57.4288 140.448 59.5205 149.489C59.9207 151.22 60.3803 152.929 60.9051 154.616C60.907 154.62 60.9039 154.627 60.9051 154.631C61.0792 155.19 61.2628 155.742 61.4502 156.296C61.8193 157.385 62.2093 158.455 62.6291 159.522C62.6373 159.543 62.6506 159.561 62.6588 159.581C62.6645 159.595 62.6677 159.611 62.6734 159.625C63.083 160.663 63.5129 161.704 63.97 162.719C63.9833 162.749 64.0004 162.778 64.0137 162.808C64.2371 163.302 64.4575 163.792 64.6917 164.281C64.7088 164.316 64.7335 164.348 64.7506 164.384C64.9874 164.876 65.2248 165.37 65.4723 165.857C65.5932 166.094 65.7173 166.328 65.8408 166.565C65.9984 166.865 66.1504 167.164 66.3124 167.463C66.334 167.503 66.3637 167.54 66.3859 167.581C66.617 168.006 66.8537 168.428 67.0931 168.848C67.1215 168.897 67.1532 168.946 67.1817 168.995C67.4558 169.474 67.7357 169.952 68.0212 170.425C68.0509 170.473 68.0794 170.523 68.1098 170.571C68.9879 172.017 69.9173 173.436 70.8942 174.814C71.1892 175.231 71.4893 175.642 71.7926 176.052C71.8306 176.103 71.873 176.149 71.9103 176.2C82.485 190.399 98.2853 200.727 117.081 203.97C120.446 187.532 107.732 177.056 98.3701 168.097C96.8558 165.445 91.7587 163.39 89.634 160.509C82.6528 149.687 72.187 139.767 58.7247 121.129Z" fill="url(#paint1_radial_828_560)"/>
<path fill-rule="evenodd" clip-rule="evenodd" d="M200.862 133.301C201.035 146.835 196.947 160.479 189.394 172.176C185.618 178.026 180.975 183.388 175.565 188.007C162.26 187.674 153.379 181.931 152.266 178.844C169.509 163.011 182.291 142.705 177.883 135.904C180.826 128.251 185.577 120.56 189.379 114.759L195.416 105.546C199.185 114.203 200.893 124.202 200.862 133.301Z" fill="url(#paint2_linear_828_560)"/>
<path d="M189.401 110.689C191.117 115.67 188.364 119.689 183.254 119.666C178.143 119.642 172.61 115.585 170.895 110.604C169.18 105.622 171.932 101.603 177.042 101.626C182.153 101.65 187.686 105.707 189.401 110.689Z" fill="url(#paint3_radial_828_560)"/>
<path d="M185.783 109.784C187.498 114.766 184.746 118.785 179.635 118.761C174.525 118.738 168.991 114.681 167.276 109.699C165.561 104.718 168.313 100.699 173.424 100.722C178.534 100.746 184.067 104.803 185.783 109.784Z" fill="url(#paint4_radial_828_560)"/>
<path d="M191.663 107.975C193.378 112.956 190.626 116.975 185.515 116.952C180.405 116.928 174.871 112.871 173.156 107.89C171.441 102.908 174.193 98.8891 179.304 98.9126C184.414 98.9361 189.947 102.993 191.663 107.975Z" fill="url(#paint5_radial_828_560)"/>
<path d="M187.924 121.224C190.35 125.929 188.633 131.487 184.089 133.638C179.545 135.789 173.894 133.719 171.467 129.014C169.041 124.309 170.758 118.752 175.302 116.601C179.847 114.45 185.498 116.52 187.924 121.224Z" fill="url(#paint6_radial_828_560)"/>
<path d="M162.057 139.592C162.057 167.319 140.187 189.796 113.21 189.796C86.2328 189.796 64.3633 167.319 64.3633 139.592C64.3633 111.866 86.2326 89.3887 113.21 89.3887C140.187 89.3887 162.057 111.866 162.057 139.592Z" fill="url(#paint7_radial_828_560)"/>
<path fill-rule="evenodd" clip-rule="evenodd" d="M127.215 105.575C105.112 105.856 81.9264 111.252 69.826 122.711C52.0016 133.501 55.811 156.504 75.0934 180.191C90.624 198.221 113.255 206.345 131.956 204.897C154.299 204.51 172.583 192.584 181.916 181.882C199.82 163.89 204.02 140.077 183.022 122.989C170.002 112.13 149.064 105.066 127.215 105.575Z" fill="url(#paint8_radial_828_560)"/>
<g opacity="0.54" filter="url(#filter0_f_828_560)">
<path d="M168.573 176.547C168.573 179.878 165.585 182.579 161.898 182.579C158.211 182.579 155.222 179.878 155.222 176.547C155.222 173.216 158.211 170.515 161.898 170.515C164.645 170.515 167.112 172.036 168.114 174.348" fill="url(#paint9_radial_828_560)"/>
</g>
<g opacity="0.54" filter="url(#filter1_f_828_560)">
<path d="M178.474 173.396C178.474 179 173.058 183.543 166.376 183.543C159.695 183.543 154.279 179 154.279 173.396C154.279 167.793 159.695 163.25 166.376 163.25C171.356 163.25 175.826 165.809 177.641 169.698" fill="url(#paint10_radial_828_560)"/>
</g>
<g opacity="0.44086" filter="url(#filter2_f_828_560)">
<path d="M145.051 191.681C145.051 194.557 142.844 196.888 140.122 196.888C137.4 196.888 135.193 194.557 135.193 191.681C135.193 188.806 137.4 186.475 140.122 186.475C142.151 186.475 143.973 187.788 144.712 189.783" fill="url(#paint11_radial_828_560)"/>
</g>
<path fill-rule="evenodd" clip-rule="evenodd" d="M68.701 71.2959C60.779 79.0646 54.3347 88.3461 49.839 98.679C47.5915 103.846 45.8309 109.275 44.6159 114.909C44.3127 116.318 44.043 117.74 43.8081 119.173L58.6265 121.624C58.8202 120.439 59.043 119.264 59.2944 118.1C60.2985 113.444 61.7546 108.956 63.6128 104.686C67.3297 96.1466 72.6573 88.4753 79.2067 82.0542" fill="url(#paint12_radial_828_560)"/>
<path d="M167.484 148.638C167.484 176.364 145.615 198.841 118.637 198.841C91.66 198.841 69.7905 176.364 69.7905 148.638C69.7905 120.911 91.6599 98.4341 118.637 98.4341C145.614 98.4341 167.484 120.911 167.484 148.638Z" fill="url(#paint13_radial_828_560)"/>
<path fill-rule="evenodd" clip-rule="evenodd" d="M189.858 195.299C174.014 210.836 152.257 220.323 128.351 220.067C104.445 219.811 82.8966 209.861 67.3882 193.989L78.1218 183.457C90.9427 196.576 108.756 204.8 128.512 205.012C148.269 205.223 166.249 197.382 179.343 184.54" fill="url(#paint14_radial_828_560)"/>
<path d="M148.714 152.934C148.714 174.166 130.996 191.378 109.139 191.378C87.2828 191.378 69.5645 174.166 69.5645 152.934C69.5645 131.702 87.2827 114.49 109.139 114.49C130.996 114.49 148.714 131.702 148.714 152.934Z" fill="url(#paint15_radial_828_560)"/>
<path d="M189.578 126.645C198.334 132.157 199.489 143.738 192.157 152.513C184.825 161.287 171.783 163.932 163.028 158.42C154.272 152.907 153.117 141.326 160.449 132.552C167.781 123.777 180.823 121.133 189.578 126.645Z" fill="url(#paint16_radial_828_560)"/>
<path d="M190.47 119.08C199.454 124.212 201.103 135.734 194.153 144.814C187.204 153.894 174.287 157.095 165.304 151.963C156.32 146.83 154.671 135.309 161.62 126.229C168.57 117.149 181.486 113.948 190.47 119.08Z" fill="url(#paint17_radial_828_560)"/>
<path d="M193.129 140.213C195.099 150.37 187.443 159.136 176.027 159.792C164.611 160.448 153.76 152.746 151.789 142.59C149.819 132.433 157.475 123.667 168.891 123.011C180.306 122.354 191.158 130.056 193.129 140.213Z" fill="url(#paint18_radial_828_560)"/>
<path d="M184.891 125.708C192.883 130.735 190.454 138.191 179.466 142.363C168.478 146.534 153.092 145.84 145.101 140.812C137.109 135.785 139.538 128.329 150.525 124.158C161.513 119.987 176.899 120.681 184.891 125.708Z" fill="url(#paint19_radial_828_560)"/>
<path d="M197.126 114.393C199.338 126.605 191.099 138.676 178.725 141.352C166.351 144.029 154.527 136.299 152.315 124.087C150.103 111.874 158.341 99.8036 170.715 97.1266C183.09 94.4497 194.914 102.18 197.126 114.393Z" fill="url(#paint20_radial_828_560)"/>
<path d="M181.592 115.345C184.018 120.049 182.301 125.607 177.757 127.758C173.212 129.909 167.562 127.839 165.135 123.134C162.709 118.43 164.426 112.872 168.97 110.721C173.515 108.57 179.166 110.64 181.592 115.345Z" fill="url(#paint21_radial_828_560)"/>
<g opacity="0.243728" filter="url(#filter3_f_828_560)">
<path d="M88.0778 88.88C92.6122 92.3026 92.6563 99.8433 88.1762 105.723C83.6962 111.602 76.3886 113.594 71.8542 110.172C67.3199 106.749 67.2758 99.2083 71.7558 93.3288C76.2359 87.4493 83.5435 85.4575 88.0778 88.88Z" fill="white"/>
</g>
<path fill-rule="evenodd" clip-rule="evenodd" d="M191.171 72.606C198.925 80.5424 205.169 89.9594 209.443 100.387C211.579 105.6 213.224 111.065 214.318 116.724C214.591 118.139 214.83 119.566 215.034 121.004L200.148 123.138C199.979 121.949 199.782 120.77 199.556 119.601C198.652 114.923 197.293 110.406 195.527 106.097C191.996 97.4801 186.836 89.6967 180.428 83.1371" fill="url(#paint22_radial_828_560)"/>
<path fill-rule="evenodd" clip-rule="evenodd" d="M59.1838 147.997C59.1414 147.943 59.0749 147.913 59.0059 147.918C58.9508 147.925 58.9014 147.953 58.8672 147.997C58.8603 148.003 58.8539 148.01 58.8476 148.017C50.6616 161.102 45.3113 173.691 43.4354 184.559C41.5602 195.426 43.1594 204.597 48.9554 210.813C55.3231 217.641 66.1764 219.517 79.443 217.262C92.7096 215.008 108.411 208.624 124.551 198.883C124.606 198.852 124.639 198.805 124.65 198.744C124.662 198.683 124.651 198.614 124.611 198.566C124.6 198.551 124.586 198.537 124.571 198.527C124.225 198.307 124.072 198.042 123.681 197.755C123.614 197.714 123.53 197.714 123.463 197.755C108.011 206.915 92.6805 213.161 79.7203 215.501C66.7601 217.841 56.1968 216.272 50.202 209.843C44.8004 204.051 43.1568 195.671 44.8599 185.449C46.5629 175.227 51.6144 163.186 59.5598 150.134C59.5871 150.086 59.594 150.029 59.5795 149.975M189.682 51.4295C174.74 51.6843 161.206 57.6771 147.957 64.0717C148.789 64.2968 149.61 64.5101 150.429 64.7642C163.495 58.2434 175.82 54.2958 186.2 53.3684C196.714 52.4289 205.756 53.9839 210.594 60.0159C218.316 69.6437 217.463 85.3467 208.912 104.412C200.361 123.478 184.133 145.872 161.232 168.751C157.687 172.292 153.825 175.44 150.093 178.544C150.086 178.551 150.079 178.557 150.074 178.564C150.003 178.643 150.003 178.762 150.074 178.841C150.338 179.11 150.607 179.393 150.845 179.672C150.851 179.679 150.858 179.686 150.865 179.692C150.924 179.745 151.008 179.76 151.082 179.731C151.104 179.722 151.125 179.709 151.142 179.692C154.873 176.58 158.684 173.427 162.261 169.879C184.911 147.405 201.531 124.95 210.396 105.5C219.261 86.0501 220.386 69.5494 211.959 59.0465C207.507 53.4976 199.945 51.5 191.146 51.4295C190.66 51.4256 190.165 51.4213 189.682 51.4295Z" fill="#5F5F5F"/>
<path fill-rule="evenodd" clip-rule="evenodd" d="M182.144 41.8736C161.174 41.6899 143.122 51.4713 125.719 61.48C125.649 61.5246 125.623 61.5987 125.62 61.6779C126.69 61.6237 127.763 61.5854 128.845 61.5789C144.363 52.2757 159.188 46.2936 171.638 44.2478C184.197 42.1844 195.056 44.4768 200.267 50.1238C204.518 54.7315 206.384 61.2199 206.083 69.0377C205.783 76.8554 203.314 85.9951 198.921 95.8455C190.136 115.546 173.645 138.106 151.518 158.74C147.378 162.6 143.201 166.252 138.994 169.701C138.937 169.745 138.899 169.806 138.895 169.879C138.891 169.951 138.922 170.027 138.974 170.077C139.243 170.342 139.527 170.6 139.766 170.868C139.85 170.968 139.997 170.985 140.102 170.908C144.31 167.447 148.487 163.768 152.626 159.908C175.342 138.724 191.957 115.93 200.741 95.9841C205.134 86.0109 207.564 76.7568 207.804 68.7607C208.044 60.7645 206.09 54.0196 201.691 49.1346C198.347 45.4208 191.975 41.9588 182.144 41.8736ZM57.8581 128.49C57.9347 127.338 58.0449 126.203 58.1747 125.067C46.2711 141.572 38.1491 156.913 34.6708 169.958C31.1824 183.043 32.3613 193.851 39.0829 201.059C45.1676 207.584 55.8791 209.792 69.0957 207.904C82.3129 206.016 98.0683 200.027 114.304 190.019C114.381 189.972 114.426 189.893 114.422 189.801C114.418 189.71 114.366 189.624 114.283 189.584C113.851 189.354 113.447 189.224 113.037 188.971C96.7293 198.716 84.5484 203.134 68.7994 206.282C56.0741 208.127 45.9508 205.984 40.27 199.892C34.0156 193.185 33.0425 182.829 36.4321 170.215C39.7306 157.938 47.1784 143.565 57.8581 128.49Z" fill="#5F5F5F"/>
<path fill-rule="evenodd" clip-rule="evenodd" d="M58.6266 121.624C58.4328 122.809 58.2676 124.003 58.1328 125.207C57.8624 127.614 57.7105 130.058 57.6845 132.532C57.4724 152.324 65.3014 170.339 78.1223 183.457L67.3887 193.989C51.8803 178.116 42.4129 156.32 42.6686 132.371C42.7009 129.378 42.8839 126.42 43.2112 123.508C43.3745 122.052 43.574 120.607 43.8082 119.173" fill="url(#paint23_radial_828_560)"/>
<path d="M160.628 109.049C162.408 112.617 161.148 116.833 157.816 118.465C154.483 120.097 150.339 118.527 148.56 114.958C146.781 111.389 148.04 107.173 151.372 105.541C154.705 103.909 158.849 105.48 160.628 109.049Z" fill="url(#paint24_radial_828_560)"/>
<path d="M164.858 109.917C167.284 114.622 165.567 120.18 161.022 122.331C156.478 124.482 150.827 122.412 148.401 117.707C145.975 113.002 147.692 107.445 152.236 105.294C156.78 103.143 162.431 105.213 164.858 109.917Z" fill="url(#paint25_radial_828_560)"/>
<path d="M165.762 110.37C168.188 115.074 166.471 120.632 161.927 122.783C157.382 124.934 151.732 122.864 149.305 118.159C146.879 113.454 148.596 107.897 153.14 105.746C157.685 103.595 163.336 105.665 165.762 110.37Z" fill="url(#paint26_radial_828_560)"/>
<path d="M168.928 111.274C171.355 115.979 169.638 121.537 165.093 123.688C160.549 125.839 154.898 123.768 152.472 119.064C150.046 114.359 151.763 108.802 156.307 106.651C160.851 104.5 166.502 106.57 168.928 111.274Z" fill="url(#paint27_radial_828_560)"/>
<path d="M169.38 111.274C171.806 115.979 170.089 121.537 165.545 123.688C161.001 125.839 155.35 123.768 152.923 119.064C150.497 114.359 152.214 108.802 156.759 106.651C161.303 104.5 166.954 106.57 169.38 111.274Z" fill="url(#paint28_radial_828_560)"/>
<path d="M169.833 111.726C172.259 116.431 170.542 121.989 165.998 124.14C161.453 126.291 155.802 124.221 153.376 119.516C150.95 114.811 152.667 109.254 157.211 107.103C161.756 104.952 167.406 107.022 169.833 111.726Z" fill="url(#paint29_radial_828_560)"/>
<path d="M174.808 111.726C177.234 116.431 175.517 121.989 170.973 124.14C166.428 126.291 160.777 124.221 158.351 119.516C155.925 114.811 157.642 109.254 162.186 107.103C166.731 104.952 172.381 107.022 174.808 111.726Z" fill="url(#paint30_radial_828_560)"/>
<path d="M174.808 111.726C177.234 116.431 175.517 121.989 170.973 124.14C166.428 126.291 160.777 124.221 158.351 119.516C155.925 114.811 157.642 109.254 162.186 107.103C166.731 104.952 172.381 107.022 174.808 111.726Z" fill="url(#paint31_radial_828_560)"/>
<path d="M177.973 108.56C180.4 113.265 178.683 118.823 174.138 120.974C169.594 123.125 163.943 121.055 161.517 116.35C159.09 111.645 160.807 106.088 165.352 103.937C169.896 101.786 175.547 103.856 177.973 108.56Z" fill="url(#paint32_radial_828_560)"/>
<path d="M167.119 118.511C169.545 123.215 167.828 128.773 163.284 130.924C158.739 133.075 153.089 131.005 150.662 126.3C148.236 121.596 149.953 116.038 154.497 113.887C159.042 111.736 164.692 113.806 167.119 118.511Z" fill="url(#paint33_radial_828_560)"/>
<path d="M174.808 121.677C177.234 126.381 175.517 131.939 170.973 134.09C166.428 136.241 160.777 134.171 158.351 129.466C155.925 124.762 157.642 119.204 162.186 117.053C166.731 114.902 172.381 116.972 174.808 121.677Z" fill="url(#paint34_radial_828_560)"/>
<path fill-rule="evenodd" clip-rule="evenodd" d="M69.9458 51.7462C69.1113 51.7343 68.2832 51.7448 67.4532 51.7659C59.0931 51.8832 52.5994 54.0479 48.005 58.9873C43.548 63.7791 41.9076 70.4452 42.1881 78.3957C42.4692 86.3465 44.9693 95.5765 49.4491 105.54C58.4094 125.466 75.2531 148.29 97.901 169.463C120.549 190.637 143.969 205.575 164.08 212.95C174.136 216.637 183.377 218.437 191.264 218.173C199.151 217.908 206.008 215.578 210.692 211.01C216.651 205.201 218.19 195.861 216.311 184.48C214.433 173.098 208.825 159.675 199.87 145.623C199.86 145.607 199.847 145.593 199.83 145.584C199.825 145.576 199.818 145.569 199.811 145.564C199.685 146.297 199.563 147.015 199.415 147.74C207.541 160.931 212.887 173.333 214.847 183.906C216.822 194.557 215.374 203.344 209.881 209.25C205.578 213.876 199.242 216.205 191.462 216.451C183.681 216.698 174.446 214.863 164.377 211.149C144.238 203.72 120.735 188.802 98.6531 168.158C76.5712 147.514 60.0447 125.016 51.1509 105.421C46.7034 95.624 44.1577 86.5466 43.7911 78.7914C43.4239 71.0365 45.2156 64.612 49.4295 60.0754C54.7254 54.3733 62.9437 52.6826 73.2696 53.3289C83.4156 53.9639 95.5471 57.8061 108.921 64.5269C109.575 64.3327 110.238 64.1686 110.9 63.9927C95.2901 55.7879 82.3482 51.9223 69.9458 51.7462Z" fill="#5F5F5F"/>
<path d="M168.761 104.783C169.92 106.767 168.06 108.368 164.607 108.359C161.154 108.349 157.415 106.733 156.256 104.75C155.097 102.766 156.957 101.165 160.41 101.174C163.863 101.183 167.602 102.799 168.761 104.783Z" fill="url(#paint35_radial_828_560)"/>
<path fill-rule="evenodd" clip-rule="evenodd" d="M77.5438 41.7349C69.0172 41.7746 62.4348 43.9508 57.779 48.9562C53.3295 53.7402 51.3714 60.4188 51.6265 68.4043C51.881 76.3898 54.6641 85.6732 59.1047 95.687C67.9865 115.714 84.7497 138.654 107.398 159.828C130.047 181.002 153.816 196.11 174.151 203.552C184.319 207.272 193.629 209.074 201.513 208.755C209.397 208.436 216.492 205.981 220.941 201.197C227.713 193.918 228.379 182.66 224.819 169.067C221.259 155.474 212.832 139.537 200.128 122.891C200.122 122.884 200.115 122.877 200.108 122.871C200.26 123.909 200.378 124.964 200.484 126.016C211.992 141.634 219.891 156.641 223.355 169.463C226.856 182.421 225.83 193.139 219.457 199.99C215.166 204.604 208.886 206.918 201.176 207.153C193.467 207.387 184.331 205.534 174.349 201.811C154.384 194.363 130.722 179.426 108.625 158.8C85.831 137.522 69.4002 114.855 60.5292 95.2121C56.0937 85.3902 53.6391 76.3319 53.3675 68.5823C53.0959 60.8328 55.0168 54.3887 59.3421 49.807C65.0907 43.7173 75.1918 42.032 87.7525 44.2278C100.169 46.3982 114.975 52.3822 130.289 61.5985C131.323 61.6128 132.353 61.6394 133.376 61.6974C112.086 48.3464 92.766 41.6641 77.5438 41.7349Z" fill="#5F5F5F"/>
<path d="M166.047 102.522C167.206 104.506 165.347 106.106 161.893 106.097C158.44 106.088 154.701 104.472 153.542 102.488C152.383 100.504 154.243 98.9031 157.696 98.9124C161.149 98.9218 164.888 100.538 166.047 102.522Z" fill="url(#paint36_radial_828_560)"/>
<path d="M171.022 107.949C172.181 109.933 170.322 111.534 166.869 111.525C163.415 111.515 159.677 109.899 158.518 107.916C157.359 105.932 159.218 104.331 162.671 104.34C166.125 104.35 169.863 105.965 171.022 107.949Z" fill="url(#paint37_radial_828_560)"/>
<g filter="url(#filter4_f_828_560)">
<g opacity="0.5" filter="url(#filter5_f_828_560)">
<path d="M167.178 100.26C168.337 102.244 166.477 103.845 163.024 103.835C159.571 103.826 155.832 102.21 154.673 100.226C153.514 98.2421 155.374 96.6414 158.827 96.6507C162.28 96.6601 166.019 98.276 167.178 100.26Z" fill="url(#paint38_radial_828_560)"/>
</g>
<g opacity="0.5" filter="url(#filter6_f_828_560)">
<path d="M166.047 102.069C167.206 104.053 165.347 105.654 161.893 105.645C158.44 105.636 154.701 104.02 153.542 102.036C152.383 100.052 154.243 98.4509 157.696 98.4603C161.149 98.4696 164.888 100.086 166.047 102.069Z" fill="url(#paint39_radial_828_560)"/>
</g>
<g opacity="0.5" filter="url(#filter7_f_828_560)">
<path d="M161.072 99.3556C162.231 101.34 160.371 102.94 156.918 102.931C153.465 102.922 149.726 101.306 148.567 99.3218C147.408 97.3378 149.268 95.7371 152.721 95.7464C156.174 95.7558 159.913 97.3717 161.072 99.3556Z" fill="url(#paint40_radial_828_560)"/>
</g>
<g opacity="0.5" filter="url(#filter8_f_828_560)">
<path d="M157.906 95.7375C159.065 97.7214 157.205 99.3222 153.752 99.3128C150.299 99.3035 146.56 97.6876 145.401 95.7036C144.242 93.7196 146.102 92.1189 149.555 92.1283C153.008 92.1376 156.747 93.7535 157.906 95.7375Z" fill="url(#paint41_radial_828_560)"/>
</g>
<g opacity="0.5" filter="url(#filter9_f_828_560)">
<path d="M162.429 97.9987C163.588 99.9826 161.728 101.583 158.275 101.574C154.822 101.565 151.083 99.9488 149.924 97.9648C148.765 95.9809 150.625 94.3801 154.078 94.3895C157.531 94.3988 161.27 96.0147 162.429 97.9987Z" fill="url(#paint42_radial_828_560)"/>
</g>
<g opacity="0.5" filter="url(#filter10_f_828_560)">
<path d="M170.118 105.688C171.277 107.672 169.417 109.272 165.964 109.263C162.511 109.254 158.772 107.638 157.613 105.654C156.454 103.67 158.314 102.069 161.767 102.078C165.22 102.088 168.959 103.704 170.118 105.688Z" fill="url(#paint43_radial_828_560)"/>
</g>
</g>
<path fill-rule="evenodd" clip-rule="evenodd" d="M159.777 102.249C159.709 102.179 159.642 102.107 159.574 102.038L159.777 102.249Z" fill="url(#paint44_radial_828_560)"/>
<path fill-rule="evenodd" clip-rule="evenodd" d="M215.025 121.011L200.801 123.029C200.614 123.325 200.436 123.622 200.247 123.919C200.368 124.85 200.478 125.787 200.563 126.728C200.782 129.141 200.886 131.594 200.859 134.068C200.648 153.861 192.428 171.697 179.334 184.539L189.859 195.301C205.704 179.764 215.64 158.176 215.896 134.227C215.928 131.233 215.804 128.262 215.54 125.344C215.407 123.884 215.229 122.449 215.025 121.011Z" fill="url(#paint45_radial_828_560)"/>
<g filter="url(#filter11_f_828_560)">
<path d="M122.609 74.0879C127.407 83.275 121.987 95.4786 110.503 101.345C99.0195 107.212 85.8212 104.521 81.0238 95.3338C76.2265 86.1468 81.6466 73.9432 93.1301 68.0763C104.614 62.2094 117.812 64.9009 122.609 74.0879Z" fill="url(#paint46_radial_828_560)"/>
</g>
<g filter="url(#filter12_f_828_560)">
<path d="M112.569 73.4047C115.908 79.8128 112.135 88.3249 104.141 92.4171C96.1464 96.5093 86.9582 94.6319 83.6185 88.2239C80.2787 81.8158 84.052 73.3037 92.0464 69.2115C100.041 65.1193 109.229 66.9967 112.569 73.4047Z" fill="url(#paint47_radial_828_560)"/>
</g>
<g filter="url(#filter13_f_828_560)">
<path d="M107.672 66.5923C113.571 69.3521 114.224 77.6305 109.13 85.0827C104.036 92.5349 95.1245 96.3389 89.2253 93.5791C83.3262 90.8193 82.6733 82.5409 87.7672 75.0887C92.8611 67.6365 101.773 63.8325 107.672 66.5923Z" fill="url(#paint48_radial_828_560)"/>
</g>
<g opacity="0.2" filter="url(#filter14_f_828_560)">
<path d="M131.628 80.0523C131.628 84.2299 127.953 87.6164 123.42 87.6164C118.887 87.6164 115.212 84.2299 115.212 80.0523C115.212 75.8748 118.887 72.4883 123.42 72.4883C126.798 72.4883 129.832 74.3959 131.063 77.295" fill="url(#paint49_radial_828_560)"/>
</g>
<g opacity="0.1" filter="url(#filter15_f_828_560)">
<path d="M79.1354 160.696C81.1141 163.65 81.2214 167.047 79.3752 168.284C77.529 169.52 74.4284 168.128 72.4498 165.174C70.4712 162.22 70.3638 158.823 72.21 157.587C73.5859 156.665 75.7247 157.186 77.5994 158.9" fill="white"/>
</g>
<g filter="url(#filter16_f_828_560)">
<path d="M116.02 187.149C117.738 189.367 117.831 191.916 116.228 192.845C114.624 193.773 111.931 192.728 110.212 190.511C108.494 188.294 108.401 185.744 110.004 184.815C111.199 184.124 113.057 184.515 114.685 185.801" fill="#D9DFE4"/>
</g>
<g filter="url(#filter17_f_828_560)">
<path d="M121.53 198.61C120.194 196.992 120.145 194.835 121.422 193.793C122.699 192.752 124.818 193.219 126.154 194.837C127.491 196.456 127.54 198.612 126.263 199.654C125.311 200.431 123.846 200.389 122.572 199.549" fill="#A3B1BE"/>
</g>
<g filter="url(#filter18_f_828_560)">
<path d="M141.35 169.121C142.614 170.601 142.682 172.304 141.503 172.924C140.324 173.544 138.344 172.846 137.08 171.365C135.816 169.885 135.748 168.182 136.927 167.562C137.806 167.1 139.172 167.362 140.369 168.221" fill="#E1E6EA"/>
</g>
<g filter="url(#filter19_f_828_560)">
<path d="M151.981 178.376C153.215 179.578 153.282 180.959 152.131 181.462C150.98 181.965 149.046 181.399 147.813 180.198C146.579 178.996 146.512 177.615 147.663 177.112C148.521 176.737 149.855 176.949 151.023 177.646" fill="#A2B1BE"/>
</g>
<g opacity="0.360896" filter="url(#filter20_f_828_560)">
<path d="M139.445 65.4991C133.949 65.6783 129.697 68.0558 129.295 71.5688C128.949 74.578 131.53 77.6362 135.585 79.5833C132.159 84.0757 130.519 89.7754 131.49 95.6123C133.433 107.301 145.087 115.148 157.507 113.13C169.927 111.11 178.441 99.9788 176.498 88.2903C174.72 77.5995 164.814 70.1323 153.633 70.4788C151.438 68.2092 147.75 66.3885 143.423 65.7348C142.054 65.5281 140.713 65.4578 139.445 65.4991Z" fill="url(#paint50_radial_828_560)"/>
</g>
<g filter="url(#filter21_f_828_560)">
<path d="M185.057 111.44C180.409 118.954 168.606 118.851 158.693 111.211C148.781 103.571 144.512 91.2861 149.16 83.7727C153.808 76.2593 165.611 76.3621 175.524 84.0023C185.436 91.6425 189.705 103.927 185.057 111.44Z" fill="url(#paint51_radial_828_560)"/>
</g>
<path d="M166.816 92.3182C166.972 95.3144 164.431 96.754 161.141 95.5336C157.85 94.3132 155.056 90.895 154.899 87.8987C154.743 84.9025 157.284 83.463 160.575 84.6834C163.866 85.9038 166.66 89.322 166.816 92.3182Z" fill="url(#paint52_radial_828_560)"/>
<path opacity="0.2" d="M162.251 86.5922C163.166 89.4496 161.076 91.4893 157.582 91.148C154.089 90.8066 150.516 88.2135 149.601 85.356C148.687 82.4986 150.777 80.4588 154.27 80.8002C157.763 81.1415 161.337 83.7347 162.251 86.5922Z" fill="url(#paint53_radial_828_560)"/>
<g opacity="0.44086" filter="url(#filter22_f_828_560)">
<path d="M190.302 167.964C190.302 170.84 188.095 173.171 185.373 173.171C182.651 173.171 180.444 170.84 180.444 167.964C180.444 165.089 182.651 162.757 185.373 162.757C187.401 162.757 189.223 164.07 189.963 166.066" fill="url(#paint54_radial_828_560)"/>
</g>
<path opacity="0.2" d="M161.641 91.0028C162.556 93.8602 160.466 95.9 156.973 95.5586C153.479 95.2173 149.906 92.6241 148.992 89.7667C148.077 86.9092 150.167 84.8695 153.66 85.2108C157.153 85.5522 160.727 88.1453 161.641 91.0028Z" fill="url(#paint55_radial_828_560)"/>
<g opacity="0.54" filter="url(#filter23_f_828_560)">
<path d="M174.61 164.759C176.192 166.904 174.504 171.059 170.841 174.038C167.177 177.017 162.924 177.693 161.342 175.548C159.76 173.402 161.448 169.247 165.112 166.268C167.842 164.048 171.016 163.034 173.11 163.713" fill="url(#paint56_radial_828_560)"/>
</g>
<path fill-rule="evenodd" clip-rule="evenodd" d="M191.171 72.6061C175.663 56.7333 154.114 46.7837 130.208 46.528C106.302 46.2723 84.5458 55.7587 68.7012 71.2962L79.2069 82.0546C92.3051 69.2127 110.29 61.3717 130.047 61.5831C149.804 61.7944 167.612 70.0182 180.428 83.1372" fill="url(#paint57_radial_828_560)"/>
<path opacity="0.2" d="M178.102 102.399C179.016 105.256 176.926 107.296 173.433 106.955C169.94 106.613 166.367 104.02 165.452 101.163C164.537 98.3052 166.628 96.2655 170.121 96.6068C173.614 96.9482 177.187 99.5413 178.102 102.399Z" fill="url(#paint58_radial_828_560)"/>
<defs>
<filter id="filter0_f_828_560" x="154.219" y="169.512" width="15.3574" height="14.0703" filterUnits="userSpaceOnUse" color-interpolation-filters="sRGB">
<feFlood flood-opacity="0" result="BackgroundImageFix"/>
<feBlend mode="normal" in="SourceGraphic" in2="BackgroundImageFix" result="shape"/>
<feGaussianBlur stdDeviation="0.501572" result="effect1_foregroundBlur_828_560"/>
</filter>
<filter id="filter1_f_828_560" x="153.928" y="162.899" width="24.897" height="20.9957" filterUnits="userSpaceOnUse" color-interpolation-filters="sRGB">
<feFlood flood-opacity="0" result="BackgroundImageFix"/>
<feBlend mode="normal" in="SourceGraphic" in2="BackgroundImageFix" result="shape"/>
<feGaussianBlur stdDeviation="0.175673" result="effect1_foregroundBlur_828_560"/>
</filter>
<filter id="filter2_f_828_560" x="134.393" y="185.674" width="11.4596" height="12.0153" filterUnits="userSpaceOnUse" color-interpolation-filters="sRGB">
<feFlood flood-opacity="0" result="BackgroundImageFix"/>
<feBlend mode="normal" in="SourceGraphic" in2="BackgroundImageFix" result="shape"/>
<feGaussianBlur stdDeviation="0.400428" result="effect1_foregroundBlur_828_560"/>
</filter>
<filter id="filter3_f_828_560" x="53.3502" y="72.1314" width="53.2318" height="54.7889" filterUnits="userSpaceOnUse" color-interpolation-filters="sRGB">
<feFlood flood-opacity="0" result="BackgroundImageFix"/>
<feBlend mode="normal" in="SourceGraphic" in2="BackgroundImageFix" result="shape"/>
<feGaussianBlur stdDeviation="7.53707" result="effect1_foregroundBlur_828_560"/>
</filter>
<filter id="filter4_f_828_560" x="138.337" y="85.4092" width="38.8448" height="30.5733" filterUnits="userSpaceOnUse" color-interpolation-filters="sRGB">
<feFlood flood-opacity="0" result="BackgroundImageFix"/>
<feBlend mode="normal" in="SourceGraphic" in2="BackgroundImageFix" result="shape"/>
<feGaussianBlur stdDeviation="3.35963" result="effect1_foregroundBlur_828_560"/>
</filter>
<filter id="filter5_f_828_560" x="152.519" y="94.8417" width="16.8127" height="10.803" filterUnits="userSpaceOnUse" color-interpolation-filters="sRGB">
<feFlood flood-opacity="0" result="BackgroundImageFix"/>
<feBlend mode="normal" in="SourceGraphic" in2="BackgroundImageFix" result="shape"/>
<feGaussianBlur stdDeviation="0.904599" result="effect1_foregroundBlur_828_560"/>
</filter>
<filter id="filter6_f_828_560" x="151.389" y="96.6513" width="16.8127" height="10.803" filterUnits="userSpaceOnUse" color-interpolation-filters="sRGB">
<feFlood flood-opacity="0" result="BackgroundImageFix"/>
<feBlend mode="normal" in="SourceGraphic" in2="BackgroundImageFix" result="shape"/>
<feGaussianBlur stdDeviation="0.904599" result="effect1_foregroundBlur_828_560"/>
</filter>
<filter id="filter7_f_828_560" x="146.413" y="93.9374" width="16.8127" height="10.803" filterUnits="userSpaceOnUse" color-interpolation-filters="sRGB">
<feFlood flood-opacity="0" result="BackgroundImageFix"/>
<feBlend mode="normal" in="SourceGraphic" in2="BackgroundImageFix" result="shape"/>
<feGaussianBlur stdDeviation="0.904599" result="effect1_foregroundBlur_828_560"/>
</filter>
<filter id="filter8_f_828_560" x="143.247" y="90.3192" width="16.8127" height="10.803" filterUnits="userSpaceOnUse" color-interpolation-filters="sRGB">
<feFlood flood-opacity="0" result="BackgroundImageFix"/>
<feBlend mode="normal" in="SourceGraphic" in2="BackgroundImageFix" result="shape"/>
<feGaussianBlur stdDeviation="0.904599" result="effect1_foregroundBlur_828_560"/>
</filter>
<filter id="filter9_f_828_560" x="147.77" y="92.5805" width="16.8127" height="10.803" filterUnits="userSpaceOnUse" color-interpolation-filters="sRGB">
<feFlood flood-opacity="0" result="BackgroundImageFix"/>
<feBlend mode="normal" in="SourceGraphic" in2="BackgroundImageFix" result="shape"/>
<feGaussianBlur stdDeviation="0.904599" result="effect1_foregroundBlur_828_560"/>
</filter>
<filter id="filter10_f_828_560" x="155.459" y="100.269" width="16.8127" height="10.803" filterUnits="userSpaceOnUse" color-interpolation-filters="sRGB">
<feFlood flood-opacity="0" result="BackgroundImageFix"/>
<feBlend mode="normal" in="SourceGraphic" in2="BackgroundImageFix" result="shape"/>
<feGaussianBlur stdDeviation="0.904599" result="effect1_foregroundBlur_828_560"/>
</filter>
<filter id="filter11_f_828_560" x="72.6064" y="58.3012" width="58.4201" height="52.8195" filterUnits="userSpaceOnUse" color-interpolation-filters="sRGB">
<feFlood flood-opacity="0" result="BackgroundImageFix"/>
<feBlend mode="normal" in="SourceGraphic" in2="BackgroundImageFix" result="shape"/>
<feGaussianBlur stdDeviation="3.335" result="effect1_foregroundBlur_828_560"/>
</filter>
<filter id="filter12_f_828_560" x="75.7319" y="60.3759" width="44.7232" height="40.877" filterUnits="userSpaceOnUse" color-interpolation-filters="sRGB">
<feFlood flood-opacity="0" result="BackgroundImageFix"/>
<feBlend mode="normal" in="SourceGraphic" in2="BackgroundImageFix" result="shape"/>
<feGaussianBlur stdDeviation="3.33498" result="effect1_foregroundBlur_828_560"/>
</filter>
<filter id="filter13_f_828_560" x="76.469" y="57.826" width="43.9594" height="44.5194" filterUnits="userSpaceOnUse" color-interpolation-filters="sRGB">
<feFlood flood-opacity="0" result="BackgroundImageFix"/>
<feBlend mode="normal" in="SourceGraphic" in2="BackgroundImageFix" result="shape"/>
<feGaussianBlur stdDeviation="3.93345" result="effect1_foregroundBlur_828_560"/>
</filter>
<filter id="filter14_f_828_560" x="113.967" y="71.2427" width="18.9067" height="17.6191" filterUnits="userSpaceOnUse" color-interpolation-filters="sRGB">
<feFlood flood-opacity="0" result="BackgroundImageFix"/>
<feBlend mode="normal" in="SourceGraphic" in2="BackgroundImageFix" result="shape"/>
<feGaussianBlur stdDeviation="0.622804" result="effect1_foregroundBlur_828_560"/>
</filter>
<filter id="filter15_f_828_560" x="67.5102" y="153.754" width="16.5646" height="18.363" filterUnits="userSpaceOnUse" color-interpolation-filters="sRGB">
<feFlood flood-opacity="0" result="BackgroundImageFix"/>
<feBlend mode="normal" in="SourceGraphic" in2="BackgroundImageFix" result="shape"/>
<feGaussianBlur stdDeviation="1.6912" result="effect1_foregroundBlur_828_560"/>
</filter>
<filter id="filter16_f_828_560" x="104.759" y="180.377" width="16.7138" height="16.9077" filterUnits="userSpaceOnUse" color-interpolation-filters="sRGB">
<feFlood flood-opacity="0" result="BackgroundImageFix"/>
<feBlend mode="normal" in="SourceGraphic" in2="BackgroundImageFix" result="shape"/>
<feGaussianBlur stdDeviation="2.05041" result="effect1_foregroundBlur_828_560"/>
</filter>
<filter id="filter17_f_828_560" x="117.834" y="190.577" width="12.0175" height="12.2939" filterUnits="userSpaceOnUse" color-interpolation-filters="sRGB">
<feFlood flood-opacity="0" result="BackgroundImageFix"/>
<feBlend mode="normal" in="SourceGraphic" in2="BackgroundImageFix" result="shape"/>
<feGaussianBlur stdDeviation="1.3308" result="effect1_foregroundBlur_828_560"/>
</filter>
<filter id="filter18_f_828_560" x="133.189" y="164.441" width="12.0514" height="11.6056" filterUnits="userSpaceOnUse" color-interpolation-filters="sRGB">
<feFlood flood-opacity="0" result="BackgroundImageFix"/>
<feBlend mode="normal" in="SourceGraphic" in2="BackgroundImageFix" result="shape"/>
<feGaussianBlur stdDeviation="1.44815" result="effect1_foregroundBlur_828_560"/>
</filter>
<filter id="filter19_f_828_560" x="144.196" y="174.283" width="11.4014" height="10.0083" filterUnits="userSpaceOnUse" color-interpolation-filters="sRGB">
<feFlood flood-opacity="0" result="BackgroundImageFix"/>
<feBlend mode="normal" in="SourceGraphic" in2="BackgroundImageFix" result="shape"/>
<feGaussianBlur stdDeviation="1.32276" result="effect1_foregroundBlur_828_560"/>
</filter>
<filter id="filter20_f_828_560" x="114.184" y="50.4083" width="77.6693" height="78.1175" filterUnits="userSpaceOnUse" color-interpolation-filters="sRGB">
<feFlood flood-opacity="0" result="BackgroundImageFix"/>
<feBlend mode="normal" in="SourceGraphic" in2="BackgroundImageFix" result="shape"/>
<feGaussianBlur stdDeviation="7.53975" result="effect1_foregroundBlur_828_560"/>
</filter>
<filter id="filter21_f_828_560" x="144.174" y="75.098" width="45.8684" height="45.0168" filterUnits="userSpaceOnUse" color-interpolation-filters="sRGB">
<feFlood flood-opacity="0" result="BackgroundImageFix"/>
<feBlend mode="normal" in="SourceGraphic" in2="BackgroundImageFix" result="shape"/>
<feGaussianBlur stdDeviation="1.55304" result="effect1_foregroundBlur_828_560"/>
</filter>
<filter id="filter22_f_828_560" x="179.643" y="161.956" width="11.4596" height="12.0153" filterUnits="userSpaceOnUse" color-interpolation-filters="sRGB">
<feFlood flood-opacity="0" result="BackgroundImageFix"/>
<feBlend mode="normal" in="SourceGraphic" in2="BackgroundImageFix" result="shape"/>
<feGaussianBlur stdDeviation="0.400428" result="effect1_foregroundBlur_828_560"/>
</filter>
<filter id="filter23_f_828_560" x="160.397" y="163.153" width="15.1591" height="13.9995" filterUnits="userSpaceOnUse" color-interpolation-filters="sRGB">
<feFlood flood-opacity="0" result="BackgroundImageFix"/>
<feBlend mode="normal" in="SourceGraphic" in2="BackgroundImageFix" result="shape"/>
<feGaussianBlur stdDeviation="0.175771" result="effect1_foregroundBlur_828_560"/>
</filter>
<radialGradient id="paint0_radial_828_560" cx="0" cy="0" r="1" gradientUnits="userSpaceOnUse" gradientTransform="translate(119.589 143.311) scale(71.5867 71.7154)">
<stop/>
<stop offset="1" stop-opacity="0"/>
</radialGradient>
<radialGradient id="paint1_radial_828_560" cx="0" cy="0" r="1" gradientUnits="userSpaceOnUse" gradientTransform="translate(98.1164 131.906) rotate(147.507) scale(45.9435 40.9459)">
<stop stop-color="white"/>
<stop offset="1" stop-color="white" stop-opacity="0"/>
</radialGradient>
<linearGradient id="paint2_linear_828_560" x1="217.325" y1="118.545" x2="174.466" y2="188.007" gradientUnits="userSpaceOnUse">
<stop stop-color="white"/>
<stop offset="1" stop-color="white" stop-opacity="0"/>
</linearGradient>
<radialGradient id="paint3_radial_828_560" cx="0" cy="0" r="1" gradientUnits="userSpaceOnUse" gradientTransform="translate(180.148 110.646) rotate(0.2631) scale(9.25335 9.00527)">
<stop stop-color="white" stop-opacity="0.416185"/>
<stop offset="1" stop-color="white" stop-opacity="0"/>
</radialGradient>
<radialGradient id="paint4_radial_828_560" cx="0" cy="0" r="1" gradientUnits="userSpaceOnUse" gradientTransform="translate(176.529 109.742) rotate(0.2631) scale(9.25335 9.00527)">
<stop stop-color="white" stop-opacity="0.416185"/>
<stop offset="1" stop-color="white" stop-opacity="0"/>
</radialGradient>
<radialGradient id="paint5_radial_828_560" cx="0" cy="0" r="1" gradientUnits="userSpaceOnUse" gradientTransform="translate(182.409 107.932) rotate(0.2631) scale(9.25335 9.00527)">
<stop stop-color="white" stop-opacity="0.416185"/>
<stop offset="1" stop-color="white" stop-opacity="0"/>
</radialGradient>
<radialGradient id="paint6_radial_828_560" cx="0" cy="0" r="1" gradientUnits="userSpaceOnUse" gradientTransform="translate(179.696 125.119) rotate(-25.3302) scale(9.10351 9.57903)">
<stop stop-color="white" stop-opacity="0.416185"/>
<stop offset="1" stop-color="white" stop-opacity="0"/>
</radialGradient>
<radialGradient id="paint7_radial_828_560" cx="0" cy="0" r="1" gradientUnits="userSpaceOnUse" gradientTransform="translate(113.21 139.592) scale(48.8467 50.2035)">
<stop stop-color="white"/>
<stop offset="1" stop-color="white" stop-opacity="0"/>
</radialGradient>
<radialGradient id="paint8_radial_828_560" cx="0" cy="0" r="1" gradientUnits="userSpaceOnUse" gradientTransform="translate(115.473 172.337) rotate(-25.6685) scale(95.3975 58.9895)">
<stop stop-color="white"/>
<stop offset="1" stop-color="white" stop-opacity="0"/>
</radialGradient>
<radialGradient id="paint9_radial_828_560" cx="0" cy="0" r="1" gradientUnits="userSpaceOnUse" gradientTransform="translate(161.898 176.547) scale(6.67563 6.03188)">
<stop stop-color="#466886"/>
<stop offset="1" stop-color="#617689" stop-opacity="0"/>
</radialGradient>
<radialGradient id="paint10_radial_828_560" cx="0" cy="0" r="1" gradientUnits="userSpaceOnUse" gradientTransform="translate(166.376 173.396) scale(12.0972 10.1465)">
<stop stop-color="#466886"/>
<stop offset="1" stop-color="#617689" stop-opacity="0"/>
</radialGradient>
<radialGradient id="paint11_radial_828_560" cx="0" cy="0" r="1" gradientUnits="userSpaceOnUse" gradientTransform="translate(140.122 191.681) scale(4.92893 5.20686)">
<stop stop-color="#466886"/>
<stop offset="1" stop-color="#617689" stop-opacity="0"/>
</radialGradient>
<radialGradient id="paint12_radial_828_560" cx="0" cy="0" r="1" gradientUnits="userSpaceOnUse" gradientTransform="translate(129.28 133.297) rotate(0.612784) scale(83.8204 83.9787)">
<stop stop-color="white" stop-opacity="0"/>
<stop offset="0.851163" stop-color="white"/>
<stop offset="0.962791" stop-color="white" stop-opacity="0"/>
<stop offset="1" stop-color="white" stop-opacity="0"/>
</radialGradient>
<radialGradient id="paint13_radial_828_560" cx="0" cy="0" r="1" gradientUnits="userSpaceOnUse" gradientTransform="translate(118.637 148.638) scale(48.8467 50.2035)">
<stop stop-color="white"/>
<stop offset="1" stop-color="white" stop-opacity="0"/>
</radialGradient>
<radialGradient id="paint14_radial_828_560" cx="0" cy="0" r="1" gradientUnits="userSpaceOnUse" gradientTransform="translate(129.28 133.297) rotate(0.612785) scale(83.8204 83.9787)">
<stop stop-color="white" stop-opacity="0"/>
<stop offset="0.851163" stop-color="white"/>
<stop offset="0.962791" stop-color="white" stop-opacity="0"/>
<stop offset="1" stop-color="white" stop-opacity="0"/>
</radialGradient>
<radialGradient id="paint15_radial_828_560" cx="0" cy="0" r="1" gradientUnits="userSpaceOnUse" gradientTransform="translate(109.139 152.934) scale(39.5748 38.4441)">
<stop stop-color="white"/>
<stop offset="1" stop-color="white" stop-opacity="0"/>
</radialGradient>
<radialGradient id="paint16_radial_828_560" cx="0" cy="0" r="1" gradientUnits="userSpaceOnUse" gradientTransform="translate(176.303 142.532) rotate(-50.1181) scale(20.7038 18.5653)">
<stop stop-color="white"/>
<stop offset="1" stop-color="white" stop-opacity="0"/>
</radialGradient>
<radialGradient id="paint17_radial_828_560" cx="0" cy="0" r="1" gradientUnits="userSpaceOnUse" gradientTransform="translate(177.887 135.521) rotate(-52.5717) scale(20.7038 18.5652)">
<stop stop-color="white"/>
<stop offset="1" stop-color="white" stop-opacity="0"/>
</radialGradient>
<radialGradient id="paint18_radial_828_560" cx="0" cy="0" r="1" gradientUnits="userSpaceOnUse" gradientTransform="translate(172.459 141.401) rotate(-3.28982) scale(20.7038 18.5652)">
<stop stop-color="white"/>
<stop offset="1" stop-color="white" stop-opacity="0"/>
</radialGradient>
<radialGradient id="paint19_radial_828_560" cx="0" cy="0" r="1" gradientUnits="userSpaceOnUse" gradientTransform="translate(164.996 133.26) rotate(-20.787) scale(21.2803 13.6454)">
<stop stop-color="white"/>
<stop offset="1" stop-color="white" stop-opacity="0"/>
</radialGradient>
<radialGradient id="paint20_radial_828_560" cx="0" cy="0" r="1" gradientUnits="userSpaceOnUse" gradientTransform="translate(174.72 119.24) rotate(-12.2068) scale(22.9236 22.4598)">
<stop stop-color="white"/>
<stop offset="1" stop-color="white" stop-opacity="0"/>
</radialGradient>
<radialGradient id="paint21_radial_828_560" cx="0" cy="0" r="1" gradientUnits="userSpaceOnUse" gradientTransform="translate(173.364 119.239) rotate(-25.3302) scale(9.10351 9.57903)">
<stop stop-color="white" stop-opacity="0.416185"/>
<stop offset="1" stop-color="white" stop-opacity="0"/>
</radialGradient>
<radialGradient id="paint22_radial_828_560" cx="0" cy="0" r="1" gradientUnits="userSpaceOnUse" gradientTransform="translate(129.28 133.297) rotate(0.612784) scale(83.8204 83.9787)">
<stop stop-color="white" stop-opacity="0"/>
<stop offset="0.851163" stop-color="white"/>
<stop offset="0.962791" stop-color="white" stop-opacity="0"/>
<stop offset="1" stop-color="white" stop-opacity="0"/>
</radialGradient>
<radialGradient id="paint23_radial_828_560" cx="0" cy="0" r="1" gradientUnits="userSpaceOnUse" gradientTransform="translate(129.28 133.297) rotate(0.612785) scale(83.8204 83.9787)">
<stop stop-color="white" stop-opacity="0"/>
<stop offset="0.851163" stop-color="white"/>
<stop offset="0.962791" stop-color="white" stop-opacity="0"/>
<stop offset="1" stop-color="white" stop-opacity="0"/>
</radialGradient>
<radialGradient id="paint24_radial_828_560" cx="0" cy="0" r="1" gradientUnits="userSpaceOnUse" gradientTransform="translate(154.594 112.003) rotate(-26.0887) scale(6.71862 7.2205)">
<stop stop-color="white" stop-opacity="0.416185"/>
<stop offset="1" stop-color="white" stop-opacity="0"/>
</radialGradient>
<radialGradient id="paint25_radial_828_560" cx="0" cy="0" r="1" gradientUnits="userSpaceOnUse" gradientTransform="translate(156.629 113.812) rotate(-25.3302) scale(9.10351 9.57903)">
<stop stop-color="white" stop-opacity="0.416185"/>
<stop offset="1" stop-color="white" stop-opacity="0"/>
</radialGradient>
<radialGradient id="paint26_radial_828_560" cx="0" cy="0" r="1" gradientUnits="userSpaceOnUse" gradientTransform="translate(157.534 114.264) rotate(-25.3302) scale(9.10351 9.57903)">
<stop stop-color="white" stop-opacity="0.416185"/>
<stop offset="1" stop-color="white" stop-opacity="0"/>
</radialGradient>
<radialGradient id="paint27_radial_828_560" cx="0" cy="0" r="1" gradientUnits="userSpaceOnUse" gradientTransform="translate(160.7 115.169) rotate(-25.3302) scale(9.10351 9.57903)">
<stop stop-color="white" stop-opacity="0.416185"/>
<stop offset="1" stop-color="white" stop-opacity="0"/>
</radialGradient>
<radialGradient id="paint28_radial_828_560" cx="0" cy="0" r="1" gradientUnits="userSpaceOnUse" gradientTransform="translate(161.152 115.169) rotate(-25.3302) scale(9.10351 9.57903)">
<stop stop-color="white" stop-opacity="0.416185"/>
<stop offset="1" stop-color="white" stop-opacity="0"/>
</radialGradient>
<radialGradient id="paint29_radial_828_560" cx="0" cy="0" r="1" gradientUnits="userSpaceOnUse" gradientTransform="translate(161.604 115.621) rotate(-25.3302) scale(9.10351 9.57903)">
<stop stop-color="white" stop-opacity="0.416185"/>
<stop offset="1" stop-color="white" stop-opacity="0"/>
</radialGradient>
<radialGradient id="paint30_radial_828_560" cx="0" cy="0" r="1" gradientUnits="userSpaceOnUse" gradientTransform="translate(166.579 115.621) rotate(-25.3302) scale(9.10351 9.57903)">
<stop stop-color="white" stop-opacity="0.416185"/>
<stop offset="1" stop-color="white" stop-opacity="0"/>
</radialGradient>
<radialGradient id="paint31_radial_828_560" cx="0" cy="0" r="1" gradientUnits="userSpaceOnUse" gradientTransform="translate(166.579 115.621) rotate(-25.3302) scale(9.10351 9.57903)">
<stop stop-color="white" stop-opacity="0.416185"/>
<stop offset="1" stop-color="white" stop-opacity="0"/>
</radialGradient>
<radialGradient id="paint32_radial_828_560" cx="0" cy="0" r="1" gradientUnits="userSpaceOnUse" gradientTransform="translate(169.745 112.455) rotate(-25.3302) scale(9.10351 9.57903)">
<stop stop-color="white" stop-opacity="0.416185"/>
<stop offset="1" stop-color="white" stop-opacity="0"/>
</radialGradient>
<radialGradient id="paint33_radial_828_560" cx="0" cy="0" r="1" gradientUnits="userSpaceOnUse" gradientTransform="translate(158.89 122.405) rotate(-25.3302) scale(9.10351 9.57903)">
<stop stop-color="white" stop-opacity="0.416185"/>
<stop offset="1" stop-color="white" stop-opacity="0"/>
</radialGradient>
<radialGradient id="paint34_radial_828_560" cx="0" cy="0" r="1" gradientUnits="userSpaceOnUse" gradientTransform="translate(166.579 125.571) rotate(-25.3302) scale(9.10351 9.57903)">
<stop stop-color="white" stop-opacity="0.416185"/>
<stop offset="1" stop-color="white" stop-opacity="0"/>
</radialGradient>
<radialGradient id="paint35_radial_828_560" cx="0" cy="0" r="1" gradientUnits="userSpaceOnUse" gradientTransform="translate(162.509 104.766) rotate(0.155078) scale(6.25247 3.58659)">
<stop stop-color="white" stop-opacity="0.416185"/>
<stop offset="1" stop-color="white" stop-opacity="0"/>
</radialGradient>
<radialGradient id="paint36_radial_828_560" cx="0" cy="0" r="1" gradientUnits="userSpaceOnUse" gradientTransform="translate(159.795 102.505) rotate(0.155078) scale(6.25247 3.58659)">
<stop stop-color="white" stop-opacity="0.416185"/>
<stop offset="1" stop-color="white" stop-opacity="0"/>
</radialGradient>
<radialGradient id="paint37_radial_828_560" cx="0" cy="0" r="1" gradientUnits="userSpaceOnUse" gradientTransform="translate(164.77 107.932) rotate(0.155078) scale(6.25247 3.58659)">
<stop stop-color="white" stop-opacity="0.416185"/>
<stop offset="1" stop-color="white" stop-opacity="0"/>
</radialGradient>
<radialGradient id="paint38_radial_828_560" cx="0" cy="0" r="1" gradientUnits="userSpaceOnUse" gradientTransform="translate(160.926 100.243) rotate(0.155078) scale(6.25247 3.58659)">
<stop stop-color="white"/>
<stop offset="1" stop-color="white" stop-opacity="0"/>
</radialGradient>
<radialGradient id="paint39_radial_828_560" cx="0" cy="0" r="1" gradientUnits="userSpaceOnUse" gradientTransform="translate(159.795 102.053) rotate(0.155078) scale(6.25247 3.58659)">
<stop stop-color="white"/>
<stop offset="1" stop-color="white" stop-opacity="0"/>
</radialGradient>
<radialGradient id="paint40_radial_828_560" cx="0" cy="0" r="1" gradientUnits="userSpaceOnUse" gradientTransform="translate(154.82 99.3387) rotate(0.155078) scale(6.25247 3.58659)">
<stop stop-color="white"/>
<stop offset="1" stop-color="white" stop-opacity="0"/>
</radialGradient>
<radialGradient id="paint41_radial_828_560" cx="0" cy="0" r="1" gradientUnits="userSpaceOnUse" gradientTransform="translate(151.654 95.7205) rotate(0.155078) scale(6.25247 3.58659)">
<stop stop-color="white"/>
<stop offset="1" stop-color="white" stop-opacity="0"/>
</radialGradient>
<radialGradient id="paint42_radial_828_560" cx="0" cy="0" r="1" gradientUnits="userSpaceOnUse" gradientTransform="translate(156.177 97.9818) rotate(0.155078) scale(6.25247 3.58659)">
<stop stop-color="white"/>
<stop offset="1" stop-color="white" stop-opacity="0"/>
</radialGradient>
<radialGradient id="paint43_radial_828_560" cx="0" cy="0" r="1" gradientUnits="userSpaceOnUse" gradientTransform="translate(163.866 105.671) rotate(0.155078) scale(6.25247 3.58659)">
<stop stop-color="white"/>
<stop offset="1" stop-color="white" stop-opacity="0"/>
</radialGradient>
<radialGradient id="paint44_radial_828_560" cx="0" cy="0" r="1" gradientUnits="userSpaceOnUse" gradientTransform="translate(129.193 133.711) scale(74.829 74.789)">
<stop stop-color="white" stop-opacity="0"/>
<stop offset="0.95" stop-color="white" stop-opacity="0"/>
<stop offset="0.97" stop-color="white"/>
<stop offset="0.991163" stop-color="white" stop-opacity="0"/>
<stop offset="1" stop-color="white" stop-opacity="0"/>
</radialGradient>
<radialGradient id="paint45_radial_828_560" cx="0" cy="0" r="1" gradientUnits="userSpaceOnUse" gradientTransform="translate(129.28 133.297) rotate(0.612785) scale(83.8204 83.9787)">
<stop stop-color="white" stop-opacity="0"/>
<stop offset="0.851163" stop-color="white"/>
<stop offset="0.962791" stop-color="white" stop-opacity="0"/>
<stop offset="1" stop-color="white" stop-opacity="0"/>
</radialGradient>
<radialGradient id="paint46_radial_828_560" cx="0" cy="0" r="1" gradientUnits="userSpaceOnUse" gradientTransform="translate(101.817 84.7109) rotate(-27.0624) scale(23.3492 18.7653)">
<stop stop-color="#E5F4FF"/>
<stop offset="0.232558" stop-color="#E5F4FF"/>
<stop offset="1" stop-color="#254863" stop-opacity="0"/>
</radialGradient>
<radialGradient id="paint47_radial_828_560" cx="0" cy="0" r="1" gradientUnits="userSpaceOnUse" gradientTransform="translate(98.0936 80.8143) rotate(-27.1072) scale(16.2613 13.0837)">
<stop stop-color="#E5F4FF"/>
<stop offset="0.232558" stop-color="#E5F4FF"/>
<stop offset="1" stop-color="#254863" stop-opacity="0"/>
</radialGradient>
<radialGradient id="paint48_radial_828_560" cx="0" cy="0" r="1" gradientUnits="userSpaceOnUse" gradientTransform="translate(98.4486 80.0857) rotate(-63.4068) scale(15.7373 15.4012)">
<stop stop-color="#E5F4FF"/>
<stop offset="1" stop-color="#E5F4FF" stop-opacity="0"/>
</radialGradient>
<radialGradient id="paint49_radial_828_560" cx="0" cy="0" r="1" gradientUnits="userSpaceOnUse" gradientTransform="translate(123.42 80.0523) scale(8.20781 7.56406)">
<stop/>
<stop offset="1" stop-opacity="0"/>
</radialGradient>
<radialGradient id="paint50_radial_828_560" cx="0" cy="0" r="1" gradientUnits="userSpaceOnUse" gradientTransform="translate(153.019 89.4671) scale(23.7551 23.9791)">
<stop stop-color="white"/>
<stop offset="1" stop-color="white" stop-opacity="0"/>
</radialGradient>
<radialGradient id="paint51_radial_828_560" cx="0" cy="0" r="1" gradientUnits="userSpaceOnUse" gradientTransform="translate(167.108 97.6065) rotate(37.6232) scale(22.6611 15.9124)">
<stop stop-color="white" stop-opacity="0.416185"/>
<stop offset="1" stop-color="white" stop-opacity="0"/>
</radialGradient>
<radialGradient id="paint52_radial_828_560" cx="0" cy="0" r="1" gradientUnits="userSpaceOnUse" gradientTransform="translate(160.858 90.1085) rotate(20.3476) scale(6.35501 4.98828)">
<stop stop-color="white" stop-opacity="0.416185"/>
<stop offset="1" stop-color="white" stop-opacity="0"/>
</radialGradient>
<radialGradient id="paint53_radial_828_560" cx="0" cy="0" r="1" gradientUnits="userSpaceOnUse" gradientTransform="translate(155.926 85.9741) rotate(5.58123) scale(6.35501 4.98829)">
<stop stop-color="white"/>
<stop offset="1" stop-color="white" stop-opacity="0"/>
</radialGradient>
<radialGradient id="paint54_radial_828_560" cx="0" cy="0" r="1" gradientUnits="userSpaceOnUse" gradientTransform="translate(185.373 167.964) scale(4.92893 5.20686)">
<stop stop-color="#466886"/>
<stop offset="1" stop-color="#617689" stop-opacity="0"/>
</radialGradient>
<radialGradient id="paint55_radial_828_560" cx="0" cy="0" r="1" gradientUnits="userSpaceOnUse" gradientTransform="translate(155.316 90.3847) rotate(5.58123) scale(6.35501 4.98829)">
<stop stop-color="white"/>
<stop offset="1" stop-color="white" stop-opacity="0"/>
</radialGradient>
<radialGradient id="paint56_radial_828_560" cx="0" cy="0" r="1" gradientUnits="userSpaceOnUse" gradientTransform="translate(164.81 173.318) rotate(-39.116) scale(8.55064 4.82137)">
<stop stop-color="#466886"/>
<stop offset="1" stop-color="#617689" stop-opacity="0"/>
</radialGradient>
<radialGradient id="paint57_radial_828_560" cx="0" cy="0" r="1" gradientUnits="userSpaceOnUse" gradientTransform="translate(129.28 133.297) rotate(0.612785) scale(83.8204 83.9787)">
<stop stop-color="white" stop-opacity="0"/>
<stop offset="0.851163" stop-color="white"/>
<stop offset="0.962791" stop-color="white" stop-opacity="0"/>
<stop offset="1" stop-color="white" stop-opacity="0"/>
</radialGradient>
<radialGradient id="paint58_radial_828_560" cx="0" cy="0" r="1" gradientUnits="userSpaceOnUse" gradientTransform="translate(171.777 101.781) rotate(5.58123) scale(6.35501 4.98829)">
<stop stop-color="white"/>
<stop offset="1" stop-color="white" stop-opacity="0"/>
</radialGradient>
</defs>
</svg>
