<svg width="256" height="256" viewBox="0 0 256 256" fill="none" xmlns="http://www.w3.org/2000/svg">
<path d="M196 0H60C26.8629 0 0 26.8629 0 60V196C0 229.137 26.8629 256 60 256H196C229.137 256 256 229.137 256 196V60C256 26.8629 229.137 0 196 0Z" fill="#F4F2ED"/>
<path d="M129.382 118.889L147.818 65.2344L93.0381 142.71L120.1 143.536L104.734 190.486L159.116 119.795L129.382 118.889Z" fill="#131313"/>
<path d="M76.1106 66.4956C75.1476 70.3273 74.6713 74.7929 74.7266 79.7907C73.2284 80.234 71.7102 80.7146 70.1937 81.2359C67.4197 82.1888 64.6603 83.2343 62.0012 84.3078C61.5435 76.7466 62.0346 69.6811 63.605 63.4338C65.9011 54.2988 70.6549 46.4384 78.5895 41.9172C92.5415 33.9674 110.292 39.4219 126.13 50.3052C140.174 59.9559 154.414 74.9145 166.589 93.4047C163.571 92.7498 160.15 92.0854 156.458 91.5005C153.902 91.0956 151.316 90.7655 148.836 90.497C139.19 77.7669 128.753 67.6025 118.768 60.7413C103.879 50.5105 92.1096 48.897 85.0322 52.9299C81.0167 55.2178 77.8478 59.5851 76.1106 66.4956Z" fill="#131313"/>
<path d="M152.264 95.1775C155.332 99.5119 158.302 104.108 161.129 108.94C173.693 130.418 180.757 151.959 182.243 169.246C183.776 187.087 179.307 197.953 172.23 201.986C168.272 204.241 162.957 204.782 156.168 202.913C151.947 201.75 147.339 199.695 142.492 196.76L141.869 197.325C138.648 200.239 135.201 202.984 132.133 205.289C139.016 209.899 145.965 213.305 152.705 215.161C161.735 217.648 170.855 217.452 178.672 212.998C192.624 205.049 196.712 187.15 195.082 168.172C193.403 148.639 185.581 125.306 172.287 102.582C171.482 101.206 170.665 99.8452 169.837 98.5016C166.046 97.5845 161.21 96.5468 155.777 95.6861C154.609 95.5013 153.434 95.3323 152.264 95.1775Z" fill="#131313"/>
<path d="M176.999 82.9974C162.495 79.0663 145.777 76.8604 128.082 76.8604C101.495 76.8604 77.1099 81.8408 59.1308 90.1727C41.6615 98.2677 28 110.712 28 126.611C28 135.556 32.4245 143.476 39.1677 149.966C43.9711 154.588 50.116 158.664 57.2174 162.139C57.7911 157.889 58.6342 153.657 59.8124 149.131C55.0841 146.552 51.1755 143.761 48.1633 140.862C43.0848 135.974 40.8849 131.139 40.8849 126.611C40.8849 118.546 48.1854 109.293 64.6072 101.683C80.5191 94.3097 102.954 89.5767 128.082 89.5767C145.662 89.5767 161.923 91.8932 175.555 95.8096C175.846 94.1712 176.134 92.3338 176.38 90.3617C176.695 87.8352 176.885 85.2407 176.999 82.9974Z" fill="#131313"/>
<path d="M180.23 97.2489C184.291 98.5862 188.08 100.072 191.558 101.683C207.979 109.293 215.28 118.546 215.28 126.611C215.28 131.139 213.08 135.974 208.001 140.862C204.823 143.921 200.647 146.86 195.562 149.555C196.473 153.161 197.383 157.484 198.014 162.223L198.059 162.568C205.537 159.001 211.995 154.78 216.997 149.966C223.74 143.476 228.165 135.556 228.165 126.611C228.165 110.712 214.503 98.2676 197.034 90.1726C192.357 88.0052 187.247 86.0651 181.778 84.3799C181.655 86.451 181.468 88.7591 181.184 91.0366C180.902 93.3088 180.566 95.4084 180.23 97.2489Z" fill="#131313"/>
<path d="M141.376 57.2355C152.486 49.7156 164.88 49.2831 171.674 53.1539C178.751 57.1867 183.22 68.0528 181.687 85.8932C181.183 91.7618 180.035 98.1205 178.249 104.8C178.316 104.931 178.388 105.073 178.466 105.226C178.939 106.153 179.608 107.477 180.395 109.068C181.968 112.249 184.017 116.509 185.911 120.809C186.05 121.125 186.191 121.455 186.335 121.797C190.839 109.53 193.606 97.6777 194.526 86.9683C196.157 67.9894 192.068 50.091 178.116 42.1412C165.382 34.8853 146.564 37.2658 131.705 48.4848C134.616 50.8973 137.806 53.6958 140.733 56.5985L141.376 57.2355Z" fill="#131313"/>
<path d="M184.039 127.72C183.312 125.741 182.61 123.946 181.972 122.5C180.112 118.277 178.093 114.077 176.535 110.927C176.52 110.895 176.504 110.863 176.488 110.832C172.916 122.136 167.606 134.177 160.573 146.199C148.009 167.677 132.638 184.485 118.212 194.398C103.323 204.629 91.5543 206.242 84.4763 202.209C79.0824 199.136 75.1571 192.179 74.3254 180.669C73.5048 169.313 75.8571 154.769 81.5761 138.87C84.292 131.32 89.4252 120.862 94.0153 112.077C96.2861 107.732 98.3804 103.877 99.9069 101.11C100.67 99.7267 101.29 98.6169 101.718 97.8551C102.336 96.7616 102.336 96.7616 102.336 96.7616L103.084 95.4502C101.801 95.6308 100.429 95.8314 98.9646 96.0525C94.7221 96.6942 90.4444 97.5671 86.7403 98.4116C85.4967 100.702 84.0686 103.368 82.5637 106.249C77.9636 115.052 72.4681 126.18 69.4337 134.615C63.3202 151.611 60.4895 167.963 61.4731 181.574C62.4456 195.031 67.3116 207.112 78.0337 213.222C91.9857 221.172 109.736 215.718 125.574 204.834C141.875 193.633 158.438 175.282 171.732 152.557C176.57 144.288 180.682 135.938 184.039 127.72Z" fill="#131313"/>
</svg>
