<svg width="256" height="256" viewBox="0 0 256 256" fill="none" xmlns="http://www.w3.org/2000/svg">
<g clip-path="url(#clip0_1_620)">
<path d="M196 0H60C26.8629 0 0 26.8629 0 60V196C0 229.137 26.8629 256 60 256H196C229.137 256 256 229.137 256 196V60C256 26.8629 229.137 0 196 0Z" fill="#F4F2ED"/>
<path d="M90.8178 144.759C100.475 144.759 108.304 136.93 108.304 127.273C108.304 117.615 100.475 109.786 90.8178 109.786C81.1603 109.786 73.3314 117.615 73.3314 127.273C73.3314 136.93 81.1603 144.759 90.8178 144.759ZM49.4864 179.732C59.1438 179.732 66.9727 171.903 66.9727 162.245C66.9727 152.588 59.1438 144.759 49.4864 144.759C39.8289 144.759 32 152.588 32 162.245C32 171.903 39.8289 179.732 49.4864 179.732ZM207.394 179.732C217.051 179.732 224.88 171.903 224.88 162.245C224.88 152.588 217.051 144.759 207.394 144.759C197.736 144.759 189.907 152.588 189.907 162.245C189.907 171.903 197.736 179.732 207.394 179.732Z" fill="black"/>
<path d="M149.962 128.009C149.403 122.167 149.119 117.305 144.643 113.887C138.975 109.559 132.555 112.368 124.646 109.513C116.875 107.633 111.111 100.733 111.111 92.5095C111.111 82.8393 119.081 75 128.912 75C136.193 75 142.454 79.3002 145.211 85.4596C149.432 93.4759 146.689 101.634 151.991 105.743C158.27 110.609 166.734 107.046 176.179 111.656C179.214 113.051 181.783 115.263 183.593 118.004C185.403 120.745 186.455 124.016 186.455 127.528C186.455 135.752 180.691 142.652 172.92 144.532C165.011 147.386 158.591 144.578 152.923 148.906C146.549 153.773 149.961 161.916 144.767 170.517C141.818 176.18 135.825 180.057 128.912 180.057C119.081 180.057 111.111 172.218 111.111 162.547C111.111 155.523 115.317 149.464 121.386 146.675C130.831 142.065 139.296 145.628 145.575 140.762C149.197 137.955 149.962 133.625 149.962 128.009Z" fill="#D0021B"/>
</g>
<defs>
<clipPath id="clip0_1_620">
<rect width="256" height="256" fill="white"/>
</clipPath>
</defs>
</svg>
