<svg width="256" height="256" viewBox="0 0 256 256" fill="none" xmlns="http://www.w3.org/2000/svg">
<g clip-path="url(#clip0_12_19)">
<path d="M253.606 -36.1025H11.0561C-8.08055 -36.1025 -23.5939 -21.4083 -23.5939 -3.28203V242.872C-23.5939 260.998 -8.08055 275.692 11.0561 275.692H253.606C272.743 275.692 288.256 260.998 288.256 242.872V-3.28203C288.256 -21.4083 272.743 -36.1025 253.606 -36.1025Z" fill="#007AF4"/>
<path d="M127.146 55.0001C140.953 55.0001 152.146 43.8072 152.146 30.0001C152.146 16.1929 140.953 5.00006 127.146 5.00006C113.339 5.00006 102.146 16.1929 102.146 30.0001C102.146 43.8072 113.339 55.0001 127.146 55.0001Z" fill="white"/>
<path d="M126.146 250.769C139.953 250.769 151.146 239.576 151.146 225.769C151.146 211.962 139.953 200.769 126.146 200.769C112.339 200.769 101.146 211.962 101.146 225.769C101.146 239.576 112.339 250.769 126.146 250.769Z" fill="white"/>
<path d="M128.863 45.9487C123.669 85.3333 175.644 75.4872 175.644 103.385C175.644 119.795 155.277 124.275 128.863 126.359C108.073 128 80.3562 128 80.3562 154.256C80.3562 180.513 135.796 172.308 128.863 210.051M94.6736 73.3637C94.6736 123.543 174.888 133.389 174.888 180.424" stroke="white" stroke-width="10"/>
</g>
<defs>
<clipPath id="clip0_12_19">
<rect width="256" height="256" rx="50" fill="white"/>
</clipPath>
</defs>
</svg>
