<svg width="256" height="256" viewBox="0 0 256 256" fill="none" xmlns="http://www.w3.org/2000/svg">
<path d="M196 0H60C26.8629 0 0 26.8629 0 60V196C0 229.137 26.8629 256 60 256H196C229.137 256 256 229.137 256 196V60C256 26.8629 229.137 0 196 0Z" fill="#F4F2ED"/>
<path d="M128.5 175.626L196.96 191.924V63.7129L128.5 80.0105V175.626Z" fill="#205B97"/>
<path d="M196.96 63.7129L210 70.2319V185.405L196.96 191.924V63.7129ZM128.5 175.626L60.04 191.924V63.7129L128.5 80.0105V175.626Z" fill="#5193CE"/>
<path d="M60.04 63.7129L47 70.2319V185.405L60.04 191.924V63.7129Z" fill="#205B97"/>
<path d="M145.89 218L171.97 204.962V51.0381L145.89 38L137.917 123.474L145.89 218Z" fill="#5193CE"/>
<path d="M111.11 218L85.03 204.962V51.0381L111.11 38L119.083 123.474L111.11 218Z" fill="#205B97"/>
<path d="M111.11 38H146.243V217.637H111.11V38Z" fill="#2E73B7"/>
</svg>
