<svg width="256" height="256" viewBox="0 0 256 256" fill="none" xmlns="http://www.w3.org/2000/svg" id="renpy">
<style>
#renpy{
    rect {fill: #242938}

    @media (prefers-color-scheme: light) {
        rect {fill: #F4F2ED}
    }
}
</style>
<rect width="256" height="256" rx="60" fill="#242938"/>
<path d="M184.194 63.6078C174.011 55.6875 168.242 56.2539 160.787 53.5794C142.892 33.9794 127.847 32.1919 112.67 29.5825C92.8234 39.4619 83.9453 52.9981 80.8531 68.4622C74.9081 73.3989 68.8359 78.272 64.2437 83.8848C68.498 85.9839 74.6247 87.1469 81.1906 88.0905L174.519 72.103C178.473 69.7916 181.374 66.7294 184.194 63.6078Z" fill="#EADBCC"/>
<path d="M168.161 180.741C168.171 180.121 168.412 179.917 168.712 179.817C170.803 179.023 174.731 178.237 176.341 178.697C177.182 179.022 180.466 180.626 180.671 184.171L177.64 188.16L168.161 180.741Z" fill="#FAEEE3"/>
<path d="M165.212 178.013L169.214 180.024L168.974 181.424L163.354 181.38L165.212 178.013Z" fill="#C8C6C0"/>
<path d="M171.686 178.953C171.288 179.177 171.071 179.415 170.978 179.705C170.885 179.996 170.997 180.144 171.55 180.344C173.233 180.957 174.859 182.397 176.461 184.176C177.266 184.787 177.533 184.889 177.677 183.742L175.6 180.243C177.258 181.647 178.649 183.855 180.671 184.171L179.339 188.028L168.176 181.468C168.062 180.41 168.244 179.97 168.69 179.795L171.686 178.953Z" fill="#DDB1A3"/>
<path d="M93.8844 81.7562L99.832 127.762L122.565 130.98L122.705 137.909L132.37 141.538L134.208 135.495L134.239 131.645C137.144 131.166 140.719 129.749 144.181 128.491L161.776 122.6L170.558 72.2564L133.079 66.0717L93.8844 81.7562Z" fill="#FBEFE3"/>
<path d="M93.8844 81.7562L99.832 127.762L122.565 130.98L122.705 137.909L132.37 141.538L134.208 135.495L134.239 131.645C137.144 131.166 140.719 129.749 144.181 128.491L161.776 122.6L170.558 72.2564L133.079 66.0717L93.8844 81.7562Z" fill="url(#paint0_radial_0_1)"/>
<path d="M113.302 163.275L108.841 182.08L95.5059 181.387L85.4558 187.448C80.065 186.116 75.7901 182.998 71.54 179.841L71.4782 169.976L76.395 162.957L79.7966 146.66L78.2194 144.464C78.5772 141.752 80.066 139.581 85.5174 139.3L113.302 163.275Z" fill="white"/>
<path d="M120.895 143.444C109.748 148.658 111.132 155.044 109.872 166.483L108.929 170.032C109.147 172.947 107.487 173.823 105.65 176.966C104.965 178.086 106.161 178.385 106.716 178.576C106.291 179.8 106.407 180.378 106.524 181.632C107.683 184.355 107.608 187.488 108 190.04C105.606 191.361 107.29 193.14 109.378 193.473L131.843 210.364C134.559 210.982 137.065 209.855 139.744 209.204L156.205 204.166C160.069 202.233 164.635 200.972 163.688 196.538L169.199 192.799L153.363 157.852C155.433 146.036 153.343 144.308 144.646 137.26L120.895 143.444Z" fill="#B5A396"/>
<path d="M120.895 143.444L135.306 158.689L141.598 143.464L142.516 144.163L144.637 140.337L134.819 133.974L131.627 140.271L131.014 140.621L123.82 135.854L119.644 142.108L120.895 143.444Z" fill="white"/>
<path d="M93.3422 150.278C92.5365 150.433 92.0309 151.096 91.4403 151.623C89.1808 154.08 88.4639 157.491 89.0283 160.065C90.7624 164.068 93.7645 164.866 97.888 165.091C99.4077 164.642 100.556 164.24 102.109 164.24C102.286 162.988 102.509 162.408 103.593 161.875C106.623 161.477 107.793 162.04 111.386 160.746C112.44 160.546 113.268 160.259 114.324 160.359C114.811 160.509 114.967 160.806 115.236 161.21C118.334 162.079 121.036 162.477 123.137 161.21C126.587 157.533 127.469 154.287 124.684 150.139C124.052 149.435 123.497 148.883 122.627 148.206L119.022 146.166L118.614 146.76C116.289 150.456 113.705 151.77 109.902 153.541C104.252 154.877 100.327 154.799 95.5842 152.752C94.4476 151.905 94.0178 151.432 93.3422 150.278Z" fill="#C8C8C8"/>
<path d="M90.5188 158.927C90.5898 158.866 90.666 158.818 90.8434 158.927C91.5888 159.385 92.5221 160.127 93.446 160.745C95.712 162.415 98.6915 161.734 100.891 161.135C105.681 159.805 111.38 156.586 114.03 151.67C110.044 153.949 106.72 154.359 102.279 154.453C98.3643 153.955 95.6213 153.716 93.4345 150.557L93.1306 150.288C87.992 153.738 87.4204 160.398 92.213 163.978C95.7153 165.385 98.2352 165.459 101.56 164.084C98.6086 164.472 90.2178 165.415 90.5188 158.927Z" fill="url(#paint1_linear_0_1)"/>
<path d="M99.1125 104.183L97.0327 82.1062L111.027 73.8845C107.552 84.22 101.62 94.8844 99.1125 104.183Z" fill="url(#paint2_linear_0_1)"/>
<path d="M101.227 116.416C103.102 118.757 105.083 120.73 107.288 121.92L102.34 124.518L101.227 116.416Z" fill="url(#paint3_linear_0_1)"/>
<path d="M80.6609 78.2781L80.4662 79.7318C78.7114 93.9658 77.9303 108.416 74.472 122.272C75.272 121.307 75.8904 119.615 76.4878 117.84C76.3002 120.448 76.5 123.289 75.5601 125.447L82.1777 125.509C82.7962 124.316 83.4147 121.87 84.0332 119.942C84.6445 121.658 84.7773 123.166 84.9609 125.756C85.4958 125.319 85.9515 124.565 86.3216 123.468C86.4356 124.375 86.4876 125.282 86.7545 126.189L88.6867 126.631C90.0408 124.108 91.6197 123.333 92.2661 123.041C95.4901 122.327 98.1495 123.612 101.039 123.46C101.64 123.408 102.218 123.188 102.799 122.889C99.0368 105.242 99.2267 95.5654 100.6 88.7466C102.674 85.3723 105.529 82.3662 107.879 79.9204C105.313 85.5807 103.626 90.9419 102.992 96.6016C103.691 95.7092 104.11 94.5363 104.599 93.4337C104.844 95.6468 104.778 98.2818 105.78 99.4688C108.746 89.9271 115.141 82.3391 119.315 76.7501C116.645 83.3202 113.096 90.8359 113.571 95.6641C116.932 88.1701 121.89 82.4643 127.209 76.9829C123.879 82.3427 121.187 91.8051 121.559 93.4704C123.625 87.278 127.787 79.856 131.013 74.9782C129.131 81.0807 125.285 87.4718 125.533 93.286C125.885 91.8739 126.503 90.9027 127.203 90.0699C127.218 93.3046 126.704 97.0634 127.636 100.708C129.102 95.921 131.09 92.3532 133.016 88.833C133.323 88.2466 133.606 87.6444 134.031 87.1366C133.841 89.411 133.491 92.0326 133.637 93.7404C134.566 90.2519 135.556 86.701 137.041 83.7693C136.002 91.339 134.656 98.7823 138.667 105.024C140.174 104.353 143.406 99.2209 143.778 95.2351C144.373 96.1526 144.636 96.8226 144.52 99.0696C147.351 95.4659 148.977 85.5038 148.107 77.3915C150.104 84.2219 151.394 90.701 152.332 97.9321C153.29 98.1329 154.169 98.6053 154.92 99.3633C157.313 92.6986 157.468 85.4213 157.323 78.1336C159.5 86.3846 159.671 95.3852 159.265 103.427C160.32 102.64 161.403 100.528 161.911 98.3763C161.958 100.448 162.133 101.587 162.698 103.442C160.341 109.436 157.834 115.42 155.46 121.408C155.312 121.743 154.948 122.266 154.7 122.458C151.204 124.808 148.016 126.869 144.466 128.446L146.558 128.771C151.034 126.973 154.907 126.721 159.293 127.484C159.294 127.483 159.295 127.482 159.297 127.48C159.289 127.476 159.289 127.476 159.298 127.479C162.213 124.917 163.644 122.081 165.286 118.259C164.861 121.948 164.691 124.573 164.024 128.341C165.099 127.321 166.037 126.536 167.224 124.617C166.901 125.797 166.584 126.978 166.831 128.159C168.357 126.944 170.814 122.398 170.744 117.902C171.407 120.154 171.76 125.224 171.486 128.788C175.159 123.459 175.405 119.677 177.094 112.672C177.304 117.6 177.057 115.509 177.774 119.233C178.904 103.853 179.436 77.4718 169.556 61.9281C141.203 58.6571 108.725 66.1561 80.6609 78.2781ZM119.03 77.1704L119.031 77.165C118.405 77.8388 118.397 77.8472 119.03 77.1704Z" fill="#FF7F7F"/>
<path d="M143.478 137.559L143.003 138.866L144.637 140.336L142.516 144.163L141.598 143.463L140.898 145.081C146.111 147.649 150.558 151.364 151.613 160.169C150.028 161.884 148.492 173.158 147.583 167.131L142.057 168.785C141.823 167.579 142.12 166.525 141.16 165.111C140.525 163.314 140.117 163.6 139.538 164.162C139.137 168.708 138.804 173.556 138.624 177.881C137.516 179.015 136.408 179.939 135.3 180.724C135.073 174.28 134.466 167.837 134.032 161.394C133.945 168.419 133.941 175.898 133.638 181.73C129.03 184.816 123.66 187.468 112.627 189.768C111.134 190.31 109.952 190.224 111.888 189.344C112.733 188.851 112.7 189.095 112.473 188.202C111.825 185.466 111.477 182.61 111.222 179.716C111.119 178.541 111.1 178.402 109.841 178.812C109.059 178.958 108.554 178.751 109.058 177.862C109.585 176.608 110.407 175.453 111.236 174.3C112.191 172.972 111.946 173.2 110.677 174.239C109.281 175.36 107.909 176.453 106.849 177.19C105.843 177.888 106.192 177.243 106.218 176.132L105.299 177.837L106.715 178.574L106.371 180.68L106.786 181.708L107.42 185.075L108 190.039L106.917 190.804L106.699 192.094L109.377 193.472C151.655 198.425 164.178 149.558 143.478 137.559ZM115.139 166.555L113.535 170.303C112.778 172.074 112.999 172.305 114.463 173.749L114.787 183.523C114.827 184.729 114.603 185.104 115.924 184.814L125.781 183.645L127.204 183.335L115.886 183.212C116.384 180.22 116.132 177.21 115.908 174.18C115.844 173.317 115.451 172.969 116.516 172.918C121.316 172.291 126.115 171.982 130.914 171.677C130.964 171.048 131.168 170.612 131.861 170.052C127.995 169.998 120.45 170.532 115.699 170.377C114.913 170.35 114.487 170.488 114.761 169.464L115.139 166.555Z" fill="#887C74"/>
<path d="M156.891 189.859L156.427 190.261C157.913 190.855 160.061 191.767 160.23 192.89C160.47 192.283 160.457 191.6 156.891 189.859ZM155.715 191.004L154.479 192.426L155.53 198.92L155.715 191.004ZM156.543 191.648C156.34 191.651 156.323 191.892 156.356 192.573L156.208 202.196C156.204 203.258 156.336 203.155 155.412 203.681C154.363 204.252 153.236 204.434 152.091 204.528C151.403 204.585 150.588 204.732 151.692 204.129L152.622 203.493C153.838 202.662 153.551 202.852 152.421 203.323C150.179 204.256 147.873 205.043 145.388 205.429C144.446 205.574 143.642 205.841 144.143 204.58C144.859 201.93 146.486 199.552 147.939 197.123L130.708 209.674L133.638 210.724L156.203 204.164L161.495 201.606L163.507 199.419L163.682 197.713C163.079 199.496 160.996 200.899 158.824 202.017C158.065 202.408 156.857 203.096 158.164 201.898L159.601 200.336C160.799 199.037 159.349 200.039 158.456 200.272C158.555 198.229 158.98 197.706 159.308 196.729L159.543 198.081C159.776 198.967 160.021 198.811 160.876 198.28C161.749 197.718 162.54 196.938 163.332 196.161L163.179 195.756L159.921 197.823L159.598 192.908L157.415 191.977C156.969 191.787 156.7 191.646 156.543 191.648Z" fill="#887C74"/>
<path d="M102.681 179.717C103.158 179.313 104.668 177.596 105.341 177.614C105.897 178.152 106.01 178.354 106.716 178.575L106.33 181.356L102.316 183.907L102.681 179.717Z" fill="#E7C763"/>
<path d="M108.648 120.559C106.013 121.078 104.055 122.44 101.721 123.59C98.9048 123.659 96.2823 123.473 93.4659 123.095C90.5239 123.773 88.9123 126.752 87.805 129.806L86.9413 135.867C85.9359 137.904 84.9691 139.793 84.5426 142.087C84.5874 142.126 84.6321 142.163 84.6769 142.202C84.4346 142.9 84.1411 143.576 84.567 144.238C85.3122 145.332 86.7492 146.204 87.8415 146.902C87.855 146.859 92.3817 149.583 93.3103 149.875C93.3106 149.875 93.31 149.877 93.3103 149.878C93.6667 151.117 94.3736 152.072 95.9409 152.969C100.435 154.974 108.643 154.878 110.629 153.247C110.633 153.217 110.625 153.195 110.626 153.167C110.826 153.102 111.054 153.044 111.215 152.969C113.601 151.776 115.192 151.025 117.09 149.041L118.173 147.403L120.956 143.072C122.142 141.127 123.263 139.515 123.861 137.289C121.964 133.418 116.188 129.046 114.184 125.259C112.488 123.315 111.174 121.418 108.648 120.559Z" fill="#FDE759"/>
<path d="M114.145 160.291C112.783 160.363 111.584 160.749 110.233 161.087C108.612 161.728 107.541 161.611 105.835 161.643C105.296 161.654 104.961 161.682 104.682 161.749C104.698 161.727 104.705 161.711 104.721 161.688C102.613 162.11 102.321 162.388 102.24 164.404C103.245 167.073 106.223 167.128 108.649 166.699L110.846 166.141C110.85 166.123 110.827 166.112 110.825 166.095C111.582 165.845 112.306 165.522 113.031 165.192C114.16 164.535 114.696 163.716 115.259 162.616C115.493 161.352 115.206 160.754 114.145 160.291Z" fill="#FDE759"/>
<path d="M87.9375 138.522C86.9078 139.267 85.2716 140.783 84.7919 141.84C84.5546 142.672 84.066 143.46 84.5663 144.238C85.3115 145.332 86.751 146.204 87.8433 146.902C87.8568 146.859 92.3827 149.585 93.3113 149.876C92.937 147.783 93.2077 146.254 93.7339 144.582C91.7361 142.852 91.2238 140.981 90.2764 138.976C90.0698 140.274 91.5045 143.537 92.0844 144.403C89.3616 143.915 88.3047 141.144 87.9257 138.627C87.918 138.61 87.9548 138.52 87.9375 138.522Z" fill="url(#paint4_linear_0_1)"/>
<path d="M102.533 138.761C102.449 138.358 102.349 135.91 103.02 135.836C103.692 135.762 104.313 137.678 104.516 138.448C103.869 138.524 103.231 138.607 102.533 138.761Z" fill="url(#paint5_linear_0_1)"/>
<path d="M109.936 144.345C109.788 144.352 109.635 144.378 109.478 144.428C108.222 144.828 108.288 146.243 108.288 146.243C109.528 145.4 110.216 145.222 111.733 145.166C111.733 145.166 110.968 144.295 109.936 144.345ZM100.543 145.96C100.395 145.967 100.245 145.995 100.088 146.045C98.8322 146.445 98.8947 147.861 98.8947 147.861C100.135 147.017 100.823 146.839 102.34 146.784C102.34 146.784 101.575 145.91 100.543 145.96Z" fill="url(#paint6_linear_0_1)"/>
<path d="M93.3109 149.877C93.0344 149.658 92.975 146.507 93.3176 146.246C94.5336 157.379 111.011 150.235 110.629 153.247C108.642 154.879 100.433 154.974 95.9398 152.969C94.3725 152.072 93.6673 151.116 93.3109 149.877Z" fill="url(#paint7_linear_0_1)"/>
<path d="M104.722 161.689C100.978 166.678 111.054 165.062 110.845 166.142L108.649 166.699C106.223 167.127 103.244 167.072 102.239 164.403C102.32 162.387 102.613 162.111 104.722 161.689Z" fill="#E3C265"/>
<path d="M103.269 179.145C103.927 179.778 105.021 180.639 106.485 180.305C106.673 181.444 106.78 181.767 107.103 182.779C107.217 183.906 107.537 184.679 107.583 186.119C104.536 185.957 100.986 183.638 99.6042 181.341C101.403 181.361 102.134 180.246 103.269 179.145Z" fill="url(#paint8_linear_0_1)"/>
<path d="M108.692 124.148C104.531 124.45 104.7 129.109 104.752 133.023L105.622 138.309C108.503 138.191 110.596 138.193 113.926 139.3C114.57 134.327 115.203 126.762 110.752 124.301C109.968 124.152 109.287 124.105 108.692 124.148ZM94.6723 125.818C91.0311 127.091 90.6619 129.589 90.4975 133.145C90.9845 137.281 92.4605 140.696 94.3244 143.622C96.5116 140.752 99.5197 139.614 100.974 139.154C101.034 136.107 100.387 132.848 99.8115 130.234C98.1541 126.239 96.5691 125.919 94.6723 125.818ZM116.365 149.902L114.472 151.248C115.269 151.323 116.046 152.258 116.2 153.827L116.42 153.174C116.644 151.802 116.424 151.125 116.365 149.902ZM97.6911 153.577C98.0197 154.367 98.6244 156.704 99.745 157.37C99.4428 156.522 98.7726 155.002 99.8976 154.22L97.6911 153.577Z" fill="white"/>
<path d="M127.977 123.313C128.7 124.706 134.718 124.482 135.398 123.22C136.308 121.182 136.263 120.769 136.388 120.066C132.861 119.046 129.427 119.683 127.142 120.066C126.887 121.041 127.425 122.175 127.977 123.313Z" fill="url(#paint9_linear_0_1)"/>
<path d="M134.316 132.806C131.721 137.291 126.966 138.754 122.452 134.58L122.302 131.075C126.7 131.51 130.828 131.663 134.47 131.662L134.316 132.806Z" fill="url(#paint10_linear_0_1)"/>
<path d="M134.872 137.011L131.689 140.574C135.763 140.481 138.122 141.558 141.298 143.749L134.872 137.011ZM123.678 138.902L121.451 141.773L131.013 140.62L123.678 138.902ZM131.248 142.112C129.868 142.106 128.54 142.179 127.265 142.33C130.223 143.213 131.763 143.947 134.563 142.268C133.426 142.169 132.321 142.117 131.248 142.112ZM138.892 149.813C134.765 156.973 135.05 155.604 129.739 152.72C132.014 155.526 134.345 157.591 135.159 158.261L138.892 149.813Z" fill="#DFD9C9"/>
<path d="M113.623 29.1902L112.668 29.5808C99.7395 36.9038 86.2026 42.8944 81.9042 69.073C74.621 73.6108 69.2423 78.6927 64.2432 83.8832C66.2112 85.718 71.9659 86.2796 79.3953 87.4721L80.6495 78.1582L86.0756 74.9782C86.8321 72.6527 87.4749 70.3274 88.6819 68.0019C89.3445 66.7306 90.065 65.888 91.5566 65.3744C104.428 59.1043 113.953 57.6677 124.542 54.6933C116.464 55.6902 108.349 57.0016 94.4675 61.8191C92.4761 62.5107 91.992 63.1003 92.7523 60.4031C94.001 53.9417 96.8983 47.9929 100.342 42.9281C98.3575 46.8587 97.3798 50.9046 96.7714 54.9917C100.925 46.6226 105.326 38.4135 112.299 31.8557C113.067 30.9079 113.688 30.9711 114.719 31.2088C121.665 32.8203 130.995 38.8539 138.181 48.1619C135.323 43.6199 130.965 35.8492 119.336 31.4619L113.623 29.1883L113.623 29.1902ZM138.181 48.1636C138.903 49.3102 139.533 50.2544 140.156 50.8827C139.52 49.9475 138.859 49.0414 138.181 48.1636ZM169.659 61.9363C172.24 65.5328 173.335 68.5889 174.695 71.7416C178.512 69.5378 181.409 66.6169 184.192 63.6086C178.032 62.479 173.137 61.8997 169.659 61.9363Z" fill="#BCAD9D"/>
<path d="M108.969 124.109C102.694 124.137 104.861 133.091 105.627 138.308C106.179 132.073 105.874 127.954 110.752 124.302C110.093 124.169 109.5 124.107 108.969 124.109ZM94.6864 126.087C88.2867 126.183 90.1916 137.955 94.3234 143.622C92.4986 135.784 91.6528 131.141 96.9457 126.451C96.0992 126.192 95.3484 126.077 94.6864 126.087Z" fill="#E5DFD1"/>
<path d="M167.017 180.783C166.145 180.804 165.292 180.86 164.426 180.932L163.99 181.576C162.987 182.773 161.982 183.97 160.981 185.168C162.651 185.46 164.462 186.077 165.476 186.956C165.645 187.534 165.783 188.153 165.906 188.781C165.98 189.29 166.065 189.829 166.169 190.451C166.174 190.457 166.182 190.46 166.187 190.466C166.32 191.443 166.41 192.399 166.45 193.222C165.375 194.093 164.151 195.005 163.178 195.758C163.31 196.438 163.505 196.737 164.078 196.726C165.824 196.608 167.562 196.672 169.306 196.756C172.973 197.262 175.787 199.549 177.701 201.828C177.701 201.828 177.713 201.79 177.713 201.788C177.81 201.919 177.919 202.041 178.013 202.173C175.054 209.932 166.403 209.182 159.766 206.812C152.233 204.082 145.429 205.17 139.744 209.207C138.318 210.865 137.448 212.026 136.655 213.84C136.623 213.872 136.481 213.998 136.481 213.998C136.422 214.209 136.345 214.492 136.271 214.761C136.238 214.85 136.203 214.914 136.17 215.006C136.182 215.002 136.195 215.002 136.207 214.999C135.406 218.015 134.319 223.774 139.674 225.238C133.987 217.618 140.772 214.544 147.956 214.822C149.35 214.986 150.782 215.22 152.216 215.463C158.826 217.688 167.763 221.402 174.898 220.068C174.914 220.071 174.933 220.075 174.95 220.078C174.982 220.065 175.014 220.053 175.047 220.041C176.365 219.781 177.626 219.364 178.786 218.707C178.641 218.715 178.482 218.698 178.334 218.701C184.353 216.011 189.541 211.959 191.588 204.678C191.583 198.612 191.401 195.233 184.129 187.485L180.51 184.521C179.076 184.367 177.874 183.242 177.132 182.489C177.593 183.366 177.976 184.476 177.928 185.559C177.55 185.824 177.241 185.679 176.805 185.486C175.411 184.526 174.218 183.193 173.106 182.113C171.781 181.039 170.968 180.992 169.728 180.835C168.782 180.776 167.89 180.762 167.017 180.783Z" fill="#E6C764"/>
<path d="M167.017 180.783C166.145 180.804 165.292 180.86 164.426 180.932L163.99 181.576C162.987 182.773 161.982 183.97 160.981 185.168C162.651 185.46 164.462 186.077 165.476 186.956C165.645 187.534 165.783 188.153 165.906 188.781C165.98 189.29 166.065 189.829 166.169 190.451C166.174 190.457 166.182 190.46 166.187 190.466C166.32 191.443 166.41 192.399 166.45 193.222C165.375 194.093 164.151 195.005 163.178 195.758C163.31 196.438 163.505 196.737 164.078 196.726C165.824 196.608 167.562 196.672 169.306 196.756C172.973 197.262 175.787 199.549 177.701 201.828C177.701 201.828 177.713 201.79 177.713 201.788C177.81 201.919 177.919 202.041 178.013 202.173C175.054 209.932 166.403 209.182 159.766 206.812C152.233 204.082 145.429 205.17 139.744 209.207C138.318 210.865 137.448 212.026 136.655 213.84C136.623 213.872 136.481 213.998 136.481 213.998C136.422 214.209 136.345 214.492 136.271 214.761C136.238 214.85 136.203 214.914 136.17 215.006C136.182 215.002 136.195 215.002 136.207 214.999C135.406 218.015 134.319 223.774 139.674 225.238C133.987 217.618 140.772 214.544 147.956 214.822C149.35 214.986 150.782 215.22 152.216 215.463C158.826 217.688 167.763 221.402 174.898 220.068C174.914 220.071 174.933 220.075 174.95 220.078C174.982 220.065 175.014 220.053 175.047 220.041C176.365 219.781 177.626 219.364 178.786 218.707C178.641 218.715 178.482 218.698 178.334 218.701C184.353 216.011 189.541 211.959 191.588 204.678C191.583 198.612 191.401 195.233 184.129 187.485L180.51 184.521C179.076 184.367 177.874 183.242 177.132 182.489C177.593 183.366 177.898 184.286 177.85 185.369C177.472 185.634 177.016 185.498 176.805 185.486C175.411 184.526 174.218 183.193 173.106 182.113C171.781 181.039 170.968 180.992 169.728 180.835C168.782 180.776 167.89 180.762 167.017 180.783Z" fill="url(#paint11_linear_0_1)"/>
<path d="M177.13 182.489C177.591 183.366 177.896 184.286 177.848 185.37C175.26 186.844 173.849 184.818 171.71 183.121C170.775 182.447 170.108 182.962 170.108 182.962C167.774 184.715 166.048 187.116 166.278 189.035C166.4 190.016 166.556 189.757 167.523 189.978C170.052 190.518 176.396 192.062 177.856 194.22C179.668 196.899 177.759 201.672 177.713 201.788C177.809 201.919 177.918 202.041 178.012 202.173C175.053 209.932 166.402 209.182 159.765 206.812C152.232 204.082 145.428 205.17 139.743 209.207C138.317 210.865 137.448 212.026 136.654 213.84C137.097 213.4 140.425 210.238 145.575 209.802C151.022 209.342 167.759 218.932 178.336 218.701C184.354 216.011 189.54 211.957 191.586 204.678C191.582 198.612 191.4 195.233 184.128 187.485L180.509 184.521C179.074 184.367 177.872 183.242 177.13 182.489ZM165.905 188.782C165.978 189.291 166.064 189.829 166.168 190.451C166.173 190.457 166.181 190.46 166.186 190.467C166.11 189.905 166.016 189.343 165.905 188.782ZM136.269 214.761C136.236 214.85 136.202 214.914 136.169 215.006C136.181 215.002 136.193 215.002 136.205 214.999C136.229 214.91 136.246 214.845 136.269 214.761ZM175.044 220.041C174.995 220.05 174.945 220.059 174.895 220.068C174.911 220.072 174.93 220.075 174.947 220.078C174.98 220.065 175.012 220.053 175.044 220.041Z" fill="#FDE859"/>
<path d="M154.088 60.9734C126.769 60.9131 102.295 69.2941 80.6484 78.1594C80.2034 81.7444 79.8251 85.2412 79.4732 88.5744C80.4536 87.93 81.4298 87.2784 82.4042 86.6228C80.6981 97.8262 78.6531 108.013 76.4879 117.838L76.3037 112.107L74.014 123.343L75.9931 120.56L75.0963 125.94L82.3325 125.817L84.0333 121.178L84.6827 125.198L84.8683 126.126L86.0743 124.765L86.5072 126.435L88.8264 127.177C90.7155 123.674 92.3555 122.724 96.2482 123.188C97.5677 123.205 102.236 124.458 102.923 123.011C98.8354 112.166 98.156 99.313 97.4704 86.6537C96.1503 96.8765 95.1796 107.308 95.0213 118.229C93.2263 110.733 92.0374 102.719 91.8725 93.8255C91.166 98.3055 90.4464 102.655 89.511 104.846C89.1141 98.3451 88.5174 90.6451 87.9113 82.8884C107.397 69.6799 128 56.8384 168.966 66.1368C170.089 66.3896 171.261 66.6718 172.22 66.9104C172.644 66.2784 170.467 63.3762 169.557 61.9252C164.303 61.2845 159.147 60.9846 154.088 60.9734ZM161.759 67.6745C163.704 72.3305 166.019 77.1102 166.895 82.5091C166.92 82.1634 166.942 81.8213 166.972 81.4724C167.107 81.7902 167.251 82.1287 167.397 82.4943C169.055 86.9006 169.038 91.6814 168.951 96.3159C169.952 96.6403 170.447 94.7262 170.52 94.0615C172.159 83.2285 169.116 74.4886 161.759 67.6745ZM116.627 69.9687C114.221 72.9403 111.889 75.9492 110.133 79.2459C110.185 78.4685 110.438 78.3949 110.195 76.5866C107.686 78.1201 105.406 79.9597 103.392 82.1528C104.315 79.98 104.534 77.807 104.643 75.6342C103.15 80.4394 101.412 84.5517 100.853 88.5925C103.04 85.3598 105.533 82.357 107.879 79.92C107.731 80.8006 107.161 81.5492 106.786 82.2816C105.045 86.9281 103.768 90.9289 103.176 95.1294C103.11 95.601 103.049 96.0908 102.992 96.6014C103.723 95.6244 104.147 94.4561 104.599 93.4334C104.764 96.4195 104.491 97.9322 105.78 99.4686C105.884 98.9803 105.995 98.5634 106.117 98.1306C106.394 87.8302 112.705 78.5375 116.627 69.9687ZM169.98 70.9983C171.433 74.5364 172.192 77.0241 172.607 78.9881C172.606 78.9778 172.605 78.968 172.604 78.9577C173.954 82.3504 174.112 85.2671 174.704 88.4977C175.199 85.7775 175.409 82.4425 174.84 80.7307C173.766 77.5472 172.614 74.355 169.98 70.9983ZM132.982 71.6106C128.639 78.2978 124.556 83.1128 122.8 90.1997C125.334 84.4837 127.945 79.6162 131.014 74.9775C128.762 81.6647 125.824 87.04 125.534 93.2853C126.042 92.499 126.221 91.3586 126.758 90.6447C127.747 84.7826 130.623 78.0822 132.982 71.6106ZM122.735 72.7114C121.509 73.8387 120.365 75.2405 119.306 76.7744C119.215 76.9058 119.121 77.0313 119.031 77.1647L118.856 77.93C118.435 78.9472 118.017 79.9521 117.608 80.9438C115.701 85.6042 113.179 90.7699 113.572 95.6636C114.296 94.5643 114.969 93.1216 115.358 92.1175C116.492 84.9783 119.196 79.0864 122.735 72.7114ZM139.718 74.6719C130.929 86.837 130.356 91.1859 129.438 95.8656C129.325 96.4399 129.208 97.0186 129.069 97.618C130.511 94.0719 131.844 90.8689 133.481 87.9547C133.648 87.6596 133.831 87.3782 134.032 87.136C133.64 89.4408 133.462 91.6289 133.639 93.7397C133.942 93.2269 135.659 86.4528 137.043 83.7686C136.884 84.7623 136.74 85.7055 136.613 86.6027C135.128 94.9109 135.94 100.693 138.668 105.023C140.457 104.964 144.216 96.5325 143.695 95.8602C142.518 98.0805 140.57 101.315 139.287 101.853C137.464 92.8242 138.372 83.9281 139.718 74.6719ZM156.861 75.0217L157.346 80.2509C157.344 79.5869 157.338 78.7654 157.325 78.1327C157.717 81.3153 158.675 84.5203 159.013 87.4394C159.082 87.666 159.151 87.8828 159.22 88.094C159.174 88.0888 159.129 88.0851 159.082 88.083C159.135 90.0985 159.404 92.0812 159.452 94.0146C159.535 97.2627 159.095 100.588 159.267 103.426C160.653 102.65 161.632 99.9763 161.913 98.3752C161.935 98.9918 161.942 99.5943 162.022 100.168C162.195 101.183 162.352 102.324 162.705 102.686C163.922 100.165 164.973 97.5688 165.263 95.3212C164.537 97.5421 163.805 99.7182 162.984 101.087C163.549 98.2512 164.109 95.4124 163.99 92.1213C163.148 93.3755 162.749 93.7354 162.416 94.8766C162.361 94.0479 162.365 93.3358 162.171 92.2283C162.139 92.1278 162.107 92.0293 162.074 91.9306C162.084 91.9005 162.095 91.8709 162.105 91.838C161.183 85.6821 159.295 80.1691 156.861 75.0217ZM147.328 75.7215C148.021 77.2025 148.088 80.5112 148.297 84.0149C148.779 82.0557 148.587 79.549 148.109 77.3904C149.833 83.8734 151.651 91.1835 152.333 97.931C153.337 98.1416 154.074 98.8212 154.922 99.3622C156.469 95.6192 156.629 92.4975 156.94 89.2122C156.276 92.963 155.549 96.271 154.587 97.9375C153.954 90.4147 152.917 80.8699 147.328 75.7215ZM86.8074 83.6405C85.6761 96.0021 83.3169 105.908 81.0289 115.956C81.9551 106.936 82.8597 97.8796 82.4328 86.6046C83.8919 85.6228 85.348 84.6321 86.8074 83.6405ZM165.735 94.003C165.246 96.2062 164.541 98.3544 163.903 100.518L159.705 110.795C158.237 114.425 156.683 118.017 155.13 121.611C152.145 124.807 147.481 126.797 144.183 128.492L145.559 128.987L146.75 129.126C150.784 126.981 155.18 126.675 159.428 127.734C161.662 125.456 163.368 122.483 164.691 120.132C164.843 123.232 164.328 125.967 163.707 128.966C164.752 128.252 165.535 127.276 166.374 126.342C166.363 127.175 166.426 127.981 166.593 128.791C169.051 125.728 170.314 123.069 170.923 119.673C171.341 122.062 171.374 123.919 171.336 126.273C176.029 114.909 171.229 106.904 169.633 100.274C170.462 105.503 171.268 113.199 170.375 115.86C169.643 108.546 167.37 100.615 165.735 94.003Z" fill="url(#paint12_radial_0_1)"/>
<path d="M104.861 177.881L104.257 178.202L101.1 181.271L95.8302 181.314L85.7278 187.218C80.1075 186.579 74.8692 182.354 71.7989 180.199C71.5562 176.185 71.1912 172.306 72.0613 168.391C73.583 166.318 75.1216 164.258 76.6971 162.225L79.9333 147.443C76.2486 143.031 79.8117 139.731 83.2133 139.484L86.5152 135.438L86.9744 136.204L85.1377 140.052C85.1377 140.052 81.4661 141.014 81.4641 142.326C81.4613 143.639 84.4816 144.207 84.4816 144.207C85.3125 145.668 86.8928 146.314 88.2864 147.224L84.0417 148.528C82.3305 148.835 82.8188 149.416 83.0899 150.94L84.8713 160.957C85.6213 163.782 85.4509 163.903 83.0389 165.199L76.6966 168.608C74.766 169.6 74.6669 169.506 76.7571 170.082L79.5896 170.862C82.9899 171.269 82.7666 173.471 83.6536 176.468L85.8094 183.749C86.073 184.72 86.5027 184.724 87.2589 184.187L94.1905 179.893L97.6453 174.688L98.4762 172.545L98.8698 167.647L98.6535 165.162C100.053 168.541 101.989 172.144 102.062 175.694C104.377 175.055 106.754 173.405 109.125 171.868L105.34 177.614L104.861 177.881Z" fill="#DFD9C9"/>
<path d="M153.028 98.3438L147.663 112.235C150.052 112.114 152.924 111.37 155.286 109.745C158.698 105.024 157.148 100.887 153.028 98.3438ZM107.102 101.71C106.074 103.767 106.044 106.123 107.309 109.019C109.671 111.469 112.047 112.159 113.355 112.458L107.102 101.71Z" fill="white"/>
<path d="M150.4 98.2C144.92 98.4308 143.828 102.42 143.308 105.332C142.735 110.514 144.497 112.153 147.757 112.165C152.118 112.099 154.23 107.274 154.743 104.322C155.135 100.507 155.426 99.7606 153.028 98.3434C152.054 98.209 151.183 98.167 150.4 98.2Z" fill="url(#paint13_radial_0_1)"/>
<path d="M115.82 97.1281C113.726 97.1062 111.95 97.6895 110.785 98.1261C108.903 99.2284 105.157 102.107 107.98 107.94C109.792 111.948 114.426 113.436 118.201 111.581C123.583 108.755 122.485 103.035 122.763 99.7617C120.327 97.7779 117.914 97.15 115.82 97.1281Z" fill="url(#paint14_radial_0_1)"/>
<g filter="url(#filter0_f_0_1)">
<path d="M121.164 105.337C121.045 105.399 120.831 105.667 120.477 106.189C116.543 111.152 113.448 110.66 110.147 108.395C109.286 107.765 108.624 107.141 109.149 108.655C109.968 110.8 112.737 112.018 115.775 111.697C118.657 111.393 120.618 108.792 121.192 106.516C121.299 105.706 121.363 105.236 121.164 105.337ZM153.547 105.988C153.496 105.981 153.34 106.217 153.077 106.601C149.048 112.205 145.727 110.572 144.468 107.822C144.158 106.912 143.953 106.141 143.732 107.632C143.618 109.032 144.27 111.119 147.175 111.423C150.425 111.762 152.593 108.949 153.385 106.827C153.543 106.241 153.598 105.994 153.547 105.988Z" fill="#A6AED6"/>
</g>
<g filter="url(#filter1_f_0_1)">
<path d="M114.6 96.8359C109.628 96.9434 104.647 100.978 107.981 107.941C107.651 102.802 108.628 97.8783 119.26 98.0748C117.913 97.2008 116.257 96.8001 114.6 96.8359ZM150.553 97.9743C144.149 97.8035 142.201 105.338 143.693 110.062C144.018 102.621 146.216 100.718 151.173 99.5275C152.433 99.4423 152.56 99.9614 153.12 100.464C153.945 101.469 154.424 102.877 154.743 104.322C154.961 102.829 155.017 101.22 155.039 100.062C154.338 98.8563 153.071 98.5563 151.893 98.1146C151.426 98.0316 150.98 97.9856 150.553 97.9743Z" fill="#212848"/>
</g>
<g filter="url(#filter2_f_0_1)">
<path d="M119.65 98.5906C119.489 98.6191 119.337 98.6904 119.208 98.8164C118.688 99.3205 118.973 100.788 119.552 101.252C120.132 101.716 121.147 101.635 121.539 101.093C121.931 100.552 121.535 99.5771 121.06 99.1339C120.704 98.8014 120.133 98.5052 119.65 98.5906ZM153.717 99.2437C153.314 99.1805 152.91 99.2667 152.603 99.558C151.989 100.141 152.193 101.752 152.789 102.39C153.386 103.028 154.543 103.332 155.173 102.71C155.803 102.089 155.435 100.43 154.828 99.8235C154.525 99.5202 154.121 99.3069 153.717 99.2437ZM110.397 108.036C110.043 107.983 109.657 108.144 109.46 108.402C109.198 108.746 109.239 109.372 109.567 109.702C109.894 110.032 110.693 110.227 111.05 109.833C111.407 109.44 111.144 108.445 110.733 108.164C110.63 108.094 110.515 108.054 110.397 108.036ZM144.83 108.262C144.592 108.229 144.354 108.283 144.18 108.457C143.831 108.804 143.991 109.75 144.338 110.099C144.686 110.448 145.289 110.577 145.638 110.23C145.987 109.883 145.824 108.937 145.477 108.588C145.303 108.414 145.067 108.295 144.83 108.262Z" fill="white"/>
</g>
<path d="M118.988 148.23C118.578 148.23 118.179 148.271 117.791 148.346C117.597 148.687 116.902 149.419 116.375 149.994C116.47 150.78 116.59 151.725 116.525 152.563L119.055 150.305C119.319 150.068 119.648 149.951 119.976 149.954C120.348 149.957 120.715 150.111 120.983 150.412C121.488 150.977 121.439 151.839 120.873 152.343L117.077 155.734C116.512 156.239 115.653 156.189 115.148 155.624C114.644 155.059 114.69 154.2 115.255 153.695C115.507 153.471 115.758 153.246 116.009 153.021C115.874 152.277 115.531 151.68 114.727 151.291C114.39 151.544 113.457 152.107 113.079 152.343C112.827 153.024 112.689 153.76 112.689 154.528C112.689 158.006 115.509 160.827 118.987 160.827C122.465 160.827 125.283 158.006 125.283 154.528C125.283 151.05 122.465 148.23 118.988 148.23ZM121.987 150.079H122.198L122.369 150.332L122.54 150.079H122.75L122.491 150.464L122.759 150.863H122.552L122.369 150.595L122.186 150.863H121.975L122.247 150.464L121.987 150.079ZM123.91 152.914H124.151L124.441 153.695H124.237L124.188 153.555H123.873L123.825 153.695H123.62L123.91 152.914ZM124.032 153.097L123.922 153.409H124.139L124.032 153.097ZM121.997 153.476C122.368 153.479 122.739 153.633 123.007 153.934C123.511 154.499 123.462 155.361 122.897 155.865L119.1 159.256C118.535 159.76 117.673 159.711 117.169 159.146C116.664 158.581 116.713 157.719 117.279 157.214L121.075 153.824C121.34 153.587 121.669 153.473 121.997 153.476ZM113.754 155.585H113.974L114.151 155.862L114.328 155.585H114.55L114.251 156.036V156.366H114.05V156.036L113.754 155.585ZM116.015 158.667H116.317C116.426 158.667 116.507 158.683 116.555 158.716C116.604 158.748 116.629 158.802 116.629 158.874C116.629 158.912 116.619 158.942 116.601 158.969C116.583 158.996 116.559 159.017 116.525 159.03C116.568 159.043 116.599 159.066 116.622 159.1C116.646 159.134 116.659 159.173 116.659 159.222C116.659 159.298 116.634 159.356 116.583 159.393C116.532 159.43 116.455 159.448 116.351 159.448H116.015L116.015 158.667ZM116.217 158.804V158.969H116.33C116.361 158.969 116.386 158.961 116.403 158.948C116.419 158.934 116.427 158.914 116.427 158.887C116.427 158.86 116.419 158.839 116.403 158.826C116.386 158.811 116.361 158.804 116.33 158.804L116.217 158.804ZM116.217 159.106V159.311H116.336C116.376 159.311 116.407 159.304 116.427 159.286C116.448 159.269 116.458 159.242 116.458 159.207C116.458 159.173 116.447 159.147 116.427 159.131C116.407 159.114 116.376 159.106 116.336 159.106H116.217Z" fill="#475F66"/>
<path d="M119.991 150.103C119.929 150.103 119.867 150.106 119.824 150.113C119.557 150.155 119.335 150.266 119.146 150.456C118.956 150.644 118.845 150.865 118.804 151.134C118.791 151.218 118.791 151.38 118.804 151.469C118.883 152.012 119.318 152.433 119.863 152.494C119.939 152.503 120.112 152.498 120.188 152.484C120.394 152.448 120.58 152.365 120.739 152.238C120.993 152.036 121.154 151.737 121.186 151.41C121.198 151.285 121.183 151.113 121.152 150.997C121.021 150.524 120.642 150.186 120.157 150.113C120.114 150.107 120.053 150.103 119.991 150.103ZM116.112 153.539L116.046 153.544C115.578 153.58 115.163 153.903 115.01 154.35C114.961 154.493 114.951 154.556 114.951 154.736C114.951 154.913 114.958 154.961 115.003 155.103C115.145 155.55 115.539 155.872 116.014 155.93C116.102 155.941 116.268 155.933 116.365 155.915C116.793 155.831 117.141 155.528 117.277 155.118C117.342 154.923 117.357 154.736 117.323 154.539C117.243 154.065 116.881 153.682 116.41 153.572C116.375 153.564 116.343 153.557 116.339 153.557C116.334 153.557 116.282 153.66 116.224 153.789C116.209 153.82 116.199 153.834 116.196 153.827C116.194 153.821 116.182 153.773 116.169 153.721C116.156 153.669 116.138 153.607 116.129 153.583L116.112 153.539ZM122.011 153.624C121.818 153.624 121.662 153.66 121.486 153.746C120.893 154.036 120.646 154.754 120.936 155.346C121.001 155.479 121.079 155.585 121.189 155.69C121.374 155.867 121.611 155.98 121.869 156.012C121.947 156.023 122.127 156.02 122.2 156.007C122.459 155.963 122.676 155.852 122.859 155.669C123.056 155.471 123.174 155.228 123.206 154.95C123.216 154.859 123.21 154.695 123.192 154.603C123.163 154.449 123.099 154.291 123.014 154.163C122.892 153.979 122.737 153.843 122.541 153.747C122.366 153.661 122.208 153.624 122.011 153.624ZM118.202 157.061C118.176 157.06 118.15 157.06 118.125 157.061C117.735 157.075 117.381 157.273 117.162 157.6C117.094 157.702 117.025 157.864 116.996 157.988C116.967 158.112 116.958 158.286 116.973 158.401C117.002 158.616 117.079 158.806 117.208 158.98C117.259 159.049 117.375 159.166 117.444 159.217C117.628 159.354 117.83 159.431 118.07 159.456C118.114 159.46 118.284 159.454 118.337 159.445C118.885 159.36 119.297 158.931 119.357 158.383C119.367 158.296 119.362 158.135 119.347 158.054C119.315 157.882 119.255 157.734 119.162 157.593C118.947 157.271 118.585 157.072 118.202 157.061Z" fill="#B42320"/>
<path d="M97.1125 154.056C97.0667 154.034 96.9839 154.043 96.1817 154.157C95.6102 154.238 95.2869 154.289 95.257 154.306C95.2017 154.339 95.1533 154.416 95.1533 154.471C95.1533 154.494 95.2187 154.981 95.2997 155.555C95.3808 156.128 95.4465 156.598 95.4432 156.601C95.4399 156.605 94.9672 156.675 94.3934 156.757C93.8129 156.84 93.3233 156.92 93.2917 156.934C93.2232 156.966 93.1849 157.033 93.1849 157.123C93.1849 157.16 93.2384 157.563 93.3039 158.02C93.3868 158.6 93.4337 158.866 93.4534 158.896C93.4691 158.92 93.5083 158.954 93.5419 158.97C93.6016 158.998 93.627 158.996 94.665 158.847C95.2495 158.764 95.7354 158.703 95.7423 158.71C95.7491 158.718 95.8175 159.171 95.8948 159.717C95.9722 160.263 96.0432 160.746 96.0535 160.791C96.0782 160.9 96.1525 160.96 96.261 160.959C96.3029 160.959 96.7066 160.906 97.1613 160.84C98.0564 160.712 98.0521 160.713 98.1104 160.596C98.1393 160.538 98.1368 160.515 97.9883 159.47C97.8885 158.767 97.8419 158.399 97.854 158.396C97.8642 158.393 98.3182 158.327 98.8642 158.249C99.4101 158.172 99.8865 158.102 99.9231 158.094C100.002 158.077 100.086 158.004 100.1 157.938C100.113 157.881 99.8728 156.188 99.8438 156.128C99.8139 156.067 99.7375 156.016 99.6729 156.015C99.5623 156.022 99.4728 156.031 99.3616 156.04C99.415 156.451 99.6393 157.248 99.6393 157.248C99.2966 157.057 98.8926 156.496 98.681 156.138L97.5458 156.296C97.5406 156.291 97.4683 155.81 97.384 155.228C97.2194 154.092 97.223 154.111 97.1125 154.056ZM110.137 156.388C110.059 156.387 110 156.4 109.93 156.434C109.832 156.481 109.762 156.553 109.716 156.647C109.677 156.729 109.141 158.19 109.13 158.246C109.112 158.342 109.131 158.451 109.179 158.542C109.247 158.671 109.366 158.76 109.512 158.789C109.697 158.827 109.901 158.733 110 158.567C110.014 158.544 110.047 158.468 110.073 158.396C110.467 157.328 110.585 157.006 110.595 156.971C110.612 156.91 110.612 156.803 110.595 156.739C110.54 156.531 110.351 156.389 110.137 156.388ZM106.201 157.364C106.029 157.364 105.874 157.454 105.792 157.602C105.771 157.64 105.24 159.077 105.212 159.171C105.163 159.335 105.21 159.515 105.337 159.638C105.416 159.714 105.504 159.753 105.627 159.769C105.706 159.779 105.837 159.748 105.914 159.699C105.983 159.655 106.058 159.57 106.091 159.498C106.117 159.439 106.65 157.984 106.661 157.938C106.701 157.785 106.647 157.598 106.53 157.489C106.438 157.404 106.328 157.364 106.201 157.364Z" fill="#2F2F2F"/>
<path d="M140.964 137.823L142.56 138.98C144.586 139.38 145.485 139.508 147.089 140.97C150.276 144.845 152.036 148.338 152.5 153.802C151.87 158.651 150.178 162.437 147.583 167.132C143.163 174.03 139.475 178.74 133.017 184.79C129.31 188.334 124.371 190.959 118.701 192.212C115.394 192.732 109.969 193.077 108.713 193.509C103.174 196.091 98.7273 199.779 99.7439 206.528C103.458 217.015 119.585 215.511 131.41 209.93C136.905 206.714 141.287 204.25 146.192 200.22C153.088 194.076 158.069 188.723 163.245 182.568C169.843 174.682 173.869 164.561 173.917 155.496C172.063 144.855 168.554 131.573 158.39 127.551C150.864 126.029 141.452 129.872 140.964 137.823Z" fill="url(#paint15_radial_0_1)"/>
<path d="M153.977 137.18C156.324 142.474 158.098 157.566 153 165.695C147.902 173.825 137.445 189.561 128.023 193.1C120.152 196.056 109.927 195.157 106.906 198.313C103.886 201.468 105.543 206.883 114.328 208.86C123.113 210.836 135.3 206.017 154.478 192.427C171.209 174.061 186.203 154.621 159.677 127.641C155.819 127.126 152.08 127.125 148.547 128.013C148.547 128.013 151.629 131.886 153.977 137.18Z" fill="url(#paint16_radial_0_1)"/>
<g filter="url(#filter3_f_0_1)">
<path d="M120.192 202.156C128.258 202.287 140.209 199.702 156.427 190.261C172.702 173.994 179.288 144.034 162.495 132.511C154.14 127.292 157.435 131.171 159.191 136.611C163.04 148.665 164.543 168.668 145.969 184.444C134.746 193.976 121.947 196.965 118.681 197.784C105.683 200.89 113.905 202.014 120.192 202.156Z" fill="#FDE759"/>
</g>
<path d="M113.62 29.1902C112.831 29.1876 112.122 29.3707 111.344 29.7578C90.8297 39.9778 83.0172 55.2625 80.8531 68.4625C74.6827 72.8372 69.6255 77.3462 64.6109 82.6623C63.7402 83.6671 63.6636 84.4042 64.3027 84.8719C65.9235 86.0446 73.8524 87.2956 79.0213 87.7192C78.0127 100.793 75.713 113.436 73.0857 125.818L75.3744 122.909L74.6328 126.373L82.4239 126.251C83.133 124.893 83.6927 123.565 83.9071 122.043C84.3354 123.607 84.5918 125.087 84.7128 126.498L85.8877 125.632L86.4431 126.745L88.2742 127.466C87.4966 129.204 86.8445 131.62 86.5651 134.985L82.9672 139.291C81.2729 139.373 79.5498 140.049 77.6937 143.368C77.5218 143.714 77.8092 144.722 77.9745 144.989C78.5955 145.743 79.2068 146.484 79.1464 147.03C78.6706 151.851 77.116 157.481 76.055 162.741C73.9871 164.932 71.8879 167.096 71.105 170.41V178.888C70.9139 180.146 71.4721 180.536 72.3562 181.177C76.4562 184.145 81.8682 187.246 84.9599 187.851C86.3208 187.916 91.0243 184.822 95.7844 181.852L99.4954 181.913C101.668 184.528 104.345 186.225 107.296 186.359C107.478 188.153 107.588 189.836 107.75 190.106L107.76 190.113C107.173 190.374 106.591 190.82 106.45 191.501C106.295 192.254 107.113 192.843 107.775 193.204C105.968 193.918 104.144 195.131 102.611 196.674C100.674 198.624 99.1969 201.113 98.9065 203.818C98.9062 203.82 98.9065 203.823 98.9065 203.824C98.7068 205.942 99.6305 208.334 100.863 209.952L100.866 209.956C103.851 213.814 109.22 215.146 115.02 214.893C120.459 214.657 126.319 213.029 131.132 210.661C132.389 211.317 134.946 210.914 138.414 209.919C137.121 211.558 135.584 214.004 135.24 218.589C134.902 222.59 137.581 225.531 139.757 226.691C141.135 227.169 140.987 226.126 139.827 224.766C138.431 223.155 137.704 221.727 137.688 220.347C137.654 217.535 140.872 215.331 146.538 215.055C153.49 214.654 163.966 221.65 172.886 220.933C174.058 220.836 175.166 220.525 176.335 220.03C185.012 216.74 191.516 211.745 192.107 202.548C192.353 194.92 186.594 189.22 180.836 183.517C180.836 183.409 180.825 183.288 180.803 183.151C180.021 180.702 178.453 179.428 176.689 178.451C175.603 178.122 175.053 178.068 174.214 178.17C172.209 178.43 169.514 179.147 168.355 179.296C167.89 178.857 167.433 178.454 166.948 178.21C171.005 172.133 173.815 165.681 174.236 158.883C174.681 154.173 173.202 145.839 169.789 138.779C168.082 135.247 165.887 132.038 163.167 129.798C161.986 128.909 160.856 128.154 159.676 127.64C161.377 126.108 162.613 124.312 164.644 120.725C164.427 123.875 164.059 126.748 163.384 129.44C164.303 128.789 165.352 128.137 166.045 127.066C166.002 128.075 166.174 128.797 166.481 129.34C169.606 125.711 170.758 122.686 170.943 120.389C171.209 124.253 171.194 127.722 170.68 130.084C173.907 126.924 174.652 124.04 176.802 114.685L177.235 125.571C177.813 123.478 178.011 122.318 178.38 119.879C179.995 96.7902 178.014 81.8511 174.916 72.4121C178.376 69.8727 180.748 67.9936 184.407 64.1266C184.747 63.7923 184.815 63.4096 184.575 63.0982C180.786 59.9244 173.083 56.0735 161.711 53.6744C150.58 42.7907 141.12 32.6932 115.162 29.3916C114.599 29.2618 114.094 29.1924 113.62 29.1902ZM114.038 30.3712C114.421 30.3743 114.808 30.4018 115.204 30.4445C128.931 31.9283 144.27 36.171 160.868 54.3429C168.897 56.6654 177.559 57.7693 183.643 63.547C156.656 57.5893 124.487 59.1835 80.7323 77.6491C80.7417 77.5841 80.7481 77.5189 80.7567 77.4538L80.7292 77.6491C76.3682 79.4896 71.893 81.4945 67.2953 83.6795C71.745 81.8815 76.18 80.0646 80.6438 78.284L79.3956 87.4729C74.3001 86.564 65.1929 84.9463 65.4186 83.6368C65.3984 82.2105 71.6875 76.2584 81.9014 69.0738C84.6676 49.0941 99.1998 35.6395 112.105 30.6223C112.773 30.4311 113.401 30.3655 114.038 30.3712ZM117.197 31.6407C127.89 34.8487 135.539 45.5642 140.872 51.7251C135.139 43.6907 130.532 35.3626 117.197 31.6407ZM111.432 32.1809C98.3254 41.9695 97.3979 51.7465 94.9806 60.5075C98.3961 49.457 102.551 39.5106 111.432 32.1809ZM141.69 53.1747C123.324 53.2063 104.487 57.5072 84.9634 67.939C103.213 59.0575 123.61 51.664 158.434 54.2915C152.895 53.555 147.314 53.1652 141.692 53.1746L141.69 53.1747ZM155.627 61.3625H155.63C158.971 61.3604 162.395 61.4596 165.909 61.6707C174.079 72.9126 175.867 79.5426 174.704 88.4988C174.456 85.5894 174.204 81.5679 172.604 78.959C172.891 81.5684 172.555 83.8346 172.412 86.2343C172.602 84.7912 172.883 82.111 172.97 80.6679C174.376 83.9541 174.291 89.0162 173.654 96.1007C176.134 84.2607 177.656 76.1616 165.924 61.671C167.123 61.7432 168.334 61.8287 169.555 61.9274C179.435 77.4705 178.904 103.851 177.774 119.23C177.551 115.321 177.107 112.132 177.484 106.276C176.185 114.502 175.158 123.457 171.484 128.785C171.758 125.221 171.406 120.154 170.743 117.903C170.813 122.398 168.356 126.945 166.83 128.16C166.584 126.979 166.901 125.797 167.224 124.617C166.037 126.535 165.098 127.319 164.023 128.34C164.998 124.695 165.232 122.132 165.286 118.257C163.644 122.078 161.657 125.102 159.299 127.479C159.299 127.48 159.294 127.481 159.293 127.482C157.351 127.14 155.301 126.862 153.479 127.055C151.551 127.22 149.924 127.554 148.547 128.013L148.511 126.448C150.537 125.342 152.577 124.069 154.7 122.581C154.947 122.39 155.436 121.742 155.585 121.406L162.146 104.85L155.102 121.156C154.899 121.609 154.441 122.369 153.998 122.648C148.434 126.599 142.842 129.399 135.202 131.447C131.005 131.985 120.89 130.827 118.018 130.079C116.948 129.055 116.228 127.568 115.488 126.408C113.047 123.058 111.894 121.507 109.662 120.714C109.118 120.554 108.653 120.343 108.158 120.36C106.193 120.593 104.664 121.839 103.181 122.682C99.6159 105.323 99.3953 96.6742 100.782 89.2649C102.842 85.7447 105.032 83.0577 107.313 80.9702C107.087 81.6087 106.961 81.8522 106.788 82.2824C107.205 81.4623 107.882 80.4784 107.88 79.9204C105.509 82.3934 103.097 84.7237 101.008 88.1357C101.682 84.9506 102.646 81.9254 103.754 78.4463C100.881 86.8192 96.7785 94.6479 102.799 122.889C102.219 123.188 101.642 123.407 101.041 123.459C98.1514 123.611 95.4914 122.327 92.2675 123.041C91.6212 123.333 90.0419 124.108 88.6879 126.63L86.7561 126.188C86.4893 125.28 86.4368 124.375 86.3228 123.468C85.9528 124.565 85.4966 125.317 84.9617 125.754C84.7782 123.165 84.6453 121.656 84.034 119.941C83.4155 121.868 82.797 124.314 82.1785 125.507L75.5623 125.446C76.5021 123.289 76.3024 120.447 76.49 117.838C75.8926 119.614 75.2727 121.307 74.4728 122.272C78.0484 107.946 78.7623 92.9848 80.6495 78.2848C102.985 69.3749 126.071 61.3859 155.627 61.3625ZM172.412 86.2343C171.71 90.6427 171.339 93.8115 168.951 96.3173C169.653 87.8854 168.054 84.0162 166.97 81.4736C166.426 87.8261 166.693 93.5153 162.704 102.686C162.595 102.652 162.525 102.155 162.457 101.636C162.384 102.403 162.29 103.174 162.457 103.861C165.26 99.1355 166.387 92.5862 167.343 82.8344C169.232 88.0483 168.993 93.6875 168.271 98.7281C170.676 95.6712 172.053 91.6519 172.412 86.2343ZM169.659 61.9359C174.163 62.3025 178.815 62.8496 183.633 63.6022C181.157 67.0543 177.448 69.6814 174.694 71.7412C173.17 67.2995 171.398 64.1311 169.659 61.9359ZM131.012 74.9792C128.26 82.5247 123.987 90.069 125.223 97.6136C125.549 95.6659 125.283 94.0646 126.895 91.3667C126.617 97.9281 127.126 99.3409 127.698 102.316C128.784 97.6048 130.648 93.1953 133.017 88.8337C131.091 92.354 129.103 95.9214 127.637 100.708C126.706 97.0637 127.219 93.3043 127.203 90.0696C126.503 90.9024 125.887 91.874 125.534 93.2862C125.796 87.1837 129.129 81.0823 131.012 74.9792ZM131.012 74.9792C128.075 79.4179 126.432 81.8822 124.375 86.4661C124.06 86.1388 123.743 85.8291 123.419 85.5383C124.548 82.3457 125.921 79.8411 127.21 76.9843C125.543 79.7757 124.18 82.5566 123.178 85.3277C122.514 84.7531 121.831 84.2608 121.124 83.8629C122.981 81.5185 124.996 79.295 127.21 76.9843C124.946 79.316 122.894 81.4697 120.99 83.7866C119.708 83.09 118.35 82.7059 116.885 82.7215C117.122 82.1343 117.362 81.5446 117.609 80.9454C117.354 81.5075 117.081 82.1018 116.803 82.7247C116.101 82.739 115.377 82.8451 114.624 83.0512C114.796 82.8136 114.967 82.5739 115.14 82.3371C114.962 82.5758 114.786 82.8153 114.609 83.0542C111.559 83.8945 108.068 86.3849 103.937 91.1292C104.704 87.9796 105.719 85.5094 106.784 82.2822C105.285 85.8347 104.397 88.7133 103.793 91.2941C103.397 91.7524 102.996 92.2283 102.588 92.7284C102.985 92.2844 103.374 91.8617 103.757 91.4528C103.234 93.7198 102.927 95.7609 102.615 97.8309C103.286 96.6217 104.005 95.4757 104.511 94.0467C104.458 96.442 104.728 98.6751 105.606 100.605C107.239 94.1407 110.495 88.8267 114.108 83.7659C114.95 83.5007 115.759 83.3567 116.541 83.3234C115.052 86.7301 113.466 91.0328 113.202 96.4673C109.594 96.9559 106.12 99.5823 104.846 106.752L107.309 109.019C107.262 108.855 107.242 108.701 107.202 108.54C106.158 98.3807 113.346 96.2146 120.05 98.5272C120.872 98.9557 121.649 99.4355 122.372 99.9433C122.323 102.72 122.542 104.879 121.005 108.272C120.05 110.631 117.287 111.856 115.051 112.022C111.703 112.233 108.697 109.759 107.98 107.942C109.071 110.715 112.024 112.706 115.094 112.459C118.176 112.21 123.043 111.057 122.791 101.393L122.763 99.7633L123.285 100.007C122.287 98.5281 117.799 95.9726 113.44 96.4491C115.652 91.6312 118.059 87.7918 120.813 84.2604C121.574 84.6261 122.323 85.0902 123.071 85.6367C121.853 89.1 121.201 92.5442 121.219 95.97C121.936 92.8077 123.097 89.6994 124.46 86.7416C124.734 86.9763 125.011 87.2204 125.287 87.474C125.033 87.1777 124.776 86.8904 124.518 86.6164C126.516 82.3052 128.933 78.3222 131.012 74.9792ZM117.609 80.9454C118.113 79.8304 118.557 78.8245 118.857 77.9303C118.436 78.9475 118.017 79.9537 117.609 80.9454ZM118.857 77.9303L119.315 76.7492L118.463 77.7777L119.031 77.1643L118.857 77.9303ZM133.017 88.8337C133.234 88.5683 133.442 88.2542 133.698 88.1841C133.37 91.2157 133.159 94.8665 133.42 98.1146C133.989 95.172 134.18 90.4479 136.655 85.4315C135.951 90.324 135.15 95.0974 136.338 99.8663C136.782 101.65 137.507 103.928 138.617 105.716C141.683 102.956 143.256 99.1148 143.885 96.1493C144.352 97.0102 144.259 98.6677 144.44 99.8634C147.028 95.6965 148.584 89.3393 148.725 80.8602C149.482 83.1331 150.138 85.6959 150.672 88.2485C150.126 88.6132 149.583 88.9862 149.036 89.3289C149.586 88.9921 150.134 88.6369 150.684 88.2974C151.378 91.6239 151.847 94.8928 152.075 97.5136C148.307 96.6472 145.477 98.8431 142.566 103.053C143.172 102.556 143.671 102.168 144.248 101.701C143.09 104.151 142.727 107.837 143.341 109.586C144.231 111.522 146.218 112.428 148.108 112.247C151.546 111.939 154.149 108.78 154.743 104.322C153.926 107.464 152.003 112.001 147.022 111.89C146.442 111.853 145.765 111.657 145.142 111.289C142.521 109.45 143.164 105.466 144.053 102.692C144.265 102.143 144.493 101.684 144.779 101.273C145.53 100.668 146.335 100.005 147.01 99.4758C152.449 96.538 157.373 100.577 156.513 106.992C156.372 108.046 155.741 108.544 155.286 109.745L157.761 107.587C158.009 103.219 156.806 100.508 155.307 99.021C156.345 95.5102 156.929 91.3181 157.38 86.9269C157.834 87.1346 158.294 87.424 158.762 87.8089C159.378 92.8496 159.584 99.8604 158.698 105.024C160.042 103.666 161.056 101.768 161.759 99.3604C161.846 99.7716 161.934 99.905 162.021 100.169C161.942 99.6143 161.931 98.9919 161.911 98.3777C161.403 100.53 160.32 102.641 159.266 103.428C159.521 98.4869 159.636 93.4996 159.079 88.0841C160.403 89.2869 161.789 91.2665 163.26 94.3373C161.782 90.831 160.373 88.6715 159.012 87.4402C158.681 84.4888 158.145 81.4059 157.322 78.1324C157.376 80.6634 157.337 83.4874 157.169 86.2959C154.993 85.5275 152.92 86.7594 150.855 88.133C150.152 84.6115 149.227 80.8227 148.108 77.394C148.978 85.5059 147.35 95.4705 144.519 99.0737C144.635 96.8266 144.373 96.1551 143.778 95.2376C143.405 99.2234 140.174 104.356 138.666 105.028C137.857 103.812 137.178 101.594 136.734 100.261C135.464 96.4369 135.772 91.7191 137.043 83.7685C135.557 86.7002 134.566 90.2534 133.637 93.7416C133.491 92.0338 133.841 89.4119 134.031 87.1376C133.606 87.6454 133.324 88.2474 133.017 88.8337ZM157.789 82.6787C158.118 83.6969 158.427 85.2654 158.68 87.1556C158.261 86.8201 157.846 86.5716 157.435 86.3957C157.558 85.1649 157.675 83.9225 157.789 82.6787ZM116.95 83.3165C118.244 83.3246 119.469 83.633 120.664 84.1863C118.082 87.3842 115.771 90.9224 113.572 95.6639C113.334 92.3792 114.754 88.0767 116.645 83.3196C116.746 83.3164 116.849 83.3165 116.95 83.3165ZM114.075 83.7773C110.428 88.7244 107.022 93.7492 105.781 99.4695C104.779 98.2824 104.845 95.6462 104.6 93.4331C104.111 94.5357 103.69 95.7084 102.991 96.6008C103.216 94.5583 103.526 92.8495 103.895 91.3059C107.916 87.0389 111.197 84.6945 114.075 83.7773ZM123.322 85.8189C123.651 86.0673 123.981 86.3338 124.311 86.6124C123.496 88.4375 122.614 90.5988 121.561 93.3475C121.978 90.3414 122.596 87.9273 123.322 85.8189ZM155.363 86.4903V86.4934C155.413 86.4929 155.462 86.4929 155.512 86.4934C156.045 86.5026 156.587 86.6028 157.136 86.8199C156.84 91.3131 156.204 95.7153 155.107 98.8285C154.281 98.0898 153.304 97.7045 152.287 97.5499C152.071 95.1792 151.6 91.8592 150.868 88.1841C152.34 87.2843 153.821 86.5118 155.363 86.4903ZM131.791 119.245C130.345 119.253 128.898 119.408 127.406 119.669C127.031 119.755 126.886 119.791 126.85 120.176C126.771 121.261 127.56 122.456 127.979 123.313L127.888 123.096C127.491 122.068 127.164 121.264 127.174 120.658C127.193 120.17 127.38 120.18 127.677 120.13C129.936 119.792 132.184 119.334 135.798 120.075C135.961 120.125 136.067 120.222 136.079 120.45C136.129 121.47 135.772 122.31 135.401 123.221C135.85 122.333 136.369 121.336 136.524 120.325H136.528C136.562 120.204 136.799 119.904 136.952 119.791C135.064 119.365 133.527 119.306 131.791 119.245ZM108.235 120.832C109.034 120.822 109.812 121.211 110.417 121.641C112.265 122.982 114.439 125.729 116.621 129.13C117.178 130.123 117.836 131.151 118.54 131.843C120.213 133.474 122.595 135.054 123.271 136.796C123.834 138.269 120.664 143.663 118.647 146.671C119.153 145.121 118.908 143.457 117.469 141.785C116.633 140.704 115.403 139.881 113.929 139.301C112.103 138.613 109.872 138.293 108.174 138.239C107.337 138.216 106.486 138.241 105.631 138.309C103.426 125.851 106.318 124.155 109.474 124.167C111.253 124.378 112.941 125.79 113.746 128.699C114.556 131.627 114.229 133.657 113.929 139.301C114.412 135.927 115.158 132.266 113.938 128.184C112.663 124.552 110.826 123.832 109.101 123.832C108.618 123.832 108.145 123.889 107.695 123.954C104.874 124.491 103.321 128.559 105.625 138.309C104.734 138.381 103.842 138.499 102.961 138.666C102.271 138.797 101.61 138.962 100.981 139.155C101.097 129.408 98.0662 125.475 95.2006 125.693C93.135 125.943 90.7341 126.485 90.2873 131.919C90.1755 136.184 92.5175 140.961 94.1814 143.421C91.1673 138.288 90.6456 135.133 90.6627 132.093C90.6797 129.074 91.8779 127.033 93.5405 126.365C96.585 125.528 100.411 125.926 100.978 139.155C100.333 139.352 99.7231 139.582 99.1466 139.838C99.5979 139.431 99.6509 138.519 99.4548 137.836C99.3121 138.163 98.9902 138.373 98.6339 138.373C98.1386 138.373 97.7366 137.971 97.7366 137.476C97.7366 136.981 98.1386 136.579 98.6339 136.579C98.2726 136.234 97.8579 136.183 97.5108 136.329C96.7466 136.683 96.7622 137.96 97.0378 138.697C97.3002 139.398 97.9666 140.158 98.7102 140.04C97.2297 140.756 95.9961 141.664 95.0511 142.701C94.0603 143.787 93.3864 145.016 93.0705 146.32C92.6737 147.643 92.661 148.778 92.9392 149.744C89.8158 147.724 84.9988 145.704 84.7057 143.683C84.4321 141.839 85.9418 139.362 86.9914 137.128C87.3457 136.533 87.3219 136.147 87.3393 135.529C87.5145 129.457 89.8489 124.82 92.3595 123.609C93.5866 123.157 96.8115 123.562 98.9757 123.859C102.953 124.574 104.54 122.106 107.432 120.988C107.697 120.882 107.968 120.835 108.235 120.832ZM147.972 126.74L147.875 128.257C147.411 128.451 147.004 128.633 146.562 128.769L144.472 128.446C145.643 127.927 146.806 127.36 147.972 126.74ZM153.844 127.305C155.679 127.29 157.666 127.759 159.3 128.476C160.457 128.992 161.554 129.669 162.581 130.515C165.154 132.634 167.292 135.733 168.959 139.182C172.293 146.08 173.735 154.396 173.317 158.805V158.821C172.912 165.402 170.156 171.715 166.155 177.702C165.678 178.599 165.048 179.712 164.534 180.607C159.599 187.279 153.295 193.499 147.228 199.201C143.432 202.517 139.08 205.436 135.082 207.734C133.673 208.475 132.091 209.157 130.788 209.8C126.08 212.123 120.288 213.735 114.987 213.965C109.354 214.21 104.325 212.899 101.608 209.388C100.516 207.952 99.6717 205.683 99.8377 203.913C100.1 201.483 101.453 199.163 103.277 197.327C104.914 195.679 106.929 194.429 108.795 193.827C110.197 193.443 112.655 193.072 114.391 192.915C117.615 192.619 120.971 192.263 127.847 188.798H127.85C130.084 187.604 134.425 183.933 138 180.033C141.575 176.133 145.109 171.638 147.167 168.058C149.839 163.41 152.017 159.176 152.505 154.285C152.702 152.916 152.295 150.307 151.238 147.532C150.279 145.013 148.781 142.368 146.688 140.448C146.334 140.101 146 139.852 145.571 139.658C144.706 139.268 143.839 139.062 143.011 138.868L141.305 137.787C141.959 135.384 142.644 133.103 143.929 131.595C144.605 130.828 145.464 130.111 146.578 129.499C147.737 128.948 149.026 128.059 152.605 127.393C153.007 127.335 153.42 127.308 153.844 127.305ZM144.411 128.803L145.393 129.129C144.529 129.688 143.817 130.315 143.23 130.982C141.443 133.012 140.831 135.378 140.465 137.253L135.133 133.869C134.947 133.761 134.843 133.714 134.773 133.719C134.704 133.724 134.668 133.781 134.615 133.878L134.532 134.055C134.518 133.328 134.602 132.613 134.752 132.032C138.182 131.354 141.238 130.169 144.402 128.818L144.411 128.803ZM118.978 130.951L122.182 131.321C122.43 132.198 122.319 132.943 122.271 133.71C120.913 132.85 119.776 131.907 118.978 130.951ZM122.762 131.168C127.002 131.595 130.788 131.827 134.026 131.754C133.882 132.948 134.055 133.931 134.087 135.007L131.631 140.271L134.591 134.647C134.695 134.371 134.778 134.507 134.991 134.638L143.914 140.14C144.168 140.265 144.111 140.296 143.993 140.528L142.434 143.589C142.35 143.768 142.36 143.776 142.22 143.644L135.143 136.979C134.862 136.741 134.813 136.691 134.676 136.863L131.695 140.574C131.575 140.684 131.588 140.77 131.588 140.924V141.932L131.658 140.992C131.649 140.835 131.69 140.78 131.789 140.671L134.554 137.632C134.83 137.304 134.765 137.371 135.054 137.653L141.304 143.75L135.164 158.261L120.9 143.442L134.999 158.652L134.191 160.559C133.929 161.063 133.954 161.501 133.962 162.049L134.255 183.53C131.981 185.729 129.165 187.81 127.73 188.578C120.879 192.03 117.572 192.373 114.367 192.667C112.577 192.7 110.778 193.098 109.267 193.18C108.294 192.916 107.201 192.412 106.984 191.715C106.754 190.971 107.522 190.124 108.715 189.829C108.602 189.845 108.474 189.874 108.336 189.911C107.619 189.038 107.994 183.731 106.838 181.504C106.751 181.338 106.653 181.116 106.609 180.93C106.455 179.949 106.643 179.312 106.838 178.681C106.88 178.525 106.763 178.362 106.588 178.29C106.33 178.216 106.098 178.165 105.901 177.954C105.823 177.865 105.543 177.721 105.758 177.371C107.128 175.362 108.17 173.258 109.948 171.365L109.221 171.451C108.62 170.806 109.657 168.004 109.877 166.483C110.754 166.225 111.599 165.907 112.352 165.585C113.648 165.017 114.785 164.158 115.34 162.464C115.439 162.077 115.44 161.729 115.367 161.426C115.463 161.437 116.951 161.607 117.891 161.939C119.506 162.487 120.869 162.446 122.368 161.774C124.73 160.708 126.02 157.912 126.506 155.737C126.844 153.144 125.687 150.375 122.63 148.206C125.907 150.882 126.564 153.586 126.1 155.829C125.653 157.903 124.378 160.429 121.971 161.45C120.961 161.89 119.806 162.084 118.77 161.74C117.538 161.382 115.294 160.88 115.099 160.837C114.778 160.403 114.255 160.178 113.707 160.248C111.192 160.619 109.384 161.297 108.211 161.548C107.186 161.683 104.643 161.431 103.087 161.994C102.601 162.139 102.277 162.47 102.15 162.912C102.077 163.234 102.048 163.554 102.059 163.861C101.512 163.852 100.708 164.201 99.8674 164.447C98.3632 164.887 96.8604 165.012 95.1982 164.716C94.3964 164.55 93.4112 164.219 92.6255 163.736C90.4438 162.393 89.1993 160.491 89.1221 157.895C88.8851 154.563 91.4568 151.224 93.1687 150.363C93.9329 152.057 95.669 153.166 97.7402 153.849C98.0352 154.632 98.2582 155.415 98.6832 156.137C98.8948 156.496 99.2988 157.057 99.6415 157.248C99.6415 157.248 99.4172 156.451 99.3638 156.04C99.3314 155.83 99.3159 155.625 99.3272 155.429C99.3579 154.981 99.5078 154.634 99.7574 154.367C102.474 154.893 105.397 154.848 107.356 154.514C108.993 154.235 111.109 153.463 113.082 152.347V152.344H113.085C113.463 152.107 114.393 151.544 114.729 151.291C115.794 151.806 115.935 152.639 116.2 153.83C116.259 153.723 116.308 153.607 116.35 153.485C116.461 153.216 116.499 152.969 116.527 152.564C116.592 151.726 116.473 150.781 116.377 149.994C116.904 149.42 117.599 148.688 117.793 148.346L117.797 148.343C118.15 147.832 118.429 147.304 118.618 146.759C118.735 146.589 118.848 146.425 118.962 146.259C118.981 146.268 120.442 146.963 121.709 147.665C120.537 146.995 119.07 146.188 119.026 146.164C120.63 143.824 121.946 141.776 123.683 138.901L131.02 140.622L123.86 138.593C124.168 137.952 124.219 136.969 124.062 136.286L131.02 140.622C128.536 138.494 125.12 136.964 122.768 134.549C122.793 133.282 122.829 132.136 122.762 131.168ZM108.089 134.308C106.992 134.436 106.865 135.877 106.936 136.521C107.038 137.301 107.562 138.245 108.379 138.209C109.149 138.174 109.532 137.077 109.487 136.225C109.275 136.511 108.913 136.644 108.565 136.564C108.083 136.452 107.782 135.972 107.894 135.489C108.006 135.007 108.486 134.707 108.968 134.818C108.783 134.59 108.456 134.318 108.089 134.308ZM86.5081 135.889C86.091 137.096 85.4187 138.314 84.9975 139.344C84.4873 139.322 83.6564 139.285 83.5235 139.283L86.5081 135.889ZM107.505 138.263C107.726 138.262 107.95 138.264 108.179 138.269C111.105 138.431 114.151 138.967 116.355 140.699C123.213 147.279 112.481 153.126 107.175 154.02C101.937 154.902 90.041 154.393 93.8391 144.562C94.121 143.821 94.5985 143.248 95.0812 142.719C97.3831 140.432 99.9454 139.291 102.97 138.697C104.603 138.451 105.96 138.274 107.505 138.263ZM143.66 139.277C144.228 139.421 144.802 139.594 145.372 139.841C145.847 140.011 146.228 140.358 146.565 140.668C148.596 142.548 150.065 145.144 151.008 147.62C152.054 150.366 152.447 152.974 152.263 154.248V154.255C152.061 156.281 151.566 158.195 150.862 160.077L150.703 159.726C150.659 159.59 150.584 159.641 150.493 159.675L139.622 163.614C139.267 163.702 139.304 163.775 139.308 164.115L139.458 178.034C138.916 178.655 138.37 179.267 137.822 179.865C136.708 181.08 135.588 182.237 134.511 183.289L134.453 162.163C134.442 161.717 134.415 161.222 134.569 160.85L141.524 143.958L142.32 144.736C142.526 144.965 142.515 144.917 142.647 144.666L144.817 140.528C145.009 140.149 144.957 140.104 144.774 139.985L143.66 139.277ZM84.9769 139.408C84.5695 140.419 84.2264 141.459 84.0339 142.566C83.8912 143.515 83.7296 143.93 84.2994 144.666C85.7664 146.542 89.8474 148.105 92.9572 149.784C93.0089 149.958 93.0702 150.124 93.1403 150.287C92.0743 150.552 89.0423 153.452 88.5597 157.853C88.4731 160.479 89.7078 162.536 92.0967 164.094C93.5611 165.046 95.2362 165.129 97.1748 165.308C97.7346 165.303 98.1991 165.263 98.661 165.165C98.6826 167.3 98.8048 170.551 98.1789 172.898C97.8952 174.093 95.537 177.56 94.1993 179.892C95.694 177.589 97.7589 175.287 98.5298 172.983C98.8312 172.088 98.962 170.88 98.9815 169.617C98.9846 169.363 99.0657 168.699 99.1646 168.4L99.3782 168.668C99.7047 169.124 99.92 169.66 100.071 170.133C100.9 172.73 101.528 175.159 101.154 175.11C100.889 175.081 100.602 174.674 100.278 174.295C100.56 174.954 101.019 175.606 101.286 175.696C102.634 175.889 99.2013 167.04 98.6641 165.165C99.1351 165.064 99.6018 164.904 100.163 164.664C100.63 164.531 101.225 164.345 102.125 164.405C102.292 165.231 102.778 165.933 103.538 166.333C104.308 166.754 105.167 166.961 106.028 167.026C107.264 167.099 108.595 166.858 109.858 166.489C109.347 168.365 108.451 170.295 108.677 172.065C107.167 173.963 106.047 175.927 104.872 177.881C105.27 178.136 105.7 178.427 106.275 178.611C106.391 178.646 106.445 178.803 106.416 178.962C106.224 179.892 106.218 180.591 106.248 181.306C106.284 181.738 106.484 182.017 106.611 182.346C106.918 183.148 107.114 184.558 107.264 185.96C104.38 185.718 100.812 183.339 100.093 181.446L101.362 181.418L104.268 178.202L101.051 180.863L95.6707 180.985C92.4886 183.102 86.9549 186.835 84.8491 186.738C80.5686 185.859 76.0969 182.443 73.0358 180.442C72.1151 179.984 71.9803 179.619 71.9677 178.714C71.9312 176.095 71.8973 173.524 71.8609 170.472C72.6865 167.619 74.7504 165.231 76.8689 162.864C78.0106 157.617 80.0537 151.172 80.2715 147.156C80.3042 146.481 79.9457 145.881 78.8555 144.672C78.4046 144.187 78.5992 143.494 78.5992 143.494C80.0329 140.05 81.6961 139.73 84.9769 139.408ZM131.836 142.316C131.735 142.312 131.619 142.335 131.488 142.398C130.892 142.689 131.182 144.111 131.595 144.883C132.008 145.654 132.995 146.804 133.243 148.569C133.492 150.334 133.225 151.515 133.457 151.816C133.804 152.3 134.205 152.983 134.784 154.792C134.848 153.748 134.049 152.419 133.676 151.679C133.411 151.243 133.754 150.519 133.542 148.685C133.33 146.851 131.493 144.58 131.476 143.585C131.46 142.591 132.379 142.676 132.379 142.676C132.379 142.676 132.199 142.329 131.836 142.316ZM110.057 144.281C109.127 144.303 108.211 144.919 108.299 146.244C108.221 144.498 110.394 143.597 111.744 145.166C111.442 144.576 110.746 144.265 110.057 144.281ZM100.663 145.899C99.7338 145.921 98.8178 146.537 98.9055 147.861C98.828 146.115 101.001 145.215 102.351 146.784C102.049 146.193 101.352 145.883 100.663 145.899ZM142.905 148.746C142.363 148.717 141.949 149.815 142.457 150.092L148.768 153.248L142.612 149.814C142.282 149.64 142.648 148.97 143.015 149.134L149.696 152.875L143.076 148.795C143.018 148.766 142.962 148.749 142.905 148.746ZM116.307 150.04C116.601 151.853 116.535 152.929 116.219 153.715C116.12 152.996 115.947 152.444 115.706 152.042C115.465 151.642 115.156 151.391 114.793 151.264C115.332 150.88 115.842 150.471 116.307 150.04ZM116.118 153.534C116.116 153.534 116.114 153.537 116.112 153.538C116.114 153.537 116.115 153.538 116.118 153.538V153.534ZM97.8069 153.873C98.4129 154.069 99.0468 154.228 99.6928 154.355C99.4479 154.629 99.2962 154.981 99.2656 155.426C99.2336 155.894 99.3346 156.466 99.5738 157.151C98.9287 156.591 98.3758 155.651 97.8069 153.873ZM150.407 160.114C150.468 160.114 150.506 160.161 150.535 160.236L150.675 160.556C149.86 162.628 148.8 164.671 147.608 166.788L142.305 168.708C142.042 166.098 141.577 164.809 141.008 164.82C140.926 164.822 140.843 164.851 140.757 164.905C141.495 165.275 141.925 166.946 141.831 168.848C141.822 169.064 141.876 169.164 142.134 169.068L147.212 167.487C147.127 167.636 147.041 167.786 146.955 167.936C145.905 169.762 144.463 171.837 142.823 173.951C142.754 172.398 142.526 171.318 142.305 170.441C142.426 171.881 142.647 173.431 142.417 174.469C141.478 175.661 140.481 176.86 139.463 178.028L139.671 164.411C139.646 164.145 139.711 164.15 139.943 164.063L150.34 160.129C150.366 160.118 150.387 160.114 150.407 160.114ZM113.951 160.358C114.839 160.346 115.508 161.277 115.242 162.311C115.073 162.947 114.774 163.533 114.329 164.051C113.536 164.973 112.271 165.686 110.411 166.111C108.609 166.576 106.893 166.845 105.503 166.697C103.612 166.312 102.13 165.235 102.372 163.328C102.455 162.742 102.789 162.266 103.48 162.015C104.784 161.523 107.024 161.976 108.641 161.576C110.008 161.238 111.364 160.747 112.788 160.499C113.2 160.438 113.574 160.364 113.951 160.358ZM121.656 165.534C118.8 165.547 116.375 165.666 115.068 166.059C114.908 166.083 114.86 166.165 114.796 166.291C114.035 167.781 113.802 169.006 114.012 170.761C114.035 171.046 114.036 171.047 114.295 171.042C121.159 170.913 126.035 170.704 131.899 170.295C132.175 170.283 132.204 170.307 132.234 170.047C132.384 168.74 132.251 167.355 131.334 165.763C131.295 165.693 131.195 165.648 131.133 165.647C128.41 165.624 125.459 165.544 122.786 165.534C122.404 165.533 122.025 165.532 121.656 165.534ZM124.879 165.83C128.141 165.831 130.999 165.937 131.172 166.05C131.603 167.026 132.163 167.821 131.968 169.703C131.962 169.886 131.94 169.915 131.776 169.922C126.084 170.185 122.553 170.763 114.656 170.585C114.347 170.599 114.345 170.558 114.298 170.282C114.041 168.756 114.784 167.429 115.15 166.556C115.825 166.002 120.685 165.829 124.879 165.83ZM130.924 171.058C130.62 173.403 130.409 177.743 131.108 179.969C131.312 180.621 131.422 181.235 131.294 181.913C130.82 183.057 122.026 183.154 116.014 182.91C115.846 182.906 115.824 182.948 115.766 182.804C115.367 181.656 116.058 175.956 115.461 173.377C115.753 176.821 115.013 182.549 115.409 183.393C115.458 183.503 115.544 183.493 115.641 183.5C120.753 183.817 125.878 184.098 131.602 182.657C131.761 182.595 131.865 182.482 131.874 182.331C131.928 181.039 131.301 179.719 131.196 178.76C130.842 175.52 131.064 173.725 130.924 171.058ZM121.314 173.288C121.173 176.318 121.123 178.989 121.098 181.555C121.401 179.108 121.695 176.648 121.314 173.288ZM125.031 173.639C124.82 176.295 124.685 178.975 125.163 181.861C125.466 179.12 125.306 176.38 125.031 173.639ZM174.589 178.629C175.172 178.623 175.658 178.687 175.981 178.843C177.831 179.979 179.651 181.16 180.522 183.356C180.637 183.694 180.499 184.308 180.137 184.324C179.837 184.331 179.59 184.27 179.304 184.125C177.675 183.3 177.26 181.786 175.609 180.243C176.824 182.14 177.662 182.81 177.788 185.308C177.788 185.411 177.7 185.458 177.592 185.467C175.706 185.478 173.721 181.574 171.196 181.025C170.534 180.858 169.682 180.777 168.754 180.75C168.563 180.745 168.368 180.744 168.171 180.741C168.234 180.185 168.35 180.07 168.589 179.95C170.224 179.292 172.84 178.647 174.589 178.629ZM166.295 179.12C166.324 179.12 166.356 179.12 166.386 179.12C167.07 179.131 167.787 179.358 168.538 179.798C168.503 179.812 168.467 179.826 168.434 179.84C168.237 179.965 168.133 180.415 168.165 180.741C168 180.74 167.835 180.739 167.668 180.741C166.638 180.752 165.586 180.81 164.65 180.878C165.026 180.372 165.395 179.864 165.755 179.352C165.911 179.162 166.089 179.124 166.295 179.12ZM167.759 180.802C167.913 180.801 168.066 180.801 168.217 180.802C168.398 180.803 168.575 180.806 168.751 180.811C170.067 180.849 171.237 181 171.895 181.339C171.904 181.344 171.913 181.346 171.922 181.351C171.952 181.367 171.98 181.383 172.007 181.4C173.662 182.362 175.147 184.52 176.82 185.557C177.639 185.921 178.023 185.667 177.962 185.015C177.841 183.773 177.739 183.38 177.26 182.611C178.121 183.435 178.769 184.227 179.896 184.458C186.581 190.051 191.345 196.091 191.142 202.717C190.639 211.76 182.029 217.926 174.061 219.825C164.15 221.434 152.539 212.757 145.625 214.451C143.437 214.881 137.634 216.143 137.138 220.011C136.96 221.426 137.768 222.973 138.136 223.615C138.504 224.257 139.602 225.234 138.508 224.607C137.004 223.817 136.161 222.523 135.749 220.878C135.235 216.629 137.642 210.548 141.746 208.075C143.233 207.267 148.386 204.72 154.365 205.662C159.006 206.763 163.869 208.601 168.281 208.939C171.336 209.305 177.893 206.344 178.175 202.509C178.302 200.17 172.949 196.495 167.848 196.448C166.298 196.516 164.301 196.499 163.697 196.537C163.606 196.309 163.499 196.086 163.377 195.869L166.407 193.522C166.641 193.35 166.739 193.216 166.67 192.783C166.294 190.416 166.047 187.248 165.397 186.671C164.273 185.667 162.799 185.493 161.323 185.065C162.464 183.712 163.563 182.336 164.601 180.942C165.576 180.87 166.685 180.81 167.759 180.802ZM161.161 185.26C161.737 185.378 163.887 185.962 164.436 186.304C165.494 186.861 165.413 187.213 165.541 187.589C165.83 188.743 166.153 191.278 166.386 192.643C166.424 192.913 166.353 193.027 166.221 193.137L160.432 197.666C160.084 197.907 160.068 197.851 160.057 197.648C159.983 196 159.931 194.197 159.706 193.174C159.692 193.073 159.658 192.986 159.608 192.908C159.238 192.413 157.702 191.995 156.913 191.703L157.002 191.919C157.771 192.292 159.208 192.61 159.407 193.232C159.732 194.328 159.717 196.018 159.724 197.623C159.732 198.176 159.968 198.29 160.249 198.087L163.099 195.89C163.494 197.217 163.818 198.696 162.962 199.881C161.362 201.647 157.18 203.65 153.355 204.892C148.97 204.81 144.247 205.828 140.632 208.496C137.432 209.489 134.581 210.334 132.96 210.181C131.526 209.911 133.421 208.951 133.821 208.731C138.194 206.325 143.136 203.107 147.395 199.387L147.398 199.384H147.401C152.087 194.98 156.922 190.262 161.161 185.26ZM156.745 194.098C156.483 196.597 156.621 198.749 156.62 201.023C156.683 198.752 156.867 196.701 156.745 194.098ZM167.448 196.753C170.815 196.715 177.799 200.174 177.558 202.756C177.273 204.912 173.056 208.219 168.403 208.322C165.792 208.44 159.166 206.292 154.646 205.048C157.852 203.897 161.162 202.569 163.395 200.376C164.16 199.713 164.278 198.264 163.819 196.872C165.068 196.801 166.32 196.775 167.448 196.753Z" fill="black"/>
<defs>
<filter id="filter0_f_0_1" x="108.636" y="104.997" width="45.2556" height="7.07765" filterUnits="userSpaceOnUse" color-interpolation-filters="sRGB">
<feFlood flood-opacity="0" result="BackgroundImageFix"/>
<feBlend mode="normal" in="SourceGraphic" in2="BackgroundImageFix" result="shape"/>
<feGaussianBlur stdDeviation="0.163285" result="effect1_foregroundBlur_0_1"/>
</filter>
<filter id="filter1_f_0_1" x="106.702" y="96.6374" width="48.5337" height="13.6212" filterUnits="userSpaceOnUse" color-interpolation-filters="sRGB">
<feFlood flood-opacity="0" result="BackgroundImageFix"/>
<feBlend mode="normal" in="SourceGraphic" in2="BackgroundImageFix" result="shape"/>
<feGaussianBlur stdDeviation="0.0981904" result="effect1_foregroundBlur_0_1"/>
</filter>
<filter id="filter2_f_0_1" x="108.917" y="98.2041" width="46.9556" height="12.6021" filterUnits="userSpaceOnUse" color-interpolation-filters="sRGB">
<feFlood flood-opacity="0" result="BackgroundImageFix"/>
<feBlend mode="normal" in="SourceGraphic" in2="BackgroundImageFix" result="shape"/>
<feGaussianBlur stdDeviation="0.185825" result="effect1_foregroundBlur_0_1"/>
</filter>
<filter id="filter3_f_0_1" x="110.934" y="129.197" width="62.2191" height="73.8132" filterUnits="userSpaceOnUse" color-interpolation-filters="sRGB">
<feFlood flood-opacity="0" result="BackgroundImageFix"/>
<feBlend mode="normal" in="SourceGraphic" in2="BackgroundImageFix" result="shape"/>
<feGaussianBlur stdDeviation="0.424436" result="effect1_foregroundBlur_0_1"/>
</filter>
<radialGradient id="paint0_radial_0_1" cx="0" cy="0" r="1" gradientUnits="userSpaceOnUse" gradientTransform="translate(133.786 80.9909) rotate(93.8592) scale(20.302 47.4122)">
<stop stop-color="#EEC0B2"/>
<stop offset="1" stop-color="#EEC0B2" stop-opacity="0"/>
</radialGradient>
<linearGradient id="paint1_linear_0_1" x1="99.6109" y1="157.873" x2="103.636" y2="167.406" gradientUnits="userSpaceOnUse">
<stop stop-color="#9F9F9F"/>
<stop offset="1" stop-color="#9F9F9F" stop-opacity="0"/>
</linearGradient>
<linearGradient id="paint2_linear_0_1" x1="101.728" y1="85.8391" x2="106.602" y2="88.1687" gradientUnits="userSpaceOnUse">
<stop stop-color="#EEC1B2"/>
<stop offset="1" stop-color="#EEC1B2" stop-opacity="0"/>
</linearGradient>
<linearGradient id="paint3_linear_0_1" x1="103.636" y1="121.433" x2="105.331" y2="119.737" gradientUnits="userSpaceOnUse">
<stop stop-color="#E9AC9C"/>
<stop offset="1" stop-color="#E9AC9C" stop-opacity="0"/>
</linearGradient>
<linearGradient id="paint4_linear_0_1" x1="88.3734" y1="145.455" x2="86.9906" y2="137.128" gradientUnits="userSpaceOnUse">
<stop stop-color="#D3AA6D"/>
<stop offset="1" stop-color="#D3AA6D" stop-opacity="0"/>
</linearGradient>
<linearGradient id="paint5_linear_0_1" x1="103.213" y1="137.428" x2="102.981" y2="135.655" gradientUnits="userSpaceOnUse">
<stop stop-color="#E3C959"/>
<stop offset="1" stop-color="#E3C959" stop-opacity="0"/>
</linearGradient>
<linearGradient id="paint6_linear_0_1" x1="105.116" y1="145.567" x2="105.228" y2="147.402" gradientUnits="userSpaceOnUse">
<stop stop-color="#E8CA63"/>
<stop offset="1" stop-color="#E8CA63" stop-opacity="0"/>
</linearGradient>
<linearGradient id="paint7_linear_0_1" x1="104.103" y1="155.267" x2="120.283" y2="151.147" gradientUnits="userSpaceOnUse">
<stop stop-color="#D9B862"/>
<stop offset="1" stop-color="#D9B862" stop-opacity="0"/>
</linearGradient>
<linearGradient id="paint8_linear_0_1" x1="104.536" y1="180.595" x2="104.853" y2="179.906" gradientUnits="userSpaceOnUse">
<stop stop-color="#DCB668"/>
<stop offset="1" stop-color="#DCB668" stop-opacity="0"/>
</linearGradient>
<linearGradient id="paint9_linear_0_1" x1="131.614" y1="121.544" x2="131.745" y2="125.428" gradientUnits="userSpaceOnUse">
<stop stop-color="#FFFDFD"/>
<stop offset="1" stop-color="#FFFDFD" stop-opacity="0"/>
</linearGradient>
<linearGradient id="paint10_linear_0_1" x1="127.787" y1="133.933" x2="129.166" y2="137.111" gradientUnits="userSpaceOnUse">
<stop stop-color="#ECB8A9"/>
<stop offset="1" stop-color="#ECB8A9" stop-opacity="0"/>
</linearGradient>
<linearGradient id="paint11_linear_0_1" x1="181.106" y1="214.812" x2="159.527" y2="209.766" gradientUnits="userSpaceOnUse">
<stop stop-color="#FDE859"/>
<stop offset="1" stop-color="#FDE859" stop-opacity="0"/>
</linearGradient>
<radialGradient id="paint12_radial_0_1" cx="0" cy="0" r="1" gradientUnits="userSpaceOnUse" gradientTransform="translate(139.718 74.6714) rotate(-67.5983) scale(13.2773 17.8393)">
<stop stop-color="#FF7F7F"/>
<stop offset="1" stop-color="#A66067"/>
</radialGradient>
<radialGradient id="paint13_radial_0_1" cx="0" cy="0" r="1" gradientUnits="userSpaceOnUse" gradientTransform="translate(148.13 108.081) rotate(13.0521) scale(7.3486 6.98749)">
<stop stop-color="#212848"/>
<stop offset="1" stop-color="#2C3665"/>
</radialGradient>
<radialGradient id="paint14_radial_0_1" cx="0" cy="0" r="1" gradientUnits="userSpaceOnUse" gradientTransform="translate(115.186 107.253) rotate(-11.1457) scale(8.16186 6.68384)">
<stop stop-color="#212848"/>
<stop offset="1" stop-color="#2C3665"/>
</radialGradient>
<radialGradient id="paint15_radial_0_1" cx="0" cy="0" r="1" gradientUnits="userSpaceOnUse" gradientTransform="translate(149.655 184.49) rotate(18.7839) scale(52.3671 59.4126)">
<stop stop-color="#FDE859"/>
<stop offset="1" stop-color="#D3AA6D"/>
</radialGradient>
<radialGradient id="paint16_radial_0_1" cx="0" cy="0" r="1" gradientUnits="userSpaceOnUse" gradientTransform="translate(151.827 179.177) rotate(25.94) scale(40.6553 50.7599)">
<stop stop-color="#FDE859"/>
<stop offset="1" stop-color="#EACD61"/>
</radialGradient>
</defs>
</svg>
