<svg width="256" height="256" viewBox="0 0 256 256" fill="none" xmlns="http://www.w3.org/2000/svg" id="renpy">
<style>
#renpy{
    rect {fill: #242938}

    @media (prefers-color-scheme: light) {
        rect {fill: #F4F2ED}
    }
}
</style>
<rect width="256" height="256" rx="60" fill="#242938"/>
<path d="M199.928 45.578C186.894 35.44 179.51 36.165 169.968 32.7416C147.062 7.6536 127.804 5.3656 108.378 2.0256C82.974 14.6712 71.61 31.9976 67.652 51.7916C60.0424 58.1106 52.27 64.3482 46.392 71.5326C51.8374 74.2194 59.6796 75.708 68.084 76.9158L187.544 56.4518C192.605 53.4932 196.319 49.5736 199.928 45.578Z" fill="#EADBCC"/>
<path d="M179.406 195.508C179.419 194.714 179.728 194.453 180.111 194.326C182.788 193.309 187.815 192.304 189.877 192.892C190.952 193.309 195.156 195.362 195.418 199.899L191.539 205.005L179.406 195.508Z" fill="#FAEEE3"/>
<path d="M175.632 192.016L180.754 194.591L180.446 196.382L173.253 196.326L175.632 192.016Z" fill="#C8C6C0"/>
<path d="M183.918 193.22C183.408 193.506 183.131 193.811 183.012 194.183C182.893 194.554 183.036 194.744 183.744 195C185.898 195.785 187.979 197.628 190.031 199.906C191.06 200.688 191.403 200.818 191.587 199.35L188.927 194.871C191.051 196.668 192.831 199.494 195.419 199.898L193.714 204.836L179.426 196.439C179.28 195.085 179.513 194.522 180.084 194.298L183.918 193.22Z" fill="#DDB1A3"/>
<path d="M84.332 68.808L91.945 127.696L121.043 131.815L121.222 140.683L133.593 145.329L135.946 137.594L135.985 132.666C139.704 132.052 144.281 130.238 148.711 128.629L171.233 121.088L182.475 56.6482L134.501 48.7318L84.332 68.808Z" fill="#FBEFE3"/>
<path d="M84.332 68.808L91.945 127.696L121.043 131.815L121.222 140.683L133.593 145.329L135.946 137.594L135.985 132.666C139.704 132.052 144.281 130.238 148.711 128.629L171.233 121.088L182.475 56.6482L134.501 48.7318L84.332 68.808Z" fill="url(#paint0_radial_0_1)"/>
<path d="M109.186 173.152L103.476 197.222L86.4076 196.335L73.5434 204.094C66.6432 202.388 61.1714 198.398 55.7312 194.356L55.6521 181.73L61.9457 172.744L66.2997 151.884L64.2809 149.074C64.7388 145.603 66.6445 142.823 73.6223 142.464L109.186 173.152Z" fill="white"/>
<path d="M118.906 147.768C104.637 154.442 106.409 162.617 104.797 177.258L103.589 181.801C103.868 185.533 101.743 186.653 99.3918 190.676C98.5152 192.111 100.047 192.493 100.756 192.737C100.213 194.304 100.361 195.044 100.511 196.65C101.994 200.134 101.898 204.145 102.4 207.411C99.3363 209.103 101.492 211.379 104.163 211.806L132.919 233.426C136.395 234.217 139.604 232.774 143.033 231.941L164.103 225.492C169.048 223.018 174.893 221.405 173.681 215.728L180.735 210.943L160.465 166.211C163.115 151.086 160.439 148.874 149.307 139.853L118.906 147.768Z" fill="#B5A396"/>
<path d="M118.906 147.768L137.351 167.282L145.405 147.794L146.581 148.689L149.296 143.791L136.728 135.646L132.642 143.707L131.858 144.155L122.65 138.054L117.304 146.058L118.906 147.768Z" fill="white"/>
<path d="M83.638 156.516C82.6067 156.715 81.9595 157.563 81.2036 158.238C78.3114 161.383 77.3938 165.748 78.1162 169.044C80.3358 174.167 84.1786 175.189 89.4566 175.476C91.4018 174.901 92.8712 174.388 94.8596 174.388C95.0855 172.784 95.3714 172.042 96.7596 171.36C100.638 170.85 102.135 171.571 106.734 169.915C108.084 169.659 109.142 169.291 110.495 169.42C111.118 169.611 111.318 169.992 111.662 170.508C115.627 171.621 119.086 172.131 121.776 170.508C126.191 165.802 127.32 161.647 123.755 156.338C122.947 155.436 122.236 154.73 121.123 153.864L116.508 151.253L115.986 152.013C113.01 156.743 109.702 158.426 104.835 160.692C97.6022 162.402 92.5782 162.303 86.5078 159.683C85.0529 158.599 84.5028 157.992 83.638 156.516Z" fill="#C8C8C8"/>
<path d="M80.024 167.586C80.1149 167.509 80.2125 167.447 80.4395 167.586C81.3937 168.172 82.5883 169.123 83.7709 169.913C86.6713 172.051 90.4851 171.18 93.3007 170.413C99.4313 168.71 106.727 164.591 110.118 158.298C105.016 161.214 100.761 161.74 95.0767 161.86C90.0663 161.222 86.5553 160.916 83.7561 156.873L83.3671 156.528C76.7897 160.945 76.0581 169.47 82.1926 174.051C86.6756 175.853 89.901 175.947 94.1564 174.188C90.379 174.684 79.6388 175.891 80.024 167.586Z" fill="url(#paint1_linear_0_1)"/>
<path d="M91.024 97.514L88.3618 69.256L106.275 58.7322C101.826 71.9616 94.2336 85.612 91.024 97.514Z" fill="url(#paint2_linear_0_1)"/>
<path d="M93.73 113.172C96.1308 116.169 98.6664 118.694 101.488 120.218L95.155 123.543L93.73 113.172Z" fill="url(#paint3_linear_0_1)"/>
<path d="M67.406 64.356L67.1568 66.2167C64.9106 84.4363 63.9108 102.933 59.4842 120.669C60.5081 119.433 61.2997 117.267 62.0644 114.995C61.8243 118.334 62.08 121.97 60.8769 124.732L69.3475 124.811C70.1391 123.284 70.9308 120.153 71.7225 117.686C72.5049 119.882 72.675 121.813 72.91 125.128C73.5947 124.568 74.178 123.603 74.6516 122.199C74.7975 123.36 74.8641 124.521 75.2058 125.682L77.679 126.247C79.4122 123.019 81.4332 122.026 82.2606 121.653C86.3874 120.738 89.7914 122.384 93.4902 122.189C94.259 122.122 94.9996 121.841 95.7424 121.458C90.9272 98.8697 91.1702 86.4837 92.9276 77.7557C95.5826 73.4365 99.2376 69.5887 102.245 66.4581C98.9612 73.7033 96.8018 80.5657 95.9898 87.8101C96.8845 86.6677 97.4205 85.1665 98.0464 83.7551C98.3602 86.5879 98.2762 89.9607 99.5578 91.4801C103.355 79.2667 111.54 69.5541 116.883 62.4001C113.466 70.8099 108.922 80.4299 109.531 86.6101C113.833 77.0177 120.179 69.7143 126.987 62.6981C122.725 69.5587 119.279 81.6705 119.756 83.8021C122.4 75.8759 127.728 66.3757 131.857 60.1321C129.447 67.9433 124.525 76.1239 124.842 83.5661C125.293 81.7586 126.083 80.5155 126.979 79.4495C126.999 83.5899 126.342 88.4011 127.534 93.0659C129.41 86.9389 131.955 82.3721 134.421 77.8663C134.814 77.1157 135.176 76.3448 135.719 75.6949C135.477 78.6061 135.029 81.9617 135.216 84.1477C136.404 79.6825 137.671 75.1373 139.572 71.3847C138.243 81.0739 136.52 90.6013 141.653 98.5907C143.583 97.7313 147.719 91.1627 148.196 86.0609C148.958 87.2353 149.294 88.0929 149.146 90.9691C152.769 86.3563 154.85 73.6049 153.737 63.2211C156.293 71.9641 157.944 80.2573 159.144 89.5131C160.371 89.7702 161.496 90.3748 162.458 91.345C165.52 82.8142 165.719 73.4992 165.533 64.171C168.32 74.7322 168.539 86.253 168.019 96.547C169.369 95.5388 170.755 92.8362 171.406 90.0816C171.467 92.7328 171.691 94.1916 172.413 96.566C169.396 104.238 166.188 111.897 163.149 119.562C162.959 119.992 162.493 120.661 162.177 120.906C157.701 123.915 153.62 126.552 149.077 128.571L151.755 128.986C157.484 126.686 162.441 126.362 168.055 127.34C168.057 127.338 168.058 127.337 168.06 127.335C168.05 127.33 168.05 127.329 168.062 127.333C171.792 124.053 173.624 120.423 175.726 115.532C175.182 120.254 174.964 123.614 174.111 128.437C175.487 127.131 176.687 126.126 178.207 123.669C177.793 125.181 177.388 126.692 177.703 128.204C179.657 126.648 182.802 120.83 182.712 115.075C183.561 117.957 184.013 124.446 183.662 129.008C188.364 122.187 188.678 117.346 190.841 108.38C191.109 114.688 190.793 112.012 191.711 116.778C193.157 97.0923 193.838 63.3239 181.192 43.4279C144.9 39.2411 103.328 48.8398 67.406 64.356ZM116.518 62.9381L116.52 62.9311C115.718 63.7937 115.708 63.8044 116.518 62.9381Z" fill="#FF7F7F"/>
<path d="M147.812 140.236L147.204 141.909L149.295 143.791L146.581 148.689L145.405 147.793L144.509 149.864C151.182 153.151 156.874 157.906 158.224 169.177C156.195 171.372 154.229 185.802 153.066 178.088L145.993 180.204C145.694 178.661 146.073 177.311 144.845 175.502C144.032 173.202 143.51 173.568 142.769 174.288C142.256 180.106 141.829 186.312 141.598 191.848C140.18 193.299 138.762 194.482 137.344 195.486C137.053 187.239 136.276 178.991 135.721 170.744C135.61 179.737 135.605 189.309 135.217 196.774C129.318 200.725 122.444 204.119 108.323 207.062C106.412 207.757 104.898 207.647 107.376 206.521C108.458 205.89 108.415 206.202 108.126 205.058C107.296 201.556 106.851 197.9 106.524 194.197C106.392 192.693 106.368 192.514 104.757 193.039C103.756 193.227 103.109 192.962 103.754 191.823C104.429 190.219 105.481 188.74 106.542 187.264C107.765 185.564 107.451 185.856 105.826 187.185C104.039 188.62 102.283 190.02 100.927 190.963C99.639 191.857 100.085 191.031 100.119 189.609L98.9431 191.792L100.756 192.735L100.315 195.43L100.846 196.746L101.658 201.056L102.4 207.41L101.014 208.389L100.734 210.041L104.163 211.804C158.279 218.144 174.308 155.594 147.812 140.236ZM111.538 177.35L109.485 182.148C108.515 184.415 108.799 184.71 110.673 186.559L111.087 199.07C111.139 200.613 110.851 201.094 112.543 200.722L125.16 199.225L126.981 198.829L112.493 198.671C113.132 194.841 112.809 190.989 112.522 187.111C112.44 186.006 111.937 185.56 113.301 185.494C119.444 184.692 125.587 184.297 131.731 183.907C131.794 183.101 132.055 182.543 132.942 181.827C127.994 181.757 118.336 182.441 112.254 182.243C111.248 182.208 110.704 182.384 111.053 181.074L111.538 177.35Z" fill="#887C74"/>
<path d="M164.98 207.18L164.386 207.695C166.288 208.454 169.038 209.621 169.255 211.059C169.561 210.282 169.545 209.409 164.98 207.18ZM163.476 208.645L161.893 210.465L163.238 218.778L163.476 208.645ZM164.535 209.47C164.275 209.474 164.253 209.782 164.295 210.654L164.106 222.971C164.101 224.33 164.27 224.198 163.088 224.871C161.745 225.603 160.302 225.835 158.837 225.956C157.956 226.028 156.913 226.217 158.326 225.445L159.516 224.631C161.072 223.568 160.706 223.81 159.259 224.414C156.389 225.607 153.438 226.616 150.257 227.11C149.051 227.295 148.021 227.637 148.662 226.022C149.579 222.63 151.662 219.587 153.522 216.477L131.466 232.543L135.216 233.887L164.1 225.49L170.873 222.215L173.448 219.416L173.672 217.233C172.902 219.515 170.235 221.311 167.455 222.742C166.483 223.242 164.937 224.123 166.61 222.589L168.449 220.59C169.982 218.928 168.126 220.21 166.983 220.508C167.11 217.893 167.655 217.223 168.075 215.974L168.375 217.703C168.673 218.838 168.987 218.638 170.081 217.959C171.198 217.239 172.211 216.24 173.225 215.246L173.029 214.728L168.858 217.373L168.446 211.082L165.651 209.891C165.08 209.648 164.736 209.467 164.535 209.47Z" fill="#887C74"/>
<path d="M95.592 194.198C96.2026 193.681 98.1352 191.482 98.9962 191.506C99.7083 192.194 99.8525 192.454 100.756 192.735L100.263 196.296L95.1242 199.561L95.592 194.198Z" fill="#E7C763"/>
<path d="M103.23 118.476C99.8564 119.14 97.351 120.883 94.3628 122.355C90.7582 122.443 87.4014 122.206 83.7964 121.722C80.0306 122.589 77.9678 126.403 76.5504 130.312L75.4449 138.07C74.158 140.678 72.9205 143.095 72.3745 146.031C72.4318 146.081 72.4891 146.129 72.5464 146.179C72.2363 147.073 71.8606 147.937 72.4058 148.785C73.3597 150.184 75.199 151.301 76.5972 152.195C76.6144 152.139 82.4086 155.627 83.5972 155.999C83.5976 156 83.5967 156.003 83.5972 156.003C84.0534 157.589 84.9581 158.812 86.9644 159.96C92.7162 162.527 103.223 162.404 105.765 160.316C105.77 160.278 105.761 160.25 105.761 160.214C106.017 160.13 106.309 160.057 106.515 159.96C109.569 158.434 111.605 157.471 114.035 154.933L115.421 152.835L118.984 147.292C120.502 144.802 121.937 142.739 122.703 139.89C120.274 134.935 112.881 129.339 110.316 124.492C108.145 122.004 106.462 119.575 103.23 118.476Z" fill="#FDE759"/>
<path d="M110.266 169.332C108.523 169.425 106.987 169.919 105.258 170.352C103.183 171.171 101.813 171.022 99.6292 171.062C98.9386 171.077 98.5101 171.114 98.1526 171.199C98.1733 171.171 98.182 171.15 98.2034 171.121C95.5044 171.661 95.1312 172.017 95.0276 174.598C96.313 178.013 100.126 178.084 103.231 177.535L106.043 176.82C106.048 176.797 106.019 176.783 106.016 176.762C106.985 176.442 107.912 176.029 108.84 175.606C110.284 174.765 110.97 173.716 111.692 172.309C111.991 170.69 111.624 169.925 110.266 169.332Z" fill="#FDE759"/>
<path d="M76.72 141.468C75.4019 142.422 73.3076 144.362 72.6936 145.715C72.3899 146.781 71.7644 147.789 72.4049 148.785C73.3588 150.184 75.2013 151.301 76.5995 152.195C76.6167 152.139 82.4099 155.628 83.5985 156.001C83.1194 153.323 83.4658 151.365 84.1394 149.225C81.5822 147.01 80.9264 144.615 79.7138 142.049C79.4493 143.711 81.2858 147.887 82.028 148.996C78.5428 148.371 77.19 144.824 76.7048 141.603C76.695 141.581 76.7422 141.466 76.72 141.468Z" fill="url(#paint4_linear_0_1)"/>
<path d="M95.402 141.774C95.2948 141.258 95.167 138.124 96.0261 138.03C96.8852 137.936 97.6807 140.388 97.9401 141.374C97.1118 141.471 96.2956 141.577 95.402 141.774Z" fill="url(#paint5_linear_0_1)"/>
<path d="M104.878 148.922C104.689 148.931 104.493 148.963 104.292 149.027C102.685 149.539 102.769 151.352 102.769 151.352C104.356 150.272 105.236 150.044 107.179 149.973C107.179 149.973 106.199 148.858 104.878 148.922ZM92.8546 150.988C92.6659 150.998 92.4735 151.034 92.2726 151.098C90.6653 151.61 90.7452 153.422 90.7452 153.422C92.3323 152.342 93.213 152.114 95.1554 152.043C95.1554 152.043 94.1758 150.925 92.8546 150.988Z" fill="url(#paint6_linear_0_1)"/>
<path d="M83.598 156.002C83.2441 155.722 83.1681 151.689 83.6066 151.355C85.1631 165.605 106.255 156.461 105.765 160.316C103.222 162.405 92.7148 162.527 86.963 159.96C84.9568 158.812 84.0542 157.588 83.598 156.002Z" fill="url(#paint7_linear_0_1)"/>
<path d="M98.204 171.122C93.4118 177.508 106.309 175.439 106.041 176.822L103.231 177.534C100.126 178.083 96.3118 178.012 95.0264 174.596C95.1299 172.015 95.5051 171.662 98.204 171.122Z" fill="#E3C265"/>
<path d="M96.344 193.466C97.1867 194.276 98.5872 195.378 100.461 194.95C100.701 196.408 100.838 196.821 101.252 198.117C101.398 199.56 101.807 200.549 101.866 202.392C97.966 202.186 93.422 199.217 91.6534 196.276C93.9562 196.302 94.8912 194.874 96.344 193.466Z" fill="url(#paint8_linear_0_1)"/>
<path d="M103.286 123.07C97.9594 123.456 98.1754 129.42 98.243 134.429L99.3563 141.195C103.044 141.045 105.723 141.048 109.985 142.465C110.809 136.099 111.62 126.415 105.923 123.265C104.919 123.074 104.047 123.015 103.286 123.07ZM85.3406 125.207C80.6798 126.836 80.2072 130.033 79.9968 134.586C80.6201 139.88 82.5094 144.25 84.8952 147.996C87.6948 144.322 91.5452 142.865 93.407 142.277C93.4837 138.376 92.6555 134.206 91.9187 130.859C89.7973 125.746 87.7684 125.336 85.3406 125.207ZM113.107 156.035L110.685 157.757C111.704 157.854 112.699 159.05 112.896 161.058L113.177 160.222C113.464 158.467 113.183 157.601 113.107 156.035ZM89.2046 160.738C89.6252 161.749 90.3993 164.741 91.8336 165.593C91.4467 164.508 90.5889 162.562 92.0289 161.562L89.2046 160.738Z" fill="white"/>
<path d="M127.97 122C128.896 123.784 136.599 123.497 137.47 121.881C138.635 119.273 138.576 118.745 138.736 117.844C134.222 116.539 129.826 117.355 126.901 117.844C126.575 119.093 127.264 120.545 127.97 122Z" fill="url(#paint9_linear_0_1)"/>
<path d="M136.084 134.152C132.763 139.893 126.677 141.765 120.899 136.422L120.706 131.935C126.336 132.493 131.62 132.688 136.282 132.687L136.084 134.152Z" fill="url(#paint10_linear_0_1)"/>
<path d="M136.796 139.534L132.722 144.095C137.936 143.975 140.956 145.354 145.022 148.159L136.796 139.534ZM122.467 141.954L119.617 145.63L131.857 144.154L122.467 141.954ZM132.157 146.064C130.391 146.056 128.691 146.149 127.059 146.342C130.846 147.473 132.816 148.412 136.4 146.263C134.946 146.136 133.531 146.07 132.157 146.064ZM141.942 155.921C136.659 165.086 137.023 163.333 130.225 159.642C133.138 163.233 136.121 165.877 137.163 166.734L141.942 155.921Z" fill="#DFD9C9"/>
<path d="M109.598 1.52344L108.375 2.02344C91.8265 11.3968 74.4993 19.0648 68.9973 52.5734C59.6749 58.3818 52.7901 64.8866 46.3913 71.5304C48.9103 73.879 56.2763 74.5978 65.7859 76.1242L67.3914 64.2024L74.3368 60.132C75.3051 57.1554 76.1278 54.179 77.6728 51.2024C78.521 49.5752 79.4433 48.4966 81.3524 47.8392C97.828 39.8134 110.02 37.9746 123.574 34.1674C113.234 35.4434 102.846 37.122 85.0784 43.2884C82.5294 44.1737 81.9098 44.9284 82.883 41.4759C84.4812 33.2053 88.1898 25.5909 92.5978 19.1079C90.0576 24.1391 88.8062 29.3179 88.0274 34.5493C93.3438 23.8369 98.9778 13.3293 107.902 4.93534C108.886 3.72214 109.681 3.80304 111 4.10722C119.891 6.17002 131.834 13.893 141.032 25.8072C137.373 19.9934 131.795 10.047 116.91 4.43122L109.598 1.52102L109.598 1.52344ZM141.032 25.8094C141.956 27.2771 142.762 28.4856 143.559 29.2898C142.746 28.0929 141.899 26.933 141.032 25.8094ZM181.324 43.4384C184.628 48.042 186.028 51.9538 187.769 55.9892C192.656 53.1684 196.363 49.4296 199.926 45.579C192.041 44.1331 185.776 43.3916 181.324 43.4384Z" fill="#BCAD9D"/>
<path d="M103.64 123.02C95.6088 123.055 98.3818 134.516 99.3632 141.194C100.069 133.213 99.6792 127.941 105.922 123.267C105.079 123.096 104.321 123.017 103.64 123.02ZM85.3586 125.552C77.167 125.675 79.6052 140.742 84.894 147.996C82.5582 137.963 81.4756 132.021 88.2506 126.018C87.167 125.685 86.206 125.539 85.3586 125.552Z" fill="#E5DFD1"/>
<path d="M177.942 195.562C176.825 195.589 175.733 195.661 174.626 195.753L174.067 196.578C172.784 198.11 171.497 199.642 170.215 201.175C172.353 201.549 174.671 202.338 175.969 203.464C176.186 204.204 176.362 204.996 176.52 205.8C176.614 206.452 176.723 207.141 176.856 207.937C176.863 207.945 176.873 207.949 176.88 207.957C177.049 209.206 177.164 210.43 177.215 211.484C175.84 212.599 174.274 213.767 173.028 214.73C173.197 215.601 173.446 215.984 174.18 215.969C176.415 215.818 178.64 215.9 180.872 216.008C185.565 216.655 189.167 219.582 191.618 222.5C191.618 222.5 191.632 222.451 191.633 222.449C191.757 222.616 191.896 222.772 192.016 222.941C188.229 232.873 177.156 231.913 168.66 228.879C159.018 225.385 150.309 226.777 143.032 231.945C141.207 234.067 140.094 235.554 139.079 237.875C139.038 237.916 138.856 238.078 138.856 238.078C138.78 238.347 138.681 238.71 138.587 239.055C138.544 239.168 138.5 239.25 138.458 239.367C138.473 239.363 138.489 239.363 138.505 239.359C137.48 243.219 136.089 250.59 142.942 252.464C135.664 242.711 144.348 238.776 153.544 239.132C155.328 239.342 157.161 239.642 158.997 239.953C167.457 242.801 178.897 247.554 188.029 245.847C188.05 245.851 188.074 245.855 188.095 245.859C188.137 245.843 188.178 245.828 188.22 245.813C189.907 245.479 191.521 244.946 193.006 244.106C192.82 244.116 192.616 244.094 192.428 244.098C200.132 240.654 206.773 235.467 209.392 226.148C209.386 218.384 209.154 214.059 199.846 204.14L195.213 200.347C193.377 200.15 191.839 198.71 190.889 197.746C191.479 198.868 191.969 200.289 191.908 201.675C191.424 202.014 191.028 201.83 190.471 201.582C188.686 200.353 187.159 198.647 185.736 197.265C184.04 195.89 182.999 195.83 181.412 195.628C180.201 195.553 179.059 195.535 177.942 195.562Z" fill="#E6C764"/>
<path d="M177.942 195.562C176.825 195.589 175.733 195.661 174.626 195.753L174.067 196.578C172.784 198.11 171.497 199.642 170.215 201.175C172.353 201.549 174.671 202.338 175.969 203.464C176.186 204.204 176.362 204.996 176.52 205.8C176.614 206.452 176.723 207.141 176.856 207.937C176.863 207.945 176.873 207.949 176.88 207.957C177.049 209.206 177.164 210.43 177.215 211.484C175.84 212.599 174.274 213.767 173.028 214.73C173.197 215.601 173.446 215.984 174.18 215.969C176.415 215.818 178.64 215.9 180.872 216.008C185.565 216.655 189.167 219.582 191.618 222.5C191.618 222.5 191.632 222.451 191.633 222.449C191.757 222.616 191.896 222.772 192.016 222.941C188.229 232.873 177.156 231.913 168.66 228.879C159.018 225.385 150.309 226.777 143.032 231.945C141.207 234.067 140.094 235.554 139.079 237.875C139.038 237.916 138.856 238.078 138.856 238.078C138.78 238.347 138.681 238.71 138.587 239.055C138.544 239.168 138.5 239.25 138.458 239.367C138.473 239.363 138.489 239.363 138.505 239.359C137.48 243.219 136.089 250.59 142.942 252.464C135.664 242.711 144.348 238.776 153.544 239.132C155.328 239.342 157.161 239.642 158.997 239.953C167.457 242.801 178.897 247.554 188.029 245.847C188.05 245.851 188.074 245.855 188.095 245.859C188.137 245.843 188.178 245.828 188.22 245.813C189.907 245.479 191.521 244.946 193.006 244.106C192.82 244.116 192.616 244.094 192.428 244.098C200.132 240.654 206.773 235.467 209.392 226.148C209.386 218.384 209.154 214.059 199.846 204.14L195.213 200.347C193.377 200.15 191.839 198.71 190.889 197.746C191.479 198.868 191.869 200.046 191.809 201.432C191.324 201.771 190.741 201.598 190.471 201.582C188.686 200.353 187.159 198.647 185.736 197.265C184.04 195.89 182.999 195.83 181.412 195.628C180.201 195.553 179.059 195.535 177.942 195.562Z" fill="url(#paint11_linear_0_1)"/>
<path d="M190.886 197.746C191.476 198.869 191.867 200.046 191.806 201.433C188.492 203.32 186.686 200.726 183.948 198.555C182.752 197.692 181.898 198.351 181.898 198.351C178.91 200.596 176.701 203.668 176.995 206.125C177.152 207.381 177.352 207.048 178.589 207.332C181.826 208.023 189.947 209.999 191.816 212.762C194.135 216.19 191.692 222.301 191.632 222.449C191.756 222.616 191.895 222.772 192.015 222.941C188.228 232.872 177.155 231.913 168.659 228.879C159.017 225.385 150.308 226.777 143.031 231.945C141.206 234.067 140.093 235.554 139.078 237.875C139.644 237.312 143.904 233.264 150.496 232.707C157.468 232.117 178.892 244.393 192.43 244.097C200.133 240.654 206.771 235.465 209.391 226.148C209.385 218.384 209.152 214.059 199.844 204.14L195.211 200.347C193.375 200.15 191.836 198.71 190.886 197.746ZM176.519 205.801C176.612 206.452 176.722 207.141 176.855 207.937C176.862 207.945 176.871 207.949 176.878 207.957C176.781 207.238 176.66 206.519 176.519 205.801ZM138.585 239.055C138.542 239.168 138.499 239.25 138.456 239.367C138.471 239.363 138.488 239.363 138.503 239.359C138.533 239.245 138.555 239.162 138.585 239.055ZM188.217 245.812C188.153 245.824 188.089 245.836 188.025 245.848C188.047 245.852 188.071 245.856 188.092 245.86C188.134 245.844 188.175 245.827 188.217 245.812Z" fill="#FDE859"/>
<path d="M161.392 42.206C126.424 42.1288 95.098 52.8564 67.39 64.204C66.8203 68.7928 66.3362 73.2688 65.8857 77.5352C67.1406 76.7104 68.3901 75.8763 69.6373 75.0372C67.4535 89.3776 64.8359 102.417 62.0645 114.993L61.8287 107.657L58.8979 122.039L61.4311 118.476L60.2832 125.364L69.5456 125.205L71.7226 119.268L72.5539 124.414L72.7914 125.601L74.3351 123.86L74.8892 125.997L77.8578 126.947C80.2758 122.463 82.375 121.247 87.3576 121.841C89.0467 121.862 95.0222 123.467 95.9008 121.615C90.6692 107.733 89.7996 91.2807 88.922 75.0767C87.2324 88.1619 85.9898 101.515 85.7872 115.493C83.4896 105.899 81.9678 95.6397 81.7568 84.2567C80.8525 89.9911 79.9314 95.5581 78.734 98.3631C78.2261 90.0417 77.4623 80.1857 76.6864 70.2571C101.628 53.3503 128 36.9131 180.436 48.8151C181.874 49.1387 183.374 49.4999 184.602 49.8053C185.144 48.9964 182.358 45.2815 181.192 43.4243C174.467 42.6042 167.868 42.2203 161.392 42.206ZM171.211 50.7834C173.701 56.743 176.664 62.861 177.785 69.7716C177.818 69.3292 177.846 68.8913 177.884 68.4447C178.057 68.8515 178.241 69.2848 178.428 69.7527C180.55 75.3927 180.528 81.5121 180.417 87.4443C181.699 87.8596 182.332 85.4095 182.426 84.5587C184.524 70.6925 180.628 59.5054 171.211 50.7834ZM113.443 53.72C110.363 57.5236 107.378 61.375 105.131 65.5948C105.197 64.5997 105.521 64.5054 105.21 62.1908C101.998 64.1537 99.0802 66.5084 96.5016 69.3156C97.6826 66.5344 97.964 63.753 98.1028 60.9718C96.1919 67.1224 93.9674 72.3862 93.2518 77.5584C96.0518 73.4206 99.2428 69.577 102.245 66.4576C102.056 67.5848 101.326 68.543 100.846 69.4804C98.6179 75.428 96.9833 80.549 96.2253 85.9256C96.1406 86.5292 96.0621 87.1562 95.9903 87.8098C96.926 86.5593 97.4686 85.0638 98.0469 83.7548C98.2576 87.577 97.9087 89.5132 99.5583 91.4798C99.6915 90.8548 99.8341 90.3212 99.99 89.7672C100.344 76.5826 108.423 64.688 113.443 53.72ZM181.735 55.0378C183.594 59.5666 184.566 62.7508 185.097 65.2648C185.095 65.2516 185.095 65.2391 185.094 65.2259C186.821 69.5685 187.023 73.3019 187.781 77.4371C188.415 73.9553 188.684 69.6865 187.955 67.4953C186.58 63.4205 185.106 59.3344 181.735 55.0378ZM134.377 55.8216C128.818 64.3812 123.592 70.5444 121.344 79.6156C124.587 72.2992 127.929 66.0688 131.858 60.1312C128.976 68.6908 125.215 75.5712 124.843 83.5652C125.494 82.5588 125.723 81.099 126.411 80.1852C127.676 72.6818 131.357 64.1052 134.377 55.8216ZM121.261 57.2306C119.691 58.6735 118.227 60.4678 116.871 62.4312C116.755 62.5994 116.635 62.7601 116.52 62.9308L116.296 63.9104C115.757 65.2124 115.221 66.4986 114.699 67.768C112.257 73.7334 109.029 80.3454 109.532 86.6094C110.459 85.2024 111.32 83.3556 111.819 82.0704C113.27 72.9322 116.731 65.3906 121.261 57.2306ZM142.999 59.74C131.749 75.3114 131.016 80.878 129.84 86.868C129.696 87.6031 129.546 88.3438 129.368 89.111C131.214 84.572 132.92 80.4722 135.016 76.742C135.23 76.3643 135.463 76.0041 135.722 75.694C135.219 78.6442 134.991 81.445 135.218 84.1468C135.606 83.4904 137.803 74.8196 139.575 71.3838C139.371 72.6558 139.187 73.863 139.024 75.0114C137.124 85.646 138.163 93.0476 141.655 98.5894C143.945 98.5133 148.757 87.7216 148.09 86.861C146.583 89.703 144.089 93.8438 142.447 94.5318C140.114 82.975 141.276 71.588 142.999 59.74ZM164.943 60.1878L165.562 66.8812C165.561 66.0312 165.553 64.9797 165.535 64.1698C166.037 68.2436 167.264 72.346 167.697 76.0824C167.786 76.3724 167.874 76.65 167.961 76.9203C167.903 76.9137 167.844 76.9089 167.785 76.9063C167.853 79.4861 168.197 82.0239 168.259 84.4987C168.364 88.6563 167.802 92.9133 168.021 96.5457C169.796 95.5514 171.049 92.1297 171.408 90.0803C171.437 90.8695 171.445 91.6407 171.548 92.3753C171.77 93.6738 171.971 95.1349 172.423 95.5983C173.981 92.3713 175.325 89.0481 175.697 86.1711C174.767 89.0139 173.831 91.7993 172.78 93.5509C173.502 89.9215 174.219 86.2879 174.067 82.0753C172.99 83.6806 172.478 84.1413 172.052 85.6021C171.982 84.5413 171.987 83.6298 171.739 82.2123C171.698 82.0836 171.656 81.9575 171.615 81.8311C171.628 81.7926 171.642 81.7547 171.654 81.7127C170.474 73.8331 168.058 66.7764 164.943 60.1878ZM152.739 61.0835C153.627 62.9792 153.713 67.2143 153.981 71.6991C154.598 69.1913 154.351 65.9827 153.74 63.2197C155.947 71.5179 158.273 80.8749 159.147 89.5117C160.432 89.7813 161.375 90.6511 162.461 91.3436C164.44 86.5526 164.646 82.5568 165.043 78.3516C164.193 83.1526 163.263 87.3868 162.032 89.52C161.221 79.8908 159.894 67.6735 152.739 61.0835ZM75.2734 71.2199C73.8254 87.0427 70.8056 99.7219 67.877 112.584C69.0625 101.038 70.2204 89.4459 69.674 75.0139C71.5416 73.7572 73.4054 72.4891 75.2734 71.2199ZM176.301 84.4839C175.675 87.3039 174.772 90.0537 173.956 92.8229L168.583 105.978C166.704 110.624 164.714 115.222 162.726 119.823C158.906 123.913 152.936 126.46 148.714 128.63L150.476 129.263L152 129.441C157.164 126.695 162.791 126.305 168.228 127.66C171.088 124.744 173.271 120.938 174.964 117.929C175.159 121.898 174.499 125.398 173.704 129.237C175.043 128.322 176.045 127.073 177.119 125.878C177.105 126.944 177.185 127.975 177.399 129.013C180.546 125.092 182.162 121.688 182.941 117.342C183.477 120.4 183.518 122.777 183.471 125.789C189.477 111.243 183.333 100.997 181.29 92.5109C182.351 99.2041 183.384 109.055 182.24 112.461C181.303 103.099 178.393 92.9467 176.301 84.4839Z" fill="url(#paint12_radial_0_1)"/>
<path d="M98.382 191.848L97.6092 192.258L93.568 196.186L86.8226 196.242L73.8916 203.799C66.6976 202.981 59.9926 197.574 56.0626 194.815C55.7519 189.677 55.2847 184.712 56.3984 179.701C58.3462 177.047 60.3156 174.41 62.3322 171.808L66.4746 152.887C61.7582 147.24 66.319 143.016 70.673 142.699L74.8994 137.521L75.4872 138.501L73.1362 143.427C73.1362 143.427 68.4366 144.657 68.434 146.338C68.4304 148.018 72.2964 148.745 72.2964 148.745C73.36 150.614 75.3828 151.443 77.1666 152.607L71.7334 154.275C69.543 154.669 70.1681 155.412 70.515 157.363L72.7952 170.185C73.7553 173.801 73.5372 173.956 70.4498 175.615L62.3316 179.979C59.8604 181.248 59.7336 181.128 62.409 181.865L66.0346 182.864C70.387 183.384 70.1012 186.203 71.2366 190.039L73.996 199.359C74.3334 200.601 74.8834 200.606 75.8514 199.92L84.7238 194.423L89.146 187.761L90.2096 185.018L90.7134 178.749L90.4365 175.568C92.2272 179.893 94.7059 184.504 94.7997 189.049C97.7623 188.231 100.806 186.118 103.84 184.151L98.9949 191.506L98.382 191.848Z" fill="#DFD9C9"/>
<path d="M160.036 90.04L153.169 107.821C156.226 107.666 159.903 106.714 162.927 104.634C167.294 98.5906 165.309 93.2958 160.036 90.04ZM101.25 94.3486C99.9341 96.9818 99.8963 99.9972 101.516 103.704C104.539 106.841 107.581 107.723 109.254 108.106L101.25 94.3486Z" fill="white"/>
<path d="M156.672 89.856C149.657 90.1514 148.26 95.257 147.594 98.985C146.861 105.617 149.116 107.715 153.289 107.731C158.871 107.647 161.574 101.471 162.231 97.692C162.733 92.8084 163.105 91.8536 160.035 90.0396C158.789 89.8675 157.674 89.8138 156.672 89.856Z" fill="url(#paint13_radial_0_1)"/>
<path d="M112.41 88.484C109.73 88.4559 107.456 89.2026 105.965 89.7613C103.556 91.1723 98.761 94.8563 102.375 102.324C104.694 107.453 110.626 109.359 115.457 106.984C122.346 103.367 120.941 96.0445 121.297 91.8549C118.178 89.3157 115.09 88.512 112.41 88.484Z" fill="url(#paint14_radial_0_1)"/>
<g filter="url(#filter0_f_0_1)">
<path d="M119.25 98.992C119.097 99.0702 118.824 99.4139 118.371 100.082C113.335 106.434 109.373 105.804 105.148 102.906C104.047 102.099 103.199 101.3 103.871 103.238C104.919 105.984 108.464 107.543 112.352 107.133C116.041 106.743 118.551 103.414 119.285 100.5C119.423 99.4638 119.504 98.8617 119.25 98.992ZM160.7 99.824C160.635 99.816 160.435 100.118 160.098 100.609C154.941 107.782 150.691 105.692 149.079 102.172C148.683 101.007 148.42 100.021 148.137 101.93C147.991 103.722 148.825 106.393 152.544 106.781C156.704 107.216 159.479 103.615 160.493 100.898C160.695 100.149 160.765 99.8321 160.7 99.824Z" fill="#A6AED6"/>
</g>
<g filter="url(#filter1_f_0_1)">
<path d="M110.848 88.11C104.484 88.2476 98.108 93.4124 102.375 102.325C101.953 95.7464 103.204 89.4442 116.813 89.6958C115.089 88.5771 112.969 88.0641 110.848 88.11ZM156.868 89.567C148.67 89.3485 146.178 98.9932 148.087 105.04C148.503 95.5146 151.316 93.0794 157.661 91.5552C159.275 91.4462 159.437 92.1106 160.153 92.7545C161.209 94.0404 161.822 95.8423 162.231 97.6921C162.51 95.7806 162.582 93.7215 162.61 92.2389C161.713 90.696 160.091 90.312 158.583 89.7467C157.985 89.6404 157.415 89.5816 156.868 89.567Z" fill="#212848"/>
</g>
<g filter="url(#filter2_f_0_1)">
<path d="M117.312 90.356C117.106 90.3924 116.912 90.4838 116.746 90.6451C116.081 91.2903 116.445 93.1685 117.187 93.7623C117.928 94.3561 119.229 94.2522 119.73 93.5591C120.231 92.8661 119.724 91.6187 119.117 91.0513C118.661 90.6258 117.93 90.2467 117.312 90.356ZM160.918 91.1919C160.401 91.111 159.885 91.2214 159.492 91.5943C158.706 92.34 158.966 94.4021 159.73 95.2193C160.495 96.0365 161.974 96.4251 162.781 95.6294C163.588 94.8337 163.116 92.7104 162.34 91.934C161.952 91.5458 161.434 91.2728 160.918 91.1919ZM105.468 102.446C105.015 102.378 104.521 102.585 104.269 102.915C103.933 103.355 103.986 104.156 104.406 104.579C104.825 105.001 105.848 105.251 106.304 104.747C106.76 104.243 106.425 102.97 105.898 102.61C105.766 102.52 105.619 102.469 105.468 102.446ZM149.542 102.735C149.238 102.693 148.933 102.763 148.71 102.985C148.263 103.429 148.469 104.64 148.913 105.087C149.358 105.533 150.13 105.699 150.577 105.255C151.024 104.81 150.815 103.6 150.37 103.153C150.148 102.93 149.846 102.777 149.542 102.735Z" fill="white"/>
</g>
<path d="M116.464 153.894C115.94 153.894 115.429 153.947 114.933 154.042C114.684 154.479 113.795 155.417 113.12 156.152C113.242 157.159 113.395 158.368 113.312 159.441L116.55 156.55C116.889 156.247 117.31 156.097 117.73 156.101C118.205 156.105 118.675 156.303 119.019 156.687C119.665 157.41 119.601 158.514 118.878 159.16L114.019 163.499C113.295 164.145 112.196 164.082 111.55 163.359C110.904 162.635 110.963 161.536 111.687 160.89C112.009 160.603 112.33 160.314 112.651 160.027C112.479 159.074 112.04 158.31 111.011 157.812C110.58 158.137 109.385 158.856 108.901 159.16C108.579 160.031 108.401 160.973 108.401 161.956C108.401 166.408 112.012 170.019 116.464 170.019C120.916 170.019 124.522 166.408 124.522 161.956C124.522 157.505 120.916 153.894 116.464 153.894ZM120.304 156.261H120.573L120.792 156.585L121.011 156.261H121.28L120.948 156.753L121.292 157.265H121.026L120.792 156.921L120.558 157.265H120.288L120.636 156.753L120.304 156.261ZM122.765 159.89H123.073L123.445 160.89H123.183L123.12 160.711H122.718L122.655 160.89H122.394L122.765 159.89ZM122.921 160.125L122.78 160.523H123.058L122.921 160.125ZM120.316 160.609C120.791 160.613 121.265 160.811 121.609 161.195C122.255 161.918 122.191 163.022 121.468 163.667L116.609 168.007C115.885 168.653 114.782 168.59 114.136 167.867C113.49 167.143 113.553 166.04 114.277 165.394L119.136 161.054C119.475 160.751 119.896 160.605 120.316 160.609ZM109.765 163.308H110.046L110.273 163.664L110.499 163.308H110.784L110.402 163.886V164.308H110.144V163.886L109.765 163.308ZM112.659 167.254H113.046C113.185 167.254 113.289 167.274 113.351 167.316C113.413 167.358 113.445 167.427 113.445 167.519C113.445 167.568 113.432 167.606 113.409 167.64C113.387 167.674 113.355 167.702 113.312 167.718C113.367 167.735 113.406 167.765 113.437 167.808C113.467 167.852 113.484 167.902 113.484 167.964C113.484 168.061 113.451 168.136 113.386 168.183C113.321 168.231 113.222 168.254 113.089 168.254H112.659L112.659 167.254ZM112.917 167.429V167.64H113.062C113.102 167.64 113.135 167.63 113.156 167.613C113.177 167.595 113.187 167.57 113.187 167.535C113.187 167.5 113.177 167.474 113.156 167.457C113.134 167.438 113.102 167.429 113.062 167.429L112.917 167.429ZM112.917 167.816V168.078H113.07C113.121 168.078 113.161 168.069 113.187 168.047C113.213 168.025 113.226 167.989 113.226 167.945C113.226 167.902 113.213 167.869 113.187 167.847C113.161 167.825 113.122 167.816 113.07 167.816H112.917Z" fill="#475F66"/>
<path d="M117.748 156.292C117.669 156.292 117.59 156.296 117.535 156.305C117.193 156.358 116.909 156.501 116.666 156.743C116.424 156.985 116.282 157.267 116.229 157.611C116.212 157.719 116.212 157.926 116.229 158.041C116.33 158.735 116.888 159.275 117.584 159.353C117.682 159.363 117.903 159.357 118 159.34C118.264 159.293 118.503 159.187 118.705 159.025C119.031 158.766 119.237 158.383 119.278 157.964C119.294 157.804 119.274 157.585 119.234 157.436C119.067 156.83 118.582 156.399 117.961 156.305C117.906 156.297 117.827 156.292 117.748 156.292ZM112.784 160.69L112.699 160.697C112.1 160.743 111.568 161.156 111.372 161.729C111.31 161.91 111.298 161.992 111.298 162.222C111.298 162.449 111.306 162.51 111.364 162.692C111.545 163.263 112.051 163.677 112.658 163.75C112.77 163.764 112.984 163.754 113.107 163.731C113.655 163.624 114.1 163.235 114.275 162.71C114.358 162.461 114.377 162.222 114.334 161.969C114.231 161.363 113.768 160.873 113.164 160.732C113.119 160.721 113.079 160.713 113.074 160.713C113.067 160.713 113.001 160.845 112.926 161.009C112.908 161.05 112.895 161.068 112.891 161.059C112.888 161.051 112.872 160.99 112.856 160.923C112.839 160.856 112.817 160.776 112.805 160.746L112.784 160.69ZM120.334 160.799C120.087 160.799 119.887 160.845 119.662 160.955C118.903 161.326 118.587 162.245 118.959 163.003C119.042 163.173 119.141 163.308 119.282 163.443C119.518 163.67 119.822 163.814 120.152 163.856C120.252 163.869 120.483 163.865 120.575 163.849C120.908 163.793 121.185 163.65 121.419 163.416C121.672 163.163 121.822 162.852 121.863 162.496C121.877 162.379 121.869 162.17 121.846 162.052C121.808 161.854 121.727 161.653 121.618 161.489C121.461 161.253 121.264 161.079 121.013 160.956C120.788 160.846 120.587 160.799 120.334 160.799ZM115.458 165.197C115.425 165.196 115.392 165.197 115.359 165.198C114.861 165.216 114.408 165.47 114.128 165.888C114.041 166.019 113.952 166.226 113.915 166.385C113.878 166.543 113.866 166.766 113.886 166.914C113.922 167.188 114.021 167.432 114.186 167.654C114.251 167.743 114.4 167.892 114.488 167.957C114.724 168.133 114.982 168.231 115.289 168.263C115.345 168.268 115.564 168.261 115.631 168.25C116.333 168.141 116.86 167.592 116.937 166.89C116.95 166.779 116.943 166.572 116.924 166.469C116.883 166.249 116.807 166.06 116.687 165.879C116.412 165.467 115.949 165.212 115.458 165.197Z" fill="#B42320"/>
<path d="M88.464 161.352C88.4053 161.323 88.2994 161.335 87.2726 161.481C86.541 161.585 86.1273 161.65 86.089 161.672C86.0181 161.714 85.9562 161.812 85.9562 161.883C85.9562 161.912 86.0399 162.536 86.1437 163.27C86.2474 164.004 86.3315 164.606 86.3273 164.61C86.3231 164.614 85.718 164.704 84.9835 164.809C84.2405 164.915 83.6139 165.017 83.5734 165.036C83.4857 165.076 83.4367 165.163 83.4367 165.278C83.4367 165.325 83.5051 165.84 83.589 166.426C83.6952 167.168 83.7551 167.509 83.7804 167.547C83.8004 167.578 83.8507 167.621 83.8937 167.641C83.9701 167.677 84.0026 167.674 85.3312 167.485C86.0793 167.378 86.7013 167.299 86.7101 167.309C86.7189 167.319 86.8064 167.899 86.9054 168.598C87.0044 169.297 87.0953 169.915 87.1085 169.973C87.14 170.112 87.2352 170.189 87.3741 170.188C87.4277 170.188 87.9444 170.119 88.5265 170.036C89.6722 169.871 89.6667 169.873 89.7413 169.723C89.7784 169.649 89.7751 169.62 89.5851 168.282C89.4573 167.382 89.3976 166.911 89.4132 166.907C89.4262 166.903 90.0073 166.818 90.7061 166.719C91.4049 166.62 92.0147 166.53 92.0616 166.52C92.1629 166.498 92.2696 166.406 92.2882 166.321C92.3042 166.248 91.9972 164.08 91.96 164.004C91.9218 163.926 91.824 163.861 91.7413 163.86C91.5997 163.869 91.4852 163.88 91.3428 163.891C91.4113 164.418 91.6983 165.438 91.6983 165.438C91.2597 165.193 90.7425 164.475 90.4717 164.016L89.0186 164.219C89.012 164.213 88.9195 163.597 88.8116 162.852C88.6008 161.397 88.6055 161.422 88.464 161.352ZM105.136 164.336C105.036 164.336 104.96 164.351 104.87 164.395C104.745 164.456 104.656 164.547 104.597 164.668C104.546 164.773 103.86 166.644 103.847 166.715C103.824 166.837 103.847 166.978 103.909 167.094C103.997 167.259 104.148 167.373 104.335 167.411C104.572 167.458 104.833 167.338 104.96 167.125C104.978 167.096 105.02 166.999 105.054 166.907C105.557 165.54 105.709 165.128 105.722 165.082C105.743 165.005 105.744 164.868 105.722 164.786C105.651 164.52 105.409 164.338 105.136 164.336ZM100.097 165.586C99.8765 165.586 99.6788 165.701 99.5734 165.891C99.5466 165.939 98.8669 167.779 98.8312 167.899C98.7688 168.109 98.8286 168.339 98.9913 168.497C99.0927 168.594 99.2054 168.644 99.3624 168.665C99.4631 168.678 99.6307 168.637 99.7296 168.575C99.8183 168.519 99.9145 168.409 99.9562 168.317C99.99 168.242 100.672 166.379 100.687 166.321C100.737 166.125 100.668 165.886 100.519 165.747C100.401 165.637 100.26 165.586 100.097 165.586Z" fill="#2F2F2F"/>
<path d="M144.594 140.574L146.637 142.054C149.23 142.567 150.381 142.73 152.434 144.601C156.514 149.561 158.766 154.033 159.36 161.027C158.554 167.234 156.388 172.08 153.067 178.089C147.409 186.918 142.688 192.947 134.422 200.691C129.677 205.227 123.355 208.587 116.098 210.191C111.864 210.857 104.921 211.298 103.313 211.852C96.2232 215.156 90.531 219.877 91.8322 228.516C96.5862 241.939 117.228 240.014 132.364 232.871C139.398 228.754 145.008 225.6 151.286 220.441C160.112 212.578 166.488 205.726 173.114 197.847C181.559 187.753 186.713 174.797 186.774 163.195C184.401 149.574 179.909 132.573 166.899 127.425C157.266 125.477 145.218 130.396 144.594 140.574Z" fill="url(#paint15_radial_0_1)"/>
<path d="M161.25 139.75C164.254 146.527 166.525 165.844 160 176.25C153.475 186.656 140.089 206.798 128.03 211.328C117.955 215.111 104.866 213.961 101 218C97.134 222.039 99.2552 228.971 110.5 231.5C121.745 234.03 137.344 227.862 161.892 210.466C183.308 186.958 202.5 162.074 168.546 127.54C163.608 126.881 158.822 126.88 154.3 128.017C154.3 128.017 158.245 132.974 161.25 139.75Z" fill="url(#paint16_radial_0_1)"/>
<g filter="url(#filter3_f_0_1)">
<path d="M118.006 222.92C128.33 223.088 143.628 219.778 164.386 207.694C185.218 186.872 193.648 148.524 172.154 133.774C161.459 127.094 165.677 132.058 167.925 139.023C172.851 154.451 174.775 180.055 151 200.249C136.635 212.449 120.252 216.275 116.072 217.323C99.434 221.299 109.959 222.738 118.006 222.92Z" fill="#FDE759"/>
</g>
<path d="M109.594 1.52344C108.584 1.52007 107.676 1.75446 106.68 2.25C80.422 15.3316 70.422 34.896 67.652 51.792C59.7538 57.3916 53.2806 63.1632 46.862 69.9678C45.7474 71.2539 45.6494 72.1974 46.4675 72.796C48.5421 74.2971 58.6911 75.8984 65.3073 76.4406C64.0162 93.1754 61.0727 109.359 57.7097 125.207L60.6393 121.484L59.69 125.918L69.6626 125.761C70.5703 124.023 71.2866 122.324 71.5611 120.375C72.1093 122.377 72.4376 124.272 72.5923 126.078L74.0962 124.968L74.8072 126.394L77.151 127.316C76.1556 129.541 75.3209 132.634 74.9634 136.941L70.358 142.453C68.1894 142.558 65.9838 143.423 63.608 147.672C63.3879 148.114 63.7558 149.404 63.9673 149.746C64.7623 150.711 65.5448 151.66 65.4673 152.359C64.8584 158.529 62.8685 165.736 61.5103 172.469C58.8635 175.272 56.1765 178.043 55.1743 182.285V193.137C54.9298 194.747 55.6443 195.247 56.7759 196.067C62.0239 199.866 68.9513 203.835 72.9087 204.61C74.6507 204.693 80.6711 200.732 86.7641 196.93L91.5141 197.008C94.2951 200.355 97.7221 202.529 101.499 202.7C101.731 204.995 101.873 207.15 102.081 207.496L102.092 207.504C101.342 207.839 100.597 208.41 100.417 209.282C100.217 210.245 101.264 210.999 102.112 211.461C99.7985 212.376 97.4645 213.927 95.5025 215.903C93.0231 218.399 91.1321 221.584 90.7603 225.047C90.76 225.049 90.7603 225.053 90.7603 225.055C90.5048 227.766 91.687 230.827 93.2643 232.899L93.2683 232.903C97.0893 237.842 103.961 239.546 111.385 239.223C118.348 238.921 125.848 236.837 132.009 233.805C133.618 234.646 136.891 234.13 141.33 232.856C139.675 234.955 137.708 238.085 137.267 243.954C136.835 249.076 140.264 252.84 143.049 254.325C144.813 254.937 144.624 253.601 143.139 251.86C141.352 249.799 140.421 247.97 140.4 246.204C140.358 242.605 144.477 239.783 151.729 239.431C160.628 238.918 174.037 247.872 185.455 246.954C186.955 246.83 188.372 246.432 189.869 245.798C200.976 241.587 209.301 235.194 210.057 223.422C210.372 213.658 203.001 206.361 195.631 199.062C195.631 198.924 195.616 198.768 195.588 198.593C194.586 195.458 192.58 193.828 190.322 192.577C188.932 192.156 188.228 192.087 187.154 192.218C184.588 192.551 181.138 193.468 179.654 193.659C179.059 193.096 178.475 192.581 177.853 192.269C183.047 184.491 186.644 176.231 187.182 167.531C187.751 161.501 185.859 150.833 181.49 141.797C179.305 137.276 176.495 133.169 173.014 130.301C171.502 129.163 170.056 128.198 168.545 127.539C170.723 125.578 172.304 123.279 174.904 118.687C174.626 122.72 174.155 126.397 173.291 129.844C174.468 129.01 175.81 128.175 176.697 126.805C176.643 128.096 176.862 129.02 177.256 129.715C181.256 125.07 182.73 121.198 182.967 118.258C183.307 123.204 183.289 127.644 182.631 130.668C186.761 126.622 187.715 122.931 190.467 110.957L191.021 124.891C191.761 122.211 192.014 120.728 192.486 117.605C194.554 88.0515 192.017 68.9295 188.053 56.8475C192.481 53.5971 195.517 51.1919 200.201 46.2421C200.636 45.8142 200.724 45.3242 200.416 44.9257C195.567 40.8633 185.707 35.9341 171.15 32.8633C156.903 18.9321 144.794 6.00726 111.568 1.78126C110.847 1.61516 110.2 1.52622 109.594 1.52344ZM110.129 3.03516C110.619 3.03916 111.114 3.07425 111.621 3.12891C129.191 5.02819 148.825 10.4589 170.071 33.7189C180.348 36.6917 191.435 38.1047 199.223 45.5001C164.679 37.8743 123.503 39.9149 67.4973 63.5509C67.5093 63.4676 67.5176 63.3842 67.5286 63.3009L67.4934 63.5509C61.9112 65.9067 56.183 68.4729 50.298 71.2697C55.9936 68.9683 61.6704 66.6427 67.384 64.3635L65.7864 76.1253C59.2642 74.9619 47.607 72.8913 47.8958 71.2151C47.87 69.3894 55.92 61.7707 68.9938 52.5745C72.5346 27.0005 91.1358 9.77851 107.654 3.35651C108.51 3.11183 109.313 3.0279 110.129 3.03516ZM114.172 4.66016C127.859 8.76636 137.65 22.4822 144.476 30.3682C137.138 20.0842 131.241 9.42416 114.172 4.66016ZM106.793 5.35156C90.0166 17.881 88.8294 30.3956 85.7352 41.6096C90.107 27.465 95.4258 14.7336 106.793 5.35156ZM145.523 32.2236C122.015 32.264 97.9032 37.7692 72.9132 51.122C96.2732 39.7536 122.381 30.29 166.955 33.6532C159.866 32.7104 152.721 32.2114 145.525 32.2235L145.523 32.2236ZM163.363 42.704H163.367C167.643 42.7014 172.025 42.8283 176.523 43.0985C186.982 57.4881 189.27 65.9745 187.781 77.4385C187.463 73.7145 187.141 68.5669 185.093 65.2275C185.461 68.5675 185.031 71.4683 184.847 74.5399C185.091 72.6927 185.451 69.2621 185.562 67.4149C187.361 71.6213 187.252 78.1007 186.437 87.1689C189.612 72.0137 191.56 61.6469 176.542 43.0989C178.078 43.1914 179.628 43.3007 181.191 43.427C193.837 63.3222 193.156 97.089 191.71 116.775C191.426 111.771 190.857 107.689 191.339 100.193C189.677 110.722 188.362 122.185 183.66 129.005C184.011 124.443 183.56 117.958 182.711 115.075C182.801 120.83 179.656 126.649 177.703 128.204C177.387 126.693 177.793 125.181 178.207 123.669C176.687 126.125 175.485 127.129 174.109 128.435C175.358 123.77 175.656 120.488 175.726 115.529C173.624 120.42 171.08 124.291 168.062 127.333C168.062 127.335 168.056 127.336 168.054 127.337C165.569 126.9 162.945 126.544 160.613 126.79C158.145 127.002 156.062 127.429 154.301 128.017L154.254 126.013C156.847 124.597 159.459 122.968 162.176 121.064C162.492 120.819 163.118 119.989 163.308 119.56L171.707 98.3678L162.691 119.24C162.431 119.82 161.844 120.793 161.277 121.15C154.155 126.207 146.998 129.791 137.219 132.412C131.846 133.101 118.899 131.619 115.223 130.662C113.854 129.35 112.932 127.447 111.985 125.963C108.86 121.674 107.384 119.689 104.528 118.674C103.832 118.469 103.236 118.199 102.602 118.22C100.088 118.518 98.1304 120.114 96.2312 121.193C91.6684 98.973 91.386 87.903 93.1608 78.419C95.798 73.9132 98.6008 70.4738 101.52 67.8018C101.232 68.6192 101.07 68.9309 100.848 69.4815C101.382 68.4317 102.25 67.1723 102.247 66.4581C99.2121 69.6235 96.1237 72.6063 93.4499 76.9737C94.3133 72.8967 95.5469 69.0245 96.9655 64.5713C93.2871 75.2885 88.0365 85.3093 95.7429 121.457C95.0001 121.841 94.2617 122.121 93.4929 122.188C89.7939 122.383 86.3891 120.738 82.2625 121.653C81.4351 122.026 79.4137 123.018 77.6805 126.246L75.2079 125.68C74.8663 124.519 74.7991 123.361 74.6532 122.2C74.1796 123.604 73.5957 124.566 72.911 125.125C72.676 121.811 72.5059 119.879 71.7235 117.684C70.9318 120.151 70.1401 123.282 69.3485 124.809L60.8797 124.731C62.0827 121.969 61.8271 118.332 62.0672 114.993C61.3025 117.265 60.5091 119.433 59.4852 120.668C64.062 102.331 64.9758 83.1805 67.3914 64.3645C95.9814 52.9599 125.531 42.734 163.363 42.704ZM184.847 74.5399C183.949 80.1827 183.473 84.2388 180.417 87.4462C181.316 76.6534 179.27 71.7008 177.882 68.4462C177.186 76.5774 177.528 83.8596 172.421 95.5982C172.282 95.5547 172.192 94.9184 172.105 94.2544C172.012 95.2354 171.892 96.2232 172.105 97.102C175.693 91.0534 177.136 82.6704 178.359 70.188C180.777 76.8618 180.471 84.08 179.546 90.532C182.625 86.6192 184.387 81.4745 184.847 74.5399ZM181.324 43.438C187.089 43.9071 193.044 44.6075 199.21 45.5708C196.041 49.9896 191.294 53.3522 187.769 55.9888C185.817 50.3034 183.55 46.2478 181.324 43.438ZM131.856 60.1334C128.333 69.7916 122.863 79.4484 124.445 89.1054C124.863 86.6124 124.522 84.5628 126.586 81.1094C126.23 89.508 126.881 91.3164 127.613 95.125C129.004 89.0942 131.389 83.45 134.422 77.8672C131.956 82.3732 129.412 86.9394 127.535 93.0664C126.343 88.4016 127 83.5896 126.98 79.4492C126.084 80.5151 125.295 81.7588 124.844 83.5664C125.179 75.7552 129.446 67.9454 131.856 60.1334ZM131.856 60.1334C128.096 65.815 125.993 68.9692 123.36 74.8366C122.957 74.4177 122.55 74.0213 122.137 73.6491C123.581 69.5625 125.34 66.3567 126.989 62.6999C124.855 66.2729 123.11 69.8325 121.828 73.3795C120.978 72.644 120.104 72.0139 119.199 71.5045C121.576 68.5037 124.155 65.6577 126.989 62.6999C124.09 65.6845 121.464 68.4413 119.027 71.4069C117.387 70.5152 115.648 70.0235 113.773 70.0436C114.076 69.2919 114.383 68.5371 114.699 67.7702C114.373 68.4896 114.023 69.2503 113.668 70.0476C112.77 70.066 111.842 70.2017 110.879 70.4655C111.099 70.1614 111.318 69.8545 111.539 69.5515C111.311 69.8571 111.086 70.1637 110.859 70.4694C106.956 71.545 102.487 74.7326 97.1991 80.8054C98.181 76.7738 99.4805 73.612 100.844 69.4812C98.9242 74.0284 97.7887 77.713 97.0155 81.0164C96.5085 81.603 95.9948 82.2122 95.4726 82.8524C95.9803 82.284 96.4784 81.743 96.9687 81.2196C96.2994 84.1214 95.9065 86.734 95.5077 89.3836C96.3664 87.8358 97.2858 86.369 97.9335 84.5398C97.8659 87.6058 98.2119 90.4642 99.3359 92.9344C101.426 84.6602 105.594 77.8582 110.219 71.3804C111.296 71.0409 112.332 70.8566 113.332 70.814C111.426 75.1746 109.397 80.682 109.058 87.6382C104.44 88.2636 99.9933 91.6254 98.3631 100.802L101.515 103.705C101.456 103.494 101.43 103.298 101.379 103.091C100.043 90.0873 109.243 87.3147 117.824 90.2749C118.876 90.8234 119.871 91.4375 120.797 92.0874C120.734 95.641 121.014 98.4056 119.047 102.748C117.824 105.768 114.288 107.335 111.426 107.548C107.14 107.818 103.292 104.651 102.375 102.326C103.771 105.875 107.551 108.424 111.48 108.107C115.425 107.789 121.655 106.314 121.332 93.943L121.297 91.857L121.965 92.1695C120.687 90.276 114.942 87.0049 109.363 87.6149C112.195 81.4479 115.276 76.5335 118.801 72.0133C119.775 72.4815 120.733 73.0754 121.691 73.775C120.132 78.208 119.297 82.6166 119.32 87.0016C120.238 82.9538 121.724 78.9752 123.469 75.1892C123.82 75.4897 124.174 75.8021 124.527 76.1267C124.203 75.7475 123.874 75.3797 123.543 75.029C126.101 69.5106 129.195 64.4124 131.856 60.1334ZM114.699 67.7702C115.345 66.3429 115.913 65.0554 116.297 63.9108C115.758 65.2128 115.222 66.5008 114.699 67.7702ZM116.297 63.9108L116.883 62.399L115.793 63.7154L116.52 62.9303L116.297 63.9108ZM134.422 77.8672C134.7 77.5275 134.965 77.1253 135.293 77.0357C134.874 80.9161 134.604 85.5891 134.938 89.7467C135.666 85.9801 135.911 79.9333 139.078 73.5123C138.178 79.7747 137.152 85.8847 138.672 91.9889C139.241 94.2725 140.169 97.1873 141.59 99.4771C145.514 95.9443 147.528 91.0269 148.332 87.2311C148.931 88.3331 148.811 90.4547 149.043 91.9851C152.356 86.6515 154.348 78.5143 154.528 67.6611C155.497 70.5703 156.336 73.8507 157.02 77.1181C156.321 77.5849 155.626 78.0624 154.926 78.5009C155.63 78.0699 156.332 77.6152 157.035 77.1806C157.923 81.4386 158.524 85.6228 158.817 88.9774C153.993 87.8684 150.37 90.6791 146.645 96.0672C147.42 95.4319 148.059 94.9345 148.797 94.3368C147.316 97.4736 146.85 102.191 147.637 104.431C148.776 106.909 151.319 108.068 153.739 107.837C158.139 107.442 161.471 103.399 162.231 97.6922C161.186 101.714 158.724 107.521 152.348 107.38C151.605 107.332 150.739 107.081 149.942 106.61C146.587 104.256 147.41 99.156 148.547 95.6062C148.82 94.9029 149.111 94.3156 149.477 93.7898C150.438 93.0151 151.469 92.1662 152.332 91.489C159.294 87.7286 165.597 92.8988 164.496 101.11C164.316 102.458 163.508 103.096 162.926 104.633L166.094 101.872C166.411 96.2802 164.872 92.8096 162.953 90.9068C164.281 86.413 165.029 81.0472 165.606 75.4264C166.188 75.6923 166.776 76.0627 167.375 76.5553C168.164 83.0075 168.428 91.9813 167.293 98.5913C169.014 96.8525 170.312 94.4235 171.211 91.3413C171.323 91.8677 171.435 92.0384 171.547 92.3765C171.446 91.6663 171.432 90.8696 171.407 90.0835C170.756 92.8381 169.37 95.5401 168.02 96.5483C168.347 90.2233 168.494 83.8395 167.782 76.9077C169.476 78.4473 171.25 80.9811 173.133 84.9117C171.241 80.4237 169.438 77.6595 167.696 76.0835C167.272 72.3057 166.586 68.3595 165.532 64.1695C165.601 67.4091 165.551 71.0239 165.336 74.6187C162.551 73.6352 159.898 75.212 157.254 76.9703C156.354 72.4627 155.171 67.6131 153.739 63.2243C154.852 73.6075 152.768 86.3623 149.145 90.9743C149.293 88.0981 148.958 87.2385 148.196 86.0641C147.719 91.1659 143.582 97.7359 141.653 98.5953C140.617 97.0389 139.747 94.2009 139.18 92.4937C137.553 87.5993 137.948 81.5605 139.575 71.3837C137.673 75.1363 136.404 79.6843 135.215 84.1493C135.028 81.9633 135.476 78.6073 135.719 75.6961C135.175 76.3461 134.815 77.1167 134.422 77.8672ZM166.13 69.9888C166.551 71.2921 166.947 73.2998 167.271 75.7192C166.734 75.2897 166.203 74.9716 165.677 74.7465C165.835 73.1711 165.983 71.5808 166.13 69.9888ZM113.856 70.8052C115.512 70.8156 117.08 71.2103 118.61 71.9184C115.305 76.0118 112.347 80.5406 109.532 86.6098C109.228 82.4054 111.045 76.8982 113.465 70.809C113.595 70.805 113.727 70.8052 113.856 70.8052ZM110.176 71.395C105.508 77.7272 101.148 84.159 99.5592 91.481C98.2777 89.9615 98.3613 86.5872 98.0475 83.7544C97.4217 85.1658 96.8837 86.6668 95.9889 87.809C96.2761 85.1946 96.6738 83.0074 97.1451 81.0316C102.292 75.5698 106.492 72.569 110.176 71.395ZM122.012 74.0082C122.434 74.3262 122.855 74.6673 123.278 75.0238C122.235 77.36 121.106 80.1264 119.758 83.6448C120.292 79.797 121.083 76.707 122.012 74.0082ZM163.024 74.8676V74.8716C163.088 74.8709 163.152 74.8709 163.216 74.8716C163.898 74.8834 164.591 75.0116 165.294 75.2895C164.915 81.0407 164.101 86.6755 162.696 90.6605C161.639 89.7149 160.389 89.2217 159.087 89.0238C158.811 85.9894 158.208 81.7398 157.271 77.0356C159.156 75.8839 161.051 74.8952 163.024 74.8676ZM132.852 116.794C131.002 116.804 129.149 117.002 127.239 117.337C126.759 117.447 126.575 117.493 126.528 117.985C126.427 119.374 127.437 120.904 127.974 122.001L127.856 121.723C127.349 120.407 126.931 119.378 126.942 118.602C126.967 117.977 127.206 117.99 127.587 117.926C130.478 117.494 133.356 116.908 137.982 117.856C138.19 117.92 138.326 118.044 138.341 118.337C138.404 119.642 137.948 120.716 137.474 121.883C138.048 120.746 138.712 119.471 138.911 118.176H138.915C138.96 118.021 139.262 117.637 139.458 117.493C137.042 116.948 135.075 116.872 132.852 116.794ZM102.7 118.825C103.724 118.812 104.719 119.311 105.493 119.86C107.859 121.577 110.641 125.094 113.435 129.446C114.147 130.718 114.99 132.033 115.892 132.919C118.032 135.007 121.081 137.029 121.946 139.258C122.668 141.144 118.61 148.048 116.028 151.899C116.676 149.914 116.363 147.785 114.521 145.645C113.451 144.261 111.876 143.208 109.989 142.465C107.652 141.585 104.796 141.175 102.622 141.106C101.552 141.077 100.462 141.109 99.3682 141.196C96.5454 125.25 100.248 123.078 104.286 123.094C106.564 123.364 108.725 125.171 109.755 128.895C110.792 132.642 110.374 135.241 109.989 142.465C110.607 138.146 111.562 133.461 110.001 128.235C108.369 123.587 106.018 122.665 103.81 122.665C103.192 122.665 102.586 122.737 102.009 122.821C98.3982 123.509 96.411 128.716 99.3606 141.196C98.219 141.287 97.0772 141.439 95.9504 141.653C95.0675 141.821 94.2205 142.031 93.4152 142.278C93.564 129.802 89.6848 124.768 86.0168 125.047C83.3728 125.368 80.2996 126.061 79.7278 133.016C79.5846 138.475 82.5824 144.59 84.7122 147.739C80.8542 141.169 80.1864 137.13 80.2082 133.239C80.23 129.375 81.7637 126.762 83.8918 125.907C87.7888 124.836 92.6862 125.345 93.4114 142.278C92.5868 142.531 91.8056 142.825 91.0676 143.153C91.6453 142.632 91.7132 141.464 91.4621 140.59C91.2795 141.008 90.8674 141.278 90.4114 141.278C89.7774 141.278 89.2629 140.764 89.2629 140.13C89.2629 139.496 89.7774 138.981 90.4114 138.981C89.9489 138.54 89.4181 138.474 88.9739 138.661C87.9957 139.114 88.0156 140.749 88.3684 141.692C88.7042 142.589 89.5572 143.562 90.509 143.411C88.6141 144.328 87.035 145.491 85.8254 146.817C84.5572 148.208 83.6946 149.78 83.2902 151.45C82.7823 153.144 82.7661 154.595 83.1222 155.833C79.1242 153.247 72.9584 150.661 72.5832 148.075C72.2331 145.715 74.1656 142.544 75.509 139.684C75.9625 138.923 75.932 138.429 75.9544 137.637C76.1786 129.865 79.1666 123.93 82.3802 122.38C83.9509 121.801 88.0788 122.319 90.849 122.7C95.9394 123.614 97.971 120.455 101.673 119.024C102.013 118.889 102.359 118.829 102.7 118.825ZM153.564 126.387L153.439 128.329C152.846 128.577 152.325 128.811 151.76 128.985L149.084 128.571C150.583 127.907 152.072 127.181 153.564 126.387ZM161.08 127.11C163.43 127.092 165.972 127.691 168.064 128.61C169.545 129.27 170.95 130.137 172.264 131.219C175.557 133.932 178.294 137.899 180.428 142.313C184.696 151.142 186.541 161.786 186.006 167.431V167.451C185.488 175.875 181.96 183.955 176.838 191.619C176.228 192.767 175.421 194.191 174.764 195.337C168.447 203.877 160.378 211.839 152.612 219.137C147.753 223.381 142.182 227.118 137.065 230.059C135.262 231.008 133.236 231.881 131.569 232.704C125.543 235.677 118.129 237.741 111.343 238.036C104.133 238.349 97.6956 236.67 94.2178 232.176C92.8199 230.339 91.7398 227.435 91.9522 225.169C92.2874 222.058 94.0204 219.089 96.3546 216.739C98.4504 214.629 101.029 213.029 103.417 212.259C105.212 211.767 108.359 211.292 110.581 211.091C114.707 210.712 119.002 210.256 127.804 205.821H127.808C130.667 204.293 136.224 199.594 140.8 194.602C145.375 189.61 149.9 183.856 152.534 179.274C155.954 173.324 158.742 167.905 159.366 161.645C159.619 159.893 159.098 156.552 157.745 153C156.517 149.777 154.599 146.39 151.921 143.934C151.467 143.489 151.039 143.171 150.491 142.922C149.384 142.423 148.274 142.159 147.214 141.911L145.03 140.528C145.867 137.451 146.744 134.531 148.39 132.602C149.254 131.62 150.354 130.702 151.78 129.918C153.263 129.214 154.913 128.075 159.495 127.223C160.009 127.149 160.538 127.114 161.08 127.11ZM149.006 129.028L150.264 129.446C149.156 130.161 148.246 130.963 147.494 131.817C145.207 134.415 144.423 137.444 143.955 139.844L137.131 135.512C136.892 135.374 136.759 135.314 136.67 135.321C136.581 135.327 136.535 135.399 136.467 135.524L136.361 135.75C136.343 134.82 136.45 133.904 136.643 133.161C141.033 132.293 144.945 130.776 148.994 129.047L149.006 129.028ZM116.452 131.778L120.553 132.25C120.871 133.374 120.728 134.328 120.667 135.309C118.928 134.208 117.474 133.001 116.452 131.778ZM121.296 132.055C126.722 132.602 131.568 132.899 135.714 132.805C135.529 134.334 135.751 135.592 135.792 136.969L132.647 143.707L136.436 136.508C136.57 136.154 136.676 136.329 136.948 136.496L148.37 143.539C148.695 143.7 148.622 143.739 148.471 144.035L146.475 147.953C146.368 148.183 146.381 148.193 146.202 148.024L137.143 139.493C136.783 139.189 136.721 139.124 136.545 139.344L132.729 144.094C132.575 144.236 132.592 144.346 132.592 144.543V145.832L132.682 144.629C132.67 144.429 132.724 144.358 132.85 144.219L136.389 140.329C136.742 139.91 136.659 139.994 137.03 140.356L145.03 148.16L137.17 166.735L118.913 147.766L136.959 167.235L135.924 169.676C135.589 170.321 135.622 170.881 135.631 171.582L136.006 199.078C133.095 201.893 129.492 204.557 127.655 205.539C118.885 209.958 114.652 210.397 110.549 210.774C108.258 210.816 105.955 211.325 104.022 211.43C102.776 211.093 101.377 210.447 101.1 209.555C100.805 208.603 101.788 207.519 103.315 207.141C103.17 207.162 103.007 207.199 102.83 207.246C101.912 206.128 102.393 199.336 100.912 196.485C100.802 196.273 100.676 195.989 100.62 195.75C100.422 194.495 100.663 193.679 100.912 192.871C100.966 192.672 100.816 192.464 100.592 192.371C100.262 192.277 99.9652 192.212 99.7132 191.941C99.6138 191.827 99.2551 191.642 99.5296 191.195C101.284 188.624 102.617 185.931 104.893 183.508L103.963 183.617C103.193 182.792 104.521 179.206 104.803 177.258C105.925 176.928 107.006 176.521 107.971 176.109C109.629 175.382 111.085 174.283 111.795 172.113C111.922 171.618 111.923 171.173 111.83 170.785C111.953 170.799 113.857 171.017 115.061 171.441C117.128 172.143 118.873 172.091 120.791 171.23C123.814 169.866 125.465 166.287 126.088 163.504C126.52 160.185 125.04 156.64 121.127 153.863C125.322 157.288 126.162 160.75 125.568 163.621C124.995 166.275 123.364 169.509 120.283 170.816C118.99 171.379 117.512 171.627 116.186 171.188C114.609 170.729 111.736 170.087 111.486 170.031C111.076 169.476 110.406 169.188 109.705 169.277C106.486 169.752 104.172 170.621 102.67 170.942C101.359 171.114 98.1025 170.792 96.1113 171.512C95.4887 171.698 95.075 172.122 94.9121 172.688C94.8189 173.099 94.7811 173.509 94.7949 173.902C94.0955 173.891 93.066 174.338 91.9903 174.652C90.0649 175.215 88.1413 175.376 86.0137 174.996C84.9874 174.784 83.7263 174.36 82.7207 173.742C79.9281 172.023 78.3351 169.589 78.2363 166.266C77.933 162 81.2247 157.727 83.4159 156.625C84.3942 158.794 86.6163 160.213 89.2675 161.086C89.6451 162.088 89.9305 163.091 90.4745 164.016C90.7453 164.475 91.2625 165.193 91.7011 165.438C91.7011 165.438 91.4141 164.417 91.3456 163.891C91.3042 163.623 91.2844 163.36 91.2988 163.109C91.3382 162.535 91.5299 162.091 91.8495 161.75C95.3271 162.423 99.0675 162.365 101.576 161.938C103.671 161.58 106.379 160.592 108.904 159.164V159.16H108.908C109.393 158.856 110.583 158.137 111.014 157.813C112.376 158.472 112.557 159.538 112.897 161.063C112.971 160.925 113.035 160.776 113.088 160.621C113.23 160.276 113.278 159.961 113.315 159.441C113.398 158.369 113.245 157.159 113.123 156.152C113.798 155.417 114.687 154.48 114.936 154.043L114.94 154.039C115.392 153.385 115.749 152.709 115.99 152.012C116.141 151.794 116.285 151.585 116.432 151.371C116.456 151.383 118.326 152.272 119.947 153.172C118.448 152.313 116.57 151.281 116.514 151.25C118.566 148.255 120.251 145.634 122.475 141.953L131.865 144.156L122.701 141.559C123.096 140.739 123.16 139.48 122.959 138.606L131.865 144.156C128.686 141.432 124.314 139.473 121.303 136.383C121.334 134.761 121.38 133.294 121.296 132.055ZM102.514 136.075C101.11 136.238 100.947 138.083 101.038 138.907C101.169 139.905 101.839 141.114 102.886 141.067C103.87 141.023 104.361 139.619 104.303 138.528C104.032 138.894 103.568 139.064 103.124 138.962C102.506 138.819 102.122 138.204 102.264 137.587C102.407 136.969 103.022 136.584 103.639 136.727C103.402 136.435 102.983 136.087 102.514 136.075ZM74.8904 138.098C74.3565 139.643 73.496 141.202 72.9568 142.52C72.3037 142.492 71.2402 142.444 71.0701 142.442L74.8904 138.098ZM101.766 141.137C102.049 141.136 102.335 141.138 102.63 141.145C106.374 141.352 110.274 142.038 113.095 144.254C121.873 152.678 108.136 160.161 101.345 161.305C94.6389 162.435 79.4125 161.783 84.2741 149.2C84.6349 148.251 85.2461 147.518 85.8639 146.84C88.8103 143.913 92.0901 142.453 95.9615 141.692C98.0517 141.377 99.7886 141.151 101.766 141.137ZM148.044 142.434C148.772 142.619 149.507 142.84 150.236 143.157C150.844 143.374 151.332 143.818 151.763 144.215C154.363 146.622 156.244 149.945 157.451 153.114C158.789 156.629 159.292 159.967 159.056 161.598V161.606C158.798 164.199 158.164 166.649 157.263 169.059L157.06 168.61C157.003 168.435 156.908 168.501 156.791 168.543L142.877 173.586C142.422 173.698 142.47 173.792 142.474 174.227L142.666 192.043C141.973 192.838 141.274 193.622 140.572 194.387C139.146 195.942 137.713 197.423 136.334 198.77L136.259 171.728C136.245 171.158 136.211 170.524 136.408 170.048L145.31 148.426L146.33 149.422C146.593 149.716 146.58 149.653 146.748 149.333L149.525 144.036C149.772 143.551 149.705 143.493 149.471 143.341L148.044 142.434ZM72.9304 142.602C72.409 143.897 71.9698 145.228 71.7234 146.645C71.5408 147.86 71.3339 148.391 72.0632 149.333C73.941 151.734 79.1646 153.735 83.1452 155.883C83.2114 156.106 83.2899 156.319 83.3796 156.528C82.0152 156.867 78.1342 160.578 77.5164 166.212C77.4056 169.573 78.9859 172.206 82.0438 174.2C83.9182 175.419 86.0624 175.525 88.5438 175.754C89.2602 175.748 89.8549 175.696 90.4461 175.571C90.4737 178.304 90.6302 182.465 89.829 185.469C89.4659 186.999 86.4474 191.437 84.7352 194.422C86.6483 191.474 89.2914 188.527 90.2782 185.579C90.664 184.432 90.8313 182.886 90.8563 181.27C90.8603 180.945 90.9641 180.094 91.0907 179.711L91.3641 180.055C91.782 180.639 92.0576 181.325 92.2508 181.93C93.3114 185.255 94.116 188.363 93.6375 188.301C93.2985 188.264 92.93 187.743 92.5164 187.258C92.8768 188.101 93.4645 188.935 93.8055 189.051C95.5321 189.298 91.1377 177.971 90.4501 175.571C91.0529 175.442 91.6503 175.238 92.3681 174.93C92.9665 174.759 93.7276 174.522 94.8799 174.598C95.0942 175.656 95.7158 176.554 96.6885 177.067C97.6737 177.605 98.7737 177.87 99.8761 177.954C101.458 178.046 103.162 177.738 104.778 177.266C104.124 179.667 102.977 182.137 103.267 184.403C101.333 186.833 99.9001 189.347 98.3957 191.848C98.9056 192.174 99.4566 192.547 100.193 192.782C100.341 192.826 100.41 193.027 100.372 193.231C100.127 194.421 100.119 195.317 100.157 196.231C100.203 196.784 100.459 197.142 100.622 197.563C101.015 198.59 101.266 200.395 101.458 202.188C97.766 201.879 93.1994 198.834 92.2786 196.411L93.9036 196.376L97.6224 192.258L93.5052 195.665L86.6184 195.821C82.5454 198.531 75.4622 203.308 72.7668 203.184C67.2878 202.059 61.564 197.688 57.6458 195.125C56.4673 194.54 56.2948 194.072 56.2787 192.914C56.232 189.561 56.1886 186.27 56.1419 182.364C57.1987 178.713 59.8405 175.656 62.5521 172.625C64.0135 165.909 66.6287 157.66 66.9075 152.519C66.9493 151.656 66.4905 150.887 65.095 149.34C64.5179 148.72 64.7669 147.832 64.7669 147.832C66.6022 143.424 68.731 143.015 72.9304 142.602ZM132.91 146.325C132.78 146.319 132.632 146.348 132.465 146.43C131.701 146.803 132.073 148.623 132.602 149.61C133.131 150.597 134.393 152.07 134.711 154.328C135.029 156.587 134.687 158.099 134.985 158.485C135.43 159.104 135.942 159.978 136.684 162.293C136.765 160.957 135.743 159.256 135.266 158.309C134.926 157.751 135.366 156.824 135.094 154.477C134.822 152.13 132.471 149.222 132.449 147.949C132.428 146.677 133.606 146.785 133.606 146.785C133.606 146.785 133.375 146.341 132.91 146.325ZM105.032 148.84C103.843 148.868 102.67 149.657 102.782 151.352C102.683 149.117 105.464 147.964 107.193 149.973C106.806 149.217 105.914 148.82 105.032 148.84ZM93.009 150.911C91.8193 150.938 90.6468 151.727 90.759 153.422C90.6598 151.188 93.4408 150.035 95.1692 152.043C94.7825 151.288 93.891 150.89 93.009 150.911ZM147.079 154.555C146.385 154.517 145.855 155.924 146.505 156.278L154.583 160.317L146.704 155.922C146.281 155.699 146.749 154.842 147.22 155.051L155.77 159.84L147.298 154.618C147.224 154.58 147.151 154.559 147.079 154.555ZM113.033 156.211C113.409 158.531 113.325 159.909 112.92 160.915C112.793 159.995 112.572 159.288 112.264 158.774C111.956 158.262 111.56 157.941 111.096 157.778C111.785 157.287 112.437 156.763 113.033 156.211ZM112.791 160.684C112.788 160.684 112.786 160.688 112.783 160.688C112.786 160.688 112.787 160.688 112.791 160.688V160.684ZM89.3528 161.118C90.1285 161.369 90.9399 161.572 91.7668 161.735C91.4534 162.085 91.2591 162.536 91.22 163.106C91.179 163.704 91.3083 164.436 91.6145 165.313C90.7887 164.596 90.081 163.393 89.3528 161.118ZM156.681 169.106C156.759 169.107 156.808 169.166 156.845 169.262L157.025 169.672C155.981 172.324 154.624 174.939 153.099 177.649L146.31 180.106C145.974 176.765 145.379 175.115 144.65 175.129C144.545 175.132 144.439 175.169 144.329 175.239C145.273 175.713 145.824 177.851 145.704 180.285C145.692 180.562 145.761 180.69 146.091 180.567L152.591 178.543C152.482 178.734 152.373 178.926 152.263 179.117C150.919 181.455 149.073 184.111 146.974 186.817C146.885 184.829 146.593 183.447 146.31 182.324C146.466 184.167 146.748 186.151 146.454 187.481C145.252 189.006 143.976 190.54 142.673 192.035L142.939 174.606C142.907 174.266 142.99 174.273 143.286 174.16L156.595 169.125C156.628 169.111 156.655 169.106 156.681 169.106ZM110.017 169.418C111.154 169.402 112.011 170.595 111.669 171.918C111.453 172.732 111.071 173.482 110.501 174.145C109.486 175.326 107.867 176.238 105.486 176.782C103.18 177.377 100.983 177.722 99.2044 177.532C96.7834 177.039 94.8866 175.661 95.1966 173.219C95.302 172.469 95.7302 171.861 96.6146 171.54C98.2835 170.909 101.15 171.489 103.22 170.977C104.97 170.544 106.706 169.916 108.529 169.598C109.056 169.52 109.534 169.426 110.017 169.418ZM119.88 176.043C116.224 176.06 113.12 176.213 111.446 176.715C111.242 176.747 111.181 176.852 111.099 177.012C110.125 178.919 109.826 180.488 110.095 182.735C110.124 183.099 110.126 183.1 110.458 183.094C119.244 182.929 125.485 182.662 132.99 182.137C133.344 182.122 133.382 182.153 133.42 181.821C133.611 180.147 133.442 178.374 132.268 176.336C132.218 176.247 132.089 176.189 132.01 176.188C128.524 176.159 124.748 176.056 121.326 176.043C120.837 176.042 120.352 176.041 119.88 176.043ZM124.005 176.422C128.18 176.423 131.839 176.56 132.06 176.703C132.612 177.954 133.328 178.971 133.079 181.379C133.071 181.615 133.044 181.651 132.833 181.661C125.547 181.997 121.028 182.737 110.919 182.508C110.525 182.527 110.522 182.474 110.462 182.121C110.132 180.168 111.083 178.469 111.552 177.352C112.417 176.643 118.637 176.421 124.005 176.422ZM131.743 183.114C131.353 186.115 131.083 191.671 131.978 194.52C132.24 195.355 132.38 196.14 132.216 197.008C131.609 198.473 120.353 198.597 112.657 198.285C112.442 198.279 112.415 198.333 112.341 198.149C111.829 196.679 112.714 189.384 111.95 186.082C112.324 190.49 111.376 197.823 111.884 198.903C111.946 199.043 112.056 199.032 112.181 199.039C118.724 199.446 125.284 199.806 132.611 197.961C132.814 197.882 132.947 197.737 132.958 197.543C133.028 195.891 132.225 194.2 132.091 192.973C131.638 188.825 131.922 186.529 131.743 183.114ZM119.442 185.969C119.261 189.847 119.198 193.266 119.165 196.551C119.554 193.418 119.929 190.269 119.442 185.969ZM124.2 186.418C123.929 189.817 123.757 193.248 124.368 196.942C124.756 193.434 124.552 189.926 124.2 186.418ZM187.634 192.805C188.381 192.797 189.002 192.879 189.415 193.079C191.783 194.533 194.113 196.044 195.228 198.856C195.376 199.288 195.198 200.074 194.736 200.094C194.351 200.104 194.036 200.026 193.669 199.84C191.584 198.784 191.053 196.847 188.939 194.871C190.494 197.299 191.567 198.157 191.728 201.354C191.728 201.486 191.616 201.547 191.478 201.557C189.064 201.571 186.523 196.575 183.29 195.871C182.444 195.658 181.353 195.554 180.165 195.52C179.92 195.514 179.671 195.512 179.419 195.508C179.499 194.797 179.648 194.65 179.955 194.496C182.047 193.654 185.395 192.829 187.634 192.805ZM177.017 193.434C177.054 193.433 177.095 193.433 177.134 193.434C178.01 193.448 178.928 193.739 179.888 194.301C179.844 194.32 179.798 194.337 179.755 194.356C179.503 194.515 179.37 195.091 179.412 195.508C179.201 195.507 178.989 195.506 178.775 195.508C177.457 195.522 176.11 195.597 174.912 195.684C175.393 195.036 175.865 194.386 176.326 193.731C176.527 193.487 176.754 193.439 177.017 193.434ZM178.892 195.586C179.088 195.585 179.284 195.585 179.478 195.586C179.71 195.588 179.936 195.592 180.162 195.598C181.846 195.647 183.343 195.841 184.185 196.274C184.197 196.28 184.209 196.284 184.22 196.29C184.258 196.31 184.294 196.33 184.33 196.352C186.447 197.583 188.348 200.346 190.49 201.672C191.538 202.138 192.029 201.813 191.951 200.979C191.796 199.389 191.666 198.886 191.052 197.903C192.155 198.956 192.985 199.971 194.427 200.266C202.984 207.426 209.082 215.157 208.822 223.638C208.178 235.213 197.157 243.106 186.958 245.536C174.271 247.595 159.41 236.49 150.56 238.657C147.759 239.208 140.332 240.823 139.697 245.774C139.469 247.585 140.503 249.565 140.974 250.387C141.445 251.209 142.85 252.459 141.451 251.657C139.525 250.646 138.446 248.989 137.919 246.883C137.26 241.446 140.342 233.661 145.595 230.497C147.498 229.462 154.095 226.201 161.748 227.407C167.688 228.816 173.912 231.169 179.56 231.602C183.47 232.07 191.863 228.28 192.224 223.372C192.387 220.378 185.534 215.674 179.005 215.614C177.021 215.701 174.466 215.679 173.693 215.727C173.576 215.435 173.439 215.15 173.283 214.872L177.162 211.868C177.46 211.647 177.586 211.477 177.497 210.922C177.017 207.892 176.701 203.838 175.869 203.098C174.43 201.814 172.543 201.591 170.654 201.043C172.114 199.312 173.52 197.55 174.849 195.766C176.097 195.674 177.517 195.596 178.892 195.586ZM170.447 201.293C171.183 201.443 173.936 202.191 174.638 202.629C175.992 203.342 175.889 203.793 176.052 204.274C176.423 205.751 176.835 208.996 177.134 210.743C177.183 211.089 177.092 211.235 176.923 211.375L169.513 217.172C169.068 217.481 169.047 217.409 169.033 217.149C168.939 215.04 168.871 212.732 168.583 211.422C168.565 211.293 168.523 211.182 168.458 211.082C167.984 210.449 166.018 209.913 165.009 209.539L165.122 209.817C166.107 210.293 167.947 210.7 168.201 211.496C168.617 212.9 168.598 215.062 168.607 217.117C168.617 217.825 168.919 217.971 169.279 217.711L172.927 214.899C173.432 216.598 173.847 218.491 172.751 220.008C170.704 222.268 165.35 224.831 160.455 226.422C154.842 226.317 148.797 227.62 144.169 231.035C140.072 232.306 136.423 233.388 134.349 233.192C132.513 232.847 134.939 231.618 135.451 231.336C141.048 228.256 147.375 224.137 152.826 219.375L152.83 219.371H152.834C158.831 213.734 165.02 207.695 170.447 201.293ZM164.794 212.606C164.458 215.805 164.634 218.559 164.634 221.469C164.714 218.563 164.95 215.937 164.794 212.606ZM178.493 216.004C182.804 215.955 191.743 220.382 191.435 223.688C191.07 226.447 185.672 230.68 179.716 230.813C176.374 230.963 167.892 228.213 162.107 226.621C166.21 225.148 170.447 223.449 173.306 220.641C174.285 219.793 174.436 217.938 173.849 216.157C175.447 216.066 177.049 216.032 178.493 216.004Z" fill="black"/>
<defs>
<filter id="filter0_f_0_1" x="103.306" y="98.6478" width="57.7443" height="8.87651" filterUnits="userSpaceOnUse" color-interpolation-filters="sRGB">
<feFlood flood-opacity="0" result="BackgroundImageFix"/>
<feBlend mode="normal" in="SourceGraphic" in2="BackgroundImageFix" result="shape"/>
<feGaussianBlur stdDeviation="0.163285" result="effect1_foregroundBlur_0_1"/>
</filter>
<filter id="filter1_f_0_1" x="100.794" y="87.9108" width="62.0131" height="17.3252" filterUnits="userSpaceOnUse" color-interpolation-filters="sRGB">
<feFlood flood-opacity="0" result="BackgroundImageFix"/>
<feBlend mode="normal" in="SourceGraphic" in2="BackgroundImageFix" result="shape"/>
<feGaussianBlur stdDeviation="0.0981904" result="effect1_foregroundBlur_0_1"/>
</filter>
<filter id="filter2_f_0_1" x="103.678" y="89.9653" width="59.895" height="15.9226" filterUnits="userSpaceOnUse" color-interpolation-filters="sRGB">
<feFlood flood-opacity="0" result="BackgroundImageFix"/>
<feBlend mode="normal" in="SourceGraphic" in2="BackgroundImageFix" result="shape"/>
<feGaussianBlur stdDeviation="0.185825" result="effect1_foregroundBlur_0_1"/>
</filter>
<filter id="filter3_f_0_1" x="106.393" y="129.769" width="79.1651" height="94.0056" filterUnits="userSpaceOnUse" color-interpolation-filters="sRGB">
<feFlood flood-opacity="0" result="BackgroundImageFix"/>
<feBlend mode="normal" in="SourceGraphic" in2="BackgroundImageFix" result="shape"/>
<feGaussianBlur stdDeviation="0.424436" result="effect1_foregroundBlur_0_1"/>
</filter>
<radialGradient id="paint0_radial_0_1" cx="0" cy="0" r="1" gradientUnits="userSpaceOnUse" gradientTransform="translate(135.406 67.8284) rotate(93.8592) scale(25.9866 60.6876)">
<stop stop-color="#EEC0B2"/>
<stop offset="1" stop-color="#EEC0B2" stop-opacity="0"/>
</radialGradient>
<linearGradient id="paint1_linear_0_1" x1="91.662" y1="166.238" x2="96.814" y2="178.44" gradientUnits="userSpaceOnUse">
<stop stop-color="#9F9F9F"/>
<stop offset="1" stop-color="#9F9F9F" stop-opacity="0"/>
</linearGradient>
<linearGradient id="paint2_linear_0_1" x1="94.372" y1="74.034" x2="100.61" y2="77.016" gradientUnits="userSpaceOnUse">
<stop stop-color="#EEC1B2"/>
<stop offset="1" stop-color="#EEC1B2" stop-opacity="0"/>
</linearGradient>
<linearGradient id="paint3_linear_0_1" x1="96.814" y1="119.594" x2="98.984" y2="117.424" gradientUnits="userSpaceOnUse">
<stop stop-color="#E9AC9C"/>
<stop offset="1" stop-color="#E9AC9C" stop-opacity="0"/>
</linearGradient>
<linearGradient id="paint4_linear_0_1" x1="77.278" y1="150.342" x2="75.508" y2="139.684" gradientUnits="userSpaceOnUse">
<stop stop-color="#D3AA6D"/>
<stop offset="1" stop-color="#D3AA6D" stop-opacity="0"/>
</linearGradient>
<linearGradient id="paint5_linear_0_1" x1="96.272" y1="140.068" x2="95.976" y2="137.798" gradientUnits="userSpaceOnUse">
<stop stop-color="#E3C959"/>
<stop offset="1" stop-color="#E3C959" stop-opacity="0"/>
</linearGradient>
<linearGradient id="paint6_linear_0_1" x1="98.708" y1="150.486" x2="98.852" y2="152.834" gradientUnits="userSpaceOnUse">
<stop stop-color="#E8CA63"/>
<stop offset="1" stop-color="#E8CA63" stop-opacity="0"/>
</linearGradient>
<linearGradient id="paint7_linear_0_1" x1="97.412" y1="162.902" x2="118.122" y2="157.628" gradientUnits="userSpaceOnUse">
<stop stop-color="#D9B862"/>
<stop offset="1" stop-color="#D9B862" stop-opacity="0"/>
</linearGradient>
<linearGradient id="paint8_linear_0_1" x1="97.966" y1="195.322" x2="98.372" y2="194.44" gradientUnits="userSpaceOnUse">
<stop stop-color="#DCB668"/>
<stop offset="1" stop-color="#DCB668" stop-opacity="0"/>
</linearGradient>
<linearGradient id="paint9_linear_0_1" x1="132.626" y1="119.736" x2="132.794" y2="124.708" gradientUnits="userSpaceOnUse">
<stop stop-color="#FFFDFD"/>
<stop offset="1" stop-color="#FFFDFD" stop-opacity="0"/>
</linearGradient>
<linearGradient id="paint10_linear_0_1" x1="127.728" y1="135.594" x2="129.492" y2="139.662" gradientUnits="userSpaceOnUse">
<stop stop-color="#ECB8A9"/>
<stop offset="1" stop-color="#ECB8A9" stop-opacity="0"/>
</linearGradient>
<linearGradient id="paint11_linear_0_1" x1="195.976" y1="239.12" x2="168.354" y2="232.66" gradientUnits="userSpaceOnUse">
<stop stop-color="#FDE859"/>
<stop offset="1" stop-color="#FDE859" stop-opacity="0"/>
</linearGradient>
<radialGradient id="paint12_radial_0_1" cx="0" cy="0" r="1" gradientUnits="userSpaceOnUse" gradientTransform="translate(142.999 59.7394) rotate(-67.5983) scale(16.9949 22.8343)">
<stop stop-color="#FF7F7F"/>
<stop offset="1" stop-color="#A66067"/>
</radialGradient>
<radialGradient id="paint13_radial_0_1" cx="0" cy="0" r="1" gradientUnits="userSpaceOnUse" gradientTransform="translate(153.767 102.503) rotate(13.0521) scale(9.4062 8.94399)">
<stop stop-color="#212848"/>
<stop offset="1" stop-color="#2C3665"/>
</radialGradient>
<radialGradient id="paint14_radial_0_1" cx="0" cy="0" r="1" gradientUnits="userSpaceOnUse" gradientTransform="translate(111.598 101.443) rotate(-11.1457) scale(10.4472 8.55531)">
<stop stop-color="#212848"/>
<stop offset="1" stop-color="#2C3665"/>
</radialGradient>
<radialGradient id="paint15_radial_0_1" cx="0" cy="0" r="1" gradientUnits="userSpaceOnUse" gradientTransform="translate(155.718 200.307) rotate(18.7839) scale(67.0299 76.0481)">
<stop stop-color="#FDE859"/>
<stop offset="1" stop-color="#D3AA6D"/>
</radialGradient>
<radialGradient id="paint16_radial_0_1" cx="0" cy="0" r="1" gradientUnits="userSpaceOnUse" gradientTransform="translate(158.499 193.506) rotate(25.94) scale(52.0387 64.9727)">
<stop stop-color="#FDE859"/>
<stop offset="1" stop-color="#EACD61"/>
</radialGradient>
</defs>
</svg>
