<svg width="256" height="256" viewBox="0 0 256 256" fill="none" xmlns="http://www.w3.org/2000/svg">
<path d="M196 0H60C26.8629 0 0 26.8629 0 60V196C0 229.137 26.8629 256 60 256H196C229.137 256 256 229.137 256 196V60C256 26.8629 229.137 0 196 0Z" fill="#242938"/>
<path d="M21.8974 144.903C22.5342 144.565 23.1711 144.371 23.8369 144.178L24.5895 138.374C25.1106 134.36 25.7764 131.797 27.0501 129.04C28.0343 126.912 28.8159 125.896 29.4528 125.896C29.887 125.896 30.1764 126.138 30.4949 126.815H30.9001C30.987 124.977 31.1317 123.43 31.3633 121.447C31.0449 121.205 30.9291 121.156 30.7843 121.156C29.887 121.156 28.9896 122.317 27.9475 124.784C26.9632 127.154 25.9501 129.475 25.2264 132.087L25.979 125.993C26.1238 124.929 26.3264 123.817 26.3264 122.704C26.3264 121.737 26.0948 121.156 25.6606 121.156C25.0527 121.156 23.9527 122.172 21.8105 124.735L21 125.703L21.2026 126.67L22.129 125.654C22.9395 124.784 23.2579 124.542 23.5185 124.542C23.8079 124.542 24.0106 124.977 24.0106 125.606C24.0106 128.411 22.7658 138.374 21.6079 144.565L21.8974 144.903ZM34.5765 145C36.2265 145 37.8187 143.646 40.5108 140.018L40.2792 139.1L39.5845 139.922C38.0502 141.76 36.6607 142.727 35.6186 142.727C34.2291 142.727 33.4186 140.937 33.4186 137.987C33.4186 136.73 33.4765 135.521 33.6502 134.118L36.0239 133.151C36.516 132.957 37.2687 132.474 38.0213 131.942C40.4819 130.104 41.6108 127.927 41.6108 124.929C41.6108 122.656 40.6555 121.156 39.1792 121.156C37.2976 121.156 34.1423 124.397 32.9844 127.492C32.1159 129.862 31.2186 135.666 31.2186 139.051C31.2186 142.775 32.4923 145 34.5765 145ZM33.7949 133.006L34.0554 131.216C34.5186 127.976 35.0976 125.896 35.8792 124.687C36.4292 123.817 37.3555 123.188 38.0792 123.188C38.9187 123.188 39.4687 124.155 39.4687 125.703C39.4687 127.831 38.4555 130.104 36.9502 131.313C36.1397 131.942 35.0976 132.522 33.7949 133.006ZM52.4123 144.468C53.2112 144.468 53.934 144.103 54.5807 143.372C55.2274 142.641 55.5507 141.703 55.5507 140.559V139.511C55.5507 139.066 55.5174 138.661 55.4509 138.295C55.3843 137.93 55.2464 137.524 55.0372 137.08L45.9074 117.822C45.8503 117.663 45.8218 117.504 45.8218 117.345C45.8218 116.805 45.9264 116.535 46.1356 116.535H52.6691C52.8783 117.393 53.0495 118.029 53.1827 118.442C53.6201 119.681 54.0957 120.301 54.6092 120.301C54.9896 120.301 55.2464 120.174 55.3795 119.919C55.5127 119.665 55.5792 119.3 55.5792 118.823C55.5792 118.505 55.5697 117.981 55.5507 117.25C55.5507 115.82 55.2416 114.684 54.6235 113.842C54.0053 113 53.3063 112.579 52.5265 112.579H45.5365C44.8707 112.579 44.3191 113.127 43.8817 114.223C43.4442 115.319 43.2255 116.519 43.2255 117.822C43.2255 118.14 43.2635 118.434 43.3396 118.704C43.4157 118.974 43.5393 119.284 43.7105 119.633L53.3539 140.559H46.5921C46.2307 140.559 45.9454 140.146 45.7362 139.32C45.2987 137.636 44.7947 136.794 44.224 136.794C43.8627 136.794 43.6059 137.064 43.4537 137.604C43.3015 138.144 43.2255 138.811 43.2255 139.606C43.2255 141.068 43.5108 142.244 44.0814 143.133C44.652 144.023 45.3367 144.468 46.1356 144.468H52.4123ZM66.7623 144.468C67.2995 144.468 67.8905 144.139 68.5352 143.481C69.2694 142.733 69.6365 141.835 69.6365 140.788C69.6365 140.519 69.6455 140.175 69.6634 139.756C69.6813 139.337 69.6902 139.067 69.6902 138.948C69.6902 138.379 69.6141 137.953 69.4619 137.669C69.3097 137.384 69.0187 137.242 68.5889 137.242C68.374 137.242 67.9532 137.99 67.3264 139.486C67.0577 140.145 66.7444 140.474 66.3862 140.474H63.8343C63.5298 140.474 63.2478 140.287 62.9881 139.913C62.7285 139.539 62.5986 139.127 62.5986 138.679V125.843H67.6487C67.8994 125.843 68.1054 125.663 68.2665 125.304C68.4277 124.945 68.5083 124.526 68.5083 124.048C68.5083 123.569 68.4053 123.113 68.1994 122.679C67.9935 122.245 67.8099 122.028 67.6487 122.028H62.5986V116.777C62.5986 116.418 62.5001 116.119 62.3031 115.88C62.1062 115.64 61.8913 115.521 61.6584 115.521C61.3182 115.521 61.0317 115.625 60.7989 115.835C60.5661 116.044 60.4496 116.358 60.4496 116.777V122.028H58.7036C58.4171 122.028 58.2156 122.215 58.0992 122.589C57.9828 122.963 57.9246 123.449 57.9246 124.048C57.9246 124.526 57.9828 124.945 58.0992 125.304C58.2156 125.663 58.3902 125.843 58.623 125.843H60.3959V139.621C60.3959 140.908 60.7496 142.037 61.457 143.009C62.1644 143.982 62.9568 144.468 63.8343 144.468H66.7623ZM73.6106 144.648C73.8972 144.648 74.1568 144.543 74.3896 144.333C74.6224 144.124 74.7388 143.825 74.7388 143.436V131.273L78.3921 126.426C78.6786 126.037 78.9338 125.783 79.1577 125.663C79.3815 125.544 79.6725 125.484 80.0307 125.484C81.2663 125.663 81.8842 127.04 81.8842 129.613C81.8842 129.942 82.0095 130.234 82.2603 130.488C82.511 130.742 82.7796 130.869 83.0661 130.869C83.3526 130.869 83.6078 130.757 83.8317 130.533C84.0555 130.308 84.1675 129.987 84.1675 129.568C84.1675 126.486 83.6929 124.317 82.7438 123.06C82.0991 122.223 81.1947 121.804 80.0307 121.804C79.8695 121.804 79.6367 121.789 79.3323 121.759C79.1353 121.759 78.9562 121.789 78.795 121.849C78.6339 121.908 78.4816 122.028 78.3384 122.208L74.7388 126.426V124.541C74.7388 124.033 74.6403 123.569 74.4434 123.15C74.2464 122.731 73.9688 122.522 73.6106 122.522C73.2346 122.522 72.9391 122.686 72.7242 123.015C72.5093 123.345 72.4018 123.868 72.4018 124.586V143.436C72.4018 143.855 72.5272 144.161 72.7779 144.356C73.0286 144.55 73.3062 144.648 73.6106 144.648ZM92.1455 144.603L96.4704 140.653V142.763C96.4704 143.989 96.8375 144.603 97.5717 144.603C97.9299 144.603 98.2254 144.333 98.4582 143.795C98.6193 143.406 98.6999 143.062 98.6999 142.763V122.971C98.6999 121.983 98.3507 121.49 97.6523 121.49C96.8822 121.49 96.4972 121.983 96.4972 122.971V136.659L92.6022 140.204C92.3873 140.414 92.1858 140.549 91.9978 140.608C91.8098 140.668 91.6083 140.698 91.3934 140.698C90.8562 140.698 90.3995 140.444 90.0234 139.935C89.6474 139.427 89.4593 138.798 89.4593 138.05V122.791C89.4593 122.372 89.3608 122.051 89.1638 121.826C88.9669 121.602 88.7251 121.49 88.4386 121.49C88.152 121.49 87.9013 121.602 87.6864 121.826C87.4715 122.051 87.3641 122.372 87.3641 122.791V138.23C87.3641 139.875 87.6775 141.349 88.3042 142.65C88.931 143.952 89.6921 144.603 90.5875 144.603H92.1455ZM112.185 144.468C112.471 144.468 112.7 144.251 112.87 143.817C113.04 143.383 113.125 142.882 113.125 142.314C113.125 141.835 113.049 141.409 112.897 141.035C112.744 140.661 112.552 140.474 112.319 140.474H106.436L104.234 136.345C104.019 135.956 103.862 135.5 103.763 134.976C103.665 134.452 103.616 133.996 103.616 133.607V132.844C103.616 132.126 103.656 131.588 103.737 131.228C103.817 130.869 103.929 130.585 104.072 130.376L106.383 126.651H111.648C112.167 126.651 112.525 126.464 112.722 126.09C112.919 125.716 113.017 125.17 113.017 124.452C113.017 123.913 112.879 123.442 112.601 123.038C112.324 122.634 112.006 122.432 111.648 122.432H106.383C106.203 122.432 105.993 122.499 105.751 122.634C105.509 122.769 105.308 122.971 105.147 123.24L102.219 128.311C101.879 128.91 101.641 129.71 101.507 130.712C101.373 131.715 101.306 132.68 101.306 133.607C101.306 134.355 101.382 135.238 101.534 136.255C101.686 137.272 101.852 137.931 102.031 138.23L105.362 143.795C105.541 144.094 105.72 144.281 105.899 144.356C106.078 144.431 106.329 144.468 106.651 144.468H112.185ZM125.268 144.468C125.805 144.468 126.396 144.139 127.041 143.481C127.775 142.733 128.142 141.835 128.142 140.788C128.142 140.519 128.151 140.175 128.169 139.756C128.187 139.337 128.196 139.067 128.196 138.948C128.196 138.379 128.12 137.953 127.968 137.669C127.816 137.384 127.525 137.242 127.095 137.242C126.88 137.242 126.459 137.99 125.832 139.486C125.564 140.145 125.25 140.474 124.892 140.474H122.34C122.036 140.474 121.754 140.287 121.494 139.913C121.234 139.539 121.104 139.127 121.104 138.679V125.843H126.155C126.405 125.843 126.611 125.663 126.772 125.304C126.934 124.945 127.014 124.526 127.014 124.048C127.014 123.569 126.911 123.113 126.705 122.679C126.499 122.245 126.316 122.028 126.155 122.028H121.104V116.777C121.104 116.418 121.006 116.119 120.809 115.88C120.612 115.64 120.397 115.521 120.164 115.521C119.824 115.521 119.538 115.625 119.305 115.835C119.072 116.044 118.956 116.358 118.956 116.777V122.028H117.209C116.923 122.028 116.721 122.215 116.605 122.589C116.489 122.963 116.43 123.449 116.43 124.048C116.43 124.526 116.489 124.945 116.605 125.304C116.721 125.663 116.896 125.843 117.129 125.843H118.902V139.621C118.902 140.908 119.255 142.037 119.963 143.009C120.67 143.982 121.463 144.468 122.34 144.468H125.268ZM136.335 144.603L140.66 140.653V142.763C140.66 143.989 141.027 144.603 141.762 144.603C142.12 144.603 142.415 144.333 142.648 143.795C142.809 143.406 142.89 143.062 142.89 142.763V122.971C142.89 121.983 142.541 121.49 141.842 121.49C141.072 121.49 140.687 121.983 140.687 122.971V136.659L136.792 140.204C136.577 140.414 136.376 140.549 136.188 140.608C136 140.668 135.798 140.698 135.583 140.698C135.046 140.698 134.589 140.444 134.213 139.935C133.837 139.427 133.649 138.798 133.649 138.05V122.791C133.649 122.372 133.551 122.051 133.354 121.826C133.157 121.602 132.915 121.49 132.628 121.49C132.342 121.49 132.091 121.602 131.876 121.826C131.661 122.051 131.554 122.372 131.554 122.791V138.23C131.554 139.875 131.867 141.349 132.494 142.65C133.121 143.952 133.882 144.603 134.777 144.603H136.335ZM147.161 144.648C147.447 144.648 147.707 144.543 147.94 144.333C148.173 144.124 148.289 143.825 148.289 143.436V131.273L151.942 126.426C152.229 126.037 152.484 125.783 152.708 125.663C152.932 125.544 153.223 125.484 153.581 125.484C154.817 125.663 155.434 127.04 155.434 129.613C155.434 129.942 155.56 130.234 155.81 130.488C156.061 130.742 156.33 130.869 156.616 130.869C156.903 130.869 157.158 130.757 157.382 130.533C157.606 130.308 157.718 129.987 157.718 129.568C157.718 126.486 157.243 124.317 156.294 123.06C155.649 122.223 154.745 121.804 153.581 121.804C153.42 121.804 153.187 121.789 152.882 121.759C152.686 121.759 152.506 121.789 152.345 121.849C152.184 121.908 152.032 122.028 151.889 122.208L148.289 126.426V124.541C148.289 124.033 148.191 123.569 147.994 123.15C147.797 122.731 147.519 122.522 147.161 122.522C146.785 122.522 146.489 122.686 146.274 123.015C146.059 123.345 145.952 123.868 145.952 124.586V143.436C145.952 143.855 146.077 144.161 146.328 144.356C146.579 144.55 146.856 144.648 147.161 144.648ZM170.893 144.468C171.144 144.468 171.363 144.229 171.551 143.75C171.739 143.271 171.833 142.822 171.833 142.404C171.833 142.074 171.726 141.715 171.511 141.326C171.296 140.937 171.072 140.743 170.839 140.743H164.392C164.088 140.743 163.721 140.429 163.291 139.801C162.861 139.172 162.646 138.619 162.646 138.14V136.345H170.651C170.884 136.345 171.139 136.21 171.417 135.941C171.694 135.672 171.833 135.417 171.833 135.178V129.074C171.833 127.608 171.426 126.209 170.611 124.878C169.796 123.547 169.004 122.881 168.233 122.881H163.64C163.013 122.881 162.297 123.539 161.491 124.856C160.685 126.172 160.282 127.339 160.282 128.356V138.275C160.282 139.501 160.645 140.84 161.37 142.291C162.095 143.742 162.771 144.468 163.398 144.468H170.893ZM169.806 132.754H163.063V128.67C163.063 128.251 163.229 127.825 163.56 127.391C163.892 126.957 164.245 126.741 164.621 126.741H168.355C168.677 126.741 169 126.995 169.322 127.503C169.644 128.012 169.806 128.536 169.806 129.074V132.754ZM181.181 144.468C181.79 144.468 182.354 144.184 182.873 143.615C183.035 143.436 183.482 142.807 184.216 141.73V143.211C184.216 143.6 184.306 143.907 184.485 144.131C184.664 144.356 184.888 144.468 185.157 144.468C185.963 144.468 186.365 144.049 186.365 143.211V115.565C186.365 115.177 186.262 114.907 186.057 114.758C185.851 114.608 185.604 114.533 185.318 114.533C185.031 114.533 184.776 114.668 184.552 114.937C184.328 115.206 184.216 115.521 184.216 115.88V124.721C183.858 124.332 183.487 123.928 183.102 123.509C182.717 123.09 182.309 122.881 181.879 122.881H178.092C177.555 122.881 176.874 123.494 176.05 124.721C175.227 125.948 174.815 126.98 174.815 127.818V138.993C174.815 139.92 175.285 141.065 176.225 142.426C177.165 143.787 177.904 144.468 178.441 144.468H181.181ZM180.577 140.878C180.112 140.878 179.503 140.608 178.751 140.07C177.873 139.441 177.435 138.768 177.435 138.05V129.388C177.435 128.88 177.542 128.334 177.757 127.75C177.972 127.167 178.24 126.875 178.563 126.875H182.297C182.708 126.875 183.12 127.212 183.532 127.885C183.944 128.558 184.275 129.463 184.526 130.6V136.794C184.132 137.691 183.622 138.529 182.995 139.307C182.135 140.354 181.33 140.878 180.577 140.878ZM198.781 144.613L198.867 143.259L197.16 143.114C196.407 143.065 196.117 142.679 196.117 141.663C196.117 141.179 196.117 140.986 196.233 139.97L198.954 113.225H201.068C203.325 113.225 204.368 113.467 204.454 114.047C204.541 114.434 204.599 115.353 204.57 115.836L204.454 118.932H205.265L206.047 111C203.325 111.097 200.604 111.145 197.883 111.145C195.162 111.145 192.441 111.097 189.72 111L189.199 118.932H190.038L190.473 116.03C190.617 114.966 190.82 114.192 190.994 113.853C191.167 113.515 192.267 113.225 193.338 113.225H196.581L194.091 138.422C193.657 142.824 193.57 143.017 192.412 143.114L190.936 143.259L190.82 144.613C192.181 144.516 193.57 144.468 194.931 144.468C196.233 144.468 197.507 144.516 198.781 144.613ZM205.957 145C207.607 145 209.199 143.646 211.891 140.018L211.66 139.1L210.965 139.922C209.431 141.76 208.041 142.727 206.999 142.727C205.61 142.727 204.799 140.937 204.799 137.987C204.799 136.73 204.857 135.521 205.031 134.118L207.405 133.151C207.897 132.957 208.649 132.474 209.402 131.942C211.863 130.104 212.992 127.927 212.992 124.929C212.992 122.656 212.036 121.156 210.56 121.156C208.678 121.156 205.523 124.397 204.365 127.492C203.497 129.862 202.599 135.666 202.599 139.051C202.599 142.775 203.873 145 205.957 145ZM205.176 133.006L205.436 131.216C205.899 127.976 206.478 125.896 207.26 124.687C207.81 123.817 208.736 123.188 209.46 123.188C210.299 123.188 210.849 124.155 210.849 125.703C210.849 127.831 209.836 130.104 208.331 131.313C207.52 131.942 206.478 132.522 205.176 133.006ZM221.934 145C222.571 145 223.497 144.178 224.423 142.775L225.842 140.647L225.581 139.728C224.539 141.179 223.815 141.905 223.352 141.905C222.918 141.905 222.542 141.421 222.252 140.454C221.992 139.535 221.673 137.745 221.529 136.343L221.008 131.458L222.021 129.088C223.381 125.945 224.163 124.832 225.06 124.832C225.523 124.832 225.871 125.219 226.015 125.945L226.421 125.751L226.855 121.64C226.508 121.302 226.247 121.156 225.987 121.156C224.829 121.156 223.671 122.898 221.876 127.347L220.805 130.007L220.631 127.686C220.284 122.898 219.502 121.156 217.794 121.156C217.042 121.156 216.405 121.543 216.144 122.172L214.465 126.186L214.957 126.67C215.826 125.026 216.405 124.349 216.955 124.349C217.91 124.349 218.547 126.331 219.039 131.071L219.357 134.07L218.2 137.068C216.955 140.309 215.971 141.856 215.16 141.856C214.726 141.856 214.407 141.663 214.35 141.421L214.031 140.067L213.452 140.212C213.452 141.179 213.394 141.808 213.221 143.356C213.163 143.936 213.134 144.081 213.105 144.42C213.539 144.807 214.002 145 214.35 145C215.305 145 216.434 143.597 217.331 141.324L219.531 135.666L219.85 139.003C220.255 143.114 220.892 145 221.934 145ZM229.516 144.903C230.529 144.903 231.513 143.936 233.8 140.889C234.321 140.212 234.147 140.405 234.697 139.68L234.408 138.809L233.105 140.309C232.237 141.324 231.687 141.76 231.339 141.76C231.108 141.76 230.963 141.373 230.963 140.792C230.963 139.535 231.31 135.762 232.208 128.605L232.584 125.606H235.682L236 123.188C234.9 123.381 233.916 123.478 232.816 123.478C233.279 118.932 233.597 116.562 234.118 113.95L233.8 113.225C233.221 113.805 232.439 114.385 231.542 114.966L230.818 123.188C229.545 124.203 228.792 124.735 228.271 124.977L228.213 125.606H230.645L229.024 139.293C228.879 140.502 228.647 141.711 228.647 142.969C228.647 144.178 228.966 144.903 229.516 144.903Z" fill="white"/>
</svg>
