<svg width="256" height="256" viewBox="0 0 256 256" fill="none" xmlns="http://www.w3.org/2000/svg">
<path d="M196 0H60C26.8629 0 0 26.8629 0 60V196C0 229.137 26.8629 256 60 256H196C229.137 256 256 229.137 256 196V60C256 26.8629 229.137 0 196 0Z" fill="#242938"/>
<path fill-rule="evenodd" clip-rule="evenodd" d="M133.016 131.733C133.635 131.785 134.209 132.08 134.611 132.553C135.012 133.026 135.209 133.638 135.157 134.256C135.105 134.873 134.81 135.445 134.335 135.845C133.86 136.245 133.245 136.44 132.625 136.389C132.318 136.363 132.02 136.278 131.746 136.137C131.472 135.997 131.229 135.804 131.03 135.57C130.831 135.335 130.681 135.064 130.587 134.772C130.493 134.48 130.458 134.172 130.484 133.867C130.509 133.561 130.595 133.263 130.736 132.991C130.877 132.718 131.071 132.476 131.306 132.278C131.541 132.08 131.813 131.929 132.106 131.836C132.4 131.743 132.709 131.708 133.016 131.733ZM125.503 131.733C126.123 131.785 126.697 132.08 127.099 132.553C127.5 133.026 127.697 133.638 127.645 134.256C127.593 134.873 127.297 135.445 126.823 135.845C126.348 136.245 125.733 136.44 125.113 136.389C124.493 136.337 123.92 136.043 123.518 135.57C123.116 135.097 122.92 134.484 122.972 133.867C123.023 133.249 123.319 132.678 123.794 132.278C124.269 131.878 124.884 131.682 125.503 131.733ZM117.818 131.722L117.991 131.733C118.612 131.785 119.186 132.08 119.588 132.553C119.991 133.027 120.187 133.64 120.136 134.258C120.084 134.876 119.788 135.449 119.312 135.849C118.837 136.25 118.221 136.446 117.601 136.394C116.98 136.343 116.405 136.048 116.002 135.574C115.599 135.099 115.402 134.485 115.454 133.867C115.506 133.248 115.802 132.675 116.278 132.274C116.754 131.873 117.37 131.676 117.991 131.728L117.818 131.722ZM125.503 119.45C121.668 119.536 118.019 121.112 115.334 123.842C112.65 126.572 111.144 130.24 111.137 134.061C111.144 137.883 112.65 141.55 115.334 144.28C118.019 147.01 121.668 148.587 125.503 148.672C128.123 148.737 130.713 148.103 133.005 146.838C135.297 145.572 137.209 143.72 138.542 141.472C139.872 139.228 140.574 136.67 140.574 134.064C140.574 131.458 139.872 128.9 138.542 126.656C137.21 124.407 135.298 122.554 133.006 121.287C130.714 120.02 128.124 119.386 125.503 119.45ZM153.79 104.839C156.946 107.972 157.509 112.861 155.145 116.628C153.992 118.458 152.251 119.846 150.206 120.566C148.161 121.286 145.931 121.296 143.879 120.594L140.918 123.533C143.256 126.887 144.41 130.919 144.2 134.997C143.99 139.075 142.428 142.968 139.758 146.067L142.519 149.806C144.344 149.165 146.298 148.97 148.215 149.235C150.132 149.501 151.958 150.22 153.539 151.332C155.12 152.444 156.411 153.917 157.303 155.628C158.196 157.339 158.664 159.238 158.669 161.167C158.663 163.635 157.895 166.042 156.47 168.062C155.044 170.081 153.03 171.615 150.7 172.456C148.368 173.3 145.832 173.413 143.433 172.78C141.034 172.146 138.888 170.796 137.282 168.911C135.68 167.029 134.7 164.701 134.473 162.243C134.247 159.786 134.785 157.319 136.016 155.178L132.988 151.067C129.78 152.467 126.242 152.94 122.778 152.432C119.314 151.924 116.062 150.456 113.396 148.194L110.011 151.106C110.326 152.565 110.177 154.085 109.587 155.456C108.997 156.828 107.993 157.983 106.715 158.761C105.434 159.541 103.943 159.907 102.446 159.809C100.948 159.712 99.5173 159.156 98.3494 158.217C97.1833 157.281 96.3379 156.008 95.9303 154.572C95.5226 153.137 95.5729 151.611 96.074 150.206C96.5777 148.799 97.5066 147.582 98.733 146.722C99.9594 145.862 101.423 145.403 102.923 145.406C103.792 145.406 104.618 145.583 105.387 145.867L108.99 142.756C107.311 139.632 106.572 136.092 106.861 132.561C107.15 129.03 108.454 125.656 110.619 122.844L106.832 118.756C106.553 118.794 106.285 118.844 106.012 118.844C103.391 118.844 101.049 117.206 100.184 114.75C99.7598 113.553 99.7203 112.254 100.071 111.033C100.422 109.812 101.146 108.731 102.142 107.939C103.14 107.145 104.361 106.678 105.636 106.603C106.912 106.529 108.179 106.85 109.263 107.522C110.347 108.191 111.195 109.18 111.689 110.35C112.182 111.521 112.298 112.816 112.018 114.056L115.839 118.183C118.671 116.47 121.91 115.539 125.223 115.487C128.536 115.434 131.803 116.261 134.689 117.883L137.923 114.678C136.473 110.478 138.124 105.844 141.916 103.489C143.758 102.347 145.933 101.858 148.088 102.102C150.243 102.346 152.253 103.309 153.79 104.833V104.839ZM127.5 44.5611C114.115 62.1167 88.1213 102.006 88.1213 146.989C88.1213 160 90.5752 170.9 93.0625 178.594H161.937C164.419 170.9 166.879 160 166.879 146.983C166.879 102 140.885 62.1111 127.5 44.5611ZM184.329 166.444L197.312 178.989L200 195.361H175.757C179.259 190.15 184.329 177.806 184.329 166.444ZM70.6712 166.45C70.6712 177.811 75.735 190.161 79.2429 195.372H55L57.6881 178.994L70.6712 166.45ZM127.5 28C127.517 28.0167 177.425 81.7222 177.425 146.994C177.425 176.628 165.992 196.183 165.992 196.183L153.756 189.072H101.244L89.0081 196.183C89.0081 196.183 77.5754 176.628 77.5754 146.994C77.5754 81.7167 127.483 28.0167 127.5 28ZM127.5 228C111.639 213.378 112.286 196.806 112.286 196.806H142.714C142.714 196.806 143.361 213.378 127.5 228Z" fill="#FF6A00"/>
</svg>
