<svg width="256px" height="256px" viewBox="0 0 256 256" version="1.1" xmlns="http://www.w3.org/2000/svg" xmlns:xlink="http://www.w3.org/1999/xlink">
<defs>
<linearGradient x1="67.621528%" y1="100.611091%" x2="37.048611%" y2="13.5946112%" id="linearGradient-rogjtz_q3g-1">
<stop stop-color="#FF1F51" offset="17%"></stop>
<stop stop-color="#FF3648" offset="28%"></stop>
<stop stop-color="#FF593B" offset="47%"></stop>
<stop stop-color="#FF7231" offset="65%"></stop>
<stop stop-color="#FF812B" offset="81%"></stop>
<stop stop-color="#FF8629" offset="94%"></stop>
</linearGradient>
<linearGradient x1="61.538462%" y1="22.8509256%" x2="43.605769%" y2="91.769217%" id="linearGradient-rogjtz_q3g-2">
<stop stop-color="#9039D0" offset="2%"></stop>
<stop stop-color="#FF1F51" offset="63%"></stop>
</linearGradient>
<linearGradient x1="0.57095135%" y1="8.066034%" x2="81.7715871%" y2="97.528013%" id="linearGradient-rogjtz_q3g-3">
<stop stop-color="#9039D0" offset="11%"></stop>
<stop stop-color="#FF1F51" offset="39%"></stop>
<stop stop-color="#FF1F51" offset="63%"></stop>
<stop stop-color="#FF3648" offset="66%"></stop>
<stop stop-color="#FF593B" offset="71%"></stop>
<stop stop-color="#FF7231" offset="77%"></stop>
<stop stop-color="#FF812B" offset="81%"></stop>
<stop stop-color="#FF8629" offset="85%"></stop>
</linearGradient>
</defs>
<g id="Page-1" stroke="none" stroke-width="1" fill="none" fill-rule="evenodd">
<g id="RubyMine-Dark" fill-rule="nonzero">
<path d="M196,0 L60,0 C26.8629,0 0,26.8629 0,60 L0,196 C0,229.137 26.8629,256 60,256 L196,256 C229.137,256 256,229.137 256,196 L256,60 C256,26.8629 229.137,0 196,0 Z" id="Path" fill="#242938"></path>
<polygon id="Path" fill="url(#linearGradient-rogjtz_q3g-1)" points="186.1378 38 136.646252 56.0703195 97.0612 38 58.636 135.31748 102.887748 117.26082 102.301 166.78688 197.204148 168.53518 215.83 72.3786805"></polygon>
<polygon id="Path" fill="url(#linearGradient-rogjtz_q3g-2)" points="168.085052 94.5329195 105.207452 53.1473805 54.5560516 84.6167805 165.765348 127.75062"></polygon>
<polygon id="Path" fill="url(#linearGradient-rogjtz_q3g-3)" points="113.940452 208.17242 179.1514 199.43092 158.1922 159.22002 172.165 142.898 173.324852 132.4082 105.207452 53.1473805 41.17 68.8820805 41.17 160.96832 77.8486 212.83"></polygon>
<polygon id="Path" fill="#000000" points="70.2754516 67.1337805 186.710903 67.1337805 186.710903 183.682561 70.2754516 183.682561"></polygon>
<path d="M127.340148,78.7982195 L138.9796,78.7982195 L151.2058,100.9388 L164.018748,78.7982195 L175.071452,78.7982195 L175.071452,131.24722 L164.591852,131.24722 L164.591852,96.8548805 L151.2058,119.58278 L137.819748,97.4422 L137.819748,131.24722 L127.340148,131.24722 L127.340148,78.7982195 Z M81.9285484,78.7982195 L103.460852,78.7982195 C109.282852,78.7982195 113.940452,80.5465195 117.433652,84.0431195 C120.340103,86.9524 121.527245,91.0363195 121.527245,96.3358539 C121.539815,100.033359 120.534184,103.662822 118.620794,106.825654 C116.937823,109.670633 114.2263,111.758825 111.047645,112.657873 L122.687097,131.301854 L110.406316,131.301854 L100.5544,114.9252 L91.8214,114.9252 L91.8214,131.24722 L81.3418,131.24722 L81.3418,78.7982195 L81.9285484,78.7982195 Z M102.887748,104.4354 C104.976903,104.574086 107.045863,103.953279 108.714297,102.6871 C110.166572,101.325096 111.007946,99.4338535 111.047645,97.4422 C111.162046,95.2496661 110.308977,93.1174153 108.714297,91.6099805 C107.040256,90.3583721 104.971812,89.7522664 102.887748,89.9026562 L92.4081484,89.9026562 L92.4081484,105.02272 L102.887748,105.02272 L102.887748,104.4354 Z M81.9285484,164.46492 L125.593548,164.46492 L125.593548,171.45812 L81.9285484,171.45812 L81.9285484,164.46492 Z" id="Shape" fill="#FFFFFF"></path>
</g>
</g>
</svg>
