<svg width="256" height="256" viewBox="0 0 256 256" fill="none" id="salesforce" xmlns="http://www.w3.org/2000/svg" xmlns:xlink="http://www.w3.org/1999/xlink">
<style>
#salesforce {
    rect {fill: #242938}
    
    @media (prefers-color-scheme: light) {
        rect {fill: #F4F2ED}
    }
}  
</style>
<rect width="256" height="256" fill="#242938" rx="60"/>
<path d="m107.706 57.5233c7.804-8.5941 18.67-13.9239 30.688-13.9239 15.974 0 29.912 9.4137 37.334 23.3886 6.45-3.0456 13.589-4.7397 21.101-4.7397 28.812 0 52.171 24.9005 52.171 55.6157 0 30.718-23.359 55.618-52.171 55.618-3.517 0-6.954-.371-10.277-1.082-6.536 12.321-18.991 20.646-33.287 20.646-5.984 0-11.645-1.461-16.685-4.059-6.625 16.471-22.062 28.019-40.0538 28.019-18.736 0-34.7039-12.528-40.8332-30.099-2.6785.601-5.4536.915-8.3011.915-22.3074 0-40.3919-19.309-40.3919-43.131 0-15.964 8.1253-29.902 20.1977-37.36-2.4855-6.043-3.8679-12.7139-3.8679-19.7269 0-27.3959 21.0458-49.6041 47.0039-49.6041 15.2405 0 28.7849 7.6577 37.3723 19.5233z" fill="#00a1e0"/>
<g fill="#fff">
<path d="m42.0515 130.828c-.1517.419.0552.507.1034.579.4551.35.917.601 1.3824.882 2.4683 1.384 4.7986 1.789 7.2359 1.789 4.9641 0 8.046-2.791 8.046-7.283v-.087c0-4.153-3.4784-5.662-6.743-6.751l-.424-.146c-2.4613-.845-4.5849-1.573-4.5849-3.286v-.091c0-1.464 1.2411-2.543 3.1646-2.543 2.1374 0 4.6746.751 6.3086 1.705 0 0 .4792.328.655-.164.0965-.262.9239-2.615 1.01-2.87.0931-.277-.0724-.481-.2413-.59-1.865-1.199-4.4435-2.019-7.1117-2.019l-.4965.004c-4.5435 0-7.715 2.9-7.715 7.057v.087c0 4.383 3.499 5.803 6.7774 6.794l.5274.172c2.389.776 4.447 1.442 4.447 3.22v.087c0 1.625-1.3375 2.835-3.4955 2.835-.8377 0-3.5094-.018-6.3948-1.946-.3481-.215-.5515-.371-.8204-.542-.1414-.095-.4964-.259-.6516.236z"/>
<path d="m114.724 130.828c-.152.419.055.507.103.579.455.35.917.601 1.383.882 2.468 1.384 4.798 1.789 7.235 1.789 4.965 0 8.046-2.791 8.046-7.283v-.087c0-4.153-3.478-5.662-6.743-6.751l-.424-.146c-2.461-.845-4.584-1.573-4.584-3.286v-.091c0-1.464 1.241-2.543 3.164-2.543 2.138 0 4.675.751 6.309 1.705 0 0 .479.328.655-.164.096-.262.924-2.615 1.01-2.87.093-.277-.073-.481-.242-.59-1.865-1.199-4.443-2.019-7.111-2.019l-.497.004c-4.543 0-7.715 2.9-7.715 7.057v.087c0 4.383 3.499 5.803 6.778 6.794l.527.172c2.389.776 4.451 1.442 4.451 3.22v.087c0 1.625-1.341 2.835-3.499 2.835-.838 0-3.51-.018-6.395-1.946-.348-.215-.555-.364-.817-.542-.09-.062-.51-.234-.655.236z"/>
<path d="m164.335 122.029c0 2.54-.448 4.54-1.33 5.953-.873 1.399-2.193 2.08-4.034 2.08-1.844 0-3.157-.677-4.016-2.08-.869-1.41-1.31-3.413-1.31-5.953 0-2.535.441-4.532 1.31-5.931.859-1.384 2.172-2.058 4.016-2.058 1.841 0 3.161.674 4.037 2.058.879 1.399 1.327 3.396 1.327 5.931zm4.144-4.706c-.407-1.454-1.041-2.736-1.886-3.804-.844-1.071-1.913-1.931-3.182-2.557-1.265-.623-2.761-.94-4.44-.94-1.682 0-3.178.317-4.443.94-1.269.626-2.338 1.486-3.186 2.557-.841 1.071-1.475 2.354-1.885 3.804-.404 1.446-.607 3.027-.607 4.706 0 1.68.203 3.265.607 4.707.41 1.45 1.041 2.733 1.889 3.804.844 1.071 1.917 1.927 3.182 2.535 1.268.609 2.761.918 4.443.918 1.679 0 3.172-.309 4.44-.918 1.265-.608 2.338-1.464 3.182-2.535.845-1.068 1.479-2.35 1.886-3.804.407-1.446.61-3.031.61-4.707 0-1.675-.203-3.26-.61-4.706z"/>
<path d="m202.506 129.384c-.138-.426-.528-.266-.528-.266-.603.245-1.244.47-1.927.583-.693.113-1.454.172-2.271.172-2.007 0-3.599-.631-4.74-1.877-1.145-1.246-1.786-3.26-1.779-5.985.007-2.481.572-4.346 1.589-5.767 1.01-1.414 2.548-2.139 4.599-2.139 1.71 0 3.013.208 4.378.663 0 0 .327.15.482-.302.362-1.064.631-1.825 1.017-2.995.111-.331-.158-.473-.255-.513-.538-.223-1.806-.583-2.765-.736-.896-.146-1.944-.222-3.109-.222-1.741 0-3.292.313-4.619.939-1.324.623-2.448 1.483-3.337 2.554-.89 1.071-1.565 2.354-2.017 3.804-.448 1.446-.676 3.034-.676 4.714 0 3.632.928 6.568 2.758 8.718 1.834 2.156 4.589 3.253 8.181 3.253 2.123 0 4.302-.455 5.867-1.108 0 0 .3-.153.169-.521z"/><path d="m209.756 119.597c.197-1.41.565-2.583 1.134-3.497.859-1.388 2.169-2.15 4.009-2.15 1.841 0 3.058.765 3.93 2.15.579.914.831 2.138.931 3.497zm13.951-3.1c-.351-1.403-1.224-2.82-1.796-3.469-.903-1.027-1.785-1.745-2.661-2.145-1.145-.518-2.517-.86-4.02-.86-1.751 0-3.34.31-4.629.951-1.293.641-2.379 1.515-3.23 2.605-.852 1.085-1.493 2.378-1.9 3.847-.41 1.461-.617 3.053-.617 4.732 0 1.709.214 3.301.638 4.732.427 1.443 1.11 2.714 2.034 3.767.92 1.06 2.106 1.891 3.526 2.47 1.41.576 3.123.875 5.092.871 4.05-.015 6.184-.969 7.063-1.483.156-.091.304-.251.118-.71l-.917-2.714c-.138-.405-.528-.255-.528-.255-1.003.393-2.43 1.1-5.757 1.093-2.175-.004-3.788-.682-4.798-1.742-1.038-1.085-1.545-2.681-1.634-4.932l14.027.014s.368-.007.406-.386c.014-.16.483-3.046-.417-6.386z"/>
<path d="m97.4196 119.597c.2-1.41.5654-2.583 1.1342-3.497.8584-1.388 2.1682-2.15 4.0092-2.15s3.058.765 3.933 2.15c.576.914.828 2.138.928 3.497zm13.9474-3.1c-.351-1.403-1.22-2.82-1.792-3.469-.903-1.027-1.786-1.745-2.662-2.145-1.144-.518-2.516-.86-4.019-.86-1.748 0-3.3405.31-4.6298.951-1.2927.641-2.3786 1.515-3.2301 2.605-.8515 1.085-1.4927 2.378-1.8995 3.847-.4067 1.461-.617 3.053-.617 4.732 0 1.709.2137 3.301.6377 4.732.4275 1.443 1.1101 2.714 2.0339 3.767.9205 1.06 2.1063 1.891 3.5266 2.47 1.4102.576 3.1232.875 5.0912.871 4.051-.015 6.185-.969 7.064-1.483.155-.091.303-.251.117-.71l-.913-2.714c-.142-.405-.531-.255-.531-.255-1.003.393-2.427 1.1-5.761 1.093-2.171-.004-3.7848-.682-4.7948-1.742-1.0377-1.085-1.5444-2.681-1.6341-4.932l14.0269.014s.369-.007.407-.386c.014-.16.483-3.046-.421-6.386z"/>
<path d="m67.1005 129.303c-.5481-.463-.624-.579-.8101-.878-.2758-.455-.4171-1.104-.4171-1.927 0-1.304.4068-2.241 1.2513-2.871-.0103.004 1.2066-1.111 4.0678-1.071 2.0098.029 3.8059.343 3.8059.343v6.739h.0034s-1.7822.405-3.7886.532c-2.8543.182-4.1229-.871-4.1126-.867zm5.5812-10.415c-.5688-.044-1.3065-.07-2.1891-.07-1.2031 0-2.3648.161-3.4541.47-1.0963.31-2.0822.795-2.9302 1.436-.8515.645-1.5375 1.468-2.0339 2.444-.4965.977-.7481 2.128-.7481 3.417 0 1.312.2137 2.452.6412 3.385.4275.936 1.0445 1.716 1.8305 2.317.7791.601 1.7409 1.042 2.8578 1.308 1.0997.266 2.3476.4 3.7127.4 1.4376 0 2.8716-.123 4.2609-.375 1.3755-.248 3.0646-.608 3.5335-.721.4654-.117.9825-.266.9825-.266.3481-.091.3206-.485.3206-.485l-.0069-13.556c0-2.972-.7516-5.176-2.2304-6.542-1.472-1.363-3.6404-2.052-6.443-2.052-1.0515 0-2.7441.153-3.7576.368 0 0-3.0646.627-4.3263 1.669 0 0-.2758.182-.1241.59l.9928 2.82c.1241.364.4585.24.4585.24s.1068-.043.2309-.12c2.6993-1.552 6.1121-1.504 6.1121-1.504 1.5168 0 2.682.32 3.468.958.7653.619 1.1548 1.555 1.1548 3.53v.626c-1.2065-.182-2.3131-.287-2.3131-.287z"/>
<path d="m185.816 111.25c.107-.336-.117-.496-.211-.532-.237-.099-1.43-.365-2.351-.427-1.761-.113-2.74.201-3.616.616-.869.415-1.834 1.086-2.372 1.847v-1.803c0-.252-.168-.452-.403-.452h-3.595c-.235 0-.404.2-.404.452v22.11c0 .247.193.451.428.451h3.685c.234 0 .424-.204.424-.451v-11.046c0-1.483.155-2.962.465-3.891.304-.918.717-1.654 1.228-2.182.513-.525 1.096-.893 1.734-1.1.651-.212 1.372-.281 1.882-.281.734 0 1.541.2 1.541.2.269.033.42-.142.51-.4.241-.678.924-2.707 1.055-3.111z"/>
<path d="m151.225 101.002c-.449-.145-.855-.244-1.386-.349-.538-.102-1.179-.153-1.907-.153-2.537 0-4.536.757-5.939 2.251-1.396 1.486-2.344 3.749-2.82 6.725l-.173 1.002h-3.185s-.386-.015-.469.43l-.52 3.086c-.038.291.083.477.455.477h3.099l-3.144 18.55c-.245 1.494-.527 2.722-.841 3.654-.307.918-.607 1.607-.979 2.11-.359.481-.696.838-1.283 1.045-.482.171-1.041.252-1.651.252-.338 0-.789-.059-1.124-.132-.331-.069-.506-.145-.758-.258 0 0-.362-.146-.507.237-.113.317-.941 2.717-1.041 3.012-.096.295.042.525.217.594.414.153.721.255 1.283.397.779.193 1.437.204 2.054.204 1.29 0 2.469-.193 3.444-.564.979-.376 1.834-1.028 2.593-1.909.817-.955 1.33-1.953 1.82-3.319.486-1.348.903-3.024 1.234-4.977l3.161-18.896h4.619s.39.014.469-.434l.524-3.082c.035-.295-.083-.477-.458-.477h-4.485c.024-.106.227-1.774.741-3.344.221-.667.634-1.21.982-1.582.345-.364.742-.622 1.176-.772.445-.153.951-.226 1.506-.226.421 0 .838.051 1.152.121.434.098.603.149.717.185.458.146.52.004.61-.229l1.072-3.111c.11-.336-.162-.478-.258-.518z"/>
<path d="m88.5615 133.062c0 .247-.1689.448-.4033.448h-3.7196c-.2344 0-.3999-.201-.3999-.448v-31.637c0-.247.1655-.448.3999-.448h3.7196c.2344 0 .4033.201.4033.448z"/>
</g>
</svg>