<svg width="256" height="256" viewBox="0 0 256 256" fill="none" xmlns="http://www.w3.org/2000/svg">
<path d="M196 0H60C26.8629 0 0 26.8629 0 60V196C0 229.137 26.8629 256 60 256H196C229.137 256 256 229.137 256 196V60C256 26.8629 229.137 0 196 0Z" fill="#242938"/>
<path d="M217.673 152.494L210.597 140.614L176.388 160.737L214.381 114.018L220.123 110.764L218.848 108.535L221.315 105.493L213.497 99.2079L212.489 97.4508L211.795 97.8399L209.321 95.8589L204.22 102.132L93.1837 165.052L134.03 117.626L210.312 77.2577L203.063 63.7268L161.517 85.7122L181.97 61.9698L170.249 52L124.207 105.457L78.4729 129.666L113.488 84.9752L135.424 73.9559L128.46 60.2777L64.5331 92.404L81.9725 70.1355L69.8006 60.7199L33 107.733L33.5754 108.175L40.4503 121.688L81.237 101.189L44.0627 148.632L50.1428 153.343L53.7671 160.106L96.7248 137.372L49.431 192.285L61.1461 202.255L63.5012 199.519L177.592 134.866L139.712 181.443L140.329 181.938L140.27 181.979L148.123 195.168L198.502 165.536L179.111 195.758L192.113 204L223 155.873L217.673 152.494Z" fill="white"/>
</svg>
