<svg width="256" height="256" viewBox="0 0 256 256" fill="none" xmlns="http://www.w3.org/2000/svg" id="sas">
<style>
#sas {
    rect {fill: #242938}

    @media (prefers-color-scheme: light) {
        rect {fill: #F4F2ED}
    }
}
</style>
<rect width="256" height="256" fill="#242938" rx="60"/>
<path d="M147.953 89.1408L144.591 85.0533C139.91 79.4494 132.262 79.5153 126.658 84.1303C120.989 88.8112 119.34 96.5248 124.021 102.195C124.021 102.195 124.615 102.854 125.538 104.041" fill="#0766D1"/>
<path d="M125.406 103.975C136.153 116.897 150.591 134.236 150.591 134.236C168.59 156.058 160.546 183.023 136.153 198.318C114.66 211.833 75.1691 207.021 61.5879 184.869C72.1364 215.987 107.474 236.293 146.569 226.535C180.457 218.097 218.365 174.452 176.962 124.215L146.108 86.9651" fill="#0766D1"/>
<path d="M128.703 150.718C118.286 138.126 105.496 122.764 105.496 122.764C87.4975 100.942 95.5407 73.9773 119.934 58.6819C141.427 45.1666 180.918 49.9794 194.499 72.1313C183.951 41.0131 148.613 20.7072 109.452 30.4646C75.6304 38.9693 37.7216 82.548 79.1246 132.851L108.463 168.321" fill="#0766D1"/>
<path d="M103.847 162.849L110.836 171.287C115.516 176.891 123.164 176.825 128.768 172.21C134.438 167.529 136.086 159.816 131.405 154.146C131.405 154.146 128.636 150.85 124.681 146.037" fill="#0766D1"/>
</svg>
