<svg width="256" height="256" viewBox="0 0 256 256" fill="none" xmlns="http://www.w3.org/2000/svg">
<path d="M196 0H60C26.8629 0 0 26.8629 0 60V196C0 229.137 26.8629 256 60 256H196C229.137 256 256 229.137 256 196V60C256 26.8629 229.137 0 196 0Z" fill="#242938"/>
<path d="M167.667 125.058C176.949 131.231 184.032 139.211 188.244 149.66C190.579 155.454 191.634 161.443 192.309 167.629C193.4 177.615 192.142 187.209 188.695 196.557C186.884 201.469 184.104 205.804 180.702 209.822C172.611 219.377 161.905 224.224 150.103 227.041C146.696 227.854 143.099 227.869 139.509 228.453C134.725 228.656 130.021 228.656 125.003 228.454C120.896 227.716 117.057 227.401 113.32 226.603C102.474 224.287 92.6244 219.695 84.2638 212.385C74.4794 203.831 68.2418 193.051 65.5171 180.302C64.952 177.658 64.5027 174.99 64 172.333C64 169.64 64 166.947 64.2357 164.019C77.6655 163.784 90.8597 163.784 103.647 163.784C104.373 168.99 104.691 174.007 105.852 178.82C106.995 183.557 109.132 187.972 113.389 190.962C120.143 195.705 127.824 196.496 135.662 195.861C139.569 195.544 143.344 194.151 146.401 191.297C151.229 186.792 152.148 180.824 152.42 174.796C152.676 169.121 151.098 163.711 148.364 158.533C148.846 157.654 149.302 156.962 149.715 156.244C155.703 145.851 161.684 135.454 167.667 125.058Z" fill="#F1F1F1"/>
<path d="M137.685 27C140.837 27.5028 143.771 27.9189 146.665 28.5249C155.14 30.2995 162.923 33.6662 170.001 38.6959C178.025 44.3979 183.613 52.0348 187.545 60.9038C190.147 66.7722 191.788 72.9561 192.238 79.4113C192.426 82.1197 192.701 84.8222 192.951 87.6994C179.532 87.6994 166.427 87.6994 153.325 87.6994C152.722 83.9963 152.319 80.1915 151.458 76.4933C149.466 67.9397 144.38 61.9064 135.576 60.3751C125.108 58.5544 113.67 61.3301 109.726 74.9337C107.656 82.0722 108.743 88.5743 113.161 94.7737C106.605 106.137 100.169 117.207 93.5678 128.185C88.4754 124.858 84.3733 120.765 80.5519 116.286C72.3557 106.68 69.0902 95.3312 68.6023 83.0448C68.4502 79.2138 68.7792 75.2514 69.6349 71.5205C70.7809 66.5244 72.112 61.4314 74.3392 56.8548C77.8131 49.7166 83.1661 43.9403 89.6733 39.2609C98.1856 33.1397 107.605 29.4081 117.975 27.9959C119.939 27.7285 121.886 27.3352 123.841 27C128.377 27 132.913 27 137.685 27Z" fill="#F1F1F1"/>
<path d="M148.363 158.533C130.172 148.66 112.027 138.612 93.8066 128.421C100.168 117.207 106.605 106.137 113.175 94.9541C117.818 97.2832 122.345 99.6942 126.833 102.176C132.185 105.137 137.491 108.184 142.841 111.149C151.048 115.698 159.275 120.209 167.58 124.897C161.684 135.454 155.702 145.851 149.715 156.244C149.302 156.962 148.846 157.654 148.363 158.533Z" fill="#0074FF"/>
</svg>
