<svg width="256" height="256" viewBox="0 0 256 256" fill="none" xmlns="http://www.w3.org/2000/svg">
<path d="M196 0H60C26.8629 0 0 26.8629 0 60V196C0 229.137 26.8629 256 60 256H196C229.137 256 256 229.137 256 196V60C256 26.8629 229.137 0 196 0Z" fill="#F4F2ED"/>
<path fill-rule="evenodd" clip-rule="evenodd" d="M128 27L109.155 37.7687V58.2768L79.8453 74.6918V54.1776L61 64.9464V105.963L128 68.0162V27ZM128 76.7384L61 114.685V178.225C61 185.546 64.9835 192.313 71.4581 195.98L128 228V76.7384Z" fill="#20E8D9"/>
<path fill-rule="evenodd" clip-rule="evenodd" d="M128 27L146.845 37.7687V58.2768L176.155 74.6857V54.1776L195 64.9464V105.963L128 68.0162V27ZM128 76.7384L195 114.685V178.225C194.986 181.846 194.01 185.398 192.173 188.517C190.335 191.637 187.702 194.212 184.542 195.98L128 228V76.7384Z" fill="#1E66E2"/>
<path fill-rule="evenodd" clip-rule="evenodd" d="M128 68.0222L61.0117 105.956L66.6519 111.481L128 76.7383L189.347 111.481L194.987 105.956L128 68.0222Z" fill="#F4F2ED"/>
<path fill-rule="evenodd" clip-rule="evenodd" d="M78.7969 170.057L127.999 198.258V207.492L78.7969 179.291V170.057ZM127.999 106.992V97.7581L87.1719 120.313L78.7969 124.942V159.806L87.1719 155L127.999 131.599V122.371L87.1719 145.773V129.54L127.999 106.992Z" fill="black"/>
<path fill-rule="evenodd" clip-rule="evenodd" d="M177.202 134.163L128 106.992V97.7581L177.202 124.936V134.163ZM128 122.371V131.599L168.827 155V174.857L128 198.258V207.492L177.202 179.291V150.572L128 122.371Z" fill="#F4F2ED"/>
</svg>
