<svg width="256" height="256" viewBox="0 0 256 256" fill="none" xmlns="http://www.w3.org/2000/svg">
<g clip-path="url(#clip0_186_235)">
<mask id="mask0_186_235" style="mask-type:luminance" maskUnits="userSpaceOnUse" x="0" y="0" width="256" height="256">
<path d="M196 0H60C26.8629 0 0 26.8629 0 60V196C0 229.137 26.8629 256 60 256H196C229.137 256 256 229.137 256 196V60C256 26.8629 229.137 0 196 0Z" fill="white"/>
</mask>
<g mask="url(#mask0_186_235)">
<path d="M256 0H0V256H256V0Z" fill="url(#paint0_linear_186_235)"/>
</g>
<path fill-rule="evenodd" clip-rule="evenodd" d="M182 194.8C182 189.596 177.603 185.199 172.4 185.199C167.197 185.199 162.8 189.596 162.8 194.8C162.8 200.003 167.197 204.4 172.4 204.4C177.603 204.4 182 200.003 182 194.8ZM127.6 191.6C122.397 191.6 118 195.996 118 201.2C118 206.403 122.397 210.8 127.6 210.8C132.803 210.8 137.2 206.403 137.2 201.2C137.2 195.996 132.803 191.6 127.6 191.6ZM82.8 185.199C77.5968 185.199 73.2 189.596 73.2 194.8C73.2 200.003 77.5968 204.4 82.8 204.4C88.0032 204.4 92.4 200.003 92.4 194.8C92.4 189.596 88.0032 185.199 82.8 185.199ZM91.136 137.199H164.064L139.565 115.153L129.677 123.627C129.082 124.142 128.336 124.398 127.597 124.398C126.858 124.398 126.112 124.142 125.517 123.627L115.632 115.153L91.136 137.199ZM86 89.7545V133.215L110.733 110.955L86 89.7545ZM163.75 85.9977H91.4496L127.597 116.984L163.75 85.9977ZM169.2 133.215V89.7545L144.467 110.952L169.2 133.215ZM188.4 194.8C188.4 203.472 181.072 210.8 172.4 210.8C163.728 210.8 156.4 203.472 156.4 194.8C156.4 187.219 162 180.668 169.2 179.139V169.199H130.8V185.539C138 187.068 143.6 193.619 143.6 201.2C143.6 209.872 136.272 217.2 127.6 217.2C118.928 217.2 111.6 209.872 111.6 201.2C111.6 193.619 117.2 187.068 124.4 185.539V169.199H86V179.139C93.2 180.668 98.8 187.219 98.8 194.8C98.8 203.472 91.472 210.8 82.8 210.8C74.128 210.8 66.8 203.472 66.8 194.8C66.8 187.219 72.4 180.668 79.6 179.139V165.999C79.6 164.233 81.0304 162.799 82.8 162.799H124.4V143.599H82.8C81.0304 143.599 79.6 142.165 79.6 140.399V82.7976C79.6 81.0312 81.0304 79.5975 82.8 79.5975H172.4C174.17 79.5975 175.6 81.0312 175.6 82.7976V140.399C175.6 142.165 174.17 143.599 172.4 143.599H130.8V162.799H172.4C174.17 162.799 175.6 164.233 175.6 165.999V179.139C182.8 180.668 188.4 187.219 188.4 194.8ZM217.2 127.598C217.2 146.501 211.366 164.591 200.326 179.903L195.133 176.159C205.382 161.941 210.8 145.151 210.8 127.598C210.8 81.7256 173.478 44.4001 127.603 44.4001C81.7248 44.4001 44.4 81.7256 44.4 127.598C44.4 145.151 49.8176 161.941 60.0672 176.159L54.8736 179.903C43.8336 164.591 38 146.501 38 127.598C38 78.1959 78.1952 38 127.597 38C177.002 38 217.2 78.1959 217.2 127.598Z" fill="white"/>
</g>
<defs>
<linearGradient id="paint0_linear_186_235" x1="0" y1="25600" x2="25600" y2="0" gradientUnits="userSpaceOnUse">
<stop stop-color="#BD0816"/>
<stop offset="1" stop-color="#FF5252"/>
</linearGradient>
<clipPath id="clip0_186_235">
<rect width="256" height="256" fill="white"/>
</clipPath>
</defs>
</svg>
