<svg width="256" height="256" viewBox="0 0 256 256" fill="none" xmlns="http://www.w3.org/2000/svg" id="session">
<style>
#session {
    rect {fill: #242938}

    @media (prefers-color-scheme: light) {
        rect {fill: #F4F2ED}
    }
}
</style>
<rect width="256" height="256" fill="#242938" rx="60"/>
<path d="M154.398 108.385C154.303 109.304 154.955 110.06 155.671 110.522C168.195 117.857 181.43 124.07 193.741 131.762C238.178 159.523 223.299 227.976 169.091 230.57C138.877 229.511 107.743 231.937 77.6326 230.57C62.6634 229.891 49.786 223.484 41.9709 210.489C29.4422 189.651 37.5562 163.077 59.2856 152.613C72.4346 146.283 87.3766 149.095 101.54 148.457C101.947 148.398 101.979 148.62 101.952 148.04C101.898 146.84 101.064 146.292 100.168 145.704C79 131.848 53.0507 126.329 41.3008 101.331C24.9959 66.6423 48.0926 27.7568 86.1586 26H180.61C215.285 28.2051 232.554 67.8468 209.448 94.6473C203.811 101.186 191.717 107.253 183.096 107.833C174.584 108.408 165.143 107.095 156.712 107.81C155.847 107.882 155.2 108.14 154.398 108.385ZM89.8081 38.1619C79.6113 38.5513 71.4837 40.4259 63.3742 46.8736C38.3939 66.7555 45.9419 103.051 72.6564 116.934L120.82 143.481L121.58 143.245C121.875 142.684 121.952 142.095 122.006 141.47C123.061 128.539 121.195 114.176 121.992 101.095C122.345 97.8123 124.542 96.5762 127.611 96.2819C144.405 95.5801 162.001 97.2509 178.704 96.3045C215.81 94.2036 218.169 44.4059 182.503 38.3883C151.849 38.6147 120.426 36.9892 89.8081 38.1619ZM134.784 113.049C134.29 113.203 134.1 115.1 134.059 115.634C133.063 128.439 134.829 142.516 134.068 155.457C133.71 158.984 131.433 160.016 128.177 160.275C112.502 161.511 95.1736 159.45 79.2807 160.252C68.8983 160.777 60.5579 163.349 54.0604 171.825C39.8383 190.376 52.4485 215.936 74.8887 218.213C105.262 217.629 135.73 218.829 166.071 218.49C210.119 218.001 223.105 164.585 186.764 141.479C175.838 134.534 163.169 128.362 151.731 122.145C146.108 119.089 140.652 115.607 134.784 113.049Z" fill="#00F782"/>
</svg>
