<svg width="256" height="256" viewBox="0 0 256 256" fill="none" xmlns="http://www.w3.org/2000/svg" id="sketchup">
<style>
#sketchup {
    rect {fill: #242938}

    @media (prefers-color-scheme: light) {
        rect {fill: #F4F2ED}
    }
}
</style>
<rect width="256" height="256" rx="60" fill="#242938"/>
<path d="M216 74.4534L154.039 38.7394C154.039 38.7394 144.222 33 128.561 33C112.253 33 102.804 38.9144 102.804 38.9144L45.4095 71.7586L132.726 121.944V223.364L190.19 190.554C190.19 190.554 200.462 184.885 208.266 171.411C215.143 159.547 216 148.069 216 148.069V74.4534ZM122.559 90.9717C122.559 90.9717 135.368 88.6095 146.199 94.8563C157.031 101.103 163.418 104.778 163.418 104.778C163.418 104.778 163.435 113.474 163.435 126.476C163.435 136.887 154.616 147.684 154.616 147.684L154.634 109.485L122.559 90.9717ZM173.339 174.753L154.634 185.48V175.418L169.192 167.089C183.051 157.098 185.343 142.364 185.343 137.255L185.291 92.0041L145.587 69.1514C145.587 69.1514 139.55 65.1968 128.701 65.1968C117.852 65.1968 111.938 68.8539 111.938 68.8539L97.9917 76.8681L89.1901 71.7761L108.456 60.7697C108.456 60.7697 115.997 56.5877 128.631 56.5877C140.233 56.5877 149.262 61.1197 149.262 61.1197L194.092 87.0171L194.04 136.397C194.355 143.991 190.82 162.54 173.339 174.753Z" fill="#005F9E"/>
<path d="M41 104.603L102.209 139.722L102.156 150.186L67.3349 130.22L45.4271 142.679L102.121 175.348L102.156 185.427L41.42 150.483C41.5774 154.578 45.2871 167.194 52.3914 176.958C59.6006 186.845 67.8248 191.044 67.8248 191.044L123.959 223.364V126.983L41.0525 79.3704L41 104.603Z" fill="#005F9E"/>
</svg>
