<svg width="256" height="256" viewBox="0 0 256 256" fill="none" xmlns="http://www.w3.org/2000/svg">
<path d="M196 0H60C26.8629 0 0 26.8629 0 60V196C0 229.137 26.8629 256 60 256H196C229.137 256 256 229.137 256 196V60C256 26.8629 229.137 0 196 0Z" fill="#242938"/>
<path fill-rule="evenodd" clip-rule="evenodd" d="M71.2926 149.908C71.2926 159.018 65.6104 168.759 47.5718 168.759C40.8074 168.759 35.937 168.127 31.6077 167.135C30.7058 166.955 29.8941 166.324 29.8941 165.331V158.837C29.8941 157.845 30.7058 157.124 31.6077 157.124H31.7881C35.3958 157.575 44.4151 158.026 47.7522 158.026C55.7794 158.026 58.2146 155.14 58.2146 149.908C58.2146 146.391 56.5009 144.587 50.5482 141.069L38.6428 133.944C30.2548 128.984 28 123.752 28 117.439C28 107.518 33.7723 100.302 50.5482 100.302C56.5009 100.302 64.7987 101.204 67.8652 101.926C68.7672 102.106 69.4887 102.738 69.4887 103.639V110.314C69.4887 111.216 68.8574 111.937 67.9554 111.937H67.7751C61.8223 111.396 55.8696 111.035 50.0071 111.035C43.3328 111.035 40.5368 113.38 40.5368 117.439C40.5368 120.415 42.0701 122.219 47.9326 125.466L58.7558 131.509C68.677 137.011 71.2926 142.783 71.2926 149.908ZM121.606 166.955C121.606 167.496 121.065 168.037 120.344 168.037H109.34C108.348 168.037 107.266 167.045 106.724 166.233L92.5642 145.669V166.143C92.5642 167.135 91.7525 168.037 90.7604 168.037H82.4626C81.4705 168.037 80.6588 167.135 80.6588 166.143V101.204C80.6588 100.212 81.4705 99.4004 82.4626 99.4004H90.7604C91.7525 99.4004 92.5642 100.212 92.5642 101.204V138.815L107.987 118.251C108.619 117.439 109.52 117.168 110.062 117.168H120.163C121.065 117.168 121.516 117.529 121.516 118.161C121.516 118.431 121.426 118.702 121.155 119.062L103.027 141.34L121.336 166.233C121.516 166.504 121.606 166.684 121.606 166.955ZM172.01 118.702C172.01 118.882 172.01 119.062 171.92 119.243L156.858 171.915C154.062 181.746 150.725 186.076 138.459 186.076C135.482 186.076 130.972 185.535 128.898 184.903C127.906 184.633 127.004 184.272 127.004 183.37V177.598C127.004 176.605 127.816 175.974 128.808 175.974C128.898 175.974 128.898 175.974 128.988 175.974C131.514 176.064 136.655 176.515 139.18 176.515C143.058 176.515 145.043 175.433 146.305 170.743L147.027 168.037H145.674C143.058 168.037 139.811 167.406 137.827 160.551L126.012 119.243C125.922 118.972 125.922 118.792 125.922 118.611C125.922 117.71 126.463 117.168 127.635 117.168H136.745C137.557 117.168 138.278 117.98 138.459 118.792L147.568 155.5C147.929 157.034 148.29 157.485 148.831 157.485H148.921C149.101 157.485 149.282 157.485 149.372 157.485C149.642 157.485 149.642 157.485 149.642 157.485L159.383 118.702C159.564 117.89 160.285 117.168 161.187 117.168H170.387C171.289 117.168 172.01 117.89 172.01 118.702Z" fill="#1890FF"/>
<path d="M146.557 89.1425C149.002 88.5984 151.532 88.2579 154.068 88.1249C179.507 86.7917 201.233 106.464 202.574 132.046C203.033 140.801 200.945 149.486 196.733 157.035C214.686 150.634 226.833 133.124 225.785 113.129C224.509 88.7876 203.795 70.0312 179.589 71.2998C166.354 71.9934 154.261 78.7116 146.557 89.1425Z" fill="#D8D8D8"/>
</svg>
