<svg width="256px" height="256px" viewBox="0 0 256 256" version="1.1" xmlns="http://www.w3.org/2000/svg" xmlns:xlink="http://www.w3.org/1999/xlink">
    <g id="Page-1" stroke="none" stroke-width="1" fill="none" fill-rule="evenodd">
        <g id="slack-light" fill-rule="nonzero">
            <path d="M196,0 L60,0 C26.8629,0 0,26.8629 0,60 L0,196 C0,229.137 26.8629,256 60,256 L196,256 C229.137,256 256,229.137 256,196 L256,60 C256,26.8629 229.137,0 196,0 Z" id="Path" fill="#F4F2ED"></path>
            <g id="Group" transform="translate(32, 32)">
                <path d="M40.4444444,121.222222 C40.4444444,132.405724 31.4057239,141.444444 20.2222222,141.444444 C9.03872054,141.444444 0,132.405724 0,121.222222 C0,110.038721 9.03872054,101 20.2222222,101 L40.4444444,101 L40.4444444,121.222222 Z M50.5555556,121.222222 C50.5555556,110.038721 59.5942761,101 70.7777778,101 C81.9612795,101 91,110.038721 91,121.222222 L91,171.777778 C91,182.961279 81.9612795,192 70.7777778,192 C59.5942761,192 50.5555556,182.961279 50.5555556,171.777778 L50.5555556,121.222222 Z" id="Shape" fill="#E01E5A"></path>
  <path d="M70.8117647,40.3764706 C59.6470588,40.3764706 50.6235294,31.3529412 50.6235294,20.1882353 C50.6235294,9.02352941 59.6470588,0 70.8117647,0 C81.9764706,0 91,9.02352941 91,20.1882353 L91,40.3764706 L70.8117647,40.3764706 Z M70.8117647,50.6235294 C81.9764706,50.6235294 91,59.6470588 91,70.8117647 C91,81.9764706 81.9764706,91 70.8117647,91 L20.1882353,91 C9.02352941,91 0,81.9764706 0,70.8117647 C0,59.6470588 9.02352941,50.6235294 20.1882353,50.6235294 L70.8117647,50.6235294 Z" id="Shape" fill="#36C5F0"></path>
                <path d="M151.555556,70.8117647 C151.555556,59.6470588 160.594276,50.6235294 171.777778,50.6235294 C182.961279,50.6235294 192,59.6470588 192,70.8117647 C192,81.9764706 182.961279,91 171.777778,91 L151.555556,91 L151.555556,70.8117647 Z M141.444444,70.8117647 C141.444444,81.9764706 132.405724,91 121.222222,91 C110.038721,91 101,81.9764706 101,70.8117647 L101,20.1882353 C101,9.02352941 110.038721,0 121.222222,0 C132.405724,0 141.444444,9.02352941 141.444444,20.1882353 L141.444444,70.8117647 L141.444444,70.8117647 Z" id="Shape" fill="#2EB67D"></path>
                <path d="M121.188235,151.555556 C132.352941,151.555556 141.376471,160.594276 141.376471,171.777778 C141.376471,182.961279 132.352941,192 121.188235,192 C110.023529,192 101,182.961279 101,171.777778 L101,151.555556 L121.188235,151.555556 Z M121.188235,141.444444 C110.023529,141.444444 101,132.405724 101,121.222222 C101,110.038721 110.023529,101 121.188235,101 L171.811765,101 C182.976471,101 192,110.038721 192,121.222222 C192,132.405724 182.976471,141.444444 171.811765,141.444444 L121.188235,141.444444 Z" id="Shape" fill="#ECB22E"></path>
            </g>
        </g>
    </g>
</svg>