<svg width="256" height="256" viewBox="0 0 256 256" fill="none" xmlns="http://www.w3.org/2000/svg">
  <path d="M196 0H60C26.8629 0 0 26.8629 0 60V196C0 229.137 26.8629 256 60 256H196C229.137 256 256 229.137 256 196V60C256 26.8629 229.137 0 196 0Z" fill="#242938"/>
  <g transform="translate(28 28)">
  	<circle cx="100" cy="100" r="95" fill="#FFF" />
    <circle cx="100" cy="100" r="82.375" fill="#242938" />
    <path d="M76.185 94.668c21.346-17.448 42.235-35.091 64.043-51.635-11.46 17.608-23.273 34.899-34.733 52.507-9.842.047-19.684.047-29.31-.127zM94.33 104.793c9.891 0 19.733 0 29.36.14-21.36 17.21-42.118 35.257-63.828 52.098 11.46-17.608 23.273-34.949 34.733-52.238z" fill="#FFF"/>
  </g>
</svg>
