<svg width="256" height="256" viewBox="0 0 256 256" fill="none" xmlns="http://www.w3.org/2000/svg">
<path d="M196 0H60C26.8629 0 0 26.8629 0 60V196C0 229.137 26.8629 256 60 256H196C229.137 256 256 229.137 256 196V60C256 26.8629 229.137 0 196 0Z" fill="#F4F2ED"/>
<path d="M137.512 230.821C137.042 230.643 135.88 229.472 130.653 223.82L127.472 220.409L125.536 220.231C115.329 219.289 108.304 214.096 105.178 205.185C103.961 201.672 103.491 196.097 104.127 192.253C105.538 183.572 109.77 177.589 116.685 174.484C121.082 172.523 125.314 171.76 130.293 172.065C133.723 172.294 136.323 172.905 139.448 174.305C141.44 175.171 142.242 175.706 144.62 177.92C147.027 180.135 147.58 180.823 148.686 182.91C151.093 187.467 151.784 190.369 151.784 195.893C151.784 200.018 151.286 202.843 150.069 206.051C147.663 212.314 142.629 216.947 136.129 218.958L133.972 219.62L134.691 220.409C135.106 220.867 137.623 223.311 140.306 225.883C142.989 228.454 145.229 230.669 145.257 230.796C145.367 231.05 138.231 231.076 137.512 230.821ZM133.916 214.376C141.191 212.034 145.035 206.357 145.506 197.294C145.837 190.522 143.929 184.718 140.306 181.357C136.71 178.048 131.621 176.546 125.95 177.106C122.77 177.437 119.091 178.786 117.431 180.288C117.238 180.466 116.851 180.746 116.574 180.924C115.689 181.535 113.504 184.183 112.674 185.71C109.936 190.7 109.41 198.388 111.429 203.964C113.227 208.928 117.017 212.823 121.414 214.248C124.014 215.089 125.065 215.216 128.578 215.139C131.261 215.063 132.284 214.91 133.916 214.376Z" fill="black"/>
<path d="M79.6219 220.078C76.2198 219.594 71.2688 218.117 71.1582 217.557C71.1305 217.481 71.0752 216.055 71.0199 214.426C70.9369 211.218 71.0752 210.938 72.1816 211.88C72.9284 212.542 76.5241 214.095 78.5155 214.655C80.8666 215.292 86.2601 215.292 88.3069 214.63C91.4877 213.611 93.3409 210.811 92.926 207.654C92.4558 203.912 90.8792 202.537 80.424 196.682C74.0347 193.118 71.1858 189.401 71.1858 184.564C71.1858 178.734 74.5326 174.839 81.3091 172.752C84.7942 171.683 91.543 171.81 95.4707 173.006L97.1855 173.541V176.57C97.1855 178.225 97.1302 179.6 97.0472 179.6C96.9919 179.6 96.1345 179.218 95.1941 178.734C94.226 178.251 92.7047 177.665 91.7643 177.461C89.6346 176.952 85.8729 176.876 83.8538 177.283C81.7793 177.691 79.5389 179.091 78.5155 180.567C77.7411 181.687 77.6858 181.942 77.6858 184.182C77.6858 188.561 78.7092 189.528 89.5516 195.409C93.2856 197.42 96.9919 200.602 98.1259 202.792C100.283 206.941 99.5089 212.186 96.1898 215.724C93.0366 219.085 85.9006 220.969 79.6219 220.078Z" fill="black"/>
<path d="M159.889 219.39C159.778 219.314 159.695 208.775 159.695 195.969V172.727H162.572H165.421L165.614 175.629C165.725 177.207 165.78 186.576 165.753 196.428L165.697 214.35L175.848 214.426L185.999 214.477L185.916 216.972L185.833 219.441L172.944 219.518C165.863 219.543 159.972 219.492 159.889 219.39Z" fill="black"/>
<path d="M121.7 21.0029C119.451 21.0664 117.229 22.137 115.371 24.2008C114.35 25.3378 113.483 26.6912 112.764 28.0257C110.89 31.5381 110.521 35.5139 109.827 39.3666L106.009 61.0065C105.862 61.8558 105.481 62.207 104.72 62.4501L76.695 71.3601C74.6528 72.0279 72.6055 72.8911 70.7992 74.039C65.2891 77.5415 64.4741 83.3042 68.6112 88.3644C70.4374 90.6029 72.7909 92.1775 75.4023 93.3215L92.8538 101.103C92.9995 101.183 93.1551 101.234 93.3128 101.264L96.9978 103.925C96.9978 103.925 93.3296 144.554 100.216 147.365C100.155 147.355 99.8094 147.283 99.8094 147.283C99.8094 147.283 100.507 148.038 102.39 147.816C103.831 148.084 103.641 148.04 102.463 147.806C105.024 147.475 109.737 145.329 117.907 137.106C118.508 136.567 119.095 136.013 119.668 135.443L137.315 116.376L141.442 117.83C141.591 118.035 141.806 118.167 142.15 118.269L161.802 124.253C164.488 125.083 167.145 125.69 170.008 125.271C175.12 124.522 178.882 120.31 178.831 115.159C178.811 112.897 178.018 110.854 176.977 108.884L163.962 84.1803C163.548 83.3995 163.561 82.8944 164.157 82.1959L186.021 56.4761C187.437 54.7864 188.715 52.9746 189.456 50.8751C191.085 46.2415 188.978 42.5585 184.172 41.6586C181.962 41.2637 179.783 41.472 177.629 42.0406L146.304 50.3701C145.382 50.6181 144.926 50.4445 144.425 49.6041L131.636 28.3373C130.669 26.7349 129.514 25.1682 128.189 23.8456C126.227 21.882 123.95 20.9404 121.7 21.0029ZM122.636 40.585C123.142 40.9402 123.398 41.3063 123.637 41.7012L137.398 64.6508C137.777 65.2739 138.117 65.4942 138.87 65.2938L163.103 58.8475L168.937 57.3195C168.851 57.8086 168.638 58.1033 168.405 58.3791L148.418 81.8665C147.853 82.5492 147.801 83.0274 148.226 83.8271L160.859 107.799L161.439 109.026L161.424 109.046L138.893 102.831L138.887 102.813L134.626 101.617L109.353 129.653L113.975 92.7926L109.827 90.9868L109.835 90.9799L86.3651 81.6532C86.8152 81.2434 87.2177 81.0728 87.639 80.9418L116.168 71.9167C116.839 71.7084 117.22 71.4504 117.284 70.6844L117.683 68.3478L121.525 46.7109L122.636 40.585Z" fill="#E15919"/>
</svg>
