<svg width="256" height="256" viewBox="0 0 256 256" fill="none" xmlns="http://www.w3.org/2000/svg">
<path d="M196 0H60C26.8629 0 0 26.8629 0 60V196C0 229.137 26.8629 256 60 256H196C229.137 256 256 229.137 256 196V60C256 26.8629 229.137 0 196 0Z" fill="#242938"/>
<path d="M190.565 121.836C199.523 114.187 211.667 110.84 226 104.386L219.829 87.6526C194.347 93.1506 171.454 74.9832 146.57 70.9194C108.547 61.5966 73.5099 89.0868 36.0841 92.4335V110.601C73.3108 120.402 108.547 140.721 147.565 134.984C123.477 163.908 91.0283 198.092 54.1998 184.466C41.4591 181.597 35.8851 160.083 48.0285 153.629C53.4035 178.49 79.283 160.8 67.9359 141.199C60.172 129.725 39.6675 134.984 33.6953 146.458C16.3759 185.9 50.4174 207.653 79.6812 201.916C116.709 195.94 145.176 161.04 169.861 129.725C169.463 144.306 173.445 176.577 161.699 189.486L161.898 211C170.459 202.872 177.824 185.422 180.213 173.709C183.398 158.649 181.009 149.326 182.204 137.135C183.199 131.637 184.195 127.334 190.565 121.836ZM66.7414 100.8C82.0701 95.302 98.195 86.9354 114.32 85.0231C105.959 118.011 150.352 121.836 145.375 85.0231C158.116 88.8478 165.283 92.1944 183.996 101.756C142.986 126.139 103.371 115.143 66.7414 100.8Z" fill="white"/>
<path d="M38 88V68.9945C42.5332 68.9945 54.556 64.7182 66.3817 60.6796C86.0913 53.5525 110.728 45 128.467 45C148.176 45 168.871 53.0773 184.048 58.779L201.983 64.7182C214.203 66.3812 221.299 62.8177 221.299 62.8177L228 80.1602C226.817 80.6354 216.963 85.8619 200.21 83.7238C194.888 83.0111 187.99 80.3978 179.317 76.8343C164.338 71.1326 145.614 64.0055 128.467 64.0055C112.896 64.0055 89.639 72.3204 70.9149 78.9724C56.3299 83.9613 44.8983 88 38 88Z" fill="white"/>
</svg>
