<?xml version="1.0" encoding="utf-8"?>
<svg xmlns="http://www.w3.org/2000/svg" viewBox="0 0 256 256" width="256px" height="256px">
    <rect width="256" height="256" rx="60" fill="#F4F2ED" x="0" y="0"/>
    <g transform="matrix(1.2923120260238647, 0, 0, 1.2923120260238647, -315.83648681640625, -25.569499969482422)" style="">
        <path class="cls-1" d="M 397.494 56.546 L 343.414 43.546 L 289.414 56.546 L 289.414 98.146 L 318.084 98.146 C 317.833 100.138 317.833 102.154 318.084 104.146 L 289.414 104.146 L 289.414 123.686 C 289.414 168.546 343.414 194.546 343.414 194.546 C 343.414 194.546 397.414 168.546 397.414 123.716 L 397.414 104.166 L 368.814 104.166 C 369.079 102.175 369.079 100.157 368.814 98.166 L 397.494 98.166 L 397.494 56.546 Z M 343.414 120.696 C 328.373 120.665 319.005 104.363 326.552 91.352 C 334.1 78.34 352.902 78.379 360.396 91.421 C 362.099 94.383 362.994 97.74 362.994 101.156 C 362.994 111.963 354.222 120.718 343.414 120.696 Z" fill="#5FB832"/>
        <path class="cls-1" d="M 343.414 91.886 C 339.519 91.881 337.08 96.095 339.023 99.471 C 339.509 100.315 340.228 101.001 341.094 101.446 L 341.094 102.756 L 342.584 104.246 L 342.584 105.246 L 343.584 106.246 L 343.584 107.246 L 342.704 108.126 L 343.644 109.676 L 343.644 110.676 L 342.644 111.866 L 344.044 113.266 L 345.594 111.716 L 345.594 101.546 C 349.136 99.924 349.594 95.077 346.418 92.821 C 345.542 92.198 344.49 91.871 343.414 91.886 Z M 343.414 97.146 C 341.967 97.146 341.063 95.579 341.786 94.326 C 342.51 93.073 344.319 93.073 345.042 94.326 C 345.207 94.612 345.294 94.936 345.294 95.266 C 345.294 96.304 344.453 97.146 343.414 97.146 Z" fill="#5FB832"/>
    </g>
</svg>