<svg width="256" height="256" viewBox="0 0 256 256" fill="none" xmlns="http://www.w3.org/2000/svg">
<g clip-path="url(#clip0_270_2)">
<path d="M196 0H60C26.8629 0 0 26.8629 0 60V196C0 229.137 26.8629 256 60 256H196C229.137 256 256 229.137 256 196V60C256 26.8629 229.137 0 196 0Z" fill="#F4F2ED"/>
<path d="M197.85 47.5056L127.962 30.7056L58.1768 47.5056V101.266H95.2274C94.903 103.84 94.903 106.445 95.2274 109.02H58.1768V134.271C58.1768 192.245 127.962 225.845 127.962 225.845C127.962 225.845 197.746 192.245 197.746 134.31V109.046H160.786C161.129 106.473 161.129 103.865 160.786 101.292H197.85V47.5056ZM127.962 130.407C108.524 130.367 96.4176 109.3 106.171 92.4858C115.925 75.6703 140.223 75.7207 149.908 92.575C152.108 96.4028 153.265 100.741 153.265 105.156C153.265 119.122 141.929 130.436 127.962 130.407Z" fill="#5FB832"/>
<path d="M127.961 93.1759C122.928 93.1695 119.776 98.6153 122.287 102.978C122.915 104.069 123.844 104.955 124.963 105.53V107.223L126.889 109.149V110.441L128.181 111.734V113.026L127.044 114.163L128.259 116.166V117.458L126.966 118.996L128.776 120.806L130.779 118.802V105.66C135.356 103.564 135.948 97.2997 131.844 94.3842C130.711 93.5791 129.352 93.1565 127.961 93.1759ZM127.961 99.9735C126.091 99.9735 124.923 97.9484 125.858 96.3292C126.793 94.7099 129.131 94.7099 130.065 96.3292C130.279 96.6988 130.391 97.1175 130.391 97.5439C130.391 98.8854 129.304 99.9735 127.961 99.9735Z" fill="#5FB832"/>
</g>
<defs>
<clipPath id="clip0_270_2">
<rect width="256" height="256" fill="white"/>
</clipPath>
</defs>
</svg>
