<svg width="256" height="256" viewBox="0 0 256 256" fill="none" xmlns="http://www.w3.org/2000/svg">
<path d="M196 0H60C26.8629 0 0 26.8629 0 60V196C0 229.137 26.8629 256 60 256H196C229.137 256 256 229.137 256 196V60C256 26.8629 229.137 0 196 0Z" fill="#242938"/>
<path d="M41 154.671V167.998L127.494 218L214 167.998V154.671L127.494 204.673L41 154.671ZM41 128.006V141.333L127.494 191.335L214 141.333V128.006L127.494 178.008L41 128.006ZM127.494 38L41 88.0019V114.667L127.494 164.704L214 114.702V88.0019L127.494 38Z" fill="#6DB33F"/>
</svg>
