<svg width="256" height="256" viewBox="0 0 256 256" fill="none" xmlns="http://www.w3.org/2000/svg">
<rect width="256" height="256" rx="60" fill="#242938" x="0" y="0"
      transform="matrix(1, 0, 0, 1, 0, 1.4210854715202004e-14)"/>
<g transform="matrix(1.3468610048294067, 0, 0, 1.3468610048294067, 49.28950119018555, 29.692600250244155)" style="">
    <path class="cls-1"
          d="M58.33,101.79C29.54,101.79,17,99.42,0,95.46v44l.8.2c16.4,4,28.8,6.32,57.53,6.32s41.35-2.38,57.74-6.37l.81-.2v-44C99.93,99.4,87.27,101.79,58.33,101.79Z"
          fill="#5FB832"/>
    <path class="cls-1"
          d="M58.33,0C29.6,0,17.2,2.36.8,6.32l-.8.2V53c17-4,29.54-6.33,58.33-6.33s41.6,2.39,58.55,6.39V6.57l-.81-.2C99.68,2.38,87.21,0,58.33,0Z"
          fill="#5FB832"/>
    <path class="cls-1"
          d="M116.88,55.58l-.81-.2C99.68,51.39,87.21,49,58.33,49S17.2,51.37.8,55.32l-.8.2V92.94l.8.19c16.4,4,28.8,6.33,57.53,6.33s41.35-2.39,57.74-6.38l.81-.2Z"
          fill="#5FB832"/>
</g>
</svg>
