<svg width="256" height="256" viewBox="0 0 256 256" fill="none" xmlns="http://www.w3.org/2000/svg">
<g clip-path="url(#clip0_186_198)">
<mask id="mask0_186_198" style="mask-type:luminance" maskUnits="userSpaceOnUse" x="0" y="0" width="256" height="256">
<path d="M196 0H60C26.8629 0 0 26.8629 0 60V196C0 229.137 26.8629 256 60 256H196C229.137 256 256 229.137 256 196V60C256 26.8629 229.137 0 196 0Z" fill="white"/>
</mask>
<g mask="url(#mask0_186_198)">
<path d="M256 0H0V256H256V0Z" fill="url(#paint0_linear_186_198)"/>
</g>
<path fill-rule="evenodd" clip-rule="evenodd" d="M91.4944 139.401L101.101 129.91C101.703 129.315 102.042 128.507 102.045 127.664C102.048 126.821 101.712 126.009 101.113 125.411L91.5072 115.812L86.9667 120.298L91.0877 124.418H76.4287V130.782H91.139L86.9795 134.889L91.4944 139.401ZM164.809 139.69L177.617 130.139C178.417 129.538 178.895 128.596 178.895 127.597C178.895 126.595 178.417 125.65 177.614 125.048L164.806 115.51L160.963 120.6L166.086 124.418H153.278V130.782H166.083L160.96 134.6L164.809 139.69ZM112.266 127.6C112.266 134.355 111.097 140.724 108.914 146.266C114.674 144.052 121.171 142.945 127.662 142.945C134.152 142.945 140.649 144.052 146.406 146.266C144.226 140.724 143.057 134.355 143.057 127.6C143.057 120.845 144.226 114.479 146.406 108.934C134.889 113.359 120.435 113.359 108.914 108.934C111.097 114.479 112.266 120.845 112.266 127.6ZM96.5793 158.484C95.9549 157.863 95.6411 157.049 95.6411 156.234C95.6411 155.42 95.9549 154.605 96.5793 153.985C102.391 148.21 105.862 138.344 105.862 127.6C105.862 116.856 102.391 106.99 96.5793 101.215C95.9549 100.595 95.6411 99.7801 95.6411 98.9656C95.6411 98.1511 95.9549 97.3366 96.5793 96.7162C97.8313 95.4722 99.855 95.4722 101.107 96.7162C113.515 109.045 141.808 109.045 154.216 96.7162C155.468 95.4722 157.492 95.4722 158.744 96.7162C159.368 97.3366 159.682 98.1511 159.682 98.9656C159.682 99.7801 159.368 100.595 158.744 101.215C152.932 106.99 149.461 116.856 149.461 127.6C149.461 138.344 152.932 148.21 158.744 153.985C159.368 154.605 159.682 155.42 159.682 156.234C159.682 157.049 159.368 157.863 158.744 158.484C158.12 159.104 157.3 159.416 156.48 159.416C155.66 159.416 154.841 159.104 154.216 158.484C141.808 146.155 113.515 146.155 101.107 158.484C99.855 159.728 97.8313 159.728 96.5793 158.484ZM210.803 127.616C210.803 124.651 209.641 121.864 207.531 119.767C205.353 117.6 202.491 116.522 199.631 116.522C196.772 116.522 193.909 117.6 191.732 119.767C187.374 124.094 187.374 131.135 191.732 135.465C196.086 139.792 203.169 139.795 207.531 135.465C209.641 133.368 210.803 130.581 210.803 127.616ZM212.058 139.964C208.632 143.368 204.133 145.07 199.631 145.07C195.129 145.07 190.63 143.368 187.204 139.964C180.348 133.155 180.348 122.077 187.204 115.268C194.06 108.453 205.209 108.459 212.058 115.268C218.914 122.077 218.914 133.155 212.058 139.964ZM66.7361 127.689C66.7361 124.724 65.5737 121.937 63.4636 119.84C61.3534 117.743 58.5484 116.588 55.5641 116.588C52.583 116.588 49.778 117.743 47.6646 119.84C45.5545 121.937 44.3953 124.724 44.3953 127.689C44.3953 130.651 45.5545 133.438 47.6646 135.538C51.8881 139.728 59.2433 139.728 63.4636 135.538C65.5737 133.438 66.7361 130.651 66.7361 127.689ZM67.9913 140.037C64.5651 143.441 60.0662 145.143 55.5641 145.143C51.0652 145.143 46.5663 143.441 43.1369 140.037C36.2877 133.228 36.2877 122.15 43.1369 115.341C49.9925 108.533 61.1389 108.533 67.9913 115.341C74.8437 122.15 74.8437 133.228 67.9913 140.037ZM175.267 175.14C162.484 187.844 145.484 194.837 127.405 194.837C109.32 194.837 92.3237 187.844 79.5411 175.14C70.7739 166.431 65.9484 156.024 63.4444 148.831L57.3925 150.912C60.1174 158.738 65.3848 170.074 75.0134 179.638C89.0064 193.545 107.61 201.2 127.405 201.2C147.197 201.2 165.801 193.545 179.794 179.638C187.88 171.611 194.319 161.405 197.934 150.902L191.876 148.84C188.571 158.442 182.673 167.784 175.267 175.14ZM63.4412 106.372L57.3957 104.285C61.2702 93.2005 67.5334 82.9939 75.0326 75.5458C89.0192 61.6518 107.617 54 127.405 54C147.194 54 165.792 61.6518 179.775 75.5458C187.668 83.3885 194.287 93.8623 197.928 104.285L191.882 106.372C188.542 96.8275 182.481 87.2318 175.247 80.0446C162.474 67.35 145.481 60.3632 127.405 60.3632C109.327 60.3632 92.3365 67.35 79.5603 80.0446C72.7335 86.8309 67.0082 96.1817 63.4412 106.372Z" fill="white"/>
</g>
<defs>
<linearGradient id="paint0_linear_186_198" x1="0" y1="25600" x2="25600" y2="0" gradientUnits="userSpaceOnUse">
<stop stop-color="#B0084D"/>
<stop offset="1" stop-color="#FF4F8B"/>
</linearGradient>
<clipPath id="clip0_186_198">
<rect width="256" height="256" fill="white"/>
</clipPath>
</defs>
</svg>
