<svg width="256" height="256" viewBox="0 0 256 256" fill="none" xmlns="http://www.w3.org/2000/svg" id="stan">
<style>
#stan {
    rect {fill: #242938}

    @media (prefers-color-scheme: light) {
        rect {fill: #F4F2ED}
    }
}
</style>
<path d="M196 0H60C26.8629 0 0 26.8629 0 60V196C0 229.137 26.8629 256 60 256H196C229.137 256 256 229.137 256 196V60C256 26.8629 229.137 0 196 0Z" fill="#242938"/>
<path d="M127.499 40.0001C110.51 40.0002 93.8893 44.946 79.6644 54.2338C65.4394 63.5217 54.2257 76.75 47.3918 92.3042C40.5579 107.858 38.3995 125.066 41.1799 141.826C43.9603 158.586 51.5593 174.175 63.0495 186.689C73.6744 183.476 84.368 180.488 93.0866 178.207C118.317 171.619 161.511 160.481 167.748 146.443C165.998 151.318 160.136 164.381 160.136 164.381C152.142 172.175 115.824 180.826 91.9053 185.426C84.2805 186.895 75.5681 188.595 66.7432 190.464C81.6451 204.844 101.164 213.473 121.829 214.816C142.494 216.158 162.965 210.128 179.602 197.796C196.239 185.464 207.964 167.631 212.69 147.468C217.417 127.305 214.839 106.119 205.416 87.6775C189.629 90.2276 139.792 99.2656 127.049 102.147C112.955 105.328 84.6179 111.104 78.9618 120.854C82.4992 111.879 93.0741 88.4025 93.0741 88.4025C100.674 75.9019 134.323 66.9952 157.811 60.5074C163.286 58.9948 169.823 57.1385 176.704 55.1446C162.203 45.2525 145.052 39.9736 127.499 40.0001Z" fill="#B2001D"/>
<path d="M79.4498 121.074C77.876 128.506 101.433 135.704 122.673 142.51C134.958 145.735 146.835 150.387 158.065 156.375C162.703 154.467 166.425 150.806 168.444 146.166C170.799 136.748 149.627 124.704 135.507 119.416C126.035 115.794 116.836 111.478 107.984 106.5C81.0299 113.73 79.4498 121.048 79.4498 121.048V121.074Z" fill="#590815"/>
</svg>