<svg width="256" height="256" viewBox="0 0 256 256" fill="none" xmlns="http://www.w3.org/2000/svg" id="stan">
<style>
#stan {
    rect {fill: #242938}

    @media (prefers-color-scheme: light) {
        rect {fill: #F4F2ED}
    }
}
</style>
<rect width="256" height="256" fill="#242938" rx="60"/>
<path d="M127.998 25.0001C108.001 25.0002 88.4355 30.8221 71.6907 41.7552C54.9458 52.6884 41.7457 68.26 33.7012 86.5695C25.6568 104.879 23.116 125.134 26.3889 144.864C29.6619 164.593 38.607 182.943 52.1326 197.674C64.6395 193.892 77.2274 190.375 87.4905 187.689C117.191 179.935 168.035 166.824 175.378 150.299C173.318 156.037 166.417 171.415 166.417 171.415C157.007 180.589 114.255 190.772 86.1 196.187C77.1244 197.916 66.8687 199.918 56.4806 202.117C74.0222 219.045 96.9988 229.203 121.324 230.783C145.65 232.364 169.747 225.264 189.332 210.748C208.916 196.232 222.717 175.24 228.281 151.505C233.845 127.771 230.811 102.831 219.718 81.1232C201.135 84.1251 142.47 94.764 127.469 98.1559C110.879 101.901 77.5217 108.699 70.8636 120.177C75.0277 109.612 87.4758 81.9767 87.4758 81.9767C96.4219 67.2617 136.032 56.7772 163.68 49.1401C170.125 47.3596 177.82 45.1744 185.92 42.8274C168.851 31.183 148.661 24.9689 127.998 25.0001Z" fill="#B2001D"/>
<path d="M71.4381 120.435C69.5855 129.184 97.3154 137.657 122.318 145.669C136.78 149.465 150.76 154.941 163.979 161.99C169.439 159.744 173.821 155.434 176.197 149.973C178.969 138.886 154.047 124.709 137.425 118.484C126.275 114.221 115.447 109.139 105.027 103.28C73.298 111.791 71.4381 120.405 71.4381 120.405V120.435Z" fill="#590815"/>
</svg>
