<svg fill="none" height="256" viewBox="0 0 256 256" width="256" xmlns="http://www.w3.org/2000/svg" xmlns:xlink="http://www.w3.org/1999/xlink">
<path d="m196 0h-136c-33.1371 0-60 26.8629-60 60v136c0 33.137 26.8629 60 60 60h136c33.137 0 60-26.863 60-60v-136c0-33.1371-26.863-60-60-60z" fill="#f4f2ed"/>
<path d="m158 119.93c-.731.248-1.461.496-2.07.869l-41.163-83.8057c4.384-.6208 8.89-.9933 13.396-.9933h.122zm-6.576 3.849-68.8072-76.1083c-4.2623 2.359-8.2812 5.0904-12.1782 8.0702l79.4024 69.6521c.487-.621.974-1.118 1.583-1.614zm-4.628 5.959-99.7396-47.4276c-2.4356 4.2213-4.6277 8.8151-6.3326 13.4089l105.2202 36.1297c.243-.745.487-1.49.852-2.111zm-1.948 8.443c0-.373.121-.745.121-1.118l-109.969-6.207c.1218 4.966.6089 9.808 1.5832 14.65l108.3858-6.208c-.121-.372-.121-.745-.121-1.117zm1.096 6.332-96.3301 33.025c2.5574 3.973 5.4802 7.698 8.6465 11.175l88.6576-42.214c-.487-.62-.731-1.365-.974-1.986zm3.897 6.456-66.0063 57.981c3.7752 1.987 7.794 3.725 11.9346 5.215l55.6547-61.582c-.609-.497-1.096-.993-1.583-1.614zm6.089 4.594-31.542 64.189c1.218 0 2.558.248 3.775.248 2.558 0 4.993-.124 7.429-.372l22.408-63.196c-.731-.373-1.34-.621-2.07-.869z" fill="#00b7c9"/>
<path d="m164.761 157.955c.367 0 .735-.125 1.103-.125l3.187 53.558c-2.819 1.37-5.761 2.616-8.703 3.612l3.31-57.17c.367 0 .735.125 1.103.125zm13.114-4.982 26.598 29.27c1.348-1.869 2.574-3.737 3.799-5.605l-28.803-25.16c-.49.498-.981.997-1.594 1.495zm6.619-15.569c0 .373.123.747.123 1.121 0 .373-.123.747-.123 1.121l36.771 2.117c.367-2.117.612-4.235.735-6.477zm-5.025-11.833 36.035-31.5116c-1.103-2.6156-2.206-5.1066-3.555-7.5977l-34.196 37.6153c.735.498 1.226.996 1.716 1.494zm-15.811-6.476c.367 0 .735-.125 1.103-.125.367 0 .735.125 1.103.125l4.29-73.4865c-3.555-1.7438-7.354-3.363-11.154-4.6085zm7.599 37.614 15.443 43.718c2.084-1.619 4.045-3.363 6.006-5.106l-19.366-39.359c-.612.249-1.348.498-2.083.747zm11.276-9.839 32.971 15.693c.858-1.992 1.593-3.985 2.206-5.978l-34.319-11.708c-.245.623-.49 1.37-.858 1.993zm.858-14.697 38.486-13.203c-.245-2.367-.612-4.733-1.103-7.1l-38.241 18.185c.368.623.613 1.37.858 2.118zm16.056-64.1451c-2.206-2.491-4.657-4.9821-7.108-7.224l-21.082 59.4111c.735.25 1.471.499 2.083.872z" fill="#1e384b"/>
</svg>