<svg fill="none" height="256" viewBox="0 0 256 256" width="256" xmlns="http://www.w3.org/2000/svg" xmlns:xlink="http://www.w3.org/1999/xlink">
<g clip-path="url(#a)">
<path d="m196 0h-136c-33.1371 0-60 26.8629-60 60v136c0 33.137 26.8629 60 60 60h136c33.137 0 60-26.863 60-60v-136c0-33.1371-26.863-60-60-60z" fill="#242938"/>
<g clip-path="url(#b)">
<path d="m87.8642 115.187c-14.7392-10.818-30.9524-22.7855-39.5691-29.1751l-6.0469-4.4287c-4.1572-3.1102-7.5586-8.5532-.3779-12.3057 3.099-1.6228 55.6689-28.6008 75.0567-38.6415 3.344-1.7269 7.137-2.636 10.998-2.636s7.654.9091 10.997 2.636l37.151 19.1686c.658.3462 1.204.8403 1.583 1.4333.38.593.579 1.2643.579 1.9474 0 .6832-.199 1.3545-.579 1.9475-.379.5929-.925 1.087-1.583 1.4332l-86.9238 44.592c-1.3412.691-2.4749 1.662-3.3036 2.832-.8287 1.169-1.3276 2.501-1.454 3.881s.1236 2.767.7285 4.041c.6048 1.274 1.5465 2.398 2.7441 3.275z" fill="#edb716"/>
<g fill="#327d8c">
<path d="m109.595 146.797-35.4121 48.242c-1.2199 1.684-3.1171 2.882-5.2983 3.348s-4.4792.163-6.4175-.846l-23.4694-12.103c-3.3215-1.715-6.0838-4.177-8.013-7.143-1.9292-2.965-2.9581-6.33-2.9847-9.76v-80.6637c-.003-3.0612.7953-6.0805 2.331-8.8162s3.766-5.1117 6.5125-6.9379c-6.3114 4.3273-3.7792 9.1955.378 12.3058l70.5975 52.029c1.675 1.222 2.784 2.956 3.112 4.867s-.148 3.863-1.336 5.478z"/>
<path d="m168.023 140.948c14.928 10.853 30.952 22.786 39.569 29.041l6.047 4.428c4.157 3.111 7.559 8.554.378 12.306-3.099 1.657-55.669 28.601-75.057 38.642-3.351 1.726-7.15 2.635-11.016 2.635-3.867 0-7.666-.909-11.017-2.635l-37.1127-19.169c-.6584-.346-1.2042-.84-1.5834-1.433-.3793-.593-.5788-1.265-.5788-1.948s.1995-1.354.5788-1.947c.3792-.593.925-1.087 1.5834-1.433l86.9237-44.592c1.312-.696 2.419-1.663 3.228-2.82s1.296-2.471 1.422-3.831-.114-2.727-.699-3.987c-.586-1.26-1.5-2.377-2.666-3.257z"/>
<path d="m146.291 109.339 35.412-48.243c1.226-1.6767 3.123-2.8701 5.302-3.3353s4.474-.1669 6.414.8335l23.545 12.103c3.321 1.7187 6.085 4.181 8.02 7.1447 1.935 2.9638 2.974 6.3269 3.016 9.7588v80.6633c.003 3.066-.796 6.09-2.331 8.832-1.535 2.741-3.766 5.123-6.513 6.956 6.311-4.361 3.779-9.229-.378-12.306l-70.748-52.062c-1.662-1.231-2.758-2.967-3.079-4.876-.321-1.908.156-3.856 1.34-5.469z"/>
</g></g></g>
</svg>