<svg class="logo" width="256" height="256" viewBox="0 0 256 256" fill="none" xmlns="http://www.w3.org/2000/svg">
  <g fill="#80e9ac" id="g1" transform="matrix(4.2666666,0,0,4.2666339,2.6854283e-5,-6.6249493e-6)">
    <path d="m 14.062264,2.9155273e-4 c -5.9088103,0 -10.9575303,3.64883004727 -13.0389903,8.81222004727 0.11733,0.004 0.22272,0.009 0.38827,0.009 H 14.119564 c 1.14693,0.0504 2.26825,0.35797 3.28035,0.89996 l 8.08004,4.7497004 c 0.16384,0.0841 0.3008,0.21162 0.3968,0.36863 0.096,0.15701 0.14677,0.33792 0.14677,0.52185 0,0.18389 -0.0508,0.36437 -0.14677,0.52138 -0.096,0.15701 -0.23296,0.28458 -0.3968,0.36863 l -3.84019,2.25997 c -0.46383,0.23936 -0.97822,0.36437 -1.50012,0.36437 -0.5219,0 -1.03638,-0.12501 -1.50008,-0.36437 l -2.99974,-1.74998 c -1.01573,-0.5419 -2.13987,-0.84935 -3.28995,-0.89996 H 1.4115437 c -0.49416999,0 -0.74142999,-8e-5 -0.93017999,0.096 -0.16598,0.0845 -0.30081,0.2193 -0.38529,0.38528 C 7.370605e-5,16.531552 7.370605e-5,16.779012 7.370605e-5,17.273132 v 7.76626 c 0,0.4942 -4e-5,0.74149 0.09600000395,0.93016 0.0845,0.16597 0.21931,0.3008 0.38529,0.38528 0.18858,0.096 0.43601,0.096 0.93017999,0.096 H 12.349874 c 1.15076,-0.0456 2.27602,-0.3537 3.28995,-0.89995 L 42.639744,9.6910116 c 1.01018,-0.54655 2.13254,-0.85438 3.28036,-0.89995 h 12.66821 c 0.16086,0 0.2624,-0.004 0.37718,-0.009 C 56.876614,3.6343716 51.834884,1.5527344e-6 45.937424,1.5527344e-6 Z M 47.649904,15.879832 c -1.15021,0.0508 -2.27427,0.35796 -3.28996,0.89995 l -27.00039,15.86994 c -1.0121,0.54198 -2.133,0.84943 -3.27989,0.89995 H 1.4114537 c -0.49416999,0 -0.74141999,4e-5 -0.93017999,0.096 -0.16597,0.0845 -0.3008,0.2193 -0.38528,0.38527 C -6.293945e-6,34.219952 -6.293945e-6,34.466902 -6.293945e-6,34.961102 v 7.76627 c 0,0.49411 -4e-5,0.74136 0.096000003945,0.93016 0.0845,0.16597 0.21931,0.30079 0.38528,0.38527 0.18859,0.096 0.43601,0.096 0.93017999,0.096 H 12.349784 c 1.15008,-0.0508 2.27423,-0.35797 3.28996,-0.89991 l 26.99992,-15.86943 c 1.01201,-0.54207 2.13334,-0.84952 3.28035,-0.89991 h 12.66822 c 0.49408,0 0.74091,-4.2e-4 0.92971,-0.0964 0.16597,-0.0845 0.30123,-0.2193 0.38571,-0.38527 0.096,-0.18859 0.096,-0.43596 0.096,-0.93016 v -7.76631 c 0,-0.49408 -5e-5,-0.7409 -0.096,-0.9297 -0.0845,-0.16597 -0.21974,-0.30122 -0.38571,-0.3857 -0.18859,-0.096 -0.43563,-0.096 -0.92971,-0.096 z m 0,17.67991 c -1.15021,0.0508 -2.27427,0.35796 -3.28996,0.89995 l -27.00039,15.85987 c -1.01031,0.54659 -2.13219,0.85434 -3.27989,0.89995 H 1.4114537 c -0.15957,0 -0.25941,0.004 -0.37376,0.009 2.09119,5.1427 7.13091,8.77195 13.0247803,8.77195 h 31.87512 c 5.90505,0 10.9519,-3.6435 13.03583,-8.80173 -0.11648,-0.004 -0.22101,-0.009 -0.38485,-0.009 h -12.70853 c -1.14779,-0.0456 -2.26967,-0.35327 -3.27985,-0.89991 l -8.08003,-4.73963 c -0.1664,-0.0828 -0.30635,-0.21077 -0.40406,-0.36906 -0.0977,-0.15787 -0.14976,-0.34048 -0.14976,-0.52641 0,-0.18603 0.0521,-0.36778 0.14976,-0.52595 0.0977,-0.15829 0.23766,-0.28586 0.40406,-0.36906 l 3.84018,-2.24986 c 0.46371,-0.23935 0.97776,-0.36436 1.49966,-0.36436 0.5219,0 1.03629,0.12501 1.50008,0.36436 l 3.0002,1.73996 c 1.0139,0.54638 2.13906,0.85413 3.28996,0.89991 h 10.93833 c 0.49408,0 0.74091,9e-5 0.92971,-0.096 0.16597,-0.0845 0.30123,-0.2193 0.38571,-0.38527 0.096,-0.18858 0.096,-0.43605 0.096,-0.93016 v -7.76631 c 0,-0.4942 -4e-5,-0.74102 -0.096,-0.92969 -0.0845,-0.16597 -0.21974,-0.30122 -0.38571,-0.3857 -0.18859,-0.096 -0.43563,-0.096 -0.92971,-0.096 z" id="path1"/>
  </g>
</svg>
