<svg width="256" height="256" viewBox="0 0 256 256" fill="none" xmlns="http://www.w3.org/2000/svg">
<rect width="256" height="256" rx="60" fill="#242938"/>
<path d="M143.375 124.013H105.077V142.384H142.454C144.664 142.384 146.688 141.466 148.345 139.996C149.818 138.526 150.739 136.322 150.739 133.566C150.792 131.201 150.082 128.881 148.713 126.952C147.239 125.117 145.583 124.013 143.375 124.013ZM144.664 101.787C146.32 100.683 147.057 98.2954 147.057 95.1725C147.057 92.4164 146.32 90.397 145.031 89.111C143.741 88.0076 142.084 87.2742 140.244 87.2742H105.077V103.806H139.507C141.349 103.806 143.191 102.888 144.664 101.787Z" fill="#09B3AF"/>
<path d="M200.82 34H56.2852C51.6838 34 48 37.6737 48 42.0826V186.472C48 190.881 51.6838 193.637 56.101 193.637H77.4585V222.477L103.972 193.821H200.82C205.239 193.821 208 191.065 208 186.472V42.2667C208 37.8579 205.237 34.1842 200.636 34.1842L200.82 34ZM176.515 151.017C174.674 154.324 171.912 157.078 168.599 159.101C165.099 161.305 161.233 163.326 156.814 164.243C152.395 165.347 147.609 166.264 142.638 166.264H77.4585V63.3915H151.476C155.158 63.3915 158.287 64.1283 161.233 65.781C163.996 67.2495 166.574 69.2705 168.599 71.6583C172.722 76.6736 174.939 82.9855 174.858 89.4777C174.858 94.2533 173.568 98.8463 171.176 103.255C168.691 107.692 164.807 111.18 160.129 113.174C166.02 114.829 170.623 117.768 174.123 121.992C177.436 126.401 179.092 132.096 179.092 139.261C179.092 143.854 178.171 147.712 176.331 151.017H176.515Z" fill="#09B3AF"/>
</svg>
