<svg width="256" height="256" viewBox="0 0 256 256" fill="none" xmlns="http://www.w3.org/2000/svg" id="stylus">
<style>
#stylus {
    rect {fill: #242938}
    path {fill: #F4F2ED}
    
    @media (prefers-color-scheme: light) {
        rect {fill: #F4F2ED}
        path {fill: #242938}
    }
}
</style>
<rect width="256" height="256" rx="60" fill="#242938"/>
<path d="M53.1305 110.01C55.3961 110.01 57.2289 110.32 58.6211 110.94C60.0133 111.559 60.7086 112.33 60.7086 113.26C60.7086 114.395 60.4226 115.683 59.857 117.126C59.2891 118.57 58.7476 119.754 58.2328 120.682C58.0258 120.889 57.7695 120.914 57.4601 120.76C57.1508 120.605 56.9953 120.323 56.9953 119.909C57.3055 119.19 57.4601 118.158 57.4601 116.816C57.4601 115.373 57.0734 114.186 56.3 113.259C55.5273 112.331 54.4687 111.868 53.1305 111.868C51.3758 111.868 49.9601 112.409 48.8773 113.491C47.7953 114.573 47.2539 116.096 47.2539 118.052C47.2539 119.703 47.6906 121.276 48.568 122.769C49.4731 124.311 50.4537 125.809 51.5062 127.255C52.6124 128.787 53.6197 130.389 54.5219 132.049C55.45 133.751 55.9141 135.684 55.9141 137.848C55.9141 141.559 54.4187 144.445 51.4297 146.506C48.4391 148.571 44.5211 149.6 39.6773 149.6C36.1719 149.6 33.4141 149.034 31.4039 147.899C29.3922 146.766 28.3883 145.53 28.3883 144.188C28.3883 143.778 28.5422 143.209 28.8516 142.487C29.1609 141.767 29.5719 140.995 30.0898 140.166C30.622 139.318 31.1897 138.492 31.7914 137.691C32.4094 136.868 33.0781 136.199 33.8008 135.684C34.1101 135.477 34.3937 135.527 34.6523 135.837C34.9086 136.146 34.9351 136.455 34.7305 136.765C34.1109 137.382 33.6484 138.028 33.3375 138.698C33.0281 139.368 32.8734 140.272 32.8734 141.404C32.8734 143.259 33.4922 144.782 34.7305 145.964C35.9672 147.152 37.5641 147.744 39.5234 147.744C42.2031 147.744 44.2906 146.996 45.7867 145.502C47.2805 144.009 48.0289 142.177 48.0289 140.011C48.0289 138.053 47.5898 136.223 46.7141 134.522C45.8404 132.827 44.8859 131.176 43.8539 129.573C42.8303 127.99 41.8755 126.365 40.9922 124.7C40.1233 123.084 39.6716 121.277 39.6781 119.442C39.6781 116.764 40.8109 114.52 43.0805 112.717C45.3453 110.917 48.6961 110.01 53.1305 110.01ZM95.3461 110.786C95.8617 110.992 96.068 111.277 95.9664 111.637C95.8609 111.999 95.3984 112.281 94.5734 112.488C93.0265 112.488 91.2492 112.541 89.2391 112.641C87.2273 112.745 85.0867 112.901 82.8211 113.105C80.7562 118.159 79.0562 123.079 77.7172 127.874C76.3758 132.667 75.7078 136.56 75.7078 139.55C75.7078 143.054 77.0453 144.805 79.7273 144.805C82.407 144.805 85.3969 142.488 88.6984 137.849C89.0062 137.642 89.2898 137.642 89.5469 137.849C89.8039 138.055 89.8812 138.415 89.7805 138.931C88.0329 141.811 85.7801 144.352 83.1305 146.432C80.4484 148.546 77.8195 149.601 75.2437 149.601C72.5609 149.601 70.5773 148.96 69.2898 147.668C68 146.379 67.3562 144.602 67.3562 142.332C67.3562 139.345 68.0766 135.219 69.5203 129.961C70.9641 124.703 72.8195 119.345 75.0891 113.878C72.4062 114.188 69.9328 114.604 67.6664 115.116C67.1492 115.016 67.0195 114.757 67.2789 114.343C67.5351 113.933 67.9992 113.492 68.6711 113.029C69.3391 112.563 70.1398 112.153 71.0672 111.791C71.9945 111.431 72.8711 111.25 73.6961 111.25H74.9336C75.3453 111.25 75.7586 111.199 76.1711 111.096C77.4796 108.17 78.8718 105.282 80.3461 102.435C81.789 99.6508 83.2312 97.1273 84.6765 94.857C85.2937 94.1367 86.1453 93.4922 87.2273 92.9234C88.3094 92.3594 89.3664 91.9195 90.3969 91.6094C91.4265 91.3 92.2773 91.1211 92.95 91.068C93.6187 91.018 93.9008 91.1992 93.8015 91.6094C92.0461 94.2922 90.3219 97.2805 88.6195 100.579C86.8739 103.974 85.2492 107.43 83.7484 110.94C85.7062 110.838 87.6922 110.786 89.7015 110.786H95.3461Z" fill="#F4F2ED"/>
<polygon points="189.171 33.4125 190.717 33.4125 191.978 33.8 192.96 34.5727 193.937 35.3453 194.608 36.3774 194.97 37.6664 195.33 38.9547 195.38 40.4242 195.124 42.0734 194.866 43.7242 194.274 45.3734 193.346 47.0219 193.139 47.2281 192.882 47.2281 192.573 47.0219 192.264 46.8148 192.057 46.5586 191.955 46.2484 192.16 45.0109 191.723 43.9813 190.64 43.1555 189.558 42.332 187.88 41.918 185.614 41.918 181.386 41.918 177.134 43.4906 172.856 46.6352 168.577 49.7813 164.427 53.932 160.408 59.0836 156.387 64.2399 152.623 70.1695 149.119 76.8688 145.615 83.5633 142.567 90.4863 139.994 97.5906 137.417 104.704 135.379 111.766 133.886 118.777 132.391 125.789 131.645 132.179 131.645 137.954 131.645 141.045 132.52 142.592 134.274 142.592 135.511 142.592 136.722 142.077 137.907 141.045 139.091 140.015 140.46 138.47 142.006 136.405 142.315 136.202 142.598 136.227 142.855 136.484 143.112 136.744 143.19 137.077 143.089 137.488 141.024 140.581 138.604 143.159 135.82 145.22 133.037 147.284 130.509 148.313 128.242 148.313 126.283 148.313 124.918 147.746 124.145 146.611 123.373 145.478 122.985 144.037 122.985 142.283 122.985 137.437 124.014 131.378 126.079 124.113 128.14 116.844 130.895 109.164 134.352 101.07 137.805 92.9773 141.8 84.9102 146.337 76.8688 150.873 68.8274 155.59 61.5859 160.487 55.1422 165.383 48.6992 170.308 43.4664 175.255 39.4445 180.201 35.4219 184.84 33.4125 189.172 33.4125 189.171 33.4125 51.8672 223.438 50.3203 223.438 49.0586 223.051 48.0773 222.278 47.0992 221.505 46.4289 220.473 46.0672 219.184 45.7078 217.895 45.6562 216.427 45.9125 214.777 46.1719 213.127 46.7633 211.478 47.6906 209.829 47.8984 209.621 48.1547 209.621 48.4641 209.829 48.7727 210.034 48.9797 210.292 49.082 210.602 48.8773 211.84 49.3141 212.87 50.3969 213.695 51.4789 214.518 53.1555 214.931 55.4227 214.931 59.6508 214.931 63.9039 213.359 68.1805 210.214 72.4594 207.071 76.6101 202.921 80.6305 197.768 84.6508 192.612 88.4148 186.684 91.9195 179.983 95.4224 173.288 98.4702 166.365 101.042 159.26 103.62 152.147 105.658 145.085 107.152 138.074 108.646 131.063 109.392 124.672 109.392 118.898 109.392 115.805 108.517 114.259 106.763 114.259 105.526 114.259 104.315 114.773 103.13 115.805 101.946 116.834 100.577 118.383 99.0312 120.445 98.7226 120.648 98.4398 120.623 98.182 120.367 97.9258 120.108 97.8484 119.773 97.9492 119.36 100.013 116.27 102.434 113.69 105.218 111.628 108.001 109.567 110.528 108.538 112.795 108.538 114.755 108.538 116.12 109.102 116.892 110.237 117.666 111.372 118.053 112.815 118.053 114.569 118.053 119.414 117.023 125.47 114.959 132.739 112.898 140.008 110.142 147.687 106.686 155.781 103.233 163.873 99.2375 171.941 94.7016 179.982 90.1648 188.023 85.4484 195.265 80.5508 201.709 75.6555 208.152 70.7305 213.385 65.782 217.405 60.8359 221.427 56.1969 223.438 51.8672 223.438" fill="#B3D107"/>
<path d="M156.331 149.6C152.001 149.6 149.836 147.229 149.836 142.487C149.836 140.838 150.014 138.93 150.377 136.766C150.737 134.599 151.306 132.36 152.078 130.039C152.852 127.718 153.752 125.375 154.784 123.001C155.815 120.627 157.057 118.351 158.495 116.198C157.385 116.904 156.302 117.652 155.249 118.441C154.265 119.172 153.335 119.973 152.465 120.837C152.155 121.046 151.871 120.968 151.614 120.605C151.356 120.245 151.33 119.91 151.537 119.601C153.289 117.744 155.79 115.839 159.037 113.877C162.284 111.922 165.402 110.373 168.394 109.239C168.909 109.239 169.295 109.37 169.553 109.627C169.809 109.886 169.837 110.22 169.631 110.63C166.346 114.936 163.667 119.671 161.666 124.703C159.656 129.756 158.651 134.655 158.651 139.395C158.651 142.387 159.58 143.879 161.435 143.879C162.773 143.879 164.423 142.977 166.383 141.173C168.341 139.369 170.405 136.998 172.57 134.059C174.734 131.121 176.923 127.796 179.142 124.086C181.339 120.411 183.377 116.644 185.252 112.795C185.559 112.178 186.463 111.559 187.956 110.94C189.451 110.32 190.972 110.01 192.519 110.01C194.066 110.01 194.529 110.426 193.911 111.249C192.578 113.713 191.314 116.214 190.122 118.749C189.073 120.982 188.169 123.281 187.416 125.63C186.698 127.879 186.155 130.179 185.792 132.511C185.429 134.832 185.251 137.382 185.251 140.165C185.251 143.467 186.126 145.113 187.88 145.113C189.632 145.113 191.591 143.568 193.756 140.474C194.066 140.271 194.376 140.271 194.684 140.474C194.994 140.684 195.095 140.994 194.994 141.403C193.24 144.084 191.306 146.12 189.195 147.513C187.08 148.903 185.148 149.598 183.396 149.598C179.065 149.598 176.901 147.073 176.901 142.022C176.901 136.764 177.827 131.559 179.684 126.402C175.765 133.515 171.642 139.16 167.313 143.336C162.981 147.514 159.32 149.6 156.331 149.6ZM220.196 110.01C222.462 110.01 224.295 110.32 225.687 110.94C227.079 111.559 227.774 112.33 227.774 113.26C227.774 114.395 227.489 115.683 226.924 117.126C226.355 118.57 225.815 119.754 225.299 120.682C225.091 120.889 224.836 120.914 224.526 120.76C224.217 120.605 224.063 120.323 224.063 119.909C224.372 119.19 224.527 118.158 224.527 116.816C224.527 115.373 224.141 114.186 223.367 113.259C222.594 112.331 221.536 111.868 220.197 111.868C218.444 111.868 217.027 112.409 215.945 113.491C214.861 114.574 214.321 116.096 214.321 118.052C214.321 119.703 214.758 121.276 215.635 122.769C216.54 124.311 217.521 125.809 218.573 127.255C219.68 128.787 220.687 130.389 221.589 132.049C222.517 133.751 222.981 135.684 222.981 137.848C222.981 141.559 221.486 144.445 218.497 146.506C215.505 148.571 211.588 149.6 206.744 149.6C203.237 149.6 200.48 149.034 198.47 147.899C196.459 146.766 195.455 145.53 195.455 144.188C195.455 143.778 195.609 143.209 195.918 142.487C196.227 141.767 196.637 140.995 197.155 140.166C197.687 139.318 198.255 138.492 198.856 137.691C199.474 136.868 200.145 136.199 200.867 135.684C201.177 135.477 201.459 135.527 201.717 135.837C201.973 136.146 202.001 136.455 201.795 136.765C201.177 137.382 200.713 138.028 200.403 138.698C200.094 139.368 199.939 140.272 199.939 141.404C199.939 143.259 200.558 144.782 201.795 145.964C203.033 147.152 204.629 147.744 206.589 147.744C209.268 147.744 211.356 146.996 212.853 145.502C214.345 144.009 215.095 142.177 215.095 140.011C215.095 138.053 214.655 136.223 213.78 134.522C212.907 132.827 211.952 131.176 210.92 129.573C209.896 127.99 208.942 126.364 208.058 124.7C207.189 123.084 206.737 121.277 206.744 119.442C206.744 116.764 207.877 114.52 210.145 112.717C212.411 110.917 215.761 110.01 220.196 110.01Z" fill="#F4F2ED"/>
</svg>
