<svg width="256" height="256" viewBox="0 0 256 256" fill="none" xmlns="http://www.w3.org/2000/svg">
<path d="M196 0H60C26.8629 0 0 26.8629 0 60V196C0 229.137 26.8629 256 60 256H196C229.137 256 256 229.137 256 196V60C256 26.8629 229.137 0 196 0Z" fill="#F4F2ED"/>
<path fill-rule="evenodd" clip-rule="evenodd" d="M224.783 155.487L185.579 210.298C179.87 218.291 168.737 221.811 154.558 220.67C134.86 218.957 108.692 208.489 83.6663 190.507C75.5057 184.713 67.7961 178.31 60.604 171.35C47.3432 158.471 37.5966 145.072 32.3771 133.125C26.6684 119.994 26.4796 108.386 32.1883 100.393L71.4853 45.5817C77.1961 37.5891 88.2339 34.0689 102.508 35.2098C122.206 36.8278 148.279 47.3906 173.398 65.2801C198.425 83.265 216.792 104.675 224.594 122.755C225.268 124.306 225.864 125.835 226.384 127.341C230.264 138.578 229.817 148.438 224.783 155.487Z" fill="url(#paint0_linear_220_86)"/>
<path fill-rule="evenodd" clip-rule="evenodd" d="M218.503 125.418C210.985 108.195 193.38 87.9258 169.402 70.7976C145.518 53.6694 120.683 43.4883 101.937 41.9657C90.5176 41.0136 81.4774 43.1087 76.9117 49.4833L76.7188 49.8629C72.4373 56.2395 73.3894 65.2797 77.8618 75.5562C85.3794 92.8753 102.983 113.142 126.869 130.27C150.752 147.399 175.588 157.582 194.332 159.104C205.561 159.959 214.412 157.961 219.074 151.966L219.36 151.491C223.928 145.21 222.975 135.886 218.503 125.418ZM183.39 125.8C181.297 128.748 177.015 129.606 171.782 129.129C162.36 128.368 149.99 123.23 138 114.667C126.01 106.102 117.161 96.0138 113.45 87.3553C111.357 82.5033 110.786 78.2218 112.879 75.27C114.975 72.3202 119.256 71.4635 124.583 71.8452C133.908 72.7019 146.375 77.7447 158.269 86.3098C170.259 94.8729 179.108 105.054 182.819 113.715C185.008 118.567 185.578 122.848 183.39 125.8Z" fill="white"/>
<defs>
<linearGradient id="paint0_linear_220_86" x1="96.2277" y1="32.7533" x2="160.749" y2="223.145" gradientUnits="userSpaceOnUse">
<stop stop-color="#27B0E6"/>
<stop offset="0.107" stop-color="#49A1DB"/>
<stop offset="0.288" stop-color="#7D8ACA"/>
<stop offset="0.445" stop-color="#A279BD"/>
<stop offset="0.572" stop-color="#BA6FB6"/>
<stop offset="0.651" stop-color="#C26BB3"/>
<stop offset="0.678" stop-color="#D563AD"/>
<stop offset="0.715" stop-color="#E65BA7"/>
<stop offset="0.76" stop-color="#F156A3"/>
<stop offset="0.824" stop-color="#F853A1"/>
<stop offset="1" stop-color="#FA52A0"/>
</linearGradient>
</defs>
</svg>
