<svg width="256" height="256" viewBox="0 0 256 256" fill="none" xmlns="http://www.w3.org/2000/svg">
<path d="M196 0H60C26.8629 0 0 26.8629 0 60V196C0 229.137 26.8629 256 60 256H196C229.137 256 256 229.137 256 196V60C256 26.8629 229.137 0 196 0Z" fill="#242938"/>
<path fill-rule="evenodd" clip-rule="evenodd" d="M155.044 72.7951L172.185 55H33V72.7951H155.044Z" fill="#E2E8F0"/>
<path d="M153.749 125.413L220.241 57.0021L196.008 57.002L140.188 113.921L153.749 125.413Z" fill="#E2E8F0"/>
<path d="M205.202 151.329C205.202 168.798 191.04 182.961 173.57 182.961C159.46 182.961 147.495 173.719 143.424 160.944L140.932 153.123L126.683 167.372L127.985 170.468C135.46 188.254 153.049 200.758 173.57 200.758C200.869 200.758 223 178.628 223 151.329C223 133.25 213.134 117.597 198.776 108.995L195.408 106.977L182.361 120.191L188.313 123.334C198.368 128.642 205.202 139.191 205.202 151.329Z" fill="#E2E8F0"/>
<path fill-rule="evenodd" clip-rule="evenodd" d="M97.8342 196.56L97.8343 87.9897H80.0391V196.56H97.8342Z" fill="#E2E8F0"/>
</svg>
