<svg width="256" height="256" viewBox="0 0 256 256" fill="none" xmlns="http://www.w3.org/2000/svg">
<rect width="256" height="256" fill="#242938" rx="60"/>
<path opacity="0.8" d="M194.483 69.9281L186.226 128.043L128.112 119.786L136.368 61.6714L194.483 69.9281Z" fill="#A295AE"/>
<path opacity="0.8" d="M61.6873 186.14L69.944 128.026L128.058 136.283L119.802 194.397L61.6873 186.14Z" fill="#5D6F6D"/>
<path opacity="0.8" d="M69.944 61.7486L128.058 70.0053L119.802 128.12L61.6873 119.863L69.944 61.7486Z" fill="#8CD592"/>
<path opacity="0.8" d="M186.158 194.404L128.043 186.147L136.3 128.033L194.415 136.289L186.158 194.404Z" fill="#665E74"/>
<path opacity="0.8" d="M122.257 216.029L87.0022 169.097L133.934 133.842L169.188 180.774L122.257 216.029Z" fill="#3C3647"/>
<path opacity="0.8" d="M216 133.753L169.068 169.008L133.814 122.077L180.745 86.8219L216 133.753Z" fill="#837193"/>
<path opacity="0.8" d="M133.848 40L169.103 86.9315L122.171 122.186L86.9167 75.2547L133.848 40Z" fill="#A2F4AC"/>
<path opacity="0.8" d="M40 122.234L86.9315 86.9796L122.186 133.911L75.2547 169.166L40 122.234Z" fill="#7EA685"/>
<path d="M128 105.699L150.316 128.014L128 150.33L105.684 128.014L128 105.699Z" fill="#3C3647"/>
</svg>