<svg width="256" height="256" viewBox="0 0 256 256" fill="none" xmlns="http://www.w3.org/2000/svg" id="tailscale">
<style>
#tailscale {
    rect {fill: #242938}
    path[fill="#F4F4F4"] {fill: #F4F4F4}

    @media (prefers-color-scheme: light) {
        rect {fill: #F4F2ED}
        path[fill="#F4F4F4"] {fill: #141414}
    }
}
</style>
<rect width="256" height="256" fill="#242938" rx="60"/>
<path d="M62.8753 149.377C74.9568 149.377 84.7507 139.583 84.7507 127.502C84.7507 115.42 74.9568 105.626 62.8753 105.626C50.7939 105.626 41 115.42 41 127.502C41 139.583 50.7939 149.377 62.8753 149.377Z" fill="#F4F4F4"/>
<path d="M128.5 149.377C140.582 149.377 150.376 139.583 150.376 127.502C150.376 115.42 140.582 105.626 128.5 105.626C116.419 105.626 106.625 115.42 106.625 127.502C106.625 139.583 116.419 149.377 128.5 149.377Z" fill="#F4F4F4"/>
<path opacity="0.2" d="M62.8753 215.003C74.9568 215.003 84.7507 205.209 84.7507 193.127C84.7507 181.046 74.9568 171.252 62.8753 171.252C50.7939 171.252 41 181.046 41 193.127C41 205.209 50.7939 215.003 62.8753 215.003Z" fill="#F4F4F4"/>
<path opacity="0.2" d="M194.125 215.003C206.207 215.003 216.001 205.209 216.001 193.127C216.001 181.046 206.207 171.252 194.125 171.252C182.044 171.252 172.25 181.046 172.25 193.127C172.25 205.209 182.044 215.003 194.125 215.003Z" fill="#F4F4F4"/>
<path d="M128.5 215.003C140.582 215.003 150.376 205.209 150.376 193.127C150.376 181.046 140.582 171.252 128.5 171.252C116.419 171.252 106.625 181.046 106.625 193.127C106.625 205.209 116.419 215.003 128.5 215.003Z" fill="#F4F4F4"/>
<path d="M194.125 149.377C206.207 149.377 216.001 139.583 216.001 127.502C216.001 115.42 206.207 105.626 194.125 105.626C182.044 105.626 172.25 115.42 172.25 127.502C172.25 139.583 182.044 149.377 194.125 149.377Z" fill="#F4F4F4"/>
<path opacity="0.2" d="M62.8753 83.7507C74.9568 83.7507 84.7507 73.9568 84.7507 61.8753C84.7507 49.7939 74.9568 40 62.8753 40C50.7939 40 41 49.7939 41 61.8753C41 73.9568 50.7939 83.7507 62.8753 83.7507Z" fill="#F4F4F4"/>
<path opacity="0.2" d="M128.5 83.7507C140.582 83.7507 150.376 73.9568 150.376 61.8753C150.376 49.7939 140.582 40 128.5 40C116.419 40 106.625 49.7939 106.625 61.8753C106.625 73.9568 116.419 83.7507 128.5 83.7507Z" fill="#F4F4F4"/>
<path opacity="0.2" d="M194.125 83.7507C206.207 83.7507 216.001 73.9568 216.001 61.8753C216.001 49.7939 206.207 40 194.125 40C182.044 40 172.25 49.7939 172.25 61.8753C172.25 73.9568 182.044 83.7507 194.125 83.7507Z" fill="#F4F4F4"/>
</svg>
