<svg width="256" height="256" viewBox="0 0 256 256" fill="none" xmlns="http://www.w3.org/2000/svg">
<rect width="256" height="256" rx="60" fill="#56347C"/>
<path d="M209 121.213V153.689C209 154.684 208.293 154.945 207.423 154.267L189.792 140.546C188.923 139.869 188.216 138.518 188.216 137.524V133.435L182.706 129.224C176.797 124.708 172.065 115.539 172.065 108.828C172.065 102.119 176.829 100.37 182.706 104.925L188.216 109.136V105.048C188.216 104.053 188.923 103.793 189.792 104.469L207.423 118.191C208.295 118.866 209 120.219 209 121.213ZM183.021 110.888C179.911 108.477 177.39 109.403 177.39 112.954C177.39 116.506 179.911 121.338 183.021 123.749L188.216 127.716V114.854L183.021 110.888Z" fill="white"/>
<path d="M207.083 192.653C207.119 192.626 207.156 192.6 207.192 192.573C207.307 192.482 207.417 192.385 207.514 192.281C207.527 192.268 207.541 192.257 207.551 192.245C207.655 192.129 207.747 192.002 207.829 191.873C207.853 191.837 207.871 191.799 207.892 191.761C207.955 191.654 208.007 191.54 208.051 191.425C208.064 191.394 208.077 191.365 208.089 191.332C208.138 191.19 208.175 191.041 208.197 190.89C208.203 190.854 208.203 190.816 208.207 190.778C208.213 190.705 208.226 190.633 208.227 190.56L208.249 189.319L162.919 154.388L163.107 49.0496L161.832 48.145C161.821 48.1369 161.81 48.1333 161.798 48.1251C161.707 48.062 161.606 48.0123 161.509 47.9591C161.443 47.9239 161.382 47.8833 161.315 47.8534C161.231 47.8165 161.141 47.793 161.052 47.7651C160.964 47.7363 160.876 47.7011 160.785 47.6803C160.714 47.6642 160.64 47.6605 160.566 47.6479C160.453 47.6309 160.34 47.612 160.228 47.6084C160.215 47.6075 160.202 47.6048 160.189 47.6039C160.122 47.6021 160.059 47.6158 159.992 47.6176C159.885 47.6231 159.78 47.6249 159.673 47.6413C159.582 47.6549 159.496 47.6793 159.409 47.7001C159.318 47.7228 159.227 47.7427 159.14 47.7725C159.053 47.8024 158.973 47.8422 158.891 47.8784C158.806 47.9164 158.721 47.9516 158.642 47.9978C158.6 48.0222 158.559 48.0485 158.518 48.0765C158.415 48.1117 158.312 48.1398 158.212 48.1868L128.32 62.2679L134.566 66.9257L134.809 149.061L89.2757 113.823L89.2469 71.0476L89.2192 32.6762C89.2192 32.6491 89.2125 32.6229 89.2096 32.5949C89.2076 32.5009 89.1941 32.4079 89.1797 32.313C89.168 32.2281 89.1564 32.1432 89.1362 32.0601C89.1169 31.9833 89.0881 31.9065 89.0602 31.8315C89.0264 31.7367 88.9928 31.6419 88.9465 31.5506C88.9341 31.5272 88.9312 31.5037 88.9186 31.4802C88.8946 31.435 88.86 31.3971 88.834 31.3528C88.7782 31.2661 88.7253 31.1804 88.6609 31.1C88.6089 31.0341 88.5522 30.9727 88.4954 30.9113C88.4329 30.8435 88.3676 30.7794 88.2983 30.7171C88.232 30.6603 88.1627 30.607 88.0906 30.5573C88.0166 30.5041 87.9416 30.4535 87.8608 30.4057C87.7848 30.3624 87.709 30.3236 87.6301 30.2884C87.5445 30.2496 87.459 30.2108 87.3677 30.1792C87.2821 30.1494 87.1975 30.126 87.111 30.1035C87.0227 30.0818 86.9342 30.0602 86.8419 30.0449C86.7419 30.0287 86.6401 30.0224 86.5382 30.0162C86.4815 30.0135 86.4286 30 86.371 30C86.3422 30 86.3153 30.0082 86.2864 30.0082C86.1846 30.0109 86.0808 30.0237 85.9779 30.0382C85.8905 30.05 85.8021 30.06 85.7185 30.079C85.633 30.0989 85.5493 30.127 85.4649 30.1532C85.3659 30.184 85.2697 30.2156 85.1785 30.2564C85.1526 30.2708 85.1257 30.2745 85.1007 30.2862L47.5727 47.9529C47.5227 47.9765 47.4804 48.0099 47.4324 48.037C47.3431 48.0859 47.2537 48.1346 47.1711 48.1916C47.0971 48.2423 47.0299 48.2966 46.9636 48.3525C46.8935 48.4104 46.8263 48.4693 46.7639 48.5324C46.7014 48.5957 46.6438 48.6636 46.5891 48.7322C46.5343 48.8009 46.4796 48.8696 46.4326 48.9437C46.3865 49.0151 46.3442 49.0893 46.3049 49.1643C46.2636 49.2447 46.2243 49.3243 46.1897 49.4083C46.1571 49.4869 46.1331 49.5682 46.1092 49.6495C46.0842 49.7335 46.0631 49.8158 46.0478 49.9044C46.0325 49.9974 46.0239 50.0895 46.0173 50.1853C46.0125 50.2396 45.9991 50.2911 46.0001 50.347L46.0573 132.831C46.0564 132.847 46.064 132.862 46.0631 132.878C46.0641 132.916 46.0612 132.951 46.0622 132.989C46.0641 133.011 46.068 133.032 46.0699 133.053C46.0815 133.174 46.0999 133.294 46.1288 133.412C46.1346 133.436 46.1404 133.461 46.1461 133.485C46.1558 133.517 46.1673 133.547 46.177 133.579C46.2241 133.731 46.279 133.879 46.3541 134.02L46.357 134.025L46.3579 134.027L46.3618 134.034C46.4368 134.175 46.5311 134.307 46.6311 134.432C46.6523 134.458 46.6715 134.485 46.6927 134.511C46.71 134.53 46.7273 134.549 46.7446 134.568C46.8273 134.66 46.9186 134.746 47.0138 134.825C47.0312 134.84 47.0475 134.857 47.0648 134.871C47.0946 134.896 47.1283 134.914 47.1581 134.938C47.1706 134.948 47.1802 134.962 47.1946 134.971L87.9824 166.867L87.0547 188.681C87.0529 188.722 87.0577 188.763 87.0587 188.805C87.0577 188.849 87.0568 188.892 87.0587 188.937C87.0606 188.954 87.0606 188.971 87.0626 188.988C87.0675 189.057 87.0791 189.123 87.0906 189.19C87.0974 189.23 87.1022 189.271 87.1099 189.312C87.1186 189.356 87.1301 189.4 87.1427 189.442C87.1513 189.471 87.1591 189.499 87.1696 189.529C87.1744 189.541 87.1783 189.558 87.1831 189.571C87.1927 189.598 87.1986 189.627 87.2082 189.654C87.2496 189.769 87.2957 189.878 87.3525 189.984L87.3544 189.987C87.3554 189.99 87.3564 189.991 87.3573 189.993C87.4324 190.134 87.5257 190.264 87.6267 190.39C87.643 190.412 87.6575 190.435 87.6758 190.456C87.6892 190.472 87.7055 190.484 87.719 190.501C87.8191 190.612 87.9248 190.72 88.0431 190.816C88.0556 190.826 88.07 190.834 88.0825 190.845C88.0902 190.85 88.0978 190.856 88.1056 190.861C88.1171 190.869 88.1229 190.88 88.1345 190.888L134.286 225.256C135.154 225.898 136.337 226.011 137.325 225.547L206.657 192.908C206.669 192.902 206.677 192.894 206.688 192.889C206.829 192.82 206.959 192.741 207.083 192.653ZM70.574 119.636L56.2038 109.198L56.2096 118.169L63.529 122.95L51.443 128.64L51.3926 52.1372L70.2786 43.2465L70.4785 62.7576L57.059 52.6792L57.0648 61.6504L70.5497 71.7251L70.7587 81.3711L56.9143 70.9731L56.92 79.9443L70.8299 90.3476L70.7723 100.815L57.1239 90.5642L57.1298 99.5354L70.8434 109.787L70.9276 119.469L70.574 119.636ZM100.369 168.903L54.2936 133.282L86.1322 118.294L132.206 153.914L100.369 168.903ZM76.1986 40.4596L82.5586 37.4655L83.248 113.669L76.8879 116.663L76.1986 40.4596Z" fill="white"/>
<path d="M109.787 107.009L98.4259 98.6474L98.4165 85.6627L109.778 94.0247L109.787 107.009Z" fill="white"/>
<path d="M109.778 70.7405L109.786 83.7234L98.424 75.3641L98.4165 62.3786L109.778 70.7405Z" fill="white"/>
<path d="M119.263 77.5889C123.667 82.8592 128.168 93.1526 128.168 102.664C128.168 112.172 123.667 115.415 119.263 113.781C119.263 109.887 119.263 81.0473 119.263 77.5889Z" fill="white"/>
</svg>
