<svg width="256" height="256" viewBox="0 0 256 256" fill="none" xmlns="http://www.w3.org/2000/svg">
<path d="M196 0H60C26.8629 0 0 26.8629 0 60V196C0 229.137 26.8629 256 60 256H196C229.137 256 256 229.137 256 196V60C256 26.8629 229.137 0 196 0Z" fill="#F4F2ED"/>
<path d="M62.8753 149.377C74.9567 149.377 84.7506 139.583 84.7506 127.502C84.7506 115.42 74.9567 105.626 62.8753 105.626C50.7939 105.626 41 115.42 41 127.502C41 139.583 50.7939 149.377 62.8753 149.377Z" fill="#141414"/>
<path d="M128.5 149.377C140.582 149.377 150.376 139.583 150.376 127.502C150.376 115.42 140.582 105.626 128.5 105.626C116.419 105.626 106.625 115.42 106.625 127.502C106.625 139.583 116.419 149.377 128.5 149.377Z" fill="#141414"/>
<path opacity="0.2" d="M62.8753 215.002C74.9567 215.002 84.7506 205.208 84.7506 193.127C84.7506 181.045 74.9567 171.251 62.8753 171.251C50.7939 171.251 41 181.045 41 193.127C41 205.208 50.7939 215.002 62.8753 215.002Z" fill="#141414"/>
<path opacity="0.2" d="M194.125 215.002C206.207 215.002 216.001 205.208 216.001 193.127C216.001 181.045 206.207 171.251 194.125 171.251C182.044 171.251 172.25 181.045 172.25 193.127C172.25 205.208 182.044 215.002 194.125 215.002Z" fill="#141414"/>
<path d="M128.5 215.002C140.582 215.002 150.376 205.208 150.376 193.127C150.376 181.045 140.582 171.251 128.5 171.251C116.419 171.251 106.625 181.045 106.625 193.127C106.625 205.208 116.419 215.002 128.5 215.002Z" fill="#141414"/>
<path d="M194.125 149.377C206.207 149.377 216.001 139.583 216.001 127.502C216.001 115.42 206.207 105.626 194.125 105.626C182.044 105.626 172.25 115.42 172.25 127.502C172.25 139.583 182.044 149.377 194.125 149.377Z" fill="#141414"/>
<path opacity="0.2" d="M62.8753 83.7506C74.9567 83.7506 84.7506 73.9567 84.7506 61.8753C84.7506 49.7939 74.9567 40 62.8753 40C50.7939 40 41 49.7939 41 61.8753C41 73.9567 50.7939 83.7506 62.8753 83.7506Z" fill="#141414"/>
<path opacity="0.2" d="M128.5 83.7506C140.582 83.7506 150.376 73.9567 150.376 61.8753C150.376 49.7939 140.582 40 128.5 40C116.419 40 106.625 49.7939 106.625 61.8753C106.625 73.9567 116.419 83.7506 128.5 83.7506Z" fill="#141414"/>
<path opacity="0.2" d="M194.125 83.7506C206.207 83.7506 216.001 73.9567 216.001 61.8753C216.001 49.7939 206.207 40 194.125 40C182.044 40 172.25 49.7939 172.25 61.8753C172.25 73.9567 182.044 83.7506 194.125 83.7506Z" fill="#141414"/>
</svg>
