<svg width="256" height="256" viewBox="0 0 256 256" fill="none" xmlns="http://www.w3.org/2000/svg">
    <g clip-path="url(#clip0_2_47)">
        <path d="M0 0H256V128.398H0V0Z" fill="#3069B1"/>
    </g>
    <g clip-path="url(#clip1_2_47)">
        <path d="M128 127.977V256H0.0163574L0.0163574 127.977H128Z" fill="#FFC032"/>
    </g>
    <g clip-path="url(#clip2_2_47)">
        <path d="M128.025 256V128.025H256.009V256H128.025Z" fill="#90C4E9"/>
    </g>
    <defs>
        <clipPath id="clip0_2_47">
            <path d="M0 60C0 26.8629 26.8629 0 60 0H196C229.137 0 256 26.8629 256 60V128.398H0V60Z" fill="white"/>
        </clipPath>
        <clipPath id="clip1_2_47">
            <path d="M128 256V128H0V196C0 229.137 26.8629 256 60 256H128Z" fill="white"/>
        </clipPath>
        <clipPath id="clip2_2_47">
            <path d="M128.025 256H196C229.137 256 256 229.137 256 196V128.016H128.025V256Z" fill="white"/>
        </clipPath>
    </defs>
</svg>
