<svg width="256" height="256" viewBox="0 0 256 256" fill="none" xmlns="http://www.w3.org/2000/svg">
<g clip-path="url(#clip0_8_52)">
<rect width="256" height="256" fill="#F4F2ED" rx="60"/>
<g clip-path="url(#clip1_8_52)">
<path d="M120.828 29.1873C123.443 28.8439 126.206 29.0777 128.841 29.0777C138.606 29.0777 148.193 30.5937 157.536 33.467C169.459 37.1341 180.565 42.997 190.367 50.7103C202.381 60.1642 212.336 72.5644 218.723 86.4811C230.674 112.518 230.586 144.073 218.343 170.001C210.426 186.765 197.725 200.796 182.353 211.028C169.81 219.376 155.141 224.487 140.216 226.296C121.218 228.599 100.68 225.233 83.6022 216.477C51.5415 200.038 29.7453 166.954 29.3141 130.697C29.2311 123.707 29.3399 116.675 30.7237 109.753C32.9777 98.4792 36.9075 87.5816 42.8096 77.6896C49.194 66.9885 57.4407 57.5454 67.3161 49.932C78.8968 41.0036 92.3564 34.5817 106.61 31.3146C110.052 30.5257 113.508 30.0885 116.981 29.6657L118.079 29.5322C118.994 29.4208 119.91 29.3079 120.828 29.1873ZM87.6609 194.02C83.2458 194.493 78.5892 195.297 74.7999 197.776C75.6529 197.981 76.6306 197.778 77.5205 197.776C79.6579 197.773 81.8158 197.692 83.951 197.786C89.2962 198.021 94.8655 198.876 100.027 200.291C106.636 202.103 112.457 205.67 118.824 208.075C125.541 210.612 132.227 211.4 139.352 211.4C142.943 211.4 146.506 211.389 149.987 210.409C148.17 209.442 145.569 209.623 143.557 209.22C139.19 208.346 134.896 207.278 130.696 205.779C127.604 204.676 124.626 203.315 121.662 201.925L119.758 201.029C117.007 199.736 114.249 198.461 111.404 197.386C103.925 194.561 95.6362 193.165 87.6609 194.02ZM94.3387 175.235C85.5895 175.235 76.7407 176.777 68.8641 180.746C66.9557 181.708 65.1418 182.854 63.4229 184.124C62.899 184.511 61.9703 185.009 61.7767 185.682C61.5803 186.364 62.2825 186.936 62.6809 187.373C64.6496 186.324 66.5201 185.213 68.6167 184.416C82.1764 179.265 98.6145 180.345 112.146 185.068C118.895 187.423 125.112 190.946 131.685 193.708C139.036 196.797 146.544 198.801 154.439 199.828C163.752 201.039 174.369 200.057 182.882 195.855C185.873 194.379 190.026 192.129 191.291 188.859C189.729 188.996 188.323 189.665 186.839 190.126C184.479 190.86 182.091 191.482 179.666 191.968C171.45 193.614 162.713 193.954 154.439 192.46C146.641 191.052 139.396 188.224 132.185 185.249L131.265 184.869C130.651 184.615 130.038 184.36 129.424 184.106L128.503 183.724C124.819 182.198 121.121 180.691 117.34 179.371C109.994 176.807 102.122 175.235 94.3387 175.235ZM109.673 40.8382C99.185 43.155 89.7899 47.6664 80.7357 53.3536C75.4793 56.6552 70.4512 60.0376 65.8961 64.2869C59.1224 70.6066 53.9453 78.2876 49.4301 86.3104C44.7779 94.5765 41.7952 104.21 40.3535 113.558C38.9393 122.728 38.7063 132.37 40.3263 141.548C42.3514 153.023 46.206 163.79 52.2932 173.749C54.3388 172.794 55.7911 170.616 57.487 169.148C60.9115 166.185 64.5069 163.439 68.3694 161.07C69.7992 160.193 71.2681 159.511 72.8213 158.887C73.4072 158.652 74.3651 158.436 74.6409 157.793C75.0791 156.771 74.2686 154.992 74.1294 153.933C73.7319 150.904 73.492 147.824 73.567 144.768C73.7846 135.867 75.4479 126.843 78.6147 118.512C81.0011 112.234 84.6467 106.535 88.9655 101.42C90.4309 99.6846 91.9888 98.069 93.5967 96.4664C94.5469 95.5192 95.7262 94.7087 96.3173 93.4937C93.2163 93.4957 90.1148 94.3899 87.1662 95.2978C80.8139 97.2536 74.6258 100.156 69.3587 104.25C66.9562 106.118 65.1967 108.566 62.9245 110.532C62.2275 111.135 60.979 111.944 60.016 111.489C58.5609 110.801 58.7855 107.938 58.6188 106.622C57.9777 101.56 59.8953 95.1571 62.3322 90.769C66.2441 83.7251 73.4774 77.7104 81.9724 77.9205C85.641 78.0111 88.8527 79.2858 92.3601 80.1178C91.4707 78.8543 90.2783 77.9333 89.1448 76.8977C86.3676 74.36 83.3299 72.0422 79.9938 70.289C78.6515 69.5838 77.2064 69.1553 75.7892 68.6371C75.0767 68.3767 74.1794 68.0183 73.9113 67.2264C73.4149 65.7598 76.0558 64.4014 77.0258 63.7829C80.7758 61.392 85.3738 59.4253 89.8868 59.3146C96.9396 59.1414 103.831 63.0549 106.736 69.7143C107.757 72.0553 108.059 74.5308 108.259 77.0292L108.296 77.4979L108.348 78.2016C108.354 78.2798 108.36 78.358 108.365 78.4362L108.4 78.9055L108.436 79.3747C110.651 77.569 112.209 74.9116 114.372 72.9776C119.43 68.454 126.353 66.4459 132.922 68.4823C138.858 70.3222 144.017 74.4187 147.053 79.8701C147.848 81.2964 150.064 84.7823 148.463 86.2029C147.21 87.3151 145.62 86.4483 144.299 85.9871C143.298 85.638 142.264 85.4165 141.226 85.2114L140.66 85.1005C140.471 85.0637 140.283 85.0267 140.094 84.9889C136.5 84.2683 132.319 84.3431 128.717 84.9765C126.388 85.386 124.112 86.2148 121.792 86.5581V87.0535C128.137 87.106 134.275 90.7257 137.405 96.2185C138.702 98.4941 139.35 101.099 139.847 103.65C140.461 106.802 140.029 110.237 139.168 113.31C138.879 114.34 138.354 116.087 137.122 116.324C136.252 116.492 135.512 115.625 135.015 115.04C133.712 113.508 132.472 112.051 130.943 110.728C127.074 107.381 122.984 104.293 118.824 101.316C116.615 99.7351 114.196 97.6799 111.652 96.7139C112.367 98.4374 113.068 100.04 113.311 101.916C114.027 107.433 111.717 112.627 108.25 116.778C107.192 118.045 106.06 119.32 104.726 120.305C104.173 120.713 103.479 121.246 102.748 121.13C100.454 120.768 100.181 117.311 99.8293 115.539C98.6382 109.54 99.1165 103.581 100.769 97.7047C99.2988 98.4503 98.2361 100.082 97.3128 101.42C95.2815 104.365 93.519 107.48 92.2552 110.833C87.2219 124.189 87.2703 139.832 93.7909 152.69C94.519 154.126 95.624 153.933 97.0593 153.933C97.2755 153.933 97.4921 153.932 97.7087 153.93L98.3592 153.923C99.6608 153.909 100.965 153.904 102.253 154.076C102.921 154.165 103.849 154.085 104.378 154.578C105.012 155.168 104.674 156.18 104.528 156.906C104.121 158.935 103.984 160.78 103.984 162.85C106.692 162.431 107.442 158.091 108.402 155.915C109.489 153.45 110.596 150.982 111.602 148.484C112.096 147.256 112.758 145.882 112.584 144.52C112.39 142.99 111.284 141.367 110.513 140.062C109.054 137.591 107.396 135.049 106.322 132.383C105.464 130.252 106.263 127.588 108.684 126.827C110.019 126.406 111.443 127.23 112.312 128.195C114.134 130.218 115.31 133.229 116.633 135.603L126.951 154.181C127.827 155.754 128.706 157.325 129.602 158.887C129.952 159.496 130.308 160.437 131.024 160.697C131.662 160.928 132.534 160.599 133.169 160.472C134.817 160.142 136.462 159.786 138.115 159.488C140.097 159.13 143.118 159.197 144.546 157.649C142.457 156.987 140.042 157.026 137.868 157.175C136.562 157.265 135.115 157.732 133.915 156.969C132.129 155.834 130.942 153.213 129.849 151.456C127.155 147.124 124.616 142.727 122.037 138.328L121.624 137.627L120.794 136.228C120.38 135.527 119.969 134.825 119.57 134.117C119.262 133.569 118.805 132.847 119.246 132.243C119.71 131.608 120.721 131.571 121.633 131.57L121.814 131.57C122.173 131.57 122.509 131.571 122.781 131.535C126.463 131.05 130.197 130.649 133.911 130.649C133.622 129.643 132.795 128.507 133.059 127.43C133.651 125.021 137.117 124.267 138.729 125.996C139.812 127.156 140.441 128.753 141.145 130.154C142.074 132.002 143.132 133.789 144.127 135.603C145.869 138.779 147.771 141.868 149.562 145.016C149.71 145.275 149.862 145.534 150.016 145.792L150.247 146.179C151.02 147.47 151.797 148.77 152.213 150.218C145.992 149.933 141.323 142.712 138.61 137.832C138.394 138.614 138.745 139.311 139.027 140.062C139.611 141.621 140.31 143.106 141.189 144.52C142.444 146.54 143.883 148.62 145.783 150.087C149.153 152.689 153.598 152.703 157.654 152.425C160.255 152.246 163.505 151.062 166.063 151.866C168.618 152.668 169.646 155.484 168.129 157.648C166.993 159.269 165.476 159.881 163.59 160.126C164.924 162.986 166.671 165.641 167.937 168.548C168.465 169.758 169.014 171.614 170.279 172.253C171.12 172.678 172.326 172.282 173.236 172.263C172.323 169.847 170.613 167.797 169.773 165.327C172.333 165.445 174.809 166.78 177.193 167.633C181.882 169.31 186.512 171.144 191.136 172.994L193.269 173.848C195.171 174.61 197.084 175.364 198.958 176.192C199.643 176.495 200.593 177.203 201.35 176.767C201.969 176.411 202.369 175.563 202.75 174.988C203.817 173.379 204.783 171.709 205.74 170.034C209.572 163.324 212.383 155.972 214.261 148.484C220.454 123.787 215.141 96.5368 200.258 75.9069C194.539 67.9807 187.348 61.1282 179.419 55.4534C159.577 41.2524 133.546 35.5651 109.673 40.8382ZM150.234 163.997C144.975 165.368 139.554 166.611 134.158 167.309C134.868 169.725 136.602 172.075 137.871 174.245C138.362 175.084 138.887 176.207 139.857 176.571C140.952 176.983 142.276 176.315 143.309 175.979C142.831 174.669 142.025 173.491 141.366 172.263C141.095 171.757 140.675 171.157 140.898 170.556C141.322 169.42 143.078 169.487 144.051 169.29C146.615 168.769 149.153 168.12 151.718 167.606C152.664 167.417 153.98 166.904 154.93 167.221C155.641 167.458 156.07 168.044 156.476 168.655L156.658 168.931C156.9 169.298 157.149 169.656 157.459 169.936C158.496 170.873 160.047 171.017 161.364 171.272C160.561 169.464 159.225 167.882 158.369 166.07C157.871 165.017 157.462 163.467 156.372 162.858C154.87 162.02 151.769 163.597 150.234 163.997ZM117.093 151.951C116.845 155.092 115.882 157.647 114.372 160.373C116.102 160.592 117.867 160.67 119.566 161.091C120.839 161.407 122.013 162.009 123.276 162.355C122.601 160.508 121.348 158.859 120.377 157.153C119.398 155.431 118.521 153.338 117.093 151.951Z" fill="black"/>
</g>
</g>
<defs>
<clipPath id="clip0_8_52">
<rect width="256" height="256" fill="white"/>
</clipPath>
<clipPath id="clip1_8_52">
<rect width="198.9" height="198" fill="white" transform="translate(29 29)"/>
</clipPath>
</defs>
</svg>
