<svg fill="none" height="256" viewBox="0 0 256 256" width="256" xmlns="http://www.w3.org/2000/svg" xmlns:xlink="http://www.w3.org/1999/xlink">
<path d="m196 0h-136c-33.1371 0-60 26.8629-60 60v136c0 33.137 26.8629 60 60 60h136c33.137 0 60-26.863 60-60v-136c0-33.1371-26.863-60-60-60z" fill="#242938"/>
<path d="m92.5427 124.474c-.1795 1.101-.2514 2.202-.2514 3.388 0 9.573 6.0682 16.9 14.0387 16.9 5.422 0 9.803-3.346 12.029-8.302l5.889 4.109c-3.34 7.454-10.125 12.41-17.918 12.41-12.0279 0-20.9685-10.97-20.9685-25.117 0-1.143.0718-2.287.1795-3.388zm-19.102 13.342 5.9245 4.108c-3.5189 6.65-9.5869 11.055-17.5581 11.055v-8.048h.1077c5.5296 0 9.5151-3.134 11.5259-7.115zm152.5653-34.816c10.448 0 18.994 10.038 18.994 22.363v27.616h-7.253v-27.277c0-6.819-4.488-14.231-11.741-14.231s-11.742 7.37-11.742 14.231v27.277h-7.252v-27.616c0-12.325 8.509-22.363 18.994-22.363zm-46.139 0c5.888 0 10.915 2.414 15.008 7.2 4.129 4.829 6.176 10.716 6.176 17.789 0 7.074-2.047 12.961-6.176 17.789-4.129 4.829-9.12 7.201-15.008 7.201-5.889 0-10.88-2.414-14.973-7.201-4.094-4.828-6.141-10.715-6.141-17.789 0-7.073 2.047-12.96 6.141-17.789 4.057-4.786 9.084-7.2 14.973-7.2zm-142.8351 0v8.302h-10.8436v26.853c0 7.539 3.5906 7.031 10.8436 6.649v7.709c-12.244 1.991-17.953-1.991-17.953-14.358v-26.853h-8.0789v-8.302zm116.9821 0v8.302h-10.843v26.853c0 7.539 3.59 7.031 10.843 6.649v7.709c-12.244 1.991-17.953-1.991-17.953-14.358v-26.853h-8.079v-8.302zm25.673 8.005c-3.986 0-7.325 1.61-10.09 4.871-2.728 3.261-4.093 7.285-4.093 12.113 0 4.829 1.365 8.895 4.093 12.114 2.729 3.261 6.104 4.871 10.09 4.871 4.021 0 7.432-1.61 10.161-4.871s4.093-7.285 4.093-12.114c0-4.828-1.364-8.894-4.093-12.113s-6.14-4.871-10.161-4.871zm-118.598-8.005c12.0644 0 19.8561 11.648 19.8561 24.82 0 1.228-.0719 2.457-.2514 3.643h-33.4286v.042h-6.858c-.1437-1.228-.2514-2.499-.2514-3.77 0-13.935 8.4738-24.735 20.9333-24.735zm0 7.709c-7.5044 0-12.6748 5.463-13.7879 13.638h26.6423c-1.2209-9.318-6.8941-13.638-12.8544-13.638zm45.278-7.709c8.007 0 14.793 5.21 17.845 13.172l-5.888 4.236c-2.011-5.337-6.536-8.852-11.957-8.852-.647 0-1.293.084-1.903.169v-8.598c.61-.085 1.256-.127 1.903-.127z" fill="#d30602" fill-rule="evenodd"/>
</svg>