<svg width="256" height="256" viewBox="0 0 256 256" fill="none" xmlns="http://www.w3.org/2000/svg">
<path d="M196 0H60C26.8629 0 0 26.8629 0 60V196C0 229.137 26.8629 256 60 256H196C229.137 256 256 229.137 256 196V60C256 26.8629 229.137 0 196 0Z" fill="#242938"/>
<path d="M91.6336 125.468C91.4494 126.415 91.3758 127.362 91.3758 128.382C91.3758 136.614 97.5995 142.915 105.775 142.915C111.336 142.915 115.829 140.038 118.112 135.776L124.152 139.309C120.727 145.72 113.766 149.982 105.775 149.982C93.4381 149.982 84.2682 140.548 84.2682 128.382C84.2682 127.398 84.3419 126.415 84.4524 125.468L91.6336 125.468ZM72.0417 136.942L78.1182 140.475C74.5091 146.194 68.2854 149.982 60.1099 149.982V143.061C60.1467 143.061 60.1835 143.061 60.2203 143.061C65.8917 143.061 69.9794 140.366 72.0417 136.942ZM228.519 107C239.235 107 248 115.633 248 126.233V149.982H240.561V126.524C240.561 120.659 235.958 114.285 228.519 114.285C221.08 114.285 216.476 120.623 216.476 126.524V149.982H209.037V126.233C209.037 115.633 217.765 107 228.519 107ZM181.196 107C187.236 107 192.392 109.076 196.59 113.192C200.825 117.345 202.924 122.408 202.924 128.491C202.924 134.574 200.825 139.637 196.59 143.79C192.355 147.942 187.236 149.982 181.196 149.982C175.157 149.982 170.038 147.906 165.839 143.79C161.641 139.637 159.542 134.574 159.542 128.491C159.542 122.408 161.641 117.345 165.839 113.192C170.001 109.076 175.157 107 181.196 107ZM34.6994 107V114.139H23.5777L23.5777 137.233C23.5777 143.717 27.2604 143.28 34.6994 142.952L34.6994 149.581C22.1415 151.293 16.286 147.869 16.286 137.233L16.286 114.139H8L8 107H34.6994ZM154.681 107V114.139H143.559V137.233C143.559 143.717 147.242 143.28 154.681 142.952V149.581C142.123 151.293 136.268 147.869 136.268 137.233V114.139H127.982V107L154.681 107ZM181.012 113.884C176.924 113.884 173.499 115.269 170.664 118.073C167.865 120.878 166.466 124.338 166.466 128.491C166.466 132.643 167.865 136.14 170.664 138.909C173.463 141.713 176.924 143.097 181.012 143.097C185.137 143.097 188.635 141.713 191.434 138.909C194.233 136.104 195.632 132.643 195.632 128.491C195.632 124.338 194.233 120.842 191.434 118.073C188.635 115.305 185.137 113.884 181.012 113.884ZM59.3733 107C71.7471 107 79.7385 117.017 79.7385 128.345C79.7385 129.402 79.6649 130.458 79.4807 131.478L45.195 131.478C45.195 131.478 45.195 131.478 45.195 131.514H38.1611C38.0138 130.458 37.9033 129.365 37.9033 128.272C37.9033 116.288 46.5944 107 59.3733 107ZM59.3733 113.629C51.6765 113.629 46.3735 118.328 45.2319 125.358H72.5573C71.3052 117.345 65.4866 113.629 59.3733 113.629ZM105.812 107C114.024 107 120.984 111.48 124.115 118.328L118.075 121.971C116.013 117.381 111.373 114.358 105.812 114.358C105.149 114.358 104.486 114.431 103.86 114.504V107.109C104.486 107.036 105.149 107 105.812 107Z" fill="#D30602"/>
</svg>