<svg id="Layer_1" xmlns="http://www.w3.org/2000/svg" viewBox="0 0 256 256"><rect width="256" height="256" rx="60" ry="60" style="fill:#4ea4f6;"/><g id="Layer_3"><path id="path5" d="m39.74,125.17s77.69-31.88,104.63-43.11c10.33-4.49,45.36-18.86,45.36-18.86,0,0,16.17-6.29,14.82,8.98-.45,6.29-4.04,28.29-7.63,52.09-5.39,33.68-11.23,70.5-11.23,70.5,0,0-.9,10.33-8.53,12.12s-20.21-6.29-22.45-8.08c-1.8-1.35-33.68-21.56-45.36-31.44-3.14-2.69-6.74-8.08.45-14.37,16.17-14.82,35.48-33.23,47.15-44.91,5.39-5.39,10.78-17.96-11.68-2.69-31.88,22-63.32,42.66-63.32,42.66,0,0-7.19,4.49-20.66.45-13.47-4.04-29.19-9.43-29.19-9.43,0,0-10.78-6.74,7.63-13.92Z" style="fill:#fff;"/></g></svg>
