<svg width="256" height="256" viewBox="0 0 256 256" fill="none" xmlns="http://www.w3.org/2000/svg">
<path d="M196 0H60C26.8629 0 0 26.8629 0 60V196C0 229.137 26.8629 256 60 256H196C229.137 256 256 229.137 256 196V60C256 26.8629 229.137 0 196 0Z" fill="#4EA4F6"/>
<path d="M50.7765 118.253C50.7765 118.253 128.467 86.3734 155.407 75.1434C165.737 70.6534 200.767 56.2834 200.767 56.2834C200.767 56.2834 216.937 49.9934 215.587 65.2634C215.137 71.5534 211.547 93.5534 207.957 117.353C202.567 151.033 196.727 187.853 196.727 187.853C196.727 187.853 195.827 198.183 188.197 199.973C180.567 201.763 167.987 193.683 165.747 191.893C163.947 190.543 132.067 170.333 120.387 160.453C117.247 157.763 113.647 152.373 120.837 146.083C137.007 131.263 156.317 112.853 167.987 101.173C173.377 95.7834 178.767 83.2134 156.307 98.4834C124.427 120.483 92.9865 141.143 92.9865 141.143C92.9865 141.143 85.7965 145.633 72.3265 141.593C58.8565 137.553 43.1365 132.163 43.1365 132.163C43.1365 132.163 32.3565 125.423 50.7665 118.243L50.7765 118.253Z" fill="white"/>
</svg>
