<svg width="256" height="256" viewBox="0 0 256 256" fill="none" xmlns="http://www.w3.org/2000/svg">
<rect width="256" height="256" rx="60" fill="#4EA4F6"/>
<path d="M39.7,125.2c0,0,77.7-31.9,104.7-43.1,c10.3-4.5,45.4-18.9,45.4-18.9s16.2-6.3,14.8,9c-0.4,6.3-4,28.3-7.6,52.1c-5.4,33.7-11.2,70.5-11.2,70.5s-0.9,10.3-8.5,12.1,s-20.2-6.3-22.5-8.1c-1.8-1.3-33.7-21.6-45.4-31.4c-3.1-2.7-6.7-8.1,0.4-14.4c16.2-14.8,35.5-33.2,47.2-44.9,c5.4-5.4,10.8-18-11.7-2.7c-31.9,22-63.3,42.7-63.3,42.7s-7.2,4.5-20.7,0.4c-13.5-4-29.2-9.4-29.2-9.4S21.2,132.4,39.7,125.2z" fill="white"/>
</svg>
