<?xml version="1.0" encoding="UTF-8"?>
<svg xmlns="http://www.w3.org/2000/svg" version="1.1" viewBox="0 0 800 800">
  <defs>
    <style>
      .cls-1 {
        fill: #c33;
      }
    </style>
  </defs>
  <!-- Generator: Adobe Illustrator 28.7.1, SVG Export Plug-In . SVG Version: 1.2.0 Build 142)  -->
  <g>
    <g id="Layer_1">
      <path d="M612.5,0H187.5C83.9,0,0,84.1,0,187.7v425.5c0,103.7,83.9,187.7,187.5,187.7h425c103.6,0,187.5-84.1,187.5-187.7V187.7C800,84.1,716.1,0,612.5,0Z"/>
      <path class="cls-1" d="M400,270.9l57.1-69.7s97.7,2.1,195.1,47.4c-24.9,37.7-74.4,56.2-74.4,56.2-3.3-33.1-26.5-41.2-100.4-41.2l-77.4,436.9-77.9-437c-73.3,0-96.5,8.1-99.8,41.2,0,0-49.5-18.3-74.4-56,97.4-45.3,195.1-47.4,195.1-47.4l57.1,69.7h0,0ZM400,181.1c78.7-.7,168.8,12.1,261,52.5,12.3-22.3,15.5-32.1,15.5-32.1-100.8-40-195.2-53.7-276.5-54.1-81.3.4-175.7,14-276.5,54.1,0,0,4.5,12.1,15.5,32.2,92.3-40.5,182.4-53.3,261-52.7h0Z"/>
    </g>
  </g>
</svg>