<svg width="256" height="256" viewBox="0 0 256 256" fill="none" xmlns="http://www.w3.org/2000/svg">
<rect width="256" height="256" rx="50" fill="#F4F2ED"/>
<g clip-path="url(#clip0_15_37)">
<path d="M226.164 109.109C231.084 128.271 209.95 150.711 183.518 144.353C217.184 119.867 201.792 88.5023 183.999 73.4562C164.706 57.1375 183.384 51.9094 189.606 57.8172C189.456 45.8977 147.489 48.5914 184.197 86.8672C203.056 106.527 180.809 150.016 154.305 116.945C154.087 116.645 153.888 116.331 153.713 116.005C157.993 114.228 161.508 109.394 161.508 101.432C161.55 98.6135 160.99 95.8184 159.865 93.2336C162.929 86.9938 165.741 79.5383 165.741 70.2023C165.741 47.8875 151.264 28 130.992 28C110.719 28 96.2438 47.8883 96.2438 70.2016C96.2438 79.5375 99.0633 87.0016 102.127 93.2414C100.998 95.8307 100.438 98.632 100.484 101.456C100.484 109.417 103.991 114.252 108.279 116.029C108.101 116.355 107.9 116.67 107.679 116.969C81.175 150.039 58.9211 106.543 77.7875 86.8906C114.502 48.6148 72.5195 45.9297 72.3695 57.8406C78.593 51.9406 97.2781 57.1688 77.9766 73.4797C60.1844 88.4867 44.8078 119.859 78.4586 144.377C52.0336 150.735 30.9086 128.295 35.8125 109.134C27.2359 124.93 33.5938 154.802 67.6391 160.569C31.3977 168.886 42.3039 218.93 67.8211 210.921C45.9367 209.634 48.3695 184.445 57.2227 176.863C67.0156 168.467 79.3984 174.383 101.977 170.599C101.732 190.93 121.531 201.854 111.146 213.496C100.145 225.818 85.0844 212.509 87.4063 200.401C76.9031 222.137 106.81 239.435 119.92 214.191C130.021 194.77 103.178 159.691 130.977 159.691C158.775 159.691 131.924 194.73 142.033 214.191C155.142 239.466 185.05 222.137 174.546 200.401C176.845 212.517 161.808 225.818 150.815 213.496C140.477 201.823 160.221 190.898 160.007 170.568C182.577 174.352 194.961 168.427 204.746 176.831C213.615 184.414 216.039 209.602 194.156 210.89C219.712 218.93 230.61 168.877 194.353 160.537C228.375 154.779 234.741 124.898 226.164 109.109Z" fill="#FF0000"/>
<path d="M57.6406 178.38C67.4258 169.984 78.6641 177.329 102 170.568C102 170.568 102.324 164.328 102.625 159.7C95.5172 165.055 82.518 164.359 71.6672 165.948C35.9547 171.184 43.8836 214.08 67.8211 210.921C50.107 208.015 48.7805 185.97 57.6414 178.38" fill="url(#paint0_linear_15_37)"/>
<path d="M103.998 147.638C107.948 141.533 108.438 131.691 100.453 140.641C73.475 170.868 26.6672 146.17 35.8359 109.117C25.9648 122.521 30.7031 157.567 67.6625 160.545C76.9422 157.464 96.0461 159.849 103.998 147.638Z" fill="url(#paint1_linear_15_37)"/>
<path d="M78.4664 144.353C78.4664 144.353 87.943 143.381 94.0875 136.162C69.1078 145.451 48.6141 105.16 79.8719 77.9266C104.18 56.7734 79.4375 48.4336 72.3461 57.8172C74.9602 55.2344 96.1406 56.6953 76.8398 73.0133C59.0781 88.0602 40.2586 119.298 78.4664 144.353Z" fill="url(#paint2_radial_15_37)"/>
<path d="M148.959 217.572C138.558 205.93 148.959 195.416 150.87 177.069C152.134 164.691 147.513 151.003 131 151.003C114.487 151.003 109.859 164.715 111.13 177.069C113.018 195.416 123.434 205.93 113.041 217.572C102.048 229.886 81.4914 217.051 87.4297 200.369C72.8125 224.641 109.914 239.752 123.023 214.515C133.117 195.085 103.201 161.034 131 161.034C158.799 161.034 128.883 195.085 138.977 214.515C152.086 239.751 189.18 224.641 174.562 200.369C180.493 217.051 159.952 229.878 148.959 217.572Z" fill="url(#paint3_radial_15_37)"/>
<path d="M190.333 165.955C179.474 164.376 166.467 165.055 159.375 159.7C159.684 164.328 160 170.576 160 170.576C183.328 177.329 194.566 169.976 204.352 178.38C213.212 185.963 211.885 208.015 194.14 210.89C218.109 214.08 226.045 171.184 190.333 165.955Z" fill="url(#paint4_linear_15_37)"/>
<path d="M226.164 109.109C235.333 146.154 188.525 170.868 161.539 140.625C153.555 131.676 154.021 141.525 158.002 147.63C165.954 159.841 185.05 157.456 194.33 160.537C231.297 157.567 236.035 122.513 226.164 109.109Z" fill="url(#paint5_linear_15_37)"/>
<path d="M167.913 136.162C174.057 143.381 183.526 144.353 183.526 144.353C221.734 119.33 202.914 88.0523 185.105 73.0133C165.796 56.6953 186.977 55.2344 189.591 57.8172C182.483 48.4336 157.756 56.7742 182.065 77.9266C213.377 105.161 192.884 145.45 167.913 136.162Z" fill="url(#paint6_radial_15_37)"/>
<path opacity="0.3" d="M141.266 55.7633C141.266 61.9242 131 61.9242 131 55.7633C131 49.6023 141.266 49.6102 141.266 55.7633ZM125.101 61.4031C125.101 65.6445 118.048 65.6445 118.048 61.4031C118.048 57.1609 125.101 57.1609 125.101 61.4031ZM129.602 41.8938C129.602 46.143 122.542 46.143 122.542 41.8938C122.542 37.6438 129.602 37.6836 129.602 41.8938ZM114.897 71.9953C114.897 74.1195 111.367 74.1195 111.367 71.9953C111.367 69.8703 114.897 69.8703 114.897 71.9953ZM115.569 51.143C115.569 54.0805 110.688 54.0805 110.688 51.143C110.688 48.2047 115.569 48.2125 115.569 51.143ZM129.602 76.9789C129.602 79.9242 124.722 79.9242 124.722 76.9789C124.722 74.0328 129.602 74.0563 129.602 76.9789Z" fill="#4B1313"/>
<path d="M118.459 101.432C118.459 112.633 105.76 112.633 105.76 101.432C105.76 90.232 118.459 90.232 118.459 101.432Z" fill="#302D3B"/>
<path d="M111.952 98.5812C111.976 98.8521 111.943 99.125 111.856 99.3827C111.769 99.6403 111.63 99.877 111.446 100.078C111.263 100.278 111.039 100.439 110.791 100.548C110.542 100.658 110.273 100.715 110.001 100.715C109.729 100.715 109.46 100.658 109.211 100.548C108.962 100.439 108.739 100.278 108.555 100.078C108.372 99.877 108.232 99.6403 108.145 99.3827C108.058 99.125 108.026 98.8521 108.05 98.5812C108.026 98.3104 108.058 98.0375 108.145 97.7798C108.232 97.5222 108.372 97.2855 108.555 97.0848C108.739 96.8841 108.962 96.7238 109.211 96.6142C109.46 96.5045 109.729 96.4479 110.001 96.4479C110.273 96.4479 110.542 96.5045 110.791 96.6142C111.039 96.7238 111.263 96.8841 111.446 97.0848C111.63 97.2855 111.769 97.5222 111.856 97.7798C111.943 98.0375 111.976 98.3104 111.952 98.5812Z" fill="#6F828A"/>
<path d="M156.272 101.432C156.272 112.633 143.573 112.633 143.573 101.432C143.573 90.232 156.272 90.232 156.272 101.432Z" fill="#302D3B"/>
<path d="M149.725 98.5812C149.749 98.8521 149.717 99.125 149.63 99.3827C149.543 99.6403 149.403 99.877 149.22 100.078C149.036 100.278 148.813 100.439 148.564 100.548C148.315 100.658 148.046 100.715 147.774 100.715C147.502 100.715 147.233 100.658 146.984 100.548C146.736 100.439 146.512 100.278 146.329 100.078C146.145 99.877 146.006 99.6403 145.919 99.3827C145.832 99.125 145.799 98.8521 145.823 98.5812C145.799 98.3104 145.832 98.0375 145.919 97.7798C146.006 97.5222 146.145 97.2855 146.329 97.0848C146.512 96.8841 146.736 96.7238 146.984 96.6142C147.233 96.5045 147.502 96.4479 147.774 96.4479C148.046 96.4479 148.315 96.5045 148.564 96.6142C148.813 96.7238 149.036 96.8841 149.22 97.0848C149.403 97.2855 149.543 97.5222 149.63 97.7798C149.717 98.0375 149.749 98.3104 149.725 98.5812Z" fill="#6F828A"/>
<path d="M125.101 123.722C125.101 130.104 124.572 135.27 123.963 135.27C123.355 135.27 122.866 130.104 122.873 123.73C122.881 117.355 123.402 112.182 124.019 112.182C124.634 112.182 125.116 117.34 125.101 123.722Z" fill="#9E1C20"/>
<path d="M131.205 137.276C131.668 137.276 132.043 131.204 132.043 123.714C132.043 116.224 131.668 110.152 131.205 110.152C130.743 110.152 130.368 116.224 130.368 123.714C130.368 131.204 130.743 137.276 131.205 137.276Z" fill="#9E1C20"/>
<path d="M139.119 123.572C139.119 129.796 138.613 134.843 138.013 134.843C137.413 134.843 136.963 129.812 136.97 123.58C136.978 117.348 137.491 112.309 138.076 112.309C138.66 112.309 139.142 117.348 139.119 123.572Z" fill="#9E1C20"/>
<path d="M186.503 141.359C185.192 139.622 192.821 133.888 194.148 135.633C195.474 137.378 187.806 143.105 186.503 141.359Z" fill="#F389A4"/>
<path d="M188.398 140.285C187.806 139.495 191.984 136.336 192.584 137.126C193.184 137.915 188.998 141.083 188.398 140.285Z" fill="#E34E70"/>
<path d="M191.02 133.721C189.441 132.205 195.245 126.241 196.809 127.758C198.373 129.274 192.552 135.246 191.02 133.721Z" fill="#F389A4"/>
<path d="M192.505 132.56C191.786 131.865 194.961 128.611 195.664 129.298C196.367 129.986 193.216 133.255 192.505 132.56Z" fill="#E34E70"/>
<path d="M199.242 122.656C197.156 122.016 199.581 114.062 201.666 114.702C203.752 115.342 201.287 123.303 199.241 122.655" fill="#F7B3C5"/>
<path d="M200.055 120.934C199.099 120.641 200.434 116.298 201.373 116.582C202.313 116.866 200.995 121.226 200.055 120.934Z" fill="#E34E70"/>
<path d="M177.911 141.067C176.987 139.092 185.366 135.175 186.282 137.157C187.198 139.14 178.827 143.041 177.911 141.067Z" fill="#F389A4"/>
<path d="M179.964 140.435C179.545 139.527 184.118 137.387 184.545 138.287C184.971 139.188 180.335 141.336 179.964 140.435Z" fill="#E34E70"/>
<path d="M198.918 129.804C197.094 128.627 201.611 121.637 203.427 122.83C205.244 124.022 200.758 130.988 198.918 129.804Z" fill="#F7B3C5"/>
<path d="M200.189 128.374C199.352 127.829 201.824 124.015 202.653 124.552C203.482 125.088 201.019 128.911 200.189 128.374Z" fill="#E34E70"/>
<path d="M165.203 152.306C166.048 150.15 173.891 153.238 173.102 155.403C172.311 157.567 164.351 154.471 165.203 152.306Z" fill="#F389A4"/>
<path d="M166.878 153.263C167.265 152.275 171.569 153.973 171.191 154.952C170.811 155.932 166.483 154.273 166.878 153.263Z" fill="#E34E70"/>
<path d="M176.252 154.842C176.845 152.148 184.94 153.941 184.355 156.635C183.77 159.328 175.652 157.535 176.252 154.842Z" fill="#F389A4"/>
<path d="M178.013 155.632C178.29 154.392 182.752 155.379 182.452 156.603C182.152 157.827 177.737 156.816 178.013 155.632Z" fill="#E34E70"/>
<path d="M158.348 142.923C160.339 140.728 167.178 146.959 165.196 149.139C163.213 151.319 156.359 145.111 158.348 142.923Z" fill="#F389A4"/>
<path d="M159.644 144.574C160.56 143.571 164.295 146.983 163.387 147.978C162.479 148.973 158.736 145.609 159.644 144.574Z" fill="#E34E70"/>
<path d="M187.159 157.867C187.159 155.987 194.171 156.13 194.132 158.009C194.093 159.889 187.111 159.755 187.159 157.867Z" fill="#F7B3C5"/>
<path d="M188.722 158.144C188.722 157.275 192.552 157.354 192.545 158.206C192.537 159.06 188.706 158.997 188.722 158.144Z" fill="#E34E70"/>
<path d="M161.255 165.268C161.847 162.575 169.942 164.368 169.366 167.061C168.789 169.755 160.662 167.962 161.255 165.268Z" fill="#F389A4"/>
<path d="M163.016 166.019C163.292 164.778 167.755 165.758 167.455 166.99C167.155 168.222 162.74 167.235 163.016 166.019" fill="#E34E70"/>
<path d="M126.072 156.477C126.072 153.72 135.88 153.586 135.92 156.351C135.959 159.115 126.112 159.241 126.072 156.477" fill="#F389A4"/>
<path d="M128.307 156.801C128.307 155.538 133.67 155.466 133.693 156.722C133.716 157.978 128.323 158.057 128.307 156.801Z" fill="#E34E70"/>
<path d="M138.779 159.779C140.698 157.796 146.677 163.602 144.726 165.576C142.775 167.551 136.86 161.761 138.779 159.779Z" fill="#F389A4"/>
<path d="M139.877 161.342C140.769 160.434 144.015 163.609 143.146 164.502C142.277 165.395 139.008 162.235 139.877 161.342Z" fill="#E34E70"/>
<path d="M148.28 167.622C151.028 167.772 150.57 176.073 147.813 175.923C145.057 175.773 145.523 167.48 148.28 167.622Z" fill="#F7B3C5"/>
<path d="M147.821 169.478C149.085 169.548 148.832 174.091 147.584 174.02C146.337 173.949 146.566 169.407 147.821 169.478Z" fill="#E34E70"/>
<path d="M143.549 176.002C146.25 176.555 144.591 184.69 141.891 184.161C139.19 183.632 140.848 175.458 143.549 176.002Z" fill="#F7B3C5"/>
<path d="M142.846 177.748C144.086 178.009 143.178 182.487 141.946 182.218C140.714 181.95 141.606 177.527 142.846 177.748Z" fill="#E34E70"/>
<path d="M146.219 184.666C148.92 185.22 147.261 193.355 144.56 192.818C141.859 192.281 143.518 184.122 146.219 184.666Z" fill="#F7B3C5"/>
<path d="M145.5 186.436C146.74 186.689 145.839 191.175 144.599 190.898C143.359 190.622 144.276 186.184 145.5 186.436Z" fill="#E34E70"/>
<path d="M140.034 193.703C142.727 194.248 141.077 202.391 138.377 201.846C135.675 201.301 137.318 193.15 140.034 193.702" fill="#F7B3C5"/>
<path d="M139.308 195.472C140.555 195.733 139.648 200.211 138.416 199.934C137.184 199.658 138.108 195.22 139.308 195.472Z" fill="#E34E70"/>
<path d="M141.566 203.228C144.315 203.331 144.007 211.64 141.251 211.538C138.495 211.435 138.802 203.126 141.566 203.228Z" fill="#F7B3C5"/>
<path d="M141.141 205.1C142.412 205.155 142.238 209.697 140.982 209.65C139.727 209.602 139.892 205.053 141.141 205.1Z" fill="#E34E70"/>
<path d="M140.192 214.997C142.333 213.259 146.716 218.662 144.567 220.4C142.42 222.138 138.052 216.727 140.192 214.997Z" fill="#F7B3C5"/>
<path d="M140.911 216.45C141.898 215.661 144.291 218.614 143.28 219.405C142.27 220.194 139.94 217.241 140.911 216.45Z" fill="#E34E70"/>
<path d="M147.411 220.116C148.516 218.109 153.571 220.905 152.466 222.895C151.359 224.886 146.305 222.122 147.411 220.116Z" fill="#F389A4"/>
<path d="M148.414 221C148.92 220.076 151.684 221.6 151.186 222.508C150.688 223.417 147.909 221.916 148.414 221Z" fill="#E34E70"/>
<path d="M153.792 226.229C153.958 224.151 158.917 224.554 158.744 226.631C158.57 228.709 153.619 228.298 153.792 226.229Z" fill="#F389A4"/>
<path d="M154.89 226.577C154.968 225.628 157.677 225.842 157.606 226.79C157.536 227.738 154.811 227.509 154.89 226.577Z" fill="#E34E70"/>
<path d="M160.727 224.988C160.284 223.141 164.674 222.074 165.133 223.923C165.591 225.77 161.176 226.837 160.727 224.988Z" fill="#F389A4"/>
<path d="M161.8 224.973C161.602 224.136 164.011 223.551 164.216 224.38C164.422 225.21 161.982 225.818 161.8 224.973Z" fill="#E34E70"/>
<path d="M167.375 225.139C166.648 223.377 170.842 221.639 171.561 223.401C172.28 225.162 168.118 226.861 167.376 225.139" fill="#F389A4"/>
<path d="M168.41 224.926C168.086 224.136 170.377 223.18 170.708 223.97C171.04 224.759 168.741 225.731 168.41 224.926Z" fill="#E34E70"/>
<path d="M171.119 220.447C169.728 219.152 172.825 215.827 174.207 217.122C175.589 218.417 172.509 221.742 171.119 220.447Z" fill="#F389A4"/>
<path d="M171.995 219.855C171.363 219.255 173.046 217.438 173.677 218.03C174.309 218.623 172.627 220.447 171.995 219.855Z" fill="#E34E70"/>
<path d="M176.228 214.508C174.404 213.986 175.668 209.618 177.492 210.155C179.316 210.692 178.045 215.045 176.228 214.508Z" fill="#F389A4"/>
<path d="M176.742 213.591C175.952 213.346 176.599 210.961 177.429 211.222C178.258 211.482 177.595 213.844 176.741 213.591" fill="#E34E70"/>
<path d="M171.34 171.879C171.577 169.138 179.853 169.849 179.609 172.605C179.364 175.362 171.095 174.636 171.34 171.879Z" fill="#F389A4"/>
<path d="M173.18 172.392C173.298 171.129 177.816 171.531 177.705 172.78C177.595 174.027 173.07 173.641 173.18 172.392Z" fill="#E34E70"/>
<path d="M181.275 168.988C181.33 166.279 189.63 166.445 189.567 169.162C189.505 171.879 181.212 171.705 181.275 168.988Z" fill="#F7B3C5"/>
<path d="M183.123 169.375C183.123 168.127 187.687 168.23 187.664 169.463C187.641 170.695 183.123 170.639 183.123 169.375Z" fill="#E34E70"/>
<path d="M190.68 172.424C191.273 169.818 198.507 171.469 197.891 174.091C197.275 176.713 190.073 175.046 190.68 172.424Z" fill="#F7B3C5"/>
<path d="M192.237 173.135C192.513 171.942 196.462 172.851 196.185 174.035C195.909 175.22 191.96 174.335 192.237 173.135Z" fill="#E34E70"/>
<path d="M200.727 172.622C201.95 170.252 207.992 173.348 206.752 175.781C205.512 178.214 199.502 175.015 200.727 172.622Z" fill="#FACFDA"/>
<path d="M201.934 173.633C202.503 172.534 205.788 174.248 205.244 175.323C204.698 176.397 201.373 174.723 201.934 173.633Z" fill="#E34E70"/>
<path d="M207.091 179.461C209.09 178.561 211.38 183.633 209.374 184.533C207.368 185.433 205.085 180.37 207.091 179.462" fill="#FACFDA"/>
<path d="M207.352 180.734C208.268 180.315 209.516 183.103 208.616 183.498C207.716 183.893 206.436 181.136 207.352 180.734" fill="#E34E70"/>
<path d="M212.691 185.583C214.878 185.583 214.862 191.152 212.691 191.112C210.519 191.073 210.495 185.575 212.691 185.583Z" fill="#FACFDA"/>
<path d="M212.398 186.847C213.417 186.847 213.402 189.888 212.398 189.888C211.395 189.888 211.403 186.839 212.398 186.847Z" fill="#E34E70"/>
<path d="M210.551 192.755C212.502 193.11 211.585 198.095 209.627 197.723C207.668 197.352 208.584 192.415 210.551 192.755Z" fill="#FACFDA"/>
<path d="M210.084 193.861C210.993 194.034 210.488 196.752 209.595 196.586C208.702 196.42 209.184 193.695 210.084 193.861Z" fill="#E34E70"/>
<path d="M210.764 199.966C212.343 200.843 210.1 204.84 208.521 203.916C206.941 202.991 209.184 199.073 210.763 199.966" fill="#FACFDA"/>
<path d="M210.084 200.748C210.803 201.159 209.579 203.339 208.86 202.928C208.141 202.517 209.358 200.345 210.084 200.748Z" fill="#E34E70"/>
<path d="M206.073 205.273C207.17 206.341 204.454 209.137 203.356 208.055C202.259 206.972 204.975 204.192 206.073 205.273Z" fill="#FACFDA"/>
<path d="M205.323 205.764C205.828 206.261 204.335 207.778 203.838 207.288C203.34 206.798 204.817 205.274 205.323 205.764Z" fill="#E34E70"/>
<path d="M195.53 156.73C194.905 154.099 202.985 152.18 203.616 154.827C204.248 157.472 196.162 159.384 195.53 156.73Z" fill="#F7B3C5"/>
<path d="M197.448 156.643C197.164 155.427 201.571 154.384 201.863 155.584C202.155 156.785 197.724 157.844 197.448 156.643Z" fill="#E34E70"/>
<path d="M205.883 157.441C205.094 155.19 212.927 152.441 213.717 154.7C214.507 156.959 206.665 159.708 205.883 157.441Z" fill="#FACFDA"/>
<path d="M207.755 157.109C207.391 156.066 211.704 154.573 212.044 155.6C212.383 156.627 208.118 158.145 207.755 157.109Z" fill="#E34E70"/>
<path d="M212.952 151.533C211.372 149.755 217.5 144.171 219.112 145.941C220.723 147.709 214.555 153.302 212.952 151.533Z" fill="#FACFDA"/>
<path d="M214.547 150.49C213.813 149.701 217.184 146.627 217.911 147.425C218.637 148.223 215.281 151.295 214.547 150.49Z" fill="#E34E70"/>
<path d="M223.005 145.806C221.007 144.479 225.627 137.56 227.617 138.887C229.607 140.214 224.979 147.133 223.005 145.806Z" fill="#FACFDA"/>
<path d="M224.292 144.408C223.384 143.792 225.911 140.025 226.811 140.617C227.712 141.209 225.2 145.008 224.292 144.408Z" fill="#E34E70"/>
<path d="M225.84 135.941C223.598 135.096 226.551 127.323 228.777 128.161C231.005 128.998 228.066 136.794 225.84 135.941Z" fill="#FACFDA"/>
<path d="M226.788 134.306C225.761 133.911 227.38 129.662 228.367 130.048C229.354 130.436 227.806 134.677 226.788 134.306Z" fill="#E34E70"/>
<path d="M229.97 125.207C228.217 125.405 227.546 119.291 229.298 119.094C231.052 118.896 231.731 125.009 229.97 125.207Z" fill="#FACFDA"/>
<path d="M230.041 123.801C229.252 123.88 228.88 120.539 229.67 120.46C230.459 120.381 230.847 123.706 230.041 123.801Z" fill="#E34E70"/>
<path d="M204.659 116.313C202.503 116.052 203.514 107.791 205.67 108.067C207.827 108.344 206.815 116.581 204.659 116.313Z" fill="#F7B3C5"/>
<path d="M205.164 114.48C204.17 114.363 204.73 109.845 205.709 109.963C206.689 110.081 206.152 114.599 205.165 114.48" fill="#E34E70"/>
<path d="M201.43 109.702C199.266 109.884 198.594 101.591 200.773 101.416C202.953 101.243 203.609 109.528 201.43 109.702Z" fill="#F7B3C5"/>
<path d="M201.555 107.798C200.56 107.877 200.205 103.352 201.192 103.265C202.179 103.178 202.551 107.727 201.555 107.798" fill="#E34E70"/>
<path d="M203.759 99.3867C201.784 100.295 198.334 92.7359 200.316 91.8281C202.298 90.9195 205.749 98.4859 203.759 99.3867Z" fill="#F7B3C5"/>
<path d="M203.23 97.5625C202.33 97.9726 200.442 93.85 201.334 93.4312C202.227 93.0125 204.138 97.1836 203.23 97.5625Z" fill="#E34E70"/>
<path d="M197.188 93.3047C195.411 94.3 191.66 87.5391 193.445 86.5516C195.23 85.5641 198.98 92.3094 197.188 93.3047Z" fill="#F7B3C5"/>
<path d="M196.548 91.6539C195.759 92.1125 193.689 88.4234 194.503 87.9656C195.316 87.507 197.386 91.1961 196.548 91.6539Z" fill="#E34E70"/>
<path d="M195.972 84.9719C194.456 86.157 190.097 80.5648 191.628 79.3719C193.16 78.1789 197.512 83.7555 195.972 84.9719Z" fill="#F7B3C5"/>
<path d="M195.182 83.55C194.487 84.0953 192.102 81.0383 192.813 80.4938C193.524 79.9484 195.885 83.0055 195.182 83.55Z" fill="#E34E70"/>
<path d="M188.651 81.568C187.19 82.8391 182.563 77.468 184.031 76.2047C185.5 74.9406 190.096 80.3039 188.651 81.568Z" fill="#F7B3C5"/>
<path d="M187.759 80.193C187.095 80.7781 184.6 77.8234 185.231 77.2633C185.863 76.7023 188.438 79.6164 187.759 80.193Z" fill="#E34E70"/>
<path d="M185.327 74.4117C184.007 75.5492 180.225 71.157 181.552 70.0203C182.878 68.8828 186.653 73.2664 185.327 74.4109" fill="#F7B3C5"/>
<path d="M184.639 73.2656C184.031 73.7875 181.962 71.3867 182.57 70.8969C183.178 70.407 185.239 72.7531 184.639 73.2664" fill="#E34E70"/>
<path d="M178.984 72.9977C177.5 73.8984 174.491 68.9461 175.992 68.0375C177.492 67.1289 180.493 72.0805 178.984 72.9977Z" fill="#F389A4"/>
<path d="M178.495 71.7578C177.823 72.1688 176.173 69.4672 176.852 69.0484C177.532 68.6297 179.174 71.3469 178.495 71.7578Z" fill="#E34E70"/>
<path d="M178.384 67.05C176.718 67.5398 175.431 63.243 177.113 62.7453C178.795 62.2477 180.043 66.5445 178.384 67.05Z" fill="#F389A4"/>
<path d="M178.273 66.0078C177.484 66.2367 176.812 63.8828 177.579 63.6383C178.345 63.393 179.04 65.7789 178.274 66.0078" fill="#E34E70"/>
<path d="M173.764 62.2641C172.122 61.6875 173.606 57.4531 175.257 58.0375C176.908 58.6227 175.414 62.8563 173.764 62.2641Z" fill="#F389A4"/>
<path d="M174.309 61.3789C173.52 61.1266 174.372 58.8039 175.098 59.0727C175.825 59.3414 175.059 61.6398 174.309 61.3789Z" fill="#E34E70"/>
<path d="M177.942 57.3672C177.666 55.6445 182.088 54.95 182.364 56.6797C182.641 58.4094 178.211 59.1125 177.942 57.3672Z" fill="#F389A4"/>
<path d="M178.977 57.4297C178.85 56.6406 181.275 56.2688 181.393 57.0508C181.512 57.832 179.103 58.2195 178.977 57.4297Z" fill="#E34E70"/>
<path d="M75.5047 141.359C76.8078 139.622 69.1867 133.888 67.8523 135.633C66.518 137.378 74.1937 143.105 75.5047 141.359Z" fill="#F389A4"/>
<path d="M73.6016 140.285C74.1937 139.495 70.0156 136.336 69.4164 137.126C68.8156 137.915 73.0016 141.083 73.6016 140.285Z" fill="#E34E70"/>
<path d="M70.9797 133.721C72.5594 132.205 66.7547 126.241 65.1906 127.758C63.6273 129.274 69.4477 135.246 70.9797 133.721Z" fill="#F389A4"/>
<path d="M69.4953 132.56C70.2141 131.865 67.0391 128.611 66.3359 129.298C65.6328 129.986 68.7844 133.255 69.4953 132.56Z" fill="#E34E70"/>
<path d="M62.7578 122.656C64.8438 122.016 62.4188 114.062 60.3344 114.702C58.2484 115.342 60.7133 123.303 62.7586 122.655" fill="#F7B3C5"/>
<path d="M61.9453 120.934C62.9008 120.641 61.5664 116.298 60.6266 116.582C59.6867 116.866 61.0055 121.226 61.9453 120.934Z" fill="#E34E70"/>
<path d="M84.0976 141.067C85.0133 139.092 76.6344 135.175 75.718 137.157C74.8023 139.14 83.1734 143.041 84.0976 141.067Z" fill="#F389A4"/>
<path d="M82.0758 140.435C82.4945 139.527 77.9219 137.387 77.4953 138.287C77.0687 139.188 81.6648 141.336 82.0758 140.435Z" fill="#E34E70"/>
<path d="M63.082 129.804C64.9063 128.627 60.3891 121.637 58.5727 122.83C56.7563 124.022 61.2422 130.988 63.082 129.804Z" fill="#F7B3C5"/>
<path d="M61.8109 128.374C62.6477 127.829 60.1758 124.015 59.3469 124.552C58.518 125.088 60.9813 128.911 61.8109 128.374Z" fill="#E34E70"/>
<path d="M97.1672 152.07C96.2359 149.7 87.3508 153.176 88.2828 155.569C89.2148 157.962 98.107 154.455 97.1672 152.07Z" fill="#F389A4"/>
<path d="M95.2797 153.167C94.8453 152.07 89.9891 153.957 90.407 155.071C90.8258 156.185 95.7062 154.25 95.2797 153.167Z" fill="#E34E70"/>
<path d="M85.7477 154.842C85.1555 152.148 77.0602 153.941 77.6453 156.635C78.2297 159.328 86.3484 157.535 85.7477 154.842Z" fill="#F389A4"/>
<path d="M83.9867 155.632C83.7102 154.392 79.2484 155.379 79.5484 156.603C79.8484 157.827 84.2633 156.816 83.9867 155.632Z" fill="#E34E70"/>
<path d="M103.652 142.923C101.661 140.728 94.8219 146.959 96.8039 149.139C98.7867 151.319 105.641 145.111 103.652 142.923Z" fill="#F389A4"/>
<path d="M102.356 144.574C101.44 143.571 97.7047 146.983 98.6125 147.978C99.5211 148.973 103.264 145.609 102.356 144.574Z" fill="#E34E70"/>
<path d="M76.0102 157.654C75.9555 155.632 68.7922 155.734 68.8555 157.765C68.918 159.795 76.0656 159.691 76.0102 157.654Z" fill="#F7B3C5"/>
<path d="M74.3992 157.938C74.3992 157.006 70.4508 157.077 70.4508 157.993C70.4508 158.91 74.4226 158.87 74.3992 157.938Z" fill="#E34E70"/>
<path d="M100.745 165.268C100.153 162.575 92.0578 164.368 92.6344 167.061C93.2109 169.755 101.337 167.962 100.745 165.268Z" fill="#F389A4"/>
<path d="M98.9844 166.019C98.7078 164.778 94.2453 165.758 94.5453 166.99C94.8453 168.222 99.2609 167.235 98.9844 166.019Z" fill="#E34E70"/>
<path d="M123.648 160.292C122.068 158.033 115.26 162.796 116.84 165.031C118.42 167.266 125.227 162.559 123.648 160.292Z" fill="#F389A4"/>
<path d="M122.312 161.659C121.578 160.623 117.867 163.238 118.578 164.257C119.288 165.276 123.023 162.685 122.312 161.659Z" fill="#E34E70"/>
<path d="M113.72 167.622C110.972 167.772 111.43 176.073 114.187 175.923C116.943 175.773 116.477 167.48 113.72 167.622Z" fill="#F7B3C5"/>
<path d="M114.179 169.478C112.915 169.548 113.168 174.091 114.416 174.02C115.663 173.949 115.434 169.407 114.179 169.478Z" fill="#E34E70"/>
<path d="M118.451 176.002C115.75 176.555 117.409 184.69 120.109 184.161C122.81 183.632 121.152 175.458 118.451 176.002Z" fill="#F7B3C5"/>
<path d="M119.154 177.748C117.914 178.009 118.822 182.487 120.054 182.218C121.286 181.95 120.394 177.527 119.154 177.748Z" fill="#E34E70"/>
<path d="M115.781 184.666C113.08 185.22 114.739 193.355 117.44 192.818C120.141 192.281 118.483 184.122 115.782 184.666" fill="#F7B3C5"/>
<path d="M116.5 186.436C115.26 186.689 116.161 191.175 117.401 190.898C118.641 190.622 117.724 186.184 116.5 186.436Z" fill="#E34E70"/>
<path d="M121.966 193.703C119.273 194.248 120.923 202.391 123.623 201.846C126.325 201.301 124.682 193.15 121.966 193.702" fill="#F7B3C5"/>
<path d="M122.692 195.472C121.445 195.733 122.352 200.211 123.584 199.934C124.816 199.658 123.892 195.22 122.692 195.472Z" fill="#E34E70"/>
<path d="M120.434 203.228C117.693 203.331 117.993 211.64 120.749 211.538C123.505 211.435 123.198 203.126 120.434 203.228Z" fill="#F7B3C5"/>
<path d="M120.859 205.1C119.588 205.155 119.762 209.697 121.018 209.65C122.273 209.602 122.108 205.053 120.859 205.1Z" fill="#E34E70"/>
<path d="M121.808 214.997C119.667 213.259 115.284 218.662 117.433 220.4C119.58 222.138 123.948 216.727 121.808 214.997Z" fill="#F7B3C5"/>
<path d="M121.089 216.45C120.102 215.661 117.709 218.614 118.72 219.405C119.73 220.194 122.06 217.241 121.089 216.45Z" fill="#E34E70"/>
<path d="M114.589 220.116C113.484 218.109 108.429 220.905 109.534 222.895C110.641 224.886 115.695 222.122 114.589 220.116Z" fill="#F389A4"/>
<path d="M113.625 221C113.12 220.076 110.356 221.6 110.854 222.508C111.352 223.417 114.091 221.916 113.625 221Z" fill="#E34E70"/>
<path d="M108.208 226.229C108.042 224.151 103.083 224.554 103.256 226.631C103.43 228.709 108.381 228.298 108.208 226.229Z" fill="#F389A4"/>
<path d="M107.11 226.577C107.032 225.628 104.323 225.842 104.394 226.79C104.464 227.738 107.189 227.509 107.11 226.577Z" fill="#E34E70"/>
<path d="M101.273 224.988C101.716 223.141 97.3258 222.074 96.8672 223.923C96.4094 225.77 100.824 226.837 101.273 224.988Z" fill="#F389A4"/>
<path d="M100.2 224.973C100.398 224.136 97.9891 223.551 97.7836 224.38C97.5781 225.21 100.018 225.818 100.2 224.973Z" fill="#E34E70"/>
<path d="M94.625 225.139C95.3516 223.377 91.1578 221.639 90.4391 223.401C89.7203 225.162 93.8828 226.861 94.625 225.139Z" fill="#F389A4"/>
<path d="M93.5898 224.926C93.9141 224.136 91.6234 223.18 91.2922 223.97C90.9602 224.759 93.2586 225.731 93.5898 224.926Z" fill="#E34E70"/>
<path d="M90.8812 220.447C92.2719 219.152 89.175 215.827 87.793 217.122C86.4109 218.417 89.4914 221.742 90.8812 220.447Z" fill="#F389A4"/>
<path d="M90.0047 219.855C90.6367 219.255 88.9539 217.438 88.3227 218.03C87.6906 218.623 89.3727 220.447 90.0047 219.855Z" fill="#E34E70"/>
<path d="M85.7719 214.508C87.5961 213.986 86.332 209.618 84.5078 210.155C82.6836 210.692 83.9555 215.045 85.7719 214.508Z" fill="#F389A4"/>
<path d="M85.2578 213.591C86.0476 213.346 85.4008 210.961 84.5711 211.222C83.7422 211.482 84.4047 213.844 85.2578 213.591Z" fill="#E34E70"/>
<path d="M90.6602 171.879C90.4234 169.138 82.1469 169.849 82.3914 172.605C82.6359 175.362 90.9047 174.636 90.6602 171.879Z" fill="#F389A4"/>
<path d="M88.8203 172.392C88.7016 171.129 84.1844 171.531 84.2945 172.78C84.4055 174.027 88.9305 173.641 88.8203 172.392Z" fill="#E34E70"/>
<path d="M80.725 168.988C80.6703 166.279 72.3695 166.445 72.4328 169.162C72.4953 171.879 80.7883 171.705 80.725 168.988Z" fill="#F7B3C5"/>
<path d="M78.8773 169.375C78.8773 168.127 74.3125 168.23 74.3359 169.463C74.3594 170.695 78.8773 170.639 78.8773 169.375Z" fill="#E34E70"/>
<path d="M71.3195 172.424C70.7273 169.818 63.5008 171.469 64.1086 174.091C64.7172 176.713 71.9273 175.046 71.3195 172.424Z" fill="#F7B3C5"/>
<path d="M69.7633 173.135C69.4875 171.942 65.5383 172.851 65.8148 174.035C66.0914 175.22 70.0398 174.335 69.7633 173.135Z" fill="#E34E70"/>
<path d="M61.2734 172.622C60.05 170.252 54.0078 173.348 55.2484 175.781C56.4883 178.214 62.4984 175.015 61.2734 172.622Z" fill="#FACFDA"/>
<path d="M60.0656 173.633C59.4969 172.534 56.2117 174.248 56.7563 175.323C57.3016 176.397 60.6266 174.723 60.0656 173.633Z" fill="#E34E70"/>
<path d="M54.9086 179.461C52.9102 178.561 50.6195 183.633 52.6258 184.533C54.632 185.433 56.9149 180.37 54.9086 179.462" fill="#FACFDA"/>
<path d="M54.6484 180.734C53.732 180.315 52.4844 183.103 53.3844 183.498C54.2844 183.893 55.5641 181.136 54.6477 180.734" fill="#E34E70"/>
<path d="M49.3094 185.583C47.1219 185.583 47.1375 191.152 49.3094 191.112C51.4813 191.073 51.5047 185.575 49.3094 185.583Z" fill="#FACFDA"/>
<path d="M49.6016 186.847C48.5828 186.847 48.5984 189.888 49.6016 189.888C50.6047 189.888 50.6047 186.839 49.6016 186.847Z" fill="#E34E70"/>
<path d="M51.4492 192.755C49.4984 193.11 50.4148 198.095 52.3734 197.723C54.332 197.352 53.4156 192.415 51.4492 192.755Z" fill="#FACFDA"/>
<path d="M51.9156 193.861C51.007 194.034 51.5125 196.752 52.4047 196.586C53.2977 196.42 52.8156 193.695 51.9156 193.861Z" fill="#E34E70"/>
<path d="M51.2359 199.966C49.657 200.843 51.9 204.84 53.4789 203.916C55.0586 202.991 52.8148 199.073 51.2359 199.966Z" fill="#FACFDA"/>
<path d="M51.9156 200.748C51.1969 201.159 52.4211 203.339 53.1398 202.928C53.8586 202.517 52.6422 200.345 51.9156 200.748Z" fill="#E34E70"/>
<path d="M55.9273 205.273C54.8297 206.341 57.507 209.137 58.6437 208.055C59.7812 206.972 57.025 204.192 55.9273 205.273Z" fill="#FACFDA"/>
<path d="M56.6773 205.764C56.1719 206.261 57.6648 207.778 58.1617 207.288C58.6602 206.798 57.1828 205.274 56.6773 205.764Z" fill="#E34E70"/>
<path d="M66.4703 156.73C67.0945 154.099 59.0148 152.18 58.3836 154.827C57.7516 157.472 65.8383 159.384 66.4703 156.73Z" fill="#F7B3C5"/>
<path d="M64.5516 156.643C64.8359 155.427 60.4289 154.384 60.1367 155.584C59.8445 156.785 64.2758 157.844 64.5516 156.643Z" fill="#E34E70"/>
<path d="M56.1172 157.441C56.9063 155.19 49.0727 152.441 48.2828 154.7C47.493 156.959 55.3352 159.708 56.1172 157.441Z" fill="#FACFDA"/>
<path d="M54.2453 157.109C54.6086 156.066 50.2961 154.573 49.9562 155.6C49.6172 156.627 53.882 158.145 54.2453 157.109Z" fill="#E34E70"/>
<path d="M49.0484 151.533C50.6281 149.755 44.5 144.171 42.8883 145.941C41.2773 147.709 47.4453 153.302 49.0484 151.533Z" fill="#FACFDA"/>
<path d="M47.4531 150.49C48.1875 149.701 44.8156 146.627 44.0891 147.425C43.3625 148.223 46.7187 151.295 47.4531 150.49Z" fill="#E34E70"/>
<path d="M38.9953 145.806C40.993 144.479 36.3734 137.56 34.3828 138.887C32.393 140.214 37.0211 147.133 38.9953 145.806Z" fill="#FACFDA"/>
<path d="M37.7078 144.408C38.6164 143.792 36.1281 140.025 35.1891 140.617C34.2492 141.209 36.8 145.008 37.7078 144.408Z" fill="#E34E70"/>
<path d="M36.1602 135.941C38.4024 135.096 35.4492 127.323 33.2227 128.161C30.9953 128.998 33.9336 136.794 36.1602 135.941Z" fill="#FACFDA"/>
<path d="M35.2125 134.306C36.2391 133.911 34.6203 129.662 33.6328 130.048C32.6461 130.436 34.1937 134.677 35.2125 134.306Z" fill="#E34E70"/>
<path d="M32.0296 125.207C33.7828 125.405 34.4539 119.291 32.7015 119.094C30.9476 118.896 30.2687 125.009 32.0296 125.207Z" fill="#FACFDA"/>
<path d="M31.9586 123.801C32.7484 123.88 33.1195 120.539 32.3297 120.46C31.5406 120.381 31.1531 123.706 31.9586 123.801Z" fill="#E34E70"/>
<path d="M57.3406 116.313C59.4969 116.052 58.4859 107.791 56.3297 108.067C54.1734 108.344 55.1852 116.581 57.3406 116.313Z" fill="#F7B3C5"/>
<path d="M56.8359 114.48C57.8305 114.363 57.2695 109.845 56.2906 109.963C55.3109 110.081 55.8492 114.599 56.8359 114.48Z" fill="#E34E70"/>
<path d="M60.5703 109.702C62.7344 109.884 63.4063 101.591 61.2266 101.416C59.0469 101.243 58.3906 109.528 60.5703 109.702Z" fill="#F7B3C5"/>
<path d="M60.4453 107.798C61.4398 107.877 61.7953 103.352 60.8078 103.265C59.8211 103.178 59.45 107.727 60.4453 107.798Z" fill="#E34E70"/>
<path d="M58.2414 99.3867C60.2156 100.295 63.6664 92.7359 61.6844 91.8281C59.7023 90.9195 56.2508 98.4859 58.2414 99.3867Z" fill="#F7B3C5"/>
<path d="M58.7703 97.5625C59.6703 97.9726 61.5578 93.85 60.6656 93.4312C59.7734 93.0125 57.8625 97.1836 58.7703 97.5625Z" fill="#E34E70"/>
<path d="M64.8125 93.3047C66.5891 94.3 70.3398 87.5391 68.5547 86.5516C66.7703 85.5641 63.0195 92.3094 64.8125 93.3047Z" fill="#F7B3C5"/>
<path d="M65.4516 91.6539C66.2406 92.1125 68.3109 88.4234 67.4969 87.9656C66.6836 87.507 64.6141 91.1961 65.4516 91.6539Z" fill="#E34E70"/>
<path d="M66.0281 84.9719C67.5438 86.157 71.9031 80.5648 70.3719 79.3719C68.8398 78.1789 64.4883 83.7555 66.0281 84.9719Z" fill="#F7B3C5"/>
<path d="M66.818 83.55C67.5133 84.0953 69.8977 81.0383 69.1867 80.4938C68.4758 79.9484 66.1149 83.0055 66.818 83.55Z" fill="#E34E70"/>
<path d="M73.3492 81.568C74.8102 82.8391 79.4375 77.468 77.9687 76.2047C76.5 74.9406 71.9039 80.3039 73.3492 81.568Z" fill="#F7B3C5"/>
<path d="M74.2414 80.193C74.9055 80.7781 77.4 77.8234 76.7688 77.2633C76.1367 76.7023 73.5625 79.6164 74.2414 80.193Z" fill="#E34E70"/>
<path d="M76.6734 74.4117C77.993 75.5492 81.775 71.157 80.4484 70.0203C79.1219 68.8828 75.3469 73.2664 76.6734 74.4109" fill="#F7B3C5"/>
<path d="M77.3609 73.2656C77.9687 73.7875 80.0383 71.3867 79.4297 70.8969C78.8219 70.407 76.7609 72.7531 77.3609 73.2664" fill="#E34E70"/>
<path d="M83.0156 72.9977C84.5 73.8984 87.5094 68.9461 86.0078 68.0375C84.5078 67.1289 81.507 72.0805 83.0156 72.9977Z" fill="#F389A4"/>
<path d="M83.5047 71.7578C84.1766 72.1688 85.8266 69.4672 85.1476 69.0484C84.468 68.6297 82.8258 71.3469 83.5047 71.7578Z" fill="#E34E70"/>
<path d="M83.6156 67.05C85.282 67.5398 86.5688 63.243 84.8867 62.7453C83.2047 62.2477 81.957 66.5445 83.6156 67.05Z" fill="#F389A4"/>
<path d="M83.7266 66.0078C84.5156 66.2367 85.1875 63.8828 84.4211 63.6383C83.6555 63.393 82.9609 65.7789 83.7266 66.0078Z" fill="#E34E70"/>
<path d="M88.2359 62.2641C89.8781 61.6875 88.4016 57.4531 86.743 58.0375C85.0844 58.6227 86.5859 62.8563 88.2359 62.2641Z" fill="#F389A4"/>
<path d="M87.6906 61.3789C88.4797 61.1266 87.6281 58.8039 86.9016 59.0727C86.175 59.3414 86.9406 61.6398 87.6906 61.3789Z" fill="#E34E70"/>
<path d="M84.0578 57.3672C84.3344 55.6445 79.9117 54.95 79.6359 56.6797C79.3586 58.4094 83.7891 59.1125 84.0578 57.3672Z" fill="#F389A4"/>
<path d="M83.0234 57.4297C83.15 56.6406 80.725 56.2688 80.607 57.0508C80.4883 57.832 82.8969 58.2195 83.0234 57.4297Z" fill="#E34E70"/>
</g>
<defs>
<linearGradient id="paint0_linear_15_37" x1="47.5152" y1="2727.47" x2="5574.92" y2="2727.47" gradientUnits="userSpaceOnUse">
<stop stop-color="#F7B3C5"/>
<stop offset="0.19" stop-color="#F7B0C2"/>
<stop offset="0.38" stop-color="#F6A4B6"/>
<stop offset="0.58" stop-color="#F390A5"/>
<stop offset="0.79" stop-color="#E7728B"/>
<stop offset="0.99" stop-color="#DC4D6C"/>
<stop offset="1" stop-color="#DA4B6A"/>
</linearGradient>
<linearGradient id="paint1_linear_15_37" x1="33.2486" y1="1470.04" x2="7573.72" y2="1470.04" gradientUnits="userSpaceOnUse">
<stop stop-color="#F7B3C5"/>
<stop offset="0.19" stop-color="#F7B0C2"/>
<stop offset="0.38" stop-color="#F6A4B6"/>
<stop offset="0.58" stop-color="#F390A5"/>
<stop offset="0.79" stop-color="#E7728B"/>
<stop offset="0.99" stop-color="#DC4D6C"/>
<stop offset="1" stop-color="#DA4B6A"/>
</linearGradient>
<radialGradient id="paint2_radial_15_37" cx="0" cy="0" r="1" gradientUnits="userSpaceOnUse" gradientTransform="translate(1984.23 1918.13) scale(3472.5 3472.51)">
<stop stop-color="#F7B3C5"/>
<stop offset="0.19" stop-color="#F7B0C2"/>
<stop offset="0.38" stop-color="#F6A4B6"/>
<stop offset="0.58" stop-color="#F390A5"/>
<stop offset="0.79" stop-color="#E7728B"/>
<stop offset="0.99" stop-color="#DC4D6C"/>
<stop offset="1" stop-color="#DA4B6A"/>
</radialGradient>
<radialGradient id="paint3_radial_15_37" cx="0" cy="0" r="1" gradientUnits="userSpaceOnUse" gradientTransform="translate(3942.75 3958.1) scale(4295.39 4295.4)">
<stop stop-color="#F7B3C5"/>
<stop offset="0.19" stop-color="#F7B0C2"/>
<stop offset="0.38" stop-color="#F6A4B6"/>
<stop offset="0.58" stop-color="#F390A5"/>
<stop offset="0.79" stop-color="#E7728B"/>
<stop offset="0.99" stop-color="#DC4D6C"/>
<stop offset="1" stop-color="#DA4B6A"/>
</radialGradient>
<linearGradient id="paint4_linear_15_37" x1="159.375" y1="2727.5" x2="5686" y2="2727.5" gradientUnits="userSpaceOnUse">
<stop stop-color="#DA4B6A"/>
<stop offset="0.01" stop-color="#DC4D6C"/>
<stop offset="0.21" stop-color="#E7728B"/>
<stop offset="0.42" stop-color="#F390A5"/>
<stop offset="0.62" stop-color="#F6A4B6"/>
<stop offset="0.81" stop-color="#F7B0C2"/>
<stop offset="1" stop-color="#F7B3C5"/>
</linearGradient>
<linearGradient id="paint5_linear_15_37" x1="154.907" y1="1470.8" x2="7696.15" y2="1470.8" gradientUnits="userSpaceOnUse">
<stop stop-color="#DA4B6A"/>
<stop offset="0.01" stop-color="#DC4D6C"/>
<stop offset="0.21" stop-color="#E7728B"/>
<stop offset="0.42" stop-color="#F390A5"/>
<stop offset="0.62" stop-color="#F6A4B6"/>
<stop offset="0.81" stop-color="#F7B0C2"/>
<stop offset="1" stop-color="#F7B3C5"/>
</linearGradient>
<radialGradient id="paint6_radial_15_37" cx="0" cy="0" r="1" gradientUnits="userSpaceOnUse" gradientTransform="translate(2137.53 1917.43) scale(3472.51 3472.48)">
<stop stop-color="#F7B3C5"/>
<stop offset="0.19" stop-color="#F7B0C2"/>
<stop offset="0.38" stop-color="#F6A4B6"/>
<stop offset="0.58" stop-color="#F390A5"/>
<stop offset="0.79" stop-color="#E7728B"/>
<stop offset="0.99" stop-color="#DC4D6C"/>
<stop offset="1" stop-color="#DA4B6A"/>
</radialGradient>
<clipPath id="clip0_15_37">
<rect width="200" height="200" fill="white" transform="translate(31 28)"/>
</clipPath>
</defs>
</svg>
