<svg width="256" height="256" viewBox="0 0 256 256" fill="none" xmlns="http://www.w3.org/2000/svg">
<rect width="256" height="256" rx="50" fill="#242938"/>
<g clip-path="url(#clip0_15_38)">
<path d="M229.164 110.109C234.084 129.271 212.95 151.711 186.518 145.353C220.184 120.867 204.792 89.5023 186.999 74.4562C167.706 58.1375 186.384 52.9094 192.606 58.8172C192.456 46.8977 150.489 49.5914 187.197 87.8672C206.056 107.527 183.809 151.016 157.305 117.945C157.087 117.645 156.888 117.331 156.713 117.005C160.993 115.228 164.508 110.394 164.508 102.432C164.55 99.6135 163.99 96.8184 162.865 94.2336C165.929 87.9938 168.741 80.5383 168.741 71.2023C168.741 48.8875 154.264 29 133.992 29C113.719 29 99.2438 48.8883 99.2438 71.2016C99.2438 80.5375 102.063 88.0016 105.127 94.2414C103.998 96.8307 103.438 99.632 103.484 102.456C103.484 110.417 106.991 115.252 111.279 117.029C111.101 117.355 110.9 117.67 110.679 117.969C84.175 151.039 61.9211 107.543 80.7875 87.8906C117.502 49.6148 75.5195 46.9297 75.3695 58.8406C81.593 52.9406 100.278 58.1688 80.9766 74.4797C63.1844 89.4867 47.8078 120.859 81.4586 145.377C55.0336 151.735 33.9086 129.295 38.8125 110.134C30.2359 125.93 36.5937 155.802 70.6391 161.569C34.3977 169.886 45.3039 219.93 70.8211 211.921C48.9367 210.634 51.3695 185.445 60.2227 177.863C70.0156 169.467 82.3984 175.383 104.977 171.599C104.732 191.93 124.531 202.854 114.146 214.496C103.145 226.818 88.0844 213.509 90.4062 201.401C79.9031 223.137 109.81 240.435 122.92 215.191C133.021 195.77 106.178 160.691 133.977 160.691C161.775 160.691 134.924 195.73 145.033 215.191C158.142 240.466 188.05 223.137 177.546 201.401C179.845 213.517 164.808 226.818 153.815 214.496C143.477 202.823 163.221 191.898 163.007 171.568C185.577 175.352 197.961 169.427 207.746 177.831C216.615 185.414 219.039 210.602 197.155 211.89C222.712 219.93 233.61 169.877 197.353 161.537C231.375 155.779 237.741 125.898 229.164 110.109Z" fill="#FF0000"/>
<path d="M60.6406 179.38C70.4258 170.984 81.6641 178.329 105 171.568C105 171.568 105.324 165.328 105.625 160.7C98.5172 166.055 85.518 165.359 74.6672 166.948C38.9547 172.184 46.8836 215.08 70.8211 211.921C53.107 209.015 51.7805 186.97 60.6414 179.38" fill="url(#paint0_linear_15_38)"/>
<path d="M106.998 148.638C110.948 142.533 111.438 132.691 103.453 141.641C76.475 171.868 29.6672 147.17 38.8359 110.117C28.9648 123.521 33.7031 158.567 70.6625 161.545C79.9422 158.464 99.0461 160.849 106.998 148.638Z" fill="url(#paint1_linear_15_38)"/>
<path d="M81.4664 145.353C81.4664 145.353 90.943 144.381 97.0875 137.162C72.1078 146.451 51.6141 106.16 82.8719 78.9266C107.18 57.7734 82.4375 49.4336 75.3461 58.8172C77.9602 56.2344 99.1406 57.6953 79.8398 74.0133C62.0781 89.0602 43.2586 120.298 81.4664 145.353Z" fill="url(#paint2_radial_15_38)"/>
<path d="M151.959 218.572C141.558 206.93 151.959 196.416 153.87 178.069C155.134 165.691 150.513 152.003 134 152.003C117.487 152.003 112.859 165.715 114.13 178.069C116.018 196.416 126.434 206.93 116.041 218.572C105.048 230.886 84.4914 218.051 90.4297 201.369C75.8125 225.641 112.914 240.752 126.023 215.515C136.117 196.085 106.201 162.034 134 162.034C161.799 162.034 131.883 196.085 141.977 215.515C155.086 240.751 192.18 225.641 177.562 201.369C183.493 218.051 162.952 230.878 151.959 218.572Z" fill="url(#paint3_radial_15_38)"/>
<path d="M193.333 166.955C182.474 165.376 169.467 166.055 162.375 160.7C162.684 165.328 163 171.576 163 171.576C186.328 178.329 197.566 170.976 207.352 179.38C216.212 186.963 214.885 209.015 197.14 211.89C221.109 215.08 229.045 172.184 193.333 166.955Z" fill="url(#paint4_linear_15_38)"/>
<path d="M229.164 110.109C238.333 147.154 191.525 171.868 164.539 141.625C156.555 132.676 157.021 142.525 161.002 148.63C168.954 160.841 188.05 158.456 197.33 161.537C234.297 158.567 239.035 123.513 229.164 110.109Z" fill="url(#paint5_linear_15_38)"/>
<path d="M170.913 137.162C177.057 144.381 186.526 145.353 186.526 145.353C224.734 120.33 205.914 89.0523 188.105 74.0133C168.796 57.6953 189.977 56.2344 192.591 58.8172C185.483 49.4336 160.756 57.7742 185.065 78.9266C216.377 106.161 195.884 146.45 170.913 137.162Z" fill="url(#paint6_radial_15_38)"/>
<path opacity="0.3" d="M144.266 56.7633C144.266 62.9242 134 62.9242 134 56.7633C134 50.6023 144.266 50.6102 144.266 56.7633ZM128.101 62.4031C128.101 66.6445 121.048 66.6445 121.048 62.4031C121.048 58.1609 128.101 58.1609 128.101 62.4031ZM132.602 42.8938C132.602 47.143 125.542 47.143 125.542 42.8938C125.542 38.6438 132.602 38.6836 132.602 42.8938ZM117.897 72.9953C117.897 75.1195 114.367 75.1195 114.367 72.9953C114.367 70.8703 117.897 70.8703 117.897 72.9953ZM118.569 52.143C118.569 55.0805 113.688 55.0805 113.688 52.143C113.688 49.2047 118.569 49.2125 118.569 52.143ZM132.602 77.9789C132.602 80.9242 127.722 80.9242 127.722 77.9789C127.722 75.0328 132.602 75.0563 132.602 77.9789Z" fill="#4B1313"/>
<path d="M121.459 102.432C121.459 113.633 108.76 113.633 108.76 102.432C108.76 91.232 121.459 91.232 121.459 102.432Z" fill="#302D3B"/>
<path d="M114.952 99.5812C114.976 99.8521 114.943 100.125 114.856 100.383C114.769 100.64 114.63 100.877 114.446 101.078C114.263 101.278 114.039 101.439 113.791 101.548C113.542 101.658 113.273 101.715 113.001 101.715C112.729 101.715 112.46 101.658 112.211 101.548C111.962 101.439 111.739 101.278 111.555 101.078C111.372 100.877 111.232 100.64 111.145 100.383C111.058 100.125 111.026 99.8521 111.05 99.5812C111.026 99.3104 111.058 99.0375 111.145 98.7798C111.232 98.5222 111.372 98.2855 111.555 98.0848C111.739 97.8841 111.962 97.7238 112.211 97.6142C112.46 97.5045 112.729 97.4479 113.001 97.4479C113.273 97.4479 113.542 97.5045 113.791 97.6142C114.039 97.7238 114.263 97.8841 114.446 98.0848C114.63 98.2855 114.769 98.5222 114.856 98.7798C114.943 99.0375 114.976 99.3104 114.952 99.5812Z" fill="#6F828A"/>
<path d="M159.272 102.432C159.272 113.633 146.573 113.633 146.573 102.432C146.573 91.232 159.272 91.232 159.272 102.432Z" fill="#302D3B"/>
<path d="M152.725 99.5812C152.749 99.8521 152.717 100.125 152.63 100.383C152.543 100.64 152.403 100.877 152.22 101.078C152.036 101.278 151.813 101.439 151.564 101.548C151.315 101.658 151.046 101.715 150.774 101.715C150.502 101.715 150.233 101.658 149.984 101.548C149.736 101.439 149.512 101.278 149.329 101.078C149.145 100.877 149.006 100.64 148.919 100.383C148.832 100.125 148.799 99.8521 148.823 99.5812C148.799 99.3104 148.832 99.0375 148.919 98.7798C149.006 98.5222 149.145 98.2855 149.329 98.0848C149.512 97.8841 149.736 97.7238 149.984 97.6142C150.233 97.5045 150.502 97.4479 150.774 97.4479C151.046 97.4479 151.315 97.5045 151.564 97.6142C151.813 97.7238 152.036 97.8841 152.22 98.0848C152.403 98.2855 152.543 98.5222 152.63 98.7798C152.717 99.0375 152.749 99.3104 152.725 99.5812Z" fill="#6F828A"/>
<path d="M128.101 124.722C128.101 131.104 127.572 136.27 126.963 136.27C126.355 136.27 125.866 131.104 125.873 124.73C125.881 118.355 126.402 113.182 127.019 113.182C127.634 113.182 128.116 118.34 128.101 124.722Z" fill="#9E1C20"/>
<path d="M134.205 138.276C134.668 138.276 135.043 132.204 135.043 124.714C135.043 117.224 134.668 111.152 134.205 111.152C133.743 111.152 133.368 117.224 133.368 124.714C133.368 132.204 133.743 138.276 134.205 138.276Z" fill="#9E1C20"/>
<path d="M142.119 124.572C142.119 130.796 141.613 135.843 141.013 135.843C140.413 135.843 139.963 130.812 139.97 124.58C139.978 118.348 140.491 113.309 141.076 113.309C141.66 113.309 142.142 118.348 142.119 124.572Z" fill="#9E1C20"/>
<path d="M189.503 142.359C188.192 140.622 195.821 134.888 197.148 136.633C198.474 138.378 190.806 144.105 189.503 142.359Z" fill="#F389A4"/>
<path d="M191.398 141.285C190.806 140.495 194.984 137.336 195.584 138.126C196.184 138.915 191.998 142.083 191.398 141.285Z" fill="#E34E70"/>
<path d="M194.02 134.721C192.441 133.205 198.245 127.241 199.809 128.758C201.373 130.274 195.552 136.246 194.02 134.721Z" fill="#F389A4"/>
<path d="M195.505 133.56C194.786 132.865 197.961 129.611 198.664 130.298C199.367 130.986 196.216 134.255 195.505 133.56Z" fill="#E34E70"/>
<path d="M202.242 123.656C200.156 123.016 202.581 115.062 204.666 115.702C206.752 116.342 204.287 124.303 202.241 123.655" fill="#F7B3C5"/>
<path d="M203.055 121.934C202.099 121.641 203.434 117.298 204.373 117.582C205.313 117.866 203.995 122.226 203.055 121.934Z" fill="#E34E70"/>
<path d="M180.911 142.067C179.987 140.092 188.366 136.175 189.282 138.157C190.198 140.14 181.827 144.041 180.911 142.067Z" fill="#F389A4"/>
<path d="M182.964 141.435C182.545 140.527 187.118 138.387 187.545 139.287C187.971 140.188 183.335 142.336 182.964 141.435Z" fill="#E34E70"/>
<path d="M201.918 130.804C200.094 129.627 204.611 122.637 206.427 123.83C208.244 125.022 203.758 131.988 201.918 130.804Z" fill="#F7B3C5"/>
<path d="M203.189 129.374C202.352 128.829 204.824 125.015 205.653 125.552C206.482 126.088 204.019 129.911 203.189 129.374Z" fill="#E34E70"/>
<path d="M168.203 153.306C169.048 151.15 176.891 154.238 176.102 156.403C175.311 158.567 167.351 155.471 168.203 153.306Z" fill="#F389A4"/>
<path d="M169.878 154.263C170.265 153.275 174.569 154.973 174.191 155.952C173.811 156.932 169.483 155.273 169.878 154.263Z" fill="#E34E70"/>
<path d="M179.252 155.842C179.845 153.148 187.94 154.941 187.355 157.635C186.77 160.328 178.652 158.535 179.252 155.842Z" fill="#F389A4"/>
<path d="M181.013 156.632C181.29 155.392 185.752 156.379 185.452 157.603C185.152 158.827 180.737 157.816 181.013 156.632Z" fill="#E34E70"/>
<path d="M161.348 143.923C163.339 141.728 170.178 147.959 168.196 150.139C166.213 152.319 159.359 146.111 161.348 143.923Z" fill="#F389A4"/>
<path d="M162.644 145.574C163.56 144.571 167.295 147.983 166.387 148.978C165.479 149.973 161.736 146.609 162.644 145.574Z" fill="#E34E70"/>
<path d="M190.159 158.867C190.159 156.987 197.171 157.13 197.132 159.009C197.093 160.889 190.111 160.755 190.159 158.867Z" fill="#F7B3C5"/>
<path d="M191.722 159.144C191.722 158.275 195.552 158.354 195.545 159.206C195.537 160.06 191.706 159.997 191.722 159.144Z" fill="#E34E70"/>
<path d="M164.255 166.268C164.847 163.575 172.942 165.368 172.366 168.061C171.789 170.755 163.662 168.962 164.255 166.268Z" fill="#F389A4"/>
<path d="M166.016 167.019C166.292 165.778 170.755 166.758 170.455 167.99C170.155 169.222 165.74 168.235 166.016 167.019" fill="#E34E70"/>
<path d="M129.072 157.477C129.072 154.72 138.88 154.586 138.92 157.351C138.959 160.115 129.112 160.241 129.072 157.477" fill="#F389A4"/>
<path d="M131.307 157.801C131.307 156.538 136.67 156.466 136.693 157.722C136.716 158.978 131.323 159.057 131.307 157.801Z" fill="#E34E70"/>
<path d="M141.779 160.779C143.698 158.796 149.677 164.602 147.726 166.576C145.775 168.551 139.86 162.761 141.779 160.779Z" fill="#F389A4"/>
<path d="M142.877 162.342C143.769 161.434 147.015 164.609 146.146 165.502C145.277 166.395 142.008 163.235 142.877 162.342Z" fill="#E34E70"/>
<path d="M151.28 168.622C154.028 168.772 153.57 177.073 150.813 176.923C148.057 176.773 148.523 168.48 151.28 168.622Z" fill="#F7B3C5"/>
<path d="M150.821 170.478C152.085 170.548 151.832 175.091 150.584 175.02C149.337 174.949 149.566 170.407 150.821 170.478Z" fill="#E34E70"/>
<path d="M146.549 177.002C149.25 177.555 147.591 185.69 144.891 185.161C142.19 184.632 143.848 176.458 146.549 177.002Z" fill="#F7B3C5"/>
<path d="M145.846 178.748C147.086 179.009 146.178 183.487 144.946 183.218C143.714 182.95 144.606 178.527 145.846 178.748Z" fill="#E34E70"/>
<path d="M149.219 185.666C151.92 186.22 150.261 194.355 147.56 193.818C144.859 193.281 146.518 185.122 149.219 185.666Z" fill="#F7B3C5"/>
<path d="M148.5 187.436C149.74 187.689 148.839 192.175 147.599 191.898C146.359 191.622 147.276 187.184 148.5 187.436Z" fill="#E34E70"/>
<path d="M143.034 194.703C145.727 195.248 144.077 203.391 141.377 202.846C138.675 202.301 140.318 194.15 143.034 194.702" fill="#F7B3C5"/>
<path d="M142.308 196.472C143.555 196.733 142.648 201.211 141.416 200.934C140.184 200.658 141.108 196.22 142.308 196.472Z" fill="#E34E70"/>
<path d="M144.566 204.228C147.315 204.331 147.007 212.64 144.251 212.538C141.495 212.435 141.802 204.126 144.566 204.228Z" fill="#F7B3C5"/>
<path d="M144.141 206.1C145.412 206.155 145.238 210.697 143.982 210.65C142.727 210.602 142.892 206.053 144.141 206.1Z" fill="#E34E70"/>
<path d="M143.192 215.997C145.333 214.259 149.716 219.662 147.567 221.4C145.42 223.138 141.052 217.727 143.192 215.997Z" fill="#F7B3C5"/>
<path d="M143.911 217.45C144.898 216.661 147.291 219.614 146.28 220.405C145.27 221.194 142.94 218.241 143.911 217.45Z" fill="#E34E70"/>
<path d="M150.411 221.116C151.516 219.109 156.571 221.905 155.466 223.895C154.359 225.886 149.305 223.122 150.411 221.116Z" fill="#F389A4"/>
<path d="M151.414 222C151.92 221.076 154.684 222.6 154.186 223.508C153.688 224.417 150.909 222.916 151.414 222Z" fill="#E34E70"/>
<path d="M156.792 227.229C156.958 225.151 161.917 225.554 161.744 227.631C161.57 229.709 156.619 229.298 156.792 227.229Z" fill="#F389A4"/>
<path d="M157.89 227.577C157.968 226.628 160.677 226.842 160.606 227.79C160.536 228.738 157.811 228.509 157.89 227.577Z" fill="#E34E70"/>
<path d="M163.727 225.988C163.284 224.141 167.674 223.074 168.133 224.923C168.591 226.77 164.176 227.837 163.727 225.988Z" fill="#F389A4"/>
<path d="M164.8 225.973C164.602 225.136 167.011 224.551 167.216 225.38C167.422 226.21 164.982 226.818 164.8 225.973Z" fill="#E34E70"/>
<path d="M170.375 226.139C169.648 224.377 173.842 222.639 174.561 224.401C175.28 226.162 171.118 227.861 170.376 226.139" fill="#F389A4"/>
<path d="M171.41 225.926C171.086 225.136 173.377 224.18 173.708 224.97C174.04 225.759 171.741 226.731 171.41 225.926Z" fill="#E34E70"/>
<path d="M174.119 221.447C172.728 220.152 175.825 216.827 177.207 218.122C178.589 219.417 175.509 222.742 174.119 221.447Z" fill="#F389A4"/>
<path d="M174.995 220.855C174.363 220.255 176.046 218.438 176.677 219.03C177.309 219.623 175.627 221.447 174.995 220.855Z" fill="#E34E70"/>
<path d="M179.228 215.508C177.404 214.986 178.668 210.618 180.492 211.155C182.316 211.692 181.045 216.045 179.228 215.508Z" fill="#F389A4"/>
<path d="M179.742 214.591C178.952 214.346 179.599 211.961 180.429 212.222C181.258 212.482 180.595 214.844 179.741 214.591" fill="#E34E70"/>
<path d="M174.34 172.879C174.577 170.138 182.853 170.849 182.609 173.605C182.364 176.362 174.095 175.636 174.34 172.879Z" fill="#F389A4"/>
<path d="M176.18 173.392C176.298 172.129 180.816 172.531 180.705 173.78C180.595 175.027 176.07 174.641 176.18 173.392Z" fill="#E34E70"/>
<path d="M184.275 169.988C184.33 167.279 192.63 167.445 192.567 170.162C192.505 172.879 184.212 172.705 184.275 169.988Z" fill="#F7B3C5"/>
<path d="M186.123 170.375C186.123 169.127 190.687 169.23 190.664 170.463C190.641 171.695 186.123 171.639 186.123 170.375Z" fill="#E34E70"/>
<path d="M193.68 173.424C194.273 170.818 201.507 172.469 200.891 175.091C200.275 177.713 193.073 176.046 193.68 173.424Z" fill="#F7B3C5"/>
<path d="M195.237 174.135C195.513 172.942 199.462 173.851 199.185 175.035C198.909 176.22 194.96 175.335 195.237 174.135Z" fill="#E34E70"/>
<path d="M203.727 173.622C204.95 171.252 210.992 174.348 209.752 176.781C208.512 179.214 202.502 176.015 203.727 173.622Z" fill="#FACFDA"/>
<path d="M204.934 174.633C205.503 173.534 208.788 175.248 208.244 176.323C207.698 177.397 204.373 175.723 204.934 174.633Z" fill="#E34E70"/>
<path d="M210.091 180.461C212.09 179.561 214.38 184.633 212.374 185.533C210.368 186.433 208.085 181.37 210.091 180.462" fill="#FACFDA"/>
<path d="M210.352 181.734C211.268 181.315 212.516 184.103 211.616 184.498C210.716 184.893 209.436 182.136 210.352 181.734" fill="#E34E70"/>
<path d="M215.691 186.583C217.878 186.583 217.862 192.152 215.691 192.112C213.519 192.073 213.495 186.575 215.691 186.583Z" fill="#FACFDA"/>
<path d="M215.398 187.847C216.417 187.847 216.402 190.888 215.398 190.888C214.395 190.888 214.403 187.839 215.398 187.847Z" fill="#E34E70"/>
<path d="M213.551 193.755C215.502 194.11 214.585 199.095 212.627 198.723C210.668 198.352 211.584 193.415 213.551 193.755Z" fill="#FACFDA"/>
<path d="M213.084 194.861C213.993 195.034 213.488 197.752 212.595 197.586C211.702 197.42 212.184 194.695 213.084 194.861Z" fill="#E34E70"/>
<path d="M213.764 200.966C215.343 201.843 213.1 205.84 211.521 204.916C209.941 203.991 212.184 200.073 213.763 200.966" fill="#FACFDA"/>
<path d="M213.084 201.748C213.803 202.159 212.579 204.339 211.86 203.928C211.141 203.517 212.358 201.345 213.084 201.748Z" fill="#E34E70"/>
<path d="M209.073 206.273C210.17 207.341 207.454 210.137 206.356 209.055C205.259 207.972 207.975 205.192 209.073 206.273Z" fill="#FACFDA"/>
<path d="M208.323 206.764C208.828 207.261 207.335 208.778 206.838 208.288C206.34 207.798 207.817 206.274 208.323 206.764Z" fill="#E34E70"/>
<path d="M198.53 157.73C197.905 155.099 205.985 153.18 206.616 155.827C207.248 158.472 199.162 160.384 198.53 157.73Z" fill="#F7B3C5"/>
<path d="M200.448 157.643C200.164 156.427 204.571 155.384 204.863 156.584C205.155 157.785 200.724 158.844 200.448 157.643Z" fill="#E34E70"/>
<path d="M208.883 158.441C208.094 156.19 215.927 153.441 216.717 155.7C217.507 157.959 209.665 160.708 208.883 158.441Z" fill="#FACFDA"/>
<path d="M210.755 158.109C210.391 157.066 214.704 155.573 215.044 156.6C215.383 157.627 211.118 159.145 210.755 158.109Z" fill="#E34E70"/>
<path d="M215.952 152.533C214.372 150.755 220.5 145.171 222.112 146.941C223.723 148.709 217.555 154.302 215.952 152.533Z" fill="#FACFDA"/>
<path d="M217.547 151.49C216.813 150.701 220.184 147.627 220.911 148.425C221.637 149.223 218.281 152.295 217.547 151.49Z" fill="#E34E70"/>
<path d="M226.005 146.806C224.007 145.479 228.627 138.56 230.617 139.887C232.607 141.214 227.979 148.133 226.005 146.806Z" fill="#FACFDA"/>
<path d="M227.292 145.408C226.384 144.792 228.911 141.025 229.811 141.617C230.712 142.209 228.2 146.008 227.292 145.408Z" fill="#E34E70"/>
<path d="M228.84 136.941C226.598 136.096 229.551 128.323 231.777 129.161C234.005 129.998 231.066 137.794 228.84 136.941Z" fill="#FACFDA"/>
<path d="M229.788 135.306C228.761 134.911 230.38 130.662 231.367 131.048C232.354 131.436 230.806 135.677 229.788 135.306Z" fill="#E34E70"/>
<path d="M232.97 126.207C231.217 126.405 230.546 120.291 232.298 120.094C234.052 119.896 234.731 126.009 232.97 126.207Z" fill="#FACFDA"/>
<path d="M233.041 124.801C232.252 124.88 231.88 121.539 232.67 121.46C233.459 121.381 233.847 124.706 233.041 124.801Z" fill="#E34E70"/>
<path d="M207.659 117.313C205.503 117.052 206.514 108.791 208.67 109.067C210.827 109.344 209.815 117.581 207.659 117.313Z" fill="#F7B3C5"/>
<path d="M208.164 115.48C207.17 115.363 207.73 110.845 208.709 110.963C209.689 111.081 209.152 115.599 208.165 115.48" fill="#E34E70"/>
<path d="M204.43 110.702C202.266 110.884 201.594 102.591 203.773 102.416C205.953 102.243 206.609 110.528 204.43 110.702Z" fill="#F7B3C5"/>
<path d="M204.555 108.798C203.56 108.877 203.205 104.352 204.192 104.265C205.179 104.178 205.551 108.727 204.555 108.798" fill="#E34E70"/>
<path d="M206.759 100.387C204.784 101.295 201.334 93.7359 203.316 92.8281C205.298 91.9195 208.749 99.4859 206.759 100.387Z" fill="#F7B3C5"/>
<path d="M206.23 98.5625C205.33 98.9726 203.442 94.85 204.334 94.4312C205.227 94.0125 207.138 98.1836 206.23 98.5625Z" fill="#E34E70"/>
<path d="M200.188 94.3047C198.411 95.3 194.66 88.5391 196.445 87.5516C198.23 86.5641 201.98 93.3094 200.188 94.3047Z" fill="#F7B3C5"/>
<path d="M199.548 92.6539C198.759 93.1125 196.689 89.4234 197.503 88.9656C198.316 88.507 200.386 92.1961 199.548 92.6539Z" fill="#E34E70"/>
<path d="M198.972 85.9719C197.456 87.157 193.097 81.5648 194.628 80.3719C196.16 79.1789 200.512 84.7555 198.972 85.9719Z" fill="#F7B3C5"/>
<path d="M198.182 84.55C197.487 85.0953 195.102 82.0383 195.813 81.4938C196.524 80.9484 198.885 84.0055 198.182 84.55Z" fill="#E34E70"/>
<path d="M191.651 82.568C190.19 83.8391 185.563 78.468 187.031 77.2047C188.5 75.9406 193.096 81.3039 191.651 82.568Z" fill="#F7B3C5"/>
<path d="M190.759 81.193C190.095 81.7781 187.6 78.8234 188.231 78.2633C188.863 77.7023 191.438 80.6164 190.759 81.193Z" fill="#E34E70"/>
<path d="M188.327 75.4117C187.007 76.5492 183.225 72.157 184.552 71.0203C185.878 69.8828 189.653 74.2664 188.327 75.4109" fill="#F7B3C5"/>
<path d="M187.639 74.2656C187.031 74.7875 184.962 72.3867 185.57 71.8969C186.178 71.407 188.239 73.7531 187.639 74.2664" fill="#E34E70"/>
<path d="M181.984 73.9977C180.5 74.8984 177.491 69.9461 178.992 69.0375C180.492 68.1289 183.493 73.0805 181.984 73.9977Z" fill="#F389A4"/>
<path d="M181.495 72.7578C180.823 73.1688 179.173 70.4672 179.852 70.0484C180.532 69.6297 182.174 72.3469 181.495 72.7578Z" fill="#E34E70"/>
<path d="M181.384 68.05C179.718 68.5398 178.431 64.243 180.113 63.7453C181.795 63.2477 183.043 67.5445 181.384 68.05Z" fill="#F389A4"/>
<path d="M181.273 67.0078C180.484 67.2367 179.812 64.8828 180.579 64.6383C181.345 64.393 182.04 66.7789 181.274 67.0078" fill="#E34E70"/>
<path d="M176.764 63.2641C175.122 62.6875 176.606 58.4531 178.257 59.0375C179.908 59.6227 178.414 63.8563 176.764 63.2641Z" fill="#F389A4"/>
<path d="M177.309 62.3789C176.52 62.1266 177.372 59.8039 178.098 60.0727C178.825 60.3414 178.059 62.6398 177.309 62.3789Z" fill="#E34E70"/>
<path d="M180.942 58.3672C180.666 56.6445 185.088 55.95 185.364 57.6797C185.641 59.4094 181.211 60.1125 180.942 58.3672Z" fill="#F389A4"/>
<path d="M181.977 58.4297C181.85 57.6406 184.275 57.2688 184.393 58.0508C184.512 58.832 182.103 59.2195 181.977 58.4297Z" fill="#E34E70"/>
<path d="M78.5047 142.359C79.8078 140.622 72.1867 134.888 70.8523 136.633C69.518 138.378 77.1937 144.105 78.5047 142.359Z" fill="#F389A4"/>
<path d="M76.6016 141.285C77.1937 140.495 73.0156 137.336 72.4164 138.126C71.8156 138.915 76.0016 142.083 76.6016 141.285Z" fill="#E34E70"/>
<path d="M73.9797 134.721C75.5594 133.205 69.7547 127.241 68.1906 128.758C66.6273 130.274 72.4477 136.246 73.9797 134.721Z" fill="#F389A4"/>
<path d="M72.4953 133.56C73.2141 132.865 70.0391 129.611 69.3359 130.298C68.6328 130.986 71.7844 134.255 72.4953 133.56Z" fill="#E34E70"/>
<path d="M65.7578 123.656C67.8438 123.016 65.4188 115.062 63.3344 115.702C61.2484 116.342 63.7133 124.303 65.7586 123.655" fill="#F7B3C5"/>
<path d="M64.9453 121.934C65.9008 121.641 64.5664 117.298 63.6266 117.582C62.6867 117.866 64.0055 122.226 64.9453 121.934Z" fill="#E34E70"/>
<path d="M87.0976 142.067C88.0133 140.092 79.6344 136.175 78.718 138.157C77.8023 140.14 86.1734 144.041 87.0976 142.067Z" fill="#F389A4"/>
<path d="M85.0758 141.435C85.4945 140.527 80.9219 138.387 80.4953 139.287C80.0687 140.188 84.6648 142.336 85.0758 141.435Z" fill="#E34E70"/>
<path d="M66.082 130.804C67.9062 129.627 63.3891 122.637 61.5727 123.83C59.7562 125.022 64.2422 131.988 66.082 130.804Z" fill="#F7B3C5"/>
<path d="M64.8109 129.374C65.6477 128.829 63.1758 125.015 62.3469 125.552C61.518 126.088 63.9812 129.911 64.8109 129.374Z" fill="#E34E70"/>
<path d="M100.167 153.07C99.2359 150.7 90.3508 154.176 91.2828 156.569C92.2148 158.962 101.107 155.455 100.167 153.07Z" fill="#F389A4"/>
<path d="M98.2797 154.167C97.8453 153.07 92.9891 154.957 93.407 156.071C93.8258 157.185 98.7062 155.25 98.2797 154.167Z" fill="#E34E70"/>
<path d="M88.7477 155.842C88.1555 153.148 80.0602 154.941 80.6453 157.635C81.2297 160.328 89.3484 158.535 88.7477 155.842Z" fill="#F389A4"/>
<path d="M86.9867 156.632C86.7102 155.392 82.2484 156.379 82.5484 157.603C82.8484 158.827 87.2633 157.816 86.9867 156.632Z" fill="#E34E70"/>
<path d="M106.652 143.923C104.661 141.728 97.8219 147.959 99.8039 150.139C101.787 152.319 108.641 146.111 106.652 143.923Z" fill="#F389A4"/>
<path d="M105.356 145.574C104.44 144.571 100.705 147.983 101.613 148.978C102.521 149.973 106.264 146.609 105.356 145.574Z" fill="#E34E70"/>
<path d="M79.0102 158.654C78.9555 156.632 71.7922 156.734 71.8555 158.765C71.918 160.795 79.0656 160.691 79.0102 158.654Z" fill="#F7B3C5"/>
<path d="M77.3992 158.938C77.3992 158.006 73.4508 158.077 73.4508 158.993C73.4508 159.91 77.4226 159.87 77.3992 158.938Z" fill="#E34E70"/>
<path d="M103.745 166.268C103.153 163.575 95.0578 165.368 95.6344 168.061C96.2109 170.755 104.337 168.962 103.745 166.268Z" fill="#F389A4"/>
<path d="M101.984 167.019C101.708 165.778 97.2453 166.758 97.5453 167.99C97.8453 169.222 102.261 168.235 101.984 167.019Z" fill="#E34E70"/>
<path d="M126.648 161.292C125.068 159.033 118.26 163.796 119.84 166.031C121.42 168.266 128.227 163.559 126.648 161.292Z" fill="#F389A4"/>
<path d="M125.312 162.659C124.578 161.623 120.867 164.238 121.578 165.257C122.288 166.276 126.023 163.685 125.312 162.659Z" fill="#E34E70"/>
<path d="M116.72 168.622C113.972 168.772 114.43 177.073 117.187 176.923C119.943 176.773 119.477 168.48 116.72 168.622Z" fill="#F7B3C5"/>
<path d="M117.179 170.478C115.915 170.548 116.168 175.091 117.416 175.02C118.663 174.949 118.434 170.407 117.179 170.478Z" fill="#E34E70"/>
<path d="M121.451 177.002C118.75 177.555 120.409 185.69 123.109 185.161C125.81 184.632 124.152 176.458 121.451 177.002Z" fill="#F7B3C5"/>
<path d="M122.154 178.748C120.914 179.009 121.822 183.487 123.054 183.218C124.286 182.95 123.394 178.527 122.154 178.748Z" fill="#E34E70"/>
<path d="M118.781 185.666C116.08 186.22 117.739 194.355 120.44 193.818C123.141 193.281 121.483 185.122 118.782 185.666" fill="#F7B3C5"/>
<path d="M119.5 187.436C118.26 187.689 119.161 192.175 120.401 191.898C121.641 191.622 120.724 187.184 119.5 187.436Z" fill="#E34E70"/>
<path d="M124.966 194.703C122.273 195.248 123.923 203.391 126.623 202.846C129.325 202.301 127.682 194.15 124.966 194.702" fill="#F7B3C5"/>
<path d="M125.692 196.472C124.445 196.733 125.352 201.211 126.584 200.934C127.816 200.658 126.892 196.22 125.692 196.472Z" fill="#E34E70"/>
<path d="M123.434 204.228C120.693 204.331 120.993 212.64 123.749 212.538C126.505 212.435 126.198 204.126 123.434 204.228Z" fill="#F7B3C5"/>
<path d="M123.859 206.1C122.588 206.155 122.762 210.697 124.018 210.65C125.273 210.602 125.108 206.053 123.859 206.1Z" fill="#E34E70"/>
<path d="M124.808 215.997C122.667 214.259 118.284 219.662 120.433 221.4C122.58 223.138 126.948 217.727 124.808 215.997Z" fill="#F7B3C5"/>
<path d="M124.089 217.45C123.102 216.661 120.709 219.614 121.72 220.405C122.73 221.194 125.06 218.241 124.089 217.45Z" fill="#E34E70"/>
<path d="M117.589 221.116C116.484 219.109 111.429 221.905 112.534 223.895C113.641 225.886 118.695 223.122 117.589 221.116Z" fill="#F389A4"/>
<path d="M116.625 222C116.12 221.076 113.356 222.6 113.854 223.508C114.352 224.417 117.091 222.916 116.625 222Z" fill="#E34E70"/>
<path d="M111.208 227.229C111.042 225.151 106.083 225.554 106.256 227.631C106.43 229.709 111.381 229.298 111.208 227.229Z" fill="#F389A4"/>
<path d="M110.11 227.577C110.032 226.628 107.323 226.842 107.394 227.79C107.464 228.738 110.189 228.509 110.11 227.577Z" fill="#E34E70"/>
<path d="M104.273 225.988C104.716 224.141 100.326 223.074 99.8672 224.923C99.4094 226.77 103.824 227.837 104.273 225.988Z" fill="#F389A4"/>
<path d="M103.2 225.973C103.398 225.136 100.989 224.551 100.784 225.38C100.578 226.21 103.018 226.818 103.2 225.973Z" fill="#E34E70"/>
<path d="M97.625 226.139C98.3516 224.377 94.1578 222.639 93.4391 224.401C92.7203 226.162 96.8828 227.861 97.625 226.139Z" fill="#F389A4"/>
<path d="M96.5898 225.926C96.9141 225.136 94.6234 224.18 94.2922 224.97C93.9602 225.759 96.2586 226.731 96.5898 225.926Z" fill="#E34E70"/>
<path d="M93.8812 221.447C95.2719 220.152 92.175 216.827 90.793 218.122C89.4109 219.417 92.4914 222.742 93.8812 221.447Z" fill="#F389A4"/>
<path d="M93.0047 220.855C93.6367 220.255 91.9539 218.438 91.3227 219.03C90.6906 219.623 92.3727 221.447 93.0047 220.855Z" fill="#E34E70"/>
<path d="M88.7719 215.508C90.5961 214.986 89.332 210.618 87.5078 211.155C85.6836 211.692 86.9555 216.045 88.7719 215.508Z" fill="#F389A4"/>
<path d="M88.2578 214.591C89.0476 214.346 88.4008 211.961 87.5711 212.222C86.7422 212.482 87.4047 214.844 88.2578 214.591Z" fill="#E34E70"/>
<path d="M93.6602 172.879C93.4234 170.138 85.1469 170.849 85.3914 173.605C85.6359 176.362 93.9047 175.636 93.6602 172.879Z" fill="#F389A4"/>
<path d="M91.8203 173.392C91.7016 172.129 87.1844 172.531 87.2945 173.78C87.4055 175.027 91.9305 174.641 91.8203 173.392Z" fill="#E34E70"/>
<path d="M83.725 169.988C83.6703 167.279 75.3695 167.445 75.4328 170.162C75.4953 172.879 83.7883 172.705 83.725 169.988Z" fill="#F7B3C5"/>
<path d="M81.8773 170.375C81.8773 169.127 77.3125 169.23 77.3359 170.463C77.3594 171.695 81.8773 171.639 81.8773 170.375Z" fill="#E34E70"/>
<path d="M74.3195 173.424C73.7273 170.818 66.5008 172.469 67.1086 175.091C67.7172 177.713 74.9273 176.046 74.3195 173.424Z" fill="#F7B3C5"/>
<path d="M72.7633 174.135C72.4875 172.942 68.5383 173.851 68.8148 175.035C69.0914 176.22 73.0398 175.335 72.7633 174.135Z" fill="#E34E70"/>
<path d="M64.2734 173.622C63.05 171.252 57.0078 174.348 58.2484 176.781C59.4883 179.214 65.4984 176.015 64.2734 173.622Z" fill="#FACFDA"/>
<path d="M63.0656 174.633C62.4969 173.534 59.2117 175.248 59.7562 176.323C60.3016 177.397 63.6266 175.723 63.0656 174.633Z" fill="#E34E70"/>
<path d="M57.9086 180.461C55.9102 179.561 53.6195 184.633 55.6258 185.533C57.632 186.433 59.9149 181.37 57.9086 180.462" fill="#FACFDA"/>
<path d="M57.6484 181.734C56.732 181.315 55.4844 184.103 56.3844 184.498C57.2844 184.893 58.5641 182.136 57.6477 181.734" fill="#E34E70"/>
<path d="M52.3094 186.583C50.1219 186.583 50.1375 192.152 52.3094 192.112C54.4813 192.073 54.5047 186.575 52.3094 186.583Z" fill="#FACFDA"/>
<path d="M52.6016 187.847C51.5828 187.847 51.5984 190.888 52.6016 190.888C53.6047 190.888 53.6047 187.839 52.6016 187.847Z" fill="#E34E70"/>
<path d="M54.4492 193.755C52.4984 194.11 53.4148 199.095 55.3734 198.723C57.332 198.352 56.4156 193.415 54.4492 193.755Z" fill="#FACFDA"/>
<path d="M54.9156 194.861C54.007 195.034 54.5125 197.752 55.4047 197.586C56.2977 197.42 55.8156 194.695 54.9156 194.861Z" fill="#E34E70"/>
<path d="M54.2359 200.966C52.657 201.843 54.9 205.84 56.4789 204.916C58.0586 203.991 55.8148 200.073 54.2359 200.966Z" fill="#FACFDA"/>
<path d="M54.9156 201.748C54.1969 202.159 55.4211 204.339 56.1398 203.928C56.8586 203.517 55.6422 201.345 54.9156 201.748Z" fill="#E34E70"/>
<path d="M58.9273 206.273C57.8297 207.341 60.507 210.137 61.6437 209.055C62.7812 207.972 60.025 205.192 58.9273 206.273Z" fill="#FACFDA"/>
<path d="M59.6773 206.764C59.1719 207.261 60.6648 208.778 61.1617 208.288C61.6602 207.798 60.1828 206.274 59.6773 206.764Z" fill="#E34E70"/>
<path d="M69.4703 157.73C70.0945 155.099 62.0148 153.18 61.3836 155.827C60.7516 158.472 68.8383 160.384 69.4703 157.73Z" fill="#F7B3C5"/>
<path d="M67.5516 157.643C67.8359 156.427 63.4289 155.384 63.1367 156.584C62.8445 157.785 67.2758 158.844 67.5516 157.643Z" fill="#E34E70"/>
<path d="M59.1172 158.441C59.9063 156.19 52.0727 153.441 51.2828 155.7C50.493 157.959 58.3352 160.708 59.1172 158.441Z" fill="#FACFDA"/>
<path d="M57.2453 158.109C57.6086 157.066 53.2961 155.573 52.9562 156.6C52.6172 157.627 56.882 159.145 57.2453 158.109Z" fill="#E34E70"/>
<path d="M52.0484 152.533C53.6281 150.755 47.5 145.171 45.8883 146.941C44.2773 148.709 50.4453 154.302 52.0484 152.533Z" fill="#FACFDA"/>
<path d="M50.4531 151.49C51.1875 150.701 47.8156 147.627 47.0891 148.425C46.3625 149.223 49.7187 152.295 50.4531 151.49Z" fill="#E34E70"/>
<path d="M41.9953 146.806C43.993 145.479 39.3734 138.56 37.3828 139.887C35.393 141.214 40.0211 148.133 41.9953 146.806Z" fill="#FACFDA"/>
<path d="M40.7078 145.408C41.6164 144.792 39.1281 141.025 38.1891 141.617C37.2492 142.209 39.8 146.008 40.7078 145.408Z" fill="#E34E70"/>
<path d="M39.1602 136.941C41.4023 136.096 38.4492 128.323 36.2227 129.161C33.9953 129.998 36.9336 137.794 39.1602 136.941Z" fill="#FACFDA"/>
<path d="M38.2125 135.306C39.2391 134.911 37.6203 130.662 36.6328 131.048C35.6461 131.436 37.1938 135.677 38.2125 135.306Z" fill="#E34E70"/>
<path d="M35.0297 126.207C36.7828 126.405 37.4539 120.291 35.7015 120.094C33.9476 119.896 33.2687 126.009 35.0297 126.207Z" fill="#FACFDA"/>
<path d="M34.9586 124.801C35.7484 124.88 36.1195 121.539 35.3297 121.46C34.5406 121.381 34.1531 124.706 34.9586 124.801Z" fill="#E34E70"/>
<path d="M60.3406 117.313C62.4969 117.052 61.4859 108.791 59.3297 109.067C57.1734 109.344 58.1852 117.581 60.3406 117.313Z" fill="#F7B3C5"/>
<path d="M59.8359 115.48C60.8305 115.363 60.2695 110.845 59.2906 110.963C58.3109 111.081 58.8492 115.599 59.8359 115.48Z" fill="#E34E70"/>
<path d="M63.5703 110.702C65.7344 110.884 66.4062 102.591 64.2266 102.416C62.0469 102.243 61.3906 110.528 63.5703 110.702Z" fill="#F7B3C5"/>
<path d="M63.4453 108.798C64.4398 108.877 64.7953 104.352 63.8078 104.265C62.8211 104.178 62.45 108.727 63.4453 108.798Z" fill="#E34E70"/>
<path d="M61.2414 100.387C63.2156 101.295 66.6664 93.7359 64.6844 92.8281C62.7023 91.9195 59.2508 99.4859 61.2414 100.387Z" fill="#F7B3C5"/>
<path d="M61.7703 98.5625C62.6703 98.9726 64.5578 94.85 63.6656 94.4312C62.7734 94.0125 60.8625 98.1836 61.7703 98.5625Z" fill="#E34E70"/>
<path d="M67.8125 94.3047C69.5891 95.3 73.3398 88.5391 71.5547 87.5516C69.7703 86.5641 66.0195 93.3094 67.8125 94.3047Z" fill="#F7B3C5"/>
<path d="M68.4516 92.6539C69.2406 93.1125 71.3109 89.4234 70.4969 88.9656C69.6836 88.507 67.6141 92.1961 68.4516 92.6539Z" fill="#E34E70"/>
<path d="M69.0281 85.9719C70.5437 87.157 74.9031 81.5648 73.3719 80.3719C71.8398 79.1789 67.4883 84.7555 69.0281 85.9719Z" fill="#F7B3C5"/>
<path d="M69.818 84.55C70.5133 85.0953 72.8977 82.0383 72.1867 81.4938C71.4758 80.9484 69.1148 84.0055 69.818 84.55Z" fill="#E34E70"/>
<path d="M76.3492 82.568C77.8102 83.8391 82.4375 78.468 80.9687 77.2047C79.5 75.9406 74.9039 81.3039 76.3492 82.568Z" fill="#F7B3C5"/>
<path d="M77.2414 81.193C77.9055 81.7781 80.4 78.8234 79.7688 78.2633C79.1367 77.7023 76.5625 80.6164 77.2414 81.193Z" fill="#E34E70"/>
<path d="M79.6734 75.4117C80.993 76.5492 84.775 72.157 83.4484 71.0203C82.1219 69.8828 78.3469 74.2664 79.6734 75.4109" fill="#F7B3C5"/>
<path d="M80.3609 74.2656C80.9687 74.7875 83.0383 72.3867 82.4297 71.8969C81.8219 71.407 79.7609 73.7531 80.3609 74.2664" fill="#E34E70"/>
<path d="M86.0156 73.9977C87.5 74.8984 90.5094 69.9461 89.0078 69.0375C87.5078 68.1289 84.507 73.0805 86.0156 73.9977Z" fill="#F389A4"/>
<path d="M86.5047 72.7578C87.1766 73.1688 88.8266 70.4672 88.1477 70.0484C87.468 69.6297 85.8258 72.3469 86.5047 72.7578Z" fill="#E34E70"/>
<path d="M86.6156 68.05C88.282 68.5398 89.5688 64.243 87.8867 63.7453C86.2047 63.2477 84.957 67.5445 86.6156 68.05Z" fill="#F389A4"/>
<path d="M86.7266 67.0078C87.5156 67.2367 88.1875 64.8828 87.4211 64.6383C86.6555 64.393 85.9609 66.7789 86.7266 67.0078Z" fill="#E34E70"/>
<path d="M91.2359 63.2641C92.8781 62.6875 91.4016 58.4531 89.743 59.0375C88.0844 59.6227 89.5859 63.8563 91.2359 63.2641Z" fill="#F389A4"/>
<path d="M90.6906 62.3789C91.4797 62.1266 90.6281 59.8039 89.9016 60.0727C89.175 60.3414 89.9406 62.6398 90.6906 62.3789Z" fill="#E34E70"/>
<path d="M87.0578 58.3672C87.3344 56.6445 82.9117 55.95 82.6359 57.6797C82.3586 59.4094 86.7891 60.1125 87.0578 58.3672Z" fill="#F389A4"/>
<path d="M86.0234 58.4297C86.15 57.6406 83.725 57.2688 83.607 58.0508C83.4883 58.832 85.8969 59.2195 86.0234 58.4297Z" fill="#E34E70"/>
</g>
<defs>
<linearGradient id="paint0_linear_15_38" x1="50.5152" y1="2728.47" x2="5577.92" y2="2728.47" gradientUnits="userSpaceOnUse">
<stop stop-color="#F7B3C5"/>
<stop offset="0.19" stop-color="#F7B0C2"/>
<stop offset="0.38" stop-color="#F6A4B6"/>
<stop offset="0.58" stop-color="#F390A5"/>
<stop offset="0.79" stop-color="#E7728B"/>
<stop offset="0.99" stop-color="#DC4D6C"/>
<stop offset="1" stop-color="#DA4B6A"/>
</linearGradient>
<linearGradient id="paint1_linear_15_38" x1="36.2486" y1="1471.04" x2="7576.72" y2="1471.04" gradientUnits="userSpaceOnUse">
<stop stop-color="#F7B3C5"/>
<stop offset="0.19" stop-color="#F7B0C2"/>
<stop offset="0.38" stop-color="#F6A4B6"/>
<stop offset="0.58" stop-color="#F390A5"/>
<stop offset="0.79" stop-color="#E7728B"/>
<stop offset="0.99" stop-color="#DC4D6C"/>
<stop offset="1" stop-color="#DA4B6A"/>
</linearGradient>
<radialGradient id="paint2_radial_15_38" cx="0" cy="0" r="1" gradientUnits="userSpaceOnUse" gradientTransform="translate(1987.23 1919.13) scale(3472.5 3472.51)">
<stop stop-color="#F7B3C5"/>
<stop offset="0.19" stop-color="#F7B0C2"/>
<stop offset="0.38" stop-color="#F6A4B6"/>
<stop offset="0.58" stop-color="#F390A5"/>
<stop offset="0.79" stop-color="#E7728B"/>
<stop offset="0.99" stop-color="#DC4D6C"/>
<stop offset="1" stop-color="#DA4B6A"/>
</radialGradient>
<radialGradient id="paint3_radial_15_38" cx="0" cy="0" r="1" gradientUnits="userSpaceOnUse" gradientTransform="translate(3945.75 3959.1) scale(4295.39 4295.4)">
<stop stop-color="#F7B3C5"/>
<stop offset="0.19" stop-color="#F7B0C2"/>
<stop offset="0.38" stop-color="#F6A4B6"/>
<stop offset="0.58" stop-color="#F390A5"/>
<stop offset="0.79" stop-color="#E7728B"/>
<stop offset="0.99" stop-color="#DC4D6C"/>
<stop offset="1" stop-color="#DA4B6A"/>
</radialGradient>
<linearGradient id="paint4_linear_15_38" x1="162.375" y1="2728.5" x2="5689" y2="2728.5" gradientUnits="userSpaceOnUse">
<stop stop-color="#DA4B6A"/>
<stop offset="0.01" stop-color="#DC4D6C"/>
<stop offset="0.21" stop-color="#E7728B"/>
<stop offset="0.42" stop-color="#F390A5"/>
<stop offset="0.62" stop-color="#F6A4B6"/>
<stop offset="0.81" stop-color="#F7B0C2"/>
<stop offset="1" stop-color="#F7B3C5"/>
</linearGradient>
<linearGradient id="paint5_linear_15_38" x1="157.907" y1="1471.8" x2="7699.15" y2="1471.8" gradientUnits="userSpaceOnUse">
<stop stop-color="#DA4B6A"/>
<stop offset="0.01" stop-color="#DC4D6C"/>
<stop offset="0.21" stop-color="#E7728B"/>
<stop offset="0.42" stop-color="#F390A5"/>
<stop offset="0.62" stop-color="#F6A4B6"/>
<stop offset="0.81" stop-color="#F7B0C2"/>
<stop offset="1" stop-color="#F7B3C5"/>
</linearGradient>
<radialGradient id="paint6_radial_15_38" cx="0" cy="0" r="1" gradientUnits="userSpaceOnUse" gradientTransform="translate(2140.53 1918.43) scale(3472.51 3472.48)">
<stop stop-color="#F7B3C5"/>
<stop offset="0.19" stop-color="#F7B0C2"/>
<stop offset="0.38" stop-color="#F6A4B6"/>
<stop offset="0.58" stop-color="#F390A5"/>
<stop offset="0.79" stop-color="#E7728B"/>
<stop offset="0.99" stop-color="#DC4D6C"/>
<stop offset="1" stop-color="#DA4B6A"/>
</radialGradient>
<clipPath id="clip0_15_38">
<rect width="200" height="200" fill="white" transform="translate(34 29)"/>
</clipPath>
</defs>
</svg>
