<svg width="256" height="256" viewBox="0 0 256 256" fill="none" xmlns="http://www.w3.org/2000/svg">
<g clip-path="url(#clip0_307_719)">
<path d="M196 0H60C26.8629 0 0 26.8629 0 60V196C0 229.137 26.8629 256 60 256H196C229.137 256 256 229.137 256 196V60C256 26.8629 229.137 0 196 0Z" fill="#F4F2ED"/>
<path d="M222 34H35V221H222V34Z" fill="url(#paint0_linear_307_719)"/>
<path d="M210.282 47.9922H46.9609V205.729H210.282V47.9922Z" fill="#4D4D4D"/>
<path d="M198.58 168.787L196.23 166.802C195.506 166.19 194.439 166.22 193.753 166.869L192.455 168.085C191.358 167.556 190.194 167.183 188.993 166.966L188.628 165.176C188.441 164.251 187.583 163.609 186.643 163.684L183.577 163.945C182.637 164.027 181.898 164.795 181.868 165.743L181.809 167.563C180.63 167.988 179.518 168.57 178.503 169.301L176.952 168.272C176.161 167.75 175.109 167.899 174.497 168.623L172.513 170.988C171.901 171.711 171.931 172.778 172.58 173.465L173.938 174.912C173.467 175.971 173.132 177.083 172.938 178.224L170.998 178.62C170.073 178.806 169.431 179.664 169.506 180.604L169.767 183.671C169.849 184.611 170.618 185.349 171.565 185.379L173.661 185.446C174.042 186.446 174.542 187.394 175.146 188.281L173.975 190.05C173.453 190.84 173.602 191.892 174.325 192.504L176.676 194.489C177.399 195.1 178.466 195.071 179.153 194.422L180.689 192.982C181.697 193.452 182.756 193.802 183.845 194.011L184.271 196.115C184.457 197.04 185.315 197.682 186.255 197.607L189.321 197.346C190.262 197.264 191 196.496 191.03 195.548L191.097 193.489C192.216 193.093 193.276 192.556 194.253 191.892L195.947 193.012C196.737 193.534 197.789 193.385 198.401 192.661L200.386 190.311C200.997 189.587 200.968 188.52 200.319 187.834L198.953 186.386C199.453 185.327 199.819 184.208 200.027 183.059L201.893 182.678C202.818 182.492 203.459 181.634 203.385 180.694L203.124 177.627C203.042 176.687 202.273 175.949 201.326 175.919L199.453 175.859C199.065 174.77 198.543 173.741 197.894 172.785L198.916 171.249C199.453 170.458 199.304 169.398 198.58 168.787ZM187.024 186.513C183.711 186.797 180.786 184.327 180.51 181.015C180.227 177.702 182.696 174.778 186.009 174.502C189.321 174.218 192.246 176.688 192.522 180C192.806 183.313 190.336 186.237 187.024 186.513Z" fill="url(#paint1_linear_307_719)"/>
<g filter="url(#filter0_f_307_719)">
<path d="M125.275 130.902H106.357V129.875V128.847L108.151 128.846C109.138 128.846 110.32 128.736 110.778 128.602C111.42 128.415 111.682 128.181 111.919 127.583C112.179 126.931 112.228 123.326 112.228 105.028C112.228 89.3667 112.159 83.0398 111.981 82.505C111.814 82.001 111.501 81.659 111.01 81.4435C110.572 81.2514 109.508 81.1255 108.321 81.1255H106.357V79.9838V78.8422H108.314H110.271L110.267 77.8717C110.265 77.338 110.121 75.783 109.948 74.4161C109.775 73.0492 109.474 71.3582 109.281 70.6583C109.087 69.9584 108.697 68.9067 108.415 68.3212C108.132 67.7356 107.578 66.9701 107.184 66.6199C106.789 66.2697 106.031 65.7803 105.5 65.5323C104.968 65.2842 103.647 64.9416 102.564 64.7708C101.481 64.6 98.926 64.4596 96.8859 64.4587C94.0239 64.4575 93.0802 64.5311 92.7545 64.7811C92.3423 65.0976 92.3311 65.6325 92.2749 87.5911C92.2387 101.741 92.2958 110.293 92.4287 110.66C92.5449 110.981 92.9621 111.427 93.3559 111.651C93.9268 111.975 94.7222 112.074 97.2792 112.139L100.487 112.221V113.228V114.234H89.7231H78.9598V113.207V112.179L81.7321 112.174C83.2569 112.171 84.8869 112.075 85.3542 111.961C85.8215 111.847 86.4575 111.488 86.7676 111.162L87.3313 110.57V87.9945C87.3313 66.1143 87.3186 65.4037 86.917 64.9378C86.5267 64.4848 86.2886 64.4572 82.7799 64.4572C80.7324 64.4572 78.2456 64.564 77.2539 64.6946C76.2622 64.8252 74.9065 65.1459 74.2413 65.4072C73.5762 65.6685 72.6462 66.2482 72.1749 66.6955C71.7035 67.1427 71.1232 67.9092 70.8853 68.3989C70.6474 68.8885 70.274 70.0258 70.0554 70.9261C69.8369 71.8264 69.554 73.4878 69.4268 74.6181C69.2995 75.7483 69.1348 77.2639 69.0608 77.986L68.9261 79.299H68.1603H67.3945L67.5201 78.2144C67.5891 77.6178 67.8455 74.2014 68.0898 70.6222C68.334 67.0431 68.5863 63.678 68.6503 63.1442L68.7666 62.1738H89.7364C101.27 62.1738 110.708 62.2509 110.71 62.3451C110.711 62.4393 110.955 65.8557 111.252 69.9372C111.548 74.0187 111.791 77.692 111.792 78.1002L111.793 78.8423H127.439H143.085L143.2 79.5844C143.263 79.9925 143.659 83.7172 144.08 87.8615C144.501 92.0058 144.845 95.4736 144.845 95.5678C144.845 95.662 144.519 95.7391 144.121 95.7391H143.398L143.038 93.0561C142.84 91.5805 142.525 89.7567 142.338 89.0032C142.151 88.2497 141.766 87.1014 141.484 86.4515C141.201 85.8016 140.555 84.798 140.049 84.2213C139.516 83.6134 138.565 82.8901 137.787 82.5002C137.049 82.1304 135.582 81.6698 134.528 81.4767C133.062 81.2082 130.91 81.1256 125.379 81.1256C118.584 81.1256 118.117 81.152 117.634 81.5619L117.121 81.9982L117.053 92.4078L116.984 102.817L120.423 102.816C122.314 102.814 124.725 102.71 125.781 102.583C126.837 102.456 128.06 102.158 128.499 101.922C128.938 101.685 129.513 101.249 129.776 100.953C130.04 100.656 130.421 100.004 130.624 99.5036C130.855 98.9339 131.032 97.7176 131.098 96.2529L131.203 93.9125H131.935H132.668V103.845V113.778H131.907H131.146L131.142 112.008C131.14 111.035 131.007 109.65 130.846 108.931C130.685 108.212 130.3 107.275 129.991 106.85C129.682 106.424 128.959 105.832 128.384 105.535C127.391 105.019 127.092 104.99 122.163 104.915L116.986 104.836L117.053 116.406L117.121 127.975L117.653 128.428C118.168 128.865 118.469 128.878 126.46 128.795C134.591 128.711 134.764 128.699 136.522 128.129C137.506 127.81 138.839 127.181 139.484 126.731C140.129 126.282 141.011 125.46 141.444 124.905C141.877 124.35 142.518 123.232 142.869 122.42C143.219 121.608 143.659 120.323 143.846 119.565C144.033 118.807 144.335 117.375 144.515 116.382C144.696 115.389 144.844 114.5 144.844 114.406C144.844 114.311 143.86 114.234 142.658 114.234H140.471L140.537 113.264C140.603 112.306 140.616 112.293 141.474 112.239C141.952 112.209 142.882 112.068 143.54 111.926C144.198 111.784 145.287 111.376 145.96 111.021C146.633 110.665 147.683 109.881 148.293 109.279C149.002 108.578 151.718 104.614 155.821 98.287C159.351 92.844 162.24 88.2978 162.24 88.1842C162.24 88.0707 159.105 83.1224 155.273 77.1879C151.442 71.2535 147.932 66.0212 147.473 65.5605C147.014 65.0999 146.26 64.6124 145.796 64.4772C145.333 64.342 144.195 64.2309 143.268 64.2302L141.583 64.229V63.2015V62.174H149.411H157.239V63.2015C157.239 64.1487 157.196 64.229 156.688 64.229C156.385 64.229 155.806 64.3745 155.4 64.5524C154.995 64.7303 154.502 65.1344 154.305 65.4504C154.01 65.9227 153.993 66.1193 154.21 66.5541C154.355 66.8451 156.88 70.8051 159.822 75.3541C163.982 81.7858 165.229 83.563 165.429 83.3458C165.57 83.1923 167.895 79.686 170.595 75.5541C174.932 68.9162 175.504 67.9381 175.504 67.1515C175.504 66.6619 175.355 65.9599 175.174 65.5915C174.993 65.2231 174.557 64.7658 174.206 64.5753C173.855 64.3848 173.368 64.229 173.123 64.229C172.739 64.229 172.677 64.085 172.677 63.2015V62.174H179.418H186.158V63.2015V64.229H185.226C184.713 64.229 183.732 64.3822 183.048 64.5696C182.363 64.7569 181.298 65.1783 180.683 65.506C180.067 65.8337 179.065 66.6339 178.457 67.2841C177.849 67.9344 174.906 72.2034 171.916 76.771C168.926 81.3385 166.451 85.1507 166.416 85.2425C166.381 85.3344 169.94 90.9447 174.324 97.7098C178.708 104.475 182.633 110.381 183.046 110.835C183.459 111.289 184.168 111.777 184.622 111.92C185.076 112.062 186.024 112.181 186.727 112.182C187.431 112.184 188.227 112.248 188.496 112.323C188.903 112.438 188.985 112.619 188.985 113.405V114.348H181.148H173.31L173.374 113.345C173.437 112.356 173.452 112.338 174.459 112.071C175.02 111.922 175.643 111.657 175.842 111.484C176.042 111.31 176.28 110.959 176.372 110.703C176.464 110.448 176.438 110.033 176.313 109.782C176.188 109.531 173.301 105.01 169.896 99.7351C166.491 94.4605 163.636 90.0645 163.552 89.9661C163.468 89.8677 160.78 93.8114 157.578 98.7298C154.376 103.648 151.611 108.039 151.432 108.488C151.176 109.131 151.158 109.479 151.344 110.133C151.475 110.59 151.771 111.144 152.004 111.365C152.236 111.585 152.799 111.9 153.256 112.064C154.016 112.338 154.091 112.441 154.153 113.298L154.219 114.234H150.293C148.133 114.234 146.366 114.311 146.365 114.406C146.364 114.5 145.875 118.173 145.278 122.569C144.681 126.964 144.192 130.637 144.192 130.732C144.192 130.826 135.679 130.902 125.275 130.902Z" fill="#CCCCCC" fill-opacity="0.852941"/>
</g>
<path d="M122.763 129.278H103.845V128.25V127.222L105.639 127.221C106.626 127.221 107.808 127.111 108.266 126.977C108.908 126.79 109.17 126.556 109.407 125.958C109.667 125.306 109.716 121.701 109.716 103.403C109.716 87.7419 109.647 81.415 109.469 80.8803C109.302 80.3762 108.989 80.0342 108.498 79.8187C108.06 79.6266 106.996 79.5007 105.809 79.5007H103.845V78.3591V77.2174H105.802H107.759L107.755 76.247C107.753 75.7132 107.609 74.1582 107.436 72.7913C107.263 71.4244 106.963 69.7334 106.769 69.0335C106.575 68.3336 106.185 67.2819 105.903 66.6964C105.62 66.1109 105.066 65.3453 104.672 64.9951C104.277 64.6449 103.519 64.1555 102.988 63.9075C102.456 63.6595 101.135 63.3168 100.052 63.146C98.9695 62.9753 96.4143 62.8348 94.3742 62.8339C91.5122 62.8328 90.5685 62.9063 90.2428 63.1564C89.8306 63.4728 89.8194 64.0077 89.7632 85.9664C89.727 100.116 89.7841 108.669 89.917 109.036C90.0331 109.357 90.4504 109.802 90.8442 110.026C91.4151 110.35 92.2105 110.449 94.7675 110.514L97.9748 110.596V111.603V112.609H87.2114H76.448V111.582V110.554L79.2204 110.549C80.7452 110.546 82.3751 110.45 82.8425 110.336C83.3098 110.222 83.9458 109.863 84.2558 109.537L84.8196 108.945V86.3695C84.8196 64.4892 84.8068 63.7787 84.4053 63.3128C84.0149 62.8598 83.7769 62.8322 80.2682 62.8322C78.2206 62.8322 75.7339 62.939 74.7422 63.0696C73.7504 63.2002 72.3948 63.5209 71.7296 63.7822C71.0644 64.0435 70.1345 64.6232 69.6631 65.0705C69.1918 65.5177 68.6114 66.2842 68.3735 66.7739C68.1356 67.2635 67.7622 68.4008 67.5437 69.3011C67.3252 70.2014 67.0423 71.8628 66.915 72.9931C66.7878 74.1233 66.6231 75.6389 66.549 76.361L66.4144 77.674H65.6486H64.8828L65.0084 76.5894C65.0774 75.9928 65.3338 72.5764 65.5781 68.9972C65.8223 65.4181 66.0745 62.053 66.1386 61.5193L66.2549 60.5488H87.2247C98.7581 60.5488 108.196 60.6259 108.198 60.7201C108.2 60.8143 108.444 64.2307 108.74 68.3122C109.036 72.3937 109.279 76.067 109.28 76.4752L109.282 77.2173H124.928H140.574L140.688 77.9594C140.751 78.3675 141.147 82.0922 141.568 86.2365C141.989 90.3808 142.333 93.8486 142.333 93.9428C142.333 94.037 142.007 94.1141 141.61 94.1141H140.886L140.526 91.4311C140.328 89.9555 140.013 88.1317 139.826 87.3782C139.639 86.6247 139.254 85.4764 138.972 84.8265C138.689 84.1766 138.044 83.173 137.537 82.5963C137.004 81.9884 136.053 81.2651 135.275 80.8752C134.537 80.5054 133.071 80.0448 132.016 79.8517C130.55 79.5832 128.398 79.5006 122.867 79.5006C116.072 79.5006 115.605 79.527 115.122 79.9369L114.609 80.3733L114.541 90.7829L114.472 101.192L117.911 101.191C119.802 101.19 122.214 101.085 123.269 100.958C124.325 100.831 125.548 100.534 125.987 100.297C126.426 100.061 127.001 99.6245 127.265 99.328C127.528 99.0315 127.909 98.3793 128.112 97.8787C128.343 97.3091 128.52 96.0927 128.586 94.628L128.691 92.2876H129.424H130.156V102.22V112.153H129.395H128.634L128.631 110.383C128.629 109.41 128.495 108.025 128.334 107.306C128.173 106.587 127.788 105.65 127.479 105.225C127.17 104.799 126.447 104.207 125.873 103.91C124.879 103.395 124.58 103.365 119.652 103.29L114.475 103.211L114.542 114.781L114.609 126.35L115.142 126.803C115.656 127.24 115.957 127.253 123.948 127.17C132.08 127.086 132.253 127.074 134.011 126.504C134.995 126.185 136.328 125.556 136.973 125.107C137.618 124.657 138.5 123.835 138.933 123.28C139.366 122.725 140.007 121.607 140.357 120.795C140.708 119.983 141.148 118.699 141.335 117.94C141.522 117.182 141.823 115.75 142.004 114.757C142.185 113.764 142.333 112.875 142.333 112.781C142.333 112.686 141.349 112.609 140.146 112.609H137.959L138.026 111.639C138.092 110.681 138.104 110.668 138.963 110.614C139.441 110.584 140.37 110.443 141.028 110.301C141.686 110.159 142.775 109.752 143.448 109.396C144.122 109.04 145.172 108.256 145.782 107.654C146.491 106.954 149.206 102.989 153.309 96.6622C156.84 91.2191 159.728 86.6729 159.728 86.5594C159.728 86.4458 156.593 81.4975 152.762 75.5631C148.93 69.6286 145.42 64.3963 144.961 63.9356C144.503 63.475 143.748 62.9875 143.285 62.8523C142.821 62.7171 141.683 62.606 140.756 62.6053L139.071 62.6042V61.5767V60.5491H146.899H154.727V61.5767C154.727 62.5239 154.684 62.6042 154.176 62.6042C153.874 62.6042 153.294 62.7497 152.889 62.9276C152.483 63.1055 151.99 63.5096 151.793 63.8256C151.498 64.2978 151.481 64.4945 151.698 64.9293C151.843 65.2203 154.369 69.1803 157.311 73.7293C161.47 80.161 162.717 81.9382 162.917 81.721C163.058 81.5674 165.383 78.0612 168.083 73.9293C172.421 67.2914 172.992 66.3132 172.992 65.5267C172.992 65.0371 172.844 64.3351 172.662 63.9667C172.481 63.5983 172.045 63.141 171.695 62.9505C171.344 62.76 170.856 62.6042 170.611 62.6042C170.228 62.6042 170.165 62.4602 170.165 61.5767V60.5491H176.906H183.647V61.5767V62.6042H182.714C182.201 62.6042 181.221 62.7574 180.536 62.9448C179.851 63.1321 178.787 63.5535 178.171 63.8812C177.555 64.2089 176.554 65.009 175.946 65.6593C175.338 66.3095 172.394 70.5786 169.404 75.1462C166.415 79.7137 163.94 83.5259 163.905 83.6177C163.869 83.7096 167.428 89.3198 171.812 96.085C176.197 102.85 180.122 108.756 180.534 109.21C180.947 109.664 181.656 110.152 182.11 110.295C182.565 110.438 183.512 110.556 184.216 110.558C184.919 110.559 185.715 110.623 185.984 110.698C186.392 110.813 186.474 110.994 186.474 111.78V112.724H178.636H170.798L170.862 111.72C170.926 110.731 170.941 110.713 171.947 110.446C172.509 110.297 173.131 110.033 173.33 109.859C173.53 109.685 173.768 109.334 173.861 109.078C173.953 108.823 173.926 108.408 173.801 108.157C173.677 107.906 170.789 103.385 167.384 98.1102C163.979 92.8357 161.125 88.4397 161.041 88.3413C160.957 88.2429 158.268 92.1866 155.066 97.105C151.865 102.023 149.099 106.415 148.921 106.863C148.665 107.506 148.646 107.854 148.833 108.508C148.963 108.965 149.26 109.519 149.492 109.74C149.724 109.961 150.288 110.275 150.744 110.439C151.505 110.713 151.58 110.816 151.641 111.674L151.708 112.609H147.781C145.622 112.609 143.854 112.687 143.853 112.781C143.853 112.875 143.363 116.548 142.766 120.944C142.169 125.339 141.681 129.013 141.681 129.107C141.681 129.201 133.167 129.278 122.763 129.278Z" fill="#CCCCCC"/>
<path d="M65.9617 130.191H67.9679L70.0868 135.36H70.177L72.2959 130.191H74.3022V137.885H72.7242V132.877H72.6604L70.6692 137.847H69.5947L67.6035 132.858H67.5396V137.885H65.9617V130.191ZM76.9687 137.885H75.2254L77.8816 130.191H79.978L82.6304 137.885H80.8872L78.9598 131.949H78.8997L76.9687 137.885ZM76.8597 134.86H80.9773V136.13H76.8597V134.86ZM83.5565 137.885V130.191H85.1832V133.583H85.2847L88.0536 130.191H90.0034L87.1481 133.636L90.0372 137.885H88.0911L85.9835 134.721L85.1832 135.698V137.885H83.5565ZM90.8506 137.885V130.191H96.0352V131.532H92.4774V133.365H95.7685V134.706H92.4774V136.544H96.0502V137.885H90.8506ZM97.3285 137.885V130.191H100.364C100.945 130.191 101.441 130.294 101.852 130.502C102.265 130.708 102.58 131 102.795 131.378C103.013 131.753 103.122 132.195 103.122 132.704C103.122 133.215 103.012 133.654 102.791 134.023C102.571 134.388 102.251 134.669 101.833 134.864C101.417 135.06 100.914 135.157 100.323 135.157H98.2903V133.85H100.06C100.37 133.85 100.628 133.807 100.834 133.722C101.039 133.637 101.192 133.509 101.292 133.339C101.395 133.169 101.446 132.957 101.446 132.704C101.446 132.448 101.395 132.233 101.292 132.058C101.192 131.882 101.038 131.75 100.83 131.659C100.625 131.567 100.365 131.52 100.052 131.52H98.9553V137.885H97.3285ZM101.484 134.383L103.396 137.885H101.6L99.7292 134.383H101.484Z" fill="#CCCCCC"/>
</g>
<defs>
<filter id="filter0_f_307_719" x="66.7648" y="61.5441" width="122.849" height="69.988" filterUnits="userSpaceOnUse" color-interpolation-filters="sRGB">
<feFlood flood-opacity="0" result="BackgroundImageFix"/>
<feBlend mode="normal" in="SourceGraphic" in2="BackgroundImageFix" result="shape"/>
<feGaussianBlur stdDeviation="0.31488" result="effect1_foregroundBlur_307_719"/>
</filter>
<linearGradient id="paint0_linear_307_719" x1="130.609" y1="196.702" x2="130.609" y2="-47.1309" gradientUnits="userSpaceOnUse">
<stop stop-color="#BFC1C1"/>
<stop offset="1" stop-color="#F1F2F3"/>
</linearGradient>
<linearGradient id="paint1_linear_307_719" x1="169.644" y1="201.478" x2="169.644" y2="100.083" gradientUnits="userSpaceOnUse">
<stop stop-color="#BFC1C1"/>
<stop offset="1" stop-color="#F1F2F3"/>
</linearGradient>
</defs>
</svg>
