<svg width="256" height="256" viewBox="0 0 256 256" fill="none" id="texmaker" xmlns="http://www.w3.org/2000/svg">
<style>
#texmaker {
    rect {fill: #242938}

    @media (prefers-color-scheme: light) {
        rect {fill: #F4F2ED}
    }
}
</style>
<g clip-path="url(#clip0_307_712)">
<rect width="256" height="256" fill="#242938" rx="60"/>
<path d="M221 34H34V221H221V34Z" fill="url(#paint0_linear_307_712)"/>
<path d="M209.279 47.9902H45.957V205.727H209.279V47.9902Z" fill="#4D4D4D"/>
<path d="M197.58 168.787L195.23 166.802C194.506 166.19 193.439 166.22 192.753 166.869L191.455 168.085C190.358 167.556 189.194 167.183 187.993 166.966L187.628 165.176C187.441 164.251 186.583 163.609 185.643 163.684L182.577 163.945C181.637 164.027 180.898 164.795 180.868 165.743L180.809 167.563C179.63 167.988 178.518 168.57 177.503 169.301L175.952 168.272C175.161 167.75 174.109 167.899 173.497 168.623L171.513 170.988C170.901 171.711 170.931 172.778 171.58 173.465L172.938 174.912C172.467 175.971 172.132 177.083 171.938 178.224L169.998 178.62C169.073 178.806 168.431 179.664 168.506 180.604L168.767 183.671C168.849 184.611 169.618 185.349 170.565 185.379L172.661 185.446C173.042 186.446 173.542 187.394 174.146 188.281L172.975 190.05C172.453 190.84 172.602 191.892 173.325 192.504L175.676 194.489C176.399 195.1 177.466 195.071 178.153 194.422L179.689 192.982C180.697 193.452 181.756 193.802 182.845 194.011L183.271 196.115C183.457 197.04 184.315 197.682 185.255 197.607L188.321 197.346C189.262 197.264 190 196.496 190.03 195.548L190.097 193.489C191.216 193.093 192.276 192.556 193.253 191.892L194.947 193.012C195.737 193.534 196.789 193.385 197.401 192.661L199.386 190.311C199.997 189.587 199.968 188.52 199.319 187.834L197.953 186.386C198.453 185.327 198.819 184.208 199.027 183.059L200.893 182.678C201.818 182.492 202.459 181.634 202.385 180.694L202.124 177.627C202.042 176.687 201.273 175.949 200.326 175.919L198.453 175.859C198.065 174.77 197.543 173.741 196.894 172.785L197.916 171.249C198.453 170.458 198.304 169.398 197.58 168.787ZM186.024 186.513C182.711 186.797 179.786 184.327 179.51 181.015C179.227 177.702 181.696 174.778 185.009 174.502C188.321 174.218 191.246 176.688 191.522 180C191.806 183.313 189.336 186.237 186.024 186.513Z" fill="url(#paint1_linear_307_712)"/>
<g filter="url(#filter0_f_307_712)">
<path d="M124.283 130.9H105.365V129.873V128.845L107.159 128.844C108.146 128.844 109.328 128.734 109.786 128.6C110.427 128.413 110.689 128.179 110.927 127.581C111.187 126.929 111.236 123.324 111.236 105.026C111.236 89.3647 111.167 83.0378 110.989 82.5031C110.822 81.999 110.509 81.657 110.018 81.4415C109.58 81.2494 108.516 81.1236 107.329 81.1236H105.365V79.9819V78.8402H107.322H109.279L109.275 77.8698C109.273 77.3361 109.129 75.781 108.956 74.4141C108.783 73.0473 108.482 71.3563 108.288 70.6564C108.095 69.9565 107.705 68.9047 107.422 68.3192C107.14 67.7337 106.586 66.9681 106.191 66.6179C105.797 66.2677 105.039 65.7783 104.507 65.5303C103.976 65.2823 102.655 64.9396 101.572 64.7689C100.489 64.5981 97.9338 64.4576 95.8937 64.4567C93.0317 64.4555 92.088 64.5291 91.7623 64.7792C91.3502 65.0956 91.3389 65.6306 91.2828 87.5892C91.2466 101.739 91.3036 110.291 91.4365 110.659C91.5527 110.979 91.9699 111.425 92.3637 111.649C92.9346 111.973 93.73 112.072 96.287 112.137L99.4943 112.219V113.226V114.232H88.7309H77.9676V113.205V112.177L80.74 112.172C82.2648 112.169 83.8947 112.073 84.362 111.959C84.8293 111.846 85.4653 111.486 85.7754 111.16L86.3391 110.569V87.9925C86.3391 66.1123 86.3264 65.4017 85.9249 64.9359C85.5345 64.4829 85.2964 64.4552 81.7878 64.4552C79.7402 64.4552 77.2535 64.5621 76.2617 64.6927C75.27 64.8232 73.9143 65.1439 73.2491 65.4052C72.584 65.6666 71.6541 66.2463 71.1827 66.6935C70.7113 67.1407 70.131 67.9072 69.8931 68.3969C69.6552 68.8866 69.2818 70.0238 69.0633 70.9242C68.8447 71.8245 68.5618 73.4859 68.4346 74.6161C68.3073 75.7464 68.1426 77.262 68.0686 77.9841L67.934 79.297H67.1682H66.4023L66.5279 78.2124C66.597 77.6159 66.8533 74.1994 67.0976 70.6203C67.3419 67.0411 67.5941 63.676 67.6581 63.1423L67.7745 62.1719H88.7443C100.278 62.1719 109.716 62.2489 109.717 62.3431C109.719 62.4373 109.963 65.8538 110.259 69.9353C110.555 74.0167 110.799 77.6901 110.8 78.0982L110.801 78.8403H126.447H142.093L142.208 79.5824C142.27 79.9906 142.666 83.7153 143.087 87.8596C143.508 92.0038 143.853 95.4717 143.853 95.5659C143.853 95.6601 143.527 95.7371 143.129 95.7371H142.406L142.046 93.0542C141.848 91.5786 141.533 89.7547 141.345 89.0012C141.158 88.2477 140.774 87.0995 140.491 86.4496C140.209 85.7996 139.563 84.796 139.057 84.2193C138.523 83.6114 137.573 82.8882 136.795 82.4983C136.057 82.1284 134.59 81.6678 133.536 81.4747C132.07 81.2063 129.917 81.1237 124.387 81.1237C117.592 81.1237 117.124 81.1501 116.642 81.56L116.129 81.9963L116.06 92.4059L115.992 102.815L119.431 102.814C121.322 102.813 123.733 102.708 124.789 102.581C125.845 102.454 127.068 102.156 127.507 101.92C127.946 101.684 128.521 101.247 128.784 100.951C129.048 100.654 129.429 100.002 129.632 99.5016C129.863 98.932 130.04 97.7156 130.106 96.251L130.211 93.9105H130.943H131.676V103.843V113.776H130.915H130.154L130.15 112.006C130.148 111.033 130.015 109.648 129.854 108.929C129.692 108.21 129.308 107.273 128.998 106.848C128.689 106.422 127.967 105.83 127.392 105.533C126.398 105.017 126.1 104.988 121.171 104.913L115.994 104.834L116.061 116.404L116.128 127.973L116.661 128.426C117.176 128.863 117.477 128.876 125.468 128.793C133.599 128.709 133.772 128.697 135.53 128.127C136.514 127.808 137.847 127.179 138.492 126.729C139.137 126.28 140.019 125.458 140.452 124.903C140.885 124.348 141.526 123.23 141.877 122.418C142.227 121.606 142.667 120.322 142.854 119.563C143.041 118.805 143.342 117.373 143.523 116.38C143.704 115.387 143.852 114.498 143.852 114.404C143.852 114.309 142.868 114.232 141.665 114.232H139.478L139.545 113.262C139.611 112.304 139.624 112.291 140.482 112.237C140.96 112.207 141.89 112.066 142.548 111.924C143.205 111.782 144.294 111.375 144.968 111.019C145.641 110.663 146.691 109.879 147.301 109.277C148.01 108.576 150.726 104.612 154.829 98.2851C158.359 92.8421 161.248 88.2958 161.248 88.1823C161.248 88.0688 158.113 83.1204 154.281 77.186C150.45 71.2516 146.94 66.0192 146.481 65.5586C146.022 65.0979 145.268 64.6104 144.804 64.4753C144.34 64.3401 143.203 64.2289 142.276 64.2282L140.591 64.227V63.1995V62.172H148.419H156.246V63.1995C156.246 64.1468 156.203 64.227 155.696 64.227C155.393 64.227 154.814 64.3726 154.408 64.5505C154.003 64.7283 153.51 65.1325 153.312 65.4485C153.018 65.9207 153.001 66.1173 153.217 66.5521C153.362 66.8431 155.888 70.8031 158.83 75.3522C162.99 81.7838 164.236 83.561 164.436 83.3439C164.578 83.1903 166.903 79.684 169.603 75.5522C173.94 68.9142 174.512 67.9361 174.512 67.1495C174.512 66.6599 174.363 65.9579 174.182 65.5896C174 65.2212 173.565 64.7639 173.214 64.5734C172.863 64.3829 172.376 64.227 172.131 64.227C171.747 64.227 171.685 64.0831 171.685 63.1995V62.172H178.426H185.166V63.1995V64.227H184.233C183.72 64.227 182.74 64.3803 182.055 64.5676C181.37 64.7549 180.306 65.1763 179.69 65.5041C179.074 65.8318 178.073 66.6319 177.465 67.2822C176.857 67.9324 173.914 72.2015 170.924 76.769C167.934 81.3365 165.459 85.1487 165.424 85.2406C165.389 85.3324 168.947 90.9427 173.332 97.7079C177.716 104.473 181.641 110.379 182.054 110.833C182.466 111.287 183.176 111.775 183.63 111.918C184.084 112.06 185.031 112.179 185.735 112.18C186.439 112.182 187.235 112.246 187.504 112.321C187.911 112.436 187.993 112.617 187.993 113.403V114.347H180.155H172.318L172.382 113.343C172.445 112.354 172.46 112.336 173.467 112.069C174.028 111.92 174.65 111.656 174.85 111.482C175.049 111.308 175.288 110.957 175.38 110.701C175.472 110.446 175.445 110.031 175.321 109.78C175.196 109.529 172.308 105.008 168.903 99.7331C165.499 94.4586 162.644 90.0625 162.56 89.9642C162.476 89.8658 159.788 93.8094 156.586 98.7279C153.384 103.646 150.618 108.037 150.44 108.486C150.184 109.129 150.166 109.477 150.352 110.131C150.483 110.588 150.779 111.142 151.012 111.363C151.244 111.583 151.807 111.898 152.264 112.062C153.024 112.336 153.099 112.439 153.16 113.296L153.227 114.232H149.301C147.141 114.232 145.374 114.309 145.373 114.404C145.372 114.498 144.883 118.171 144.286 122.567C143.689 126.962 143.2 130.635 143.2 130.73C143.2 130.824 134.687 130.9 124.283 130.9Z" fill="#CCCCCC" fill-opacity="0.852941"/>
</g>
<path d="M121.771 129.276H102.853V128.248V127.221L104.647 127.219C105.634 127.219 106.816 127.109 107.274 126.975C107.916 126.788 108.177 126.554 108.415 125.956C108.675 125.304 108.724 121.699 108.724 103.401C108.724 87.74 108.655 81.4131 108.477 80.8783C108.31 80.3742 107.997 80.0322 107.506 79.8167C107.068 79.6247 106.004 79.4988 104.817 79.4988H102.853V78.3571V77.2154H104.81H106.767L106.763 76.245C106.761 75.7113 106.617 74.1562 106.444 72.7894C106.271 71.4225 105.971 69.7315 105.777 69.0316C105.583 68.3317 105.193 67.28 104.911 66.6945C104.628 66.1089 104.074 65.3433 103.68 64.9931C103.285 64.643 102.527 64.1535 101.996 63.9055C101.464 63.6575 100.143 63.3149 99.0603 63.1441C97.9773 62.9733 95.4221 62.8328 93.382 62.832C90.52 62.8308 89.5763 62.9044 89.2506 63.1544C88.8384 63.4709 88.8272 64.0058 88.771 85.9644C88.7348 100.114 88.7919 108.667 88.9248 109.034C89.0409 109.355 89.4582 109.8 89.852 110.024C90.4229 110.348 91.2183 110.447 93.7753 110.512L96.9826 110.594V111.601V112.607H86.2192H75.4559V111.58V110.552L78.2282 110.547C79.753 110.544 81.383 110.448 81.8503 110.334C82.3176 110.221 82.9536 109.861 83.2636 109.535L83.8274 108.944V86.3675C83.8274 64.4873 83.8147 63.7767 83.4131 63.3109C83.0227 62.8579 82.7847 62.8302 79.276 62.8302C77.2285 62.8302 74.7417 62.9371 73.75 63.0677C72.7582 63.1982 71.4026 63.5189 70.7374 63.7802C70.0723 64.0416 69.1423 64.6213 68.671 65.0685C68.1996 65.5157 67.6193 66.2822 67.3814 66.7719C67.1435 67.2616 66.77 68.3988 66.5515 69.2992C66.333 70.1995 66.0501 71.8609 65.9228 72.9911C65.7956 74.1214 65.6309 75.637 65.5568 76.3591L65.4222 77.672H64.6564H63.8906L64.0162 76.5874C64.0852 75.9909 64.3416 72.5744 64.5859 68.9953C64.8301 65.4161 65.0824 62.051 65.1464 61.5173L65.2627 60.5469H86.2325C97.7659 60.5469 107.204 60.6239 107.206 60.7181C107.207 60.8123 107.451 64.2288 107.748 68.3103C108.044 72.3918 108.287 76.0651 108.288 76.4732L108.289 77.2153H123.935H139.581L139.696 77.9574C139.759 78.3656 140.154 82.0903 140.576 86.2346C140.997 90.3788 141.341 93.8467 141.341 93.9409C141.341 94.0351 141.015 94.1121 140.617 94.1121H139.894L139.534 91.4292C139.336 89.9536 139.021 88.1297 138.834 87.3762C138.646 86.6227 138.262 85.4745 137.979 84.8246C137.697 84.1746 137.051 83.171 136.545 82.5943C136.012 81.9864 135.061 81.2632 134.283 80.8733C133.545 80.5034 132.078 80.0428 131.024 79.8497C129.558 79.5813 127.406 79.4987 121.875 79.4987C115.08 79.4987 114.612 79.5251 114.13 79.935L113.617 80.3713L113.548 90.7809L113.48 101.19L116.919 101.189C118.81 101.188 121.221 101.083 122.277 100.956C123.333 100.829 124.556 100.532 124.995 100.295C125.434 100.059 126.009 99.6225 126.272 99.326C126.536 99.0295 126.917 98.3773 127.12 97.8767C127.351 97.3071 127.528 96.0907 127.594 94.6261L127.699 92.2856H128.431H129.164V102.218V112.151H128.403H127.642L127.638 110.381C127.637 109.408 127.503 108.023 127.342 107.304C127.181 106.585 126.796 105.648 126.487 105.223C126.178 104.797 125.455 104.205 124.881 103.908C123.887 103.393 123.588 103.363 118.66 103.288L113.482 103.209L113.55 114.779L113.617 126.348L114.15 126.801C114.664 127.238 114.965 127.251 122.956 127.168C131.088 127.084 131.26 127.072 133.019 126.502C134.003 126.183 135.335 125.554 135.98 125.105C136.626 124.655 137.508 123.833 137.94 123.278C138.373 122.723 139.014 121.605 139.365 120.793C139.716 119.981 140.156 118.697 140.343 117.939C140.53 117.18 140.831 115.748 141.012 114.755C141.193 113.762 141.341 112.873 141.341 112.779C141.341 112.685 140.357 112.607 139.154 112.607H136.967L137.034 111.637C137.1 110.679 137.112 110.666 137.97 110.612C138.449 110.582 139.378 110.442 140.036 110.299C140.694 110.157 141.783 109.75 142.456 109.394C143.129 109.038 144.179 108.254 144.789 107.652C145.499 106.952 148.214 102.987 152.317 96.6602C155.848 91.2172 158.736 86.6709 158.736 86.5574C158.736 86.4439 155.601 81.4955 151.77 75.5611C147.938 69.6267 144.428 64.3943 143.969 63.9337C143.511 63.473 142.756 62.9855 142.292 62.8504C141.829 62.7152 140.691 62.604 139.764 62.6033L138.079 62.6022V61.5747V60.5472H145.907H153.735V61.5747C153.735 62.522 153.692 62.6022 153.184 62.6022C152.881 62.6022 152.302 62.7477 151.897 62.9256C151.491 63.1035 150.998 63.5076 150.801 63.8237C150.506 64.2959 150.489 64.4925 150.706 64.9273C150.851 65.2183 153.376 69.1783 156.318 73.7274C160.478 80.159 161.725 81.9362 161.925 81.7191C162.066 81.5655 164.391 78.0592 167.091 73.9274C171.429 67.2894 172 66.3113 172 65.5247C172 65.0351 171.852 64.3331 171.67 63.9647C171.489 63.5963 171.053 63.1391 170.702 62.9486C170.352 62.7581 169.864 62.6022 169.619 62.6022C169.236 62.6022 169.173 62.4583 169.173 61.5747V60.5472H175.914H182.655V61.5747V62.6022H181.722C181.209 62.6022 180.229 62.7555 179.544 62.9428C178.859 63.1301 177.795 63.5515 177.179 63.8792C176.563 64.207 175.562 65.0071 174.954 65.6573C174.346 66.3076 171.402 70.5767 168.412 75.1442C165.422 79.7117 162.947 83.5239 162.912 83.6158C162.877 83.7076 166.436 89.3179 170.82 96.0831C175.204 102.848 179.129 108.755 179.542 109.208C179.955 109.662 180.664 110.15 181.118 110.293C181.572 110.436 182.52 110.554 183.223 110.556C183.927 110.557 184.723 110.621 184.992 110.696C185.399 110.811 185.481 110.992 185.481 111.778V112.722H177.644H169.806L169.87 111.718C169.933 110.729 169.949 110.711 170.955 110.444C171.516 110.295 172.139 110.031 172.338 109.857C172.538 109.683 172.776 109.332 172.868 109.076C172.96 108.821 172.934 108.406 172.809 108.155C172.685 107.904 169.797 103.383 166.392 98.1083C162.987 92.8338 160.132 88.4377 160.048 88.3393C159.964 88.241 157.276 92.1846 154.074 97.1031C150.872 102.021 148.107 106.413 147.928 106.861C147.672 107.504 147.654 107.852 147.841 108.506C147.971 108.963 148.268 109.517 148.5 109.738C148.732 109.959 149.296 110.273 149.752 110.438C150.513 110.711 150.587 110.814 150.649 111.672L150.716 112.608H146.789C144.63 112.608 142.862 112.685 142.861 112.779C142.86 112.873 142.371 116.546 141.774 120.942C141.177 125.337 140.688 129.011 140.688 129.105C140.688 129.199 132.175 129.276 121.771 129.276Z" fill="#CCCCCC"/>
<path d="M64.9656 130.191H66.9718L69.0908 135.36H69.1809L71.2998 130.191H73.3061V137.885H71.7281V132.877H71.6643L69.6731 137.847H68.5986L66.6074 132.858H66.5435V137.885H64.9656V130.191ZM75.9726 137.885H74.2293L76.8855 130.191H78.9819L81.6343 137.885H79.8911L77.9637 131.949H77.9036L75.9726 137.885ZM75.8636 134.86H79.9812V136.13H75.8636V134.86ZM82.5604 137.885V130.191H84.1871V133.583H84.2886L87.0575 130.191H89.0073L86.152 133.636L89.0411 137.885H87.095L84.9874 134.721L84.1871 135.698V137.885H82.5604ZM89.8545 137.885V130.191H95.0391V131.532H91.4813V133.365H94.7724V134.706H91.4813V136.544H95.0542V137.885H89.8545ZM96.3325 137.885V130.191H99.3681C99.9492 130.191 100.445 130.294 100.856 130.502C101.269 130.708 101.583 131 101.799 131.378C102.017 131.753 102.126 132.195 102.126 132.704C102.126 133.215 102.015 133.654 101.795 134.023C101.575 134.388 101.255 134.669 100.837 134.864C100.421 135.06 99.9178 135.157 99.3268 135.157H97.2942V133.85H99.0638C99.3743 133.85 99.6323 133.807 99.8377 133.722C100.043 133.637 100.196 133.509 100.296 133.339C100.399 133.169 100.45 132.957 100.45 132.704C100.45 132.448 100.399 132.233 100.296 132.058C100.196 131.882 100.042 131.75 99.8339 131.659C99.6286 131.567 99.3693 131.52 99.0563 131.52H97.9592V137.885H96.3325ZM100.488 134.383L102.4 137.885H100.604L98.7332 134.383H100.488Z" fill="#CCCCCC"/>
</g>
<defs>
<filter id="filter0_f_307_712" x="65.7726" y="61.5421" width="122.849" height="69.988" filterUnits="userSpaceOnUse" color-interpolation-filters="sRGB">
<feFlood flood-opacity="0" result="BackgroundImageFix"/>
<feBlend mode="normal" in="SourceGraphic" in2="BackgroundImageFix" result="shape"/>
<feGaussianBlur stdDeviation="0.31488" result="effect1_foregroundBlur_307_712"/>
</filter>
<linearGradient id="paint0_linear_307_712" x1="129.609" y1="196.702" x2="129.609" y2="-47.1309" gradientUnits="userSpaceOnUse">
<stop stop-color="#BFC1C1"/>
<stop offset="1" stop-color="#F1F2F3"/>
</linearGradient>
<linearGradient id="paint1_linear_307_712" x1="168.644" y1="201.478" x2="168.644" y2="100.083" gradientUnits="userSpaceOnUse">
<stop stop-color="#BFC1C1"/>
<stop offset="1" stop-color="#F1F2F3"/>
</linearGradient>
</defs>
</svg>
