<svg width="256" height="256" viewBox="0 0 256 256" fill="none" xmlns="http://www.w3.org/2000/svg">
<path d="M196 0H60C26.8629 0 0 26.8629 0 60V196C0 229.137 26.8629 256 60 256H196C229.137 256 256 229.137 256 196V60C256 26.8629 229.137 0 196 0Z" fill="#F8E0E0"/>
<path d="M21.8222 163.492C21.6669 163.106 21.516 162.72 21.3784 162.334C21.5393 161.967 21.6757 161.591 21.7867 161.206C22.0841 159.844 22.2838 158.459 22.6345 157.11C23.5576 153.559 24.4941 150.008 25.5105 146.458C26.2694 143.795 27.0994 141.181 28.0226 138.589C29.1499 135.433 30.3261 132.291 31.6221 129.202C33.1577 125.544 34.8354 121.945 36.4643 118.328C37.059 116.996 37.6848 115.713 38.2396 114.497C37.7074 114.173 37.1933 113.821 36.6995 113.441C34.8443 111.808 33.6193 109.735 32.5408 107.538C31.5907 105.673 31.2614 103.553 31.6007 101.488C31.94 99.4223 32.9303 97.5193 34.4271 96.0561C36.3356 94.1654 38.6923 93.0913 41.0846 92.0128L43.3304 91.3426H43.5079L43.7476 91.103H47.2982C47.4545 91.1848 47.6161 91.256 47.782 91.316C49.078 91.68 50.4184 91.9329 51.6655 92.4212C53.0458 92.9671 52.9349 93.0248 53.6095 91.6578C54.1122 90.7986 54.6805 89.9795 55.3094 89.2078L55.7532 89.1235L56.1971 89.0125L97.4734 77.9922C98.8538 96.1627 116.181 105.741 130.983 102.35C137.565 100.836 143.011 97.3876 146.961 91.9108C152.287 84.5165 153.33 76.3766 150.392 67.5L155.34 67.0562C155.34 68.9202 155.314 70.6068 155.34 72.2978C155.417 77.6985 157.282 82.9213 160.644 87.1484C163.219 90.5043 166.614 93.1422 170.502 94.809C173.556 96.1649 176.872 96.8301 180.213 96.7574C182.587 96.6864 184.948 96.1183 187.314 95.7721C187.389 96.3535 187.496 96.9349 187.531 97.5208C187.633 99.2562 187.696 101 189.751 101.693C189.879 101.737 189.977 101.884 190.079 101.986C192.081 103.983 194.273 105.825 196.026 108.017C197.694 110.162 199.139 112.47 200.34 114.906C202.097 118.242 203.104 121.921 203.292 125.686C203.416 128.767 203.576 131.9 203.132 134.931C202.463 139.468 200.83 143.808 198.343 147.66C196.408 150.748 194.013 153.523 191.242 155.889C190.917 156.228 190.633 156.604 190.394 157.008H190.19L189.302 158.339V158.818L190.434 157.678L191.1 157.438C194.255 159.657 196.843 162.502 199.28 165.454C201.024 167.571 202.546 169.892 204.162 172.111C203.734 172.487 203.258 172.804 202.746 173.052C199.195 174.188 196.089 176.088 193.093 178.196C192.743 178.363 192.371 178.478 191.987 178.538C191.419 176.554 190.86 174.566 190.288 172.586C189.591 170.181 188.637 169.63 186.187 170.309C181.074 171.73 175.965 173.168 170.861 174.623C163.591 176.695 156.323 178.757 149.056 180.81C147.484 181.254 146.752 182.386 147.121 184.001C147.378 185.147 147.724 186.274 148.03 187.41C146.131 187.175 144.24 186.922 142.34 186.704C138.47 186.261 134.609 185.608 130.73 185.475C123.806 185.235 116.86 185.187 110.074 187.002C109.683 187.104 109.386 187.583 109.044 187.889C109.442 188.031 109.861 188.101 110.282 188.098C114.516 187.109 118.846 186.595 123.194 186.567C128.053 186.602 132.913 186.886 137.765 187.228C140.437 187.447 143.096 187.818 145.727 188.338C149.553 189.052 153.347 189.944 157.164 190.721C160.981 191.498 163.569 193.85 164.741 197.303C165.327 198.952 165.49 200.721 165.216 202.449C164.943 204.177 164.241 205.809 163.174 207.196C161.745 209.111 160.124 210.875 158.336 212.46C156.306 214.211 154.139 215.798 151.856 217.205C148.576 219.255 145.199 221.137 141.808 223.019C139.167 224.492 136.54 226.015 133.774 227.226C130.579 228.624 127.255 229.747 123.957 230.915C117.526 233.155 110.947 234.947 104.269 236.276C103.456 236.502 102.661 236.785 101.89 237.124C93.0927 235.018 84.5939 231.82 76.5911 227.604C61.2978 219.653 48.0399 208.289 37.8446 194.392C32.6641 187.376 28.3207 179.779 24.9024 171.756C23.8772 169.359 23.0916 166.874 22.1995 164.406C22.0575 164.118 21.9421 163.807 21.8222 163.492ZM154.706 121.852C155.389 122.957 155.966 123.889 156.539 124.825C158.891 128.66 161.252 132.486 163.573 136.334C163.933 136.933 164.323 136.946 164.852 136.707C165.828 136.263 166.782 135.788 167.781 135.411C168.669 135.078 168.797 134.576 168.527 133.706C167.559 130.6 166.671 127.493 165.739 124.386C165.167 122.46 164.568 120.542 163.964 118.518L154.706 121.852ZM170.399 134.625C171.731 134.306 172.974 133.946 174.234 133.737C175.038 133.595 175.339 133.294 175.308 132.437C175.175 128.815 175.122 125.198 175.015 121.576C174.962 119.779 174.851 117.986 174.758 116.051L166.014 118.163L170.399 134.625ZM180.062 166.239C180.19 166.324 180.359 166.497 180.417 166.466C183.413 164.77 185.996 162.538 188.477 160.172C188.658 159.945 188.808 159.694 188.921 159.426L188.69 159.24L180.062 166.239Z" fill="#EE4F47"/>
<path d="M21.1527 160.567C20.9264 160.319 20.558 160.101 20.4914 159.813C19.5638 155.845 18.5119 151.899 17.8284 147.887C17.098 143.737 16.5839 139.552 16.2883 135.349C15.991 130.861 15.9333 126.339 16.0709 121.843C16.2049 118.43 16.5548 115.03 17.1183 111.661C17.7929 107.387 18.543 103.109 19.5993 98.9144C20.5832 95.1838 21.7776 91.5119 23.1766 87.9163C24.5348 84.3168 26.0793 80.7794 27.717 77.2998C28.8565 74.9905 30.1173 72.7431 31.494 70.5669C33.1939 67.7707 34.8716 64.9568 36.7845 62.3116C38.977 59.2758 41.3471 56.3598 43.7704 53.4971C45.6404 51.2633 47.6271 49.13 49.7222 47.1059C53.6856 43.3067 57.7822 39.6539 62.3226 36.5338C64.4752 35.0603 66.539 33.427 68.7582 32.0955C71.4212 30.4444 74.204 28.9043 77.0179 27.4841C80.2534 25.8508 83.5733 24.3772 86.8754 22.8726C88.0126 22.3498 89.1841 21.9049 90.3817 21.5412C94.1809 20.4049 97.9712 19.2332 101.81 18.2612C105.117 17.4268 108.468 16.7034 111.832 16.193C115.13 15.6914 118.49 15.4651 121.809 15.2299C124.273 15.0568 126.745 15.0079 129.217 15.0035C134.076 14.9602 138.93 15.318 143.73 16.0731C146.664 16.5569 149.651 16.7921 152.532 17.4934C156.668 18.5053 160.769 19.7126 164.799 21.0796C168.58 22.3622 172.295 23.8846 175.961 25.4735C178.481 26.5796 180.935 27.8304 183.311 29.2194C186.449 31.0303 189.569 32.9033 192.547 34.9626C195.526 37.022 198.286 39.2012 201.016 41.4914C203.723 43.7145 206.306 46.0852 208.752 48.5927C211.694 51.6995 214.522 54.9085 217.136 58.2727C219.878 61.7795 222.434 65.4284 224.792 69.2043C226.949 72.7508 228.904 76.4168 230.646 80.1847C232.343 83.8039 233.854 87.5073 235.173 91.2805C236.287 94.4583 237.064 97.7649 237.916 101.045C238.488 103.264 239.017 105.483 239.403 107.702C239.951 110.476 240.334 113.28 240.548 116.1C240.836 121.661 241.045 127.235 240.992 132.801C240.947 136.352 240.415 139.902 239.971 143.426C239.625 146.191 239.203 148.961 238.586 151.673C237.849 154.886 236.913 158.059 235.972 161.224C235.265 163.736 234.432 166.211 233.478 168.64C232.022 172.191 230.397 175.653 228.751 179.106C227.996 180.682 227.015 182.146 226.137 183.66C225.693 182.954 225.249 182.222 224.752 181.552C221.428 177.113 216.47 175.24 211.632 173.176L208.854 172.413L208.184 172.364H206.635L205.747 172.422H205.063L204.691 172.067C204.638 171.931 204.576 171.799 204.504 171.672C201.428 166.874 198.038 162.351 193.688 158.592L191.349 156.582C191.735 156.315 192.001 156.173 192.237 155.978C195.395 153.294 198.02 150.04 199.977 146.387C204.713 137.475 205.64 128.19 202.56 118.527C200.155 110.982 195.628 105.022 189.192 100.455C188.8 100.147 188.534 99.7065 188.446 99.2162C188.26 97.9424 188.216 96.6509 188.118 95.3638C188.336 95.3256 188.55 95.2737 188.762 95.2084C196.134 92.2969 201.189 87.1218 203.723 79.6077C208.445 65.6448 200.341 50.4213 185.903 46.9505C181.132 45.7835 176.119 46.093 171.528 47.8382C167.149 49.4971 163.319 52.3435 160.467 56.058C160.015 55.9035 159.57 55.7258 159.136 55.5254C154.076 52.9969 148.688 51.1892 143.127 50.155C136.678 48.8723 130.176 48.535 123.598 48.6682C117.868 48.7605 112.162 49.4341 106.568 50.6787C98.4925 52.5071 90.756 55.5987 83.6443 59.8394C77.2354 63.6564 71.2969 68.0592 66.2772 73.5982C64.5285 75.5378 62.8286 77.5217 61.1065 79.4879C60.8313 79.5944 60.5606 79.7142 60.2854 79.8119C56.0957 81.312 51.9103 82.8166 47.7161 84.2946C47.3628 84.3941 47.0409 84.5826 46.7813 84.8422C46.5218 85.1018 46.3332 85.4236 46.2337 85.777C45.6523 87.4813 44.9333 89.1368 44.272 90.81L43.7527 90.8766L42.9715 91.0453L41.9774 91.1962C40.202 91.9329 38.3557 92.4833 36.7268 93.442C33.7798 95.1773 31.4585 97.6095 30.9126 101.125C30.0693 106.553 32.8078 110.632 36.496 114.182C37.1485 114.812 37.2594 115.199 36.8644 115.922C36.2354 117.01 35.6636 118.13 35.1512 119.277C32.83 124.781 30.3845 130.245 28.3073 135.841C26.4876 140.75 25.0318 145.796 23.5583 150.825C22.6174 154.016 21.9472 157.309 21.1527 160.567Z" fill="#F8E0E0"/>
<path d="M183.555 225.802C183.231 226.049 182.89 226.272 182.534 226.472C181.753 226.84 180.923 227.106 180.164 227.51C179.028 228.118 177.976 228.882 176.818 229.432C175.814 229.911 174.692 230.138 173.662 230.564C173.049 230.821 172.552 231.367 171.931 231.576C171.142 231.787 170.338 231.936 169.525 232.02C169.454 231.802 169.383 231.576 169.317 231.363L169.175 230.919C168.105 227.169 167.044 223.414 165.966 219.668C165.007 216.348 164.022 213.032 163.05 209.717C163.827 208.341 164.683 207.001 165.367 205.585C166.373 203.468 166.699 201.092 166.302 198.782C165.905 196.472 164.803 194.342 163.148 192.683C161.51 191.023 159.477 190.131 157.324 189.429C157.009 188.2 156.694 186.971 156.361 185.679L182.738 178.414C183.426 180.708 184.07 182.785 184.678 184.867C184.658 185.019 184.619 185.168 184.562 185.311C181.975 189.589 182.379 193.832 185.827 197.427C186.815 198.369 187.852 199.258 188.934 200.09C189.356 201.604 189.773 203.122 190.199 204.635L194.194 218.962L192.862 220.063L190.865 221.394L190.212 222.033L189.547 222.255L188.215 223.143L186.662 224.253L185.557 224.696L184.669 225.362H184.443L183.555 225.802Z" fill="#FDFCFD"/>
<path d="M225.524 184.779C224.046 187.14 222.643 189.559 221.085 191.858C217.81 196.616 214.165 201.11 210.185 205.297C210.047 205.418 209.898 205.526 209.741 205.621C209.124 205.528 208.503 205.452 207.89 205.332C201.615 204.031 195.537 201.917 189.809 199.043C186.737 197.534 184.483 195.111 184.039 191.449C183.812 189.479 183.999 187.517 185.463 186.079C187.415 184.131 189.49 182.312 191.677 180.633C194.695 178.356 197.837 176.239 201.37 174.779C204.832 173.345 208.299 172.755 211.863 174.375C212.83 174.819 213.789 175.263 214.752 175.729C217.295 176.914 219.892 178.059 221.853 180.136C223.194 181.565 224.308 183.221 225.524 184.779Z" fill="#EE4F47"/>
<path d="M161.674 235.264C158.066 236.183 154.48 237.204 150.845 238.003C141.838 239.954 132.606 240.662 123.407 240.107C118.108 239.809 112.839 238.984 107.562 238.331C106.405 238.132 105.26 237.871 104.131 237.55C105.711 237.204 107.309 236.933 108.867 236.503C113.336 235.278 117.837 234.137 122.235 232.681C126.736 231.194 131.192 229.521 135.55 227.648C138.515 226.379 141.32 224.688 144.121 223.081C147.729 221.017 151.28 218.851 154.857 216.734C155.301 216.481 155.745 216.291 156.188 216.042L161.674 235.264Z" fill="#EE4F47"/>
<path d="M161.674 235.264L156.188 216.055C156.387 215.753 156.613 215.469 156.863 215.207C158.301 213.942 159.77 212.708 161.208 211.448C161.843 210.889 162.438 210.289 163.05 209.708C164.022 213.023 165.007 216.339 165.966 219.659C167.045 223.405 168.105 227.159 169.175 230.91L169.317 231.354C169.384 231.571 169.455 231.798 169.526 232.011C169.366 232.255 169.255 232.636 169.037 232.716C166.592 233.599 164.129 234.425 161.674 235.264Z" fill="#2A275E"/>
<path d="M163.05 209.708C162.438 210.29 161.843 210.889 161.208 211.448C159.77 212.709 158.301 213.943 156.863 215.207C156.613 215.469 156.387 215.753 156.189 216.055C155.745 216.286 155.301 216.499 154.857 216.748C151.28 218.865 147.729 221.031 144.121 223.094C141.307 224.701 138.515 226.392 135.55 227.661C131.192 229.534 126.736 231.212 122.235 232.694C117.837 234.15 113.359 235.291 108.867 236.516C107.309 236.96 105.712 237.217 104.131 237.563L101.89 237.124C102.663 236.793 103.458 236.517 104.269 236.298C110.949 234.96 117.527 233.16 123.957 230.91C127.255 229.743 130.579 228.62 133.775 227.222C136.54 226.01 139.168 224.488 141.808 223.014C145.19 221.133 148.577 219.251 151.857 217.2C154.139 215.793 156.306 214.207 158.337 212.456C160.124 210.87 161.745 209.107 163.174 207.192C164.241 205.805 164.943 204.173 165.217 202.445C165.491 200.717 165.327 198.947 164.741 197.299C163.569 193.846 160.942 191.489 157.165 190.717C153.388 189.945 149.553 189.048 145.727 188.333C143.096 187.813 140.438 187.443 137.765 187.224C132.914 186.882 128.054 186.598 123.194 186.563C118.848 186.593 114.519 187.108 110.287 188.098C109.866 188.102 109.447 188.031 109.049 187.89C109.391 187.588 109.688 187.108 110.079 187.002C116.865 185.187 123.811 185.227 130.735 185.475C134.614 185.608 138.475 186.265 142.345 186.705C144.245 186.922 146.136 187.175 148.035 187.41L157.334 189.412C159.486 190.113 161.519 191.005 163.157 192.665C164.812 194.324 165.914 196.455 166.311 198.765C166.709 201.074 166.382 203.451 165.376 205.567C164.684 206.992 163.827 208.332 163.05 209.708Z" fill="#903E40"/>
<path d="M194.208 218.927C192.873 214.151 191.542 209.376 190.213 204.6C189.769 203.087 189.37 201.569 188.948 200.055C191.496 201.085 194.045 202.12 196.595 203.162C197.51 203.53 198.411 203.925 199.321 204.307C200.158 207.227 200.998 210.146 201.842 213.064C199.827 214.724 197.825 216.397 195.792 218.03C195.287 218.368 194.757 218.668 194.208 218.927Z" fill="#2A275E"/>
<path d="M199.311 204.28C198.401 203.899 197.5 203.504 196.586 203.135C194.038 202.103 191.489 201.067 188.939 200.028C187.857 199.196 186.82 198.307 185.832 197.365C182.383 193.77 181.979 189.527 184.567 185.249C184.624 185.106 184.663 184.957 184.682 184.805C186.675 183.185 188.677 181.578 190.652 179.923C191.127 179.472 191.572 178.99 191.983 178.48C192.368 178.414 192.74 178.291 193.089 178.116C196.098 176.008 199.209 174.122 202.742 172.972C203.254 172.724 203.73 172.407 204.158 172.032L204.69 172.005L205.063 172.36H205.747L206.634 172.302H208.161L208.831 172.351L211.601 173.106C216.439 175.169 221.396 177.051 224.72 181.481C225.222 182.151 225.648 182.883 226.105 183.589C225.91 183.966 225.71 184.339 225.51 184.716C224.294 183.158 223.18 181.503 221.836 180.074C219.883 177.997 217.286 176.852 214.734 175.666C213.771 175.223 212.812 174.752 211.845 174.313C208.294 172.693 204.815 173.283 201.353 174.717C197.802 176.177 194.695 178.294 191.659 180.571C189.473 182.25 187.397 184.069 185.446 186.017C183.981 187.455 183.795 189.416 184.021 191.387C184.438 195.049 186.711 197.472 189.791 198.981C195.519 201.855 201.597 203.969 207.873 205.27C208.485 205.39 209.106 205.465 209.723 205.559L208.725 206.5C207.615 206.282 206.506 206.113 205.405 205.838C203.381 205.394 201.348 204.826 199.311 204.28Z" fill="#903E40"/>
<path d="M21.1523 160.567C21.9468 157.309 22.617 154.016 23.5579 150.803C25.0314 145.774 26.4872 140.728 28.3069 135.819C30.3841 130.222 32.8296 124.759 35.1508 119.255C35.6632 118.108 36.235 116.988 36.864 115.9C37.259 115.176 37.1481 114.79 36.4956 114.16C32.8074 110.609 30.0689 106.553 30.9122 101.111C31.4581 97.596 33.7794 95.1638 36.7264 93.4284C38.3553 92.4697 40.2194 91.9194 41.9769 91.1826L41.0893 92.0126C38.7148 93.0911 36.358 94.1652 34.4318 96.0559C32.9301 97.5176 31.9353 99.4212 31.5927 101.489C31.2502 103.556 31.5778 105.679 32.5278 107.547C33.6063 109.744 34.8312 111.816 36.6865 113.45C37.1803 113.829 37.6944 114.182 38.2266 114.506C37.6585 115.722 37.0327 117.023 36.4512 118.336C34.8224 121.953 33.1447 125.553 31.609 129.21C30.313 132.317 29.1369 135.424 28.0096 138.597C27.0864 141.189 26.2564 143.821 25.4975 146.466C24.4811 150.017 23.5446 153.568 22.6214 157.118C22.2708 158.45 22.0711 159.852 21.7737 161.215C21.6627 161.599 21.5263 161.976 21.3654 162.342L21.1523 160.567Z" fill="#903E40"/>
<path d="M199.312 204.28C201.349 204.822 203.381 205.39 205.432 205.896C206.524 206.171 207.651 206.34 208.752 206.557L201.832 213.037C200.995 210.12 200.155 207.201 199.312 204.28Z" fill="#EE4F47"/>
<path d="M44.2725 90.7968C44.9338 89.1235 45.6528 87.468 46.2342 85.7637C46.3375 85.4172 46.5267 85.1024 46.7844 84.8486C47.042 84.5948 47.3596 84.4104 47.7077 84.3124C51.9019 82.8344 56.0873 81.3299 60.277 79.8297C60.5522 79.7321 60.823 79.6122 61.0981 79.5057L62.8335 78.8089C64.4757 78.2674 66.1356 77.7614 67.7645 77.1845C73.1926 75.2538 78.6073 73.2876 84.0354 71.3525C89.1439 69.5284 94.2435 67.7264 99.3609 65.8845C99.7644 65.7249 100.101 65.432 100.315 65.0545C102.873 60.0126 106.963 55.9107 111.997 53.3374C117.576 50.4081 123.51 49.6358 129.644 50.6744C135.675 51.6819 140.802 54.549 145.053 58.9651C145.217 59.1154 145.409 59.2319 145.617 59.308C145.826 59.3842 146.048 59.4185 146.27 59.409C149.984 59.0761 153.686 58.6145 157.401 58.3349C158.608 58.2461 159.456 57.9488 159.86 56.7682L160.441 56.0714C163.291 52.3544 167.121 49.5063 171.501 47.8472C176.093 46.102 181.106 45.7924 185.877 46.9595C200.315 50.4303 208.419 65.6537 203.697 79.6167C201.154 87.1307 196.107 92.3058 188.735 95.2174C188.524 95.2827 188.309 95.3346 188.092 95.3727L187.32 95.7766C184.95 96.1228 182.588 96.6909 180.218 96.7619C176.877 96.8346 173.561 96.1693 170.507 94.8135C166.619 93.1467 163.225 90.5088 160.65 87.1529C157.288 82.9258 155.422 77.703 155.346 72.3023C155.315 70.6157 155.346 68.9247 155.346 67.0606L150.397 67.5045C153.335 76.3811 152.297 84.5121 146.966 91.9152C143.016 97.3921 137.57 100.841 130.988 102.354C116.187 105.745 98.8594 96.1672 97.4791 77.9967L56.2027 89.017L55.7588 89.128L55.315 89.2123L53.7305 89.7715C51.7555 90.0467 51.6489 90.1355 51.5114 91.6845C51.0675 91.6179 50.6725 91.5424 50.2509 91.4847L47.2994 91.103H45.0802L44.2725 90.7968ZM124.713 93.766C133.425 93.7882 140.668 87.9296 142.177 79.4702C143.593 71.5345 139.337 64.1358 132.102 61.029C125.933 58.366 119.937 59.0273 114.314 62.8043C108.1 66.9674 105.437 75.6 108.189 82.5459C109.48 85.8711 111.752 88.725 114.704 90.7289C117.655 92.7328 121.145 93.792 124.713 93.766ZM163.996 71.4901C163.996 80.5043 171.248 87.9119 180.129 87.9119C189.011 87.9119 196.294 80.6286 196.352 71.5744C196.409 62.5202 189.175 55.1526 180.28 55.1127C178.134 55.1115 176.008 55.5349 174.026 56.3587C172.043 57.1825 170.244 58.3903 168.73 59.9125C167.216 61.4348 166.019 63.2414 165.206 65.2284C164.394 67.2154 163.983 69.3435 163.996 71.4901Z" fill="#2A275E"/>
<path d="M191.988 178.538C191.577 179.048 191.132 179.53 190.656 179.98C188.686 181.623 186.662 183.229 184.687 184.863C184.061 182.781 183.435 180.704 182.747 178.409L156.37 185.675C156.703 186.966 157.018 188.196 157.333 189.425L148.049 187.415C147.742 186.278 147.396 185.151 147.139 184.006C146.77 182.39 147.503 181.259 149.074 180.815C156.344 178.761 163.612 176.699 170.879 174.628C175.983 173.181 181.092 171.743 186.205 170.314C188.655 169.635 189.609 170.185 190.306 172.591C190.865 174.575 191.424 176.563 191.988 178.538Z" fill="#2A275E"/>
<path d="M154.706 121.852L163.951 118.514C164.568 120.538 165.167 122.455 165.726 124.382C166.658 127.488 167.546 130.595 168.513 133.702C168.784 134.59 168.664 135.074 167.768 135.406C166.769 135.784 165.815 136.267 164.838 136.702C164.31 136.942 163.92 136.929 163.56 136.33C161.239 132.482 158.878 128.656 156.525 124.821C155.962 123.889 155.385 122.957 154.706 121.852Z" fill="#FDFCFD"/>
<path d="M170.396 134.625L166.011 118.146L174.754 116.033C174.847 117.968 174.958 119.761 175.012 121.559C175.118 125.181 175.171 128.798 175.305 132.419C175.336 133.272 175.034 133.578 174.231 133.72C172.97 133.946 171.732 134.306 170.396 134.625Z" fill="#FDFCFD"/>
<path d="M187.328 95.7677L188.1 95.3638C188.198 96.6509 188.242 97.9424 188.428 99.2162C188.516 99.7066 188.782 100.147 189.174 100.455C195.61 105.022 200.137 110.996 202.542 118.527C205.622 128.172 204.695 137.475 199.959 146.387C198.007 150.041 195.386 153.296 192.232 155.982C192.01 156.178 191.744 156.32 191.344 156.586L193.683 158.597C198.033 162.338 201.424 166.878 204.5 171.676C204.571 171.803 204.634 171.935 204.686 172.071L204.153 172.098C202.533 169.879 201.011 167.575 199.271 165.44C196.835 162.489 194.247 159.671 191.091 157.425L190.408 156.981C190.647 156.577 190.931 156.202 191.256 155.863C194.027 153.496 196.422 150.722 198.357 147.634C200.843 143.781 202.476 139.441 203.146 134.905C203.59 131.878 203.43 128.74 203.306 125.66C203.118 121.894 202.11 118.215 200.354 114.879C199.153 112.443 197.707 110.135 196.04 107.991C194.287 105.798 192.094 103.956 190.093 101.959C189.991 101.857 189.893 101.711 189.764 101.666C187.705 100.974 187.643 99.2295 187.545 97.4942C187.51 96.9305 187.403 96.3491 187.328 95.7677Z" fill="#903E40"/>
<path d="M180.058 166.239L188.677 159.24L188.908 159.427C188.795 159.694 188.646 159.945 188.464 160.172C185.992 162.56 183.409 164.779 180.413 166.466C180.355 166.497 180.187 166.324 180.058 166.239Z" fill="#903E40"/>
<path d="M47.2986 91.1032L50.2457 91.4804C50.6895 91.5381 51.0845 91.6136 51.5061 91.6802C52.1186 92.0885 52.6202 92.124 52.9486 91.3118C53.1616 90.7792 53.4679 90.2821 53.7342 89.7672L55.3098 89.208C54.6809 89.9797 54.1126 90.7988 53.6099 91.658C52.9353 93.025 53.0462 92.9895 51.6659 92.4214C50.4187 91.9331 49.0784 91.6802 47.7824 91.3162C47.6165 91.2562 47.4549 91.185 47.2986 91.1032ZM41.085 92.013L41.9726 91.1831L42.9668 91.0322L43.3263 91.3428L41.085 92.013Z" fill="#903E40"/>
<path d="M190.435 157.678L189.325 158.814V158.334L190.213 157.003L190.435 157.678Z" fill="#903E40"/>
<path d="M190.435 157.678L190.213 157.017H190.417L191.101 157.46L190.435 157.678Z" fill="#903E40"/>
<path d="M62.8331 78.8086L61.0889 79.5054C62.8109 77.5393 64.5108 75.5553 66.2595 73.6158C71.2793 68.0634 77.2177 63.6606 83.6267 59.857C90.7384 55.6163 98.4749 52.5246 106.551 50.6963C112.145 49.4517 117.85 48.778 123.58 48.6857C130.149 48.5526 136.651 48.8899 143.109 50.1726C148.67 51.2068 154.059 53.0144 159.118 55.5429C159.552 55.7433 159.997 55.9211 160.45 56.0755L159.868 56.7768C158.594 56.1332 157.36 55.3965 156.047 54.8639C153.951 53.9642 151.803 53.1891 149.616 52.5426C146.509 51.686 143.34 50.9537 140.162 50.39C137.378 49.8664 134.56 49.5519 131.729 49.4491C127.375 49.3426 123.008 49.3648 118.667 49.671C114.938 49.9498 111.232 50.4732 107.571 51.2378C104.336 51.9268 101.146 52.8162 98.0201 53.9008C92.3256 55.8111 86.9016 58.4486 81.8824 61.7477C78.9565 63.6022 76.1409 65.625 73.4496 67.806C70.6135 70.1983 68.0437 72.9101 65.4295 75.5509C64.5036 76.5872 63.6368 77.6748 62.8331 78.8086Z" fill="#903E40"/>
<path d="M124.712 93.7656C121.144 93.7913 117.653 92.7314 114.702 90.7267C111.751 88.7219 109.479 85.8671 108.188 82.5411C105.419 75.5952 108.113 66.9626 114.313 62.7995C119.936 59.0269 125.933 58.3833 132.102 61.0241C139.336 64.131 143.593 71.5296 142.177 79.4654C140.668 87.9292 133.425 93.7878 124.712 93.7656Z" fill="#FDFCFD"/>
<path d="M163.996 71.4902C163.983 69.3439 164.395 67.2163 165.207 65.2298C166.02 63.2433 167.218 61.4372 168.731 59.9154C170.245 58.3937 172.044 57.1863 174.026 56.3628C176.008 55.5393 178.134 55.116 180.28 55.1172C189.157 55.1483 196.413 62.5558 196.351 71.5789C196.289 80.602 189.05 87.9253 180.129 87.9164C171.208 87.9075 163.978 80.5044 163.996 71.4902Z" fill="#FDFCFD"/>
<path d="M62.833 78.8085C63.6353 77.6763 64.5007 76.5902 65.425 75.5552C68.0392 72.9144 70.6089 70.2026 73.445 67.8103C76.1363 65.6293 78.952 63.6065 81.8778 61.752C86.897 58.4528 92.3211 55.8154 98.0156 53.9051C101.141 52.8205 104.331 51.9311 107.567 51.2421C111.227 50.4775 114.934 49.9541 118.663 49.6753C123.003 49.3691 127.371 49.3469 131.725 49.4534C134.555 49.5562 137.374 49.8707 140.157 50.3943C143.335 50.958 146.495 51.6903 149.611 52.5469C151.797 53.1877 153.943 53.9569 156.038 54.8504C157.369 55.383 158.585 56.1198 159.859 56.7633C159.455 57.9439 158.608 58.2413 157.4 58.3301C153.685 58.6097 149.984 59.0713 146.269 59.4041C146.047 59.4137 145.825 59.3794 145.617 59.3032C145.408 59.227 145.217 59.1105 145.053 58.9603C140.801 54.522 135.675 51.677 129.643 50.6695C123.509 49.6443 117.575 50.4165 111.996 53.3325C106.962 55.9058 102.873 60.0078 100.315 65.0497C100.101 65.4272 99.7639 65.7201 99.3604 65.8796C94.2608 67.7215 89.1523 69.5235 84.0349 71.3477C78.6068 73.2828 73.192 75.2489 67.764 77.1796C66.144 77.761 64.4841 78.267 62.833 78.8085Z" fill="#EE4F47"/>
<path d="M53.7305 89.7715C53.4642 90.2863 53.1579 90.7834 52.9449 91.316C52.6165 92.1415 52.1149 92.0927 51.5024 91.6844C51.6489 90.1354 51.7377 90.0467 53.7305 89.7715Z" fill="#F8E0E0"/>
</svg>
