<svg width="256" height="256" viewBox="0 0 256 256" fill="none" xmlns="http://www.w3.org/2000/svg">
<path d="M196 0H60C26.8629 0 0 26.8629 0 60V196C0 229.137 26.8629 256 60 256H196C229.137 256 256 229.137 256 196V60C256 26.8629 229.137 0 196 0Z" fill="#F4F2ED"/>
<path d="M74.1427 164.688C76.5665 164.688 78.5313 162.723 78.5313 160.299C78.5313 157.875 76.5665 155.911 74.1427 155.911C71.7189 155.911 69.7539 157.875 69.7539 160.299C69.7539 162.723 71.7189 164.688 74.1427 164.688Z" fill="#131313"/>
<path d="M128.359 187.405C125.777 187.405 123.97 189.47 123.97 191.793C123.97 194.375 126.035 196.182 128.359 196.182C130.94 196.182 132.747 194.117 132.747 191.793C132.747 189.212 130.682 187.405 128.359 187.405Z" fill="#131313"/>
<path d="M128.359 69.9442C130.94 69.9442 132.747 67.879 132.747 65.5555C132.747 63.2321 130.682 60.9087 128.359 60.9087C125.777 60.9087 123.97 62.974 123.97 65.2974C123.97 67.6208 125.777 69.9442 128.359 69.9442Z" fill="#131313"/>
<path d="M182.568 101.44C185.15 101.44 186.957 99.3751 186.957 97.0516C186.957 94.7282 184.892 92.6631 182.568 92.6631C180.245 92.6631 178.18 94.7282 178.18 97.0516C178.18 99.3751 179.987 101.44 182.568 101.44Z" fill="#131313"/>
<path d="M74.1427 101.438C76.7243 101.438 78.5313 99.3724 78.5313 97.049C78.5313 94.7255 76.7243 92.4023 74.1427 92.4023C71.5609 92.4023 69.7539 94.4674 69.7539 96.7909C69.7539 99.1143 71.5609 101.438 74.1427 101.438Z" fill="#131313"/>
<path d="M182.568 164.688C184.992 164.688 186.957 162.723 186.957 160.299C186.957 157.875 184.992 155.911 182.568 155.911C180.144 155.911 178.18 157.875 178.18 160.299C178.18 162.723 180.144 164.688 182.568 164.688Z" fill="#131313"/>
<path d="M128.359 124.157C125.777 124.157 123.97 126.222 123.97 128.545C123.97 130.869 126.035 132.934 128.359 132.934C130.94 132.934 132.747 130.869 132.747 128.545C132.747 126.222 130.682 124.157 128.359 124.157Z" fill="#131313"/>
<path d="M215.612 125.705H158.301H158.043C157.785 122.608 157.011 119.51 155.72 116.67L173.533 106.344L176.114 104.795L173.016 99.6314L170.435 101.18L152.88 111.507C150.815 108.667 148.233 106.085 145.135 104.02L145.652 103.246L174.565 53.6795L176.114 51.0979L170.951 48L169.402 50.5816L140.489 99.8898L139.972 100.664C137.132 99.6314 134.293 98.8569 131.195 98.3408V78.4626V75.6229H125.257V78.4626V98.3408C122.159 98.5989 119.061 99.3733 116.48 100.664L115.705 99.8898L87.0499 50.5816L85.5009 48L80.3379 51.0979L81.8869 53.6795L110.542 102.988L111.059 103.762C108.219 105.827 105.637 108.409 103.572 111.249L86.0174 100.922L83.4358 99.3733L80.3379 104.536L82.9194 106.085L100.732 116.412C99.4416 119.252 98.6671 122.349 98.4088 125.447H98.1507H41.0979H38V131.385H41.0979H98.1507H98.4088C98.6671 134.483 99.4416 137.581 100.732 140.42L82.9194 150.747L80.3379 152.296L83.4358 157.459L86.0174 155.91L103.572 145.584C105.379 148.165 107.445 150.23 109.768 152.038L108.993 153.07L80.596 202.895L79.047 205.476L84.2103 208.574L85.7593 205.992L114.415 156.684L114.931 155.652C118.029 157.201 121.385 158.233 125.257 158.492V178.111V181.209H131.195V178.111V158.492C135.067 158.233 138.423 156.943 141.779 155.394L142.296 156.168L171.209 205.734L172.758 208.316L177.921 205.218L176.372 202.636L147.717 153.328L147.201 152.296C149.524 150.489 151.589 148.423 153.138 146.1L170.693 156.426L173.275 157.975L176.372 152.812L173.791 151.263L155.978 140.937C157.269 138.097 158.043 134.999 158.301 131.901H158.56H215.612H218.71V125.705H215.612ZM128.355 152.296C115.189 152.296 104.605 141.711 104.605 128.545C104.605 115.379 115.189 104.795 128.355 104.795C141.521 104.795 152.106 115.379 152.106 128.545C152.106 141.711 141.263 152.296 128.355 152.296Z" fill="#131313"/>
</svg>
