<svg width="256" height="256" viewBox="0 0 256 256" fill="none" xmlns="http://www.w3.org/2000/svg">
<path d="M196 0H60C26.8629 0 0 26.8629 0 60V196C0 229.137 26.8629 256 60 256H196C229.137 256 256 229.137 256 196V60C256 26.8629 229.137 0 196 0Z" fill="#242938"/>
<path d="M36 36H76.9919V56.3354H58.0516V199.555H76.9919V219.999H36V36Z" fill="#9C4221"/>
<path d="M171.257 74.708V96.0247H138.452V195.194H115.364V96.0247H82.3955V74.708H171.257Z" fill="white"/>
<path d="M220 219.999H179.008V199.664H197.948V56.4444H179.008V36H220V219.999Z" fill="#9C4221"/>
</svg>
