<svg fill="none" height="256" viewBox="0 0 256 256" width="256" xmlns="http://www.w3.org/2000/svg" xmlns:xlink="http://www.w3.org/1999/xlink">
<g clip-path="url(#a)">
<path d="m196 0h-136c-33.1371 0-60 26.8629-60 60v136c0 33.137 26.8629 60 60 60h136c33.137 0 60-26.863 60-60v-136c0-33.1371-26.863-60-60-60z" fill="#f4f2ed"/>
<g clip-path="url(#b)">
<path d="m188.976 124.356c0-2.707-1.083-5.303-3.011-7.217-1.929-1.914-4.544-2.989-7.271-2.989-2.726 0-5.342 1.075-7.27 2.989s-3.011 4.51-3.011 7.217c.053 1.941.71 3.818 1.882 5.372 1.172 1.555 2.801 2.71 4.662 3.307v15.548c-4.481-11.392-12.868-20.85-23.683-26.709 1.585-3.405 3.187-6.319 4.731-9.019 5.891-8.651 12.384-16.8819 19.433-24.632 3.871-4.5592 7.54-8.8476 10.521-12.5882 8.364-10.4121 17.549-25.7913 15.847-34.9099-.21-1.279-.704-2.4955-1.447-3.5609-.744-1.0653-1.717-1.9528-2.849-2.5977-11.618-6.8025-27.419 15.3122-42.946 36.6432-10.271 14.0857-15.595 34.0245-18.027 45.2165-4.763-1.034-9.623-1.558-14.498-1.564-7.087-.021-14.129 1.129-20.836 3.403-.435-12.487-.057-24.9888 1.133-37.4271 3.425-32.3549 1.916-51.3407-4.4254-57.8374-.8127-.9783-1.8413-1.7579-3.0061-2.2782-1.1649-.5204-2.4348-.7676-3.7114-.7224-18.7113.9176-16.5867 56.4098-16.2785 62.7374.7542 15.1753 6.8553 33.6167 10.5648 43.8247-8.6413 6.782-14.9344 16.072-18.0012 26.575h-1.3382c-1.3984-.064-2.7957.147-4.1121.62-1.3164.472-2.5261 1.198-3.56 2.135s-1.8718 2.066-2.4658 3.325c-.594 1.258-.9326 2.62-.9962 4.008v.12 17.587c.1077 2.814 1.3363 5.47 3.4159 7.385 2.0795 1.914 4.8398 2.931 7.6741 2.826h2.3125c2.5758 5.994 6.4212 11.366 11.275 15.752l-3.4189 2.995c-.8041.683-1.3037 1.654-1.39 2.701-.0863 1.048.2477 2.086.9293 2.89 10.2713 12.419 27.1102 19.519 45.9952 19.519 18.884 0 35.782-7.111 45.995-19.519.681-.801 1.016-1.836.933-2.881-.084-1.044-.58-2.014-1.379-2.698l-3.425-3.007c4.868-4.479 8.713-9.943 11.275-16.023h2.571c1.404.061 2.806-.154 4.126-.631 1.321-.478 2.534-1.209 3.569-2.152 1.036-.944 1.874-2.08 2.467-3.345s.929-2.633.989-4.027v-17.506c-.05-1.995-.7-3.929-1.866-5.554s-2.795-2.866-4.678-3.565v-21.057c1.873-.584 3.516-1.735 4.699-3.291 1.183-1.555 1.848-3.439 1.901-5.388z" fill="#cecccc"/>
<path d="m105.109 209.654c3.152-2.074-5.1413-1.29-5.828-2.686-3.3126-.296-6.5925-.881-9.8018-1.748-5.8253-1.529-19.8089-10.852-21.3173-19.81-1.5085-8.958 0-25.928 6.3065-36.125 3.9474-6.213 9.0365-11.635 15.002-15.982 0 0-12.2346-28.885-13.2617-50.6908-1.0271-21.8059.6926-60.6341 15.0225-61.3129 14.3298-.6788 12.2318 35.6556 9.7988 59.2969-1.4435 15.7009-1.6731 31.4888-.687 47.2238 6.103-1.924 12.451-2.978 18.853-3.131 5.639-.129 11.275.397 16.792 1.567 0 0 4.56-33.4794 19.571-54.4375 15.011-20.9582 30.846-42.3533 41.126-36.2645 10.28 6.0887-2.808 27.8305-11.891 39.1603-9.083 11.3297-24.813 28.3437-30.057 37.4267-3.439 6.044-6.473 12.307-9.083 18.747 9.352 4.766 16.998 12.273 21.902 21.503 7.401 14.663 7.95 32.696 3.973 40.366-1.996 3.536-4.755 6.589-8.079 8.942-3.324 2.352-7.131 3.946-11.149 4.666-4.557.207-23.715 4.935-23.715 4.935z" fill="#fff"/>
<path d="m138.661 126.568s11.445-29.6342 21.696-46.2719c10.251-16.6378 23.991-29.226 28.305-26.6769s-8.804 18.1031-20.32 33.3862c-9.378 13.4876-17.883 27.5536-25.461 42.1146z" fill="#c3388d"/>
<path d="m92.6985 131.637 3.4277-2.517s-.4813-29.6371 0-47.6353 1.4057-40.4946-4.6602-40.2819c-6.066.2127-10.2713 17.5904-7.9236 42.1202 1.7042 16.3278 4.7667 32.488 9.1561 48.314z" fill="#c3388d"/>
<g fill="#525252">
<path d="m89.1347 188.787c.1224-3.644-2.7539-6.697-6.4246-6.818-3.6706-.122-6.7454 2.734-6.8679 6.378-.1224 3.644 2.754 6.696 6.4247 6.818 3.6706.121 6.7454-2.734 6.8678-6.378z" fill="#f9d9d2"/>
<path d="m163.619 194.655c3.393-1.396 5.005-5.257 3.599-8.626-1.405-3.368-5.295-4.968-8.688-3.572-3.393 1.395-5.005 5.257-3.599 8.625 1.405 3.368 5.295 4.968 8.688 3.573z" fill="#f9d9d2"/>
<path d="m132.801 188.015c-.07-.041-.147-.068-.227-.08-.081-.011-.162-.007-.241.013-.078.02-.152.056-.217.104s-.119.109-.16.178c.001.007.001.014 0 .021 0 0-1.987 3.402-4.866 3.606-.975-.028-1.934-.253-2.819-.662-.884-.41-1.674-.994-2.323-1.718v-5.037c1.852-1.02 4.834-4.079 4.834-5.136-.26-1.124-.919-2.118-1.857-2.799s-2.091-1.004-3.25-.91c-3.427 0-5.828 2.211-5.828 4.05 0 1.838 3.771 4.218 4.834 4.897v4.967c-.541.683-1.22 1.244-1.994 1.649-.773.404-1.624.643-2.496.699-2.709 0-4.763-3.673-4.799-3.708-.08-.146-.214-.256-.373-.306-.16-.051-.333-.038-.483.035-.148.085-.257.222-.308.384-.05.162-.038.336.035.49 0 0 2.432 4.387 5.928 4.387.987-.043 1.955-.285 2.845-.712s1.683-1.029 2.331-1.77c1.423 1.478 3.358 2.366 5.415 2.482h.411c1.236-.24 2.403-.749 3.418-1.49s1.852-1.695 2.451-2.795c.041-.07.068-.146.08-.226.011-.08.007-.161-.013-.239s-.056-.151-.105-.215c-.048-.064-.109-.119-.179-.159z" fill="#101210"/>
<path d="m89.4705 133.373s-9.4936-23.819-11.3102-36.2702c-1.8165-12.4514-3.4189-33.2405-1.0154-47.0961 1.0305-6.3801 2.4267-12.6966 4.1819-18.9188 0 0-4.4225 32.2879-2.7762 46.4085 1.6464 14.1207 10.9199 55.8766 10.9199 55.8766z" fill="#e5e5e4"/>
<path d="m135.988 126.262s6.855-36.0316 16.83-50.1873c9.975-14.1556 22.345-31.3352 28.616-35.6556l6.274-4.3699s-25.164 26.2137-34.89 47.6467c-9.725 21.4331-16.83 42.5661-16.83 42.5661z" fill="#e5e5e4"/>
<path d="m96.1291 167.088c-1.0302-.006-2.0393.29-2.8998.853-.8604.562-1.5335 1.365-1.9342 2.307-.4007.943-.5109 1.982-.3167 2.986.1941 1.004.6839 1.929 1.4075 2.657.7235.728 1.6483 1.227 2.6574 1.433 1.009.207 2.057.111 3.0115-.274s1.7725-1.042 2.3502-1.889c.579-.846.891-1.844.898-2.866v-.035c0-1.366-.544-2.676-1.5133-3.645-.9693-.968-2.2852-1.517-3.6606-1.527zm1.4674 4.799c-.2781 0-.5498-.082-.781-.236-.2312-.153-.4113-.371-.5177-.626s-.1343-.535-.08-.806c.0542-.271.1881-.519.3847-.715.1966-.195.447-.328.7197-.381.2727-.054.5553-.027.8122.079s.4764.284.6309.514c.1544.229.2369.499.2369.775-.0008.37-.1492.725-.4126.986-.2635.262-.6206.409-.9931.41z" fill="#101210"/>
<path d="m147.266 167.089c-1.031-.001-2.039.302-2.897.87-.858.569-1.526 1.377-1.921 2.322-.395.946-.498 1.986-.297 2.99s.697 1.926 1.426 2.65 1.658 1.217 2.67 1.416c1.011.2 2.059.097 3.012-.295.952-.392 1.766-1.055 2.339-1.907.572-.851.877-1.852.877-2.875 0-1.372-.549-2.687-1.526-3.657s-2.302-1.514-3.683-1.514zm1.467 4.798c-.247-.025-.483-.12-.678-.273s-.342-.358-.424-.591-.096-.485-.039-.725c.057-.241.181-.46.359-.633s.402-.291.645-.342c.244-.051.497-.032.73.055.233.086.436.237.586.434.149.198.239.433.259.679-.008.37-.161.723-.426.983s-.622.408-.994.413z" fill="#101210"/>
<path d="m122.62 208.769c26.69 0 48.325-15.477 48.325-34.569s-21.635-34.569-48.325-34.569c-26.6887 0-48.3246 15.477-48.3246 34.569s21.6359 34.569 48.3246 34.569z" fill="#8bcccf" opacity=".2"/>
<path d="m181.126 154.978v-22.694c1.803-.395 3.426-1.37 4.616-2.772 1.189-1.402 1.881-3.155 1.966-4.986-.238-2.213-1.292-4.261-2.959-5.749-1.668-1.487-3.83-2.311-6.072-2.311s-4.405.824-6.072 2.311c-1.667 1.488-2.721 3.536-2.96 5.749.077 1.828.761 3.581 1.945 4.984s2.802 2.378 4.603 2.774v22.114h-.652c-6.855-23.612-27.11-38.277-53.537-38.277-26.4264 0-46.8164 14.528-53.5662 38.277h-2.2978c-2.4835-.121-4.9144.738-6.7631 2.389-1.8486 1.65-2.9651 3.96-3.1061 6.424v17.602c.1499 2.458 1.2703 4.758 3.1179 6.402 1.8477 1.643 4.2736 2.497 6.7513 2.376h3.1196c2.6456 6.672 6.8737 12.612 12.3255 17.316l-4.4401 3.936c-.5493.459-.8924 1.116-.9541 1.826-.0616.71.1633 1.416.6254 1.961l.0205.024c10.0072 12.011 26.4122 19.052 45.0002 19.052s34.993-6.805 45-19.052c.467-.541.698-1.244.643-1.954-.055-.711-.392-1.37-.937-1.834l-.023-.02-4.455-3.948c5.429-4.724 9.653-10.658 12.326-17.316h3.427c2.48.125 4.909-.725 6.76-2.367 1.852-1.642 2.977-3.942 3.13-6.402v-17.602c-.076-1.888-.755-3.703-1.938-5.182-1.183-1.48-2.81-2.549-4.644-3.051zm-59.122-13.786c24.472 0 44.355 15.997 44.355 35.627 0 21.267-22.348 30.621-44.352 30.621s-44.3514-9.526-44.3514-30.621c0-19.63 19.8794-35.627 44.3484-35.627z" fill="#fff"/>
<path d="m182.772 174.914h-6.579v-3.205c-.005-4.341-.442-8.671-1.303-12.926h2.776c.606-.041 1.215.037 1.79.23.576.193 1.108.496 1.566.893.457.397.831.879 1.101 1.42s.429 1.129.47 1.73v.149z"/>
<path d="m177.836 185.183h-3.428c.652-2.404 1.142-4.847 1.468-7.315h6.855v2.945c-.043 1.208-.568 2.35-1.459 3.175-.891.824-2.075 1.264-3.292 1.221z"/>
<path d="m122.004 229.173c-16.449 0-31.0514-5.887-40.2691-16.297l4.6279-4.078c10.5319 6.977 22.9842 10.539 35.6412 10.196 12.657.337 25.109-3.225 35.645-10.196l4.592 4.078c-9.185 10.418-23.817 16.297-40.237 16.297z"/><path d="m66.14 158.789h2.9347c-.855 4.256-1.2904 8.585-1.3001 12.926-.0825 1.066-.0825 2.138 0 3.204h-6.3976v-11.708c-.0189-1.154.4225-2.268 1.228-3.1.8054-.831 1.9094-1.313 3.0713-1.34.1548-.003.3096.003.4637.018z"/>
<path d="m122.004 138.279c-5.565.011-11.102.796-16.449 2.331v-17.719c10.755-2.948 22.114-2.948 32.869 0v17.864c-5.315-1.648-10.852-2.483-16.42-2.476z" fill="#010101"/>
<path d="m102.298 123.914v17.896c-16.4517 5.987-27.9321 19.496-27.9321 35.009 0 20.102 19.2279 33.718 47.6381 33.718 28.411 0 47.642-13.611 47.642-33.718 0-15.525-11.504-29.022-27.938-35.009v-17.896c19.227 6.805 31.221 24.471 31.221 47.938 0 26.403-20.393 44.232-50.931 44.232-30.5377 0-50.9218-17.727-50.9218-44.232 0-23.475 11.9939-41.066 31.2218-47.938z" fill="#525252"/>
<path d="m61.2039 177.874h6.8436c.3108 2.47.8011 4.915 1.4674 7.315h-3.4101c-.606.041-1.2142-.038-1.7898-.23-.5756-.193-1.1074-.496-1.565-.893-.4575-.396-.8319-.878-1.1017-1.419-.2698-.54-.4298-1.127-.4708-1.729 0-.041 0-.079 0-.117z" fill="#525252"/><path d="m178.658 128.03c2.27 0 4.111-1.645 4.111-3.673 0-2.029-1.841-3.674-4.111-3.674-2.271 0-4.112 1.645-4.112 3.674 0 2.028 1.841 3.673 4.112 3.673z" fill="#525252"/>
</g>
</g>
</g>
</svg>