<svg width="256" height="256" viewBox="0 0 256 256" fill="none" xmlns="http://www.w3.org/2000/svg" id="tryhackme">
<style>
#tryhackme {
    rect {fill: #242938}
    path {fill: #F1F1F1}

    @media (prefers-color-scheme: light) {
        rect {fill: #F4F2ED}
        path {fill: #131313}
    }
}
</style>
<rect width="256" height="256" fill="#242938" rx="60"/>
<path d="M142.945 138.541V122.897L138.977 125.961L136.36 122.382L143.366 117.237H147.972V138.541H142.945Z" fill="#F1F1F1"/>
<path d="M163.584 127.829C163.584 127.168 163.544 126.436 163.467 125.632C163.386 124.832 163.237 124.081 163.015 123.39C162.794 122.698 162.477 122.115 162.066 121.645C161.654 121.175 161.121 120.939 160.456 120.939C159.797 120.939 159.254 121.175 158.834 121.645C158.409 122.115 158.084 122.698 157.853 123.39C157.623 124.081 157.469 124.832 157.388 125.632C157.307 126.436 157.265 127.168 157.265 127.829C157.265 128.511 157.307 129.257 157.388 130.071C157.469 130.884 157.623 131.635 157.853 132.326C158.084 133.018 158.409 133.601 158.834 134.071C159.254 134.545 159.797 134.78 160.456 134.78C161.121 134.78 161.654 134.545 162.066 134.071C162.477 133.601 162.794 133.018 163.015 132.326C163.237 131.635 163.386 130.884 163.467 130.071C163.544 129.257 163.584 128.511 163.584 127.829ZM168.76 127.829C168.76 129.333 168.611 130.767 168.308 132.131C168.01 133.497 167.527 134.694 166.866 135.725C166.202 136.76 165.348 137.583 164.295 138.194C163.242 138.804 161.962 139.111 160.456 139.111C158.952 139.111 157.668 138.804 156.605 138.194C155.543 137.583 154.675 136.76 154.002 135.725C153.333 134.694 152.845 133.497 152.541 132.131C152.244 130.767 152.095 129.333 152.095 127.829C152.095 126.323 152.244 124.894 152.541 123.543C152.845 122.188 153.333 121.003 154.002 119.99C154.675 118.978 155.543 118.174 156.605 117.567C157.668 116.967 158.952 116.668 160.456 116.668C161.962 116.668 163.242 116.967 164.295 117.567C165.348 118.174 166.202 118.978 166.866 119.99C167.527 121.003 168.01 122.188 168.308 123.543C168.611 124.894 168.76 126.323 168.76 127.829Z" fill="#F1F1F1"/>
<path d="M196.998 138.541V122.897L193.03 125.961L190.408 122.382L197.419 117.237H202.024V138.541H196.998Z" fill="#F1F1F1"/>
<path d="M217.636 127.829C217.636 127.168 217.596 126.436 217.52 125.632C217.437 124.832 217.289 124.081 217.067 123.39C216.846 122.698 216.529 122.115 216.118 121.645C215.706 121.175 215.169 120.939 214.509 120.939C213.849 120.939 213.306 121.175 212.886 121.645C212.462 122.115 212.135 122.698 211.905 123.39C211.675 124.081 211.521 124.832 211.44 125.632C211.359 126.436 211.317 127.168 211.317 127.829C211.317 128.511 211.359 129.257 211.44 130.071C211.521 130.884 211.675 131.635 211.905 132.326C212.135 133.018 212.462 133.601 212.886 134.071C213.306 134.545 213.849 134.78 214.509 134.78C215.169 134.78 215.706 134.545 216.118 134.071C216.529 133.601 216.846 133.018 217.067 132.326C217.289 131.635 217.437 130.884 217.52 130.071C217.596 129.257 217.636 128.511 217.636 127.829ZM222.812 127.829C222.812 129.333 222.663 130.767 222.36 132.131C222.063 133.497 221.579 134.694 220.918 135.725C220.254 136.76 219.4 137.583 218.347 138.194C217.293 138.804 216.014 139.111 214.509 139.111C213.003 139.111 211.72 138.804 210.658 138.194C209.595 137.583 208.727 136.76 208.054 135.725C207.381 134.694 206.897 133.497 206.594 132.131C206.296 130.767 206.147 129.333 206.147 127.829C206.147 126.323 206.296 124.894 206.594 123.543C206.897 122.188 207.381 121.003 208.054 119.99C208.727 118.978 209.595 118.174 210.658 117.567C211.72 116.967 213.003 116.668 214.509 116.668C216.014 116.668 217.293 116.967 218.347 117.567C219.4 118.174 220.254 118.978 220.918 119.99C221.579 121.003 222.063 122.188 222.36 123.543C222.663 124.894 222.812 126.323 222.812 127.829Z" fill="#F1F1F1"/>
<path d="M142.48 172.072V156.427L138.507 159.497L135.89 155.917L142.9 150.768H147.507V172.072H142.48Z" fill="#F1F1F1"/>
<path d="M160.19 172.072V156.427L156.217 159.497L153.599 155.917L160.61 150.768H165.217V172.072H160.19Z" fill="#F1F1F1"/>
<path d="M177.823 172.072V156.427L173.85 159.497L171.238 155.917L178.243 150.768H182.85V172.072H177.823Z" fill="#F1F1F1"/>
<path d="M199.375 161.359C199.375 160.699 199.335 159.967 199.254 159.167C199.176 158.362 199.023 157.616 198.806 156.925C198.585 156.233 198.268 155.651 197.857 155.18C197.445 154.705 196.907 154.47 196.248 154.47C195.583 154.47 195.045 154.705 194.621 155.18C194.199 155.651 193.874 156.233 193.644 156.925C193.414 157.616 193.26 158.362 193.179 159.167C193.097 159.967 193.056 160.699 193.056 161.359C193.056 162.042 193.097 162.788 193.179 163.602C193.26 164.415 193.414 165.165 193.644 165.857C193.874 166.549 194.199 167.131 194.621 167.602C195.045 168.076 195.583 168.311 196.248 168.311C196.907 168.311 197.445 168.076 197.857 167.602C198.268 167.131 198.585 166.549 198.806 165.857C199.023 165.165 199.176 164.415 199.254 163.602C199.335 162.788 199.375 162.042 199.375 161.359ZM204.551 161.359C204.551 162.864 204.402 164.297 204.099 165.662C203.796 167.028 203.317 168.226 202.653 169.26C201.993 170.291 201.134 171.114 200.08 171.723C199.027 172.338 197.753 172.641 196.248 172.641C194.742 172.641 193.459 172.338 192.397 171.723C191.334 171.114 190.466 170.291 189.793 169.26C189.12 168.226 188.636 167.028 188.333 165.662C188.034 164.297 187.881 162.864 187.881 161.359C187.881 159.858 188.034 158.426 188.333 157.074C188.636 155.718 189.12 154.539 189.793 153.526C190.466 152.509 191.334 151.704 192.397 151.098C193.459 150.501 194.742 150.199 196.248 150.199C197.753 150.199 199.027 150.501 200.08 151.098C201.134 151.704 201.993 152.509 202.653 153.526C203.317 154.539 203.796 155.718 204.099 157.074C204.402 158.426 204.551 159.858 204.551 161.359Z" fill="#F1F1F1"/>
<path d="M152.66 195.953V184.597L149.776 186.821L147.877 184.227L152.967 180.488H156.307V195.953H152.66Z" fill="#F1F1F1"/>
<path d="M178.231 195.953V184.597L175.346 186.821L173.443 184.227L178.533 180.488H181.878V195.953H178.231Z" fill="#F1F1F1"/>
<path d="M142.44 188.177C142.44 187.698 142.413 187.165 142.354 186.582C142.295 186.003 142.186 185.46 142.024 184.954C141.865 184.452 141.635 184.032 141.337 183.689C141.038 183.35 140.65 183.178 140.17 183.178C139.687 183.178 139.293 183.35 138.991 183.689C138.683 184.032 138.449 184.452 138.28 184.954C138.11 185.46 138.001 186.003 137.942 186.582C137.883 187.165 137.851 187.698 137.851 188.177C137.851 188.675 137.883 189.216 137.942 189.804C138.001 190.392 138.11 190.944 138.28 191.445C138.449 191.947 138.683 192.367 138.991 192.711C139.293 193.054 139.687 193.221 140.17 193.221C140.65 193.221 141.038 193.054 141.337 192.711C141.635 192.367 141.865 191.947 142.024 191.445C142.186 190.944 142.295 190.392 142.354 189.804C142.413 189.216 142.44 188.675 142.44 188.177ZM146.196 188.177C146.196 189.271 146.087 190.311 145.871 191.301C145.653 192.291 145.301 193.163 144.822 193.909C144.338 194.663 143.718 195.26 142.954 195.703C142.191 196.147 141.259 196.368 140.17 196.368C139.077 196.368 138.145 196.147 137.372 195.703C136.599 195.26 135.971 194.663 135.483 193.909C134.994 193.163 134.643 192.291 134.425 191.301C134.204 190.311 134.095 189.271 134.095 188.177C134.095 187.088 134.204 186.048 134.425 185.067C134.643 184.082 134.994 183.223 135.483 182.486C135.971 181.754 136.599 181.166 137.372 180.727C138.145 180.293 139.077 180.072 140.17 180.072C141.259 180.072 142.191 180.293 142.954 180.727C143.718 181.166 144.338 181.754 144.822 182.486C145.301 183.223 145.653 184.082 145.871 185.067C146.087 186.048 146.196 187.088 146.196 188.177Z" fill="#F1F1F1"/>
<path d="M168.155 188.177C168.155 187.698 168.127 187.165 168.068 186.582C168.01 186.003 167.901 185.46 167.738 184.954C167.581 184.452 167.349 184.032 167.052 183.689C166.754 183.35 166.365 183.178 165.886 183.178C165.402 183.178 165.009 183.35 164.705 183.689C164.399 184.032 164.159 184.452 163.996 184.954C163.824 185.46 163.711 186.003 163.657 186.582C163.598 187.165 163.567 187.698 163.567 188.177C163.567 188.675 163.598 189.216 163.657 189.804C163.711 190.392 163.824 190.944 163.996 191.445C164.159 191.947 164.399 192.367 164.705 192.711C165.009 193.054 165.402 193.221 165.886 193.221C166.365 193.221 166.754 193.054 167.052 192.711C167.349 192.367 167.581 191.947 167.738 191.445C167.901 190.944 168.01 190.392 168.068 189.804C168.127 189.216 168.155 188.675 168.155 188.177ZM171.911 188.177C171.911 189.271 171.802 190.311 171.585 191.301C171.364 192.291 171.015 193.163 170.536 193.909C170.053 194.663 169.434 195.26 168.67 195.703C167.906 196.147 166.975 196.368 165.886 196.368C164.791 196.368 163.861 196.147 163.088 195.703C162.315 195.26 161.686 194.663 161.198 193.909C160.71 193.163 160.357 192.291 160.14 191.301C159.918 190.311 159.811 189.271 159.811 188.177C159.811 187.088 159.918 186.048 160.14 185.067C160.357 184.082 160.71 183.223 161.198 182.486C161.686 181.754 162.315 181.166 163.088 180.727C163.861 180.293 164.791 180.072 165.886 180.072C166.975 180.072 167.906 180.293 168.67 180.727C169.434 181.166 170.053 181.754 170.536 182.486C171.015 183.223 171.364 184.082 171.585 185.067C171.802 186.048 171.911 187.088 171.911 188.177Z" fill="#F1F1F1"/>
<path d="M220.797 195.953V184.597L217.913 186.821L216.01 184.227L221.1 180.488H224.444V195.953H220.797Z" fill="#F1F1F1"/>
<path d="M210.722 188.177C210.722 187.698 210.694 187.165 210.636 186.582C210.577 186.003 210.468 185.46 210.305 184.954C210.148 184.452 209.916 184.032 209.619 183.689C209.32 183.35 208.932 183.178 208.453 183.178C207.969 183.178 207.575 183.35 207.272 183.689C206.966 184.032 206.731 184.452 206.558 184.954C206.396 185.46 206.283 186.003 206.224 186.582C206.165 187.165 206.134 187.698 206.134 188.177C206.134 188.675 206.165 189.216 206.224 189.804C206.283 190.392 206.396 190.944 206.558 191.445C206.731 191.947 206.966 192.367 207.272 192.711C207.575 193.054 207.969 193.221 208.453 193.221C208.932 193.221 209.32 193.054 209.619 192.711C209.916 192.367 210.148 191.947 210.305 191.445C210.468 190.944 210.577 190.392 210.636 189.804C210.694 189.216 210.722 188.675 210.722 188.177ZM214.478 188.177C214.478 189.271 214.369 190.311 214.153 191.301C213.931 192.291 213.582 193.163 213.103 193.909C212.62 194.663 212 195.26 211.237 195.703C210.473 196.147 209.541 196.368 208.453 196.368C207.359 196.368 206.428 196.147 205.655 195.703C204.882 195.26 204.253 194.663 203.765 193.909C203.277 193.163 202.925 192.291 202.707 191.301C202.486 190.311 202.377 189.271 202.377 188.177C202.377 187.088 202.486 186.048 202.707 185.067C202.925 184.082 203.277 183.223 203.765 182.486C204.253 181.754 204.882 181.166 205.655 180.727C206.428 180.293 207.359 180.072 208.453 180.072C209.541 180.072 210.473 180.293 211.237 180.727C212 181.166 212.62 181.754 213.103 182.486C213.582 183.223 213.931 184.082 214.153 185.067C214.369 186.048 214.478 187.088 214.478 188.177Z" fill="#F1F1F1"/>
<path d="M206.762 214.173V202.818L203.878 205.047L201.975 202.443L207.065 198.71H210.409V214.173H206.762Z" fill="#F1F1F1"/>
<path d="M196.687 206.398C196.687 205.919 196.659 205.386 196.601 204.803C196.542 204.224 196.433 203.681 196.271 203.175C196.113 202.673 195.882 202.253 195.584 201.91C195.285 201.571 194.896 201.399 194.417 201.399C193.934 201.399 193.54 201.571 193.237 201.91C192.93 202.253 192.696 202.673 192.528 203.175C192.361 203.681 192.248 204.224 192.189 204.803C192.13 205.386 192.098 205.919 192.098 206.398C192.098 206.896 192.13 207.437 192.189 208.025C192.248 208.613 192.361 209.165 192.528 209.666C192.696 210.168 192.93 210.589 193.237 210.932C193.54 211.276 193.934 211.442 194.417 211.442C194.896 211.442 195.285 211.276 195.584 210.932C195.882 210.589 196.113 210.168 196.271 209.666C196.433 209.165 196.542 208.613 196.601 208.025C196.659 207.437 196.687 206.896 196.687 206.398ZM200.443 206.398C200.443 207.492 200.334 208.532 200.118 209.521C199.9 210.512 199.548 211.384 199.068 212.134C198.589 212.885 197.965 213.481 197.202 213.924C196.438 214.368 195.506 214.589 194.417 214.589C193.324 214.589 192.392 214.368 191.619 213.924C190.846 213.481 190.218 212.885 189.73 212.134C189.241 211.384 188.89 210.512 188.672 209.521C188.456 208.532 188.342 207.492 188.342 206.398C188.342 205.309 188.456 204.269 188.672 203.289C188.89 202.303 189.241 201.444 189.73 200.707C190.218 199.975 190.846 199.387 191.619 198.95C192.392 198.516 193.324 198.294 194.417 198.294C195.506 198.294 196.438 198.516 197.202 198.95C197.965 199.387 198.589 199.975 199.068 200.707C199.548 201.444 199.9 202.303 200.118 203.289C200.334 204.269 200.443 205.309 200.443 206.398Z" fill="#F1F1F1"/>
<path d="M147.557 213.951V206.082L145.558 207.623L144.244 205.819L147.768 203.234H150.087V213.951H147.557Z" fill="#F1F1F1"/>
<path d="M140.578 208.563C140.578 208.229 140.555 207.863 140.518 207.456C140.474 207.053 140.4 206.678 140.288 206.33C140.179 205.983 140.021 205.689 139.813 205.454C139.606 205.214 139.334 205.096 139.004 205.096C138.67 205.096 138.399 205.214 138.186 205.454C137.974 205.689 137.811 205.983 137.693 206.33C137.576 206.678 137.498 207.053 137.458 207.456C137.418 207.863 137.399 208.229 137.399 208.563C137.399 208.902 137.418 209.282 137.458 209.689C137.498 210.1 137.576 210.476 137.693 210.823C137.811 211.172 137.974 211.465 138.186 211.7C138.399 211.94 138.67 212.058 139.004 212.058C139.334 212.058 139.606 211.94 139.813 211.7C140.021 211.465 140.179 211.172 140.288 210.823C140.4 210.476 140.474 210.1 140.518 209.689C140.555 209.282 140.578 208.902 140.578 208.563ZM143.181 208.563C143.181 209.319 143.104 210.041 142.954 210.728C142.801 211.411 142.561 212.017 142.227 212.537C141.892 213.056 141.463 213.467 140.929 213.775C140.4 214.083 139.76 214.24 139.004 214.24C138.245 214.24 137.598 214.083 137.064 213.775C136.531 213.467 136.094 213.056 135.755 212.537C135.416 212.017 135.171 211.411 135.022 210.728C134.868 210.041 134.795 209.319 134.795 208.563C134.795 207.804 134.868 207.085 135.022 206.407C135.171 205.725 135.416 205.128 135.755 204.617C136.094 204.111 136.531 203.7 137.064 203.401C137.598 203.098 138.245 202.945 139.004 202.945C139.76 202.945 140.4 203.098 140.929 203.401C141.463 203.7 141.892 204.111 142.227 204.617C142.561 205.128 142.801 205.725 142.954 206.407C143.104 207.085 143.181 207.804 143.181 208.563Z" fill="#F1F1F1"/>
<path d="M179.016 227.715V219.846L177.019 221.387L175.703 219.588L179.229 216.998H181.543V227.715H179.016Z" fill="#F1F1F1"/>
<path d="M172.037 222.328C172.037 221.993 172.015 221.626 171.974 221.22C171.933 220.817 171.861 220.443 171.748 220.094C171.635 219.746 171.477 219.452 171.274 219.217C171.065 218.978 170.794 218.861 170.46 218.861C170.13 218.861 169.854 218.978 169.647 219.217C169.434 219.452 169.267 219.746 169.154 220.094C169.036 220.443 168.959 220.817 168.919 221.22C168.878 221.626 168.855 221.993 168.855 222.328C168.855 222.671 168.878 223.046 168.919 223.452C168.959 223.864 169.036 224.239 169.154 224.592C169.267 224.94 169.434 225.23 169.647 225.469C169.854 225.704 170.13 225.821 170.46 225.821C170.794 225.821 171.065 225.704 171.274 225.469C171.477 225.23 171.635 224.94 171.748 224.592C171.861 224.239 171.933 223.864 171.974 223.452C172.015 223.046 172.037 222.671 172.037 222.328ZM174.641 222.328C174.641 223.082 174.565 223.805 174.411 224.493C174.261 225.18 174.017 225.781 173.687 226.3C173.353 226.82 172.924 227.236 172.39 227.544C171.861 227.851 171.219 228 170.46 228C169.704 228 169.059 227.851 168.525 227.544C167.987 227.236 167.553 226.82 167.214 226.3C166.875 225.781 166.631 225.18 166.482 224.493C166.328 223.805 166.251 223.082 166.251 222.328C166.251 221.572 166.328 220.849 166.482 220.171C166.631 219.489 166.875 218.892 167.214 218.385C167.553 217.875 167.987 217.468 168.525 217.166C169.059 216.862 169.704 216.713 170.46 216.713C171.219 216.713 171.861 216.862 172.39 217.166C172.924 217.468 173.353 217.875 173.687 218.385C174.017 218.892 174.261 219.489 174.411 220.171C174.565 220.849 174.641 221.572 174.641 222.328Z" fill="#F1F1F1"/>
<path d="M222.207 206.398C222.207 205.919 222.179 205.386 222.12 204.803C222.062 204.224 221.954 203.681 221.791 203.175C221.632 202.673 221.402 202.253 221.103 201.91C220.806 201.571 220.417 201.399 219.938 201.399C219.459 201.399 219.061 201.571 218.758 201.91C218.45 202.253 218.215 202.673 218.048 203.175C217.88 203.681 217.768 204.224 217.709 204.803C217.65 205.386 217.624 205.919 217.624 206.398C217.624 206.896 217.65 207.437 217.709 208.025C217.768 208.613 217.88 209.165 218.048 209.666C218.215 210.168 218.45 210.589 218.758 210.932C219.061 211.276 219.459 211.442 219.938 211.442C220.417 211.442 220.806 211.276 221.103 210.932C221.402 210.589 221.632 210.168 221.791 209.666C221.954 209.165 222.062 208.613 222.12 208.025C222.179 207.437 222.207 206.896 222.207 206.398ZM225.968 206.398C225.968 207.492 225.854 208.532 225.637 209.521C225.421 210.512 225.068 211.384 224.589 212.134C224.109 212.885 223.486 213.481 222.722 213.924C221.958 214.368 221.031 214.589 219.938 214.589C218.843 214.589 217.913 214.368 217.14 213.924C216.372 213.481 215.739 212.885 215.25 212.134C214.762 211.384 214.409 210.512 214.193 209.521C213.975 208.532 213.863 207.492 213.863 206.398C213.863 205.309 213.975 204.269 214.193 203.289C214.409 202.303 214.762 201.444 215.25 200.707C215.739 199.975 216.372 199.387 217.14 198.95C217.913 198.516 218.843 198.294 219.938 198.294C221.031 198.294 221.958 198.516 222.722 198.95C223.486 199.387 224.109 199.975 224.589 200.707C225.068 201.444 225.421 202.303 225.637 203.289C225.854 204.269 225.968 205.309 225.968 206.398Z" fill="#F1F1F1"/>
<path d="M215.165 102.004C211.599 84.5796 196.08 71.9318 178.266 71.9318C175.554 71.9318 172.887 72.2396 170.288 72.7997C165.958 47.4011 143.805 28 117.19 28C90.823 28 68.8369 47.0435 64.2218 72.095C45.0617 73.8388 30 89.9848 30 109.594C30 130.36 46.8969 147.252 67.6621 147.252H124.011C126.886 147.252 129.218 144.924 129.218 142.045C129.218 139.169 126.886 136.837 124.011 136.837H67.6621C52.6366 136.837 40.4145 124.614 40.4145 109.594C40.4145 94.5683 52.6366 82.3463 67.6621 82.3463C73.1229 82.3463 78.388 83.9513 82.8906 86.9935C85.2777 88.602 88.5132 87.9782 90.1228 85.5968C91.7325 83.2142 91.1042 79.973 88.7216 78.3645C84.4677 75.489 79.7174 73.5681 74.7313 72.6192C78.9851 53.0874 96.4014 38.4145 117.19 38.4145C139.338 38.4145 157.654 55.0673 160.307 76.5061C158.911 77.2652 157.546 78.0972 156.24 79.0415C153.907 80.724 153.383 83.9779 155.064 86.3108C156.75 88.6425 160.005 89.1667 162.337 87.4853C166.993 84.1226 172.503 82.3463 178.266 82.3463C191.158 82.3463 202.382 91.4902 204.958 104.098C205.464 106.561 207.634 108.26 210.057 108.26C210.4 108.26 210.753 108.224 211.106 108.152C213.921 107.578 215.739 104.825 215.165 102.004Z" fill="#F1F1F1"/>
</svg>
