<svg class="logo" width="256" height="256" viewBox="0 0 256 256" fill="none" xmlns="http://www.w3.org/2000/svg">
  <g fill="#5cd8e5">
    <path id="path4" d="m 60.049949,-2.7382813e-5 c -26.39699,0 -48.76433,17.042740382813 -56.8148303,40.697270382813 0.68337,0.0918 1.51216,0.1289 2.79334,0.1289 H 128.10655 c 15.78652,0.0107 31.2742,4.29942 44.8146,12.40821 13.54084,8.10877 24.62791,19.7332 32.07942,33.63867 7.45151,13.905457 10.98943,29.571107 10.23702,45.326167 -0.57306,11.99913 -3.61858,23.70767 -8.89997,34.41016 -1.76488,3.57715 -2.64844,5.36608 -2.47081,6.53515 0.16526,1.088 0.66804,1.89411 1.57162,2.52344 0.97062,0.67585 2.82653,0.67579 6.53864,0.67579 h 37.99448 c 2.11034,0 3.16627,2.9e-4 3.97206,-0.41016 0.70886,-0.36097 1.28464,-0.93585 1.6459,-1.64454 0.41079,-0.80512 0.4105,-1.85863 0.4105,-3.96679 V 55.767543 C 253.81809,24.613703 227.89766,-2.7382812e-5 196.16314,-2.7382812e-5 Z M 135.18079,51.855443 c -1.23579,-0.0513 -2.46848,0.1417 -3.62997,0.56836 -1.29857,0.44886 -2.4775,1.1898 -3.44427,2.16601 -1.26954,1.27105 -2.15198,2.8766 -2.54314,4.6289 -0.39158,1.75276 -0.27576,3.57995 0.33232,5.26954 0.85019,2.25152 1.57327,4.24849 2.21082,6.50001 0.93559,3.01653 1.69991,5.86228 2.33788,8.49608 0.65164,3.21194 1.10599,6.46111 1.3605,9.72853 -3.25646,-0.35201 -6.54383,-0.26511 -9.77766,0.25585 -7.10136,-8.24318 -15.45261,-15.3249 -24.747141,-20.98633 -2.11076,-1.21344 -4.60861,-1.56501 -6.97259,-0.98047 -2.364,0.58453 -4.41067,2.06066 -5.71179,4.11719 -1.30069,2.05697 -1.75654,4.53529 -1.27058,6.91992 0.48637,2.38421 1.87744,4.48853 3.88017,5.87304 5.98513,3.61729 11.54562,7.89362 16.580201,12.7461 -2.9473,2.31295 -5.551401,5.029037 -7.736911,8.070327 -13.01089,-0.006 -25.90187,2.48859 -37.96907,7.34959 -2.34519,0.85633 -4.25455,2.60849 -5.30715,4.8711 -1.05217,2.26261 -1.16197,4.85165 -0.30494,7.19531 0.85704,2.34368 2.61064,4.25101 4.87515,5.30273 2.26448,1.05173 4.85371,1.16101 7.19934,0.30469 7.95199,-3.0818 16.26925,-5.12513 24.7452,-6.07617 0,0.63702 -0.0527,1.2751 -0.10556,1.91211 -0.0534,0.63744 -0.10556,1.27467 -0.10556,1.91211 0.004,1.99126 0.16018,3.97948 0.46719,5.94728 -8.25987,7.06984 -15.34877,15.40104 -21.0038,24.68358 -0.90914,1.42123 -1.41833,3.06033 -1.47388,4.74609 -0.0556,1.68576 0.34374,3.35407 1.15721,4.83203 0.8139,1.47797 2.01134,2.71052 3.46578,3.56641 1.45443,0.8559 3.11285,1.30482 4.80086,1.29883 1.58339,0.0256 3.14869,-0.3505 4.54675,-1.09375 1.39807,-0.74282 2.5828,-1.82823 3.44622,-3.15429 3.60919,-5.97545 7.88952,-11.51932 12.75671,-16.5254 2.33751,2.92395 5.052861,5.52289 8.077041,7.73048 -0.15416,5.51379 0.3019,11.02829 1.3605,16.44139 1.37243,7.31135 3.37843,14.48909 5.99521,21.45314 0.68323,1.7745 1.89305,3.29905 3.46579,4.36913 1.57227,1.07051 3.43364,1.6356 5.33646,1.6211 1.10086,0.003 2.19396,-0.1841 3.2312,-0.55274 1.27509,-0.49195 2.43364,-1.24428 3.40127,-2.20897 1.27508,-1.25867 2.16131,-2.85633 2.5529,-4.60353 0.392,-1.7472 0.27283,-3.57047 -0.34209,-5.25195 -0.196,-0.55637 -0.389,-1.09349 -0.57859,-1.61913 -0.59228,-1.64353 -1.14884,-3.18602 -1.63222,-4.92384 -0.93518,-3.0161 -1.70156,-5.82005 -2.29684,-8.49609 -0.71782,-3.06388 -1.22866,-6.17102 -1.53057,-9.30274 h 3.82741 c 2.00613,0.009 4.01043,-0.13308 5.99521,-0.42577 7.07234,8.22783 15.39283,15.29624 24.65919,20.9453 2.10862,1.33503 4.66349,1.77812 7.09965,1.23243 2.43573,-0.54572 4.55351,-2.03768 5.88966,-4.14453 1.33659,-2.10688 1.78157,-4.65768 1.23541,-7.0918 -0.54617,-2.4337 -2.03936,-4.54973 -4.14798,-5.88476 -5.97617,-3.69451 -11.52294,-8.04015 -16.53914,-12.95704 2.94601,-2.31423 5.55164,-5.03184 7.73885,-8.07227 h 2.16781 c 12.25423,-0.3712 24.35252,-2.85766 35.75825,-7.34961 2.23888,-0.93268 4.03191,-2.69147 5.00807,-4.91016 0.97617,-2.21865 1.06044,-4.72702 0.23457,-7.00585 -0.82584,-2.27882 -2.49807,-4.15253 -4.6699,-5.23242 -2.17139,-1.07988 -4.67665,-1.28191 -6.9941,-0.56641 v 0.29688 c -7.8354,2.99904 -16.02233,4.98269 -24.36204,5.90429 0.29464,-3.26996 0.21048,-6.56216 -0.25412,-9.8125 8.23468,-7.08265 15.30703,-15.41258 20.96078,-24.683587 1.33659,-2.10689 1.7796,-4.65767 1.23345,-7.0918 -0.54616,-2.43371 -2.03739,-4.54973 -4.14603,-5.88476 -2.10863,-1.33546 -4.66154,-1.78009 -7.09769,-1.23438 -2.43573,0.54571 -4.55547,2.0357 -5.89161,4.14258 -3.68776,5.97801 -8.03786,11.52298 -12.96782,16.527327 -2.30549,-2.94057 -5.0275,-5.530917 -8.07898,-7.689447 0.1503,-5.52531 -0.29095,-11.05291 -1.31752,-16.48437 -1.39292,-7.30665 -3.39849,-14.48268 -5.99521,-21.45312 -0.42232,-1.16181 -1.06977,-2.2297 -1.90589,-3.14063 -0.83568,-0.91136 -1.84357,-1.64896 -2.96535,-2.16992 -1.12178,-0.52096 -2.33705,-0.81402 -3.57328,-0.86523 z M 6.0284587,79.654273 c -2.11017,0 -3.16412,1.2e-4 -3.97009,0.41015 -0.70897,0.36095 -1.28663005,0.93823 -1.64786005,1.64649 C -1.6134766e-4,82.516463 -1.3476563e-6,83.569543 8.6523437e-6,85.677703 V 195.99997 c 0,33.13697 26.8852903476563,60 60.0499403476563,60 H 196.16314 c 26.39738,0 48.76468,-17.04406 56.81483,-40.69922 -0.68308,-0.0915 -1.51341,-0.12695 -2.79335,-0.12695 H 128.10655 c -23.13899,0 -45.331731,-9.18467 -61.693891,-25.53321 -16.36173,-16.34812 -25.5525,-38.52045 -25.5525,-61.64062 -0.0146,-13.43741 3.08689,-26.64297 8.99772,-38.601567 1.77042,-3.58144 2.65584,-5.37111 2.47862,-6.54101 -0.16483,-1.08843 -0.66761,-1.89563 -1.57161,-2.52539 -0.97105,-0.67626 -2.82968,-0.67773 -6.54647,-0.67773 z M 127.93648,107.01364 h 1.70064 c 1.0889,0.0836 2.16962,0.25377 3.23119,0.50977 4.36117,1.05729 8.27446,3.46692 11.18118,6.88282 0.69477,0.81023 1.32221,1.67744 1.87265,2.59179 2.08086,3.29769 3.2125,7.1035 3.27225,11.00195 h -0.17005 v 1.69922 c -0.20797,2.77248 -0.96934,5.47541 -2.24015,7.94922 -1.27081,2.47339 -3.02324,4.66795 -5.15663,6.45311 -0.81091,0.69419 -1.67886,1.31961 -2.59396,1.86915 -3.31795,2.01983 -7.1276,3.09256 -11.01306,3.10158 h -1.70064 c -2.7641,-0.20822 -5.45876,-0.96645 -7.92652,-2.22853 -2.46775,-1.26166 -4.65899,-3.00423 -6.44481,-5.12304 -0.69518,-0.83457 -1.33314,-1.71335 -1.91174,-2.63281 -2.02152,-3.3152 -3.09514,-7.1217 -3.10414,-11.00392 v -1.69921 c 0.0837,-1.07392 0.25441,-2.13936 0.5102,-3.18555 1.04662,-4.35199 3.44259,-8.26116 6.84553,-11.17188 0.84294,-0.6848 1.72203,-1.32374 2.635,-1.91211 3.31794,-2.01983 7.1276,-3.09256 11.01306,-3.10156 z"/>
  </g>
</svg>
