<svg width="256" height="256" viewBox="0 0 256 256" fill="none" xmlns="http://www.w3.org/2000/svg">
<path d="M196 0H60C26.8629 0 0 26.8629 0 60V196C0 229.137 26.8629 256 60 256H196C229.137 256 256 229.137 256 196V60C256 26.8629 229.137 0 196 0Z" fill="#242938"/>
<path d="M127.424 64.0898C92.487 64.0898 64.0635 92.5357 64.0635 127.5C64.0635 162.464 92.487 190.91 127.424 190.91C162.36 190.91 190.784 162.464 190.784 127.5C190.784 92.5357 162.36 64.0898 127.424 64.0898ZM127.424 160.315C109.312 160.315 94.6344 145.625 94.6344 127.5C94.6344 109.374 109.312 94.6848 127.424 94.6848C145.535 94.6848 160.213 109.374 160.213 127.5C160.213 145.625 145.535 160.315 127.424 160.315Z" fill="white"/>
<path fill-rule="evenodd" clip-rule="evenodd" d="M132.733 53.6754V30C184.152 32.7513 225 75.3552 225 127.5C225 179.645 184.152 222.237 132.733 225V201.325C171.055 198.585 201.402 166.538 201.402 127.5C201.402 88.4622 171.055 56.4149 132.733 53.6754ZM71.5439 175.913C61.3851 164.176 54.8367 149.227 53.6686 132.813H30C31.2271 155.78 40.4066 176.622 54.7895 192.669L71.5321 175.913H71.5439ZM122.114 225V201.325C105.702 200.156 90.7643 193.614 79.0362 183.435L62.2936 200.191C78.3401 214.597 99.1651 223.772 122.102 225H122.114Z" fill="url(#paint0_linear_478_43)"/>
<defs>
<linearGradient id="paint0_linear_478_43" x1="136.556" y1="43.7105" x2="40.58" y2="139.612" gradientUnits="userSpaceOnUse">
<stop stop-color="#0096FF"/>
<stop offset="1" stop-color="#FF1E56"/>
</linearGradient>
</defs>
</svg>
