<svg width="256" height="256" viewBox="0 0 256 256" fill="none" xmlns="http://www.w3.org/2000/svg" id="turso">
<style>
#turso {
    rect {fill: #242938}

    @media (prefers-color-scheme: light) {
        rect {fill: #F4F2ED}
    }
}
</style>
<rect width="256" height="256" fill="#242938" rx="60"/>
<mask id="mask0_303_62" style="mask-type:luminance" maskUnits="userSpaceOnUse" x="127" y="43" width="101" height="169">
<path d="M228 43.0036H127.887V212H228V43.0036Z" fill="white"/>
</mask>
<g mask="url(#mask0_303_62)">
<path d="M127.887 81.8154C202.213 81.8154 188.957 112.774 188.957 112.774C188.299 132.497 180.984 176.402 178.56 181.059C176.133 185.72 163.255 199.075 153.177 204.197C153.177 204.197 149.538 200.306 147.311 196.877C144.49 200.234 129.882 212.018 127.887 212.018V81.8154Z" fill="#1EBCA1"/>
<path d="M189.868 107.416C189.868 110.594 188.957 112.756 188.957 112.756C188.299 132.479 180.984 176.381 178.56 181.041C176.133 185.702 163.255 199.057 153.177 204.179C153.177 204.179 149.538 200.288 147.311 196.859C144.49 200.216 129.882 212 127.887 212V107.416H189.868Z" fill="#1EBCA1"/>
<path d="M180.52 112.398L176.952 141.445L157.117 143.228L158.866 167.776C158.866 167.776 146.789 177.863 127.902 177.863V114.184L180.538 112.395L180.52 112.398Z" fill="url(#paint0_linear_303_62)"/>
<path d="M220.857 100.264L124.316 133.356V101.595L211.394 79.46L220.857 100.264Z" fill="#4FF7D1"/>
<path d="M220.868 100.257L194.269 109.202V44.7896C194.269 44.7896 220.868 73.8904 220.868 100.257ZM161.436 95.99L170.91 77.1907L185.339 94.7228M124.316 101.595H145.72L150.039 159.69C141.639 161.839 133.003 162.925 124.334 162.922V101.595H124.316Z" fill="#4FF7D1"/>
</g>
<mask id="mask1_303_62" style="mask-type:luminance" maskUnits="userSpaceOnUse" x="28" y="43" width="101" height="169">
<path d="M28 43.0036H128.116V212H28V43.0036Z" fill="white"/>
</mask>
<g mask="url(#mask1_303_62)">
<path d="M128.116 81.8154C53.7904 81.8154 67.0468 112.774 67.0468 112.774C67.7046 132.497 75.0192 176.402 77.4431 181.059C79.8705 185.72 92.7443 199.075 102.826 204.197C102.826 204.197 106.465 200.306 108.693 196.877C111.51 200.234 126.118 212.018 128.116 212.018V81.8154Z" fill="#1EBCA1"/>
<path d="M66.1353 107.416C66.1353 110.594 67.0433 112.756 67.0433 112.756C67.7047 132.479 75.0157 176.381 77.4432 181.041C79.8671 185.702 92.7445 199.057 102.826 204.179C102.826 204.179 106.462 200.288 108.689 196.859C111.51 200.216 126.118 212 128.116 212V107.416H66.1353Z" fill="#1EBCA1"/>
<path d="M75.4842 112.398L79.0521 141.445L98.883 143.228L97.1348 167.776C97.1348 167.776 109.211 177.863 128.102 177.863V114.184L75.4663 112.395L75.4842 112.398Z" fill="url(#paint1_linear_303_62)"/>
<path d="M35.1465 100.264L131.684 133.356V101.595L44.6097 79.46L35.1465 100.264Z" fill="#4FF7D1"/>
<path d="M35.1359 100.257L61.7308 109.202V44.7896C61.7308 44.7896 35.1323 73.8904 35.1323 100.257H35.1359ZM94.5678 95.99L85.0939 77.1907L70.6685 94.7228M131.684 101.595H110.28L105.965 159.69C114.402 161.848 123.033 162.922 131.666 162.922V101.595H131.684Z" fill="#4FF7D1"/>
</g>
<defs>
<linearGradient id="paint0_linear_303_62" x1="180.52" y1="-123.441" x2="127.884" y2="-123.441" gradientUnits="userSpaceOnUse">
<stop stop-color="#1D2B33"/>
<stop offset="1" stop-color="#121B24"/>
</linearGradient>
<linearGradient id="paint1_linear_303_62" x1="75.4842" y1="-123.441" x2="128.12" y2="-123.441" gradientUnits="userSpaceOnUse">
<stop stop-color="#1D2B33"/>
<stop offset="1" stop-color="#121B24"/>
</linearGradient>
</defs>
</svg>
