<svg width="256" height="256" viewBox="0 0 256 256" fill="none" xmlns="http://www.w3.org/2000/svg">
<rect width="256" height="256" rx="60" fill="#242938"/>
<path d="M135.102 76.0186C137.016 76.0186 138.572 77.5459 138.62 79.4479L138.621 79.5373V119.812C138.621 121.726 137.094 123.283 135.192 123.33L135.102 123.331H102.261C100.348 123.331 98.7912 121.804 98.7438 119.902L98.7427 119.812V79.5373C98.7427 77.6239 100.27 76.0671 102.172 76.0197L102.261 76.0186H135.102ZM135.102 77.5841H102.261C101.206 77.5841 100.345 78.4205 100.307 79.4672L100.305 79.5373V119.812C100.307 120.869 101.144 121.729 102.191 121.767L102.261 121.769H135.102C136.158 121.767 137.019 120.93 137.057 119.882L137.058 119.812V79.5373C137.057 78.4581 136.181 77.5841 135.102 77.5841ZM106.952 113.556V115.9H104.605V113.556H106.952ZM133.149 113.556V115.9H108.127V113.556H133.149ZM106.952 103.39V105.734H104.605V103.39H106.952ZM133.149 103.39V105.734H108.127V103.39H133.149ZM106.952 93.6154V95.9592H104.605V93.6154H106.952ZM133.149 93.6154V95.9592H108.127V93.6154H133.149ZM133.149 84.6217V86.9685H104.605V84.6217H133.149Z" fill="#8E8F8F"/>
<path d="M135.102 131.538V131.562C137.006 131.562 138.559 133.075 138.619 134.968L138.621 135.057V175.332C138.621 177.245 137.094 178.802 135.192 178.849L135.102 178.85H102.261C101.328 178.85 100.433 178.48 99.7733 177.82C99.1388 177.185 98.7716 176.333 98.7443 175.439L98.7427 175.332V135.057C98.7427 133.143 100.27 131.586 102.172 131.539L102.261 131.538H135.102ZM135.102 133.103H102.261C101.206 133.103 100.345 133.94 100.307 134.987L100.305 135.057V175.332C100.307 176.388 101.144 177.248 102.191 177.287L102.261 177.288H135.102C136.154 177.286 137.012 176.456 137.057 175.414L137.058 175.344V135.069C137.057 134.013 136.219 133.154 135.172 133.117L135.102 133.116V133.103ZM106.952 169.084V171.431H104.605V169.084H106.952ZM133.149 169.103V171.413H108.127V169.103H133.149ZM106.952 158.919V161.266H104.605V158.919H106.952ZM133.149 158.937V161.247H108.127V158.937H133.149ZM106.952 149.147V151.491H104.605V149.147H106.952ZM133.149 149.165V151.472H108.127V149.165H133.149ZM133.149 140.153V142.5H104.605V140.153H133.149Z" fill="#8E8F8F"/>
<path d="M144.573 99.675V101.628H156.301V154.751H144.573V156.707H156.301H158.257V154.751V101.628V99.675H156.301H144.573Z" fill="#8E8F8F"/>
<path d="M61.0068 65.1892C63.3195 61.3964 67.1289 59.1839 70.9772 57.8992L71.502 57.7297L72.0266 57.5714C72.2886 57.4949 72.5502 57.4225 72.8109 57.3539L73.331 57.2217C73.4174 57.2005 73.5037 57.1798 73.5899 57.1594L74.1048 57.0419C74.1903 57.0231 74.2756 57.0047 74.3607 56.9866L74.8687 56.8829L75.371 56.788L75.8667 56.7014L76.3552 56.6228L76.8355 56.5519L77.3069 56.4882L77.7685 56.4315L78.2194 56.3813L78.6589 56.3372L79.295 56.2819L79.9007 56.2384L80.4733 56.2055L81.0958 56.1788L81.6651 56.1629L82.0128 56.1572L82.3336 56.1549H82.6262L83.0093 56.1596L83.2256 56.1643L83.62 56.1776L83.794 56.1863V65.5738C75.4911 64.7837 71.7863 67.2914 70.1525 69.9641L70.0054 70.215C69.7935 70.5919 69.621 70.9701 69.4808 71.3409L69.3921 71.5869C69.3781 71.6277 69.3645 71.6683 69.3512 71.7089L69.276 71.9505L69.2093 72.1886L69.1505 72.4224C69.1413 72.461 69.1325 72.4994 69.124 72.5376L69.0763 72.7641C69.0689 72.8014 69.0618 72.8384 69.055 72.8752L69.0173 73.093L68.9858 73.3044L68.9599 73.5086L68.9307 73.8005L68.9116 74.0733L68.9022 74.2872L68.898 74.4849L68.898 74.6653L68.9012 74.8272L68.9068 74.9695L68.9176 75.1435L68.9377 75.3488L68.9373 78.7975L68.9171 85.8385L68.8926 90.9125L68.8638 95.1809L68.8324 98.788L68.8018 101.628L68.7657 104.393L68.7288 106.75L68.6812 109.248L68.6518 110.549L68.6203 111.778L68.5795 113.148L68.5652 113.577L68.5637 114.369L68.5595 114.855L68.5541 115.182L68.5411 115.678L68.5215 116.157L68.5057 116.449L68.4864 116.742L68.4634 117.037L68.4211 117.479L68.3872 117.775L68.3483 118.071L68.3042 118.367C68.2964 118.416 68.2884 118.466 68.2801 118.515L68.2274 118.811C68.2181 118.86 68.2086 118.909 68.1988 118.959L68.1369 119.254L68.0683 119.548L67.9927 119.842C67.9664 119.939 67.9388 120.037 67.9099 120.134L67.8194 120.425L67.721 120.714L67.6143 121.002C66.412 124.109 63.6894 126.876 57.5244 128.158C63.5217 129.403 66.2613 132.052 67.5128 135.052L67.6275 135.339C67.7379 135.627 67.8353 135.917 67.9212 136.21L68.0033 136.503C68.0556 136.699 68.103 136.896 68.146 137.093L68.2073 137.389C68.217 137.438 68.2264 137.488 68.2356 137.537L68.2875 137.834L68.3337 138.131L68.3745 138.427L68.4102 138.724L68.4411 139.02L68.4676 139.316L68.49 139.611L68.5168 140.051L68.5305 140.343L68.5474 140.833L68.5548 141.156L68.5598 141.477L68.5639 141.952L68.5652 142.741L68.6071 144.116L68.6446 145.568L68.6791 147.125L68.7109 148.773L68.7445 150.794L68.7903 154.132L68.822 156.961L68.8375 158.553L68.8708 162.618L68.9068 168.65L68.9316 175.179L68.9407 175.173V180.963L68.9314 181.045L68.9206 181.168L68.9133 181.279L68.9043 181.485L68.901 181.647L68.901 181.827L68.9052 182.025L68.9146 182.239L68.9334 182.508L68.9513 182.698L68.9874 182.997L69.0182 183.205L69.0549 183.42L69.0981 183.64C69.1058 183.678 69.1138 183.715 69.1221 183.753L69.1757 183.981C69.1852 184.019 69.1951 184.058 69.2052 184.097L69.2702 184.331L69.3433 184.569C69.3562 184.609 69.3694 184.649 69.383 184.69L69.4692 184.932C69.4995 185.013 69.5313 185.095 69.5647 185.177L69.6699 185.423C70.9738 188.347 74.4134 191.505 83.3097 190.781L83.797 190.738V200.126L83.5477 200.138L83.0856 200.151L82.7054 200.158H82.254L81.9157 200.154L81.5494 200.147L81.1563 200.136L80.6458 200.115L80.286 200.097L79.9116 200.075L79.5233 200.048L79.1219 200.016L78.7081 199.98L78.2826 199.938L77.8462 199.89L77.3997 199.836L76.9438 199.776C76.8671 199.765 76.79 199.754 76.7126 199.743L76.244 199.672C76.1653 199.66 76.0863 199.647 76.0069 199.634L75.5274 199.553C75.4469 199.538 75.3662 199.524 75.2852 199.509L74.7964 199.415C74.7144 199.399 74.6323 199.382 74.55 199.365L74.0536 199.259L73.553 199.144C73.3856 199.105 73.2176 199.063 73.0492 199.02L72.5427 198.887C67.8902 197.618 63.003 195.112 60.489 190.199C61.0341 184.161 63.5172 179.013 67.9777 175.809C68.1877 175.661 68.4003 175.518 68.6157 175.379L68.8587 175.224C68.5569 175.411 68.2601 175.608 67.9686 175.815C63.5172 179.013 61.0341 184.161 60.489 190.175C59.3698 187.915 58.7835 185.429 58.775 182.907L58.7191 180.319L58.6464 177.182L58.5555 173.51L58.4317 168.829L58.3181 164.77L58.1615 159.455L57.9851 153.762L57.69 144.803L57.6182 142.726C57.4436 138.023 55.556 135.732 53.5915 134.627L53.3601 134.502C53.3215 134.482 53.2829 134.463 53.2444 134.444L53.013 134.334C52.936 134.3 52.8591 134.267 52.7825 134.235L52.5533 134.145C52.4772 134.117 52.4014 134.09 52.3261 134.064L52.1014 133.992C52.027 133.969 51.9531 133.947 51.8798 133.927L51.7042 133.881L51.5313 133.839L51.3614 133.802L51.1949 133.769L50.9521 133.727L50.7953 133.704L50.6429 133.684L50.4233 133.66L50.2298 133.659L49.8342 133.654C49.6331 133.652 49.427 133.65 49.2146 133.654L49 133.66V122.658C49.5148 122.676 49.9751 122.667 50.4233 122.643L50.6429 122.619L50.7953 122.599L50.9521 122.576L51.1949 122.534L51.3614 122.501L51.5313 122.464L51.7042 122.422L51.8798 122.376L52.1014 122.311L52.3261 122.239L52.5533 122.158C54.8364 121.304 57.4128 119.11 57.6182 113.577L57.8859 105.621L58.092 99.1215L58.2039 95.4331L58.3751 89.5165L58.4875 85.4013L58.5688 82.2668L58.6712 78.0703L58.7306 75.4609L58.775 73.3926C58.8431 70.1326 59.6466 67.4864 60.9221 65.3379L61.0074 65.196L61.0068 65.1892ZM173.203 65.4193V56.0319L173.455 56.0199L173.806 56.0089L174.033 56.0043L174.434 56.0002H174.74L175.075 56.0036L175.593 56.0143L176.253 56.0377L176.606 56.0547L176.974 56.0757L177.552 56.1152L177.954 56.1474L178.368 56.1848L178.793 56.2276L179.229 56.2762L179.674 56.3309L180.129 56.392L180.593 56.4599L181.064 56.5349C181.143 56.548 181.222 56.5614 181.302 56.5752L181.783 56.6614L182.27 56.7556L182.762 56.8581L183.258 56.9691L183.758 57.0891C184.009 57.1514 184.261 57.2172 184.513 57.2866L185.019 57.4303C189.745 58.8185 194.604 61.5249 196.887 66.7638C197.755 68.8116 198.21 71.0109 198.225 73.2351L198.281 75.8236L198.354 78.9613L198.405 81.0607L198.485 84.203L198.597 88.3415L198.682 91.3749L198.838 96.6902L199.015 102.383L199.31 111.342L199.382 113.419C199.559 118.2 201.507 120.487 203.507 121.572L203.737 121.692C203.776 121.711 203.814 121.729 203.853 121.748L204.083 121.852L204.313 121.947C204.351 121.962 204.389 121.977 204.427 121.991L204.654 122.073C204.691 122.086 204.729 122.098 204.766 122.111L204.989 122.18C205.026 122.191 205.062 122.201 205.099 122.211L205.426 122.295L205.639 122.343L205.846 122.383L206.048 122.418L206.205 122.441L206.357 122.461L206.577 122.486C206.961 122.506 207.361 122.516 207.785 122.507L208 122.501V133.505C207.485 133.487 207.025 133.496 206.577 133.52L206.432 133.536L206.282 133.554L206.048 133.588L205.805 133.63L205.639 133.663L205.469 133.7L205.296 133.742L205.12 133.788L205.01 133.819L204.787 133.888C204.749 133.9 204.712 133.912 204.674 133.925L204.447 134.006C204.409 134.02 204.371 134.035 204.332 134.05L204.102 134.144C201.912 135.088 199.577 137.331 199.382 142.587L199.114 150.539L198.908 157.038L198.796 160.727L198.625 166.644L198.513 170.76L198.431 173.894L198.329 178.091L198.269 180.7L198.225 182.768C198.208 184.703 197.864 186.62 197.209 188.44L197.131 188.653L197.135 188.673C194.794 194.72 189.131 197.562 183.903 198.885L183.39 199.011C183.305 199.031 183.22 199.05 183.135 199.07L182.628 199.181C182.544 199.199 182.46 199.216 182.376 199.233L181.877 199.331C181.794 199.347 181.711 199.362 181.629 199.377L181.139 199.463C181.058 199.476 180.977 199.49 180.896 199.503L180.417 199.577L179.946 199.643L179.484 199.703L179.032 199.756L178.591 199.803L178.162 199.844L177.541 199.895L177.144 199.923L176.575 199.956L176.041 199.98L175.388 200L175.017 200.006L174.676 200.009H174.367L174.09 200.006L173.849 200.001L173.555 199.993L173.3 199.982L173.212 199.977V190.59C181.904 191.417 185.557 188.63 187.07 185.823L187.2 185.572C187.241 185.488 187.281 185.404 187.319 185.321L187.427 185.071C187.461 184.988 187.494 184.905 187.525 184.823L187.614 184.577L187.693 184.333C187.706 184.293 187.718 184.253 187.73 184.213L187.797 183.975L187.856 183.741L187.907 183.512L187.951 183.288L187.989 183.071L188.02 182.859L188.046 182.655L188.075 182.363L188.089 182.179L188.104 181.876L188.108 181.679L188.108 181.498L188.105 181.336L188.099 181.194L188.092 181.073L188.078 180.897L188.068 180.815V175.667L188.083 170.874L188.107 165.928L188.134 161.76L188.171 157.505L188.213 153.686L188.243 151.466L188.271 149.677L188.308 147.626L188.335 146.328L188.363 145.093L188.394 143.929L188.435 142.584L188.436 141.795L188.44 141.314L188.446 140.99L188.453 140.664L188.471 140.169L188.487 139.837L188.505 139.542L188.527 139.245L188.552 138.948L188.582 138.65L188.617 138.351L188.657 138.052C188.664 138.003 188.671 137.953 188.679 137.903L188.727 137.604L188.781 137.306L188.841 137.008L188.908 136.71C188.99 136.364 189.086 136.019 189.199 135.678L189.3 135.386C189.44 134.998 189.603 134.615 189.793 134.239L189.94 133.958C191.359 131.351 194.117 129.114 199.476 128C192.717 126.597 190.095 123.412 189.079 119.95L188.997 119.657C188.944 119.461 188.897 119.264 188.854 119.067L188.793 118.771C188.783 118.722 188.774 118.672 188.764 118.623L188.712 118.326L188.666 118.029L188.626 117.733L188.59 117.436L188.559 117.14L188.532 116.844L188.51 116.549L188.483 116.109L188.469 115.817L188.453 115.328L188.445 115.005L188.44 114.684L188.436 114.209L188.435 113.419L188.406 112.502L188.374 111.336L188.338 109.835L188.305 108.236L188.275 106.553L188.238 104.201L188.195 100.818L188.163 97.6575L188.133 93.9959L188.094 87.4851L188.068 80.4301C188.602 80.1352 189.12 79.8117 189.619 79.4611C192.106 77.6791 193.979 75.2781 195.241 72.4537L195.328 72.2559C194.064 75.1665 192.16 77.6387 189.61 79.4641C189.194 79.7563 188.765 80.0296 188.325 80.2833L188.059 80.4331V75.1943L188.069 75.1123L188.079 74.9891L188.087 74.8784L188.096 74.6728L188.099 74.5109L188.099 74.3305L188.095 74.1327L188.085 73.9188L188.074 73.7415L188.049 73.4597L188.013 73.1604L187.982 72.9522L187.945 72.7375L187.902 72.5171C187.894 72.4799 187.886 72.4425 187.878 72.4049L187.824 72.1768C187.815 72.1384 187.805 72.0998 187.795 72.061L187.73 71.8265L187.657 71.5883C187.644 71.5483 187.631 71.5082 187.617 71.468L187.531 71.2255C187.501 71.1443 187.469 71.0627 187.435 70.9808L187.33 70.7344C186.026 67.8107 182.587 64.6525 173.69 65.3763L173.203 65.4193Z" fill="#FE0902"/>
<path d="M68.3593 78.4163C68.4532 78.4844 68.5493 78.5488 68.6462 78.6116L68.9377 78.7978V75.3487L68.9284 75.2667L68.9176 75.1434L68.9103 75.0328L68.9013 74.8271L68.898 74.6652L68.898 74.4848L68.9022 74.2871L68.9116 74.0732L68.9233 73.8936L68.9393 73.7052L68.96 73.5086L68.9858 73.3043L69.0174 73.093L69.055 72.8752L69.0993 72.6514C69.1072 72.6137 69.1154 72.5757 69.124 72.5375L69.179 72.306L69.2417 72.07C69.2528 72.0303 69.2643 71.9905 69.2761 71.9505L69.3513 71.7088C69.3645 71.6683 69.3782 71.6276 69.3922 71.5868L69.4809 71.3408C69.621 70.97 69.7935 70.5918 70.0054 70.2149L70.1526 69.964C71.7863 67.2913 75.4911 64.7837 83.794 65.5737V56.1863L83.62 56.1775L83.3215 56.1668L83.1215 56.1618L82.6262 56.1552L82.3336 56.1548L82.0128 56.1571L81.4815 56.167L80.9957 56.1824L80.4734 56.2055L79.9007 56.2384L79.295 56.2819L78.8742 56.3173L78.2194 56.3812L77.7685 56.4314L77.3069 56.4882L76.8356 56.5518L76.3552 56.6228L75.8668 56.7013L75.371 56.7879L74.8687 56.8829L74.3607 56.9866C74.2756 57.0046 74.1903 57.023 74.1049 57.0418L73.5899 57.1593C73.5038 57.1797 73.4175 57.2005 73.331 57.2217L72.811 57.3538C72.5502 57.4224 72.2886 57.4948 72.0266 57.5713L71.5021 57.7296L70.9772 57.8991C67.1289 59.1838 63.3195 61.3963 61.0068 65.1891C61.7548 70.7277 64.1955 75.4486 68.3593 78.4163ZM83.797 200.126V190.738C74.7157 191.602 71.1351 188.521 69.7486 185.594L69.6351 185.344C69.5809 185.219 69.5306 185.095 69.4839 184.971L69.3952 184.725C69.3812 184.684 69.3676 184.644 69.3543 184.603L69.2791 184.361L69.2124 184.123L69.1536 183.889L69.1023 183.66L69.0581 183.437L69.0204 183.219L68.9889 183.008L68.963 182.803L68.9338 182.511L68.9147 182.239L68.9053 182.025L68.901 181.827L68.901 181.647L68.9043 181.485L68.9099 181.342L68.9169 181.221L68.9314 181.045L68.9407 180.958V175.173C68.6137 175.375 68.2927 175.587 67.9777 175.809C63.5172 179.013 61.0341 184.161 60.489 190.199C63.0031 195.111 67.8902 197.618 72.5427 198.887L73.0492 199.02C73.2176 199.063 73.3856 199.104 73.5531 199.144L74.0536 199.259L74.55 199.365L75.0415 199.463C75.123 199.479 75.2042 199.494 75.2852 199.509L75.768 199.594C75.8479 199.608 75.9276 199.621 76.0069 199.634L76.4793 199.708C76.5574 199.72 76.6352 199.732 76.7126 199.743L77.1729 199.807C77.2489 199.817 77.3245 199.826 77.3997 199.836L77.8462 199.89L78.2826 199.938L78.7081 199.98L79.1219 200.016L79.5234 200.048L79.9117 200.075L80.2861 200.097L80.82 200.123L81.1563 200.135L81.5494 200.147L81.9158 200.154L82.254 200.157L82.7055 200.156L83.0856 200.151L83.3897 200.143L83.797 200.126ZM196.887 66.7638C194.459 61.1914 189.116 58.4842 184.119 57.1809L183.62 57.0551L183.125 56.9385C183.043 56.9198 182.96 56.9014 182.878 56.8834L182.389 56.7797C182.308 56.7631 182.227 56.7468 182.146 56.7309L181.664 56.6394L181.188 56.5556L180.718 56.4793L180.256 56.41L179.802 56.3475L179.357 56.2914L178.921 56.2414L178.496 56.1972L178.082 56.1585L177.482 56.1099L176.912 56.0718L176.373 56.0431L175.867 56.0226L175.55 56.013L175.168 56.0049L174.815 56.0008L174.493 56L174.203 56.0019L173.947 56.0057L173.629 56.0137L173.396 56.0222L173.203 56.0318V65.4193C182.284 64.5552 185.865 67.636 187.251 70.563L187.365 70.8134C187.419 70.9383 187.469 71.0628 187.516 71.1864L187.605 71.4324C187.619 71.4732 187.633 71.5138 187.646 71.5544L187.721 71.796L187.788 72.0341L187.846 72.2679L187.898 72.497L187.942 72.7207L187.98 72.9385L188.011 73.1499L188.037 73.3541L188.066 73.646L188.085 73.9188L188.095 74.1327L188.099 74.3304L188.099 74.5108L188.096 74.6727L188.09 74.815L188.079 74.989L188.059 75.1957V80.4331C188.593 80.1382 189.111 79.8147 189.61 79.464C193.646 76.5751 196.063 72.0661 196.887 66.7638ZM190.01 176.857C189.39 176.416 188.742 176.019 188.068 175.667V180.815L188.078 180.897L188.088 181.02L188.096 181.131L188.105 181.336L188.108 181.498L188.108 181.679L188.104 181.876L188.089 182.179L188.075 182.363L188.046 182.655L188.02 182.859L187.989 183.07L187.951 183.288L187.907 183.512L187.856 183.741L187.797 183.975L187.73 184.213C187.718 184.253 187.706 184.293 187.694 184.333L187.614 184.577L187.525 184.823C187.494 184.905 187.461 184.988 187.427 185.071L187.319 185.321C187.281 185.404 187.241 185.488 187.2 185.572L187.07 185.823C185.557 188.63 181.904 191.417 173.212 190.59V199.977L173.351 199.984L173.751 199.999L174.242 200.007L174.541 200.009L175.05 200.006L175.428 199.999L175.834 199.988L176.338 199.968L176.876 199.94L177.253 199.916L177.842 199.872L178.25 199.836L178.67 199.795L179.101 199.748L179.541 199.696L179.991 199.637L180.45 199.572L180.916 199.499C180.995 199.487 181.073 199.474 181.152 199.46L181.629 199.377L182.112 199.286C182.193 199.27 182.274 199.254 182.355 199.237L182.846 199.134C182.928 199.116 183.01 199.098 183.093 199.079L183.589 198.963C188.903 197.675 194.747 194.841 197.135 188.673C196.19 183.746 193.81 179.579 190.01 176.857Z" fill="#FFAB00"/>
</svg>