<svg width="256" height="256" viewBox="0 0 256 256" fill="none" xmlns="http://www.w3.org/2000/svg" id="typst">
<style>
#typst {
    rect {fill: #242938}

    @media (prefers-color-scheme: light) {
        rect {fill: #F4F2ED}
    }
}
</style>
<rect width="256" height="256" fill="#242938" rx="60"/>
<path d="M45.3359 129.9C45.3359 132.39 45.693 134.061 46.4072 134.913C47.1214 135.764 48.42 136.19 50.3029 136.19C52.2508 136.19 54.7505 135.207 57.8022 133.242L59.7501 136.485C54.0363 141.268 49.329 143.659 45.6281 143.659C41.9272 143.659 39.0054 142.775 36.8627 141.006C34.7201 139.171 33.6488 135.961 33.6488 131.375V105.626H28.7791L28 101.99L33.6488 100.221V95.4052L45.3359 90V100.81L56.8283 99.926L55.7569 106.314L45.3359 105.921V129.9Z" fill="#00AFC6"/>
<path d="M66.6452 166.067H64.9894C63.4311 163.38 62.23 159.547 61.3858 154.568L63.6258 153.192C65.5089 154.372 67.1645 154.961 68.5929 154.961C71.6445 154.961 73.9821 153.553 75.6052 150.735L78.9166 142.971L64.0155 107.886C63.2364 106.117 62.5546 105.004 61.9702 104.545C61.3858 104.086 60.2821 103.759 58.6588 103.562L57.9771 99.926C63.1713 100.45 66.9047 100.712 69.1773 100.712C71.4498 100.712 75.5078 100.45 81.3513 99.926L80.9619 103.366C80.832 103.431 80.4749 103.53 79.8905 103.661C79.3711 103.792 78.9166 103.923 78.5269 104.054C78.2023 104.119 77.8129 104.217 77.3584 104.348C76.4494 104.742 75.9949 105.233 75.9949 105.823C75.9949 106.281 76.1247 106.969 76.3843 107.886L84.9548 129.999L93.3307 107.493C93.5254 106.904 93.623 106.347 93.623 105.823C93.623 104.643 91.9023 103.857 88.461 103.464L88.2663 100.024C91.4478 100.483 94.1098 100.712 96.2524 100.712C98.3951 100.712 101.934 100.483 106.868 100.024L106.186 103.661C104.628 103.726 103.525 104.021 102.875 104.545C102.291 105.004 101.674 105.986 101.025 107.493L80.5722 155.747C77.6505 162.627 73.008 166.067 66.6452 166.067Z" fill="#00AFC6"/>
<path d="M136.081 138.647C138.613 138.647 140.756 137.238 142.509 134.421C144.327 131.538 145.236 127.345 145.236 121.842C145.236 111.621 142.281 106.511 136.373 106.511C133.971 106.511 131.341 107.854 128.484 110.54V133.144C129.198 134.716 130.27 136.026 131.698 137.075C133.127 138.123 134.588 138.647 136.081 138.647ZM136.276 166.951C130.237 166.361 126.147 166.067 124.004 166.067C121.861 166.067 117.576 166.361 111.148 166.951L110.174 163.413C112.512 162.889 114.2 162.299 115.239 161.644C116.278 160.989 116.797 159.973 116.797 158.597V109.557C116.797 107.33 115.953 106.216 114.265 106.216L109.785 106.805L109.298 103.071C114.882 100.581 120.173 99.1071 125.173 98.6484L127.218 100.909C127.218 102.35 127.543 103.988 128.192 105.823L132.477 102.58C135.464 100.286 138.159 99.1398 140.561 99.1398C146.469 99.1398 150.82 100.942 153.611 104.545C156.403 108.149 157.799 113.325 157.799 120.073C157.799 126.756 155.689 132.357 151.469 136.878C147.248 141.399 141.827 143.659 135.204 143.659C133.062 143.659 130.822 142.939 128.484 141.497V158.794C128.484 160.039 129.004 161.022 130.042 161.742C131.536 162.398 133.484 162.922 135.886 163.315L136.957 163.511L136.276 166.951Z" fill="#00AFC6"/>
<path d="M175.986 138.942C177.544 138.942 178.843 138.45 179.882 137.468C180.921 136.485 181.44 135.273 181.44 133.831C181.44 132.324 181.245 131.211 180.856 130.49C180.466 129.704 179.817 128.983 178.908 128.328C177.609 127.28 175.759 126.166 173.357 124.987C171.019 123.807 169.169 122.792 167.805 121.94C166.507 121.088 165.208 119.712 163.909 117.812C162.676 115.847 162.059 113.586 162.059 111.031C162.059 107.362 163.487 104.479 166.344 102.383C169.266 100.221 172.87 99.1396 177.155 99.1396C181.44 99.1396 186.31 99.8931 191.764 101.4C191.569 105.659 191.017 109.262 190.108 112.211L186.212 113.095C184.654 106.805 181.7 103.66 177.35 103.66C174.428 103.66 172.967 105.397 172.967 108.869C172.967 110.245 173.519 111.424 174.623 112.407C175.791 113.39 177.479 114.438 179.687 115.552C181.895 116.6 183.485 117.419 184.459 118.009C185.433 118.533 186.732 119.418 188.355 120.662C191.342 123.021 192.835 126.33 192.835 130.588C192.835 134.847 191.212 138.09 187.965 140.318C184.719 142.545 180.434 143.659 175.11 143.659C169.85 143.659 165.24 142.775 161.28 141.006C161.15 139.892 161.085 137.959 161.085 135.207C161.085 132.39 161.15 130.424 161.28 129.311L166.052 128.23C166.572 131.44 167.708 134.028 169.461 135.993C171.214 137.959 173.389 138.942 175.986 138.942Z" fill="#00AFC6"/>
<path d="M213.586 129.9C213.586 132.39 213.943 134.061 214.657 134.913C215.372 135.764 216.67 136.19 218.553 136.19C220.501 136.19 223.001 135.207 226.052 133.242L228 136.485C222.286 141.268 217.579 143.659 213.878 143.659C210.177 143.659 207.255 142.775 205.113 141.006C202.97 139.171 201.899 135.961 201.899 131.375V105.626H197.029L196.25 101.99L201.899 100.221V95.4052L213.586 90V100.81L225.078 99.926L224.007 106.314L213.586 105.921V129.9Z" fill="#00AFC6"/>
</svg>
