<svg width="256" height="256" viewBox="0 0 256 256" fill="none" xmlns="http://www.w3.org/2000/svg">
<path d="M196 0H60C26.8629 0 0 26.8629 0 60V196C0 229.137 26.8629 256 60 256H196C229.137 256 256 229.137 256 196V60C256 26.8629 229.137 0 196 0Z" fill="#242938"/>
<path d="M66.5442 198.611V140.04L77.7728 203.297L96.0541 212.409L107.805 159.824V217.355L128.436 227.505V130.409L97.0985 115.57L87.1751 161.906L77.1651 106.026L46 91.1016V188.285L66.5442 198.611Z" fill="#FBBD16"/>
<path d="M131.309 130.383L164.041 113.375V183.833L209.306 160.407L209.481 186.958L131.397 228L131.309 130.383Z" fill="#452E7F"/>
<path d="M118.112 28L94.9664 48.4644C94.9664 48.4644 140.126 71.6767 145.611 74.4199C151.098 77.1624 158.906 82.438 150.465 90.2465C142.024 98.0543 132.739 96.9992 126.408 93.8339C120.078 90.6685 73.2313 67.0342 73.2313 67.0342L49.3867 87.2915C49.3867 87.2915 95.3885 110.715 102.986 114.724C110.583 118.734 138.859 128.652 165.659 107.76C192.459 86.8694 188.661 79.2727 188.661 77.7955C188.661 76.3184 188.028 68.5106 183.386 63.6571C178.742 58.8036 165.238 51.84 159.54 48.8857C153.843 45.9314 118.112 28 118.112 28Z" fill="#962444"/>
</svg>
