<svg width="256" height="256" viewBox="0 0 256 256" fill="none" xmlns="http://www.w3.org/2000/svg">
<path d="M196 0H60C26.8629 0 0 26.8629 0 60V196C0 229.137 26.8629 256 60 256H196C229.137 256 256 229.137 256 196V60C256 26.8629 229.137 0 196 0Z" fill="#F4F2ED"/>
<path d="M92.7644 42.6433C90.1482 42.2395 90.0379 42.1921 91.269 42.0039C93.6284 41.6429 99.1994 42.1348 103.038 43.0432C112.001 45.1628 120.156 50.5929 128.862 60.2367L131.174 62.7988L134.483 62.2695C148.421 60.0409 162.6 61.8121 174.459 67.2633C177.722 68.7629 182.866 71.7481 183.509 72.5153C183.713 72.7598 184.089 74.3335 184.344 76.0129C185.225 81.8228 184.784 86.2761 182.998 89.6023C182.027 91.4123 181.972 91.9859 182.625 93.5349C183.147 94.771 184.601 95.6859 186.041 95.6839C188.988 95.68 192.161 90.9397 193.63 84.344L194.214 81.724L195.37 83.0275C201.715 90.1792 206.697 99.9323 207.554 106.874L207.776 108.685L206.71 107.039C204.875 104.208 203.031 102.28 200.669 100.725C196.413 97.9231 191.912 96.9694 179.993 96.3444C169.228 95.78 163.136 94.8651 157.095 92.9051C146.815 89.5706 141.634 85.1298 129.424 69.1911C124.001 62.1116 120.649 58.1947 117.315 55.0403C109.739 47.8729 102.294 44.114 92.7644 42.6433Z" fill="#FF37C7"/>
<path d="M185.938 58.4499C186.209 53.7059 186.855 50.577 188.156 47.7194C188.67 46.5883 189.152 45.6626 189.227 45.6626C189.301 45.6626 189.078 46.4975 188.729 47.5176C187.785 50.2909 187.629 54.0841 188.28 58.4973C189.106 64.0969 189.576 64.9048 195.525 70.9535C198.315 73.7906 201.56 77.3689 202.736 78.9052L204.875 81.6985L202.736 79.7022C200.121 77.2609 194.105 72.5 192.775 71.8194C191.884 71.363 191.752 71.3708 191.202 71.9152C190.696 72.4167 190.589 73.1704 190.519 76.7331C190.41 82.2859 189.649 85.8501 187.813 89.4138C186.82 91.3414 186.663 90.93 187.562 88.7543C188.233 87.1299 188.301 86.4158 188.296 81.0403C188.286 70.2397 186.997 67.6431 179.439 63.1952C177.525 62.0683 174.37 60.4433 172.43 59.5837C170.488 58.7241 168.947 57.9754 169.002 57.9194C169.217 57.7075 176.588 59.8479 179.554 60.9833C183.967 62.6722 184.694 62.8911 185.231 62.6873C185.59 62.5508 185.764 61.5098 185.938 58.4499Z" fill="#FF37C7"/>
<path d="M97.8464 76.9268C92.5353 69.6514 89.2492 58.4967 89.9607 50.1581L90.1806 47.5776L91.3896 47.7972C93.6598 48.2092 97.5743 49.6589 99.4072 50.7666C104.437 53.8062 106.615 57.8079 108.83 68.0839C109.479 71.0939 110.331 74.5 110.722 75.6531C111.353 77.5092 113.736 81.8448 115.674 84.6605C117.07 86.6884 116.143 87.6493 113.057 87.3722C108.346 86.949 101.964 82.5664 97.8464 76.9268Z" fill="#FF37C7"/>
<path d="M179.496 131.073C154.675 121.13 145.933 112.499 145.933 97.9361C145.933 95.793 146.007 94.0396 146.098 94.0396C146.188 94.0396 147.148 94.7468 148.231 95.6113C153.265 99.628 158.901 101.343 174.503 103.608C183.685 104.941 188.852 106.018 193.619 107.59C208.767 112.589 218.14 122.734 220.376 136.552C221.025 140.567 220.644 148.096 219.591 152.065C218.76 155.198 216.222 160.848 215.55 161.065C215.364 161.125 215.181 160.413 215.133 159.446C214.877 154.257 212.242 149.206 207.817 145.421C202.785 141.12 196.025 137.695 179.496 131.073Z" fill="#FF37C7"/>
<path d="M162.071 135.204C161.76 133.363 161.221 131.011 160.873 129.979L160.239 128.101L161.415 129.415C163.043 131.233 164.33 133.559 165.42 136.657C166.252 139.023 166.345 139.726 166.34 143.568C166.333 147.341 166.229 148.132 165.461 150.26C164.249 153.617 162.745 155.997 160.222 158.551C155.688 163.143 149.859 165.685 141.448 166.74C139.986 166.922 135.724 167.232 131.977 167.425C122.535 167.914 116.321 168.923 110.737 170.874C109.934 171.155 109.217 171.325 109.144 171.253C108.918 171.029 112.72 168.774 115.861 167.269C120.288 165.147 124.696 163.988 134.572 162.353C139.45 161.544 144.488 160.563 145.767 160.173C157.848 156.487 164.058 146.976 162.071 135.204Z" fill="#FF37C7"/>
<path d="M173.449 155.309C170.151 148.256 169.393 141.446 171.2 135.095C171.394 134.415 171.704 133.86 171.891 133.86C172.079 133.86 172.857 134.279 173.621 134.79C175.14 135.808 178.187 137.522 186.307 141.927C196.44 147.424 202.217 151.68 206.146 156.543C209.587 160.801 211.715 165.652 212.74 171.566C213.32 174.916 212.98 182.977 212.116 186.352C209.392 196.988 203.06 205.343 194.03 210.219C192.707 210.933 191.519 211.519 191.391 211.522C191.262 211.525 191.744 210.305 192.462 208.812C195.5 202.494 195.846 196.347 193.549 189.506C192.142 185.317 189.275 180.206 183.486 171.568C176.755 161.524 175.105 158.852 173.449 155.309Z" fill="#FF37C7"/>
<path d="M80.2208 193.367C89.4315 185.629 100.892 180.131 111.331 178.444C115.83 177.717 123.325 178.006 127.491 179.067C134.169 180.768 140.142 184.576 143.25 189.113C146.285 193.548 147.588 197.413 148.944 206.011C149.479 209.403 150.061 212.81 150.237 213.581C151.256 218.037 153.237 221.599 155.694 223.388C159.595 226.229 166.312 226.405 172.919 223.841C174.04 223.406 175.014 223.105 175.083 223.172C175.322 223.409 171.995 225.626 169.647 226.792C166.489 228.362 163.978 228.968 160.64 228.968C154.589 228.968 149.564 225.906 145.371 219.66C144.546 218.43 142.692 214.748 141.251 211.478C136.824 201.432 134.638 198.372 129.499 195.023C125.026 192.109 119.257 191.587 114.918 193.704C109.218 196.485 107.627 203.733 111.71 208.326C113.332 210.151 116.358 211.726 118.833 212.032C123.462 212.606 127.44 209.102 127.44 204.451C127.44 201.432 126.273 199.709 123.337 198.39C119.327 196.591 115.016 198.695 115.037 202.443C115.046 204.041 115.745 205.045 117.356 205.77C118.389 206.236 118.413 206.272 117.57 206.098C113.891 205.338 113.029 200.925 115.987 197.995C119.539 194.477 126.884 196.03 129.406 200.831C130.466 202.848 130.589 206.864 129.665 209.29C127.597 214.718 121.569 217.572 115.453 216.019C111.289 214.961 109.594 213.816 104.574 208.672C95.8508 199.731 92.4643 197.999 79.8885 196.045L77.4785 195.671L80.2208 193.367Z" fill="#FF37C7"/>
<path fill-rule="evenodd" clip-rule="evenodd" d="M39.2903 33.3478C68.4217 68.5275 88.4859 83.042 90.7157 86.1085C92.5567 88.6406 91.8637 90.9169 88.7099 92.701C86.956 93.6929 83.3503 94.6979 81.5448 94.6979C79.5028 94.6979 78.8018 93.9141 78.8018 93.9141C77.6178 92.7968 76.951 92.9922 70.871 82.2539C62.4299 69.2217 55.3658 58.4109 55.173 58.2299C54.7275 57.8113 54.7351 57.8255 70.0102 85.0196C72.4782 90.6875 70.5012 92.768 70.5012 93.5754C70.5012 95.2176 70.0509 96.0807 68.0149 98.3403C64.6207 102.108 63.1035 106.341 62.0083 115.102C60.7804 124.922 57.3278 131.86 47.7595 143.734C42.1586 150.684 41.2421 151.957 39.8289 154.759C38.0487 158.286 37.5593 160.262 37.3609 164.716C37.1512 169.426 37.5596 172.469 39.0058 176.972C40.2718 180.914 41.5934 183.517 44.9719 188.724C47.8875 193.217 49.5663 196.556 49.5663 197.862C49.5663 198.902 49.7657 198.902 54.2836 197.888C65.0956 195.459 73.875 191.185 78.8127 185.95C81.8685 182.709 82.5859 180.919 82.6092 176.478C82.6245 173.573 82.5217 172.965 81.7326 171.294C80.4479 168.574 78.1092 166.313 72.9546 162.807C66.2005 158.212 63.3159 154.514 62.519 149.428C61.8654 145.254 62.6236 142.31 66.36 134.518C70.2273 126.454 71.1857 123.017 71.834 114.887C72.2527 109.635 72.8325 107.564 74.3492 105.901C75.9309 104.168 77.3548 103.58 81.2694 103.048C87.6512 102.181 91.7149 100.538 95.0551 97.4755C97.9528 94.8186 99.1654 92.2586 99.3515 88.4049L99.4927 85.4839L97.8734 83.6054C92.0093 76.8023 35.3631 28 35.0022 28C34.9251 28 36.8548 30.4067 39.2903 33.3478ZM52.858 170.046C54.1839 167.709 53.4794 164.706 51.2617 163.238C49.1662 161.852 45.911 162.505 45.911 164.312C45.911 164.863 46.2173 165.265 46.9079 165.618C48.0706 166.213 48.1549 166.883 47.2402 168.251C46.3137 169.636 46.3885 170.854 47.4511 171.682C49.1639 173.017 51.5883 172.282 52.858 170.046Z" fill="#FF37C7"/>
<path fill-rule="evenodd" clip-rule="evenodd" d="M103.52 104.581C100.524 105.496 97.6118 108.656 96.7104 111.968C96.1604 113.989 96.4725 117.534 97.2962 118.629C98.6271 120.397 99.9141 120.863 103.399 120.839C110.222 120.792 116.153 117.88 116.842 114.24C117.408 111.257 114.803 107.122 111.215 105.307C109.363 104.37 105.425 103.999 103.52 104.581ZM111.496 110.786C112.548 109.299 112.088 107.691 110.298 106.604C106.891 104.533 101.737 106.247 101.737 109.45C101.737 111.044 104.425 112.784 106.888 112.784C108.528 112.784 110.771 111.811 111.496 110.786Z" fill="#FF37C7"/>
</svg>
