<svg width="256" height="256" viewBox="0 0 256 256" fill="none" xmlns="http://www.w3.org/2000/svg">
<rect width="256" height="256" rx="60" fill="#242938"/>
<path d="M128.006 97.1229L101.142 112.633V143.653L128.006 159.164L154.869 143.653V112.633L128.006 97.1229Z" fill="white"/>
<path d="M184.628 95.4481H215.526L200.073 68.6947L184.628 95.4481Z" fill="#FFBC00"/>
<path d="M184.628 160.832L200.073 187.592L215.526 160.832H184.628Z" fill="#FFBC00"/>
<path d="M112.551 220.28H143.448L128.002 193.527L112.551 220.28Z" fill="#FFBC00"/>
<path d="M40.4843 160.832L55.9299 187.592L71.382 160.832H40.4843Z" fill="#FFBC00"/>
<path d="M40.4843 95.4481H71.382L55.9299 68.6947L40.4843 95.4481Z" fill="#FFBC00"/>
<path d="M112.551 36L128.002 62.7599L143.448 36H112.551Z" fill="#FFBC00"/>
<path d="M157.477 41.2418L139.549 72.2945L170.602 90.2228L188.53 59.1701L157.477 41.2418Z" fill="#F43BA6"/>
<path d="M218 110.217H182.143V146.073H218V110.217Z" fill="#F43BA6"/>
<path d="M170.596 166.059L139.544 183.987L157.472 215.04L188.525 197.111L170.596 166.059Z" fill="#F43BA6"/>
<path d="M85.4058 166.066L67.4775 197.118L98.5305 215.047L116.459 183.994L85.4058 166.066Z" fill="#F43BA6"/>
<path d="M73.8566 110.209H38V146.066H73.8566V110.209Z" fill="#F43BA6"/>
<path d="M98.525 41.2279L67.4721 59.1563L85.4004 90.209L116.453 72.2807L98.525 41.2279Z" fill="#F43BA6"/>
</svg>
