<svg width="256" height="256" viewBox="0 0 256 256" fill="none" xmlns="http://www.w3.org/2000/svg">
<g clip-path="url(#clip0_143_26)">
<g clip-path="url(#clip1_143_26)">
<path d="M0 128V0H128H256V128V256H128H0V128ZM56.525 213.9C57.45 213.7 58.7 213.3 59.3 213.025C60.925 212.3 62.8 210.5 63.7 208.8C65.125 206.125 65.275 204.875 65.425 194.45L65.55 185H62.925H60.275L60.2 195.325L60.125 205.625L59.425 206.825C59.025 207.475 58.25 208.3 57.675 208.675C56.7 209.325 56.425 209.35 53.875 209.375C51.425 209.375 51.025 209.3 50.075 208.775C48.95 208.125 48.025 206.95 47.55 205.525C47.35 204.925 47.25 201.7 47.25 194.85V185H44.75H42.25V194.075C42.275 204.075 42.45 205.9 43.65 208.375C45.825 212.825 51.05 215.05 56.525 213.9ZM98.875 211.2C98.95 209.775 99 207.725 98.95 206.625L98.875 204.625H101.875H104.85L106.3 207.375C107.1 208.9 108.175 210.95 108.675 211.95L109.625 213.75H112.075H114.525L113.8 212.45C113.4 211.725 112.325 209.7 111.4 207.95C109.425 204.175 109.3 203.325 110.6 202.525C112.575 201.275 114.325 198.525 114.7 196C115.4 191.225 112.375 186.925 107.275 185.4C106.175 185.075 104.7 185 99.825 185H93.75V199.375V213.75H96.225H98.7L98.875 211.2ZM166.75 211.375V209H160.375H154V205.25V201.5H159.125H164.25V199.25V197L159.2 196.95L154.125 196.875L154.05 193.2L153.975 189.5H160.375H166.75V187.25V185H158H149.25V199.375V213.75H158H166.75V211.375ZM204.375 213.5C206.775 213.225 207.725 212.975 209.5 212.175C210.8 211.575 212.875 210.1 213.65 209.225C214.525 208.2 215.725 206.075 216.225 204.575C218.675 197.275 215.775 189.425 209.55 186.5C206.875 185.225 205.325 185 198.7 185H192.75V199.375V213.75H197.45C200.025 213.75 203.15 213.625 204.375 213.5ZM107.925 144.975C111.65 144.475 114.625 142.475 116.025 139.55C117.35 136.75 117.35 136.8 117.45 125.95L117.525 115.75H115.025H112.525L112.45 126.075C112.375 137.375 112.4 137.1 110.775 138.825C109.575 140.125 108.85 140.35 106 140.35C103.175 140.35 102.375 140.125 101.125 138.875C99.45 137.175 99.25 135.7 99.25 124.7V115.75H96.875H94.5V125.275C94.5 135.925 94.65 137.175 96.125 139.875C97.8 142.875 100.45 144.6 104.125 145C104.95 145.1 105.7 145.2 105.8 145.225C105.9 145.225 106.85 145.125 107.925 144.975ZM163.05 144.6C165.4 144.05 167.65 142.7 169.325 140.875C170.15 139.95 171.6 137.775 171.45 137.625C171.4 137.575 170.525 137.2 169.5 136.825L167.625 136.1L165.975 137.775C163.95 139.825 162.675 140.325 159.375 140.35C156.2 140.375 155.05 140.125 153.35 139C151.75 137.975 150.525 136.375 149.875 134.5C149 132 149.175 127.5 150.225 125.125C150.95 123.55 152.6 121.85 154.3 121.025C155.75 120.3 156 120.25 158.775 120.25C162.7 120.25 163.9 120.675 166.1 122.9L167.7 124.525L169.425 123.85C170.35 123.475 171.225 123.1 171.325 123C171.65 122.7 170.325 120.775 168.725 119.2C165.975 116.525 162.3 115.3 157.875 115.575C154.4 115.8 151.775 116.9 149.25 119.175C142.95 124.875 142.725 135.35 148.775 141.175C152.4 144.65 157.675 145.925 163.05 144.6ZM48.5 140.125V135.475L51.525 135.55L54.55 135.625L56.925 140.2L59.3 144.75H61.65C62.95 144.75 64 144.675 64 144.6C64 144.45 61 138.675 59.875 136.625C59.025 135.125 59.05 134.225 59.95 133.7C60.875 133.15 62.925 131.025 63.4 130.125C66.2 124.7 63.4 118.45 57.275 116.475C55.825 116 54.85 115.925 49.575 115.825L43.5 115.7V130.225V144.75H46H48.5V140.125ZM207.5 132.625V120.5H212.15H216.8L216.65 119.95C216.575 119.625 216.5 118.55 216.5 117.575V115.75H205H193.5V118.125V120.5H198H202.5V132.625V144.75H205H207.5V132.625ZM58.1 75.75C62.175 74.725 64.35 72.775 65.8 68.85C66.325 67.45 66.35 66.925 66.45 57.2L66.525 47H64.175H61.8L61.7 56.825C61.575 67.95 61.525 68.2 59.575 70C58.25 71.225 56.925 71.6 54.35 71.425C52.125 71.3 51.25 70.95 50.1 69.7C48.575 68.1 48.625 68.5 48.55 57.325L48.475 47H45.975H43.5V56.35C43.5 66.525 43.625 67.7 44.925 70.475C46.2 73.175 48.4 74.85 51.8 75.75C54.15 76.375 55.725 76.375 58.1 75.75ZM161.9 75.75C165.925 74.35 168.3 71.35 168.3 67.675C168.3 66.375 168.15 65.675 167.65 64.675C166.225 61.75 163.825 60.275 158.225 58.85C154.075 57.8 152.75 56.775 152.75 54.55C152.75 51.75 153.925 50.875 157.625 50.9C160.3 50.9 161.95 51.4 163.175 52.55L163.75 53.075L165.55 51.875L167.35 50.675L166.125 49.55C164.5 48.1 163.45 47.45 161.75 46.9C156.65 45.275 150.95 47.2 148.85 51.3C147.95 53.05 147.7 54.55 148.025 55.95C149.025 60 151.25 61.725 157.75 63.5C160.875 64.35 162.525 65.175 162.95 66.125C163.125 66.475 163.25 67.5 163.25 68.375C163.25 69.875 163.2 70.05 162.375 70.85C161.675 71.55 161.25 71.75 160.1 71.9C156.75 72.3 153.75 71.425 151.85 69.475C150.825 68.425 150.25 68.275 149.75 68.875C149.575 69.075 149.3 69.25 149.15 69.25C149 69.275 148.55 69.525 148.15 69.875C147.45 70.425 147.425 70.475 147.8 71.075C149.1 73.05 151.775 75 154.25 75.775C156.275 76.4 160 76.4 161.9 75.75ZM98.875 74.1C98.975 73.2 99.025 69.1 98.95 64.975L98.85 57.5H99.775C100.825 57.5 100.375 56.975 106.7 65.55C107.85 67.1 110.025 70.025 111.525 72.075L114.25 75.75H116.375H118.5V61.375V47H116H113.5V56.125V65.25H112.65C111.85 65.25 111.675 65.075 110.025 62.825C109.05 61.475 107.3 59.075 106.125 57.5C104.95 55.925 103.725 54.275 103.425 53.825C103.125 53.4 101.875 51.675 100.65 50.025L98.45 47H96.1H93.75V61.375V75.75H96.225H98.7L98.875 74.1ZM206.5 63.75V51.75H211.125H215.75V49.375V47H204.275H192.825L192.65 48.275C192.55 48.975 192.55 50.05 192.65 50.65L192.8 51.75H197.15H201.5V63.575C201.5 70.1 201.575 75.5 201.675 75.575C201.75 75.675 202.875 75.75 204.175 75.75H206.5V63.75Z" fill="#0ADDF7"/>
<path d="M98.9991 199.675C98.9241 199.6 98.8741 197.375 98.8991 194.7L98.9241 189.875L102.399 189.8C106.299 189.725 107.649 189.975 108.599 190.975C109.474 191.9 109.749 192.775 109.749 194.775C109.749 197.025 109.149 198.275 107.674 199.05C106.749 199.55 106.174 199.625 102.874 199.7C100.824 199.75 99.0741 199.725 98.9991 199.675Z" fill="#0ADDF7"/>
<path d="M197.75 199.4V189.7L201.95 189.8C205.675 189.875 206.25 189.95 207.375 190.45C210.85 192.05 212.225 195.025 211.925 200.325C211.75 203.55 211.275 204.95 209.775 206.475C207.95 208.325 206.525 208.775 201.7 208.95L197.75 209.075V199.4Z" fill="#0ADDF7"/>
<path d="M48.5 125.6V120.45L52.325 120.55C55.925 120.65 56.225 120.675 57.3 121.3C58.75 122.15 59.2 122.875 59.4 124.6C59.65 126.65 59.35 128.125 58.45 129.125C57.35 130.375 55.875 130.75 51.825 130.75H48.5V125.6Z" fill="#0ADDF7"/>
<path d="M51.25 214.825C46 214.025 42.775 210.9 41.85 205.775C41.6 204.4 41.525 201.175 41.5 194.075V184.25H44.75H48V194.1C48 204.425 48.025 204.775 49.175 206.525C50.15 208 51.525 208.625 53.875 208.6C55.6 208.6 56.025 208.5 56.925 207.925C57.525 207.55 58.275 206.75 58.675 206.075L59.375 204.875L59.45 194.575L59.525 184.25H62.925H66.3L66.175 194.45C66.025 205.7 65.9 206.825 64.45 209.55C63.55 211.25 61.675 213.05 60.05 213.775C57.9 214.775 53.9 215.25 51.25 214.825Z" fill="black"/>
<path d="M93 199.375V184.25H99.825C105.375 184.25 106.925 184.325 108.025 184.65C110.1 185.275 111.5 186.1 112.8 187.425C117.25 192 116.35 200.05 111.025 203.525L110.425 203.9L111.925 206.775C112.75 208.35 114.025 210.725 114.725 212.075L116 214.5H112.45H108.875L107.925 212.7C107.425 211.7 106.35 209.65 105.55 208.125L104.1 205.375H101.9H99.725L99.675 209.875L99.625 214.375L96.325 214.45L93 214.525V199.375ZM106.925 198.3C109.25 197.075 109.725 193.7 107.85 191.725C106.925 190.775 105.525 190.475 102.425 190.55L99.725 190.625V194.625C99.725 196.825 99.725 198.725 99.75 198.85C99.75 198.95 101.125 199 102.825 198.95C105.375 198.875 106.05 198.775 106.925 198.3Z" fill="black"/>
<path d="M148.45 199.375L148.5 184.25H158H167.5V187.25V190.25H161.125H154.725L154.8 193.2L154.875 196.125L159.925 196.175C162.725 196.175 165 196.275 165 196.35C165 196.425 165 197.8 165 199.375V202.25H159.875H154.75V205.25V208.25H161.125H167.5V211.375V214.5H157.95H148.375L148.45 199.375Z" fill="black"/>
<path d="M192 199.375V184.25H198.7C203.425 184.25 205.85 184.35 207 184.6C210.575 185.35 213.675 187.45 215.55 190.35C218.625 195.1 218.675 203.1 215.7 208.075C214.675 209.775 214.15 210.375 212.625 211.475C209.25 213.975 206.575 214.5 197.45 214.5H192V199.375ZM206.375 207.475C208.25 206.775 210.025 205.025 210.6 203.325C211.5 200.675 211.35 196.625 210.25 194.5C209.6 193.25 208.075 191.875 206.625 191.2C205.575 190.725 204.85 190.625 201.95 190.55L198.5 190.45V199.4V208.325L201.7 208.175C204.125 208.075 205.225 207.9 206.375 207.475Z" fill="black"/>
<path d="M103.375 145.75C99.7 145.35 97.05 143.625 95.375 140.625C93.875 137.9 93.75 136.75 93.75 125.25V114.975L96.9 115.05L100.05 115.125L100.025 123.9C99.975 134.8 100.175 136.4 101.875 138.125C103 139.25 103.975 139.575 106 139.575C108.05 139.575 108.95 139.25 110.025 138.075C111.65 136.35 111.625 136.625 111.7 125.325L111.775 115H115.025H118.275L118.2 125.95C118.1 137.625 118.1 137.475 116.775 140.3C114.75 144.55 109.95 146.5 103.375 145.75Z" fill="black"/>
<path d="M155.875 145.725C151.2 145.05 147.1 142.075 145.2 138C144.225 135.875 144 135.075 143.725 132.6C142.8 124.4 146.6 117.875 153.75 115.35C155.275 114.825 160.425 114.6 162.65 114.975C165.325 115.45 167.775 116.75 169.725 118.75C170.625 119.675 171.75 121.125 172.2 121.975C172.925 123.375 172.975 123.525 172.575 123.675C172.325 123.75 171 124.275 169.65 124.8L167.15 125.775L166.525 124.95C164.35 122.075 162.225 121 158.775 121C156.825 121 156.4 121.075 155.05 121.775C153.35 122.6 151.7 124.3 150.975 125.875C149.95 128.2 149.8 131.425 150.65 133.85C151.525 136.325 153.85 138.65 156.2 139.3C157.575 139.7 160.95 139.625 162.225 139.15C163.575 138.65 165.225 137.325 166.175 136C166.55 135.45 167.025 135 167.225 135C167.5 135 172.65 136.925 172.95 137.15C173 137.175 172.55 138 171.95 138.975C169.475 143.15 166.3 145.2 161.55 145.75C159.05 146.025 157.975 146.025 155.875 145.725Z" fill="black"/>
<path d="M42.75 130.225V114.95L49.575 115.075C55.65 115.175 56.55 115.225 58.025 115.725C62.05 117.025 64.65 120.025 65.225 124C65.525 126.3 65.1 129.05 64.1 130.95C63.675 131.775 61.625 133.9 60.725 134.425L60.025 134.85L60.675 135.975C61.775 137.95 65.5 145.175 65.5 145.35C65.5 145.425 63.925 145.5 62.025 145.5H58.55L56.175 140.95L53.8 136.375L51.525 136.3L49.25 136.225V140.875V145.5H46H42.75V130.225ZM55.625 129.65C57.85 128.975 59 127.15 58.6 124.925C58.375 123.525 57.9 122.85 56.575 122.075C55.575 121.5 55.125 121.4 52.35 121.3L49.25 121.175V125.6V130H51.825C53.375 130 54.9 129.85 55.625 129.65Z" fill="black"/>
<path d="M201.75 133.375V121.25H197.25H192.75V118.125V115L205 115.05L217.25 115.125L217.35 118.2L217.475 121.25H212.875H208.25V133.375V145.5H205H201.75V133.375Z" fill="black"/>
<path d="M156.125 77.0501C154.675 76.9251 152.375 76.2001 151.05 75.4501C149.525 74.5751 147.375 72.4751 146.575 71.0251L146 70.0251L147.075 69.3251C147.65 68.9251 148.3 68.5251 148.5 68.4251C148.7 68.3251 149.225 68.0251 149.625 67.7501C150.05 67.4751 150.525 67.1751 150.7 67.1001C150.875 67.0001 151.475 67.4751 152.125 68.2001C154.15 70.4501 156.8 71.5001 159.55 71.1251C161.175 70.9001 162.5 69.6501 162.5 68.3751C162.5 66.3251 161.3 65.4251 157 64.2501C151.675 62.8001 149.35 61.4251 148.125 59.0001C145.875 54.5001 147.325 49.4751 151.65 47.0001C155 45.0751 160.925 45.0501 164.375 46.9251C165.5 47.5501 167.175 48.9501 168 50.0001L168.75 50.9251L166.35 52.6001C165.05 53.5001 163.875 54.2501 163.75 54.2501C163.625 54.2501 163.125 53.9001 162.65 53.5001C161.275 52.2751 159.625 51.6751 157.625 51.6501C155.375 51.6251 154.275 52.2001 153.775 53.6751C153.45 54.6001 153.45 54.7501 153.9 55.5001C154.55 56.6001 156 57.3501 158.95 58.1001C164.6 59.5251 166.975 61.0001 168.425 63.9751C169 65.1501 169.1 65.6251 169.075 67.7251C169.075 69.4501 168.95 70.4001 168.625 71.1251C166.975 74.8751 163.725 76.8751 159 77.0501C157.825 77.1001 156.55 77.1001 156.125 77.0501Z" fill="black"/>
<path d="M51.05 76.5C47.65 75.6 45.45 73.925 44.175 71.225C42.85 68.425 42.75 67.325 42.75 56.35V46.25H45.975H49.225L49.3 56.575C49.375 67.95 49.325 67.55 51.05 69.15C52.175 70.2 52.7 70.45 54.275 70.65C57.075 70.975 59.425 69.55 60.375 66.95C60.85 65.725 60.875 64.975 60.875 55.95V46.25H64.075H67.275L67.2 57.2C67.1 67.7 67.075 68.175 66.55 69.6C65.875 71.375 65.175 72.625 64.15 73.7C61.55 76.5 55.75 77.725 51.05 76.5Z" fill="black"/>
<path d="M93 61.375V46.25H96.1H99.2L101.4 49.275C102.625 50.925 103.875 52.65 104.175 53.075C104.475 53.525 105.7 55.175 106.875 56.75C108.05 58.325 109.825 60.75 110.825 62.125L112.625 64.6L112.7 55.425L112.75 46.25H116.075H119.375L119.3 61.375L119.25 76.5H116.375H113.5L110.775 72.825C109.275 70.775 107.1 67.85 105.95 66.3C101.15 59.8 99.95 58.25 99.8 58.25C99.7 58.25 99.625 62.325 99.625 67.3V76.375L96.325 76.45L93 76.525V61.375Z" fill="black"/>
<path d="M200.925 76.325C200.825 76.25 200.75 70.85 200.75 64.35V52.5L196.325 52.45L191.875 52.375L191.85 49.3V46.25H204.175H216.5V49.375V52.5H211.875H207.25V64.5V76.5H204.175C202.475 76.5 201 76.425 200.925 76.325Z" fill="black"/>
</g>
</g>
<defs>
<clipPath id="clip0_143_26">
<rect width="256" height="256" fill="white"/>
</clipPath>
<clipPath id="clip1_143_26">
<rect width="256" height="256" rx="60" fill="white"/>
</clipPath>
</defs>
</svg>
