<svg width="256" height="256" viewBox="0 0 256 256" fill="none" xmlns="http://www.w3.org/2000/svg">
<path d="M196 0H60C26.8629 0 0 26.8629 0 60V196C0 229.137 26.8629 256 60 256H196C229.137 256 256 229.137 256 196V60C256 26.8629 229.137 0 196 0Z" fill="#F4F2ED"/>
<path d="M180.479 140.192C174.8 139.874 169.279 138.191 164.382 135.284C159.485 132.377 155.353 128.331 152.335 123.486C155.975 94.3323 166.57 85.2695 180.588 85.2695C194.606 85.2695 205.255 96.1885 205.255 112.567C205.255 128.946 194.388 139.865 180.588 139.865M180.588 67.0348C170.695 66.632 160.977 69.7357 153.131 75.8033C145.285 81.8709 139.811 90.5164 137.666 100.229C133.015 90.4374 129.496 80.1427 127.179 69.5462H92.5699V112.676C92.5699 128.345 85.5067 139.974 71.6521 139.974C57.7974 139.974 49.9192 128.4 49.9192 112.676V69.5462H30.0337V112.676C29.5824 124.628 33.682 136.303 41.4977 145.324C45.3126 149.498 49.9727 152.802 55.1646 155.015C60.3565 157.228 65.9599 158.298 71.5977 158.154C95.5582 158.154 112.347 139.646 112.347 113.168V84.0138C116.416 99.7017 123.143 114.569 132.232 127.963L121.583 189H141.795L148.804 145.761C151.124 147.768 153.594 149.593 156.193 151.22C162.945 155.505 170.706 157.916 178.686 158.208H180.534C186.47 158.27 192.358 157.125 197.842 154.84C203.327 152.556 208.295 149.18 212.447 144.916C216.599 140.652 219.85 135.588 222.003 130.029C224.156 124.469 225.168 118.53 224.977 112.567C225.116 106.626 224.064 100.718 221.886 95.1941C219.707 89.6699 216.445 84.6422 212.294 80.4099C208.143 76.1776 203.187 72.8272 197.722 70.5576C192.256 68.288 186.393 67.1457 180.479 67.1986" fill="#131313"/>
</svg>
