<svg width="256" height="256" viewBox="0 0 256 256" fill="none" xmlns="http://www.w3.org/2000/svg" id="vagrant">
<style>
#vagrant {
    rect {fill: #242938}

    @media (prefers-color-scheme: light) {
        rect {fill: #F4F2ED}
    }
}
</style>
<rect width="256" height="256" fill="#242938" rx="60"/>
<path d="M190.996 38L151.536 60.7919V74.7749L127.5 131.296L103.464 74.7749V60.7919L64.0036 38L40 51.8847V67.9635L93.4431 198.821L127.5 218.469L161.557 198.821L214.967 67.9635V51.8847L190.996 38Z" fill="#1868F2"/>
<path d="M215 51.8521L175.54 74.6112V88.6269L143.514 160.212L127.5 169.447V218.469L161.557 198.821L215 67.9636V51.8848V51.8521Z" fill="#0850C5"/>
<path d="M103.497 74.7427V60.7598L79.4932 74.6118V88.6275L111.552 160.212L127.566 150.978V131.264L103.529 74.7427H103.497Z" fill="#0850C5"/>
</svg>
