<svg width="256" height="256" viewBox="0 0 256 256" fill="none" xmlns="http://www.w3.org/2000/svg">
<path d="M196 0H60C26.8629 0 0 26.8629 0 60V196C0 229.137 26.8629 256 60 256H196C229.137 256 256 229.137 256 196V60C256 26.8629 229.137 0 196 0Z" fill="#1195CF"/>
<path d="M191.453 9H65.5469C34.8692 9 10 33.8692 10 64.5469V190.453C10 221.131 34.8692 246 65.5469 246H191.453C222.131 246 247 221.131 247 190.453V64.5469C247 33.8692 222.131 9 191.453 9Z" fill="black"/>
<path d="M50 45.0242C56.6393 45.0242 63.2786 45.0242 69.9179 45.0242C71.4801 45.0242 73.0667 45.0242 74.6289 45.0242C89.6487 85.4649 104.693 125.898 119.762 166.322C122.202 172.917 124.497 179.561 126.547 186.301C127.133 188.04 127.572 189.852 128.207 191.592C131.795 178.739 136.726 166.298 141.559 153.856L183.738 45.0483C191.5 45.0483 199.262 45.0483 207 45.0483L139.801 210C132.039 210 124.277 210 116.515 210C106.637 185.616 96.7924 161.209 86.9799 136.777C74.7753 106.499 62.5707 76.2284 50.3661 45.9663C50.2441 45.6523 50.122 45.3141 50.0244 45L50 45.0242Z" fill="#1195CF"/>
</svg>
