<svg width="256" height="256" viewBox="0 0 256 256" fill="none" xmlns="http://www.w3.org/2000/svg" id="visio">
<style>
#visio {
    rect {fill: #242938}

    @media (prefers-color-scheme: light) {
        rect {fill: #F4F2ED}
    }
}
</style>
<rect width="256" height="256" rx="60" fill="#242938"/>
<path d="M135.882 83.7502H211.746C216.168 83.7502 219.752 87.3348 219.752 91.7566V163.245C219.752 167.667 216.168 171.251 211.746 171.251H135.882C131.461 171.251 127.876 167.667 127.876 163.245V91.7566C127.876 87.3348 131.461 83.7502 135.882 83.7502Z" fill="#2B7CD3"/>
<path d="M176.002 83.7502C176.01 85.8737 175.158 87.9101 173.639 89.394L141.001 122.032L137.895 125.138C137.492 125.526 137.069 125.891 136.626 126.232C135.317 127.059 133.8 127.499 132.251 127.501C130.127 127.51 128.091 126.657 126.607 125.138L90.863 89.394C88.1651 86.7338 87.7252 82.5369 89.813 79.3751C90.1256 78.9226 90.4769 78.4981 90.863 78.1063L126.607 42.3622C129.678 39.2452 134.695 39.2082 137.812 42.2794C137.84 42.3068 137.867 42.3344 137.895 42.3622L173.639 78.1064C175.158 79.5904 176.01 81.6267 176.002 83.7502Z" fill="#41A5EE"/>
<path d="M176.002 171.251C176.001 195.414 156.412 215.001 132.249 215C116.62 214.999 102.179 206.661 94.3633 193.127C93.5215 191.727 92.7901 190.265 92.1758 188.752C91.5311 187.329 90.9759 185.868 90.5132 184.376C83.2644 161.327 96.0736 136.765 119.123 129.516C123.371 128.18 127.798 127.5 132.251 127.501C133.739 127.501 135.183 127.588 136.626 127.72C138.097 127.846 139.558 128.065 141.001 128.376C161.359 132.561 175.977 150.468 176.002 171.251Z" fill="#103F91"/>
<path opacity="0.1" d="M141.001 87.3816V180.745C140.98 183.989 139.014 186.904 136.014 188.139C135.059 188.543 134.032 188.751 132.995 188.752H92.1758C91.5311 187.329 90.9759 185.868 90.5132 184.377C83.2644 161.327 96.0736 136.765 119.123 129.516C123.371 128.18 127.798 127.501 132.251 127.501C130.128 127.51 128.091 126.657 126.607 125.138L90.8632 89.3941C88.1653 86.7339 87.7254 82.537 89.8132 79.3752H132.995C135.99 79.3932 138.724 81.0811 140.083 83.7503C140.698 84.8611 141.014 86.1121 141.001 87.3816Z" fill="black"/>
<path opacity="0.2" d="M136.626 91.7567V185.12C136.626 186.157 136.418 187.184 136.014 188.139C134.779 191.139 131.864 193.105 128.62 193.127H94.3633C93.5215 191.727 92.7901 190.265 92.1758 188.752C91.5311 187.329 90.9759 185.868 90.5132 184.377C83.2644 161.327 96.0736 136.765 119.123 129.516C123.371 128.18 127.798 127.501 132.251 127.501C130.128 127.51 128.091 126.657 126.608 125.138L90.8632 89.3941C89.3443 87.9102 88.4918 85.8738 88.5007 83.7503H128.62C130.839 83.7425 132.956 84.6815 134.439 86.3316C135.837 87.792 136.621 89.7345 136.626 91.7567Z" fill="black"/>
<path opacity="0.2" d="M136.626 91.7567V176.37C136.593 180.778 133.028 184.343 128.62 184.377H90.5132C83.2644 161.327 96.0736 136.765 119.123 129.516C123.371 128.18 127.798 127.501 132.251 127.501C130.128 127.51 128.091 126.657 126.608 125.138L90.8632 89.3941C89.3443 87.9102 88.4918 85.8738 88.5007 83.7503H128.62C130.839 83.7425 132.956 84.6815 134.439 86.3316C135.837 87.792 136.621 89.7345 136.626 91.7567Z" fill="black"/>
<path opacity="0.2" d="M132.252 91.7566V127.501C130.128 127.51 128.092 126.657 126.608 125.138L90.8635 89.394C89.3446 87.9101 88.4922 85.8738 88.501 83.7502H124.245C128.66 83.767 132.235 87.3418 132.252 91.7566Z" fill="black"/>
<path opacity="0.2" d="M132.251 127.501V176.37C132.218 180.778 128.653 184.343 124.245 184.376H90.5132C83.2644 161.327 96.0736 136.765 119.123 129.516C123.371 128.18 127.798 127.5 132.251 127.501Z" fill="black"/>
<path d="M44.0195 83.7502H124.232C128.661 83.7502 132.251 87.3406 132.251 91.7698V171.982C132.251 176.411 128.661 180.001 124.232 180.001H44.0195C39.5904 180.001 36 176.411 36 171.982V91.7698C36 87.3407 39.5904 83.7502 44.0195 83.7502Z" fill="url(#paint0_linear_136_111)"/>
<path d="M81.5002 140.311C82.9732 144.651 83.8482 147.39 84.1253 148.527H84.3046C84.5701 147.39 85.5166 144.457 87.144 139.729L98.8123 105.805H109.54L89.7428 157.942H78.254L58.75 105.805H69.7839L81.5002 140.311Z" fill="white"/>
<defs>
<linearGradient id="paint0_linear_136_111" x1="52.7208" y1="77.484" x2="115.53" y2="186.268" gradientUnits="userSpaceOnUse">
<stop stop-color="#2368C4"/>
<stop offset="0.5" stop-color="#1A5DBE"/>
<stop offset="1" stop-color="#1146AC"/>
</linearGradient>
</defs>
</svg>
