<svg width="256" height="256" viewBox="0 0 256 256" fill="none" xmlns="http://www.w3.org/2000/svg">
<path d="M196 0H60C26.8629 0 0 26.8629 0 60V196C0 229.137 26.8629 256 60 256H196C229.137 256 256 229.137 256 196V60C256 26.8629 229.137 0 196 0Z" fill="#F4F2ED"/>
<path d="M48.1518 60.964C46.968 52.4339 52.8366 44.5471 61.2597 43.3483L168.019 28.1537C176.442 26.9549 184.23 32.898 185.414 41.4281L206.848 195.878C208.032 204.408 202.164 212.295 193.74 213.494L86.981 228.689C78.5577 229.887 70.7701 223.944 69.5864 215.414L48.1518 60.964Z" fill="url(#paint0_linear_49_1123)"/>
<path d="M55.7781 59.8786C55.1862 55.6136 58.1205 51.6702 62.332 51.0708L169.091 35.8762C173.303 35.2768 177.197 38.2483 177.789 42.5134L199.223 196.963C199.815 201.228 196.881 205.172 192.669 205.771L85.9099 220.966C81.6981 221.565 77.8043 218.594 77.2122 214.329L55.7781 59.8786Z" fill="white"/>
<path d="M165.937 90.4267L135.245 170.923C134.611 172.585 132.424 172.9 131.342 171.485L78.6902 102.621C77.5115 101.08 78.6375 98.8553 80.5576 98.9327L122.922 100.641C123.191 100.652 123.462 100.614 123.718 100.528L163.105 87.4128C164.922 86.8077 166.626 88.6203 165.937 90.4267Z" fill="url(#paint1_linear_49_1123)"/>
<path d="M140.159 80.6193L110.493 90.9422C110.006 91.1116 109.695 91.5945 109.737 92.1154L112.403 124.501C112.465 125.264 113.234 125.755 113.939 125.483L122.156 122.309C122.925 122.012 123.744 122.621 123.695 123.454L122.941 136.331C122.891 137.197 123.774 137.809 124.551 137.445L129.571 135.096C130.35 134.733 131.233 135.346 131.181 136.214L129.951 156.447C129.874 157.713 131.584 158.157 132.109 157.008L132.459 156.241L150.22 102.485C150.517 101.585 149.664 100.726 148.776 101.032L140.271 103.963C139.472 104.239 138.662 103.561 138.779 102.714L141.653 81.8674C141.77 81.0193 140.959 80.341 140.159 80.6193Z" fill="url(#paint2_linear_49_1123)"/>
<defs>
<linearGradient id="paint0_linear_49_1123" x1="54.1995" y1="36.2676" x2="190.472" y2="229.706" gradientUnits="userSpaceOnUse">
<stop stop-color="#49C7FF"/>
<stop offset="1" stop-color="#BD36FF"/>
</linearGradient>
<linearGradient id="paint1_linear_49_1123" x1="76.8094" y1="96.7327" x2="138.902" y2="159.459" gradientUnits="userSpaceOnUse">
<stop stop-color="#41D1FF"/>
<stop offset="1" stop-color="#BD34FE"/>
</linearGradient>
<linearGradient id="paint2_linear_49_1123" x1="118.353" y1="85.3433" x2="136.9" y2="148.534" gradientUnits="userSpaceOnUse">
<stop stop-color="#FFEA83"/>
<stop offset="0.0833333" stop-color="#FFDD35"/>
<stop offset="1" stop-color="#FFA800"/>
</linearGradient>
</defs>
</svg>
