<svg width="256" height="256" viewBox="0 0 256 256" fill="none" xmlns="http://www.w3.org/2000/svg">
<g clip-path="url(#clip0_450_29)">
<path d="M196 0H60C26.8629 0 0 26.8629 0 60V196C0 229.137 26.8629 256 60 256H196C229.137 256 256 229.137 256 196V60C256 26.8629 229.137 0 196 0Z" fill="#242938"/>
<path d="M157.997 41.302C161.846 37.7924 168.034 40.5232 168.034 45.7329V89.0209L110.704 134.442L81.1807 112.046L157.997 41.302Z" fill="#009A7C"/>
<path d="M59.5203 133.033L34.6075 154.508C31.1272 157.684 31.1311 163.165 34.6173 166.333L45.189 175.945C48.0388 178.535 52.3311 178.726 55.3996 176.398L84.0854 155.43L59.5203 133.033Z" fill="#009A7C"/>
<path d="M168.034 167.871L55.3996 80.4947C52.3311 78.1661 48.0388 78.3573 45.189 80.9475L34.6173 90.5589C31.1311 93.7288 31.1272 99.2079 34.6075 102.384L157.979 215.52C161.827 219.048 168.034 216.318 168.034 211.098V167.871Z" fill="#00B294"/>
<path d="M177.675 222.712C173.098 224.914 167.628 223.983 164.036 220.391C168.462 224.816 176.029 221.682 176.029 215.423V41.4704C176.029 35.2117 168.462 32.0773 164.036 36.5029C167.628 32.9111 173.097 31.9803 177.675 34.1818L217.204 53.1917C221.359 55.1892 224 59.3905 224 63.9995V192.895C224 197.504 221.359 201.706 217.204 203.703L177.675 222.712Z" fill="#24BFA5"/>
</g>
<defs>
<clipPath id="clip0_450_29">
<rect width="256" height="256" fill="white"/>
</clipPath>
</defs>
</svg>
