<svg width="256" height="256" viewBox="0 0 256 256" fill="none" xmlns="http://www.w3.org/2000/svg">
<path d="M196 0H60C26.8629 0 0 26.8629 0 60V196C0 229.137 26.8629 256 60 256H196C229.137 256 256 229.137 256 196V60C256 26.8629 229.137 0 196 0Z" fill="#F4F2ED"/>
<path d="M128.489 144.026L103.367 187.539L128.489 231.052L153.611 187.539L128.489 144.026Z" fill="#202222"/>
<path d="M153.611 100.513L128.489 144.026L153.611 187.539L178.733 144.026L153.611 100.513Z" fill="#3B3D3D"/>
<path d="M103.367 100.513L78.2446 144.026L103.367 187.539L128.489 144.026L103.367 100.513Z" fill="#3B3D3D"/>
<path d="M178.734 57L153.611 100.513L178.734 144.026L203.856 100.513L178.734 57Z" fill="#505252"/>
<path d="M128.489 57L103.367 100.513L128.489 144.026L153.611 100.513L128.489 57Z" fill="#505252"/>
<path d="M78.2443 57L53.1221 100.513L78.2443 144.026L103.367 100.513L78.2443 57Z" fill="#505252"/>
<path d="M203.856 100.512L228.978 57H178.733L203.856 100.512Z" fill="#8E8F8F"/>
<path d="M53.1222 100.512L78.2445 57H28L53.1222 100.512Z" fill="#8E8F8F"/>
</svg>
