<svg width="256" height="256" viewBox="0 0 256 256" fill="none" id="warp" xmlns="http://www.w3.org/2000/svg">
    <path d="M196 0H60C26.8629 0 0 26.8629 0 60V196C0 229.137 26.8629 256 60 256H196C229.137 256 256 229.137 256 196V60C256 26.8629 229.137 0 196 0Z" fill="#F4F2ED"/>
    <path d="M130.48 61H193.522C203.727 61 212 69.5486 212 80.0939V154.223C212 164.768 203.727 173.317 193.522 173.317H103.306L130.48 61Z" fill="black"/>
    <path d="M114.105 82.2783H63.3205C53.2023 82.2783 45 90.8268 45 101.372V175.501C45 186.046 53.2023 194.595 63.3205 194.595H125.825L128.332 184.146H89.6698L114.105 82.2783Z" fill="black"/>
</svg>
