<svg width="256" height="256" viewBox="0 0 256 256" fill="none" xmlns="http://www.w3.org/2000/svg" id="websocket">
<style>
#websocket {
    rect {fill: #242938}
    path {fill: #F1F1F1}

    @media (prefers-color-scheme: light) {
        rect {fill: #F4F2ED}
        path {fill: #131313}
    }
}
</style>
<rect width="256" height="256" rx="60" fill="#242938"/>
<path d="M178.096 165.695H203.048V105.717L174.935 77.5731L157.291 95.237L178.096 116.065V165.695ZM203.114 178.218H166.772H116.077L95.2728 157.39L104.095 148.558L121.278 165.761H156.633L121.805 130.828L130.693 121.931L165.521 156.797V121.403L148.403 104.267L157.16 95.5007L113.905 52H71.2424H27L51.8863 76.914V76.9799H52.018H103.502L121.739 95.237L95.0753 121.931L76.8385 103.674V89.5028H51.8863V114.021L95.0753 157.258L77.4969 174.856L105.609 203H148.272H228L203.114 178.218Z" fill="#F1F1F1"/>
</svg>
