<svg width="256" height="256" viewBox="0 0 256 256" fill="none" xmlns="http://www.w3.org/2000/svg">
<path d="M196 0H60C26.8629 0 0 26.8629 0 60V196C0 229.137 26.8629 256 60 256H196C229.137 256 256 229.137 256 196V60C256 26.8629 229.137 0 196 0Z" fill="#242938"/>
<path fill-rule="evenodd" clip-rule="evenodd" d="M189.707 191.082L227.154 75.5923C230.092 66.5374 225.136 56.7925 216.1 53.8528C207.064 50.9131 197.34 55.8752 194.406 64.93L156.96 180.415C154.022 189.47 158.978 199.215 168.014 202.155C177.05 205.098 186.774 200.137 189.707 191.082Z" fill="url(#paint0_linear_49_1035)"/>
<path fill-rule="evenodd" clip-rule="evenodd" d="M189.707 191.082L227.154 75.5923C230.092 66.5374 225.136 56.7925 216.1 53.8528C207.064 50.9131 197.34 55.8752 194.406 64.93L156.96 180.415C154.022 189.47 158.978 199.215 168.014 202.155C177.05 205.098 186.774 200.137 189.707 191.082Z" fill="url(#paint1_linear_49_1035)"/>
<path fill-rule="evenodd" clip-rule="evenodd" d="M189.707 191.082L227.154 75.5923C230.092 66.5374 225.136 56.7925 216.1 53.8528C207.064 50.9131 197.34 55.8752 194.406 64.93L156.96 180.415C154.022 189.47 158.978 199.215 168.014 202.155C177.05 205.098 186.774 200.137 189.707 191.082Z" fill="url(#paint2_linear_49_1035)" fill-opacity="0.8"/>
<path fill-rule="evenodd" clip-rule="evenodd" d="M189.707 191.082L227.154 75.5923C230.092 66.5374 225.136 56.7925 216.1 53.8528C207.064 50.9131 197.34 55.8752 194.406 64.93L156.96 180.415C154.022 189.47 158.978 199.215 168.014 202.155C177.05 205.098 186.774 200.137 189.707 191.082Z" fill="url(#paint3_radial_49_1035)"/>
<path fill-rule="evenodd" clip-rule="evenodd" d="M189.707 191.082L227.154 75.5923C230.092 66.5374 225.136 56.7925 216.1 53.8528C207.064 50.9131 197.34 55.8752 194.406 64.93L156.96 180.415C154.022 189.47 158.978 199.215 168.014 202.155C177.05 205.098 186.774 200.137 189.707 191.082Z" fill="url(#paint4_radial_49_1035)"/>
<path fill-rule="evenodd" clip-rule="evenodd" d="M189.707 191.082L227.154 75.5923C230.092 66.5374 225.136 56.7925 216.1 53.8528C207.064 50.9131 197.34 55.8752 194.406 64.93L156.96 180.415C154.022 189.47 158.978 199.215 168.014 202.155C177.05 205.098 186.774 200.137 189.707 191.082Z" fill="url(#paint5_radial_49_1035)"/>
<path fill-rule="evenodd" clip-rule="evenodd" d="M127.995 122.631C132.245 122.631 135.379 125.125 138.051 128.252C141.02 131.734 143.39 136.049 145.404 140.631C154.458 161.2 156.153 186.932 156.153 186.932C156.802 196.432 165.028 203.613 174.509 202.962C183.989 202.311 191.154 194.065 190.505 184.569C190.505 184.569 188.23 152.429 176.91 126.706C167.202 104.648 150.766 88.1235 127.999 88.1235C105.234 88.1235 88.7963 104.648 79.0892 126.706C67.7649 152.429 65.494 184.569 65.494 184.569C64.8445 194.069 72.0104 202.311 81.4909 202.962C90.9713 203.613 99.1968 196.432 99.8458 186.932C99.8458 186.932 101.541 161.204 110.594 140.631C112.608 136.054 114.98 131.734 117.948 128.252C120.616 125.125 123.749 122.631 127.995 122.631Z" fill="#E63CFE"/>
<path fill-rule="evenodd" clip-rule="evenodd" d="M127.995 122.631C132.245 122.631 135.379 125.125 138.051 128.252C141.02 131.734 143.39 136.049 145.404 140.631C154.458 161.2 156.153 186.932 156.153 186.932C156.802 196.432 165.028 203.613 174.509 202.962C183.989 202.311 191.154 194.065 190.505 184.569C190.505 184.569 188.23 152.429 176.91 126.706C167.202 104.648 150.766 88.1235 127.999 88.1235C105.234 88.1235 88.7963 104.648 79.0892 126.706C67.7649 152.429 65.494 184.569 65.494 184.569C64.8445 194.069 72.0104 202.311 81.4909 202.962C90.9713 203.613 99.1968 196.432 99.8458 186.932C99.8458 186.932 101.541 161.204 110.594 140.631C112.608 136.054 114.98 131.734 117.948 128.252C120.616 125.125 123.749 122.631 127.995 122.631Z" fill="url(#paint6_radial_49_1035)"/>
<path fill-rule="evenodd" clip-rule="evenodd" d="M127.995 122.631C132.245 122.631 135.379 125.125 138.051 128.252C141.02 131.734 143.39 136.049 145.404 140.631C154.458 161.2 156.153 186.932 156.153 186.932C156.802 196.432 165.028 203.613 174.509 202.962C183.989 202.311 191.154 194.065 190.505 184.569C190.505 184.569 188.23 152.429 176.91 126.706C167.202 104.648 150.766 88.1235 127.999 88.1235C105.234 88.1235 88.7963 104.648 79.0892 126.706C67.7649 152.429 65.494 184.569 65.494 184.569C64.8445 194.069 72.0104 202.311 81.4909 202.962C90.9713 203.613 99.1968 196.432 99.8458 186.932C99.8458 186.932 101.541 161.204 110.594 140.631C112.608 136.054 114.98 131.734 117.948 128.252C120.616 125.125 123.749 122.631 127.995 122.631Z" fill="url(#paint7_radial_49_1035)"/>
<path fill-rule="evenodd" clip-rule="evenodd" d="M127.995 122.631C132.245 122.631 135.379 125.125 138.051 128.252C141.02 131.734 143.39 136.049 145.404 140.631C154.458 161.2 156.153 186.932 156.153 186.932C156.802 196.432 165.028 203.613 174.509 202.962C183.989 202.311 191.154 194.065 190.505 184.569C190.505 184.569 188.23 152.429 176.91 126.706C167.202 104.648 150.766 88.1235 127.999 88.1235C105.234 88.1235 88.7963 104.648 79.0892 126.706C67.7649 152.429 65.494 184.569 65.494 184.569C64.8445 194.069 72.0104 202.311 81.4909 202.962C90.9713 203.613 99.1968 196.432 99.8458 186.932C99.8458 186.932 101.541 161.204 110.594 140.631C112.608 136.054 114.98 131.734 117.948 128.252C120.616 125.125 123.749 122.631 127.995 122.631Z" fill="url(#paint8_radial_49_1035)"/>
<path fill-rule="evenodd" clip-rule="evenodd" d="M127.995 122.631C132.245 122.631 135.379 125.125 138.051 128.252C141.02 131.734 143.39 136.049 145.404 140.631C154.458 161.2 156.153 186.932 156.153 186.932C156.802 196.432 165.028 203.613 174.509 202.962C183.989 202.311 191.154 194.065 190.505 184.569C190.505 184.569 188.23 152.429 176.91 126.706C167.202 104.648 150.766 88.1235 127.999 88.1235C105.234 88.1235 88.7963 104.648 79.0892 126.706C67.7649 152.429 65.494 184.569 65.494 184.569C64.8445 194.069 72.0104 202.311 81.4909 202.962C90.9713 203.613 99.1968 196.432 99.8458 186.932C99.8458 186.932 101.541 161.204 110.594 140.631C112.608 136.054 114.98 131.734 117.948 128.252C120.616 125.125 123.749 122.631 127.995 122.631Z" fill="url(#paint9_radial_49_1035)"/>
<path fill-rule="evenodd" clip-rule="evenodd" d="M127.995 122.631C132.245 122.631 135.379 125.125 138.051 128.252C141.02 131.734 143.39 136.049 145.404 140.631C154.458 161.2 156.153 186.932 156.153 186.932C156.802 196.432 165.028 203.613 174.509 202.962C183.989 202.311 191.154 194.065 190.505 184.569C190.505 184.569 188.23 152.429 176.91 126.706C167.202 104.648 150.766 88.1235 127.999 88.1235C105.234 88.1235 88.7963 104.648 79.0892 126.706C67.7649 152.429 65.494 184.569 65.494 184.569C64.8445 194.069 72.0104 202.311 81.4909 202.962C90.9713 203.613 99.1968 196.432 99.8458 186.932C99.8458 186.932 101.541 161.204 110.594 140.631C112.608 136.054 114.98 131.734 117.948 128.252C120.616 125.125 123.749 122.631 127.995 122.631Z" fill="url(#paint10_radial_49_1035)"/>
<path fill-rule="evenodd" clip-rule="evenodd" d="M127.995 122.631C132.245 122.631 135.379 125.125 138.051 128.252C141.02 131.734 143.39 136.049 145.404 140.631C154.458 161.2 156.153 186.932 156.153 186.932C156.802 196.432 165.028 203.613 174.509 202.962C183.989 202.311 191.154 194.065 190.505 184.569C190.505 184.569 188.23 152.429 176.91 126.706C167.202 104.648 150.766 88.1235 127.999 88.1235C105.234 88.1235 88.7963 104.648 79.0892 126.706C67.7649 152.429 65.494 184.569 65.494 184.569C64.8445 194.069 72.0104 202.311 81.4909 202.962C90.9713 203.613 99.1968 196.432 99.8458 186.932C99.8458 186.932 101.541 161.204 110.594 140.631C112.608 136.054 114.98 131.734 117.948 128.252C120.616 125.125 123.749 122.631 127.995 122.631Z" fill="url(#paint11_radial_49_1035)"/>
<path fill-rule="evenodd" clip-rule="evenodd" d="M127.995 122.631C132.245 122.631 135.379 125.125 138.051 128.252C141.02 131.734 143.39 136.049 145.404 140.631C154.458 161.2 156.153 186.932 156.153 186.932C156.802 196.432 165.028 203.613 174.509 202.962C183.989 202.311 191.154 194.065 190.505 184.569C190.505 184.569 188.23 152.429 176.91 126.706C167.202 104.648 150.766 88.1235 127.999 88.1235C105.234 88.1235 88.7963 104.648 79.0892 126.706C67.7649 152.429 65.494 184.569 65.494 184.569C64.8445 194.069 72.0104 202.311 81.4909 202.962C90.9713 203.613 99.1968 196.432 99.8458 186.932C99.8458 186.932 101.541 161.204 110.594 140.631C112.608 136.054 114.98 131.734 117.948 128.252C120.616 125.125 123.749 122.631 127.995 122.631Z" fill="url(#paint12_radial_49_1035)"/>
<path fill-rule="evenodd" clip-rule="evenodd" d="M127.995 122.631C132.245 122.631 135.379 125.125 138.051 128.252C141.02 131.734 143.39 136.049 145.404 140.631C154.458 161.2 156.153 186.932 156.153 186.932C156.802 196.432 165.028 203.613 174.509 202.962C183.989 202.311 191.154 194.065 190.505 184.569C190.505 184.569 188.23 152.429 176.91 126.706C167.202 104.648 150.766 88.1235 127.999 88.1235C105.234 88.1235 88.7963 104.648 79.0892 126.706C67.7649 152.429 65.494 184.569 65.494 184.569C64.8445 194.069 72.0104 202.311 81.4909 202.962C90.9713 203.613 99.1968 196.432 99.8458 186.932C99.8458 186.932 101.541 161.204 110.594 140.631C112.608 136.054 114.98 131.734 117.948 128.252C120.616 125.125 123.749 122.631 127.995 122.631Z" fill="url(#paint13_radial_49_1035)"/>
<path fill-rule="evenodd" clip-rule="evenodd" d="M99.0407 180.415L61.5943 64.9254C58.6608 55.8706 48.9406 50.9042 39.9004 53.8482C30.8646 56.7922 25.9086 66.5328 28.8464 75.5877L66.2931 191.077C69.231 200.132 78.9511 205.098 87.987 202.155C97.0227 199.21 101.979 189.47 99.0407 180.415Z" fill="url(#paint14_linear_49_1035)"/>
<path fill-rule="evenodd" clip-rule="evenodd" d="M99.0407 180.415L61.5943 64.9254C58.6608 55.8706 48.9406 50.9042 39.9004 53.8482C30.8646 56.7922 25.9086 66.5328 28.8464 75.5877L66.2931 191.077C69.231 200.132 78.9511 205.098 87.987 202.155C97.0227 199.21 101.979 189.47 99.0407 180.415Z" fill="url(#paint15_radial_49_1035)"/>
<path fill-rule="evenodd" clip-rule="evenodd" d="M99.0407 180.415L61.5943 64.9254C58.6608 55.8706 48.9406 50.9042 39.9004 53.8482C30.8646 56.7922 25.9086 66.5328 28.8464 75.5877L66.2931 191.077C69.231 200.132 78.9511 205.098 87.987 202.155C97.0227 199.21 101.979 189.47 99.0407 180.415Z" fill="url(#paint16_linear_49_1035)"/>
<path fill-rule="evenodd" clip-rule="evenodd" d="M99.0407 180.415L61.5943 64.9254C58.6608 55.8706 48.9406 50.9042 39.9004 53.8482C30.8646 56.7922 25.9086 66.5328 28.8464 75.5877L66.2931 191.077C69.231 200.132 78.9511 205.098 87.987 202.155C97.0227 199.21 101.979 189.47 99.0407 180.415Z" fill="url(#paint17_radial_49_1035)"/>
<path fill-rule="evenodd" clip-rule="evenodd" d="M99.0407 180.415L61.5943 64.9254C58.6608 55.8706 48.9406 50.9042 39.9004 53.8482C30.8646 56.7922 25.9086 66.5328 28.8464 75.5877L66.2931 191.077C69.231 200.132 78.9511 205.098 87.987 202.155C97.0227 199.21 101.979 189.47 99.0407 180.415Z" fill="url(#paint18_radial_49_1035)"/>
<defs>
<linearGradient id="paint0_linear_49_1035" x1="247.182" y1="15.1686" x2="191.107" y2="196.489" gradientUnits="userSpaceOnUse">
<stop stop-color="#4A4EFA"/>
<stop offset="0.548576" stop-color="#E63CFE"/>
</linearGradient>
<linearGradient id="paint1_linear_49_1035" x1="176.756" y1="119.694" x2="208.521" y2="129.977" gradientUnits="userSpaceOnUse">
<stop offset="0.160046" stop-color="#4A4EFA"/>
<stop offset="0.946031" stop-color="#4A4EFA" stop-opacity="0"/>
</linearGradient>
<linearGradient id="paint2_linear_49_1035" x1="181.57" y1="104.449" x2="201.529" y2="110.832" gradientUnits="userSpaceOnUse">
<stop stop-color="#39FBBB"/>
<stop offset="1" stop-color="#39FBBB" stop-opacity="0"/>
</linearGradient>
<radialGradient id="paint3_radial_49_1035" cx="0" cy="0" r="1" gradientUnits="userSpaceOnUse" gradientTransform="translate(174.194 146.68) rotate(-64.1652) scale(104.077 104.076)">
<stop offset="0.832168" stop-color="#4A4EFA" stop-opacity="0"/>
<stop offset="1" stop-color="#4A4EFA" stop-opacity="0.75"/>
</radialGradient>
<radialGradient id="paint4_radial_49_1035" cx="0" cy="0" r="1" gradientUnits="userSpaceOnUse" gradientTransform="translate(172.176 139.811) scale(23.2034 49.6237)">
<stop offset="0.169047" stop-color="#11417A"/>
<stop offset="0.926198" stop-color="#4069D4" stop-opacity="0"/>
</radialGradient>
<radialGradient id="paint5_radial_49_1035" cx="0" cy="0" r="1" gradientUnits="userSpaceOnUse" gradientTransform="translate(199.034 203.003) rotate(-90) scale(76.7484 36.7825)">
<stop offset="0.34895" stop-color="#E63CFE"/>
<stop offset="1" stop-color="#E63CFE" stop-opacity="0"/>
</radialGradient>
<radialGradient id="paint6_radial_49_1035" cx="0" cy="0" r="1" gradientUnits="userSpaceOnUse" gradientTransform="translate(122.164 148.698) rotate(-85.7675) scale(79.0735 70.2112)">
<stop stop-color="#39FBBB" stop-opacity="0.5"/>
<stop offset="0.688731" stop-color="#39FBBB"/>
<stop offset="1" stop-color="#39FBBB" stop-opacity="0"/>
</radialGradient>
<radialGradient id="paint7_radial_49_1035" cx="0" cy="0" r="1" gradientUnits="userSpaceOnUse" gradientTransform="translate(234.825 193.217) rotate(-122.629) scale(189.568 46.1187)">
<stop stop-color="#E63CFE"/>
<stop offset="1" stop-color="#E63CFE" stop-opacity="0"/>
</radialGradient>
<radialGradient id="paint8_radial_49_1035" cx="0" cy="0" r="1" gradientUnits="userSpaceOnUse" gradientTransform="translate(125.306 173.103) rotate(-85.0199) scale(85.3019 73.3765)">
<stop offset="0.556793" stop-color="#4A4EFA"/>
<stop offset="0.934777" stop-color="#4A4EFA" stop-opacity="0"/>
</radialGradient>
<radialGradient id="paint9_radial_49_1035" cx="0" cy="0" r="1" gradientUnits="userSpaceOnUse" gradientTransform="translate(102.175 198.921) rotate(-68.6369) scale(89.0823 53.1617)">
<stop offset="0.61345" stop-color="#E63CFE"/>
<stop offset="1" stop-color="#E63CFE" stop-opacity="0"/>
</radialGradient>
<radialGradient id="paint10_radial_49_1035" cx="0" cy="0" r="1" gradientUnits="userSpaceOnUse" gradientTransform="translate(188.367 138.593) rotate(176.233) scale(110.606 279.616)">
<stop offset="0.813918" stop-color="#4A98D0" stop-opacity="0"/>
<stop offset="0.972647" stop-color="#11417A"/>
</radialGradient>
<radialGradient id="paint11_radial_49_1035" cx="0" cy="0" r="1" gradientUnits="userSpaceOnUse" gradientTransform="translate(95.5323 203.003) rotate(-90) scale(79.2713 65.7728)">
<stop offset="0.457769" stop-color="#FFAE3C"/>
<stop offset="1" stop-color="#FFAE3C" stop-opacity="0"/>
</radialGradient>
<radialGradient id="paint12_radial_49_1035" cx="0" cy="0" r="1" gradientUnits="userSpaceOnUse" gradientTransform="translate(191.655 203.003) rotate(-90) scale(71.4521 71.4513)">
<stop offset="0.191715" stop-color="#E63CFE"/>
<stop offset="1" stop-color="#E63CFE" stop-opacity="0"/>
</radialGradient>
<radialGradient id="paint13_radial_49_1035" cx="0" cy="0" r="1" gradientUnits="userSpaceOnUse" gradientTransform="translate(149.737 203.003) rotate(-90) scale(53.7674 25.5404)">
<stop offset="0.173611" stop-color="#FFAE3C"/>
<stop offset="1" stop-color="#FFAE3C" stop-opacity="0"/>
</radialGradient>
<linearGradient id="paint14_linear_49_1035" x1="22.1164" y1="60.2079" x2="70.4651" y2="210.626" gradientUnits="userSpaceOnUse">
<stop offset="0.169527" stop-color="#E63CFE"/>
<stop offset="0.708644" stop-color="#FFAE3C"/>
</linearGradient>
<radialGradient id="paint15_radial_49_1035" cx="0" cy="0" r="1" gradientUnits="userSpaceOnUse" gradientTransform="translate(61.6954 98.8467) rotate(161.042) scale(24.1222 117.791)">
<stop offset="0.120383" stop-color="#4A4EFA"/>
<stop offset="1" stop-color="#4A4EFA" stop-opacity="0"/>
</radialGradient>
<linearGradient id="paint16_linear_49_1035" x1="82.9105" y1="130.511" x2="76.1398" y2="132.728" gradientUnits="userSpaceOnUse">
<stop stop-color="#E63CFE" stop-opacity="0.33"/>
<stop offset="1" stop-color="#E63CFE" stop-opacity="0"/>
</linearGradient>
<radialGradient id="paint17_radial_49_1035" cx="0" cy="0" r="1" gradientUnits="userSpaceOnUse" gradientTransform="translate(99.8872 203.003) rotate(-90) scale(77.5017 84.6644)">
<stop offset="0.465389" stop-color="#FFAE3C"/>
<stop offset="0.92565" stop-color="#FFAE3C" stop-opacity="0"/>
</radialGradient>
<radialGradient id="paint18_radial_49_1035" cx="0" cy="0" r="1" gradientUnits="userSpaceOnUse" gradientTransform="translate(99.8872 203.003) rotate(-90) scale(169.577 169.575)">
<stop offset="0.843756" stop-color="#E63CFE" stop-opacity="0"/>
<stop offset="1" stop-color="#E63CFE"/>
</radialGradient>
</defs>
</svg>
