<svg width="256" height="256" viewBox="0 0 256 256" xmlns="http://www.w3.org/2000/svg">
  <rect width="256" height="256" rx="60" fill="#242938" />
  <g transform="translate(-121.12368393603485,-162.25024744727273)">
    <g aria-label="$W" transform="matrix(3.9114324830750546,0,0,3.929535720727273,0,0)">
      <path d="m 47.07925,66.906972 c 0,-1.247423 1.247423,-2.015068 4.270024,-2.015068 l -1.007534,5.517447 c -1.871134,-1.247423 -3.26249,-2.39889 -3.26249,-3.502379 z m 8.06027,13.625694 c 0,1.295401 -1.295401,2.159001 -4.270024,2.302935 l 1.055511,-5.853292 c 1.871135,1.247423 3.214513,2.350912 3.214513,3.550357 z m -5.277558,11.99445 0.911578,-5.421491 c 7.244648,-0.67169 10.075338,-3.598335 10.075338,-6.812848 0,-3.310468 -4.030135,-5.901269 -7.724426,-8.156225 l 1.343379,-7.100715 c 1.535289,0.143934 3.358446,0.431801 5.517447,0.863601 l 0.623711,-4.941713 C 58.977744,60.717836 57.442454,60.62188 56.00312,60.525924 l 1.10349,-5.277558 -4.749802,-0.04798 -0.911579,5.373513 c -7.244647,0.575734 -10.075337,3.598335 -10.075337,6.812847 0,3.262491 4.030135,5.757336 7.724425,7.916337 l -1.343378,7.436559 c -1.727201,-0.09596 -3.838224,-0.383822 -6.285092,-0.815623 l -0.959556,4.941714 c 2.063046,0.239889 3.982158,0.383822 5.709358,0.4318 l -1.055511,5.181602 z" style="fill:#4e49ee" />
      <path d="m 81.132992,88.73687 h 5.373513 c 0.671689,-5.613403 1.631245,-16.936163 2.254957,-29.746235 h -5.133625 c -0.143933,3.022601 -0.671689,21.014275 -0.8636,22.501587 h -0.143934 c -1.2954,-4.845757 -2.350912,-8.779937 -3.646312,-13.577717 h -2.926646 c -1.247423,4.79778 -2.111023,8.396115 -3.406424,13.577717 H 72.44901 C 72.305077,80.00491 71.489454,62.013236 71.393499,58.990635 h -5.325536 c 0.623711,12.810072 1.53529,24.132832 2.206979,29.746235 H 73.5525 l 3.69429,-14.249406 z" style="fill:#4e49ee" />
    </g>
  </g>
</svg>

