<svg width="256" height="256" viewBox="0 0 256 256" fill="none" xmlns="http://www.w3.org/2000/svg" id="windmill">
  <rect width="256" height="256" rx="60" fill="#242938"/>
  <polygon points="133.22 40 117.44 66.29 107.39 82.94 151.36 82.94 166.63 57.57 177.25 40 133.22 40" style="fill: #bcd4fc; stroke-width: 0px;"/>
  <polygon points="205.04 82.94 173.35 82.94 107.39 82.94 129.38 121.05 151.31 121.05 205.84 121.05 227.02 121.05 205.04 82.94" style="fill: #3b82f6; stroke-width: 0px;"/>
  <polygon points="134.89 131.44 119.05 158.88 86.1 216 130.12 216 141.09 197 168.35 149.81 178.92 131.44 134.89 131.44" style="fill: #3b82f6; stroke-width: 0px;"/>
  <polygon points="123.12 131.04 107.28 103.6 74.33 46.49 52.28 84.6 63.31 103.6 90.52 150.85 101.14 169.16 123.12 131.04" style="fill: #3b82f6; stroke-width: 0px;"/>
  <polygon points="79.09 131.04 48.44 130.47 28.98 130.12 50.96 168.24 80.58 168.76 101.14 169.16 79.09 131.04" style="fill: #bcd4fc; stroke-width: 0px;"/>
  <polygon points="156.93 169.56 171.8 196.43 181.21 213.47 203.2 175.36 188.85 149.41 178.92 131.44 156.93 169.56" style="fill: #bcd4fc; stroke-width: 0px;"/>
</svg>