<svg width="256" height="256" viewBox="0 0 256 256" fill="none" xmlns="http://www.w3.org/2000/svg">
<path d="M196 0H60C26.8629 0 0 26.8629 0 60V196C0 229.137 26.8629 256 60 256H196C229.137 256 256 229.137 256 196V60C256 26.8629 229.137 0 196 0Z" fill="#242938"/>
<path d="M105.001 171.536L97.8008 164.336L102.601 157.136L107.401 149.936L116.701 159.236C121.801 164.336 126.001 168.736 126.001 169.136C126.001 169.436 122.901 171.836 119.101 174.336L112.301 178.836L105.001 171.536Z" fill="#4C81B7"/>
<path d="M121.601 154.135L115.801 148.335L117.101 143.935C118.201 140.235 122.001 135.935 142.701 115.035L166.901 90.5352L176.501 100.035L186.001 109.535L163.801 131.835C151.501 144.235 139.501 155.535 137.101 157.135C130.501 161.435 128.401 161.035 121.601 154.135Z" fill="#4C81B7"/>
<path d="M192.7 119.335C192.3 119.035 192 118.235 192 117.635C192 115.835 234.4 74.0352 236.2 74.0352C237.4 74.0352 238 74.8352 238 76.3352C238 77.9352 232 84.5352 217.2 99.3352C198.2 118.335 194.6 121.235 192.7 119.335Z" fill="#4C81B7"/>
<path d="M181.2 94.7361L172 85.4361L189.2 68.3361C198.7 58.9361 207.9 50.5361 209.7 49.6361C217.2 45.8361 226 48.9361 228.1 56.0361C230.5 63.8361 228.8 66.5361 209.2 86.3361C199.5 96.0361 191.4 104.036 191 104.036C190.7 104.036 186.3 99.8361 181.2 94.7361Z" fill="#4C81B7"/>
<path d="M18 201.635V196.135L40.3 174.935C52.5 163.135 62.5 153.235 62.5 152.835C62.5 152.435 52.5 141.735 40.3 129.135L18 106.135V100.535V95.0352H66H114V103.935V112.835L111.1 109.935L108.2 107.035H75.1C46.8 107.035 42 107.235 42 108.535C42 109.235 51.2 119.535 62.5 131.235L83 152.535L61.7 173.835L40.5 195.035H48.4H56.3L50.9 200.935L45.5 206.835L31.8 206.935L18 207.035V201.635Z" fill="#4F4F4F"/>
<path d="M94.2992 205.036C95.6992 203.936 97.6992 201.136 98.6992 198.936C100.199 195.436 100.799 194.936 103.499 195.136C107.899 195.536 110.799 194.236 112.499 191.236C113.799 188.736 113.899 189.136 113.999 197.836V207.036H102.899H91.6992L94.2992 205.036Z" fill="#4F4F4F"/>
<path d="M59.7994 205.235C58.2994 204.635 61.1994 201.335 74.4994 188.035L90.9994 171.535L94.0994 174.635L97.1994 177.735L94.6994 182.635C93.3994 185.335 91.8994 189.435 91.4994 191.735C90.4994 197.835 87.3994 200.035 79.5994 200.035C73.5994 200.035 66.0994 202.535 64.5994 204.935C63.7994 206.135 62.3994 206.235 59.7994 205.235Z" fill="#EAC181"/>
</svg>
