<svg width="256" height="256" viewBox="0 0 256 256" fill="none" xmlns="http://www.w3.org/2000/svg" id="wireshark">
<style>
#wireshark {
    rect {fill: #242938}
    path {fill: #F1F1F1}

    @media (prefers-color-scheme: light) {
        rect {fill: #F4F2ED}
        path {fill: #242938}
    }
}
</style>
<rect width="256" height="256" fill="#242938" rx="60"/>
<path d="M194.151 191.223H256L255.847 204H189.89C188.732 204 187.597 203.665 186.622 203.035C185.646 202.404 184.87 201.504 184.386 200.442C184.386 200.442 150.884 127.972 181.261 66.1302C131.718 70.9641 104.462 101.037 88.772 131.934C71.9424 165.266 69.2901 198.362 69.2901 198.362C69.1721 199.895 68.4856 201.327 67.3675 202.372C66.2493 203.417 64.7818 203.999 63.2577 204H0L0.035208 191.766H58.129C58.8332 184.438 62.1193 157.607 77.9631 126.402C96.0367 90.7061 130.776 53.9817 192.273 53.0006C193.365 52.9849 194.44 53.2674 195.386 53.8181C196.332 54.3689 197.112 55.1673 197.645 56.1291C198.178 57.0908 198.443 58.18 198.413 59.2814C198.382 60.3828 198.057 61.4554 197.472 62.3856C163.989 114.748 190.219 181.814 194.151 191.223Z" fill="#F1F1F1"/>
</svg>
