<svg width="256" height="256" viewBox="0 0 256 256" fill="none" xmlns="http://www.w3.org/2000/svg">
<path d="M196 0H60C26.8629 0 0 26.8629 0 60V196C0 229.137 26.8629 256 60 256H196C229.137 256 256 229.137 256 196V60C256 26.8629 229.137 0 196 0Z" fill="#F4F2ED"/>
<path d="M46 100.5C46 54.9365 82.9365 18 128.5 18C174.063 18 211 54.9365 211 100.5V230.766C211 234.761 207.761 238 203.766 238H53.234C49.2388 238 46 234.761 46 230.766V100.5Z" fill="#0A5DA9"/>
<path d="M66.8423 134.947H190.737V151.158C190.737 185.37 163.002 213.105 128.79 213.105C94.5771 213.105 66.8423 185.37 66.8423 151.158V134.947Z" fill="#FFC700"/>
<path d="M66.8423 134.947H190.737V139.579C190.737 173.791 163.002 201.526 128.79 201.526C94.5771 201.526 66.8423 173.791 66.8423 139.579V134.947Z" fill="white"/>
<path d="M66.8423 93.2631C66.8423 77.9154 79.2841 65.4736 94.6318 65.4736C109.979 65.4736 122.421 77.9154 122.421 93.2631V134.947H66.8423V93.2631Z" fill="white"/>
<path d="M135.158 93.2631C135.158 77.9154 147.599 65.4736 162.947 65.4736C178.295 65.4736 190.737 77.9154 190.737 93.2631V134.947H135.158V93.2631Z" fill="white"/>
<circle cx="94.3422" cy="100.5" r="13.0263" fill="black"/>
<circle cx="162.658" cy="100.5" r="13.0263" fill="black"/>
<g clip-path="url(#clip0_658_71)">
<rect x="101" y="121.053" width="55" height="55" rx="27.5" fill="#C36209"/>
<circle cx="148.5" cy="168.553" r="47.5" fill="#C36209"/>
<circle cx="128.5" cy="-45.5" r="197.5" fill="#F2900C"/>
</g>
<defs>
<clipPath id="clip0_658_71">
<rect x="101" y="121.053" width="55" height="55" rx="27.5" fill="white"/>
</clipPath>
</defs>
</svg>
