<svg width="256" height="256" viewBox="0 0 256 256" fill="none" xmlns="http://www.w3.org/2000/svg" id="wxt">
<style>
#wxt {
    rect {fill: #242938}

    @media (prefers-color-scheme: light) {
        rect {fill: #F4F2ED}
    }
}
</style>
<g clip-path="url(#clip0_2_8)">
<rect width="256" height="256" fill="#242938" rx="60"/>
<g clip-path="url(#clip1_2_8)">
<mask id="mask0_2_8" style="mask-type:luminance" maskUnits="userSpaceOnUse" x="36" y="12" width="208" height="208">
<path d="M244 12H36V220H244V12Z" fill="white"/>
</mask>
<g mask="url(#mask0_2_8)">
<path d="M196.196 78.3778C196.196 68.1195 187.88 59.8036 177.622 59.8036H142.798V46.8241C142.798 36.5659 134.482 28.2501 124.224 28.2499C113.965 28.2499 105.649 36.5659 105.648 46.8241V59.8036H70.8242C60.5659 59.8037 52.25 68.1196 52.25 78.3778V97.1063C69.949 98.755 83.8035 113.646 83.8037 131.776C83.8037 149.906 69.9493 164.798 52.25 166.447V203.75H89.5527C91.2015 186.051 106.094 172.196 124.224 172.196C142.354 172.196 157.245 186.051 158.894 203.75H177.622C187.88 203.75 196.196 195.434 196.196 185.176V150.351H209.176C219.434 150.351 227.75 142.035 227.75 131.776C227.75 121.518 219.434 113.202 209.176 113.202H196.196V78.3778ZM212.446 97.1063C230.145 98.7549 244 113.646 244 131.776C244 149.906 230.146 164.798 212.446 166.447V185.176C212.446 204.409 196.855 220 177.622 220H142.798V207.02C142.798 196.762 134.482 188.446 124.224 188.446C113.965 188.446 105.649 196.762 105.648 207.02V220H36V150.351H48.9795C59.2377 150.351 67.5537 142.035 67.5537 131.776C67.5535 121.518 59.2378 113.202 48.9795 113.202H36V78.3778C36 59.1449 51.5914 43.5537 70.8242 43.5536H89.5527C91.2015 25.8544 106.094 11.9999 124.224 11.9999C142.354 12.0001 157.245 25.8546 158.894 43.5536H177.622C196.855 43.5536 212.446 59.1449 212.446 78.3778V97.1063Z" fill="#67D55E"/>
</g>
</g>
</g>
<defs>
<clipPath id="clip0_2_8">
<rect width="256" height="256" fill="white"/>
</clipPath>
<clipPath id="clip1_2_8">
<rect width="208" height="208" fill="white" transform="translate(36 12)"/>
</clipPath>
</defs>
</svg>

