<svg width="256" height="256" viewBox="0 0 256 256" fill="none" xmlns="http://www.w3.org/2000/svg">
<path d="M196 0H60C26.8629 0 0 26.8629 0 60V196C0 229.137 26.8629 256 60 256H196C229.137 256 256 229.137 256 196V60C256 26.8629 229.137 0 196 0Z" fill="#FCFCFC"/>
<path d="M183.113 42H212.237L148.292 114.989L223 214H164.373L118.472 153.832L65.9224 214H36.7987L104.543 135.934L33 42H93.0833L134.553 96.9638L183.113 42ZM172.92 196.863H189.065L84.5995 58.5018H67.2519L172.92 196.863Z" fill="#030303"/>
</svg>
