<svg width="256" height="256" viewBox="0 0 256 256" fill="none" xmlns="http://www.w3.org/2000/svg" id="yaml">
<style>
#yaml {
    path.rect {fill: #242938}

    @media (prefers-color-scheme: light) {
        path[fill="white"] {fill: #000}
        path.rect {fill: #F4F2ED}
    }
}
</style>
<path d="M196 0H60C26.8629 0 0 26.8629 0 60V196C0 229.137 26.8629 256 60 256H196C229.137 256 256 229.137 256 196V60C256 26.8629 229.137 0 196 0Z" fill="#242938" class="rect"/>
<g clip-path="url(#clip0_497_7)">
<path d="M120.015 29L81.4595 86.9191V123.635H57.828V86.9191L21 29H47.5601L70.9783 66.2931L94.5884 29H120.015Z" fill="white"/>
<path d="M159.698 102.812H116.924L108.225 123.857H89.2837L129.336 29.2212H148.71L187.137 123.857H166.897L159.697 102.812H159.698ZM152.593 83.9177L139.48 49.1892L124.851 83.9177H152.593Z" fill="#CB171E"/>
<path d="M57.8276 134.249V227H77.6912V163.021L98.4794 206.025H114.115L135.613 161.51V226.981H154.669V134.249H128.65L105.564 176.195L83.5772 134.249H57.8276Z" fill="white"/>
<path d="M236 206.844H187.137V134.227H166.898V226.579H236V206.844V206.844Z" fill="white"/>
</g>
<defs>
<clipPath id="clip0_497_7">
<rect width="215" height="198" fill="white" transform="translate(21 29)"/>
</clipPath>
</defs>
</svg>
