<svg width="256" height="256" viewBox="0 0 256 256" fill="none" xmlns="http://www.w3.org/2000/svg">
<path d="M196 0H60C26.8629 0 0 26.8629 0 60V196C0 229.137 26.8629 256 60 256H196C229.137 256 256 229.137 256 196V60C256 26.8629 229.137 0 196 0Z" fill="#242938"/>
<path d="M205.588 96.1969C205.468 95.6226 205.231 95.0789 204.893 94.5992C204.555 94.1195 204.123 93.7139 203.622 93.4072C203.122 93.1006 202.565 92.8993 201.984 92.8158C201.403 92.7324 200.811 92.7684 200.245 92.9218L183.999 97.2312C180.006 82.1879 173.127 68.0641 163.745 55.6455C161.332 52.4566 158.79 49.3969 156.075 46.4665C155.671 46.0221 155.179 45.6671 154.629 45.4241C154.08 45.1812 153.486 45.0557 152.886 45.0557C152.285 45.0557 151.692 45.1812 151.142 45.4241C150.593 45.6671 150.101 46.0221 149.697 46.4665L104.407 91.8444C104.269 91.9681 104.152 92.1137 104.062 92.2753C103.82 92.6868 103.719 93.1659 103.773 93.6402C103.827 94.1144 104.035 94.5581 104.364 94.9041C109.793 100.753 113.713 107.839 115.783 115.546C118.055 124.015 118.055 132.933 115.783 141.402C113.656 149.043 109.775 156.081 104.45 161.958C104.248 162.158 104.088 162.397 103.978 162.659C103.869 162.922 103.813 163.204 103.813 163.488C103.813 163.772 103.869 164.054 103.978 164.317C104.088 164.579 104.248 164.818 104.45 165.018L149.611 210.051C150.025 210.474 150.522 210.807 151.071 211.029C151.619 211.252 152.208 211.359 152.8 211.344C153.394 211.336 153.98 211.206 154.521 210.962C155.063 210.717 155.548 210.363 155.946 209.922C169.216 195.637 178.802 178.33 183.87 159.502L200.029 163.811C200.599 163.97 201.195 164.01 201.781 163.928C202.366 163.847 202.929 163.646 203.433 163.337C203.941 163.04 204.383 162.642 204.732 162.168C205.08 161.693 205.327 161.153 205.459 160.579C210.398 139.315 210.398 117.202 205.459 95.9383L205.588 96.1969Z" fill="#0C4F8F"/>
<path d="M205.588 96.1975C205.296 95.0505 204.57 94.0617 203.563 93.4395C203.053 93.1251 202.483 92.9206 201.889 92.839C201.295 92.7574 200.691 92.8004 200.115 92.9654L115.654 115.547C117.925 124.016 117.925 132.934 115.654 141.403L200.072 164.07C200.642 164.229 201.238 164.269 201.824 164.187C202.409 164.106 202.972 163.905 203.477 163.596C203.985 163.299 204.426 162.901 204.775 162.427C205.123 161.953 205.371 161.412 205.502 160.838C210.441 139.574 210.441 117.461 205.502 96.1975H205.588Z" fill="#0078D4"/>
<path d="M104.321 94.9041C104.004 94.5515 103.805 94.109 103.75 93.6379C103.696 93.1669 103.79 92.6907 104.019 92.2754L104.364 91.8445L149.697 46.2942C150.111 45.8712 150.608 45.5381 151.157 45.3157C151.706 45.0933 152.294 44.9863 152.886 45.0014C153.484 44.9974 154.077 45.1179 154.626 45.3553C155.175 45.5927 155.668 45.9418 156.075 46.3804C158.781 49.3003 161.327 52.3644 163.702 55.5594C173.1 67.9681 179.981 82.0952 183.956 97.145L115.783 115.331C113.689 107.636 109.755 100.567 104.321 94.7318V94.9041Z" fill="#28A8EA"/>
<path d="M115.783 141.101C113.761 148.785 109.935 155.877 104.622 161.786C104.42 161.986 104.26 162.224 104.151 162.487C104.041 162.749 103.985 163.031 103.985 163.315C103.985 163.6 104.041 163.882 104.151 164.144C104.26 164.407 104.42 164.645 104.622 164.845L149.869 210.094C150.273 210.538 150.766 210.893 151.315 211.136C151.864 211.379 152.458 211.505 153.058 211.505C153.659 211.505 154.253 211.379 154.802 211.136C155.351 210.893 155.843 210.538 156.247 210.094C169.52 195.817 179.092 178.506 184.128 159.674L115.783 141.101Z" fill="#06509B"/>
<g opacity="0.67">
<path opacity="0.05" d="M135.95 166.958V89.3885C135.956 88.6965 135.824 88.0102 135.562 87.3698C135.3 86.7293 134.913 86.1474 134.424 85.6581C133.934 85.1687 133.352 84.7817 132.712 84.5195C132.071 84.2573 131.385 84.1253 130.693 84.131H111.819L104.622 91.8017L104.278 92.2327C104.049 92.648 103.955 93.1241 104.009 93.5952C104.063 94.0662 104.262 94.5088 104.579 94.8614C110.008 100.71 113.928 107.796 115.999 115.503C118.27 123.972 118.27 132.891 115.999 141.36C115.415 143.534 114.681 145.665 113.801 147.738C111.592 152.943 108.517 157.736 104.708 161.916C104.506 162.116 104.346 162.354 104.237 162.617C104.127 162.879 104.071 163.161 104.071 163.445C104.071 163.73 104.127 164.011 104.237 164.274C104.346 164.537 104.506 164.775 104.708 164.975L112.077 172.344H130.478C131.854 172.271 133.163 171.724 134.183 170.798C135.204 169.872 135.874 168.622 136.08 167.259L135.95 166.958Z" fill="black"/>
<path opacity="0.1" d="M127.978 176.783V105.161C127.933 103.324 127.166 101.58 125.843 100.305C124.52 99.0306 122.748 98.3289 120.911 98.3521H107.251C111.274 103.447 114.207 109.314 115.869 115.59C118.141 124.059 118.141 132.977 115.869 141.446C115.286 143.62 114.552 145.752 113.672 147.824C111.47 152.958 108.41 157.68 104.622 161.786C104.42 161.987 104.26 162.225 104.151 162.487C104.041 162.75 103.985 163.032 103.985 163.316C103.985 163.601 104.041 163.882 104.151 164.145C104.26 164.407 104.42 164.646 104.622 164.846L123.109 183.333C124.523 182.92 125.764 182.057 126.643 180.875C127.522 179.693 127.991 178.256 127.978 176.783Z" fill="black"/>
<path opacity="0.2" d="M127.978 171.827V100.248C127.962 99.3364 127.765 98.4374 127.401 97.6021C127.037 96.7667 126.512 96.0113 125.855 95.3791C125.199 94.7468 124.425 94.25 123.576 93.917C122.728 93.5841 121.822 93.4216 120.911 93.4387H103.674C103.666 93.9732 103.85 94.4928 104.191 94.9039C109.621 100.753 113.54 107.839 115.611 115.546C117.882 124.015 117.882 132.933 115.611 141.402C115.027 143.577 114.293 145.708 113.413 147.78C111.294 152.911 108.322 157.647 104.622 161.786C104.42 161.986 104.26 162.224 104.151 162.487C104.041 162.749 103.985 163.031 103.985 163.315C103.985 163.6 104.041 163.882 104.151 164.144C104.26 164.407 104.42 164.645 104.622 164.845L118.455 178.678H120.997C121.914 178.701 122.825 178.541 123.679 178.208C124.533 177.874 125.311 177.374 125.969 176.736C126.627 176.098 127.151 175.335 127.511 174.492C127.871 173.649 128.059 172.743 128.065 171.827H127.978Z" fill="black"/>
<path opacity="0.1" d="M133.882 168.766V91.4128C133.871 90.0105 133.309 88.6688 132.317 87.6772C131.326 86.6856 129.984 86.1236 128.582 86.1123H110.095L104.321 91.9299C104.196 92.0554 104.094 92.2011 104.019 92.3609C103.771 92.7679 103.663 93.2443 103.709 93.7184C103.756 94.1926 103.955 94.6387 104.278 94.9896C109.737 100.8 113.662 107.88 115.697 115.589C117.887 123.606 118.02 132.045 116.085 140.128C114.149 148.21 110.207 155.673 104.622 161.828C104.212 162.24 103.981 162.798 103.981 163.38C103.981 163.961 104.212 164.519 104.622 164.931L113.844 174.196H128.625C129.321 174.213 130.014 174.093 130.663 173.843C131.313 173.592 131.907 173.216 132.411 172.736C132.915 172.255 133.32 171.68 133.602 171.044C133.884 170.407 134.038 169.721 134.054 169.025C134.023 168.924 133.963 168.835 133.882 168.766Z" fill="black"/>
<path opacity="0.1" d="M133.796 170.146V93.697C133.801 93.003 133.67 92.3147 133.408 91.6719C133.146 91.029 132.76 90.4443 132.271 89.9515C131.783 89.4588 131.201 89.0677 130.56 88.8008C129.92 88.5339 129.233 88.3965 128.538 88.3965H107.94L104.277 92.0594C104.149 92.2068 104.033 92.3655 103.933 92.5335C103.697 92.9469 103.6 93.4245 103.654 93.8971C103.708 94.3697 103.912 94.8128 104.234 95.1622C109.67 100.99 113.592 108.063 115.654 115.761C117.925 124.23 117.925 133.148 115.654 141.617C113.546 149.278 109.663 156.335 104.32 162.216C104.12 162.413 103.96 162.648 103.852 162.907C103.743 163.166 103.687 163.444 103.687 163.725C103.687 164.006 103.743 164.284 103.852 164.543C103.96 164.802 104.12 165.036 104.32 165.233L115.438 176.308H127.806C129.389 176.203 130.878 175.515 131.984 174.377C133.09 173.239 133.735 171.731 133.796 170.146Z" fill="black"/>
<path opacity="0.2" d="M127.978 174.196V102.531C127.944 100.687 127.182 98.9314 125.858 97.6476C124.534 96.3638 122.755 95.6562 120.911 95.6793H105.096C108.654 99.6669 111.563 104.19 113.715 109.081C114.547 111.148 115.252 113.263 115.826 115.416C118.098 123.885 118.098 132.803 115.826 141.273C115.249 143.449 114.515 145.581 113.629 147.65C111.436 152.877 108.361 157.688 104.536 161.871C104.335 162.068 104.176 162.303 104.067 162.562C103.958 162.821 103.902 163.099 103.902 163.38C103.902 163.661 103.958 163.939 104.067 164.198C104.176 164.457 104.335 164.691 104.536 164.888L120.739 181.048C121.668 181.089 122.595 180.942 123.467 180.617C124.338 180.292 125.135 179.795 125.81 179.156C126.485 178.517 127.025 177.748 127.398 176.896C127.77 176.044 127.968 175.126 127.978 174.196Z" fill="black"/>
<path opacity="0.3" d="M127.978 164.932V95.1196C127.962 94.2085 127.765 93.3096 127.401 92.4742C127.037 91.6389 126.511 90.8834 125.855 90.2511C125.199 89.6188 124.424 89.122 123.576 88.7891C122.728 88.4562 121.822 88.2937 120.911 88.3108H107.983L104.277 91.9738C104.139 92.113 104.022 92.2729 103.933 92.4478C103.697 92.8613 103.6 93.3388 103.654 93.8114C103.708 94.284 103.912 94.7271 104.234 95.0766C109.67 100.904 113.592 107.977 115.654 115.675C117.925 124.145 117.925 133.063 115.654 141.532C115.062 143.709 114.313 145.841 113.413 147.91C111.221 153.137 108.145 157.947 104.32 162.131C104.12 162.327 103.96 162.562 103.852 162.821C103.743 163.08 103.687 163.358 103.687 163.639C103.687 163.92 103.743 164.198 103.852 164.457C103.96 164.716 104.12 164.951 104.32 165.147L111.215 172.042H120.696C121.613 172.089 122.53 171.954 123.395 171.645C124.259 171.337 125.055 170.86 125.735 170.244C126.416 169.627 126.968 168.883 127.36 168.053C127.753 167.222 127.977 166.323 128.021 165.406L127.978 164.932Z" fill="black"/>
<path opacity="0.3" d="M127.978 164.501V95.1196C127.962 94.2085 127.765 93.3096 127.401 92.4742C127.037 91.6389 126.511 90.8834 125.855 90.2511C125.199 89.6188 124.424 89.122 123.576 88.7891C122.728 88.4562 121.822 88.2937 120.911 88.3108H107.983L104.277 91.9738C104.139 92.113 104.022 92.2729 103.933 92.4478C103.697 92.8613 103.6 93.3388 103.654 93.8114C103.708 94.284 103.912 94.7271 104.234 95.0766C109.67 100.904 113.592 107.977 115.654 115.675C117.925 124.145 117.925 133.063 115.654 141.532C115.062 143.709 114.313 145.841 113.413 147.91C111.221 153.137 108.145 157.947 104.32 162.131C104.12 162.327 103.96 162.562 103.852 162.821C103.743 163.08 103.687 163.358 103.687 163.639C103.687 163.92 103.743 164.198 103.852 164.457C103.96 164.716 104.12 164.951 104.32 165.147L110.828 171.654H120.696C121.618 171.695 122.54 171.553 123.408 171.237C124.275 170.921 125.072 170.437 125.753 169.812C126.433 169.188 126.984 168.435 127.373 167.598C127.762 166.76 127.983 165.854 128.021 164.932L127.978 164.501Z" fill="black"/>
<path opacity="0.3" d="M127.978 168.422V96.8864C127.945 95.0385 127.184 93.2783 125.861 91.9876C124.538 90.697 122.759 89.9797 120.911 89.9914H106.131L104.278 91.8444C104.14 91.9681 104.023 92.1137 103.933 92.2753C103.691 92.6868 103.589 93.1659 103.644 93.6402C103.698 94.1144 103.906 94.5581 104.234 94.9041C109.664 100.753 113.584 107.839 115.654 115.546C117.926 124.015 117.926 132.933 115.654 141.402C113.526 149.043 109.646 156.081 104.321 161.958C104.119 162.158 103.958 162.397 103.849 162.659C103.74 162.922 103.683 163.204 103.683 163.488C103.683 163.772 103.74 164.054 103.849 164.317C103.958 164.579 104.119 164.818 104.321 165.018L114.706 175.447H120.696C122.544 175.47 124.327 174.763 125.658 173.481C126.989 172.198 127.761 170.443 127.806 168.595L127.978 168.422Z" fill="black"/>
<path opacity="0.2" d="M127.979 170.016V98.437C127.962 97.5258 127.766 96.6269 127.401 95.7915C127.037 94.9562 126.512 94.2008 125.855 93.5685C125.199 92.9362 124.425 92.4394 123.576 92.1065C122.728 91.7736 121.822 91.611 120.911 91.6282H104.407L104.062 92.0591C103.833 92.4744 103.74 92.9506 103.794 93.4216C103.848 93.8926 104.047 94.3352 104.364 94.6878C109.793 100.537 113.713 107.622 115.783 115.33C118.055 123.799 118.055 132.717 115.783 141.186C115.2 143.361 114.465 145.492 113.586 147.564C111.436 152.784 108.404 157.594 104.622 161.785C104.42 161.985 104.26 162.224 104.151 162.486C104.041 162.749 103.985 163.03 103.985 163.315C103.985 163.599 104.041 163.881 104.151 164.143C104.26 164.406 104.42 164.644 104.622 164.845L116.645 176.868H120.954C121.871 176.891 122.782 176.731 123.636 176.397C124.49 176.064 125.268 175.563 125.926 174.925C126.584 174.287 127.109 173.525 127.468 172.682C127.828 171.839 128.016 170.933 128.022 170.016H127.979Z" fill="black"/>
<path opacity="0.1" d="M132.891 168.379V96.0243C132.891 94.6218 132.34 93.2756 131.356 92.2759C130.373 91.2762 129.036 90.7033 127.634 90.6807H105.441L104.277 91.8442C104.167 91.9805 104.066 92.1245 103.976 92.2751C103.727 92.6844 103.621 93.1652 103.676 93.6413C103.73 94.1174 103.942 94.5616 104.277 94.9038C109.707 100.753 113.627 107.838 115.697 115.546C117.87 123.576 117.97 132.026 115.988 140.106C114.006 148.185 110.006 155.63 104.364 161.742C103.953 162.154 103.723 162.712 103.723 163.294C103.723 163.875 103.953 164.433 104.364 164.845L112.982 173.679H127.289C128.681 173.673 130.014 173.115 130.995 172.128C131.964 171.152 132.52 169.84 132.546 168.465L132.891 168.379Z" fill="black"/>
<path opacity="0.2" d="M128.797 166.655V96.0243C128.797 94.6145 128.24 93.2618 127.248 92.2609C126.255 91.26 124.907 90.692 123.497 90.6807H105.527L104.364 91.8442L104.019 92.2751C103.79 92.6904 103.696 93.1666 103.75 93.6376C103.805 94.1087 104.004 94.5512 104.321 94.9038C109.75 100.753 113.67 107.838 115.74 115.546C117.929 123.559 118.058 131.996 116.114 140.072C114.17 148.148 110.217 155.603 104.622 161.742C104.222 162.16 103.999 162.716 103.999 163.294C103.999 163.872 104.222 164.428 104.622 164.845L111.69 171.913H123.626C125.025 171.924 126.371 171.383 127.372 170.406C128.373 169.429 128.947 168.097 128.97 166.698L128.797 166.655Z" fill="black"/>
<path opacity="0.3" d="M129.573 163.811V93.6972C129.573 90.5514 122.42 88.8277 121.601 87.9227C119.325 86.6916 116.776 86.0542 114.189 86.0696H109.88L104.148 91.8011L103.804 92.2321C103.575 92.6473 103.481 93.1235 103.535 93.5945C103.589 94.0656 103.788 94.5081 104.105 94.8608C109.533 100.694 113.453 107.766 115.525 115.46C117.796 123.929 117.796 132.847 115.525 141.316C113.476 148.992 109.603 156.059 104.235 161.915C104.034 162.111 103.874 162.346 103.766 162.605C103.657 162.864 103.601 163.142 103.601 163.423C103.601 163.704 103.657 163.982 103.766 164.241C103.874 164.5 104.034 164.735 104.235 164.931L108.544 169.241H124.143C124.863 169.265 125.58 169.141 126.249 168.876C126.919 168.612 127.527 168.213 128.036 167.704C128.545 167.195 128.944 166.587 129.209 165.917C129.473 165.247 129.597 164.531 129.573 163.811Z" fill="black"/>
<path opacity="0.1" d="M131.124 172.171V99.8162C131.124 99.1222 130.987 98.435 130.72 97.7943C130.453 97.1536 130.062 96.5721 129.569 96.0833C129.076 95.5946 128.492 95.2082 127.849 94.9465C127.206 94.6849 126.518 94.5531 125.824 94.5588H104.278V94.9035C109.707 100.752 113.627 107.838 115.697 115.546C117.969 124.015 117.969 132.933 115.697 141.402C113.57 149.042 109.689 156.081 104.364 161.958C104.162 162.158 104.002 162.396 103.892 162.659C103.783 162.921 103.726 163.203 103.726 163.487C103.726 163.772 103.783 164.054 103.892 164.316C104.002 164.579 104.162 164.817 104.364 165.017L117.033 177.687H125.651C126.341 177.689 127.025 177.552 127.661 177.286C128.298 177.019 128.874 176.628 129.357 176.136C129.903 175.627 130.34 175.014 130.644 174.333C130.947 173.652 131.111 172.916 131.124 172.171Z" fill="black"/>
<path opacity="0.1" d="M127.978 155.58V88.828C127.984 88.1283 127.851 87.4344 127.587 86.7863C127.323 86.1382 126.934 85.5488 126.441 85.0521C125.948 84.5553 125.362 84.161 124.716 83.8919C124.07 83.6229 123.378 83.4844 122.678 83.4844H112.853L104.622 91.8446C104.484 91.9683 104.368 92.1138 104.278 92.2755C104.035 92.687 103.934 93.1661 103.988 93.6403C104.043 94.1146 104.25 94.5583 104.579 94.9042C110.008 100.753 113.928 107.839 115.999 115.546C118.27 124.015 118.27 132.933 115.999 141.403C113.834 148.986 109.94 155.963 104.622 161.786C104.24 162.196 104.024 162.734 104.019 163.294L116.947 160.924C119.963 161.053 127.978 158.338 127.978 155.58Z" fill="black"/>
<path opacity="0.15" d="M127.979 156.915V90.1199C127.979 89.4238 127.841 88.7345 127.575 88.0914C127.309 87.4483 126.918 86.864 126.426 86.3718C125.934 85.8796 125.35 85.4892 124.706 85.2228C124.063 84.9564 123.374 84.8193 122.678 84.8193H111.56L104.622 91.8437C104.512 91.98 104.411 92.124 104.321 92.2746C104.071 92.6839 103.966 93.1646 104.021 93.6407C104.075 94.1168 104.287 94.5611 104.622 94.9033C110.052 100.752 113.972 107.838 116.042 115.545C118.313 124.014 118.313 132.933 116.042 141.402C113.865 148.989 109.955 155.966 104.622 161.785C104.24 162.195 104.024 162.733 104.019 163.293C104.014 163.814 104.198 164.319 104.536 164.715L117.205 162.388C119.963 162.388 127.979 159.846 127.979 156.915Z" fill="black"/>
</g>
<path d="M50.0671 85.8984H120.911C122.782 85.9097 124.573 86.658 125.896 87.9809C127.219 89.3039 127.967 91.0949 127.978 92.9658V163.812C127.967 165.683 127.219 167.474 125.896 168.797C124.573 170.12 122.782 170.868 120.911 170.88H50.0671C48.1963 170.868 46.4053 170.12 45.0824 168.797C43.7595 167.474 43.0113 165.683 43 163.812V92.9658C43.0113 91.0949 43.7595 89.3039 45.0824 87.9809C46.4053 86.658 48.1963 85.9097 50.0671 85.8984Z" fill="#0078D4"/>
<path d="M85.0152 125.027C85.5291 126.024 85.9198 127.081 86.1786 128.172C86.4351 127.113 86.811 126.087 87.2991 125.113L97.8566 105.16C98.2662 104.433 98.8604 103.827 99.5793 103.404C100.298 102.98 101.116 102.753 101.95 102.747C102.768 102.735 103.574 102.94 104.286 103.341C104.998 103.743 105.591 104.327 106.003 105.033C106.415 105.739 106.632 106.542 106.632 107.359C106.632 108.177 106.414 108.979 106.001 109.685L91.3928 135.111C91.0021 135.824 90.7948 136.624 90.7895 137.438V150.366C90.7783 151.597 90.2843 152.774 89.414 153.644C88.5436 154.515 87.3663 155.009 86.1355 155.02H85.1874C83.9531 155.02 82.7694 154.53 81.8966 153.657C81.0238 152.784 80.5335 151.6 80.5335 150.366V137.653C80.5491 136.85 80.34 136.059 79.9301 135.369L65.6235 109.513C65.3175 108.988 65.1193 108.408 65.0404 107.805C64.9615 107.203 65.0035 106.591 65.164 106.005C65.3245 105.419 65.6003 104.871 65.9752 104.393C66.35 103.915 66.8165 103.517 67.3472 103.221C68.0588 102.825 68.8598 102.618 69.6742 102.618H70.5791C71.4604 102.583 72.3334 102.8 73.0963 103.242C73.8593 103.685 74.4807 104.335 74.8884 105.117L85.0152 125.027Z" fill="#F9F7F7"/>
</svg>
