<svg width="256" height="256" viewBox="0 0 256 256" fill="none" xmlns="http://www.w3.org/2000/svg" id="yii">
<style>
#yii {
    rect {fill: #242938}

    @media (prefers-color-scheme: light) {
        rect {fill: #F4F2ED}
    }
}
</style>
<rect width="256" height="256" rx="60" fill="#242938"/>
<path d="M167.565 155.362C166.213 137.515 160.456 125.947 157.653 119.39C154.852 112.835 150.544 106.698 150.541 106.708C150.533 106.736 146.662 127.592 139.704 142.682C138.542 145.202 137 148.348 135.443 150.882C130.639 159.364 123.668 167.479 119.514 175.703C115.395 183.855 114.63 191.928 115.013 201.105C115.399 210.334 117.532 219.386 119.579 228.358C127.295 226.694 134.011 223.845 139.821 220.203C155.111 210.617 164.35 195.286 166.975 178.768C166.975 178.768 167.103 178.097 167.16 177.279C168.344 164.513 167.953 160.486 167.565 155.362Z" fill="#40B3D8"/>
<path d="M167.565 155.362C166.213 137.515 160.457 125.947 157.653 119.39C154.852 112.835 150.544 106.698 150.541 106.708L150.54 106.713C150.54 106.71 150.541 106.708 150.541 106.708L149.513 105.178C126.965 73.5265 83.7227 57.7233 47.1872 72.3706C45.4279 94.5567 55.7135 132.729 93.2383 143.377C108.409 148.044 120.556 146.833 135.444 150.881C135.443 150.881 135.443 150.882 135.443 150.882C135.443 150.882 150.576 156.157 159.38 164.066C163.34 167.622 167.306 172.303 167.107 177.871C168.361 164.621 167.959 160.567 167.565 155.362Z" fill="#83C933"/>
<path fill-rule="evenodd" clip-rule="evenodd" d="M151.179 88.1339C145.847 72.5352 148.106 62.083 157.86 47.5375C162.513 40.5974 170.545 32.5477 177.585 28C205.988 45.7985 216.49 78.9505 206.045 109.74C198.443 132.142 191.31 141.536 173.276 164.586C175.378 139.9 166.689 122.785 158.159 103.769C155.988 98.9304 152.986 93.4229 151.179 88.1339Z" fill="#F18A2A"/>
<path d="M167.107 177.871C167.306 172.303 163.341 167.622 159.381 164.066C150.577 156.156 135.444 150.882 135.444 150.882C137.001 148.348 138.544 145.202 139.705 142.682C146.664 127.592 150.534 106.736 150.542 106.708C150.545 106.699 154.852 112.835 157.655 119.39C160.458 125.947 166.213 137.514 167.566 155.362C167.96 160.567 168.361 164.621 167.107 177.871Z" fill="#7FB93C"/>
</svg>
