<svg width="256px" height="256px" viewBox="0 0 256 256" version="1.1" xmlns="http://www.w3.org/2000/svg" xmlns:xlink="http://www.w3.org/1999/xlink">
    <g id="Page-1" stroke="none" stroke-width="1" fill="none" fill-rule="evenodd">
        <g id="youtube" fill-rule="nonzero">
            <path d="M196,0 L60,0 C26.8629,0 0,26.8629 0,60 L0,196 C0,229.137 26.8629,256 60,256 L196,256 C229.137,256 256,229.137 256,196 L256,60 C256,26.8629 229.137,0 196,0 Z" id="Path" fill="#FF0000"></path>
            <g id="Group" transform="translate(129, 127) scale(-1, 1) rotate(-180) translate(-129, -127)translate(27, 53)" fill="#FFFFFF">
                <path d="M83.8366193,147.614668 C53.9840643,147.192808 27.6919058,145.224129 20.5026437,142.83359 C13.6557274,140.513362 7.08268775,133.904226 4.75473622,127.084159 C-0.585858483,111.194109 -1.68136509,56.071101 2.7691305,29.4939365 C4.34392124,20.2130219 6.12411947,16.2053542 10.8484917,11.2836571 C15.9152098,6.08072015 20.1602978,4.25266121 30.4306723,2.91677199 C48.4380621,0.526233389 96.2295377,-0.669035913 130.943403,0.385613471 C176.612335,1.79181265 184.965573,3.12770187 192.839526,10.2993177 C201.740518,18.314653 204,31.2516855 204,74.2813803 C204,111.123799 202.425209,124.131141 196.742269,132.849576 C191.127797,141.568011 184.075474,144.310099 162.370749,145.997538 C153.606696,146.700638 101.296256,148.247457 97.5304518,147.966217 C96.5718835,147.825597 90.4096589,147.684977 83.8366193,147.614668 Z M108.510997,89.8109861 C122.873449,81.4160821 134.717366,74.2104561 134.785714,73.8606685 C134.921572,73.3709657 85.2996418,43.9188441 82.5769021,42.9394387 C82.2365597,42.7995236 81.9642857,55.2519646 81.9642857,73.8606685 C81.9642857,91.0002642 82.1004227,105.061728 82.2365597,105.061728 C82.3046282,105.061728 94.2166141,98.2058901 108.510997,89.8109861 Z" id="Shape"></path>
            </g>
        </g>
    </g>
</svg>
