<svg width="256" height="256" viewBox="0 0 256 256" fill="none" xmlns="http://www.w3.org/2000/svg">
<path d="M196 0H60C26.8629 0 0 26.8629 0 60V196C0 229.137 26.8629 256 60 256H196C229.137 256 256 229.137 256 196V60C256 26.8629 229.137 0 196 0Z" fill="#242938"/>
<path d="M112.29 75.3142C151.086 77.9724 189.094 92.9985 223.167 110.844C229.227 114.016 239.947 119.438 244.768 123.924C245.133 124.265 245.741 124.662 245.648 125.238C235.591 132.686 225.119 139.626 214.288 145.934C191.38 159.281 165.703 171.035 139.443 175.85C121.61 179.121 97.5617 181.755 79.7659 178.539C78.4089 178.291 71.8593 176.909 71.3822 175.93C71.2273 175.614 71.6363 170.415 71.754 169.579C74.877 147.737 85.1071 121.966 95.2691 102.603C100.257 93.0915 105.437 83.6359 112.297 75.3142H112.29ZM129.386 142.47C129.9 148.747 130.7 155.482 124.584 159.274C122.266 160.712 121.232 160.446 118.784 160.805C115.252 161.319 114.955 166.152 118.047 166.629C127.199 168.036 135 158.704 135.502 150.172C136.239 137.649 134.919 124.414 135.502 111.811C135.595 107.901 131.195 106.798 129.683 110.404C129.169 116.867 130.198 123.993 129.628 130.375C128.419 143.957 108.951 143.66 107.897 129.644C107.426 123.336 108.294 116.526 107.835 110.169C107.048 107.126 102.593 108.087 102.271 110.838C103.33 121.582 98.2309 138.585 110.692 144.186C115.271 146.244 121.957 146.392 126.455 144.062C127.019 143.771 128.971 142.191 129.38 142.47H129.386ZM143.241 108.334C141.996 108.551 141.165 109.704 140.88 110.856C141.878 121.712 136.921 137.903 148.911 144.062C152.957 146.138 159.779 146.138 163.986 144.465C178.176 138.814 172.798 122.71 173.845 110.832C173.609 107.368 169.421 107.616 168.268 110.404C167.834 116.78 168.665 123.571 168.225 129.898C167.549 139.601 156.569 144.149 149.642 136.98C144.301 131.447 147.702 118.249 146.699 110.863C146.445 109.01 145.094 108.012 143.235 108.334H143.241ZM181.826 108.334C180.623 108.582 179.564 109.853 179.446 111.079L179.564 144.67C180.32 147.582 184.942 146.677 185.314 143.567C184.614 133.163 186.225 121.582 185.314 111.315C185.128 109.221 184.075 107.864 181.819 108.328L181.826 108.334Z" fill="#C7CAD2"/>
<path d="M112.291 75.3142C105.438 83.6359 100.251 93.0853 95.2634 102.603C85.1076 121.973 74.8712 147.737 71.7483 169.579C59.6716 167.578 47.8676 164.585 37.0674 158.717C36.7019 158.382 36.8134 157.955 36.8506 157.527C36.9497 156.275 38.79 151.027 38.4988 150.569C31.751 147.755 25.4122 144.013 19.7115 139.44C19.569 139.298 19.4947 139.124 19.4761 138.926C19.3831 138.033 22.7787 133.262 23.5161 132.209L23.6152 131.651C21.3845 130.133 9.64869 118.366 10.0081 116.495C10.0515 116.266 12.7283 113.446 13.1372 113.037C39.4406 86.2198 74.5676 72.7242 112.291 75.3142Z" fill="#3F529A"/>
<path d="M129.386 142.47C128.977 142.191 127.032 143.765 126.462 144.062C121.963 146.392 115.277 146.243 110.698 144.186C98.2311 138.585 103.337 121.588 102.277 110.838C102.606 108.08 107.055 107.126 107.842 110.168C108.294 116.526 107.426 123.342 107.904 129.644C108.957 143.66 128.42 143.957 129.634 130.375C130.204 123.992 129.176 116.867 129.69 110.404C131.202 106.798 135.601 107.901 135.508 111.81C134.932 124.408 136.246 137.649 135.508 150.172C135.006 158.704 127.205 168.036 118.053 166.629C114.961 166.152 115.259 161.319 118.79 160.805C121.238 160.445 122.267 160.712 124.59 159.274C130.706 155.482 129.913 148.747 129.392 142.47H129.386Z" fill="#3F529A"/>
<path d="M143.242 108.334C145.101 108.012 146.452 109.01 146.706 110.862C147.709 118.248 144.308 131.453 149.649 136.98C156.57 144.149 167.556 139.601 168.232 129.898C168.672 123.571 167.841 116.78 168.275 110.404C169.427 107.609 173.616 107.368 173.852 110.831C172.804 122.71 178.183 138.814 163.993 144.465C159.792 146.138 152.964 146.144 148.918 144.062C136.928 137.903 141.885 121.712 140.887 110.856C141.178 109.697 142.003 108.551 143.248 108.334H143.242Z" fill="#3F529A"/>
<path d="M181.825 108.334C184.081 107.869 185.134 109.226 185.32 111.321C186.225 121.582 184.614 133.169 185.32 143.573C184.948 146.683 180.326 147.588 179.57 144.676L179.452 111.085C179.57 109.859 180.629 108.588 181.832 108.34L181.825 108.334Z" fill="#3F529A"/>
</svg>
