<svg width="256" height="256" viewBox="0 0 256 256" fill="none" xmlns="http://www.w3.org/2000/svg" id="zellij">
<style>
#zellij {
    rect {fill: #242938}

    @media (prefers-color-scheme: light) {
        rect {fill: #F4F2ED}
    }
}
</style>
<rect width="256" height="256" rx="60" fill="#242938"/>
<path fill-rule="evenodd" clip-rule="evenodd" d="M181.742 69.2041C180.479 69.8566 177.968 71.1459 176.162 72.0691C171.125 74.645 171.39 74.4995 171.233 74.774C171.154 74.9103 170.778 75.5324 170.397 76.1561C170.016 76.7799 169.718 77.2992 169.733 77.3101C169.749 77.321 174.193 79.9825 179.609 83.2244C185.025 86.4665 189.469 89.1297 189.485 89.1427C189.5 89.1557 189.615 89.5472 189.739 90.0129C189.863 90.4787 190.08 91.2844 190.222 91.8034C190.922 94.3682 191.079 94.9487 191.304 95.7834C191.437 96.2799 191.632 97.0036 191.736 97.3915L191.926 98.0971L193.843 97.5739L195.761 97.0507L200.651 94.2914C203.34 92.7736 205.678 91.4545 205.846 91.36C206.014 91.2654 206.185 91.0957 206.226 90.9828C206.266 90.87 206.436 90.3899 206.604 89.916C206.771 89.4421 207.014 88.759 207.145 88.3979C207.275 88.0368 207.513 87.3721 207.674 86.9208C207.835 86.4695 208.062 85.8483 208.179 85.5405L208.39 84.9807L208.173 84.1864C208.053 83.7496 207.824 82.9121 207.664 82.3254C207.173 80.5244 206.979 79.8745 206.915 79.8129C206.859 79.7599 205.184 78.7628 198.688 74.9176C197.582 74.263 196.419 73.5709 196.103 73.3794C195.787 73.188 194.698 72.5424 193.682 71.9447C192.667 71.3469 191.577 70.7001 191.261 70.5073C190.805 70.2285 190.04 69.9468 187.528 69.1323C185.79 68.5688 184.294 68.0875 184.204 68.0627C184.094 68.0323 183.289 68.4053 181.742 69.2041ZM203.201 99.5058C201.554 100.265 199.37 101.271 198.348 101.741C196.738 102.481 196.425 102.655 196.008 103.046C195.743 103.294 194.781 104.192 193.87 105.042L192.212 106.586L191.96 107.257C191.821 107.626 191.637 108.095 191.55 108.298C191.464 108.501 191.26 109.018 191.097 109.447C190.934 109.875 190.704 110.464 190.584 110.755C190.465 111.047 190.372 111.36 190.379 111.453C190.399 111.758 190.813 117.009 190.933 118.472L191.05 119.907L191.976 120.793C192.486 121.28 192.98 121.733 193.075 121.8C193.234 121.913 193.764 121.782 199.722 120.156C203.283 119.184 206.252 118.358 206.319 118.32C206.448 118.248 207.208 116.662 208.114 114.575L208.363 114.001L208.449 108.954C208.496 106.178 208.558 103.077 208.586 102.061L208.638 100.215L207.521 99.1684C206.906 98.5929 206.357 98.1228 206.3 98.1235C206.243 98.1243 204.849 98.7464 203.201 99.5058ZM199.409 125.888L194.426 127.049L193.918 127.951C193.639 128.448 193.29 129.057 193.144 129.305C192.997 129.554 192.572 130.292 192.2 130.947C191.828 131.601 191.433 132.294 191.323 132.487C191.151 132.787 191.13 132.905 191.172 133.307C191.198 133.566 191.259 134.609 191.305 135.624C191.352 136.64 191.48 138.911 191.59 140.671C191.7 142.431 191.83 144.731 191.88 145.782C191.93 146.833 191.995 147.991 192.026 148.356L192.082 149.02L199.171 157.202L206.259 165.383L207.24 165.117C207.78 164.97 208.244 164.828 208.271 164.801C208.298 164.774 208.275 156.324 208.219 146.023C208.124 128.572 208.108 127.286 207.978 127.161C207.743 126.936 204.538 124.709 204.462 124.719C204.423 124.724 202.149 125.25 199.409 125.888Z" fill="#EACB8B"/>
<path fill-rule="evenodd" clip-rule="evenodd" d="M67.5184 68.4121L50.6272 78.1582L48.4593 81.5548L46.2914 84.9513L46.3364 86.8798C46.3611 87.9404 46.4006 90.8023 46.424 93.2395C46.4475 95.6767 46.5259 102.342 46.5983 108.052C46.7045 116.424 46.722 123.057 46.6891 142.334L46.6484 166.237L47.8329 167.855C48.4844 168.746 49.0649 169.522 49.1229 169.581C49.2093 169.669 49.5105 169.48 50.7878 168.539L52.3471 167.39L56.4837 165.375L60.6202 163.36L62.2907 160.02L63.9611 156.68L63.8683 148.716C63.8173 144.336 63.7411 138.113 63.6989 134.885C63.6568 131.658 63.614 121.042 63.6036 111.293L63.585 93.5678L64.2693 92.4189C64.6457 91.787 65.3265 90.6433 65.7822 89.8773L66.6107 88.4846L77.0324 82.6031L87.4542 76.7216L88.4389 75.6629C88.9805 75.0807 90.0375 73.9382 90.7877 73.124L92.1517 71.6435L91.924 70.7888C91.5902 69.5358 91.163 67.9619 89.8877 63.2872L88.746 59.1021L86.9923 58.9244C86.0277 58.8267 85.0521 58.7286 84.8241 58.7064L84.4097 58.666L67.5184 68.4121ZM182.23 101.24C182.23 102.662 182.241 103.244 182.255 102.533C182.269 101.822 182.269 100.659 182.255 99.948C182.241 99.2371 182.23 99.8188 182.23 101.24ZM208.649 101.158C208.649 101.723 208.662 101.953 208.678 101.671C208.694 101.389 208.694 100.928 208.678 100.646C208.662 100.363 208.649 100.594 208.649 101.158ZM71.4509 110.349C71.4509 115.382 71.4607 117.44 71.4728 114.924C71.4849 112.408 71.4849 108.29 71.4728 105.774C71.4607 103.258 71.4509 105.317 71.4509 110.349ZM208.567 104.892C208.567 105.479 208.58 105.708 208.596 105.402C208.612 105.095 208.612 104.615 208.596 104.335C208.58 104.055 208.567 104.305 208.567 104.892ZM208.161 129.593C208.161 130.901 208.173 131.425 208.186 130.757C208.2 130.088 208.2 129.018 208.186 128.377C208.173 127.737 208.161 128.284 208.161 129.593ZM208.245 143.707C208.245 145.738 208.255 146.557 208.269 145.527C208.282 144.497 208.282 142.836 208.269 141.835C208.255 140.833 208.245 141.676 208.245 143.707ZM126.346 149.862C126.346 151.216 126.358 151.781 126.371 151.118C126.385 150.455 126.385 149.347 126.371 148.656C126.358 147.965 126.347 148.508 126.346 149.862ZM208.326 159.258C208.326 160.905 208.337 161.579 208.351 160.755C208.364 159.932 208.364 158.584 208.351 157.76C208.337 156.936 208.326 157.61 208.326 159.258Z" fill="#BE616B"/>
<path fill-rule="evenodd" clip-rule="evenodd" d="M116.34 26.245C110.472 29.6734 105.173 32.7665 104.564 33.1186C103.955 33.4708 102.108 34.5452 100.461 35.5061C98.8135 36.467 97.1148 37.4578 96.6861 37.708C96.2573 37.958 95.6111 38.3375 95.25 38.5511C94.8889 38.7648 93.4672 39.5949 92.0906 40.3957C90.7141 41.1965 89.2924 42.024 88.9313 42.2345C88.5702 42.445 86.89 43.4234 85.1975 44.4087C83.505 45.394 81.6032 46.5047 80.9714 46.8769C80.3395 47.2491 74.3572 50.7385 67.6775 54.6311C60.9977 58.5236 54.4431 62.3452 53.1116 63.1235C48.5084 65.8145 43.577 68.689 36.9163 72.5641L34.3842 74.0372L34.4342 93.1164C34.5699 144.873 34.7194 181.518 34.7952 181.594C34.8647 181.664 36.0924 182.373 42.6899 186.154C45.3302 187.668 49.2999 189.947 51.5114 191.22C53.723 192.492 56.6033 194.145 57.9122 194.892C59.2211 195.639 60.8828 196.591 61.605 197.008C62.8376 197.719 71.7153 202.815 79.084 207.042C80.8893 208.078 83.6219 209.646 85.1565 210.527C89.7551 213.167 97.0837 217.371 102.143 220.272C104.761 221.773 108.232 223.766 109.857 224.701C111.482 225.636 114.473 227.353 116.504 228.516C118.535 229.68 121.908 231.615 124 232.816C126.092 234.017 127.835 235 127.873 235C127.943 235 130.074 233.787 131.111 233.158C131.427 232.966 132.756 232.189 134.065 231.43C135.374 230.672 136.98 229.736 137.635 229.351C138.289 228.966 140.357 227.759 142.23 226.669C145.407 224.82 147.506 223.596 151.134 221.479C151.946 221.004 153.497 220.1 154.58 219.468C155.663 218.837 157.214 217.932 158.027 217.458C158.839 216.983 159.799 216.423 160.16 216.212C160.521 216.002 161.758 215.282 162.909 214.614C164.06 213.945 165.962 212.835 167.135 212.148C168.309 211.46 172.279 209.143 175.957 207C182.466 203.206 183.905 202.367 191.097 198.17C192.993 197.064 194.712 196.063 194.917 195.946C195.123 195.829 200.989 192.41 207.954 188.348L220.616 180.963L220.566 161.802C220.404 99.9683 220.284 73.4804 220.165 73.3725C220.11 73.3227 219.548 72.9876 218.916 72.6277C217.733 71.954 211.305 68.2685 206.525 65.5228C200.123 61.8459 191.199 56.7261 187.281 54.4835C184.957 53.1527 182.114 51.5199 180.963 50.8551C179.812 50.1903 176.95 48.5469 174.603 47.2032C172.256 45.8594 169.745 44.4192 169.023 44.0029C168.301 43.5865 166.177 42.3676 164.304 41.2943C162.431 40.2209 158.702 38.0796 156.016 36.5358C153.331 34.992 150.321 33.2663 149.328 32.7008C148.335 32.1354 146.452 31.0549 145.143 30.2998C143.834 29.5446 140.972 27.9007 138.783 26.6466C136.594 25.3926 133.091 23.384 130.999 22.1832C128.906 20.9824 127.152 20.0026 127.101 20.0059C127.05 20.0091 122.207 22.8168 116.34 26.245ZM131.316 36.7776L129.798 37.202L129.739 39.6587C129.706 41.0099 129.647 44.3487 129.608 47.078L129.536 52.0407L130.518 53.5608C131.057 54.3971 131.799 55.5516 132.166 56.1267L132.834 57.1724L143.438 63.5372L154.042 69.9021L155.829 70.4352C156.812 70.7285 158.785 71.3157 160.214 71.7402L162.811 72.512L163.561 72.3065C164.167 72.1404 165.577 71.464 170.934 68.7684C174.577 66.9354 177.571 65.4243 177.589 65.4105C177.621 65.3842 176.568 61.4496 176.513 61.3952C176.496 61.3781 173.124 59.4383 169.019 57.0845C151.881 47.2571 147.256 44.6054 140.548 40.7615C136.666 38.5374 133.343 36.6357 133.162 36.5355L132.834 36.3533L131.316 36.7776ZM117.078 39.5809C111.473 42.8654 108.173 44.7971 101.897 48.4693C99.4146 49.9217 97.3224 51.1726 97.2476 51.2492C97.1728 51.3257 96.4999 52.263 95.7523 53.3319L94.393 55.2754L94.6828 56.3271C94.8422 56.9056 95.0219 57.5635 95.0822 57.7891C95.2278 58.3339 96.628 63.4657 96.9295 64.5592C97.0601 65.0331 97.2651 65.7901 97.3851 66.2414L97.6031 67.062L98.6728 67.6675L99.7426 68.2729L101.38 67.8316L103.017 67.3903L112.009 62.1384L121.002 56.8865L121.528 55.8607C121.817 55.2965 122.677 53.5974 123.438 52.085L124.823 49.335L124.705 48.3922C124.591 47.4851 124.424 46.0716 123.811 40.8435C123.655 39.5121 123.502 38.2107 123.471 37.9516L123.416 37.4804L122.774 37.1105C122.421 36.907 122.085 36.7413 122.026 36.7423C121.968 36.7433 119.741 38.0207 117.078 39.5809ZM67.5184 68.4121L50.6272 78.1582L48.4593 81.5548L46.2914 84.9513L46.3364 86.8798C46.3611 87.9404 46.4006 90.8023 46.424 93.2395C46.4475 95.6767 46.5259 102.342 46.5983 108.052C46.7045 116.424 46.722 123.057 46.6891 142.334L46.6484 166.237L47.8329 167.855C48.4844 168.746 49.0649 169.522 49.1229 169.581C49.2093 169.669 49.5105 169.48 50.7878 168.539L52.3471 167.39L56.4837 165.375L60.6202 163.36L62.2907 160.02L63.9611 156.68L63.8683 148.716C63.8173 144.336 63.7411 138.113 63.6989 134.885C63.6568 131.658 63.614 121.042 63.6036 111.293L63.585 93.5678L64.2693 92.4189C64.6457 91.787 65.3265 90.6433 65.7822 89.8773L66.6107 88.4846L77.0324 82.6031L87.4542 76.7216L88.4389 75.6629C88.9805 75.0807 90.0375 73.9382 90.7877 73.124L92.1517 71.6435L91.924 70.7888C91.5902 69.5358 91.163 67.9619 89.8877 63.2872L88.746 59.1021L86.9923 58.9244C86.0277 58.8267 85.0521 58.7286 84.8241 58.7064L84.4097 58.666L67.5184 68.4121ZM99.1597 79.235L74.348 93.578L74.0023 94.1883C73.511 95.0558 72.0963 97.4977 71.7471 98.0811L71.4523 98.5735L71.4288 127.24L71.4054 155.906L72.2322 157.356C72.687 158.154 73.3475 159.303 73.7 159.911L74.3409 161.015L99.1071 175.359L123.873 189.702H126.817H129.761L139.011 184.356C152.459 176.585 156.797 174.077 160.571 171.895C162.421 170.824 166.575 168.424 169.802 166.559C173.03 164.695 176.482 162.7 177.475 162.125L179.281 161.081L179.616 160.518C179.801 160.208 180.454 159.087 181.067 158.027L182.182 156.098L182.201 127.36L182.221 98.622L181.001 96.5051C180.33 95.3409 179.688 94.2169 179.574 94.0073C179.368 93.6271 179.315 93.5957 154.556 79.2568L129.744 64.8874L126.858 64.8897L123.971 64.892L99.1597 79.235ZM182.686 68.6686C181.986 69.0312 179.164 70.4797 176.414 71.8875C172.102 74.0945 171.386 74.4866 171.217 74.7345C170.882 75.2233 169.629 77.2964 169.655 77.317C169.668 77.3277 174.129 80.0005 179.568 83.2565L189.456 89.1765L190.27 92.1927C191.072 95.1649 191.528 96.8459 191.762 97.6913C191.828 97.9283 191.908 98.1221 191.941 98.1221C191.974 98.1221 192.852 97.8897 193.892 97.6056L195.784 97.089L200.129 94.636C202.518 93.2869 204.864 91.9624 205.342 91.6927L206.211 91.2023L206.753 89.677C207.051 88.8381 207.553 87.4307 207.868 86.5494L208.44 84.947L207.749 82.4092C207.369 81.0133 207.03 79.8445 206.996 79.8119C206.963 79.7792 203.279 77.5827 198.811 74.9308L190.687 70.1091L187.446 69.0578C185.663 68.4796 184.149 68.0073 184.081 68.008C184.013 68.0088 183.386 68.3061 182.686 68.6686ZM206.139 98.0838C206.115 98.1079 203.916 99.1326 201.253 100.361L196.411 102.594L194.288 104.579L192.164 106.564L191.722 107.697C190.923 109.745 190.804 110.055 190.559 110.705L190.317 111.348L190.563 114.521C190.698 116.266 190.852 118.201 190.904 118.82L191 119.946L192.103 120.967L193.206 121.988L193.588 121.877C193.798 121.816 196.757 121.004 200.165 120.074C203.573 119.143 206.403 118.337 206.455 118.284C206.54 118.196 208.093 114.846 208.294 114.316C208.34 114.197 208.427 111.933 208.493 109.21C208.557 106.519 208.633 103.394 208.662 102.265L208.715 100.212L208.235 99.7657C207.972 99.5202 207.449 99.0315 207.074 98.6797C206.445 98.0894 206.255 97.9681 206.139 98.0838ZM97.7281 100.206C97.5565 100.269 97.2709 100.422 97.0934 100.545C96.9159 100.668 95.4315 102.128 93.7947 103.79C90.5034 107.131 90.4517 107.198 90.4513 108.134C90.4507 109.204 90.023 108.723 98.7728 117.489C107.489 126.221 106.986 125.655 106.983 126.72C106.98 127.79 107.487 127.219 98.7399 135.993C89.8803 144.88 90.4012 144.288 90.4634 145.389C90.4845 145.765 90.5574 146.055 90.6975 146.321C90.8376 146.587 92.0614 147.868 94.6326 150.439C96.685 152.491 98.4132 154.17 98.4729 154.17C98.8137 154.17 99.6799 153.463 100.051 152.882C100.172 152.692 105.748 147.042 112.441 140.326C125.747 126.976 125.009 127.771 125.019 126.775C125.021 126.518 124.958 126.105 124.878 125.858C124.737 125.423 124.301 124.975 112.289 112.953C103.051 103.706 99.7503 100.451 99.4761 100.318C99.0202 100.095 98.1736 100.041 97.7281 100.206ZM199.878 125.741C197.486 126.3 195.27 126.816 194.954 126.888L194.38 127.018L193.579 128.428C193.139 129.204 192.393 130.516 191.923 131.343L191.067 132.847L191.105 133.395C191.165 134.27 191.538 140.684 191.63 142.435C191.794 145.56 191.963 148.389 192.006 148.731C192.047 149.05 192.585 149.694 199.068 157.183C202.929 161.641 206.131 165.321 206.185 165.359C206.243 165.401 206.694 165.314 207.306 165.144L208.33 164.859L208.298 154.16C208.28 148.275 208.243 139.806 208.215 135.339L208.166 127.216L206.402 125.966C205.224 125.131 204.569 124.717 204.432 124.72C204.319 124.723 202.27 125.182 199.878 125.741ZM128.099 145.257C127.383 145.451 126.803 145.959 126.518 146.643C126.413 146.893 126.392 147.42 126.393 149.797C126.393 151.5 126.427 152.774 126.478 152.956C126.615 153.45 127.141 154.041 127.68 154.305L128.156 154.539H144.774H161.391L161.819 154.346C162.056 154.239 162.411 153.977 162.613 153.761C163.208 153.125 163.238 152.937 163.238 149.809C163.238 147.322 163.225 147.086 163.074 146.681C162.875 146.151 162.361 145.595 161.85 145.358L161.473 145.184L144.979 145.169C131.859 145.156 128.406 145.175 128.099 145.257ZM190.946 158.821C190.922 158.903 190.82 159.83 190.719 160.881L190.534 162.791L186.439 165.842L182.343 168.894L173.606 173.703L164.87 178.512L161.723 180.968L158.577 183.425L156.415 186.581C153.208 191.261 153.181 191.301 152.422 192.41C152.036 192.974 151.53 193.713 151.297 194.052C150.698 194.92 150.305 195.494 147.359 199.796C145.922 201.895 144.543 203.907 144.295 204.268C144.047 204.629 143.604 205.275 143.31 205.704C143.015 206.133 142.584 206.761 142.352 207.099C140.907 209.201 138.87 212.18 138.749 212.368C138.615 212.575 138.614 212.621 138.735 213.045C138.807 213.295 138.923 213.703 138.994 213.951C139.065 214.2 139.155 214.403 139.194 214.403C139.234 214.403 140.957 213.412 143.025 212.201C147.76 209.427 159.652 202.475 191.59 183.808L203.242 176.997L204.452 174.877C205.118 173.711 205.662 172.711 205.663 172.656C205.663 172.6 204.491 171.255 203.058 169.665C201.625 168.076 200.101 166.384 199.673 165.905C199.244 165.426 197.779 163.799 196.418 162.289L193.942 159.545L192.561 159.144C191.801 158.924 191.137 158.727 191.084 158.707C191.032 158.688 190.97 158.739 190.946 158.821ZM60.4216 170.088L53.7439 173.518L53.4819 173.958C52.3599 175.842 51.8802 176.771 51.9808 176.866C52.0386 176.92 57.2742 179.928 63.6155 183.55C69.9567 187.172 76.6591 191.005 78.5095 192.068C80.36 193.13 81.9351 193.996 82.0098 193.99C82.0844 193.985 82.7433 193.825 83.4739 193.634L84.8023 193.287L84.7513 191.556C84.7233 190.604 84.6636 187.924 84.6187 185.599L84.5373 181.373L83.7534 178.504C83.3223 176.925 82.9531 175.608 82.9331 175.575C82.913 175.543 82.5742 175.333 82.1802 175.109C80.5456 174.181 67.5756 166.902 67.3473 166.785L67.0991 166.658L60.4216 170.088ZM91.1534 181.528L90.3569 182.388L90.5654 185.984C90.68 187.961 90.8125 190.336 90.86 191.261C91.064 195.247 91.1012 195.654 91.3469 196.574C92.0051 199.04 92.1852 199.676 92.238 199.721C92.2698 199.748 94.4561 201.027 97.0964 202.563C99.7367 204.099 107.011 208.339 113.262 211.984C119.513 215.63 124.683 218.61 124.751 218.607C124.819 218.603 125.613 218.397 126.515 218.15C127.418 217.902 128.312 217.659 128.503 217.608C128.847 217.517 128.869 217.486 131.573 213.436C133.071 211.192 136.999 205.312 140.301 200.37C143.603 195.428 146.33 191.341 146.361 191.288C146.403 191.217 146.348 191.212 146.149 191.268C146.002 191.309 145.254 191.521 144.487 191.737L143.092 192.132L136.855 195.769L130.618 199.406L126.295 198.789L121.971 198.172L107.057 189.444C98.8547 184.644 92.1 180.706 92.0467 180.692C91.9935 180.679 91.5915 181.055 91.1534 181.528Z" fill="#080317"/>
<path fill-rule="evenodd" clip-rule="evenodd" d="M131.275 36.8194L129.88 37.2079L129.823 38.5128C129.792 39.2305 129.727 42.5626 129.68 45.9175L129.593 52.0172L129.801 52.3593C129.916 52.5474 130.392 53.2922 130.86 54.0143C131.328 54.7364 131.973 55.7387 132.294 56.2414L132.877 57.1555L143.483 63.5211L154.088 69.8866L158.435 71.1762L162.783 72.4659L163.498 72.2826C164.09 72.1311 165.371 71.5171 170.886 68.7413C174.555 66.8944 177.549 65.3473 177.538 65.3031C177.489 65.0995 176.999 63.2719 176.758 62.3957L176.49 61.422L175.711 60.9702C174.993 60.5542 170.801 58.1496 159.258 51.5329C156.82 50.1359 152.168 47.4677 148.918 45.6037C135.013 37.6276 132.877 36.4127 132.776 36.4215C132.718 36.4266 132.042 36.6056 131.275 36.8194ZM119.54 38.1869C118.186 38.9804 115.989 40.267 114.657 41.046C113.326 41.825 110.741 43.3381 108.913 44.4084C107.085 45.4786 103.722 47.4467 101.439 48.7817L97.288 51.209L96.8435 51.8577C96.5989 52.2145 96.2696 52.6865 96.1116 52.9065C95.9537 53.1266 95.5152 53.7548 95.1373 54.3027L94.4502 55.2987L94.6157 55.8874C94.7067 56.2112 94.9009 56.9193 95.0472 57.4609C95.1936 58.0025 95.4346 58.8887 95.5828 59.4303C95.731 59.9719 95.9876 60.9136 96.1531 61.5229C96.3186 62.1322 96.5405 62.9446 96.6463 63.3282C96.752 63.7119 96.9731 64.5243 97.1375 65.1336C97.3019 65.7429 97.488 66.426 97.551 66.6517L97.6656 67.062L98.7145 67.6532L99.7634 68.2444L101.426 67.7763L103.088 67.3082L112.02 62.0973L120.952 56.8864L122.857 53.129L124.762 49.3715L124.711 48.9028C124.683 48.6451 124.554 47.5479 124.423 46.4647C124.171 44.3728 123.655 39.9826 123.517 38.7509C123.367 37.4247 123.417 37.5232 122.681 37.1095C122.32 36.9065 122.02 36.7413 122.014 36.7423C122.007 36.7432 120.894 37.3933 119.54 38.1869ZM208.161 134.106C208.161 135.325 208.172 135.834 208.186 135.239C208.2 134.644 208.2 133.647 208.186 133.024C208.172 132.4 208.161 132.887 208.161 134.106ZM208.242 149.082C208.242 150.052 208.254 150.449 208.268 149.964C208.283 149.479 208.283 148.685 208.268 148.2C208.254 147.715 208.242 148.112 208.242 149.082ZM190.94 159.155C190.894 159.507 190.86 159.891 190.675 162.079C190.61 162.852 190.834 162.622 188.307 164.503C181.829 169.325 182.65 168.771 179.034 170.76C177.229 171.753 173.665 173.714 171.115 175.118C168.565 176.522 166.11 177.872 165.658 178.117C165.207 178.363 164.672 178.701 164.469 178.868C164.265 179.036 163.324 179.776 162.376 180.513C161.428 181.251 160.184 182.22 159.61 182.667C159.037 183.114 158.496 183.597 158.409 183.74C158.322 183.882 157.983 184.387 157.656 184.861C157.33 185.335 156.784 186.129 156.443 186.625C156.102 187.121 155.633 187.805 155.4 188.143C155.168 188.482 154.042 190.125 152.898 191.795C151.754 193.465 150.628 195.108 150.396 195.447C150.164 195.785 149.695 196.468 149.355 196.965C148.704 197.916 147.943 199.024 146.961 200.452C146.635 200.926 146.04 201.794 145.638 202.381C145.237 202.967 144.668 203.798 144.375 204.227C144.081 204.656 143.639 205.302 143.392 205.663C143.145 206.024 142.752 206.597 142.519 206.935C142.286 207.274 141.805 207.975 141.45 208.494C140.813 209.427 140.576 209.773 139.316 211.61L138.67 212.55L138.89 213.41C139.011 213.883 139.138 214.296 139.173 214.328C139.207 214.359 140.915 213.398 142.969 212.192C145.022 210.986 149.693 208.252 153.349 206.117C157.005 203.982 160.956 201.672 162.13 200.984C163.303 200.296 168.861 197.047 174.48 193.763C184.309 188.019 189.194 185.164 194.462 182.084C195.816 181.292 198.327 179.825 200.042 178.824L203.16 177.004L203.457 176.521C203.62 176.256 204.185 175.273 204.713 174.337L205.673 172.634L204.294 171.106C203.535 170.266 202.693 169.329 202.422 169.024C202.151 168.719 201.449 167.937 200.863 167.286C199.387 165.648 196.976 162.97 195.741 161.597C193.757 159.392 194.085 159.639 192.533 159.175C191.789 158.952 191.137 158.769 191.085 158.768C191.032 158.766 190.967 158.941 190.94 159.155ZM208.323 163.525C208.323 164.27 208.335 164.574 208.35 164.202C208.365 163.83 208.365 163.22 208.35 162.848C208.335 162.475 208.323 162.78 208.323 163.525ZM65.8721 167.327C65.2403 167.656 63.8555 168.371 62.7948 168.915C61.7342 169.459 59.7955 170.454 58.4866 171.125C57.1778 171.797 55.5748 172.623 54.9244 172.962L53.7419 173.577L52.8205 175.195L51.8991 176.812L53.1824 177.54C53.8882 177.94 60.6488 181.804 68.206 186.127L81.9462 193.986L83.3257 193.632L84.7052 193.279L84.7024 192.168C84.701 191.556 84.6478 188.859 84.5842 186.174C84.4786 181.708 84.4543 181.239 84.2994 180.676C84.2063 180.337 84.0407 179.728 83.9314 179.322C83.5642 177.957 82.8932 175.554 82.8758 175.542C82.8665 175.535 80.1261 173.995 76.7863 172.12C73.4464 170.244 69.9198 168.263 68.9494 167.718C67.9791 167.172 67.1482 166.726 67.1031 166.727C67.0579 166.728 66.504 166.998 65.8721 167.327ZM91.2251 181.524L90.4421 182.358L90.4909 183.507C90.547 184.831 90.6309 186.357 90.8564 190.154C90.9448 191.643 91.0402 193.471 91.0682 194.216C91.1077 195.261 91.1631 195.729 91.3108 196.267C91.866 198.291 92.092 199.126 92.1547 199.386C92.2324 199.707 90.4042 198.614 108.339 209.065C112.468 211.472 117.839 214.604 120.274 216.024L124.7 218.607L126.754 218.043L128.808 217.478L130.046 215.633C138.661 202.793 146.315 191.256 146.195 191.292C146.113 191.317 145.389 191.522 144.587 191.748L143.129 192.16L136.874 195.803L130.618 199.446L126.269 198.82L121.92 198.194L117.448 195.574C114.988 194.133 111.923 192.339 110.636 191.588C109.35 190.837 105.787 188.752 102.718 186.954C99.6485 185.157 95.9834 183.013 94.5728 182.189L92.0083 180.691L91.2251 181.524Z" fill="#A3BD8D"/>
<path fill-rule="evenodd" clip-rule="evenodd" d="M129.709 43.1412C129.709 44.0213 129.721 44.3814 129.736 43.9413C129.751 43.5012 129.751 42.7812 129.736 42.3411C129.721 41.901 129.709 42.2611 129.709 43.1412ZM129.626 48.3931C129.626 49.0927 129.638 49.3788 129.654 49.0291C129.669 48.6794 129.669 48.1069 129.654 47.7572C129.638 47.4074 129.626 47.6936 129.626 48.3931ZM123.233 65.3295C122.827 65.5696 112.376 71.6119 100.01 78.7569C87.643 85.9018 76.8164 92.1572 75.9505 92.6578L74.3761 93.5677L73.618 94.8807C73.2009 95.6029 72.5534 96.7223 72.179 97.3684L71.4982 98.543L71.4412 127.206L71.3843 155.87L72.5613 157.912C73.2087 159.036 73.8734 160.192 74.0385 160.482L74.3386 161.01L99.1139 175.355L123.889 189.701L126.816 189.702L129.743 189.702L132.848 187.909C134.555 186.923 138.814 184.462 142.312 182.44C145.81 180.418 149.872 178.07 151.339 177.222C152.806 176.375 159.693 172.395 166.643 168.379L179.281 161.077L180.13 159.614C180.597 158.809 181.252 157.681 181.586 157.107L182.194 156.065V127.318V98.5708L181.883 98.0388C181.712 97.7461 181.078 96.6463 180.474 95.5947C179.843 94.4952 179.287 93.6199 179.165 93.5348C178.987 93.4108 158.716 81.664 135.34 68.1382L129.722 64.8874L126.846 64.8902L123.971 64.8931L123.233 65.3295ZM97.7432 100.205C97.58 100.263 97.3215 100.389 97.1688 100.484C97.0161 100.579 95.5366 102.016 93.8808 103.677C90.5121 107.057 90.4511 107.136 90.4511 108.134C90.4511 109.204 90.0262 108.727 98.7383 117.448C107.06 125.778 106.856 125.555 106.986 126.446C107.055 126.917 106.857 127.663 106.553 128.074C106.436 128.232 102.867 131.842 98.6208 136.095C93.1273 141.598 90.8416 143.94 90.6956 144.217C90.5418 144.508 90.4836 144.76 90.4631 145.223C90.4385 145.775 90.4604 145.886 90.6682 146.267C90.9476 146.779 98.2158 154.17 98.4401 154.17C98.8193 154.17 99.6635 153.489 100.067 152.857C100.196 152.654 105.741 147.041 112.389 140.384C119.037 133.727 124.556 128.163 124.654 128.021C124.908 127.653 125.104 126.825 125.036 126.407C124.895 125.534 125.329 125.992 112.213 112.871C100.756 101.41 99.7288 100.404 99.3294 100.254C98.8362 100.069 98.1798 100.049 97.7432 100.205ZM128.157 145.22C127.457 145.391 126.851 145.91 126.524 146.616C126.359 146.973 126.351 147.114 126.351 149.862C126.351 152.609 126.359 152.75 126.524 153.107C126.777 153.653 127.162 154.051 127.69 154.31L128.157 154.539H144.815H161.473L161.875 154.34C162.359 154.1 162.762 153.712 163.011 153.244C163.194 152.903 163.197 152.856 163.197 149.862V146.825L162.942 146.374C162.802 146.126 162.533 145.804 162.343 145.658C161.627 145.107 162.858 145.142 144.779 145.152C135.772 145.156 128.292 145.187 128.157 145.22Z" fill="#7E9FBE"/>
</svg>