<svg width="256" height="256" viewBox="0 0 256 256" fill="none" xmlns="http://www.w3.org/2000/svg" id="zellij">
<style>
#zellij {
    rect {fill: #242938}

    @media (prefers-color-scheme: light) {
        rect {fill: #F4F2ED}
    }
}
</style>
<rect width="256" height="256" rx="60" fill="#242938"/>
<path fill-rule="evenodd" clip-rule="evenodd" d="m67.518 68.412-16.89 9.746-2.169 3.397-2.168 3.396.045 1.929c.025 1.06.065 3.922.088 6.36.023 2.437.102 9.102.174 14.812.107 8.372.124 15.005.091 34.282l-.04 23.903 1.184 1.618c.651.891 1.232 1.667 1.29 1.726.086.088.388-.101 1.665-1.042l1.56-1.149 4.136-2.015 4.136-2.015 1.67-3.34 1.671-3.34-.093-7.964c-.05-4.38-.127-10.603-.17-13.83-.041-3.228-.084-13.844-.094-23.593l-.019-17.725.684-1.15 1.513-2.54.829-1.393 10.421-5.882 10.422-5.881.985-1.06a897 897 0 0 0 2.349-2.538l1.364-1.48-.228-.855c-.334-1.253-.761-2.827-2.036-7.502l-1.142-4.185-1.754-.178-2.168-.218-.414-.04zM182.23 101.24c0 1.422.011 2.004.025 1.293s.014-1.874 0-2.585-.025-.13-.025 1.292m26.419-.082c0 .565.013.795.029.513a11 11 0 0 0 0-1.025c-.016-.283-.029-.052-.029.512m-137.198 9.191c0 5.033.01 7.091.022 4.575s.012-6.634 0-9.15-.022-.457-.022 4.575m137.116-5.457c0 .587.013.816.029.51.016-.307.016-.787 0-1.067s-.029-.03-.029.557m-.406 24.701c0 1.308.012 1.832.025 1.164s.014-1.739 0-2.38c-.013-.64-.025-.093-.025 1.216m.084 14.114c0 2.031.01 2.85.024 1.82.013-1.03.013-2.691 0-3.692-.014-1.002-.024-.159-.024 1.872m-81.899 6.155c0 1.354.012 1.919.025 1.256a72 72 0 0 0 0-2.462c-.013-.691-.024-.148-.025 1.206m81.98 9.396c0 1.647.011 2.321.025 1.497.013-.823.013-2.171 0-2.995-.014-.824-.025-.15-.025 1.498" fill="#BE616B"/>
<path fill-rule="evenodd" clip-rule="evenodd" d="M116.866 25.935c-5.577 3.258-11.246 6.567-12.596 7.354l-5.82 3.393-12.268 7.153A22431 22431 0 0 1 67.677 54.63c-6.68 3.893-13.234 7.715-14.565 8.493a8614 8614 0 0 1-16.196 9.441l-2.533 1.473.051 18.67c.114 41.749.232 75.993.283 82.258l.054 6.64 1.56.899c1.538.887 10.975 6.304 20.473 11.753 2.686 1.54 8.059 4.623 11.94 6.851l23.593 13.54 12.268 7.039 10.011 5.745c2.483 1.424 6.464 3.709 8.847 5.078 2.384 1.37 4.371 2.49 4.416 2.49.046 0 1.197-.652 2.56-1.45s3.566-2.083 4.898-2.858l5.17-3.013c4.092-2.39 41.973-24.481 62.314-36.34l17.797-10.376-.052-18.751c-.115-41.685-.232-75.821-.283-82.139l-.054-6.684-2.913-1.675-8.247-4.734a111122 111122 0 0 1-34.466-19.777l-23.88-13.704-11.652-6.686-9.178-5.267c-1.482-.85-2.738-1.543-2.79-1.54s-4.659 2.671-10.237 5.929m14.45 10.843-1.518.424-.059 2.457c-.033 1.35-.092 4.69-.131 7.419l-.072 4.963.982 1.52c.539.836 1.281 1.99 1.648 2.566l.668 1.045 10.604 6.365 10.604 6.365 1.787.533 4.385 1.305 2.597.772.75-.206c.606-.166 2.016-.842 7.373-3.538 3.643-1.833 6.637-3.344 6.655-3.358.032-.026-1.021-3.96-1.076-4.015a1618 1618 0 0 0-7.494-4.31 98008 98008 0 0 0-28.471-16.324 3776 3776 0 0 0-7.386-4.226l-.328-.182zm-14.238 2.803c-5.605 3.284-8.905 5.216-15.181 8.888-2.482 1.453-4.575 2.704-4.65 2.78-.074.077-.747 1.014-1.495 2.083l-1.359 1.943.29 1.052c.16.579.339 1.236.4 1.462.145.545 1.545 5.677 1.847 6.77.13.474.335 1.231.455 1.682l.218.821 1.07.606 1.07.605 1.637-.441 1.637-.442 8.992-5.252 8.993-5.251.526-1.026a858 858 0 0 0 1.91-3.776l1.385-2.75-.118-.943c-.114-.907-.281-2.32-.894-7.549l-.34-2.891-.055-.472-.642-.37c-.353-.203-.689-.369-.748-.368-.058.001-2.285 1.279-4.948 2.839m-49.56 28.831-16.89 9.746-2.169 3.397-2.168 3.396.045 1.929c.025 1.06.065 3.922.088 6.36.023 2.437.102 9.102.174 14.812.107 8.372.124 15.005.091 34.282l-.04 23.903 1.184 1.618c.651.891 1.232 1.667 1.29 1.726.086.088.388-.101 1.665-1.042l1.56-1.149 4.136-2.015 4.136-2.015 1.67-3.34 1.671-3.34-.093-7.964c-.05-4.38-.127-10.603-.17-13.831-.041-3.227-.084-13.843-.094-23.592l-.019-17.725.684-1.15 1.513-2.54.829-1.393 10.421-5.882 10.422-5.881.985-1.06a897 897 0 0 0 2.349-2.538l1.364-1.48-.228-.855c-.334-1.253-.761-2.827-2.036-7.502l-1.142-4.185-1.754-.178-2.168-.218-.414-.04zM99.16 79.235 74.348 93.578l-.346.61a337 337 0 0 1-2.255 3.893l-.295.492-.023 28.667-.024 28.666.827 1.45a486 486 0 0 0 1.468 2.555l.64 1.104 24.767 14.344 24.766 14.343h5.888l9.25-5.346 21.56-12.461c1.85-1.071 6.004-3.471 9.231-5.336 3.228-1.864 6.68-3.859 7.673-4.434l1.806-1.044.335-.563c.185-.31.838-1.431 1.451-2.491l1.115-1.929.019-28.738.02-28.738-1.22-2.117a250 250 0 0 1-1.427-2.498c-.206-.38-.259-.411-25.018-14.75l-24.812-14.37-2.886.003-2.887.002zm83.526-10.566c-.7.362-3.522 1.81-6.272 3.219-4.312 2.206-5.028 2.599-5.197 2.846-.335.49-1.588 2.562-1.562 2.583.013.01 4.474 2.684 9.913 5.94l9.888 5.92.814 3.016c.802 2.972 1.258 4.653 1.492 5.498.066.237.146.431.179.431s.911-.232 1.951-.516l1.892-.517 4.345-2.453c2.389-1.35 4.735-2.674 5.213-2.943l.869-.49.542-1.526c.298-.839.8-2.246 1.115-3.128l.572-1.602-.691-2.538c-.38-1.396-.719-2.565-.753-2.597-.033-.033-3.717-2.23-8.185-4.881l-8.124-4.822-3.241-1.051c-1.783-.578-3.297-1.05-3.365-1.05s-.695.298-1.395.66m23.453 29.415c-.024.024-2.223 1.049-4.886 2.277l-4.842 2.233-2.123 1.985-2.124 1.985-.442 1.133a242 242 0 0 0-1.163 3.008l-.242.643.246 3.173c.135 1.745.289 3.68.341 4.299l.096 1.126 1.103 1.021 1.103 1.021.382-.111c.21-.061 3.169-.873 6.577-1.803 3.408-.931 6.238-1.737 6.29-1.79.085-.088 1.638-3.438 1.839-3.968.046-.119.133-2.383.199-5.106.064-2.691.14-5.816.169-6.945l.053-2.053-.48-.446-1.161-1.086c-.629-.59-.819-.712-.935-.596m-108.41 2.122a3.5 3.5 0 0 0-.636.339c-.177.123-1.662 1.583-3.298 3.245-3.292 3.341-3.343 3.408-3.344 4.344 0 1.07-.428.589 8.322 9.355 8.716 8.732 8.213 8.166 8.21 9.231-.003 1.07.504.499-8.243 9.273-8.86 8.887-8.339 8.295-8.277 9.396.022.376.094.666.235.932s1.363 1.547 3.935 4.118c2.052 2.052 3.78 3.731 3.84 3.731.34 0 1.207-.707 1.578-1.288.121-.19 5.697-5.84 12.39-12.556 13.306-13.35 12.568-12.555 12.578-13.551a3.5 3.5 0 0 0-.141-.917c-.141-.435-.577-.883-12.589-12.905-9.238-9.247-12.539-12.502-12.813-12.635-.456-.223-1.302-.277-1.748-.112m102.149 25.535c-2.392.559-4.608 1.075-4.924 1.146l-.574.131-.801 1.41-1.656 2.915-.856 1.504.038.548c.06.875.433 7.289.525 9.04.164 3.125.333 5.954.376 6.296.041.319.579.963 7.062 8.452 3.861 4.458 7.063 8.138 7.117 8.176.058.042.509-.045 1.121-.215l1.024-.285-.032-10.699c-.018-5.885-.055-14.354-.083-18.821l-.049-8.123-1.764-1.25q-1.766-1.251-1.97-1.246c-.113.003-2.162.462-4.554 1.021m-71.779 19.516a2.38 2.38 0 0 0-1.581 1.386c-.105.25-.126.777-.125 3.154 0 1.703.034 2.977.085 3.159.137.494.663 1.085 1.202 1.349l.476.234h33.235l.428-.193c.236-.107.592-.369.794-.585.595-.636.625-.824.625-3.952 0-2.487-.013-2.723-.164-3.128-.199-.53-.713-1.086-1.224-1.323l-.377-.174-16.494-.015c-13.12-.013-16.573.006-16.88.088m62.847 13.564c-.024.082-.126 1.009-.227 2.06l-.185 1.91-4.095 3.051-4.096 3.052-8.737 4.809-8.736 4.809-3.147 2.456-3.146 2.457-2.162 3.156-3.993 5.829-1.125 1.642c-.599.868-.992 1.442-3.938 5.744a6056 6056 0 0 1-4.049 5.908l-.958 1.395a1002 1002 0 0 0-3.603 5.269c-.134.207-.135.253-.014.677l.259.906c.071.249.161.452.2.452s1.763-.991 3.831-2.202c4.735-2.774 16.627-9.726 48.565-28.393l11.652-6.811 1.21-2.12c.666-1.166 1.21-2.166 1.211-2.221 0-.056-1.172-1.401-2.605-2.991a1913 1913 0 0 1-3.385-3.76c-.429-.479-1.894-2.106-3.255-3.616l-2.476-2.744-1.381-.401c-.76-.22-1.424-.417-1.477-.437-.052-.019-.114.032-.138.114M60.422 170.088l-6.678 3.43-.262.44c-1.122 1.884-1.602 2.813-1.501 2.908.058.054 5.293 3.062 11.634 6.684s13.044 7.455 14.895 8.518c1.85 1.062 3.425 1.928 3.5 1.922.074-.005.733-.165 1.464-.356l1.328-.347-.05-1.731a841 841 0 0 1-.133-5.957l-.082-4.226-.784-2.869c-.43-1.579-.8-2.896-.82-2.929s-.359-.242-.753-.466a5045 5045 0 0 0-14.833-8.324l-.248-.127zm30.731 11.44-.796.86.208 3.596c.115 1.977.248 4.352.295 5.277.204 3.986.241 4.393.487 5.313.658 2.466.838 3.102.891 3.147.032.027 2.218 1.306 4.858 2.842s9.915 5.776 16.166 9.422c6.251 3.645 11.421 6.625 11.489 6.622s.862-.21 1.764-.457c.903-.248 1.797-.491 1.988-.542.344-.091.366-.122 3.07-4.172l8.728-13.066c3.302-4.942 6.029-9.029 6.06-9.082.042-.071-.013-.076-.212-.02l-1.662.47-1.395.394-6.237 3.637-6.237 3.637-4.323-.617-4.324-.617-14.914-8.728c-8.202-4.8-14.957-8.738-15.01-8.752-.053-.013-.456.363-.894.836" fill="#080317"/>
<path fill-rule="evenodd" clip-rule="evenodd" d="m131.275 36.82-1.395.388-.057 1.305c-.031.718-.096 4.05-.143 7.404l-.087 6.1.208.342c.115.188.591.933 1.059 1.655s1.113 1.725 1.434 2.227l.583.915 10.606 6.365 10.605 6.366 4.347 1.29 4.348 1.289.715-.183c.592-.152 1.873-.766 7.388-3.542 3.669-1.847 6.663-3.394 6.652-3.438-.049-.203-.539-2.031-.78-2.907l-.268-.974-.779-.452c-.718-.416-4.91-2.82-16.453-9.437-2.438-1.397-7.09-4.065-10.34-5.93-13.905-7.975-16.041-9.19-16.142-9.181-.058.005-.734.184-1.501.397m-11.735 1.367-4.883 2.859-5.744 3.362-7.474 4.374-4.151 2.427-.444.649c-.245.357-.574.829-.732 1.049s-.597.848-.975 1.396l-.687.996.166.588c.09.324.285 1.032.431 1.574l.536 1.97.57 2.092c.166.61.387 1.422.493 1.805.106.384.327 1.196.492 1.806.164.609.35 1.292.413 1.518l.115.41 1.049.591 1.048.591 1.663-.468 1.662-.468 8.932-5.21 8.932-5.212 1.905-3.757 1.905-3.758-.051-.468a341 341 0 0 0-.288-2.438c-.252-2.092-.768-6.482-.906-7.714-.15-1.326-.1-1.228-.836-1.642a22 22 0 0 0-.667-.367c-.007.001-1.12.651-2.474 1.445m58.181 33.058-6.318 3.236-.803 1.296c-.852 1.376-.917 1.492-.869 1.538.017.017 4.425 2.66 9.796 5.874s9.81 5.886 9.866 5.938.251.648.435 1.324a2312 2312 0 0 0 1.678 6.153c.15.542.298 1.106.329 1.255.042.2.091.259.193.228.075-.022.951-.263 1.947-.535l1.81-.494 4.016-2.266c2.209-1.247 4.547-2.57 5.196-2.94l1.18-.673.306-.857c1.402-3.928 1.888-5.32 1.888-5.406 0-.056-.079-.385-.175-.73-.176-.632-.393-1.421-.893-3.256-.148-.541-.328-1.045-.401-1.119-.072-.074-1.054-.679-2.183-1.345-1.85-1.091-9.216-5.458-12.687-7.521l-1.363-.81-3.274-1.064c-1.8-.584-3.291-1.062-3.314-1.062-.022 0-2.884 1.457-6.36 3.236m23.656 29.08-4.902 2.269-2.127 1.97-2.128 1.969-.718 1.847a315 315 0 0 1-.942 2.399l-.223.553.148 1.745c.081.959.229 2.834.329 4.165.1 1.332.21 2.497.245 2.59.034.092.528.604 1.096 1.137.934.876 1.055.964 1.259.914.39-.095 12.523-3.413 12.789-3.497.198-.063.299-.182.468-.55l.947-2.075.731-1.605.093-3.975c.051-2.187.113-5.342.137-7.012l.044-3.036-1.143-1.047c-.629-.575-1.156-1.043-1.172-1.038s-2.235 1.029-4.931 2.277m-1.978 25.558-4.992 1.166-1.64 2.872-1.64 2.872.052 1.067c.029.586.124 2.267.21 3.734.086 1.466.213 3.664.281 4.882.376 6.707.362 6.546.568 6.77.104.113 3.3 3.799 7.103 8.191 4.926 5.69 6.95 7.972 7.039 7.938.068-.026.53-.156 1.027-.289.497-.134.912-.253.923-.266.028-.035-.116-27.433-.174-32.854l-.05-4.767-1.729-1.215c-.951-.668-1.786-1.227-1.857-1.241s-2.375.499-5.121 1.14m-8.459 33.272c-.046.352-.08.736-.265 2.924-.065.773.159.543-2.368 2.424-6.478 4.822-5.657 4.268-9.273 6.257l-7.919 4.358c-2.55 1.404-5.005 2.754-5.457 2.999s-.986.584-1.189.751-1.145.908-2.093 1.645l-2.766 2.154c-.573.447-1.114.93-1.201 1.073a41 41 0 0 1-.753 1.121l-1.213 1.764-1.043 1.518-2.502 3.652-2.502 3.652-1.041 1.518c-.651.951-1.412 2.059-2.394 3.487l-1.323 1.929-1.263 1.846-.983 1.436-.873 1.272-1.069 1.559c-.637.933-.874 1.279-2.134 3.116l-.646.94.22.86c.121.473.248.886.283.918.034.031 1.742-.93 3.796-2.136a6010 6010 0 0 1 10.38-6.075c3.656-2.135 7.607-4.445 8.781-5.133 1.173-.688 6.731-3.937 12.35-7.221l25.562-14.939 3.118-1.82.297-.483c.163-.265.728-1.248 1.256-2.184l.96-1.703-1.379-1.528c-.759-.84-1.601-1.777-1.872-2.082s-.973-1.087-1.559-1.738l-5.122-5.689c-1.983-2.205-1.656-1.958-3.208-2.422-.744-.223-1.396-.406-1.448-.407-.053-.002-.118.173-.145.387m-125.068 8.172c-.632.329-2.017 1.044-3.077 1.588l-4.308 2.21a905 905 0 0 0-3.563 1.837l-1.182.615-.921 1.618-.922 1.617 1.283.728c.706.4 7.467 4.264 15.024 8.587l13.74 7.859 1.38-.354 1.38-.353-.004-1.111a504 504 0 0 0-.118-5.994c-.105-4.466-.13-4.935-.285-5.498l-.368-1.354c-.367-1.365-1.038-3.768-1.055-3.78-.01-.007-2.75-1.547-6.09-3.422l-7.837-4.402c-.97-.546-1.8-.992-1.846-.991-.045.001-.599.271-1.23.6m25.353 14.197-.783.834.049 1.149c.056 1.324.14 2.85.365 6.647.089 1.489.184 3.317.212 4.062.04 1.045.095 1.513.243 2.051.555 2.024.781 2.859.844 3.119.078.321-1.75-.772 16.184 9.679l11.935 6.959 4.426 2.583 2.054-.564 2.054-.565 1.238-1.845c8.615-12.84 16.269-24.377 16.149-24.341-.082.025-.806.23-1.608.456l-1.458.412-6.255 3.643-6.256 3.643-4.349-.626-4.349-.626-4.472-2.62c-2.46-1.441-5.525-3.235-6.812-3.986a9019 9019 0 0 1-7.918-4.634l-8.145-4.765-2.565-1.498z" fill="#A3BD8D"/>
<path fill-rule="evenodd" clip-rule="evenodd" d="M129.709 43.141c0 .88.012 1.24.027.8s.015-1.16 0-1.6-.027-.08-.027.8m-.083 5.252c0 .7.012.986.028.636.015-.35.015-.922 0-1.272-.016-.35-.028-.063-.028.636m-6.393 16.936c-.406.24-10.857 6.283-23.223 13.428l-24.06 13.9-1.574.91-.758 1.314-1.439 2.487-.68 1.175-.058 28.663-.057 28.664 1.177 2.042c.648 1.124 1.312 2.28 1.477 2.57l.3.528 24.776 14.345 24.775 14.346 2.927.001h2.927l3.105-1.793 9.464-5.469 9.027-5.218 15.304-8.843 12.638-7.302.849-1.463 1.456-2.507.608-1.042V98.571l-.311-.532c-.171-.293-.805-1.393-1.409-2.444-.631-1.1-1.187-1.975-1.309-2.06-.178-.124-20.449-11.871-43.825-25.397l-5.618-3.25-2.876.002-2.875.003zm-25.49 34.876a3.6 3.6 0 0 0-.574.279c-.153.095-1.632 1.532-3.288 3.193-3.369 3.38-3.43 3.459-3.43 4.457 0 1.07-.425.593 8.287 9.314 8.322 8.33 8.118 8.107 8.248 8.998.069.471-.129 1.217-.433 1.628-.117.158-3.686 3.768-7.932 8.021-5.494 5.503-7.78 7.845-7.925 8.122-.154.291-.212.543-.233 1.006-.024.552-.003.663.205 1.044.28.512 7.548 7.903 7.772 7.903.38 0 1.224-.682 1.627-1.313.129-.203 5.674-5.816 12.322-12.473s12.167-12.221 12.265-12.363c.254-.368.45-1.196.382-1.614-.141-.873.293-.415-12.823-13.536-11.457-11.461-12.484-12.467-12.884-12.617-.493-.185-1.15-.205-1.586-.049m30.414 45.015c-.7.171-1.306.69-1.633 1.396-.165.357-.173.498-.173 3.246 0 2.747.008 2.888.173 3.245a2.43 2.43 0 0 0 1.166 1.203l.467.229h33.316l.402-.199a2.6 2.6 0 0 0 1.136-1.096c.183-.341.186-.388.186-3.382v-3.037l-.255-.451a2.8 2.8 0 0 0-.599-.716c-.716-.551.515-.516-17.564-.507-9.007.005-16.487.036-16.622.069" fill="#7E9FBE"/>
</svg>