<svg width="256" height="256" viewBox="0 0 256 256" fill="none" xmlns="http://www.w3.org/2000/svg" id="zen">
<style>
#zen {
    rect {fill: #242938}
    path {fill: white}

    @media (prefers-color-scheme: light) {
        rect {fill: #F4F2ED}
        path {fill: #131313}
    }
}
</style>
<rect width="256" height="256" fill="#242938" rx="60"/>
<path d="M202.997 184.57C202.826 194.851 194.224 203 183.941 203H106.653C103.647 203 101.607 199.944 102.759 197.168L102.785 197.105C107.867 184.835 116.114 174.48 126.644 166.927C127.954 165.987 129.534 165.5 131.147 165.5H184.25C194.712 165.5 203.173 174.068 202.997 184.57Z" fill="white"/>
<path d="M149.347 53C152.353 53 154.393 56.0554 153.241 58.8314L153.215 58.8944C148.133 71.1651 139.886 81.5194 129.356 89.073C128.046 90.0125 126.466 90.4998 124.854 90.4998H72.0587C61.7764 90.4998 53.1742 82.3507 53.0027 72.0701C52.8276 61.568 61.2881 53 71.7499 53H149.347Z" fill="white"/>
<path d="M71.7466 203C69.3552 203 66.9258 202.54 64.5792 201.568C55.0125 197.605 50.4695 186.638 54.432 177.071C60.5264 162.359 69.2615 149.169 80.3956 137.868C91.9296 126.161 105.532 117.013 120.825 110.679C141.846 101.971 158.218 85.5992 166.925 64.579C170.887 55.012 181.855 50.4699 191.421 54.4318C200.988 58.3944 205.531 69.3621 201.568 78.9281C195.474 93.6408 186.739 106.831 175.605 118.131C164.071 129.839 150.469 138.986 135.175 145.321C114.154 154.029 97.7821 170.4 89.0756 191.421C86.0852 198.64 79.1031 203 71.7466 203Z" fill="white"/>
</svg>
