<svg width="256" height="256" viewBox="0 0 256 256" fill="none" xmlns="http://www.w3.org/2000/svg">
<path d="M196 0H60C26.8629 0 0 26.8629 0 60V196C0 229.137 26.8629 256 60 256H196C229.137 256 256 229.137 256 196V60C256 26.8629 229.137 0 196 0Z" fill="#242938"/>
<path fill-rule="evenodd" clip-rule="evenodd" d="M128.5 165C149.763 165 167 148.211 167 127.5C167 106.789 149.763 90 128.5 90C107.237 90 90 106.789 90 127.5C90 148.211 107.237 165 128.5 165ZM159.3 127.5C159.3 144.069 145.51 157.5 128.5 157.5C111.49 157.5 97.6999 144.069 97.6999 127.5C97.6999 110.931 111.49 97.4999 128.5 97.4999C145.51 97.4999 159.3 110.931 159.3 127.5Z" fill="white"/>
<path fill-rule="evenodd" clip-rule="evenodd" d="M194 127.5C194 163.675 164.675 193 128.5 193C92.3252 193 63 163.675 63 127.5C63 91.3252 92.3252 62 128.5 62C164.675 62 194 91.3252 194 127.5ZM128.5 180.404C157.718 180.404 181.404 156.718 181.404 127.5C181.404 98.2819 157.718 74.596 128.5 74.596C99.2819 74.596 75.596 98.2819 75.596 127.5C75.596 156.718 99.2819 180.404 128.5 180.404Z" fill="white"/>
<path fill-rule="evenodd" clip-rule="evenodd" d="M226 127.5C226 181.348 182.348 225 128.5 225C74.6523 225 31 181.348 31 127.5C31 73.6523 74.6523 30 128.5 30C182.348 30 226 73.6523 226 127.5ZM128.5 207.5C172.683 207.5 208.5 171.683 208.5 127.5C208.5 83.3173 172.683 47.5 128.5 47.5C84.3173 47.5 48.5 83.3173 48.5 127.5C48.5 171.683 84.3173 207.5 128.5 207.5Z" fill="white"/>
</svg>