<svg width="256" height="256" viewBox="0 0 256 256" fill="none" xmlns="http://www.w3.org/2000/svg">
<g clip-path="url(#clip0_93_27)">
<path d="M196 0H60C26.8629 0 0 26.8629 0 60V196C0 229.137 26.8629 256 60 256H196C229.137 256 256 229.137 256 196V60C256 26.8629 229.137 0 196 0Z" fill="#242938"/>
<path fill-rule="evenodd" clip-rule="evenodd" d="M128 161C146.226 161 161 146.226 161 128C161 109.775 146.226 95 128 95C109.775 95 95 109.775 95 128C95 146.226 109.775 161 128 161ZM154.4 128C154.4 142.58 142.58 154.4 128 154.4C113.42 154.4 101.6 142.58 101.6 128C101.6 113.42 113.42 101.6 128 101.6C142.58 101.6 154.4 113.42 154.4 128Z" fill="white"/>
<path fill-rule="evenodd" clip-rule="evenodd" d="M185 128C185 159.48 159.48 185 128 185C96.5197 185 71 159.48 71 128C71 96.5197 96.5197 71 128 71C159.48 71 185 96.5197 185 128ZM128 174.039C153.426 174.039 174.039 153.426 174.039 128C174.039 102.574 153.426 81.9614 128 81.9614C102.574 81.9614 81.9614 102.574 81.9614 128C81.9614 153.426 102.574 174.039 128 174.039Z" fill="white"/>
<path fill-rule="evenodd" clip-rule="evenodd" d="M213 128C213 174.944 174.944 213 128 213C81.0558 213 43 174.944 43 128C43 81.0558 81.0558 43 128 43C174.944 43 213 81.0558 213 128ZM128 197.744C166.518 197.744 197.744 166.518 197.744 128C197.744 89.4817 166.518 58.2564 128 58.2564C89.4817 58.2564 58.2564 89.4817 58.2564 128C58.2564 166.518 89.4817 197.744 128 197.744Z" fill="white"/>
</g>
<defs>
<clipPath id="clip0_93_27">
<rect width="256" height="256" fill="white"/>
</clipPath>
</defs>
</svg>
