<svg xmlns="http://www.w3.org/2000/svg" width="256" height="256" fill="none" viewBox="0 0 256 256"><rect width="256" height="256" fill="#F4F2ED" rx="60"/><path fill="#F15A24" d="M123.216 71.071C122.401 70.9281 121.562 71.0017 120.784 71.2844C120.006 71.567 119.316 72.0489 118.781 72.6819L31.0973 177.237C30.2973 178.199 29.9093 179.438 30.0179 180.685C30.1265 181.932 30.7229 183.085 31.6771 183.894C32.6369 184.698 33.8758 185.09 35.1229 184.983C36.3701 184.875 37.5241 184.278 38.3329 183.321L126.009 78.7659C126.812 77.8048 127.203 76.5643 127.096 75.3155C126.989 74.0667 126.393 72.9111 125.437 72.1013C124.796 71.5752 124.031 71.2207 123.216 71.071ZM56.9607 73.6632C50.2117 73.6912 43.7471 76.3882 38.9748 81.1668C34.2025 85.9454 31.5091 92.4186 31.4811 99.1765C31.5048 105.935 34.1971 112.41 38.9706 117.188C43.7441 121.966 50.2112 124.66 56.9607 124.682C63.7055 124.649 70.1647 121.952 74.9333 117.175C79.7018 112.399 82.394 105.93 82.424 99.1765C82.4004 92.4194 79.7092 85.9459 74.9375 81.1678C70.1658 76.3898 63.7007 73.6951 56.9526 73.6714M56.9526 88.4397C58.3653 88.4244 59.7669 88.6916 61.0752 89.2256C62.3835 89.7597 63.5722 90.5498 64.5716 91.5498C65.571 92.5498 66.361 93.7394 66.8954 95.049C67.4297 96.3586 67.6976 97.7619 67.6834 99.1765C67.6965 100.59 67.4278 101.993 66.893 103.301C66.3581 104.61 65.5679 105.799 64.5687 106.798C63.5694 107.797 62.381 108.586 61.0733 109.12C59.7655 109.654 58.3646 109.92 56.9526 109.905C55.5426 109.917 54.1443 109.648 52.8394 109.113C51.5345 108.578 50.3491 107.788 49.3524 106.789C48.3557 105.79 47.5677 104.603 47.0344 103.296C46.5011 101.989 46.2332 100.588 46.2462 99.1765C46.231 97.7626 46.4976 96.3598 47.0304 95.0503C47.5632 93.7409 48.3516 92.551 49.3494 91.5504C50.3472 90.5498 51.5343 89.7585 52.8412 89.223C54.1482 88.6874 55.5487 88.4183 56.9607 88.4315M99.8596 131.387C93.1114 131.411 86.6464 134.106 81.8747 138.884C77.103 143.662 74.4118 150.135 74.3881 156.892C74.414 163.649 77.1073 170.122 81.8805 174.899C86.6537 179.675 93.1196 182.368 99.8678 182.389C106.614 182.357 113.074 179.658 117.843 174.88C122.612 170.102 125.303 163.631 125.331 156.876C125.299 150.122 122.605 143.654 117.835 138.88C113.064 134.105 106.604 131.417 99.8596 131.387ZM99.8596 146.139C101.272 146.125 102.674 146.393 103.982 146.928C105.29 147.463 106.478 148.254 107.476 149.255C108.475 150.256 109.264 151.446 109.797 152.756C110.331 154.066 110.598 155.469 110.582 156.884C110.582 162.894 105.87 167.613 99.8678 167.613C98.4557 167.628 97.0548 167.361 95.747 166.828C94.4393 166.294 93.251 165.505 92.2517 164.505C91.2524 163.506 90.4622 162.318 89.9274 161.009C89.3925 159.7 89.1238 158.298 89.1369 156.884C89.1216 155.469 89.3885 154.066 89.9218 152.756C90.4552 151.446 91.2443 150.256 92.2429 149.255C93.2416 148.254 94.4297 147.463 95.7375 146.928C97.0454 146.393 98.4468 146.125 99.8596 146.139ZM158.667 172.928C157.416 172.932 156.218 173.432 155.334 174.317C154.45 175.203 153.951 176.402 153.947 177.655C153.951 178.907 154.45 180.106 155.334 180.992C156.218 181.877 157.416 182.377 158.667 182.381H221.272C222.524 182.379 223.724 181.88 224.61 180.995C225.496 180.109 225.996 178.908 226 177.655C225.996 176.401 225.496 175.2 224.61 174.314C223.724 173.429 222.524 172.93 221.272 172.928H158.667Z"/></svg>